<?xml version="1.0" encoding="utf-8"?>
<!-- Generator: Fusion 360, Shaper Origin Export Add-In, Version 1.5.0  -->
<svg enable-background="new 0 0 24.315674 13.621258" height="13.621258cm" shaper:fusionaddin="version:1.5.0" version="1.1" viewBox="0 0 24.315674 13.621258" width="24.315674cm" x="0cm" xml:space="preserve" xmlns="http://www.w3.org/2000/svg" xmlns:shaper="http://www.shapertools.com/namespaces/shaper" xmlns:xlink="http://www.w3.org/1999/xlink" y="0cm"><path d="M-1.561084,1.39573 L-0.234188,0.071882 -0.220218,0.061468 -0.205994,0.05207 -0.191516,0.043688 -0.17653,0.036068 -0.161544,0.029464 -0.146304,0.023622 -0.13081,0.018542 -0.115062,0.014224 -0.09906,0.010414 -0.082804,0.007366 -0.066548,0.00508 -0.050292,0.003048 -0.033528,0.001778 -0.017018,0.000762 0,0 5.924296,0.005842 5.941568,0.008382 5.958078,0.011684 5.974334,0.016002 5.990336,0.021082 6.005576,0.027178 6.020562,0.033782 6.03504,0.041148 6.049264,0.049276 6.063234,0.057912 6.076696,0.06731 6.089904,0.076962 6.102858,0.087376 6.115558,0.098044 6.128258,0.10922 6.14045,0.12065 6.152642,0.132334 6.16458,0.144272 7.460742,1.439418 9.007856,2.515616 10.690606,3.305048 10.703052,3.312922 10.714736,3.32105 10.725912,3.329686 10.736326,3.339084 10.746232,3.348736 10.75563,3.358896 10.76452,3.369564 10.772648,3.380486 10.780014,3.391916 10.787126,3.403854 10.793476,3.415792 10.799064,3.428238 10.804144,3.440684 10.808716,3.453638 10.81278,3.466846 10.816082,3.480054 10.818622,3.493262 10.820654,3.506978 10.822178,3.52044 10.82294,3.534156 10.823194,3.548126 10.822686,3.561842 10.82167,3.575558 10.819892,3.589274 10.817352,3.60299 10.814558,3.616452 10.810748,3.629914 10.806684,3.643122 10.801604,3.65633 10.796016,3.66903 10.082022,5.219192 11.340592,5.812028 11.393424,5.695696 11.407648,5.665724 11.415014,5.650738 11.422634,5.636006 11.430508,5.621782 11.438636,5.607558 11.447018,5.593588 11.455908,5.579872 11.465052,5.566918 11.47445,5.554218 11.48461,5.542026 11.495024,5.530342 11.505692,5.51942 11.517122,5.509006 11.52906,5.499354 11.541506,5.490464 11.55446,5.482336 11.568176,5.47497 11.5824,5.46862 11.597132,5.463032 11.61288,5.458714 11.629136,5.455412 11.646154,5.453126 11.663934,5.451856 11.679428,5.452364 11.694668,5.45338 11.709908,5.455158 11.725148,5.457444 11.740134,5.460238 11.75512,5.46354 11.769852,5.467096 11.78433,5.471414 11.799062,5.475986 11.81354,5.481066 11.828018,5.4864 11.856466,5.498084 13.50264,6.268466 13.515594,6.27634 13.527786,6.284722 13.53947,6.293866 13.550646,6.303518 13.560806,6.313678 13.570458,6.324092 13.579602,6.335268 13.58773,6.346698 13.595604,6.358636 13.602462,6.371082 13.608812,6.383528 13.6144,6.396482 13.61948,6.40969 13.623798,6.423152 13.627608,6.436868 13.630656,6.450838 13.632942,6.464808 13.63472,6.478778 13.635736,6.493002 13.636244,6.50748 13.63599,6.521704 13.635228,6.536182 13.633704,6.550406 13.631418,6.56463 13.628624,6.578854 13.625322,6.592824 13.621258,6.606794 13.616432,6.62051 13.611098,6.633972 13.605256,6.647434 13.598652,6.660388 13.457936,6.963664 14.958568,7.664704 14.972284,7.673086 14.98473,7.68223 14.996668,7.691882 15.00759,7.702042 15.01775,7.712964 15.027148,7.72414 15.035784,7.735824 15.043658,7.748016 15.05077,7.760462 15.05712,7.773416 15.062708,7.786878 15.067534,7.80034 15.071598,7.814056 15.0749,7.82828 15.077694,7.842504 15.079726,7.856982 15.080996,7.87146 15.081504,7.886192 15.081504,7.900924 15.080742,7.915656 15.079472,7.930388 15.07744,7.94512 15.0749,7.959852 15.071598,7.97433 15.067788,7.988808 15.063216,8.003032 15.05839,8.017256 15.052548,8.031226 15.046452,8.044688 15.039848,8.05815 12.667234,13.139166 12.659868,13.152628 12.651994,13.165582 12.643358,13.177774 12.63396,13.189458 12.624308,13.20038 12.613894,13.210794 12.602972,13.220446 12.591542,13.229336 12.579858,13.237718 12.567412,13.245338 12.554966,13.25245 12.542012,13.2588 12.52855,13.264388 12.515088,13.269468 12.501372,13.273786 12.487148,13.277342 12.472924,13.28039 12.4587,13.282676 12.444222,13.2842 12.429744,13.285216 12.415012,13.285216 12.400534,13.284708 12.385802,13.283692 12.371324,13.28166 12.356846,13.27912 12.342368,13.275564 12.328398,13.2715 12.314428,13.266928 12.300458,13.26134 12.286996,13.25499 12.273788,13.248132 10.837164,12.582652 10.441432,13.404088 10.42543,13.432282 10.409174,13.460476 10.39241,13.488416 10.375646,13.516102 10.366248,13.527532 10.356342,13.537946 10.346182,13.547852 10.335514,13.556996 10.324338,13.565378 10.312908,13.572998 10.301224,13.579856 10.289032,13.585952 10.276586,13.59154 10.26414,13.596366 10.251186,13.600684 10.238232,13.60424 10.225024,13.607288 10.211562,13.609574 10.1981,13.611098 10.184384,13.612368 10.170668,13.612876 10.156952,13.612622 10.142982,13.612114 10.129266,13.610844 10.11555,13.609066 10.101834,13.60678 10.088118,13.603986 10.074402,13.600684 10.06094,13.596874 10.047732,13.592556 10.034524,13.58773 10.02157,13.582396 10.00887,13.576808 9.996424,13.570712 9.984232,13.564108 8.588756,12.907518 8.53821,13.012166 8.522462,13.042646 8.51408,13.057886 8.505444,13.072872 8.496808,13.087604 8.487664,13.102082 8.478266,13.116306 8.468614,13.130276 8.458454,13.143738 8.44804,13.156946 8.437118,13.169392 8.425942,13.181584 8.414258,13.193014 8.402066,13.203682 8.38962,13.213842 8.376412,13.22324 8.36295,13.231876 8.348726,13.23975 8.333994,13.246608 8.318754,13.25245 8.303006,13.25753 8.286496,13.261594 8.269478,13.264388 8.251698,13.266166 8.233156,13.266674 8.217662,13.265404 8.202168,13.263372 8.186928,13.260832 8.171942,13.257784 8.156956,13.254228 8.14197,13.250164 8.127238,13.245846 8.112506,13.24102 8.098028,13.23594 8.069072,13.224764 8.054594,13.218668 8.04037,13.212318 6.430518,12.45108 6.417818,12.443206 6.405626,12.43457 6.394196,12.425426 6.383528,12.41552 6.373368,12.40536 6.36397,12.394692 6.35508,12.383516 6.347206,12.372086 6.339586,12.359894 6.332982,12.347702 6.326632,12.335002 6.321298,12.322048 6.316472,12.309094 6.312154,12.295632 6.308852,12.281916 6.305804,12.2682 6.303518,12.25423 6.301994,12.240006 6.300978,12.225782 6.300724,12.211558 6.301232,12.197334 6.301994,12.18311 6.303772,12.168886 6.305804,12.154662 6.308852,12.140692 6.312154,12.126722 6.316472,12.113006 6.321044,12.09929 6.326378,12.085828 6.391656,11.951462 6.397752,11.938762 6.402578,11.92657 6.405626,11.909806 6.403086,11.895328 6.392926,11.883644 6.381242,11.877548 6.364986,11.87323 4.909058,11.190478 4.891024,11.176508 4.874514,11.161268 4.85902,11.144758 4.84505,11.126978 4.832604,11.108436 4.821682,11.088878 4.81203,11.068558 4.80441,11.047476 4.798314,11.02614 4.793742,11.004296 4.791202,10.981944 4.79044,10.959592 4.791456,10.93724 4.794504,10.914888 4.799584,10.89279 4.806696,10.870946 3.346958,10.192766 2.480818,10.199116 1.045464,10.866628 1.049528,10.88136 1.05283,10.896092 1.055116,10.91057 1.05664,10.925302 1.057148,10.93978 1.05664,10.954004 1.055624,10.968228 1.053592,10.982198 1.051052,10.996168 1.047496,11.009884 1.043432,11.023346 1.038606,11.036554 1.033018,11.049508 1.026922,11.062208 1.020318,11.074908 1.012952,11.0871 1.005078,11.099038 0.996696,11.110722 0.987552,11.121898 0.978154,11.13282 0.968502,11.143488 0.958088,11.153902 0.94742,11.163554 0.936244,11.173206 0.924814,11.182096 0.91313,11.190732 0.900938,11.19886 0.888746,11.206734 0.876046,11.213846 0.863092,11.220704 0.850138,11.2268 0.83693,11.232388 -0.568706,11.891518 -0.562356,11.905234 -0.555752,11.919204 -0.549148,11.933428 -0.535432,11.962384 -0.52832,11.976862 -0.521462,11.991594 -0.514604,12.00658 -0.501396,12.036552 -0.495046,12.051792 -0.48895,12.067032 -0.483108,12.082272 -0.477774,12.097512 -0.472694,12.113006 -0.468122,12.128246 -0.464058,12.14374 -0.460756,12.159234 -0.457962,12.174728 -0.455676,12.189968 -0.454152,12.205462 -0.453644,12.220956 -0.453644,12.236196 -0.45466,12.251436 -0.456438,12.266676 -0.459486,12.281916 -0.463296,12.297156 -0.468122,12.312142 -0.474218,12.327128 -0.48133,12.34186 -0.489966,12.356592 -0.499618,12.37107 -0.510032,12.383516 -0.520954,12.395454 -0.532384,12.40663 -0.544068,12.417552 -0.556006,12.427712 -0.568452,12.437618 -0.581152,12.447016 -0.59436,12.455906 -0.607568,12.464542 -0.621284,12.472924 -0.635,12.480798 -0.64897,12.488418 -0.663194,12.495784 -0.69215,12.510008 -0.706628,12.516612 -0.721614,12.52347 -0.736346,12.52982 -0.766318,12.54252 -2.30632,13.25118 -2.320798,13.255752 -2.335276,13.259562 -2.349754,13.262356 -2.364232,13.264388 -2.37871,13.265658 -2.392934,13.265912 -2.407158,13.265404 -2.421382,13.264134 -2.435352,13.262356 -2.449322,13.259562 -2.462784,13.256006 -2.476246,13.251942 -2.489454,13.247116 -2.502408,13.241528 -2.515108,13.235432 -2.527554,13.228828 -2.539746,13.221462 -2.551684,13.213588 -2.563114,13.205206 -2.57429,13.196062 -2.584958,13.186664 -2.595118,13.176758 -2.605024,13.166344 -2.614422,13.155422 -2.623312,13.143992 -2.631948,13.132308 -2.639822,13.120116 -2.647188,13.10767 -2.654046,13.09497 -2.660396,13.081762 -2.665984,13.0683 -2.671064,13.054584 -2.678176,13.043916 -2.68478,13.031724 -2.69113,13.018516 -2.696972,13.004292 -2.70256,12.990068 -2.708402,12.975844 -2.714498,12.962128 -2.720848,12.949682 -2.727706,12.938506 -2.73939,12.925806 -2.753106,12.918694 -2.769362,12.919202 -2.781808,12.924282 -2.796032,12.93368 -2.803652,12.940284 -4.259326,13.60932 -4.276598,13.6144 -4.29387,13.617956 -4.311142,13.620242 -4.32816,13.621258 -4.345178,13.621258 -4.361942,13.620242 -4.37896,13.61821 -4.395978,13.615416 -4.41325,13.61186 -4.430522,13.607796 -4.4359494,13.6063487 A0.0062128,0.0062128 16.6661658 0,0 -4.4474308,13.6017346 L-4.457192,13.596366 -4.47167,13.587222 -4.485386,13.57757 -4.49834,13.56741 -4.510532,13.556488 -4.52247,13.545058 -4.533392,13.533374 -4.54406,13.520928 -4.55422,13.508228 -4.563618,13.49502 -4.572762,13.481304 -4.581398,13.467334 -4.58978,13.45311 -4.597908,13.438632 -4.605528,13.4239 -4.612894,13.408914 -4.994656,12.583922 -6.496558,13.27531 -6.511544,13.280136 -6.526276,13.283946 -6.541262,13.286994 -6.555994,13.289026 -6.570726,13.290042 -6.585204,13.290296 -6.599936,13.289788 -6.61416,13.288264 -6.628384,13.285978 -6.642354,13.28293 -6.656324,13.279374 -6.67004,13.274802 -6.683248,13.269468 -6.696456,13.263626 -6.709156,13.257276 -6.721856,13.24991 -6.734048,13.24229 -6.745732,13.233908 -6.757416,13.224764 -6.768338,13.215366 -6.779006,13.205206 -6.789166,13.194792 -6.799072,13.18387 -6.80847,13.17244 -6.817106,13.160502 -6.825488,13.14831 -6.833108,13.13561 -6.84022,13.122656 -6.846824,13.109448 -6.85292,13.095732 -9.214612,8.015986 -9.2202,8.000746 -9.225026,7.985506 -9.228836,7.970266 -9.23163,7.955026 -9.233408,7.939786 -9.23417,7.924546 -9.23417,7.90956 -9.233154,7.894574 -9.231376,7.879842 -9.228836,7.86511 -9.225534,7.850632 -9.221216,7.836154 -9.21639,7.822184 -9.210548,7.808214 -9.204198,7.794498 -9.19734,7.78129 -9.18972,7.768082 -9.181338,7.755382 -9.172448,7.742936 -9.16305,7.730998 -9.153144,7.719314 -9.14273,7.708138 -9.131808,7.697216 -9.120378,7.686802 -9.108694,7.676896 -9.096502,7.667498 -9.083802,7.658608 -9.070848,7.650226 -9.05764,7.642352 -9.044178,7.634986 -9.030462,7.628382 -7.614158,6.965696 -7.744714,6.675374 -7.750556,6.658864 -7.756144,6.642354 -7.761478,6.62559 -7.76605,6.60908 -7.770114,6.592062 -7.77367,6.575298 -7.776464,6.55828 -7.77875,6.541008 -7.780274,6.523736 -7.780782,6.506464 -7.780782,6.488938 -7.779766,6.471412 -7.777734,6.453632 -7.77494,6.435852 -7.770368,6.417564 -7.764526,6.400038 -7.757668,6.383528 -7.749794,6.368034 -7.741158,6.353302 -7.731506,6.339078 -7.721092,6.32587 -7.709916,6.313424 -7.698232,6.301486 -7.685786,6.29031 -7.672578,6.279642 -7.658862,6.269482 -7.644638,6.25983 -7.629906,6.250686 -7.61492,6.24205 -7.599426,6.233668 -7.583678,6.22554 -7.567676,6.217666 -5.906008,5.465318 -5.891022,5.461762 -5.87629,5.459222 -5.861812,5.457444 -5.847334,5.456682 -5.832856,5.456936 -5.818632,5.457698 -5.804662,5.459476 -5.790946,5.462016 -5.77723,5.465318 -5.764022,5.469382 -5.750814,5.474208 -5.73786,5.479796 -5.725414,5.485892 -5.712968,5.492496 -5.70103,5.499862 -5.689092,5.507736 -5.677916,5.516372 -5.66674,5.525262 -5.656072,5.53466 -5.645658,5.54482 -5.635752,5.55498 -5.626354,5.565902 -5.61721,5.577078 -5.608574,5.588762 -5.600446,5.6007 -5.592572,5.612892 -5.585206,5.625338 -5.578602,5.638292 -5.572252,5.651246 -5.56641,5.664454 -5.56133,5.677916 -5.556758,5.691378 -5.551424,5.710682 -5.545328,5.728208 -5.53847,5.743702 -5.531104,5.757164 -5.522976,5.768594 -5.514086,5.777992 -5.499354,5.788406 -5.483098,5.793994 -5.465064,5.794756 -5.451856,5.79247 -5.43814,5.788152 -5.423408,5.781294 -5.407914,5.772404 -5.391658,5.761228 -5.383276,5.754624 -4.237736,5.219954 -4.978654,3.612134 -4.981702,3.59791 -4.984242,3.58394 -4.985766,3.56997 -4.986528,3.556 -4.986782,3.542284 -4.98602,3.528568 -4.984496,3.514852 -4.982464,3.501644 -4.97967,3.488436 -4.976368,3.475228 -4.972304,3.462528 -4.967732,3.449828 -4.962398,3.437382 -4.956556,3.42519 -4.949952,3.413252 -4.943094,3.401822 -4.935474,3.390392 -4.9276,3.37947 -4.918964,3.368802 -4.910074,3.358642 -4.900676,3.348736 -4.89077,3.339084 -4.88061,3.32994 -4.869942,3.321304 -4.858766,3.312922 -4.84759,3.305302 -4.835652,3.297936 -4.823714,3.291078 -4.811268,3.284728 -4.798822,3.278886 -4.785868,3.273552 -4.77266,3.268726 -3.119374,2.489454 -1.561084,1.39573z" fill="rgb(0,0,0)" shaper:cutDepth="0.0016" shaper:pathType="exterior" transform="matrix(1,0,0,-1,9.23417,13.621258)" vector-effect="non-scaling-stroke" /></svg>