  0
SECTION
  2
HEADER
  9
$ACADVER
  1
AC1006
  9
$EXTMIN
 10
0.000000
 20
0.000000
 30
0.000000
  9
$EXTMAX
 10
2872.000000
 20
1609.000000
 30
0.000000
  0
ENDSEC
  0
SECTION
  2
ENTITIES
  0
POLYLINE
  8
0
 66
1
 70
1
  0
VERTEX
  8
0
 10
569.589293
 20
1607.940846
 42
0.072622
  0
VERTEX
  8
0
 10
563.330611
 20
1605.370713
 42
0.059059
  0
VERTEX
  8
0
 10
557.565309
 20
1600.963977
 42
0.050222
  0
VERTEX
  8
0
 10
552.218848
 20
1594.614240
 42
0.030930
  0
VERTEX
  8
0
 10
547.211309
 20
1586.215291
 42
0.008674
  0
VERTEX
  8
0
 10
544.710720
 20
1581.148322
 42
0.000683
  0
VERTEX
  8
0
 10
538.312286
 20
1567.547617
 42
0.000928
  0
VERTEX
  8
0
 10
530.731388
 20
1551.297728
 42
0.000710
  0
VERTEX
  8
0
 10
522.499301
 20
1533.500000
 42
-0.000674
  0
VERTEX
  8
0
 10
514.492779
 20
1516.186641
 42
-0.001087
  0
VERTEX
  8
0
 10
507.622829
 20
1501.467316
 42
-0.000155
  0
VERTEX
  8
0
 10
501.486785
 20
1488.405208
 42
-0.076193
  0
VERTEX
  8
0
 10
500.975422
 20
1487.644053
 42
-0.318260
  0
VERTEX
  8
0
 10
500.237221
 20
1487.486023
 42
-0.000568
  0
VERTEX
  8
0
 10
487.980815
 20
1492.761989
 42
-0.003665
  0
VERTEX
  8
0
 10
474.136272
 20
1498.861059
 42
-0.002224
  0
VERTEX
  8
0
 10
457.844053
 20
1506.268782
 42
-0.000034
  0
VERTEX
  8
0
 10
438.216705
 20
1515.300084
 42
-0.000018
  0
VERTEX
  8
0
 10
413.985441
 20
1526.452869
 42
-0.000018
  0
VERTEX
  8
0
 10
389.265092
 20
1537.832925
 42
-0.000028
  0
VERTEX
  8
0
 10
368.000000
 20
1547.624728
 42
0.000000
  0
VERTEX
  8
0
 10
320.500000
 20
1569.500000
 42
0.000000
  0
VERTEX
  8
0
 10
313.000000
 20
1569.500000
 42
0.014966
  0
VERTEX
  8
0
 10
308.891775
 20
1569.377007
 42
0.036343
  0
VERTEX
  8
0
 10
305.887031
 20
1568.976492
 42
0.040336
  0
VERTEX
  8
0
 10
303.162383
 20
1568.175881
 42
0.022677
  0
VERTEX
  8
0
 10
300.000000
 20
1566.794748
 42
0.048788
  0
VERTEX
  8
0
 10
294.658733
 20
1563.485964
 42
0.039797
  0
VERTEX
  8
0
 10
289.652560
 20
1558.990785
 42
0.038361
  0
VERTEX
  8
0
 10
285.242510
 20
1553.569397
 42
0.037542
  0
VERTEX
  8
0
 10
281.676891
 20
1547.500000
 42
0.005053
  0
VERTEX
  8
0
 10
278.994828
 20
1541.890601
 42
0.000011
  0
VERTEX
  8
0
 10
238.465490
 20
1454.871875
 42
0.000074
  0
VERTEX
  8
0
 10
192.873153
 20
1356.939317
 42
0.000046
  0
VERTEX
  8
0
 10
139.396886
 20
1242.000000
 42
0.000000
  0
VERTEX
  8
0
 10
0.551181
 20
943.500000
 42
0.000000
  0
VERTEX
  8
0
 10
0.526387
 20
935.500000
 42
0.013419
  0
VERTEX
  8
0
 10
0.630766
 20
931.103400
 42
0.034697
  0
VERTEX
  8
0
 10
1.010178
 20
927.955191
 42
0.039607
  0
VERTEX
  8
0
 10
1.785077
 20
925.138604
 42
0.022675
  0
VERTEX
  8
0
 10
3.135962
 20
921.879989
 42
0.035811
  0
VERTEX
  8
0
 10
5.787571
 20
917.138719
 42
0.030756
  0
VERTEX
  8
0
 10
9.215137
 20
912.563939
 42
0.030733
  0
VERTEX
  8
0
 10
13.181189
 20
908.440508
 42
0.035594
  0
VERTEX
  8
0
 10
17.442804
 20
905.048621
 42
0.038581
  0
VERTEX
  8
0
 10
20.687212
 20
903.173889
 42
0.000379
  0
VERTEX
  8
0
 10
44.983199
 20
891.554880
 42
0.001249
  0
VERTEX
  8
0
 10
73.011675
 20
878.262876
 42
0.000809
  0
VERTEX
  8
0
 10
105.500000
 20
863.019338
 42
-0.000323
  0
VERTEX
  8
0
 10
137.762837
 20
847.919834
 42
-0.000530
  0
VERTEX
  8
0
 10
165.054942
 20
835.089880
 42
-0.000038
  0
VERTEX
  8
0
 10
189.574982
 20
823.529044
 42
-0.075700
  0
VERTEX
  8
0
 10
190.282782
 20
823.053322
 42
-0.304929
  0
VERTEX
  8
0
 10
190.438727
 20
822.404785
 42
-0.002847
  0
VERTEX
  8
0
 10
188.612051
 20
817.576175
 42
-0.008250
  0
VERTEX
  8
0
 10
186.341563
 20
811.954653
 42
-0.005094
  0
VERTEX
  8
0
 10
183.495960
 20
805.417218
 42
0.006304
  0
VERTEX
  8
0
 10
176.944363
 20
790.265618
 42
0.028823
  0
VERTEX
  8
0
 10
173.766360
 20
781.220792
 42
0.045571
  0
VERTEX
  8
0
 10
172.388145
 20
774.022643
 42
0.037200
  0
VERTEX
  8
0
 10
172.201950
 20
766.179120
 42
0.012406
  0
VERTEX
  8
0
 10
172.531258
 20
761.822306
 42
0.025922
  0
VERTEX
  8
0
 10
173.046428
 20
758.461019
 42
0.032019
  0
VERTEX
  8
0
 10
173.810362
 20
755.678333
 42
0.036382
  0
VERTEX
  8
0
 10
174.898938
 20
753.136832
 42
0.049491
  0
VERTEX
  8
0
 10
177.731758
 20
748.778061
 42
0.034310
  0
VERTEX
  8
0
 10
181.713989
 20
744.450016
 42
0.032917
  0
VERTEX
  8
0
 10
186.471463
 20
740.502794
 42
0.034468
  0
VERTEX
  8
0
 10
191.635783
 20
737.280376
 42
0.014822
  0
VERTEX
  8
0
 10
196.127601
 20
735.058758
 42
0.000192
  0
VERTEX
  8
0
 10
224.695911
 20
721.981430
 42
0.000557
  0
VERTEX
  8
0
 10
257.792514
 20
706.891177
 42
0.000365
  0
VERTEX
  8
0
 10
295.946041
 20
689.580174
 42
0.000338
  0
VERTEX
  8
0
 10
360.863872
 20
660.235800
 42
0.005589
  0
VERTEX
  8
0
 10
382.634204
 20
650.704273
 42
0.015047
  0
VERTEX
  8
0
 10
394.368397
 20
646.133949
 42
0.085568
  0
VERTEX
  8
0
 10
400.946041
 20
645.000789
 42
0.072602
  0
VERTEX
  8
0
 10
408.923513
 20
646.166270
 42
0.064286
  0
VERTEX
  8
0
 10
416.600111
 20
649.579856
 42
0.059828
  0
VERTEX
  8
0
 10
423.629560
 20
655.107057
 42
0.049049
  0
VERTEX
  8
0
 10
429.693229
 20
662.500000
 42
0.030455
  0
VERTEX
  8
0
 10
430.648100
 20
664.137114
 42
0.008666
  0
VERTEX
  8
0
 10
431.928937
 20
666.790001
 42
0.008693
  0
VERTEX
  8
0
 10
433.273753
 20
669.841624
 42
0.009107
  0
VERTEX
  8
0
 10
434.490084
 20
672.891492
 42
-0.012404
  0
VERTEX
  8
0
 10
435.695714
 20
675.857549
 42
-0.013762
  0
VERTEX
  8
0
 10
437.008506
 20
678.657669
 42
-0.013192
  0
VERTEX
  8
0
 10
438.252570
 20
680.977125
 42
-0.066775
  0
VERTEX
  8
0
 10
439.141492
 20
682.141492
 42
-0.129010
  0
VERTEX
  8
0
 10
441.582504
 20
683.567777
 42
-0.076916
  0
VERTEX
  8
0
 10
444.943964
 20
683.968541
 42
-0.069375
  0
VERTEX
  8
0
 10
448.630237
 20
683.322875
 42
-0.068441
  0
VERTEX
  8
0
 10
452.017865
 20
681.692344
 42
0.034922
  0
VERTEX
  8
0
 10
454.774938
 20
680.130383
 42
0.000384
  0
VERTEX
  8
0
 10
474.243725
 20
670.848961
 42
0.001199
  0
VERTEX
  8
0
 10
496.748683
 20
660.207375
 42
0.000780
  0
VERTEX
  8
0
 10
522.790561
 20
648.019236
 42
-0.001402
  0
VERTEX
  8
0
 10
549.044663
 20
635.691984
 42
-0.002501
  0
VERTEX
  8
0
 10
570.559059
 20
625.384487
 42
-0.000263
  0
VERTEX
  8
0
 10
589.393827
 20
616.232436
 42
-0.394252
  0
VERTEX
  8
0
 10
589.645734
 20
615.576891
 42
-0.011791
  0
VERTEX
  8
0
 10
589.271765
 20
614.711232
 42
-0.000006
  0
VERTEX
  8
0
 10
576.529222
 20
587.027793
 42
-0.000082
  0
VERTEX
  8
0
 10
562.355169
 20
556.248523
 42
-0.000050
  0
VERTEX
  8
0
 10
545.605174
 20
519.900702
 42
0.000379
  0
VERTEX
  8
0
 10
517.598721
 20
459.020831
 42
0.005451
  0
VERTEX
  8
0
 10
507.901898
 20
437.277871
 42
0.013051
  0
VERTEX
  8
0
 10
503.115158
 20
425.379797
 42
0.089336
  0
VERTEX
  8
0
 10
502.000000
 20
419.188214
 42
0.078160
  0
VERTEX
  8
0
 10
503.482281
 20
409.763748
 42
0.069618
  0
VERTEX
  8
0
 10
507.807431
 20
400.833176
 42
0.068117
  0
VERTEX
  8
0
 10
514.526281
 20
393.265451
 42
0.069132
  0
VERTEX
  8
0
 10
523.000000
 20
387.825957
 42
-0.001758
  0
VERTEX
  8
0
 10
527.174217
 20
385.880417
 42
-0.000020
  0
VERTEX
  8
0
 10
555.378125
 20
372.612728
 42
-0.000061
  0
VERTEX
  8
0
 10
587.925827
 20
357.295245
 42
-0.000040
  0
VERTEX
  8
0
 10
625.500000
 20
339.603000
 42
0.000000
  0
VERTEX
  8
0
 10
722.500000
 20
293.920007
 42
0.000000
  0
VERTEX
  8
0
 10
814.500000
 20
229.383302
 42
0.000000
  0
VERTEX
  8
0
 10
906.500000
 20
164.846597
 42
0.000000
  0
VERTEX
  8
0
 10
986.000000
 20
85.473747
 42
0.000610
  0
VERTEX
  8
0
 10
1043.313137
 20
28.391740
 42
0.013432
  0
VERTEX
  8
0
 10
1060.498063
 20
12.211527
 42
0.049649
  0
VERTEX
  8
0
 10
1070.782875
 20
4.725065
 42
0.087020
  0
VERTEX
  8
0
 10
1080.621540
 20
1.062165
 42
0.045616
  0
VERTEX
  8
0
 10
1089.925459
 20
0.207278
 42
0.000042
  0
VERTEX
  8
0
 10
1308.260705
 20
0.125552
 42
0.000515
  0
VERTEX
  8
0
 10
1514.008948
 20
0.277525
 42
0.000914
  0
VERTEX
  8
0
 10
1683.500000
 20
0.887033
 42
0.000000
  0
VERTEX
  8
0
 10
1796.500000
 20
1.500000
 42
0.000000
  0
VERTEX
  8
0
 10
1802.500000
 20
4.385475
 42
0.073646
  0
VERTEX
  8
0
 10
1808.154186
 20
8.214721
 42
0.005889
  0
VERTEX
  8
0
 10
1821.335893
 20
20.595865
 42
0.004013
  0
VERTEX
  8
0
 10
1843.156038
 20
41.919692
 42
0.000503
  0
VERTEX
  8
0
 10
1890.000000
 20
88.532825
 42
0.000000
  0
VERTEX
  8
0
 10
1971.500000
 20
169.794699
 42
0.000000
  0
VERTEX
  8
0
 10
2063.500000
 20
233.702834
 42
0.000000
  0
VERTEX
  8
0
 10
2155.500000
 20
297.610969
 42
0.000000
  0
VERTEX
  8
0
 10
2247.000000
 20
340.474486
 42
0.000086
  0
VERTEX
  8
0
 10
2318.760169
 20
374.105855
 42
0.001710
  0
VERTEX
  8
0
 10
2340.684348
 20
384.477143
 42
0.004316
  0
VERTEX
  8
0
 10
2352.116747
 20
390.054877
 42
0.039078
  0
VERTEX
  8
0
 10
2356.878517
 20
392.913496
 42
0.095672
  0
VERTEX
  8
0
 10
2362.857415
 20
399.188269
 42
0.065038
  0
VERTEX
  8
0
 10
2367.075941
 20
408.135028
 42
0.063703
  0
VERTEX
  8
0
 10
2368.922431
 20
418.085982
 42
0.081957
  0
VERTEX
  8
0
 10
2367.927446
 20
427.322335
 42
0.038580
  0
VERTEX
  8
0
 10
2366.876471
 20
430.219633
 42
0.000217
  0
VERTEX
  8
0
 10
2354.826981
 20
456.805298
 42
0.000933
  0
VERTEX
  8
0
 10
2341.013897
 20
487.096570
 42
0.000593
  0
VERTEX
  8
0
 10
2324.820595
 20
522.322335
 42
-0.000226
  0
VERTEX
  8
0
 10
2308.667758
 20
557.392255
 42
-0.000368
  0
VERTEX
  8
0
 10
2294.991663
 20
587.177935
 42
-0.000037
  0
VERTEX
  8
0
 10
2282.776721
 20
613.838230
 42
-0.036574
  0
VERTEX
  8
0
 10
2282.317845
 20
615.070635
 42
-0.343507
  0
VERTEX
  8
0
 10
2282.783481
 20
616.241752
 42
-0.009597
  0
VERTEX
  8
0
 10
2287.841225
 20
619.080204
 42
-0.010734
  0
VERTEX
  8
0
 10
2295.744672
 20
623.102305
 42
-0.002282
  0
VERTEX
  8
0
 10
2309.680274
 20
629.743339
 42
0.000043
  0
VERTEX
  8
0
 10
2323.504112
 20
636.255326
 42
0.000017
  0
VERTEX
  8
0
 10
2342.772729
 20
645.335006
 42
0.000016
  0
VERTEX
  8
0
 10
2363.707664
 20
655.201565
 42
0.000020
  0
VERTEX
  8
0
 10
2383.269444
 20
664.422704
 42
-0.000596
  0
VERTEX
  8
0
 10
2400.871877
 20
672.695473
 42
-0.000974
  0
VERTEX
  8
0
 10
2415.815940
 20
679.661669
 42
-0.000090
  0
VERTEX
  8
0
 10
2429.212418
 20
685.871800
 42
-0.108902
  0
VERTEX
  8
0
 10
2429.794041
 20
686.000000
 42
-0.275985
  0
VERTEX
  8
0
 10
2430.206217
 20
685.753733
 42
-0.004018
  0
VERTEX
  8
0
 10
2431.587960
 20
683.135765
 42
-0.009677
  0
VERTEX
  8
0
 10
2433.141053
 20
679.987164
 42
-0.006072
  0
VERTEX
  8
0
 10
2434.840571
 20
676.249412
 42
0.034411
  0
VERTEX
  8
0
 10
2443.016942
 20
660.673510
 42
0.079078
  0
VERTEX
  8
0
 10
2451.624152
 20
650.660027
 42
0.103848
  0
VERTEX
  8
0
 10
2461.278464
 20
645.435939
 42
0.096088
  0
VERTEX
  8
0
 10
2472.500000
 20
644.338899
 42
0.063511
  0
VERTEX
  8
0
 10
2482.091495
 20
646.493696
 42
0.017583
  0
VERTEX
  8
0
 10
2496.436063
 20
652.273077
 42
0.004733
  0
VERTEX
  8
0
 10
2523.977356
 20
664.825130
 42
0.000179
  0
VERTEX
  8
0
 10
2626.500000
 20
712.772005
 42
0.000345
  0
VERTEX
  8
0
 10
2670.366605
 20
733.343138
 42
0.008306
  0
VERTEX
  8
0
 10
2682.535110
 20
739.308481
 42
0.031338
  0
VERTEX
  8
0
 10
2688.754366
 20
742.994900
 42
0.062905
  0
VERTEX
  8
0
 10
2693.026171
 20
746.767071
 42
0.047097
  0
VERTEX
  8
0
 10
2696.489098
 20
751.539956
 42
0.047383
  0
VERTEX
  8
0
 10
2698.989526
 20
756.867163
 42
0.046063
  0
VERTEX
  8
0
 10
2700.494470
 20
762.710078
 42
0.040028
  0
VERTEX
  8
0
 10
2701.000000
 20
769.014684
 42
0.043335
  0
VERTEX
  8
0
 10
2700.468712
 20
775.133215
 42
0.041018
  0
VERTEX
  8
0
 10
2698.889385
 20
781.186353
 42
0.021706
  0
VERTEX
  8
0
 10
2695.535334
 20
789.568824
 42
0.003528
  0
VERTEX
  8
0
 10
2688.208204
 20
805.500000
 42
-0.000812
  0
VERTEX
  8
0
 10
2685.163498
 20
812.026423
 42
-0.001350
  0
VERTEX
  8
0
 10
2682.620926
 20
817.538595
 42
-0.000076
  0
VERTEX
  8
0
 10
2680.348304
 20
822.502706
 42
-0.334196
  0
VERTEX
  8
0
 10
2680.371858
 20
822.610112
 42
-0.068271
  0
VERTEX
  8
0
 10
2680.487548
 20
822.684844
 42
-0.000001
  0
VERTEX
  8
0
 10
2704.402983
 20
833.862131
 42
-0.000079
  0
VERTEX
  8
0
 10
2730.740090
 20
846.166098
 42
-0.000047
  0
VERTEX
  8
0
 10
2762.000000
 20
860.760232
 42
0.000144
  0
VERTEX
  8
0
 10
2833.618648
 20
894.213281
 42
0.004536
  0
VERTEX
  8
0
 10
2851.185748
 20
902.620074
 42
0.017573
  0
VERTEX
  8
0
 10
2859.765379
 20
907.202508
 42
0.081319
  0
VERTEX
  8
0
 10
2864.095815
 20
910.761908
 42
0.071947
  0
VERTEX
  8
0
 10
2868.624382
 20
917.721137
 42
0.062139
  0
VERTEX
  8
0
 10
2871.278841
 20
926.032952
 42
0.060946
  0
VERTEX
  8
0
 10
2871.840712
 20
934.902855
 42
0.063870
  0
VERTEX
  8
0
 10
2870.222517
 20
943.500000
 42
0.030559
  0
VERTEX
  8
0
 10
2867.773394
 20
949.727155
 42
0.000008
  0
VERTEX
  8
0
 10
2741.488862
 20
1220.901212
 42
0.000114
  0
VERTEX
  8
0
 10
2628.800888
 20
1462.725822
 42
0.001633
  0
VERTEX
  8
0
 10
2588.446034
 20
1548.541754
 42
0.052013
  0
VERTEX
  8
0
 10
2583.165545
 20
1557.217330
 42
0.077663
  0
VERTEX
  8
0
 10
2576.772905
 20
1563.355378
 42
0.080085
  0
VERTEX
  8
0
 10
2568.968315
 20
1567.127727
 42
0.059116
  0
VERTEX
  8
0
 10
2559.500000
 20
1568.775613
 42
0.013038
  0
VERTEX
  8
0
 10
2555.226609
 20
1568.895927
 42
0.029777
  0
VERTEX
  8
0
 10
2552.008153
 20
1568.710775
 42
0.034454
  0
VERTEX
  8
0
 10
2549.134950
 20
1568.170459
 42
0.024348
  0
VERTEX
  8
0
 10
2546.000000
 20
1567.188845
 42
0.019173
  0
VERTEX
  8
0
 10
2541.923419
 20
1565.510874
 42
0.000261
  0
VERTEX
  8
0
 10
2517.393798
 20
1554.280627
 42
0.000740
  0
VERTEX
  8
0
 10
2488.992119
 20
1541.208833
 42
0.000486
  0
VERTEX
  8
0
 10
2456.340588
 20
1526.083937
 42
-0.000390
  0
VERTEX
  8
0
 10
2424.006419
 20
1511.098455
 42
-0.000641
  0
VERTEX
  8
0
 10
2396.633741
 20
1498.480906
 42
-0.000039
  0
VERTEX
  8
0
 10
2371.976216
 20
1487.155594
 42
-0.108039
  0
VERTEX
  8
0
 10
2371.264538
 20
1487.000000
 42
-0.283805
  0
VERTEX
  8
0
 10
2370.730035
 20
1487.329967
 42
-0.000243
  0
VERTEX
  8
0
 10
2363.640651
 20
1501.490013
 42
-0.002331
  0
VERTEX
  8
0
 10
2355.770241
 20
1517.414312
 42
-0.001413
  0
VERTEX
  8
0
 10
2346.598073
 20
1536.327703
 42
0.001504
  0
VERTEX
  8
0
 10
2337.195882
 20
1555.706422
 42
0.002050
  0
VERTEX
  8
0
 10
2328.595564
 20
1573.116171
 42
0.001344
  0
VERTEX
  8
0
 10
2321.274563
 20
1587.686215
 42
0.023492
  0
VERTEX
  8
0
 10
2318.663757
 20
1592.296351
 42
0.019946
  0
VERTEX
  8
0
 10
2316.769224
 20
1595.052863
 42
0.016356
  0
VERTEX
  8
0
 10
2314.536507
 20
1597.843751
 42
0.016665
  0
VERTEX
  8
0
 10
2312.312437
 20
1600.275712
 42
0.041315
  0
VERTEX
  8
0
 10
2310.489634
 20
1601.855533
 42
0.059100
  0
VERTEX
  8
0
 10
2304.298234
 20
1605.346962
 42
0.054690
  0
VERTEX
  8
0
 10
2297.298695
 20
1607.406253
 42
0.052815
  0
VERTEX
  8
0
 10
2289.786631
 20
1607.942969
 42
0.048121
  0
VERTEX
  8
0
 10
2282.081870
 20
1606.932740
 42
0.050581
  0
VERTEX
  8
0
 10
2278.796016
 20
1605.815996
 42
0.000415
  0
VERTEX
  8
0
 10
2253.968766
 20
1594.444069
 42
0.001485
  0
VERTEX
  8
0
 10
2225.512123
 20
1581.278717
 42
0.000955
  0
VERTEX
  8
0
 10
2192.581870
 20
1565.848164
 42
-0.000076
  0
VERTEX
  8
0
 10
2159.876936
 20
1550.453004
 42
-0.000124
  0
VERTEX
  8
0
 10
2132.148491
 20
1537.413906
 42
-0.000010
  0
VERTEX
  8
0
 10
2107.264528
 20
1525.720533
 42
-0.014833
  0
VERTEX
  8
0
 10
2106.327888
 20
1525.313877
 42
-0.351464
  0
VERTEX
  8
0
 10
2105.619507
 20
1525.529916
 42
-0.009784
  0
VERTEX
  8
0
 10
2103.744543
 20
1528.396365
 42
-0.015009
  0
VERTEX
  8
0
 10
2101.509064
 20
1532.214567
 42
-0.007479
  0
VERTEX
  8
0
 10
2098.898001
 20
1537.172900
 42
0.009064
  0
VERTEX
  8
0
 10
2095.336629
 20
1543.884159
 42
0.023894
  0
VERTEX
  8
0
 10
2092.474978
 20
1548.512321
 42
0.027990
  0
VERTEX
  8
0
 10
2089.464072
 20
1552.411756
 42
0.017231
  0
VERTEX
  8
0
 10
2085.518674
 20
1556.664342
 42
0.010655
  0
VERTEX
  8
0
 10
2081.473282
 20
1560.564209
 42
0.036720
  0
VERTEX
  8
0
 10
2078.624496
 20
1562.832170
 42
0.048402
  0
VERTEX
  8
0
 10
2075.915149
 20
1564.320155
 42
0.030658
  0
VERTEX
  8
0
 10
2072.520447
 20
1565.537080
 42
0.043819
  0
VERTEX
  8
0
 10
2067.164813
 20
1566.596700
 42
0.042092
  0
VERTEX
  8
0
 10
2061.632802
 20
1566.727348
 42
0.038774
  0
VERTEX
  8
0
 10
2055.755505
 20
1565.910900
 42
0.027790
  0
VERTEX
  8
0
 10
2049.361705
 20
1564.133737
 42
0.026817
  0
VERTEX
  8
0
 10
2044.818002
 20
1562.317369
 42
0.000334
  0
VERTEX
  8
0
 10
2016.436117
 20
1549.142989
 42
0.000986
  0
VERTEX
  8
0
 10
1983.639981
 20
1533.814240
 42
0.000645
  0
VERTEX
  8
0
 10
1945.894330
 20
1516.021875
 42
0.000707
  0
VERTEX
  8
0
 10
1874.852732
 20
1482.299512
 42
0.014621
  0
VERTEX
  8
0
 10
1853.827413
 20
1471.517477
 42
0.053286
  0
VERTEX
  8
0
 10
1843.598557
 20
1464.375100
 42
0.112236
  0
VERTEX
  8
0
 10
1837.914073
 20
1456.598821
 42
0.048468
  0
VERTEX
  8
0
 10
1836.115090
 20
1450.998817
 42
0.038431
  0
VERTEX
  8
0
 10
1835.245697
 20
1444.699555
 42
0.038343
  0
VERTEX
  8
0
 10
1835.349782
 20
1438.323996
 42
0.047520
  0
VERTEX
  8
0
 10
1836.458277
 20
1432.495527
 42
0.020462
  0
VERTEX
  8
0
 10
1837.418717
 20
1429.634031
 42
0.007877
  0
VERTEX
  8
0
 10
1838.975441
 20
1425.742127
 42
0.007783
  0
VERTEX
  8
0
 10
1840.798448
 20
1421.568519
 42
0.009512
  0
VERTEX
  8
0
 10
1842.637356
 20
1417.726509
 42
-0.011446
  0
VERTEX
  8
0
 10
1844.329423
 20
1414.155888
 42
-0.014775
  0
VERTEX
  8
0
 10
1845.709068
 20
1410.800490
 42
-0.012531
  0
VERTEX
  8
0
 10
1846.697837
 20
1407.964663
 42
-0.113655
  0
VERTEX
  8
0
 10
1846.807235
 20
1406.666763
 42
-0.121025
  0
VERTEX
  8
0
 10
1846.365627
 20
1405.571074
 42
-0.060011
  0
VERTEX
  8
0
 10
1845.344499
 20
1404.461434
 42
-0.044381
  0
VERTEX
  8
0
 10
1843.742650
 20
1403.321887
 42
-0.020971
  0
VERTEX
  8
0
 10
1841.500000
 20
1402.132323
 42
-0.001682
  0
VERTEX
  8
0
 10
1837.714671
 20
1400.339188
 42
-0.000021
  0
VERTEX
  8
0
 10
1813.587500
 20
1389.010468
 42
-0.000062
  0
VERTEX
  8
0
 10
1785.671525
 20
1375.908425
 42
-0.000041
  0
VERTEX
  8
0
 10
1753.500000
 20
1360.817173
 42
0.000782
  0
VERTEX
  8
0
 10
1711.243783
 20
1340.918799
 42
0.003618
  0
VERTEX
  8
0
 10
1686.905887
 20
1329.195316
 42
0.003303
  0
VERTEX
  8
0
 10
1670.869378
 20
1321.195223
 42
0.073426
  0
VERTEX
  8
0
 10
1666.631376
 20
1318.195593
 42
0.032767
  0
VERTEX
  8
0
 10
1664.938894
 20
1316.352254
 42
0.016432
  0
VERTEX
  8
0
 10
1663.038507
 20
1313.823080
 42
0.016241
  0
VERTEX
  8
0
 10
1661.236855
 20
1311.067460
 42
0.023083
  0
VERTEX
  8
0
 10
1659.832870
 20
1308.500000
 42
0.019091
  0
VERTEX
  8
0
 10
1658.179360
 20
1304.757984
 42
0.052214
  0
VERTEX
  8
0
 10
1657.399138
 20
1301.977466
 42
0.041534
  0
VERTEX
  8
0
 10
1657.120742
 20
1298.756340
 42
0.008735
  0
VERTEX
  8
0
 10
1657.201494
 20
1293.099930
 42
0.000000
  0
VERTEX
  8
0
 10
1657.500000
 20
1283.699860
 42
0.000000
  0
VERTEX
  8
0
 10
1572.000000
 20
1243.816931
 42
0.000000
  0
VERTEX
  8
0
 10
1486.500000
 20
1203.934002
 42
0.000000
  0
VERTEX
  8
0
 10
1434.876602
 20
1204.475633
 42
0.000000
  0
VERTEX
  8
0
 10
1383.253203
 20
1205.017263
 42
0.000000
  0
VERTEX
  8
0
 10
1301.609375
 20
1242.991860
 42
-0.000140
  0
VERTEX
  8
0
 10
1270.107047
 20
1257.655100
 42
-0.000221
  0
VERTEX
  8
0
 10
1243.109528
 20
1270.245227
 42
-0.000047
  0
VERTEX
  8
0
 10
1219.369954
 20
1281.331525
 42
-0.010065
  0
VERTEX
  8
0
 10
1217.109738
 20
1282.443252
 42
-0.033830
  0
VERTEX
  8
0
 10
1215.484310
 20
1283.428402
 42
-0.148037
  0
VERTEX
  8
0
 10
1214.799336
 20
1284.303117
 42
-0.119612
  0
VERTEX
  8
0
 10
1214.638091
 20
1285.514702
 42
-0.018772
  0
VERTEX
  8
0
 10
1214.984607
 20
1287.915822
 42
0.101692
  0
VERTEX
  8
0
 10
1214.752808
 20
1298.536133
 42
0.083302
  0
VERTEX
  8
0
 10
1210.420001
 20
1309.054977
 42
0.075394
  0
VERTEX
  8
0
 10
1202.383738
 20
1318.452900
 42
0.062147
  0
VERTEX
  8
0
 10
1191.403613
 20
1325.784138
 42
0.005830
  0
VERTEX
  8
0
 10
1185.726583
 20
1328.546868
 42
0.000184
  0
VERTEX
  8
0
 10
1162.468561
 20
1339.521416
 42
0.000358
  0
VERTEX
  8
0
 10
1135.033765
 20
1352.430514
 42
0.000248
  0
VERTEX
  8
0
 10
1104.000000
 20
1366.987184
 42
-0.000176
  0
VERTEX
  8
0
 10
1073.488550
 20
1381.293485
 42
-0.000291
  0
VERTEX
  8
0
 10
1047.735296
 20
1393.398058
 42
-0.000011
  0
VERTEX
  8
0
 10
1024.464727
 20
1404.352874
 42
-0.076346
  0
VERTEX
  8
0
 10
1024.098881
 20
1404.599102
 42
-0.309892
  0
VERTEX
  8
0
 10
1024.022162
 20
1404.934325
 42
-0.002263
  0
VERTEX
  8
0
 10
1025.140148
 20
1407.728904
 42
-0.007353
  0
VERTEX
  8
0
 10
1026.507042
 20
1410.963842
 42
-0.004520
  0
VERTEX
  8
0
 10
1028.206893
 20
1414.734452
 42
0.008734
  0
VERTEX
  8
0
 10
1032.633410
 20
1424.778413
 42
0.030573
  0
VERTEX
  8
0
 10
1034.968626
 20
1431.453974
 42
0.041162
  0
VERTEX
  8
0
 10
1036.104158
 20
1437.261071
 42
0.027841
  0
VERTEX
  8
0
 10
1036.476254
 20
1444.000000
 42
0.011129
  0
VERTEX
  8
0
 10
1036.367113
 20
1448.793360
 42
0.037632
  0
VERTEX
  8
0
 10
1035.991699
 20
1451.900218
 42
0.046814
  0
VERTEX
  8
0
 10
1035.205069
 20
1454.545545
 42
0.025164
  0
VERTEX
  8
0
 10
1033.775807
 20
1457.638143
 42
0.052420
  0
VERTEX
  8
0
 10
1030.749109
 20
1462.178415
 42
0.037330
  0
VERTEX
  8
0
 10
1026.501802
 20
1466.581877
 42
0.034041
  0
VERTEX
  8
0
 10
1021.198464
 20
1470.704338
 42
0.027473
  0
VERTEX
  8
0
 10
1015.000000
 20
1474.401175
 42
0.010841
  0
VERTEX
  8
0
 10
1010.503671
 20
1476.635391
 42
0.000551
  0
VERTEX
  8
0
 10
995.721875
 20
1483.565142
 42
0.000881
  0
VERTEX
  8
0
 10
978.126635
 20
1491.752483
 42
0.000638
  0
VERTEX
  8
0
 10
958.500000
 20
1500.812656
 42
-0.000147
  0
VERTEX
  8
0
 10
936.015947
 20
1511.165136
 42
-0.000092
  0
VERTEX
  8
0
 10
909.675000
 20
1523.308745
 42
-0.000092
  0
VERTEX
  8
0
 10
883.714000
 20
1535.288783
 42
-0.000168
  0
VERTEX
  8
0
 10
862.500000
 20
1545.091627
 42
0.000000
  0
VERTEX
  8
0
 10
816.500000
 20
1566.366618
 42
0.000000
  0
VERTEX
  8
0
 10
808.500000
 20
1566.432513
 42
0.071549
  0
VERTEX
  8
0
 10
797.633169
 20
1564.960744
 42
0.096282
  0
VERTEX
  8
0
 10
788.798550
 20
1560.479233
 42
0.080045
  0
VERTEX
  8
0
 10
781.174136
 20
1552.288916
 42
0.035940
  0
VERTEX
  8
0
 10
773.873873
 20
1539.480319
 42
-0.007884
  0
VERTEX
  8
0
 10
771.302140
 20
1534.314946
 42
-0.015378
  0
VERTEX
  8
0
 10
769.061960
 20
1530.295639
 42
-0.013277
  0
VERTEX
  8
0
 10
767.173895
 20
1527.322443
 42
-0.169376
  0
VERTEX
  8
0
 10
766.131751
 20
1526.541816
 42
-0.140213
  0
VERTEX
  8
0
 10
764.959606
 20
1526.508141
 42
-0.019631
  0
VERTEX
  8
0
 10
762.612502
 20
1527.206366
 42
-0.019985
  0
VERTEX
  8
0
 10
759.709450
 20
1528.326912
 42
-0.012478
  0
VERTEX
  8
0
 10
756.400418
 20
1529.857700
 42
0.003221
  0
VERTEX
  8
0
 10
752.565612
 20
1531.718657
 42
0.001397
  0
VERTEX
  8
0
 10
747.442623
 20
1534.146548
 42
0.001382
  0
VERTEX
  8
0
 10
741.980930
 20
1536.697873
 42
0.001837
  0
VERTEX
  8
0
 10
737.000000
 20
1538.985660
 42
-0.000885
  0
VERTEX
  8
0
 10
721.163551
 20
1546.223004
 42
-0.000095
  0
VERTEX
  8
0
 10
684.440948
 20
1563.092531
 42
-0.000128
  0
VERTEX
  8
0
 10
645.685293
 20
1580.916930
 42
-0.000233
  0
VERTEX
  8
0
 10
614.000000
 20
1595.517270
 42
0.002006
  0
VERTEX
  8
0
 10
597.809555
 20
1602.908197
 42
0.014479
  0
VERTEX
  8
0
 10
589.898697
 20
1606.208899
 42
0.030490
  0
VERTEX
  8
0
 10
584.669914
 20
1607.857110
 42
0.047445
  0
VERTEX
  8
0
 10
580.000000
 20
1608.560899
 42
0.015692
  0
VERTEX
  8
0
 10
577.224757
 20
1608.625801
 42
0.012873
  0
VERTEX
  8
0
 10
574.260605
 20
1608.525740
 42
0.013074
  0
VERTEX
  8
0
 10
571.539486
 20
1608.292144
 42
0.033233
  0
SEQEND
  0
ENDSEC
  0
EOF
