  0
SECTION
  2
HEADER
  9
$ACADVER
  1
AC1014
  9
$HANDSEED
  5
FFFF
  9
$MEASUREMENT
 70
     1
  0
ENDSEC
  0
SECTION
  2
TABLES
  0
TABLE
  2
VPORT
  5
8
330
0
100
AcDbSymbolTable
 70
     4
  0
VPORT
  5
2E
330
8
100
AcDbSymbolTableRecord
100
AcDbViewportTableRecord
  2
*ACTIVE
 70
     0
 10
0.0
 20
0.0
 11
1.0
 21
1.0
 12
210.0
 22
148.5
 13
0.0
 23
0.0
 14
10.0
 24
10.0
 15
10.0
 25
10.0
 16
0.0
 26
0.0
 36
1.0
 17
0.0
 27
0.0
 37
0.0
 40
341.0
 41
1.24
 42
50.0
 43
0.0
 44
0.0
 50
0.0
 51
0.0
 71
     0
 72
   100
 73
     1
 74
     3
 75
     0
 76
     0
 77
     0
 78
     0
  0
ENDTAB
  0
TABLE
  2
LTYPE
  5
5
330
0
100
AcDbSymbolTable
 70
     1
  0
LTYPE
  5
14
330
5
100
AcDbSymbolTableRecord
100
AcDbLinetypeTableRecord
  2
BYBLOCK
 70
     0
  3

 72
    65
 73
     0
 40
0.0
  0
LTYPE
  5
15
330
5
100
AcDbSymbolTableRecord
100
AcDbLinetypeTableRecord
  2
BYLAYER
 70
     0
  3

 72
    65
 73
     0
 40
0.0
  0
LTYPE
  5
16
330
5
100
AcDbSymbolTableRecord
100
AcDbLinetypeTableRecord
  2
CONTINUOUS
 70
     0
  3
Solid line
 72
    65
 73
     0
 40
0.0
  0
ENDTAB
  0
TABLE
  2
LAYER
  5
2
100
AcDbSymbolTable
 70
1
  0
LAYER
  5
50
100
AcDbSymbolTableRecord
100
AcDbLayerTableRecord
  2
0
 70
0
  6
CONTINUOUS
  0
ENDTAB
  0
TABLE
  2
STYLE
  5
3
330
0
100
AcDbSymbolTable
 70
     1
  0
STYLE
  5
11
330
3
100
AcDbSymbolTableRecord
100
AcDbTextStyleTableRecord
  2
STANDARD
 70
     0
 40
0.0
 41
1.0
 50
0.0
 71
     0
 42
2.5
  3
txt
  4

  0
ENDTAB
  0
TABLE
  2
VIEW
  5
6
330
0
100
AcDbSymbolTable
 70
     0
  0
ENDTAB
  0
TABLE
  2
UCS
  5
7
330
0
100
AcDbSymbolTable
 70
     0
  0
ENDTAB
  0
TABLE
  2
APPID
  5
9
330
0
100
AcDbSymbolTable
 70
     2
  0
APPID
  5
12
330
9
100
AcDbSymbolTableRecord
100
AcDbRegAppTableRecord
  2
ACAD
 70
     0
  0
ENDTAB
  0
TABLE
  2
DIMSTYLE
  5
A
330
0
100
AcDbSymbolTable
 70
     1
  0
DIMSTYLE
105
27
330
A
100
AcDbSymbolTableRecord
100
AcDbDimStyleTableRecord
  2
ISO-25
 70
     0
  3

  4

  5

  6

  7

 40
1.0
 41
2.5
 42
0.625
 43
3.75
 44
1.25
 45
0.0
 46
0.0
 47
0.0
 48
0.0
140
2.5
141
2.5
142
0.0
143
0.03937007874016
144
1.0
145
0.0
146
1.0
147
0.625
 71
     0
 72
     0
 73
     0
 74
     0
 75
     0
 76
     0
 77
     1
 78
     8
170
     0
171
     3
172
     1
173
     0
174
     0
175
     0
176
     0
177
     0
178
     0
270
     2
271
     2
272
     2
273
     2
274
     3
340
11
275
     0
280
     0
281
     0
282
     0
283
     0
284
     8
285
     0
286
     0
287
     3
288
     0
  0
ENDTAB
  0
TABLE
  2
BLOCK_RECORD
  5
1
330
0
100
AcDbSymbolTable
 70
     1
  0
BLOCK_RECORD
  5
1F
330
1
100
AcDbSymbolTableRecord
100
AcDbBlockTableRecord
  2
*MODEL_SPACE
  0
BLOCK_RECORD
  5
1B
330
1
100
AcDbSymbolTableRecord
100
AcDbBlockTableRecord
  2
*PAPER_SPACE
  0
ENDTAB
  0
ENDSEC
  0
SECTION
  2
BLOCKS
  0
BLOCK
  5
20
330
1F
100
AcDbEntity
  8
0
100
AcDbBlockBegin
  2
*MODEL_SPACE
 70
     0
 10
0.0
 20
0.0
 30
0.0
  3
*MODEL_SPACE
  1

  0
ENDBLK
  5
21
330
1F
100
AcDbEntity
  8
0
100
AcDbBlockEnd
  0
BLOCK
  5
1C
330
1B
100
AcDbEntity
 67
     1
  8
0
100
AcDbBlockBegin
  2
*PAPER_SPACE
  1

  0
ENDBLK
  5
1D
330
1B
100
AcDbEntity
 67
     1
  8
0
100
AcDbBlockEnd
  0
ENDSEC
  0
SECTION
  2
ENTITIES
  0
SPLINE
  5
100
100
AcDbEntity
  8
0
 62
7
100
AcDbSpline
 70
8
 71
3
 72
8
 73
4
 74
0
 40
0
 40
0
 40
0
 40
0
 40
1
 40
1
 40
1
 40
1
 10
177.846236
 20
-120.472854
 30
0.0
 10
177.342722
 20
-120.472854
 30
0.0
 10
176.888788
 20
-120.776163
 30
0.0
 10
176.696102
 20
-121.241349
 30
0.0
  0
SPLINE
  5
101
100
AcDbEntity
  8
0
 62
7
100
AcDbSpline
 70
8
 71
3
 72
8
 73
4
 74
0
 40
0
 40
0
 40
0
 40
0
 40
1
 40
1
 40
1
 40
1
 10
176.696102
 20
-121.241349
 30
0.0
 10
176.503416
 20
-121.706535
 30
0.0
 10
176.609924
 20
-122.241987
 30
0.0
 10
176.965961
 20
-122.598024
 30
0.0
  0
SPLINE
  5
102
100
AcDbEntity
  8
0
 62
7
100
AcDbSpline
 70
8
 71
3
 72
8
 73
4
 74
0
 40
0
 40
0
 40
0
 40
0
 40
1
 40
1
 40
1
 40
1
 10
176.965961
 20
-122.598024
 30
0.0
 10
177.321999
 20
-122.954062
 30
0.0
 10
177.857451
 20
-123.060570
 30
0.0
 10
178.322637
 20
-122.867884
 30
0.0
  0
SPLINE
  5
103
100
AcDbEntity
  8
0
 62
7
100
AcDbSpline
 70
8
 71
3
 72
8
 73
4
 74
0
 40
0
 40
0
 40
0
 40
0
 40
1
 40
1
 40
1
 40
1
 10
178.322637
 20
-122.867884
 30
0.0
 10
178.787822
 20
-122.675198
 30
0.0
 10
179.091132
 20
-122.221263
 30
0.0
 10
179.091132
 20
-121.717750
 30
0.0
  0
SPLINE
  5
104
100
AcDbEntity
  8
0
 62
7
100
AcDbSpline
 70
8
 71
3
 72
8
 73
4
 74
0
 40
0
 40
0
 40
0
 40
0
 40
1
 40
1
 40
1
 40
1
 10
179.091132
 20
-121.717750
 30
0.0
 10
179.091132
 20
-121.387583
 30
0.0
 10
178.959973
 20
-121.070939
 30
0.0
 10
178.726510
 20
-120.837476
 30
0.0
  0
SPLINE
  5
105
100
AcDbEntity
  8
0
 62
7
100
AcDbSpline
 70
8
 71
3
 72
8
 73
4
 74
0
 40
0
 40
0
 40
0
 40
0
 40
1
 40
1
 40
1
 40
1
 10
178.726510
 20
-120.837476
 30
0.0
 10
178.493047
 20
-120.604012
 30
0.0
 10
178.176403
 20
-120.472854
 30
0.0
 10
177.846236
 20
-120.472854
 30
0.0
  0
SPLINE
  5
106
100
AcDbEntity
  8
0
 62
7
100
AcDbSpline
 70
8
 71
3
 72
8
 73
4
 74
0
 40
0
 40
0
 40
0
 40
0
 40
1
 40
1
 40
1
 40
1
 10
219.649299
 20
-70.892559
 30
0.0
 10
219.155752
 20
-70.892559
 30
0.0
 10
218.710802
 20
-71.189865
 30
0.0
 10
218.521930
 20
-71.645843
 30
0.0
  0
SPLINE
  5
107
100
AcDbEntity
  8
0
 62
7
100
AcDbSpline
 70
8
 71
3
 72
8
 73
4
 74
0
 40
0
 40
0
 40
0
 40
0
 40
1
 40
1
 40
1
 40
1
 10
218.521930
 20
-71.645843
 30
0.0
 10
218.333058
 20
-72.101822
 30
0.0
 10
218.437458
 20
-72.626675
 30
0.0
 10
218.786448
 20
-72.975666
 30
0.0
  0
SPLINE
  5
108
100
AcDbEntity
  8
0
 62
7
100
AcDbSpline
 70
8
 71
3
 72
8
 73
4
 74
0
 40
0
 40
0
 40
0
 40
0
 40
1
 40
1
 40
1
 40
1
 10
218.786448
 20
-72.975666
 30
0.0
 10
219.135439
 20
-73.324656
 30
0.0
 10
219.660292
 20
-73.429056
 30
0.0
 10
220.116271
 20
-73.240184
 30
0.0
  0
SPLINE
  5
109
100
AcDbEntity
  8
0
 62
7
100
AcDbSpline
 70
8
 71
3
 72
8
 73
4
 74
0
 40
0
 40
0
 40
0
 40
0
 40
1
 40
1
 40
1
 40
1
 10
220.116271
 20
-73.240184
 30
0.0
 10
220.572249
 20
-73.051312
 30
0.0
 10
220.869555
 20
-72.606362
 30
0.0
 10
220.869555
 20
-72.112815
 30
0.0
  0
SPLINE
  5
10a
100
AcDbEntity
  8
0
 62
7
100
AcDbSpline
 70
8
 71
3
 72
8
 73
4
 74
0
 40
0
 40
0
 40
0
 40
0
 40
1
 40
1
 40
1
 40
1
 10
220.869555
 20
-72.112815
 30
0.0
 10
220.869555
 20
-71.789183
 30
0.0
 10
220.740992
 20
-71.478806
 30
0.0
 10
220.512150
 20
-71.249964
 30
0.0
  0
SPLINE
  5
10b
100
AcDbEntity
  8
0
 62
7
100
AcDbSpline
 70
8
 71
3
 72
8
 73
4
 74
0
 40
0
 40
0
 40
0
 40
0
 40
1
 40
1
 40
1
 40
1
 10
220.512150
 20
-71.249964
 30
0.0
 10
220.283308
 20
-71.021122
 30
0.0
 10
219.972931
 20
-70.892559
 30
0.0
 10
219.649299
 20
-70.892559
 30
0.0
  0
LWPOLYLINE
  5
10c
100
AcDbEntity
  8
0
 62
7
100
AcDbPolyline
 90
1
 70
1
 10
177.846236
 20
-120.472854
 30
0.0
  0
SPLINE
  5
10d
100
AcDbEntity
  8
0
 62
7
100
AcDbSpline
 70
8
 71
3
 72
8
 73
4
 74
0
 40
0
 40
0
 40
0
 40
0
 40
1
 40
1
 40
1
 40
1
 10
203.649839
 20
-36.292933
 30
0.0
 10
203.156292
 20
-36.292933
 30
0.0
 10
202.711342
 20
-36.590239
 30
0.0
 10
202.522470
 20
-37.046217
 30
0.0
  0
SPLINE
  5
10e
100
AcDbEntity
  8
0
 62
7
100
AcDbSpline
 70
8
 71
3
 72
8
 73
4
 74
0
 40
0
 40
0
 40
0
 40
0
 40
1
 40
1
 40
1
 40
1
 10
202.522470
 20
-37.046217
 30
0.0
 10
202.333598
 20
-37.502196
 30
0.0
 10
202.437998
 20
-38.027049
 30
0.0
 10
202.786988
 20
-38.376040
 30
0.0
  0
SPLINE
  5
10f
100
AcDbEntity
  8
0
 62
7
100
AcDbSpline
 70
8
 71
3
 72
8
 73
4
 74
0
 40
0
 40
0
 40
0
 40
0
 40
1
 40
1
 40
1
 40
1
 10
202.786988
 20
-38.376040
 30
0.0
 10
203.135979
 20
-38.725030
 30
0.0
 10
203.660832
 20
-38.829430
 30
0.0
 10
204.116811
 20
-38.640558
 30
0.0
  0
SPLINE
  5
110
100
AcDbEntity
  8
0
 62
7
100
AcDbSpline
 70
8
 71
3
 72
8
 73
4
 74
0
 40
0
 40
0
 40
0
 40
0
 40
1
 40
1
 40
1
 40
1
 10
204.116811
 20
-38.640558
 30
0.0
 10
204.572789
 20
-38.451686
 30
0.0
 10
204.870095
 20
-38.006736
 30
0.0
 10
204.870095
 20
-37.513189
 30
0.0
  0
SPLINE
  5
111
100
AcDbEntity
  8
0
 62
7
100
AcDbSpline
 70
8
 71
3
 72
8
 73
4
 74
0
 40
0
 40
0
 40
0
 40
0
 40
1
 40
1
 40
1
 40
1
 10
204.870095
 20
-37.513189
 30
0.0
 10
204.870095
 20
-36.839260
 30
0.0
 10
204.323768
 20
-36.292933
 30
0.0
 10
203.649839
 20
-36.292933
 30
0.0
  0
LWPOLYLINE
  5
112
100
AcDbEntity
  8
0
 62
7
100
AcDbPolyline
 90
1
 70
1
 10
219.649299
 20
-70.892559
 30
0.0
  0
SPLINE
  5
113
100
AcDbEntity
  8
0
 62
7
100
AcDbSpline
 70
8
 71
3
 72
8
 73
4
 74
0
 40
0
 40
0
 40
0
 40
0
 40
1
 40
1
 40
1
 40
1
 10
157.443935
 20
-73.673860
 30
0.0
 10
156.940421
 20
-73.673860
 30
0.0
 10
156.486487
 20
-73.977169
 30
0.0
 10
156.293801
 20
-74.442354
 30
0.0
  0
SPLINE
  5
114
100
AcDbEntity
  8
0
 62
7
100
AcDbSpline
 70
8
 71
3
 72
8
 73
4
 74
0
 40
0
 40
0
 40
0
 40
0
 40
1
 40
1
 40
1
 40
1
 10
156.293801
 20
-74.442354
 30
0.0
 10
156.101114
 20
-74.907540
 30
0.0
 10
156.207622
 20
-75.442992
 30
0.0
 10
156.563660
 20
-75.799030
 30
0.0
  0
SPLINE
  5
115
100
AcDbEntity
  8
0
 62
7
100
AcDbSpline
 70
8
 71
3
 72
8
 73
4
 74
0
 40
0
 40
0
 40
0
 40
0
 40
1
 40
1
 40
1
 40
1
 10
156.563660
 20
-75.799030
 30
0.0
 10
156.919698
 20
-76.155067
 30
0.0
 10
157.455150
 20
-76.261575
 30
0.0
 10
157.920336
 20
-76.068889
 30
0.0
  0
SPLINE
  5
116
100
AcDbEntity
  8
0
 62
7
100
AcDbSpline
 70
8
 71
3
 72
8
 73
4
 74
0
 40
0
 40
0
 40
0
 40
0
 40
1
 40
1
 40
1
 40
1
 10
157.920336
 20
-76.068889
 30
0.0
 10
158.385521
 20
-75.876203
 30
0.0
 10
158.688830
 20
-75.422269
 30
0.0
 10
158.688830
 20
-74.918755
 30
0.0
  0
SPLINE
  5
117
100
AcDbEntity
  8
0
 62
7
100
AcDbSpline
 70
8
 71
3
 72
8
 73
4
 74
0
 40
0
 40
0
 40
0
 40
0
 40
1
 40
1
 40
1
 40
1
 10
158.688830
 20
-74.918755
 30
0.0
 10
158.688830
 20
-74.588589
 30
0.0
 10
158.557672
 20
-74.271944
 30
0.0
 10
158.324209
 20
-74.038481
 30
0.0
  0
SPLINE
  5
118
100
AcDbEntity
  8
0
 62
7
100
AcDbSpline
 70
8
 71
3
 72
8
 73
4
 74
0
 40
0
 40
0
 40
0
 40
0
 40
1
 40
1
 40
1
 40
1
 10
158.324209
 20
-74.038481
 30
0.0
 10
158.090746
 20
-73.805018
 30
0.0
 10
157.774101
 20
-73.673860
 30
0.0
 10
157.443935
 20
-73.673860
 30
0.0
  0
LWPOLYLINE
  5
119
100
AcDbEntity
  8
0
 62
7
100
AcDbPolyline
 90
1
 70
1
 10
203.649839
 20
-36.292933
 30
0.0
  0
SPLINE
  5
11a
100
AcDbEntity
  8
0
 62
7
100
AcDbSpline
 70
8
 71
3
 72
8
 73
4
 74
0
 40
0
 40
0
 40
0
 40
0
 40
1
 40
1
 40
1
 40
1
 10
146.452590
 20
-155.071205
 30
0.0
 10
145.949077
 20
-155.071205
 30
0.0
 10
145.495142
 20
-155.374514
 30
0.0
 10
145.302456
 20
-155.839700
 30
0.0
  0
SPLINE
  5
11b
100
AcDbEntity
  8
0
 62
7
100
AcDbSpline
 70
8
 71
3
 72
8
 73
4
 74
0
 40
0
 40
0
 40
0
 40
0
 40
1
 40
1
 40
1
 40
1
 10
145.302456
 20
-155.839700
 30
0.0
 10
145.109770
 20
-156.304886
 30
0.0
 10
145.216278
 20
-156.840337
 30
0.0
 10
145.572316
 20
-157.196375
 30
0.0
  0
SPLINE
  5
11c
100
AcDbEntity
  8
0
 62
7
100
AcDbSpline
 70
8
 71
3
 72
8
 73
4
 74
0
 40
0
 40
0
 40
0
 40
0
 40
1
 40
1
 40
1
 40
1
 10
145.572316
 20
-157.196375
 30
0.0
 10
145.928353
 20
-157.552413
 30
0.0
 10
146.463805
 20
-157.658921
 30
0.0
 10
146.928991
 20
-157.466235
 30
0.0
  0
SPLINE
  5
11d
100
AcDbEntity
  8
0
 62
7
100
AcDbSpline
 70
8
 71
3
 72
8
 73
4
 74
0
 40
0
 40
0
 40
0
 40
0
 40
1
 40
1
 40
1
 40
1
 10
146.928991
 20
-157.466235
 30
0.0
 10
147.394177
 20
-157.273548
 30
0.0
 10
147.697486
 20
-156.819614
 30
0.0
 10
147.697486
 20
-156.316101
 30
0.0
  0
SPLINE
  5
11e
100
AcDbEntity
  8
0
 62
7
100
AcDbSpline
 70
8
 71
3
 72
8
 73
4
 74
0
 40
0
 40
0
 40
0
 40
0
 40
1
 40
1
 40
1
 40
1
 10
147.697486
 20
-156.316101
 30
0.0
 10
147.697486
 20
-155.985934
 30
0.0
 10
147.566328
 20
-155.669290
 30
0.0
 10
147.332864
 20
-155.435827
 30
0.0
  0
SPLINE
  5
11f
100
AcDbEntity
  8
0
 62
7
100
AcDbSpline
 70
8
 71
3
 72
8
 73
4
 74
0
 40
0
 40
0
 40
0
 40
0
 40
1
 40
1
 40
1
 40
1
 10
147.332864
 20
-155.435827
 30
0.0
 10
147.099401
 20
-155.202363
 30
0.0
 10
146.782757
 20
-155.071205
 30
0.0
 10
146.452590
 20
-155.071205
 30
0.0
  0
LWPOLYLINE
  5
120
100
AcDbEntity
  8
0
 62
7
100
AcDbPolyline
 90
1
 70
1
 10
157.443935
 20
-73.673860
 30
0.0
  0
SPLINE
  5
121
100
AcDbEntity
  8
0
 62
7
100
AcDbSpline
 70
8
 71
3
 72
8
 73
4
 74
0
 40
0
 40
0
 40
0
 40
0
 40
1
 40
1
 40
1
 40
1
 10
102.049075
 20
-155.471255
 30
0.0
 10
101.545561
 20
-155.471255
 30
0.0
 10
101.091627
 20
-155.774564
 30
0.0
 10
100.898941
 20
-156.239750
 30
0.0
  0
SPLINE
  5
122
100
AcDbEntity
  8
0
 62
7
100
AcDbSpline
 70
8
 71
3
 72
8
 73
4
 74
0
 40
0
 40
0
 40
0
 40
0
 40
1
 40
1
 40
1
 40
1
 10
100.898941
 20
-156.239750
 30
0.0
 10
100.706254
 20
-156.704936
 30
0.0
 10
100.812762
 20
-157.240387
 30
0.0
 10
101.168800
 20
-157.596425
 30
0.0
  0
SPLINE
  5
123
100
AcDbEntity
  8
0
 62
7
100
AcDbSpline
 70
8
 71
3
 72
8
 73
4
 74
0
 40
0
 40
0
 40
0
 40
0
 40
1
 40
1
 40
1
 40
1
 10
101.168800
 20
-157.596425
 30
0.0
 10
101.524838
 20
-157.952463
 30
0.0
 10
102.060290
 20
-158.058971
 30
0.0
 10
102.525476
 20
-157.866285
 30
0.0
  0
SPLINE
  5
124
100
AcDbEntity
  8
0
 62
7
100
AcDbSpline
 70
8
 71
3
 72
8
 73
4
 74
0
 40
0
 40
0
 40
0
 40
0
 40
1
 40
1
 40
1
 40
1
 10
102.525476
 20
-157.866285
 30
0.0
 10
102.990661
 20
-157.673598
 30
0.0
 10
103.293970
 20
-157.219664
 30
0.0
 10
103.293970
 20
-156.716151
 30
0.0
  0
SPLINE
  5
125
100
AcDbEntity
  8
0
 62
7
100
AcDbSpline
 70
8
 71
3
 72
8
 73
4
 74
0
 40
0
 40
0
 40
0
 40
0
 40
1
 40
1
 40
1
 40
1
 10
103.293970
 20
-156.716151
 30
0.0
 10
103.293970
 20
-156.385984
 30
0.0
 10
103.162812
 20
-156.069340
 30
0.0
 10
102.929349
 20
-155.835877
 30
0.0
  0
SPLINE
  5
126
100
AcDbEntity
  8
0
 62
7
100
AcDbSpline
 70
8
 71
3
 72
8
 73
4
 74
0
 40
0
 40
0
 40
0
 40
0
 40
1
 40
1
 40
1
 40
1
 10
102.929349
 20
-155.835877
 30
0.0
 10
102.695886
 20
-155.602413
 30
0.0
 10
102.379241
 20
-155.471255
 30
0.0
 10
102.049075
 20
-155.471255
 30
0.0
  0
LWPOLYLINE
  5
127
100
AcDbEntity
  8
0
 62
7
100
AcDbPolyline
 90
1
 70
1
 10
146.452590
 20
-155.071205
 30
0.0
  0
SPLINE
  5
128
100
AcDbEntity
  8
0
 62
7
100
AcDbSpline
 70
8
 71
3
 72
8
 73
4
 74
0
 40
0
 40
0
 40
0
 40
0
 40
1
 40
1
 40
1
 40
1
 10
72.445626
 20
-118.876515
 30
0.0
 10
71.943674
 20
-118.876515
 30
0.0
 10
71.491148
 20
-119.178884
 30
0.0
 10
71.299060
 20
-119.642627
 30
0.0
  0
SPLINE
  5
129
100
AcDbEntity
  8
0
 62
7
100
AcDbSpline
 70
8
 71
3
 72
8
 73
4
 74
0
 40
0
 40
0
 40
0
 40
0
 40
1
 40
1
 40
1
 40
1
 10
71.299060
 20
-119.642627
 30
0.0
 10
71.106971
 20
-120.106369
 30
0.0
 10
71.213149
 20
-120.640160
 30
0.0
 10
71.568082
 20
-120.995094
 30
0.0
  0
SPLINE
  5
12a
100
AcDbEntity
  8
0
 62
7
100
AcDbSpline
 70
8
 71
3
 72
8
 73
4
 74
0
 40
0
 40
0
 40
0
 40
0
 40
1
 40
1
 40
1
 40
1
 10
71.568082
 20
-120.995094
 30
0.0
 10
71.923015
 20
-121.350027
 30
0.0
 10
72.456807
 20
-121.456205
 30
0.0
 10
72.920549
 20
-121.264116
 30
0.0
  0
SPLINE
  5
12b
100
AcDbEntity
  8
0
 62
7
100
AcDbSpline
 70
8
 71
3
 72
8
 73
4
 74
0
 40
0
 40
0
 40
0
 40
0
 40
1
 40
1
 40
1
 40
1
 10
72.920549
 20
-121.264116
 30
0.0
 10
73.384292
 20
-121.072028
 30
0.0
 10
73.686660
 20
-120.619502
 30
0.0
 10
73.686660
 20
-120.117550
 30
0.0
  0
SPLINE
  5
12c
100
AcDbEntity
  8
0
 62
7
100
AcDbSpline
 70
8
 71
3
 72
8
 73
4
 74
0
 40
0
 40
0
 40
0
 40
0
 40
1
 40
1
 40
1
 40
1
 10
73.686660
 20
-120.117550
 30
0.0
 10
73.686660
 20
-119.788407
 30
0.0
 10
73.555909
 20
-119.472745
 30
0.0
 10
73.323170
 20
-119.240006
 30
0.0
  0
SPLINE
  5
12d
100
AcDbEntity
  8
0
 62
7
100
AcDbSpline
 70
8
 71
3
 72
8
 73
4
 74
0
 40
0
 40
0
 40
0
 40
0
 40
1
 40
1
 40
1
 40
1
 10
73.323170
 20
-119.240006
 30
0.0
 10
73.090431
 20
-119.007267
 30
0.0
 10
72.774769
 20
-118.876515
 30
0.0
 10
72.445626
 20
-118.876515
 30
0.0
  0
LWPOLYLINE
  5
12e
100
AcDbEntity
  8
0
 62
7
100
AcDbPolyline
 90
1
 70
1
 10
102.049075
 20
-155.471255
 30
0.0
  0
SPLINE
  5
12f
100
AcDbEntity
  8
0
 62
7
100
AcDbSpline
 70
8
 71
3
 72
8
 73
4
 74
0
 40
0
 40
0
 40
0
 40
0
 40
1
 40
1
 40
1
 40
1
 10
92.647770
 20
-73.078016
 30
0.0
 10
92.145918
 20
-73.078016
 30
0.0
 10
91.693481
 20
-73.380324
 30
0.0
 10
91.501430
 20
-73.843975
 30
0.0
  0
SPLINE
  5
130
100
AcDbEntity
  8
0
 62
7
100
AcDbSpline
 70
8
 71
3
 72
8
 73
4
 74
0
 40
0
 40
0
 40
0
 40
0
 40
1
 40
1
 40
1
 40
1
 10
91.501430
 20
-73.843975
 30
0.0
 10
91.309380
 20
-74.307627
 30
0.0
 10
91.415536
 20
-74.841312
 30
0.0
 10
91.770400
 20
-75.196175
 30
0.0
  0
SPLINE
  5
131
100
AcDbEntity
  8
0
 62
7
100
AcDbSpline
 70
8
 71
3
 72
8
 73
4
 74
0
 40
0
 40
0
 40
0
 40
0
 40
1
 40
1
 40
1
 40
1
 10
91.770400
 20
-75.196175
 30
0.0
 10
92.125263
 20
-75.551038
 30
0.0
 10
92.658948
 20
-75.657195
 30
0.0
 10
93.122599
 20
-75.465145
 30
0.0
  0
SPLINE
  5
132
100
AcDbEntity
  8
0
 62
7
100
AcDbSpline
 70
8
 71
3
 72
8
 73
4
 74
0
 40
0
 40
0
 40
0
 40
0
 40
1
 40
1
 40
1
 40
1
 10
93.122599
 20
-75.465145
 30
0.0
 10
93.586251
 20
-75.273094
 30
0.0
 10
93.888559
 20
-74.820657
 30
0.0
 10
93.888559
 20
-74.318805
 30
0.0
  0
SPLINE
  5
133
100
AcDbEntity
  8
0
 62
7
100
AcDbSpline
 70
8
 71
3
 72
8
 73
4
 74
0
 40
0
 40
0
 40
0
 40
0
 40
1
 40
1
 40
1
 40
1
 10
93.888559
 20
-74.318805
 30
0.0
 10
93.888559
 20
-73.633536
 30
0.0
 10
93.333039
 20
-73.078016
 30
0.0
 10
92.647770
 20
-73.078016
 30
0.0
  0
LWPOLYLINE
  5
134
100
AcDbEntity
  8
0
 62
7
100
AcDbPolyline
 90
1
 70
1
 10
72.445626
 20
-118.876515
 30
0.0
  0
SPLINE
  5
135
100
AcDbEntity
  8
0
 62
7
100
AcDbSpline
 70
8
 71
3
 72
8
 73
4
 74
0
 40
0
 40
0
 40
0
 40
0
 40
1
 40
1
 40
1
 40
1
 10
27.652472
 20
-77.671871
 30
0.0
 10
26.967068
 20
-77.671871
 30
0.0
 10
26.411438
 20
-78.227501
 30
0.0
 10
26.411438
 20
-78.912905
 30
0.0
  0
SPLINE
  5
136
100
AcDbEntity
  8
0
 62
7
100
AcDbSpline
 70
8
 71
3
 72
8
 73
4
 74
0
 40
0
 40
0
 40
0
 40
0
 40
1
 40
1
 40
1
 40
1
 10
26.411438
 20
-78.912905
 30
0.0
 10
26.411438
 20
-79.598310
 30
0.0
 10
26.967068
 20
-80.153940
 30
0.0
 10
27.652472
 20
-80.153940
 30
0.0
  0
SPLINE
  5
137
100
AcDbEntity
  8
0
 62
7
100
AcDbSpline
 70
8
 71
3
 72
8
 73
4
 74
0
 40
0
 40
0
 40
0
 40
0
 40
1
 40
1
 40
1
 40
1
 10
27.652472
 20
-80.153940
 30
0.0
 10
28.337876
 20
-80.153940
 30
0.0
 10
28.893506
 20
-79.598310
 30
0.0
 10
28.893506
 20
-78.912905
 30
0.0
  0
SPLINE
  5
138
100
AcDbEntity
  8
0
 62
7
100
AcDbSpline
 70
8
 71
3
 72
8
 73
4
 74
0
 40
0
 40
0
 40
0
 40
0
 40
1
 40
1
 40
1
 40
1
 10
28.893506
 20
-78.912905
 30
0.0
 10
28.893506
 20
-78.583763
 30
0.0
 10
28.762755
 20
-78.268101
 30
0.0
 10
28.530016
 20
-78.035362
 30
0.0
  0
SPLINE
  5
139
100
AcDbEntity
  8
0
 62
7
100
AcDbSpline
 70
8
 71
3
 72
8
 73
4
 74
0
 40
0
 40
0
 40
0
 40
0
 40
1
 40
1
 40
1
 40
1
 10
28.530016
 20
-78.035362
 30
0.0
 10
28.297277
 20
-77.802622
 30
0.0
 10
27.981615
 20
-77.671871
 30
0.0
 10
27.652472
 20
-77.671871
 30
0.0
  0
LWPOLYLINE
  5
13a
100
AcDbEntity
  8
0
 62
7
100
AcDbPolyline
 90
1
 70
1
 10
92.647770
 20
-73.078016
 30
0.0
  0
SPLINE
  5
13b
100
AcDbEntity
  8
0
 62
7
100
AcDbSpline
 70
8
 71
3
 72
8
 73
4
 74
0
 40
0
 40
0
 40
0
 40
0
 40
1
 40
1
 40
1
 40
1
 10
44.452035
 20
-42.470772
 30
0.0
 10
43.949571
 20
-42.470772
 30
0.0
 10
43.496582
 20
-42.773449
 30
0.0
 10
43.304298
 20
-43.237666
 30
0.0
  0
SPLINE
  5
13c
100
AcDbEntity
  8
0
 62
7
100
AcDbSpline
 70
8
 71
3
 72
8
 73
4
 74
0
 40
0
 40
0
 40
0
 40
0
 40
1
 40
1
 40
1
 40
1
 10
43.304298
 20
-43.237666
 30
0.0
 10
43.112013
 20
-43.701883
 30
0.0
 10
43.218299
 20
-44.236220
 30
0.0
 10
43.573595
 20
-44.591516
 30
0.0
  0
SPLINE
  5
13d
100
AcDbEntity
  8
0
 62
7
100
AcDbSpline
 70
8
 71
3
 72
8
 73
4
 74
0
 40
0
 40
0
 40
0
 40
0
 40
1
 40
1
 40
1
 40
1
 10
43.573595
 20
-44.591516
 30
0.0
 10
43.928891
 20
-44.946812
 30
0.0
 10
44.463226
 20
-45.053098
 30
0.0
 10
44.927443
 20
-44.860813
 30
0.0
  0
SPLINE
  5
13e
100
AcDbEntity
  8
0
 62
7
100
AcDbSpline
 70
8
 71
3
 72
8
 73
4
 74
0
 40
0
 40
0
 40
0
 40
0
 40
1
 40
1
 40
1
 40
1
 10
44.927443
 20
-44.860813
 30
0.0
 10
45.391659
 20
-44.668528
 30
0.0
 10
45.694336
 20
-44.215540
 30
0.0
 10
45.694336
 20
-43.713075
 30
0.0
  0
SPLINE
  5
13f
100
AcDbEntity
  8
0
 62
7
100
AcDbSpline
 70
8
 71
3
 72
8
 73
4
 74
0
 40
0
 40
0
 40
0
 40
0
 40
1
 40
1
 40
1
 40
1
 10
45.694336
 20
-43.713075
 30
0.0
 10
45.694336
 20
-43.383596
 30
0.0
 10
45.563451
 20
-43.067611
 30
0.0
 10
45.330474
 20
-42.834634
 30
0.0
  0
SPLINE
  5
140
100
AcDbEntity
  8
0
 62
7
100
AcDbSpline
 70
8
 71
3
 72
8
 73
4
 74
0
 40
0
 40
0
 40
0
 40
0
 40
1
 40
1
 40
1
 40
1
 10
45.330474
 20
-42.834634
 30
0.0
 10
45.097498
 20
-42.601657
 30
0.0
 10
44.781513
 20
-42.470772
 30
0.0
 10
44.452035
 20
-42.470772
 30
0.0
  0
LWPOLYLINE
  5
141
100
AcDbEntity
  8
0
 62
7
100
AcDbPolyline
 90
1
 70
1
 10
27.652472
 20
-77.671871
 30
0.0
  0
LWPOLYLINE
  5
142
100
AcDbEntity
  8
0
 62
7
100
AcDbPolyline
 90
1
 70
1
 10
44.452035
 20
-42.470772
 30
0.0
  0
LWPOLYLINE
  5
143
100
AcDbEntity
  8
0
 62
7
100
AcDbPolyline
 90
33
 70
0
 10
104.058720
 20
-47.882231
 30
0.0
 10
103.624380
 20
-47.666331
 30
0.0
 10
103.190040
 20
-47.450431
 30
0.0
 10
102.755700
 20
-47.234531
 30
0.0
 10
102.318820
 20
-47.021171
 30
0.0
 10
101.884480
 20
-46.807811
 30
0.0
 10
101.447600
 20
-46.596991
 30
0.0
 10
101.010720
 20
-46.386171
 30
0.0
 10
100.573840
 20
-46.175351
 30
0.0
 10
100.136960
 20
-45.967071
 30
0.0
 10
99.697540
 20
-45.758791
 30
0.0
 10
99.260660
 20
-45.550511
 30
0.0
 10
98.821240
 20
-45.342231
 30
0.0
 10
98.381820
 20
-45.136491
 30
0.0
 10
97.942400
 20
-44.930751
 30
0.0
 10
97.502980
 20
-44.725011
 30
0.0
 10
97.063560
 20
-44.519271
 30
0.0
 10
96.624140
 20
-44.316071
 30
0.0
 10
96.182180
 20
-44.110331
 30
0.0
 10
95.742760
 20
-43.907131
 30
0.0
 10
95.300800
 20
-43.706471
 30
0.0
 10
94.861380
 20
-43.503271
 30
0.0
 10
94.419420
 20
-43.300071
 30
0.0
 10
93.977460
 20
-43.099411
 30
0.0
 10
93.535500
 20
-42.896211
 30
0.0
 10
93.096080
 20
-42.695551
 30
0.0
 10
92.654120
 20
-42.494891
 30
0.0
 10
92.212160
 20
-42.294231
 30
0.0
 10
91.770200
 20
-42.093571
 30
0.0
 10
91.328240
 20
-41.892911
 30
0.0
 10
90.886280
 20
-41.692251
 30
0.0
 10
90.444320
 20
-41.491591
 30
0.0
 10
90.002360
 20
-41.293471
 30
0.0
  0
LWPOLYLINE
  5
144
100
AcDbEntity
  8
0
 62
7
100
AcDbPolyline
 90
33
 70
0
 10
48.447960
 20
-28.557911
 30
0.0
 10
48.364140
 20
-28.738251
 30
0.0
 10
48.280320
 20
-28.921131
 30
0.0
 10
48.193960
 20
-29.101471
 30
0.0
 10
48.110140
 20
-29.284351
 30
0.0
 10
48.026320
 20
-29.464691
 30
0.0
 10
47.939960
 20
-29.647571
 30
0.0
 10
47.856140
 20
-29.827911
 30
0.0
 10
47.772320
 20
-30.010791
 30
0.0
 10
47.688500
 20
-30.191131
 30
0.0
 10
47.602140
 20
-30.374011
 30
0.0
 10
47.518320
 20
-30.554351
 30
0.0
 10
47.434500
 20
-30.737231
 30
0.0
 10
47.348140
 20
-30.917571
 30
0.0
 10
47.264320
 20
-31.100451
 30
0.0
 10
47.180500
 20
-31.280791
 30
0.0
 10
47.094140
 20
-31.463671
 30
0.0
 10
47.010320
 20
-31.644011
 30
0.0
 10
46.926500
 20
-31.824351
 30
0.0
 10
46.842680
 20
-32.007231
 30
0.0
 10
46.756320
 20
-32.187571
 30
0.0
 10
46.672500
 20
-32.370451
 30
0.0
 10
46.588680
 20
-32.550791
 30
0.0
 10
46.502320
 20
-32.733671
 30
0.0
 10
46.418500
 20
-32.914011
 30
0.0
 10
46.334680
 20
-33.096891
 30
0.0
 10
46.250860
 20
-33.277231
 30
0.0
 10
46.164500
 20
-33.460111
 30
0.0
 10
46.080680
 20
-33.640451
 30
0.0
 10
45.996860
 20
-33.823331
 30
0.0
 10
45.910500
 20
-34.003671
 30
0.0
 10
45.826680
 20
-34.186551
 30
0.0
 10
45.742860
 20
-34.366891
 30
0.0
  0
LWPOLYLINE
  5
145
100
AcDbEntity
  8
0
 62
7
100
AcDbPolyline
 90
33
 70
0
 10
27.061160
 20
-29.530731
 30
0.0
 10
26.322020
 20
-31.108071
 30
0.0
 10
25.582880
 20
-32.685411
 30
0.0
 10
24.846280
 20
-34.262751
 30
0.0
 10
24.107140
 20
-35.840091
 30
0.0
 10
23.368000
 20
-37.414891
 30
0.0
 10
22.631400
 20
-38.992231
 30
0.0
 10
21.892260
 20
-40.569571
 30
0.0
 10
21.155660
 20
-42.146911
 30
0.0
 10
20.419060
 20
-43.724251
 30
0.0
 10
19.679920
 20
-45.304131
 30
0.0
 10
18.943320
 20
-46.881471
 30
0.0
 10
18.206720
 20
-48.458811
 30
0.0
 10
17.470120
 20
-50.036151
 30
0.0
 10
16.733520
 20
-51.613491
 30
0.0
 10
15.999460
 20
-53.193371
 30
0.0
 10
15.262860
 20
-54.770711
 30
0.0
 10
14.528800
 20
-56.350591
 30
0.0
 10
13.792200
 20
-57.927931
 30
0.0
 10
13.058140
 20
-59.507811
 30
0.0
 10
12.324080
 20
-61.085151
 30
0.0
 10
11.590020
 20
-62.665031
 30
0.0
 10
10.855960
 20
-64.244911
 30
0.0
 10
10.121900
 20
-65.822251
 30
0.0
 10
9.390380
 20
-67.402131
 30
0.0
 10
8.658860
 20
-68.982011
 30
0.0
 10
7.927340
 20
-70.561891
 30
0.0
 10
7.195820
 20
-72.144311
 30
0.0
 10
6.464300
 20
-73.724191
 30
0.0
 10
5.732780
 20
-75.304071
 30
0.0
 10
5.003800
 20
-76.886491
 30
0.0
 10
4.274820
 20
-78.466371
 30
0.0
 10
3.545840
 20
-80.048791
 30
0.0
  0
LWPOLYLINE
  5
146
100
AcDbEntity
  8
0
 62
7
100
AcDbPolyline
 90
33
 70
0
 10
45.742860
 20
-34.366891
 30
0.0
 10
45.272960
 20
-34.150991
 30
0.0
 10
44.805600
 20
-33.932551
 30
0.0
 10
44.335700
 20
-33.714111
 30
0.0
 10
43.868340
 20
-33.495671
 30
0.0
 10
43.398440
 20
-33.279771
 30
0.0
 10
42.931080
 20
-33.061331
 30
0.0
 10
42.463720
 20
-32.842891
 30
0.0
 10
41.993820
 20
-32.624451
 30
0.0
 10
41.526460
 20
-32.406011
 30
0.0
 10
41.056560
 20
-32.187571
 30
0.0
 10
40.589200
 20
-31.971671
 30
0.0
 10
40.119300
 20
-31.753231
 30
0.0
 10
39.651940
 20
-31.534791
 30
0.0
 10
39.182040
 20
-31.316351
 30
0.0
 10
38.714680
 20
-31.100451
 30
0.0
 10
38.244780
 20
-30.882011
 30
0.0
 10
37.777420
 20
-30.666111
 30
0.0
 10
37.307520
 20
-30.447671
 30
0.0
 10
36.837620
 20
-30.231771
 30
0.0
 10
36.370260
 20
-30.015871
 30
0.0
 10
35.900360
 20
-29.799971
 30
0.0
 10
35.430460
 20
-29.584071
 30
0.0
 10
34.960560
 20
-29.368171
 30
0.0
 10
34.490660
 20
-29.154811
 30
0.0
 10
34.020760
 20
-28.938911
 30
0.0
 10
33.550860
 20
-28.725551
 30
0.0
 10
33.080960
 20
-28.512191
 30
0.0
 10
32.608520
 20
-28.298831
 30
0.0
 10
32.138620
 20
-28.088011
 30
0.0
 10
31.666180
 20
-27.874651
 30
0.0
 10
31.196280
 20
-27.663831
 30
0.0
 10
30.723840
 20
-27.453011
 30
0.0
  0
LWPOLYLINE
  5
147
100
AcDbEntity
  8
0
 62
7
100
AcDbPolyline
 90
33
 70
0
 10
51.269900
 20
-24.161171
 30
0.0
 10
51.117500
 20
-24.244991
 30
0.0
 10
50.972720
 20
-24.333891
 30
0.0
 10
50.835560
 20
-24.430411
 30
0.0
 10
50.706020
 20
-24.534551
 30
0.0
 10
50.584100
 20
-24.641231
 30
0.0
 10
50.467260
 20
-24.755531
 30
0.0
 10
50.355500
 20
-24.874911
 30
0.0
 10
50.248820
 20
-24.996831
 30
0.0
 10
50.149760
 20
-25.126371
 30
0.0
 10
50.053240
 20
-25.258451
 30
0.0
 10
49.961800
 20
-25.393071
 30
0.0
 10
49.875440
 20
-25.532771
 30
0.0
 10
49.791620
 20
-25.675011
 30
0.0
 10
49.710340
 20
-25.819791
 30
0.0
 10
49.634140
 20
-25.967111
 30
0.0
 10
49.560480
 20
-26.116971
 30
0.0
 10
49.489360
 20
-26.269371
 30
0.0
 10
49.418240
 20
-26.421771
 30
0.0
 10
49.349660
 20
-26.576711
 30
0.0
 10
49.283620
 20
-26.734191
 30
0.0
 10
49.217580
 20
-26.889131
 30
0.0
 10
49.151540
 20
-27.046611
 30
0.0
 10
49.085500
 20
-27.201551
 30
0.0
 10
49.019460
 20
-27.359031
 30
0.0
 10
48.953420
 20
-27.513971
 30
0.0
 10
48.887380
 20
-27.668911
 30
0.0
 10
48.818800
 20
-27.821311
 30
0.0
 10
48.750220
 20
-27.973711
 30
0.0
 10
48.679100
 20
-28.123571
 30
0.0
 10
48.605440
 20
-28.270891
 30
0.0
 10
48.526700
 20
-28.415671
 30
0.0
 10
48.447960
 20
-28.557911
 30
0.0
  0
LWPOLYLINE
  5
148
100
AcDbEntity
  8
0
 62
7
100
AcDbPolyline
 90
33
 70
0
 10
30.723840
 20
-27.453011
 30
0.0
 10
30.573980
 20
-27.404751
 30
0.0
 10
30.426660
 20
-27.366651
 30
0.0
 10
30.279340
 20
-27.336171
 30
0.0
 10
30.129480
 20
-27.318391
 30
0.0
 10
29.982160
 20
-27.305691
 30
0.0
 10
29.837380
 20
-27.303151
 30
0.0
 10
29.692600
 20
-27.310771
 30
0.0
 10
29.547820
 20
-27.323471
 30
0.0
 10
29.405580
 20
-27.346331
 30
0.0
 10
29.265880
 20
-27.376811
 30
0.0
 10
29.126180
 20
-27.414911
 30
0.0
 10
28.991560
 20
-27.458091
 30
0.0
 10
28.856940
 20
-27.511431
 30
0.0
 10
28.724860
 20
-27.569851
 30
0.0
 10
28.597860
 20
-27.635891
 30
0.0
 10
28.470860
 20
-27.707011
 30
0.0
 10
28.348940
 20
-27.785751
 30
0.0
 10
28.232100
 20
-27.869571
 30
0.0
 10
28.117800
 20
-27.958471
 30
0.0
 10
28.006040
 20
-28.054991
 30
0.0
 10
27.899360
 20
-28.154051
 30
0.0
 10
27.797760
 20
-28.258191
 30
0.0
 10
27.698700
 20
-28.369951
 30
0.0
 10
27.607260
 20
-28.484251
 30
0.0
 10
27.518360
 20
-28.601091
 30
0.0
 10
27.434540
 20
-28.723011
 30
0.0
 10
27.358340
 20
-28.850011
 30
0.0
 10
27.287220
 20
-28.979551
 30
0.0
 10
27.221180
 20
-29.114171
 30
0.0
 10
27.160220
 20
-29.251331
 30
0.0
 10
27.106880
 20
-29.388491
 30
0.0
 10
27.061160
 20
-29.530731
 30
0.0
  0
LWPOLYLINE
  5
149
100
AcDbEntity
  8
0
 62
7
100
AcDbPolyline
 90
33
 70
0
 10
5.527040
 20
-83.983251
 30
0.0
 10
5.958840
 20
-84.199151
 30
0.0
 10
6.393180
 20
-84.415051
 30
0.0
 10
6.827520
 20
-84.628411
 30
0.0
 10
7.261860
 20
-84.841771
 30
0.0
 10
7.696200
 20
-85.055131
 30
0.0
 10
8.130540
 20
-85.265951
 30
0.0
 10
8.567420
 20
-85.476771
 30
0.0
 10
9.001760
 20
-85.685051
 30
0.0
 10
9.438640
 20
-85.893331
 30
0.0
 10
9.875520
 20
-86.101611
 30
0.0
 10
10.312400
 20
-86.309891
 30
0.0
 10
10.749280
 20
-86.515631
 30
0.0
 10
11.188700
 20
-86.721371
 30
0.0
 10
11.625580
 20
-86.927111
 30
0.0
 10
12.065000
 20
-87.132851
 30
0.0
 10
12.504420
 20
-87.336051
 30
0.0
 10
12.943840
 20
-87.539251
 30
0.0
 10
13.383260
 20
-87.742451
 30
0.0
 10
13.822680
 20
-87.945651
 30
0.0
 10
14.262100
 20
-88.146311
 30
0.0
 10
14.701520
 20
-88.349511
 30
0.0
 10
15.140940
 20
-88.550171
 30
0.0
 10
15.580360
 20
-88.750831
 30
0.0
 10
16.022320
 20
-88.951491
 30
0.0
 10
16.461740
 20
-89.152151
 30
0.0
 10
16.903700
 20
-89.352811
 30
0.0
 10
17.343120
 20
-89.553471
 30
0.0
 10
17.785080
 20
-89.751591
 30
0.0
 10
18.224500
 20
-89.952251
 30
0.0
 10
18.666460
 20
-90.150371
 30
0.0
 10
19.105880
 20
-90.351031
 30
0.0
 10
19.547840
 20
-90.549151
 30
0.0
  0
LWPOLYLINE
  5
14a
100
AcDbEntity
  8
0
 62
7
100
AcDbPolyline
 90
33
 70
0
 10
36.629340
 20
-105.555471
 30
0.0
 10
36.779200
 20
-105.591031
 30
0.0
 10
36.926520
 20
-105.616431
 30
0.0
 10
37.071300
 20
-105.631671
 30
0.0
 10
37.218620
 20
-105.639291
 30
0.0
 10
37.360860
 20
-105.639291
 30
0.0
 10
37.503100
 20
-105.629131
 30
0.0
 10
37.642800
 20
-105.611351
 30
0.0
 10
37.779960
 20
-105.585951
 30
0.0
 10
37.917120
 20
-105.552931
 30
0.0
 10
38.051740
 20
-105.512291
 30
0.0
 10
38.181280
 20
-105.464031
 30
0.0
 10
38.310820
 20
-105.410691
 30
0.0
 10
38.437820
 20
-105.349731
 30
0.0
 10
38.559740
 20
-105.281151
 30
0.0
 10
38.681660
 20
-105.207491
 30
0.0
 10
38.798500
 20
-105.128751
 30
0.0
 10
38.912800
 20
-105.044931
 30
0.0
 10
39.022020
 20
-104.953491
 30
0.0
 10
39.128700
 20
-104.859511
 30
0.0
 10
39.232840
 20
-104.760451
 30
0.0
 10
39.331900
 20
-104.656311
 30
0.0
 10
39.425880
 20
-104.547091
 30
0.0
 10
39.517320
 20
-104.435331
 30
0.0
 10
39.603680
 20
-104.321031
 30
0.0
 10
39.687500
 20
-104.201651
 30
0.0
 10
39.763700
 20
-104.077191
 30
0.0
 10
39.837360
 20
-103.952731
 30
0.0
 10
39.903400
 20
-103.825731
 30
0.0
 10
39.966900
 20
-103.696191
 30
0.0
 10
40.025320
 20
-103.564111
 30
0.0
 10
40.076120
 20
-103.429491
 30
0.0
 10
40.121840
 20
-103.292331
 30
0.0
  0
LWPOLYLINE
  5
14b
100
AcDbEntity
  8
0
 62
7
100
AcDbPolyline
 90
33
 70
0
 10
47.962820
 20
-127.518851
 30
0.0
 10
48.475900
 20
-127.770311
 30
0.0
 10
48.988980
 20
-128.019231
 30
0.0
 10
49.504600
 20
-128.268151
 30
0.0
 10
50.020220
 20
-128.514531
 30
0.0
 10
50.535840
 20
-128.760911
 30
0.0
 10
51.051460
 20
-129.004751
 30
0.0
 10
51.567080
 20
-129.248591
 30
0.0
 10
52.085240
 20
-129.492431
 30
0.0
 10
52.603400
 20
-129.733731
 30
0.0
 10
53.119020
 20
-129.975031
 30
0.0
 10
53.637180
 20
-130.216331
 30
0.0
 10
54.155340
 20
-130.457631
 30
0.0
 10
54.673500
 20
-130.698931
 30
0.0
 10
55.194200
 20
-130.937691
 30
0.0
 10
55.712360
 20
-131.178991
 30
0.0
 10
56.230520
 20
-131.417751
 30
0.0
 10
56.748680
 20
-131.656511
 30
0.0
 10
57.266840
 20
-131.897811
 30
0.0
 10
57.785000
 20
-132.136571
 30
0.0
 10
58.303160
 20
-132.377871
 30
0.0
 10
58.821320
 20
-132.619171
 30
0.0
 10
59.339480
 20
-132.860471
 30
0.0
 10
59.857640
 20
-133.101771
 30
0.0
 10
60.375800
 20
-133.343071
 30
0.0
 10
60.891420
 20
-133.586911
 30
0.0
 10
61.409580
 20
-133.828211
 30
0.0
 10
61.925200
 20
-134.074591
 30
0.0
 10
62.440820
 20
-134.318431
 30
0.0
 10
62.953900
 20
-134.564811
 30
0.0
 10
63.469520
 20
-134.813731
 30
0.0
 10
63.982600
 20
-135.062651
 30
0.0
 10
64.495680
 20
-135.311571
 30
0.0
  0
LWPOLYLINE
  5
14c
100
AcDbEntity
  8
0
 62
7
100
AcDbPolyline
 90
33
 70
0
 10
3.545840
 20
-80.048791
 30
0.0
 10
3.487420
 20
-80.201191
 30
0.0
 10
3.439160
 20
-80.353591
 30
0.0
 10
3.401060
 20
-80.505991
 30
0.0
 10
3.375660
 20
-80.658391
 30
0.0
 10
3.355340
 20
-80.808251
 30
0.0
 10
3.347720
 20
-80.960651
 30
0.0
 10
3.347720
 20
-81.110511
 30
0.0
 10
3.357880
 20
-81.260371
 30
0.0
 10
3.375660
 20
-81.410231
 30
0.0
 10
3.401060
 20
-81.557551
 30
0.0
 10
3.436620
 20
-81.702331
 30
0.0
 10
3.477260
 20
-81.844571
 30
0.0
 10
3.528060
 20
-81.986811
 30
0.0
 10
3.583940
 20
-82.123971
 30
0.0
 10
3.647440
 20
-82.261131
 30
0.0
 10
3.716020
 20
-82.395751
 30
0.0
 10
3.792220
 20
-82.525291
 30
0.0
 10
3.876040
 20
-82.652291
 30
0.0
 10
3.964940
 20
-82.776751
 30
0.0
 10
4.058920
 20
-82.898671
 30
0.0
 10
4.157980
 20
-83.015511
 30
0.0
 10
4.262120
 20
-83.127271
 30
0.0
 10
4.371340
 20
-83.236491
 30
0.0
 10
4.485640
 20
-83.338091
 30
0.0
 10
4.602480
 20
-83.437151
 30
0.0
 10
4.724400
 20
-83.533671
 30
0.0
 10
4.851400
 20
-83.622571
 30
0.0
 10
4.980940
 20
-83.706391
 30
0.0
 10
5.113020
 20
-83.782591
 30
0.0
 10
5.247640
 20
-83.856251
 30
0.0
 10
5.387340
 20
-83.922291
 30
0.0
 10
5.527040
 20
-83.983251
 30
0.0
  0
LWPOLYLINE
  5
14d
100
AcDbEntity
  8
0
 62
7
100
AcDbPolyline
 90
33
 70
0
 10
45.902880
 20
-124.087311
 30
0.0
 10
45.872400
 20
-124.227011
 30
0.0
 10
45.847000
 20
-124.369251
 30
0.0
 10
45.831760
 20
-124.508951
 30
0.0
 10
45.824140
 20
-124.646111
 30
0.0
 10
45.824140
 20
-124.785811
 30
0.0
 10
45.829220
 20
-124.922971
 30
0.0
 10
45.844460
 20
-125.057591
 30
0.0
 10
45.864780
 20
-125.192211
 30
0.0
 10
45.892720
 20
-125.324291
 30
0.0
 10
45.925740
 20
-125.453831
 30
0.0
 10
45.966380
 20
-125.583371
 30
0.0
 10
46.014640
 20
-125.710371
 30
0.0
 10
46.065440
 20
-125.832291
 30
0.0
 10
46.126400
 20
-125.954211
 30
0.0
 10
46.189900
 20
-126.073591
 30
0.0
 10
46.258480
 20
-126.190431
 30
0.0
 10
46.334680
 20
-126.302191
 30
0.0
 10
46.413420
 20
-126.411411
 30
0.0
 10
46.499780
 20
-126.518091
 30
0.0
 10
46.588680
 20
-126.622231
 30
0.0
 10
46.682660
 20
-126.721291
 30
0.0
 10
46.781720
 20
-126.815271
 30
0.0
 10
46.883320
 20
-126.906711
 30
0.0
 10
46.990000
 20
-126.993071
 30
0.0
 10
47.101760
 20
-127.076891
 30
0.0
 10
47.216060
 20
-127.155631
 30
0.0
 10
47.332900
 20
-127.229291
 30
0.0
 10
47.452280
 20
-127.297871
 30
0.0
 10
47.576740
 20
-127.361371
 30
0.0
 10
47.703740
 20
-127.419791
 30
0.0
 10
47.830740
 20
-127.473131
 30
0.0
 10
47.962820
 20
-127.518851
 30
0.0
  0
LWPOLYLINE
  5
14e
100
AcDbEntity
  8
0
 62
7
100
AcDbPolyline
 90
33
 70
0
 10
22.258020
 20
-99.042911
 30
0.0
 10
22.705060
 20
-99.248651
 30
0.0
 10
23.154640
 20
-99.451851
 30
0.0
 10
23.601680
 20
-99.660131
 30
0.0
 10
24.048720
 20
-99.865871
 30
0.0
 10
24.495760
 20
-100.074151
 30
0.0
 10
24.942800
 20
-100.282431
 30
0.0
 10
25.389840
 20
-100.493251
 30
0.0
 10
25.836880
 20
-100.701531
 30
0.0
 10
26.283920
 20
-100.912351
 30
0.0
 10
26.730960
 20
-101.123171
 30
0.0
 10
27.175460
 20
-101.333991
 30
0.0
 10
27.622500
 20
-101.542271
 30
0.0
 10
28.069540
 20
-101.753091
 30
0.0
 10
28.514040
 20
-101.963911
 30
0.0
 10
28.961080
 20
-102.172191
 30
0.0
 10
29.408120
 20
-102.380471
 30
0.0
 10
29.855160
 20
-102.588751
 30
0.0
 10
30.304740
 20
-102.797031
 30
0.0
 10
30.751780
 20
-103.005311
 30
0.0
 10
31.198820
 20
-103.211051
 30
0.0
 10
31.648400
 20
-103.414251
 30
0.0
 10
32.097980
 20
-103.617451
 30
0.0
 10
32.547560
 20
-103.820651
 30
0.0
 10
32.997140
 20
-104.021311
 30
0.0
 10
33.449260
 20
-104.219431
 30
0.0
 10
33.901380
 20
-104.415011
 30
0.0
 10
34.353500
 20
-104.610591
 30
0.0
 10
34.808160
 20
-104.803631
 30
0.0
 10
35.262820
 20
-104.996671
 30
0.0
 10
35.717480
 20
-105.184631
 30
0.0
 10
36.172140
 20
-105.370051
 30
0.0
 10
36.629340
 20
-105.555471
 30
0.0
  0
LWPOLYLINE
  5
14f
100
AcDbEntity
  8
0
 62
7
100
AcDbPolyline
 90
33
 70
0
 10
17.940020
 20
-95.847591
 30
0.0
 10
17.988280
 20
-96.033011
 30
0.0
 10
18.046700
 20
-96.205731
 30
0.0
 10
18.112740
 20
-96.370831
 30
0.0
 10
18.191480
 20
-96.528311
 30
0.0
 10
18.277840
 20
-96.675631
 30
0.0
 10
18.374360
 20
-96.815331
 30
0.0
 10
18.478500
 20
-96.947411
 30
0.0
 10
18.590260
 20
-97.071871
 30
0.0
 10
18.707100
 20
-97.191251
 30
0.0
 10
18.834100
 20
-97.305551
 30
0.0
 10
18.963640
 20
-97.412231
 30
0.0
 10
19.100800
 20
-97.511291
 30
0.0
 10
19.243040
 20
-97.607811
 30
0.0
 10
19.390360
 20
-97.699251
 30
0.0
 10
19.540220
 20
-97.788151
 30
0.0
 10
19.695160
 20
-97.871971
 30
0.0
 10
19.852640
 20
-97.950711
 30
0.0
 10
20.012660
 20
-98.029451
 30
0.0
 10
20.175220
 20
-98.103111
 30
0.0
 10
20.337780
 20
-98.176771
 30
0.0
 10
20.502880
 20
-98.247891
 30
0.0
 10
20.670520
 20
-98.319011
 30
0.0
 10
20.835620
 20
-98.387591
 30
0.0
 10
21.000720
 20
-98.456171
 30
0.0
 10
21.165820
 20
-98.524751
 30
0.0
 10
21.330920
 20
-98.595871
 30
0.0
 10
21.490940
 20
-98.664451
 30
0.0
 10
21.650960
 20
-98.735571
 30
0.0
 10
21.808440
 20
-98.809231
 30
0.0
 10
21.960840
 20
-98.885431
 30
0.0
 10
22.110700
 20
-98.961631
 30
0.0
 10
22.258020
 20
-99.042911
 30
0.0
  0
LWPOLYLINE
  5
150
100
AcDbEntity
  8
0
 62
7
100
AcDbPolyline
 90
33
 70
0
 10
19.547840
 20
-90.549151
 30
0.0
 10
19.486880
 20
-90.709171
 30
0.0
 10
19.420840
 20
-90.869191
 30
0.0
 10
19.354800
 20
-91.029211
 30
0.0
 10
19.283680
 20
-91.189231
 30
0.0
 10
19.210020
 20
-91.349251
 30
0.0
 10
19.136360
 20
-91.509271
 30
0.0
 10
19.057620
 20
-91.669291
 30
0.0
 10
18.981420
 20
-91.829311
 30
0.0
 10
18.902680
 20
-91.991871
 30
0.0
 10
18.823940
 20
-92.151891
 30
0.0
 10
18.745200
 20
-92.311911
 30
0.0
 10
18.669000
 20
-92.474471
 30
0.0
 10
18.592800
 20
-92.637031
 30
0.0
 10
18.519140
 20
-92.797051
 30
0.0
 10
18.445480
 20
-92.959611
 30
0.0
 10
18.374360
 20
-93.124711
 30
0.0
 10
18.308320
 20
-93.287271
 30
0.0
 10
18.244820
 20
-93.452371
 30
0.0
 10
18.183860
 20
-93.617471
 30
0.0
 10
18.127980
 20
-93.782571
 30
0.0
 10
18.074640
 20
-93.950211
 30
0.0
 10
18.028920
 20
-94.117851
 30
0.0
 10
17.988280
 20
-94.285491
 30
0.0
 10
17.952720
 20
-94.455671
 30
0.0
 10
17.924780
 20
-94.625851
 30
0.0
 10
17.901920
 20
-94.796031
 30
0.0
 10
17.889220
 20
-94.968751
 30
0.0
 10
17.881600
 20
-95.141471
 30
0.0
 10
17.881600
 20
-95.316731
 30
0.0
 10
17.891760
 20
-95.491991
 30
0.0
 10
17.912080
 20
-95.669791
 30
0.0
 10
17.940020
 20
-95.847591
 30
0.0
  0
LWPOLYLINE
  5
151
100
AcDbEntity
  8
0
 62
7
100
AcDbPolyline
 90
33
 70
0
 10
53.312060
 20
-108.006571
 30
0.0
 10
53.078380
 20
-108.509491
 30
0.0
 10
52.844700
 20
-109.009871
 30
0.0
 10
52.611020
 20
-109.510251
 30
0.0
 10
52.374800
 20
-110.013171
 30
0.0
 10
52.138580
 20
-110.513551
 30
0.0
 10
51.904900
 20
-111.013931
 30
0.0
 10
51.668680
 20
-111.514311
 30
0.0
 10
51.432460
 20
-112.014691
 30
0.0
 10
51.196240
 20
-112.515071
 30
0.0
 10
50.960020
 20
-113.015451
 30
0.0
 10
50.726340
 20
-113.515831
 30
0.0
 10
50.490120
 20
-114.018751
 30
0.0
 10
50.253900
 20
-114.519131
 30
0.0
 10
50.020220
 20
-115.019511
 30
0.0
 10
49.784000
 20
-115.519891
 30
0.0
 10
49.550320
 20
-116.022811
 30
0.0
 10
49.316640
 20
-116.523191
 30
0.0
 10
49.082960
 20
-117.026111
 30
0.0
 10
48.849280
 20
-117.526491
 30
0.0
 10
48.618140
 20
-118.029411
 30
0.0
 10
48.387000
 20
-118.532331
 30
0.0
 10
48.155860
 20
-119.035251
 30
0.0
 10
47.924720
 20
-119.538171
 30
0.0
 10
47.696120
 20
-120.041091
 30
0.0
 10
47.467520
 20
-120.546551
 30
0.0
 10
47.241460
 20
-121.049471
 30
0.0
 10
47.015400
 20
-121.554931
 30
0.0
 10
46.791880
 20
-122.060391
 30
0.0
 10
46.568360
 20
-122.565851
 30
0.0
 10
46.344840
 20
-123.071311
 30
0.0
 10
46.123860
 20
-123.579311
 30
0.0
 10
45.902880
 20
-124.087311
 30
0.0
  0
LWPOLYLINE
  5
152
100
AcDbEntity
  8
0
 62
7
100
AcDbPolyline
 90
33
 70
0
 10
41.856660
 20
-102.659871
 30
0.0
 10
42.214800
 20
-102.827511
 30
0.0
 10
42.572940
 20
-102.997691
 30
0.0
 10
42.928540
 20
-103.165331
 30
0.0
 10
43.286680
 20
-103.332971
 30
0.0
 10
43.644820
 20
-103.500611
 30
0.0
 10
44.002960
 20
-103.668251
 30
0.0
 10
44.361100
 20
-103.835891
 30
0.0
 10
44.719240
 20
-104.003531
 30
0.0
 10
45.074840
 20
-104.171171
 30
0.0
 10
45.432980
 20
-104.338811
 30
0.0
 10
45.791120
 20
-104.506451
 30
0.0
 10
46.149260
 20
-104.674091
 30
0.0
 10
46.507400
 20
-104.839191
 30
0.0
 10
46.865540
 20
-105.006831
 30
0.0
 10
47.223680
 20
-105.174471
 30
0.0
 10
47.581820
 20
-105.342111
 30
0.0
 10
47.939960
 20
-105.509751
 30
0.0
 10
48.298100
 20
-105.674851
 30
0.0
 10
48.656240
 20
-105.842491
 30
0.0
 10
49.014380
 20
-106.010131
 30
0.0
 10
49.372520
 20
-106.175231
 30
0.0
 10
49.730660
 20
-106.342871
 30
0.0
 10
50.088800
 20
-106.510511
 30
0.0
 10
50.446940
 20
-106.675611
 30
0.0
 10
50.805080
 20
-106.843251
 30
0.0
 10
51.163220
 20
-107.008351
 30
0.0
 10
51.521360
 20
-107.175991
 30
0.0
 10
51.879500
 20
-107.343631
 30
0.0
 10
52.237640
 20
-107.508731
 30
0.0
 10
52.595780
 20
-107.676371
 30
0.0
 10
52.953920
 20
-107.841471
 30
0.0
 10
53.312060
 20
-108.006571
 30
0.0
  0
LWPOLYLINE
  5
153
100
AcDbEntity
  8
0
 62
7
100
AcDbPolyline
 90
16
 70
0
 10
40.121840
 20
-103.292331
 30
0.0
 10
40.177720
 20
-103.099291
 30
0.0
 10
40.236140
 20
-102.926571
 30
0.0
 10
40.304720
 20
-102.771631
 30
0.0
 10
40.378380
 20
-102.637011
 30
0.0
 10
40.459660
 20
-102.520171
 30
0.0
 10
40.548560
 20
-102.426191
 30
0.0
 10
40.695880
 20
-102.324591
 30
0.0
 10
40.858440
 20
-102.268711
 30
0.0
 10
41.041320
 20
-102.261091
 30
0.0
 10
41.170860
 20
-102.281411
 30
0.0
 10
41.308020
 20
-102.327131
 30
0.0
 10
41.455340
 20
-102.393171
 30
0.0
 10
41.610280
 20
-102.482071
 30
0.0
 10
41.772840
 20
-102.596371
 30
0.0
 10
41.856660
 20
-102.659871
 30
0.0
  0
LWPOLYLINE
  5
154
100
AcDbEntity
  8
0
 62
7
100
AcDbPolyline
 90
33
 70
0
 10
202.598020
 20
-127.155631
 30
0.0
 10
202.719940
 20
-127.079431
 30
0.0
 10
202.836780
 20
-126.998151
 30
0.0
 10
202.948540
 20
-126.909251
 30
0.0
 10
203.052680
 20
-126.817811
 30
0.0
 10
203.151740
 20
-126.718751
 30
0.0
 10
203.245720
 20
-126.617151
 30
0.0
 10
203.334620
 20
-126.510471
 30
0.0
 10
203.415900
 20
-126.401251
 30
0.0
 10
203.492100
 20
-126.286951
 30
0.0
 10
203.560680
 20
-126.170111
 30
0.0
 10
203.624180
 20
-126.048191
 30
0.0
 10
203.680060
 20
-125.926271
 30
0.0
 10
203.733400
 20
-125.799271
 30
0.0
 10
203.776580
 20
-125.669731
 30
0.0
 10
203.817220
 20
-125.540191
 30
0.0
 10
203.850240
 20
-125.408111
 30
0.0
 10
203.875640
 20
-125.273491
 30
0.0
 10
203.895960
 20
-125.138871
 30
0.0
 10
203.911200
 20
-125.001711
 30
0.0
 10
203.918820
 20
-124.864551
 30
0.0
 10
203.921360
 20
-124.727391
 30
0.0
 10
203.916280
 20
-124.590231
 30
0.0
 10
203.906120
 20
-124.453071
 30
0.0
 10
203.888340
 20
-124.315911
 30
0.0
 10
203.865480
 20
-124.178751
 30
0.0
 10
203.835000
 20
-124.044131
 30
0.0
 10
203.799440
 20
-123.909511
 30
0.0
 10
203.756260
 20
-123.774891
 30
0.0
 10
203.705460
 20
-123.645351
 30
0.0
 10
203.652120
 20
-123.515811
 30
0.0
 10
203.588620
 20
-123.388811
 30
0.0
 10
203.520040
 20
-123.264351
 30
0.0
  0
LWPOLYLINE
  5
155
100
AcDbEntity
  8
0
 62
7
100
AcDbPolyline
 90
33
 70
0
 10
154.932380
 20
-160.150231
 30
0.0
 10
155.105100
 20
-160.124831
 30
0.0
 10
155.272740
 20
-160.089271
 30
0.0
 10
155.435300
 20
-160.048631
 30
0.0
 10
155.592780
 20
-159.995291
 30
0.0
 10
155.745180
 20
-159.936871
 30
0.0
 10
155.895040
 20
-159.870831
 30
0.0
 10
156.042360
 20
-159.794631
 30
0.0
 10
156.182060
 20
-159.715891
 30
0.0
 10
156.321760
 20
-159.626991
 30
0.0
 10
156.456380
 20
-159.535551
 30
0.0
 10
156.588460
 20
-159.436491
 30
0.0
 10
156.718000
 20
-159.334891
 30
0.0
 10
156.847540
 20
-159.228211
 30
0.0
 10
156.972000
 20
-159.116451
 30
0.0
 10
157.093920
 20
-159.002151
 30
0.0
 10
157.215840
 20
-158.882771
 30
0.0
 10
157.335220
 20
-158.763391
 30
0.0
 10
157.452060
 20
-158.641471
 30
0.0
 10
157.571440
 20
-158.517011
 30
0.0
 10
157.685740
 20
-158.390011
 30
0.0
 10
157.802580
 20
-158.265551
 30
0.0
 10
157.916880
 20
-158.138551
 30
0.0
 10
158.033720
 20
-158.011551
 30
0.0
 10
158.148020
 20
-157.884551
 30
0.0
 10
158.264860
 20
-157.760091
 30
0.0
 10
158.381700
 20
-157.635631
 30
0.0
 10
158.498540
 20
-157.513711
 30
0.0
 10
158.615380
 20
-157.394331
 30
0.0
 10
158.734760
 20
-157.277491
 30
0.0
 10
158.856680
 20
-157.165731
 30
0.0
 10
158.978600
 20
-157.053971
 30
0.0
 10
159.103060
 20
-156.949831
 30
0.0
  0
LWPOLYLINE
  5
156
100
AcDbEntity
  8
0
 62
7
100
AcDbPolyline
 90
33
 70
0
 10
170.296840
 20
-145.814471
 30
0.0
 10
170.781980
 20
-145.479191
 30
0.0
 10
171.264580
 20
-145.141371
 30
0.0
 10
171.747180
 20
-144.806091
 30
0.0
 10
172.232320
 20
-144.468271
 30
0.0
 10
172.714920
 20
-144.130451
 30
0.0
 10
173.197520
 20
-143.792631
 30
0.0
 10
173.677580
 20
-143.454811
 30
0.0
 10
174.160180
 20
-143.116991
 30
0.0
 10
174.642780
 20
-142.776631
 30
0.0
 10
175.125380
 20
-142.438811
 30
0.0
 10
175.607980
 20
-142.100991
 30
0.0
 10
176.088040
 20
-141.760631
 30
0.0
 10
176.570640
 20
-141.420271
 30
0.0
 10
177.053240
 20
-141.082451
 30
0.0
 10
177.533300
 20
-140.742091
 30
0.0
 10
178.015900
 20
-140.404271
 30
0.0
 10
178.498500
 20
-140.066451
 30
0.0
 10
178.981100
 20
-139.726091
 30
0.0
 10
179.463700
 20
-139.388271
 30
0.0
 10
179.946300
 20
-139.050451
 30
0.0
 10
180.428900
 20
-138.715171
 30
0.0
 10
180.911500
 20
-138.377351
 30
0.0
 10
181.394100
 20
-138.042071
 30
0.0
 10
181.879240
 20
-137.706791
 30
0.0
 10
182.364380
 20
-137.371511
 30
0.0
 10
182.846980
 20
-137.036231
 30
0.0
 10
183.334660
 20
-136.703491
 30
0.0
 10
183.819800
 20
-136.370751
 30
0.0
 10
184.304940
 20
-136.040551
 30
0.0
 10
184.792620
 20
-135.710351
 30
0.0
 10
185.280300
 20
-135.380151
 30
0.0
 10
185.767980
 20
-135.052491
 30
0.0
  0
LWPOLYLINE
  5
157
100
AcDbEntity
  8
0
 62
7
100
AcDbPolyline
 90
33
 70
0
 10
159.103060
 20
-156.949831
 30
0.0
 10
159.453580
 20
-156.601851
 30
0.0
 10
159.804100
 20
-156.253871
 30
0.0
 10
160.154620
 20
-155.905891
 30
0.0
 10
160.502600
 20
-155.557911
 30
0.0
 10
160.853120
 20
-155.209931
 30
0.0
 10
161.201100
 20
-154.859411
 30
0.0
 10
161.549080
 20
-154.508891
 30
0.0
 10
161.897060
 20
-154.160911
 30
0.0
 10
162.245040
 20
-153.810391
 30
0.0
 10
162.593020
 20
-153.459871
 30
0.0
 10
162.941000
 20
-153.109351
 30
0.0
 10
163.288980
 20
-152.758831
 30
0.0
 10
163.636960
 20
-152.408311
 30
0.0
 10
163.982400
 20
-152.057791
 30
0.0
 10
164.330380
 20
-151.707271
 30
0.0
 10
164.678360
 20
-151.356751
 30
0.0
 10
165.026340
 20
-151.006231
 30
0.0
 10
165.374320
 20
-150.655711
 30
0.0
 10
165.724840
 20
-150.305191
 30
0.0
 10
166.072820
 20
-149.957211
 30
0.0
 10
166.420800
 20
-149.609231
 30
0.0
 10
166.771320
 20
-149.261251
 30
0.0
 10
167.121840
 20
-148.913271
 30
0.0
 10
167.472360
 20
-148.565291
 30
0.0
 10
167.822880
 20
-148.217311
 30
0.0
 10
168.173400
 20
-147.871871
 30
0.0
 10
168.526460
 20
-147.526431
 30
0.0
 10
168.879520
 20
-147.183531
 30
0.0
 10
169.232580
 20
-146.838091
 30
0.0
 10
169.585640
 20
-146.495191
 30
0.0
 10
169.941240
 20
-146.154831
 30
0.0
 10
170.296840
 20
-145.814471
 30
0.0
  0
LWPOLYLINE
  5
158
100
AcDbEntity
  8
0
 62
7
100
AcDbPolyline
 90
33
 70
0
 10
196.512180
 20
-108.016731
 30
0.0
 10
196.903340
 20
-107.831311
 30
0.0
 10
197.294500
 20
-107.645891
 30
0.0
 10
197.685660
 20
-107.460471
 30
0.0
 10
198.076820
 20
-107.275051
 30
0.0
 10
198.470520
 20
-107.089631
 30
0.0
 10
198.861680
 20
-106.904211
 30
0.0
 10
199.255380
 20
-106.721331
 30
0.0
 10
199.649080
 20
-106.535911
 30
0.0
 10
200.042780
 20
-106.350491
 30
0.0
 10
200.436480
 20
-106.167611
 30
0.0
 10
200.830180
 20
-105.982191
 30
0.0
 10
201.223880
 20
-105.799311
 30
0.0
 10
201.617580
 20
-105.613891
 30
0.0
 10
202.011280
 20
-105.431011
 30
0.0
 10
202.404980
 20
-105.245591
 30
0.0
 10
202.798680
 20
-105.062711
 30
0.0
 10
203.192380
 20
-104.877291
 30
0.0
 10
203.588620
 20
-104.694411
 30
0.0
 10
203.982320
 20
-104.508991
 30
0.0
 10
204.376020
 20
-104.323571
 30
0.0
 10
204.769720
 20
-104.140691
 30
0.0
 10
205.163420
 20
-103.955271
 30
0.0
 10
205.557120
 20
-103.769851
 30
0.0
 10
205.950820
 20
-103.584431
 30
0.0
 10
206.344520
 20
-103.396471
 30
0.0
 10
206.738220
 20
-103.211051
 30
0.0
 10
207.131920
 20
-103.025631
 30
0.0
 10
207.525620
 20
-102.837671
 30
0.0
 10
207.919320
 20
-102.649711
 30
0.0
 10
208.310480
 20
-102.464291
 30
0.0
 10
208.704180
 20
-102.276331
 30
0.0
 10
209.095340
 20
-102.085831
 30
0.0
  0
LWPOLYLINE
  5
159
100
AcDbEntity
  8
0
 62
7
100
AcDbPolyline
 90
33
 70
0
 10
98.559620
 20
-160.178171
 30
0.0
 10
100.322380
 20
-160.175631
 30
0.0
 10
102.082600
 20
-160.175631
 30
0.0
 10
103.845360
 20
-160.175631
 30
0.0
 10
105.605580
 20
-160.173091
 30
0.0
 10
107.368340
 20
-160.173091
 30
0.0
 10
109.131100
 20
-160.173091
 30
0.0
 10
110.891320
 20
-160.175631
 30
0.0
 10
112.654080
 20
-160.175631
 30
0.0
 10
114.414300
 20
-160.175631
 30
0.0
 10
116.177060
 20
-160.175631
 30
0.0
 10
117.939820
 20
-160.178171
 30
0.0
 10
119.700040
 20
-160.178171
 30
0.0
 10
121.462800
 20
-160.178171
 30
0.0
 10
123.223020
 20
-160.180711
 30
0.0
 10
124.985780
 20
-160.180711
 30
0.0
 10
126.748540
 20
-160.180711
 30
0.0
 10
128.508760
 20
-160.183251
 30
0.0
 10
130.271520
 20
-160.183251
 30
0.0
 10
132.031740
 20
-160.183251
 30
0.0
 10
133.794500
 20
-160.183251
 30
0.0
 10
135.557260
 20
-160.183251
 30
0.0
 10
137.317480
 20
-160.180711
 30
0.0
 10
139.080240
 20
-160.180711
 30
0.0
 10
140.840460
 20
-160.178171
 30
0.0
 10
142.603220
 20
-160.178171
 30
0.0
 10
144.363440
 20
-160.175631
 30
0.0
 10
146.126200
 20
-160.173091
 30
0.0
 10
147.886420
 20
-160.168011
 30
0.0
 10
149.649180
 20
-160.165471
 30
0.0
 10
151.409400
 20
-160.160391
 30
0.0
 10
153.169620
 20
-160.155311
 30
0.0
 10
154.932380
 20
-160.150231
 30
0.0
  0
LWPOLYLINE
  5
15a
100
AcDbEntity
  8
0
 62
7
100
AcDbPolyline
 90
29
 70
0
 10
93.347540
 20
-159.487291
 30
0.0
 10
93.492320
 20
-159.560951
 30
0.0
 10
93.649800
 20
-159.632071
 30
0.0
 10
93.817440
 20
-159.695571
 30
0.0
 10
93.995240
 20
-159.753991
 30
0.0
 10
94.180660
 20
-159.809871
 30
0.0
 10
94.376240
 20
-159.858131
 30
0.0
 10
94.576900
 20
-159.903851
 30
0.0
 10
94.782640
 20
-159.944491
 30
0.0
 10
94.993460
 20
-159.980051
 30
0.0
 10
95.209360
 20
-160.013071
 30
0.0
 10
95.425260
 20
-160.043551
 30
0.0
 10
95.643700
 20
-160.068951
 30
0.0
 10
95.862140
 20
-160.091811
 30
0.0
 10
96.078040
 20
-160.112131
 30
0.0
 10
96.293940
 20
-160.129911
 30
0.0
 10
96.507300
 20
-160.142611
 30
0.0
 10
96.713040
 20
-160.155311
 30
0.0
 10
96.916240
 20
-160.165471
 30
0.0
 10
97.111820
 20
-160.173091
 30
0.0
 10
97.299780
 20
-160.178171
 30
0.0
 10
97.477580
 20
-160.180711
 30
0.0
 10
97.647760
 20
-160.183251
 30
0.0
 10
97.805240
 20
-160.185791
 30
0.0
 10
97.952560
 20
-160.185791
 30
0.0
 10
98.087180
 20
-160.185791
 30
0.0
 10
98.308160
 20
-160.183251
 30
0.0
 10
98.465640
 20
-160.180711
 30
0.0
 10
98.559620
 20
-160.178171
 30
0.0
  0
LWPOLYLINE
  5
15b
100
AcDbEntity
  8
0
 62
7
100
AcDbPolyline
 90
33
 70
0
 10
64.495680
 20
-135.311571
 30
0.0
 10
64.983360
 20
-135.649391
 30
0.0
 10
65.471040
 20
-135.989751
 30
0.0
 10
65.956180
 20
-136.330111
 30
0.0
 10
66.443860
 20
-136.667931
 30
0.0
 10
66.931540
 20
-137.008291
 30
0.0
 10
67.419220
 20
-137.348651
 30
0.0
 10
67.906900
 20
-137.686471
 30
0.0
 10
68.394580
 20
-138.026831
 30
0.0
 10
68.882260
 20
-138.367191
 30
0.0
 10
69.372480
 20
-138.707551
 30
0.0
 10
69.860160
 20
-139.047911
 30
0.0
 10
70.347840
 20
-139.388271
 30
0.0
 10
70.835520
 20
-139.728631
 30
0.0
 10
71.323200
 20
-140.071531
 30
0.0
 10
71.810880
 20
-140.411891
 30
0.0
 10
72.298560
 20
-140.752251
 30
0.0
 10
72.786240
 20
-141.095151
 30
0.0
 10
73.273920
 20
-141.435511
 30
0.0
 10
73.761600
 20
-141.778411
 30
0.0
 10
74.249280
 20
-142.121311
 30
0.0
 10
74.736960
 20
-142.464211
 30
0.0
 10
75.224640
 20
-142.807111
 30
0.0
 10
75.712320
 20
-143.150011
 30
0.0
 10
76.197460
 20
-143.492911
 30
0.0
 10
76.685140
 20
-143.835811
 30
0.0
 10
77.170280
 20
-144.181251
 30
0.0
 10
77.655420
 20
-144.524151
 30
0.0
 10
78.140560
 20
-144.869591
 30
0.0
 10
78.625700
 20
-145.212491
 30
0.0
 10
79.110840
 20
-145.557931
 30
0.0
 10
79.595980
 20
-145.903371
 30
0.0
 10
80.081120
 20
-146.248811
 30
0.0
  0
LWPOLYLINE
  5
15c
100
AcDbEntity
  8
0
 62
7
100
AcDbPolyline
 90
33
 70
0
 10
185.767980
 20
-135.052491
 30
0.0
 10
186.293760
 20
-134.806111
 30
0.0
 10
186.819540
 20
-134.559731
 30
0.0
 10
187.345320
 20
-134.313351
 30
0.0
 10
187.873640
 20
-134.066971
 30
0.0
 10
188.399420
 20
-133.823131
 30
0.0
 10
188.925200
 20
-133.576751
 30
0.0
 10
189.453520
 20
-133.332911
 30
0.0
 10
189.979300
 20
-133.086531
 30
0.0
 10
190.507620
 20
-132.842691
 30
0.0
 10
191.033400
 20
-132.598851
 30
0.0
 10
191.561720
 20
-132.352471
 30
0.0
 10
192.087500
 20
-132.108631
 30
0.0
 10
192.613280
 20
-131.864791
 30
0.0
 10
193.141600
 20
-131.620951
 30
0.0
 10
193.667380
 20
-131.374571
 30
0.0
 10
194.195700
 20
-131.130731
 30
0.0
 10
194.721480
 20
-130.884351
 30
0.0
 10
195.247260
 20
-130.640511
 30
0.0
 10
195.775580
 20
-130.394131
 30
0.0
 10
196.301360
 20
-130.147751
 30
0.0
 10
196.827140
 20
-129.901371
 30
0.0
 10
197.352920
 20
-129.654991
 30
0.0
 10
197.878700
 20
-129.406071
 30
0.0
 10
198.404480
 20
-129.159691
 30
0.0
 10
198.930260
 20
-128.910771
 30
0.0
 10
199.453500
 20
-128.661851
 30
0.0
 10
199.979280
 20
-128.412931
 30
0.0
 10
200.502520
 20
-128.164011
 30
0.0
 10
201.025760
 20
-127.912551
 30
0.0
 10
201.551540
 20
-127.661091
 30
0.0
 10
202.074780
 20
-127.409631
 30
0.0
 10
202.598020
 20
-127.155631
 30
0.0
  0
LWPOLYLINE
  5
15d
100
AcDbEntity
  8
0
 62
7
100
AcDbPolyline
 90
33
 70
0
 10
203.520040
 20
-123.264351
 30
0.0
 10
203.309220
 20
-122.784291
 30
0.0
 10
203.095860
 20
-122.306771
 30
0.0
 10
202.882500
 20
-121.826711
 30
0.0
 10
202.669140
 20
-121.346651
 30
0.0
 10
202.455780
 20
-120.869131
 30
0.0
 10
202.239880
 20
-120.391611
 30
0.0
 10
202.023980
 20
-119.911551
 30
0.0
 10
201.808080
 20
-119.434031
 30
0.0
 10
201.592180
 20
-118.956511
 30
0.0
 10
201.376280
 20
-118.478991
 30
0.0
 10
201.157840
 20
-118.001471
 30
0.0
 10
200.941940
 20
-117.523951
 30
0.0
 10
200.723500
 20
-117.046431
 30
0.0
 10
200.505060
 20
-116.571451
 30
0.0
 10
200.286620
 20
-116.093931
 30
0.0
 10
200.065640
 20
-115.616411
 30
0.0
 10
199.847200
 20
-115.141431
 30
0.0
 10
199.626220
 20
-114.663911
 30
0.0
 10
199.405240
 20
-114.188931
 30
0.0
 10
199.184260
 20
-113.713951
 30
0.0
 10
198.963280
 20
-113.238971
 30
0.0
 10
198.742300
 20
-112.761451
 30
0.0
 10
198.521320
 20
-112.286471
 30
0.0
 10
198.297800
 20
-111.811491
 30
0.0
 10
198.076820
 20
-111.336511
 30
0.0
 10
197.853300
 20
-110.861531
 30
0.0
 10
197.629780
 20
-110.386551
 30
0.0
 10
197.406260
 20
-109.914111
 30
0.0
 10
197.182740
 20
-109.439131
 30
0.0
 10
196.959220
 20
-108.964151
 30
0.0
 10
196.735700
 20
-108.489171
 30
0.0
 10
196.512180
 20
-108.016731
 30
0.0
  0
LWPOLYLINE
  5
15e
100
AcDbEntity
  8
0
 62
7
100
AcDbPolyline
 90
33
 70
0
 10
80.081120
 20
-146.248811
 30
0.0
 10
80.495140
 20
-146.662831
 30
0.0
 10
80.909160
 20
-147.076851
 30
0.0
 10
81.325720
 20
-147.490871
 30
0.0
 10
81.739740
 20
-147.904891
 30
0.0
 10
82.153760
 20
-148.318911
 30
0.0
 10
82.567780
 20
-148.732931
 30
0.0
 10
82.981800
 20
-149.146951
 30
0.0
 10
83.395820
 20
-149.560971
 30
0.0
 10
83.807300
 20
-149.977531
 30
0.0
 10
84.221320
 20
-150.391551
 30
0.0
 10
84.635340
 20
-150.808111
 30
0.0
 10
85.049360
 20
-151.222131
 30
0.0
 10
85.463380
 20
-151.636151
 30
0.0
 10
85.874860
 20
-152.052711
 30
0.0
 10
86.288880
 20
-152.466731
 30
0.0
 10
86.702900
 20
-152.883291
 30
0.0
 10
87.116920
 20
-153.297311
 30
0.0
 10
87.530940
 20
-153.711331
 30
0.0
 10
87.944960
 20
-154.125351
 30
0.0
 10
88.358980
 20
-154.541911
 30
0.0
 10
88.773000
 20
-154.955931
 30
0.0
 10
89.187020
 20
-155.369951
 30
0.0
 10
89.601040
 20
-155.781431
 30
0.0
 10
90.017600
 20
-156.195451
 30
0.0
 10
90.431620
 20
-156.609471
 30
0.0
 10
90.848180
 20
-157.020951
 30
0.0
 10
91.264740
 20
-157.432431
 30
0.0
 10
91.678760
 20
-157.843911
 30
0.0
 10
92.095320
 20
-158.255391
 30
0.0
 10
92.514420
 20
-158.666871
 30
0.0
 10
92.930980
 20
-159.078351
 30
0.0
 10
93.347540
 20
-159.487291
 30
0.0
  0
LWPOLYLINE
  5
15f
100
AcDbEntity
  8
0
 62
7
100
AcDbPolyline
 90
33
 70
0
 10
67.652900
 20
-30.805811
 30
0.0
 10
67.198240
 20
-30.597531
 30
0.0
 10
66.743580
 20
-30.386711
 30
0.0
 10
66.291460
 20
-30.175891
 30
0.0
 10
65.836800
 20
-29.965071
 30
0.0
 10
65.382140
 20
-29.754251
 30
0.0
 10
64.927480
 20
-29.543431
 30
0.0
 10
64.475360
 20
-29.330071
 30
0.0
 10
64.020700
 20
-29.119251
 30
0.0
 10
63.566040
 20
-28.905891
 30
0.0
 10
63.113920
 20
-28.692531
 30
0.0
 10
62.659260
 20
-28.479171
 30
0.0
 10
62.207140
 20
-28.268351
 30
0.0
 10
61.752480
 20
-28.054991
 30
0.0
 10
61.300360
 20
-27.841631
 30
0.0
 10
60.845700
 20
-27.630811
 30
0.0
 10
60.391040
 20
-27.417451
 30
0.0
 10
59.938920
 20
-27.206631
 30
0.0
 10
59.484260
 20
-26.995811
 30
0.0
 10
59.029600
 20
-26.782451
 30
0.0
 10
58.574940
 20
-26.574171
 30
0.0
 10
58.120280
 20
-26.363351
 30
0.0
 10
57.665620
 20
-26.155071
 30
0.0
 10
57.210960
 20
-25.946791
 30
0.0
 10
56.753760
 20
-25.738511
 30
0.0
 10
56.299100
 20
-25.532771
 30
0.0
 10
55.841900
 20
-25.324491
 30
0.0
 10
55.387240
 20
-25.121291
 30
0.0
 10
54.930040
 20
-24.918091
 30
0.0
 10
54.472840
 20
-24.714891
 30
0.0
 10
54.013100
 20
-24.511691
 30
0.0
 10
53.555900
 20
-24.313571
 30
0.0
 10
53.098700
 20
-24.112911
 30
0.0
  0
LWPOLYLINE
  5
160
100
AcDbEntity
  8
0
 62
7
100
AcDbPolyline
 90
16
 70
0
 10
68.978780
 20
-29.660271
 30
0.0
 10
68.907660
 20
-29.766951
 30
0.0
 10
68.841620
 20
-29.888871
 30
0.0
 10
68.780660
 20
-30.023491
 30
0.0
 10
68.719700
 20
-30.163191
 30
0.0
 10
68.663820
 20
-30.307971
 30
0.0
 10
68.605400
 20
-30.450211
 30
0.0
 10
68.544440
 20
-30.584831
 30
0.0
 10
68.480940
 20
-30.711831
 30
0.0
 10
68.412360
 20
-30.821051
 30
0.0
 10
68.295520
 20
-30.950591
 30
0.0
 10
68.160900
 20
-31.019171
 30
0.0
 10
67.998340
 20
-31.016631
 30
0.0
 10
67.871340
 20
-30.965831
 30
0.0
 10
67.731640
 20
-30.869311
 30
0.0
 10
67.652900
 20
-30.805811
 30
0.0
  0
LWPOLYLINE
  5
161
100
AcDbEntity
  8
0
 62
7
100
AcDbPolyline
 90
33
 70
0
 10
90.695780
 20
-36.495411
 30
0.0
 10
90.589100
 20
-36.370951
 30
0.0
 10
90.479880
 20
-36.254111
 30
0.0
 10
90.365580
 20
-36.139811
 30
0.0
 10
90.248740
 20
-36.033131
 30
0.0
 10
90.129360
 20
-35.928991
 30
0.0
 10
90.004900
 20
-35.832471
 30
0.0
 10
89.877900
 20
-35.738491
 30
0.0
 10
89.745820
 20
-35.647051
 30
0.0
 10
89.613740
 20
-35.560691
 30
0.0
 10
89.479120
 20
-35.479411
 30
0.0
 10
89.339420
 20
-35.398131
 30
0.0
 10
89.199720
 20
-35.321931
 30
0.0
 10
89.057480
 20
-35.248271
 30
0.0
 10
88.915240
 20
-35.177151
 30
0.0
 10
88.767920
 20
-35.108571
 30
0.0
 10
88.623140
 20
-35.039991
 30
0.0
 10
88.475820
 20
-34.973951
 30
0.0
 10
88.325960
 20
-34.907911
 30
0.0
 10
88.176100
 20
-34.844411
 30
0.0
 10
88.028780
 20
-34.780911
 30
0.0
 10
87.878920
 20
-34.717411
 30
0.0
 10
87.729060
 20
-34.656451
 30
0.0
 10
87.579200
 20
-34.592951
 30
0.0
 10
87.429340
 20
-34.529451
 30
0.0
 10
87.279480
 20
-34.463411
 30
0.0
 10
87.132160
 20
-34.399911
 30
0.0
 10
86.984840
 20
-34.333871
 30
0.0
 10
86.840060
 20
-34.265291
 30
0.0
 10
86.695280
 20
-34.194171
 30
0.0
 10
86.553040
 20
-34.123051
 30
0.0
 10
86.413340
 20
-34.046851
 30
0.0
 10
86.273640
 20
-33.970651
 30
0.0
  0
LWPOLYLINE
  5
162
100
AcDbEntity
  8
0
 62
7
100
AcDbPolyline
 90
33
 70
0
 10
90.002360
 20
-41.293471
 30
0.0
 10
90.065860
 20
-41.153771
 30
0.0
 10
90.131900
 20
-41.014071
 30
0.0
 10
90.197940
 20
-40.871831
 30
0.0
 10
90.266520
 20
-40.729591
 30
0.0
 10
90.335100
 20
-40.584811
 30
0.0
 10
90.406220
 20
-40.437491
 30
0.0
 10
90.474800
 20
-40.290171
 30
0.0
 10
90.543380
 20
-40.140311
 30
0.0
 10
90.611960
 20
-39.992991
 30
0.0
 10
90.678000
 20
-39.840591
 30
0.0
 10
90.741500
 20
-39.690731
 30
0.0
 10
90.802460
 20
-39.538331
 30
0.0
 10
90.858340
 20
-39.385931
 30
0.0
 10
90.914220
 20
-39.230991
 30
0.0
 10
90.962480
 20
-39.078591
 30
0.0
 10
91.008200
 20
-38.923651
 30
0.0
 10
91.048840
 20
-38.768711
 30
0.0
 10
91.081860
 20
-38.616311
 30
0.0
 10
91.112340
 20
-38.461371
 30
0.0
 10
91.132660
 20
-38.306431
 30
0.0
 10
91.147900
 20
-38.151491
 30
0.0
 10
91.155520
 20
-37.999091
 30
0.0
 10
91.152980
 20
-37.844151
 30
0.0
 10
91.142820
 20
-37.691751
 30
0.0
 10
91.125040
 20
-37.539351
 30
0.0
 10
91.094560
 20
-37.386951
 30
0.0
 10
91.056460
 20
-37.237091
 30
0.0
 10
91.008200
 20
-37.087231
 30
0.0
 10
90.947240
 20
-36.937371
 30
0.0
 10
90.876120
 20
-36.790051
 30
0.0
 10
90.792300
 20
-36.642731
 30
0.0
 10
90.695780
 20
-36.495411
 30
0.0
  0
LWPOLYLINE
  5
163
100
AcDbEntity
  8
0
 62
7
100
AcDbPolyline
 90
33
 70
0
 10
120.497600
 20
-58.217491
 30
0.0
 10
120.050560
 20
-58.006671
 30
0.0
 10
119.600980
 20
-57.798391
 30
0.0
 10
119.153940
 20
-57.590111
 30
0.0
 10
118.704360
 20
-57.379291
 30
0.0
 10
118.257320
 20
-57.171011
 30
0.0
 10
117.807740
 20
-56.962731
 30
0.0
 10
117.360700
 20
-56.751911
 30
0.0
 10
116.913660
 20
-56.543631
 30
0.0
 10
116.464080
 20
-56.332811
 30
0.0
 10
116.017040
 20
-56.124531
 30
0.0
 10
115.567460
 20
-55.913711
 30
0.0
 10
115.120420
 20
-55.705431
 30
0.0
 10
114.670840
 20
-55.494611
 30
0.0
 10
114.223800
 20
-55.286331
 30
0.0
 10
113.774220
 20
-55.075511
 30
0.0
 10
113.327180
 20
-54.867231
 30
0.0
 10
112.877600
 20
-54.658951
 30
0.0
 10
112.430560
 20
-54.448131
 30
0.0
 10
111.980980
 20
-54.239851
 30
0.0
 10
111.533940
 20
-54.031571
 30
0.0
 10
111.084360
 20
-53.823291
 30
0.0
 10
110.637320
 20
-53.615011
 30
0.0
 10
110.187740
 20
-53.406731
 30
0.0
 10
109.738160
 20
-53.198451
 30
0.0
 10
109.291120
 20
-52.990171
 30
0.0
 10
108.841540
 20
-52.781891
 30
0.0
 10
108.391960
 20
-52.576151
 30
0.0
 10
107.942380
 20
-52.367871
 30
0.0
 10
107.492800
 20
-52.162131
 30
0.0
 10
107.043220
 20
-51.953851
 30
0.0
 10
106.593640
 20
-51.748111
 30
0.0
 10
106.144060
 20
-51.542371
 30
0.0
  0
LWPOLYLINE
  5
164
100
AcDbEntity
  8
0
 62
7
100
AcDbPolyline
 90
33
 70
0
 10
72.626220
 20
-27.696851
 30
0.0
 10
72.481440
 20
-27.648591
 30
0.0
 10
72.336660
 20
-27.613031
 30
0.0
 10
72.191880
 20
-27.582551
 30
0.0
 10
72.047100
 20
-27.562231
 30
0.0
 10
71.902320
 20
-27.552071
 30
0.0
 10
71.760080
 20
-27.546991
 30
0.0
 10
71.617840
 20
-27.552071
 30
0.0
 10
71.475600
 20
-27.564771
 30
0.0
 10
71.335900
 20
-27.585091
 30
0.0
 10
71.198740
 20
-27.613031
 30
0.0
 10
71.061580
 20
-27.646051
 30
0.0
 10
70.926960
 20
-27.686691
 30
0.0
 10
70.794880
 20
-27.734951
 30
0.0
 10
70.665340
 20
-27.790831
 30
0.0
 10
70.538340
 20
-27.851791
 30
0.0
 10
70.413880
 20
-27.920371
 30
0.0
 10
70.291960
 20
-27.991491
 30
0.0
 10
70.172580
 20
-28.070231
 30
0.0
 10
70.058280
 20
-28.156591
 30
0.0
 10
69.949060
 20
-28.245491
 30
0.0
 10
69.839840
 20
-28.339471
 30
0.0
 10
69.738240
 20
-28.441071
 30
0.0
 10
69.639180
 20
-28.545211
 30
0.0
 10
69.545200
 20
-28.654431
 30
0.0
 10
69.456300
 20
-28.766191
 30
0.0
 10
69.369940
 20
-28.883031
 30
0.0
 10
69.291200
 20
-29.004951
 30
0.0
 10
69.217540
 20
-29.129411
 30
0.0
 10
69.148960
 20
-29.258951
 30
0.0
 10
69.085460
 20
-29.388491
 30
0.0
 10
69.029580
 20
-29.523111
 30
0.0
 10
68.978780
 20
-29.660271
 30
0.0
  0
SPLINE
  5
165
100
AcDbEntity
  8
0
 62
7
100
AcDbSpline
 70
8
 71
3
 72
8
 73
4
 74
0
 40
0
 40
0
 40
0
 40
0
 40
1
 40
1
 40
1
 40
1
 10
51.270916
 20
-24.099297
 30
0.0
 10
51.245788
 20
-24.099297
 30
0.0
 10
51.223134
 20
-24.114434
 30
0.0
 10
51.213517
 20
-24.137650
 30
0.0
  0
SPLINE
  5
166
100
AcDbEntity
  8
0
 62
7
100
AcDbSpline
 70
8
 71
3
 72
8
 73
4
 74
0
 40
0
 40
0
 40
0
 40
0
 40
1
 40
1
 40
1
 40
1
 10
51.213517
 20
-24.137650
 30
0.0
 10
51.203901
 20
-24.160865
 30
0.0
 10
51.209216
 20
-24.187587
 30
0.0
 10
51.226985
 20
-24.205356
 30
0.0
  0
SPLINE
  5
167
100
AcDbEntity
  8
0
 62
7
100
AcDbSpline
 70
8
 71
3
 72
8
 73
4
 74
0
 40
0
 40
0
 40
0
 40
0
 40
1
 40
1
 40
1
 40
1
 10
51.226985
 20
-24.205356
 30
0.0
 10
51.244753
 20
-24.223124
 30
0.0
 10
51.271476
 20
-24.228440
 30
0.0
 10
51.294691
 20
-24.218824
 30
0.0
  0
SPLINE
  5
168
100
AcDbEntity
  8
0
 62
7
100
AcDbSpline
 70
8
 71
3
 72
8
 73
4
 74
0
 40
0
 40
0
 40
0
 40
0
 40
1
 40
1
 40
1
 40
1
 10
51.294691
 20
-24.218824
 30
0.0
 10
51.317907
 20
-24.209207
 30
0.0
 10
51.333044
 20
-24.186553
 30
0.0
 10
51.333044
 20
-24.161425
 30
0.0
  0
SPLINE
  5
169
100
AcDbEntity
  8
0
 62
7
100
AcDbSpline
 70
8
 71
3
 72
8
 73
4
 74
0
 40
0
 40
0
 40
0
 40
0
 40
1
 40
1
 40
1
 40
1
 10
51.333044
 20
-24.161425
 30
0.0
 10
51.333044
 20
-24.144948
 30
0.0
 10
51.326498
 20
-24.129145
 30
0.0
 10
51.314847
 20
-24.117494
 30
0.0
  0
SPLINE
  5
16a
100
AcDbEntity
  8
0
 62
7
100
AcDbSpline
 70
8
 71
3
 72
8
 73
4
 74
0
 40
0
 40
0
 40
0
 40
0
 40
1
 40
1
 40
1
 40
1
 10
51.314847
 20
-24.117494
 30
0.0
 10
51.303196
 20
-24.105843
 30
0.0
 10
51.287393
 20
-24.099297
 30
0.0
 10
51.270916
 20
-24.099297
 30
0.0
  0
LWPOLYLINE
  5
16b
100
AcDbEntity
  8
0
 62
7
100
AcDbPolyline
 90
33
 70
0
 10
106.144060
 20
-51.542371
 30
0.0
 10
106.187240
 20
-51.395051
 30
0.0
 10
106.217720
 20
-51.247731
 30
0.0
 10
106.240580
 20
-51.100411
 30
0.0
 10
106.255820
 20
-50.955631
 30
0.0
 10
106.260900
 20
-50.810851
 30
0.0
 10
106.258360
 20
-50.666071
 30
0.0
 10
106.245660
 20
-50.523831
 30
0.0
 10
106.227880
 20
-50.384131
 30
0.0
 10
106.199940
 20
-50.246971
 30
0.0
 10
106.164380
 20
-50.109811
 30
0.0
 10
106.123740
 20
-49.975191
 30
0.0
 10
106.075480
 20
-49.843111
 30
0.0
 10
106.019600
 20
-49.711031
 30
0.0
 10
105.958640
 20
-49.584031
 30
0.0
 10
105.892600
 20
-49.459571
 30
0.0
 10
105.818940
 20
-49.337651
 30
0.0
 10
105.740200
 20
-49.218271
 30
0.0
 10
105.656380
 20
-49.101431
 30
0.0
 10
105.567480
 20
-48.987131
 30
0.0
 10
105.473500
 20
-48.877911
 30
0.0
 10
105.374440
 20
-48.771231
 30
0.0
 10
105.270300
 20
-48.669631
 30
0.0
 10
105.163620
 20
-48.570571
 30
0.0
 10
105.051860
 20
-48.476591
 30
0.0
 10
104.937560
 20
-48.385151
 30
0.0
 10
104.820720
 20
-48.298791
 30
0.0
 10
104.698800
 20
-48.217511
 30
0.0
 10
104.576880
 20
-48.141311
 30
0.0
 10
104.449880
 20
-48.067651
 30
0.0
 10
104.322880
 20
-48.001611
 30
0.0
 10
104.190800
 20
-47.938111
 30
0.0
 10
104.058720
 20
-47.882231
 30
0.0
  0
LWPOLYLINE
  5
16c
100
AcDbEntity
  8
0
 62
7
100
AcDbPolyline
 90
1
 70
1
 10
51.270916
 20
-24.099297
 30
0.0
  0
LWPOLYLINE
  5
16d
100
AcDbEntity
  8
0
 62
7
100
AcDbPolyline
 90
33
 70
0
 10
86.273640
 20
-33.970651
 30
0.0
 10
85.849460
 20
-33.772531
 30
0.0
 10
85.422740
 20
-33.574411
 30
0.0
 10
84.996020
 20
-33.378831
 30
0.0
 10
84.571840
 20
-33.180711
 30
0.0
 10
84.145120
 20
-32.982591
 30
0.0
 10
83.720940
 20
-32.784471
 30
0.0
 10
83.294220
 20
-32.586351
 30
0.0
 10
82.867500
 20
-32.388231
 30
0.0
 10
82.443320
 20
-32.190111
 30
0.0
 10
82.016600
 20
-31.991991
 30
0.0
 10
81.592420
 20
-31.793871
 30
0.0
 10
81.165700
 20
-31.595751
 30
0.0
 10
80.741520
 20
-31.397631
 30
0.0
 10
80.314800
 20
-31.199511
 30
0.0
 10
79.888080
 20
-31.001391
 30
0.0
 10
79.463900
 20
-30.805811
 30
0.0
 10
79.037180
 20
-30.607691
 30
0.0
 10
78.610460
 20
-30.412111
 30
0.0
 10
78.183740
 20
-30.213991
 30
0.0
 10
77.757020
 20
-30.018411
 30
0.0
 10
77.330300
 20
-29.822831
 30
0.0
 10
76.903580
 20
-29.627251
 30
0.0
 10
76.476860
 20
-29.431671
 30
0.0
 10
76.050140
 20
-29.236091
 30
0.0
 10
75.623420
 20
-29.043051
 30
0.0
 10
75.196700
 20
-28.847471
 30
0.0
 10
74.767440
 20
-28.654431
 30
0.0
 10
74.340720
 20
-28.461391
 30
0.0
 10
73.911460
 20
-28.268351
 30
0.0
 10
73.484740
 20
-28.077851
 30
0.0
 10
73.055480
 20
-27.887351
 30
0.0
 10
72.626220
 20
-27.696851
 30
0.0
  0
LWPOLYLINE
  5
16e
100
AcDbEntity
  8
0
 62
7
100
AcDbPolyline
 90
12
 70
0
 10
53.098700
 20
-24.112911
 30
0.0
 10
52.923440
 20
-24.064651
 30
0.0
 10
52.750720
 20
-24.029091
 30
0.0
 10
52.580540
 20
-24.006231
 30
0.0
 10
52.407820
 20
-23.993531
 30
0.0
 10
52.240180
 20
-23.993531
 30
0.0
 10
52.070000
 20
-24.006231
 30
0.0
 10
51.899820
 20
-24.024011
 30
0.0
 10
51.729640
 20
-24.051951
 30
0.0
 10
51.556920
 20
-24.087511
 30
0.0
 10
51.384200
 20
-24.128151
 30
0.0
 10
51.269900
 20
-24.161171
 30
0.0
  0
LWPOLYLINE
  5
16f
100
AcDbEntity
  8
0
 62
7
100
AcDbPolyline
 90
65
 70
0
 10
245.277640
 20
-83.559071
 30
0.0
 10
245.412260
 20
-83.475251
 30
0.0
 10
245.539260
 20
-83.383811
 30
0.0
 10
245.656100
 20
-83.287291
 30
0.0
 10
245.765320
 20
-83.185691
 30
0.0
 10
245.869460
 20
-83.079011
 30
0.0
 10
245.963440
 20
-82.964711
 30
0.0
 10
246.047260
 20
-82.847871
 30
0.0
 10
246.126000
 20
-82.725951
 30
0.0
 10
246.197120
 20
-82.601491
 30
0.0
 10
246.260620
 20
-82.471951
 30
0.0
 10
246.316500
 20
-82.339871
 30
0.0
 10
246.364760
 20
-82.205251
 30
0.0
 10
246.405400
 20
-82.065551
 30
0.0
 10
246.438420
 20
-81.925851
 30
0.0
 10
246.466360
 20
-81.783611
 30
0.0
 10
246.486680
 20
-81.638831
 30
0.0
 10
246.499380
 20
-81.494051
 30
0.0
 10
246.504460
 20
-81.346731
 30
0.0
 10
246.504460
 20
-81.199411
 30
0.0
 10
246.496840
 20
-81.052091
 30
0.0
 10
246.484140
 20
-80.904771
 30
0.0
 10
246.463820
 20
-80.754911
 30
0.0
 10
246.438420
 20
-80.610131
 30
0.0
 10
246.405400
 20
-80.462811
 30
0.0
 10
246.367300
 20
-80.318031
 30
0.0
 10
246.321580
 20
-80.175791
 30
0.0
 10
246.273320
 20
-80.036091
 30
0.0
 10
246.217440
 20
-79.896391
 30
0.0
 10
246.153940
 20
-79.759231
 30
0.0
 10
246.087900
 20
-79.627151
 30
0.0
 10
246.014240
 20
-79.497611
 30
0.0
 10
245.938040
 20
-79.370611
 30
0.0
 10
245.206520
 20
-77.788191
 30
0.0
 10
244.475000
 20
-76.205771
 30
0.0
 10
243.740940
 20
-74.623351
 30
0.0
 10
243.009420
 20
-73.040931
 30
0.0
 10
242.277900
 20
-71.461051
 30
0.0
 10
241.546380
 20
-69.878631
 30
0.0
 10
240.812320
 20
-68.296211
 30
0.0
 10
240.078260
 20
-66.713791
 30
0.0
 10
239.346740
 20
-65.133911
 30
0.0
 10
238.612680
 20
-63.551491
 30
0.0
 10
237.878620
 20
-61.971611
 30
0.0
 10
237.144560
 20
-60.389191
 30
0.0
 10
236.407960
 20
-58.809311
 30
0.0
 10
235.673900
 20
-57.229431
 30
0.0
 10
234.937300
 20
-55.649551
 30
0.0
 10
234.203240
 20
-54.069671
 30
0.0
 10
233.466640
 20
-52.487251
 30
0.0
 10
232.730040
 20
-50.909911
 30
0.0
 10
231.990900
 20
-49.330031
 30
0.0
 10
231.254300
 20
-47.750151
 30
0.0
 10
230.515160
 20
-46.170271
 30
0.0
 10
229.778560
 20
-44.590391
 30
0.0
 10
229.039420
 20
-43.013051
 30
0.0
 10
228.297740
 20
-41.433171
 30
0.0
 10
227.558600
 20
-39.855831
 30
0.0
 10
226.816920
 20
-38.278491
 30
0.0
 10
226.077780
 20
-36.701151
 30
0.0
 10
225.336100
 20
-35.123811
 30
0.0
 10
224.591880
 20
-33.546471
 30
0.0
 10
223.850200
 20
-31.969131
 30
0.0
 10
223.105980
 20
-30.391791
 30
0.0
 10
222.361760
 20
-28.814451
 30
0.0
  0
LWPOLYLINE
  5
170
100
AcDbEntity
  8
0
 62
7
100
AcDbPolyline
 90
33
 70
0
 10
230.268780
 20
-90.572011
 30
0.0
 10
230.738680
 20
-90.353571
 30
0.0
 10
231.208580
 20
-90.135131
 30
0.0
 10
231.678480
 20
-89.916691
 30
0.0
 10
232.148380
 20
-89.700791
 30
0.0
 10
232.618280
 20
-89.482351
 30
0.0
 10
233.088180
 20
-89.266451
 30
0.0
 10
233.558080
 20
-89.050551
 30
0.0
 10
234.030520
 20
-88.834651
 30
0.0
 10
234.500420
 20
-88.618751
 30
0.0
 10
234.970320
 20
-88.402851
 30
0.0
 10
235.442760
 20
-88.186951
 30
0.0
 10
235.912660
 20
-87.973591
 30
0.0
 10
236.385100
 20
-87.757691
 30
0.0
 10
236.855000
 20
-87.541791
 30
0.0
 10
237.324900
 20
-87.325891
 30
0.0
 10
237.797340
 20
-87.109991
 30
0.0
 10
238.267240
 20
-86.891551
 30
0.0
 10
238.737140
 20
-86.675651
 30
0.0
 10
239.207040
 20
-86.457211
 30
0.0
 10
239.676940
 20
-86.241311
 30
0.0
 10
240.146840
 20
-86.020331
 30
0.0
 10
240.614200
 20
-85.801891
 30
0.0
 10
241.084100
 20
-85.583451
 30
0.0
 10
241.551460
 20
-85.362471
 30
0.0
 10
242.018820
 20
-85.138951
 30
0.0
 10
242.486180
 20
-84.917971
 30
0.0
 10
242.953540
 20
-84.694451
 30
0.0
 10
243.418360
 20
-84.468391
 30
0.0
 10
243.885720
 20
-84.244871
 30
0.0
 10
244.350540
 20
-84.016271
 30
0.0
 10
244.812820
 20
-83.790211
 30
0.0
 10
245.277640
 20
-83.559071
 30
0.0
  0
LWPOLYLINE
  5
171
100
AcDbEntity
  8
0
 62
7
100
AcDbPolyline
 90
33
 70
0
 10
212.328760
 20
-105.687551
 30
0.0
 10
212.483700
 20
-105.685011
 30
0.0
 10
212.636100
 20
-105.672311
 30
0.0
 10
212.788500
 20
-105.657071
 30
0.0
 10
212.940900
 20
-105.634211
 30
0.0
 10
213.090760
 20
-105.606271
 30
0.0
 10
213.240620
 20
-105.573251
 30
0.0
 10
213.387940
 20
-105.535151
 30
0.0
 10
213.535260
 20
-105.491971
 30
0.0
 10
213.680040
 20
-105.446251
 30
0.0
 10
213.824820
 20
-105.395451
 30
0.0
 10
213.969600
 20
-105.342111
 30
0.0
 10
214.111840
 20
-105.286231
 30
0.0
 10
214.256620
 20
-105.225271
 30
0.0
 10
214.398860
 20
-105.164311
 30
0.0
 10
214.538560
 20
-105.100811
 30
0.0
 10
214.680800
 20
-105.032231
 30
0.0
 10
214.820500
 20
-104.966191
 30
0.0
 10
214.962740
 20
-104.895071
 30
0.0
 10
215.102440
 20
-104.826491
 30
0.0
 10
215.242140
 20
-104.755371
 30
0.0
 10
215.381840
 20
-104.684251
 30
0.0
 10
215.521540
 20
-104.613131
 30
0.0
 10
215.661240
 20
-104.542011
 30
0.0
 10
215.800940
 20
-104.470891
 30
0.0
 10
215.943180
 20
-104.402311
 30
0.0
 10
216.082880
 20
-104.333731
 30
0.0
 10
216.222580
 20
-104.267691
 30
0.0
 10
216.364820
 20
-104.201651
 30
0.0
 10
216.504520
 20
-104.140691
 30
0.0
 10
216.646760
 20
-104.079731
 30
0.0
 10
216.789000
 20
-104.023851
 30
0.0
 10
216.933780
 20
-103.967971
 30
0.0
  0
LWPOLYLINE
  5
172
100
AcDbEntity
  8
0
 62
7
100
AcDbPolyline
 90
33
 70
0
 10
230.715820
 20
-97.523991
 30
0.0
 10
230.845360
 20
-97.445251
 30
0.0
 10
230.969820
 20
-97.358891
 30
0.0
 10
231.086660
 20
-97.269991
 30
0.0
 10
231.195880
 20
-97.173471
 30
0.0
 10
231.300020
 20
-97.071871
 30
0.0
 10
231.396540
 20
-96.965191
 30
0.0
 10
231.485440
 20
-96.853431
 30
0.0
 10
231.569260
 20
-96.739131
 30
0.0
 10
231.645460
 20
-96.619751
 30
0.0
 10
231.714040
 20
-96.497831
 30
0.0
 10
231.777540
 20
-96.370831
 30
0.0
 10
231.835960
 20
-96.241291
 30
0.0
 10
231.884220
 20
-96.109211
 30
0.0
 10
231.927400
 20
-95.974591
 30
0.0
 10
231.965500
 20
-95.837431
 30
0.0
 10
231.995980
 20
-95.700271
 30
0.0
 10
232.018840
 20
-95.560571
 30
0.0
 10
232.036620
 20
-95.418331
 30
0.0
 10
232.046780
 20
-95.276091
 30
0.0
 10
232.051860
 20
-95.133851
 30
0.0
 10
232.049320
 20
-94.989071
 30
0.0
 10
232.041700
 20
-94.846831
 30
0.0
 10
232.026460
 20
-94.702051
 30
0.0
 10
232.006140
 20
-94.559811
 30
0.0
 10
231.978200
 20
-94.420111
 30
0.0
 10
231.942640
 20
-94.277871
 30
0.0
 10
231.902000
 20
-94.138171
 30
0.0
 10
231.856280
 20
-94.001011
 30
0.0
 10
231.802940
 20
-93.866391
 30
0.0
 10
231.741980
 20
-93.734311
 30
0.0
 10
231.675940
 20
-93.602231
 30
0.0
 10
231.602280
 20
-93.475231
 30
0.0
  0
LWPOLYLINE
  5
173
100
AcDbEntity
  8
0
 62
7
100
AcDbPolyline
 90
33
 70
0
 10
209.095340
 20
-102.085831
 30
0.0
 10
209.161380
 20
-102.222991
 30
0.0
 10
209.227420
 20
-102.365231
 30
0.0
 10
209.290920
 20
-102.507471
 30
0.0
 10
209.356960
 20
-102.654791
 30
0.0
 10
209.423000
 20
-102.802111
 30
0.0
 10
209.489040
 20
-102.951971
 30
0.0
 10
209.555080
 20
-103.101831
 30
0.0
 10
209.623660
 20
-103.251691
 30
0.0
 10
209.694780
 20
-103.401551
 30
0.0
 10
209.765900
 20
-103.551411
 30
0.0
 10
209.839560
 20
-103.698731
 30
0.0
 10
209.915760
 20
-103.846051
 30
0.0
 10
209.994500
 20
-103.990831
 30
0.0
 10
210.075780
 20
-104.133071
 30
0.0
 10
210.159600
 20
-104.272771
 30
0.0
 10
210.248500
 20
-104.407391
 30
0.0
 10
210.339940
 20
-104.539471
 30
0.0
 10
210.436460
 20
-104.666471
 30
0.0
 10
210.535520
 20
-104.788391
 30
0.0
 10
210.639660
 20
-104.902691
 30
0.0
 10
210.748880
 20
-105.014451
 30
0.0
 10
210.860640
 20
-105.118591
 30
0.0
 10
210.980020
 20
-105.215111
 30
0.0
 10
211.104480
 20
-105.304011
 30
0.0
 10
211.234020
 20
-105.385291
 30
0.0
 10
211.371180
 20
-105.456411
 30
0.0
 10
211.513420
 20
-105.522451
 30
0.0
 10
211.660740
 20
-105.575791
 30
0.0
 10
211.818220
 20
-105.618971
 30
0.0
 10
211.980780
 20
-105.654531
 30
0.0
 10
212.150960
 20
-105.677391
 30
0.0
 10
212.328760
 20
-105.687551
 30
0.0
  0
LWPOLYLINE
  5
174
100
AcDbEntity
  8
0
 62
7
100
AcDbPolyline
 90
33
 70
0
 10
204.063600
 20
-34.379591
 30
0.0
 10
203.918820
 20
-34.087491
 30
0.0
 10
203.779120
 20
-33.795391
 30
0.0
 10
203.636880
 20
-33.500751
 30
0.0
 10
203.499720
 20
-33.206111
 30
0.0
 10
203.360020
 20
-32.911471
 30
0.0
 10
203.222860
 20
-32.616831
 30
0.0
 10
203.085700
 20
-32.319651
 30
0.0
 10
202.951080
 20
-32.025011
 30
0.0
 10
202.813920
 20
-31.727831
 30
0.0
 10
202.679300
 20
-31.430651
 30
0.0
 10
202.544680
 20
-31.136011
 30
0.0
 10
202.407520
 20
-30.838831
 30
0.0
 10
202.272900
 20
-30.541651
 30
0.0
 10
202.135740
 20
-30.247011
 30
0.0
 10
202.001120
 20
-29.949831
 30
0.0
 10
201.861420
 20
-29.655191
 30
0.0
 10
201.724260
 20
-29.358011
 30
0.0
 10
201.584560
 20
-29.063371
 30
0.0
 10
201.444860
 20
-28.771271
 30
0.0
 10
201.302620
 20
-28.476631
 30
0.0
 10
201.160380
 20
-28.184531
 30
0.0
 10
201.015600
 20
-27.892431
 30
0.0
 10
200.868280
 20
-27.602871
 30
0.0
 10
200.720960
 20
-27.313311
 30
0.0
 10
200.571100
 20
-27.023751
 30
0.0
 10
200.416160
 20
-26.736731
 30
0.0
 10
200.261220
 20
-26.452251
 30
0.0
 10
200.103740
 20
-26.167771
 30
0.0
 10
199.943720
 20
-25.883291
 30
0.0
 10
199.781160
 20
-25.603891
 30
0.0
 10
199.616060
 20
-25.324491
 30
0.0
 10
199.445880
 20
-25.045091
 30
0.0
  0
LWPOLYLINE
  5
175
100
AcDbEntity
  8
0
 62
7
100
AcDbPolyline
 90
33
 70
0
 10
222.361760
 20
-28.814451
 30
0.0
 10
222.288100
 20
-28.679831
 30
0.0
 10
222.209360
 20
-28.550291
 30
0.0
 10
222.123000
 20
-28.428371
 30
0.0
 10
222.031560
 20
-28.311531
 30
0.0
 10
221.932500
 20
-28.202311
 30
0.0
 10
221.828360
 20
-28.100711
 30
0.0
 10
221.719140
 20
-28.004191
 30
0.0
 10
221.604840
 20
-27.912751
 30
0.0
 10
221.488000
 20
-27.828931
 30
0.0
 10
221.366080
 20
-27.752731
 30
0.0
 10
221.239080
 20
-27.681611
 30
0.0
 10
221.109540
 20
-27.618111
 30
0.0
 10
220.977460
 20
-27.562231
 30
0.0
 10
220.840300
 20
-27.511431
 30
0.0
 10
220.703140
 20
-27.468251
 30
0.0
 10
220.563440
 20
-27.432691
 30
0.0
 10
220.421200
 20
-27.402211
 30
0.0
 10
220.276420
 20
-27.381891
 30
0.0
 10
220.131640
 20
-27.364111
 30
0.0
 10
219.986860
 20
-27.356491
 30
0.0
 10
219.839540
 20
-27.353951
 30
0.0
 10
219.694760
 20
-27.359031
 30
0.0
 10
219.547440
 20
-27.371731
 30
0.0
 10
219.402660
 20
-27.389511
 30
0.0
 10
219.257880
 20
-27.417451
 30
0.0
 10
219.115640
 20
-27.450471
 30
0.0
 10
218.973400
 20
-27.491111
 30
0.0
 10
218.833700
 20
-27.539371
 30
0.0
 10
218.694000
 20
-27.592711
 30
0.0
 10
218.559380
 20
-27.656211
 30
0.0
 10
218.427300
 20
-27.724791
 30
0.0
 10
218.297760
 20
-27.803531
 30
0.0
  0
LWPOLYLINE
  5
176
100
AcDbEntity
  8
0
 62
7
100
AcDbPolyline
 90
17
 70
0
 10
231.602280
 20
-93.475231
 30
0.0
 10
231.523540
 20
-93.292351
 30
0.0
 10
231.442260
 20
-93.109471
 30
0.0
 10
231.360980
 20
-92.926591
 30
0.0
 10
231.279700
 20
-92.746251
 30
0.0
 10
231.195880
 20
-92.563371
 30
0.0
 10
231.114600
 20
-92.383031
 30
0.0
 10
231.030780
 20
-92.200151
 30
0.0
 10
230.946960
 20
-92.019811
 30
0.0
 10
230.860600
 20
-91.836931
 30
0.0
 10
230.776780
 20
-91.656591
 30
0.0
 10
230.692960
 20
-91.476251
 30
0.0
 10
230.606600
 20
-91.295911
 30
0.0
 10
230.522780
 20
-91.115571
 30
0.0
 10
230.438960
 20
-90.932691
 30
0.0
 10
230.352600
 20
-90.752351
 30
0.0
 10
230.268780
 20
-90.572011
 30
0.0
  0
LWPOLYLINE
  5
177
100
AcDbEntity
  8
0
 62
7
100
AcDbPolyline
 90
33
 70
0
 10
216.933780
 20
-103.967971
 30
0.0
 10
217.363040
 20
-103.769851
 30
0.0
 10
217.794840
 20
-103.569191
 30
0.0
 10
218.226640
 20
-103.368531
 30
0.0
 10
218.658440
 20
-103.167871
 30
0.0
 10
219.090240
 20
-102.969751
 30
0.0
 10
219.522040
 20
-102.769091
 30
0.0
 10
219.953840
 20
-102.568431
 30
0.0
 10
220.383100
 20
-102.370311
 30
0.0
 10
220.814900
 20
-102.169651
 30
0.0
 10
221.246700
 20
-101.971531
 30
0.0
 10
221.678500
 20
-101.770871
 30
0.0
 10
222.110300
 20
-101.570211
 30
0.0
 10
222.542100
 20
-101.372091
 30
0.0
 10
222.973900
 20
-101.171431
 30
0.0
 10
223.405700
 20
-100.970771
 30
0.0
 10
223.834960
 20
-100.770111
 30
0.0
 10
224.266760
 20
-100.569451
 30
0.0
 10
224.698560
 20
-100.368791
 30
0.0
 10
225.127820
 20
-100.168131
 30
0.0
 10
225.559620
 20
-99.967471
 30
0.0
 10
225.991420
 20
-99.766811
 30
0.0
 10
226.420680
 20
-99.563611
 30
0.0
 10
226.852480
 20
-99.362951
 30
0.0
 10
227.281740
 20
-99.159751
 30
0.0
 10
227.711000
 20
-98.956551
 30
0.0
 10
228.140260
 20
-98.753351
 30
0.0
 10
228.572060
 20
-98.550151
 30
0.0
 10
229.001320
 20
-98.344411
 30
0.0
 10
229.430580
 20
-98.141211
 30
0.0
 10
229.857300
 20
-97.935471
 30
0.0
 10
230.286560
 20
-97.729731
 30
0.0
 10
230.715820
 20
-97.523991
 30
0.0
  0
LWPOLYLINE
  5
178
100
AcDbEntity
  8
0
 62
7
100
AcDbPolyline
 90
33
 70
0
 10
218.297760
 20
-27.803531
 30
0.0
 10
217.850720
 20
-28.004191
 30
0.0
 10
217.406220
 20
-28.207391
 30
0.0
 10
216.959180
 20
-28.408051
 30
0.0
 10
216.512140
 20
-28.611251
 30
0.0
 10
216.067640
 20
-28.814451
 30
0.0
 10
215.620600
 20
-29.017651
 30
0.0
 10
215.176100
 20
-29.220851
 30
0.0
 10
214.729060
 20
-29.426591
 30
0.0
 10
214.284560
 20
-29.629791
 30
0.0
 10
213.840060
 20
-29.832991
 30
0.0
 10
213.393020
 20
-30.038731
 30
0.0
 10
212.948520
 20
-30.244471
 30
0.0
 10
212.504020
 20
-30.447671
 30
0.0
 10
212.059520
 20
-30.653411
 30
0.0
 10
211.612480
 20
-30.859151
 30
0.0
 10
211.167980
 20
-31.064891
 30
0.0
 10
210.723480
 20
-31.270631
 30
0.0
 10
210.278980
 20
-31.478911
 30
0.0
 10
209.834480
 20
-31.684651
 30
0.0
 10
209.389980
 20
-31.890391
 30
0.0
 10
208.945480
 20
-32.098671
 30
0.0
 10
208.500980
 20
-32.304411
 30
0.0
 10
208.059020
 20
-32.512691
 30
0.0
 10
207.614520
 20
-32.718431
 30
0.0
 10
207.170020
 20
-32.926711
 30
0.0
 10
206.725520
 20
-33.132451
 30
0.0
 10
206.281020
 20
-33.340731
 30
0.0
 10
205.836520
 20
-33.549011
 30
0.0
 10
205.394560
 20
-33.757291
 30
0.0
 10
204.950060
 20
-33.963031
 30
0.0
 10
204.505560
 20
-34.171311
 30
0.0
 10
204.063600
 20
-34.379591
 30
0.0
  0
LWPOLYLINE
  5
179
100
AcDbEntity
  8
0
 62
7
100
AcDbPolyline
 90
65
 70
0
 10
195.414900
 20
-24.636151
 30
0.0
 10
194.980560
 20
-24.836811
 30
0.0
 10
194.546220
 20
-25.034931
 30
0.0
 10
194.111880
 20
-25.235591
 30
0.0
 10
193.677540
 20
-25.436251
 30
0.0
 10
193.245740
 20
-25.636911
 30
0.0
 10
192.811400
 20
-25.837571
 30
0.0
 10
192.377060
 20
-26.038231
 30
0.0
 10
191.945260
 20
-26.238891
 30
0.0
 10
191.510920
 20
-26.439551
 30
0.0
 10
191.079120
 20
-26.642751
 30
0.0
 10
190.644780
 20
-26.843411
 30
0.0
 10
190.212980
 20
-27.046611
 30
0.0
 10
189.781180
 20
-27.249811
 30
0.0
 10
189.346840
 20
-27.450471
 30
0.0
 10
188.915040
 20
-27.653671
 30
0.0
 10
188.483240
 20
-27.856871
 30
0.0
 10
188.051440
 20
-28.060071
 30
0.0
 10
187.619640
 20
-28.265811
 30
0.0
 10
187.187840
 20
-28.469011
 30
0.0
 10
186.756040
 20
-28.672211
 30
0.0
 10
186.321700
 20
-28.875411
 30
0.0
 10
185.889900
 20
-29.081151
 30
0.0
 10
185.460640
 20
-29.284351
 30
0.0
 10
185.028840
 20
-29.490091
 30
0.0
 10
184.597040
 20
-29.695831
 30
0.0
 10
184.165240
 20
-29.899031
 30
0.0
 10
183.733440
 20
-30.104771
 30
0.0
 10
183.301640
 20
-30.310511
 30
0.0
 10
182.869840
 20
-30.516251
 30
0.0
 10
182.440580
 20
-30.721991
 30
0.0
 10
182.008780
 20
-30.925191
 30
0.0
 10
181.576980
 20
-31.130931
 30
0.0
 10
181.508400
 20
-30.988691
 30
0.0
 10
181.437280
 20
-30.843911
 30
0.0
 10
181.368700
 20
-30.694051
 30
0.0
 10
181.295040
 20
-30.544191
 30
0.0
 10
181.223920
 20
-30.391791
 30
0.0
 10
181.147720
 20
-30.239391
 30
0.0
 10
181.071520
 20
-30.086991
 30
0.0
 10
180.992780
 20
-29.932051
 30
0.0
 10
180.914040
 20
-29.779651
 30
0.0
 10
180.830220
 20
-29.629791
 30
0.0
 10
180.746400
 20
-29.479931
 30
0.0
 10
180.657500
 20
-29.332611
 30
0.0
 10
180.566060
 20
-29.185291
 30
0.0
 10
180.472080
 20
-29.043051
 30
0.0
 10
180.375560
 20
-28.903351
 30
0.0
 10
180.273960
 20
-28.768731
 30
0.0
 10
180.169820
 20
-28.639191
 30
0.0
 10
180.063140
 20
-28.512191
 30
0.0
 10
179.948840
 20
-28.392811
 30
0.0
 10
179.832000
 20
-28.278511
 30
0.0
 10
179.712620
 20
-28.169291
 30
0.0
 10
179.585620
 20
-28.067691
 30
0.0
 10
179.453540
 20
-27.973711
 30
0.0
 10
179.318920
 20
-27.887351
 30
0.0
 10
179.176680
 20
-27.811151
 30
0.0
 10
179.029360
 20
-27.742571
 30
0.0
 10
178.876960
 20
-27.681611
 30
0.0
 10
178.719480
 20
-27.630811
 30
0.0
 10
178.554380
 20
-27.592711
 30
0.0
 10
178.384200
 20
-27.562231
 30
0.0
 10
178.206400
 20
-27.544451
 30
0.0
 10
178.020980
 20
-27.539371
 30
0.0
  0
LWPOLYLINE
  5
17a
100
AcDbEntity
  8
0
 62
7
100
AcDbPolyline
 90
33
 70
0
 10
143.758920
 20
-51.496651
 30
0.0
 10
143.301720
 20
-51.707471
 30
0.0
 10
142.844520
 20
-51.918291
 30
0.0
 10
142.387320
 20
-52.129111
 30
0.0
 10
141.930120
 20
-52.339931
 30
0.0
 10
141.472920
 20
-52.550751
 30
0.0
 10
141.018260
 20
-52.761571
 30
0.0
 10
140.561060
 20
-52.972391
 30
0.0
 10
140.103860
 20
-53.183211
 30
0.0
 10
139.646660
 20
-53.396571
 30
0.0
 10
139.192000
 20
-53.607391
 30
0.0
 10
138.734800
 20
-53.818211
 30
0.0
 10
138.280140
 20
-54.031571
 30
0.0
 10
137.822940
 20
-54.242391
 30
0.0
 10
137.365740
 20
-54.455751
 30
0.0
 10
136.911080
 20
-54.666571
 30
0.0
 10
136.453880
 20
-54.879931
 30
0.0
 10
135.999220
 20
-55.093291
 30
0.0
 10
135.542020
 20
-55.304111
 30
0.0
 10
135.087360
 20
-55.517471
 30
0.0
 10
134.630160
 20
-55.730831
 30
0.0
 10
134.175500
 20
-55.941651
 30
0.0
 10
133.718300
 20
-56.155011
 30
0.0
 10
133.263640
 20
-56.368371
 30
0.0
 10
132.806440
 20
-56.579191
 30
0.0
 10
132.351780
 20
-56.792551
 30
0.0
 10
131.894580
 20
-57.005911
 30
0.0
 10
131.439920
 20
-57.219271
 30
0.0
 10
130.982720
 20
-57.430091
 30
0.0
 10
130.528060
 20
-57.643451
 30
0.0
 10
130.070860
 20
-57.856811
 30
0.0
 10
129.616200
 20
-58.067631
 30
0.0
 10
129.159000
 20
-58.280991
 30
0.0
  0
LWPOLYLINE
  5
17b
100
AcDbEntity
  8
0
 62
7
100
AcDbPolyline
 90
15
 70
0
 10
159.151320
 20
-39.736451
 30
0.0
 10
159.194500
 20
-39.909171
 30
0.0
 10
159.245300
 20
-40.033631
 30
0.0
 10
159.308800
 20
-40.163171
 30
0.0
 10
159.382460
 20
-40.295251
 30
0.0
 10
159.458660
 20
-40.429871
 30
0.0
 10
159.537400
 20
-40.561951
 30
0.0
 10
159.608520
 20
-40.691491
 30
0.0
 10
159.669480
 20
-40.818491
 30
0.0
 10
159.715200
 20
-40.940411
 30
0.0
 10
159.745680
 20
-41.108051
 30
0.0
 10
159.720280
 20
-41.255371
 30
0.0
 10
159.618680
 20
-41.372211
 30
0.0
 10
159.501840
 20
-41.430631
 30
0.0
 10
159.339280
 20
-41.473811
 30
0.0
  0
LWPOLYLINE
  5
17c
100
AcDbEntity
  8
0
 62
7
100
AcDbPolyline
 90
33
 70
0
 10
159.994600
 20
-35.695311
 30
0.0
 10
159.867600
 20
-35.776591
 30
0.0
 10
159.745680
 20
-35.862951
 30
0.0
 10
159.631380
 20
-35.954391
 30
0.0
 10
159.524700
 20
-36.050911
 30
0.0
 10
159.423100
 20
-36.152511
 30
0.0
 10
159.329120
 20
-36.259191
 30
0.0
 10
159.242760
 20
-36.370951
 30
0.0
 10
159.161480
 20
-36.487791
 30
0.0
 10
159.085280
 20
-36.607171
 30
0.0
 10
159.019240
 20
-36.729091
 30
0.0
 10
158.958280
 20
-36.856091
 30
0.0
 10
158.902400
 20
-36.985631
 30
0.0
 10
158.854140
 20
-37.117711
 30
0.0
 10
158.813500
 20
-37.252331
 30
0.0
 10
158.777940
 20
-37.386951
 30
0.0
 10
158.747460
 20
-37.526651
 30
0.0
 10
158.727140
 20
-37.666351
 30
0.0
 10
158.709360
 20
-37.806051
 30
0.0
 10
158.701740
 20
-37.948291
 30
0.0
 10
158.696660
 20
-38.090531
 30
0.0
 10
158.701740
 20
-38.232771
 30
0.0
 10
158.711900
 20
-38.375011
 30
0.0
 10
158.727140
 20
-38.517251
 30
0.0
 10
158.750000
 20
-38.659491
 30
0.0
 10
158.777940
 20
-38.799191
 30
0.0
 10
158.813500
 20
-38.938891
 30
0.0
 10
158.854140
 20
-39.078591
 30
0.0
 10
158.899860
 20
-39.215751
 30
0.0
 10
158.953200
 20
-39.347831
 30
0.0
 10
159.014160
 20
-39.479911
 30
0.0
 10
159.080200
 20
-39.609451
 30
0.0
 10
159.151320
 20
-39.736451
 30
0.0
  0
LWPOLYLINE
  5
17d
100
AcDbEntity
  8
0
 62
7
100
AcDbPolyline
 90
33
 70
0
 10
173.413420
 20
-29.373251
 30
0.0
 10
172.994320
 20
-29.568831
 30
0.0
 10
172.575220
 20
-29.766951
 30
0.0
 10
172.153580
 20
-29.962531
 30
0.0
 10
171.734480
 20
-30.160651
 30
0.0
 10
171.315380
 20
-30.356231
 30
0.0
 10
170.893740
 20
-30.551811
 30
0.0
 10
170.474640
 20
-30.747391
 30
0.0
 10
170.053000
 20
-30.942971
 30
0.0
 10
169.633900
 20
-31.138551
 30
0.0
 10
169.214800
 20
-31.334131
 30
0.0
 10
168.793160
 20
-31.529711
 30
0.0
 10
168.374060
 20
-31.725291
 30
0.0
 10
167.952420
 20
-31.920871
 30
0.0
 10
167.533320
 20
-32.116451
 30
0.0
 10
167.111680
 20
-32.312031
 30
0.0
 10
166.692580
 20
-32.507611
 30
0.0
 10
166.270940
 20
-32.703191
 30
0.0
 10
165.851840
 20
-32.901311
 30
0.0
 10
165.432740
 20
-33.096891
 30
0.0
 10
165.011100
 20
-33.292471
 30
0.0
 10
164.592000
 20
-33.490591
 30
0.0
 10
164.172900
 20
-33.688711
 30
0.0
 10
163.753800
 20
-33.886831
 30
0.0
 10
163.334700
 20
-34.084951
 30
0.0
 10
162.918140
 20
-34.283071
 30
0.0
 10
162.499040
 20
-34.483731
 30
0.0
 10
162.079940
 20
-34.684391
 30
0.0
 10
161.663380
 20
-34.885051
 30
0.0
 10
161.246820
 20
-35.085711
 30
0.0
 10
160.827720
 20
-35.288911
 30
0.0
 10
160.411160
 20
-35.492111
 30
0.0
 10
159.994600
 20
-35.695311
 30
0.0
  0
LWPOLYLINE
  5
17e
100
AcDbEntity
  8
0
 62
7
100
AcDbPolyline
 90
33
 70
0
 10
129.159000
 20
-58.280991
 30
0.0
 10
128.889760
 20
-58.275911
 30
0.0
 10
128.617980
 20
-58.273371
 30
0.0
 10
128.348740
 20
-58.273371
 30
0.0
 10
128.076960
 20
-58.270831
 30
0.0
 10
127.805180
 20
-58.270831
 30
0.0
 10
127.535940
 20
-58.270831
 30
0.0
 10
127.264160
 20
-58.270831
 30
0.0
 10
126.992380
 20
-58.273371
 30
0.0
 10
126.720600
 20
-58.273371
 30
0.0
 10
126.448820
 20
-58.275911
 30
0.0
 10
126.177040
 20
-58.278451
 30
0.0
 10
125.905260
 20
-58.280991
 30
0.0
 10
125.633480
 20
-58.283531
 30
0.0
 10
125.364240
 20
-58.283531
 30
0.0
 10
125.092460
 20
-58.286071
 30
0.0
 10
124.820680
 20
-58.288611
 30
0.0
 10
124.548900
 20
-58.288611
 30
0.0
 10
124.277120
 20
-58.291151
 30
0.0
 10
124.005340
 20
-58.291151
 30
0.0
 10
123.736100
 20
-58.291151
 30
0.0
 10
123.464320
 20
-58.291151
 30
0.0
 10
123.192540
 20
-58.288611
 30
0.0
 10
122.923300
 20
-58.286071
 30
0.0
 10
122.651520
 20
-58.283531
 30
0.0
 10
122.382280
 20
-58.278451
 30
0.0
 10
122.113040
 20
-58.273371
 30
0.0
 10
121.841260
 20
-58.268291
 30
0.0
 10
121.572020
 20
-58.260671
 30
0.0
 10
121.302780
 20
-58.250511
 30
0.0
 10
121.036080
 20
-58.240351
 30
0.0
 10
120.766840
 20
-58.230191
 30
0.0
 10
120.497600
 20
-58.217491
 30
0.0
  0
LWPOLYLINE
  5
17f
100
AcDbEntity
  8
0
 62
7
100
AcDbPolyline
 90
17
 70
0
 10
144.780000
 20
-48.301331
 30
0.0
 10
144.602200
 20
-48.441031
 30
0.0
 10
144.434560
 20
-48.593431
 30
0.0
 10
144.279620
 20
-48.758531
 30
0.0
 10
144.139920
 20
-48.936331
 30
0.0
 10
144.015460
 20
-49.121751
 30
0.0
 10
143.906240
 20
-49.317331
 30
0.0
 10
143.812260
 20
-49.520531
 30
0.0
 10
143.733520
 20
-49.731351
 30
0.0
 10
143.672560
 20
-49.947251
 30
0.0
 10
143.626840
 20
-50.165691
 30
0.0
 10
143.601440
 20
-50.386671
 30
0.0
 10
143.593820
 20
-50.610191
 30
0.0
 10
143.603980
 20
-50.833711
 30
0.0
 10
143.634460
 20
-51.057231
 30
0.0
 10
143.685260
 20
-51.278211
 30
0.0
 10
143.758920
 20
-51.496651
 30
0.0
  0
LWPOLYLINE
  5
180
100
AcDbEntity
  8
0
 62
7
100
AcDbPolyline
 90
33
 70
0
 10
159.339280
 20
-41.473811
 30
0.0
 10
158.884620
 20
-41.684631
 30
0.0
 10
158.429960
 20
-41.897991
 30
0.0
 10
157.972760
 20
-42.108811
 30
0.0
 10
157.515560
 20
-42.319631
 30
0.0
 10
157.060900
 20
-42.530451
 30
0.0
 10
156.603700
 20
-42.738731
 30
0.0
 10
156.146500
 20
-42.949551
 30
0.0
 10
155.689300
 20
-43.160371
 30
0.0
 10
155.234640
 20
-43.368651
 30
0.0
 10
154.777440
 20
-43.579471
 30
0.0
 10
154.320240
 20
-43.787751
 30
0.0
 10
153.863040
 20
-43.998571
 30
0.0
 10
153.405840
 20
-44.209391
 30
0.0
 10
152.951180
 20
-44.417671
 30
0.0
 10
152.493980
 20
-44.628491
 30
0.0
 10
152.036780
 20
-44.839311
 30
0.0
 10
151.582120
 20
-45.050131
 30
0.0
 10
151.124920
 20
-45.263491
 30
0.0
 10
150.670260
 20
-45.474311
 30
0.0
 10
150.213060
 20
-45.687671
 30
0.0
 10
149.758400
 20
-45.901031
 30
0.0
 10
149.303740
 20
-46.114391
 30
0.0
 10
148.849080
 20
-46.330291
 30
0.0
 10
148.396960
 20
-46.543651
 30
0.0
 10
147.942300
 20
-46.762091
 30
0.0
 10
147.490180
 20
-46.977991
 30
0.0
 10
147.035520
 20
-47.196431
 30
0.0
 10
146.583400
 20
-47.414871
 30
0.0
 10
146.133820
 20
-47.635851
 30
0.0
 10
145.681700
 20
-47.856831
 30
0.0
 10
145.232120
 20
-48.077811
 30
0.0
 10
144.780000
 20
-48.301331
 30
0.0
  0
LWPOLYLINE
  5
181
100
AcDbEntity
  8
0
 62
7
100
AcDbPolyline
 90
33
 70
0
 10
199.445880
 20
-25.045091
 30
0.0
 10
199.351900
 20
-24.933331
 30
0.0
 10
199.252840
 20
-24.826651
 30
0.0
 10
199.151240
 20
-24.727591
 30
0.0
 10
199.044560
 20
-24.638691
 30
0.0
 10
198.932800
 20
-24.554871
 30
0.0
 10
198.818500
 20
-24.478671
 30
0.0
 10
198.701660
 20
-24.410091
 30
0.0
 10
198.579740
 20
-24.346591
 30
0.0
 10
198.457820
 20
-24.290711
 30
0.0
 10
198.330820
 20
-24.242451
 30
0.0
 10
198.201280
 20
-24.199271
 30
0.0
 10
198.071740
 20
-24.163711
 30
0.0
 10
197.939660
 20
-24.135771
 30
0.0
 10
197.805040
 20
-24.112911
 30
0.0
 10
197.670420
 20
-24.095131
 30
0.0
 10
197.533260
 20
-24.084971
 30
0.0
 10
197.396100
 20
-24.079891
 30
0.0
 10
197.258940
 20
-24.079891
 30
0.0
 10
197.121780
 20
-24.087511
 30
0.0
 10
196.982080
 20
-24.100211
 30
0.0
 10
196.844920
 20
-24.115451
 30
0.0
 10
196.707760
 20
-24.138311
 30
0.0
 10
196.570600
 20
-24.168791
 30
0.0
 10
196.435980
 20
-24.201811
 30
0.0
 10
196.301360
 20
-24.239911
 30
0.0
 10
196.166740
 20
-24.283091
 30
0.0
 10
196.034660
 20
-24.328811
 30
0.0
 10
195.907660
 20
-24.382151
 30
0.0
 10
195.780660
 20
-24.440571
 30
0.0
 10
195.653660
 20
-24.501531
 30
0.0
 10
195.531740
 20
-24.567571
 30
0.0
 10
195.414900
 20
-24.636151
 30
0.0
  0
LWPOLYLINE
  5
182
100
AcDbEntity
  8
0
 62
7
100
AcDbPolyline
 90
33
 70
0
 10
178.020980
 20
-27.539371
 30
0.0
 10
177.866040
 20
-27.554611
 30
0.0
 10
177.713640
 20
-27.574931
 30
0.0
 10
177.558700
 20
-27.600331
 30
0.0
 10
177.408840
 20
-27.630811
 30
0.0
 10
177.258980
 20
-27.666371
 30
0.0
 10
177.109120
 20
-27.704471
 30
0.0
 10
176.961800
 20
-27.747651
 30
0.0
 10
176.814480
 20
-27.795911
 30
0.0
 10
176.669700
 20
-27.846711
 30
0.0
 10
176.524920
 20
-27.902591
 30
0.0
 10
176.380140
 20
-27.961011
 30
0.0
 10
176.237900
 20
-28.021971
 30
0.0
 10
176.093120
 20
-28.082931
 30
0.0
 10
175.953420
 20
-28.148971
 30
0.0
 10
175.811180
 20
-28.215011
 30
0.0
 10
175.668940
 20
-28.283591
 30
0.0
 10
175.529240
 20
-28.354711
 30
0.0
 10
175.389540
 20
-28.425831
 30
0.0
 10
175.249840
 20
-28.496951
 30
0.0
 10
175.107600
 20
-28.570611
 30
0.0
 10
174.967900
 20
-28.641731
 30
0.0
 10
174.828200
 20
-28.715391
 30
0.0
 10
174.688500
 20
-28.786511
 30
0.0
 10
174.548800
 20
-28.857631
 30
0.0
 10
174.409100
 20
-28.928751
 30
0.0
 10
174.266860
 20
-28.997331
 30
0.0
 10
174.127160
 20
-29.065911
 30
0.0
 10
173.984920
 20
-29.131951
 30
0.0
 10
173.842680
 20
-29.195451
 30
0.0
 10
173.700440
 20
-29.256411
 30
0.0
 10
173.558200
 20
-29.314831
 30
0.0
 10
173.413420
 20
-29.373251
 30
0.0
  0
ENDSEC
  0
SECTION
  2
OBJECTS
  0
DICTIONARY
  5
C
330
0
100
AcDbDictionary
  3
ACAD_GROUP
350
D
  3
ACAD_MLINESTYLE
350
17
  0
DICTIONARY
  5
D
330
C
100
AcDbDictionary
  0
DICTIONARY
  5
1A
330
C
100
AcDbDictionary
  0
DICTIONARY
  5
17
330
C
100
AcDbDictionary
  3
STANDARD
350
18
  0
DICTIONARY
  5
19
330
C
100
AcDbDictionary
  0
ENDSEC
  0
EOF
