  0
SECTION
  2
HEADER
  9
$ACADVER
  1
AC1006
  9
$EXTMIN
 10
0.000000
 20
0.000000
 30
0.000000
  9
$EXTMAX
 10
2966.000000
 20
1703.000000
 30
0.000000
  0
ENDSEC
  0
SECTION
  2
ENTITIES
  0
POLYLINE
  8
0
 66
1
 70
1
  0
VERTEX
  8
0
 10
615.000000
 20
1702.333893
 42
0.013185
  0
VERTEX
  8
0
 10
608.451595
 20
1701.124802
 42
0.013648
  0
VERTEX
  8
0
 10
602.051577
 20
1699.584057
 42
0.014377
  0
VERTEX
  8
0
 10
596.451535
 20
1697.898944
 42
0.035747
  0
VERTEX
  8
0
 10
592.500000
 20
1696.263048
 42
0.043317
  0
VERTEX
  8
0
 10
582.350445
 20
1690.032588
 42
0.030713
  0
VERTEX
  8
0
 10
572.112542
 20
1681.434831
 42
0.030675
  0
VERTEX
  8
0
 10
562.986939
 20
1671.629686
 42
0.042687
  0
VERTEX
  8
0
 10
556.190535
 20
1661.756236
 42
0.017191
  0
VERTEX
  8
0
 10
552.084211
 20
1653.929302
 42
0.001077
  0
VERTEX
  8
0
 10
540.817848
 20
1630.404124
 42
0.001152
  0
VERTEX
  8
0
 10
529.714836
 20
1606.952206
 42
0.015494
  0
VERTEX
  8
0
 10
525.935249
 20
1598.229496
 42
-0.037554
  0
VERTEX
  8
0
 10
525.302498
 20
1596.929474
 42
-0.213267
  0
VERTEX
  8
0
 10
524.692199
 20
1596.491454
 42
-0.140044
  0
VERTEX
  8
0
 10
523.798410
 20
1596.559512
 42
-0.013657
  0
VERTEX
  8
0
 10
521.766955
 20
1597.374646
 42
-0.005240
  0
VERTEX
  8
0
 10
519.349100
 20
1598.452602
 42
-0.000091
  0
VERTEX
  8
0
 10
506.240918
 20
1604.464988
 42
-0.000230
  0
VERTEX
  8
0
 10
490.981428
 20
1611.475965
 42
-0.000153
  0
VERTEX
  8
0
 10
473.500000
 20
1619.524039
 42
0.000044
  0
VERTEX
  8
0
 10
454.768009
 20
1628.152813
 42
0.000041
  0
VERTEX
  8
0
 10
435.696875
 20
1636.933877
 42
0.000041
  0
VERTEX
  8
0
 10
418.822024
 20
1644.700315
 42
0.000146
  0
VERTEX
  8
0
 10
408.000000
 20
1649.676113
 42
0.006597
  0
VERTEX
  8
0
 10
392.761400
 20
1656.435175
 42
0.021839
  0
VERTEX
  8
0
 10
382.494085
 20
1660.307008
 42
0.030999
  0
VERTEX
  8
0
 10
374.058265
 20
1662.505702
 42
0.029753
  0
VERTEX
  8
0
 10
365.298874
 20
1663.682076
 42
0.073704
  0
VERTEX
  8
0
 10
344.755854
 20
1662.177069
 42
0.064082
  0
VERTEX
  8
0
 10
324.454232
 20
1654.806375
 42
0.063224
  0
VERTEX
  8
0
 10
306.430625
 20
1642.408732
 42
0.067901
  0
VERTEX
  8
0
 10
292.569781
 20
1626.164526
 42
0.033885
  0
VERTEX
  8
0
 10
285.385910
 20
1613.109557
 42
0.000035
  0
VERTEX
  8
0
 10
146.815535
 20
1315.097396
 42
0.000036
  0
VERTEX
  8
0
 10
8.353442
 20
1017.208044
 42
0.033127
  0
VERTEX
  8
0
 10
2.862252
 20
1003.000000
 42
0.048850
  0
VERTEX
  8
0
 10
0.989935
 20
993.992760
 42
0.026394
  0
VERTEX
  8
0
 10
0.371770
 20
982.672153
 42
0.026305
  0
VERTEX
  8
0
 10
0.954963
 20
971.206769
 42
0.043747
  0
VERTEX
  8
0
 10
2.788948
 20
961.714544
 42
0.048300
  0
VERTEX
  8
0
 10
8.786721
 20
946.469355
 42
0.045532
  0
VERTEX
  8
0
 10
17.696392
 20
932.332065
 42
0.045542
  0
VERTEX
  8
0
 10
29.015359
 20
920.043988
 42
0.048376
  0
VERTEX
  8
0
 10
42.159289
 20
910.283698
 42
0.023471
  0
VERTEX
  8
0
 10
46.144168
 20
908.131936
 42
0.000578
  0
VERTEX
  8
0
 10
64.878041
 20
899.150992
 42
0.001251
  0
VERTEX
  8
0
 10
86.897737
 20
888.693736
 42
0.000851
  0
VERTEX
  8
0
 10
112.000000
 20
876.901631
 42
-0.000057
  0
VERTEX
  8
0
 10
136.744858
 20
865.325376
 42
-0.000094
  0
VERTEX
  8
0
 10
157.606309
 20
855.558191
 42
-0.000002
  0
VERTEX
  8
0
 10
176.523302
 20
846.696953
 42
-0.048298
  0
VERTEX
  8
0
 10
176.681052
 20
846.603548
 42
-0.306133
  0
VERTEX
  8
0
 10
176.730670
 20
846.465709
 42
-0.000848
  0
VERTEX
  8
0
 10
176.217364
 20
844.458074
 42
-0.004452
  0
VERTEX
  8
0
 10
175.607381
 20
842.173486
 42
-0.002713
  0
VERTEX
  8
0
 10
174.848298
 20
839.485615
 42
0.024439
  0
VERTEX
  8
0
 10
173.910843
 20
835.514075
 42
0.015400
  0
VERTEX
  8
0
 10
173.188493
 20
830.802661
 42
0.012953
  0
VERTEX
  8
0
 10
172.652201
 20
825.200103
 42
0.007627
  0
VERTEX
  8
0
 10
172.287260
 20
818.482562
 42
0.021251
  0
VERTEX
  8
0
 10
172.327985
 20
806.768184
 42
0.039441
  0
VERTEX
  8
0
 10
173.510593
 20
797.342447
 42
0.040267
  0
VERTEX
  8
0
 10
176.137001
 20
788.349351
 42
0.023194
  0
VERTEX
  8
0
 10
180.647632
 20
778.000000
 42
0.015251
  0
VERTEX
  8
0
 10
183.544867
 20
772.540565
 42
0.031407
  0
VERTEX
  8
0
 10
186.198965
 20
768.500000
 42
0.027412
  0
VERTEX
  8
0
 10
189.563377
 20
764.495794
 42
0.009105
  0
VERTEX
  8
0
 10
194.911796
 20
759.000000
 42
0.011582
  0
VERTEX
  8
0
 10
199.384767
 20
754.768918
 42
0.012755
  0
VERTEX
  8
0
 10
203.910205
 20
750.887482
 42
0.013707
  0
VERTEX
  8
0
 10
208.188208
 20
747.594495
 42
0.024757
  0
VERTEX
  8
0
 10
211.888408
 20
745.174979
 42
0.025846
  0
VERTEX
  8
0
 10
227.219002
 20
737.234200
 42
0.000366
  0
VERTEX
  8
0
 10
321.723036
 20
694.405373
 42
0.000250
  0
VERTEX
  8
0
 10
418.278342
 20
650.790063
 42
0.038966
  0
VERTEX
  8
0
 10
429.500000
 20
646.746068
 42
0.042044
  0
VERTEX
  8
0
 10
437.479338
 20
645.261435
 42
0.023035
  0
VERTEX
  8
0
 10
447.416470
 20
644.725755
 42
0.023021
  0
VERTEX
  8
0
 10
457.392049
 20
645.107431
 42
0.040866
  0
VERTEX
  8
0
 10
465.500000
 20
646.465543
 42
0.032094
  0
VERTEX
  8
0
 10
475.530795
 20
649.698777
 42
0.032315
  0
VERTEX
  8
0
 10
485.041524
 20
654.183099
 42
0.032187
  0
VERTEX
  8
0
 10
493.929944
 20
659.874655
 42
0.031286
  0
VERTEX
  8
0
 10
502.103843
 20
666.710037
 42
0.000000
  0
VERTEX
  8
0
 10
507.707686
 20
672.025620
 42
0.000000
  0
VERTEX
  8
0
 10
541.301940
 20
656.362781
 42
0.000000
  0
VERTEX
  8
0
 10
574.896194
 20
640.699941
 42
0.000000
  0
VERTEX
  8
0
 10
573.571251
 20
638.099971
 42
0.009680
  0
VERTEX
  8
0
 10
572.573014
 20
636.043647
 42
0.000045
  0
VERTEX
  8
0
 10
562.639832
 20
614.526241
 42
0.000213
  0
VERTEX
  8
0
 10
551.357843
 20
590.053757
 42
0.000135
  0
VERTEX
  8
0
 10
538.218470
 20
561.500000
 42
0.001151
  0
VERTEX
  8
0
 10
513.050731
 20
506.434418
 42
0.020033
  0
VERTEX
  8
0
 10
505.624373
 20
488.178075
 42
0.057565
  0
VERTEX
  8
0
 10
502.739743
 20
475.928536
 42
0.041150
  0
VERTEX
  8
0
 10
502.260380
 20
461.842757
 42
0.029383
  0
VERTEX
  8
0
 10
503.488532
 20
450.406716
 42
0.040458
  0
VERTEX
  8
0
 10
506.010219
 20
440.389226
 42
0.039837
  0
VERTEX
  8
0
 10
510.148427
 20
430.792265
 42
0.027287
  0
VERTEX
  8
0
 10
516.264250
 20
420.619599
 42
0.040203
  0
VERTEX
  8
0
 10
523.824672
 20
411.197763
 42
0.039114
  0
VERTEX
  8
0
 10
532.860617
 20
403.012821
 42
0.035139
  0
VERTEX
  8
0
 10
543.941623
 20
395.632190
 42
0.022672
  0
VERTEX
  8
0
 10
557.684412
 20
388.616751
 42
-0.002940
  0
VERTEX
  8
0
 10
565.748768
 20
384.893423
 42
-0.000149
  0
VERTEX
  8
0
 10
591.903477
 20
372.621114
 42
-0.000239
  0
VERTEX
  8
0
 10
622.980831
 20
358.009561
 42
-0.000173
  0
VERTEX
  8
0
 10
657.582745
 20
341.706068
 42
0.000000
  0
VERTEX
  8
0
 10
745.665490
 20
300.166594
 42
0.000000
  0
VERTEX
  8
0
 10
833.582745
 20
238.483669
 42
0.000000
  0
VERTEX
  8
0
 10
921.500000
 20
176.800743
 42
0.000000
  0
VERTEX
  8
0
 10
1001.500000
 20
97.147763
 42
0.000512
  0
VERTEX
  8
0
 10
1048.171477
 20
50.773857
 42
0.004225
  0
VERTEX
  8
0
 10
1069.603336
 20
29.878462
 42
0.007824
  0
VERTEX
  8
0
 10
1082.392370
 20
17.997009
 42
0.050365
  0
VERTEX
  8
0
 10
1089.500000
 20
12.789277
 42
0.028069
  0
VERTEX
  8
0
 10
1097.135627
 20
8.857017
 42
0.021474
  0
VERTEX
  8
0
 10
1105.872177
 20
5.402911
 42
0.021466
  0
VERTEX
  8
0
 10
1114.877247
 20
2.709456
 42
0.027963
  0
VERTEX
  8
0
 10
1123.322359
 20
1.069545
 42
0.033866
  0
VERTEX
  8
0
 10
1136.114543
 20
0.196017
 42
0.000058
  0
VERTEX
  8
0
 10
1355.043592
 20
0.117809
 42
0.000524
  0
VERTEX
  8
0
 10
1562.504475
 20
0.285506
 42
0.000946
  0
VERTEX
  8
0
 10
1732.500000
 20
0.922956
 42
0.000000
  0
VERTEX
  8
0
 10
1850.500000
 20
1.588753
 42
0.000000
  0
VERTEX
  8
0
 10
1858.500000
 20
4.354012
 42
0.019848
  0
VERTEX
  8
0
 10
1865.583702
 20
7.121844
 42
0.019515
  0
VERTEX
  8
0
 10
1872.466621
 20
10.456924
 42
0.019428
  0
VERTEX
  8
0
 10
1879.098305
 20
14.334377
 42
0.019252
  0
VERTEX
  8
0
 10
1885.429816
 20
18.726058
 42
0.032062
  0
VERTEX
  8
0
 10
1889.733254
 20
22.417763
 42
0.000495
  0
VERTEX
  8
0
 10
1913.070008
 20
45.234293
 42
0.001322
  0
VERTEX
  8
0
 10
1940.093655
 20
71.848306
 42
0.000874
  0
VERTEX
  8
0
 10
1971.000000
 20
102.554719
 42
0.000000
  0
VERTEX
  8
0
 10
2050.500000
 20
181.817158
 42
0.000000
  0
VERTEX
  8
0
 10
2137.829348
 20
242.488724
 42
0.000000
  0
VERTEX
  8
0
 10
2225.158696
 20
303.160289
 42
0.000000
  0
VERTEX
  8
0
 10
2283.829348
 20
330.681597
 42
0.000029
  0
VERTEX
  8
0
 10
2309.252489
 20
342.608908
 42
0.000022
  0
VERTEX
  8
0
 10
2337.150161
 20
355.700601
 42
0.000022
  0
VERTEX
  8
0
 10
2363.339697
 20
367.993518
 42
0.000051
  0
VERTEX
  8
0
 10
2382.958433
 20
377.205735
 42
0.002208
  0
VERTEX
  8
0
 10
2398.859377
 20
384.760098
 42
0.002987
  0
VERTEX
  8
0
 10
2413.160036
 20
391.737208
 42
0.002016
  0
VERTEX
  8
0
 10
2425.095677
 20
397.709037
 42
0.032717
  0
VERTEX
  8
0
 10
2428.958433
 20
399.989755
 42
0.077043
  0
VERTEX
  8
0
 10
2445.415815
 20
415.400037
 42
0.070942
  0
VERTEX
  8
0
 10
2456.993421
 20
435.489350
 42
0.070185
  0
VERTEX
  8
0
 10
2462.581406
 20
458.222375
 42
0.072612
  0
VERTEX
  8
0
 10
2461.561708
 20
481.341337
 42
0.037515
  0
VERTEX
  8
0
 10
2459.191846
 20
490.107141
 42
0.016813
  0
VERTEX
  8
0
 10
2454.842723
 20
501.232354
 42
0.006172
  0
VERTEX
  8
0
 10
2446.324668
 20
520.377226
 42
0.000486
  0
VERTEX
  8
0
 10
2422.988903
 20
571.000000
 42
-0.000496
  0
VERTEX
  8
0
 10
2411.018317
 20
596.969513
 42
-0.000808
  0
VERTEX
  8
0
 10
2400.914128
 20
619.041257
 42
-0.000085
  0
VERTEX
  8
0
 10
2391.917189
 20
638.787372
 42
-0.077937
  0
VERTEX
  8
0
 10
2391.646827
 20
639.757472
 42
-0.311606
  0
VERTEX
  8
0
 10
2392.046251
 20
640.510113
 42
-0.001279
  0
VERTEX
  8
0
 10
2400.870886
 20
645.061733
 42
-0.005302
  0
VERTEX
  8
0
 10
2411.353520
 20
650.295013
 42
-0.002854
  0
VERTEX
  8
0
 10
2424.380403
 20
656.535125
 42
0.000000
  0
VERTEX
  8
0
 10
2457.260805
 20
672.055305
 42
0.000000
  0
VERTEX
  8
0
 10
2460.645459
 20
668.101098
 42
0.052894
  0
VERTEX
  8
0
 10
2468.366253
 20
660.804454
 42
0.034861
  0
VERTEX
  8
0
 10
2478.583002
 20
654.084755
 42
0.034286
  0
VERTEX
  8
0
 10
2489.899775
 20
648.708010
 42
0.043955
  0
VERTEX
  8
0
 10
2500.954160
 20
645.443611
 42
0.044633
  0
VERTEX
  8
0
 10
2513.070022
 20
644.104448
 42
0.035700
  0
VERTEX
  8
0
 10
2526.192037
 20
644.767565
 42
0.034004
  0
VERTEX
  8
0
 10
2539.757024
 20
647.374161
 42
0.031547
  0
VERTEX
  8
0
 10
2553.198079
 20
651.841782
 42
0.012393
  0
VERTEX
  8
0
 10
2558.564417
 20
654.166228
 42
0.000218
  0
VERTEX
  8
0
 10
2587.230342
 20
667.451222
 42
0.000549
  0
VERTEX
  8
0
 10
2620.600225
 20
682.978421
 42
0.000366
  0
VERTEX
  8
0
 10
2658.798832
 20
700.837516
 42
0.000849
  0
VERTEX
  8
0
 10
2729.090611
 20
733.909635
 42
0.012460
  0
VERTEX
  8
0
 10
2753.529939
 20
746.213061
 42
0.036924
  0
VERTEX
  8
0
 10
2766.816535
 20
754.638130
 42
0.059152
  0
VERTEX
  8
0
 10
2776.565216
 20
763.850119
 42
0.033585
  0
VERTEX
  8
0
 10
2781.245759
 20
770.291455
 42
0.019782
  0
VERTEX
  8
0
 10
2785.989745
 20
778.544823
 42
0.019804
  0
VERTEX
  8
0
 10
2790.047885
 20
787.108842
 42
0.034956
  0
VERTEX
  8
0
 10
2792.604591
 20
794.500000
 42
0.044554
  0
VERTEX
  8
0
 10
2794.484921
 20
805.191075
 42
0.027992
  0
VERTEX
  8
0
 10
2794.854119
 20
817.883790
 42
0.027942
  0
VERTEX
  8
0
 10
2793.800468
 20
830.586260
 42
0.043194
  0
VERTEX
  8
0
 10
2791.345414
 20
841.314783
 42
-0.011877
  0
VERTEX
  8
0
 10
2790.788829
 20
843.196803
 42
-0.017816
  0
VERTEX
  8
0
 10
2790.401393
 20
844.865312
 42
-0.012926
  0
VERTEX
  8
0
 10
2790.171223
 20
846.233381
 42
-0.235787
  0
VERTEX
  8
0
 10
2790.307173
 20
846.640506
 42
-0.086405
  0
VERTEX
  8
0
 10
2790.780948
 20
846.973768
 42
-0.000031
  0
VERTEX
  8
0
 10
2810.446972
 20
856.245925
 42
-0.000511
  0
VERTEX
  8
0
 10
2832.297465
 20
866.519082
 42
-0.000311
  0
VERTEX
  8
0
 10
2858.150700
 20
878.622314
 42
0.000552
  0
VERTEX
  8
0
 10
2884.251583
 20
890.856871
 42
0.000839
  0
VERTEX
  8
0
 10
2906.906841
 20
901.553327
 42
0.000299
  0
VERTEX
  8
0
 10
2926.426032
 20
910.823527
 42
0.021529
  0
VERTEX
  8
0
 10
2929.576909
 20
912.492203
 42
0.043229
  0
VERTEX
  8
0
 10
2937.514463
 20
918.117002
 42
0.031806
  0
VERTEX
  8
0
 10
2945.283606
 20
925.597755
 42
0.031308
  0
VERTEX
  8
0
 10
2952.186804
 20
934.167213
 42
0.037269
  0
VERTEX
  8
0
 10
2957.532607
 20
943.064749
 42
0.056884
  0
VERTEX
  8
0
 10
2963.342359
 20
958.839845
 42
0.050375
  0
VERTEX
  8
0
 10
2965.761263
 20
976.185107
 42
0.049895
  0
VERTEX
  8
0
 10
2964.669140
 20
993.832087
 42
0.053363
  0
VERTEX
  8
0
 10
2960.089530
 20
1010.500000
 42
0.015651
  0
VERTEX
  8
0
 10
2952.510915
 20
1028.126378
 42
0.000028
  0
VERTEX
  8
0
 10
2815.249148
 20
1321.652860
 42
0.000013
  0
VERTEX
  8
0
 10
2675.937107
 20
1619.500909
 42
0.033493
  0
VERTEX
  8
0
 10
2671.520484
 20
1627.500000
 42
0.047475
  0
VERTEX
  8
0
 10
2663.162672
 20
1638.129467
 42
0.044307
  0
VERTEX
  8
0
 10
2652.767981
 20
1647.265445
 42
0.042950
  0
VERTEX
  8
0
 10
2640.597882
 20
1654.670786
 42
0.039152
  0
VERTEX
  8
0
 10
2626.964757
 20
1660.155986
 42
0.020500
  0
VERTEX
  8
0
 10
2622.342843
 20
1661.401689
 42
0.029841
  0
VERTEX
  8
0
 10
2618.178554
 20
1662.084862
 42
0.020931
  0
VERTEX
  8
0
 10
2612.999311
 20
1662.401639
 42
0.005194
  0
VERTEX
  8
0
 10
2604.500000
 20
1662.476786
 42
0.005937
  0
VERTEX
  8
0
 10
2596.874512
 20
1662.374427
 42
0.015004
  0
VERTEX
  8
0
 10
2591.335800
 20
1662.067805
 42
0.020068
  0
VERTEX
  8
0
 10
2586.941837
 20
1661.513715
 42
0.026843
  0
VERTEX
  8
0
 10
2583.020416
 20
1660.639917
 42
0.035982
  0
VERTEX
  8
0
 10
2578.443482
 20
1658.995856
 42
0.000930
  0
VERTEX
  8
0
 10
2558.521157
 20
1650.131416
 42
0.001967
  0
VERTEX
  8
0
 10
2535.175645
 20
1639.581317
 42
0.001342
  0
VERTEX
  8
0
 10
2508.717671
 20
1627.413131
 42
-0.000392
  0
VERTEX
  8
0
 10
2482.662748
 20
1615.370293
 42
-0.000646
  0
VERTEX
  8
0
 10
2460.612745
 20
1605.234100
 42
-0.000038
  0
VERTEX
  8
0
 10
2440.739279
 20
1596.131342
 42
-0.115796
  0
VERTEX
  8
0
 10
2440.197255
 20
1596.022102
 42
-0.274392
  0
VERTEX
  8
0
 10
2439.793149
 20
1596.279579
 42
-0.000421
  0
VERTEX
  8
0
 10
2435.739194
 20
1604.318732
 42
-0.003047
  0
VERTEX
  8
0
 10
2431.226231
 20
1613.424669
 42
-0.001856
  0
VERTEX
  8
0
 10
2426.000000
 20
1624.234910
 42
0.004362
  0
VERTEX
  8
0
 10
2415.388117
 20
1645.907215
 42
0.013505
  0
VERTEX
  8
0
 10
2407.705803
 20
1660.273090
 42
0.019821
  0
VERTEX
  8
0
 10
2401.377868
 20
1670.417764
 42
0.037405
  0
VERTEX
  8
0
 10
2395.375263
 20
1677.961388
 42
0.075173
  0
VERTEX
  8
0
 10
2379.238368
 20
1690.846883
 42
0.066791
  0
VERTEX
  8
0
 10
2359.360437
 20
1699.026774
 42
0.064926
  0
VERTEX
  8
0
 10
2337.485014
 20
1701.827393
 42
0.063954
  0
VERTEX
  8
0
 10
2315.505542
 20
1698.952306
 42
0.038023
  0
VERTEX
  8
0
 10
2309.234663
 20
1696.777628
 42
0.002988
  0
VERTEX
  8
0
 10
2293.062945
 20
1689.637115
 42
0.003295
  0
VERTEX
  8
0
 10
2271.031271
 20
1679.576471
 42
0.001261
  0
VERTEX
  8
0
 10
2240.505542
 20
1665.299491
 42
-0.000119
  0
VERTEX
  8
0
 10
2214.726514
 20
1653.170729
 42
-0.000194
  0
VERTEX
  8
0
 10
2192.815528
 20
1642.878574
 42
-0.000021
  0
VERTEX
  8
0
 10
2173.240187
 20
1633.693805
 42
-0.017264
  0
VERTEX
  8
0
 10
2172.249447
 20
1633.270085
 42
-0.233371
  0
VERTEX
  8
0
 10
2171.476473
 20
1633.339001
 42
-0.016028
  0
VERTEX
  8
0
 10
2169.585440
 20
1634.576626
 42
-0.020209
  0
VERTEX
  8
0
 10
2167.350178
 20
1636.282861
 42
-0.013629
  0
VERTEX
  8
0
 10
2164.936583
 20
1638.398227
 42
0.060402
  0
VERTEX
  8
0
 10
2146.043584
 20
1652.064966
 42
0.076752
  0
VERTEX
  8
0
 10
2125.866943
 20
1659.484512
 42
0.075198
  0
VERTEX
  8
0
 10
2104.064101
 20
1660.555130
 42
0.055226
  0
VERTEX
  8
0
 10
2080.364714
 20
1655.469398
 42
0.029576
  0
VERTEX
  8
0
 10
2068.372863
 20
1650.667703
 42
0.000233
  0
VERTEX
  8
0
 10
1974.766498
 20
1606.546557
 42
0.000226
  0
VERTEX
  8
0
 10
1881.059679
 20
1562.272696
 42
0.030527
  0
VERTEX
  8
0
 10
1870.064134
 20
1556.224728
 42
0.042457
  0
VERTEX
  8
0
 10
1861.647535
 20
1549.842690
 42
0.033121
  0
VERTEX
  8
0
 10
1853.647555
 20
1541.608012
 42
0.032833
  0
VERTEX
  8
0
 10
1846.726279
 20
1532.294185
 42
0.039283
  0
VERTEX
  8
0
 10
1841.536500
 20
1522.678451
 42
0.024751
  0
VERTEX
  8
0
 10
1838.739461
 20
1515.400127
 42
0.030292
  0
VERTEX
  8
0
 10
1836.888239
 20
1508.351644
 42
0.026309
  0
VERTEX
  8
0
 10
1835.734017
 20
1500.373140
 42
0.012932
  0
VERTEX
  8
0
 10
1835.065444
 20
1490.133682
 42
0.000000
  0
VERTEX
  8
0
 10
1834.500000
 20
1475.767365
 42
0.000000
  0
VERTEX
  8
0
 10
1766.500000
 20
1443.933970
 42
0.000215
  0
VERTEX
  8
0
 10
1740.141761
 20
1431.580853
 42
0.000328
  0
VERTEX
  8
0
 10
1717.267510
 20
1420.830265
 42
0.000113
  0
VERTEX
  8
0
 10
1697.518204
 20
1411.527096
 42
0.008700
  0
VERTEX
  8
0
 10
1694.389397
 20
1409.985276
 42
0.051991
  0
VERTEX
  8
0
 10
1689.370207
 20
1406.702994
 42
0.017350
  0
VERTEX
  8
0
 10
1682.751176
 20
1400.924188
 42
0.017783
  0
VERTEX
  8
0
 10
1676.295498
 20
1394.434976
 42
0.032656
  0
VERTEX
  8
0
 10
1671.598621
 20
1388.649951
 42
0.016522
  0
VERTEX
  8
0
 10
1667.930960
 20
1383.095961
 42
0.020750
  0
VERTEX
  8
0
 10
1664.925039
 20
1377.710620
 42
0.020787
  0
VERTEX
  8
0
 10
1662.379976
 20
1372.102591
 42
0.016681
  0
VERTEX
  8
0
 10
1660.100139
 20
1365.878299
 42
0.000000
  0
VERTEX
  8
0
 10
1657.922329
 20
1359.256598
 42
0.000000
  0
VERTEX
  8
0
 10
1652.711165
 20
1357.745799
 42
0.034824
  0
VERTEX
  8
0
 10
1648.967873
 20
1356.371755
 42
0.000701
  0
VERTEX
  8
0
 10
1630.570115
 20
1348.093503
 42
0.001658
  0
VERTEX
  8
0
 10
1609.115106
 20
1338.317620
 42
0.001113
  0
VERTEX
  8
0
 10
1584.655183
 20
1327.008465
 42
0.000000
  0
VERTEX
  8
0
 10
1521.810365
 20
1297.781930
 42
0.000000
  0
VERTEX
  8
0
 10
1481.158453
 20
1298.524643
 42
0.000000
  0
VERTEX
  8
0
 10
1440.506541
 20
1299.267355
 42
0.000000
  0
VERTEX
  8
0
 10
1378.503271
 20
1328.070194
 42
0.001267
  0
VERTEX
  8
0
 10
1354.398277
 20
1339.193675
 42
0.001907
  0
VERTEX
  8
0
 10
1333.318148
 20
1348.759470
 42
0.000750
  0
VERTEX
  8
0
 10
1315.178969
 20
1356.874765
 42
0.043841
  0
VERTEX
  8
0
 10
1311.750000
 20
1358.055231
 42
-0.017674
  0
VERTEX
  8
0
 10
1309.929878
 20
1358.577182
 42
-0.026869
  0
VERTEX
  8
0
 10
1308.395313
 20
1359.169457
 42
-0.025079
  0
VERTEX
  8
0
 10
1307.251154
 20
1359.753842
 42
-0.268281
  0
VERTEX
  8
0
 10
1307.000000
 20
1360.188233
 42
0.085169
  0
VERTEX
  8
0
 10
1306.889506
 20
1360.832201
 42
0.003477
  0
VERTEX
  8
0
 10
1306.086395
 20
1363.054314
 42
0.005982
  0
VERTEX
  8
0
 10
1305.081409
 20
1365.678593
 42
0.004197
  0
VERTEX
  8
0
 10
1303.889857
 20
1368.609935
 42
0.038716
  0
VERTEX
  8
0
 10
1298.074754
 20
1380.004840
 42
0.034550
  0
VERTEX
  8
0
 10
1290.370594
 20
1390.834355
 42
0.034653
  0
VERTEX
  8
0
 10
1281.276101
 20
1400.466627
 42
0.039610
  0
VERTEX
  8
0
 10
1271.313365
 20
1408.289366
 42
0.032156
  0
VERTEX
  8
0
 10
1266.327912
 20
1411.158318
 42
0.001191
  0
VERTEX
  8
0
 10
1246.831338
 20
1420.709107
 42
0.002160
  0
VERTEX
  8
0
 10
1223.687671
 20
1431.854744
 42
0.001516
  0
VERTEX
  8
0
 10
1197.538000
 20
1444.211983
 42
0.000000
  0
VERTEX
  8
0
 10
1130.576000
 20
1475.607394
 42
0.000000
  0
VERTEX
  8
0
 10
1130.841411
 20
1488.553697
 42
0.007315
  0
VERTEX
  8
0
 10
1130.882259
 20
1495.514265
 42
0.019031
  0
VERTEX
  8
0
 10
1130.647798
 20
1500.518379
 42
0.023458
  0
VERTEX
  8
0
 10
1130.074745
 20
1504.841540
 42
0.017970
  0
VERTEX
  8
0
 10
1129.059255
 20
1509.500000
 42
0.059823
  0
VERTEX
  8
0
 10
1122.436687
 20
1526.570951
 42
0.058713
  0
VERTEX
  8
0
 10
1111.928114
 20
1541.707287
 42
0.055258
  0
VERTEX
  8
0
 10
1097.558463
 20
1554.729270
 42
0.043348
  0
VERTEX
  8
0
 10
1079.500000
 20
1565.534235
 42
0.005801
  0
VERTEX
  8
0
 10
1049.657318
 20
1579.618165
 42
0.000463
  0
VERTEX
  8
0
 10
970.312819
 20
1615.855536
 42
0.000109
  0
VERTEX
  8
0
 10
883.401963
 20
1655.428351
 42
0.031619
  0
VERTEX
  8
0
 10
876.000000
 20
1658.246954
 42
0.051694
  0
VERTEX
  8
0
 10
867.261425
 20
1659.994029
 42
0.023560
  0
VERTEX
  8
0
 10
855.614674
 20
1660.540866
 42
0.023597
  0
VERTEX
  8
0
 10
843.855190
 20
1659.983292
 42
0.046899
  0
VERTEX
  8
0
 10
834.700818
 20
1658.238918
 42
0.028625
  0
VERTEX
  8
0
 10
825.029855
 20
1654.826014
 42
0.030977
  0
VERTEX
  8
0
 10
816.072829
 20
1650.405809
 42
0.030988
  0
VERTEX
  8
0
 10
807.733471
 20
1644.914477
 42
0.028690
  0
VERTEX
  8
0
 10
799.907989
 20
1638.301249
 42
0.000000
  0
VERTEX
  8
0
 10
794.315978
 20
1632.996951
 42
0.000000
  0
VERTEX
  8
0
 10
779.407989
 20
1639.864145
 42
0.000143
  0
VERTEX
  8
0
 10
689.106602
 20
1681.429086
 42
0.003290
  0
VERTEX
  8
0
 10
663.188504
 20
1693.143991
 42
0.011203
  0
VERTEX
  8
0
 10
649.589181
 20
1698.822172
 42
0.042856
  0
VERTEX
  8
0
 10
640.792158
 20
1701.423052
 42
0.026727
  0
VERTEX
  8
0
 10
634.861886
 20
1702.309399
 42
0.014906
  0
VERTEX
  8
0
 10
627.573459
 20
1702.784625
 42
0.014870
  0
VERTEX
  8
0
 10
620.423364
 20
1702.824388
 42
0.033021
  0
SEQEND
  0
POLYLINE
  8
0
 66
1
 70
1
  0
VERTEX
  8
0
 10
2629.178001
 20
1646.858836
 42
-0.124933
  0
VERTEX
  8
0
 10
2632.496229
 20
1642.974987
 42
-0.111662
  0
VERTEX
  8
0
 10
2633.738685
 20
1637.809416
 42
-0.107694
  0
VERTEX
  8
0
 10
2632.648983
 20
1632.459025
 42
-0.109126
  0
VERTEX
  8
0
 10
2629.434221
 20
1628.076389
 42
-0.157563
  0
VERTEX
  8
0
 10
2622.494108
 20
1625.076681
 42
-0.159998
  0
VERTEX
  8
0
 10
2615.159800
 20
1626.731307
 42
-0.158978
  0
VERTEX
  8
0
 10
2610.202747
 20
1632.425669
 42
-0.155529
  0
VERTEX
  8
0
 10
2609.500713
 20
1640.003245
 42
-0.089439
  0
VERTEX
  8
0
 10
2610.655443
 20
1642.776040
 42
-0.045611
  0
VERTEX
  8
0
 10
2612.988938
 20
1645.756979
 42
-0.045754
  0
VERTEX
  8
0
 10
2615.761941
 20
1648.208914
 42
-0.110009
  0
VERTEX
  8
0
 10
2618.258484
 20
1649.304232
 42
-0.059121
  0
VERTEX
  8
0
 10
2620.945365
 20
1649.509378
 42
-0.044632
  0
VERTEX
  8
0
 10
2623.882664
 20
1649.122057
 42
-0.044218
  0
VERTEX
  8
0
 10
2626.737015
 20
1648.211851
 42
-0.054586
  0
SEQEND
  0
POLYLINE
  8
0
 66
1
 70
1
  0
VERTEX
  8
0
 10
342.613215
 20
1642.715651
 42
-0.028130
  0
VERTEX
  8
0
 10
344.426056
 20
1640.856293
 42
-0.059053
  0
VERTEX
  8
0
 10
345.561541
 20
1639.191263
 42
-0.061603
  0
VERTEX
  8
0
 10
346.248039
 20
1637.353477
 42
-0.033168
  0
VERTEX
  8
0
 10
346.653337
 20
1634.965651
 42
-0.147941
  0
VERTEX
  8
0
 10
345.234973
 20
1627.666628
 42
-0.158105
  0
VERTEX
  8
0
 10
340.031074
 20
1622.605407
 42
-0.157638
  0
VERTEX
  8
0
 10
332.834404
 20
1621.553176
 42
-0.147005
  0
VERTEX
  8
0
 10
326.149046
 20
1624.860770
 42
-0.151420
  0
VERTEX
  8
0
 10
322.588316
 20
1631.095918
 42
-0.150696
  0
VERTEX
  8
0
 10
323.169000
 20
1638.265094
 42
-0.150030
  0
VERTEX
  8
0
 10
327.692572
 20
1643.884227
 42
-0.149897
  0
VERTEX
  8
0
 10
334.591410
 20
1646.000000
 42
-0.031523
  0
VERTEX
  8
0
 10
337.027832
 20
1645.846242
 42
-0.065734
  0
VERTEX
  8
0
 10
338.863741
 20
1645.363100
 42
-0.062401
  0
VERTEX
  8
0
 10
340.570344
 20
1644.401205
 42
-0.025989
  0
SEQEND
  0
POLYLINE
  8
0
 66
1
 70
1
  0
VERTEX
  8
0
 10
1871.303511
 20
1474.797846
 42
-0.130539
  0
VERTEX
  8
0
 10
1874.398924
 20
1472.006842
 42
-0.083707
  0
VERTEX
  8
0
 10
1876.340578
 20
1467.544751
 42
-0.080022
  0
VERTEX
  8
0
 10
1876.765225
 20
1462.483426
 42
-0.100650
  0
VERTEX
  8
0
 10
1875.483073
 20
1457.967267
 42
-0.127289
  0
VERTEX
  8
0
 10
1872.157716
 20
1454.254920
 42
-0.100836
  0
VERTEX
  8
0
 10
1867.149777
 20
1452.219044
 42
-0.099876
  0
VERTEX
  8
0
 10
1861.702368
 20
1452.295108
 42
-0.122216
  0
VERTEX
  8
0
 10
1857.143477
 20
1454.532726
 42
-0.182417
  0
VERTEX
  8
0
 10
1852.753615
 20
1462.372936
 42
-0.192174
  0
VERTEX
  8
0
 10
1854.763690
 20
1470.951551
 42
-0.186839
  0
VERTEX
  8
0
 10
1862.205564
 20
1475.950472
 42
-0.175829
  0
SEQEND
  0
POLYLINE
  8
0
 66
1
 70
1
  0
VERTEX
  8
0
 10
1106.810176
 20
1473.974365
 42
-0.112518
  0
VERTEX
  8
0
 10
1110.707923
 20
1470.182705
 42
-0.115839
  0
VERTEX
  8
0
 10
1112.525627
 20
1465.115967
 42
-0.115244
  0
VERTEX
  8
0
 10
1111.902008
 20
1459.748875
 42
-0.110509
  0
VERTEX
  8
0
 10
1108.965231
 20
1455.119077
 42
-0.134559
  0
VERTEX
  8
0
 10
1102.849963
 20
1451.634849
 42
-0.152119
  0
VERTEX
  8
0
 10
1096.122811
 20
1451.981932
 42
-0.150697
  0
VERTEX
  8
0
 10
1090.737799
 20
1456.097915
 42
-0.131562
  0
VERTEX
  8
0
 10
1088.248770
 20
1462.762799
 42
-0.022006
  0
VERTEX
  8
0
 10
1088.106075
 20
1465.515650
 42
-0.071359
  0
VERTEX
  8
0
 10
1088.351081
 20
1467.323654
 42
-0.077112
  0
VERTEX
  8
0
 10
1089.082227
 20
1468.913324
 42
-0.028633
  0
VERTEX
  8
0
 10
1090.560866
 20
1470.889965
 42
-0.071185
  0
VERTEX
  8
0
 10
1094.217261
 20
1474.156609
 42
-0.100194
  0
VERTEX
  8
0
 10
1098.254919
 20
1475.803613
 42
-0.103609
  0
VERTEX
  8
0
 10
1102.512382
 20
1475.723154
 42
-0.080707
  0
SEQEND
  0
POLYLINE
  8
0
 66
1
 70
1
  0
VERTEX
  8
0
 10
2945.282119
 20
976.638016
 42
-0.052404
  0
VERTEX
  8
0
 10
2948.292116
 20
974.973642
 42
-0.076636
  0
VERTEX
  8
0
 10
2950.477394
 20
972.885004
 42
-0.077046
  0
VERTEX
  8
0
 10
2951.924407
 20
970.244078
 42
-0.053582
  0
VERTEX
  8
0
 10
2952.735505
 20
966.935294
 42
-0.138395
  0
VERTEX
  8
0
 10
2951.763326
 20
960.120999
 42
-0.146838
  0
VERTEX
  8
0
 10
2947.378951
 20
955.002997
 42
-0.145697
  0
VERTEX
  8
0
 10
2940.871261
 20
953.121107
 42
-0.135737
  0
VERTEX
  8
0
 10
2934.189824
 20
955.025635
 42
-0.075878
  0
VERTEX
  8
0
 10
2931.903350
 20
956.947499
 42
-0.049095
  0
VERTEX
  8
0
 10
2929.884713
 20
959.761697
 42
-0.049398
  0
VERTEX
  8
0
 10
2928.469428
 20
962.885347
 42
-0.081858
  0
VERTEX
  8
0
 10
2928.000000
 20
965.733483
 42
-0.101485
  0
VERTEX
  8
0
 10
2928.544478
 20
968.388413
 42
-0.047584
  0
VERTEX
  8
0
 10
2930.232028
 20
971.480018
 42
-0.046831
  0
VERTEX
  8
0
 10
2932.555190
 20
974.304355
 42
-0.074284
  0
VERTEX
  8
0
 10
2935.061664
 20
976.172735
 42
-0.033295
  0
VERTEX
  8
0
 10
2937.861274
 20
977.442167
 42
-0.078573
  0
VERTEX
  8
0
 10
2940.100200
 20
977.901421
 42
-0.078483
  0
VERTEX
  8
0
 10
2942.373167
 20
977.647731
 42
-0.033161
  0
SEQEND
  0
POLYLINE
  8
0
 66
1
 70
1
  0
VERTEX
  8
0
 10
35.793567
 20
969.520248
 42
-0.090185
  0
VERTEX
  8
0
 10
39.280434
 20
965.307551
 42
-0.111884
  0
VERTEX
  8
0
 10
40.725511
 20
960.441614
 42
-0.114821
  0
VERTEX
  8
0
 10
39.917867
 20
955.524558
 42
-0.098809
  0
VERTEX
  8
0
 10
37.004291
 20
951.158137
 42
-0.150128
  0
VERTEX
  8
0
 10
30.387188
 20
947.650997
 42
-0.159480
  0
VERTEX
  8
0
 10
23.119089
 20
948.578743
 42
-0.159541
  0
VERTEX
  8
0
 10
17.807821
 20
953.623530
 42
-0.150248
  0
VERTEX
  8
0
 10
16.346663
 20
960.965651
 42
-0.134239
  0
VERTEX
  8
0
 10
18.676098
 20
966.994621
 42
-0.130938
  0
VERTEX
  8
0
 10
23.767486
 20
971.068340
 42
-0.134752
  0
VERTEX
  8
0
 10
30.091160
 20
972.001631
 42
-0.145551
  0
SEQEND
  0
POLYLINE
  8
0
 66
1
 70
1
  0
VERTEX
  8
0
 10
2443.079550
 20
458.293937
 42
-0.079668
  0
VERTEX
  8
0
 10
2445.381455
 20
456.384149
 42
-0.056876
  0
VERTEX
  8
0
 10
2447.290737
 20
453.626638
 42
-0.055672
  0
VERTEX
  8
0
 10
2448.567476
 20
450.436976
 42
-0.067480
  0
VERTEX
  8
0
 10
2449.000000
 20
447.246754
 42
-0.130182
  0
VERTEX
  8
0
 10
2447.727472
 20
442.442104
 42
-0.099664
  0
VERTEX
  8
0
 10
2444.144003
 20
438.327315
 42
-0.097232
  0
VERTEX
  8
0
 10
2439.159159
 20
435.846516
 42
-0.116858
  0
VERTEX
  8
0
 10
2433.938364
 20
435.662327
 42
-0.122214
  0
VERTEX
  8
0
 10
2429.399269
 20
437.802666
 42
-0.097309
  0
VERTEX
  8
0
 10
2425.929075
 20
441.982057
 42
-0.097966
  0
VERTEX
  8
0
 10
2424.313872
 20
447.137085
 42
-0.125916
  0
VERTEX
  8
0
 10
2425.015290
 20
452.036913
 42
-0.104860
  0
VERTEX
  8
0
 10
2428.090832
 20
456.516482
 42
-0.107092
  0
VERTEX
  8
0
 10
2432.698541
 20
459.321327
 42
-0.108274
  0
VERTEX
  8
0
 10
2438.011325
 20
459.949729
 42
-0.109330
  0
SEQEND
  0
POLYLINE
  8
0
 66
1
 70
1
  0
VERTEX
  8
0
 10
544.749399
 20
441.576390
 42
-0.141973
  0
VERTEX
  8
0
 10
547.880367
 20
435.253101
 42
-0.145961
  0
VERTEX
  8
0
 10
547.098295
 20
428.310621
 42
-0.147845
  0
VERTEX
  8
0
 10
542.659029
 20
422.993003
 42
-0.146438
  0
VERTEX
  8
0
 10
536.000000
 20
421.000000
 42
-0.145696
  0
VERTEX
  8
0
 10
529.540905
 20
422.922952
 42
-0.139869
  0
VERTEX
  8
0
 10
525.062008
 20
428.090310
 42
-0.139948
  0
VERTEX
  8
0
 10
523.985620
 20
434.840708
 42
-0.145908
  0
VERTEX
  8
0
 10
526.668438
 20
441.017808
 42
-0.038638
  0
VERTEX
  8
0
 10
529.150325
 20
443.543033
 42
-0.080309
  0
VERTEX
  8
0
 10
531.488725
 20
444.997851
 42
-0.082733
  0
VERTEX
  8
0
 10
534.119821
 20
445.617175
 42
-0.043083
  0
VERTEX
  8
0
 10
537.499399
 20
445.549492
 42
-0.041234
  0
VERTEX
  8
0
 10
539.581225
 20
445.152227
 42
-0.057648
  0
VERTEX
  8
0
 10
541.334672
 20
444.439346
 42
-0.053076
  0
VERTEX
  8
0
 10
542.981510
 20
443.294775
 42
-0.028897
  0
SEQEND
  0
POLYLINE
  8
0
 66
1
 70
1
  0
VERTEX
  8
0
 10
1495.894018
 20
33.435724
 42
-0.149549
  0
VERTEX
  8
0
 10
1499.926521
 20
27.204867
 42
-0.157366
  0
VERTEX
  8
0
 10
1499.673887
 20
19.922731
 42
-0.157857
  0
VERTEX
  8
0
 10
1495.215529
 20
14.177970
 42
-0.150544
  0
VERTEX
  8
0
 10
1488.145781
 20
12.000000
 42
-0.048527
  0
VERTEX
  8
0
 10
1484.523883
 20
12.352351
 42
-0.080128
  0
VERTEX
  8
0
 10
1481.646788
 20
13.415211
 42
-0.084686
  0
VERTEX
  8
0
 10
1479.357363
 20
15.277029
 42
-0.060530
  0
VERTEX
  8
0
 10
1477.494289
 20
18.011044
 42
-0.120210
  0
VERTEX
  8
0
 10
1475.980783
 20
24.250374
 42
-0.134441
  0
VERTEX
  8
0
 10
1477.618588
 20
30.201222
 42
-0.135915
  0
VERTEX
  8
0
 10
1482.038912
 20
34.442846
 42
-0.124013
  0
VERTEX
  8
0
 10
1488.173275
 20
35.995033
 42
-0.027543
  0
VERTEX
  8
0
 10
1490.597344
 20
35.863986
 42
-0.052801
  0
VERTEX
  8
0
 10
1492.498317
 20
35.449692
 42
-0.056991
  0
VERTEX
  8
0
 10
1494.173996
 20
34.673177
 42
-0.037944
  0
SEQEND
  0
ENDSEC
  0
EOF
