<?xml version="1.0" encoding="utf-8"?>
<!-- Generator: Fusion 360, Shaper Origin Export Add-In, Version 1.5.0  -->
<svg enable-background="new 0 0 25.115674 14.4212668" height="14.4212668cm" shaper:fusionaddin="version:1.5.0" version="1.1" viewBox="0 0 25.115674 14.4212668" width="25.115674cm" x="0cm" xml:space="preserve" xmlns="http://www.w3.org/2000/svg" xmlns:shaper="http://www.shapertools.com/namespaces/shaper" xmlns:xlink="http://www.w3.org/1999/xlink" y="0cm"><path d="M-15.1557372,7.6611487 L-14.0943192,7.1645131 -14.0895703,7.1623776 -14.0899508,7.1612536 -14.0986934,7.1337767 -14.1071963,7.1030718 -14.1141004,7.0741611 -14.1206319,7.0433696 -14.1259353,7.0110671 -14.1301823,6.9789785 -14.133503,6.9413439 -14.1345286,6.9064742 -14.1345286,6.8714827 -14.1321951,6.8312303 -14.127938,6.7939805 -14.121069,6.7502683 -14.1084458,6.6997756 -14.0931936,6.654019 -14.0749424,6.610081 -14.0546935,6.5702364 -14.0333076,6.5337545 -14.0082138,6.4967742 -13.9810158,6.4622792 -13.9555407,6.4339092 -13.9288249,6.4066127 -13.8990023,6.3798331 -13.8711448,6.3573328 -13.8440533,6.3372651 -13.8162477,6.318397 -13.7890398,6.3015093 -13.7637253,6.2869213 -13.7400825,6.274131 -13.7174713,6.2624606 -13.6922601,6.2500551 -11.9896173,5.4791551 -11.9250031,5.4638229 -11.8884306,5.4575173 -11.8504909,5.4528581 -11.8080928,5.4506266 -11.7723908,5.4512529 -11.7363808,5.453182 -11.6966906,5.4582335 -11.6614052,5.4647678 -11.6252463,5.4734728 -11.5902273,5.4842479 -11.5565839,5.4965406 -11.5243178,5.5104593 -11.4973963,5.5236454 -11.4677399,5.5393814 -11.439587,5.5567523 -11.4101047,5.5761982 -11.3848562,5.5957084 -11.3636138,5.6126057 -11.3377718,5.6353712 -11.3164956,5.6561285 -11.2944111,5.6787793 -11.289094,5.6849586 -10.7213604,5.4199742 -11.3142342,4.1334156 -11.3278788,4.069741 -11.3340847,4.0356086 -11.3383287,3.9967055 -11.3400728,3.9647298 -11.3407342,3.9290121 -11.3385387,3.8894916 -11.3348685,3.8564603 -11.3298614,3.823914 -11.323245,3.7926363 -11.3150309,3.7597802 -11.3048346,3.7279167 -11.2938127,3.6973004 -11.2804971,3.6662306 -11.2659763,3.6359263 -11.2503109,3.6076081 -11.2349406,3.5819909 -11.2179762,3.5565443 -11.199279,3.5306095 -11.1787872,3.5052961 -11.1595485,3.483309 -11.1391982,3.4618587 -11.1179897,3.441194 -11.0941668,3.4197533 -11.0696125,3.3998761 -11.0452982,3.3816404 -11.0191385,3.3638042 -10.9940954,3.3483521 -10.9680971,3.3334169 -10.9409378,3.3195601 -10.9137938,3.306819 -10.8844619,3.2947412 -10.8806302,3.2933411 -9.2747702,2.5364233 -7.7728974,1.4822971 -6.4500765,0.1625148 -6.403934,0.1281176 -6.370383,0.1059501 -6.3362604,0.0861949 -6.3017088,0.0686262 -6.267621,0.0536045 -6.2340291,0.0407276 -6.1998232,0.0295125 -6.1680478,0.0208 -6.1360371,0.0131784 -6.101293,0.0066638 -6.0729556,0.0026789 -6.0439775,-0.0009434 -6.0146687,-0.0031637 -5.9919968,-0.0045589 -5.9625002,-0.0058797 0,-0 0.0561885,0.008263 0.0949869,0.0160227 0.1325116,0.0259902 0.1715636,0.0383877 0.2068055,0.0524844 0.2382908,0.0663593 0.2713244,0.0831658 0.2999706,0.0995351 0.3293075,0.1176706 0.3554646,0.1359313 0.3796011,0.1535695 0.4030906,0.1724532 0.4226099,0.1888494 0.4434919,0.2072256 0.461881,0.2244653 0.4787295,0.2406118 0.4935652,0.2554476 1.7645877,1.5254738 3.2546928,2.5620155 4.9294879,3.3477156 4.9705523,3.3736951 4.9976402,3.3925388 5.0288209,3.416633 5.0562453,3.4413819 5.0790714,3.4636226 5.1025486,3.4890034 5.1251017,3.5160671 5.1478347,3.5466146 5.1663071,3.5752787 5.1819786,3.6015844 5.1991592,3.6338839 5.2130501,3.6648228 5.2243824,3.692587 5.2348813,3.7223338 5.2444937,3.753574 5.2530605,3.7878413 5.2592989,3.8202811 5.2635957,3.8492843 5.2671805,3.8809498 5.2689916,3.9135503 5.269582,3.9460246 5.268392,3.9781554 5.2660181,4.0102029 5.2614325,4.0455775 5.2561341,4.0741892 5.2495714,4.1058095 5.2406478,4.1373394 5.2312081,4.1680183 5.2177967,4.2028881 5.2070163,4.227389 4.6574995,5.4204522 5.1903632,5.6714519 5.2196734,5.6847631 5.2278327,5.674972 5.2487472,5.651507 5.2739365,5.625718 5.3027061,5.5995056 5.3331059,5.5749271 5.3650139,5.5521357 5.3995607,5.5304592 5.4380393,5.5097948 5.476067,5.4928181 5.5192885,5.4764238 5.56633,5.4635253 5.6088766,5.454883 5.6514919,5.4491586 5.702471,5.4455172 5.7455447,5.4469295 5.7774238,5.4490547 5.8090198,5.4527409 5.8377468,5.45705 5.8661005,5.4623363 5.891346,5.4678988 5.9202677,5.4748799 5.9470278,5.482861 5.9708547,5.4902556 5.9951602,5.4987838 6.0194452,5.5077309 6.0635687,5.5258531 7.7381052,6.3095083 7.7792073,6.3344919 7.8108325,6.3562342 7.8398573,6.3789493 7.869408,6.4044703 7.8952706,6.4303329 7.9184761,6.4553705 7.9440011,6.4865676 7.9640305,6.5147339 7.98452,6.5457988 8.002125,6.5777486 8.0172368,6.6073677 8.0311135,6.6395364 8.0431498,6.6708306 8.0533471,6.7026223 8.062274,6.7347592 8.0699594,6.7699841 8.0750954,6.8013703 8.0791689,6.8333767 8.0814892,6.8658615 8.0826227,6.8981644 8.0820556,6.92992 8.0803591,6.9621529 8.0765597,6.9976141 8.0715051,7.0290649 8.0659063,7.0575681 8.0585028,7.0888904 8.0485034,7.1232636 8.0374261,7.1547463 8.0338611,7.1637438 8.0349507,7.1642494 9.194351,7.7058785 9.2416462,7.7347811 9.2752739,7.7594872 9.3052019,7.7836843 9.3368708,7.8131437 9.363701,7.8419862 9.3876176,7.8704276 9.4112077,7.9023436 9.4318198,7.9342591 9.4506111,7.9671438 9.4680299,8.0026781 9.4821737,8.036752 9.4941147,8.0700611 9.504778,8.1060498 9.5123366,8.1386097 9.5185491,8.170237 9.5235413,8.2058061 9.5266462,8.2412028 9.5277574,8.2734267 9.5277574,8.3053911 9.5261068,8.3373019 9.5233698,8.3690513 9.5190217,8.4005754 9.513519,8.4324908 9.5063655,8.463856 9.4981386,8.4951184 9.4892955,8.5226304 9.4790003,8.552974 9.465586,8.5850518 9.4545403,8.6094443 9.446909,8.6250003 7.0705196,13.7141016 7.0526575,13.746746 7.0327678,13.7794678 7.0089568,13.8130833 6.9860862,13.841517 6.9621255,13.8686305 6.9342687,13.8964873 6.9047041,13.9226141 6.8772549,13.9439635 6.8474179,13.9653683 6.8173705,13.9837647 6.7886668,14.0001668 6.7531324,14.0175856 6.7221296,14.0304547 6.692112,14.0417821 6.6562875,14.0530602 6.6238403,14.061172 6.5928681,14.0678089 6.5576651,14.0734665 6.5254236,14.0768604 6.4900152,14.0793452 6.45425,14.0793452 6.4260078,14.0783542 6.3904454,14.0759016 6.3552015,14.0709551 6.3207417,14.0649095 6.2850043,14.0561319 6.2565452,14.0478529 6.2240546,14.0372196 6.1869646,14.0223836 6.155698,14.0076352 6.1437248,14.0014184 5.072783,13.5053315 4.8422046,13.9839517 4.8188877,14.025034 4.8002152,14.0574191 4.7812451,14.0890359 4.7491524,14.1420374 4.7122893,14.186871 4.6872279,14.2132176 4.6624911,14.2373359 4.6321911,14.2633074 4.6017094,14.2861687 4.5715154,14.306298 4.5383752,14.3257499 4.5067205,14.3415772 4.4771677,14.3548458 4.4460231,14.3669223 4.4137126,14.3776924 4.3824421,14.3862765 4.3497996,14.3938094 4.3138392,14.3999159 4.2852951,14.4031473 4.2564991,14.4058136 4.2206235,14.4071423 4.1922335,14.4066166 4.1635077,14.405572 4.1313542,14.4025948 4.1031936,14.3989443 4.0752634,14.3942893 4.0476127,14.3886568 4.0193405,14.3818505 3.9905341,14.3736977 3.9631605,14.3647487 3.9359301,14.3547991 3.9111033,14.3445763 3.8865315,14.3337647 3.8593704,14.3204613 3.8499357,14.3153509 2.8229841,13.8321565 2.7926623,13.8175108 2.7811623,13.8306154 2.759698,13.854031 2.732281,13.8808521 2.7065712,13.9033481 2.6785654,13.92621 2.6467366,13.9488574 2.6142727,13.9696833 2.5764701,13.9906098 2.5364297,14.0092492 2.4980922,14.0239453 2.4586003,14.0366846 2.4130793,14.0478898 2.3680862,14.0552767 2.3233627,14.059749 2.2685157,14.0612517 2.2215449,14.0574016 2.189517,14.0532013 2.1604168,14.0483512 2.1321356,14.0425991 2.1046624,14.03608 2.0796115,14.0292866 2.0549464,14.0220571 2.0302662,14.0139723 2.0060157,14.0054633 1.9656648,13.9898893 1.9416877,13.9797937 1.9195775,13.969923 0.2852738,13.1971227 0.2428723,13.1708338 0.2111314,13.1483507 0.179066,13.1226984 0.1521747,13.0977279 0.1278369,13.0733901 0.1034379,13.045694 0.079732,13.0158922 0.0589917,12.9857853 0.0400472,12.9554742 0.0243963,12.9265801 0.0085787,12.8949449 -0.0049082,12.8621911 -0.0153361,12.8342004 -0.0270098,12.7978058 -0.0346068,12.766249 -0.0408681,12.7380733 -0.0467702,12.7020047 -0.0502312,12.6697023 -0.0525139,12.6377442 -0.0531501,12.6021171 -0.0521325,12.5736245 -0.0504217,12.5416887 -0.0464506,12.5099199 -0.0443895,12.495492 -1.2546277,11.9279553 -1.3213397,11.8762769 -1.3610883,11.8395859 -1.3984112,11.7998156 -1.4324724,11.7564651 -1.4623903,11.7118935 -1.4877226,11.6665309 -1.5113246,11.6168425 -1.5301791,11.5646784 -1.5439985,11.5163103 -1.5456933,11.5082134 -1.6371807,11.4784268 -2.6937745,10.9875436 -3.3830741,10.9925971 -4.4326651,11.4807099 -4.5190917,11.5045517 -4.5210353,11.5120487 -4.5306864,11.5440179 -4.5433441,11.5786599 -4.5566342,11.6094688 -4.568985,11.6351997 -4.5844454,11.6649311 -4.6025244,11.694855 -4.6190796,11.7199549 -4.6394322,11.7483251 -4.6597538,11.7731627 -4.6756368,11.7916212 -4.6953352,11.8133932 -4.7198825,11.8379405 -4.7413847,11.8573948 -4.7638235,11.8767739 -4.7872299,11.8949788 -4.8106631,11.912299 -4.8333518,11.9274248 -4.8585704,11.9437118 -4.8863758,11.9592828 -4.9118187,11.9727526 -4.9404572,11.9862296 -4.9539172,11.9919241 -5.9922368,12.4788124 -6.0192402,12.4913139 -6.0170099,12.5036818 -6.0123393,12.5348196 -6.0085413,12.5734318 -6.0073906,12.6085295 -6.0073906,12.6436437 -6.0099522,12.6820675 -6.0147635,12.7233076 -6.022867,12.7638252 -6.0322158,12.8012203 -6.0457116,12.8431283 -6.0622275,12.8837299 -6.0818554,12.9243876 -6.1044798,12.9629822 -6.13262,13.0051925 -6.1626829,13.0411213 -6.1870934,13.0678025 -6.2096954,13.0899023 -6.2314696,13.1102564 -6.2555111,13.1307173 -6.2786055,13.1490985 -6.3041398,13.1679939 -6.3269716,13.1833615 -6.3475249,13.1968002 -6.3711288,13.2112248 -6.3933795,13.2239983 -6.4149536,13.235766 -6.4367687,13.2470631 -6.4746796,13.2656861 -6.493925,13.2744643 -6.5129499,13.2831706 -6.5328954,13.2917678 -6.5583909,13.302571 -8.1156671,14.01918 -8.1633541,14.0342391 -8.2001279,14.0439164 -8.2377626,14.0511792 -8.2726736,14.056079 -8.3113835,14.0594746 -8.3502506,14.0601687 -8.385847,14.0588974 -8.418181,14.0560104 -8.4536536,14.0514957 -8.4934537,14.0435357 -8.525443,14.0350857 -8.5565353,14.0256993 -8.5911773,14.0130417 -8.6219862,13.9997516 -8.6492173,13.9866807 -8.6786196,13.9710794 -8.7071184,13.9538614 -8.7339632,13.9361552 -8.7619528,13.9156295 -8.7869763,13.8951558 -8.8107045,13.8742524 -8.8334971,13.8520296 -8.8554688,13.8289311 -8.8611536,13.8223245 -10.0723816,14.3790117 -10.1334139,14.3969624 -10.1809592,14.4067511 -10.2266783,14.4128022 -10.2699769,14.4153872 -10.3110347,14.4153872 -10.3515302,14.4129329 -10.3888478,14.408477 -10.4224868,14.4029542 -10.453152,14.3966408 -10.4816302,14.3899401 -10.5458062,14.3728264 -10.6143068,14.3351511 -10.647452,14.3142173 -10.6778199,14.2928473 -10.7092392,14.2682048 -10.7361173,14.2441265 -10.7608549,14.2204415 -10.7852336,14.194362 -10.8059201,14.1702277 -10.8273517,14.1434382 -10.8468091,14.1160927 -10.8631367,14.0916013 -10.8776096,14.0681892 -10.8902691,14.0467064 -10.9037979,14.0226082 -10.9164454,13.9981564 -10.9276883,13.9752829 -11.1437674,13.5083336 -12.3048441,14.0428255 -12.3538125,14.058595 -12.3900224,14.0679597 -12.4277513,14.0756334 -12.4686049,14.0812683 -12.5071926,14.0839295 -12.5423371,14.0845461 -12.5819185,14.0831812 -12.6209856,14.0789955 -12.6565569,14.0732787 -12.6880971,14.0663972 -12.7228001,14.0575637 -12.7620579,14.0444777 -12.7928299,14.0320506 -12.8206415,14.0197493 -12.8528711,14.0036345 -12.8820023,13.9867384 -12.9106019,13.9688636 -12.9394263,13.9481852 -12.9650098,13.9281634 -12.990635,13.9061138 -13.0139349,13.8839235 -13.0343093,13.8630397 -13.0556256,13.8395371 -13.0790498,13.8110482 -13.0977528,13.785194 -13.1158636,13.7588511 -13.1337963,13.7289632 -13.1482986,13.7025483 -13.162405,13.6743356 -13.1708127,13.6554181 -15.5381395,8.5635523 -15.55258,8.5241692 -15.5638359,8.4886243 -15.5737286,8.4490536 -15.5811707,8.4084598 -15.5859943,8.3671152 -15.5879166,8.3286689 -15.5879166,8.2901454 -15.5852752,8.2511851 -15.5810274,8.2159886 -15.5749482,8.1807295 -15.5663475,8.1430186 -15.5558324,8.107762 -15.544067,8.0737043 -15.5304327,8.0411005 -15.5171217,8.0123488 -15.5019956,7.983217 -15.4839329,7.9519084 -15.4648653,7.9230181 -15.446263,7.8969749 -15.4265977,7.8719947 -15.4059279,7.8476149 -15.3843091,7.8244142 -15.3618231,7.8019283 -15.3382437,7.7804448 -15.3140154,7.7599034 -15.2871678,7.7392084 -15.2609654,7.7208667 -15.2357289,7.7045372 -15.2098694,7.689121 -15.1808134,7.6732224 -15.1557372,7.6611487z" fill="rgb(0,0,0)" shaper:cutDepth="0.0016" shaper:pathType="exterior" transform="matrix(1,0,0,-1,15.5879166,14.4153872)" vector-effect="non-scaling-stroke" /><path d="M-15.4573636,8.1217218 a0.11,0.11 0 1,1 0.22,0 a0.11,0.11 0 1,1 -0.22,0z" fill="rgb(255,255,255)" shaper:cutDepth="0.0016" shaper:pathType="interior" stroke="rgb(0,0,0)" transform="matrix(1,0,0,-1,15.5879166,14.4153872)" vector-effect="non-scaling-stroke" /><path d="M-12.8647118,13.8291073 a0.11,0.11 0 1,1 0.22,0 a0.11,0.11 0 1,1 -0.22,0z" fill="rgb(255,255,255)" shaper:cutDepth="0.0016" shaper:pathType="interior" stroke="rgb(0,0,0)" transform="matrix(1,0,0,-1,15.5879166,14.4153872)" vector-effect="non-scaling-stroke" /><path d="M9.2040299,8.1688135 a0.11,0.11 0 1,1 0.22,0 a0.11,0.11 0 1,1 -0.22,0z" fill="rgb(255,255,255)" shaper:cutDepth="0.0016" shaper:pathType="interior" stroke="rgb(0,0,0)" transform="matrix(1,0,0,-1,15.5879166,14.4153872)" vector-effect="non-scaling-stroke" /><path d="M6.5009126,13.8576682 a0.11,0.11 0 1,1 0.22,0 a0.11,0.11 0 1,1 -0.22,0z" fill="rgb(255,255,255)" shaper:cutDepth="0.0016" shaper:pathType="interior" stroke="rgb(0,0,0)" transform="matrix(1,0,0,-1,15.5879166,14.4153872)" vector-effect="non-scaling-stroke" /><path d="M-11.1589241,3.664049 a0.11,0.11 0 1,1 0.22,0 a0.11,0.11 0 1,1 -0.22,0z" fill="rgb(255,255,255)" shaper:cutDepth="0.0016" shaper:pathType="interior" stroke="rgb(0,0,0)" transform="matrix(1,0,0,-1,15.5879166,14.4153872)" vector-effect="non-scaling-stroke" /><path d="M4.9350424,3.7863835 a0.11,0.11 0 1,1 0.22,0 a0.11,0.11 0 1,1 -0.22,0z" fill="rgb(255,255,255)" shaper:cutDepth="0.0016" shaper:pathType="interior" stroke="rgb(0,0,0)" transform="matrix(1,0,0,-1,15.5879166,14.4153872)" vector-effect="non-scaling-stroke" /><path d="M-6.3808464,12.3884805 a0.11,0.11 0 1,1 0.22,0 a0.11,0.11 0 1,1 -0.22,0z" fill="rgb(255,255,255)" shaper:cutDepth="0.0016" shaper:pathType="interior" stroke="rgb(0,0,0)" transform="matrix(1,0,0,-1,15.5879166,14.4153872)" vector-effect="non-scaling-stroke" /><path d="M0.092475,12.3924746 a0.11,0.11 0 1,1 0.22,0 a0.11,0.11 0 1,1 -0.22,0z" fill="rgb(255,255,255)" shaper:cutDepth="0.0016" shaper:pathType="interior" stroke="rgb(0,0,0)" transform="matrix(1,0,0,-1,15.5879166,14.4153872)" vector-effect="non-scaling-stroke" /><path d="M-3.0964244,0.1970552 a0.11,0.11 0 1,1 0.22,0 a0.11,0.11 0 1,1 -0.22,0z" fill="rgb(255,255,255)" shaper:cutDepth="0.0016" shaper:pathType="interior" stroke="rgb(0,0,0)" transform="matrix(1,0,0,-1,15.5879166,14.4153872)" vector-effect="non-scaling-stroke" /></svg>