  0
SECTION
  2
HEADER
  9
$ACADVER
  1
AC1014
  9
$HANDSEED
  5
FFFF
  9
$MEASUREMENT
 70
     1
  0
ENDSEC
  0
SECTION
  2
TABLES
  0
TABLE
  2
VPORT
  5
8
330
0
100
AcDbSymbolTable
 70
     4
  0
VPORT
  5
2E
330
8
100
AcDbSymbolTableRecord
100
AcDbViewportTableRecord
  2
*ACTIVE
 70
     0
 10
0.0
 20
0.0
 11
1.0
 21
1.0
 12
210.0
 22
148.5
 13
0.0
 23
0.0
 14
10.0
 24
10.0
 15
10.0
 25
10.0
 16
0.0
 26
0.0
 36
1.0
 17
0.0
 27
0.0
 37
0.0
 40
341.0
 41
1.24
 42
50.0
 43
0.0
 44
0.0
 50
0.0
 51
0.0
 71
     0
 72
   100
 73
     1
 74
     3
 75
     0
 76
     0
 77
     0
 78
     0
  0
ENDTAB
  0
TABLE
  2
LTYPE
  5
5
330
0
100
AcDbSymbolTable
 70
     1
  0
LTYPE
  5
14
330
5
100
AcDbSymbolTableRecord
100
AcDbLinetypeTableRecord
  2
BYBLOCK
 70
     0
  3

 72
    65
 73
     0
 40
0.0
  0
LTYPE
  5
15
330
5
100
AcDbSymbolTableRecord
100
AcDbLinetypeTableRecord
  2
BYLAYER
 70
     0
  3

 72
    65
 73
     0
 40
0.0
  0
LTYPE
  5
16
330
5
100
AcDbSymbolTableRecord
100
AcDbLinetypeTableRecord
  2
CONTINUOUS
 70
     0
  3
Solid line
 72
    65
 73
     0
 40
0.0
  0
ENDTAB
  0
TABLE
  2
LAYER
  5
2
100
AcDbSymbolTable
 70
1
  0
LAYER
  5
50
100
AcDbSymbolTableRecord
100
AcDbLayerTableRecord
  2
0
 70
0
  6
CONTINUOUS
  0
ENDTAB
  0
TABLE
  2
STYLE
  5
3
330
0
100
AcDbSymbolTable
 70
     1
  0
STYLE
  5
11
330
3
100
AcDbSymbolTableRecord
100
AcDbTextStyleTableRecord
  2
STANDARD
 70
     0
 40
0.0
 41
1.0
 50
0.0
 71
     0
 42
2.5
  3
txt
  4

  0
ENDTAB
  0
TABLE
  2
VIEW
  5
6
330
0
100
AcDbSymbolTable
 70
     0
  0
ENDTAB
  0
TABLE
  2
UCS
  5
7
330
0
100
AcDbSymbolTable
 70
     0
  0
ENDTAB
  0
TABLE
  2
APPID
  5
9
330
0
100
AcDbSymbolTable
 70
     2
  0
APPID
  5
12
330
9
100
AcDbSymbolTableRecord
100
AcDbRegAppTableRecord
  2
ACAD
 70
     0
  0
ENDTAB
  0
TABLE
  2
DIMSTYLE
  5
A
330
0
100
AcDbSymbolTable
 70
     1
  0
DIMSTYLE
105
27
330
A
100
AcDbSymbolTableRecord
100
AcDbDimStyleTableRecord
  2
ISO-25
 70
     0
  3

  4

  5

  6

  7

 40
1.0
 41
2.5
 42
0.625
 43
3.75
 44
1.25
 45
0.0
 46
0.0
 47
0.0
 48
0.0
140
2.5
141
2.5
142
0.0
143
0.03937007874016
144
1.0
145
0.0
146
1.0
147
0.625
 71
     0
 72
     0
 73
     0
 74
     0
 75
     0
 76
     0
 77
     1
 78
     8
170
     0
171
     3
172
     1
173
     0
174
     0
175
     0
176
     0
177
     0
178
     0
270
     2
271
     2
272
     2
273
     2
274
     3
340
11
275
     0
280
     0
281
     0
282
     0
283
     0
284
     8
285
     0
286
     0
287
     3
288
     0
  0
ENDTAB
  0
TABLE
  2
BLOCK_RECORD
  5
1
330
0
100
AcDbSymbolTable
 70
     1
  0
BLOCK_RECORD
  5
1F
330
1
100
AcDbSymbolTableRecord
100
AcDbBlockTableRecord
  2
*MODEL_SPACE
  0
BLOCK_RECORD
  5
1B
330
1
100
AcDbSymbolTableRecord
100
AcDbBlockTableRecord
  2
*PAPER_SPACE
  0
ENDTAB
  0
ENDSEC
  0
SECTION
  2
BLOCKS
  0
BLOCK
  5
20
330
1F
100
AcDbEntity
  8
0
100
AcDbBlockBegin
  2
*MODEL_SPACE
 70
     0
 10
0.0
 20
0.0
 30
0.0
  3
*MODEL_SPACE
  1

  0
ENDBLK
  5
21
330
1F
100
AcDbEntity
  8
0
100
AcDbBlockEnd
  0
BLOCK
  5
1C
330
1B
100
AcDbEntity
 67
     1
  8
0
100
AcDbBlockBegin
  2
*PAPER_SPACE
  1

  0
ENDBLK
  5
1D
330
1B
100
AcDbEntity
 67
     1
  8
0
100
AcDbBlockEnd
  0
ENDSEC
  0
SECTION
  2
ENTITIES
  0
SPLINE
  5
100
100
AcDbEntity
  8
0
 62
7
100
AcDbSpline
 70
8
 71
3
 72
8
 73
4
 74
0
 40
0
 40
0
 40
0
 40
0
 40
1
 40
1
 40
1
 40
1
 10
281.306880
 20
-370.101089
 30
0.0
 10
279.584795
 20
-370.101089
 30
0.0
 10
278.188769
 20
-371.497115
 30
0.0
 10
278.188769
 20
-373.219200
 30
0.0
  0
SPLINE
  5
101
100
AcDbEntity
  8
0
 62
7
100
AcDbSpline
 70
8
 71
3
 72
8
 73
4
 74
0
 40
0
 40
0
 40
0
 40
0
 40
1
 40
1
 40
1
 40
1
 10
278.188769
 20
-373.219200
 30
0.0
 10
278.188769
 20
-374.941285
 30
0.0
 10
279.584795
 20
-376.337311
 30
0.0
 10
281.306880
 20
-376.337311
 30
0.0
  0
SPLINE
  5
102
100
AcDbEntity
  8
0
 62
7
100
AcDbSpline
 70
8
 71
3
 72
8
 73
4
 74
0
 40
0
 40
0
 40
0
 40
0
 40
1
 40
1
 40
1
 40
1
 10
281.306880
 20
-376.337311
 30
0.0
 10
283.028965
 20
-376.337311
 30
0.0
 10
284.424991
 20
-374.941285
 30
0.0
 10
284.424991
 20
-373.219200
 30
0.0
  0
SPLINE
  5
103
100
AcDbEntity
  8
0
 62
7
100
AcDbSpline
 70
8
 71
3
 72
8
 73
4
 74
0
 40
0
 40
0
 40
0
 40
0
 40
1
 40
1
 40
1
 40
1
 10
284.424991
 20
-373.219200
 30
0.0
 10
284.424991
 20
-372.392225
 30
0.0
 10
284.096477
 20
-371.599122
 30
0.0
 10
283.511718
 20
-371.014362
 30
0.0
  0
SPLINE
  5
104
100
AcDbEntity
  8
0
 62
7
100
AcDbSpline
 70
8
 71
3
 72
8
 73
4
 74
0
 40
0
 40
0
 40
0
 40
0
 40
1
 40
1
 40
1
 40
1
 10
283.511718
 20
-371.014362
 30
0.0
 10
282.926958
 20
-370.429603
 30
0.0
 10
282.133855
 20
-370.101089
 30
0.0
 10
281.306880
 20
-370.101089
 30
0.0
  0
SPLINE
  5
105
100
AcDbEntity
  8
0
 62
7
100
AcDbSpline
 70
8
 71
3
 72
8
 73
4
 74
0
 40
0
 40
0
 40
0
 40
0
 40
1
 40
1
 40
1
 40
1
 10
438.346080
 20
-138.227249
 30
0.0
 10
437.084922
 20
-138.227249
 30
0.0
 10
435.947945
 20
-138.986952
 30
0.0
 10
435.465321
 20
-140.152111
 30
0.0
  0
SPLINE
  5
106
100
AcDbEntity
  8
0
 62
7
100
AcDbSpline
 70
8
 71
3
 72
8
 73
4
 74
0
 40
0
 40
0
 40
0
 40
0
 40
1
 40
1
 40
1
 40
1
 10
435.465321
 20
-140.152111
 30
0.0
 10
434.982697
 20
-141.317269
 30
0.0
 10
435.249469
 20
-142.658424
 30
0.0
 10
436.141242
 20
-143.550198
 30
0.0
  0
SPLINE
  5
107
100
AcDbEntity
  8
0
 62
7
100
AcDbSpline
 70
8
 71
3
 72
8
 73
4
 74
0
 40
0
 40
0
 40
0
 40
0
 40
1
 40
1
 40
1
 40
1
 10
436.141242
 20
-143.550198
 30
0.0
 10
437.033016
 20
-144.441971
 30
0.0
 10
438.374171
 20
-144.708743
 30
0.0
 10
439.539329
 20
-144.226119
 30
0.0
  0
SPLINE
  5
108
100
AcDbEntity
  8
0
 62
7
100
AcDbSpline
 70
8
 71
3
 72
8
 73
4
 74
0
 40
0
 40
0
 40
0
 40
0
 40
1
 40
1
 40
1
 40
1
 10
439.539329
 20
-144.226119
 30
0.0
 10
440.704488
 20
-143.743495
 30
0.0
 10
441.464191
 20
-142.606518
 30
0.0
 10
441.464191
 20
-141.345360
 30
0.0
  0
SPLINE
  5
109
100
AcDbEntity
  8
0
 62
7
100
AcDbSpline
 70
8
 71
3
 72
8
 73
4
 74
0
 40
0
 40
0
 40
0
 40
0
 40
1
 40
1
 40
1
 40
1
 10
441.464191
 20
-141.345360
 30
0.0
 10
441.464191
 20
-140.518385
 30
0.0
 10
441.135677
 20
-139.725282
 30
0.0
 10
440.550918
 20
-139.140522
 30
0.0
  0
SPLINE
  5
10a
100
AcDbEntity
  8
0
 62
7
100
AcDbSpline
 70
8
 71
3
 72
8
 73
4
 74
0
 40
0
 40
0
 40
0
 40
0
 40
1
 40
1
 40
1
 40
1
 10
440.550918
 20
-139.140522
 30
0.0
 10
439.966158
 20
-138.555763
 30
0.0
 10
439.173055
 20
-138.227249
 30
0.0
 10
438.346080
 20
-138.227249
 30
0.0
  0
LWPOLYLINE
  5
10b
100
AcDbEntity
  8
0
 62
7
100
AcDbPolyline
 90
1
 70
1
 10
281.306880
 20
-370.101089
 30
0.0
  0
SPLINE
  5
10c
100
AcDbEntity
  8
0
 62
7
100
AcDbSpline
 70
8
 71
3
 72
8
 73
4
 74
0
 40
0
 40
0
 40
0
 40
0
 40
1
 40
1
 40
1
 40
1
 10
407.165040
 20
-368.967809
 30
0.0
 10
405.903882
 20
-368.967809
 30
0.0
 10
404.766905
 20
-369.727512
 30
0.0
 10
404.284281
 20
-370.892671
 30
0.0
  0
SPLINE
  5
10d
100
AcDbEntity
  8
0
 62
7
100
AcDbSpline
 70
8
 71
3
 72
8
 73
4
 74
0
 40
0
 40
0
 40
0
 40
0
 40
1
 40
1
 40
1
 40
1
 10
404.284281
 20
-370.892671
 30
0.0
 10
403.801657
 20
-372.057829
 30
0.0
 10
404.068429
 20
-373.398984
 30
0.0
 10
404.960202
 20
-374.290758
 30
0.0
  0
SPLINE
  5
10e
100
AcDbEntity
  8
0
 62
7
100
AcDbSpline
 70
8
 71
3
 72
8
 73
4
 74
0
 40
0
 40
0
 40
0
 40
0
 40
1
 40
1
 40
1
 40
1
 10
404.960202
 20
-374.290758
 30
0.0
 10
405.851976
 20
-375.182531
 30
0.0
 10
407.193131
 20
-375.449303
 30
0.0
 10
408.358289
 20
-374.966679
 30
0.0
  0
SPLINE
  5
10f
100
AcDbEntity
  8
0
 62
7
100
AcDbSpline
 70
8
 71
3
 72
8
 73
4
 74
0
 40
0
 40
0
 40
0
 40
0
 40
1
 40
1
 40
1
 40
1
 10
408.358289
 20
-374.966679
 30
0.0
 10
409.523448
 20
-374.484055
 30
0.0
 10
410.283151
 20
-373.347078
 30
0.0
 10
410.283151
 20
-372.085920
 30
0.0
  0
SPLINE
  5
110
100
AcDbEntity
  8
0
 62
7
100
AcDbSpline
 70
8
 71
3
 72
8
 73
4
 74
0
 40
0
 40
0
 40
0
 40
0
 40
1
 40
1
 40
1
 40
1
 10
410.283151
 20
-372.085920
 30
0.0
 10
410.283151
 20
-371.258945
 30
0.0
 10
409.954637
 20
-370.465842
 30
0.0
 10
409.369878
 20
-369.881082
 30
0.0
  0
SPLINE
  5
111
100
AcDbEntity
  8
0
 62
7
100
AcDbSpline
 70
8
 71
3
 72
8
 73
4
 74
0
 40
0
 40
0
 40
0
 40
0
 40
1
 40
1
 40
1
 40
1
 10
409.369878
 20
-369.881082
 30
0.0
 10
408.785118
 20
-369.296323
 30
0.0
 10
407.992015
 20
-368.967809
 30
0.0
 10
407.165040
 20
-368.967809
 30
0.0
  0
LWPOLYLINE
  5
112
100
AcDbEntity
  8
0
 62
7
100
AcDbPolyline
 90
1
 70
1
 10
438.346080
 20
-138.227249
 30
0.0
  0
SPLINE
  5
113
100
AcDbEntity
  8
0
 62
7
100
AcDbSpline
 70
8
 71
3
 72
8
 73
4
 74
0
 40
0
 40
0
 40
0
 40
0
 40
1
 40
1
 40
1
 40
1
 10
70.409232
 20
-149.565809
 30
0.0
 10
69.148074
 20
-149.565809
 30
0.0
 10
68.011097
 20
-150.325512
 30
0.0
 10
67.528473
 20
-151.490671
 30
0.0
  0
SPLINE
  5
114
100
AcDbEntity
  8
0
 62
7
100
AcDbSpline
 70
8
 71
3
 72
8
 73
4
 74
0
 40
0
 40
0
 40
0
 40
0
 40
1
 40
1
 40
1
 40
1
 10
67.528473
 20
-151.490671
 30
0.0
 10
67.045849
 20
-152.655829
 30
0.0
 10
67.312621
 20
-153.996984
 30
0.0
 10
68.204394
 20
-154.888758
 30
0.0
  0
SPLINE
  5
115
100
AcDbEntity
  8
0
 62
7
100
AcDbSpline
 70
8
 71
3
 72
8
 73
4
 74
0
 40
0
 40
0
 40
0
 40
0
 40
1
 40
1
 40
1
 40
1
 10
68.204394
 20
-154.888758
 30
0.0
 10
69.096168
 20
-155.780531
 30
0.0
 10
70.437323
 20
-156.047303
 30
0.0
 10
71.602481
 20
-155.564679
 30
0.0
  0
SPLINE
  5
116
100
AcDbEntity
  8
0
 62
7
100
AcDbSpline
 70
8
 71
3
 72
8
 73
4
 74
0
 40
0
 40
0
 40
0
 40
0
 40
1
 40
1
 40
1
 40
1
 10
71.602481
 20
-155.564679
 30
0.0
 10
72.767640
 20
-155.082055
 30
0.0
 10
73.527343
 20
-153.945078
 30
0.0
 10
73.527343
 20
-152.683920
 30
0.0
  0
SPLINE
  5
117
100
AcDbEntity
  8
0
 62
7
100
AcDbSpline
 70
8
 71
3
 72
8
 73
4
 74
0
 40
0
 40
0
 40
0
 40
0
 40
1
 40
1
 40
1
 40
1
 10
73.527343
 20
-152.683920
 30
0.0
 10
73.527343
 20
-150.961835
 30
0.0
 10
72.131317
 20
-149.565809
 30
0.0
 10
70.409232
 20
-149.565809
 30
0.0
  0
LWPOLYLINE
  5
118
100
AcDbEntity
  8
0
 62
7
100
AcDbPolyline
 90
1
 70
1
 10
407.165040
 20
-368.967809
 30
0.0
  0
SPLINE
  5
119
100
AcDbEntity
  8
0
 62
7
100
AcDbSpline
 70
8
 71
3
 72
8
 73
4
 74
0
 40
0
 40
0
 40
0
 40
0
 40
1
 40
1
 40
1
 40
1
 10
118.031040
 20
-49.786409
 30
0.0
 10
116.769882
 20
-49.786409
 30
0.0
 10
115.632905
 20
-50.546112
 30
0.0
 10
115.150281
 20
-51.711271
 30
0.0
  0
SPLINE
  5
11a
100
AcDbEntity
  8
0
 62
7
100
AcDbSpline
 70
8
 71
3
 72
8
 73
4
 74
0
 40
0
 40
0
 40
0
 40
0
 40
1
 40
1
 40
1
 40
1
 10
115.150281
 20
-51.711271
 30
0.0
 10
114.667657
 20
-52.876429
 30
0.0
 10
114.934429
 20
-54.217584
 30
0.0
 10
115.826202
 20
-55.109358
 30
0.0
  0
SPLINE
  5
11b
100
AcDbEntity
  8
0
 62
7
100
AcDbSpline
 70
8
 71
3
 72
8
 73
4
 74
0
 40
0
 40
0
 40
0
 40
0
 40
1
 40
1
 40
1
 40
1
 10
115.826202
 20
-55.109358
 30
0.0
 10
116.717976
 20
-56.001131
 30
0.0
 10
118.059131
 20
-56.267903
 30
0.0
 10
119.224289
 20
-55.785279
 30
0.0
  0
SPLINE
  5
11c
100
AcDbEntity
  8
0
 62
7
100
AcDbSpline
 70
8
 71
3
 72
8
 73
4
 74
0
 40
0
 40
0
 40
0
 40
0
 40
1
 40
1
 40
1
 40
1
 10
119.224289
 20
-55.785279
 30
0.0
 10
120.389448
 20
-55.302655
 30
0.0
 10
121.149151
 20
-54.165678
 30
0.0
 10
121.149151
 20
-52.904520
 30
0.0
  0
SPLINE
  5
11d
100
AcDbEntity
  8
0
 62
7
100
AcDbSpline
 70
8
 71
3
 72
8
 73
4
 74
0
 40
0
 40
0
 40
0
 40
0
 40
1
 40
1
 40
1
 40
1
 10
121.149151
 20
-52.904520
 30
0.0
 10
121.149151
 20
-52.077545
 30
0.0
 10
120.820637
 20
-51.284442
 30
0.0
 10
120.235878
 20
-50.699682
 30
0.0
  0
SPLINE
  5
11e
100
AcDbEntity
  8
0
 62
7
100
AcDbSpline
 70
8
 71
3
 72
8
 73
4
 74
0
 40
0
 40
0
 40
0
 40
0
 40
1
 40
1
 40
1
 40
1
 10
120.235878
 20
-50.699682
 30
0.0
 10
119.651118
 20
-50.114923
 30
0.0
 10
118.858015
 20
-49.786409
 30
0.0
 10
118.031040
 20
-49.786409
 30
0.0
  0
LWPOLYLINE
  5
11f
100
AcDbEntity
  8
0
 62
7
100
AcDbPolyline
 90
1
 70
1
 10
70.409232
 20
-149.565809
 30
0.0
  0
SPLINE
  5
120
100
AcDbEntity
  8
0
 62
7
100
AcDbSpline
 70
8
 71
3
 72
8
 73
4
 74
0
 40
0
 40
0
 40
0
 40
0
 40
1
 40
1
 40
1
 40
1
 10
614.661120
 20
-130.289969
 30
0.0
 10
613.399962
 20
-130.289969
 30
0.0
 10
612.262985
 20
-131.049672
 30
0.0
 10
611.780361
 20
-132.214831
 30
0.0
  0
SPLINE
  5
121
100
AcDbEntity
  8
0
 62
7
100
AcDbSpline
 70
8
 71
3
 72
8
 73
4
 74
0
 40
0
 40
0
 40
0
 40
0
 40
1
 40
1
 40
1
 40
1
 10
611.780361
 20
-132.214831
 30
0.0
 10
611.297737
 20
-133.379989
 30
0.0
 10
611.564509
 20
-134.721144
 30
0.0
 10
612.456282
 20
-135.612918
 30
0.0
  0
SPLINE
  5
122
100
AcDbEntity
  8
0
 62
7
100
AcDbSpline
 70
8
 71
3
 72
8
 73
4
 74
0
 40
0
 40
0
 40
0
 40
0
 40
1
 40
1
 40
1
 40
1
 10
612.456282
 20
-135.612918
 30
0.0
 10
613.348056
 20
-136.504691
 30
0.0
 10
614.689211
 20
-136.771463
 30
0.0
 10
615.854369
 20
-136.288839
 30
0.0
  0
SPLINE
  5
123
100
AcDbEntity
  8
0
 62
7
100
AcDbSpline
 70
8
 71
3
 72
8
 73
4
 74
0
 40
0
 40
0
 40
0
 40
0
 40
1
 40
1
 40
1
 40
1
 10
615.854369
 20
-136.288839
 30
0.0
 10
617.019528
 20
-135.806215
 30
0.0
 10
617.779231
 20
-134.669238
 30
0.0
 10
617.779231
 20
-133.408080
 30
0.0
  0
SPLINE
  5
124
100
AcDbEntity
  8
0
 62
7
100
AcDbSpline
 70
8
 71
3
 72
8
 73
4
 74
0
 40
0
 40
0
 40
0
 40
0
 40
1
 40
1
 40
1
 40
1
 10
617.779231
 20
-133.408080
 30
0.0
 10
617.779231
 20
-132.581105
 30
0.0
 10
617.450717
 20
-131.788002
 30
0.0
 10
616.865958
 20
-131.203242
 30
0.0
  0
SPLINE
  5
125
100
AcDbEntity
  8
0
 62
7
100
AcDbSpline
 70
8
 71
3
 72
8
 73
4
 74
0
 40
0
 40
0
 40
0
 40
0
 40
1
 40
1
 40
1
 40
1
 10
616.865958
 20
-131.203242
 30
0.0
 10
616.281198
 20
-130.618483
 30
0.0
 10
615.488095
 20
-130.289969
 30
0.0
 10
614.661120
 20
-130.289969
 30
0.0
  0
LWPOLYLINE
  5
126
100
AcDbEntity
  8
0
 62
7
100
AcDbPolyline
 90
1
 70
1
 10
118.031040
 20
-49.786409
 30
0.0
  0
SPLINE
  5
127
100
AcDbEntity
  8
0
 62
7
100
AcDbSpline
 70
8
 71
3
 72
8
 73
4
 74
0
 40
0
 40
0
 40
0
 40
0
 40
1
 40
1
 40
1
 40
1
 10
254.661120
 20
-136.526609
 30
0.0
 10
253.399962
 20
-136.526609
 30
0.0
 10
252.262985
 20
-137.286312
 30
0.0
 10
251.780361
 20
-138.451471
 30
0.0
  0
SPLINE
  5
128
100
AcDbEntity
  8
0
 62
7
100
AcDbSpline
 70
8
 71
3
 72
8
 73
4
 74
0
 40
0
 40
0
 40
0
 40
0
 40
1
 40
1
 40
1
 40
1
 10
251.780361
 20
-138.451471
 30
0.0
 10
251.297737
 20
-139.616629
 30
0.0
 10
251.564509
 20
-140.957784
 30
0.0
 10
252.456282
 20
-141.849558
 30
0.0
  0
SPLINE
  5
129
100
AcDbEntity
  8
0
 62
7
100
AcDbSpline
 70
8
 71
3
 72
8
 73
4
 74
0
 40
0
 40
0
 40
0
 40
0
 40
1
 40
1
 40
1
 40
1
 10
252.456282
 20
-141.849558
 30
0.0
 10
253.348056
 20
-142.741331
 30
0.0
 10
254.689211
 20
-143.008103
 30
0.0
 10
255.854369
 20
-142.525479
 30
0.0
  0
SPLINE
  5
12a
100
AcDbEntity
  8
0
 62
7
100
AcDbSpline
 70
8
 71
3
 72
8
 73
4
 74
0
 40
0
 40
0
 40
0
 40
0
 40
1
 40
1
 40
1
 40
1
 10
255.854369
 20
-142.525479
 30
0.0
 10
257.019528
 20
-142.042855
 30
0.0
 10
257.779231
 20
-140.905878
 30
0.0
 10
257.779231
 20
-139.644720
 30
0.0
  0
SPLINE
  5
12b
100
AcDbEntity
  8
0
 62
7
100
AcDbSpline
 70
8
 71
3
 72
8
 73
4
 74
0
 40
0
 40
0
 40
0
 40
0
 40
1
 40
1
 40
1
 40
1
 10
257.779231
 20
-139.644720
 30
0.0
 10
257.779231
 20
-138.817745
 30
0.0
 10
257.450717
 20
-138.024642
 30
0.0
 10
256.865958
 20
-137.439882
 30
0.0
  0
SPLINE
  5
12c
100
AcDbEntity
  8
0
 62
7
100
AcDbSpline
 70
8
 71
3
 72
8
 73
4
 74
0
 40
0
 40
0
 40
0
 40
0
 40
1
 40
1
 40
1
 40
1
 10
256.865958
 20
-137.439882
 30
0.0
 10
256.281198
 20
-136.855123
 30
0.0
 10
255.488095
 20
-136.526609
 30
0.0
 10
254.661120
 20
-136.526609
 30
0.0
  0
LWPOLYLINE
  5
12d
100
AcDbEntity
  8
0
 62
7
100
AcDbPolyline
 90
1
 70
1
 10
614.661120
 20
-130.289969
 30
0.0
  0
SPLINE
  5
12e
100
AcDbEntity
  8
0
 62
7
100
AcDbSpline
 70
8
 71
3
 72
8
 73
4
 74
0
 40
0
 40
0
 40
0
 40
0
 40
1
 40
1
 40
1
 40
1
 10
496.172880
 20
-270.888689
 30
0.0
 10
494.911722
 20
-270.888689
 30
0.0
 10
493.774745
 20
-271.648392
 30
0.0
 10
493.292121
 20
-272.813551
 30
0.0
  0
SPLINE
  5
12f
100
AcDbEntity
  8
0
 62
7
100
AcDbSpline
 70
8
 71
3
 72
8
 73
4
 74
0
 40
0
 40
0
 40
0
 40
0
 40
1
 40
1
 40
1
 40
1
 10
493.292121
 20
-272.813551
 30
0.0
 10
492.809497
 20
-273.978709
 30
0.0
 10
493.076269
 20
-275.319864
 30
0.0
 10
493.968042
 20
-276.211638
 30
0.0
  0
SPLINE
  5
130
100
AcDbEntity
  8
0
 62
7
100
AcDbSpline
 70
8
 71
3
 72
8
 73
4
 74
0
 40
0
 40
0
 40
0
 40
0
 40
1
 40
1
 40
1
 40
1
 10
493.968042
 20
-276.211638
 30
0.0
 10
494.859816
 20
-277.103411
 30
0.0
 10
496.200971
 20
-277.370183
 30
0.0
 10
497.366129
 20
-276.887559
 30
0.0
  0
SPLINE
  5
131
100
AcDbEntity
  8
0
 62
7
100
AcDbSpline
 70
8
 71
3
 72
8
 73
4
 74
0
 40
0
 40
0
 40
0
 40
0
 40
1
 40
1
 40
1
 40
1
 10
497.366129
 20
-276.887559
 30
0.0
 10
498.531288
 20
-276.404935
 30
0.0
 10
499.290991
 20
-275.267958
 30
0.0
 10
499.290991
 20
-274.006800
 30
0.0
  0
SPLINE
  5
132
100
AcDbEntity
  8
0
 62
7
100
AcDbSpline
 70
8
 71
3
 72
8
 73
4
 74
0
 40
0
 40
0
 40
0
 40
0
 40
1
 40
1
 40
1
 40
1
 10
499.290991
 20
-274.006800
 30
0.0
 10
499.290991
 20
-273.179825
 30
0.0
 10
498.962477
 20
-272.386722
 30
0.0
 10
498.377718
 20
-271.801962
 30
0.0
  0
SPLINE
  5
133
100
AcDbEntity
  8
0
 62
7
100
AcDbSpline
 70
8
 71
3
 72
8
 73
4
 74
0
 40
0
 40
0
 40
0
 40
0
 40
1
 40
1
 40
1
 40
1
 10
498.377718
 20
-271.801962
 30
0.0
 10
497.792958
 20
-271.217203
 30
0.0
 10
496.999855
 20
-270.888689
 30
0.0
 10
496.172880
 20
-270.888689
 30
0.0
  0
LWPOLYLINE
  5
134
100
AcDbEntity
  8
0
 62
7
100
AcDbPolyline
 90
1
 70
1
 10
254.661120
 20
-136.526609
 30
0.0
  0
SPLINE
  5
135
100
AcDbEntity
  8
0
 62
7
100
AcDbSpline
 70
8
 71
3
 72
8
 73
4
 74
0
 40
0
 40
0
 40
0
 40
0
 40
1
 40
1
 40
1
 40
1
 10
569.306880
 20
-32.211569
 30
0.0
 10
568.045722
 20
-32.211569
 30
0.0
 10
566.908745
 20
-32.971272
 30
0.0
 10
566.426121
 20
-34.136431
 30
0.0
  0
SPLINE
  5
136
100
AcDbEntity
  8
0
 62
7
100
AcDbSpline
 70
8
 71
3
 72
8
 73
4
 74
0
 40
0
 40
0
 40
0
 40
0
 40
1
 40
1
 40
1
 40
1
 10
566.426121
 20
-34.136431
 30
0.0
 10
565.943497
 20
-35.301589
 30
0.0
 10
566.210269
 20
-36.642744
 30
0.0
 10
567.102042
 20
-37.534518
 30
0.0
  0
SPLINE
  5
137
100
AcDbEntity
  8
0
 62
7
100
AcDbSpline
 70
8
 71
3
 72
8
 73
4
 74
0
 40
0
 40
0
 40
0
 40
0
 40
1
 40
1
 40
1
 40
1
 10
567.102042
 20
-37.534518
 30
0.0
 10
567.993816
 20
-38.426291
 30
0.0
 10
569.334971
 20
-38.693063
 30
0.0
 10
570.500129
 20
-38.210439
 30
0.0
  0
SPLINE
  5
138
100
AcDbEntity
  8
0
 62
7
100
AcDbSpline
 70
8
 71
3
 72
8
 73
4
 74
0
 40
0
 40
0
 40
0
 40
0
 40
1
 40
1
 40
1
 40
1
 10
570.500129
 20
-38.210439
 30
0.0
 10
571.665288
 20
-37.727815
 30
0.0
 10
572.424991
 20
-36.590838
 30
0.0
 10
572.424991
 20
-35.329680
 30
0.0
  0
SPLINE
  5
139
100
AcDbEntity
  8
0
 62
7
100
AcDbSpline
 70
8
 71
3
 72
8
 73
4
 74
0
 40
0
 40
0
 40
0
 40
0
 40
1
 40
1
 40
1
 40
1
 10
572.424991
 20
-35.329680
 30
0.0
 10
572.424991
 20
-33.607595
 30
0.0
 10
571.028965
 20
-32.211569
 30
0.0
 10
569.306880
 20
-32.211569
 30
0.0
  0
LWPOLYLINE
  5
13a
100
AcDbEntity
  8
0
 62
7
100
AcDbPolyline
 90
1
 70
1
 10
496.172880
 20
-270.888689
 30
0.0
  0
SPLINE
  5
13b
100
AcDbEntity
  8
0
 62
7
100
AcDbSpline
 70
8
 71
3
 72
8
 73
4
 74
0
 40
0
 40
0
 40
0
 40
0
 40
1
 40
1
 40
1
 40
1
 10
197.401680
 20
-268.620689
 30
0.0
 10
196.140522
 20
-268.620689
 30
0.0
 10
195.003545
 20
-269.380392
 30
0.0
 10
194.520921
 20
-270.545551
 30
0.0
  0
SPLINE
  5
13c
100
AcDbEntity
  8
0
 62
7
100
AcDbSpline
 70
8
 71
3
 72
8
 73
4
 74
0
 40
0
 40
0
 40
0
 40
0
 40
1
 40
1
 40
1
 40
1
 10
194.520921
 20
-270.545551
 30
0.0
 10
194.038297
 20
-271.710709
 30
0.0
 10
194.305069
 20
-273.051864
 30
0.0
 10
195.196842
 20
-273.943638
 30
0.0
  0
SPLINE
  5
13d
100
AcDbEntity
  8
0
 62
7
100
AcDbSpline
 70
8
 71
3
 72
8
 73
4
 74
0
 40
0
 40
0
 40
0
 40
0
 40
1
 40
1
 40
1
 40
1
 10
195.196842
 20
-273.943638
 30
0.0
 10
196.088616
 20
-274.835411
 30
0.0
 10
197.429771
 20
-275.102183
 30
0.0
 10
198.594929
 20
-274.619559
 30
0.0
  0
SPLINE
  5
13e
100
AcDbEntity
  8
0
 62
7
100
AcDbSpline
 70
8
 71
3
 72
8
 73
4
 74
0
 40
0
 40
0
 40
0
 40
0
 40
1
 40
1
 40
1
 40
1
 10
198.594929
 20
-274.619559
 30
0.0
 10
199.760088
 20
-274.136935
 30
0.0
 10
200.519791
 20
-272.999958
 30
0.0
 10
200.519791
 20
-271.738800
 30
0.0
  0
SPLINE
  5
13f
100
AcDbEntity
  8
0
 62
7
100
AcDbSpline
 70
8
 71
3
 72
8
 73
4
 74
0
 40
0
 40
0
 40
0
 40
0
 40
1
 40
1
 40
1
 40
1
 10
200.519791
 20
-271.738800
 30
0.0
 10
200.519791
 20
-270.016715
 30
0.0
 10
199.123765
 20
-268.620689
 30
0.0
 10
197.401680
 20
-268.620689
 30
0.0
  0
LWPOLYLINE
  5
140
100
AcDbEntity
  8
0
 62
7
100
AcDbPolyline
 90
1
 70
1
 10
569.306880
 20
-32.211569
 30
0.0
  0
SPLINE
  5
141
100
AcDbEntity
  8
0
 62
7
100
AcDbSpline
 70
8
 71
3
 72
8
 73
4
 74
0
 40
0
 40
0
 40
0
 40
0
 40
1
 40
1
 40
1
 40
1
 10
382.787280
 20
-368.259149
 30
0.0
 10
381.239496
 20
-368.259149
 30
0.0
 10
379.844116
 20
-369.191512
 30
0.0
 10
379.251804
 20
-370.621478
 30
0.0
  0
SPLINE
  5
142
100
AcDbEntity
  8
0
 62
7
100
AcDbSpline
 70
8
 71
3
 72
8
 73
4
 74
0
 40
0
 40
0
 40
0
 40
0
 40
1
 40
1
 40
1
 40
1
 10
379.251804
 20
-370.621478
 30
0.0
 10
378.659493
 20
-372.051444
 30
0.0
 10
378.986895
 20
-373.697407
 30
0.0
 10
380.081344
 20
-374.791856
 30
0.0
  0
SPLINE
  5
143
100
AcDbEntity
  8
0
 62
7
100
AcDbSpline
 70
8
 71
3
 72
8
 73
4
 74
0
 40
0
 40
0
 40
0
 40
0
 40
1
 40
1
 40
1
 40
1
 10
380.081344
 20
-374.791856
 30
0.0
 10
381.175793
 20
-375.886305
 30
0.0
 10
382.821756
 20
-376.213707
 30
0.0
 10
384.251722
 20
-375.621396
 30
0.0
  0
SPLINE
  5
144
100
AcDbEntity
  8
0
 62
7
100
AcDbSpline
 70
8
 71
3
 72
8
 73
4
 74
0
 40
0
 40
0
 40
0
 40
0
 40
1
 40
1
 40
1
 40
1
 10
384.251722
 20
-375.621396
 30
0.0
 10
385.681688
 20
-375.029084
 30
0.0
 10
386.614051
 20
-373.633704
 30
0.0
 10
386.614051
 20
-372.085920
 30
0.0
  0
SPLINE
  5
145
100
AcDbEntity
  8
0
 62
7
100
AcDbSpline
 70
8
 71
3
 72
8
 73
4
 74
0
 40
0
 40
0
 40
0
 40
0
 40
1
 40
1
 40
1
 40
1
 10
386.614051
 20
-372.085920
 30
0.0
 10
386.614051
 20
-369.972453
 30
0.0
 10
384.900747
 20
-368.259149
 30
0.0
 10
382.787280
 20
-368.259149
 30
0.0
  0
LWPOLYLINE
  5
146
100
AcDbEntity
  8
0
 62
7
100
AcDbPolyline
 90
1
 70
1
 10
197.401680
 20
-268.620689
 30
0.0
  0
SPLINE
  5
147
100
AcDbEntity
  8
0
 62
7
100
AcDbSpline
 70
8
 71
3
 72
8
 73
4
 74
0
 40
0
 40
0
 40
0
 40
0
 40
1
 40
1
 40
1
 40
1
 10
281.306880
 20
-370.101089
 30
0.0
 10
279.584795
 20
-370.101089
 30
0.0
 10
278.188769
 20
-371.497115
 30
0.0
 10
278.188769
 20
-373.219200
 30
0.0
  0
SPLINE
  5
148
100
AcDbEntity
  8
0
 62
7
100
AcDbSpline
 70
8
 71
3
 72
8
 73
4
 74
0
 40
0
 40
0
 40
0
 40
0
 40
1
 40
1
 40
1
 40
1
 10
278.188769
 20
-373.219200
 30
0.0
 10
278.188769
 20
-374.941285
 30
0.0
 10
279.584795
 20
-376.337311
 30
0.0
 10
281.306880
 20
-376.337311
 30
0.0
  0
SPLINE
  5
149
100
AcDbEntity
  8
0
 62
7
100
AcDbSpline
 70
8
 71
3
 72
8
 73
4
 74
0
 40
0
 40
0
 40
0
 40
0
 40
1
 40
1
 40
1
 40
1
 10
281.306880
 20
-376.337311
 30
0.0
 10
283.028965
 20
-376.337311
 30
0.0
 10
284.424991
 20
-374.941285
 30
0.0
 10
284.424991
 20
-373.219200
 30
0.0
  0
SPLINE
  5
14a
100
AcDbEntity
  8
0
 62
7
100
AcDbSpline
 70
8
 71
3
 72
8
 73
4
 74
0
 40
0
 40
0
 40
0
 40
0
 40
1
 40
1
 40
1
 40
1
 10
284.424991
 20
-373.219200
 30
0.0
 10
284.424991
 20
-372.392225
 30
0.0
 10
284.096477
 20
-371.599122
 30
0.0
 10
283.511718
 20
-371.014362
 30
0.0
  0
SPLINE
  5
14b
100
AcDbEntity
  8
0
 62
7
100
AcDbSpline
 70
8
 71
3
 72
8
 73
4
 74
0
 40
0
 40
0
 40
0
 40
0
 40
1
 40
1
 40
1
 40
1
 10
283.511718
 20
-371.014362
 30
0.0
 10
282.926958
 20
-370.429603
 30
0.0
 10
282.133855
 20
-370.101089
 30
0.0
 10
281.306880
 20
-370.101089
 30
0.0
  0
LWPOLYLINE
  5
14c
100
AcDbEntity
  8
0
 62
7
100
AcDbPolyline
 90
1
 70
1
 10
382.787280
 20
-368.259149
 30
0.0
  0
SPLINE
  5
14d
100
AcDbEntity
  8
0
 62
7
100
AcDbSpline
 70
8
 71
3
 72
8
 73
4
 74
0
 40
0
 40
0
 40
0
 40
0
 40
1
 40
1
 40
1
 40
1
 10
438.346080
 20
-138.227249
 30
0.0
 10
437.084922
 20
-138.227249
 30
0.0
 10
435.947945
 20
-138.986952
 30
0.0
 10
435.465321
 20
-140.152111
 30
0.0
  0
SPLINE
  5
14e
100
AcDbEntity
  8
0
 62
7
100
AcDbSpline
 70
8
 71
3
 72
8
 73
4
 74
0
 40
0
 40
0
 40
0
 40
0
 40
1
 40
1
 40
1
 40
1
 10
435.465321
 20
-140.152111
 30
0.0
 10
434.982697
 20
-141.317269
 30
0.0
 10
435.249469
 20
-142.658424
 30
0.0
 10
436.141242
 20
-143.550198
 30
0.0
  0
SPLINE
  5
14f
100
AcDbEntity
  8
0
 62
7
100
AcDbSpline
 70
8
 71
3
 72
8
 73
4
 74
0
 40
0
 40
0
 40
0
 40
0
 40
1
 40
1
 40
1
 40
1
 10
436.141242
 20
-143.550198
 30
0.0
 10
437.033016
 20
-144.441971
 30
0.0
 10
438.374171
 20
-144.708743
 30
0.0
 10
439.539329
 20
-144.226119
 30
0.0
  0
SPLINE
  5
150
100
AcDbEntity
  8
0
 62
7
100
AcDbSpline
 70
8
 71
3
 72
8
 73
4
 74
0
 40
0
 40
0
 40
0
 40
0
 40
1
 40
1
 40
1
 40
1
 10
439.539329
 20
-144.226119
 30
0.0
 10
440.704488
 20
-143.743495
 30
0.0
 10
441.464191
 20
-142.606518
 30
0.0
 10
441.464191
 20
-141.345360
 30
0.0
  0
SPLINE
  5
151
100
AcDbEntity
  8
0
 62
7
100
AcDbSpline
 70
8
 71
3
 72
8
 73
4
 74
0
 40
0
 40
0
 40
0
 40
0
 40
1
 40
1
 40
1
 40
1
 10
441.464191
 20
-141.345360
 30
0.0
 10
441.464191
 20
-140.518385
 30
0.0
 10
441.135677
 20
-139.725282
 30
0.0
 10
440.550918
 20
-139.140522
 30
0.0
  0
SPLINE
  5
152
100
AcDbEntity
  8
0
 62
7
100
AcDbSpline
 70
8
 71
3
 72
8
 73
4
 74
0
 40
0
 40
0
 40
0
 40
0
 40
1
 40
1
 40
1
 40
1
 10
440.550918
 20
-139.140522
 30
0.0
 10
439.966158
 20
-138.555763
 30
0.0
 10
439.173055
 20
-138.227249
 30
0.0
 10
438.346080
 20
-138.227249
 30
0.0
  0
LWPOLYLINE
  5
153
100
AcDbEntity
  8
0
 62
7
100
AcDbPolyline
 90
1
 70
1
 10
281.306880
 20
-370.101089
 30
0.0
  0
SPLINE
  5
154
100
AcDbEntity
  8
0
 62
7
100
AcDbSpline
 70
8
 71
3
 72
8
 73
4
 74
0
 40
0
 40
0
 40
0
 40
0
 40
1
 40
1
 40
1
 40
1
 10
407.165040
 20
-368.967809
 30
0.0
 10
405.903882
 20
-368.967809
 30
0.0
 10
404.766905
 20
-369.727512
 30
0.0
 10
404.284281
 20
-370.892671
 30
0.0
  0
SPLINE
  5
155
100
AcDbEntity
  8
0
 62
7
100
AcDbSpline
 70
8
 71
3
 72
8
 73
4
 74
0
 40
0
 40
0
 40
0
 40
0
 40
1
 40
1
 40
1
 40
1
 10
404.284281
 20
-370.892671
 30
0.0
 10
403.801657
 20
-372.057829
 30
0.0
 10
404.068429
 20
-373.398984
 30
0.0
 10
404.960202
 20
-374.290758
 30
0.0
  0
SPLINE
  5
156
100
AcDbEntity
  8
0
 62
7
100
AcDbSpline
 70
8
 71
3
 72
8
 73
4
 74
0
 40
0
 40
0
 40
0
 40
0
 40
1
 40
1
 40
1
 40
1
 10
404.960202
 20
-374.290758
 30
0.0
 10
405.851976
 20
-375.182531
 30
0.0
 10
407.193131
 20
-375.449303
 30
0.0
 10
408.358289
 20
-374.966679
 30
0.0
  0
SPLINE
  5
157
100
AcDbEntity
  8
0
 62
7
100
AcDbSpline
 70
8
 71
3
 72
8
 73
4
 74
0
 40
0
 40
0
 40
0
 40
0
 40
1
 40
1
 40
1
 40
1
 10
408.358289
 20
-374.966679
 30
0.0
 10
409.523448
 20
-374.484055
 30
0.0
 10
410.283151
 20
-373.347078
 30
0.0
 10
410.283151
 20
-372.085920
 30
0.0
  0
SPLINE
  5
158
100
AcDbEntity
  8
0
 62
7
100
AcDbSpline
 70
8
 71
3
 72
8
 73
4
 74
0
 40
0
 40
0
 40
0
 40
0
 40
1
 40
1
 40
1
 40
1
 10
410.283151
 20
-372.085920
 30
0.0
 10
410.283151
 20
-371.258945
 30
0.0
 10
409.954637
 20
-370.465842
 30
0.0
 10
409.369878
 20
-369.881082
 30
0.0
  0
SPLINE
  5
159
100
AcDbEntity
  8
0
 62
7
100
AcDbSpline
 70
8
 71
3
 72
8
 73
4
 74
0
 40
0
 40
0
 40
0
 40
0
 40
1
 40
1
 40
1
 40
1
 10
409.369878
 20
-369.881082
 30
0.0
 10
408.785118
 20
-369.296323
 30
0.0
 10
407.992015
 20
-368.967809
 30
0.0
 10
407.165040
 20
-368.967809
 30
0.0
  0
LWPOLYLINE
  5
15a
100
AcDbEntity
  8
0
 62
7
100
AcDbPolyline
 90
1
 70
1
 10
438.346080
 20
-138.227249
 30
0.0
  0
SPLINE
  5
15b
100
AcDbEntity
  8
0
 62
7
100
AcDbSpline
 70
8
 71
3
 72
8
 73
4
 74
0
 40
0
 40
0
 40
0
 40
0
 40
1
 40
1
 40
1
 40
1
 10
70.409232
 20
-149.565809
 30
0.0
 10
69.148074
 20
-149.565809
 30
0.0
 10
68.011097
 20
-150.325512
 30
0.0
 10
67.528473
 20
-151.490671
 30
0.0
  0
SPLINE
  5
15c
100
AcDbEntity
  8
0
 62
7
100
AcDbSpline
 70
8
 71
3
 72
8
 73
4
 74
0
 40
0
 40
0
 40
0
 40
0
 40
1
 40
1
 40
1
 40
1
 10
67.528473
 20
-151.490671
 30
0.0
 10
67.045849
 20
-152.655829
 30
0.0
 10
67.312621
 20
-153.996984
 30
0.0
 10
68.204394
 20
-154.888758
 30
0.0
  0
SPLINE
  5
15d
100
AcDbEntity
  8
0
 62
7
100
AcDbSpline
 70
8
 71
3
 72
8
 73
4
 74
0
 40
0
 40
0
 40
0
 40
0
 40
1
 40
1
 40
1
 40
1
 10
68.204394
 20
-154.888758
 30
0.0
 10
69.096168
 20
-155.780531
 30
0.0
 10
70.437323
 20
-156.047303
 30
0.0
 10
71.602481
 20
-155.564679
 30
0.0
  0
SPLINE
  5
15e
100
AcDbEntity
  8
0
 62
7
100
AcDbSpline
 70
8
 71
3
 72
8
 73
4
 74
0
 40
0
 40
0
 40
0
 40
0
 40
1
 40
1
 40
1
 40
1
 10
71.602481
 20
-155.564679
 30
0.0
 10
72.767640
 20
-155.082055
 30
0.0
 10
73.527343
 20
-153.945078
 30
0.0
 10
73.527343
 20
-152.683920
 30
0.0
  0
SPLINE
  5
15f
100
AcDbEntity
  8
0
 62
7
100
AcDbSpline
 70
8
 71
3
 72
8
 73
4
 74
0
 40
0
 40
0
 40
0
 40
0
 40
1
 40
1
 40
1
 40
1
 10
73.527343
 20
-152.683920
 30
0.0
 10
73.527343
 20
-150.961835
 30
0.0
 10
72.131317
 20
-149.565809
 30
0.0
 10
70.409232
 20
-149.565809
 30
0.0
  0
LWPOLYLINE
  5
160
100
AcDbEntity
  8
0
 62
7
100
AcDbPolyline
 90
1
 70
1
 10
407.165040
 20
-368.967809
 30
0.0
  0
SPLINE
  5
161
100
AcDbEntity
  8
0
 62
7
100
AcDbSpline
 70
8
 71
3
 72
8
 73
4
 74
0
 40
0
 40
0
 40
0
 40
0
 40
1
 40
1
 40
1
 40
1
 10
118.031040
 20
-49.786409
 30
0.0
 10
116.769882
 20
-49.786409
 30
0.0
 10
115.632905
 20
-50.546112
 30
0.0
 10
115.150281
 20
-51.711271
 30
0.0
  0
SPLINE
  5
162
100
AcDbEntity
  8
0
 62
7
100
AcDbSpline
 70
8
 71
3
 72
8
 73
4
 74
0
 40
0
 40
0
 40
0
 40
0
 40
1
 40
1
 40
1
 40
1
 10
115.150281
 20
-51.711271
 30
0.0
 10
114.667657
 20
-52.876429
 30
0.0
 10
114.934429
 20
-54.217584
 30
0.0
 10
115.826202
 20
-55.109358
 30
0.0
  0
SPLINE
  5
163
100
AcDbEntity
  8
0
 62
7
100
AcDbSpline
 70
8
 71
3
 72
8
 73
4
 74
0
 40
0
 40
0
 40
0
 40
0
 40
1
 40
1
 40
1
 40
1
 10
115.826202
 20
-55.109358
 30
0.0
 10
116.717976
 20
-56.001131
 30
0.0
 10
118.059131
 20
-56.267903
 30
0.0
 10
119.224289
 20
-55.785279
 30
0.0
  0
SPLINE
  5
164
100
AcDbEntity
  8
0
 62
7
100
AcDbSpline
 70
8
 71
3
 72
8
 73
4
 74
0
 40
0
 40
0
 40
0
 40
0
 40
1
 40
1
 40
1
 40
1
 10
119.224289
 20
-55.785279
 30
0.0
 10
120.389448
 20
-55.302655
 30
0.0
 10
121.149151
 20
-54.165678
 30
0.0
 10
121.149151
 20
-52.904520
 30
0.0
  0
SPLINE
  5
165
100
AcDbEntity
  8
0
 62
7
100
AcDbSpline
 70
8
 71
3
 72
8
 73
4
 74
0
 40
0
 40
0
 40
0
 40
0
 40
1
 40
1
 40
1
 40
1
 10
121.149151
 20
-52.904520
 30
0.0
 10
121.149151
 20
-52.077545
 30
0.0
 10
120.820637
 20
-51.284442
 30
0.0
 10
120.235878
 20
-50.699682
 30
0.0
  0
SPLINE
  5
166
100
AcDbEntity
  8
0
 62
7
100
AcDbSpline
 70
8
 71
3
 72
8
 73
4
 74
0
 40
0
 40
0
 40
0
 40
0
 40
1
 40
1
 40
1
 40
1
 10
120.235878
 20
-50.699682
 30
0.0
 10
119.651118
 20
-50.114923
 30
0.0
 10
118.858015
 20
-49.786409
 30
0.0
 10
118.031040
 20
-49.786409
 30
0.0
  0
LWPOLYLINE
  5
167
100
AcDbEntity
  8
0
 62
7
100
AcDbPolyline
 90
1
 70
1
 10
70.409232
 20
-149.565809
 30
0.0
  0
SPLINE
  5
168
100
AcDbEntity
  8
0
 62
7
100
AcDbSpline
 70
8
 71
3
 72
8
 73
4
 74
0
 40
0
 40
0
 40
0
 40
0
 40
1
 40
1
 40
1
 40
1
 10
614.661120
 20
-130.289969
 30
0.0
 10
613.399962
 20
-130.289969
 30
0.0
 10
612.262985
 20
-131.049672
 30
0.0
 10
611.780361
 20
-132.214831
 30
0.0
  0
SPLINE
  5
169
100
AcDbEntity
  8
0
 62
7
100
AcDbSpline
 70
8
 71
3
 72
8
 73
4
 74
0
 40
0
 40
0
 40
0
 40
0
 40
1
 40
1
 40
1
 40
1
 10
611.780361
 20
-132.214831
 30
0.0
 10
611.297737
 20
-133.379989
 30
0.0
 10
611.564509
 20
-134.721144
 30
0.0
 10
612.456282
 20
-135.612918
 30
0.0
  0
SPLINE
  5
16a
100
AcDbEntity
  8
0
 62
7
100
AcDbSpline
 70
8
 71
3
 72
8
 73
4
 74
0
 40
0
 40
0
 40
0
 40
0
 40
1
 40
1
 40
1
 40
1
 10
612.456282
 20
-135.612918
 30
0.0
 10
613.348056
 20
-136.504691
 30
0.0
 10
614.689211
 20
-136.771463
 30
0.0
 10
615.854369
 20
-136.288839
 30
0.0
  0
SPLINE
  5
16b
100
AcDbEntity
  8
0
 62
7
100
AcDbSpline
 70
8
 71
3
 72
8
 73
4
 74
0
 40
0
 40
0
 40
0
 40
0
 40
1
 40
1
 40
1
 40
1
 10
615.854369
 20
-136.288839
 30
0.0
 10
617.019528
 20
-135.806215
 30
0.0
 10
617.779231
 20
-134.669238
 30
0.0
 10
617.779231
 20
-133.408080
 30
0.0
  0
SPLINE
  5
16c
100
AcDbEntity
  8
0
 62
7
100
AcDbSpline
 70
8
 71
3
 72
8
 73
4
 74
0
 40
0
 40
0
 40
0
 40
0
 40
1
 40
1
 40
1
 40
1
 10
617.779231
 20
-133.408080
 30
0.0
 10
617.779231
 20
-132.581105
 30
0.0
 10
617.450717
 20
-131.788002
 30
0.0
 10
616.865958
 20
-131.203242
 30
0.0
  0
SPLINE
  5
16d
100
AcDbEntity
  8
0
 62
7
100
AcDbSpline
 70
8
 71
3
 72
8
 73
4
 74
0
 40
0
 40
0
 40
0
 40
0
 40
1
 40
1
 40
1
 40
1
 10
616.865958
 20
-131.203242
 30
0.0
 10
616.281198
 20
-130.618483
 30
0.0
 10
615.488095
 20
-130.289969
 30
0.0
 10
614.661120
 20
-130.289969
 30
0.0
  0
LWPOLYLINE
  5
16e
100
AcDbEntity
  8
0
 62
7
100
AcDbPolyline
 90
1
 70
1
 10
118.031040
 20
-49.786409
 30
0.0
  0
SPLINE
  5
16f
100
AcDbEntity
  8
0
 62
7
100
AcDbSpline
 70
8
 71
3
 72
8
 73
4
 74
0
 40
0
 40
0
 40
0
 40
0
 40
1
 40
1
 40
1
 40
1
 10
254.661120
 20
-136.526609
 30
0.0
 10
253.399962
 20
-136.526609
 30
0.0
 10
252.262985
 20
-137.286312
 30
0.0
 10
251.780361
 20
-138.451471
 30
0.0
  0
SPLINE
  5
170
100
AcDbEntity
  8
0
 62
7
100
AcDbSpline
 70
8
 71
3
 72
8
 73
4
 74
0
 40
0
 40
0
 40
0
 40
0
 40
1
 40
1
 40
1
 40
1
 10
251.780361
 20
-138.451471
 30
0.0
 10
251.297737
 20
-139.616629
 30
0.0
 10
251.564509
 20
-140.957784
 30
0.0
 10
252.456282
 20
-141.849558
 30
0.0
  0
SPLINE
  5
171
100
AcDbEntity
  8
0
 62
7
100
AcDbSpline
 70
8
 71
3
 72
8
 73
4
 74
0
 40
0
 40
0
 40
0
 40
0
 40
1
 40
1
 40
1
 40
1
 10
252.456282
 20
-141.849558
 30
0.0
 10
253.348056
 20
-142.741331
 30
0.0
 10
254.689211
 20
-143.008103
 30
0.0
 10
255.854369
 20
-142.525479
 30
0.0
  0
SPLINE
  5
172
100
AcDbEntity
  8
0
 62
7
100
AcDbSpline
 70
8
 71
3
 72
8
 73
4
 74
0
 40
0
 40
0
 40
0
 40
0
 40
1
 40
1
 40
1
 40
1
 10
255.854369
 20
-142.525479
 30
0.0
 10
257.019528
 20
-142.042855
 30
0.0
 10
257.779231
 20
-140.905878
 30
0.0
 10
257.779231
 20
-139.644720
 30
0.0
  0
SPLINE
  5
173
100
AcDbEntity
  8
0
 62
7
100
AcDbSpline
 70
8
 71
3
 72
8
 73
4
 74
0
 40
0
 40
0
 40
0
 40
0
 40
1
 40
1
 40
1
 40
1
 10
257.779231
 20
-139.644720
 30
0.0
 10
257.779231
 20
-138.817745
 30
0.0
 10
257.450717
 20
-138.024642
 30
0.0
 10
256.865958
 20
-137.439882
 30
0.0
  0
SPLINE
  5
174
100
AcDbEntity
  8
0
 62
7
100
AcDbSpline
 70
8
 71
3
 72
8
 73
4
 74
0
 40
0
 40
0
 40
0
 40
0
 40
1
 40
1
 40
1
 40
1
 10
256.865958
 20
-137.439882
 30
0.0
 10
256.281198
 20
-136.855123
 30
0.0
 10
255.488095
 20
-136.526609
 30
0.0
 10
254.661120
 20
-136.526609
 30
0.0
  0
LWPOLYLINE
  5
175
100
AcDbEntity
  8
0
 62
7
100
AcDbPolyline
 90
1
 70
1
 10
614.661120
 20
-130.289969
 30
0.0
  0
SPLINE
  5
176
100
AcDbEntity
  8
0
 62
7
100
AcDbSpline
 70
8
 71
3
 72
8
 73
4
 74
0
 40
0
 40
0
 40
0
 40
0
 40
1
 40
1
 40
1
 40
1
 10
496.172880
 20
-270.888689
 30
0.0
 10
494.911722
 20
-270.888689
 30
0.0
 10
493.774745
 20
-271.648392
 30
0.0
 10
493.292121
 20
-272.813551
 30
0.0
  0
SPLINE
  5
177
100
AcDbEntity
  8
0
 62
7
100
AcDbSpline
 70
8
 71
3
 72
8
 73
4
 74
0
 40
0
 40
0
 40
0
 40
0
 40
1
 40
1
 40
1
 40
1
 10
493.292121
 20
-272.813551
 30
0.0
 10
492.809497
 20
-273.978709
 30
0.0
 10
493.076269
 20
-275.319864
 30
0.0
 10
493.968042
 20
-276.211638
 30
0.0
  0
SPLINE
  5
178
100
AcDbEntity
  8
0
 62
7
100
AcDbSpline
 70
8
 71
3
 72
8
 73
4
 74
0
 40
0
 40
0
 40
0
 40
0
 40
1
 40
1
 40
1
 40
1
 10
493.968042
 20
-276.211638
 30
0.0
 10
494.859816
 20
-277.103411
 30
0.0
 10
496.200971
 20
-277.370183
 30
0.0
 10
497.366129
 20
-276.887559
 30
0.0
  0
SPLINE
  5
179
100
AcDbEntity
  8
0
 62
7
100
AcDbSpline
 70
8
 71
3
 72
8
 73
4
 74
0
 40
0
 40
0
 40
0
 40
0
 40
1
 40
1
 40
1
 40
1
 10
497.366129
 20
-276.887559
 30
0.0
 10
498.531288
 20
-276.404935
 30
0.0
 10
499.290991
 20
-275.267958
 30
0.0
 10
499.290991
 20
-274.006800
 30
0.0
  0
SPLINE
  5
17a
100
AcDbEntity
  8
0
 62
7
100
AcDbSpline
 70
8
 71
3
 72
8
 73
4
 74
0
 40
0
 40
0
 40
0
 40
0
 40
1
 40
1
 40
1
 40
1
 10
499.290991
 20
-274.006800
 30
0.0
 10
499.290991
 20
-273.179825
 30
0.0
 10
498.962477
 20
-272.386722
 30
0.0
 10
498.377718
 20
-271.801962
 30
0.0
  0
SPLINE
  5
17b
100
AcDbEntity
  8
0
 62
7
100
AcDbSpline
 70
8
 71
3
 72
8
 73
4
 74
0
 40
0
 40
0
 40
0
 40
0
 40
1
 40
1
 40
1
 40
1
 10
498.377718
 20
-271.801962
 30
0.0
 10
497.792958
 20
-271.217203
 30
0.0
 10
496.999855
 20
-270.888689
 30
0.0
 10
496.172880
 20
-270.888689
 30
0.0
  0
LWPOLYLINE
  5
17c
100
AcDbEntity
  8
0
 62
7
100
AcDbPolyline
 90
1
 70
1
 10
254.661120
 20
-136.526609
 30
0.0
  0
SPLINE
  5
17d
100
AcDbEntity
  8
0
 62
7
100
AcDbSpline
 70
8
 71
3
 72
8
 73
4
 74
0
 40
0
 40
0
 40
0
 40
0
 40
1
 40
1
 40
1
 40
1
 10
569.306880
 20
-32.211569
 30
0.0
 10
568.045722
 20
-32.211569
 30
0.0
 10
566.908745
 20
-32.971272
 30
0.0
 10
566.426121
 20
-34.136431
 30
0.0
  0
SPLINE
  5
17e
100
AcDbEntity
  8
0
 62
7
100
AcDbSpline
 70
8
 71
3
 72
8
 73
4
 74
0
 40
0
 40
0
 40
0
 40
0
 40
1
 40
1
 40
1
 40
1
 10
566.426121
 20
-34.136431
 30
0.0
 10
565.943497
 20
-35.301589
 30
0.0
 10
566.210269
 20
-36.642744
 30
0.0
 10
567.102042
 20
-37.534518
 30
0.0
  0
SPLINE
  5
17f
100
AcDbEntity
  8
0
 62
7
100
AcDbSpline
 70
8
 71
3
 72
8
 73
4
 74
0
 40
0
 40
0
 40
0
 40
0
 40
1
 40
1
 40
1
 40
1
 10
567.102042
 20
-37.534518
 30
0.0
 10
567.993816
 20
-38.426291
 30
0.0
 10
569.334971
 20
-38.693063
 30
0.0
 10
570.500129
 20
-38.210439
 30
0.0
  0
SPLINE
  5
180
100
AcDbEntity
  8
0
 62
7
100
AcDbSpline
 70
8
 71
3
 72
8
 73
4
 74
0
 40
0
 40
0
 40
0
 40
0
 40
1
 40
1
 40
1
 40
1
 10
570.500129
 20
-38.210439
 30
0.0
 10
571.665288
 20
-37.727815
 30
0.0
 10
572.424991
 20
-36.590838
 30
0.0
 10
572.424991
 20
-35.329680
 30
0.0
  0
SPLINE
  5
181
100
AcDbEntity
  8
0
 62
7
100
AcDbSpline
 70
8
 71
3
 72
8
 73
4
 74
0
 40
0
 40
0
 40
0
 40
0
 40
1
 40
1
 40
1
 40
1
 10
572.424991
 20
-35.329680
 30
0.0
 10
572.424991
 20
-33.607595
 30
0.0
 10
571.028965
 20
-32.211569
 30
0.0
 10
569.306880
 20
-32.211569
 30
0.0
  0
LWPOLYLINE
  5
182
100
AcDbEntity
  8
0
 62
7
100
AcDbPolyline
 90
1
 70
1
 10
496.172880
 20
-270.888689
 30
0.0
  0
SPLINE
  5
183
100
AcDbEntity
  8
0
 62
7
100
AcDbSpline
 70
8
 71
3
 72
8
 73
4
 74
0
 40
0
 40
0
 40
0
 40
0
 40
1
 40
1
 40
1
 40
1
 10
197.401680
 20
-268.620689
 30
0.0
 10
196.140522
 20
-268.620689
 30
0.0
 10
195.003545
 20
-269.380392
 30
0.0
 10
194.520921
 20
-270.545551
 30
0.0
  0
SPLINE
  5
184
100
AcDbEntity
  8
0
 62
7
100
AcDbSpline
 70
8
 71
3
 72
8
 73
4
 74
0
 40
0
 40
0
 40
0
 40
0
 40
1
 40
1
 40
1
 40
1
 10
194.520921
 20
-270.545551
 30
0.0
 10
194.038297
 20
-271.710709
 30
0.0
 10
194.305069
 20
-273.051864
 30
0.0
 10
195.196842
 20
-273.943638
 30
0.0
  0
SPLINE
  5
185
100
AcDbEntity
  8
0
 62
7
100
AcDbSpline
 70
8
 71
3
 72
8
 73
4
 74
0
 40
0
 40
0
 40
0
 40
0
 40
1
 40
1
 40
1
 40
1
 10
195.196842
 20
-273.943638
 30
0.0
 10
196.088616
 20
-274.835411
 30
0.0
 10
197.429771
 20
-275.102183
 30
0.0
 10
198.594929
 20
-274.619559
 30
0.0
  0
SPLINE
  5
186
100
AcDbEntity
  8
0
 62
7
100
AcDbSpline
 70
8
 71
3
 72
8
 73
4
 74
0
 40
0
 40
0
 40
0
 40
0
 40
1
 40
1
 40
1
 40
1
 10
198.594929
 20
-274.619559
 30
0.0
 10
199.760088
 20
-274.136935
 30
0.0
 10
200.519791
 20
-272.999958
 30
0.0
 10
200.519791
 20
-271.738800
 30
0.0
  0
SPLINE
  5
187
100
AcDbEntity
  8
0
 62
7
100
AcDbSpline
 70
8
 71
3
 72
8
 73
4
 74
0
 40
0
 40
0
 40
0
 40
0
 40
1
 40
1
 40
1
 40
1
 10
200.519791
 20
-271.738800
 30
0.0
 10
200.519791
 20
-270.016715
 30
0.0
 10
199.123765
 20
-268.620689
 30
0.0
 10
197.401680
 20
-268.620689
 30
0.0
  0
LWPOLYLINE
  5
188
100
AcDbEntity
  8
0
 62
7
100
AcDbPolyline
 90
1
 70
1
 10
569.306880
 20
-32.211569
 30
0.0
  0
SPLINE
  5
189
100
AcDbEntity
  8
0
 62
7
100
AcDbSpline
 70
8
 71
3
 72
8
 73
4
 74
0
 40
0
 40
0
 40
0
 40
0
 40
1
 40
1
 40
1
 40
1
 10
382.787280
 20
-368.259149
 30
0.0
 10
381.239496
 20
-368.259149
 30
0.0
 10
379.844116
 20
-369.191512
 30
0.0
 10
379.251804
 20
-370.621478
 30
0.0
  0
SPLINE
  5
18a
100
AcDbEntity
  8
0
 62
7
100
AcDbSpline
 70
8
 71
3
 72
8
 73
4
 74
0
 40
0
 40
0
 40
0
 40
0
 40
1
 40
1
 40
1
 40
1
 10
379.251804
 20
-370.621478
 30
0.0
 10
378.659493
 20
-372.051444
 30
0.0
 10
378.986895
 20
-373.697407
 30
0.0
 10
380.081344
 20
-374.791856
 30
0.0
  0
SPLINE
  5
18b
100
AcDbEntity
  8
0
 62
7
100
AcDbSpline
 70
8
 71
3
 72
8
 73
4
 74
0
 40
0
 40
0
 40
0
 40
0
 40
1
 40
1
 40
1
 40
1
 10
380.081344
 20
-374.791856
 30
0.0
 10
381.175793
 20
-375.886305
 30
0.0
 10
382.821756
 20
-376.213707
 30
0.0
 10
384.251722
 20
-375.621396
 30
0.0
  0
SPLINE
  5
18c
100
AcDbEntity
  8
0
 62
7
100
AcDbSpline
 70
8
 71
3
 72
8
 73
4
 74
0
 40
0
 40
0
 40
0
 40
0
 40
1
 40
1
 40
1
 40
1
 10
384.251722
 20
-375.621396
 30
0.0
 10
385.681688
 20
-375.029084
 30
0.0
 10
386.614051
 20
-373.633704
 30
0.0
 10
386.614051
 20
-372.085920
 30
0.0
  0
SPLINE
  5
18d
100
AcDbEntity
  8
0
 62
7
100
AcDbSpline
 70
8
 71
3
 72
8
 73
4
 74
0
 40
0
 40
0
 40
0
 40
0
 40
1
 40
1
 40
1
 40
1
 10
386.614051
 20
-372.085920
 30
0.0
 10
386.614051
 20
-369.972453
 30
0.0
 10
384.900747
 20
-368.259149
 30
0.0
 10
382.787280
 20
-368.259149
 30
0.0
  0
LWPOLYLINE
  5
18e
100
AcDbEntity
  8
0
 62
7
100
AcDbPolyline
 90
1
 70
1
 10
197.401680
 20
-268.620689
 30
0.0
  0
SPLINE
  5
18f
100
AcDbEntity
  8
0
 62
7
100
AcDbSpline
 70
8
 71
3
 72
8
 73
4
 74
0
 40
0
 40
0
 40
0
 40
0
 40
1
 40
1
 40
1
 40
1
 10
281.306880
 20
-370.101089
 30
0.0
 10
279.584795
 20
-370.101089
 30
0.0
 10
278.188769
 20
-371.497115
 30
0.0
 10
278.188769
 20
-373.219200
 30
0.0
  0
SPLINE
  5
190
100
AcDbEntity
  8
0
 62
7
100
AcDbSpline
 70
8
 71
3
 72
8
 73
4
 74
0
 40
0
 40
0
 40
0
 40
0
 40
1
 40
1
 40
1
 40
1
 10
278.188769
 20
-373.219200
 30
0.0
 10
278.188769
 20
-374.941285
 30
0.0
 10
279.584795
 20
-376.337311
 30
0.0
 10
281.306880
 20
-376.337311
 30
0.0
  0
SPLINE
  5
191
100
AcDbEntity
  8
0
 62
7
100
AcDbSpline
 70
8
 71
3
 72
8
 73
4
 74
0
 40
0
 40
0
 40
0
 40
0
 40
1
 40
1
 40
1
 40
1
 10
281.306880
 20
-376.337311
 30
0.0
 10
283.028965
 20
-376.337311
 30
0.0
 10
284.424991
 20
-374.941285
 30
0.0
 10
284.424991
 20
-373.219200
 30
0.0
  0
SPLINE
  5
192
100
AcDbEntity
  8
0
 62
7
100
AcDbSpline
 70
8
 71
3
 72
8
 73
4
 74
0
 40
0
 40
0
 40
0
 40
0
 40
1
 40
1
 40
1
 40
1
 10
284.424991
 20
-373.219200
 30
0.0
 10
284.424991
 20
-372.392225
 30
0.0
 10
284.096477
 20
-371.599122
 30
0.0
 10
283.511718
 20
-371.014362
 30
0.0
  0
SPLINE
  5
193
100
AcDbEntity
  8
0
 62
7
100
AcDbSpline
 70
8
 71
3
 72
8
 73
4
 74
0
 40
0
 40
0
 40
0
 40
0
 40
1
 40
1
 40
1
 40
1
 10
283.511718
 20
-371.014362
 30
0.0
 10
282.926958
 20
-370.429603
 30
0.0
 10
282.133855
 20
-370.101089
 30
0.0
 10
281.306880
 20
-370.101089
 30
0.0
  0
LWPOLYLINE
  5
194
100
AcDbEntity
  8
0
 62
7
100
AcDbPolyline
 90
1
 70
1
 10
382.787280
 20
-368.259149
 30
0.0
  0
SPLINE
  5
195
100
AcDbEntity
  8
0
 62
7
100
AcDbSpline
 70
8
 71
3
 72
8
 73
4
 74
0
 40
0
 40
0
 40
0
 40
0
 40
1
 40
1
 40
1
 40
1
 10
438.346080
 20
-138.227249
 30
0.0
 10
437.084922
 20
-138.227249
 30
0.0
 10
435.947945
 20
-138.986952
 30
0.0
 10
435.465321
 20
-140.152111
 30
0.0
  0
SPLINE
  5
196
100
AcDbEntity
  8
0
 62
7
100
AcDbSpline
 70
8
 71
3
 72
8
 73
4
 74
0
 40
0
 40
0
 40
0
 40
0
 40
1
 40
1
 40
1
 40
1
 10
435.465321
 20
-140.152111
 30
0.0
 10
434.982697
 20
-141.317269
 30
0.0
 10
435.249469
 20
-142.658424
 30
0.0
 10
436.141242
 20
-143.550198
 30
0.0
  0
SPLINE
  5
197
100
AcDbEntity
  8
0
 62
7
100
AcDbSpline
 70
8
 71
3
 72
8
 73
4
 74
0
 40
0
 40
0
 40
0
 40
0
 40
1
 40
1
 40
1
 40
1
 10
436.141242
 20
-143.550198
 30
0.0
 10
437.033016
 20
-144.441971
 30
0.0
 10
438.374171
 20
-144.708743
 30
0.0
 10
439.539329
 20
-144.226119
 30
0.0
  0
SPLINE
  5
198
100
AcDbEntity
  8
0
 62
7
100
AcDbSpline
 70
8
 71
3
 72
8
 73
4
 74
0
 40
0
 40
0
 40
0
 40
0
 40
1
 40
1
 40
1
 40
1
 10
439.539329
 20
-144.226119
 30
0.0
 10
440.704488
 20
-143.743495
 30
0.0
 10
441.464191
 20
-142.606518
 30
0.0
 10
441.464191
 20
-141.345360
 30
0.0
  0
SPLINE
  5
199
100
AcDbEntity
  8
0
 62
7
100
AcDbSpline
 70
8
 71
3
 72
8
 73
4
 74
0
 40
0
 40
0
 40
0
 40
0
 40
1
 40
1
 40
1
 40
1
 10
441.464191
 20
-141.345360
 30
0.0
 10
441.464191
 20
-140.518385
 30
0.0
 10
441.135677
 20
-139.725282
 30
0.0
 10
440.550918
 20
-139.140522
 30
0.0
  0
SPLINE
  5
19a
100
AcDbEntity
  8
0
 62
7
100
AcDbSpline
 70
8
 71
3
 72
8
 73
4
 74
0
 40
0
 40
0
 40
0
 40
0
 40
1
 40
1
 40
1
 40
1
 10
440.550918
 20
-139.140522
 30
0.0
 10
439.966158
 20
-138.555763
 30
0.0
 10
439.173055
 20
-138.227249
 30
0.0
 10
438.346080
 20
-138.227249
 30
0.0
  0
LWPOLYLINE
  5
19b
100
AcDbEntity
  8
0
 62
7
100
AcDbPolyline
 90
1
 70
1
 10
281.306880
 20
-370.101089
 30
0.0
  0
SPLINE
  5
19c
100
AcDbEntity
  8
0
 62
7
100
AcDbSpline
 70
8
 71
3
 72
8
 73
4
 74
0
 40
0
 40
0
 40
0
 40
0
 40
1
 40
1
 40
1
 40
1
 10
407.165040
 20
-368.967809
 30
0.0
 10
405.903882
 20
-368.967809
 30
0.0
 10
404.766905
 20
-369.727512
 30
0.0
 10
404.284281
 20
-370.892671
 30
0.0
  0
SPLINE
  5
19d
100
AcDbEntity
  8
0
 62
7
100
AcDbSpline
 70
8
 71
3
 72
8
 73
4
 74
0
 40
0
 40
0
 40
0
 40
0
 40
1
 40
1
 40
1
 40
1
 10
404.284281
 20
-370.892671
 30
0.0
 10
403.801657
 20
-372.057829
 30
0.0
 10
404.068429
 20
-373.398984
 30
0.0
 10
404.960202
 20
-374.290758
 30
0.0
  0
SPLINE
  5
19e
100
AcDbEntity
  8
0
 62
7
100
AcDbSpline
 70
8
 71
3
 72
8
 73
4
 74
0
 40
0
 40
0
 40
0
 40
0
 40
1
 40
1
 40
1
 40
1
 10
404.960202
 20
-374.290758
 30
0.0
 10
405.851976
 20
-375.182531
 30
0.0
 10
407.193131
 20
-375.449303
 30
0.0
 10
408.358289
 20
-374.966679
 30
0.0
  0
SPLINE
  5
19f
100
AcDbEntity
  8
0
 62
7
100
AcDbSpline
 70
8
 71
3
 72
8
 73
4
 74
0
 40
0
 40
0
 40
0
 40
0
 40
1
 40
1
 40
1
 40
1
 10
408.358289
 20
-374.966679
 30
0.0
 10
409.523448
 20
-374.484055
 30
0.0
 10
410.283151
 20
-373.347078
 30
0.0
 10
410.283151
 20
-372.085920
 30
0.0
  0
SPLINE
  5
1a0
100
AcDbEntity
  8
0
 62
7
100
AcDbSpline
 70
8
 71
3
 72
8
 73
4
 74
0
 40
0
 40
0
 40
0
 40
0
 40
1
 40
1
 40
1
 40
1
 10
410.283151
 20
-372.085920
 30
0.0
 10
410.283151
 20
-371.258945
 30
0.0
 10
409.954637
 20
-370.465842
 30
0.0
 10
409.369878
 20
-369.881082
 30
0.0
  0
SPLINE
  5
1a1
100
AcDbEntity
  8
0
 62
7
100
AcDbSpline
 70
8
 71
3
 72
8
 73
4
 74
0
 40
0
 40
0
 40
0
 40
0
 40
1
 40
1
 40
1
 40
1
 10
409.369878
 20
-369.881082
 30
0.0
 10
408.785118
 20
-369.296323
 30
0.0
 10
407.992015
 20
-368.967809
 30
0.0
 10
407.165040
 20
-368.967809
 30
0.0
  0
LWPOLYLINE
  5
1a2
100
AcDbEntity
  8
0
 62
7
100
AcDbPolyline
 90
1
 70
1
 10
438.346080
 20
-138.227249
 30
0.0
  0
SPLINE
  5
1a3
100
AcDbEntity
  8
0
 62
7
100
AcDbSpline
 70
8
 71
3
 72
8
 73
4
 74
0
 40
0
 40
0
 40
0
 40
0
 40
1
 40
1
 40
1
 40
1
 10
70.409232
 20
-149.565809
 30
0.0
 10
69.148074
 20
-149.565809
 30
0.0
 10
68.011097
 20
-150.325512
 30
0.0
 10
67.528473
 20
-151.490671
 30
0.0
  0
SPLINE
  5
1a4
100
AcDbEntity
  8
0
 62
7
100
AcDbSpline
 70
8
 71
3
 72
8
 73
4
 74
0
 40
0
 40
0
 40
0
 40
0
 40
1
 40
1
 40
1
 40
1
 10
67.528473
 20
-151.490671
 30
0.0
 10
67.045849
 20
-152.655829
 30
0.0
 10
67.312621
 20
-153.996984
 30
0.0
 10
68.204394
 20
-154.888758
 30
0.0
  0
SPLINE
  5
1a5
100
AcDbEntity
  8
0
 62
7
100
AcDbSpline
 70
8
 71
3
 72
8
 73
4
 74
0
 40
0
 40
0
 40
0
 40
0
 40
1
 40
1
 40
1
 40
1
 10
68.204394
 20
-154.888758
 30
0.0
 10
69.096168
 20
-155.780531
 30
0.0
 10
70.437323
 20
-156.047303
 30
0.0
 10
71.602481
 20
-155.564679
 30
0.0
  0
SPLINE
  5
1a6
100
AcDbEntity
  8
0
 62
7
100
AcDbSpline
 70
8
 71
3
 72
8
 73
4
 74
0
 40
0
 40
0
 40
0
 40
0
 40
1
 40
1
 40
1
 40
1
 10
71.602481
 20
-155.564679
 30
0.0
 10
72.767640
 20
-155.082055
 30
0.0
 10
73.527343
 20
-153.945078
 30
0.0
 10
73.527343
 20
-152.683920
 30
0.0
  0
SPLINE
  5
1a7
100
AcDbEntity
  8
0
 62
7
100
AcDbSpline
 70
8
 71
3
 72
8
 73
4
 74
0
 40
0
 40
0
 40
0
 40
0
 40
1
 40
1
 40
1
 40
1
 10
73.527343
 20
-152.683920
 30
0.0
 10
73.527343
 20
-150.961835
 30
0.0
 10
72.131317
 20
-149.565809
 30
0.0
 10
70.409232
 20
-149.565809
 30
0.0
  0
LWPOLYLINE
  5
1a8
100
AcDbEntity
  8
0
 62
7
100
AcDbPolyline
 90
1
 70
1
 10
407.165040
 20
-368.967809
 30
0.0
  0
SPLINE
  5
1a9
100
AcDbEntity
  8
0
 62
7
100
AcDbSpline
 70
8
 71
3
 72
8
 73
4
 74
0
 40
0
 40
0
 40
0
 40
0
 40
1
 40
1
 40
1
 40
1
 10
118.031040
 20
-49.786409
 30
0.0
 10
116.769882
 20
-49.786409
 30
0.0
 10
115.632905
 20
-50.546112
 30
0.0
 10
115.150281
 20
-51.711271
 30
0.0
  0
SPLINE
  5
1aa
100
AcDbEntity
  8
0
 62
7
100
AcDbSpline
 70
8
 71
3
 72
8
 73
4
 74
0
 40
0
 40
0
 40
0
 40
0
 40
1
 40
1
 40
1
 40
1
 10
115.150281
 20
-51.711271
 30
0.0
 10
114.667657
 20
-52.876429
 30
0.0
 10
114.934429
 20
-54.217584
 30
0.0
 10
115.826202
 20
-55.109358
 30
0.0
  0
SPLINE
  5
1ab
100
AcDbEntity
  8
0
 62
7
100
AcDbSpline
 70
8
 71
3
 72
8
 73
4
 74
0
 40
0
 40
0
 40
0
 40
0
 40
1
 40
1
 40
1
 40
1
 10
115.826202
 20
-55.109358
 30
0.0
 10
116.717976
 20
-56.001131
 30
0.0
 10
118.059131
 20
-56.267903
 30
0.0
 10
119.224289
 20
-55.785279
 30
0.0
  0
SPLINE
  5
1ac
100
AcDbEntity
  8
0
 62
7
100
AcDbSpline
 70
8
 71
3
 72
8
 73
4
 74
0
 40
0
 40
0
 40
0
 40
0
 40
1
 40
1
 40
1
 40
1
 10
119.224289
 20
-55.785279
 30
0.0
 10
120.389448
 20
-55.302655
 30
0.0
 10
121.149151
 20
-54.165678
 30
0.0
 10
121.149151
 20
-52.904520
 30
0.0
  0
SPLINE
  5
1ad
100
AcDbEntity
  8
0
 62
7
100
AcDbSpline
 70
8
 71
3
 72
8
 73
4
 74
0
 40
0
 40
0
 40
0
 40
0
 40
1
 40
1
 40
1
 40
1
 10
121.149151
 20
-52.904520
 30
0.0
 10
121.149151
 20
-52.077545
 30
0.0
 10
120.820637
 20
-51.284442
 30
0.0
 10
120.235878
 20
-50.699682
 30
0.0
  0
SPLINE
  5
1ae
100
AcDbEntity
  8
0
 62
7
100
AcDbSpline
 70
8
 71
3
 72
8
 73
4
 74
0
 40
0
 40
0
 40
0
 40
0
 40
1
 40
1
 40
1
 40
1
 10
120.235878
 20
-50.699682
 30
0.0
 10
119.651118
 20
-50.114923
 30
0.0
 10
118.858015
 20
-49.786409
 30
0.0
 10
118.031040
 20
-49.786409
 30
0.0
  0
LWPOLYLINE
  5
1af
100
AcDbEntity
  8
0
 62
7
100
AcDbPolyline
 90
1
 70
1
 10
70.409232
 20
-149.565809
 30
0.0
  0
SPLINE
  5
1b0
100
AcDbEntity
  8
0
 62
7
100
AcDbSpline
 70
8
 71
3
 72
8
 73
4
 74
0
 40
0
 40
0
 40
0
 40
0
 40
1
 40
1
 40
1
 40
1
 10
614.661120
 20
-130.289969
 30
0.0
 10
613.399962
 20
-130.289969
 30
0.0
 10
612.262985
 20
-131.049672
 30
0.0
 10
611.780361
 20
-132.214831
 30
0.0
  0
SPLINE
  5
1b1
100
AcDbEntity
  8
0
 62
7
100
AcDbSpline
 70
8
 71
3
 72
8
 73
4
 74
0
 40
0
 40
0
 40
0
 40
0
 40
1
 40
1
 40
1
 40
1
 10
611.780361
 20
-132.214831
 30
0.0
 10
611.297737
 20
-133.379989
 30
0.0
 10
611.564509
 20
-134.721144
 30
0.0
 10
612.456282
 20
-135.612918
 30
0.0
  0
SPLINE
  5
1b2
100
AcDbEntity
  8
0
 62
7
100
AcDbSpline
 70
8
 71
3
 72
8
 73
4
 74
0
 40
0
 40
0
 40
0
 40
0
 40
1
 40
1
 40
1
 40
1
 10
612.456282
 20
-135.612918
 30
0.0
 10
613.348056
 20
-136.504691
 30
0.0
 10
614.689211
 20
-136.771463
 30
0.0
 10
615.854369
 20
-136.288839
 30
0.0
  0
SPLINE
  5
1b3
100
AcDbEntity
  8
0
 62
7
100
AcDbSpline
 70
8
 71
3
 72
8
 73
4
 74
0
 40
0
 40
0
 40
0
 40
0
 40
1
 40
1
 40
1
 40
1
 10
615.854369
 20
-136.288839
 30
0.0
 10
617.019528
 20
-135.806215
 30
0.0
 10
617.779231
 20
-134.669238
 30
0.0
 10
617.779231
 20
-133.408080
 30
0.0
  0
SPLINE
  5
1b4
100
AcDbEntity
  8
0
 62
7
100
AcDbSpline
 70
8
 71
3
 72
8
 73
4
 74
0
 40
0
 40
0
 40
0
 40
0
 40
1
 40
1
 40
1
 40
1
 10
617.779231
 20
-133.408080
 30
0.0
 10
617.779231
 20
-132.581105
 30
0.0
 10
617.450717
 20
-131.788002
 30
0.0
 10
616.865958
 20
-131.203242
 30
0.0
  0
SPLINE
  5
1b5
100
AcDbEntity
  8
0
 62
7
100
AcDbSpline
 70
8
 71
3
 72
8
 73
4
 74
0
 40
0
 40
0
 40
0
 40
0
 40
1
 40
1
 40
1
 40
1
 10
616.865958
 20
-131.203242
 30
0.0
 10
616.281198
 20
-130.618483
 30
0.0
 10
615.488095
 20
-130.289969
 30
0.0
 10
614.661120
 20
-130.289969
 30
0.0
  0
LWPOLYLINE
  5
1b6
100
AcDbEntity
  8
0
 62
7
100
AcDbPolyline
 90
1
 70
1
 10
118.031040
 20
-49.786409
 30
0.0
  0
SPLINE
  5
1b7
100
AcDbEntity
  8
0
 62
7
100
AcDbSpline
 70
8
 71
3
 72
8
 73
4
 74
0
 40
0
 40
0
 40
0
 40
0
 40
1
 40
1
 40
1
 40
1
 10
254.661120
 20
-136.526609
 30
0.0
 10
253.399962
 20
-136.526609
 30
0.0
 10
252.262985
 20
-137.286312
 30
0.0
 10
251.780361
 20
-138.451471
 30
0.0
  0
SPLINE
  5
1b8
100
AcDbEntity
  8
0
 62
7
100
AcDbSpline
 70
8
 71
3
 72
8
 73
4
 74
0
 40
0
 40
0
 40
0
 40
0
 40
1
 40
1
 40
1
 40
1
 10
251.780361
 20
-138.451471
 30
0.0
 10
251.297737
 20
-139.616629
 30
0.0
 10
251.564509
 20
-140.957784
 30
0.0
 10
252.456282
 20
-141.849558
 30
0.0
  0
SPLINE
  5
1b9
100
AcDbEntity
  8
0
 62
7
100
AcDbSpline
 70
8
 71
3
 72
8
 73
4
 74
0
 40
0
 40
0
 40
0
 40
0
 40
1
 40
1
 40
1
 40
1
 10
252.456282
 20
-141.849558
 30
0.0
 10
253.348056
 20
-142.741331
 30
0.0
 10
254.689211
 20
-143.008103
 30
0.0
 10
255.854369
 20
-142.525479
 30
0.0
  0
SPLINE
  5
1ba
100
AcDbEntity
  8
0
 62
7
100
AcDbSpline
 70
8
 71
3
 72
8
 73
4
 74
0
 40
0
 40
0
 40
0
 40
0
 40
1
 40
1
 40
1
 40
1
 10
255.854369
 20
-142.525479
 30
0.0
 10
257.019528
 20
-142.042855
 30
0.0
 10
257.779231
 20
-140.905878
 30
0.0
 10
257.779231
 20
-139.644720
 30
0.0
  0
SPLINE
  5
1bb
100
AcDbEntity
  8
0
 62
7
100
AcDbSpline
 70
8
 71
3
 72
8
 73
4
 74
0
 40
0
 40
0
 40
0
 40
0
 40
1
 40
1
 40
1
 40
1
 10
257.779231
 20
-139.644720
 30
0.0
 10
257.779231
 20
-138.817745
 30
0.0
 10
257.450717
 20
-138.024642
 30
0.0
 10
256.865958
 20
-137.439882
 30
0.0
  0
SPLINE
  5
1bc
100
AcDbEntity
  8
0
 62
7
100
AcDbSpline
 70
8
 71
3
 72
8
 73
4
 74
0
 40
0
 40
0
 40
0
 40
0
 40
1
 40
1
 40
1
 40
1
 10
256.865958
 20
-137.439882
 30
0.0
 10
256.281198
 20
-136.855123
 30
0.0
 10
255.488095
 20
-136.526609
 30
0.0
 10
254.661120
 20
-136.526609
 30
0.0
  0
LWPOLYLINE
  5
1bd
100
AcDbEntity
  8
0
 62
7
100
AcDbPolyline
 90
1
 70
1
 10
614.661120
 20
-130.289969
 30
0.0
  0
SPLINE
  5
1be
100
AcDbEntity
  8
0
 62
7
100
AcDbSpline
 70
8
 71
3
 72
8
 73
4
 74
0
 40
0
 40
0
 40
0
 40
0
 40
1
 40
1
 40
1
 40
1
 10
496.172880
 20
-270.888689
 30
0.0
 10
494.911722
 20
-270.888689
 30
0.0
 10
493.774745
 20
-271.648392
 30
0.0
 10
493.292121
 20
-272.813551
 30
0.0
  0
SPLINE
  5
1bf
100
AcDbEntity
  8
0
 62
7
100
AcDbSpline
 70
8
 71
3
 72
8
 73
4
 74
0
 40
0
 40
0
 40
0
 40
0
 40
1
 40
1
 40
1
 40
1
 10
493.292121
 20
-272.813551
 30
0.0
 10
492.809497
 20
-273.978709
 30
0.0
 10
493.076269
 20
-275.319864
 30
0.0
 10
493.968042
 20
-276.211638
 30
0.0
  0
SPLINE
  5
1c0
100
AcDbEntity
  8
0
 62
7
100
AcDbSpline
 70
8
 71
3
 72
8
 73
4
 74
0
 40
0
 40
0
 40
0
 40
0
 40
1
 40
1
 40
1
 40
1
 10
493.968042
 20
-276.211638
 30
0.0
 10
494.859816
 20
-277.103411
 30
0.0
 10
496.200971
 20
-277.370183
 30
0.0
 10
497.366129
 20
-276.887559
 30
0.0
  0
SPLINE
  5
1c1
100
AcDbEntity
  8
0
 62
7
100
AcDbSpline
 70
8
 71
3
 72
8
 73
4
 74
0
 40
0
 40
0
 40
0
 40
0
 40
1
 40
1
 40
1
 40
1
 10
497.366129
 20
-276.887559
 30
0.0
 10
498.531288
 20
-276.404935
 30
0.0
 10
499.290991
 20
-275.267958
 30
0.0
 10
499.290991
 20
-274.006800
 30
0.0
  0
SPLINE
  5
1c2
100
AcDbEntity
  8
0
 62
7
100
AcDbSpline
 70
8
 71
3
 72
8
 73
4
 74
0
 40
0
 40
0
 40
0
 40
0
 40
1
 40
1
 40
1
 40
1
 10
499.290991
 20
-274.006800
 30
0.0
 10
499.290991
 20
-273.179825
 30
0.0
 10
498.962477
 20
-272.386722
 30
0.0
 10
498.377718
 20
-271.801962
 30
0.0
  0
SPLINE
  5
1c3
100
AcDbEntity
  8
0
 62
7
100
AcDbSpline
 70
8
 71
3
 72
8
 73
4
 74
0
 40
0
 40
0
 40
0
 40
0
 40
1
 40
1
 40
1
 40
1
 10
498.377718
 20
-271.801962
 30
0.0
 10
497.792958
 20
-271.217203
 30
0.0
 10
496.999855
 20
-270.888689
 30
0.0
 10
496.172880
 20
-270.888689
 30
0.0
  0
LWPOLYLINE
  5
1c4
100
AcDbEntity
  8
0
 62
7
100
AcDbPolyline
 90
1
 70
1
 10
254.661120
 20
-136.526609
 30
0.0
  0
SPLINE
  5
1c5
100
AcDbEntity
  8
0
 62
7
100
AcDbSpline
 70
8
 71
3
 72
8
 73
4
 74
0
 40
0
 40
0
 40
0
 40
0
 40
1
 40
1
 40
1
 40
1
 10
569.306880
 20
-32.211569
 30
0.0
 10
568.045722
 20
-32.211569
 30
0.0
 10
566.908745
 20
-32.971272
 30
0.0
 10
566.426121
 20
-34.136431
 30
0.0
  0
SPLINE
  5
1c6
100
AcDbEntity
  8
0
 62
7
100
AcDbSpline
 70
8
 71
3
 72
8
 73
4
 74
0
 40
0
 40
0
 40
0
 40
0
 40
1
 40
1
 40
1
 40
1
 10
566.426121
 20
-34.136431
 30
0.0
 10
565.943497
 20
-35.301589
 30
0.0
 10
566.210269
 20
-36.642744
 30
0.0
 10
567.102042
 20
-37.534518
 30
0.0
  0
SPLINE
  5
1c7
100
AcDbEntity
  8
0
 62
7
100
AcDbSpline
 70
8
 71
3
 72
8
 73
4
 74
0
 40
0
 40
0
 40
0
 40
0
 40
1
 40
1
 40
1
 40
1
 10
567.102042
 20
-37.534518
 30
0.0
 10
567.993816
 20
-38.426291
 30
0.0
 10
569.334971
 20
-38.693063
 30
0.0
 10
570.500129
 20
-38.210439
 30
0.0
  0
SPLINE
  5
1c8
100
AcDbEntity
  8
0
 62
7
100
AcDbSpline
 70
8
 71
3
 72
8
 73
4
 74
0
 40
0
 40
0
 40
0
 40
0
 40
1
 40
1
 40
1
 40
1
 10
570.500129
 20
-38.210439
 30
0.0
 10
571.665288
 20
-37.727815
 30
0.0
 10
572.424991
 20
-36.590838
 30
0.0
 10
572.424991
 20
-35.329680
 30
0.0
  0
SPLINE
  5
1c9
100
AcDbEntity
  8
0
 62
7
100
AcDbSpline
 70
8
 71
3
 72
8
 73
4
 74
0
 40
0
 40
0
 40
0
 40
0
 40
1
 40
1
 40
1
 40
1
 10
572.424991
 20
-35.329680
 30
0.0
 10
572.424991
 20
-33.607595
 30
0.0
 10
571.028965
 20
-32.211569
 30
0.0
 10
569.306880
 20
-32.211569
 30
0.0
  0
LWPOLYLINE
  5
1ca
100
AcDbEntity
  8
0
 62
7
100
AcDbPolyline
 90
1
 70
1
 10
496.172880
 20
-270.888689
 30
0.0
  0
SPLINE
  5
1cb
100
AcDbEntity
  8
0
 62
7
100
AcDbSpline
 70
8
 71
3
 72
8
 73
4
 74
0
 40
0
 40
0
 40
0
 40
0
 40
1
 40
1
 40
1
 40
1
 10
197.401680
 20
-268.620689
 30
0.0
 10
196.140522
 20
-268.620689
 30
0.0
 10
195.003545
 20
-269.380392
 30
0.0
 10
194.520921
 20
-270.545551
 30
0.0
  0
SPLINE
  5
1cc
100
AcDbEntity
  8
0
 62
7
100
AcDbSpline
 70
8
 71
3
 72
8
 73
4
 74
0
 40
0
 40
0
 40
0
 40
0
 40
1
 40
1
 40
1
 40
1
 10
194.520921
 20
-270.545551
 30
0.0
 10
194.038297
 20
-271.710709
 30
0.0
 10
194.305069
 20
-273.051864
 30
0.0
 10
195.196842
 20
-273.943638
 30
0.0
  0
SPLINE
  5
1cd
100
AcDbEntity
  8
0
 62
7
100
AcDbSpline
 70
8
 71
3
 72
8
 73
4
 74
0
 40
0
 40
0
 40
0
 40
0
 40
1
 40
1
 40
1
 40
1
 10
195.196842
 20
-273.943638
 30
0.0
 10
196.088616
 20
-274.835411
 30
0.0
 10
197.429771
 20
-275.102183
 30
0.0
 10
198.594929
 20
-274.619559
 30
0.0
  0
SPLINE
  5
1ce
100
AcDbEntity
  8
0
 62
7
100
AcDbSpline
 70
8
 71
3
 72
8
 73
4
 74
0
 40
0
 40
0
 40
0
 40
0
 40
1
 40
1
 40
1
 40
1
 10
198.594929
 20
-274.619559
 30
0.0
 10
199.760088
 20
-274.136935
 30
0.0
 10
200.519791
 20
-272.999958
 30
0.0
 10
200.519791
 20
-271.738800
 30
0.0
  0
SPLINE
  5
1cf
100
AcDbEntity
  8
0
 62
7
100
AcDbSpline
 70
8
 71
3
 72
8
 73
4
 74
0
 40
0
 40
0
 40
0
 40
0
 40
1
 40
1
 40
1
 40
1
 10
200.519791
 20
-271.738800
 30
0.0
 10
200.519791
 20
-270.016715
 30
0.0
 10
199.123765
 20
-268.620689
 30
0.0
 10
197.401680
 20
-268.620689
 30
0.0
  0
LWPOLYLINE
  5
1d0
100
AcDbEntity
  8
0
 62
7
100
AcDbPolyline
 90
1
 70
1
 10
569.306880
 20
-32.211569
 30
0.0
  0
SPLINE
  5
1d1
100
AcDbEntity
  8
0
 62
7
100
AcDbSpline
 70
8
 71
3
 72
8
 73
4
 74
0
 40
0
 40
0
 40
0
 40
0
 40
1
 40
1
 40
1
 40
1
 10
382.787280
 20
-368.259149
 30
0.0
 10
381.239496
 20
-368.259149
 30
0.0
 10
379.844116
 20
-369.191512
 30
0.0
 10
379.251804
 20
-370.621478
 30
0.0
  0
SPLINE
  5
1d2
100
AcDbEntity
  8
0
 62
7
100
AcDbSpline
 70
8
 71
3
 72
8
 73
4
 74
0
 40
0
 40
0
 40
0
 40
0
 40
1
 40
1
 40
1
 40
1
 10
379.251804
 20
-370.621478
 30
0.0
 10
378.659493
 20
-372.051444
 30
0.0
 10
378.986895
 20
-373.697407
 30
0.0
 10
380.081344
 20
-374.791856
 30
0.0
  0
SPLINE
  5
1d3
100
AcDbEntity
  8
0
 62
7
100
AcDbSpline
 70
8
 71
3
 72
8
 73
4
 74
0
 40
0
 40
0
 40
0
 40
0
 40
1
 40
1
 40
1
 40
1
 10
380.081344
 20
-374.791856
 30
0.0
 10
381.175793
 20
-375.886305
 30
0.0
 10
382.821756
 20
-376.213707
 30
0.0
 10
384.251722
 20
-375.621396
 30
0.0
  0
SPLINE
  5
1d4
100
AcDbEntity
  8
0
 62
7
100
AcDbSpline
 70
8
 71
3
 72
8
 73
4
 74
0
 40
0
 40
0
 40
0
 40
0
 40
1
 40
1
 40
1
 40
1
 10
384.251722
 20
-375.621396
 30
0.0
 10
385.681688
 20
-375.029084
 30
0.0
 10
386.614051
 20
-373.633704
 30
0.0
 10
386.614051
 20
-372.085920
 30
0.0
  0
SPLINE
  5
1d5
100
AcDbEntity
  8
0
 62
7
100
AcDbSpline
 70
8
 71
3
 72
8
 73
4
 74
0
 40
0
 40
0
 40
0
 40
0
 40
1
 40
1
 40
1
 40
1
 10
386.614051
 20
-372.085920
 30
0.0
 10
386.614051
 20
-369.972453
 30
0.0
 10
384.900747
 20
-368.259149
 30
0.0
 10
382.787280
 20
-368.259149
 30
0.0
  0
LWPOLYLINE
  5
1d6
100
AcDbEntity
  8
0
 62
7
100
AcDbPolyline
 90
1
 70
1
 10
197.401680
 20
-268.620689
 30
0.0
  0
SPLINE
  5
1d7
100
AcDbEntity
  8
0
 62
7
100
AcDbSpline
 70
8
 71
3
 72
8
 73
4
 74
0
 40
0
 40
0
 40
0
 40
0
 40
1
 40
1
 40
1
 40
1
 10
281.306880
 20
-370.101089
 30
0.0
 10
279.584795
 20
-370.101089
 30
0.0
 10
278.188769
 20
-371.497115
 30
0.0
 10
278.188769
 20
-373.219200
 30
0.0
  0
SPLINE
  5
1d8
100
AcDbEntity
  8
0
 62
7
100
AcDbSpline
 70
8
 71
3
 72
8
 73
4
 74
0
 40
0
 40
0
 40
0
 40
0
 40
1
 40
1
 40
1
 40
1
 10
278.188769
 20
-373.219200
 30
0.0
 10
278.188769
 20
-374.941285
 30
0.0
 10
279.584795
 20
-376.337311
 30
0.0
 10
281.306880
 20
-376.337311
 30
0.0
  0
SPLINE
  5
1d9
100
AcDbEntity
  8
0
 62
7
100
AcDbSpline
 70
8
 71
3
 72
8
 73
4
 74
0
 40
0
 40
0
 40
0
 40
0
 40
1
 40
1
 40
1
 40
1
 10
281.306880
 20
-376.337311
 30
0.0
 10
283.028965
 20
-376.337311
 30
0.0
 10
284.424991
 20
-374.941285
 30
0.0
 10
284.424991
 20
-373.219200
 30
0.0
  0
SPLINE
  5
1da
100
AcDbEntity
  8
0
 62
7
100
AcDbSpline
 70
8
 71
3
 72
8
 73
4
 74
0
 40
0
 40
0
 40
0
 40
0
 40
1
 40
1
 40
1
 40
1
 10
284.424991
 20
-373.219200
 30
0.0
 10
284.424991
 20
-372.392225
 30
0.0
 10
284.096477
 20
-371.599122
 30
0.0
 10
283.511718
 20
-371.014362
 30
0.0
  0
SPLINE
  5
1db
100
AcDbEntity
  8
0
 62
7
100
AcDbSpline
 70
8
 71
3
 72
8
 73
4
 74
0
 40
0
 40
0
 40
0
 40
0
 40
1
 40
1
 40
1
 40
1
 10
283.511718
 20
-371.014362
 30
0.0
 10
282.926958
 20
-370.429603
 30
0.0
 10
282.133855
 20
-370.101089
 30
0.0
 10
281.306880
 20
-370.101089
 30
0.0
  0
LWPOLYLINE
  5
1dc
100
AcDbEntity
  8
0
 62
7
100
AcDbPolyline
 90
1
 70
1
 10
382.787280
 20
-368.259149
 30
0.0
  0
SPLINE
  5
1dd
100
AcDbEntity
  8
0
 62
7
100
AcDbSpline
 70
8
 71
3
 72
8
 73
4
 74
0
 40
0
 40
0
 40
0
 40
0
 40
1
 40
1
 40
1
 40
1
 10
438.346080
 20
-138.227249
 30
0.0
 10
437.084922
 20
-138.227249
 30
0.0
 10
435.947945
 20
-138.986952
 30
0.0
 10
435.465321
 20
-140.152111
 30
0.0
  0
SPLINE
  5
1de
100
AcDbEntity
  8
0
 62
7
100
AcDbSpline
 70
8
 71
3
 72
8
 73
4
 74
0
 40
0
 40
0
 40
0
 40
0
 40
1
 40
1
 40
1
 40
1
 10
435.465321
 20
-140.152111
 30
0.0
 10
434.982697
 20
-141.317269
 30
0.0
 10
435.249469
 20
-142.658424
 30
0.0
 10
436.141242
 20
-143.550198
 30
0.0
  0
SPLINE
  5
1df
100
AcDbEntity
  8
0
 62
7
100
AcDbSpline
 70
8
 71
3
 72
8
 73
4
 74
0
 40
0
 40
0
 40
0
 40
0
 40
1
 40
1
 40
1
 40
1
 10
436.141242
 20
-143.550198
 30
0.0
 10
437.033016
 20
-144.441971
 30
0.0
 10
438.374171
 20
-144.708743
 30
0.0
 10
439.539329
 20
-144.226119
 30
0.0
  0
SPLINE
  5
1e0
100
AcDbEntity
  8
0
 62
7
100
AcDbSpline
 70
8
 71
3
 72
8
 73
4
 74
0
 40
0
 40
0
 40
0
 40
0
 40
1
 40
1
 40
1
 40
1
 10
439.539329
 20
-144.226119
 30
0.0
 10
440.704488
 20
-143.743495
 30
0.0
 10
441.464191
 20
-142.606518
 30
0.0
 10
441.464191
 20
-141.345360
 30
0.0
  0
SPLINE
  5
1e1
100
AcDbEntity
  8
0
 62
7
100
AcDbSpline
 70
8
 71
3
 72
8
 73
4
 74
0
 40
0
 40
0
 40
0
 40
0
 40
1
 40
1
 40
1
 40
1
 10
441.464191
 20
-141.345360
 30
0.0
 10
441.464191
 20
-140.518385
 30
0.0
 10
441.135677
 20
-139.725282
 30
0.0
 10
440.550918
 20
-139.140522
 30
0.0
  0
SPLINE
  5
1e2
100
AcDbEntity
  8
0
 62
7
100
AcDbSpline
 70
8
 71
3
 72
8
 73
4
 74
0
 40
0
 40
0
 40
0
 40
0
 40
1
 40
1
 40
1
 40
1
 10
440.550918
 20
-139.140522
 30
0.0
 10
439.966158
 20
-138.555763
 30
0.0
 10
439.173055
 20
-138.227249
 30
0.0
 10
438.346080
 20
-138.227249
 30
0.0
  0
LWPOLYLINE
  5
1e3
100
AcDbEntity
  8
0
 62
7
100
AcDbPolyline
 90
1
 70
1
 10
281.306880
 20
-370.101089
 30
0.0
  0
SPLINE
  5
1e4
100
AcDbEntity
  8
0
 62
7
100
AcDbSpline
 70
8
 71
3
 72
8
 73
4
 74
0
 40
0
 40
0
 40
0
 40
0
 40
1
 40
1
 40
1
 40
1
 10
407.165040
 20
-368.967809
 30
0.0
 10
405.903882
 20
-368.967809
 30
0.0
 10
404.766905
 20
-369.727512
 30
0.0
 10
404.284281
 20
-370.892671
 30
0.0
  0
SPLINE
  5
1e5
100
AcDbEntity
  8
0
 62
7
100
AcDbSpline
 70
8
 71
3
 72
8
 73
4
 74
0
 40
0
 40
0
 40
0
 40
0
 40
1
 40
1
 40
1
 40
1
 10
404.284281
 20
-370.892671
 30
0.0
 10
403.801657
 20
-372.057829
 30
0.0
 10
404.068429
 20
-373.398984
 30
0.0
 10
404.960202
 20
-374.290758
 30
0.0
  0
SPLINE
  5
1e6
100
AcDbEntity
  8
0
 62
7
100
AcDbSpline
 70
8
 71
3
 72
8
 73
4
 74
0
 40
0
 40
0
 40
0
 40
0
 40
1
 40
1
 40
1
 40
1
 10
404.960202
 20
-374.290758
 30
0.0
 10
405.851976
 20
-375.182531
 30
0.0
 10
407.193131
 20
-375.449303
 30
0.0
 10
408.358289
 20
-374.966679
 30
0.0
  0
SPLINE
  5
1e7
100
AcDbEntity
  8
0
 62
7
100
AcDbSpline
 70
8
 71
3
 72
8
 73
4
 74
0
 40
0
 40
0
 40
0
 40
0
 40
1
 40
1
 40
1
 40
1
 10
408.358289
 20
-374.966679
 30
0.0
 10
409.523448
 20
-374.484055
 30
0.0
 10
410.283151
 20
-373.347078
 30
0.0
 10
410.283151
 20
-372.085920
 30
0.0
  0
SPLINE
  5
1e8
100
AcDbEntity
  8
0
 62
7
100
AcDbSpline
 70
8
 71
3
 72
8
 73
4
 74
0
 40
0
 40
0
 40
0
 40
0
 40
1
 40
1
 40
1
 40
1
 10
410.283151
 20
-372.085920
 30
0.0
 10
410.283151
 20
-371.258945
 30
0.0
 10
409.954637
 20
-370.465842
 30
0.0
 10
409.369878
 20
-369.881082
 30
0.0
  0
SPLINE
  5
1e9
100
AcDbEntity
  8
0
 62
7
100
AcDbSpline
 70
8
 71
3
 72
8
 73
4
 74
0
 40
0
 40
0
 40
0
 40
0
 40
1
 40
1
 40
1
 40
1
 10
409.369878
 20
-369.881082
 30
0.0
 10
408.785118
 20
-369.296323
 30
0.0
 10
407.992015
 20
-368.967809
 30
0.0
 10
407.165040
 20
-368.967809
 30
0.0
  0
LWPOLYLINE
  5
1ea
100
AcDbEntity
  8
0
 62
7
100
AcDbPolyline
 90
1
 70
1
 10
438.346080
 20
-138.227249
 30
0.0
  0
SPLINE
  5
1eb
100
AcDbEntity
  8
0
 62
7
100
AcDbSpline
 70
8
 71
3
 72
8
 73
4
 74
0
 40
0
 40
0
 40
0
 40
0
 40
1
 40
1
 40
1
 40
1
 10
70.409232
 20
-149.565809
 30
0.0
 10
69.148074
 20
-149.565809
 30
0.0
 10
68.011097
 20
-150.325512
 30
0.0
 10
67.528473
 20
-151.490671
 30
0.0
  0
SPLINE
  5
1ec
100
AcDbEntity
  8
0
 62
7
100
AcDbSpline
 70
8
 71
3
 72
8
 73
4
 74
0
 40
0
 40
0
 40
0
 40
0
 40
1
 40
1
 40
1
 40
1
 10
67.528473
 20
-151.490671
 30
0.0
 10
67.045849
 20
-152.655829
 30
0.0
 10
67.312621
 20
-153.996984
 30
0.0
 10
68.204394
 20
-154.888758
 30
0.0
  0
SPLINE
  5
1ed
100
AcDbEntity
  8
0
 62
7
100
AcDbSpline
 70
8
 71
3
 72
8
 73
4
 74
0
 40
0
 40
0
 40
0
 40
0
 40
1
 40
1
 40
1
 40
1
 10
68.204394
 20
-154.888758
 30
0.0
 10
69.096168
 20
-155.780531
 30
0.0
 10
70.437323
 20
-156.047303
 30
0.0
 10
71.602481
 20
-155.564679
 30
0.0
  0
SPLINE
  5
1ee
100
AcDbEntity
  8
0
 62
7
100
AcDbSpline
 70
8
 71
3
 72
8
 73
4
 74
0
 40
0
 40
0
 40
0
 40
0
 40
1
 40
1
 40
1
 40
1
 10
71.602481
 20
-155.564679
 30
0.0
 10
72.767640
 20
-155.082055
 30
0.0
 10
73.527343
 20
-153.945078
 30
0.0
 10
73.527343
 20
-152.683920
 30
0.0
  0
SPLINE
  5
1ef
100
AcDbEntity
  8
0
 62
7
100
AcDbSpline
 70
8
 71
3
 72
8
 73
4
 74
0
 40
0
 40
0
 40
0
 40
0
 40
1
 40
1
 40
1
 40
1
 10
73.527343
 20
-152.683920
 30
0.0
 10
73.527343
 20
-150.961835
 30
0.0
 10
72.131317
 20
-149.565809
 30
0.0
 10
70.409232
 20
-149.565809
 30
0.0
  0
LWPOLYLINE
  5
1f0
100
AcDbEntity
  8
0
 62
7
100
AcDbPolyline
 90
1
 70
1
 10
407.165040
 20
-368.967809
 30
0.0
  0
SPLINE
  5
1f1
100
AcDbEntity
  8
0
 62
7
100
AcDbSpline
 70
8
 71
3
 72
8
 73
4
 74
0
 40
0
 40
0
 40
0
 40
0
 40
1
 40
1
 40
1
 40
1
 10
118.031040
 20
-49.786409
 30
0.0
 10
116.769882
 20
-49.786409
 30
0.0
 10
115.632905
 20
-50.546112
 30
0.0
 10
115.150281
 20
-51.711271
 30
0.0
  0
SPLINE
  5
1f2
100
AcDbEntity
  8
0
 62
7
100
AcDbSpline
 70
8
 71
3
 72
8
 73
4
 74
0
 40
0
 40
0
 40
0
 40
0
 40
1
 40
1
 40
1
 40
1
 10
115.150281
 20
-51.711271
 30
0.0
 10
114.667657
 20
-52.876429
 30
0.0
 10
114.934429
 20
-54.217584
 30
0.0
 10
115.826202
 20
-55.109358
 30
0.0
  0
SPLINE
  5
1f3
100
AcDbEntity
  8
0
 62
7
100
AcDbSpline
 70
8
 71
3
 72
8
 73
4
 74
0
 40
0
 40
0
 40
0
 40
0
 40
1
 40
1
 40
1
 40
1
 10
115.826202
 20
-55.109358
 30
0.0
 10
116.717976
 20
-56.001131
 30
0.0
 10
118.059131
 20
-56.267903
 30
0.0
 10
119.224289
 20
-55.785279
 30
0.0
  0
SPLINE
  5
1f4
100
AcDbEntity
  8
0
 62
7
100
AcDbSpline
 70
8
 71
3
 72
8
 73
4
 74
0
 40
0
 40
0
 40
0
 40
0
 40
1
 40
1
 40
1
 40
1
 10
119.224289
 20
-55.785279
 30
0.0
 10
120.389448
 20
-55.302655
 30
0.0
 10
121.149151
 20
-54.165678
 30
0.0
 10
121.149151
 20
-52.904520
 30
0.0
  0
SPLINE
  5
1f5
100
AcDbEntity
  8
0
 62
7
100
AcDbSpline
 70
8
 71
3
 72
8
 73
4
 74
0
 40
0
 40
0
 40
0
 40
0
 40
1
 40
1
 40
1
 40
1
 10
121.149151
 20
-52.904520
 30
0.0
 10
121.149151
 20
-52.077545
 30
0.0
 10
120.820637
 20
-51.284442
 30
0.0
 10
120.235878
 20
-50.699682
 30
0.0
  0
SPLINE
  5
1f6
100
AcDbEntity
  8
0
 62
7
100
AcDbSpline
 70
8
 71
3
 72
8
 73
4
 74
0
 40
0
 40
0
 40
0
 40
0
 40
1
 40
1
 40
1
 40
1
 10
120.235878
 20
-50.699682
 30
0.0
 10
119.651118
 20
-50.114923
 30
0.0
 10
118.858015
 20
-49.786409
 30
0.0
 10
118.031040
 20
-49.786409
 30
0.0
  0
LWPOLYLINE
  5
1f7
100
AcDbEntity
  8
0
 62
7
100
AcDbPolyline
 90
1
 70
1
 10
70.409232
 20
-149.565809
 30
0.0
  0
SPLINE
  5
1f8
100
AcDbEntity
  8
0
 62
7
100
AcDbSpline
 70
8
 71
3
 72
8
 73
4
 74
0
 40
0
 40
0
 40
0
 40
0
 40
1
 40
1
 40
1
 40
1
 10
614.661120
 20
-130.289969
 30
0.0
 10
613.399962
 20
-130.289969
 30
0.0
 10
612.262985
 20
-131.049672
 30
0.0
 10
611.780361
 20
-132.214831
 30
0.0
  0
SPLINE
  5
1f9
100
AcDbEntity
  8
0
 62
7
100
AcDbSpline
 70
8
 71
3
 72
8
 73
4
 74
0
 40
0
 40
0
 40
0
 40
0
 40
1
 40
1
 40
1
 40
1
 10
611.780361
 20
-132.214831
 30
0.0
 10
611.297737
 20
-133.379989
 30
0.0
 10
611.564509
 20
-134.721144
 30
0.0
 10
612.456282
 20
-135.612918
 30
0.0
  0
SPLINE
  5
1fa
100
AcDbEntity
  8
0
 62
7
100
AcDbSpline
 70
8
 71
3
 72
8
 73
4
 74
0
 40
0
 40
0
 40
0
 40
0
 40
1
 40
1
 40
1
 40
1
 10
612.456282
 20
-135.612918
 30
0.0
 10
613.348056
 20
-136.504691
 30
0.0
 10
614.689211
 20
-136.771463
 30
0.0
 10
615.854369
 20
-136.288839
 30
0.0
  0
SPLINE
  5
1fb
100
AcDbEntity
  8
0
 62
7
100
AcDbSpline
 70
8
 71
3
 72
8
 73
4
 74
0
 40
0
 40
0
 40
0
 40
0
 40
1
 40
1
 40
1
 40
1
 10
615.854369
 20
-136.288839
 30
0.0
 10
617.019528
 20
-135.806215
 30
0.0
 10
617.779231
 20
-134.669238
 30
0.0
 10
617.779231
 20
-133.408080
 30
0.0
  0
SPLINE
  5
1fc
100
AcDbEntity
  8
0
 62
7
100
AcDbSpline
 70
8
 71
3
 72
8
 73
4
 74
0
 40
0
 40
0
 40
0
 40
0
 40
1
 40
1
 40
1
 40
1
 10
617.779231
 20
-133.408080
 30
0.0
 10
617.779231
 20
-132.581105
 30
0.0
 10
617.450717
 20
-131.788002
 30
0.0
 10
616.865958
 20
-131.203242
 30
0.0
  0
SPLINE
  5
1fd
100
AcDbEntity
  8
0
 62
7
100
AcDbSpline
 70
8
 71
3
 72
8
 73
4
 74
0
 40
0
 40
0
 40
0
 40
0
 40
1
 40
1
 40
1
 40
1
 10
616.865958
 20
-131.203242
 30
0.0
 10
616.281198
 20
-130.618483
 30
0.0
 10
615.488095
 20
-130.289969
 30
0.0
 10
614.661120
 20
-130.289969
 30
0.0
  0
LWPOLYLINE
  5
1fe
100
AcDbEntity
  8
0
 62
7
100
AcDbPolyline
 90
1
 70
1
 10
118.031040
 20
-49.786409
 30
0.0
  0
SPLINE
  5
1ff
100
AcDbEntity
  8
0
 62
7
100
AcDbSpline
 70
8
 71
3
 72
8
 73
4
 74
0
 40
0
 40
0
 40
0
 40
0
 40
1
 40
1
 40
1
 40
1
 10
254.661120
 20
-136.526609
 30
0.0
 10
253.399962
 20
-136.526609
 30
0.0
 10
252.262985
 20
-137.286312
 30
0.0
 10
251.780361
 20
-138.451471
 30
0.0
  0
SPLINE
  5
200
100
AcDbEntity
  8
0
 62
7
100
AcDbSpline
 70
8
 71
3
 72
8
 73
4
 74
0
 40
0
 40
0
 40
0
 40
0
 40
1
 40
1
 40
1
 40
1
 10
251.780361
 20
-138.451471
 30
0.0
 10
251.297737
 20
-139.616629
 30
0.0
 10
251.564509
 20
-140.957784
 30
0.0
 10
252.456282
 20
-141.849558
 30
0.0
  0
SPLINE
  5
201
100
AcDbEntity
  8
0
 62
7
100
AcDbSpline
 70
8
 71
3
 72
8
 73
4
 74
0
 40
0
 40
0
 40
0
 40
0
 40
1
 40
1
 40
1
 40
1
 10
252.456282
 20
-141.849558
 30
0.0
 10
253.348056
 20
-142.741331
 30
0.0
 10
254.689211
 20
-143.008103
 30
0.0
 10
255.854369
 20
-142.525479
 30
0.0
  0
SPLINE
  5
202
100
AcDbEntity
  8
0
 62
7
100
AcDbSpline
 70
8
 71
3
 72
8
 73
4
 74
0
 40
0
 40
0
 40
0
 40
0
 40
1
 40
1
 40
1
 40
1
 10
255.854369
 20
-142.525479
 30
0.0
 10
257.019528
 20
-142.042855
 30
0.0
 10
257.779231
 20
-140.905878
 30
0.0
 10
257.779231
 20
-139.644720
 30
0.0
  0
SPLINE
  5
203
100
AcDbEntity
  8
0
 62
7
100
AcDbSpline
 70
8
 71
3
 72
8
 73
4
 74
0
 40
0
 40
0
 40
0
 40
0
 40
1
 40
1
 40
1
 40
1
 10
257.779231
 20
-139.644720
 30
0.0
 10
257.779231
 20
-138.817745
 30
0.0
 10
257.450717
 20
-138.024642
 30
0.0
 10
256.865958
 20
-137.439882
 30
0.0
  0
SPLINE
  5
204
100
AcDbEntity
  8
0
 62
7
100
AcDbSpline
 70
8
 71
3
 72
8
 73
4
 74
0
 40
0
 40
0
 40
0
 40
0
 40
1
 40
1
 40
1
 40
1
 10
256.865958
 20
-137.439882
 30
0.0
 10
256.281198
 20
-136.855123
 30
0.0
 10
255.488095
 20
-136.526609
 30
0.0
 10
254.661120
 20
-136.526609
 30
0.0
  0
LWPOLYLINE
  5
205
100
AcDbEntity
  8
0
 62
7
100
AcDbPolyline
 90
1
 70
1
 10
614.661120
 20
-130.289969
 30
0.0
  0
SPLINE
  5
206
100
AcDbEntity
  8
0
 62
7
100
AcDbSpline
 70
8
 71
3
 72
8
 73
4
 74
0
 40
0
 40
0
 40
0
 40
0
 40
1
 40
1
 40
1
 40
1
 10
496.172880
 20
-270.888689
 30
0.0
 10
494.911722
 20
-270.888689
 30
0.0
 10
493.774745
 20
-271.648392
 30
0.0
 10
493.292121
 20
-272.813551
 30
0.0
  0
SPLINE
  5
207
100
AcDbEntity
  8
0
 62
7
100
AcDbSpline
 70
8
 71
3
 72
8
 73
4
 74
0
 40
0
 40
0
 40
0
 40
0
 40
1
 40
1
 40
1
 40
1
 10
493.292121
 20
-272.813551
 30
0.0
 10
492.809497
 20
-273.978709
 30
0.0
 10
493.076269
 20
-275.319864
 30
0.0
 10
493.968042
 20
-276.211638
 30
0.0
  0
SPLINE
  5
208
100
AcDbEntity
  8
0
 62
7
100
AcDbSpline
 70
8
 71
3
 72
8
 73
4
 74
0
 40
0
 40
0
 40
0
 40
0
 40
1
 40
1
 40
1
 40
1
 10
493.968042
 20
-276.211638
 30
0.0
 10
494.859816
 20
-277.103411
 30
0.0
 10
496.200971
 20
-277.370183
 30
0.0
 10
497.366129
 20
-276.887559
 30
0.0
  0
SPLINE
  5
209
100
AcDbEntity
  8
0
 62
7
100
AcDbSpline
 70
8
 71
3
 72
8
 73
4
 74
0
 40
0
 40
0
 40
0
 40
0
 40
1
 40
1
 40
1
 40
1
 10
497.366129
 20
-276.887559
 30
0.0
 10
498.531288
 20
-276.404935
 30
0.0
 10
499.290991
 20
-275.267958
 30
0.0
 10
499.290991
 20
-274.006800
 30
0.0
  0
SPLINE
  5
20a
100
AcDbEntity
  8
0
 62
7
100
AcDbSpline
 70
8
 71
3
 72
8
 73
4
 74
0
 40
0
 40
0
 40
0
 40
0
 40
1
 40
1
 40
1
 40
1
 10
499.290991
 20
-274.006800
 30
0.0
 10
499.290991
 20
-273.179825
 30
0.0
 10
498.962477
 20
-272.386722
 30
0.0
 10
498.377718
 20
-271.801962
 30
0.0
  0
SPLINE
  5
20b
100
AcDbEntity
  8
0
 62
7
100
AcDbSpline
 70
8
 71
3
 72
8
 73
4
 74
0
 40
0
 40
0
 40
0
 40
0
 40
1
 40
1
 40
1
 40
1
 10
498.377718
 20
-271.801962
 30
0.0
 10
497.792958
 20
-271.217203
 30
0.0
 10
496.999855
 20
-270.888689
 30
0.0
 10
496.172880
 20
-270.888689
 30
0.0
  0
LWPOLYLINE
  5
20c
100
AcDbEntity
  8
0
 62
7
100
AcDbPolyline
 90
1
 70
1
 10
254.661120
 20
-136.526609
 30
0.0
  0
SPLINE
  5
20d
100
AcDbEntity
  8
0
 62
7
100
AcDbSpline
 70
8
 71
3
 72
8
 73
4
 74
0
 40
0
 40
0
 40
0
 40
0
 40
1
 40
1
 40
1
 40
1
 10
569.306880
 20
-32.211569
 30
0.0
 10
568.045722
 20
-32.211569
 30
0.0
 10
566.908745
 20
-32.971272
 30
0.0
 10
566.426121
 20
-34.136431
 30
0.0
  0
SPLINE
  5
20e
100
AcDbEntity
  8
0
 62
7
100
AcDbSpline
 70
8
 71
3
 72
8
 73
4
 74
0
 40
0
 40
0
 40
0
 40
0
 40
1
 40
1
 40
1
 40
1
 10
566.426121
 20
-34.136431
 30
0.0
 10
565.943497
 20
-35.301589
 30
0.0
 10
566.210269
 20
-36.642744
 30
0.0
 10
567.102042
 20
-37.534518
 30
0.0
  0
SPLINE
  5
20f
100
AcDbEntity
  8
0
 62
7
100
AcDbSpline
 70
8
 71
3
 72
8
 73
4
 74
0
 40
0
 40
0
 40
0
 40
0
 40
1
 40
1
 40
1
 40
1
 10
567.102042
 20
-37.534518
 30
0.0
 10
567.993816
 20
-38.426291
 30
0.0
 10
569.334971
 20
-38.693063
 30
0.0
 10
570.500129
 20
-38.210439
 30
0.0
  0
SPLINE
  5
210
100
AcDbEntity
  8
0
 62
7
100
AcDbSpline
 70
8
 71
3
 72
8
 73
4
 74
0
 40
0
 40
0
 40
0
 40
0
 40
1
 40
1
 40
1
 40
1
 10
570.500129
 20
-38.210439
 30
0.0
 10
571.665288
 20
-37.727815
 30
0.0
 10
572.424991
 20
-36.590838
 30
0.0
 10
572.424991
 20
-35.329680
 30
0.0
  0
SPLINE
  5
211
100
AcDbEntity
  8
0
 62
7
100
AcDbSpline
 70
8
 71
3
 72
8
 73
4
 74
0
 40
0
 40
0
 40
0
 40
0
 40
1
 40
1
 40
1
 40
1
 10
572.424991
 20
-35.329680
 30
0.0
 10
572.424991
 20
-33.607595
 30
0.0
 10
571.028965
 20
-32.211569
 30
0.0
 10
569.306880
 20
-32.211569
 30
0.0
  0
LWPOLYLINE
  5
212
100
AcDbEntity
  8
0
 62
7
100
AcDbPolyline
 90
1
 70
1
 10
496.172880
 20
-270.888689
 30
0.0
  0
SPLINE
  5
213
100
AcDbEntity
  8
0
 62
7
100
AcDbSpline
 70
8
 71
3
 72
8
 73
4
 74
0
 40
0
 40
0
 40
0
 40
0
 40
1
 40
1
 40
1
 40
1
 10
197.401680
 20
-268.620689
 30
0.0
 10
196.140522
 20
-268.620689
 30
0.0
 10
195.003545
 20
-269.380392
 30
0.0
 10
194.520921
 20
-270.545551
 30
0.0
  0
SPLINE
  5
214
100
AcDbEntity
  8
0
 62
7
100
AcDbSpline
 70
8
 71
3
 72
8
 73
4
 74
0
 40
0
 40
0
 40
0
 40
0
 40
1
 40
1
 40
1
 40
1
 10
194.520921
 20
-270.545551
 30
0.0
 10
194.038297
 20
-271.710709
 30
0.0
 10
194.305069
 20
-273.051864
 30
0.0
 10
195.196842
 20
-273.943638
 30
0.0
  0
SPLINE
  5
215
100
AcDbEntity
  8
0
 62
7
100
AcDbSpline
 70
8
 71
3
 72
8
 73
4
 74
0
 40
0
 40
0
 40
0
 40
0
 40
1
 40
1
 40
1
 40
1
 10
195.196842
 20
-273.943638
 30
0.0
 10
196.088616
 20
-274.835411
 30
0.0
 10
197.429771
 20
-275.102183
 30
0.0
 10
198.594929
 20
-274.619559
 30
0.0
  0
SPLINE
  5
216
100
AcDbEntity
  8
0
 62
7
100
AcDbSpline
 70
8
 71
3
 72
8
 73
4
 74
0
 40
0
 40
0
 40
0
 40
0
 40
1
 40
1
 40
1
 40
1
 10
198.594929
 20
-274.619559
 30
0.0
 10
199.760088
 20
-274.136935
 30
0.0
 10
200.519791
 20
-272.999958
 30
0.0
 10
200.519791
 20
-271.738800
 30
0.0
  0
SPLINE
  5
217
100
AcDbEntity
  8
0
 62
7
100
AcDbSpline
 70
8
 71
3
 72
8
 73
4
 74
0
 40
0
 40
0
 40
0
 40
0
 40
1
 40
1
 40
1
 40
1
 10
200.519791
 20
-271.738800
 30
0.0
 10
200.519791
 20
-270.016715
 30
0.0
 10
199.123765
 20
-268.620689
 30
0.0
 10
197.401680
 20
-268.620689
 30
0.0
  0
LWPOLYLINE
  5
218
100
AcDbEntity
  8
0
 62
7
100
AcDbPolyline
 90
1
 70
1
 10
569.306880
 20
-32.211569
 30
0.0
  0
SPLINE
  5
219
100
AcDbEntity
  8
0
 62
7
100
AcDbSpline
 70
8
 71
3
 72
8
 73
4
 74
0
 40
0
 40
0
 40
0
 40
0
 40
1
 40
1
 40
1
 40
1
 10
382.787280
 20
-368.259149
 30
0.0
 10
381.239496
 20
-368.259149
 30
0.0
 10
379.844116
 20
-369.191512
 30
0.0
 10
379.251804
 20
-370.621478
 30
0.0
  0
SPLINE
  5
21a
100
AcDbEntity
  8
0
 62
7
100
AcDbSpline
 70
8
 71
3
 72
8
 73
4
 74
0
 40
0
 40
0
 40
0
 40
0
 40
1
 40
1
 40
1
 40
1
 10
379.251804
 20
-370.621478
 30
0.0
 10
378.659493
 20
-372.051444
 30
0.0
 10
378.986895
 20
-373.697407
 30
0.0
 10
380.081344
 20
-374.791856
 30
0.0
  0
SPLINE
  5
21b
100
AcDbEntity
  8
0
 62
7
100
AcDbSpline
 70
8
 71
3
 72
8
 73
4
 74
0
 40
0
 40
0
 40
0
 40
0
 40
1
 40
1
 40
1
 40
1
 10
380.081344
 20
-374.791856
 30
0.0
 10
381.175793
 20
-375.886305
 30
0.0
 10
382.821756
 20
-376.213707
 30
0.0
 10
384.251722
 20
-375.621396
 30
0.0
  0
SPLINE
  5
21c
100
AcDbEntity
  8
0
 62
7
100
AcDbSpline
 70
8
 71
3
 72
8
 73
4
 74
0
 40
0
 40
0
 40
0
 40
0
 40
1
 40
1
 40
1
 40
1
 10
384.251722
 20
-375.621396
 30
0.0
 10
385.681688
 20
-375.029084
 30
0.0
 10
386.614051
 20
-373.633704
 30
0.0
 10
386.614051
 20
-372.085920
 30
0.0
  0
SPLINE
  5
21d
100
AcDbEntity
  8
0
 62
7
100
AcDbSpline
 70
8
 71
3
 72
8
 73
4
 74
0
 40
0
 40
0
 40
0
 40
0
 40
1
 40
1
 40
1
 40
1
 10
386.614051
 20
-372.085920
 30
0.0
 10
386.614051
 20
-369.972453
 30
0.0
 10
384.900747
 20
-368.259149
 30
0.0
 10
382.787280
 20
-368.259149
 30
0.0
  0
LWPOLYLINE
  5
21e
100
AcDbEntity
  8
0
 62
7
100
AcDbPolyline
 90
1
 70
1
 10
197.401680
 20
-268.620689
 30
0.0
  0
LWPOLYLINE
  5
21f
100
AcDbEntity
  8
0
 62
7
100
AcDbPolyline
 90
1
 70
1
 10
382.787280
 20
-368.259149
 30
0.0
  0
LWPOLYLINE
  5
220
100
AcDbEntity
  8
0
 62
7
100
AcDbPolyline
 90
33
 70
0
 10
129.369600
 20
-9.933120
 30
0.0
 10
129.132000
 20
-10.451520
 30
0.0
 10
128.887200
 20
-10.962720
 30
0.0
 10
128.649600
 20
-11.481120
 30
0.0
 10
128.412000
 20
-11.992320
 30
0.0
 10
128.174400
 20
-12.510720
 30
0.0
 10
127.929600
 20
-13.021920
 30
0.0
 10
127.692000
 20
-13.540320
 30
0.0
 10
127.454400
 20
-14.051520
 30
0.0
 10
127.209600
 20
-14.569920
 30
0.0
 10
126.972000
 20
-15.081120
 30
0.0
 10
126.734400
 20
-15.599520
 30
0.0
 10
126.489600
 20
-16.110720
 30
0.0
 10
126.252000
 20
-16.629120
 30
0.0
 10
126.014400
 20
-17.140320
 30
0.0
 10
125.776800
 20
-17.658720
 30
0.0
 10
125.532000
 20
-18.169920
 30
0.0
 10
125.294400
 20
-18.688320
 30
0.0
 10
125.056800
 20
-19.199520
 30
0.0
 10
124.812000
 20
-19.717920
 30
0.0
 10
124.574400
 20
-20.229120
 30
0.0
 10
124.336800
 20
-20.740320
 30
0.0
 10
124.099200
 20
-21.258720
 30
0.0
 10
123.854400
 20
-21.769920
 30
0.0
 10
123.616800
 20
-22.288320
 30
0.0
 10
123.379200
 20
-22.799520
 30
0.0
 10
123.134400
 20
-23.317920
 30
0.0
 10
122.896800
 20
-23.829120
 30
0.0
 10
122.659200
 20
-24.347520
 30
0.0
 10
122.421600
 20
-24.858720
 30
0.0
 10
122.176800
 20
-25.377120
 30
0.0
 10
121.939200
 20
-25.888320
 30
0.0
 10
121.701600
 20
-26.406720
 30
0.0
  0
LWPOLYLINE
  5
221
100
AcDbEntity
  8
0
 62
7
100
AcDbPolyline
 90
33
 70
0
 10
68.745600
 20
-12.697920
 30
0.0
 10
66.650400
 20
-17.169120
 30
0.0
 10
64.555200
 20
-21.633120
 30
0.0
 10
62.467200
 20
-26.104320
 30
0.0
 10
60.372000
 20
-30.575520
 30
0.0
 10
58.276800
 20
-35.046720
 30
0.0
 10
56.188800
 20
-39.517920
 30
0.0
 10
54.093600
 20
-43.989120
 30
0.0
 10
52.005600
 20
-48.460320
 30
0.0
 10
49.917600
 20
-52.931520
 30
0.0
 10
47.822400
 20
-57.402720
 30
0.0
 10
45.734400
 20
-61.873920
 30
0.0
 10
43.646400
 20
-66.345120
 30
0.0
 10
41.558400
 20
-70.823520
 30
0.0
 10
39.470400
 20
-75.294720
 30
0.0
 10
37.389600
 20
-79.765920
 30
0.0
 10
35.301600
 20
-84.244320
 30
0.0
 10
33.213600
 20
-88.715520
 30
0.0
 10
31.132800
 20
-93.193920
 30
0.0
 10
29.052000
 20
-97.665120
 30
0.0
 10
26.971200
 20
-102.143520
 30
0.0
 10
24.890400
 20
-106.614720
 30
0.0
 10
22.809600
 20
-111.093120
 30
0.0
 10
20.728800
 20
-115.571520
 30
0.0
 10
18.655200
 20
-120.049920
 30
0.0
 10
16.574400
 20
-124.528320
 30
0.0
 10
14.500800
 20
-129.006720
 30
0.0
 10
12.427200
 20
-133.485120
 30
0.0
 10
10.360800
 20
-137.963520
 30
0.0
 10
8.287200
 20
-142.449120
 30
0.0
 10
6.220800
 20
-146.927520
 30
0.0
 10
4.147200
 20
-151.413120
 30
0.0
 10
2.080800
 20
-155.891520
 30
0.0
  0
LWPOLYLINE
  5
222
100
AcDbEntity
  8
0
 62
7
100
AcDbPolyline
 90
33
 70
0
 10
121.701600
 20
-26.406720
 30
0.0
 10
120.369600
 20
-25.787520
 30
0.0
 10
119.044800
 20
-25.175520
 30
0.0
 10
117.712800
 20
-24.556320
 30
0.0
 10
116.388000
 20
-23.937120
 30
0.0
 10
115.056000
 20
-23.317920
 30
0.0
 10
113.731200
 20
-22.698720
 30
0.0
 10
112.399200
 20
-22.086720
 30
0.0
 10
111.074400
 20
-21.467520
 30
0.0
 10
109.749600
 20
-20.848320
 30
0.0
 10
108.417600
 20
-20.229120
 30
0.0
 10
107.092800
 20
-19.609920
 30
0.0
 10
105.760800
 20
-18.990720
 30
0.0
 10
104.436000
 20
-18.378720
 30
0.0
 10
103.104000
 20
-17.759520
 30
0.0
 10
101.779200
 20
-17.140320
 30
0.0
 10
100.447200
 20
-16.528320
 30
0.0
 10
99.122400
 20
-15.909120
 30
0.0
 10
97.790400
 20
-15.297120
 30
0.0
 10
96.458400
 20
-14.685120
 30
0.0
 10
95.133600
 20
-14.065920
 30
0.0
 10
93.801600
 20
-13.453920
 30
0.0
 10
92.469600
 20
-12.849120
 30
0.0
 10
91.137600
 20
-12.237120
 30
0.0
 10
89.805600
 20
-11.625120
 30
0.0
 10
88.473600
 20
-11.020320
 30
0.0
 10
87.141600
 20
-10.415520
 30
0.0
 10
85.802400
 20
-9.810720
 30
0.0
 10
84.470400
 20
-9.205920
 30
0.0
 10
83.138400
 20
-8.601120
 30
0.0
 10
81.799200
 20
-8.003520
 30
0.0
 10
80.467200
 20
-7.405920
 30
0.0
 10
79.128000
 20
-6.808320
 30
0.0
  0
LWPOLYLINE
  5
223
100
AcDbEntity
  8
0
 62
7
100
AcDbPolyline
 90
33
 70
0
 10
137.368800
 20
2.530080
 30
0.0
 10
136.936800
 20
2.292480
 30
0.0
 10
136.526400
 20
2.033280
 30
0.0
 10
136.137600
 20
1.759680
 30
0.0
 10
135.770400
 20
1.471680
 30
0.0
 10
135.424800
 20
1.162080
 30
0.0
 10
135.086400
 20
0.838080
 30
0.0
 10
134.776800
 20
0.506880
 30
0.0
 10
134.474400
 20
0.154080
 30
0.0
 10
134.186400
 20
-0.205920
 30
0.0
 10
133.920000
 20
-0.580320
 30
0.0
 10
133.660800
 20
-0.969120
 30
0.0
 10
133.416000
 20
-1.365120
 30
0.0
 10
133.178400
 20
-1.768320
 30
0.0
 10
132.948000
 20
-2.178720
 30
0.0
 10
132.732000
 20
-2.596320
 30
0.0
 10
132.523200
 20
-3.021120
 30
0.0
 10
132.314400
 20
-3.453120
 30
0.0
 10
132.120000
 20
-3.885120
 30
0.0
 10
131.925600
 20
-4.324320
 30
0.0
 10
131.738400
 20
-4.763520
 30
0.0
 10
131.544000
 20
-5.209920
 30
0.0
 10
131.364000
 20
-5.649120
 30
0.0
 10
131.176800
 20
-6.095520
 30
0.0
 10
130.989600
 20
-6.534720
 30
0.0
 10
130.802400
 20
-6.973920
 30
0.0
 10
130.615200
 20
-7.413120
 30
0.0
 10
130.420800
 20
-7.852320
 30
0.0
 10
130.226400
 20
-8.277120
 30
0.0
 10
130.017600
 20
-8.701920
 30
0.0
 10
129.808800
 20
-9.119520
 30
0.0
 10
129.592800
 20
-9.537120
 30
0.0
 10
129.369600
 20
-9.933120
 30
0.0
  0
LWPOLYLINE
  5
224
100
AcDbEntity
  8
0
 62
7
100
AcDbPolyline
 90
33
 70
0
 10
79.128000
 20
-6.808320
 30
0.0
 10
78.703200
 20
-6.671520
 30
0.0
 10
78.285600
 20
-6.563520
 30
0.0
 10
77.860800
 20
-6.477120
 30
0.0
 10
77.443200
 20
-6.419520
 30
0.0
 10
77.025600
 20
-6.390720
 30
0.0
 10
76.615200
 20
-6.383520
 30
0.0
 10
76.197600
 20
-6.397920
 30
0.0
 10
75.794400
 20
-6.441120
 30
0.0
 10
75.391200
 20
-6.505920
 30
0.0
 10
74.995200
 20
-6.592320
 30
0.0
 10
74.599200
 20
-6.693120
 30
0.0
 10
74.210400
 20
-6.822720
 30
0.0
 10
73.836000
 20
-6.973920
 30
0.0
 10
73.461600
 20
-7.139520
 30
0.0
 10
73.101600
 20
-7.319520
 30
0.0
 10
72.741600
 20
-7.528320
 30
0.0
 10
72.396000
 20
-7.744320
 30
0.0
 10
72.064800
 20
-7.981920
 30
0.0
 10
71.733600
 20
-8.241120
 30
0.0
 10
71.424000
 20
-8.507520
 30
0.0
 10
71.121600
 20
-8.795520
 30
0.0
 10
70.833600
 20
-9.090720
 30
0.0
 10
70.552800
 20
-9.400320
 30
0.0
 10
70.286400
 20
-9.724320
 30
0.0
 10
70.041600
 20
-10.062720
 30
0.0
 10
69.804000
 20
-10.408320
 30
0.0
 10
69.588000
 20
-10.768320
 30
0.0
 10
69.386400
 20
-11.135520
 30
0.0
 10
69.199200
 20
-11.509920
 30
0.0
 10
69.026400
 20
-11.898720
 30
0.0
 10
68.875200
 20
-12.294720
 30
0.0
 10
68.745600
 20
-12.697920
 30
0.0
  0
LWPOLYLINE
  5
225
100
AcDbEntity
  8
0
 62
7
100
AcDbPolyline
 90
33
 70
0
 10
7.704000
 20
-167.044320
 30
0.0
 10
8.928000
 20
-167.663520
 30
0.0
 10
10.159200
 20
-168.268320
 30
0.0
 10
11.383200
 20
-168.880320
 30
0.0
 10
12.614400
 20
-169.485120
 30
0.0
 10
13.852800
 20
-170.082720
 30
0.0
 10
15.084000
 20
-170.680320
 30
0.0
 10
16.315200
 20
-171.277920
 30
0.0
 10
17.553600
 20
-171.875520
 30
0.0
 10
18.792000
 20
-172.465920
 30
0.0
 10
20.030400
 20
-173.056320
 30
0.0
 10
21.268800
 20
-173.646720
 30
0.0
 10
22.507200
 20
-174.229920
 30
0.0
 10
23.752800
 20
-174.813120
 30
0.0
 10
24.991200
 20
-175.396320
 30
0.0
 10
26.236800
 20
-175.972320
 30
0.0
 10
27.482400
 20
-176.555520
 30
0.0
 10
28.720800
 20
-177.131520
 30
0.0
 10
29.966400
 20
-177.707520
 30
0.0
 10
31.212000
 20
-178.283520
 30
0.0
 10
32.464800
 20
-178.852320
 30
0.0
 10
33.710400
 20
-179.421120
 30
0.0
 10
34.956000
 20
-179.997120
 30
0.0
 10
36.201600
 20
-180.565920
 30
0.0
 10
37.454400
 20
-181.134720
 30
0.0
 10
38.700000
 20
-181.703520
 30
0.0
 10
39.945600
 20
-182.272320
 30
0.0
 10
41.198400
 20
-182.833920
 30
0.0
 10
42.444000
 20
-183.402720
 30
0.0
 10
43.696800
 20
-183.964320
 30
0.0
 10
44.949600
 20
-184.533120
 30
0.0
 10
46.195200
 20
-185.094720
 30
0.0
 10
47.448000
 20
-185.663520
 30
0.0
  0
LWPOLYLINE
  5
226
100
AcDbEntity
  8
0
 62
7
100
AcDbPolyline
 90
33
 70
0
 10
95.868000
 20
-228.193920
 30
0.0
 10
96.292800
 20
-228.294720
 30
0.0
 10
96.710400
 20
-228.366720
 30
0.0
 10
97.120800
 20
-228.417120
 30
0.0
 10
97.531200
 20
-228.438720
 30
0.0
 10
97.941600
 20
-228.431520
 30
0.0
 10
98.344800
 20
-228.409920
 30
0.0
 10
98.740800
 20
-228.359520
 30
0.0
 10
99.129600
 20
-228.287520
 30
0.0
 10
99.518400
 20
-228.193920
 30
0.0
 10
99.892800
 20
-228.078720
 30
0.0
 10
100.267200
 20
-227.941920
 30
0.0
 10
100.634400
 20
-227.783520
 30
0.0
 10
100.987200
 20
-227.610720
 30
0.0
 10
101.340000
 20
-227.423520
 30
0.0
 10
101.678400
 20
-227.214720
 30
0.0
 10
102.016800
 20
-226.991520
 30
0.0
 10
102.333600
 20
-226.746720
 30
0.0
 10
102.650400
 20
-226.494720
 30
0.0
 10
102.952800
 20
-226.228320
 30
0.0
 10
103.248000
 20
-225.940320
 30
0.0
 10
103.528800
 20
-225.652320
 30
0.0
 10
103.795200
 20
-225.342720
 30
0.0
 10
104.054400
 20
-225.025920
 30
0.0
 10
104.299200
 20
-224.694720
 30
0.0
 10
104.529600
 20
-224.356320
 30
0.0
 10
104.752800
 20
-224.010720
 30
0.0
 10
104.961600
 20
-223.657920
 30
0.0
 10
105.148800
 20
-223.290720
 30
0.0
 10
105.328800
 20
-222.923520
 30
0.0
 10
105.494400
 20
-222.549120
 30
0.0
 10
105.638400
 20
-222.167520
 30
0.0
 10
105.768000
 20
-221.785920
 30
0.0
  0
LWPOLYLINE
  5
227
100
AcDbEntity
  8
0
 62
7
100
AcDbPolyline
 90
33
 70
0
 10
127.994400
 20
-290.459520
 30
0.0
 10
129.448800
 20
-291.165120
 30
0.0
 10
130.903200
 20
-291.877920
 30
0.0
 10
132.364800
 20
-292.576320
 30
0.0
 10
133.826400
 20
-293.274720
 30
0.0
 10
135.288000
 20
-293.973120
 30
0.0
 10
136.749600
 20
-294.664320
 30
0.0
 10
138.211200
 20
-295.362720
 30
0.0
 10
139.680000
 20
-296.046720
 30
0.0
 10
141.141600
 20
-296.737920
 30
0.0
 10
142.610400
 20
-297.421920
 30
0.0
 10
144.079200
 20
-298.105920
 30
0.0
 10
145.548000
 20
-298.789920
 30
0.0
 10
147.016800
 20
-299.466720
 30
0.0
 10
148.485600
 20
-300.150720
 30
0.0
 10
149.961600
 20
-300.827520
 30
0.0
 10
151.430400
 20
-301.511520
 30
0.0
 10
152.899200
 20
-302.188320
 30
0.0
 10
154.368000
 20
-302.865120
 30
0.0
 10
155.836800
 20
-303.549120
 30
0.0
 10
157.305600
 20
-304.233120
 30
0.0
 10
158.774400
 20
-304.909920
 30
0.0
 10
160.243200
 20
-305.593920
 30
0.0
 10
161.712000
 20
-306.277920
 30
0.0
 10
163.173600
 20
-306.969120
 30
0.0
 10
164.642400
 20
-307.653120
 30
0.0
 10
166.104000
 20
-308.344320
 30
0.0
 10
167.572800
 20
-309.035520
 30
0.0
 10
169.027200
 20
-309.733920
 30
0.0
 10
170.488800
 20
-310.432320
 30
0.0
 10
171.950400
 20
-311.130720
 30
0.0
 10
173.404800
 20
-311.836320
 30
0.0
 10
174.859200
 20
-312.549120
 30
0.0
  0
LWPOLYLINE
  5
228
100
AcDbEntity
  8
0
 62
7
100
AcDbPolyline
 90
33
 70
0
 10
2.080800
 20
-155.891520
 30
0.0
 10
1.922400
 20
-156.323520
 30
0.0
 10
1.785600
 20
-156.755520
 30
0.0
 10
1.677600
 20
-157.187520
 30
0.0
 10
1.598400
 20
-157.619520
 30
0.0
 10
1.548000
 20
-158.051520
 30
0.0
 10
1.526400
 20
-158.483520
 30
0.0
 10
1.526400
 20
-158.908320
 30
0.0
 10
1.555200
 20
-159.333120
 30
0.0
 10
1.605600
 20
-159.750720
 30
0.0
 10
1.677600
 20
-160.168320
 30
0.0
 10
1.771200
 20
-160.578720
 30
0.0
 10
1.893600
 20
-160.989120
 30
0.0
 10
2.030400
 20
-161.385120
 30
0.0
 10
2.196000
 20
-161.781120
 30
0.0
 10
2.376000
 20
-162.169920
 30
0.0
 10
2.570400
 20
-162.544320
 30
0.0
 10
2.786400
 20
-162.918720
 30
0.0
 10
3.024000
 20
-163.278720
 30
0.0
 10
3.276000
 20
-163.631520
 30
0.0
 10
3.542400
 20
-163.969920
 30
0.0
 10
3.823200
 20
-164.301120
 30
0.0
 10
4.118400
 20
-164.617920
 30
0.0
 10
4.428000
 20
-164.927520
 30
0.0
 10
4.752000
 20
-165.222720
 30
0.0
 10
5.083200
 20
-165.503520
 30
0.0
 10
5.428800
 20
-165.769920
 30
0.0
 10
5.788800
 20
-166.021920
 30
0.0
 10
6.156000
 20
-166.259520
 30
0.0
 10
6.530400
 20
-166.482720
 30
0.0
 10
6.912000
 20
-166.691520
 30
0.0
 10
7.300800
 20
-166.878720
 30
0.0
 10
7.704000
 20
-167.044320
 30
0.0
  0
LWPOLYLINE
  5
229
100
AcDbEntity
  8
0
 62
7
100
AcDbPolyline
 90
33
 70
0
 10
122.155200
 20
-280.725120
 30
0.0
 10
122.068800
 20
-281.128320
 30
0.0
 10
121.996800
 20
-281.524320
 30
0.0
 10
121.953600
 20
-281.920320
 30
0.0
 10
121.932000
 20
-282.316320
 30
0.0
 10
121.924800
 20
-282.705120
 30
0.0
 10
121.946400
 20
-283.093920
 30
0.0
 10
121.989600
 20
-283.482720
 30
0.0
 10
122.047200
 20
-283.857120
 30
0.0
 10
122.126400
 20
-284.231520
 30
0.0
 10
122.220000
 20
-284.605920
 30
0.0
 10
122.335200
 20
-284.965920
 30
0.0
 10
122.464800
 20
-285.325920
 30
0.0
 10
122.616000
 20
-285.678720
 30
0.0
 10
122.781600
 20
-286.024320
 30
0.0
 10
122.968800
 20
-286.362720
 30
0.0
 10
123.163200
 20
-286.686720
 30
0.0
 10
123.379200
 20
-287.010720
 30
0.0
 10
123.602400
 20
-287.320320
 30
0.0
 10
123.847200
 20
-287.622720
 30
0.0
 10
124.099200
 20
-287.910720
 30
0.0
 10
124.365600
 20
-288.191520
 30
0.0
 10
124.646400
 20
-288.465120
 30
0.0
 10
124.934400
 20
-288.724320
 30
0.0
 10
125.236800
 20
-288.969120
 30
0.0
 10
125.553600
 20
-289.206720
 30
0.0
 10
125.870400
 20
-289.422720
 30
0.0
 10
126.208800
 20
-289.631520
 30
0.0
 10
126.547200
 20
-289.825920
 30
0.0
 10
126.900000
 20
-290.005920
 30
0.0
 10
127.252800
 20
-290.171520
 30
0.0
 10
127.620000
 20
-290.322720
 30
0.0
 10
127.994400
 20
-290.459520
 30
0.0
  0
LWPOLYLINE
  5
22a
100
AcDbEntity
  8
0
 62
7
100
AcDbPolyline
 90
33
 70
0
 10
55.130400
 20
-209.740320
 30
0.0
 10
56.397600
 20
-210.316320
 30
0.0
 10
57.672000
 20
-210.899520
 30
0.0
 10
58.939200
 20
-211.482720
 30
0.0
 10
60.206400
 20
-212.073120
 30
0.0
 10
61.473600
 20
-212.663520
 30
0.0
 10
62.740800
 20
-213.253920
 30
0.0
 10
64.008000
 20
-213.844320
 30
0.0
 10
65.275200
 20
-214.441920
 30
0.0
 10
66.542400
 20
-215.032320
 30
0.0
 10
67.802400
 20
-215.629920
 30
0.0
 10
69.069600
 20
-216.227520
 30
0.0
 10
70.336800
 20
-216.825120
 30
0.0
 10
71.596800
 20
-217.422720
 30
0.0
 10
72.864000
 20
-218.013120
 30
0.0
 10
74.131200
 20
-218.610720
 30
0.0
 10
75.398400
 20
-219.201120
 30
0.0
 10
76.665600
 20
-219.791520
 30
0.0
 10
77.932800
 20
-220.381920
 30
0.0
 10
79.207200
 20
-220.965120
 30
0.0
 10
80.474400
 20
-221.548320
 30
0.0
 10
81.748800
 20
-222.131520
 30
0.0
 10
83.023200
 20
-222.707520
 30
0.0
 10
84.297600
 20
-223.276320
 30
0.0
 10
85.572000
 20
-223.845120
 30
0.0
 10
86.853600
 20
-224.406720
 30
0.0
 10
88.135200
 20
-224.968320
 30
0.0
 10
89.416800
 20
-225.522720
 30
0.0
 10
90.698400
 20
-226.069920
 30
0.0
 10
91.987200
 20
-226.609920
 30
0.0
 10
93.283200
 20
-227.149920
 30
0.0
 10
94.572000
 20
-227.675520
 30
0.0
 10
95.868000
 20
-228.193920
 30
0.0
  0
LWPOLYLINE
  5
22b
100
AcDbEntity
  8
0
 62
7
100
AcDbPolyline
 90
33
 70
0
 10
42.890400
 20
-200.682720
 30
0.0
 10
43.020000
 20
-201.201120
 30
0.0
 10
43.185600
 20
-201.697920
 30
0.0
 10
43.380000
 20
-202.165920
 30
0.0
 10
43.603200
 20
-202.605120
 30
0.0
 10
43.848000
 20
-203.022720
 30
0.0
 10
44.121600
 20
-203.425920
 30
0.0
 10
44.416800
 20
-203.800320
 30
0.0
 10
44.733600
 20
-204.153120
 30
0.0
 10
45.064800
 20
-204.491520
 30
0.0
 10
45.417600
 20
-204.808320
 30
0.0
 10
45.792000
 20
-205.110720
 30
0.0
 10
46.180800
 20
-205.398720
 30
0.0
 10
46.584000
 20
-205.672320
 30
0.0
 10
47.001600
 20
-205.931520
 30
0.0
 10
47.426400
 20
-206.176320
 30
0.0
 10
47.865600
 20
-206.413920
 30
0.0
 10
48.312000
 20
-206.644320
 30
0.0
 10
48.765600
 20
-206.867520
 30
0.0
 10
49.226400
 20
-207.076320
 30
0.0
 10
49.687200
 20
-207.285120
 30
0.0
 10
50.155200
 20
-207.486720
 30
0.0
 10
50.630400
 20
-207.681120
 30
0.0
 10
51.098400
 20
-207.882720
 30
0.0
 10
51.566400
 20
-208.077120
 30
0.0
 10
52.034400
 20
-208.271520
 30
0.0
 10
52.502400
 20
-208.465920
 30
0.0
 10
52.956000
 20
-208.667520
 30
0.0
 10
53.409600
 20
-208.869120
 30
0.0
 10
53.856000
 20
-209.077920
 30
0.0
 10
54.288000
 20
-209.286720
 30
0.0
 10
54.712800
 20
-209.509920
 30
0.0
 10
55.130400
 20
-209.740320
 30
0.0
  0
LWPOLYLINE
  5
22c
100
AcDbEntity
  8
0
 62
7
100
AcDbPolyline
 90
33
 70
0
 10
47.448000
 20
-185.663520
 30
0.0
 10
47.275200
 20
-186.117120
 30
0.0
 10
47.088000
 20
-186.570720
 30
0.0
 10
46.893600
 20
-187.024320
 30
0.0
 10
46.699200
 20
-187.477920
 30
0.0
 10
46.490400
 20
-187.931520
 30
0.0
 10
46.274400
 20
-188.385120
 30
0.0
 10
46.058400
 20
-188.838720
 30
0.0
 10
45.842400
 20
-189.292320
 30
0.0
 10
45.619200
 20
-189.745920
 30
0.0
 10
45.396000
 20
-190.199520
 30
0.0
 10
45.172800
 20
-190.660320
 30
0.0
 10
44.956800
 20
-191.113920
 30
0.0
 10
44.740800
 20
-191.574720
 30
0.0
 10
44.524800
 20
-192.035520
 30
0.0
 10
44.323200
 20
-192.496320
 30
0.0
 10
44.121600
 20
-192.957120
 30
0.0
 10
43.934400
 20
-193.425120
 30
0.0
 10
43.747200
 20
-193.893120
 30
0.0
 10
43.581600
 20
-194.361120
 30
0.0
 10
43.423200
 20
-194.829120
 30
0.0
 10
43.272000
 20
-195.304320
 30
0.0
 10
43.142400
 20
-195.772320
 30
0.0
 10
43.027200
 20
-196.254720
 30
0.0
 10
42.926400
 20
-196.729920
 30
0.0
 10
42.847200
 20
-197.212320
 30
0.0
 10
42.782400
 20
-197.701920
 30
0.0
 10
42.739200
 20
-198.191520
 30
0.0
 10
42.724800
 20
-198.681120
 30
0.0
 10
42.724800
 20
-199.177920
 30
0.0
 10
42.753600
 20
-199.674720
 30
0.0
 10
42.811200
 20
-200.178720
 30
0.0
 10
42.890400
 20
-200.682720
 30
0.0
  0
LWPOLYLINE
  5
22d
100
AcDbEntity
  8
0
 62
7
100
AcDbPolyline
 90
33
 70
0
 10
143.157600
 20
-235.149120
 30
0.0
 10
142.495200
 20
-236.567520
 30
0.0
 10
141.832800
 20
-237.993120
 30
0.0
 10
141.163200
 20
-239.411520
 30
0.0
 10
140.500800
 20
-240.829920
 30
0.0
 10
139.831200
 20
-242.248320
 30
0.0
 10
139.168800
 20
-243.673920
 30
0.0
 10
138.499200
 20
-245.092320
 30
0.0
 10
137.829600
 20
-246.510720
 30
0.0
 10
137.160000
 20
-247.929120
 30
0.0
 10
136.490400
 20
-249.347520
 30
0.0
 10
135.820800
 20
-250.765920
 30
0.0
 10
135.158400
 20
-252.184320
 30
0.0
 10
134.488800
 20
-253.602720
 30
0.0
 10
133.826400
 20
-255.028320
 30
0.0
 10
133.156800
 20
-256.446720
 30
0.0
 10
132.494400
 20
-257.865120
 30
0.0
 10
131.832000
 20
-259.290720
 30
0.0
 10
131.169600
 20
-260.709120
 30
0.0
 10
130.507200
 20
-262.134720
 30
0.0
 10
129.852000
 20
-263.560320
 30
0.0
 10
129.196800
 20
-264.978720
 30
0.0
 10
128.541600
 20
-266.404320
 30
0.0
 10
127.886400
 20
-267.837120
 30
0.0
 10
127.238400
 20
-269.262720
 30
0.0
 10
126.590400
 20
-270.688320
 30
0.0
 10
125.949600
 20
-272.121120
 30
0.0
 10
125.308800
 20
-273.553920
 30
0.0
 10
124.668000
 20
-274.979520
 30
0.0
 10
124.034400
 20
-276.419520
 30
0.0
 10
123.408000
 20
-277.852320
 30
0.0
 10
122.781600
 20
-279.292320
 30
0.0
 10
122.155200
 20
-280.725120
 30
0.0
  0
LWPOLYLINE
  5
22e
100
AcDbEntity
  8
0
 62
7
100
AcDbPolyline
 90
33
 70
0
 10
110.685600
 20
-219.993120
 30
0.0
 10
111.700800
 20
-220.468320
 30
0.0
 10
112.708800
 20
-220.943520
 30
0.0
 10
113.724000
 20
-221.418720
 30
0.0
 10
114.739200
 20
-221.893920
 30
0.0
 10
115.754400
 20
-222.369120
 30
0.0
 10
116.769600
 20
-222.844320
 30
0.0
 10
117.784800
 20
-223.319520
 30
0.0
 10
118.792800
 20
-223.794720
 30
0.0
 10
119.808000
 20
-224.269920
 30
0.0
 10
120.823200
 20
-224.745120
 30
0.0
 10
121.838400
 20
-225.220320
 30
0.0
 10
122.853600
 20
-225.695520
 30
0.0
 10
123.868800
 20
-226.170720
 30
0.0
 10
124.884000
 20
-226.645920
 30
0.0
 10
125.899200
 20
-227.121120
 30
0.0
 10
126.914400
 20
-227.589120
 30
0.0
 10
127.929600
 20
-228.064320
 30
0.0
 10
128.937600
 20
-228.539520
 30
0.0
 10
129.952800
 20
-229.014720
 30
0.0
 10
130.968000
 20
-229.482720
 30
0.0
 10
131.983200
 20
-229.957920
 30
0.0
 10
132.998400
 20
-230.433120
 30
0.0
 10
134.013600
 20
-230.901120
 30
0.0
 10
135.028800
 20
-231.376320
 30
0.0
 10
136.044000
 20
-231.844320
 30
0.0
 10
137.059200
 20
-232.319520
 30
0.0
 10
138.081600
 20
-232.794720
 30
0.0
 10
139.096800
 20
-233.262720
 30
0.0
 10
140.112000
 20
-233.737920
 30
0.0
 10
141.127200
 20
-234.205920
 30
0.0
 10
142.142400
 20
-234.681120
 30
0.0
 10
143.157600
 20
-235.149120
 30
0.0
  0
LWPOLYLINE
  5
22f
100
AcDbEntity
  8
0
 62
7
100
AcDbPolyline
 90
16
 70
0
 10
105.768000
 20
-221.785920
 30
0.0
 10
105.919200
 20
-221.238720
 30
0.0
 10
106.092000
 20
-220.741920
 30
0.0
 10
106.286400
 20
-220.302720
 30
0.0
 10
106.495200
 20
-219.921120
 30
0.0
 10
106.725600
 20
-219.597120
 30
0.0
 10
106.977600
 20
-219.330720
 30
0.0
 10
107.395200
 20
-219.035520
 30
0.0
 10
107.856000
 20
-218.877120
 30
0.0
 10
108.367200
 20
-218.855520
 30
0.0
 10
108.741600
 20
-218.920320
 30
0.0
 10
109.130400
 20
-219.042720
 30
0.0
 10
109.548000
 20
-219.237120
 30
0.0
 10
109.987200
 20
-219.489120
 30
0.0
 10
110.448000
 20
-219.805920
 30
0.0
 10
110.685600
 20
-219.993120
 30
0.0
  0
LWPOLYLINE
  5
230
100
AcDbEntity
  8
0
 62
7
100
AcDbPolyline
 90
33
 70
0
 10
566.323200
 20
-289.429920
 30
0.0
 10
566.676000
 20
-289.206720
 30
0.0
 10
567.007200
 20
-288.976320
 30
0.0
 10
567.324000
 20
-288.731520
 30
0.0
 10
567.619200
 20
-288.465120
 30
0.0
 10
567.900000
 20
-288.191520
 30
0.0
 10
568.166400
 20
-287.903520
 30
0.0
 10
568.418400
 20
-287.601120
 30
0.0
 10
568.648800
 20
-287.291520
 30
0.0
 10
568.857600
 20
-286.967520
 30
0.0
 10
569.059200
 20
-286.629120
 30
0.0
 10
569.239200
 20
-286.290720
 30
0.0
 10
569.397600
 20
-285.937920
 30
0.0
 10
569.541600
 20
-285.585120
 30
0.0
 10
569.671200
 20
-285.217920
 30
0.0
 10
569.786400
 20
-284.843520
 30
0.0
 10
569.880000
 20
-284.469120
 30
0.0
 10
569.952000
 20
-284.094720
 30
0.0
 10
570.009600
 20
-283.705920
 30
0.0
 10
570.052800
 20
-283.324320
 30
0.0
 10
570.074400
 20
-282.935520
 30
0.0
 10
570.081600
 20
-282.539520
 30
0.0
 10
570.067200
 20
-282.150720
 30
0.0
 10
570.038400
 20
-281.761920
 30
0.0
 10
569.988000
 20
-281.373120
 30
0.0
 10
569.916000
 20
-280.984320
 30
0.0
 10
569.836800
 20
-280.602720
 30
0.0
 10
569.728800
 20
-280.221120
 30
0.0
 10
569.613600
 20
-279.846720
 30
0.0
 10
569.469600
 20
-279.472320
 30
0.0
 10
569.311200
 20
-279.112320
 30
0.0
 10
569.138400
 20
-278.752320
 30
0.0
 10
568.944000
 20
-278.399520
 30
0.0
  0
LWPOLYLINE
  5
231
100
AcDbEntity
  8
0
 62
7
100
AcDbPolyline
 90
33
 70
0
 10
431.215200
 20
-382.950720
 30
0.0
 10
431.704800
 20
-382.878720
 30
0.0
 10
432.172800
 20
-382.785120
 30
0.0
 10
432.633600
 20
-382.662720
 30
0.0
 10
433.087200
 20
-382.518720
 30
0.0
 10
433.519200
 20
-382.345920
 30
0.0
 10
433.944000
 20
-382.158720
 30
0.0
 10
434.354400
 20
-381.949920
 30
0.0
 10
434.757600
 20
-381.719520
 30
0.0
 10
435.153600
 20
-381.474720
 30
0.0
 10
435.535200
 20
-381.208320
 30
0.0
 10
435.909600
 20
-380.934720
 30
0.0
 10
436.276800
 20
-380.639520
 30
0.0
 10
436.636800
 20
-380.337120
 30
0.0
 10
436.996800
 20
-380.020320
 30
0.0
 10
437.342400
 20
-379.696320
 30
0.0
 10
437.688000
 20
-379.365120
 30
0.0
 10
438.026400
 20
-379.026720
 30
0.0
 10
438.357600
 20
-378.673920
 30
0.0
 10
438.688800
 20
-378.321120
 30
0.0
 10
439.020000
 20
-377.968320
 30
0.0
 10
439.351200
 20
-377.608320
 30
0.0
 10
439.675200
 20
-377.248320
 30
0.0
 10
440.006400
 20
-376.895520
 30
0.0
 10
440.330400
 20
-376.535520
 30
0.0
 10
440.661600
 20
-376.182720
 30
0.0
 10
440.985600
 20
-375.829920
 30
0.0
 10
441.324000
 20
-375.484320
 30
0.0
 10
441.655200
 20
-375.145920
 30
0.0
 10
441.993600
 20
-374.814720
 30
0.0
 10
442.339200
 20
-374.490720
 30
0.0
 10
442.684800
 20
-374.181120
 30
0.0
 10
443.037600
 20
-373.878720
 30
0.0
  0
LWPOLYLINE
  5
232
100
AcDbEntity
  8
0
 62
7
100
AcDbPolyline
 90
33
 70
0
 10
474.768000
 20
-342.313920
 30
0.0
 10
476.136000
 20
-341.363520
 30
0.0
 10
477.511200
 20
-340.413120
 30
0.0
 10
478.879200
 20
-339.455520
 30
0.0
 10
480.247200
 20
-338.505120
 30
0.0
 10
481.615200
 20
-337.547520
 30
0.0
 10
482.983200
 20
-336.589920
 30
0.0
 10
484.351200
 20
-335.632320
 30
0.0
 10
485.719200
 20
-334.667520
 30
0.0
 10
487.087200
 20
-333.709920
 30
0.0
 10
488.455200
 20
-332.752320
 30
0.0
 10
489.816000
 20
-331.787520
 30
0.0
 10
491.184000
 20
-330.829920
 30
0.0
 10
492.552000
 20
-329.865120
 30
0.0
 10
493.912800
 20
-328.900320
 30
0.0
 10
495.280800
 20
-327.942720
 30
0.0
 10
496.648800
 20
-326.985120
 30
0.0
 10
498.016800
 20
-326.020320
 30
0.0
 10
499.384800
 20
-325.062720
 30
0.0
 10
500.745600
 20
-324.105120
 30
0.0
 10
502.113600
 20
-323.147520
 30
0.0
 10
503.488800
 20
-322.189920
 30
0.0
 10
504.856800
 20
-321.239520
 30
0.0
 10
506.224800
 20
-320.281920
 30
0.0
 10
507.600000
 20
-319.331520
 30
0.0
 10
508.968000
 20
-318.381120
 30
0.0
 10
510.343200
 20
-317.437920
 30
0.0
 10
511.718400
 20
-316.494720
 30
0.0
 10
513.100800
 20
-315.551520
 30
0.0
 10
514.476000
 20
-314.608320
 30
0.0
 10
515.858400
 20
-313.672320
 30
0.0
 10
517.240800
 20
-312.743520
 30
0.0
 10
518.623200
 20
-311.807520
 30
0.0
  0
LWPOLYLINE
  5
233
100
AcDbEntity
  8
0
 62
7
100
AcDbPolyline
 90
33
 70
0
 10
443.037600
 20
-373.878720
 30
0.0
 10
444.031200
 20
-372.899520
 30
0.0
 10
445.024800
 20
-371.913120
 30
0.0
 10
446.018400
 20
-370.926720
 30
0.0
 10
447.004800
 20
-369.940320
 30
0.0
 10
447.998400
 20
-368.946720
 30
0.0
 10
448.984800
 20
-367.960320
 30
0.0
 10
449.971200
 20
-366.966720
 30
0.0
 10
450.957600
 20
-365.973120
 30
0.0
 10
451.944000
 20
-364.979520
 30
0.0
 10
452.930400
 20
-363.985920
 30
0.0
 10
453.916800
 20
-362.992320
 30
0.0
 10
454.903200
 20
-361.998720
 30
0.0
 10
455.882400
 20
-361.005120
 30
0.0
 10
456.868800
 20
-360.011520
 30
0.0
 10
457.855200
 20
-359.017920
 30
0.0
 10
458.841600
 20
-358.024320
 30
0.0
 10
459.828000
 20
-357.030720
 30
0.0
 10
460.814400
 20
-356.044320
 30
0.0
 10
461.800800
 20
-355.050720
 30
0.0
 10
462.794400
 20
-354.064320
 30
0.0
 10
463.780800
 20
-353.070720
 30
0.0
 10
464.774400
 20
-352.084320
 30
0.0
 10
465.768000
 20
-351.097920
 30
0.0
 10
466.754400
 20
-350.111520
 30
0.0
 10
467.755200
 20
-349.132320
 30
0.0
 10
468.748800
 20
-348.153120
 30
0.0
 10
469.749600
 20
-347.173920
 30
0.0
 10
470.743200
 20
-346.194720
 30
0.0
 10
471.751200
 20
-345.222720
 30
0.0
 10
472.752000
 20
-344.250720
 30
0.0
 10
473.760000
 20
-343.278720
 30
0.0
 10
474.768000
 20
-342.313920
 30
0.0
  0
LWPOLYLINE
  5
234
100
AcDbEntity
  8
0
 62
7
100
AcDbPolyline
 90
33
 70
0
 10
549.072000
 20
-235.170720
 30
0.0
 10
550.180800
 20
-234.645120
 30
0.0
 10
551.296800
 20
-234.119520
 30
0.0
 10
552.405600
 20
-233.593920
 30
0.0
 10
553.514400
 20
-233.068320
 30
0.0
 10
554.630400
 20
-232.549920
 30
0.0
 10
555.739200
 20
-232.024320
 30
0.0
 10
556.855200
 20
-231.498720
 30
0.0
 10
557.971200
 20
-230.980320
 30
0.0
 10
559.087200
 20
-230.454720
 30
0.0
 10
560.196000
 20
-229.936320
 30
0.0
 10
561.312000
 20
-229.410720
 30
0.0
 10
562.428000
 20
-228.892320
 30
0.0
 10
563.551200
 20
-228.366720
 30
0.0
 10
564.667200
 20
-227.848320
 30
0.0
 10
565.783200
 20
-227.322720
 30
0.0
 10
566.899200
 20
-226.804320
 30
0.0
 10
568.015200
 20
-226.278720
 30
0.0
 10
569.131200
 20
-225.753120
 30
0.0
 10
570.254400
 20
-225.234720
 30
0.0
 10
571.370400
 20
-224.709120
 30
0.0
 10
572.486400
 20
-224.183520
 30
0.0
 10
573.602400
 20
-223.657920
 30
0.0
 10
574.718400
 20
-223.132320
 30
0.0
 10
575.834400
 20
-222.606720
 30
0.0
 10
576.950400
 20
-222.081120
 30
0.0
 10
578.066400
 20
-221.555520
 30
0.0
 10
579.182400
 20
-221.022720
 30
0.0
 10
580.298400
 20
-220.497120
 30
0.0
 10
581.414400
 20
-219.964320
 30
0.0
 10
582.523200
 20
-219.431520
 30
0.0
 10
583.639200
 20
-218.898720
 30
0.0
 10
584.748000
 20
-218.365920
 30
0.0
  0
LWPOLYLINE
  5
235
100
AcDbEntity
  8
0
 62
7
100
AcDbPolyline
 90
33
 70
0
 10
271.418400
 20
-383.037120
 30
0.0
 10
276.415200
 20
-383.029920
 30
0.0
 10
281.404800
 20
-383.022720
 30
0.0
 10
286.401600
 20
-383.022720
 30
0.0
 10
291.391200
 20
-383.022720
 30
0.0
 10
296.388000
 20
-383.022720
 30
0.0
 10
301.377600
 20
-383.022720
 30
0.0
 10
306.374400
 20
-383.022720
 30
0.0
 10
311.371200
 20
-383.022720
 30
0.0
 10
316.360800
 20
-383.029920
 30
0.0
 10
321.357600
 20
-383.029920
 30
0.0
 10
326.347200
 20
-383.029920
 30
0.0
 10
331.344000
 20
-383.037120
 30
0.0
 10
336.340800
 20
-383.037120
 30
0.0
 10
341.330400
 20
-383.037120
 30
0.0
 10
346.327200
 20
-383.044320
 30
0.0
 10
351.324000
 20
-383.044320
 30
0.0
 10
356.313600
 20
-383.044320
 30
0.0
 10
361.310400
 20
-383.044320
 30
0.0
 10
366.300000
 20
-383.044320
 30
0.0
 10
371.296800
 20
-383.044320
 30
0.0
 10
376.286400
 20
-383.044320
 30
0.0
 10
381.283200
 20
-383.044320
 30
0.0
 10
386.280000
 20
-383.044320
 30
0.0
 10
391.269600
 20
-383.037120
 30
0.0
 10
396.266400
 20
-383.029920
 30
0.0
 10
401.256000
 20
-383.022720
 30
0.0
 10
406.252800
 20
-383.015520
 30
0.0
 10
411.242400
 20
-383.008320
 30
0.0
 10
416.232000
 20
-382.993920
 30
0.0
 10
421.228800
 20
-382.986720
 30
0.0
 10
426.218400
 20
-382.972320
 30
0.0
 10
431.215200
 20
-382.950720
 30
0.0
  0
LWPOLYLINE
  5
236
100
AcDbEntity
  8
0
 62
7
100
AcDbPolyline
 90
29
 70
0
 10
256.644000
 20
-381.078720
 30
0.0
 10
257.054400
 20
-381.287520
 30
0.0
 10
257.500800
 20
-381.481920
 30
0.0
 10
257.976000
 20
-381.669120
 30
0.0
 10
258.480000
 20
-381.834720
 30
0.0
 10
259.005600
 20
-381.985920
 30
0.0
 10
259.560000
 20
-382.129920
 30
0.0
 10
260.128800
 20
-382.252320
 30
0.0
 10
260.712000
 20
-382.367520
 30
0.0
 10
261.309600
 20
-382.475520
 30
0.0
 10
261.921600
 20
-382.569120
 30
0.0
 10
262.533600
 20
-382.655520
 30
0.0
 10
263.152800
 20
-382.727520
 30
0.0
 10
263.772000
 20
-382.792320
 30
0.0
 10
264.384000
 20
-382.842720
 30
0.0
 10
264.996000
 20
-382.893120
 30
0.0
 10
265.593600
 20
-382.936320
 30
0.0
 10
266.184000
 20
-382.965120
 30
0.0
 10
266.760000
 20
-382.993920
 30
0.0
 10
267.314400
 20
-383.015520
 30
0.0
 10
267.847200
 20
-383.029920
 30
0.0
 10
268.351200
 20
-383.044320
 30
0.0
 10
268.833600
 20
-383.051520
 30
0.0
 10
269.280000
 20
-383.058720
 30
0.0
 10
269.697600
 20
-383.058720
 30
0.0
 10
270.072000
 20
-383.058720
 30
0.0
 10
270.705600
 20
-383.051520
 30
0.0
 10
271.152000
 20
-383.044320
 30
0.0
 10
271.418400
 20
-383.037120
 30
0.0
  0
LWPOLYLINE
  5
237
100
AcDbEntity
  8
0
 62
7
100
AcDbPolyline
 90
33
 70
0
 10
174.859200
 20
-312.549120
 30
0.0
 10
176.241600
 20
-313.506720
 30
0.0
 10
177.616800
 20
-314.471520
 30
0.0
 10
178.999200
 20
-315.429120
 30
0.0
 10
180.381600
 20
-316.393920
 30
0.0
 10
181.764000
 20
-317.351520
 30
0.0
 10
183.146400
 20
-318.316320
 30
0.0
 10
184.528800
 20
-319.281120
 30
0.0
 10
185.911200
 20
-320.245920
 30
0.0
 10
187.293600
 20
-321.210720
 30
0.0
 10
188.676000
 20
-322.175520
 30
0.0
 10
190.065600
 20
-323.140320
 30
0.0
 10
191.448000
 20
-324.105120
 30
0.0
 10
192.830400
 20
-325.069920
 30
0.0
 10
194.212800
 20
-326.034720
 30
0.0
 10
195.595200
 20
-326.999520
 30
0.0
 10
196.977600
 20
-327.971520
 30
0.0
 10
198.360000
 20
-328.936320
 30
0.0
 10
199.742400
 20
-329.908320
 30
0.0
 10
201.124800
 20
-330.880320
 30
0.0
 10
202.507200
 20
-331.845120
 30
0.0
 10
203.889600
 20
-332.817120
 30
0.0
 10
205.272000
 20
-333.789120
 30
0.0
 10
206.647200
 20
-334.761120
 30
0.0
 10
208.029600
 20
-335.740320
 30
0.0
 10
209.404800
 20
-336.712320
 30
0.0
 10
210.787200
 20
-337.684320
 30
0.0
 10
212.162400
 20
-338.663520
 30
0.0
 10
213.537600
 20
-339.635520
 30
0.0
 10
214.912800
 20
-340.614720
 30
0.0
 10
216.288000
 20
-341.593920
 30
0.0
 10
217.663200
 20
-342.573120
 30
0.0
 10
219.031200
 20
-343.552320
 30
0.0
  0
LWPOLYLINE
  5
238
100
AcDbEntity
  8
0
 62
7
100
AcDbPolyline
 90
33
 70
0
 10
518.623200
 20
-311.807520
 30
0.0
 10
520.113600
 20
-311.109120
 30
0.0
 10
521.604000
 20
-310.410720
 30
0.0
 10
523.094400
 20
-309.712320
 30
0.0
 10
524.584800
 20
-309.021120
 30
0.0
 10
526.082400
 20
-308.322720
 30
0.0
 10
527.572800
 20
-307.631520
 30
0.0
 10
529.070400
 20
-306.933120
 30
0.0
 10
530.560800
 20
-306.241920
 30
0.0
 10
532.051200
 20
-305.550720
 30
0.0
 10
533.548800
 20
-304.852320
 30
0.0
 10
535.039200
 20
-304.161120
 30
0.0
 10
536.536800
 20
-303.469920
 30
0.0
 10
538.027200
 20
-302.771520
 30
0.0
 10
539.524800
 20
-302.080320
 30
0.0
 10
541.015200
 20
-301.389120
 30
0.0
 10
542.512800
 20
-300.690720
 30
0.0
 10
544.003200
 20
-299.999520
 30
0.0
 10
545.493600
 20
-299.301120
 30
0.0
 10
546.984000
 20
-298.602720
 30
0.0
 10
548.481600
 20
-297.911520
 30
0.0
 10
549.972000
 20
-297.213120
 30
0.0
 10
551.462400
 20
-296.507520
 30
0.0
 10
552.952800
 20
-295.809120
 30
0.0
 10
554.443200
 20
-295.103520
 30
0.0
 10
555.926400
 20
-294.405120
 30
0.0
 10
557.416800
 20
-293.699520
 30
0.0
 10
558.907200
 20
-292.993920
 30
0.0
 10
560.390400
 20
-292.281120
 30
0.0
 10
561.873600
 20
-291.568320
 30
0.0
 10
563.356800
 20
-290.855520
 30
0.0
 10
564.840000
 20
-290.142720
 30
0.0
 10
566.323200
 20
-289.429920
 30
0.0
  0
LWPOLYLINE
  5
239
100
AcDbEntity
  8
0
 62
7
100
AcDbPolyline
 90
33
 70
0
 10
568.944000
 20
-278.399520
 30
0.0
 10
568.339200
 20
-277.038720
 30
0.0
 10
567.741600
 20
-275.677920
 30
0.0
 10
567.136800
 20
-274.324320
 30
0.0
 10
566.532000
 20
-272.963520
 30
0.0
 10
565.920000
 20
-271.609920
 30
0.0
 10
565.315200
 20
-270.249120
 30
0.0
 10
564.703200
 20
-268.895520
 30
0.0
 10
564.091200
 20
-267.541920
 30
0.0
 10
563.479200
 20
-266.188320
 30
0.0
 10
562.867200
 20
-264.827520
 30
0.0
 10
562.248000
 20
-263.481120
 30
0.0
 10
561.636000
 20
-262.127520
 30
0.0
 10
561.016800
 20
-260.773920
 30
0.0
 10
560.397600
 20
-259.420320
 30
0.0
 10
559.778400
 20
-258.066720
 30
0.0
 10
559.152000
 20
-256.720320
 30
0.0
 10
558.532800
 20
-255.366720
 30
0.0
 10
557.906400
 20
-254.020320
 30
0.0
 10
557.280000
 20
-252.673920
 30
0.0
 10
556.653600
 20
-251.320320
 30
0.0
 10
556.027200
 20
-249.973920
 30
0.0
 10
555.400800
 20
-248.627520
 30
0.0
 10
554.774400
 20
-247.281120
 30
0.0
 10
554.140800
 20
-245.934720
 30
0.0
 10
553.514400
 20
-244.588320
 30
0.0
 10
552.880800
 20
-243.241920
 30
0.0
 10
552.247200
 20
-241.895520
 30
0.0
 10
551.613600
 20
-240.549120
 30
0.0
 10
550.980000
 20
-239.202720
 30
0.0
 10
550.346400
 20
-237.863520
 30
0.0
 10
549.712800
 20
-236.517120
 30
0.0
 10
549.072000
 20
-235.170720
 30
0.0
  0
LWPOLYLINE
  5
23a
100
AcDbEntity
  8
0
 62
7
100
AcDbPolyline
 90
33
 70
0
 10
219.031200
 20
-343.552320
 30
0.0
 10
220.212000
 20
-344.725920
 30
0.0
 10
221.385600
 20
-345.892320
 30
0.0
 10
222.559200
 20
-347.065920
 30
0.0
 10
223.732800
 20
-348.239520
 30
0.0
 10
224.913600
 20
-349.413120
 30
0.0
 10
226.087200
 20
-350.593920
 30
0.0
 10
227.253600
 20
-351.767520
 30
0.0
 10
228.427200
 20
-352.941120
 30
0.0
 10
229.600800
 20
-354.114720
 30
0.0
 10
230.774400
 20
-355.295520
 30
0.0
 10
231.948000
 20
-356.469120
 30
0.0
 10
233.121600
 20
-357.649920
 30
0.0
 10
234.288000
 20
-358.823520
 30
0.0
 10
235.461600
 20
-359.997120
 30
0.0
 10
236.635200
 20
-361.177920
 30
0.0
 10
237.808800
 20
-362.351520
 30
0.0
 10
238.982400
 20
-363.532320
 30
0.0
 10
240.156000
 20
-364.705920
 30
0.0
 10
241.329600
 20
-365.879520
 30
0.0
 10
242.503200
 20
-367.053120
 30
0.0
 10
243.676800
 20
-368.226720
 30
0.0
 10
244.850400
 20
-369.400320
 30
0.0
 10
246.024000
 20
-370.573920
 30
0.0
 10
247.204800
 20
-371.747520
 30
0.0
 10
248.378400
 20
-372.913920
 30
0.0
 10
249.559200
 20
-374.087520
 30
0.0
 10
250.732800
 20
-375.253920
 30
0.0
 10
251.913600
 20
-376.420320
 30
0.0
 10
253.094400
 20
-377.586720
 30
0.0
 10
254.275200
 20
-378.753120
 30
0.0
 10
255.463200
 20
-379.912320
 30
0.0
 10
256.644000
 20
-381.078720
 30
0.0
  0
LWPOLYLINE
  5
23b
100
AcDbEntity
  8
0
 62
7
100
AcDbPolyline
 90
33
 70
0
 10
183.808800
 20
-16.305120
 30
0.0
 10
182.520000
 20
-15.714720
 30
0.0
 10
181.231200
 20
-15.124320
 30
0.0
 10
179.942400
 20
-14.526720
 30
0.0
 10
178.660800
 20
-13.929120
 30
0.0
 10
177.372000
 20
-13.331520
 30
0.0
 10
176.083200
 20
-12.726720
 30
0.0
 10
174.794400
 20
-12.129120
 30
0.0
 10
173.512800
 20
-11.524320
 30
0.0
 10
172.224000
 20
-10.919520
 30
0.0
 10
170.942400
 20
-10.321920
 30
0.0
 10
169.653600
 20
-9.717120
 30
0.0
 10
168.372000
 20
-9.112320
 30
0.0
 10
167.083200
 20
-8.507520
 30
0.0
 10
165.794400
 20
-7.909920
 30
0.0
 10
164.512800
 20
-7.305120
 30
0.0
 10
163.224000
 20
-6.707520
 30
0.0
 10
161.935200
 20
-6.102720
 30
0.0
 10
160.653600
 20
-5.505120
 30
0.0
 10
159.364800
 20
-4.907520
 30
0.0
 10
158.076000
 20
-4.309920
 30
0.0
 10
156.787200
 20
-3.719520
 30
0.0
 10
155.498400
 20
-3.121920
 30
0.0
 10
154.202400
 20
-2.531520
 30
0.0
 10
152.913600
 20
-1.948320
 30
0.0
 10
151.624800
 20
-1.357920
 30
0.0
 10
150.328800
 20
-0.774720
 30
0.0
 10
149.032800
 20
-0.191520
 30
0.0
 10
147.744000
 20
0.384480
 30
0.0
 10
146.440800
 20
0.960480
 30
0.0
 10
145.144800
 20
1.529280
 30
0.0
 10
143.848800
 20
2.098080
 30
0.0
 10
142.545600
 20
2.659680
 30
0.0
  0
LWPOLYLINE
  5
23c
100
AcDbEntity
  8
0
 62
7
100
AcDbPolyline
 90
16
 70
0
 10
187.567200
 20
-13.065120
 30
0.0
 10
187.365600
 20
-13.367520
 30
0.0
 10
187.178400
 20
-13.713120
 30
0.0
 10
186.998400
 20
-14.087520
 30
0.0
 10
186.832800
 20
-14.490720
 30
0.0
 10
186.674400
 20
-14.893920
 30
0.0
 10
186.508800
 20
-15.297120
 30
0.0
 10
186.336000
 20
-15.685920
 30
0.0
 10
186.156000
 20
-16.038720
 30
0.0
 10
185.961600
 20
-16.355520
 30
0.0
 10
185.630400
 20
-16.715520
 30
0.0
 10
185.241600
 20
-16.917120
 30
0.0
 10
184.780800
 20
-16.902720
 30
0.0
 10
184.428000
 20
-16.758720
 30
0.0
 10
184.024800
 20
-16.492320
 30
0.0
 10
183.808800
 20
-16.305120
 30
0.0
  0
LWPOLYLINE
  5
23d
100
AcDbEntity
  8
0
 62
7
100
AcDbPolyline
 90
33
 70
0
 10
249.120000
 20
-32.440320
 30
0.0
 10
248.824800
 20
-32.087520
 30
0.0
 10
248.515200
 20
-31.749120
 30
0.0
 10
248.191200
 20
-31.432320
 30
0.0
 10
247.860000
 20
-31.122720
 30
0.0
 10
247.521600
 20
-30.834720
 30
0.0
 10
247.168800
 20
-30.553920
 30
0.0
 10
246.808800
 20
-30.287520
 30
0.0
 10
246.434400
 20
-30.035520
 30
0.0
 10
246.060000
 20
-29.790720
 30
0.0
 10
245.671200
 20
-29.553120
 30
0.0
 10
245.282400
 20
-29.329920
 30
0.0
 10
244.886400
 20
-29.113920
 30
0.0
 10
244.483200
 20
-28.905120
 30
0.0
 10
244.072800
 20
-28.703520
 30
0.0
 10
243.662400
 20
-28.501920
 30
0.0
 10
243.252000
 20
-28.314720
 30
0.0
 10
242.827200
 20
-28.120320
 30
0.0
 10
242.409600
 20
-27.940320
 30
0.0
 10
241.984800
 20
-27.760320
 30
0.0
 10
241.560000
 20
-27.580320
 30
0.0
 10
241.135200
 20
-27.400320
 30
0.0
 10
240.710400
 20
-27.220320
 30
0.0
 10
240.285600
 20
-27.040320
 30
0.0
 10
239.868000
 20
-26.860320
 30
0.0
 10
239.443200
 20
-26.680320
 30
0.0
 10
239.025600
 20
-26.493120
 30
0.0
 10
238.608000
 20
-26.305920
 30
0.0
 10
238.197600
 20
-26.111520
 30
0.0
 10
237.787200
 20
-25.917120
 30
0.0
 10
237.384000
 20
-25.708320
 30
0.0
 10
236.988000
 20
-25.499520
 30
0.0
 10
236.592000
 20
-25.276320
 30
0.0
  0
LWPOLYLINE
  5
23e
100
AcDbEntity
  8
0
 62
7
100
AcDbPolyline
 90
33
 70
0
 10
247.161600
 20
-46.033920
 30
0.0
 10
247.341600
 20
-45.645120
 30
0.0
 10
247.528800
 20
-45.249120
 30
0.0
 10
247.716000
 20
-44.845920
 30
0.0
 10
247.910400
 20
-44.435520
 30
0.0
 10
248.104800
 20
-44.025120
 30
0.0
 10
248.306400
 20
-43.614720
 30
0.0
 10
248.500800
 20
-43.197120
 30
0.0
 10
248.695200
 20
-42.772320
 30
0.0
 10
248.882400
 20
-42.347520
 30
0.0
 10
249.069600
 20
-41.922720
 30
0.0
 10
249.249600
 20
-41.490720
 30
0.0
 10
249.422400
 20
-41.058720
 30
0.0
 10
249.588000
 20
-40.626720
 30
0.0
 10
249.739200
 20
-40.194720
 30
0.0
 10
249.883200
 20
-39.755520
 30
0.0
 10
250.012800
 20
-39.323520
 30
0.0
 10
250.128000
 20
-38.884320
 30
0.0
 10
250.221600
 20
-38.445120
 30
0.0
 10
250.300800
 20
-38.005920
 30
0.0
 10
250.365600
 20
-37.573920
 30
0.0
 10
250.408800
 20
-37.134720
 30
0.0
 10
250.423200
 20
-36.695520
 30
0.0
 10
250.423200
 20
-36.263520
 30
0.0
 10
250.394400
 20
-35.831520
 30
0.0
 10
250.344000
 20
-35.399520
 30
0.0
 10
250.257600
 20
-34.967520
 30
0.0
 10
250.149600
 20
-34.535520
 30
0.0
 10
250.012800
 20
-34.110720
 30
0.0
 10
249.840000
 20
-33.685920
 30
0.0
 10
249.638400
 20
-33.268320
 30
0.0
 10
249.393600
 20
-32.850720
 30
0.0
 10
249.120000
 20
-32.440320
 30
0.0
  0
LWPOLYLINE
  5
23f
100
AcDbEntity
  8
0
 62
7
100
AcDbPolyline
 90
33
 70
0
 10
287.006400
 20
-64.717920
 30
0.0
 10
285.775200
 20
-64.098720
 30
0.0
 10
284.544000
 20
-63.486720
 30
0.0
 10
283.312800
 20
-62.881920
 30
0.0
 10
282.074400
 20
-62.277120
 30
0.0
 10
280.843200
 20
-61.672320
 30
0.0
 10
279.604800
 20
-61.074720
 30
0.0
 10
278.366400
 20
-60.469920
 30
0.0
 10
277.128000
 20
-59.879520
 30
0.0
 10
275.882400
 20
-59.281920
 30
0.0
 10
274.644000
 20
-58.691520
 30
0.0
 10
273.398400
 20
-58.101120
 30
0.0
 10
272.160000
 20
-57.517920
 30
0.0
 10
270.914400
 20
-56.927520
 30
0.0
 10
269.668800
 20
-56.344320
 30
0.0
 10
268.423200
 20
-55.761120
 30
0.0
 10
267.177600
 20
-55.185120
 30
0.0
 10
265.924800
 20
-54.601920
 30
0.0
 10
264.679200
 20
-54.025920
 30
0.0
 10
263.433600
 20
-53.449920
 30
0.0
 10
262.180800
 20
-52.873920
 30
0.0
 10
260.928000
 20
-52.297920
 30
0.0
 10
259.682400
 20
-51.729120
 30
0.0
 10
258.429600
 20
-51.153120
 30
0.0
 10
257.176800
 20
-50.584320
 30
0.0
 10
255.924000
 20
-50.015520
 30
0.0
 10
254.678400
 20
-49.446720
 30
0.0
 10
253.425600
 20
-48.877920
 30
0.0
 10
252.172800
 20
-48.309120
 30
0.0
 10
250.920000
 20
-47.740320
 30
0.0
 10
249.667200
 20
-47.171520
 30
0.0
 10
248.414400
 20
-46.602720
 30
0.0
 10
247.161600
 20
-46.033920
 30
0.0
  0
LWPOLYLINE
  5
240
100
AcDbEntity
  8
0
 62
7
100
AcDbPolyline
 90
33
 70
0
 10
333.604800
 20
-94.007520
 30
0.0
 10
332.337600
 20
-93.417120
 30
0.0
 10
331.063200
 20
-92.826720
 30
0.0
 10
329.796000
 20
-92.229120
 30
0.0
 10
328.521600
 20
-91.638720
 30
0.0
 10
327.254400
 20
-91.048320
 30
0.0
 10
325.980000
 20
-90.450720
 30
0.0
 10
324.712800
 20
-89.860320
 30
0.0
 10
323.438400
 20
-89.262720
 30
0.0
 10
322.171200
 20
-88.672320
 30
0.0
 10
320.896800
 20
-88.074720
 30
0.0
 10
319.629600
 20
-87.484320
 30
0.0
 10
318.362400
 20
-86.886720
 30
0.0
 10
317.088000
 20
-86.296320
 30
0.0
 10
315.820800
 20
-85.698720
 30
0.0
 10
314.546400
 20
-85.108320
 30
0.0
 10
313.279200
 20
-84.517920
 30
0.0
 10
312.004800
 20
-83.920320
 30
0.0
 10
310.737600
 20
-83.329920
 30
0.0
 10
309.463200
 20
-82.739520
 30
0.0
 10
308.196000
 20
-82.149120
 30
0.0
 10
306.921600
 20
-81.551520
 30
0.0
 10
305.647200
 20
-80.961120
 30
0.0
 10
304.380000
 20
-80.370720
 30
0.0
 10
303.105600
 20
-79.780320
 30
0.0
 10
301.831200
 20
-79.197120
 30
0.0
 10
300.564000
 20
-78.606720
 30
0.0
 10
299.289600
 20
-78.016320
 30
0.0
 10
298.015200
 20
-77.433120
 30
0.0
 10
296.740800
 20
-76.842720
 30
0.0
 10
295.466400
 20
-76.259520
 30
0.0
 10
294.192000
 20
-75.676320
 30
0.0
 10
292.917600
 20
-75.085920
 30
0.0
  0
LWPOLYLINE
  5
241
100
AcDbEntity
  8
0
 62
7
100
AcDbPolyline
 90
33
 70
0
 10
197.906400
 20
-7.492320
 30
0.0
 10
197.496000
 20
-7.362720
 30
0.0
 10
197.085600
 20
-7.254720
 30
0.0
 10
196.675200
 20
-7.175520
 30
0.0
 10
196.264800
 20
-7.117920
 30
0.0
 10
195.854400
 20
-7.081920
 30
0.0
 10
195.451200
 20
-7.074720
 30
0.0
 10
195.048000
 20
-7.089120
 30
0.0
 10
194.644800
 20
-7.125120
 30
0.0
 10
194.248800
 20
-7.175520
 30
0.0
 10
193.852800
 20
-7.254720
 30
0.0
 10
193.471200
 20
-7.355520
 30
0.0
 10
193.089600
 20
-7.470720
 30
0.0
 10
192.715200
 20
-7.607520
 30
0.0
 10
192.348000
 20
-7.765920
 30
0.0
 10
191.988000
 20
-7.938720
 30
0.0
 10
191.635200
 20
-8.125920
 30
0.0
 10
191.289600
 20
-8.334720
 30
0.0
 10
190.951200
 20
-8.557920
 30
0.0
 10
190.627200
 20
-8.795520
 30
0.0
 10
190.310400
 20
-9.054720
 30
0.0
 10
190.008000
 20
-9.321120
 30
0.0
 10
189.720000
 20
-9.601920
 30
0.0
 10
189.439200
 20
-9.897120
 30
0.0
 10
189.172800
 20
-10.206720
 30
0.0
 10
188.920800
 20
-10.530720
 30
0.0
 10
188.676000
 20
-10.861920
 30
0.0
 10
188.452800
 20
-11.207520
 30
0.0
 10
188.244000
 20
-11.560320
 30
0.0
 10
188.049600
 20
-11.920320
 30
0.0
 10
187.869600
 20
-12.294720
 30
0.0
 10
187.711200
 20
-12.676320
 30
0.0
 10
187.567200
 20
-13.065120
 30
0.0
  0
SPLINE
  5
242
100
AcDbEntity
  8
0
 62
7
100
AcDbSpline
 70
8
 71
3
 72
8
 73
4
 74
0
 40
0
 40
0
 40
0
 40
0
 40
1
 40
1
 40
1
 40
1
 10
137.370240
 20
2.701057
 30
0.0
 10
137.299010
 20
2.701057
 30
0.0
 10
137.234794
 20
2.658149
 30
0.0
 10
137.207535
 20
2.592341
 30
0.0
  0
SPLINE
  5
243
100
AcDbEntity
  8
0
 62
7
100
AcDbSpline
 70
8
 71
3
 72
8
 73
4
 74
0
 40
0
 40
0
 40
0
 40
0
 40
1
 40
1
 40
1
 40
1
 10
137.207535
 20
2.592341
 30
0.0
 10
137.180276
 20
2.526533
 30
0.0
 10
137.195344
 20
2.450785
 30
0.0
 10
137.245711
 20
2.400417
 30
0.0
  0
SPLINE
  5
244
100
AcDbEntity
  8
0
 62
7
100
AcDbSpline
 70
8
 71
3
 72
8
 73
4
 74
0
 40
0
 40
0
 40
0
 40
0
 40
1
 40
1
 40
1
 40
1
 10
137.245711
 20
2.400417
 30
0.0
 10
137.296078
 20
2.350050
 30
0.0
 10
137.371827
 20
2.334983
 30
0.0
 10
137.437635
 20
2.362241
 30
0.0
  0
SPLINE
  5
245
100
AcDbEntity
  8
0
 62
7
100
AcDbSpline
 70
8
 71
3
 72
8
 73
4
 74
0
 40
0
 40
0
 40
0
 40
0
 40
1
 40
1
 40
1
 40
1
 10
137.437635
 20
2.362241
 30
0.0
 10
137.503443
 20
2.389500
 30
0.0
 10
137.546351
 20
2.453716
 30
0.0
 10
137.546351
 20
2.524946
 30
0.0
  0
SPLINE
  5
246
100
AcDbEntity
  8
0
 62
7
100
AcDbSpline
 70
8
 71
3
 72
8
 73
4
 74
0
 40
0
 40
0
 40
0
 40
0
 40
1
 40
1
 40
1
 40
1
 10
137.546351
 20
2.524946
 30
0.0
 10
137.546351
 20
2.571654
 30
0.0
 10
137.527796
 20
2.616448
 30
0.0
 10
137.494769
 20
2.649475
 30
0.0
  0
SPLINE
  5
247
100
AcDbEntity
  8
0
 62
7
100
AcDbSpline
 70
8
 71
3
 72
8
 73
4
 74
0
 40
0
 40
0
 40
0
 40
0
 40
1
 40
1
 40
1
 40
1
 10
137.494769
 20
2.649475
 30
0.0
 10
137.461742
 20
2.682503
 30
0.0
 10
137.416947
 20
2.701057
 30
0.0
 10
137.370240
 20
2.701057
 30
0.0
  0
LWPOLYLINE
  5
248
100
AcDbEntity
  8
0
 62
7
100
AcDbPolyline
 90
33
 70
0
 10
292.917600
 20
-75.085920
 30
0.0
 10
293.032800
 20
-74.668320
 30
0.0
 10
293.126400
 20
-74.250720
 30
0.0
 10
293.191200
 20
-73.840320
 30
0.0
 10
293.234400
 20
-73.422720
 30
0.0
 10
293.248800
 20
-73.012320
 30
0.0
 10
293.234400
 20
-72.609120
 30
0.0
 10
293.205600
 20
-72.205920
 30
0.0
 10
293.148000
 20
-71.809920
 30
0.0
 10
293.076000
 20
-71.413920
 30
0.0
 10
292.975200
 20
-71.025120
 30
0.0
 10
292.860000
 20
-70.643520
 30
0.0
 10
292.723200
 20
-70.269120
 30
0.0
 10
292.564800
 20
-69.901920
 30
0.0
 10
292.392000
 20
-69.541920
 30
0.0
 10
292.204800
 20
-69.181920
 30
0.0
 10
291.996000
 20
-68.836320
 30
0.0
 10
291.772800
 20
-68.497920
 30
0.0
 10
291.535200
 20
-68.166720
 30
0.0
 10
291.276000
 20
-67.849920
 30
0.0
 10
291.009600
 20
-67.540320
 30
0.0
 10
290.736000
 20
-67.237920
 30
0.0
 10
290.440800
 20
-66.942720
 30
0.0
 10
290.138400
 20
-66.669120
 30
0.0
 10
289.821600
 20
-66.395520
 30
0.0
 10
289.497600
 20
-66.143520
 30
0.0
 10
289.166400
 20
-65.898720
 30
0.0
 10
288.820800
 20
-65.668320
 30
0.0
 10
288.475200
 20
-65.445120
 30
0.0
 10
288.115200
 20
-65.243520
 30
0.0
 10
287.748000
 20
-65.049120
 30
0.0
 10
287.380800
 20
-64.876320
 30
0.0
 10
287.006400
 20
-64.717920
 30
0.0
  0
LWPOLYLINE
  5
249
100
AcDbEntity
  8
0
 62
7
100
AcDbPolyline
 90
1
 70
1
 10
137.370240
 20
2.701057
 30
0.0
  0
LWPOLYLINE
  5
24a
100
AcDbEntity
  8
0
 62
7
100
AcDbPolyline
 90
33
 70
0
 10
236.592000
 20
-25.276320
 30
0.0
 10
235.382400
 20
-24.721920
 30
0.0
 10
234.180000
 20
-24.160320
 30
0.0
 10
232.970400
 20
-23.598720
 30
0.0
 10
231.768000
 20
-23.037120
 30
0.0
 10
230.558400
 20
-22.475520
 30
0.0
 10
229.348800
 20
-21.913920
 30
0.0
 10
228.146400
 20
-21.359520
 30
0.0
 10
226.936800
 20
-20.797920
 30
0.0
 10
225.734400
 20
-20.236320
 30
0.0
 10
224.524800
 20
-19.674720
 30
0.0
 10
223.322400
 20
-19.113120
 30
0.0
 10
222.112800
 20
-18.551520
 30
0.0
 10
220.903200
 20
-17.989920
 30
0.0
 10
219.700800
 20
-17.428320
 30
0.0
 10
218.491200
 20
-16.866720
 30
0.0
 10
217.281600
 20
-16.305120
 30
0.0
 10
216.079200
 20
-15.750720
 30
0.0
 10
214.869600
 20
-15.189120
 30
0.0
 10
213.660000
 20
-14.634720
 30
0.0
 10
212.450400
 20
-14.073120
 30
0.0
 10
211.240800
 20
-13.518720
 30
0.0
 10
210.031200
 20
-12.964320
 30
0.0
 10
208.821600
 20
-12.409920
 30
0.0
 10
207.612000
 20
-11.862720
 30
0.0
 10
206.402400
 20
-11.308320
 30
0.0
 10
205.192800
 20
-10.761120
 30
0.0
 10
203.976000
 20
-10.213920
 30
0.0
 10
202.766400
 20
-9.666720
 30
0.0
 10
201.549600
 20
-9.119520
 30
0.0
 10
200.332800
 20
-8.579520
 30
0.0
 10
199.123200
 20
-8.032320
 30
0.0
 10
197.906400
 20
-7.492320
 30
0.0
  0
LWPOLYLINE
  5
24b
100
AcDbEntity
  8
0
 62
7
100
AcDbPolyline
 90
12
 70
0
 10
142.545600
 20
2.659680
 30
0.0
 10
142.056000
 20
2.803680
 30
0.0
 10
141.566400
 20
2.904480
 30
0.0
 10
141.076800
 20
2.969280
 30
0.0
 10
140.594400
 20
2.998080
 30
0.0
 10
140.112000
 20
2.998080
 30
0.0
 10
139.636800
 20
2.969280
 30
0.0
 10
139.154400
 20
2.911680
 30
0.0
 10
138.672000
 20
2.832480
 30
0.0
 10
138.182400
 20
2.731680
 30
0.0
 10
137.692800
 20
2.616480
 30
0.0
 10
137.368800
 20
2.530080
 30
0.0
  0
LWPOLYLINE
  5
24c
100
AcDbEntity
  8
0
 62
7
100
AcDbPolyline
 90
65
 70
0
 10
687.304800
 20
-165.849120
 30
0.0
 10
687.693600
 20
-165.611520
 30
0.0
 10
688.046400
 20
-165.352320
 30
0.0
 10
688.384800
 20
-165.078720
 30
0.0
 10
688.694400
 20
-164.790720
 30
0.0
 10
688.982400
 20
-164.481120
 30
0.0
 10
689.248800
 20
-164.164320
 30
0.0
 10
689.493600
 20
-163.833120
 30
0.0
 10
689.716800
 20
-163.487520
 30
0.0
 10
689.918400
 20
-163.134720
 30
0.0
 10
690.098400
 20
-162.767520
 30
0.0
 10
690.256800
 20
-162.385920
 30
0.0
 10
690.393600
 20
-162.004320
 30
0.0
 10
690.508800
 20
-161.615520
 30
0.0
 10
690.602400
 20
-161.212320
 30
0.0
 10
690.681600
 20
-160.809120
 30
0.0
 10
690.739200
 20
-160.398720
 30
0.0
 10
690.775200
 20
-159.988320
 30
0.0
 10
690.789600
 20
-159.570720
 30
0.0
 10
690.789600
 20
-159.153120
 30
0.0
 10
690.768000
 20
-158.735520
 30
0.0
 10
690.732000
 20
-158.317920
 30
0.0
 10
690.674400
 20
-157.900320
 30
0.0
 10
690.602400
 20
-157.482720
 30
0.0
 10
690.508800
 20
-157.072320
 30
0.0
 10
690.400800
 20
-156.661920
 30
0.0
 10
690.271200
 20
-156.258720
 30
0.0
 10
690.134400
 20
-155.855520
 30
0.0
 10
689.968800
 20
-155.459520
 30
0.0
 10
689.796000
 20
-155.077920
 30
0.0
 10
689.608800
 20
-154.696320
 30
0.0
 10
689.400000
 20
-154.329120
 30
0.0
 10
689.176800
 20
-153.976320
 30
0.0
 10
687.103200
 20
-149.490720
 30
0.0
 10
685.029600
 20
-145.005120
 30
0.0
 10
682.956000
 20
-140.519520
 30
0.0
 10
680.882400
 20
-136.033920
 30
0.0
 10
678.808800
 20
-131.548320
 30
0.0
 10
676.728000
 20
-127.062720
 30
0.0
 10
674.654400
 20
-122.584320
 30
0.0
 10
672.573600
 20
-118.098720
 30
0.0
 10
670.492800
 20
-113.613120
 30
0.0
 10
668.419200
 20
-109.134720
 30
0.0
 10
666.338400
 20
-104.649120
 30
0.0
 10
664.250400
 20
-100.170720
 30
0.0
 10
662.169600
 20
-95.692320
 30
0.0
 10
660.088800
 20
-91.206720
 30
0.0
 10
658.000800
 20
-86.728320
 30
0.0
 10
655.912800
 20
-82.249920
 30
0.0
 10
653.824800
 20
-77.771520
 30
0.0
 10
651.736800
 20
-73.293120
 30
0.0
 10
649.648800
 20
-68.814720
 30
0.0
 10
647.560800
 20
-64.336320
 30
0.0
 10
645.465600
 20
-59.865120
 30
0.0
 10
643.370400
 20
-55.386720
 30
0.0
 10
641.275200
 20
-50.908320
 30
0.0
 10
639.180000
 20
-46.437120
 30
0.0
 10
637.084800
 20
-41.965920
 30
0.0
 10
634.982400
 20
-37.487520
 30
0.0
 10
632.880000
 20
-33.016320
 30
0.0
 10
630.777600
 20
-28.545120
 30
0.0
 10
628.675200
 20
-24.073920
 30
0.0
 10
626.572800
 20
-19.602720
 30
0.0
 10
624.463200
 20
-15.138720
 30
0.0
 10
622.353600
 20
-10.667520
 30
0.0
  0
LWPOLYLINE
  5
24d
100
AcDbEntity
  8
0
 62
7
100
AcDbPolyline
 90
33
 70
0
 10
644.767200
 20
-185.721120
 30
0.0
 10
646.099200
 20
-185.101920
 30
0.0
 10
647.431200
 20
-184.482720
 30
0.0
 10
648.756000
 20
-183.870720
 30
0.0
 10
650.088000
 20
-183.251520
 30
0.0
 10
651.427200
 20
-182.639520
 30
0.0
 10
652.759200
 20
-182.027520
 30
0.0
 10
654.091200
 20
-181.415520
 30
0.0
 10
655.423200
 20
-180.803520
 30
0.0
 10
656.762400
 20
-180.191520
 30
0.0
 10
658.094400
 20
-179.579520
 30
0.0
 10
659.433600
 20
-178.967520
 30
0.0
 10
660.765600
 20
-178.355520
 30
0.0
 10
662.104800
 20
-177.743520
 30
0.0
 10
663.436800
 20
-177.131520
 30
0.0
 10
664.768800
 20
-176.519520
 30
0.0
 10
666.108000
 20
-175.907520
 30
0.0
 10
667.440000
 20
-175.295520
 30
0.0
 10
668.772000
 20
-174.683520
 30
0.0
 10
670.104000
 20
-174.064320
 30
0.0
 10
671.436000
 20
-173.445120
 30
0.0
 10
672.768000
 20
-172.825920
 30
0.0
 10
674.092800
 20
-172.206720
 30
0.0
 10
675.424800
 20
-171.580320
 30
0.0
 10
676.749600
 20
-170.953920
 30
0.0
 10
678.074400
 20
-170.327520
 30
0.0
 10
679.399200
 20
-169.693920
 30
0.0
 10
680.724000
 20
-169.060320
 30
0.0
 10
682.041600
 20
-168.426720
 30
0.0
 10
683.359200
 20
-167.785920
 30
0.0
 10
684.676800
 20
-167.145120
 30
0.0
 10
685.994400
 20
-166.497120
 30
0.0
 10
687.304800
 20
-165.849120
 30
0.0
  0
LWPOLYLINE
  5
24e
100
AcDbEntity
  8
0
 62
7
100
AcDbPolyline
 90
33
 70
0
 10
593.913600
 20
-228.575520
 30
0.0
 10
594.352800
 20
-228.561120
 30
0.0
 10
594.784800
 20
-228.532320
 30
0.0
 10
595.216800
 20
-228.481920
 30
0.0
 10
595.648800
 20
-228.417120
 30
0.0
 10
596.073600
 20
-228.337920
 30
0.0
 10
596.498400
 20
-228.244320
 30
0.0
 10
596.916000
 20
-228.143520
 30
0.0
 10
597.326400
 20
-228.021120
 30
0.0
 10
597.744000
 20
-227.891520
 30
0.0
 10
598.154400
 20
-227.747520
 30
0.0
 10
598.564800
 20
-227.596320
 30
0.0
 10
598.968000
 20
-227.430720
 30
0.0
 10
599.371200
 20
-227.265120
 30
0.0
 10
599.774400
 20
-227.085120
 30
0.0
 10
600.177600
 20
-226.905120
 30
0.0
 10
600.580800
 20
-226.717920
 30
0.0
 10
600.976800
 20
-226.523520
 30
0.0
 10
601.380000
 20
-226.329120
 30
0.0
 10
601.776000
 20
-226.127520
 30
0.0
 10
602.172000
 20
-225.925920
 30
0.0
 10
602.568000
 20
-225.724320
 30
0.0
 10
602.964000
 20
-225.522720
 30
0.0
 10
603.360000
 20
-225.328320
 30
0.0
 10
603.756000
 20
-225.126720
 30
0.0
 10
604.152000
 20
-224.932320
 30
0.0
 10
604.555200
 20
-224.737920
 30
0.0
 10
604.951200
 20
-224.550720
 30
0.0
 10
605.354400
 20
-224.363520
 30
0.0
 10
605.750400
 20
-224.183520
 30
0.0
 10
606.153600
 20
-224.017920
 30
0.0
 10
606.556800
 20
-223.852320
 30
0.0
 10
606.967200
 20
-223.701120
 30
0.0
  0
LWPOLYLINE
  5
24f
100
AcDbEntity
  8
0
 62
7
100
AcDbPolyline
 90
33
 70
0
 10
646.034400
 20
-205.427520
 30
0.0
 10
646.401600
 20
-205.204320
 30
0.0
 10
646.747200
 20
-204.966720
 30
0.0
 10
647.078400
 20
-204.707520
 30
0.0
 10
647.395200
 20
-204.433920
 30
0.0
 10
647.683200
 20
-204.145920
 30
0.0
 10
647.956800
 20
-203.850720
 30
0.0
 10
648.216000
 20
-203.533920
 30
0.0
 10
648.446400
 20
-203.209920
 30
0.0
 10
648.669600
 20
-202.871520
 30
0.0
 10
648.864000
 20
-202.518720
 30
0.0
 10
649.044000
 20
-202.165920
 30
0.0
 10
649.202400
 20
-201.798720
 30
0.0
 10
649.346400
 20
-201.424320
 30
0.0
 10
649.468800
 20
-201.042720
 30
0.0
 10
649.576800
 20
-200.653920
 30
0.0
 10
649.663200
 20
-200.257920
 30
0.0
 10
649.728000
 20
-199.861920
 30
0.0
 10
649.778400
 20
-199.465920
 30
0.0
 10
649.807200
 20
-199.062720
 30
0.0
 10
649.821600
 20
-198.652320
 30
0.0
 10
649.814400
 20
-198.249120
 30
0.0
 10
649.792800
 20
-197.838720
 30
0.0
 10
649.749600
 20
-197.435520
 30
0.0
 10
649.684800
 20
-197.032320
 30
0.0
 10
649.605600
 20
-196.629120
 30
0.0
 10
649.512000
 20
-196.233120
 30
0.0
 10
649.396800
 20
-195.837120
 30
0.0
 10
649.260000
 20
-195.448320
 30
0.0
 10
649.108800
 20
-195.066720
 30
0.0
 10
648.943200
 20
-194.685120
 30
0.0
 10
648.756000
 20
-194.317920
 30
0.0
 10
648.547200
 20
-193.957920
 30
0.0
  0
LWPOLYLINE
  5
250
100
AcDbEntity
  8
0
 62
7
100
AcDbPolyline
 90
33
 70
0
 10
584.748000
 20
-218.365920
 30
0.0
 10
584.935200
 20
-218.754720
 30
0.0
 10
585.115200
 20
-219.150720
 30
0.0
 10
585.302400
 20
-219.561120
 30
0.0
 10
585.489600
 20
-219.971520
 30
0.0
 10
585.669600
 20
-220.396320
 30
0.0
 10
585.864000
 20
-220.813920
 30
0.0
 10
586.051200
 20
-221.238720
 30
0.0
 10
586.245600
 20
-221.663520
 30
0.0
 10
586.447200
 20
-222.088320
 30
0.0
 10
586.648800
 20
-222.513120
 30
0.0
 10
586.857600
 20
-222.937920
 30
0.0
 10
587.073600
 20
-223.355520
 30
0.0
 10
587.296800
 20
-223.758720
 30
0.0
 10
587.527200
 20
-224.161920
 30
0.0
 10
587.764800
 20
-224.557920
 30
0.0
 10
588.016800
 20
-224.946720
 30
0.0
 10
588.276000
 20
-225.313920
 30
0.0
 10
588.542400
 20
-225.673920
 30
0.0
 10
588.830400
 20
-226.019520
 30
0.0
 10
589.125600
 20
-226.350720
 30
0.0
 10
589.428000
 20
-226.660320
 30
0.0
 10
589.752000
 20
-226.955520
 30
0.0
 10
590.090400
 20
-227.229120
 30
0.0
 10
590.443200
 20
-227.481120
 30
0.0
 10
590.810400
 20
-227.711520
 30
0.0
 10
591.199200
 20
-227.920320
 30
0.0
 10
591.602400
 20
-228.100320
 30
0.0
 10
592.020000
 20
-228.258720
 30
0.0
 10
592.466400
 20
-228.381120
 30
0.0
 10
592.927200
 20
-228.474720
 30
0.0
 10
593.409600
 20
-228.539520
 30
0.0
 10
593.913600
 20
-228.575520
 30
0.0
  0
LWPOLYLINE
  5
251
100
AcDbEntity
  8
0
 62
7
100
AcDbPolyline
 90
33
 70
0
 10
570.477600
 20
-26.442720
 30
0.0
 10
570.074400
 20
-25.614720
 30
0.0
 10
569.671200
 20
-24.779520
 30
0.0
 10
569.275200
 20
-23.951520
 30
0.0
 10
568.879200
 20
-23.116320
 30
0.0
 10
568.490400
 20
-22.281120
 30
0.0
 10
568.101600
 20
-21.445920
 30
0.0
 10
567.712800
 20
-20.603520
 30
0.0
 10
567.331200
 20
-19.761120
 30
0.0
 10
566.942400
 20
-18.925920
 30
0.0
 10
566.560800
 20
-18.083520
 30
0.0
 10
566.179200
 20
-17.241120
 30
0.0
 10
565.790400
 20
-16.405920
 30
0.0
 10
565.408800
 20
-15.563520
 30
0.0
 10
565.020000
 20
-14.721120
 30
0.0
 10
564.631200
 20
-13.885920
 30
0.0
 10
564.242400
 20
-13.043520
 30
0.0
 10
563.853600
 20
-12.208320
 30
0.0
 10
563.457600
 20
-11.373120
 30
0.0
 10
563.061600
 20
-10.537920
 30
0.0
 10
562.658400
 20
-9.709920
 30
0.0
 10
562.255200
 20
-8.881920
 30
0.0
 10
561.844800
 20
-8.053920
 30
0.0
 10
561.427200
 20
-7.225920
 30
0.0
 10
561.009600
 20
-6.405120
 30
0.0
 10
560.577600
 20
-5.591520
 30
0.0
 10
560.145600
 20
-4.777920
 30
0.0
 10
559.706400
 20
-3.964320
 30
0.0
 10
559.260000
 20
-3.157920
 30
0.0
 10
558.806400
 20
-2.358720
 30
0.0
 10
558.345600
 20
-1.559520
 30
0.0
 10
557.870400
 20
-0.767520
 30
0.0
 10
557.395200
 20
0.017280
 30
0.0
  0
LWPOLYLINE
  5
252
100
AcDbEntity
  8
0
 62
7
100
AcDbPolyline
 90
33
 70
0
 10
622.353600
 20
-10.667520
 30
0.0
 10
622.144800
 20
-10.285920
 30
0.0
 10
621.921600
 20
-9.918720
 30
0.0
 10
621.676800
 20
-9.573120
 30
0.0
 10
621.410400
 20
-9.241920
 30
0.0
 10
621.136800
 20
-8.932320
 30
0.0
 10
620.841600
 20
-8.637120
 30
0.0
 10
620.532000
 20
-8.363520
 30
0.0
 10
620.208000
 20
-8.111520
 30
0.0
 10
619.876800
 20
-7.873920
 30
0.0
 10
619.524000
 20
-7.657920
 30
0.0
 10
619.171200
 20
-7.456320
 30
0.0
 10
618.804000
 20
-7.276320
 30
0.0
 10
618.422400
 20
-7.117920
 30
0.0
 10
618.040800
 20
-6.973920
 30
0.0
 10
617.652000
 20
-6.851520
 30
0.0
 10
617.248800
 20
-6.750720
 30
0.0
 10
616.845600
 20
-6.664320
 30
0.0
 10
616.442400
 20
-6.599520
 30
0.0
 10
616.032000
 20
-6.556320
 30
0.0
 10
615.621600
 20
-6.527520
 30
0.0
 10
615.204000
 20
-6.527520
 30
0.0
 10
614.793600
 20
-6.541920
 30
0.0
 10
614.376000
 20
-6.570720
 30
0.0
 10
613.965600
 20
-6.628320
 30
0.0
 10
613.555200
 20
-6.700320
 30
0.0
 10
613.144800
 20
-6.801120
 30
0.0
 10
612.748800
 20
-6.916320
 30
0.0
 10
612.352800
 20
-7.045920
 30
0.0
 10
611.956800
 20
-7.204320
 30
0.0
 10
611.575200
 20
-7.384320
 30
0.0
 10
611.200800
 20
-7.578720
 30
0.0
 10
610.833600
 20
-7.794720
 30
0.0
  0
LWPOLYLINE
  5
253
100
AcDbEntity
  8
0
 62
7
100
AcDbPolyline
 90
17
 70
0
 10
648.547200
 20
-193.957920
 30
0.0
 10
648.324000
 20
-193.439520
 30
0.0
 10
648.093600
 20
-192.921120
 30
0.0
 10
647.863200
 20
-192.402720
 30
0.0
 10
647.632800
 20
-191.884320
 30
0.0
 10
647.395200
 20
-191.373120
 30
0.0
 10
647.157600
 20
-190.854720
 30
0.0
 10
646.927200
 20
-190.343520
 30
0.0
 10
646.682400
 20
-189.825120
 30
0.0
 10
646.444800
 20
-189.313920
 30
0.0
 10
646.207200
 20
-188.802720
 30
0.0
 10
645.969600
 20
-188.291520
 30
0.0
 10
645.724800
 20
-187.773120
 30
0.0
 10
645.487200
 20
-187.261920
 30
0.0
 10
645.249600
 20
-186.750720
 30
0.0
 10
645.004800
 20
-186.239520
 30
0.0
 10
644.767200
 20
-185.721120
 30
0.0
  0
LWPOLYLINE
  5
254
100
AcDbEntity
  8
0
 62
7
100
AcDbPolyline
 90
33
 70
0
 10
606.967200
 20
-223.701120
 30
0.0
 10
608.184000
 20
-223.132320
 30
0.0
 10
609.408000
 20
-222.563520
 30
0.0
 10
610.632000
 20
-222.001920
 30
0.0
 10
611.856000
 20
-221.433120
 30
0.0
 10
613.080000
 20
-220.864320
 30
0.0
 10
614.296800
 20
-220.302720
 30
0.0
 10
615.520800
 20
-219.733920
 30
0.0
 10
616.744800
 20
-219.165120
 30
0.0
 10
617.968800
 20
-218.603520
 30
0.0
 10
619.192800
 20
-218.034720
 30
0.0
 10
620.416800
 20
-217.473120
 30
0.0
 10
621.640800
 20
-216.904320
 30
0.0
 10
622.864800
 20
-216.335520
 30
0.0
 10
624.088800
 20
-215.766720
 30
0.0
 10
625.305600
 20
-215.205120
 30
0.0
 10
626.529600
 20
-214.636320
 30
0.0
 10
627.753600
 20
-214.067520
 30
0.0
 10
628.977600
 20
-213.498720
 30
0.0
 10
630.194400
 20
-212.929920
 30
0.0
 10
631.418400
 20
-212.361120
 30
0.0
 10
632.635200
 20
-211.785120
 30
0.0
 10
633.859200
 20
-211.216320
 30
0.0
 10
635.076000
 20
-210.640320
 30
0.0
 10
636.300000
 20
-210.071520
 30
0.0
 10
637.516800
 20
-209.495520
 30
0.0
 10
638.733600
 20
-208.919520
 30
0.0
 10
639.950400
 20
-208.336320
 30
0.0
 10
641.167200
 20
-207.760320
 30
0.0
 10
642.384000
 20
-207.177120
 30
0.0
 10
643.600800
 20
-206.601120
 30
0.0
 10
644.817600
 20
-206.017920
 30
0.0
 10
646.034400
 20
-205.427520
 30
0.0
  0
LWPOLYLINE
  5
255
100
AcDbEntity
  8
0
 62
7
100
AcDbPolyline
 90
33
 70
0
 10
610.833600
 20
-7.794720
 30
0.0
 10
609.566400
 20
-8.370720
 30
0.0
 10
608.306400
 20
-8.939520
 30
0.0
 10
607.039200
 20
-9.515520
 30
0.0
 10
605.772000
 20
-10.091520
 30
0.0
 10
604.512000
 20
-10.667520
 30
0.0
 10
603.244800
 20
-11.243520
 30
0.0
 10
601.984800
 20
-11.819520
 30
0.0
 10
600.717600
 20
-12.395520
 30
0.0
 10
599.457600
 20
-12.978720
 30
0.0
 10
598.190400
 20
-13.554720
 30
0.0
 10
596.930400
 20
-14.137920
 30
0.0
 10
595.670400
 20
-14.713920
 30
0.0
 10
594.410400
 20
-15.297120
 30
0.0
 10
593.143200
 20
-15.880320
 30
0.0
 10
591.883200
 20
-16.463520
 30
0.0
 10
590.623200
 20
-17.046720
 30
0.0
 10
589.363200
 20
-17.629920
 30
0.0
 10
588.103200
 20
-18.213120
 30
0.0
 10
586.843200
 20
-18.796320
 30
0.0
 10
585.583200
 20
-19.386720
 30
0.0
 10
584.323200
 20
-19.969920
 30
0.0
 10
583.063200
 20
-20.560320
 30
0.0
 10
581.803200
 20
-21.143520
 30
0.0
 10
580.543200
 20
-21.733920
 30
0.0
 10
579.290400
 20
-22.317120
 30
0.0
 10
578.030400
 20
-22.907520
 30
0.0
 10
576.770400
 20
-23.497920
 30
0.0
 10
575.510400
 20
-24.081120
 30
0.0
 10
574.257600
 20
-24.671520
 30
0.0
 10
572.997600
 20
-25.261920
 30
0.0
 10
571.737600
 20
-25.852320
 30
0.0
 10
570.477600
 20
-26.442720
 30
0.0
  0
LWPOLYLINE
  5
256
100
AcDbEntity
  8
0
 62
7
100
AcDbPolyline
 90
65
 70
0
 10
545.968800
 20
1.176480
 30
0.0
 10
544.737600
 20
0.614880
 30
0.0
 10
543.506400
 20
0.046080
 30
0.0
 10
542.275200
 20
-0.515520
 30
0.0
 10
541.044000
 20
-1.084320
 30
0.0
 10
539.812800
 20
-1.653120
 30
0.0
 10
538.588800
 20
-2.221920
 30
0.0
 10
537.357600
 20
-2.790720
 30
0.0
 10
536.133600
 20
-3.366720
 30
0.0
 10
534.902400
 20
-3.935520
 30
0.0
 10
533.678400
 20
-4.504320
 30
0.0
 10
532.447200
 20
-5.080320
 30
0.0
 10
531.223200
 20
-5.649120
 30
0.0
 10
529.999200
 20
-6.225120
 30
0.0
 10
528.768000
 20
-6.801120
 30
0.0
 10
527.544000
 20
-7.377120
 30
0.0
 10
526.320000
 20
-7.953120
 30
0.0
 10
525.096000
 20
-8.529120
 30
0.0
 10
523.864800
 20
-9.105120
 30
0.0
 10
522.640800
 20
-9.681120
 30
0.0
 10
521.416800
 20
-10.264320
 30
0.0
 10
520.192800
 20
-10.840320
 30
0.0
 10
518.968800
 20
-11.416320
 30
0.0
 10
517.744800
 20
-11.999520
 30
0.0
 10
516.520800
 20
-12.582720
 30
0.0
 10
515.304000
 20
-13.158720
 30
0.0
 10
514.080000
 20
-13.741920
 30
0.0
 10
512.856000
 20
-14.325120
 30
0.0
 10
511.632000
 20
-14.901120
 30
0.0
 10
510.408000
 20
-15.484320
 30
0.0
 10
509.184000
 20
-16.067520
 30
0.0
 10
507.967200
 20
-16.650720
 30
0.0
 10
506.743200
 20
-17.233920
 30
0.0
 10
506.548800
 20
-16.830720
 30
0.0
 10
506.347200
 20
-16.413120
 30
0.0
 10
506.145600
 20
-15.995520
 30
0.0
 10
505.944000
 20
-15.563520
 30
0.0
 10
505.735200
 20
-15.138720
 30
0.0
 10
505.526400
 20
-14.706720
 30
0.0
 10
505.310400
 20
-14.267520
 30
0.0
 10
505.087200
 20
-13.835520
 30
0.0
 10
504.864000
 20
-13.403520
 30
0.0
 10
504.626400
 20
-12.971520
 30
0.0
 10
504.381600
 20
-12.546720
 30
0.0
 10
504.136800
 20
-12.129120
 30
0.0
 10
503.877600
 20
-11.718720
 30
0.0
 10
503.611200
 20
-11.315520
 30
0.0
 10
503.337600
 20
-10.919520
 30
0.0
 10
503.049600
 20
-10.537920
 30
0.0
 10
502.754400
 20
-10.163520
 30
0.0
 10
502.444800
 20
-9.810720
 30
0.0
 10
502.128000
 20
-9.465120
 30
0.0
 10
501.796800
 20
-9.141120
 30
0.0
 10
501.451200
 20
-8.838720
 30
0.0
 10
501.098400
 20
-8.550720
 30
0.0
 10
500.724000
 20
-8.284320
 30
0.0
 10
500.342400
 20
-8.039520
 30
0.0
 10
499.939200
 20
-7.816320
 30
0.0
 10
499.521600
 20
-7.621920
 30
0.0
 10
499.089600
 20
-7.456320
 30
0.0
 10
498.643200
 20
-7.312320
 30
0.0
 10
498.175200
 20
-7.197120
 30
0.0
 10
497.692800
 20
-7.117920
 30
0.0
 10
497.188800
 20
-7.067520
 30
0.0
 10
496.663200
 20
-7.053120
 30
0.0
  0
LWPOLYLINE
  5
257
100
AcDbEntity
  8
0
 62
7
100
AcDbPolyline
 90
33
 70
0
 10
399.535200
 20
-74.963520
 30
0.0
 10
398.239200
 20
-75.553920
 30
0.0
 10
396.950400
 20
-76.151520
 30
0.0
 10
395.654400
 20
-76.749120
 30
0.0
 10
394.358400
 20
-77.346720
 30
0.0
 10
393.062400
 20
-77.944320
 30
0.0
 10
391.766400
 20
-78.541920
 30
0.0
 10
390.477600
 20
-79.146720
 30
0.0
 10
389.181600
 20
-79.744320
 30
0.0
 10
387.885600
 20
-80.341920
 30
0.0
 10
386.596800
 20
-80.939520
 30
0.0
 10
385.300800
 20
-81.544320
 30
0.0
 10
384.004800
 20
-82.141920
 30
0.0
 10
382.716000
 20
-82.746720
 30
0.0
 10
381.420000
 20
-83.344320
 30
0.0
 10
380.131200
 20
-83.949120
 30
0.0
 10
378.835200
 20
-84.553920
 30
0.0
 10
377.546400
 20
-85.151520
 30
0.0
 10
376.250400
 20
-85.756320
 30
0.0
 10
374.961600
 20
-86.361120
 30
0.0
 10
373.665600
 20
-86.958720
 30
0.0
 10
372.376800
 20
-87.563520
 30
0.0
 10
371.080800
 20
-88.168320
 30
0.0
 10
369.792000
 20
-88.765920
 30
0.0
 10
368.496000
 20
-89.370720
 30
0.0
 10
367.207200
 20
-89.975520
 30
0.0
 10
365.911200
 20
-90.573120
 30
0.0
 10
364.622400
 20
-91.177920
 30
0.0
 10
363.326400
 20
-91.782720
 30
0.0
 10
362.037600
 20
-92.380320
 30
0.0
 10
360.741600
 20
-92.985120
 30
0.0
 10
359.452800
 20
-93.589920
 30
0.0
 10
358.156800
 20
-94.187520
 30
0.0
  0
LWPOLYLINE
  5
258
100
AcDbEntity
  8
0
 62
7
100
AcDbPolyline
 90
15
 70
0
 10
443.174400
 20
-41.627520
 30
0.0
 10
443.296800
 20
-42.117120
 30
0.0
 10
443.440800
 20
-42.469920
 30
0.0
 10
443.620800
 20
-42.837120
 30
0.0
 10
443.829600
 20
-43.211520
 30
0.0
 10
444.045600
 20
-43.585920
 30
0.0
 10
444.261600
 20
-43.967520
 30
0.0
 10
444.463200
 20
-44.334720
 30
0.0
 10
444.636000
 20
-44.694720
 30
0.0
 10
444.772800
 20
-45.040320
 30
0.0
 10
444.859200
 20
-45.515520
 30
0.0
 10
444.787200
 20
-45.925920
 30
0.0
 10
444.499200
 20
-46.257120
 30
0.0
 10
444.168000
 20
-46.429920
 30
0.0
 10
443.707200
 20
-46.552320
 30
0.0
  0
LWPOLYLINE
  5
259
100
AcDbEntity
  8
0
 62
7
100
AcDbPolyline
 90
33
 70
0
 10
445.564800
 20
-30.172320
 30
0.0
 10
445.204800
 20
-30.395520
 30
0.0
 10
444.859200
 20
-30.640320
 30
0.0
 10
444.535200
 20
-30.899520
 30
0.0
 10
444.232800
 20
-31.180320
 30
0.0
 10
443.944800
 20
-31.468320
 30
0.0
 10
443.678400
 20
-31.770720
 30
0.0
 10
443.426400
 20
-32.087520
 30
0.0
 10
443.203200
 20
-32.411520
 30
0.0
 10
442.987200
 20
-32.757120
 30
0.0
 10
442.800000
 20
-33.102720
 30
0.0
 10
442.620000
 20
-33.462720
 30
0.0
 10
442.468800
 20
-33.829920
 30
0.0
 10
442.332000
 20
-34.197120
 30
0.0
 10
442.209600
 20
-34.578720
 30
0.0
 10
442.116000
 20
-34.967520
 30
0.0
 10
442.029600
 20
-35.356320
 30
0.0
 10
441.964800
 20
-35.752320
 30
0.0
 10
441.921600
 20
-36.155520
 30
0.0
 10
441.892800
 20
-36.558720
 30
0.0
 10
441.885600
 20
-36.961920
 30
0.0
 10
441.900000
 20
-37.365120
 30
0.0
 10
441.921600
 20
-37.768320
 30
0.0
 10
441.972000
 20
-38.171520
 30
0.0
 10
442.029600
 20
-38.574720
 30
0.0
 10
442.116000
 20
-38.970720
 30
0.0
 10
442.209600
 20
-39.366720
 30
0.0
 10
442.332000
 20
-39.755520
 30
0.0
 10
442.461600
 20
-40.144320
 30
0.0
 10
442.612800
 20
-40.525920
 30
0.0
 10
442.785600
 20
-40.900320
 30
0.0
 10
442.972800
 20
-41.267520
 30
0.0
 10
443.174400
 20
-41.627520
 30
0.0
  0
LWPOLYLINE
  5
25a
100
AcDbEntity
  8
0
 62
7
100
AcDbPolyline
 90
33
 70
0
 10
483.602400
 20
-12.244320
 30
0.0
 10
482.414400
 20
-12.805920
 30
0.0
 10
481.219200
 20
-13.367520
 30
0.0
 10
480.031200
 20
-13.921920
 30
0.0
 10
478.843200
 20
-14.476320
 30
0.0
 10
477.655200
 20
-15.037920
 30
0.0
 10
476.460000
 20
-15.592320
 30
0.0
 10
475.272000
 20
-16.146720
 30
0.0
 10
474.076800
 20
-16.701120
 30
0.0
 10
472.888800
 20
-17.255520
 30
0.0
 10
471.693600
 20
-17.809920
 30
0.0
 10
470.505600
 20
-18.364320
 30
0.0
 10
469.310400
 20
-18.918720
 30
0.0
 10
468.122400
 20
-19.473120
 30
0.0
 10
466.927200
 20
-20.027520
 30
0.0
 10
465.739200
 20
-20.581920
 30
0.0
 10
464.544000
 20
-21.136320
 30
0.0
 10
463.356000
 20
-21.690720
 30
0.0
 10
462.168000
 20
-22.245120
 30
0.0
 10
460.972800
 20
-22.799520
 30
0.0
 10
459.784800
 20
-23.361120
 30
0.0
 10
458.596800
 20
-23.922720
 30
0.0
 10
457.408800
 20
-24.477120
 30
0.0
 10
456.220800
 20
-25.038720
 30
0.0
 10
455.032800
 20
-25.607520
 30
0.0
 10
453.844800
 20
-26.169120
 30
0.0
 10
452.664000
 20
-26.737920
 30
0.0
 10
451.476000
 20
-27.299520
 30
0.0
 10
450.295200
 20
-27.868320
 30
0.0
 10
449.107200
 20
-28.444320
 30
0.0
 10
447.926400
 20
-29.013120
 30
0.0
 10
446.745600
 20
-29.589120
 30
0.0
 10
445.564800
 20
-30.172320
 30
0.0
  0
LWPOLYLINE
  5
25b
100
AcDbEntity
  8
0
 62
7
100
AcDbPolyline
 90
33
 70
0
 10
358.156800
 20
-94.187520
 30
0.0
 10
357.393600
 20
-94.180320
 30
0.0
 10
356.623200
 20
-94.173120
 30
0.0
 10
355.852800
 20
-94.165920
 30
0.0
 10
355.089600
 20
-94.165920
 30
0.0
 10
354.319200
 20
-94.165920
 30
0.0
 10
353.548800
 20
-94.165920
 30
0.0
 10
352.785600
 20
-94.165920
 30
0.0
 10
352.015200
 20
-94.165920
 30
0.0
 10
351.244800
 20
-94.173120
 30
0.0
 10
350.474400
 20
-94.180320
 30
0.0
 10
349.704000
 20
-94.187520
 30
0.0
 10
348.933600
 20
-94.187520
 30
0.0
 10
348.163200
 20
-94.194720
 30
0.0
 10
347.392800
 20
-94.201920
 30
0.0
 10
346.622400
 20
-94.209120
 30
0.0
 10
345.859200
 20
-94.209120
 30
0.0
 10
345.088800
 20
-94.216320
 30
0.0
 10
344.318400
 20
-94.216320
 30
0.0
 10
343.548000
 20
-94.223520
 30
0.0
 10
342.777600
 20
-94.216320
 30
0.0
 10
342.014400
 20
-94.216320
 30
0.0
 10
341.244000
 20
-94.216320
 30
0.0
 10
340.480800
 20
-94.209120
 30
0.0
 10
339.710400
 20
-94.201920
 30
0.0
 10
338.947200
 20
-94.187520
 30
0.0
 10
338.176800
 20
-94.173120
 30
0.0
 10
337.413600
 20
-94.151520
 30
0.0
 10
336.650400
 20
-94.129920
 30
0.0
 10
335.887200
 20
-94.108320
 30
0.0
 10
335.124000
 20
-94.079520
 30
0.0
 10
334.368000
 20
-94.043520
 30
0.0
 10
333.604800
 20
-94.007520
 30
0.0
  0
LWPOLYLINE
  5
25c
100
AcDbEntity
  8
0
 62
7
100
AcDbPolyline
 90
17
 70
0
 10
402.436800
 20
-65.905920
 30
0.0
 10
401.925600
 20
-66.301920
 30
0.0
 10
401.457600
 20
-66.733920
 30
0.0
 10
401.018400
 20
-67.201920
 30
0.0
 10
400.622400
 20
-67.705920
 30
0.0
 10
400.269600
 20
-68.231520
 30
0.0
 10
399.960000
 20
-68.785920
 30
0.0
 10
399.686400
 20
-69.361920
 30
0.0
 10
399.470400
 20
-69.959520
 30
0.0
 10
399.297600
 20
-70.564320
 30
0.0
 10
399.168000
 20
-71.183520
 30
0.0
 10
399.096000
 20
-71.817120
 30
0.0
 10
399.074400
 20
-72.450720
 30
0.0
 10
399.103200
 20
-73.084320
 30
0.0
 10
399.189600
 20
-73.717920
 30
0.0
 10
399.333600
 20
-74.344320
 30
0.0
 10
399.535200
 20
-74.963520
 30
0.0
  0
LWPOLYLINE
  5
25d
100
AcDbEntity
  8
0
 62
7
100
AcDbPolyline
 90
33
 70
0
 10
443.707200
 20
-46.552320
 30
0.0
 10
442.418400
 20
-47.149920
 30
0.0
 10
441.122400
 20
-47.747520
 30
0.0
 10
439.833600
 20
-48.345120
 30
0.0
 10
438.537600
 20
-48.942720
 30
0.0
 10
437.248800
 20
-49.540320
 30
0.0
 10
435.952800
 20
-50.137920
 30
0.0
 10
434.656800
 20
-50.735520
 30
0.0
 10
433.360800
 20
-51.325920
 30
0.0
 10
432.064800
 20
-51.923520
 30
0.0
 10
430.776000
 20
-52.513920
 30
0.0
 10
429.480000
 20
-53.111520
 30
0.0
 10
428.184000
 20
-53.709120
 30
0.0
 10
426.888000
 20
-54.299520
 30
0.0
 10
425.592000
 20
-54.897120
 30
0.0
 10
424.303200
 20
-55.494720
 30
0.0
 10
423.007200
 20
-56.092320
 30
0.0
 10
421.711200
 20
-56.689920
 30
0.0
 10
420.422400
 20
-57.287520
 30
0.0
 10
419.133600
 20
-57.892320
 30
0.0
 10
417.837600
 20
-58.497120
 30
0.0
 10
416.548800
 20
-59.101920
 30
0.0
 10
415.260000
 20
-59.706720
 30
0.0
 10
413.971200
 20
-60.311520
 30
0.0
 10
412.682400
 20
-60.923520
 30
0.0
 10
411.400800
 20
-61.535520
 30
0.0
 10
410.112000
 20
-62.154720
 30
0.0
 10
408.830400
 20
-62.773920
 30
0.0
 10
407.548800
 20
-63.393120
 30
0.0
 10
406.267200
 20
-64.012320
 30
0.0
 10
404.992800
 20
-64.638720
 30
0.0
 10
403.711200
 20
-65.272320
 30
0.0
 10
402.436800
 20
-65.905920
 30
0.0
  0
LWPOLYLINE
  5
25e
100
AcDbEntity
  8
0
 62
7
100
AcDbPolyline
 90
33
 70
0
 10
557.395200
 20
0.017280
 30
0.0
 10
557.128800
 20
0.341280
 30
0.0
 10
556.848000
 20
0.636480
 30
0.0
 10
556.560000
 20
0.917280
 30
0.0
 10
556.257600
 20
1.176480
 30
0.0
 10
555.940800
 20
1.414080
 30
0.0
 10
555.616800
 20
1.630080
 30
0.0
 10
555.285600
 20
1.824480
 30
0.0
 10
554.940000
 20
1.997280
 30
0.0
 10
554.587200
 20
2.155680
 30
0.0
 10
554.234400
 20
2.292480
 30
0.0
 10
553.867200
 20
2.414880
 30
0.0
 10
553.500000
 20
2.515680
 30
0.0
 10
553.125600
 20
2.602080
 30
0.0
 10
552.744000
 20
2.666880
 30
0.0
 10
552.362400
 20
2.710080
 30
0.0
 10
551.973600
 20
2.746080
 30
0.0
 10
551.584800
 20
2.760480
 30
0.0
 10
551.196000
 20
2.753280
 30
0.0
 10
550.800000
 20
2.738880
 30
0.0
 10
550.411200
 20
2.702880
 30
0.0
 10
550.022400
 20
2.652480
 30
0.0
 10
549.633600
 20
2.587680
 30
0.0
 10
549.244800
 20
2.508480
 30
0.0
 10
548.856000
 20
2.414880
 30
0.0
 10
548.474400
 20
2.306880
 30
0.0
 10
548.100000
 20
2.184480
 30
0.0
 10
547.725600
 20
2.047680
 30
0.0
 10
547.358400
 20
1.896480
 30
0.0
 10
546.998400
 20
1.738080
 30
0.0
 10
546.645600
 20
1.565280
 30
0.0
 10
546.300000
 20
1.378080
 30
0.0
 10
545.968800
 20
1.176480
 30
0.0
  0
LWPOLYLINE
  5
25f
100
AcDbEntity
  8
0
 62
7
100
AcDbPolyline
 90
33
 70
0
 10
496.663200
 20
-7.053120
 30
0.0
 10
496.224000
 20
-7.089120
 30
0.0
 10
495.784800
 20
-7.146720
 30
0.0
 10
495.352800
 20
-7.218720
 30
0.0
 10
494.928000
 20
-7.305120
 30
0.0
 10
494.503200
 20
-7.405920
 30
0.0
 10
494.078400
 20
-7.521120
 30
0.0
 10
493.660800
 20
-7.643520
 30
0.0
 10
493.243200
 20
-7.780320
 30
0.0
 10
492.832800
 20
-7.924320
 30
0.0
 10
492.422400
 20
-8.082720
 30
0.0
 10
492.012000
 20
-8.241120
 30
0.0
 10
491.601600
 20
-8.413920
 30
0.0
 10
491.198400
 20
-8.593920
 30
0.0
 10
490.795200
 20
-8.773920
 30
0.0
 10
490.399200
 20
-8.968320
 30
0.0
 10
489.996000
 20
-9.162720
 30
0.0
 10
489.600000
 20
-9.357120
 30
0.0
 10
489.204000
 20
-9.558720
 30
0.0
 10
488.800800
 20
-9.767520
 30
0.0
 10
488.404800
 20
-9.969120
 30
0.0
 10
488.008800
 20
-10.177920
 30
0.0
 10
487.612800
 20
-10.379520
 30
0.0
 10
487.216800
 20
-10.588320
 30
0.0
 10
486.820800
 20
-10.789920
 30
0.0
 10
486.424800
 20
-10.984320
 30
0.0
 10
486.021600
 20
-11.185920
 30
0.0
 10
485.625600
 20
-11.373120
 30
0.0
 10
485.222400
 20
-11.560320
 30
0.0
 10
484.819200
 20
-11.747520
 30
0.0
 10
484.416000
 20
-11.920320
 30
0.0
 10
484.005600
 20
-12.085920
 30
0.0
 10
483.602400
 20
-12.244320
 30
0.0
  0
ENDSEC
  0
SECTION
  2
OBJECTS
  0
DICTIONARY
  5
C
330
0
100
AcDbDictionary
  3
ACAD_GROUP
350
D
  3
ACAD_MLINESTYLE
350
17
  0
DICTIONARY
  5
D
330
C
100
AcDbDictionary
  0
DICTIONARY
  5
1A
330
C
100
AcDbDictionary
  0
DICTIONARY
  5
17
330
C
100
AcDbDictionary
  3
STANDARD
350
18
  0
DICTIONARY
  5
19
330
C
100
AcDbDictionary
  0
ENDSEC
  0
EOF
