  0
SECTION
  2
HEADER
  9
$ACADVER
  1
AC1006
  9
$EXTMIN
 10
0.000000
 20
0.000000
 30
0.000000
  9
$EXTMAX
 10
2966.000000
 20
1703.000000
 30
0.000000
  0
ENDSEC
  0
SECTION
  2
ENTITIES
  0
POLYLINE
  8
0
 66
1
 70
1
  0
VERTEX
  8
0
 10
615.000000
 20
1702.333893
 42
0.013185
  0
VERTEX
  8
0
 10
608.451595
 20
1701.124802
 42
0.013648
  0
VERTEX
  8
0
 10
602.051577
 20
1699.584057
 42
0.014377
  0
VERTEX
  8
0
 10
596.451535
 20
1697.898944
 42
0.035747
  0
VERTEX
  8
0
 10
592.500000
 20
1696.263048
 42
0.043317
  0
VERTEX
  8
0
 10
582.350445
 20
1690.032588
 42
0.030713
  0
VERTEX
  8
0
 10
572.112542
 20
1681.434831
 42
0.030675
  0
VERTEX
  8
0
 10
562.986939
 20
1671.629686
 42
0.042687
  0
VERTEX
  8
0
 10
556.190535
 20
1661.756236
 42
0.017191
  0
VERTEX
  8
0
 10
552.084211
 20
1653.929302
 42
0.001077
  0
VERTEX
  8
0
 10
540.817848
 20
1630.404124
 42
0.001152
  0
VERTEX
  8
0
 10
529.714836
 20
1606.952206
 42
0.015494
  0
VERTEX
  8
0
 10
525.935249
 20
1598.229496
 42
-0.037554
  0
VERTEX
  8
0
 10
525.302498
 20
1596.929474
 42
-0.213267
  0
VERTEX
  8
0
 10
524.692199
 20
1596.491454
 42
-0.140044
  0
VERTEX
  8
0
 10
523.798410
 20
1596.559512
 42
-0.013657
  0
VERTEX
  8
0
 10
521.766955
 20
1597.374646
 42
-0.005240
  0
VERTEX
  8
0
 10
519.349100
 20
1598.452602
 42
-0.000091
  0
VERTEX
  8
0
 10
506.240918
 20
1604.464988
 42
-0.000230
  0
VERTEX
  8
0
 10
490.981428
 20
1611.475965
 42
-0.000153
  0
VERTEX
  8
0
 10
473.500000
 20
1619.524039
 42
0.000044
  0
VERTEX
  8
0
 10
454.768009
 20
1628.152813
 42
0.000041
  0
VERTEX
  8
0
 10
435.696875
 20
1636.933877
 42
0.000041
  0
VERTEX
  8
0
 10
418.822024
 20
1644.700315
 42
0.000146
  0
VERTEX
  8
0
 10
408.000000
 20
1649.676113
 42
0.006597
  0
VERTEX
  8
0
 10
392.761400
 20
1656.435175
 42
0.021839
  0
VERTEX
  8
0
 10
382.494085
 20
1660.307008
 42
0.030999
  0
VERTEX
  8
0
 10
374.058265
 20
1662.505702
 42
0.029753
  0
VERTEX
  8
0
 10
365.298874
 20
1663.682076
 42
0.073704
  0
VERTEX
  8
0
 10
344.755854
 20
1662.177069
 42
0.064082
  0
VERTEX
  8
0
 10
324.454232
 20
1654.806375
 42
0.063224
  0
VERTEX
  8
0
 10
306.430625
 20
1642.408732
 42
0.067901
  0
VERTEX
  8
0
 10
292.569781
 20
1626.164526
 42
0.033885
  0
VERTEX
  8
0
 10
285.385910
 20
1613.109557
 42
0.000035
  0
VERTEX
  8
0
 10
146.815535
 20
1315.097396
 42
0.000036
  0
VERTEX
  8
0
 10
8.353442
 20
1017.208044
 42
0.033127
  0
VERTEX
  8
0
 10
2.862252
 20
1003.000000
 42
0.048850
  0
VERTEX
  8
0
 10
0.989935
 20
993.992760
 42
0.026394
  0
VERTEX
  8
0
 10
0.371770
 20
982.672153
 42
0.026305
  0
VERTEX
  8
0
 10
0.954963
 20
971.206769
 42
0.043747
  0
VERTEX
  8
0
 10
2.788948
 20
961.714544
 42
0.048300
  0
VERTEX
  8
0
 10
8.786721
 20
946.469355
 42
0.045532
  0
VERTEX
  8
0
 10
17.696392
 20
932.332065
 42
0.045542
  0
VERTEX
  8
0
 10
29.015359
 20
920.043988
 42
0.048376
  0
VERTEX
  8
0
 10
42.159289
 20
910.283698
 42
0.023471
  0
VERTEX
  8
0
 10
46.144168
 20
908.131936
 42
0.000578
  0
VERTEX
  8
0
 10
64.878041
 20
899.150992
 42
0.001251
  0
VERTEX
  8
0
 10
86.897737
 20
888.693736
 42
0.000851
  0
VERTEX
  8
0
 10
112.000000
 20
876.901631
 42
-0.000057
  0
VERTEX
  8
0
 10
136.744858
 20
865.325376
 42
-0.000094
  0
VERTEX
  8
0
 10
157.606309
 20
855.558191
 42
-0.000002
  0
VERTEX
  8
0
 10
176.523302
 20
846.696953
 42
-0.048298
  0
VERTEX
  8
0
 10
176.681052
 20
846.603548
 42
-0.306133
  0
VERTEX
  8
0
 10
176.730670
 20
846.465709
 42
-0.000848
  0
VERTEX
  8
0
 10
176.217364
 20
844.458074
 42
-0.004452
  0
VERTEX
  8
0
 10
175.607381
 20
842.173486
 42
-0.002713
  0
VERTEX
  8
0
 10
174.848298
 20
839.485615
 42
0.024439
  0
VERTEX
  8
0
 10
173.910843
 20
835.514075
 42
0.015400
  0
VERTEX
  8
0
 10
173.188493
 20
830.802661
 42
0.012953
  0
VERTEX
  8
0
 10
172.652201
 20
825.200103
 42
0.007627
  0
VERTEX
  8
0
 10
172.287260
 20
818.482562
 42
0.021251
  0
VERTEX
  8
0
 10
172.327985
 20
806.768184
 42
0.039441
  0
VERTEX
  8
0
 10
173.510593
 20
797.342447
 42
0.040267
  0
VERTEX
  8
0
 10
176.137001
 20
788.349351
 42
0.023194
  0
VERTEX
  8
0
 10
180.647632
 20
778.000000
 42
0.015251
  0
VERTEX
  8
0
 10
183.544867
 20
772.540565
 42
0.031407
  0
VERTEX
  8
0
 10
186.198965
 20
768.500000
 42
0.027412
  0
VERTEX
  8
0
 10
189.563377
 20
764.495794
 42
0.009105
  0
VERTEX
  8
0
 10
194.911796
 20
759.000000
 42
0.011582
  0
VERTEX
  8
0
 10
199.384767
 20
754.768918
 42
0.012755
  0
VERTEX
  8
0
 10
203.910205
 20
750.887482
 42
0.013707
  0
VERTEX
  8
0
 10
208.188208
 20
747.594495
 42
0.024757
  0
VERTEX
  8
0
 10
211.888408
 20
745.174979
 42
0.025846
  0
VERTEX
  8
0
 10
227.219002
 20
737.234200
 42
0.000366
  0
VERTEX
  8
0
 10
321.723036
 20
694.405373
 42
0.000250
  0
VERTEX
  8
0
 10
418.278342
 20
650.790063
 42
0.038966
  0
VERTEX
  8
0
 10
429.500000
 20
646.746068
 42
0.042044
  0
VERTEX
  8
0
 10
437.479338
 20
645.261435
 42
0.023035
  0
VERTEX
  8
0
 10
447.416470
 20
644.725755
 42
0.023021
  0
VERTEX
  8
0
 10
457.392049
 20
645.107431
 42
0.040866
  0
VERTEX
  8
0
 10
465.500000
 20
646.465543
 42
0.032094
  0
VERTEX
  8
0
 10
475.530795
 20
649.698777
 42
0.032315
  0
VERTEX
  8
0
 10
485.041524
 20
654.183099
 42
0.032187
  0
VERTEX
  8
0
 10
493.929944
 20
659.874655
 42
0.031286
  0
VERTEX
  8
0
 10
502.103843
 20
666.710037
 42
0.000000
  0
VERTEX
  8
0
 10
507.707686
 20
672.025620
 42
0.000000
  0
VERTEX
  8
0
 10
541.301940
 20
656.362781
 42
0.000000
  0
VERTEX
  8
0
 10
574.896194
 20
640.699941
 42
0.000000
  0
VERTEX
  8
0
 10
573.571251
 20
638.099971
 42
0.009680
  0
VERTEX
  8
0
 10
572.573014
 20
636.043647
 42
0.000045
  0
VERTEX
  8
0
 10
562.639832
 20
614.526241
 42
0.000213
  0
VERTEX
  8
0
 10
551.357843
 20
590.053757
 42
0.000135
  0
VERTEX
  8
0
 10
538.218470
 20
561.500000
 42
0.001151
  0
VERTEX
  8
0
 10
513.050731
 20
506.434418
 42
0.020033
  0
VERTEX
  8
0
 10
505.624373
 20
488.178075
 42
0.057565
  0
VERTEX
  8
0
 10
502.739743
 20
475.928536
 42
0.041150
  0
VERTEX
  8
0
 10
502.260380
 20
461.842757
 42
0.029383
  0
VERTEX
  8
0
 10
503.488532
 20
450.406716
 42
0.040458
  0
VERTEX
  8
0
 10
506.010219
 20
440.389226
 42
0.039837
  0
VERTEX
  8
0
 10
510.148427
 20
430.792265
 42
0.027287
  0
VERTEX
  8
0
 10
516.264250
 20
420.619599
 42
0.040203
  0
VERTEX
  8
0
 10
523.824672
 20
411.197763
 42
0.039114
  0
VERTEX
  8
0
 10
532.860617
 20
403.012821
 42
0.035139
  0
VERTEX
  8
0
 10
543.941623
 20
395.632190
 42
0.022672
  0
VERTEX
  8
0
 10
557.684412
 20
388.616751
 42
-0.002940
  0
VERTEX
  8
0
 10
565.748768
 20
384.893423
 42
-0.000149
  0
VERTEX
  8
0
 10
591.903477
 20
372.621114
 42
-0.000239
  0
VERTEX
  8
0
 10
622.980831
 20
358.009561
 42
-0.000173
  0
VERTEX
  8
0
 10
657.582745
 20
341.706068
 42
0.000000
  0
VERTEX
  8
0
 10
745.665490
 20
300.166594
 42
0.000000
  0
VERTEX
  8
0
 10
833.582745
 20
238.483669
 42
0.000000
  0
VERTEX
  8
0
 10
921.500000
 20
176.800743
 42
0.000000
  0
VERTEX
  8
0
 10
1001.500000
 20
97.147763
 42
0.000512
  0
VERTEX
  8
0
 10
1048.171477
 20
50.773857
 42
0.004225
  0
VERTEX
  8
0
 10
1069.603336
 20
29.878462
 42
0.007824
  0
VERTEX
  8
0
 10
1082.392370
 20
17.997009
 42
0.050365
  0
VERTEX
  8
0
 10
1089.500000
 20
12.789277
 42
0.028069
  0
VERTEX
  8
0
 10
1097.135627
 20
8.857017
 42
0.021474
  0
VERTEX
  8
0
 10
1105.872177
 20
5.402911
 42
0.021466
  0
VERTEX
  8
0
 10
1114.877247
 20
2.709456
 42
0.027963
  0
VERTEX
  8
0
 10
1123.322359
 20
1.069545
 42
0.033866
  0
VERTEX
  8
0
 10
1136.114543
 20
0.196017
 42
0.000058
  0
VERTEX
  8
0
 10
1355.043592
 20
0.117809
 42
0.000524
  0
VERTEX
  8
0
 10
1562.504475
 20
0.285506
 42
0.000946
  0
VERTEX
  8
0
 10
1732.500000
 20
0.922956
 42
0.000000
  0
VERTEX
  8
0
 10
1850.500000
 20
1.588753
 42
0.000000
  0
VERTEX
  8
0
 10
1858.500000
 20
4.354012
 42
0.019848
  0
VERTEX
  8
0
 10
1865.583702
 20
7.121844
 42
0.019515
  0
VERTEX
  8
0
 10
1872.466621
 20
10.456924
 42
0.019428
  0
VERTEX
  8
0
 10
1879.098305
 20
14.334377
 42
0.019252
  0
VERTEX
  8
0
 10
1885.429816
 20
18.726058
 42
0.032062
  0
VERTEX
  8
0
 10
1889.733254
 20
22.417763
 42
0.000495
  0
VERTEX
  8
0
 10
1913.070008
 20
45.234293
 42
0.001322
  0
VERTEX
  8
0
 10
1940.093655
 20
71.848306
 42
0.000874
  0
VERTEX
  8
0
 10
1971.000000
 20
102.554719
 42
0.000000
  0
VERTEX
  8
0
 10
2050.500000
 20
181.817158
 42
0.000000
  0
VERTEX
  8
0
 10
2137.829348
 20
242.488724
 42
0.000000
  0
VERTEX
  8
0
 10
2225.158696
 20
303.160289
 42
0.000000
  0
VERTEX
  8
0
 10
2283.829348
 20
330.681597
 42
0.000029
  0
VERTEX
  8
0
 10
2309.252489
 20
342.608908
 42
0.000022
  0
VERTEX
  8
0
 10
2337.150161
 20
355.700601
 42
0.000022
  0
VERTEX
  8
0
 10
2363.339697
 20
367.993518
 42
0.000051
  0
VERTEX
  8
0
 10
2382.958433
 20
377.205735
 42
0.002208
  0
VERTEX
  8
0
 10
2398.859377
 20
384.760098
 42
0.002987
  0
VERTEX
  8
0
 10
2413.160036
 20
391.737208
 42
0.002016
  0
VERTEX
  8
0
 10
2425.095677
 20
397.709037
 42
0.032717
  0
VERTEX
  8
0
 10
2428.958433
 20
399.989755
 42
0.077043
  0
VERTEX
  8
0
 10
2445.415815
 20
415.400037
 42
0.070942
  0
VERTEX
  8
0
 10
2456.993421
 20
435.489350
 42
0.070185
  0
VERTEX
  8
0
 10
2462.581406
 20
458.222375
 42
0.072612
  0
VERTEX
  8
0
 10
2461.561708
 20
481.341337
 42
0.037515
  0
VERTEX
  8
0
 10
2459.191846
 20
490.107141
 42
0.016813
  0
VERTEX
  8
0
 10
2454.842723
 20
501.232354
 42
0.006172
  0
VERTEX
  8
0
 10
2446.324668
 20
520.377226
 42
0.000486
  0
VERTEX
  8
0
 10
2422.988903
 20
571.000000
 42
-0.000496
  0
VERTEX
  8
0
 10
2411.018317
 20
596.969513
 42
-0.000808
  0
VERTEX
  8
0
 10
2400.914128
 20
619.041257
 42
-0.000085
  0
VERTEX
  8
0
 10
2391.917189
 20
638.787372
 42
-0.077937
  0
VERTEX
  8
0
 10
2391.646827
 20
639.757472
 42
-0.311606
  0
VERTEX
  8
0
 10
2392.046251
 20
640.510113
 42
-0.001279
  0
VERTEX
  8
0
 10
2400.870886
 20
645.061733
 42
-0.005302
  0
VERTEX
  8
0
 10
2411.353520
 20
650.295013
 42
-0.002854
  0
VERTEX
  8
0
 10
2424.380403
 20
656.535125
 42
0.000000
  0
VERTEX
  8
0
 10
2457.260805
 20
672.055305
 42
0.000000
  0
VERTEX
  8
0
 10
2460.645459
 20
668.101098
 42
0.052894
  0
VERTEX
  8
0
 10
2468.366253
 20
660.804454
 42
0.034861
  0
VERTEX
  8
0
 10
2478.583002
 20
654.084755
 42
0.034286
  0
VERTEX
  8
0
 10
2489.899775
 20
648.708010
 42
0.043955
  0
VERTEX
  8
0
 10
2500.954160
 20
645.443611
 42
0.044633
  0
VERTEX
  8
0
 10
2513.070022
 20
644.104448
 42
0.035700
  0
VERTEX
  8
0
 10
2526.192037
 20
644.767565
 42
0.034004
  0
VERTEX
  8
0
 10
2539.757024
 20
647.374161
 42
0.031547
  0
VERTEX
  8
0
 10
2553.198079
 20
651.841782
 42
0.012393
  0
VERTEX
  8
0
 10
2558.564417
 20
654.166228
 42
0.000218
  0
VERTEX
  8
0
 10
2587.230342
 20
667.451222
 42
0.000549
  0
VERTEX
  8
0
 10
2620.600225
 20
682.978421
 42
0.000366
  0
VERTEX
  8
0
 10
2658.798832
 20
700.837516
 42
0.000849
  0
VERTEX
  8
0
 10
2729.090611
 20
733.909635
 42
0.012460
  0
VERTEX
  8
0
 10
2753.529939
 20
746.213061
 42
0.036924
  0
VERTEX
  8
0
 10
2766.816535
 20
754.638130
 42
0.059152
  0
VERTEX
  8
0
 10
2776.565216
 20
763.850119
 42
0.033585
  0
VERTEX
  8
0
 10
2781.245759
 20
770.291455
 42
0.019782
  0
VERTEX
  8
0
 10
2785.989745
 20
778.544823
 42
0.019804
  0
VERTEX
  8
0
 10
2790.047885
 20
787.108842
 42
0.034956
  0
VERTEX
  8
0
 10
2792.604591
 20
794.500000
 42
0.044554
  0
VERTEX
  8
0
 10
2794.484921
 20
805.191075
 42
0.027992
  0
VERTEX
  8
0
 10
2794.854119
 20
817.883790
 42
0.027942
  0
VERTEX
  8
0
 10
2793.800468
 20
830.586260
 42
0.043194
  0
VERTEX
  8
0
 10
2791.345414
 20
841.314783
 42
-0.011877
  0
VERTEX
  8
0
 10
2790.788829
 20
843.196803
 42
-0.017816
  0
VERTEX
  8
0
 10
2790.401393
 20
844.865312
 42
-0.012926
  0
VERTEX
  8
0
 10
2790.171223
 20
846.233381
 42
-0.235787
  0
VERTEX
  8
0
 10
2790.307173
 20
846.640506
 42
-0.086405
  0
VERTEX
  8
0
 10
2790.780948
 20
846.973768
 42
-0.000031
  0
VERTEX
  8
0
 10
2810.446972
 20
856.245925
 42
-0.000511
  0
VERTEX
  8
0
 10
2832.297465
 20
866.519082
 42
-0.000311
  0
VERTEX
  8
0
 10
2858.150700
 20
878.622314
 42
0.000552
  0
VERTEX
  8
0
 10
2884.251583
 20
890.856871
 42
0.000839
  0
VERTEX
  8
0
 10
2906.906841
 20
901.553327
 42
0.000299
  0
VERTEX
  8
0
 10
2926.426032
 20
910.823527
 42
0.021529
  0
VERTEX
  8
0
 10
2929.576909
 20
912.492203
 42
0.043229
  0
VERTEX
  8
0
 10
2937.514463
 20
918.117002
 42
0.031806
  0
VERTEX
  8
0
 10
2945.283606
 20
925.597755
 42
0.031308
  0
VERTEX
  8
0
 10
2952.186804
 20
934.167213
 42
0.037269
  0
VERTEX
  8
0
 10
2957.532607
 20
943.064749
 42
0.056884
  0
VERTEX
  8
0
 10
2963.342359
 20
958.839845
 42
0.050375
  0
VERTEX
  8
0
 10
2965.761263
 20
976.185107
 42
0.049895
  0
VERTEX
  8
0
 10
2964.669140
 20
993.832087
 42
0.053363
  0
VERTEX
  8
0
 10
2960.089530
 20
1010.500000
 42
0.015651
  0
VERTEX
  8
0
 10
2952.510915
 20
1028.126378
 42
0.000028
  0
VERTEX
  8
0
 10
2815.249148
 20
1321.652860
 42
0.000013
  0
VERTEX
  8
0
 10
2675.937107
 20
1619.500909
 42
0.033493
  0
VERTEX
  8
0
 10
2671.520484
 20
1627.500000
 42
0.047475
  0
VERTEX
  8
0
 10
2663.162672
 20
1638.129467
 42
0.044307
  0
VERTEX
  8
0
 10
2652.767981
 20
1647.265445
 42
0.042950
  0
VERTEX
  8
0
 10
2640.597882
 20
1654.670786
 42
0.039152
  0
VERTEX
  8
0
 10
2626.964757
 20
1660.155986
 42
0.020500
  0
VERTEX
  8
0
 10
2622.342843
 20
1661.401689
 42
0.029841
  0
VERTEX
  8
0
 10
2618.178554
 20
1662.084862
 42
0.020931
  0
VERTEX
  8
0
 10
2612.999311
 20
1662.401639
 42
0.005194
  0
VERTEX
  8
0
 10
2604.500000
 20
1662.476786
 42
0.005937
  0
VERTEX
  8
0
 10
2596.874512
 20
1662.374427
 42
0.015004
  0
VERTEX
  8
0
 10
2591.335800
 20
1662.067805
 42
0.020068
  0
VERTEX
  8
0
 10
2586.941837
 20
1661.513715
 42
0.026843
  0
VERTEX
  8
0
 10
2583.020416
 20
1660.639917
 42
0.035982
  0
VERTEX
  8
0
 10
2578.443482
 20
1658.995856
 42
0.000930
  0
VERTEX
  8
0
 10
2558.521157
 20
1650.131416
 42
0.001967
  0
VERTEX
  8
0
 10
2535.175645
 20
1639.581317
 42
0.001342
  0
VERTEX
  8
0
 10
2508.717671
 20
1627.413131
 42
-0.000392
  0
VERTEX
  8
0
 10
2482.662748
 20
1615.370293
 42
-0.000646
  0
VERTEX
  8
0
 10
2460.612745
 20
1605.234100
 42
-0.000038
  0
VERTEX
  8
0
 10
2440.739279
 20
1596.131342
 42
-0.115796
  0
VERTEX
  8
0
 10
2440.197255
 20
1596.022102
 42
-0.274392
  0
VERTEX
  8
0
 10
2439.793149
 20
1596.279579
 42
-0.000421
  0
VERTEX
  8
0
 10
2435.739194
 20
1604.318732
 42
-0.003047
  0
VERTEX
  8
0
 10
2431.226231
 20
1613.424669
 42
-0.001856
  0
VERTEX
  8
0
 10
2426.000000
 20
1624.234910
 42
0.004362
  0
VERTEX
  8
0
 10
2415.388117
 20
1645.907215
 42
0.013505
  0
VERTEX
  8
0
 10
2407.705803
 20
1660.273090
 42
0.019821
  0
VERTEX
  8
0
 10
2401.377868
 20
1670.417764
 42
0.037405
  0
VERTEX
  8
0
 10
2395.375263
 20
1677.961388
 42
0.075173
  0
VERTEX
  8
0
 10
2379.238368
 20
1690.846883
 42
0.066791
  0
VERTEX
  8
0
 10
2359.360437
 20
1699.026774
 42
0.064926
  0
VERTEX
  8
0
 10
2337.485014
 20
1701.827393
 42
0.063954
  0
VERTEX
  8
0
 10
2315.505542
 20
1698.952306
 42
0.038023
  0
VERTEX
  8
0
 10
2309.234663
 20
1696.777628
 42
0.002988
  0
VERTEX
  8
0
 10
2293.062945
 20
1689.637115
 42
0.003295
  0
VERTEX
  8
0
 10
2271.031271
 20
1679.576471
 42
0.001261
  0
VERTEX
  8
0
 10
2240.505542
 20
1665.299491
 42
-0.000119
  0
VERTEX
  8
0
 10
2214.726514
 20
1653.170729
 42
-0.000194
  0
VERTEX
  8
0
 10
2192.815528
 20
1642.878574
 42
-0.000021
  0
VERTEX
  8
0
 10
2173.240187
 20
1633.693805
 42
-0.017264
  0
VERTEX
  8
0
 10
2172.249447
 20
1633.270085
 42
-0.233371
  0
VERTEX
  8
0
 10
2171.476473
 20
1633.339001
 42
-0.016028
  0
VERTEX
  8
0
 10
2169.585440
 20
1634.576626
 42
-0.020209
  0
VERTEX
  8
0
 10
2167.350178
 20
1636.282861
 42
-0.013629
  0
VERTEX
  8
0
 10
2164.936583
 20
1638.398227
 42
0.060402
  0
VERTEX
  8
0
 10
2146.043584
 20
1652.064966
 42
0.076752
  0
VERTEX
  8
0
 10
2125.866943
 20
1659.484512
 42
0.075198
  0
VERTEX
  8
0
 10
2104.064101
 20
1660.555130
 42
0.055226
  0
VERTEX
  8
0
 10
2080.364714
 20
1655.469398
 42
0.029576
  0
VERTEX
  8
0
 10
2068.372863
 20
1650.667703
 42
0.000233
  0
VERTEX
  8
0
 10
1974.766498
 20
1606.546557
 42
0.000226
  0
VERTEX
  8
0
 10
1881.059679
 20
1562.272696
 42
0.030527
  0
VERTEX
  8
0
 10
1870.064134
 20
1556.224728
 42
0.042457
  0
VERTEX
  8
0
 10
1861.647535
 20
1549.842690
 42
0.033121
  0
VERTEX
  8
0
 10
1853.647555
 20
1541.608012
 42
0.032833
  0
VERTEX
  8
0
 10
1846.726279
 20
1532.294185
 42
0.039283
  0
VERTEX
  8
0
 10
1841.536500
 20
1522.678451
 42
0.024751
  0
VERTEX
  8
0
 10
1838.739461
 20
1515.400127
 42
0.030292
  0
VERTEX
  8
0
 10
1836.888239
 20
1508.351644
 42
0.026309
  0
VERTEX
  8
0
 10
1835.734017
 20
1500.373140
 42
0.012932
  0
VERTEX
  8
0
 10
1835.065444
 20
1490.133682
 42
0.000000
  0
VERTEX
  8
0
 10
1834.500000
 20
1475.767365
 42
0.000000
  0
VERTEX
  8
0
 10
1766.500000
 20
1443.933970
 42
0.000215
  0
VERTEX
  8
0
 10
1740.141761
 20
1431.580853
 42
0.000328
  0
VERTEX
  8
0
 10
1717.267510
 20
1420.830265
 42
0.000113
  0
VERTEX
  8
0
 10
1697.518204
 20
1411.527096
 42
0.008700
  0
VERTEX
  8
0
 10
1694.389397
 20
1409.985276
 42
0.051991
  0
VERTEX
  8
0
 10
1689.370207
 20
1406.702994
 42
0.017350
  0
VERTEX
  8
0
 10
1682.751176
 20
1400.924188
 42
0.017783
  0
VERTEX
  8
0
 10
1676.295498
 20
1394.434976
 42
0.032656
  0
VERTEX
  8
0
 10
1671.598621
 20
1388.649951
 42
0.016522
  0
VERTEX
  8
0
 10
1667.930960
 20
1383.095961
 42
0.020750
  0
VERTEX
  8
0
 10
1664.925039
 20
1377.710620
 42
0.020787
  0
VERTEX
  8
0
 10
1662.379976
 20
1372.102591
 42
0.016681
  0
VERTEX
  8
0
 10
1660.100139
 20
1365.878299
 42
0.000000
  0
VERTEX
  8
0
 10
1657.922329
 20
1359.256598
 42
0.000000
  0
VERTEX
  8
0
 10
1652.711165
 20
1357.745799
 42
0.034824
  0
VERTEX
  8
0
 10
1648.967873
 20
1356.371755
 42
0.000701
  0
VERTEX
  8
0
 10
1630.570115
 20
1348.093503
 42
0.001658
  0
VERTEX
  8
0
 10
1609.115106
 20
1338.317620
 42
0.001113
  0
VERTEX
  8
0
 10
1584.655183
 20
1327.008465
 42
0.000000
  0
VERTEX
  8
0
 10
1521.810365
 20
1297.781930
 42
0.000000
  0
VERTEX
  8
0
 10
1481.158453
 20
1298.524643
 42
0.000000
  0
VERTEX
  8
0
 10
1440.506541
 20
1299.267355
 42
0.000000
  0
VERTEX
  8
0
 10
1378.503271
 20
1328.070194
 42
0.001267
  0
VERTEX
  8
0
 10
1354.398277
 20
1339.193675
 42
0.001907
  0
VERTEX
  8
0
 10
1333.318148
 20
1348.759470
 42
0.000750
  0
VERTEX
  8
0
 10
1315.178969
 20
1356.874765
 42
0.043841
  0
VERTEX
  8
0
 10
1311.750000
 20
1358.055231
 42
-0.017674
  0
VERTEX
  8
0
 10
1309.929878
 20
1358.577182
 42
-0.026869
  0
VERTEX
  8
0
 10
1308.395313
 20
1359.169457
 42
-0.025079
  0
VERTEX
  8
0
 10
1307.251154
 20
1359.753842
 42
-0.268281
  0
VERTEX
  8
0
 10
1307.000000
 20
1360.188233
 42
0.085169
  0
VERTEX
  8
0
 10
1306.889506
 20
1360.832201
 42
0.003477
  0
VERTEX
  8
0
 10
1306.086395
 20
1363.054314
 42
0.005982
  0
VERTEX
  8
0
 10
1305.081409
 20
1365.678593
 42
0.004197
  0
VERTEX
  8
0
 10
1303.889857
 20
1368.609935
 42
0.038716
  0
VERTEX
  8
0
 10
1298.074754
 20
1380.004840
 42
0.034550
  0
VERTEX
  8
0
 10
1290.370594
 20
1390.834355
 42
0.034653
  0
VERTEX
  8
0
 10
1281.276101
 20
1400.466627
 42
0.039610
  0
VERTEX
  8
0
 10
1271.313365
 20
1408.289366
 42
0.032156
  0
VERTEX
  8
0
 10
1266.327912
 20
1411.158318
 42
0.001191
  0
VERTEX
  8
0
 10
1246.831338
 20
1420.709107
 42
0.002160
  0
VERTEX
  8
0
 10
1223.687671
 20
1431.854744
 42
0.001516
  0
VERTEX
  8
0
 10
1197.538000
 20
1444.211983
 42
0.000000
  0
VERTEX
  8
0
 10
1130.576000
 20
1475.607394
 42
0.000000
  0
VERTEX
  8
0
 10
1130.841411
 20
1488.553697
 42
0.007315
  0
VERTEX
  8
0
 10
1130.882259
 20
1495.514265
 42
0.019031
  0
VERTEX
  8
0
 10
1130.647798
 20
1500.518379
 42
0.023458
  0
VERTEX
  8
0
 10
1130.074745
 20
1504.841540
 42
0.017970
  0
VERTEX
  8
0
 10
1129.059255
 20
1509.500000
 42
0.059823
  0
VERTEX
  8
0
 10
1122.436687
 20
1526.570951
 42
0.058713
  0
VERTEX
  8
0
 10
1111.928114
 20
1541.707287
 42
0.055258
  0
VERTEX
  8
0
 10
1097.558463
 20
1554.729270
 42
0.043348
  0
VERTEX
  8
0
 10
1079.500000
 20
1565.534235
 42
0.005801
  0
VERTEX
  8
0
 10
1049.657318
 20
1579.618165
 42
0.000463
  0
VERTEX
  8
0
 10
970.312819
 20
1615.855536
 42
0.000109
  0
VERTEX
  8
0
 10
883.401963
 20
1655.428351
 42
0.031619
  0
VERTEX
  8
0
 10
876.000000
 20
1658.246954
 42
0.051694
  0
VERTEX
  8
0
 10
867.261425
 20
1659.994029
 42
0.023560
  0
VERTEX
  8
0
 10
855.614674
 20
1660.540866
 42
0.023597
  0
VERTEX
  8
0
 10
843.855190
 20
1659.983292
 42
0.046899
  0
VERTEX
  8
0
 10
834.700818
 20
1658.238918
 42
0.028625
  0
VERTEX
  8
0
 10
825.029855
 20
1654.826014
 42
0.030977
  0
VERTEX
  8
0
 10
816.072829
 20
1650.405809
 42
0.030988
  0
VERTEX
  8
0
 10
807.733471
 20
1644.914477
 42
0.028690
  0
VERTEX
  8
0
 10
799.907989
 20
1638.301249
 42
0.000000
  0
VERTEX
  8
0
 10
794.315978
 20
1632.996951
 42
0.000000
  0
VERTEX
  8
0
 10
779.407989
 20
1639.864145
 42
0.000143
  0
VERTEX
  8
0
 10
689.106602
 20
1681.429086
 42
0.003290
  0
VERTEX
  8
0
 10
663.188504
 20
1693.143991
 42
0.011203
  0
VERTEX
  8
0
 10
649.589181
 20
1698.822172
 42
0.042856
  0
VERTEX
  8
0
 10
640.792158
 20
1701.423052
 42
0.026727
  0
VERTEX
  8
0
 10
634.861886
 20
1702.309399
 42
0.014906
  0
VERTEX
  8
0
 10
627.573459
 20
1702.784625
 42
0.014870
  0
VERTEX
  8
0
 10
620.423364
 20
1702.824388
 42
0.033021
  0
SEQEND
  0
POLYLINE
  8
0
 66
1
 70
1
  0
VERTEX
  8
0
 10
2629.178001
 20
1646.858836
 42
-0.124933
  0
VERTEX
  8
0
 10
2632.496229
 20
1642.974987
 42
-0.111662
  0
VERTEX
  8
0
 10
2633.738685
 20
1637.809416
 42
-0.107694
  0
VERTEX
  8
0
 10
2632.648983
 20
1632.459025
 42
-0.109126
  0
VERTEX
  8
0
 10
2629.434221
 20
1628.076389
 42
-0.157563
  0
VERTEX
  8
0
 10
2622.494108
 20
1625.076681
 42
-0.159998
  0
VERTEX
  8
0
 10
2615.159800
 20
1626.731307
 42
-0.158978
  0
VERTEX
  8
0
 10
2610.202747
 20
1632.425669
 42
-0.155529
  0
VERTEX
  8
0
 10
2609.500713
 20
1640.003245
 42
-0.089439
  0
VERTEX
  8
0
 10
2610.655443
 20
1642.776040
 42
-0.045611
  0
VERTEX
  8
0
 10
2612.988938
 20
1645.756979
 42
-0.045754
  0
VERTEX
  8
0
 10
2615.761941
 20
1648.208914
 42
-0.110009
  0
VERTEX
  8
0
 10
2618.258484
 20
1649.304232
 42
-0.059121
  0
VERTEX
  8
0
 10
2620.945365
 20
1649.509378
 42
-0.044632
  0
VERTEX
  8
0
 10
2623.882664
 20
1649.122057
 42
-0.044218
  0
VERTEX
  8
0
 10
2626.737015
 20
1648.211851
 42
-0.054586
  0
SEQEND
  0
POLYLINE
  8
0
 66
1
 70
1
  0
VERTEX
  8
0
 10
342.613215
 20
1642.715651
 42
-0.028130
  0
VERTEX
  8
0
 10
344.426056
 20
1640.856293
 42
-0.059053
  0
VERTEX
  8
0
 10
345.561541
 20
1639.191263
 42
-0.061603
  0
VERTEX
  8
0
 10
346.248039
 20
1637.353477
 42
-0.033168
  0
VERTEX
  8
0
 10
346.653337
 20
1634.965651
 42
-0.147941
  0
VERTEX
  8
0
 10
345.234973
 20
1627.666628
 42
-0.158105
  0
VERTEX
  8
0
 10
340.031074
 20
1622.605407
 42
-0.157638
  0
VERTEX
  8
0
 10
332.834404
 20
1621.553176
 42
-0.147005
  0
VERTEX
  8
0
 10
326.149046
 20
1624.860770
 42
-0.151420
  0
VERTEX
  8
0
 10
322.588316
 20
1631.095918
 42
-0.150696
  0
VERTEX
  8
0
 10
323.169000
 20
1638.265094
 42
-0.150030
  0
VERTEX
  8
0
 10
327.692572
 20
1643.884227
 42
-0.149897
  0
VERTEX
  8
0
 10
334.591410
 20
1646.000000
 42
-0.031523
  0
VERTEX
  8
0
 10
337.027832
 20
1645.846242
 42
-0.065734
  0
VERTEX
  8
0
 10
338.863741
 20
1645.363100
 42
-0.062401
  0
VERTEX
  8
0
 10
340.570344
 20
1644.401205
 42
-0.025989
  0
SEQEND
  0
POLYLINE
  8
0
 66
1
 70
1
  0
VERTEX
  8
0
 10
722.172898
 20
1550.746862
 42
0.000000
  0
VERTEX
  8
0
 10
786.845797
 20
1520.602484
 42
0.000000
  0
VERTEX
  8
0
 10
785.551562
 20
1518.051242
 42
0.008181
  0
VERTEX
  8
0
 10
784.571183
 20
1516.037696
 42
0.000039
  0
VERTEX
  8
0
 10
774.867530
 20
1495.246302
 42
0.000183
  0
VERTEX
  8
0
 10
763.840414
 20
1471.591828
 42
0.000116
  0
VERTEX
  8
0
 10
750.997826
 20
1444.000000
 42
-0.000138
  0
VERTEX
  8
0
 10
738.224900
 20
1416.561052
 42
-0.000228
  0
VERTEX
  8
0
 10
727.425825
 20
1393.406693
 42
-0.000008
  0
VERTEX
  8
0
 10
717.647291
 20
1372.466300
 42
-0.067770
  0
VERTEX
  8
0
 10
717.457549
 20
1372.171720
 42
-0.336682
  0
VERTEX
  8
0
 10
716.811795
 20
1372.031573
 42
-0.000013
  0
VERTEX
  8
0
 10
643.841476
 20
1406.013831
 42
-0.000038
  0
VERTEX
  8
0
 10
571.589457
 20
1439.670513
 42
-0.082603
  0
VERTEX
  8
0
 10
569.602224
 20
1441.032511
 42
-0.318504
  0
VERTEX
  8
0
 10
569.370088
 20
1442.249830
 42
-0.000197
  0
VERTEX
  8
0
 10
584.843944
 20
1476.110324
 42
-0.001800
  0
VERTEX
  8
0
 10
604.338007
 20
1518.321334
 42
-0.000633
  0
VERTEX
  8
0
 10
632.600934
 20
1578.745490
 42
0.000000
  0
VERTEX
  8
0
 10
637.878299
 20
1589.990980
 42
0.000000
  0
VERTEX
  8
0
 10
647.689149
 20
1585.441110
 42
-0.000394
  0
VERTEX
  8
0
 10
654.251945
 20
1582.391266
 42
-0.000025
  0
VERTEX
  8
0
 10
673.615726
 20
1573.372853
 42
-0.000036
  0
VERTEX
  8
0
 10
696.685983
 20
1562.624769
 42
-0.000027
  0
SEQEND
  0
POLYLINE
  8
0
 66
1
 70
1
  0
VERTEX
  8
0
 10
2360.913997
 20
1515.922723
 42
-0.001186
  0
VERTEX
  8
0
 10
2374.939741
 20
1485.577510
 42
-0.002505
  0
VERTEX
  8
0
 10
2385.642237
 20
1461.966191
 42
-0.000312
  0
VERTEX
  8
0
 10
2394.585367
 20
1441.936948
 42
-0.311673
  0
VERTEX
  8
0
 10
2394.413997
 20
1441.020929
 42
-0.086569
  0
VERTEX
  8
0
 10
2392.393672
 20
1439.612242
 42
-0.000042
  0
VERTEX
  8
0
 10
2320.189453
 20
1405.963958
 42
-0.000015
  0
VERTEX
  8
0
 10
2247.264889
 20
1371.989977
 42
-0.344106
  0
VERTEX
  8
0
 10
2246.587281
 20
1372.146405
 42
-0.062219
  0
VERTEX
  8
0
 10
2244.982707
 20
1374.723963
 42
-0.000046
  0
VERTEX
  8
0
 10
2211.836968
 20
1446.533376
 42
-0.000017
  0
VERTEX
  8
0
 10
2178.304002
 20
1519.205643
 42
-0.190773
  0
VERTEX
  8
0
 10
2178.246762
 20
1520.240287
 42
-0.204932
  0
VERTEX
  8
0
 10
2178.974421
 20
1521.059934
 42
-0.000020
  0
VERTEX
  8
0
 10
2251.605209
 20
1555.294964
 42
-0.000041
  0
VERTEX
  8
0
 10
2323.696981
 20
1589.265225
 42
-0.090434
  0
VERTEX
  8
0
 10
2326.000000
 20
1589.877610
 42
-0.311829
  0
VERTEX
  8
0
 10
2326.292048
 20
1589.708438
 42
-0.000035
  0
VERTEX
  8
0
 10
2336.462237
 20
1568.169797
 42
-0.000897
  0
VERTEX
  8
0
 10
2347.682258
 20
1544.292606
 42
-0.000540
  0
SEQEND
  0
POLYLINE
  8
0
 66
1
 70
1
  0
VERTEX
  8
0
 10
447.209583
 20
1516.038310
 42
0.000000
  0
VERTEX
  8
0
 10
520.919167
 20
1481.742302
 42
0.000000
  0
VERTEX
  8
0
 10
519.568309
 20
1478.621151
 42
-0.007173
  0
VERTEX
  8
0
 10
516.216976
 20
1471.172908
 42
-0.000044
  0
VERTEX
  8
0
 10
484.863168
 20
1404.094661
 42
-0.000004
  0
VERTEX
  8
0
 10
452.033336
 20
1333.876124
 42
-0.087232
  0
VERTEX
  8
0
 10
451.620490
 20
1333.287156
 42
-0.314860
  0
VERTEX
  8
0
 10
451.000079
 20
1333.177251
 42
-0.000011
  0
VERTEX
  8
0
 10
377.995560
 20
1367.079977
 42
-0.000035
  0
VERTEX
  8
0
 10
305.750652
 20
1400.637941
 42
-0.073299
  0
VERTEX
  8
0
 10
303.705284
 20
1401.981670
 42
-0.327298
  0
VERTEX
  8
0
 10
303.560268
 20
1402.660078
 42
-0.000188
  0
VERTEX
  8
0
 10
312.445465
 20
1422.428704
 42
-0.002113
  0
VERTEX
  8
0
 10
322.490931
 20
1444.506560
 42
-0.001275
  0
VERTEX
  8
0
 10
334.575078
 20
1470.594716
 42
0.000087
  0
VERTEX
  8
0
 10
346.915872
 20
1497.071851
 42
0.000127
  0
VERTEX
  8
0
 10
357.780670
 20
1520.408278
 42
0.000061
  0
VERTEX
  8
0
 10
367.015931
 20
1540.264131
 42
0.002246
  0
VERTEX
  8
0
 10
369.107781
 20
1544.816442
 42
-0.011628
  0
VERTEX
  8
0
 10
370.262320
 20
1547.209579
 42
-0.019387
  0
VERTEX
  8
0
 10
371.357283
 20
1549.160139
 42
-0.014187
  0
VERTEX
  8
0
 10
372.317829
 20
1550.630533
 42
-0.378235
  0
VERTEX
  8
0
 10
372.737987
 20
1550.733600
 42
0.011662
  0
VERTEX
  8
0
 10
373.364506
 20
1550.423716
 42
0.000005
  0
VERTEX
  8
0
 10
394.928349
 20
1540.377154
 42
0.000077
  0
VERTEX
  8
0
 10
418.893602
 20
1529.216546
 42
0.000047
  0
SEQEND
  0
POLYLINE
  8
0
 66
1
 70
1
  0
VERTEX
  8
0
 10
2626.996201
 20
1476.145251
 42
-0.001276
  0
VERTEX
  8
0
 10
2640.046670
 20
1447.961410
 42
-0.002113
  0
VERTEX
  8
0
 10
2650.897633
 20
1424.104912
 42
-0.000190
  0
VERTEX
  8
0
 10
2660.494792
 20
1402.744497
 42
-0.319743
  0
VERTEX
  8
0
 10
2660.345251
 20
1401.995447
 42
-0.079966
  0
VERTEX
  8
0
 10
2658.423850
 20
1400.694405
 42
-0.000034
  0
VERTEX
  8
0
 10
2586.115588
 20
1367.045174
 42
-0.000011
  0
VERTEX
  8
0
 10
2513.111476
 20
1333.080194
 42
-0.318806
  0
VERTEX
  8
0
 10
2512.478229
 20
1333.196603
 42
-0.084143
  0
VERTEX
  8
0
 10
2511.865286
 20
1334.085146
 42
-0.000008
  0
VERTEX
  8
0
 10
2477.639374
 20
1407.554055
 42
-0.000003
  0
VERTEX
  8
0
 10
2443.265990
 20
1481.343431
 42
-0.321714
  0
VERTEX
  8
0
 10
2443.323636
 20
1481.648804
 42
-0.082666
  0
VERTEX
  8
0
 10
2445.694224
 20
1483.259316
 42
-0.000054
  0
VERTEX
  8
0
 10
2518.098812
 20
1516.613191
 42
-0.000018
  0
VERTEX
  8
0
 10
2591.347892
 20
1550.343251
 42
-0.321610
  0
VERTEX
  8
0
 10
2592.150951
 20
1550.188121
 42
-0.079573
  0
VERTEX
  8
0
 10
2592.578729
 20
1549.561274
 42
-0.000041
  0
VERTEX
  8
0
 10
2602.655260
 20
1528.154178
 42
-0.000568
  0
VERTEX
  8
0
 10
2613.838916
 20
1504.319727
 42
-0.000346
  0
SEQEND
  0
POLYLINE
  8
0
 66
1
 70
1
  0
VERTEX
  8
0
 10
944.000000
 20
1512.481337
 42
-0.000080
  0
VERTEX
  8
0
 10
971.051173
 20
1499.896936
 42
-0.000133
  0
VERTEX
  8
0
 10
993.868119
 20
1489.270484
 42
-0.000004
  0
VERTEX
  8
0
 10
1014.533457
 20
1479.639223
 42
-0.050840
  0
VERTEX
  8
0
 10
1014.763811
 20
1479.501852
 42
-0.355594
  0
VERTEX
  8
0
 10
1014.860407
 20
1479.120651
 42
-0.000005
  0
VERTEX
  8
0
 10
981.183277
 20
1406.673068
 42
-0.000044
  0
VERTEX
  8
0
 10
948.302144
 20
1335.956071
 42
-0.027182
  0
VERTEX
  8
0
 10
946.212243
 20
1332.034800
 42
-0.374431
  0
VERTEX
  8
0
 10
944.811972
 20
1331.585898
 42
-0.002141
  0
VERTEX
  8
0
 10
931.153643
 20
1337.531894
 42
-0.004471
  0
VERTEX
  8
0
 10
910.709652
 20
1346.755449
 42
-0.000736
  0
VERTEX
  8
0
 10
871.412965
 20
1364.979555
 42
-0.000096
  0
VERTEX
  8
0
 10
843.045061
 20
1378.192807
 42
-0.000160
  0
VERTEX
  8
0
 10
819.099782
 20
1389.361007
 42
-0.000006
  0
VERTEX
  8
0
 10
797.447879
 20
1399.468282
 42
-0.044887
  0
VERTEX
  8
0
 10
797.118208
 20
1399.659881
 42
-0.360852
  0
VERTEX
  8
0
 10
797.041895
 20
1399.944462
 42
-0.000031
  0
VERTEX
  8
0
 10
807.053703
 20
1421.735070
 42
-0.000874
  0
VERTEX
  8
0
 10
818.183453
 20
1445.843736
 42
-0.000525
  0
VERTEX
  8
0
 10
831.477304
 20
1474.429793
 42
0.000000
  0
VERTEX
  8
0
 10
866.218193
 20
1548.929334
 42
0.000000
  0
VERTEX
  8
0
 10
869.859096
 20
1547.097007
 42
0.007290
  0
VERTEX
  8
0
 10
872.663171
 20
1545.736695
 42
0.000070
  0
VERTEX
  8
0
 10
893.139860
 20
1536.172819
 42
0.000234
  0
VERTEX
  8
0
 10
916.715965
 20
1525.178808
 42
0.000152
  0
SEQEND
  0
POLYLINE
  8
0
 66
1
 70
1
  0
VERTEX
  8
0
 10
2132.970676
 20
1473.739128
 42
-0.000574
  0
VERTEX
  8
0
 10
2146.109390
 20
1445.433612
 42
-0.000955
  0
VERTEX
  8
0
 10
2157.104744
 20
1421.554688
 42
-0.000038
  0
VERTEX
  8
0
 10
2166.984854
 20
1399.985112
 42
-0.350690
  0
VERTEX
  8
0
 10
2166.905795
 20
1399.669065
 42
-0.054464
  0
VERTEX
  8
0
 10
2164.028054
 20
1397.935132
 42
-0.000051
  0
VERTEX
  8
0
 10
2093.142590
 20
1365.136949
 42
-0.000030
  0
VERTEX
  8
0
 10
2021.646954
 20
1332.070376
 42
-0.094829
  0
VERTEX
  8
0
 10
2019.744257
 20
1331.596584
 42
-0.299151
  0
VERTEX
  8
0
 10
2018.348258
 20
1332.407788
 42
-0.001675
  0
VERTEX
  8
0
 10
2011.222859
 20
1346.800677
 42
-0.004139
  0
VERTEX
  8
0
 10
2001.149024
 20
1367.758637
 42
-0.000822
  0
VERTEX
  8
0
 10
1983.502113
 20
1405.424523
 42
-0.000313
  0
VERTEX
  8
0
 10
1970.295692
 20
1433.779944
 42
-0.000522
  0
VERTEX
  8
0
 10
1959.217223
 20
1457.670658
 42
-0.000011
  0
VERTEX
  8
0
 10
1949.205458
 20
1479.321495
 42
-0.400838
  0
VERTEX
  8
0
 10
1949.257857
 20
1479.474799
 42
-0.011480
  0
VERTEX
  8
0
 10
1962.548822
 20
1485.994269
 42
-0.000256
  0
VERTEX
  8
0
 10
2027.220405
 20
1515.854850
 42
-0.000013
  0
VERTEX
  8
0
 10
2097.406262
 20
1548.215620
 42
-0.320201
  0
VERTEX
  8
0
 10
2098.064881
 20
1548.090473
 42
-0.081228
  0
VERTEX
  8
0
 10
2098.435854
 20
1547.549560
 42
-0.000031
  0
VERTEX
  8
0
 10
2108.551471
 20
1526.006196
 42
-0.000498
  0
VERTEX
  8
0
 10
2119.763181
 20
1502.062705
 42
-0.000303
  0
SEQEND
  0
POLYLINE
  8
0
 66
1
 70
1
  0
VERTEX
  8
0
 10
1871.303511
 20
1474.797846
 42
-0.130539
  0
VERTEX
  8
0
 10
1874.398924
 20
1472.006842
 42
-0.083707
  0
VERTEX
  8
0
 10
1876.340578
 20
1467.544751
 42
-0.080022
  0
VERTEX
  8
0
 10
1876.765225
 20
1462.483426
 42
-0.100650
  0
VERTEX
  8
0
 10
1875.483073
 20
1457.967267
 42
-0.127289
  0
VERTEX
  8
0
 10
1872.157716
 20
1454.254920
 42
-0.100836
  0
VERTEX
  8
0
 10
1867.149777
 20
1452.219044
 42
-0.099876
  0
VERTEX
  8
0
 10
1861.702368
 20
1452.295108
 42
-0.122216
  0
VERTEX
  8
0
 10
1857.143477
 20
1454.532726
 42
-0.182417
  0
VERTEX
  8
0
 10
1852.753615
 20
1462.372936
 42
-0.192174
  0
VERTEX
  8
0
 10
1854.763690
 20
1470.951551
 42
-0.186839
  0
VERTEX
  8
0
 10
1862.205564
 20
1475.950472
 42
-0.175829
  0
SEQEND
  0
POLYLINE
  8
0
 66
1
 70
1
  0
VERTEX
  8
0
 10
1106.810176
 20
1473.974365
 42
-0.112518
  0
VERTEX
  8
0
 10
1110.707923
 20
1470.182705
 42
-0.115839
  0
VERTEX
  8
0
 10
1112.525627
 20
1465.115967
 42
-0.115244
  0
VERTEX
  8
0
 10
1111.902008
 20
1459.748875
 42
-0.110509
  0
VERTEX
  8
0
 10
1108.965231
 20
1455.119077
 42
-0.134559
  0
VERTEX
  8
0
 10
1102.849963
 20
1451.634849
 42
-0.152119
  0
VERTEX
  8
0
 10
1096.122811
 20
1451.981932
 42
-0.150697
  0
VERTEX
  8
0
 10
1090.737799
 20
1456.097915
 42
-0.131562
  0
VERTEX
  8
0
 10
1088.248770
 20
1462.762799
 42
-0.022006
  0
VERTEX
  8
0
 10
1088.106075
 20
1465.515650
 42
-0.071359
  0
VERTEX
  8
0
 10
1088.351081
 20
1467.323654
 42
-0.077112
  0
VERTEX
  8
0
 10
1089.082227
 20
1468.913324
 42
-0.028633
  0
VERTEX
  8
0
 10
1090.560866
 20
1470.889965
 42
-0.071185
  0
VERTEX
  8
0
 10
1094.217261
 20
1474.156609
 42
-0.100194
  0
VERTEX
  8
0
 10
1098.254919
 20
1475.803613
 42
-0.103609
  0
VERTEX
  8
0
 10
1102.512382
 20
1475.723154
 42
-0.080707
  0
SEQEND
  0
POLYLINE
  8
0
 66
1
 70
1
  0
VERTEX
  8
0
 10
1119.500000
 20
1365.540727
 42
-0.000443
  0
VERTEX
  8
0
 10
1147.162573
 20
1352.577581
 42
-0.000724
  0
VERTEX
  8
0
 10
1170.585119
 20
1341.534601
 42
-0.000063
  0
VERTEX
  8
0
 10
1191.566059
 20
1331.602326
 42
-0.084261
  0
VERTEX
  8
0
 10
1192.300404
 20
1331.088652
 42
-0.316758
  0
VERTEX
  8
0
 10
1192.581326
 20
1329.533947
 42
-0.000068
  0
VERTEX
  8
0
 10
1158.625394
 20
1256.440595
 42
-0.000066
  0
VERTEX
  8
0
 10
1124.637816
 20
1183.330100
 42
-0.346781
  0
VERTEX
  8
0
 10
1123.325941
 20
1182.667177
 42
-0.058604
  0
VERTEX
  8
0
 10
1122.680068
 20
1182.878909
 42
-0.000027
  0
VERTEX
  8
0
 10
1102.473870
 20
1192.241740
 42
-0.000399
  0
VERTEX
  8
0
 10
1080.014823
 20
1202.671741
 42
-0.000243
  0
VERTEX
  8
0
 10
1053.500000
 20
1215.026677
 42
0.000078
  0
VERTEX
  8
0
 10
1026.714250
 20
1227.518655
 42
0.000117
  0
VERTEX
  8
0
 10
1003.377070
 20
1238.391277
 42
0.000044
  0
VERTEX
  8
0
 10
983.294077
 20
1247.739918
 42
0.002806
  0
VERTEX
  8
0
 10
979.762365
 20
1249.359500
 42
0.000000
  0
VERTEX
  8
0
 10
975.024730
 20
1251.500000
 42
0.000000
  0
VERTEX
  8
0
 10
1009.721891
 20
1325.811839
 42
-0.000835
  0
VERTEX
  8
0
 10
1027.230226
 20
1363.147098
 42
-0.003999
  0
VERTEX
  8
0
 10
1037.423227
 20
1384.347315
 42
-0.001404
  0
VERTEX
  8
0
 10
1044.727958
 20
1399.129157
 42
-0.364830
  0
VERTEX
  8
0
 10
1045.959526
 20
1399.663510
 42
-0.035999
  0
VERTEX
  8
0
 10
1047.161345
 20
1399.208056
 42
-0.000055
  0
VERTEX
  8
0
 10
1068.197486
 20
1389.450123
 42
-0.000449
  0
VERTEX
  8
0
 10
1091.785750
 20
1378.479411
 42
-0.000277
  0
SEQEND
  0
POLYLINE
  8
0
 66
1
 70
1
  0
VERTEX
  8
0
 10
1954.324849
 20
1325.813073
 42
-0.000339
  0
VERTEX
  8
0
 10
1967.588872
 20
1297.351352
 42
-0.000565
  0
VERTEX
  8
0
 10
1978.718071
 20
1273.357286
 42
-0.000013
  0
VERTEX
  8
0
 10
1988.770567
 20
1251.618705
 42
-0.327717
  0
VERTEX
  8
0
 10
1988.729740
 20
1251.417567
 42
-0.075662
  0
VERTEX
  8
0
 10
1987.897184
 20
1250.864788
 42
-0.000006
  0
VERTEX
  8
0
 10
1915.070855
 20
1217.016818
 42
-0.000009
  0
VERTEX
  8
0
 10
1842.488344
 20
1183.284819
 42
-0.048361
  0
VERTEX
  8
0
 10
1841.023777
 20
1182.769416
 42
-0.357943
  0
VERTEX
  8
0
 10
1839.539903
 20
1183.478414
 42
-0.000086
  0
VERTEX
  8
0
 10
1805.436821
 20
1256.404128
 42
-0.000089
  0
VERTEX
  8
0
 10
1771.375143
 20
1329.307651
 42
-0.319545
  0
VERTEX
  8
0
 10
1771.700128
 20
1331.076696
 42
-0.083492
  0
VERTEX
  8
0
 10
1773.128635
 20
1332.062269
 42
-0.000020
  0
VERTEX
  8
0
 10
1845.338700
 20
1365.819481
 42
-0.000017
  0
VERTEX
  8
0
 10
1917.666595
 20
1399.625274
 42
-0.098981
  0
VERTEX
  8
0
 10
1919.095109
 20
1399.974661
 42
-0.301049
  0
VERTEX
  8
0
 10
1919.442452
 20
1399.765373
 42
-0.000048
  0
VERTEX
  8
0
 10
1929.689327
 20
1378.200147
 42
-0.001045
  0
VERTEX
  8
0
 10
1941.001755
 20
1354.257513
 42
-0.000629
  0
SEQEND
  0
POLYLINE
  8
0
 66
1
 70
1
  0
VERTEX
  8
0
 10
618.031812
 20
1351.750000
 42
-0.000882
  0
VERTEX
  8
0
 10
646.155259
 20
1338.559395
 42
-0.001464
  0
VERTEX
  8
0
 10
669.819316
 20
1327.324573
 42
-0.000092
  0
VERTEX
  8
0
 10
691.048731
 20
1317.164557
 42
-0.315336
  0
VERTEX
  8
0
 10
691.313228
 20
1316.695356
 42
-0.083999
  0
VERTEX
  8
0
 10
691.143261
 20
1316.069608
 42
-0.000032
  0
VERTEX
  8
0
 10
681.193458
 20
1294.539088
 42
-0.000510
  0
VERTEX
  8
0
 10
670.115430
 20
1270.635236
 42
-0.000310
  0
VERTEX
  8
0
 10
656.973600
 20
1242.399689
 42
-0.001093
  0
VERTEX
  8
0
 10
641.956299
 20
1210.369880
 42
-0.002950
  0
VERTEX
  8
0
 10
631.107962
 20
1187.710425
 42
-0.000493
  0
VERTEX
  8
0
 10
622.302318
 20
1169.638215
 42
-0.347477
  0
VERTEX
  8
0
 10
621.398508
 20
1169.204334
 42
-0.054837
  0
VERTEX
  8
0
 10
615.395871
 20
1171.266072
 42
-0.000190
  0
VERTEX
  8
0
 10
546.127941
 20
1203.943036
 42
-0.000043
  0
VERTEX
  8
0
 10
474.785875
 20
1237.639094
 42
-0.344880
  0
VERTEX
  8
0
 10
474.261200
 20
1238.684281
 42
-0.060177
  0
VERTEX
  8
0
 10
475.825332
 20
1243.417146
 42
-0.000125
  0
VERTEX
  8
0
 10
508.834683
 20
1313.598303
 42
-0.000033
  0
VERTEX
  8
0
 10
542.609029
 20
1385.346820
 42
-0.285371
  0
VERTEX
  8
0
 10
543.585799
 20
1385.979540
 42
-0.112852
  0
VERTEX
  8
0
 10
544.424576
 20
1385.804343
 42
-0.000075
  0
VERTEX
  8
0
 10
565.902208
 20
1375.933052
 42
-0.000905
  0
VERTEX
  8
0
 10
589.826867
 20
1364.880209
 42
-0.000553
  0
SEQEND
  0
POLYLINE
  8
0
 66
1
 70
1
  0
VERTEX
  8
0
 10
2455.500000
 20
1312.992451
 42
-0.000343
  0
VERTEX
  8
0
 10
2468.554327
 20
1284.925456
 42
-0.000558
  0
VERTEX
  8
0
 10
2479.589693
 20
1261.087055
 42
-0.000055
  0
VERTEX
  8
0
 10
2489.439227
 20
1239.741650
 42
-0.056765
  0
VERTEX
  8
0
 10
2489.762784
 20
1238.761361
 42
-0.343484
  0
VERTEX
  8
0
 10
2489.357660
 20
1237.936051
 42
-0.000373
  0
VERTEX
  8
0
 10
2470.438657
 20
1228.750078
 42
-0.002707
  0
VERTEX
  8
0
 10
2447.560378
 20
1217.815308
 42
-0.001172
  0
VERTEX
  8
0
 10
2417.002124
 20
1203.500000
 42
-0.000340
  0
VERTEX
  8
0
 10
2388.910694
 20
1190.443789
 42
-0.000554
  0
VERTEX
  8
0
 10
2365.042358
 20
1179.402256
 42
-0.000057
  0
VERTEX
  8
0
 10
2343.685314
 20
1169.554124
 42
-0.053831
  0
VERTEX
  8
0
 10
2342.661372
 20
1169.209806
 42
-0.346210
  0
VERTEX
  8
0
 10
2341.755623
 20
1169.647063
 42
-0.000496
  0
VERTEX
  8
0
 10
2332.974216
 20
1187.666635
 42
-0.002959
  0
VERTEX
  8
0
 10
2322.153586
 20
1210.266013
 42
-0.001095
  0
VERTEX
  8
0
 10
2307.172032
 20
1242.218353
 42
-0.000524
  0
VERTEX
  8
0
 10
2294.070237
 20
1270.398618
 42
-0.000858
  0
VERTEX
  8
0
 10
2283.038035
 20
1294.299955
 42
-0.000070
  0
VERTEX
  8
0
 10
2273.180766
 20
1315.760375
 42
-0.108027
  0
VERTEX
  8
0
 10
2273.000000
 20
1316.587280
 42
-0.290532
  0
VERTEX
  8
0
 10
2273.677718
 20
1317.655170
 42
-0.000040
  0
VERTEX
  8
0
 10
2345.948017
 20
1351.654215
 42
-0.000084
  0
VERTEX
  8
0
 10
2417.506259
 20
1385.296592
 42
-0.110544
  0
VERTEX
  8
0
 10
2420.500000
 20
1385.963261
 42
-0.288080
  0
VERTEX
  8
0
 10
2421.080673
 20
1385.597546
 42
-0.000136
  0
VERTEX
  8
0
 10
2431.193750
 20
1364.527640
 42
-0.001744
  0
VERTEX
  8
0
 10
2442.391439
 20
1340.971384
 42
-0.001054
  0
SEQEND
  0
POLYLINE
  8
0
 66
1
 70
1
  0
VERTEX
  8
0
 10
354.000000
 20
1311.997826
 42
-0.000128
  0
VERTEX
  8
0
 10
381.437808
 20
1299.226081
 42
-0.000212
  0
VERTEX
  8
0
 10
404.588346
 20
1288.430786
 42
-0.000007
  0
VERTEX
  8
0
 10
425.532427
 20
1278.653204
 42
-0.066654
  0
VERTEX
  8
0
 10
425.811391
 20
1278.474438
 42
-0.337967
  0
VERTEX
  8
0
 10
425.943168
 20
1277.873754
 42
-0.000011
  0
VERTEX
  8
0
 10
391.938055
 20
1204.866305
 42
-0.000035
  0
VERTEX
  8
0
 10
358.268262
 20
1132.596290
 42
-0.077313
  0
VERTEX
  8
0
 10
356.932150
 20
1130.602399
 42
-0.325152
  0
VERTEX
  8
0
 10
355.705629
 20
1130.357138
 42
-0.000045
  0
VERTEX
  8
0
 10
283.362678
 20
1163.663737
 42
-0.000122
  0
VERTEX
  8
0
 10
212.168849
 20
1196.470134
 42
-0.088905
  0
VERTEX
  8
0
 10
208.813821
 20
1198.811985
 42
-0.311683
  0
VERTEX
  8
0
 10
208.697847
 20
1199.450101
 42
-0.000129
  0
VERTEX
  8
0
 10
218.487360
 20
1221.094386
 42
-0.001731
  0
VERTEX
  8
0
 10
229.498365
 20
1245.200137
 42
-0.001044
  0
VERTEX
  8
0
 10
242.708587
 20
1273.700818
 42
0.000000
  0
VERTEX
  8
0
 10
277.289533
 20
1347.901637
 42
0.000000
  0
VERTEX
  8
0
 10
279.894767
 20
1346.579482
 42
0.008212
  0
VERTEX
  8
0
 10
281.948676
 20
1345.579197
 42
0.000041
  0
VERTEX
  8
0
 10
302.737838
 20
1335.875732
 42
0.000187
  0
VERTEX
  8
0
 10
326.404437
 20
1324.842355
 42
0.000119
  0
SEQEND
  0
POLYLINE
  8
0
 66
1
 70
1
  0
VERTEX
  8
0
 10
2721.424113
 20
1273.481606
 42
-0.000711
  0
VERTEX
  8
0
 10
2734.605200
 20
1245.109503
 42
-0.001176
  0
VERTEX
  8
0
 10
2745.639846
 20
1221.121090
 42
-0.000067
  0
VERTEX
  8
0
 10
2755.517962
 20
1199.505491
 42
-0.250579
  0
VERTEX
  8
0
 10
2755.484771
 20
1198.975359
 42
-0.147293
  0
VERTEX
  8
0
 10
2753.476308
 20
1197.196892
 42
-0.000086
  0
VERTEX
  8
0
 10
2681.197855
 20
1163.865994
 42
-0.000050
  0
VERTEX
  8
0
 10
2608.396610
 20
1130.317871
 42
-0.328798
  0
VERTEX
  8
0
 10
2607.109629
 20
1130.583599
 42
-0.074054
  0
VERTEX
  8
0
 10
2605.838854
 20
1132.506309
 42
-0.000031
  0
VERTEX
  8
0
 10
2572.119328
 20
1204.858078
 42
-0.000009
  0
VERTEX
  8
0
 10
2538.067117
 20
1277.939039
 42
-0.371264
  0
VERTEX
  8
0
 10
2538.209920
 20
1278.445244
 42
-0.037383
  0
VERTEX
  8
0
 10
2539.932565
 20
1279.409098
 42
-0.000011
  0
VERTEX
  8
0
 10
2612.821248
 20
1313.312267
 42
-0.000002
  0
VERTEX
  8
0
 10
2686.441610
 20
1347.553398
 42
-0.269014
  0
VERTEX
  8
0
 10
2686.737311
 20
1347.526640
 42
-0.129936
  0
VERTEX
  8
0
 10
2686.885331
 20
1347.349666
 42
-0.000006
  0
VERTEX
  8
0
 10
2697.024450
 20
1325.706640
 42
-0.000275
  0
VERTEX
  8
0
 10
2708.197762
 20
1301.821069
 42
-0.000166
  0
SEQEND
  0
POLYLINE
  8
0
 66
1
 70
1
  0
VERTEX
  8
0
 10
845.326318
 20
1310.920465
 42
-0.000382
  0
VERTEX
  8
0
 10
873.434549
 20
1297.803336
 42
-0.000626
  0
VERTEX
  8
0
 10
897.221220
 20
1286.644479
 42
-0.000049
  0
VERTEX
  8
0
 10
918.563798
 20
1276.597035
 42
-0.081383
  0
VERTEX
  8
0
 10
919.235283
 20
1276.135181
 42
-0.320510
  0
VERTEX
  8
0
 10
919.494751
 20
1274.752974
 42
-0.000054
  0
VERTEX
  8
0
 10
885.352959
 20
1201.256798
 42
-0.000051
  0
VERTEX
  8
0
 10
851.179528
 20
1127.732910
 42
-0.442732
  0
VERTEX
  8
0
 10
850.124602
 20
1127.404248
 42
0.023748
  0
VERTEX
  8
0
 10
849.602750
 20
1127.678642
 42
0.000007
  0
VERTEX
  8
0
 10
828.092852
 20
1137.715343
 42
0.000132
  0
VERTEX
  8
0
 10
804.226171
 20
1148.843651
 42
0.000080
  0
VERTEX
  8
0
 10
776.000000
 20
1161.990094
 42
-0.000124
  0
VERTEX
  8
0
 10
747.798761
 20
1175.127929
 42
-0.000205
  0
VERTEX
  8
0
 10
724.014088
 20
1186.227325
 42
-0.000006
  0
VERTEX
  8
0
 10
702.477730
 20
1196.288586
 42
-0.076746
  0
VERTEX
  8
0
 10
702.239450
 20
1196.448213
 42
-0.325696
  0
VERTEX
  8
0
 10
702.193413
 20
1196.678112
 42
-0.000020
  0
VERTEX
  8
0
 10
711.636079
 20
1217.152319
 42
-0.000682
  0
VERTEX
  8
0
 10
722.106517
 20
1239.771468
 42
-0.000410
  0
VERTEX
  8
0
 10
734.593853
 20
1266.593883
 42
0.000135
  0
VERTEX
  8
0
 10
747.228145
 20
1293.692967
 42
0.000206
  0
VERTEX
  8
0
 10
758.174556
 20
1317.213516
 42
0.000070
  0
VERTEX
  8
0
 10
767.626564
 20
1337.552293
 42
0.005587
  0
VERTEX
  8
0
 10
769.068866
 20
1340.750000
 42
-0.011300
  0
VERTEX
  8
0
 10
769.825997
 20
1342.378722
 42
-0.017266
  0
VERTEX
  8
0
 10
770.562265
 20
1343.751563
 42
-0.011973
  0
VERTEX
  8
0
 10
771.222772
 20
1344.827074
 42
-0.254305
  0
VERTEX
  8
0
 10
771.540781
 20
1345.000000
 42
-0.108571
  0
VERTEX
  8
0
 10
772.017171
 20
1344.895322
 42
-0.000023
  0
VERTEX
  8
0
 10
793.467673
 20
1334.989136
 42
-0.000495
  0
VERTEX
  8
0
 10
817.225657
 20
1323.987428
 42
-0.000300
  0
SEQEND
  0
POLYLINE
  8
0
 66
1
 70
1
  0
VERTEX
  8
0
 10
2227.671822
 20
1270.573437
 42
-0.000470
  0
VERTEX
  8
0
 10
2240.839913
 20
1242.239486
 42
-0.000781
  0
VERTEX
  8
0
 10
2251.875997
 20
1218.336680
 42
-0.000026
  0
VERTEX
  8
0
 10
2261.815200
 20
1196.717889
 42
-0.313800
  0
VERTEX
  8
0
 10
2261.763692
 20
1196.430359
 42
-0.087305
  0
VERTEX
  8
0
 10
2261.236038
 20
1196.060604
 42
-0.000003
  0
VERTEX
  8
0
 10
2193.531465
 20
1164.429783
 42
-0.000074
  0
VERTEX
  8
0
 10
2131.083874
 20
1135.266761
 42
-0.003493
  0
VERTEX
  8
0
 10
2118.364643
 20
1129.437066
 42
0.000000
  0
VERTEX
  8
0
 10
2113.229285
 20
1127.126621
 42
0.000000
  0
VERTEX
  8
0
 10
2079.157986
 20
1200.313310
 42
-0.000336
  0
VERTEX
  8
0
 10
2066.074209
 20
1228.467252
 42
-0.000546
  0
VERTEX
  8
0
 10
2055.008961
 20
1252.388033
 42
-0.000056
  0
VERTEX
  8
0
 10
2045.138877
 20
1273.792779
 42
-0.053214
  0
VERTEX
  8
0
 10
2044.793343
 20
1274.816163
 42
-0.346551
  0
VERTEX
  8
0
 10
2045.228426
 20
1275.721694
 42
-0.000492
  0
VERTEX
  8
0
 10
2063.307978
 20
1284.560420
 42
-0.002948
  0
VERTEX
  8
0
 10
2085.972594
 20
1295.448134
 42
-0.001093
  0
VERTEX
  8
0
 10
2118.000000
 20
1310.516227
 42
-0.000690
  0
VERTEX
  8
0
 10
2146.245056
 20
1323.682009
 42
-0.001136
  0
VERTEX
  8
0
 10
2170.169722
 20
1334.727743
 42
-0.000080
  0
VERTEX
  8
0
 10
2191.687234
 20
1344.598688
 42
-0.176848
  0
VERTEX
  8
0
 10
2192.386288
 20
1344.654635
 42
-0.217247
  0
VERTEX
  8
0
 10
2192.906698
 20
1344.218022
 42
-0.000093
  0
VERTEX
  8
0
 10
2203.117008
 20
1322.792017
 42
-0.001327
  0
VERTEX
  8
0
 10
2214.418591
 20
1298.901448
 42
-0.000805
  0
SEQEND
  0
POLYLINE
  8
0
 66
1
 70
1
  0
VERTEX
  8
0
 10
1315.500000
 20
1241.540975
 42
-0.000217
  0
VERTEX
  8
0
 10
1341.598939
 20
1229.357267
 42
-0.000358
  0
VERTEX
  8
0
 10
1363.630705
 20
1219.041343
 42
-0.000015
  0
VERTEX
  8
0
 10
1383.524692
 20
1209.708265
 42
-0.086769
  0
VERTEX
  8
0
 10
1383.859847
 20
1209.473124
 42
-0.315252
  0
VERTEX
  8
0
 10
1383.985081
 20
1208.765319
 42
-0.000014
  0
VERTEX
  8
0
 10
1350.056463
 20
1135.882690
 42
-0.000040
  0
VERTEX
  8
0
 10
1316.456506
 20
1063.726578
 42
-0.082936
  0
VERTEX
  8
0
 10
1315.056333
 20
1061.685962
 42
-0.320653
  0
VERTEX
  8
0
 10
1313.112945
 20
1061.325612
 42
-0.000108
  0
VERTEX
  8
0
 10
1240.361297
 20
1095.350703
 42
-0.000105
  0
VERTEX
  8
0
 10
1167.589321
 20
1129.423067
 42
-0.356472
  0
VERTEX
  8
0
 10
1166.802048
 20
1131.061884
 42
-0.048984
  0
VERTEX
  8
0
 10
1167.141401
 20
1132.036983
 42
-0.000047
  0
VERTEX
  8
0
 10
1177.038995
 20
1153.454384
 42
-0.000480
  0
VERTEX
  8
0
 10
1188.122776
 20
1177.372293
 42
-0.000295
  0
VERTEX
  8
0
 10
1201.227078
 20
1205.535788
 42
0.000000
  0
VERTEX
  8
0
 10
1235.350060
 20
1278.759291
 42
0.000000
  0
VERTEX
  8
0
 10
1241.425030
 20
1276.004316
 42
-0.002366
  0
VERTEX
  8
0
 10
1245.825242
 20
1273.983674
 42
-0.000060
  0
VERTEX
  8
0
 10
1265.690478
 20
1264.744282
 42
-0.000128
  0
VERTEX
  8
0
 10
1289.003598
 20
1253.890591
 42
-0.000087
  0
SEQEND
  0
POLYLINE
  8
0
 66
1
 70
1
  0
VERTEX
  8
0
 10
1765.455914
 20
1200.000000
 42
-0.001084
  0
VERTEX
  8
0
 10
1777.820881
 20
1173.302826
 42
-0.001796
  0
VERTEX
  8
0
 10
1788.123869
 20
1150.717551
 42
-0.000139
  0
VERTEX
  8
0
 10
1797.275622
 20
1130.448610
 42
-0.309799
  0
VERTEX
  8
0
 10
1797.164196
 20
1129.825704
 42
-0.090535
  0
VERTEX
  8
0
 10
1793.992832
 20
1127.597992
 42
-0.000111
  0
VERTEX
  8
0
 10
1722.636894
 20
1094.737412
 42
-0.000042
  0
VERTEX
  8
0
 10
1650.202568
 20
1061.407068
 42
-0.321945
  0
VERTEX
  8
0
 10
1649.010561
 20
1061.638488
 42
-0.080934
  0
VERTEX
  8
0
 10
1646.805623
 20
1064.899157
 42
-0.000102
  0
VERTEX
  8
0
 10
1613.802289
 20
1136.319863
 42
-0.000033
  0
VERTEX
  8
0
 10
1580.274774
 20
1208.926319
 42
-0.435380
  0
VERTEX
  8
0
 10
1580.608922
 20
1209.742178
 42
0.018860
  0
VERTEX
  8
0
 10
1581.320597
 20
1210.041833
 42
0.000010
  0
VERTEX
  8
0
 10
1602.828871
 20
1220.069430
 42
0.000137
  0
VERTEX
  8
0
 10
1626.755379
 20
1231.233045
 42
0.000084
  0
VERTEX
  8
0
 10
1655.000000
 20
1244.426627
 42
0.000000
  0
VERTEX
  8
0
 10
1728.500000
 20
1278.774847
 42
0.000000
  0
VERTEX
  8
0
 10
1730.791718
 20
1274.137424
 42
-0.005322
  0
VERTEX
  8
0
 10
1732.469363
 20
1270.649635
 42
-0.000082
  0
VERTEX
  8
0
 10
1741.919659
 20
1250.446618
 42
-0.000219
  0
VERTEX
  8
0
 10
1752.883884
 20
1226.970243
 42
-0.000145
  0
SEQEND
  0
POLYLINE
  8
0
 66
1
 70
1
  0
VERTEX
  8
0
 10
1023.685314
 20
1162.574117
 42
-0.000779
  0
VERTEX
  8
0
 10
1062.308165
 20
1144.487768
 42
-0.004395
  0
VERTEX
  8
0
 10
1082.822896
 20
1134.620980
 42
-0.002076
  0
VERTEX
  8
0
 10
1096.536556
 20
1127.805322
 42
-0.300034
  0
VERTEX
  8
0
 10
1097.389417
 20
1126.324117
 42
-0.093297
  0
VERTEX
  8
0
 10
1096.908761
 20
1124.414696
 42
-0.000029
  0
VERTEX
  8
0
 10
1063.908792
 20
1052.973408
 42
-0.000053
  0
VERTEX
  8
0
 10
1031.216667
 20
982.229319
 42
-0.050560
  0
VERTEX
  8
0
 10
1029.399712
 20
979.156702
 42
-0.355639
  0
VERTEX
  8
0
 10
1029.137480
 20
979.089084
 42
-0.000026
  0
VERTEX
  8
0
 10
1007.349694
 20
989.109721
 42
-0.000794
  0
VERTEX
  8
0
 10
983.259048
 20
1000.237395
 42
-0.000477
  0
VERTEX
  8
0
 10
954.691063
 20
1013.521399
 42
0.000000
  0
VERTEX
  8
0
 10
880.235388
 20
1048.229393
 42
0.000000
  0
VERTEX
  8
0
 10
889.430463
 20
1067.864697
 42
0.000430
  0
VERTEX
  8
0
 10
894.540182
 20
1078.800554
 42
0.000092
  0
VERTEX
  8
0
 10
903.396671
 20
1097.806982
 42
0.000096
  0
VERTEX
  8
0
 10
913.649799
 20
1119.832288
 42
0.000091
  0
VERTEX
  8
0
 10
924.062768
 20
1142.222903
 42
-0.000243
  0
VERTEX
  8
0
 10
933.829855
 20
1163.208049
 42
-0.000405
  0
VERTEX
  8
0
 10
942.082249
 20
1180.878913
 42
-0.000008
  0
VERTEX
  8
0
 10
949.576601
 20
1196.892109
 42
-0.252111
  0
VERTEX
  8
0
 10
949.685314
 20
1196.972903
 42
-0.146105
  0
VERTEX
  8
0
 10
949.831339
 20
1196.951585
 42
-0.000003
  0
VERTEX
  8
0
 10
971.499256
 20
1186.879437
 42
-0.000197
  0
VERTEX
  8
0
 10
995.368215
 20
1175.772559
 42
-0.000118
  0
SEQEND
  0
POLYLINE
  8
0
 66
1
 70
1
  0
VERTEX
  8
0
 10
2036.714582
 20
1149.230261
 42
0.000021
  0
VERTEX
  8
0
 10
2046.130336
 20
1129.001822
 42
0.000018
  0
VERTEX
  8
0
 10
2056.052627
 20
1107.689556
 42
0.000018
  0
VERTEX
  8
0
 10
2065.073619
 20
1088.316909
 42
0.000052
  0
VERTEX
  8
0
 10
2071.351280
 20
1074.840566
 42
0.000000
  0
VERTEX
  8
0
 10
2083.773395
 20
1048.181132
 42
0.000000
  0
VERTEX
  8
0
 10
2009.673819
 20
1013.603444
 42
-0.001179
  0
VERTEX
  8
0
 10
1981.205871
 20
1000.400903
 42
-0.001954
  0
VERTEX
  8
0
 10
1957.113443
 20
989.410503
 42
-0.000164
  0
VERTEX
  8
0
 10
1935.517195
 20
979.669082
 42
-0.311752
  0
VERTEX
  8
0
 10
1934.799603
 20
979.800397
 42
-0.087770
  0
VERTEX
  8
0
 10
1933.275410
 20
981.979759
 42
-0.000050
  0
VERTEX
  8
0
 10
1899.936347
 20
1053.703293
 42
-0.000025
  0
VERTEX
  8
0
 10
1866.333678
 20
1126.022346
 42
-0.191456
  0
VERTEX
  8
0
 10
1866.262086
 20
1127.286259
 42
-0.204973
  0
VERTEX
  8
0
 10
1866.894347
 20
1127.998335
 42
-0.000015
  0
VERTEX
  8
0
 10
1939.587921
 20
1162.249881
 42
-0.000036
  0
VERTEX
  8
0
 10
2011.644273
 20
1196.192132
 42
-0.075914
  0
VERTEX
  8
0
 10
2014.000000
 20
1196.891553
 42
-0.326621
  0
VERTEX
  8
0
 10
2014.291865
 20
1196.734252
 42
-0.000086
  0
VERTEX
  8
0
 10
2020.878659
 20
1182.919499
 42
-0.001426
  0
VERTEX
  8
0
 10
2028.160678
 20
1167.527001
 42
-0.000858
  0
SEQEND
  0
POLYLINE
  8
0
 66
1
 70
1
  0
VERTEX
  8
0
 10
522.227146
 20
1148.885591
 42
-0.000329
  0
VERTEX
  8
0
 10
550.370470
 20
1135.760038
 42
-0.000540
  0
VERTEX
  8
0
 10
574.179213
 20
1124.605585
 42
-0.000039
  0
VERTEX
  8
0
 10
595.566022
 20
1114.555575
 42
-0.076136
  0
VERTEX
  8
0
 10
596.191451
 20
1114.135591
 42
-0.325519
  0
VERTEX
  8
0
 10
596.355415
 20
1113.318615
 42
-0.000019
  0
VERTEX
  8
0
 10
562.647570
 20
1040.086500
 42
-0.000053
  0
VERTEX
  8
0
 10
529.289039
 20
967.641055
 42
-0.088674
  0
VERTEX
  8
0
 10
527.714686
 20
965.381353
 42
-0.315048
  0
VERTEX
  8
0
 10
527.335617
 20
965.314334
 42
-0.000004
  0
VERTEX
  8
0
 10
453.597787
 20
999.617727
 42
-0.000011
  0
VERTEX
  8
0
 10
380.225852
 20
1033.753523
 42
-0.087462
  0
VERTEX
  8
0
 10
379.189428
 20
1034.477835
 42
-0.314110
  0
VERTEX
  8
0
 10
379.137384
 20
1034.767691
 42
-0.000033
  0
VERTEX
  8
0
 10
388.138001
 20
1054.335733
 42
-0.000871
  0
VERTEX
  8
0
 10
398.143868
 20
1075.986107
 42
-0.000524
  0
VERTEX
  8
0
 10
410.088779
 20
1101.643906
 42
0.000067
  0
VERTEX
  8
0
 10
422.287697
 20
1127.784917
 42
0.000096
  0
VERTEX
  8
0
 10
433.107624
 20
1150.990710
 42
0.000052
  0
VERTEX
  8
0
 10
442.257702
 20
1170.630345
 42
0.001462
  0
VERTEX
  8
0
 10
444.624104
 20
1175.750000
 42
-0.005358
  0
VERTEX
  8
0
 10
445.935117
 20
1178.529264
 42
-0.008574
  0
VERTEX
  8
0
 10
447.120247
 20
1180.870312
 42
-0.003195
  0
VERTEX
  8
0
 10
448.173397
 20
1182.834522
 42
-0.274672
  0
VERTEX
  8
0
 10
448.451899
 20
1183.000000
 42
-0.108691
  0
VERTEX
  8
0
 10
448.843782
 20
1182.913794
 42
-0.000016
  0
VERTEX
  8
0
 10
470.330615
 20
1172.978892
 42
-0.000406
  0
VERTEX
  8
0
 10
494.096006
 20
1161.966080
 42
-0.000246
  0
SEQEND
  0
POLYLINE
  8
0
 66
1
 70
1
  0
VERTEX
  8
0
 10
2550.743365
 20
1108.593919
 42
-0.000648
  0
VERTEX
  8
0
 10
2563.901066
 20
1080.269443
 42
-0.001077
  0
VERTEX
  8
0
 10
2574.909805
 20
1056.355488
 42
-0.000050
  0
VERTEX
  8
0
 10
2584.785060
 20
1034.775910
 42
-0.313305
  0
VERTEX
  8
0
 10
2584.713863
 20
1034.380530
 42
-0.086849
  0
VERTEX
  8
0
 10
2584.319467
 20
1034.103624
 42
-0.000018
  0
VERTEX
  8
0
 10
2562.714163
 20
1023.963014
 42
-0.000389
  0
VERTEX
  8
0
 10
2538.771857
 20
1012.749266
 42
-0.000236
  0
VERTEX
  8
0
 10
2510.416249
 20
999.511627
 42
-0.000980
  0
VERTEX
  8
0
 10
2476.438787
 20
983.749989
 42
-0.003261
  0
VERTEX
  8
0
 10
2454.019996
 20
973.580441
 42
-0.000688
  0
VERTEX
  8
0
 10
2436.848128
 20
965.953923
 42
-0.389644
  0
VERTEX
  8
0
 10
2435.875713
 20
966.283211
 42
-0.016555
  0
VERTEX
  8
0
 10
2433.687590
 20
970.611343
 42
-0.000033
  0
VERTEX
  8
0
 10
2401.357715
 20
1040.201160
 42
-0.000012
  0
VERTEX
  8
0
 10
2368.414461
 20
1111.127997
 42
-0.046789
  0
VERTEX
  8
0
 10
2367.825424
 20
1112.786395
 42
-0.354643
  0
VERTEX
  8
0
 10
2368.232584
 20
1113.665277
 42
-0.000461
  0
VERTEX
  8
0
 10
2386.497695
 20
1122.588285
 42
-0.002896
  0
VERTEX
  8
0
 10
2409.229728
 20
1133.505056
 42
-0.001106
  0
VERTEX
  8
0
 10
2441.000000
 20
1148.450568
 42
-0.000685
  0
VERTEX
  8
0
 10
2469.247670
 20
1161.615597
 42
-0.001126
  0
VERTEX
  8
0
 10
2493.180972
 20
1172.664553
 42
-0.000082
  0
VERTEX
  8
0
 10
2514.698840
 20
1182.535395
 42
-0.168042
  0
VERTEX
  8
0
 10
2515.424584
 20
1182.605978
 42
-0.226014
  0
VERTEX
  8
0
 10
2515.965962
 20
1182.167666
 42
-0.000103
  0
VERTEX
  8
0
 10
2526.180867
 20
1160.773209
 42
-0.001412
  0
VERTEX
  8
0
 10
2537.489311
 20
1136.902636
 42
-0.000856
  0
SEQEND
  0
POLYLINE
  8
0
 66
1
 70
1
  0
VERTEX
  8
0
 10
256.417064
 20
1109.928002
 42
-0.000413
  0
VERTEX
  8
0
 10
284.493227
 20
1096.810396
 42
-0.000675
  0
VERTEX
  8
0
 10
308.259748
 20
1085.643255
 42
-0.000056
  0
VERTEX
  8
0
 10
329.565914
 20
1075.594090
 42
-0.082735
  0
VERTEX
  8
0
 10
330.275696
 20
1075.102306
 42
-0.319165
  0
VERTEX
  8
0
 10
330.571998
 20
1073.491292
 42
-0.000073
  0
VERTEX
  8
0
 10
296.525785
 20
1000.443900
 42
-0.000071
  0
VERTEX
  8
0
 10
262.444149
 20
927.375555
 42
-0.356390
  0
VERTEX
  8
0
 10
261.092085
 20
926.723258
 42
-0.050025
  0
VERTEX
  8
0
 10
259.870748
 20
927.148667
 42
-0.000007
  0
VERTEX
  8
0
 10
187.064187
 20
960.994291
 42
-0.000005
  0
VERTEX
  8
0
 10
114.147058
 20
994.893401
 42
-0.062258
  0
VERTEX
  8
0
 10
113.263694
 20
995.446660
 42
-0.343800
  0
VERTEX
  8
0
 10
113.123447
 20
996.060502
 42
-0.000012
  0
VERTEX
  8
0
 10
147.653799
 20
1069.850075
 42
-0.000012
  0
VERTEX
  8
0
 10
182.175997
 20
1143.612951
 42
-0.291086
  0
VERTEX
  8
0
 10
182.784499
 20
1144.000000
 42
-0.108754
  0
VERTEX
  8
0
 10
183.212838
 20
1143.905717
 42
-0.000019
  0
VERTEX
  8
0
 10
204.640787
 20
1133.991351
 42
-0.000446
  0
VERTEX
  8
0
 10
228.355491
 20
1122.992162
 42
-0.000270
  0
SEQEND
  0
POLYLINE
  8
0
 66
1
 70
1
  0
VERTEX
  8
0
 10
2816.555702
 20
1069.590642
 42
-0.000407
  0
VERTEX
  8
0
 10
2829.758725
 20
1041.240998
 42
-0.000678
  0
VERTEX
  8
0
 10
2840.830262
 20
1017.332698
 42
-0.000020
  0
VERTEX
  8
0
 10
2850.815468
 20
995.691167
 42
-0.318749
  0
VERTEX
  8
0
 10
2850.769407
 20
995.444887
 42
-0.083533
  0
VERTEX
  8
0
 10
2849.940506
 20
994.875256
 42
-0.000007
  0
VERTEX
  8
0
 10
2777.304438
 20
961.087008
 42
-0.000013
  0
VERTEX
  8
0
 10
2705.072077
 20
927.489936
 42
-0.043192
  0
VERTEX
  8
0
 10
2703.264584
 20
926.832187
 42
-0.363510
  0
VERTEX
  8
0
 10
2701.699479
 20
927.558794
 42
-0.000096
  0
VERTEX
  8
0
 10
2667.522185
 20
1000.412579
 42
-0.000100
  0
VERTEX
  8
0
 10
2633.388821
 20
1073.246972
 42
-0.325083
  0
VERTEX
  8
0
 10
2633.745550
 20
1075.096229
 42
-0.079208
  0
VERTEX
  8
0
 10
2635.927920
 20
1076.568639
 42
-0.000044
  0
VERTEX
  8
0
 10
2707.703685
 20
1109.953103
 42
-0.000021
  0
VERTEX
  8
0
 10
2780.099559
 20
1143.614550
 42
-0.181602
  0
VERTEX
  8
0
 10
2781.286295
 20
1143.704794
 42
-0.213913
  0
VERTEX
  8
0
 10
2781.749229
 20
1143.311006
 42
-0.000073
  0
VERTEX
  8
0
 10
2791.971030
 20
1121.839303
 42
-0.001168
  0
VERTEX
  8
0
 10
2803.277422
 20
1097.936621
 42
-0.000707
  0
SEQEND
  0
POLYLINE
  8
0
 66
1
 70
1
  0
VERTEX
  8
0
 10
750.338150
 20
1107.639626
 42
-0.000308
  0
VERTEX
  8
0
 10
778.641881
 20
1094.425512
 42
-0.000506
  0
VERTEX
  8
0
 10
802.562289
 20
1083.210349
 42
-0.000030
  0
VERTEX
  8
0
 10
824.094029
 20
1073.086912
 42
-0.086677
  0
VERTEX
  8
0
 10
824.606465
 20
1072.726868
 42
-0.314469
  0
VERTEX
  8
0
 10
824.766622
 20
1071.826525
 42
-0.000023
  0
VERTEX
  8
0
 10
791.124521
 20
999.116972
 42
-0.000065
  0
VERTEX
  8
0
 10
757.880856
 20
927.301456
 42
-0.084195
  0
VERTEX
  8
0
 10
756.133810
 20
924.756856
 42
-0.320065
  0
VERTEX
  8
0
 10
754.266544
 20
924.413937
 42
-0.000099
  0
VERTEX
  8
0
 10
681.422957
 20
958.538148
 42
-0.000095
  0
VERTEX
  8
0
 10
608.554426
 20
992.708678
 42
-0.362880
  0
VERTEX
  8
0
 10
607.828159
 20
994.267870
 42
-0.043800
  0
VERTEX
  8
0
 10
608.369037
 20
995.759620
 42
-0.000009
  0
VERTEX
  8
0
 10
642.216369
 20
1068.522636
 42
-0.000002
  0
VERTEX
  8
0
 10
676.332745
 20
1141.860100
 42
-0.291720
  0
VERTEX
  8
0
 10
676.552124
 20
1142.000000
 42
-0.109386
  0
VERTEX
  8
0
 10
676.607183
 20
1141.987809
 42
-0.000000
  0
VERTEX
  8
0
 10
698.255683
 20
1131.906640
 42
-0.000057
  0
VERTEX
  8
0
 10
722.066887
 20
1120.815043
 42
-0.000034
  0
SEQEND
  0
POLYLINE
  8
0
 66
1
 70
1
  0
VERTEX
  8
0
 10
2322.811639
 20
1066.500000
 42
-0.000293
  0
VERTEX
  8
0
 10
2335.510623
 20
1039.189129
 42
-0.000476
  0
VERTEX
  8
0
 10
2346.254829
 20
1015.989009
 42
-0.000048
  0
VERTEX
  8
0
 10
2355.844431
 20
995.224941
 42
-0.047004
  0
VERTEX
  8
0
 10
2356.187853
 20
994.249819
 42
-0.358395
  0
VERTEX
  8
0
 10
2355.426981
 20
992.648566
 42
-0.000100
  0
VERTEX
  8
0
 10
2282.611051
 20
958.480375
 42
-0.000103
  0
VERTEX
  8
0
 10
2209.810330
 20
924.355357
 42
-0.325974
  0
VERTEX
  8
0
 10
2207.935589
 20
924.719986
 42
-0.078596
  0
VERTEX
  8
0
 10
2206.465232
 20
926.908398
 42
-0.000044
  0
VERTEX
  8
0
 10
2172.991480
 20
999.009801
 42
-0.000014
  0
VERTEX
  8
0
 10
2139.160037
 20
1071.903745
 42
-0.314796
  0
VERTEX
  8
0
 10
2139.287081
 20
1072.620414
 42
-0.086815
  0
VERTEX
  8
0
 10
2139.656258
 20
1072.879651
 42
-0.000016
  0
VERTEX
  8
0
 10
2161.271307
 20
1083.028521
 42
-0.000364
  0
VERTEX
  8
0
 10
2185.211648
 20
1094.247033
 42
-0.000220
  0
VERTEX
  8
0
 10
2213.570422
 20
1107.495689
 42
-0.000423
  0
VERTEX
  8
0
 10
2261.965993
 20
1130.029351
 42
-0.007267
  0
VERTEX
  8
0
 10
2277.931394
 20
1137.166388
 42
-0.014101
  0
VERTEX
  8
0
 10
2286.496665
 20
1140.564142
 42
-0.378458
  0
VERTEX
  8
0
 10
2288.602492
 20
1139.737306
 42
-0.008984
  0
VERTEX
  8
0
 10
2289.472589
 20
1137.959213
 42
-0.000034
  0
VERTEX
  8
0
 10
2299.123774
 20
1117.300959
 42
-0.000178
  0
VERTEX
  8
0
 10
2310.054316
 20
1093.878405
 42
-0.000112
  0
SEQEND
  0
POLYLINE
  8
0
 66
1
 70
1
  0
VERTEX
  8
0
 10
1215.889364
 20
1040.500000
 42
-0.000752
  0
VERTEX
  8
0
 10
1243.902666
 20
1027.410971
 42
-0.001246
  0
VERTEX
  8
0
 10
1267.491713
 20
1016.274119
 42
-0.000070
  0
VERTEX
  8
0
 10
1288.692343
 20
1006.196545
 42
-0.278784
  0
VERTEX
  8
0
 10
1288.971362
 20
1005.773597
 42
-0.119926
  0
VERTEX
  8
0
 10
1288.568049
 20
1003.776902
 42
-0.000039
  0
VERTEX
  8
0
 10
1254.598428
 20
931.263624
 42
-0.000020
  0
VERTEX
  8
0
 10
1220.411962
 20
858.310177
 42
-0.279498
  0
VERTEX
  8
0
 10
1219.633501
 20
857.791824
 42
-0.121158
  0
VERTEX
  8
0
 10
1217.071424
 20
858.307915
 42
-0.000066
  0
VERTEX
  8
0
 10
1145.132735
 20
892.179411
 42
-0.000034
  0
VERTEX
  8
0
 10
1072.629777
 20
926.334412
 42
-0.290393
  0
VERTEX
  8
0
 10
1072.000000
 20
927.327324
 42
-0.110573
  0
VERTEX
  8
0
 10
1072.824258
 20
931.008984
 42
-0.000129
  0
VERTEX
  8
0
 10
1106.380719
 20
1002.147233
 42
-0.000056
  0
VERTEX
  8
0
 10
1140.404865
 20
1074.207668
 42
-0.353408
  0
VERTEX
  8
0
 10
1141.604569
 20
1074.787395
 42
-0.050784
  0
VERTEX
  8
0
 10
1142.564463
 20
1074.457792
 42
-0.000047
  0
VERTEX
  8
0
 10
1163.933694
 20
1064.596922
 42
-0.000491
  0
VERTEX
  8
0
 10
1187.792405
 20
1053.556125
 42
-0.000301
  0
SEQEND
  0
POLYLINE
  8
0
 66
1
 70
1
  0
VERTEX
  8
0
 10
1858.333161
 20
1000.751954
 42
0.000000
  0
VERTEX
  8
0
 10
1892.948869
 20
926.503908
 42
0.000000
  0
VERTEX
  8
0
 10
1888.224435
 20
924.379110
 42
0.003218
  0
VERTEX
  8
0
 10
1884.702628
 20
922.767859
 42
0.000050
  0
VERTEX
  8
0
 10
1864.619053
 20
913.420246
 42
0.000134
  0
VERTEX
  8
0
 10
1841.284835
 20
902.549214
 42
0.000089
  0
VERTEX
  8
0
 10
1814.500000
 20
890.056097
 42
-0.000219
  0
VERTEX
  8
0
 10
1787.986606
 20
877.698035
 42
-0.000360
  0
VERTEX
  8
0
 10
1765.532141
 20
867.263543
 42
-0.000024
  0
VERTEX
  8
0
 10
1745.325773
 20
857.892622
 42
-0.053949
  0
VERTEX
  8
0
 10
1744.694522
 20
857.678941
 42
-0.350850
  0
VERTEX
  8
0
 10
1743.907181
 20
858.065367
 42
-0.000024
  0
VERTEX
  8
0
 10
1709.559824
 20
931.094607
 42
-0.000049
  0
VERTEX
  8
0
 10
1675.473867
 20
1003.595546
 42
-0.121880
  0
VERTEX
  8
0
 10
1675.031372
 20
1005.814686
 42
-0.272323
  0
VERTEX
  8
0
 10
1675.285451
 20
1006.204620
 42
-0.000855
  0
VERTEX
  8
0
 10
1680.767657
 20
1008.919661
 42
-0.004351
  0
VERTEX
  8
0
 10
1687.054910
 20
1011.952294
 42
-0.002668
  0
VERTEX
  8
0
 10
1694.515100
 20
1015.422458
 42
0.001307
  0
VERTEX
  8
0
 10
1705.324390
 20
1020.414747
 42
0.000280
  0
VERTEX
  8
0
 10
1724.047169
 20
1029.134140
 42
0.000293
  0
VERTEX
  8
0
 10
1745.722763
 20
1039.258949
 42
0.000279
  0
VERTEX
  8
0
 10
1767.733728
 20
1049.571112
 42
-0.000598
  0
VERTEX
  8
0
 10
1788.426867
 20
1059.249808
 42
-0.000971
  0
VERTEX
  8
0
 10
1806.031846
 20
1067.416883
 42
-0.000112
  0
VERTEX
  8
0
 10
1821.757436
 20
1074.670768
 42
-0.085411
  0
VERTEX
  8
0
 10
1822.608727
 20
1074.898654
 42
-0.312705
  0
VERTEX
  8
0
 10
1823.252998
 20
1074.534043
 42
-0.000169
  0
VERTEX
  8
0
 10
1833.560129
 20
1053.159866
 42
-0.001984
  0
VERTEX
  8
0
 10
1844.980627
 20
1029.213839
 42
-0.001198
  0
SEQEND
  0
POLYLINE
  8
0
 66
1
 70
1
  0
VERTEX
  8
0
 10
929.750000
 20
958.819596
 42
-0.001040
  0
VERTEX
  8
0
 10
957.836341
 20
945.640901
 42
-0.001721
  0
VERTEX
  8
0
 10
981.482813
 20
934.385733
 42
-0.000132
  0
VERTEX
  8
0
 10
1002.638222
 20
924.219913
 42
-0.288253
  0
VERTEX
  8
0
 10
1003.000000
 20
923.644520
 42
-0.108095
  0
VERTEX
  8
0
 10
1002.832375
 20
922.878221
 42
-0.000060
  0
VERTEX
  8
0
 10
992.957785
 20
901.394232
 42
-0.000794
  0
VERTEX
  8
0
 10
981.921098
 20
877.489587
 42
-0.000484
  0
VERTEX
  8
0
 10
968.813735
 20
849.289614
 42
-0.001088
  0
VERTEX
  8
0
 10
953.770623
 20
817.189374
 42
-0.002982
  0
VERTEX
  8
0
 10
942.961451
 20
794.604106
 42
-0.000509
  0
VERTEX
  8
0
 10
934.217046
 20
776.655964
 42
-0.345332
  0
VERTEX
  8
0
 10
933.302374
 20
776.212547
 42
-0.054632
  0
VERTEX
  8
0
 10
932.272856
 20
776.556893
 42
-0.000058
  0
VERTEX
  8
0
 10
910.919343
 20
786.403061
 42
-0.000565
  0
VERTEX
  8
0
 10
887.053058
 20
797.443996
 42
-0.000347
  0
VERTEX
  8
0
 10
858.965596
 20
810.500000
 42
-0.000910
  0
VERTEX
  8
0
 10
823.511278
 20
827.088904
 42
-0.003777
  0
VERTEX
  8
0
 10
802.206204
 20
837.301943
 42
-0.001122
  0
VERTEX
  8
0
 10
786.860575
 20
844.843958
 42
-0.351785
  0
VERTEX
  8
0
 10
786.323068
 20
846.000000
 42
-0.049538
  0
VERTEX
  8
0
 10
788.239452
 20
851.412320
 42
-0.000139
  0
VERTEX
  8
0
 10
820.941728
 20
920.952529
 42
-0.000031
  0
VERTEX
  8
0
 10
854.571106
 20
992.401143
 42
-0.288231
  0
VERTEX
  8
0
 10
855.500000
 20
992.995969
 42
-0.110305
  0
VERTEX
  8
0
 10
856.273529
 20
992.829961
 42
-0.000063
  0
VERTEX
  8
0
 10
877.723437
 20
982.960091
 42
-0.000818
  0
VERTEX
  8
0
 10
901.593263
 20
971.925748
 42
-0.000499
  0
SEQEND
  0
POLYLINE
  8
0
 66
1
 70
1
  0
VERTEX
  8
0
 10
2143.367406
 20
920.437398
 42
-0.000372
  0
VERTEX
  8
0
 10
2156.376989
 20
892.497203
 42
-0.000602
  0
VERTEX
  8
0
 10
2167.403743
 20
868.694387
 42
-0.000080
  0
VERTEX
  8
0
 10
2177.189469
 20
847.494803
 42
-0.044947
  0
VERTEX
  8
0
 10
2177.655575
 20
846.187398
 42
-0.352910
  0
VERTEX
  8
0
 10
2177.022449
 20
844.791820
 42
-0.002178
  0
VERTEX
  8
0
 10
2163.761048
 20
838.188208
 42
-0.004550
  0
VERTEX
  8
0
 10
2143.766368
 20
828.565267
 42
-0.000774
  0
VERTEX
  8
0
 10
2105.482983
 20
810.640010
 42
-0.000369
  0
VERTEX
  8
0
 10
2077.524349
 20
797.626933
 42
-0.000596
  0
VERTEX
  8
0
 10
2053.703662
 20
786.595694
 42
-0.000080
  0
VERTEX
  8
0
 10
2032.491849
 20
776.807390
 42
-0.044129
  0
VERTEX
  8
0
 10
2031.173389
 20
776.335091
 42
-0.353679
  0
VERTEX
  8
0
 10
2029.758368
 20
776.974004
 42
-0.002242
  0
VERTEX
  8
0
 10
2023.150468
 20
790.234548
 42
-0.004564
  0
VERTEX
  8
0
 10
2013.470642
 20
810.340735
 42
-0.000756
  0
VERTEX
  8
0
 10
1995.235991
 20
849.270683
 42
-0.000474
  0
VERTEX
  8
0
 10
1982.109533
 20
877.475360
 42
-0.000778
  0
VERTEX
  8
0
 10
1971.056822
 20
901.380512
 42
-0.000058
  0
VERTEX
  8
0
 10
1961.164388
 20
922.870413
 42
-0.108244
  0
VERTEX
  8
0
 10
1961.000000
 20
923.620858
 42
-0.290571
  0
VERTEX
  8
0
 10
1961.625667
 20
924.606573
 42
-0.000034
  0
VERTEX
  8
0
 10
2033.977281
 20
958.632271
 42
-0.000075
  0
VERTEX
  8
0
 10
2105.606770
 20
992.299284
 42
-0.104934
  0
VERTEX
  8
0
 10
2108.507415
 20
992.978822
 42
-0.293867
  0
VERTEX
  8
0
 10
2109.092571
 20
992.619558
 42
-0.000141
  0
VERTEX
  8
0
 10
2119.163096
 20
971.678515
 42
-0.001785
  0
VERTEX
  8
0
 10
2130.314819
 20
948.258671
 42
-0.001079
  0
SEQEND
  0
POLYLINE
  8
0
 66
1
 70
1
  0
VERTEX
  8
0
 10
428.415549
 20
945.085259
 42
-0.000208
  0
VERTEX
  8
0
 10
456.400057
 20
931.990240
 42
-0.000344
  0
VERTEX
  8
0
 10
480.020904
 20
920.905375
 42
-0.000014
  0
VERTEX
  8
0
 10
501.356344
 20
910.874392
 42
-0.086687
  0
VERTEX
  8
0
 10
501.701306
 20
910.632027
 42
-0.314781
  0
VERTEX
  8
0
 10
501.821837
 20
909.952208
 42
-0.000013
  0
VERTEX
  8
0
 10
467.973920
 20
837.011525
 42
-0.000040
  0
VERTEX
  8
0
 10
434.475657
 20
764.844261
 42
-0.077124
  0
VERTEX
  8
0
 10
433.060516
 20
762.724304
 42
-0.327579
  0
VERTEX
  8
0
 10
431.199663
 20
762.356522
 42
-0.000102
  0
VERTEX
  8
0
 10
358.391122
 20
796.473591
 42
-0.000100
  0
VERTEX
  8
0
 10
285.572626
 20
830.631186
 42
-0.353420
  0
VERTEX
  8
0
 10
284.791308
 20
832.238142
 42
-0.053532
  0
VERTEX
  8
0
 10
286.837485
 20
838.137874
 42
-0.000178
  0
VERTEX
  8
0
 10
319.666365
 20
907.661000
 42
-0.000038
  0
VERTEX
  8
0
 10
353.513337
 20
979.259985
 42
-0.402542
  0
VERTEX
  8
0
 10
354.447169
 20
979.615469
 42
-0.008768
  0
VERTEX
  8
0
 10
355.291760
 20
979.239115
 42
-0.000007
  0
VERTEX
  8
0
 10
376.609673
 20
969.287755
 42
-0.000077
  0
VERTEX
  8
0
 10
400.383995
 20
958.184855
 42
-0.000047
  0
SEQEND
  0
POLYLINE
  8
0
 66
1
 70
1
  0
VERTEX
  8
0
 10
2645.490594
 20
905.440496
 42
-0.001083
  0
VERTEX
  8
0
 10
2658.656506
 20
877.066236
 42
-0.001797
  0
VERTEX
  8
0
 10
2669.622649
 20
853.071769
 42
-0.000136
  0
VERTEX
  8
0
 10
2679.364492
 20
831.536307
 42
-0.326426
  0
VERTEX
  8
0
 10
2679.232212
 20
830.904847
 42
-0.075564
  0
VERTEX
  8
0
 10
2675.770665
 20
828.624981
 42
-0.000106
  0
VERTEX
  8
0
 10
2604.528635
 20
795.834412
 42
-0.000033
  0
VERTEX
  8
0
 10
2532.026400
 20
762.488324
 42
-0.330406
  0
VERTEX
  8
0
 10
2530.981928
 20
762.707902
 42
-0.072698
  0
VERTEX
  8
0
 10
2529.620505
 20
764.784893
 42
-0.000036
  0
VERTEX
  8
0
 10
2496.065021
 20
836.994830
 42
-0.000011
  0
VERTEX
  8
0
 10
2462.158514
 20
909.977887
 42
-0.314903
  0
VERTEX
  8
0
 10
2462.269103
 20
910.602436
 42
-0.087839
  0
VERTEX
  8
0
 10
2463.438069
 20
911.419744
 42
-0.000014
  0
VERTEX
  8
0
 10
2536.675016
 20
945.444230
 42
-0.000005
  0
VERTEX
  8
0
 10
2610.323193
 20
979.656388
 42
-0.314896
  0
VERTEX
  8
0
 10
2610.753070
 20
979.580264
 42
-0.087020
  0
VERTEX
  8
0
 10
2610.925995
 20
979.333790
 42
-0.000007
  0
VERTEX
  8
0
 10
2621.065992
 20
957.692933
 42
-0.000243
  0
VERTEX
  8
0
 10
2632.253164
 20
933.786123
 42
-0.000146
  0
SEQEND
  0
POLYLINE
  8
0
 66
1
 70
1
  0
VERTEX
  8
0
 10
2945.282119
 20
976.638016
 42
-0.052404
  0
VERTEX
  8
0
 10
2948.292116
 20
974.973642
 42
-0.076636
  0
VERTEX
  8
0
 10
2950.477394
 20
972.885004
 42
-0.077046
  0
VERTEX
  8
0
 10
2951.924407
 20
970.244078
 42
-0.053582
  0
VERTEX
  8
0
 10
2952.735505
 20
966.935294
 42
-0.138395
  0
VERTEX
  8
0
 10
2951.763326
 20
960.120999
 42
-0.146838
  0
VERTEX
  8
0
 10
2947.378951
 20
955.002997
 42
-0.145697
  0
VERTEX
  8
0
 10
2940.871261
 20
953.121107
 42
-0.135737
  0
VERTEX
  8
0
 10
2934.189824
 20
955.025635
 42
-0.075878
  0
VERTEX
  8
0
 10
2931.903350
 20
956.947499
 42
-0.049095
  0
VERTEX
  8
0
 10
2929.884713
 20
959.761697
 42
-0.049398
  0
VERTEX
  8
0
 10
2928.469428
 20
962.885347
 42
-0.081858
  0
VERTEX
  8
0
 10
2928.000000
 20
965.733483
 42
-0.101485
  0
VERTEX
  8
0
 10
2928.544478
 20
968.388413
 42
-0.047584
  0
VERTEX
  8
0
 10
2930.232028
 20
971.480018
 42
-0.046831
  0
VERTEX
  8
0
 10
2932.555190
 20
974.304355
 42
-0.074284
  0
VERTEX
  8
0
 10
2935.061664
 20
976.172735
 42
-0.033295
  0
VERTEX
  8
0
 10
2937.861274
 20
977.442167
 42
-0.078573
  0
VERTEX
  8
0
 10
2940.100200
 20
977.901421
 42
-0.078483
  0
VERTEX
  8
0
 10
2942.373167
 20
977.647731
 42
-0.033161
  0
SEQEND
  0
POLYLINE
  8
0
 66
1
 70
1
  0
VERTEX
  8
0
 10
35.793567
 20
969.520248
 42
-0.090185
  0
VERTEX
  8
0
 10
39.280434
 20
965.307551
 42
-0.111884
  0
VERTEX
  8
0
 10
40.725511
 20
960.441614
 42
-0.114821
  0
VERTEX
  8
0
 10
39.917867
 20
955.524558
 42
-0.098809
  0
VERTEX
  8
0
 10
37.004291
 20
951.158137
 42
-0.150128
  0
VERTEX
  8
0
 10
30.387188
 20
947.650997
 42
-0.159480
  0
VERTEX
  8
0
 10
23.119089
 20
948.578743
 42
-0.159541
  0
VERTEX
  8
0
 10
17.807821
 20
953.623530
 42
-0.150248
  0
VERTEX
  8
0
 10
16.346663
 20
960.965651
 42
-0.134239
  0
VERTEX
  8
0
 10
18.676098
 20
966.994621
 42
-0.130938
  0
VERTEX
  8
0
 10
23.767486
 20
971.068340
 42
-0.134752
  0
VERTEX
  8
0
 10
30.091160
 20
972.001631
 42
-0.145551
  0
SEQEND
  0
POLYLINE
  8
0
 66
1
 70
1
  0
VERTEX
  8
0
 10
656.978287
 20
903.524821
 42
-0.001158
  0
VERTEX
  8
0
 10
687.784891
 20
889.116160
 42
-0.002751
  0
VERTEX
  8
0
 10
710.616807
 20
878.219028
 42
-0.000391
  0
VERTEX
  8
0
 10
729.376276
 20
869.120408
 42
-0.347093
  0
VERTEX
  8
0
 10
729.779959
 20
868.285275
 42
-0.053575
  0
VERTEX
  8
0
 10
729.448503
 20
867.301426
 42
-0.000052
  0
VERTEX
  8
0
 10
719.594738
 20
845.934717
 42
-0.000529
  0
VERTEX
  8
0
 10
708.555550
 20
822.070628
 42
-0.000325
  0
VERTEX
  8
0
 10
695.500000
 20
793.973763
 42
-0.000853
  0
VERTEX
  8
0
 10
678.359766
 20
757.312471
 42
-0.004059
  0
VERTEX
  8
0
 10
668.353400
 20
736.446509
 42
-0.001449
  0
VERTEX
  8
0
 10
661.177242
 20
721.895587
 42
-0.352835
  0
VERTEX
  8
0
 10
659.931453
 20
721.322238
 42
-0.048095
  0
VERTEX
  8
0
 10
654.287611
 20
723.338913
 42
-0.000148
  0
VERTEX
  8
0
 10
584.944212
 20
755.950191
 42
-0.000032
  0
VERTEX
  8
0
 10
513.596299
 20
789.535489
 42
-0.290474
  0
VERTEX
  8
0
 10
513.000000
 20
790.475309
 42
-0.108135
  0
VERTEX
  8
0
 10
513.171152
 20
791.257441
 42
-0.000063
  0
VERTEX
  8
0
 10
523.040105
 20
812.720087
 42
-0.000811
  0
VERTEX
  8
0
 10
534.074502
 20
836.607159
 42
-0.000495
  0
VERTEX
  8
0
 10
547.179081
 20
864.782128
 42
-0.001146
  0
VERTEX
  8
0
 10
561.746224
 20
895.834786
 42
-0.002774
  0
VERTEX
  8
0
 10
572.686745
 20
918.688912
 42
-0.000403
  0
VERTEX
  8
0
 10
581.782902
 20
937.384319
 42
-0.348379
  0
VERTEX
  8
0
 10
582.627410
 20
937.788836
 42
-0.052015
  0
VERTEX
  8
0
 10
583.615651
 20
937.452886
 42
-0.000051
  0
VERTEX
  8
0
 10
604.991545
 20
927.604637
 42
-0.000517
  0
VERTEX
  8
0
 10
628.867874
 20
916.571483
 42
-0.000317
  0
SEQEND
  0
POLYLINE
  8
0
 66
1
 70
1
  0
VERTEX
  8
0
 10
2417.250601
 20
863.972110
 42
0.000000
  0
VERTEX
  8
0
 10
2451.810985
 20
789.944220
 42
0.000000
  0
VERTEX
  8
0
 10
2448.155493
 20
788.103301
 42
-0.007955
  0
VERTEX
  8
0
 10
2434.926454
 20
781.702899
 42
-0.000187
  0
VERTEX
  8
0
 10
2372.378058
 20
752.688364
 42
-0.000014
  0
VERTEX
  8
0
 10
2304.557384
 20
721.261334
 42
-0.117530
  0
VERTEX
  8
0
 10
2303.422860
 20
721.031457
 42
-0.281449
  0
VERTEX
  8
0
 10
2302.567174
 20
721.595478
 42
-0.000025
  0
VERTEX
  8
0
 10
2268.784549
 20
793.491585
 42
-0.000101
  0
VERTEX
  8
0
 10
2235.729994
 20
863.884510
 42
-0.056162
  0
VERTEX
  8
0
 10
2234.236996
 20
868.292123
 42
-0.349072
  0
VERTEX
  8
0
 10
2234.807660
 20
869.451792
 42
-0.000052
  0
VERTEX
  8
0
 10
2306.778821
 20
903.483532
 42
-0.000131
  0
VERTEX
  8
0
 10
2377.706669
 20
936.990037
 42
-0.099614
  0
VERTEX
  8
0
 10
2381.595109
 20
937.951875
 42
-0.299762
  0
VERTEX
  8
0
 10
2382.231058
 20
937.571912
 42
-0.000161
  0
VERTEX
  8
0
 10
2392.520642
 20
916.240170
 42
-0.001922
  0
VERTEX
  8
0
 10
2403.920322
 20
892.353262
 42
-0.001161
  0
SEQEND
  0
POLYLINE
  8
0
 66
1
 70
1
  0
VERTEX
  8
0
 10
1120.858358
 20
837.199374
 42
-0.000924
  0
VERTEX
  8
0
 10
1148.632286
 20
824.201749
 42
-0.001517
  0
VERTEX
  8
0
 10
1172.087457
 20
813.085331
 42
-0.000136
  0
VERTEX
  8
0
 10
1193.052646
 20
803.064039
 42
-0.187878
  0
VERTEX
  8
0
 10
1193.645683
 20
802.431539
 42
-0.206090
  0
VERTEX
  8
0
 10
1193.618292
 20
801.323043
 42
-0.000021
  0
VERTEX
  8
0
 10
1160.405217
 20
729.139327
 42
-0.000092
  0
VERTEX
  8
0
 10
1127.968451
 20
658.684656
 42
-0.041359
  0
VERTEX
  8
0
 10
1125.432349
 20
654.196288
 42
-0.366521
  0
VERTEX
  8
0
 10
1125.211010
 20
654.134750
 42
-0.000020
  0
VERTEX
  8
0
 10
1103.589308
 20
664.090080
 42
-0.000694
  0
VERTEX
  8
0
 10
1079.700403
 20
675.130689
 42
-0.000417
  0
VERTEX
  8
0
 10
1051.362955
 20
688.303771
 42
-0.001025
  0
VERTEX
  8
0
 10
1017.891007
 20
703.981231
 42
-0.003196
  0
VERTEX
  8
0
 10
995.442480
 20
714.727591
 42
-0.000695
  0
VERTEX
  8
0
 10
978.177620
 20
723.158246
 42
-0.286242
  0
VERTEX
  8
0
 10
977.500000
 20
724.244912
 42
-0.107151
  0
VERTEX
  8
0
 10
977.754349
 20
725.418152
 42
-0.000142
  0
VERTEX
  8
0
 10
987.487500
 20
746.795158
 42
-0.001218
  0
VERTEX
  8
0
 10
998.464793
 20
770.731844
 42
-0.000749
  0
VERTEX
  8
0
 10
1011.500000
 20
798.863272
 42
-0.000853
  0
VERTEX
  8
0
 10
1028.610943
 20
835.482487
 42
-0.004044
  0
VERTEX
  8
0
 10
1038.615458
 20
856.357693
 42
-0.001414
  0
VERTEX
  8
0
 10
1045.799292
 20
870.936851
 42
-0.378598
  0
VERTEX
  8
0
 10
1047.000000
 20
871.425218
 42
-0.024067
  0
VERTEX
  8
0
 10
1048.179695
 20
870.946257
 42
-0.000036
  0
VERTEX
  8
0
 10
1069.314643
 20
861.154208
 42
-0.000296
  0
VERTEX
  8
0
 10
1093.009591
 20
850.156950
 42
-0.000183
  0
SEQEND
  0
POLYLINE
  8
0
 66
1
 70
1
  0
VERTEX
  8
0
 10
1947.937614
 20
808.729765
 42
0.000044
  0
VERTEX
  8
0
 10
1959.592336
 20
783.702022
 42
0.000057
  0
VERTEX
  8
0
 10
1970.258899
 20
760.808341
 42
0.000042
  0
VERTEX
  8
0
 10
1979.204316
 20
741.618696
 42
0.000530
  0
VERTEX
  8
0
 10
1982.587041
 20
734.383738
 42
0.000000
  0
VERTEX
  8
0
 10
1987.798854
 20
723.267475
 42
0.000000
  0
VERTEX
  8
0
 10
1913.661476
 20
688.671688
 42
-0.001139
  0
VERTEX
  8
0
 10
1885.180880
 20
675.460294
 42
-0.001887
  0
VERTEX
  8
0
 10
1861.082129
 20
664.458239
 42
-0.000153
  0
VERTEX
  8
0
 10
1839.469372
 20
654.697486
 42
-0.311884
  0
VERTEX
  8
0
 10
1838.775759
 20
654.824241
 42
-0.087813
  0
VERTEX
  8
0
 10
1837.223325
 20
657.044392
 42
-0.000052
  0
VERTEX
  8
0
 10
1803.917146
 20
728.730346
 42
-0.000026
  0
VERTEX
  8
0
 10
1770.343172
 20
801.022224
 42
-0.191408
  0
VERTEX
  8
0
 10
1770.270297
 20
802.310892
 42
-0.204963
  0
VERTEX
  8
0
 10
1770.949704
 20
803.076097
 42
-0.000017
  0
VERTEX
  8
0
 10
1843.646106
 20
837.332135
 42
-0.000036
  0
VERTEX
  8
0
 10
1915.827896
 20
871.336293
 42
-0.089516
  0
VERTEX
  8
0
 10
1918.000000
 20
871.917901
 42
-0.312412
  0
VERTEX
  8
0
 10
1918.291899
 20
871.749784
 42
-0.000048
  0
VERTEX
  8
0
 10
1927.000424
 20
853.373558
 42
-0.001051
  0
VERTEX
  8
0
 10
1936.614070
 20
832.971689
 42
-0.000632
  0
SEQEND
  0
POLYLINE
  8
0
 66
1
 70
1
  0
VERTEX
  8
0
 10
767.500000
 20
591.512012
 42
-0.000106
  0
VERTEX
  8
0
 10
792.825536
 20
579.695645
 42
-0.000176
  0
VERTEX
  8
0
 10
814.189631
 20
569.712955
 42
-0.000005
  0
VERTEX
  8
0
 10
833.529390
 20
560.667653
 42
-0.061268
  0
VERTEX
  8
0
 10
833.762574
 20
560.521500
 42
-0.343659
  0
VERTEX
  8
0
 10
833.881902
 20
560.003733
 42
-0.000008
  0
VERTEX
  8
0
 10
799.858396
 20
486.887553
 42
-0.000028
  0
VERTEX
  8
0
 10
766.149227
 20
414.460727
 42
-0.074066
  0
VERTEX
  8
0
 10
764.940252
 20
412.629547
 42
-0.328843
  0
VERTEX
  8
0
 10
763.774293
 20
412.388332
 42
-0.000041
  0
VERTEX
  8
0
 10
691.386835
 20
445.717128
 42
-0.000120
  0
VERTEX
  8
0
 10
620.213086
 20
478.514874
 42
-0.083426
  0
VERTEX
  8
0
 10
616.759651
 20
480.869977
 42
-0.317625
  0
VERTEX
  8
0
 10
616.630905
 20
481.536827
 42
-0.000145
  0
VERTEX
  8
0
 10
626.400609
 20
503.142713
 42
-0.001845
  0
VERTEX
  8
0
 10
637.405832
 20
527.225252
 42
-0.001113
  0
VERTEX
  8
0
 10
650.619572
 20
555.694023
 42
0.000000
  0
VERTEX
  8
0
 10
685.219841
 20
629.807348
 42
0.000000
  0
VERTEX
  8
0
 10
693.359921
 20
626.048278
 42
-0.000793
  0
VERTEX
  8
0
 10
698.999201
 20
623.433210
 42
-0.000035
  0
VERTEX
  8
0
 10
718.496352
 20
614.352634
 42
-0.000059
  0
VERTEX
  8
0
 10
741.623874
 20
603.575918
 42
-0.000043
  0
SEQEND
  0
POLYLINE
  8
0
 66
1
 70
1
  0
VERTEX
  8
0
 10
2314.662356
 20
553.044151
 42
-0.001203
  0
VERTEX
  8
0
 10
2327.385862
 20
525.590859
 42
-0.001992
  0
VERTEX
  8
0
 10
2337.975084
 20
502.354737
 42
-0.000170
  0
VERTEX
  8
0
 10
2347.355943
 20
481.532027
 42
-0.311621
  0
VERTEX
  8
0
 10
2347.226699
 20
480.826699
 42
-0.087762
  0
VERTEX
  8
0
 10
2345.083934
 20
479.328053
 42
-0.000048
  0
VERTEX
  8
0
 10
2273.308186
 20
445.961842
 42
-0.000024
  0
VERTEX
  8
0
 10
2200.946684
 20
412.336086
 42
-0.191406
  0
VERTEX
  8
0
 10
2199.704019
 20
412.265530
 42
-0.206386
  0
VERTEX
  8
0
 10
2198.385130
 20
413.442451
 42
-0.000052
  0
VERTEX
  8
0
 10
2164.410076
 20
486.544866
 42
-0.000038
  0
VERTEX
  8
0
 10
2130.343424
 20
559.878797
 42
-0.441342
  0
VERTEX
  8
0
 10
2130.710508
 20
560.755681
 42
0.023200
  0
VERTEX
  8
0
 10
2131.340357
 20
561.014193
 42
0.000010
  0
VERTEX
  8
0
 10
2152.858712
 20
571.036488
 42
0.000149
  0
VERTEX
  8
0
 10
2176.762326
 20
582.178948
 42
0.000091
  0
VERTEX
  8
0
 10
2205.000000
 20
595.358158
 42
0.000000
  0
VERTEX
  8
0
 10
2278.500000
 20
629.678626
 42
0.000000
  0
VERTEX
  8
0
 10
2279.918205
 20
627.089313
 42
-0.015512
  0
VERTEX
  8
0
 10
2280.962891
 20
625.033043
 42
-0.000079
  0
VERTEX
  8
0
 10
2290.709308
 20
604.270455
 42
-0.000357
  0
VERTEX
  8
0
 10
2301.785457
 20
580.621569
 42
-0.000226
  0
SEQEND
  0
POLYLINE
  8
0
 66
1
 70
1
  0
VERTEX
  8
0
 10
988.000000
 20
463.235681
 42
-0.001005
  0
VERTEX
  8
0
 10
1013.101667
 20
445.571198
 42
-0.001665
  0
VERTEX
  8
0
 10
1034.205467
 20
430.550941
 42
-0.000122
  0
VERTEX
  8
0
 10
1053.081930
 20
417.014055
 42
-0.294452
  0
VERTEX
  8
0
 10
1053.316483
 20
416.419405
 42
-0.104323
  0
VERTEX
  8
0
 10
1052.200529
 20
413.815639
 42
-0.000067
  0
VERTEX
  8
0
 10
1006.620202
 20
349.006700
 42
-0.000033
  0
VERTEX
  8
0
 10
960.612967
 20
283.618590
 42
-0.252672
  0
VERTEX
  8
0
 10
959.500000
 20
283.063553
 42
-0.146832
  0
VERTEX
  8
0
 10
956.712272
 20
283.999636
 42
-0.000104
  0
VERTEX
  8
0
 10
892.231559
 20
329.620093
 42
-0.000067
  0
VERTEX
  8
0
 10
827.342303
 20
375.562956
 42
-0.262241
  0
VERTEX
  8
0
 10
826.600318
 20
377.132337
 42
-0.133408
  0
VERTEX
  8
0
 10
826.961468
 20
378.164648
 42
-0.000147
  0
VERTEX
  8
0
 10
840.288370
 20
397.557798
 42
-0.001368
  0
VERTEX
  8
0
 10
855.276963
 20
419.228021
 42
-0.000839
  0
VERTEX
  8
0
 10
873.057070
 20
444.693107
 42
-0.000818
  0
VERTEX
  8
0
 10
897.313113
 20
479.188974
 42
-0.004604
  0
VERTEX
  8
0
 10
910.475127
 20
497.482502
 42
-0.002120
  0
VERTEX
  8
0
 10
919.502010
 20
509.679315
 42
-0.375536
  0
VERTEX
  8
0
 10
920.956752
 20
509.990809
 42
-0.025316
  0
VERTEX
  8
0
 10
922.152489
 20
509.244198
 42
-0.000046
  0
VERTEX
  8
0
 10
941.287296
 20
495.902460
 42
-0.000345
  0
VERTEX
  8
0
 10
962.777927
 20
480.893105
 42
-0.000214
  0
SEQEND
  0
POLYLINE
  8
0
 66
1
 70
1
  0
VERTEX
  8
0
 10
2091.510888
 20
444.000000
 42
0.000077
  0
VERTEX
  8
0
 10
2109.112536
 20
418.815122
 42
0.000126
  0
VERTEX
  8
0
 10
2124.061530
 20
397.444272
 42
0.000012
  0
VERTEX
  8
0
 10
2137.446747
 20
378.320261
 42
0.012721
  0
VERTEX
  8
0
 10
2138.059101
 20
377.491138
 42
-0.427812
  0
VERTEX
  8
0
 10
2137.876649
 20
376.258262
 42
-0.000063
  0
VERTEX
  8
0
 10
2072.244124
 20
329.871773
 42
-0.000102
  0
VERTEX
  8
0
 10
2007.031736
 20
283.814549
 42
-0.166635
  0
VERTEX
  8
0
 10
2004.384608
 20
283.040506
 42
-0.231486
  0
VERTEX
  8
0
 10
2003.563772
 20
283.489696
 42
-0.000053
  0
VERTEX
  8
0
 10
1977.642242
 20
320.184528
 42
-0.001028
  0
VERTEX
  8
0
 10
1949.100421
 20
360.774700
 42
-0.000637
  0
VERTEX
  8
0
 10
1915.727495
 20
408.572863
 42
0.000000
  0
VERTEX
  8
0
 10
1909.954991
 20
416.862970
 42
0.000000
  0
VERTEX
  8
0
 10
1977.182007
 20
463.926973
 42
-0.001136
  0
VERTEX
  8
0
 10
2003.007988
 20
481.919844
 42
-0.001890
  0
VERTEX
  8
0
 10
2024.857781
 20
496.946938
 42
-0.000145
  0
VERTEX
  8
0
 10
2044.471564
 20
510.318959
 42
-0.375567
  0
VERTEX
  8
0
 10
2045.078618
 20
510.245488
 42
-0.030111
  0
VERTEX
  8
0
 10
2045.583023
 20
509.610924
 42
-0.000018
  0
VERTEX
  8
0
 10
2058.994305
 20
490.478362
 42
-0.000234
  0
VERTEX
  8
0
 10
2073.917038
 20
469.166710
 42
-0.000143
  0
SEQEND
  0
POLYLINE
  8
0
 66
1
 70
1
  0
VERTEX
  8
0
 10
2443.079550
 20
458.293937
 42
-0.079668
  0
VERTEX
  8
0
 10
2445.381455
 20
456.384149
 42
-0.056876
  0
VERTEX
  8
0
 10
2447.290737
 20
453.626638
 42
-0.055672
  0
VERTEX
  8
0
 10
2448.567476
 20
450.436976
 42
-0.067480
  0
VERTEX
  8
0
 10
2449.000000
 20
447.246754
 42
-0.130182
  0
VERTEX
  8
0
 10
2447.727472
 20
442.442104
 42
-0.099664
  0
VERTEX
  8
0
 10
2444.144003
 20
438.327315
 42
-0.097232
  0
VERTEX
  8
0
 10
2439.159159
 20
435.846516
 42
-0.116858
  0
VERTEX
  8
0
 10
2433.938364
 20
435.662327
 42
-0.122214
  0
VERTEX
  8
0
 10
2429.399269
 20
437.802666
 42
-0.097309
  0
VERTEX
  8
0
 10
2425.929075
 20
441.982057
 42
-0.097966
  0
VERTEX
  8
0
 10
2424.313872
 20
447.137085
 42
-0.125916
  0
VERTEX
  8
0
 10
2425.015290
 20
452.036913
 42
-0.104860
  0
VERTEX
  8
0
 10
2428.090832
 20
456.516482
 42
-0.107092
  0
VERTEX
  8
0
 10
2432.698541
 20
459.321327
 42
-0.108274
  0
VERTEX
  8
0
 10
2438.011325
 20
459.949729
 42
-0.109330
  0
SEQEND
  0
POLYLINE
  8
0
 66
1
 70
1
  0
VERTEX
  8
0
 10
544.749399
 20
441.576390
 42
-0.141973
  0
VERTEX
  8
0
 10
547.880367
 20
435.253101
 42
-0.145961
  0
VERTEX
  8
0
 10
547.098295
 20
428.310621
 42
-0.147845
  0
VERTEX
  8
0
 10
542.659029
 20
422.993003
 42
-0.146438
  0
VERTEX
  8
0
 10
536.000000
 20
421.000000
 42
-0.145696
  0
VERTEX
  8
0
 10
529.540905
 20
422.922952
 42
-0.139869
  0
VERTEX
  8
0
 10
525.062008
 20
428.090310
 42
-0.139948
  0
VERTEX
  8
0
 10
523.985620
 20
434.840708
 42
-0.145908
  0
VERTEX
  8
0
 10
526.668438
 20
441.017808
 42
-0.038638
  0
VERTEX
  8
0
 10
529.150325
 20
443.543033
 42
-0.080309
  0
VERTEX
  8
0
 10
531.488725
 20
444.997851
 42
-0.082733
  0
VERTEX
  8
0
 10
534.119821
 20
445.617175
 42
-0.043083
  0
VERTEX
  8
0
 10
537.499399
 20
445.549492
 42
-0.041234
  0
VERTEX
  8
0
 10
539.581225
 20
445.152227
 42
-0.057648
  0
VERTEX
  8
0
 10
541.334672
 20
444.439346
 42
-0.053076
  0
VERTEX
  8
0
 10
542.981510
 20
443.294775
 42
-0.028897
  0
SEQEND
  0
POLYLINE
  8
0
 66
1
 70
1
  0
VERTEX
  8
0
 10
1188.253233
 20
295.246795
 42
0.000000
  0
VERTEX
  8
0
 10
1246.000000
 20
237.493590
 42
0.000000
  0
VERTEX
  8
0
 10
1187.746794
 20
179.246767
 42
0.000000
  0
VERTEX
  8
0
 10
1129.493589
 20
120.999945
 42
0.000000
  0
VERTEX
  8
0
 10
1071.500027
 20
178.999973
 42
0.000000
  0
VERTEX
  8
0
 10
1013.506466
 20
237.000000
 42
0.000000
  0
VERTEX
  8
0
 10
1071.500000
 20
295.000000
 42
-0.000409
  0
VERTEX
  8
0
 10
1093.773145
 20
317.239210
 42
-0.000678
  0
VERTEX
  8
0
 10
1112.606708
 20
335.962500
 42
-0.000026
  0
VERTEX
  8
0
 10
1129.645818
 20
352.854205
 42
-0.197770
  0
VERTEX
  8
0
 10
1130.000000
 20
353.000000
 42
-0.197765
  0
VERTEX
  8
0
 10
1130.354171
 20
352.854213
 42
-0.000026
  0
VERTEX
  8
0
 10
1147.320804
 20
336.034996
 42
-0.000681
  0
VERTEX
  8
0
 10
1166.074711
 20
317.391371
 42
-0.000411
  0
SEQEND
  0
POLYLINE
  8
0
 66
1
 70
1
  0
VERTEX
  8
0
 10
1892.500000
 20
295.000000
 42
0.000000
  0
VERTEX
  8
0
 10
1950.493534
 20
237.000000
 42
0.000000
  0
VERTEX
  8
0
 10
1892.499986
 20
178.999986
 42
0.000000
  0
VERTEX
  8
0
 10
1834.506438
 20
120.999972
 42
0.000000
  0
VERTEX
  8
0
 10
1776.753219
 20
178.746753
 42
-0.000811
  0
VERTEX
  8
0
 10
1754.609549
 20
200.959892
 42
-0.001335
  0
VERTEX
  8
0
 10
1735.965008
 20
219.824167
 42
-0.000102
  0
VERTEX
  8
0
 10
1719.284059
 20
236.798995
 42
-0.196591
  0
VERTEX
  8
0
 10
1719.000000
 20
237.493534
 42
-0.198311
  0
VERTEX
  8
0
 10
1719.517148
 20
238.746140
 42
-0.000029
  0
VERTEX
  8
0
 10
1776.131670
 20
295.616706
 42
-0.000029
  0
VERTEX
  8
0
 10
1832.755075
 20
352.482829
 42
-0.199453
  0
VERTEX
  8
0
 10
1833.999972
 20
353.000000
 42
-0.197770
  0
VERTEX
  8
0
 10
1834.354173
 20
352.854197
 42
-0.000026
  0
VERTEX
  8
0
 10
1851.393284
 20
335.962500
 42
-0.000678
  0
VERTEX
  8
0
 10
1870.226854
 20
317.239209
 42
-0.000409
  0
SEQEND
  0
POLYLINE
  8
0
 66
1
 70
1
  0
VERTEX
  8
0
 10
1495.894018
 20
33.435724
 42
-0.149549
  0
VERTEX
  8
0
 10
1499.926521
 20
27.204867
 42
-0.157366
  0
VERTEX
  8
0
 10
1499.673887
 20
19.922731
 42
-0.157857
  0
VERTEX
  8
0
 10
1495.215529
 20
14.177970
 42
-0.150544
  0
VERTEX
  8
0
 10
1488.145781
 20
12.000000
 42
-0.048527
  0
VERTEX
  8
0
 10
1484.523883
 20
12.352351
 42
-0.080128
  0
VERTEX
  8
0
 10
1481.646788
 20
13.415211
 42
-0.084686
  0
VERTEX
  8
0
 10
1479.357363
 20
15.277029
 42
-0.060530
  0
VERTEX
  8
0
 10
1477.494289
 20
18.011044
 42
-0.120210
  0
VERTEX
  8
0
 10
1475.980783
 20
24.250374
 42
-0.134441
  0
VERTEX
  8
0
 10
1477.618588
 20
30.201222
 42
-0.135915
  0
VERTEX
  8
0
 10
1482.038912
 20
34.442846
 42
-0.124013
  0
VERTEX
  8
0
 10
1488.173275
 20
35.995033
 42
-0.027543
  0
VERTEX
  8
0
 10
1490.597344
 20
35.863986
 42
-0.052801
  0
VERTEX
  8
0
 10
1492.498317
 20
35.449692
 42
-0.056991
  0
VERTEX
  8
0
 10
1494.173996
 20
34.673177
 42
-0.037944
  0
SEQEND
  0
ENDSEC
  0
EOF
