  0
SECTION
  2
HEADER
  9
$ACADVER
  1
AC1006
  9
$EXTMIN
 10
0.000000
 20
0.000000
 30
0.000000
  9
$EXTMAX
 10
2872.000000
 20
1609.000000
 30
0.000000
  0
ENDSEC
  0
SECTION
  2
ENTITIES
  0
POLYLINE
  8
0
 66
1
 70
1
  0
VERTEX
  8
0
 10
569.589293
 20
1607.940846
 42
0.072622
  0
VERTEX
  8
0
 10
563.330611
 20
1605.370713
 42
0.059059
  0
VERTEX
  8
0
 10
557.565309
 20
1600.963977
 42
0.050222
  0
VERTEX
  8
0
 10
552.218848
 20
1594.614240
 42
0.030930
  0
VERTEX
  8
0
 10
547.211309
 20
1586.215291
 42
0.008674
  0
VERTEX
  8
0
 10
544.710720
 20
1581.148322
 42
0.000683
  0
VERTEX
  8
0
 10
538.312286
 20
1567.547617
 42
0.000928
  0
VERTEX
  8
0
 10
530.731388
 20
1551.297728
 42
0.000710
  0
VERTEX
  8
0
 10
522.499301
 20
1533.500000
 42
-0.000674
  0
VERTEX
  8
0
 10
514.492779
 20
1516.186641
 42
-0.001087
  0
VERTEX
  8
0
 10
507.622829
 20
1501.467316
 42
-0.000155
  0
VERTEX
  8
0
 10
501.486785
 20
1488.405208
 42
-0.076193
  0
VERTEX
  8
0
 10
500.975422
 20
1487.644053
 42
-0.318260
  0
VERTEX
  8
0
 10
500.237221
 20
1487.486023
 42
-0.000568
  0
VERTEX
  8
0
 10
487.980815
 20
1492.761989
 42
-0.003665
  0
VERTEX
  8
0
 10
474.136272
 20
1498.861059
 42
-0.002224
  0
VERTEX
  8
0
 10
457.844053
 20
1506.268782
 42
-0.000034
  0
VERTEX
  8
0
 10
438.216705
 20
1515.300084
 42
-0.000018
  0
VERTEX
  8
0
 10
413.985441
 20
1526.452869
 42
-0.000018
  0
VERTEX
  8
0
 10
389.265092
 20
1537.832925
 42
-0.000028
  0
VERTEX
  8
0
 10
368.000000
 20
1547.624728
 42
0.000000
  0
VERTEX
  8
0
 10
320.500000
 20
1569.500000
 42
0.000000
  0
VERTEX
  8
0
 10
313.000000
 20
1569.500000
 42
0.014966
  0
VERTEX
  8
0
 10
308.891775
 20
1569.377007
 42
0.036343
  0
VERTEX
  8
0
 10
305.887031
 20
1568.976492
 42
0.040336
  0
VERTEX
  8
0
 10
303.162383
 20
1568.175881
 42
0.022677
  0
VERTEX
  8
0
 10
300.000000
 20
1566.794748
 42
0.048788
  0
VERTEX
  8
0
 10
294.658733
 20
1563.485964
 42
0.039797
  0
VERTEX
  8
0
 10
289.652560
 20
1558.990785
 42
0.038361
  0
VERTEX
  8
0
 10
285.242510
 20
1553.569397
 42
0.037542
  0
VERTEX
  8
0
 10
281.676891
 20
1547.500000
 42
0.005053
  0
VERTEX
  8
0
 10
278.994828
 20
1541.890601
 42
0.000011
  0
VERTEX
  8
0
 10
238.465490
 20
1454.871875
 42
0.000074
  0
VERTEX
  8
0
 10
192.873153
 20
1356.939317
 42
0.000046
  0
VERTEX
  8
0
 10
139.396886
 20
1242.000000
 42
0.000000
  0
VERTEX
  8
0
 10
0.551181
 20
943.500000
 42
0.000000
  0
VERTEX
  8
0
 10
0.526387
 20
935.500000
 42
0.013419
  0
VERTEX
  8
0
 10
0.630766
 20
931.103400
 42
0.034697
  0
VERTEX
  8
0
 10
1.010178
 20
927.955191
 42
0.039607
  0
VERTEX
  8
0
 10
1.785077
 20
925.138604
 42
0.022675
  0
VERTEX
  8
0
 10
3.135962
 20
921.879989
 42
0.035811
  0
VERTEX
  8
0
 10
5.787571
 20
917.138719
 42
0.030756
  0
VERTEX
  8
0
 10
9.215137
 20
912.563939
 42
0.030733
  0
VERTEX
  8
0
 10
13.181189
 20
908.440508
 42
0.035594
  0
VERTEX
  8
0
 10
17.442804
 20
905.048621
 42
0.038581
  0
VERTEX
  8
0
 10
20.687212
 20
903.173889
 42
0.000379
  0
VERTEX
  8
0
 10
44.983199
 20
891.554880
 42
0.001249
  0
VERTEX
  8
0
 10
73.011675
 20
878.262876
 42
0.000809
  0
VERTEX
  8
0
 10
105.500000
 20
863.019338
 42
-0.000323
  0
VERTEX
  8
0
 10
137.762837
 20
847.919834
 42
-0.000530
  0
VERTEX
  8
0
 10
165.054942
 20
835.089880
 42
-0.000038
  0
VERTEX
  8
0
 10
189.574982
 20
823.529044
 42
-0.075700
  0
VERTEX
  8
0
 10
190.282782
 20
823.053322
 42
-0.304929
  0
VERTEX
  8
0
 10
190.438727
 20
822.404785
 42
-0.002847
  0
VERTEX
  8
0
 10
188.612051
 20
817.576175
 42
-0.008250
  0
VERTEX
  8
0
 10
186.341563
 20
811.954653
 42
-0.005094
  0
VERTEX
  8
0
 10
183.495960
 20
805.417218
 42
0.006304
  0
VERTEX
  8
0
 10
176.944363
 20
790.265618
 42
0.028823
  0
VERTEX
  8
0
 10
173.766360
 20
781.220792
 42
0.045571
  0
VERTEX
  8
0
 10
172.388145
 20
774.022643
 42
0.037200
  0
VERTEX
  8
0
 10
172.201950
 20
766.179120
 42
0.012406
  0
VERTEX
  8
0
 10
172.531258
 20
761.822306
 42
0.025922
  0
VERTEX
  8
0
 10
173.046428
 20
758.461019
 42
0.032019
  0
VERTEX
  8
0
 10
173.810362
 20
755.678333
 42
0.036382
  0
VERTEX
  8
0
 10
174.898938
 20
753.136832
 42
0.049491
  0
VERTEX
  8
0
 10
177.731758
 20
748.778061
 42
0.034310
  0
VERTEX
  8
0
 10
181.713989
 20
744.450016
 42
0.032917
  0
VERTEX
  8
0
 10
186.471463
 20
740.502794
 42
0.034468
  0
VERTEX
  8
0
 10
191.635783
 20
737.280376
 42
0.014822
  0
VERTEX
  8
0
 10
196.127601
 20
735.058758
 42
0.000192
  0
VERTEX
  8
0
 10
224.695911
 20
721.981430
 42
0.000557
  0
VERTEX
  8
0
 10
257.792514
 20
706.891177
 42
0.000365
  0
VERTEX
  8
0
 10
295.946041
 20
689.580174
 42
0.000338
  0
VERTEX
  8
0
 10
360.863872
 20
660.235800
 42
0.005589
  0
VERTEX
  8
0
 10
382.634204
 20
650.704273
 42
0.015047
  0
VERTEX
  8
0
 10
394.368397
 20
646.133949
 42
0.085568
  0
VERTEX
  8
0
 10
400.946041
 20
645.000789
 42
0.072602
  0
VERTEX
  8
0
 10
408.923513
 20
646.166270
 42
0.064286
  0
VERTEX
  8
0
 10
416.600111
 20
649.579856
 42
0.059828
  0
VERTEX
  8
0
 10
423.629560
 20
655.107057
 42
0.049049
  0
VERTEX
  8
0
 10
429.693229
 20
662.500000
 42
0.030455
  0
VERTEX
  8
0
 10
430.648100
 20
664.137114
 42
0.008666
  0
VERTEX
  8
0
 10
431.928937
 20
666.790001
 42
0.008693
  0
VERTEX
  8
0
 10
433.273753
 20
669.841624
 42
0.009107
  0
VERTEX
  8
0
 10
434.490084
 20
672.891492
 42
-0.012404
  0
VERTEX
  8
0
 10
435.695714
 20
675.857549
 42
-0.013762
  0
VERTEX
  8
0
 10
437.008506
 20
678.657669
 42
-0.013192
  0
VERTEX
  8
0
 10
438.252570
 20
680.977125
 42
-0.066775
  0
VERTEX
  8
0
 10
439.141492
 20
682.141492
 42
-0.129010
  0
VERTEX
  8
0
 10
441.582504
 20
683.567777
 42
-0.076916
  0
VERTEX
  8
0
 10
444.943964
 20
683.968541
 42
-0.069375
  0
VERTEX
  8
0
 10
448.630237
 20
683.322875
 42
-0.068441
  0
VERTEX
  8
0
 10
452.017865
 20
681.692344
 42
0.034922
  0
VERTEX
  8
0
 10
454.774938
 20
680.130383
 42
0.000384
  0
VERTEX
  8
0
 10
474.243725
 20
670.848961
 42
0.001199
  0
VERTEX
  8
0
 10
496.748683
 20
660.207375
 42
0.000780
  0
VERTEX
  8
0
 10
522.790561
 20
648.019236
 42
-0.001402
  0
VERTEX
  8
0
 10
549.044663
 20
635.691984
 42
-0.002501
  0
VERTEX
  8
0
 10
570.559059
 20
625.384487
 42
-0.000263
  0
VERTEX
  8
0
 10
589.393827
 20
616.232436
 42
-0.394252
  0
VERTEX
  8
0
 10
589.645734
 20
615.576891
 42
-0.011791
  0
VERTEX
  8
0
 10
589.271765
 20
614.711232
 42
-0.000006
  0
VERTEX
  8
0
 10
576.529222
 20
587.027793
 42
-0.000082
  0
VERTEX
  8
0
 10
562.355169
 20
556.248523
 42
-0.000050
  0
VERTEX
  8
0
 10
545.605174
 20
519.900702
 42
0.000379
  0
VERTEX
  8
0
 10
517.598721
 20
459.020831
 42
0.005451
  0
VERTEX
  8
0
 10
507.901898
 20
437.277871
 42
0.013051
  0
VERTEX
  8
0
 10
503.115158
 20
425.379797
 42
0.089336
  0
VERTEX
  8
0
 10
502.000000
 20
419.188214
 42
0.078160
  0
VERTEX
  8
0
 10
503.482281
 20
409.763748
 42
0.069618
  0
VERTEX
  8
0
 10
507.807431
 20
400.833176
 42
0.068117
  0
VERTEX
  8
0
 10
514.526281
 20
393.265451
 42
0.069132
  0
VERTEX
  8
0
 10
523.000000
 20
387.825957
 42
-0.001758
  0
VERTEX
  8
0
 10
527.174217
 20
385.880417
 42
-0.000020
  0
VERTEX
  8
0
 10
555.378125
 20
372.612728
 42
-0.000061
  0
VERTEX
  8
0
 10
587.925827
 20
357.295245
 42
-0.000040
  0
VERTEX
  8
0
 10
625.500000
 20
339.603000
 42
0.000000
  0
VERTEX
  8
0
 10
722.500000
 20
293.920007
 42
0.000000
  0
VERTEX
  8
0
 10
814.500000
 20
229.383302
 42
0.000000
  0
VERTEX
  8
0
 10
906.500000
 20
164.846597
 42
0.000000
  0
VERTEX
  8
0
 10
986.000000
 20
85.473747
 42
0.000610
  0
VERTEX
  8
0
 10
1043.313137
 20
28.391740
 42
0.013432
  0
VERTEX
  8
0
 10
1060.498063
 20
12.211527
 42
0.049649
  0
VERTEX
  8
0
 10
1070.782875
 20
4.725065
 42
0.087020
  0
VERTEX
  8
0
 10
1080.621540
 20
1.062165
 42
0.045616
  0
VERTEX
  8
0
 10
1089.925459
 20
0.207278
 42
0.000042
  0
VERTEX
  8
0
 10
1308.260705
 20
0.125552
 42
0.000515
  0
VERTEX
  8
0
 10
1514.008948
 20
0.277525
 42
0.000914
  0
VERTEX
  8
0
 10
1683.500000
 20
0.887033
 42
0.000000
  0
VERTEX
  8
0
 10
1796.500000
 20
1.500000
 42
0.000000
  0
VERTEX
  8
0
 10
1802.500000
 20
4.385475
 42
0.073646
  0
VERTEX
  8
0
 10
1808.154186
 20
8.214721
 42
0.005889
  0
VERTEX
  8
0
 10
1821.335893
 20
20.595865
 42
0.004013
  0
VERTEX
  8
0
 10
1843.156038
 20
41.919692
 42
0.000503
  0
VERTEX
  8
0
 10
1890.000000
 20
88.532825
 42
0.000000
  0
VERTEX
  8
0
 10
1971.500000
 20
169.794699
 42
0.000000
  0
VERTEX
  8
0
 10
2063.500000
 20
233.702834
 42
0.000000
  0
VERTEX
  8
0
 10
2155.500000
 20
297.610969
 42
0.000000
  0
VERTEX
  8
0
 10
2247.000000
 20
340.474486
 42
0.000086
  0
VERTEX
  8
0
 10
2318.760169
 20
374.105855
 42
0.001710
  0
VERTEX
  8
0
 10
2340.684348
 20
384.477143
 42
0.004316
  0
VERTEX
  8
0
 10
2352.116747
 20
390.054877
 42
0.039078
  0
VERTEX
  8
0
 10
2356.878517
 20
392.913496
 42
0.095672
  0
VERTEX
  8
0
 10
2362.857415
 20
399.188269
 42
0.065038
  0
VERTEX
  8
0
 10
2367.075941
 20
408.135028
 42
0.063703
  0
VERTEX
  8
0
 10
2368.922431
 20
418.085982
 42
0.081957
  0
VERTEX
  8
0
 10
2367.927446
 20
427.322335
 42
0.038580
  0
VERTEX
  8
0
 10
2366.876471
 20
430.219633
 42
0.000217
  0
VERTEX
  8
0
 10
2354.826981
 20
456.805298
 42
0.000933
  0
VERTEX
  8
0
 10
2341.013897
 20
487.096570
 42
0.000593
  0
VERTEX
  8
0
 10
2324.820595
 20
522.322335
 42
-0.000226
  0
VERTEX
  8
0
 10
2308.667758
 20
557.392255
 42
-0.000368
  0
VERTEX
  8
0
 10
2294.991663
 20
587.177935
 42
-0.000037
  0
VERTEX
  8
0
 10
2282.776721
 20
613.838230
 42
-0.036574
  0
VERTEX
  8
0
 10
2282.317845
 20
615.070635
 42
-0.343507
  0
VERTEX
  8
0
 10
2282.783481
 20
616.241752
 42
-0.009597
  0
VERTEX
  8
0
 10
2287.841225
 20
619.080204
 42
-0.010734
  0
VERTEX
  8
0
 10
2295.744672
 20
623.102305
 42
-0.002282
  0
VERTEX
  8
0
 10
2309.680274
 20
629.743339
 42
0.000043
  0
VERTEX
  8
0
 10
2323.504112
 20
636.255326
 42
0.000017
  0
VERTEX
  8
0
 10
2342.772729
 20
645.335006
 42
0.000016
  0
VERTEX
  8
0
 10
2363.707664
 20
655.201565
 42
0.000020
  0
VERTEX
  8
0
 10
2383.269444
 20
664.422704
 42
-0.000596
  0
VERTEX
  8
0
 10
2400.871877
 20
672.695473
 42
-0.000974
  0
VERTEX
  8
0
 10
2415.815940
 20
679.661669
 42
-0.000090
  0
VERTEX
  8
0
 10
2429.212418
 20
685.871800
 42
-0.108902
  0
VERTEX
  8
0
 10
2429.794041
 20
686.000000
 42
-0.275985
  0
VERTEX
  8
0
 10
2430.206217
 20
685.753733
 42
-0.004018
  0
VERTEX
  8
0
 10
2431.587960
 20
683.135765
 42
-0.009677
  0
VERTEX
  8
0
 10
2433.141053
 20
679.987164
 42
-0.006072
  0
VERTEX
  8
0
 10
2434.840571
 20
676.249412
 42
0.034411
  0
VERTEX
  8
0
 10
2443.016942
 20
660.673510
 42
0.079078
  0
VERTEX
  8
0
 10
2451.624152
 20
650.660027
 42
0.103848
  0
VERTEX
  8
0
 10
2461.278464
 20
645.435939
 42
0.096088
  0
VERTEX
  8
0
 10
2472.500000
 20
644.338899
 42
0.063511
  0
VERTEX
  8
0
 10
2482.091495
 20
646.493696
 42
0.017583
  0
VERTEX
  8
0
 10
2496.436063
 20
652.273077
 42
0.004733
  0
VERTEX
  8
0
 10
2523.977356
 20
664.825130
 42
0.000179
  0
VERTEX
  8
0
 10
2626.500000
 20
712.772005
 42
0.000345
  0
VERTEX
  8
0
 10
2670.366605
 20
733.343138
 42
0.008306
  0
VERTEX
  8
0
 10
2682.535110
 20
739.308481
 42
0.031338
  0
VERTEX
  8
0
 10
2688.754366
 20
742.994900
 42
0.062905
  0
VERTEX
  8
0
 10
2693.026171
 20
746.767071
 42
0.047097
  0
VERTEX
  8
0
 10
2696.489098
 20
751.539956
 42
0.047383
  0
VERTEX
  8
0
 10
2698.989526
 20
756.867163
 42
0.046063
  0
VERTEX
  8
0
 10
2700.494470
 20
762.710078
 42
0.040028
  0
VERTEX
  8
0
 10
2701.000000
 20
769.014684
 42
0.043335
  0
VERTEX
  8
0
 10
2700.468712
 20
775.133215
 42
0.041018
  0
VERTEX
  8
0
 10
2698.889385
 20
781.186353
 42
0.021706
  0
VERTEX
  8
0
 10
2695.535334
 20
789.568824
 42
0.003528
  0
VERTEX
  8
0
 10
2688.208204
 20
805.500000
 42
-0.000812
  0
VERTEX
  8
0
 10
2685.163498
 20
812.026423
 42
-0.001350
  0
VERTEX
  8
0
 10
2682.620926
 20
817.538595
 42
-0.000076
  0
VERTEX
  8
0
 10
2680.348304
 20
822.502706
 42
-0.334196
  0
VERTEX
  8
0
 10
2680.371858
 20
822.610112
 42
-0.068271
  0
VERTEX
  8
0
 10
2680.487548
 20
822.684844
 42
-0.000001
  0
VERTEX
  8
0
 10
2704.402983
 20
833.862131
 42
-0.000079
  0
VERTEX
  8
0
 10
2730.740090
 20
846.166098
 42
-0.000047
  0
VERTEX
  8
0
 10
2762.000000
 20
860.760232
 42
0.000144
  0
VERTEX
  8
0
 10
2833.618648
 20
894.213281
 42
0.004536
  0
VERTEX
  8
0
 10
2851.185748
 20
902.620074
 42
0.017573
  0
VERTEX
  8
0
 10
2859.765379
 20
907.202508
 42
0.081319
  0
VERTEX
  8
0
 10
2864.095815
 20
910.761908
 42
0.071947
  0
VERTEX
  8
0
 10
2868.624382
 20
917.721137
 42
0.062139
  0
VERTEX
  8
0
 10
2871.278841
 20
926.032952
 42
0.060946
  0
VERTEX
  8
0
 10
2871.840712
 20
934.902855
 42
0.063870
  0
VERTEX
  8
0
 10
2870.222517
 20
943.500000
 42
0.030559
  0
VERTEX
  8
0
 10
2867.773394
 20
949.727155
 42
0.000008
  0
VERTEX
  8
0
 10
2741.488862
 20
1220.901212
 42
0.000114
  0
VERTEX
  8
0
 10
2628.800888
 20
1462.725822
 42
0.001633
  0
VERTEX
  8
0
 10
2588.446034
 20
1548.541754
 42
0.052013
  0
VERTEX
  8
0
 10
2583.165545
 20
1557.217330
 42
0.077663
  0
VERTEX
  8
0
 10
2576.772905
 20
1563.355378
 42
0.080085
  0
VERTEX
  8
0
 10
2568.968315
 20
1567.127727
 42
0.059116
  0
VERTEX
  8
0
 10
2559.500000
 20
1568.775613
 42
0.013038
  0
VERTEX
  8
0
 10
2555.226609
 20
1568.895927
 42
0.029777
  0
VERTEX
  8
0
 10
2552.008153
 20
1568.710775
 42
0.034454
  0
VERTEX
  8
0
 10
2549.134950
 20
1568.170459
 42
0.024348
  0
VERTEX
  8
0
 10
2546.000000
 20
1567.188845
 42
0.019173
  0
VERTEX
  8
0
 10
2541.923419
 20
1565.510874
 42
0.000261
  0
VERTEX
  8
0
 10
2517.393798
 20
1554.280627
 42
0.000740
  0
VERTEX
  8
0
 10
2488.992119
 20
1541.208833
 42
0.000486
  0
VERTEX
  8
0
 10
2456.340588
 20
1526.083937
 42
-0.000390
  0
VERTEX
  8
0
 10
2424.006419
 20
1511.098455
 42
-0.000641
  0
VERTEX
  8
0
 10
2396.633741
 20
1498.480906
 42
-0.000039
  0
VERTEX
  8
0
 10
2371.976216
 20
1487.155594
 42
-0.108039
  0
VERTEX
  8
0
 10
2371.264538
 20
1487.000000
 42
-0.283805
  0
VERTEX
  8
0
 10
2370.730035
 20
1487.329967
 42
-0.000243
  0
VERTEX
  8
0
 10
2363.640651
 20
1501.490013
 42
-0.002331
  0
VERTEX
  8
0
 10
2355.770241
 20
1517.414312
 42
-0.001413
  0
VERTEX
  8
0
 10
2346.598073
 20
1536.327703
 42
0.001504
  0
VERTEX
  8
0
 10
2337.195882
 20
1555.706422
 42
0.002050
  0
VERTEX
  8
0
 10
2328.595564
 20
1573.116171
 42
0.001344
  0
VERTEX
  8
0
 10
2321.274563
 20
1587.686215
 42
0.023492
  0
VERTEX
  8
0
 10
2318.663757
 20
1592.296351
 42
0.019946
  0
VERTEX
  8
0
 10
2316.769224
 20
1595.052863
 42
0.016356
  0
VERTEX
  8
0
 10
2314.536507
 20
1597.843751
 42
0.016665
  0
VERTEX
  8
0
 10
2312.312437
 20
1600.275712
 42
0.041315
  0
VERTEX
  8
0
 10
2310.489634
 20
1601.855533
 42
0.059100
  0
VERTEX
  8
0
 10
2304.298234
 20
1605.346962
 42
0.054690
  0
VERTEX
  8
0
 10
2297.298695
 20
1607.406253
 42
0.052815
  0
VERTEX
  8
0
 10
2289.786631
 20
1607.942969
 42
0.048121
  0
VERTEX
  8
0
 10
2282.081870
 20
1606.932740
 42
0.050581
  0
VERTEX
  8
0
 10
2278.796016
 20
1605.815996
 42
0.000415
  0
VERTEX
  8
0
 10
2253.968766
 20
1594.444069
 42
0.001485
  0
VERTEX
  8
0
 10
2225.512123
 20
1581.278717
 42
0.000955
  0
VERTEX
  8
0
 10
2192.581870
 20
1565.848164
 42
-0.000076
  0
VERTEX
  8
0
 10
2159.876936
 20
1550.453004
 42
-0.000124
  0
VERTEX
  8
0
 10
2132.148491
 20
1537.413906
 42
-0.000010
  0
VERTEX
  8
0
 10
2107.264528
 20
1525.720533
 42
-0.014833
  0
VERTEX
  8
0
 10
2106.327888
 20
1525.313877
 42
-0.351464
  0
VERTEX
  8
0
 10
2105.619507
 20
1525.529916
 42
-0.009784
  0
VERTEX
  8
0
 10
2103.744543
 20
1528.396365
 42
-0.015009
  0
VERTEX
  8
0
 10
2101.509064
 20
1532.214567
 42
-0.007479
  0
VERTEX
  8
0
 10
2098.898001
 20
1537.172900
 42
0.009064
  0
VERTEX
  8
0
 10
2095.336629
 20
1543.884159
 42
0.023894
  0
VERTEX
  8
0
 10
2092.474978
 20
1548.512321
 42
0.027990
  0
VERTEX
  8
0
 10
2089.464072
 20
1552.411756
 42
0.017231
  0
VERTEX
  8
0
 10
2085.518674
 20
1556.664342
 42
0.010655
  0
VERTEX
  8
0
 10
2081.473282
 20
1560.564209
 42
0.036720
  0
VERTEX
  8
0
 10
2078.624496
 20
1562.832170
 42
0.048402
  0
VERTEX
  8
0
 10
2075.915149
 20
1564.320155
 42
0.030658
  0
VERTEX
  8
0
 10
2072.520447
 20
1565.537080
 42
0.043819
  0
VERTEX
  8
0
 10
2067.164813
 20
1566.596700
 42
0.042092
  0
VERTEX
  8
0
 10
2061.632802
 20
1566.727348
 42
0.038774
  0
VERTEX
  8
0
 10
2055.755505
 20
1565.910900
 42
0.027790
  0
VERTEX
  8
0
 10
2049.361705
 20
1564.133737
 42
0.026817
  0
VERTEX
  8
0
 10
2044.818002
 20
1562.317369
 42
0.000334
  0
VERTEX
  8
0
 10
2016.436117
 20
1549.142989
 42
0.000986
  0
VERTEX
  8
0
 10
1983.639981
 20
1533.814240
 42
0.000645
  0
VERTEX
  8
0
 10
1945.894330
 20
1516.021875
 42
0.000707
  0
VERTEX
  8
0
 10
1874.852732
 20
1482.299512
 42
0.014621
  0
VERTEX
  8
0
 10
1853.827413
 20
1471.517477
 42
0.053286
  0
VERTEX
  8
0
 10
1843.598557
 20
1464.375100
 42
0.112236
  0
VERTEX
  8
0
 10
1837.914073
 20
1456.598821
 42
0.048468
  0
VERTEX
  8
0
 10
1836.115090
 20
1450.998817
 42
0.038431
  0
VERTEX
  8
0
 10
1835.245697
 20
1444.699555
 42
0.038343
  0
VERTEX
  8
0
 10
1835.349782
 20
1438.323996
 42
0.047520
  0
VERTEX
  8
0
 10
1836.458277
 20
1432.495527
 42
0.020462
  0
VERTEX
  8
0
 10
1837.418717
 20
1429.634031
 42
0.007877
  0
VERTEX
  8
0
 10
1838.975441
 20
1425.742127
 42
0.007783
  0
VERTEX
  8
0
 10
1840.798448
 20
1421.568519
 42
0.009512
  0
VERTEX
  8
0
 10
1842.637356
 20
1417.726509
 42
-0.011446
  0
VERTEX
  8
0
 10
1844.329423
 20
1414.155888
 42
-0.014775
  0
VERTEX
  8
0
 10
1845.709068
 20
1410.800490
 42
-0.012531
  0
VERTEX
  8
0
 10
1846.697837
 20
1407.964663
 42
-0.113655
  0
VERTEX
  8
0
 10
1846.807235
 20
1406.666763
 42
-0.121025
  0
VERTEX
  8
0
 10
1846.365627
 20
1405.571074
 42
-0.060011
  0
VERTEX
  8
0
 10
1845.344499
 20
1404.461434
 42
-0.044381
  0
VERTEX
  8
0
 10
1843.742650
 20
1403.321887
 42
-0.020971
  0
VERTEX
  8
0
 10
1841.500000
 20
1402.132323
 42
-0.001682
  0
VERTEX
  8
0
 10
1837.714671
 20
1400.339188
 42
-0.000021
  0
VERTEX
  8
0
 10
1813.587500
 20
1389.010468
 42
-0.000062
  0
VERTEX
  8
0
 10
1785.671525
 20
1375.908425
 42
-0.000041
  0
VERTEX
  8
0
 10
1753.500000
 20
1360.817173
 42
0.000782
  0
VERTEX
  8
0
 10
1711.243783
 20
1340.918799
 42
0.003618
  0
VERTEX
  8
0
 10
1686.905887
 20
1329.195316
 42
0.003303
  0
VERTEX
  8
0
 10
1670.869378
 20
1321.195223
 42
0.073426
  0
VERTEX
  8
0
 10
1666.631376
 20
1318.195593
 42
0.032767
  0
VERTEX
  8
0
 10
1664.938894
 20
1316.352254
 42
0.016432
  0
VERTEX
  8
0
 10
1663.038507
 20
1313.823080
 42
0.016241
  0
VERTEX
  8
0
 10
1661.236855
 20
1311.067460
 42
0.023083
  0
VERTEX
  8
0
 10
1659.832870
 20
1308.500000
 42
0.019091
  0
VERTEX
  8
0
 10
1658.179360
 20
1304.757984
 42
0.052214
  0
VERTEX
  8
0
 10
1657.399138
 20
1301.977466
 42
0.041534
  0
VERTEX
  8
0
 10
1657.120742
 20
1298.756340
 42
0.008735
  0
VERTEX
  8
0
 10
1657.201494
 20
1293.099930
 42
0.000000
  0
VERTEX
  8
0
 10
1657.500000
 20
1283.699860
 42
0.000000
  0
VERTEX
  8
0
 10
1572.000000
 20
1243.816931
 42
0.000000
  0
VERTEX
  8
0
 10
1486.500000
 20
1203.934002
 42
0.000000
  0
VERTEX
  8
0
 10
1434.876602
 20
1204.475633
 42
0.000000
  0
VERTEX
  8
0
 10
1383.253203
 20
1205.017263
 42
0.000000
  0
VERTEX
  8
0
 10
1301.609375
 20
1242.991860
 42
-0.000140
  0
VERTEX
  8
0
 10
1270.107047
 20
1257.655100
 42
-0.000221
  0
VERTEX
  8
0
 10
1243.109528
 20
1270.245227
 42
-0.000047
  0
VERTEX
  8
0
 10
1219.369954
 20
1281.331525
 42
-0.010065
  0
VERTEX
  8
0
 10
1217.109738
 20
1282.443252
 42
-0.033830
  0
VERTEX
  8
0
 10
1215.484310
 20
1283.428402
 42
-0.148037
  0
VERTEX
  8
0
 10
1214.799336
 20
1284.303117
 42
-0.119612
  0
VERTEX
  8
0
 10
1214.638091
 20
1285.514702
 42
-0.018772
  0
VERTEX
  8
0
 10
1214.984607
 20
1287.915822
 42
0.101692
  0
VERTEX
  8
0
 10
1214.752808
 20
1298.536133
 42
0.083302
  0
VERTEX
  8
0
 10
1210.420001
 20
1309.054977
 42
0.075394
  0
VERTEX
  8
0
 10
1202.383738
 20
1318.452900
 42
0.062147
  0
VERTEX
  8
0
 10
1191.403613
 20
1325.784138
 42
0.005830
  0
VERTEX
  8
0
 10
1185.726583
 20
1328.546868
 42
0.000184
  0
VERTEX
  8
0
 10
1162.468561
 20
1339.521416
 42
0.000358
  0
VERTEX
  8
0
 10
1135.033765
 20
1352.430514
 42
0.000248
  0
VERTEX
  8
0
 10
1104.000000
 20
1366.987184
 42
-0.000176
  0
VERTEX
  8
0
 10
1073.488550
 20
1381.293485
 42
-0.000291
  0
VERTEX
  8
0
 10
1047.735296
 20
1393.398058
 42
-0.000011
  0
VERTEX
  8
0
 10
1024.464727
 20
1404.352874
 42
-0.076346
  0
VERTEX
  8
0
 10
1024.098881
 20
1404.599102
 42
-0.309892
  0
VERTEX
  8
0
 10
1024.022162
 20
1404.934325
 42
-0.002263
  0
VERTEX
  8
0
 10
1025.140148
 20
1407.728904
 42
-0.007353
  0
VERTEX
  8
0
 10
1026.507042
 20
1410.963842
 42
-0.004520
  0
VERTEX
  8
0
 10
1028.206893
 20
1414.734452
 42
0.008734
  0
VERTEX
  8
0
 10
1032.633410
 20
1424.778413
 42
0.030573
  0
VERTEX
  8
0
 10
1034.968626
 20
1431.453974
 42
0.041162
  0
VERTEX
  8
0
 10
1036.104158
 20
1437.261071
 42
0.027841
  0
VERTEX
  8
0
 10
1036.476254
 20
1444.000000
 42
0.011129
  0
VERTEX
  8
0
 10
1036.367113
 20
1448.793360
 42
0.037632
  0
VERTEX
  8
0
 10
1035.991699
 20
1451.900218
 42
0.046814
  0
VERTEX
  8
0
 10
1035.205069
 20
1454.545545
 42
0.025164
  0
VERTEX
  8
0
 10
1033.775807
 20
1457.638143
 42
0.052420
  0
VERTEX
  8
0
 10
1030.749109
 20
1462.178415
 42
0.037330
  0
VERTEX
  8
0
 10
1026.501802
 20
1466.581877
 42
0.034041
  0
VERTEX
  8
0
 10
1021.198464
 20
1470.704338
 42
0.027473
  0
VERTEX
  8
0
 10
1015.000000
 20
1474.401175
 42
0.010841
  0
VERTEX
  8
0
 10
1010.503671
 20
1476.635391
 42
0.000551
  0
VERTEX
  8
0
 10
995.721875
 20
1483.565142
 42
0.000881
  0
VERTEX
  8
0
 10
978.126635
 20
1491.752483
 42
0.000638
  0
VERTEX
  8
0
 10
958.500000
 20
1500.812656
 42
-0.000147
  0
VERTEX
  8
0
 10
936.015947
 20
1511.165136
 42
-0.000092
  0
VERTEX
  8
0
 10
909.675000
 20
1523.308745
 42
-0.000092
  0
VERTEX
  8
0
 10
883.714000
 20
1535.288783
 42
-0.000168
  0
VERTEX
  8
0
 10
862.500000
 20
1545.091627
 42
0.000000
  0
VERTEX
  8
0
 10
816.500000
 20
1566.366618
 42
0.000000
  0
VERTEX
  8
0
 10
808.500000
 20
1566.432513
 42
0.071549
  0
VERTEX
  8
0
 10
797.633169
 20
1564.960744
 42
0.096282
  0
VERTEX
  8
0
 10
788.798550
 20
1560.479233
 42
0.080045
  0
VERTEX
  8
0
 10
781.174136
 20
1552.288916
 42
0.035940
  0
VERTEX
  8
0
 10
773.873873
 20
1539.480319
 42
-0.007884
  0
VERTEX
  8
0
 10
771.302140
 20
1534.314946
 42
-0.015378
  0
VERTEX
  8
0
 10
769.061960
 20
1530.295639
 42
-0.013277
  0
VERTEX
  8
0
 10
767.173895
 20
1527.322443
 42
-0.169376
  0
VERTEX
  8
0
 10
766.131751
 20
1526.541816
 42
-0.140213
  0
VERTEX
  8
0
 10
764.959606
 20
1526.508141
 42
-0.019631
  0
VERTEX
  8
0
 10
762.612502
 20
1527.206366
 42
-0.019985
  0
VERTEX
  8
0
 10
759.709450
 20
1528.326912
 42
-0.012478
  0
VERTEX
  8
0
 10
756.400418
 20
1529.857700
 42
0.003221
  0
VERTEX
  8
0
 10
752.565612
 20
1531.718657
 42
0.001397
  0
VERTEX
  8
0
 10
747.442623
 20
1534.146548
 42
0.001382
  0
VERTEX
  8
0
 10
741.980930
 20
1536.697873
 42
0.001837
  0
VERTEX
  8
0
 10
737.000000
 20
1538.985660
 42
-0.000885
  0
VERTEX
  8
0
 10
721.163551
 20
1546.223004
 42
-0.000095
  0
VERTEX
  8
0
 10
684.440948
 20
1563.092531
 42
-0.000128
  0
VERTEX
  8
0
 10
645.685293
 20
1580.916930
 42
-0.000233
  0
VERTEX
  8
0
 10
614.000000
 20
1595.517270
 42
0.002006
  0
VERTEX
  8
0
 10
597.809555
 20
1602.908197
 42
0.014479
  0
VERTEX
  8
0
 10
589.898697
 20
1606.208899
 42
0.030490
  0
VERTEX
  8
0
 10
584.669914
 20
1607.857110
 42
0.047445
  0
VERTEX
  8
0
 10
580.000000
 20
1608.560899
 42
0.015692
  0
VERTEX
  8
0
 10
577.224757
 20
1608.625801
 42
0.012873
  0
VERTEX
  8
0
 10
574.260605
 20
1608.525740
 42
0.013074
  0
VERTEX
  8
0
 10
571.539486
 20
1608.292144
 42
0.033233
  0
SEQEND
  0
POLYLINE
  8
0
 66
1
 70
1
  0
VERTEX
  8
0
 10
664.794506
 20
1508.750000
 42
-0.000859
  0
VERTEX
  8
0
 10
692.982522
 20
1495.546070
 42
-0.001412
  0
VERTEX
  8
0
 10
716.778986
 20
1484.267187
 42
-0.000116
  0
VERTEX
  8
0
 10
738.078598
 20
1474.091919
 42
-0.191371
  0
VERTEX
  8
0
 10
738.626422
 20
1473.500000
 42
-0.204754
  0
VERTEX
  8
0
 10
738.539073
 20
1471.031091
 42
-0.000103
  0
VERTEX
  8
0
 10
704.619445
 20
1398.886759
 42
-0.000076
  0
VERTEX
  8
0
 10
670.533938
 20
1326.456945
 42
-0.349531
  0
VERTEX
  8
0
 10
669.129318
 20
1325.764039
 42
-0.054590
  0
VERTEX
  8
0
 10
668.184475
 20
1326.080624
 42
-0.000049
  0
VERTEX
  8
0
 10
646.730802
 20
1335.984169
 42
-0.000515
  0
VERTEX
  8
0
 10
622.786004
 20
1347.070467
 42
-0.000316
  0
VERTEX
  8
0
 10
594.583185
 20
1360.185193
 42
0.000000
  0
VERTEX
  8
0
 10
521.250603
 20
1394.342308
 42
0.000000
  0
VERTEX
  8
0
 10
523.599471
 20
1399.421154
 42
-0.000846
  0
VERTEX
  8
0
 10
542.557704
 20
1440.232276
 42
-0.000480
  0
VERTEX
  8
0
 10
565.642603
 20
1489.583938
 42
-0.000007
  0
VERTEX
  8
0
 10
590.584663
 20
1542.770824
 42
-0.285477
  0
VERTEX
  8
0
 10
590.924398
 20
1542.991529
 42
-0.113981
  0
VERTEX
  8
0
 10
591.255866
 20
1542.921909
 42
-0.000012
  0
VERTEX
  8
0
 10
612.798807
 20
1532.936574
 42
-0.000358
  0
VERTEX
  8
0
 10
636.602449
 20
1521.881987
 42
-0.000216
  0
SEQEND
  0
POLYLINE
  8
0
 66
1
 70
1
  0
VERTEX
  8
0
 10
2312.437475
 20
1472.250000
 42
0.000105
  0
VERTEX
  8
0
 10
2325.176598
 20
1444.874837
 42
0.000162
  0
VERTEX
  8
0
 10
2336.193577
 20
1421.233415
 42
0.000048
  0
VERTEX
  8
0
 10
2345.782643
 20
1400.678692
 42
0.005187
  0
VERTEX
  8
0
 10
2347.101313
 20
1397.927583
 42
0.000000
  0
VERTEX
  8
0
 10
2348.859456
 20
1394.355166
 42
0.000000
  0
VERTEX
  8
0
 10
2275.679728
 20
1360.237985
 42
-0.000364
  0
VERTEX
  8
0
 10
2247.522128
 20
1347.135520
 42
-0.000591
  0
VERTEX
  8
0
 10
2223.583002
 20
1336.051546
 42
-0.000065
  0
VERTEX
  8
0
 10
2202.184692
 20
1326.178026
 42
-0.053843
  0
VERTEX
  8
0
 10
2201.092193
 20
1325.810402
 42
-0.345504
  0
VERTEX
  8
0
 10
2200.066367
 20
1326.303801
 42
-0.000728
  0
VERTEX
  8
0
 10
2191.828829
 20
1343.111533
 42
-0.003318
  0
VERTEX
  8
0
 10
2181.207122
 20
1365.235129
 42
-0.001000
  0
VERTEX
  8
0
 10
2165.353728
 20
1399.000000
 42
-0.000764
  0
VERTEX
  8
0
 10
2152.212109
 20
1427.247892
 42
-0.001257
  0
VERTEX
  8
0
 10
2141.195023
 20
1451.181507
 42
-0.000094
  0
VERTEX
  8
0
 10
2131.363728
 20
1472.691882
 42
-0.186885
  0
VERTEX
  8
0
 10
2131.320337
 20
1473.426406
 42
-0.207987
  0
VERTEX
  8
0
 10
2132.035575
 20
1474.240858
 42
-0.000020
  0
VERTEX
  8
0
 10
2204.619145
 20
1508.411651
 42
-0.000043
  0
VERTEX
  8
0
 10
2276.612230
 20
1542.293437
 42
-0.086562
  0
VERTEX
  8
0
 10
2279.015889
 20
1542.951155
 42
-0.315772
  0
VERTEX
  8
0
 10
2279.317222
 20
1542.779692
 42
-0.000041
  0
VERTEX
  8
0
 10
2289.046284
 20
1522.202839
 42
-0.000975
  0
VERTEX
  8
0
 10
2299.782951
 20
1499.375046
 42
-0.000586
  0
SEQEND
  0
POLYLINE
  8
0
 66
1
 70
1
  0
VERTEX
  8
0
 10
400.725421
 20
1468.987499
 42
-0.000681
  0
VERTEX
  8
0
 10
441.316308
 20
1449.956089
 42
-0.005046
  0
VERTEX
  8
0
 10
460.544832
 20
1440.670491
 42
-0.003229
  0
VERTEX
  8
0
 10
472.629262
 20
1434.586182
 42
-0.417783
  0
VERTEX
  8
0
 10
473.087347
 20
1433.138332
 42
0.012074
  0
VERTEX
  8
0
 10
472.430173
 20
1431.814943
 42
0.000024
  0
VERTEX
  8
0
 10
462.566949
 20
1410.684385
 42
0.000173
  0
VERTEX
  8
0
 10
451.482117
 20
1386.912256
 42
0.000107
  0
VERTEX
  8
0
 10
438.485791
 20
1359.000000
 42
-0.000099
  0
VERTEX
  8
0
 10
425.534174
 20
1331.182581
 42
-0.000164
  0
VERTEX
  8
0
 10
414.596064
 20
1307.722081
 42
-0.000004
  0
VERTEX
  8
0
 10
404.680216
 20
1286.472884
 42
-0.064407
  0
VERTEX
  8
0
 10
404.535913
 20
1286.245382
 42
-0.341135
  0
VERTEX
  8
0
 10
403.801956
 20
1286.081721
 42
-0.000017
  0
VERTEX
  8
0
 10
330.345590
 20
1320.497724
 42
-0.000022
  0
VERTEX
  8
0
 10
257.032214
 20
1354.853658
 42
-0.205516
  0
VERTEX
  8
0
 10
256.259183
 20
1355.722451
 42
-0.191100
  0
VERTEX
  8
0
 10
256.314206
 20
1356.705794
 42
-0.000016
  0
VERTEX
  8
0
 10
288.520634
 20
1426.272423
 42
-0.000186
  0
VERTEX
  8
0
 10
318.793153
 20
1491.592433
 42
-0.014445
  0
VERTEX
  8
0
 10
323.905520
 20
1501.827559
 42
-0.045429
  0
VERTEX
  8
0
 10
324.469579
 20
1502.683030
 42
-0.061286
  0
VERTEX
  8
0
 10
325.131483
 20
1503.330870
 42
-0.076551
  0
VERTEX
  8
0
 10
325.785515
 20
1503.687692
 42
-0.185532
  0
VERTEX
  8
0
 10
326.326692
 20
1503.676727
 42
-0.012275
  0
VERTEX
  8
0
 10
327.263244
 20
1503.267778
 42
-0.000012
  0
VERTEX
  8
0
 10
348.665308
 20
1493.289429
 42
-0.000119
  0
VERTEX
  8
0
 10
372.566751
 20
1482.138175
 42
-0.000073
  0
SEQEND
  0
POLYLINE
  8
0
 66
1
 70
1
  0
VERTEX
  8
0
 10
2579.500000
 20
1430.882202
 42
-0.000738
  0
VERTEX
  8
0
 10
2592.535238
 20
1402.765267
 42
-0.001201
  0
VERTEX
  8
0
 10
2603.512500
 20
1378.844708
 42
-0.000138
  0
VERTEX
  8
0
 10
2613.249306
 20
1357.476523
 42
-0.107229
  0
VERTEX
  8
0
 10
2613.500000
 20
1356.320996
 42
-0.286325
  0
VERTEX
  8
0
 10
2612.841308
 20
1355.265041
 42
-0.000634
  0
VERTEX
  8
0
 10
2595.271771
 20
1346.689555
 42
-0.003108
  0
VERTEX
  8
0
 10
2572.688078
 20
1335.875264
 42
-0.001046
  0
VERTEX
  8
0
 10
2539.615756
 20
1320.374914
 42
-0.000384
  0
VERTEX
  8
0
 10
2511.271688
 20
1307.189330
 42
-0.000640
  0
VERTEX
  8
0
 10
2487.380830
 20
1296.134795
 42
-0.000017
  0
VERTEX
  8
0
 10
2465.748330
 20
1286.159678
 42
-0.371928
  0
VERTEX
  8
0
 10
2465.547073
 20
1286.217577
 42
-0.035489
  0
VERTEX
  8
0
 10
2465.413196
 20
1286.458284
 42
-0.000004
  0
VERTEX
  8
0
 10
2457.824484
 20
1302.720163
 42
-0.000121
  0
VERTEX
  8
0
 10
2449.439908
 20
1320.699286
 42
-0.000073
  0
VERTEX
  8
0
 10
2439.516408
 20
1342.000000
 42
0.000044
  0
VERTEX
  8
0
 10
2428.981672
 20
1364.616205
 42
0.000047
  0
VERTEX
  8
0
 10
2418.700832
 20
1386.676810
 42
0.000045
  0
VERTEX
  8
0
 10
2409.873167
 20
1405.610092
 42
0.000227
  0
VERTEX
  8
0
 10
2404.949572
 20
1416.155099
 42
0.000000
  0
VERTEX
  8
0
 10
2396.228961
 20
1434.810199
 42
0.000000
  0
VERTEX
  8
0
 10
2470.364481
 20
1469.403235
 42
-0.000273
  0
VERTEX
  8
0
 10
2498.826287
 20
1482.665147
 42
-0.000451
  0
VERTEX
  8
0
 10
2522.869566
 20
1493.825873
 42
-0.000017
  0
VERTEX
  8
0
 10
2544.609656
 20
1503.892718
 42
-0.123811
  0
VERTEX
  8
0
 10
2545.000000
 20
1503.966678
 42
-0.274204
  0
VERTEX
  8
0
 10
2545.291889
 20
1503.769391
 42
-0.000033
  0
VERTEX
  8
0
 10
2555.340625
 20
1482.485907
 42
-0.000851
  0
VERTEX
  8
0
 10
2566.427103
 20
1458.896482
 42
-0.000513
  0
SEQEND
  0
POLYLINE
  8
0
 66
1
 70
1
  0
VERTEX
  8
0
 10
900.500000
 20
1464.019587
 42
-0.000114
  0
VERTEX
  8
0
 10
926.206801
 20
1452.028573
 42
-0.000189
  0
VERTEX
  8
0
 10
947.886524
 20
1441.899970
 42
-0.000005
  0
VERTEX
  8
0
 10
967.520974
 20
1432.717605
 42
-0.073575
  0
VERTEX
  8
0
 10
967.730720
 20
1432.578881
 42
-0.330242
  0
VERTEX
  8
0
 10
967.814382
 20
1432.169601
 42
-0.000005
  0
VERTEX
  8
0
 10
933.496832
 20
1358.570072
 42
-0.000014
  0
VERTEX
  8
0
 10
899.369745
 20
1285.386134
 42
-0.087479
  0
VERTEX
  8
0
 10
898.552811
 20
1284.219477
 42
-0.314915
  0
VERTEX
  8
0
 10
897.764765
 20
1284.079956
 42
-0.000017
  0
VERTEX
  8
0
 10
824.967566
 20
1317.905127
 42
-0.000050
  0
VERTEX
  8
0
 10
752.974669
 20
1351.368395
 42
-0.082974
  0
VERTEX
  8
0
 10
750.707827
 20
1352.921802
 42
-0.316539
  0
VERTEX
  8
0
 10
750.569689
 20
1353.634946
 42
-0.000198
  0
VERTEX
  8
0
 10
759.451742
 20
1373.408273
 42
-0.002154
  0
VERTEX
  8
0
 10
769.499985
 20
1395.499269
 42
-0.001301
  0
VERTEX
  8
0
 10
781.586760
 20
1421.592173
 42
0.000096
  0
VERTEX
  8
0
 10
793.926325
 20
1448.063380
 42
0.000140
  0
VERTEX
  8
0
 10
804.781429
 20
1471.378786
 42
0.000067
  0
VERTEX
  8
0
 10
814.013089
 20
1491.228686
 42
0.002522
  0
VERTEX
  8
0
 10
816.073016
 20
1495.718589
 42
0.000000
  0
VERTEX
  8
0
 10
818.888166
 20
1501.937178
 42
0.000000
  0
VERTEX
  8
0
 10
826.194083
 20
1498.595243
 42
-0.001569
  0
VERTEX
  8
0
 10
831.348761
 20
1496.217757
 42
-0.000056
  0
VERTEX
  8
0
 10
851.035137
 20
1487.060096
 42
-0.000104
  0
VERTEX
  8
0
 10
874.299858
 20
1476.228793
 42
-0.000073
  0
SEQEND
  0
POLYLINE
  8
0
 66
1
 70
1
  0
VERTEX
  8
0
 10
2085.912132
 20
1427.206902
 42
-0.000903
  0
VERTEX
  8
0
 10
2098.971930
 20
1399.047301
 42
-0.001491
  0
VERTEX
  8
0
 10
2109.888450
 20
1375.210691
 42
-0.000107
  0
VERTEX
  8
0
 10
2119.617166
 20
1353.787015
 42
-0.249923
  0
VERTEX
  8
0
 10
2119.574627
 20
1353.120748
 42
-0.146330
  0
VERTEX
  8
0
 10
2118.215032
 20
1351.912266
 42
-0.000038
  0
VERTEX
  8
0
 10
2045.487106
 20
1318.032684
 42
-0.000022
  0
VERTEX
  8
0
 10
1972.407519
 20
1284.000122
 42
-0.315147
  0
VERTEX
  8
0
 10
1971.507611
 20
1284.159056
 42
-0.086781
  0
VERTEX
  8
0
 10
1971.230031
 20
1284.554298
 42
-0.000018
  0
VERTEX
  8
0
 10
1961.070684
 20
1306.184166
 42
-0.000389
  0
VERTEX
  8
0
 10
1949.836127
 20
1330.153877
 42
-0.000236
  0
VERTEX
  8
0
 10
1936.573954
 20
1358.541849
 42
-0.000444
  0
VERTEX
  8
0
 10
1914.387687
 20
1406.200792
 42
-0.006964
  0
VERTEX
  8
0
 10
1907.052819
 20
1422.587284
 42
-0.011999
  0
VERTEX
  8
0
 10
1903.450605
 20
1431.529540
 42
-0.394628
  0
VERTEX
  8
0
 10
1904.267000
 20
1433.500000
 42
0.002544
  0
VERTEX
  8
0
 10
1906.001841
 20
1434.298500
 42
0.000009
  0
VERTEX
  8
0
 10
1926.976749
 20
1444.082775
 42
0.000048
  0
VERTEX
  8
0
 10
1950.719038
 20
1455.161229
 42
0.000030
  0
VERTEX
  8
0
 10
1978.484530
 20
1468.122213
 42
-0.000979
  0
VERTEX
  8
0
 10
2006.143141
 20
1480.969452
 42
-0.001623
  0
VERTEX
  8
0
 10
2029.530445
 20
1491.685126
 42
-0.000113
  0
VERTEX
  8
0
 10
2050.546790
 20
1501.226319
 42
-0.310793
  0
VERTEX
  8
0
 10
2051.129752
 20
1501.122213
 42
-0.088085
  0
VERTEX
  8
0
 10
2051.538656
 20
1500.544209
 42
-0.000040
  0
VERTEX
  8
0
 10
2061.606848
 20
1479.152928
 42
-0.000586
  0
VERTEX
  8
0
 10
2072.772251
 20
1455.353214
 42
-0.000357
  0
SEQEND
  0
POLYLINE
  8
0
 66
1
 70
1
  0
VERTEX
  8
0
 10
1072.926420
 20
1318.500000
 42
-0.000650
  0
VERTEX
  8
0
 10
1100.923683
 20
1305.417789
 42
-0.001078
  0
VERTEX
  8
0
 10
1124.499444
 20
1294.302207
 42
-0.000053
  0
VERTEX
  8
0
 10
1145.722940
 20
1284.236951
 42
-0.276227
  0
VERTEX
  8
0
 10
1145.968543
 20
1283.869215
 42
-0.122611
  0
VERTEX
  8
0
 10
1145.622540
 20
1282.109758
 42
-0.000031
  0
VERTEX
  8
0
 10
1111.546328
 20
1209.395844
 42
-0.000017
  0
VERTEX
  8
0
 10
1077.291293
 20
1136.318660
 42
-0.260647
  0
VERTEX
  8
0
 10
1076.566293
 20
1135.798359
 42
-0.137441
  0
VERTEX
  8
0
 10
1075.848471
 20
1135.914673
 42
-0.000006
  0
VERTEX
  8
0
 10
1002.891394
 20
1169.712447
 42
-0.000024
  0
VERTEX
  8
0
 10
930.973824
 20
1203.033831
 42
-0.031211
  0
VERTEX
  8
0
 10
928.251750
 20
1204.507965
 42
-0.377925
  0
VERTEX
  8
0
 10
928.200319
 20
1204.680692
 42
-0.000013
  0
VERTEX
  8
0
 10
937.944297
 20
1225.743611
 42
-0.000572
  0
VERTEX
  8
0
 10
948.732985
 20
1248.993372
 42
-0.000343
  0
VERTEX
  8
0
 10
961.596263
 20
1276.581584
 42
0.000188
  0
VERTEX
  8
0
 10
974.539256
 20
1304.318372
 42
0.000300
  0
VERTEX
  8
0
 10
985.587996
 20
1328.056277
 42
0.000056
  0
VERTEX
  8
0
 10
995.325074
 20
1349.015151
 42
0.015502
  0
VERTEX
  8
0
 10
996.097427
 20
1350.822763
 42
-0.056213
  0
VERTEX
  8
0
 10
996.553025
 20
1351.687080
 42
-0.067871
  0
VERTEX
  8
0
 10
997.166380
 20
1352.368403
 42
-0.080431
  0
VERTEX
  8
0
 10
997.836585
 20
1352.771783
 42
-0.151029
  0
VERTEX
  8
0
 10
998.460791
 20
1352.822763
 42
-0.053381
  0
VERTEX
  8
0
 10
999.589117
 20
1352.442624
 42
-0.000069
  0
VERTEX
  8
0
 10
1020.935242
 20
1342.607312
 42
-0.000607
  0
VERTEX
  8
0
 10
1044.830396
 20
1331.558356
 42
-0.000374
  0
SEQEND
  0
POLYLINE
  8
0
 66
1
 70
1
  0
VERTEX
  8
0
 10
1907.579223
 20
1278.594001
 42
-0.000375
  0
VERTEX
  8
0
 10
1920.767216
 20
1250.239655
 42
-0.000624
  0
VERTEX
  8
0
 10
1931.827394
 20
1226.335319
 42
-0.000016
  0
VERTEX
  8
0
 10
1941.809762
 20
1204.687715
 42
-0.341887
  0
VERTEX
  8
0
 10
1941.760668
 20
1204.474994
 42
-0.062555
  0
VERTEX
  8
0
 10
1940.951623
 20
1203.967569
 42
-0.000004
  0
VERTEX
  8
0
 10
1867.859565
 20
1169.983303
 42
-0.000005
  0
VERTEX
  8
0
 10
1794.844194
 20
1136.036400
 42
-0.052791
  0
VERTEX
  8
0
 10
1793.775928
 20
1135.670845
 42
-0.352777
  0
VERTEX
  8
0
 10
1792.913281
 20
1136.091894
 42
-0.000028
  0
VERTEX
  8
0
 10
1758.384669
 20
1209.746028
 42
-0.000028
  0
VERTEX
  8
0
 10
1723.863096
 20
1283.406604
 42
-0.359453
  0
VERTEX
  8
0
 10
1724.098943
 20
1284.322849
 42
-0.048835
  0
VERTEX
  8
0
 10
1727.462832
 20
1286.298898
 42
-0.000061
  0
VERTEX
  8
0
 10
1798.403294
 20
1319.127050
 42
-0.000023
  0
VERTEX
  8
0
 10
1870.419298
 20
1352.438277
 42
-0.139215
  0
VERTEX
  8
0
 10
1871.818555
 20
1352.659133
 42
-0.255345
  0
VERTEX
  8
0
 10
1872.582981
 20
1352.113273
 42
-0.000216
  0
VERTEX
  8
0
 10
1882.867155
 20
1330.836858
 42
-0.002133
  0
VERTEX
  8
0
 10
1894.278622
 20
1306.942383
 42
-0.001296
  0
SEQEND
  0
POLYLINE
  8
0
 66
1
 70
1
  0
VERTEX
  8
0
 10
570.733400
 20
1304.966529
 42
-0.000858
  0
VERTEX
  8
0
 10
598.651602
 20
1291.888746
 42
-0.001413
  0
VERTEX
  8
0
 10
622.209861
 20
1280.722519
 42
-0.000111
  0
VERTEX
  8
0
 10
643.307419
 20
1270.643758
 42
-0.203532
  0
VERTEX
  8
0
 10
643.807554
 20
1270.077338
 42
-0.192480
  0
VERTEX
  8
0
 10
643.656622
 20
1267.502779
 42
-0.000105
  0
VERTEX
  8
0
 10
609.777811
 20
1195.366661
 42
-0.000074
  0
VERTEX
  8
0
 10
575.708402
 20
1122.892070
 42
-0.352123
  0
VERTEX
  8
0
 10
574.327444
 20
1122.218019
 42
-0.053913
  0
VERTEX
  8
0
 10
569.998876
 20
1123.704368
 42
-0.000094
  0
VERTEX
  8
0
 10
499.532424
 20
1156.764595
 42
-0.000023
  0
VERTEX
  8
0
 10
427.566122
 20
1190.548934
 42
-0.280847
  0
VERTEX
  8
0
 10
427.031457
 20
1191.357479
 42
-0.118212
  0
VERTEX
  8
0
 10
427.238973
 20
1192.388258
 42
-0.000011
  0
VERTEX
  8
0
 10
459.291516
 20
1261.542228
 42
-0.000138
  0
VERTEX
  8
0
 10
489.249494
 20
1326.126538
 42
-0.008887
  0
VERTEX
  8
0
 10
494.671162
 20
1337.282696
 42
-0.033878
  0
VERTEX
  8
0
 10
495.281745
 20
1338.306234
 42
-0.053989
  0
VERTEX
  8
0
 10
495.948058
 20
1339.076008
 42
-0.073178
  0
VERTEX
  8
0
 10
496.566870
 20
1339.502410
 42
-0.258228
  0
VERTEX
  8
0
 10
497.032405
 20
1339.479972
 42
0.028891
  0
VERTEX
  8
0
 10
497.823333
 20
1339.052180
 42
0.000021
  0
VERTEX
  8
0
 10
519.072805
 20
1329.100163
 42
0.000248
  0
VERTEX
  8
0
 10
542.771370
 20
1318.016698
 42
0.000152
  0
SEQEND
  0
POLYLINE
  8
0
 66
1
 70
1
  0
VERTEX
  8
0
 10
2408.463577
 20
1266.500000
 42
-0.000464
  0
VERTEX
  8
0
 10
2421.373394
 20
1238.753902
 42
-0.000746
  0
VERTEX
  8
0
 10
2432.326954
 20
1215.062500
 42
-0.000117
  0
VERTEX
  8
0
 10
2442.003046
 20
1194.038976
 42
-0.046838
  0
VERTEX
  8
0
 10
2442.543120
 20
1192.500000
 42
-0.346501
  0
VERTEX
  8
0
 10
2441.752287
 20
1190.744277
 42
-0.004944
  0
VERTEX
  8
0
 10
2430.799807
 20
1185.172687
 42
-0.005633
  0
VERTEX
  8
0
 10
2412.466413
 20
1176.329441
 42
-0.000614
  0
VERTEX
  8
0
 10
2370.009443
 20
1156.500000
 42
-0.000319
  0
VERTEX
  8
0
 10
2341.919986
 20
1143.444688
 42
-0.000521
  0
VERTEX
  8
0
 10
2318.065422
 20
1132.406349
 42
-0.000051
  0
VERTEX
  8
0
 10
2296.702293
 20
1122.550504
 42
-0.053484
  0
VERTEX
  8
0
 10
2295.733430
 20
1122.223742
 42
-0.347114
  0
VERTEX
  8
0
 10
2294.924765
 20
1122.614158
 42
-0.000357
  0
VERTEX
  8
0
 10
2285.695924
 20
1141.617587
 42
-0.002675
  0
VERTEX
  8
0
 10
2274.769387
 20
1164.468458
 42
-0.001188
  0
VERTEX
  8
0
 10
2260.588444
 20
1194.723742
 42
-0.000336
  0
VERTEX
  8
0
 10
2247.561946
 20
1222.737799
 42
-0.000544
  0
VERTEX
  8
0
 10
2236.524765
 20
1246.583396
 42
-0.000067
  0
VERTEX
  8
0
 10
2226.712737
 20
1267.850217
 42
-0.043665
  0
VERTEX
  8
0
 10
2226.274279
 20
1269.070797
 42
-0.355353
  0
VERTEX
  8
0
 10
2226.842552
 20
1270.325483
 42
-0.001459
  0
VERTEX
  8
0
 10
2241.461743
 20
1277.563577
 42
-0.004048
  0
VERTEX
  8
0
 10
2262.491755
 20
1287.688844
 42
-0.000837
  0
VERTEX
  8
0
 10
2299.680231
 20
1305.148380
 42
-0.000938
  0
VERTEX
  8
0
 10
2328.034857
 20
1318.337898
 42
-0.001553
  0
VERTEX
  8
0
 10
2352.018385
 20
1329.349132
 42
-0.000107
  0
VERTEX
  8
0
 10
2373.577524
 20
1339.160720
 42
-0.288420
  0
VERTEX
  8
0
 10
2374.190866
 20
1339.077583
 42
-0.108696
  0
VERTEX
  8
0
 10
2374.627440
 20
1338.512651
 42
-0.000052
  0
VERTEX
  8
0
 10
2384.543457
 20
1317.519665
 42
-0.000739
  0
VERTEX
  8
0
 10
2395.538146
 20
1294.147307
 42
-0.000450
  0
SEQEND
  0
POLYLINE
  8
0
 66
1
 70
1
  0
VERTEX
  8
0
 10
312.500000
 20
1262.517546
 42
-0.000100
  0
VERTEX
  8
0
 10
337.823800
 20
1250.706989
 42
-0.000166
  0
VERTEX
  8
0
 10
359.182133
 20
1240.731968
 42
-0.000004
  0
VERTEX
  8
0
 10
378.525442
 20
1231.689972
 42
-0.063883
  0
VERTEX
  8
0
 10
378.737049
 20
1231.555865
 42
-0.341013
  0
VERTEX
  8
0
 10
378.834881
 20
1231.120491
 42
-0.000006
  0
VERTEX
  8
0
 10
344.558614
 20
1157.602234
 42
-0.000017
  0
VERTEX
  8
0
 10
310.491561
 20
1084.541238
 42
-0.087486
  0
VERTEX
  8
0
 10
309.596948
 20
1083.263614
 42
-0.314767
  0
VERTEX
  8
0
 10
308.693702
 20
1083.103447
 42
-0.000023
  0
VERTEX
  8
0
 10
236.023005
 20
1116.823488
 42
-0.000064
  0
VERTEX
  8
0
 10
164.223668
 20
1150.154347
 42
-0.085922
  0
VERTEX
  8
0
 10
161.726586
 20
1151.885399
 42
-0.313592
  0
VERTEX
  8
0
 10
161.593803
 20
1152.593182
 42
-0.000186
  0
VERTEX
  8
0
 10
170.624389
 20
1172.670343
 42
-0.002086
  0
VERTEX
  8
0
 10
180.831352
 20
1195.089967
 42
-0.001260
  0
VERTEX
  8
0
 10
193.103053
 20
1221.573414
 42
0.000097
  0
VERTEX
  8
0
 10
205.593153
 20
1248.364643
 42
0.000145
  0
VERTEX
  8
0
 10
216.498111
 20
1271.785242
 42
0.000059
  0
VERTEX
  8
0
 10
225.838681
 20
1291.867371
 42
0.003148
  0
VERTEX
  8
0
 10
227.599163
 20
1295.716772
 42
0.000000
  0
VERTEX
  8
0
 10
229.945390
 20
1300.933545
 42
0.000000
  0
VERTEX
  8
0
 10
238.222695
 20
1297.108071
 42
-0.000694
  0
VERTEX
  8
0
 10
243.942062
 20
1294.455138
 42
-0.000032
  0
VERTEX
  8
0
 10
263.456042
 20
1285.369097
 42
-0.000053
  0
VERTEX
  8
0
 10
286.614101
 20
1274.581533
 42
-0.000038
  0
SEQEND
  0
POLYLINE
  8
0
 66
1
 70
1
  0
VERTEX
  8
0
 10
2674.884784
 20
1226.166513
 42
-0.000846
  0
VERTEX
  8
0
 10
2687.938185
 20
1197.994891
 42
-0.001398
  0
VERTEX
  8
0
 10
2698.854172
 20
1174.156363
 42
-0.000094
  0
VERTEX
  8
0
 10
2708.595246
 20
1152.714805
 42
-0.249974
  0
VERTEX
  8
0
 10
2708.555389
 20
1152.089622
 42
-0.146440
  0
VERTEX
  8
0
 10
2707.092289
 20
1150.789702
 42
-0.000045
  0
VERTEX
  8
0
 10
2634.453063
 20
1116.990619
 42
-0.000026
  0
VERTEX
  8
0
 10
2561.436346
 20
1083.028469
 42
-0.315018
  0
VERTEX
  8
0
 10
2560.466715
 20
1083.199952
 42
-0.088256
  0
VERTEX
  8
0
 10
2558.864037
 20
1085.496246
 42
-0.000055
  0
VERTEX
  8
0
 10
2525.375035
 20
1157.909210
 42
-0.000019
  0
VERTEX
  8
0
 10
2491.519458
 20
1231.143206
 42
-0.436728
  0
VERTEX
  8
0
 10
2491.777233
 20
1231.769362
 42
0.019889
  0
VERTEX
  8
0
 10
2492.355891
 20
1232.011638
 42
0.000007
  0
VERTEX
  8
0
 10
2513.878312
 20
1242.046812
 42
0.000117
  0
VERTEX
  8
0
 10
2537.766918
 20
1253.192496
 42
0.000071
  0
VERTEX
  8
0
 10
2566.000000
 20
1266.378172
 42
-0.000944
  0
VERTEX
  8
0
 10
2594.227674
 20
1279.501393
 42
-0.001565
  0
VERTEX
  8
0
 10
2618.093663
 20
1290.451568
 42
-0.000106
  0
VERTEX
  8
0
 10
2639.549262
 20
1300.209169
 42
-0.308515
  0
VERTEX
  8
0
 10
2640.127364
 20
1300.108809
 42
-0.090455
  0
VERTEX
  8
0
 10
2640.533330
 20
1299.540144
 42
-0.000040
  0
VERTEX
  8
0
 10
2650.596144
 20
1278.137126
 42
-0.000593
  0
VERTEX
  8
0
 10
2661.753710
 20
1254.327389
 42
-0.000361
  0
SEQEND
  0
POLYLINE
  8
0
 66
1
 70
1
  0
VERTEX
  8
0
 10
799.500000
 20
1263.540727
 42
-0.000394
  0
VERTEX
  8
0
 10
827.154715
 20
1250.584596
 42
-0.000645
  0
VERTEX
  8
0
 10
850.551150
 20
1239.564095
 42
-0.000049
  0
VERTEX
  8
0
 10
871.551148
 20
1229.636738
 42
-0.086925
  0
VERTEX
  8
0
 10
872.184767
 20
1229.189056
 42
-0.313090
  0
VERTEX
  8
0
 10
872.335261
 20
1228.340029
 42
-0.000020
  0
VERTEX
  8
0
 10
838.532034
 20
1154.915048
 42
-0.000040
  0
VERTEX
  8
0
 10
804.932782
 20
1081.955905
 42
-0.122234
  0
VERTEX
  8
0
 10
803.666070
 20
1080.373063
 42
-0.278727
  0
VERTEX
  8
0
 10
803.519893
 20
1080.357071
 42
-0.000006
  0
VERTEX
  8
0
 10
781.958158
 20
1090.368610
 42
-0.000356
  0
VERTEX
  8
0
 10
758.195249
 20
1101.423126
 42
-0.000214
  0
VERTEX
  8
0
 10
730.000000
 20
1114.578710
 42
0.000078
  0
VERTEX
  8
0
 10
701.755412
 20
1127.766656
 42
0.000128
  0
VERTEX
  8
0
 10
677.828981
 20
1138.926341
 42
0.000009
  0
VERTEX
  8
0
 10
656.321347
 20
1148.950656
 42
0.017564
  0
VERTEX
  8
0
 10
655.609297
 20
1149.252548
 42
-0.431032
  0
VERTEX
  8
0
 10
655.407239
 20
1149.742740
 42
-0.000169
  0
VERTEX
  8
0
 10
664.023423
 20
1168.867281
 42
-0.002046
  0
VERTEX
  8
0
 10
673.763158
 20
1190.232417
 42
-0.001225
  0
VERTEX
  8
0
 10
685.503902
 20
1215.546901
 42
0.000049
  0
VERTEX
  8
0
 10
697.578272
 20
1241.421066
 42
0.000068
  0
VERTEX
  8
0
 10
708.380605
 20
1264.583437
 42
0.000041
  0
VERTEX
  8
0
 10
717.475624
 20
1284.096046
 42
0.000878
  0
VERTEX
  8
0
 10
720.151608
 20
1289.864800
 42
-0.007834
  0
VERTEX
  8
0
 10
722.209602
 20
1294.144336
 42
-0.039042
  0
VERTEX
  8
0
 10
723.583483
 20
1296.426181
 42
-0.082993
  0
VERTEX
  8
0
 10
724.695738
 20
1297.537969
 42
-0.230425
  0
VERTEX
  8
0
 10
725.757004
 20
1297.716471
 42
-0.036862
  0
VERTEX
  8
0
 10
727.111019
 20
1297.206819
 42
-0.000072
  0
VERTEX
  8
0
 10
748.137995
 20
1287.465680
 42
-0.000519
  0
VERTEX
  8
0
 10
771.771765
 20
1276.482937
 42
-0.000322
  0
SEQEND
  0
POLYLINE
  8
0
 66
1
 70
1
  0
VERTEX
  8
0
 10
2180.705779
 20
1223.925470
 42
-0.000244
  0
VERTEX
  8
0
 10
2193.842777
 20
1195.733447
 42
-0.000403
  0
VERTEX
  8
0
 10
2204.906147
 20
1171.910991
 42
-0.000017
  0
VERTEX
  8
0
 10
2214.882605
 20
1150.381665
 42
-0.100522
  0
VERTEX
  8
0
 10
2214.982189
 20
1149.963010
 42
-0.298898
  0
VERTEX
  8
0
 10
2214.791047
 20
1149.649659
 42
-0.000040
  0
VERTEX
  8
0
 10
2193.624456
 20
1139.630756
 42
-0.000959
  0
VERTEX
  8
0
 10
2170.144053
 20
1128.574018
 42
-0.000577
  0
VERTEX
  8
0
 10
2142.250000
 20
1115.543452
 42
0.000040
  0
VERTEX
  8
0
 10
2114.247047
 20
1102.498658
 42
0.000064
  0
VERTEX
  8
0
 10
2090.411429
 20
1091.389141
 42
0.000008
  0
VERTEX
  8
0
 10
2069.192993
 20
1081.495717
 42
0.004779
  0
VERTEX
  8
0
 10
2067.937843
 20
1080.895789
 42
-0.410817
  0
VERTEX
  8
0
 10
2066.599884
 20
1081.345366
 42
-0.002350
  0
VERTEX
  8
0
 10
2060.113204
 20
1094.361265
 42
-0.004643
  0
VERTEX
  8
0
 10
2050.545686
 20
1114.251068
 42
-0.000743
  0
VERTEX
  8
0
 10
2032.270285
 20
1153.315347
 42
-0.000309
  0
VERTEX
  8
0
 10
2019.170680
 20
1181.470468
 42
-0.000503
  0
VERTEX
  8
0
 10
2008.085690
 20
1205.397151
 42
-0.000053
  0
VERTEX
  8
0
 10
1998.200098
 20
1226.797351
 42
-0.047623
  0
VERTEX
  8
0
 10
1997.832442
 20
1227.845166
 42
-0.352775
  0
VERTEX
  8
0
 10
1998.277319
 20
1228.800022
 42
-0.000594
  0
VERTEX
  8
0
 10
2015.721842
 20
1237.341296
 42
-0.003128
  0
VERTEX
  8
0
 10
2038.122098
 20
1248.103050
 42
-0.001046
  0
VERTEX
  8
0
 10
2071.000000
 20
1263.562102
 42
-0.000781
  0
VERTEX
  8
0
 10
2099.251144
 20
1276.719831
 42
-0.001284
  0
VERTEX
  8
0
 10
2123.195367
 20
1287.751547
 42
-0.000100
  0
VERTEX
  8
0
 10
2144.704576
 20
1297.589303
 42
-0.181879
  0
VERTEX
  8
0
 10
2145.473590
 20
1297.642406
 42
-0.211476
  0
VERTEX
  8
0
 10
2146.045801
 20
1297.152867
 42
-0.000113
  0
VERTEX
  8
0
 10
2156.224651
 20
1275.867827
 42
-0.001445
  0
VERTEX
  8
0
 10
2167.500315
 20
1252.099223
 42
-0.000877
  0
SEQEND
  0
POLYLINE
  8
0
 66
1
 70
1
  0
VERTEX
  8
0
 10
1265.443545
 20
1196.081847
 42
-0.000226
  0
VERTEX
  8
0
 10
1292.673299
 20
1183.348655
 42
-0.000373
  0
VERTEX
  8
0
 10
1315.662310
 20
1172.564940
 42
-0.000016
  0
VERTEX
  8
0
 10
1336.414042
 20
1162.810961
 42
-0.086711
  0
VERTEX
  8
0
 10
1336.778192
 20
1162.555142
 42
-0.314945
  0
VERTEX
  8
0
 10
1336.905919
 20
1161.833477
 42
-0.000015
  0
VERTEX
  8
0
 10
1303.036921
 20
1088.962262
 42
-0.000044
  0
VERTEX
  8
0
 10
1269.521102
 20
1016.872851
 42
-0.079755
  0
VERTEX
  8
0
 10
1268.054823
 20
1014.703873
 42
-0.324455
  0
VERTEX
  8
0
 10
1266.075768
 20
1014.323891
 42
-0.000114
  0
VERTEX
  8
0
 10
1193.360229
 20
1048.380661
 42
-0.000111
  0
VERTEX
  8
0
 10
1120.630083
 20
1082.484233
 42
-0.355148
  0
VERTEX
  8
0
 10
1119.814421
 20
1084.174493
 42
-0.049915
  0
VERTEX
  8
0
 10
1120.170916
 20
1085.206349
 42
-0.000054
  0
VERTEX
  8
0
 10
1130.052872
 20
1106.611783
 42
-0.000518
  0
VERTEX
  8
0
 10
1141.131554
 20
1130.537502
 42
-0.000319
  0
VERTEX
  8
0
 10
1154.227197
 20
1158.695408
 42
0.000000
  0
VERTEX
  8
0
 10
1188.325552
 20
1231.890816
 42
0.000000
  0
VERTEX
  8
0
 10
1191.412776
 20
1230.554133
 42
-0.006752
  0
VERTEX
  8
0
 10
1193.791988
 20
1229.485623
 42
-0.000045
  0
VERTEX
  8
0
 10
1214.432794
 20
1219.876518
 42
-0.000178
  0
VERTEX
  8
0
 10
1238.027691
 20
1208.879368
 42
-0.000114
  0
SEQEND
  0
POLYLINE
  8
0
 66
1
 70
1
  0
VERTEX
  8
0
 10
1716.412783
 20
1157.462419
 42
-0.001051
  0
VERTEX
  8
0
 10
1729.589099
 20
1129.058659
 42
-0.001743
  0
VERTEX
  8
0
 10
1740.568530
 20
1105.040018
 42
-0.000129
  0
VERTEX
  8
0
 10
1750.329132
 20
1083.474548
 42
-0.322043
  0
VERTEX
  8
0
 10
1750.204268
 20
1082.853317
 42
-0.079557
  0
VERTEX
  8
0
 10
1746.717195
 20
1080.515722
 42
-0.000115
  0
VERTEX
  8
0
 10
1675.552077
 20
1047.744659
 42
-0.000038
  0
VERTEX
  8
0
 10
1603.142977
 20
1014.427628
 42
-0.325819
  0
VERTEX
  8
0
 10
1602.015499
 20
1014.654749
 42
-0.076722
  0
VERTEX
  8
0
 10
1600.681482
 20
1016.651781
 42
-0.000035
  0
VERTEX
  8
0
 10
1567.044837
 20
1088.902930
 42
-0.000011
  0
VERTEX
  8
0
 10
1533.075907
 20
1161.885497
 42
-0.315397
  0
VERTEX
  8
0
 10
1533.188609
 20
1162.521263
 42
-0.087432
  0
VERTEX
  8
0
 10
1534.147799
 20
1163.191495
 42
-0.000009
  0
VERTEX
  8
0
 10
1607.580464
 20
1197.354454
 42
-0.000003
  0
VERTEX
  8
0
 10
1681.350052
 20
1231.671901
 42
-0.307478
  0
VERTEX
  8
0
 10
1681.708516
 20
1231.613614
 42
-0.094087
  0
VERTEX
  8
0
 10
1681.844052
 20
1231.425905
 42
-0.000004
  0
VERTEX
  8
0
 10
1691.988907
 20
1209.750309
 42
-0.000201
  0
VERTEX
  8
0
 10
1703.170786
 20
1185.833387
 42
-0.000121
  0
SEQEND
  0
POLYLINE
  8
0
 66
1
 70
1
  0
VERTEX
  8
0
 10
976.276306
 20
1115.879752
 42
-0.000430
  0
VERTEX
  8
0
 10
1004.414774
 20
1102.738541
 42
-0.000701
  0
VERTEX
  8
0
 10
1028.254210
 20
1091.539291
 42
-0.000065
  0
VERTEX
  8
0
 10
1049.589526
 20
1081.476449
 42
-0.076109
  0
VERTEX
  8
0
 10
1050.397601
 20
1080.932150
 42
-0.325149
  0
VERTEX
  8
0
 10
1050.642586
 20
1079.707039
 42
-0.000045
  0
VERTEX
  8
0
 10
1017.339069
 20
1007.368716
 42
-0.000123
  0
VERTEX
  8
0
 10
984.541814
 20
936.192946
 42
-0.088120
  0
VERTEX
  8
0
 10
982.188015
 20
932.809518
 42
-0.312538
  0
VERTEX
  8
0
 10
981.548815
 20
932.692312
 42
-0.000130
  0
VERTEX
  8
0
 10
959.921072
 20
942.474134
 42
-0.001740
  0
VERTEX
  8
0
 10
935.832313
 20
953.477717
 42
-0.001050
  0
VERTEX
  8
0
 10
907.351803
 20
966.679952
 42
0.000000
  0
VERTEX
  8
0
 10
833.203605
 20
1001.240868
 42
0.000000
  0
VERTEX
  8
0
 10
835.575972
 20
1006.370434
 42
-0.000831
  0
VERTEX
  8
0
 10
851.858906
 20
1041.424613
 42
-0.000281
  0
VERTEX
  8
0
 10
875.673025
 20
1092.395008
 42
-0.000003
  0
VERTEX
  8
0
 10
902.554566
 20
1149.845649
 42
-0.282822
  0
VERTEX
  8
0
 10
902.776306
 20
1149.991529
 42
-0.116815
  0
VERTEX
  8
0
 10
902.992670
 20
1149.947235
 42
-0.000005
  0
VERTEX
  8
0
 10
924.480907
 20
1139.974689
 42
-0.000240
  0
VERTEX
  8
0
 10
948.179584
 20
1128.962195
 42
-0.000144
  0
SEQEND
  0
POLYLINE
  8
0
 66
1
 70
1
  0
VERTEX
  8
0
 10
1997.941822
 20
1084.750000
 42
-0.000017
  0
VERTEX
  8
0
 10
2009.896602
 20
1059.090306
 42
-0.000023
  0
VERTEX
  8
0
 10
2020.659629
 20
1035.983704
 42
-0.000015
  0
VERTEX
  8
0
 10
2029.703722
 20
1016.563498
 42
-0.000274
  0
VERTEX
  8
0
 10
2032.586158
 20
1010.364738
 42
0.000000
  0
VERTEX
  8
0
 10
2036.827987
 20
1001.229477
 42
0.000000
  0
VERTEX
  8
0
 10
1962.704342
 20
966.624390
 42
-0.001116
  0
VERTEX
  8
0
 10
1934.231089
 20
953.408814
 42
-0.001850
  0
VERTEX
  8
0
 10
1910.143503
 20
942.402024
 42
-0.000146
  0
VERTEX
  8
0
 10
1888.534190
 20
932.631785
 42
-0.316145
  0
VERTEX
  8
0
 10
1887.862347
 20
932.759651
 42
-0.084450
  0
VERTEX
  8
0
 10
1885.905134
 20
935.609364
 42
-0.000082
  0
VERTEX
  8
0
 10
1852.804004
 20
1007.187814
 42
-0.000029
  0
VERTEX
  8
0
 10
1819.261859
 20
1079.762121
 42
-0.314349
  0
VERTEX
  8
0
 10
1819.442392
 20
1080.775725
 42
-0.087018
  0
VERTEX
  8
0
 10
1820.509220
 20
1081.524212
 42
-0.000012
  0
VERTEX
  8
0
 10
1893.067817
 20
1115.521975
 42
-0.000014
  0
VERTEX
  8
0
 10
1965.505649
 20
1149.458623
 42
-0.071344
  0
VERTEX
  8
0
 10
1967.019658
 20
1149.919757
 42
-0.331603
  0
VERTEX
  8
0
 10
1967.323859
 20
1149.758600
 42
-0.000050
  0
VERTEX
  8
0
 10
1976.317403
 20
1130.809241
 42
-0.001093
  0
VERTEX
  8
0
 10
1986.246838
 20
1109.763897
 42
-0.000657
  0
SEQEND
  0
POLYLINE
  8
0
 66
1
 70
1
  0
VERTEX
  8
0
 10
476.000000
 20
1101.518969
 42
-0.001277
  0
VERTEX
  8
0
 10
504.823339
 20
1087.944273
 42
-0.002311
  0
VERTEX
  8
0
 10
528.334857
 20
1076.664396
 42
-0.000231
  0
VERTEX
  8
0
 10
548.889611
 20
1066.674176
 42
-0.352525
  0
VERTEX
  8
0
 10
549.219292
 20
1065.974038
 42
-0.049346
  0
VERTEX
  8
0
 10
548.768909
 20
1064.685991
 42
-0.000007
  0
VERTEX
  8
0
 10
515.038289
 20
992.098170
 42
-0.000007
  0
VERTEX
  8
0
 10
481.312837
 20
919.527002
 42
-0.048082
  0
VERTEX
  8
0
 10
480.603781
 20
918.319977
 42
-0.359278
  0
VERTEX
  8
0
 10
480.284962
 20
918.237298
 42
-0.000003
  0
VERTEX
  8
0
 10
406.542944
 20
952.602793
 42
-0.000010
  0
VERTEX
  8
0
 10
333.156835
 20
986.804763
 42
-0.087536
  0
VERTEX
  8
0
 10
332.173509
 20
987.493157
 42
-0.314425
  0
VERTEX
  8
0
 10
332.062952
 20
988.114386
 42
-0.000013
  0
VERTEX
  8
0
 10
362.564819
 20
1054.067813
 42
-0.000366
  0
VERTEX
  8
0
 10
389.920729
 20
1113.101318
 42
-0.007098
  0
VERTEX
  8
0
 10
398.662170
 20
1131.250000
 42
-0.011928
  0
VERTEX
  8
0
 10
399.624087
 20
1133.066883
 42
-0.018183
  0
VERTEX
  8
0
 10
400.552421
 20
1134.590824
 42
-0.013092
  0
VERTEX
  8
0
 10
401.377070
 20
1135.771528
 42
-0.255134
  0
VERTEX
  8
0
 10
401.766846
 20
1135.952806
 42
-0.092745
  0
VERTEX
  8
0
 10
402.336837
 20
1135.807722
 42
-0.000029
  0
VERTEX
  8
0
 10
423.875261
 20
1125.818399
 42
-0.000509
  0
VERTEX
  8
0
 10
447.765902
 20
1114.706885
 42
-0.000309
  0
SEQEND
  0
POLYLINE
  8
0
 66
1
 70
1
  0
VERTEX
  8
0
 10
2503.750000
 20
1062.007333
 42
-0.000339
  0
VERTEX
  8
0
 10
2516.882214
 20
1033.838976
 42
-0.000559
  0
VERTEX
  8
0
 10
2527.939063
 20
1010.010589
 42
-0.000030
  0
VERTEX
  8
0
 10
2537.881553
 20
988.517485
 42
-0.108729
  0
VERTEX
  8
0
 10
2538.000000
 20
987.979236
 42
-0.290792
  0
VERTEX
  8
0
 10
2537.562615
 20
987.290774
 42
-0.000016
  0
VERTEX
  8
0
 10
2463.858115
 20
952.699078
 42
-0.000015
  0
VERTEX
  8
0
 10
2390.116050
 20
918.095251
 42
-0.368550
  0
VERTEX
  8
0
 10
2389.465692
 20
918.273484
 42
-0.040499
  0
VERTEX
  8
0
 10
2388.752715
 20
919.529919
 42
-0.000007
  0
VERTEX
  8
0
 10
2354.939392
 20
992.261143
 42
-0.000005
  0
VERTEX
  8
0
 10
2321.055877
 20
1065.147760
 42
-0.053550
  0
VERTEX
  8
0
 10
2320.702513
 20
1066.185662
 42
-0.351699
  0
VERTEX
  8
0
 10
2321.230642
 20
1067.264548
 42
-0.000045
  0
VERTEX
  8
0
 10
2393.929396
 20
1101.410462
 42
-0.000070
  0
VERTEX
  8
0
 10
2466.267551
 20
1135.366776
 42
-0.171516
  0
VERTEX
  8
0
 10
2468.500000
 20
1135.588542
 42
-0.224365
  0
VERTEX
  8
0
 10
2469.085456
 20
1135.113036
 42
-0.000121
  0
VERTEX
  8
0
 10
2479.267188
 20
1113.872804
 42
-0.001530
  0
VERTEX
  8
0
 10
2490.545893
 20
1090.143465
 42
-0.000928
  0
SEQEND
  0
POLYLINE
  8
0
 66
1
 70
1
  0
VERTEX
  8
0
 10
210.000000
 20
1062.607626
 42
-0.001038
  0
VERTEX
  8
0
 10
243.044217
 20
1047.074386
 42
-0.003162
  0
VERTEX
  8
0
 10
265.400481
 20
1036.335049
 42
-0.000620
  0
VERTEX
  8
0
 10
282.730271
 20
1027.848357
 42
-0.344717
  0
VERTEX
  8
0
 10
283.202372
 20
1026.871653
 42
-0.054633
  0
VERTEX
  8
0
 10
282.846154
 20
1025.806834
 42
-0.000062
  0
VERTEX
  8
0
 10
272.982455
 20
1004.418949
 42
-0.000584
  0
VERTEX
  8
0
 10
261.914780
 20
980.501767
 42
-0.000359
  0
VERTEX
  8
0
 10
248.829109
 20
952.363066
 42
0.000000
  0
VERTEX
  8
0
 10
214.753474
 20
879.226132
 42
0.000000
  0
VERTEX
  8
0
 10
207.626737
 20
882.486412
 42
-0.001812
  0
VERTEX
  8
0
 10
189.691552
 20
890.769966
 42
-0.000092
  0
VERTEX
  8
0
 10
131.604453
 20
917.866971
 42
-0.000003
  0
VERTEX
  8
0
 10
66.685569
 20
948.165966
 42
-0.077169
  0
VERTEX
  8
0
 10
66.196416
 20
948.493984
 42
-0.325848
  0
VERTEX
  8
0
 10
66.117982
 20
948.888901
 42
-0.000005
  0
VERTEX
  8
0
 10
99.757485
 20
1021.480050
 42
-0.000042
  0
VERTEX
  8
0
 10
132.606867
 20
1092.348915
 42
-0.026154
  0
VERTEX
  8
0
 10
134.669767
 20
1096.250000
 42
-0.061751
  0
VERTEX
  8
0
 10
134.892537
 20
1096.535816
 42
-0.053004
  0
VERTEX
  8
0
 10
135.189332
 20
1096.775567
 42
-0.055561
  0
VERTEX
  8
0
 10
135.511578
 20
1096.936253
 42
-0.093232
  0
VERTEX
  8
0
 10
135.809017
 20
1096.985974
 42
-0.103748
  0
VERTEX
  8
0
 10
136.346204
 20
1096.861864
 42
-0.000028
  0
VERTEX
  8
0
 10
157.887649
 20
1086.881548
 42
-0.000533
  0
VERTEX
  8
0
 10
181.768768
 20
1075.784678
 42
-0.000323
  0
SEQEND
  0
POLYLINE
  8
0
 66
1
 70
1
  0
VERTEX
  8
0
 10
2769.676291
 20
1022.929794
 42
-0.000241
  0
VERTEX
  8
0
 10
2782.813065
 20
994.734040
 42
-0.000399
  0
VERTEX
  8
0
 10
2793.879007
 20
970.903337
 42
-0.000017
  0
VERTEX
  8
0
 10
2803.854062
 20
949.375001
 42
-0.093631
  0
VERTEX
  8
0
 10
2803.965673
 20
948.932629
 42
-0.306326
  0
VERTEX
  8
0
 10
2803.769900
 20
948.601597
 42
-0.000046
  0
VERTEX
  8
0
 10
2782.619604
 20
938.589323
 42
-0.001026
  0
VERTEX
  8
0
 10
2759.142872
 20
927.537281
 42
-0.000618
  0
VERTEX
  8
0
 10
2731.250000
 20
914.518109
 42
0.000046
  0
VERTEX
  8
0
 10
2703.246616
 20
901.486299
 42
0.000075
  0
VERTEX
  8
0
 10
2679.409557
 20
890.386333
 42
0.000010
  0
VERTEX
  8
0
 10
2658.192466
 20
880.502008
 42
0.005544
  0
VERTEX
  8
0
 10
2656.931472
 20
879.897418
 42
-0.411460
  0
VERTEX
  8
0
 10
2655.584052
 20
880.347722
 42
-0.002416
  0
VERTEX
  8
0
 10
2649.131939
 20
893.281143
 42
-0.004677
  0
VERTEX
  8
0
 10
2639.586503
 20
913.114679
 42
-0.000738
  0
VERTEX
  8
0
 10
2621.241874
 20
952.311937
 42
-0.000338
  0
VERTEX
  8
0
 10
2608.137849
 20
980.469134
 42
-0.000550
  0
VERTEX
  8
0
 10
2597.052688
 20
1004.399287
 42
-0.000058
  0
VERTEX
  8
0
 10
2587.169964
 20
1025.801861
 42
-0.051899
  0
VERTEX
  8
0
 10
2586.810402
 20
1026.855850
 42
-0.348018
  0
VERTEX
  8
0
 10
2587.268426
 20
1027.816858
 42
-0.000596
  0
VERTEX
  8
0
 10
2604.714262
 20
1036.352621
 42
-0.003128
  0
VERTEX
  8
0
 10
2627.118128
 20
1047.108113
 42
-0.001047
  0
VERTEX
  8
0
 10
2660.000000
 20
1062.557338
 42
-0.000754
  0
VERTEX
  8
0
 10
2688.250221
 20
1075.706475
 42
-0.001239
  0
VERTEX
  8
0
 10
2712.191556
 20
1086.734135
 42
-0.000095
  0
VERTEX
  8
0
 10
2733.703247
 20
1096.573172
 42
-0.177948
  0
VERTEX
  8
0
 10
2734.460618
 20
1096.631282
 42
-0.215490
  0
VERTEX
  8
0
 10
2735.024568
 20
1096.156155
 42
-0.000110
  0
VERTEX
  8
0
 10
2745.201476
 20
1074.869396
 42
-0.001439
  0
VERTEX
  8
0
 10
2756.473085
 20
1051.103859
 42
-0.000874
  0
SEQEND
  0
POLYLINE
  8
0
 66
1
 70
1
  0
VERTEX
  8
0
 10
703.368946
 20
1060.645576
 42
-0.000285
  0
VERTEX
  8
0
 10
731.653561
 20
1047.436583
 42
-0.000470
  0
VERTEX
  8
0
 10
755.551016
 20
1036.232417
 42
-0.000026
  0
VERTEX
  8
0
 10
777.078706
 20
1026.113245
 42
-0.086702
  0
VERTEX
  8
0
 10
777.554003
 20
1025.779330
 42
-0.314432
  0
VERTEX
  8
0
 10
777.701624
 20
1024.949782
 42
-0.000019
  0
VERTEX
  8
0
 10
744.039886
 20
952.170844
 42
-0.000060
  0
VERTEX
  8
0
 10
710.799063
 20
880.331742
 42
-0.076850
  0
VERTEX
  8
0
 10
709.077009
 20
877.742443
 42
-0.328216
  0
VERTEX
  8
0
 10
707.282405
 20
877.385701
 42
-0.000095
  0
VERTEX
  8
0
 10
634.414257
 20
911.533973
 42
-0.000093
  0
VERTEX
  8
0
 10
561.537507
 20
945.719722
 42
-0.352213
  0
VERTEX
  8
0
 10
560.777330
 20
947.274681
 42
-0.053242
  0
VERTEX
  8
0
 10
561.431110
 20
949.189840
 42
-0.000017
  0
VERTEX
  8
0
 10
595.131655
 20
1021.640066
 42
-0.000004
  0
VERTEX
  8
0
 10
629.158126
 20
1094.782894
 42
-0.291717
  0
VERTEX
  8
0
 10
629.498577
 20
1095.000000
 42
-0.109257
  0
VERTEX
  8
0
 10
629.653100
 20
1094.965827
 42
-0.000002
  0
VERTEX
  8
0
 10
651.279316
 20
1084.908388
 42
-0.000160
  0
VERTEX
  8
0
 10
675.105310
 20
1073.818530
 42
-0.000096
  0
SEQEND
  0
POLYLINE
  8
0
 66
1
 70
1
  0
VERTEX
  8
0
 10
2275.137434
 20
1021.292566
 42
-0.000420
  0
VERTEX
  8
0
 10
2288.312575
 20
992.969886
 42
-0.000691
  0
VERTEX
  8
0
 10
2299.405996
 20
968.983114
 42
-0.000046
  0
VERTEX
  8
0
 10
2309.353263
 20
947.391239
 42
-0.108326
  0
VERTEX
  8
0
 10
2309.500000
 20
946.721892
 42
-0.288833
  0
VERTEX
  8
0
 10
2309.183572
 20
946.219818
 42
-0.000098
  0
VERTEX
  8
0
 10
2287.762500
 20
935.980929
 42
-0.001487
  0
VERTEX
  8
0
 10
2263.874117
 20
924.655648
 42
-0.000898
  0
VERTEX
  8
0
 10
2235.500000
 20
911.369123
 42
-0.000858
  0
VERTEX
  8
0
 10
2198.957240
 20
894.413730
 42
-0.003802
  0
VERTEX
  8
0
 10
2177.368946
 20
884.640502
 42
-0.001184
  0
VERTEX
  8
0
 10
2161.886057
 20
877.816457
 42
-0.375202
  0
VERTEX
  8
0
 10
2160.700722
 20
878.189798
 42
-0.028367
  0
VERTEX
  8
0
 10
2158.107351
 20
883.039587
 42
-0.000072
  0
VERTEX
  8
0
 10
2125.653095
 20
953.029612
 42
-0.000009
  0
VERTEX
  8
0
 10
2092.240553
 20
1025.116931
 42
-0.314660
  0
VERTEX
  8
0
 10
2092.339185
 20
1025.672518
 42
-0.087056
  0
VERTEX
  8
0
 10
2093.154317
 20
1026.244324
 42
-0.000007
  0
VERTEX
  8
0
 10
2166.105641
 20
1060.413569
 42
-0.000008
  0
VERTEX
  8
0
 10
2238.948419
 20
1094.529301
 42
-0.069353
  0
VERTEX
  8
0
 10
2240.137434
 20
1094.896463
 42
-0.333530
  0
VERTEX
  8
0
 10
2240.510585
 20
1094.700850
 42
-0.000059
  0
VERTEX
  8
0
 10
2250.681625
 20
1073.318027
 42
-0.001190
  0
VERTEX
  8
0
 10
2261.915542
 20
1049.547699
 42
-0.000716
  0
SEQEND
  0
POLYLINE
  8
0
 66
1
 70
1
  0
VERTEX
  8
0
 10
1168.914937
 20
993.500000
 42
-0.000711
  0
VERTEX
  8
0
 10
1196.922124
 20
980.413892
 42
-0.001179
  0
VERTEX
  8
0
 10
1220.505046
 20
969.286189
 42
-0.000063
  0
VERTEX
  8
0
 10
1241.714598
 20
959.213885
 42
-0.280294
  0
VERTEX
  8
0
 10
1241.976566
 20
958.814686
 42
-0.118963
  0
VERTEX
  8
0
 10
1241.511769
 20
956.552373
 42
-0.000050
  0
VERTEX
  8
0
 10
1207.435582
 20
884.084769
 42
-0.000023
  0
VERTEX
  8
0
 10
1173.087427
 20
811.066732
 42
-0.353958
  0
VERTEX
  8
0
 10
1172.305478
 20
810.688367
 42
-0.051200
  0
VERTEX
  8
0
 10
1171.672874
 20
810.906493
 42
-0.000020
  0
VERTEX
  8
0
 10
1150.084082
 20
820.922563
 42
-0.000321
  0
VERTEX
  8
0
 10
1126.108977
 20
832.065671
 42
-0.000196
  0
VERTEX
  8
0
 10
1097.789271
 20
845.263669
 42
0.000000
  0
VERTEX
  8
0
 10
1024.078542
 20
879.650604
 42
0.000000
  0
VERTEX
  8
0
 10
1058.706750
 20
953.866372
 42
-0.001128
  0
VERTEX
  8
0
 10
1073.488230
 20
985.360619
 42
-0.002750
  0
VERTEX
  8
0
 10
1084.562342
 20
1008.487642
 42
-0.000398
  0
VERTEX
  8
0
 10
1093.758175
 20
1027.385778
 42
-0.348759
  0
VERTEX
  8
0
 10
1094.605850
 20
1027.791071
 42
-0.051795
  0
VERTEX
  8
0
 10
1095.595366
 20
1027.453636
 42
-0.000051
  0
VERTEX
  8
0
 10
1116.958388
 20
1017.598002
 42
-0.000516
  0
VERTEX
  8
0
 10
1140.821066
 20
1006.556335
 42
-0.000317
  0
SEQEND
  0
POLYLINE
  8
0
 66
1
 70
1
  0
VERTEX
  8
0
 10
1811.503796
 20
953.572381
 42
-0.000332
  0
VERTEX
  8
0
 10
1824.705731
 20
925.212595
 42
-0.000554
  0
VERTEX
  8
0
 10
1835.781050
 20
901.310467
 42
-0.000013
  0
VERTEX
  8
0
 10
1845.786464
 20
879.653059
 42
-0.359305
  0
VERTEX
  8
0
 10
1845.739048
 20
879.472733
 42
-0.047203
  0
VERTEX
  8
0
 10
1844.704863
 20
878.867547
 42
-0.000005
  0
VERTEX
  8
0
 10
1771.733585
 20
844.949466
 42
-0.000004
  0
VERTEX
  8
0
 10
1698.683718
 20
810.996583
 42
-0.055402
  0
VERTEX
  8
0
 10
1697.714121
 20
810.670542
 42
-0.349513
  0
VERTEX
  8
0
 10
1696.955306
 20
811.045351
 42
-0.000022
  0
VERTEX
  8
0
 10
1662.575429
 20
884.170813
 42
-0.000044
  0
VERTEX
  8
0
 10
1628.430980
 20
956.820383
 42
-0.126618
  0
VERTEX
  8
0
 10
1628.039840
 20
958.883462
 42
-0.274171
  0
VERTEX
  8
0
 10
1628.699286
 20
959.847948
 42
-0.000031
  0
VERTEX
  8
0
 10
1701.368580
 20
993.688980
 42
-0.000052
  0
VERTEX
  8
0
 10
1773.666630
 20
1027.342525
 42
-0.142363
  0
VERTEX
  8
0
 10
1775.764749
 20
1027.665478
 42
-0.252807
  0
VERTEX
  8
0
 10
1776.498754
 20
1027.135529
 42
-0.000198
  0
VERTEX
  8
0
 10
1786.784803
 20
1005.832371
 42
-0.002035
  0
VERTEX
  8
0
 10
1798.194700
 20
981.929569
 42
-0.001236
  0
SEQEND
  0
POLYLINE
  8
0
 66
1
 70
1
  0
VERTEX
  8
0
 10
882.811400
 20
911.790939
 42
-0.000771
  0
VERTEX
  8
0
 10
921.363549
 20
893.726759
 42
-0.004480
  0
VERTEX
  8
0
 10
941.594299
 20
883.986932
 42
-0.002090
  0
VERTEX
  8
0
 10
955.057361
 20
877.286015
 42
-0.353897
  0
VERTEX
  8
0
 10
955.683999
 20
875.899611
 42
-0.044052
  0
VERTEX
  8
0
 10
955.218182
 20
874.598618
 42
-0.000077
  0
VERTEX
  8
0
 10
945.429505
 20
853.368619
 42
-0.000586
  0
VERTEX
  8
0
 10
934.401617
 20
829.534225
 42
-0.000363
  0
VERTEX
  8
0
 10
921.391273
 20
801.554677
 42
-0.000883
  0
VERTEX
  8
0
 10
904.577827
 20
765.630718
 42
-0.003947
  0
VERTEX
  8
0
 10
894.518393
 20
744.667392
 42
-0.001299
  0
VERTEX
  8
0
 10
887.207741
 20
729.833419
 42
-0.355448
  0
VERTEX
  8
0
 10
886.008688
 20
729.287477
 42
-0.045762
  0
VERTEX
  8
0
 10
880.935527
 20
731.123459
 42
-0.000113
  0
VERTEX
  8
0
 10
811.151448
 20
763.884603
 42
-0.000023
  0
VERTEX
  8
0
 10
739.524829
 20
797.534474
 42
-0.288056
  0
VERTEX
  8
0
 10
739.008147
 20
798.339450
 42
-0.112720
  0
VERTEX
  8
0
 10
739.614293
 20
801.118001
 42
-0.000073
  0
VERTEX
  8
0
 10
773.363714
 20
872.913215
 42
-0.000035
  0
VERTEX
  8
0
 10
807.438825
 20
945.360337
 42
-0.290004
  0
VERTEX
  8
0
 10
808.447755
 20
946.002143
 42
-0.108661
  0
VERTEX
  8
0
 10
809.260979
 20
945.825036
 42
-0.000068
  0
VERTEX
  8
0
 10
830.726127
 20
935.953486
 42
-0.000848
  0
VERTEX
  8
0
 10
854.627516
 20
924.908448
 42
-0.000517
  0
SEQEND
  0
POLYLINE
  8
0
 66
1
 70
1
  0
VERTEX
  8
0
 10
2096.828466
 20
872.707758
 42
-0.000488
  0
VERTEX
  8
0
 10
2109.930170
 20
844.535015
 42
-0.000800
  0
VERTEX
  8
0
 10
2120.962112
 20
820.652128
 42
-0.000061
  0
VERTEX
  8
0
 10
2130.831152
 20
799.189708
 42
-0.108137
  0
VERTEX
  8
0
 10
2131.000000
 20
798.418126
 42
-0.290538
  0
VERTEX
  8
0
 10
2130.367188
 20
797.421017
 42
-0.000035
  0
VERTEX
  8
0
 10
2057.955502
 20
763.356273
 42
-0.000073
  0
VERTEX
  8
0
 10
1986.214653
 20
729.626025
 42
-0.110282
  0
VERTEX
  8
0
 10
1983.410877
 20
729.000000
 42
-0.290590
  0
VERTEX
  8
0
 10
1982.541554
 20
729.551832
 42
-0.000027
  0
VERTEX
  8
0
 10
1948.936396
 20
801.019721
 42
-0.000135
  0
VERTEX
  8
0
 10
1916.304778
 20
870.475467
 42
-0.045171
  0
VERTEX
  8
0
 10
1914.287471
 20
876.024939
 42
-0.356150
  0
VERTEX
  8
0
 10
1914.830131
 20
877.221086
 42
-0.001266
  0
VERTEX
  8
0
 10
1929.824894
 20
884.614276
 42
-0.003904
  0
VERTEX
  8
0
 10
1950.985919
 20
894.777122
 42
-0.000877
  0
VERTEX
  8
0
 10
1987.192223
 20
911.741555
 42
-0.000493
  0
VERTEX
  8
0
 10
2015.376484
 20
924.853253
 42
-0.000807
  0
VERTEX
  8
0
 10
2039.282640
 20
935.899233
 42
-0.000067
  0
VERTEX
  8
0
 10
2060.745192
 20
945.770675
 42
-0.100337
  0
VERTEX
  8
0
 10
2061.578466
 20
945.966616
 42
-0.296409
  0
VERTEX
  8
0
 10
2062.204472
 20
945.586783
 42
-0.000159
  0
VERTEX
  8
0
 10
2072.378021
 20
924.460597
 42
-0.001901
  0
VERTEX
  8
0
 10
2083.648494
 20
900.807867
 42
-0.001149
  0
SEQEND
  0
POLYLINE
  8
0
 66
1
 70
1
  0
VERTEX
  8
0
 10
383.466645
 20
897.061347
 42
-0.000160
  0
VERTEX
  8
0
 10
410.697562
 20
884.326262
 42
-0.000265
  0
VERTEX
  8
0
 10
433.668266
 20
873.559748
 42
-0.000008
  0
VERTEX
  8
0
 10
454.451596
 20
863.804611
 42
-0.086851
  0
VERTEX
  8
0
 10
454.710492
 20
863.622841
 42
-0.315101
  0
VERTEX
  8
0
 10
454.800574
 20
863.113035
 42
-0.000007
  0
VERTEX
  8
0
 10
420.627057
 20
789.692297
 42
-0.000020
  0
VERTEX
  8
0
 10
386.675739
 20
716.759142
 42
-0.087643
  0
VERTEX
  8
0
 10
385.704509
 20
715.371176
 42
-0.314624
  0
VERTEX
  8
0
 10
384.890918
 20
715.226688
 42
-0.000019
  0
VERTEX
  8
0
 10
312.121929
 20
748.945520
 42
-0.000058
  0
VERTEX
  8
0
 10
240.287649
 20
782.244596
 42
-0.076138
  0
VERTEX
  8
0
 10
237.722049
 20
783.948200
 42
-0.324736
  0
VERTEX
  8
0
 10
237.582123
 20
784.622322
 42
-0.000173
  0
VERTEX
  8
0
 10
246.766477
 20
804.987617
 42
-0.002021
  0
VERTEX
  8
0
 10
257.136995
 20
827.716488
 42
-0.001219
  0
VERTEX
  8
0
 10
269.604036
 20
854.577951
 42
0.000077
  0
VERTEX
  8
0
 10
282.259347
 20
881.682732
 42
0.000117
  0
VERTEX
  8
0
 10
293.231920
 20
905.207315
 42
0.000040
  0
VERTEX
  8
0
 10
302.710292
 20
925.545114
 42
0.003181
  0
VERTEX
  8
0
 10
304.176492
 20
928.744825
 42
0.000000
  0
VERTEX
  8
0
 10
306.089010
 20
932.989649
 42
0.000000
  0
VERTEX
  8
0
 10
309.294505
 20
931.606149
 42
-0.007054
  0
VERTEX
  8
0
 10
311.758434
 20
930.501221
 42
-0.000050
  0
VERTEX
  8
0
 10
332.404838
 20
920.887920
 42
-0.000193
  0
VERTEX
  8
0
 10
356.033711
 20
909.871950
 42
-0.000124
  0
SEQEND
  0
POLYLINE
  8
0
 66
1
 70
1
  0
VERTEX
  8
0
 10
2598.906377
 20
858.088039
 42
-0.001189
  0
VERTEX
  8
0
 10
2611.951568
 20
829.885942
 42
-0.001971
  0
VERTEX
  8
0
 10
2622.807242
 20
806.022662
 42
-0.000165
  0
VERTEX
  8
0
 10
2632.427310
 20
784.633585
 42
-0.319587
  0
VERTEX
  8
0
 10
2632.288039
 20
783.933340
 42
-0.080482
  0
VERTEX
  8
0
 10
2629.918793
 20
782.329110
 42
-0.000053
  0
VERTEX
  8
0
 10
2557.962172
 20
748.938091
 42
-0.000018
  0
VERTEX
  8
0
 10
2485.156726
 20
715.165660
 42
-0.314739
  0
VERTEX
  8
0
 10
2484.359618
 20
715.307049
 42
-0.087571
  0
VERTEX
  8
0
 10
2483.524871
 20
716.499604
 42
-0.000014
  0
VERTEX
  8
0
 10
2449.457346
 20
789.625169
 42
-0.000005
  0
VERTEX
  8
0
 10
2415.197546
 20
863.170985
 42
-0.315604
  0
VERTEX
  8
0
 10
2415.274968
 20
863.607621
 42
-0.088236
  0
VERTEX
  8
0
 10
2417.480121
 20
865.141861
 42
-0.000050
  0
VERTEX
  8
0
 10
2490.017157
 20
898.562833
 42
-0.000018
  0
VERTEX
  8
0
 10
2563.323534
 20
932.326073
 42
-0.324638
  0
VERTEX
  8
0
 10
2564.118338
 20
932.168074
 42
-0.077045
  0
VERTEX
  8
0
 10
2564.526495
 20
931.562377
 42
-0.000037
  0
VERTEX
  8
0
 10
2574.592389
 20
910.131483
 42
-0.000529
  0
VERTEX
  8
0
 10
2585.760823
 20
886.283112
 42
-0.000322
  0
SEQEND
  0
POLYLINE
  8
0
 66
1
 70
1
  0
VERTEX
  8
0
 10
609.946092
 20
856.500000
 42
-0.001275
  0
VERTEX
  8
0
 10
638.771032
 20
843.003494
 42
-0.002355
  0
VERTEX
  8
0
 10
662.118341
 20
831.864391
 42
-0.000243
  0
VERTEX
  8
0
 10
682.434255
 20
822.041668
 42
-0.350777
  0
VERTEX
  8
0
 10
682.772887
 20
821.331998
 42
-0.052456
  0
VERTEX
  8
0
 10
681.067238
 20
816.421902
 42
-0.000119
  0
VERTEX
  8
0
 10
648.142279
 20
746.374058
 42
-0.000028
  0
VERTEX
  8
0
 10
614.387814
 20
674.616159
 42
-0.287232
  0
VERTEX
  8
0
 10
613.500000
 20
674.045024
 42
-0.113448
  0
VERTEX
  8
0
 10
610.747681
 20
674.642254
 42
-0.000072
  0
VERTEX
  8
0
 10
538.787666
 20
708.497865
 42
-0.000032
  0
VERTEX
  8
0
 10
466.142531
 20
742.694377
 42
-0.345560
  0
VERTEX
  8
0
 10
465.678941
 20
743.617644
 42
-0.058481
  0
VERTEX
  8
0
 10
465.905003
 20
744.306927
 42
-0.000031
  0
VERTEX
  8
0
 10
475.263522
 20
764.509558
 42
-0.000425
  0
VERTEX
  8
0
 10
485.698096
 20
786.981294
 42
-0.000259
  0
VERTEX
  8
0
 10
498.056025
 20
813.500000
 42
0.000072
  0
VERTEX
  8
0
 10
510.536630
 20
840.255766
 42
0.000110
  0
VERTEX
  8
0
 10
521.367580
 20
863.497096
 42
0.000038
  0
VERTEX
  8
0
 10
530.714009
 20
883.568422
 42
0.002892
  0
VERTEX
  8
0
 10
532.200094
 20
886.809264
 42
-0.025111
  0
VERTEX
  8
0
 10
533.063989
 20
888.491715
 42
-0.041184
  0
VERTEX
  8
0
 10
533.976766
 20
889.806357
 42
-0.050263
  0
VERTEX
  8
0
 10
534.833294
 20
890.655609
 42
-0.230417
  0
VERTEX
  8
0
 10
535.496215
 20
890.809264
 42
-0.051654
  0
VERTEX
  8
0
 10
536.546090
 20
890.451551
 42
-0.000058
  0
VERTEX
  8
0
 10
557.922822
 20
880.603346
 42
-0.000546
  0
VERTEX
  8
0
 10
581.823177
 20
869.557531
 42
-0.000336
  0
SEQEND
  0
POLYLINE
  8
0
 66
1
 70
1
  0
VERTEX
  8
0
 10
2370.464249
 20
817.000000
 42
-0.001037
  0
VERTEX
  8
0
 10
2383.568762
 20
788.765751
 42
-0.001717
  0
VERTEX
  8
0
 10
2394.496144
 20
764.878557
 42
-0.000129
  0
VERTEX
  8
0
 10
2404.212091
 20
743.430546
 42
-0.298674
  0
VERTEX
  8
0
 10
2404.109877
 20
742.778065
 42
-0.100521
  0
VERTEX
  8
0
 10
2401.743044
 20
741.035805
 42
-0.000071
  0
VERTEX
  8
0
 10
2330.167761
 20
707.858853
 42
-0.000038
  0
VERTEX
  8
0
 10
2257.990780
 20
674.422105
 42
-0.202751
  0
VERTEX
  8
0
 10
2256.475411
 20
674.371062
 42
-0.194663
  0
VERTEX
  8
0
 10
2254.769467
 20
675.963262
 42
-0.000086
  0
VERTEX
  8
0
 10
2220.992466
 20
748.616132
 42
-0.000060
  0
VERTEX
  8
0
 10
2187.085524
 20
821.604224
 42
-0.443423
  0
VERTEX
  8
0
 10
2187.547869
 20
822.697859
 42
0.025101
  0
VERTEX
  8
0
 10
2188.303985
 20
823.005376
 42
0.000015
  0
VERTEX
  8
0
 10
2209.517187
 20
832.901517
 42
0.000196
  0
VERTEX
  8
0
 10
2233.134601
 20
843.931401
 42
0.000120
  0
VERTEX
  8
0
 10
2261.000000
 20
856.966641
 42
-0.000874
  0
VERTEX
  8
0
 10
2288.892387
 20
869.963257
 42
-0.001427
  0
VERTEX
  8
0
 10
2312.594528
 20
880.874898
 42
-0.000148
  0
VERTEX
  8
0
 10
2333.802185
 20
890.557286
 42
-0.145517
  0
VERTEX
  8
0
 10
2334.832437
 20
890.701406
 42
-0.247253
  0
VERTEX
  8
0
 10
2335.605768
 20
890.131849
 42
-0.000220
  0
VERTEX
  8
0
 10
2345.848912
 20
868.968538
 42
-0.002131
  0
VERTEX
  8
0
 10
2357.217444
 20
845.195598
 42
-0.001296
  0
SEQEND
  0
POLYLINE
  8
0
 66
1
 70
1
  0
VERTEX
  8
0
 10
1072.276306
 20
790.879752
 42
-0.000438
  0
VERTEX
  8
0
 10
1100.415745
 20
777.737538
 42
-0.000714
  0
VERTEX
  8
0
 10
1124.258413
 20
766.535088
 42
-0.000068
  0
VERTEX
  8
0
 10
1145.590992
 20
756.471242
 42
-0.076253
  0
VERTEX
  8
0
 10
1146.411910
 20
755.917842
 42
-0.321839
  0
VERTEX
  8
0
 10
1146.585494
 20
755.073227
 42
-0.000265
  0
VERTEX
  8
0
 10
1137.423972
 20
734.589720
 42
-0.002387
  0
VERTEX
  8
0
 10
1126.671489
 20
710.887276
 42
-0.001226
  0
VERTEX
  8
0
 10
1112.985203
 20
681.288090
 42
-0.000088
  0
VERTEX
  8
0
 10
1099.801456
 20
652.971416
 42
-0.000146
  0
VERTEX
  8
0
 10
1088.663279
 20
629.077547
 42
-0.000005
  0
VERTEX
  8
0
 10
1078.576283
 20
607.455694
 42
-0.046791
  0
VERTEX
  8
0
 10
1078.407349
 20
607.167389
 42
-0.358885
  0
VERTEX
  8
0
 10
1078.156891
 20
607.101266
 42
-0.000024
  0
VERTEX
  8
0
 10
1056.365294
 20
617.123503
 42
-0.000765
  0
VERTEX
  8
0
 10
1032.275812
 20
628.248641
 42
-0.000459
  0
VERTEX
  8
0
 10
1003.706518
 20
641.527613
 42
0.000000
  0
VERTEX
  8
0
 10
929.244926
 20
676.220448
 42
0.000000
  0
VERTEX
  8
0
 10
941.657881
 20
702.860224
 42
0.000052
  0
VERTEX
  8
0
 10
947.931865
 20
716.328676
 42
0.000018
  0
VERTEX
  8
0
 10
956.950064
 20
735.695330
 42
0.000018
  0
VERTEX
  8
0
 10
966.870333
 20
757.003257
 42
0.000021
  0
VERTEX
  8
0
 10
976.285418
 20
777.230261
 42
-0.000431
  0
VERTEX
  8
0
 10
984.823268
 20
795.533435
 42
-0.000716
  0
VERTEX
  8
0
 10
992.055631
 20
810.945557
 42
-0.000024
  0
VERTEX
  8
0
 10
998.614837
 20
824.869578
 42
-0.271166
  0
VERTEX
  8
0
 10
998.776306
 20
824.980261
 42
-0.127100
  0
VERTEX
  8
0
 10
998.992888
 20
824.940508
 42
-0.000006
  0
VERTEX
  8
0
 10
1020.480907
 20
814.971379
 42
-0.000259
  0
VERTEX
  8
0
 10
1044.179568
 20
803.961392
 42
-0.000156
  0
SEQEND
  0
POLYLINE
  8
0
 66
1
 70
1
  0
VERTEX
  8
0
 10
1903.775830
 20
755.741529
 42
-0.000021
  0
VERTEX
  8
0
 10
1916.316528
 20
728.834986
 42
-0.000031
  0
VERTEX
  8
0
 10
1927.268981
 20
705.329732
 42
-0.000013
  0
VERTEX
  8
0
 10
1936.661825
 20
685.166998
 42
-0.000685
  0
VERTEX
  8
0
 10
1938.429006
 20
681.359688
 42
0.000000
  0
VERTEX
  8
0
 10
1940.806352
 20
676.219376
 42
0.000000
  0
VERTEX
  8
0
 10
1866.693525
 20
641.619339
 42
-0.001121
  0
VERTEX
  8
0
 10
1838.223779
 20
628.405715
 42
-0.001858
  0
VERTEX
  8
0
 10
1814.137596
 20
617.400541
 42
-0.000148
  0
VERTEX
  8
0
 10
1792.530990
 20
607.632861
 42
-0.314365
  0
VERTEX
  8
0
 10
1791.853056
 20
607.759651
 42
-0.085580
  0
VERTEX
  8
0
 10
1790.307217
 20
609.990363
 42
-0.000051
  0
VERTEX
  8
0
 10
1756.963898
 20
681.715768
 42
-0.000025
  0
VERTEX
  8
0
 10
1723.345020
 20
754.062551
 42
-0.191466
  0
VERTEX
  8
0
 10
1723.273707
 20
755.321120
 42
-0.204959
  0
VERTEX
  8
0
 10
1723.938117
 20
756.069446
 42
-0.000017
  0
VERTEX
  8
0
 10
1796.622250
 20
790.321115
 42
-0.000037
  0
VERTEX
  8
0
 10
1868.738275
 20
824.295696
 42
-0.083648
  0
VERTEX
  8
0
 10
1871.000000
 20
824.929664
 42
-0.318844
  0
VERTEX
  8
0
 10
1871.292335
 20
824.765789
 42
-0.000040
  0
VERTEX
  8
0
 10
1880.834150
 20
804.627674
 42
-0.000970
  0
VERTEX
  8
0
 10
1891.363956
 20
782.287858
 42
-0.000583
  0
SEQEND
  0
POLYLINE
  8
0
 66
1
 70
1
  0
VERTEX
  8
0
 10
731.000000
 20
539.483592
 42
-0.000046
  0
VERTEX
  8
0
 10
752.298215
 20
529.562678
 42
-0.000076
  0
VERTEX
  8
0
 10
770.268970
 20
521.186383
 42
-0.000002
  0
VERTEX
  8
0
 10
786.538520
 20
513.599927
 42
-0.026170
  0
VERTEX
  8
0
 10
786.745430
 20
513.489921
 42
-0.382883
  0
VERTEX
  8
0
 10
786.796874
 20
513.322718
 42
-0.000012
  0
VERTEX
  8
0
 10
776.791898
 20
491.671423
 42
-0.000545
  0
VERTEX
  8
0
 10
765.717989
 20
467.776894
 42
-0.000327
  0
VERTEX
  8
0
 10
752.516420
 20
439.421237
 42
-0.000813
  0
VERTEX
  8
0
 10
734.777278
 20
401.545239
 42
-0.004191
  0
VERTEX
  8
0
 10
724.745604
 20
380.672332
 42
-0.001752
  0
VERTEX
  8
0
 10
717.685409
 20
366.418596
 42
-0.298924
  0
VERTEX
  8
0
 10
716.270990
 20
365.596584
 42
-0.094932
  0
VERTEX
  8
0
 10
714.364060
 20
366.070887
 42
-0.000030
  0
VERTEX
  8
0
 10
642.881320
 20
399.125926
 42
-0.000052
  0
VERTEX
  8
0
 10
572.031296
 20
431.902402
 42
-0.053708
  0
VERTEX
  8
0
 10
569.102300
 20
433.660970
 42
-0.352546
  0
VERTEX
  8
0
 10
568.993778
 20
434.095224
 42
-0.000016
  0
VERTEX
  8
0
 10
590.294420
 20
480.171692
 42
-0.000678
  0
VERTEX
  8
0
 10
612.177068
 20
527.335204
 42
-0.000609
  0
VERTEX
  8
0
 10
634.981740
 20
576.156322
 42
0.000000
  0
VERTEX
  8
0
 10
638.100838
 20
582.812643
 42
0.000000
  0
VERTEX
  8
0
 10
656.800419
 20
574.071230
 42
0.000227
  0
VERTEX
  8
0
 10
667.364836
 20
569.138562
 42
0.000045
  0
VERTEX
  8
0
 10
686.310123
 20
560.305279
 42
0.000047
  0
VERTEX
  8
0
 10
708.380532
 20
550.019854
 42
0.000044
  0
SEQEND
  0
POLYLINE
  8
0
 66
1
 70
1
  0
VERTEX
  8
0
 10
2266.474624
 20
509.000000
 42
-0.000321
  0
VERTEX
  8
0
 10
2279.453108
 20
481.096759
 42
-0.000520
  0
VERTEX
  8
0
 10
2290.446923
 20
457.356250
 42
-0.000062
  0
VERTEX
  8
0
 10
2300.229374
 20
436.167053
 42
-0.043491
  0
VERTEX
  8
0
 10
2300.649397
 20
435.000000
 42
-0.356538
  0
VERTEX
  8
0
 10
2300.120612
 20
433.836077
 42
-0.001169
  0
VERTEX
  8
0
 10
2284.915548
 20
426.358546
 42
-0.003824
  0
VERTEX
  8
0
 10
2263.689177
 20
416.181813
 42
-0.000900
  0
VERTEX
  8
0
 10
2228.034404
 20
399.500000
 42
-0.000362
  0
VERTEX
  8
0
 10
2199.943437
 20
386.443364
 42
-0.000588
  0
VERTEX
  8
0
 10
2176.065738
 20
375.400188
 42
-0.000063
  0
VERTEX
  8
0
 10
2154.714768
 20
365.559349
 42
-0.054805
  0
VERTEX
  8
0
 10
2153.646838
 20
365.202766
 42
-0.344697
  0
VERTEX
  8
0
 10
2152.665179
 20
365.678323
 42
-0.000635
  0
VERTEX
  8
0
 10
2144.251117
 20
382.897728
 42
-0.003190
  0
VERTEX
  8
0
 10
2133.580199
 20
405.166052
 42
-0.001037
  0
VERTEX
  8
0
 10
2118.091086
 20
438.202766
 42
-0.000318
  0
VERTEX
  8
0
 10
2104.974533
 20
466.377391
 42
-0.000521
  0
VERTEX
  8
0
 10
2093.903557
 20
490.262688
 42
-0.000040
  0
VERTEX
  8
0
 10
2083.986251
 20
511.722059
 42
-0.067820
  0
VERTEX
  8
0
 10
2083.747825
 20
512.500000
 42
-0.335269
  0
VERTEX
  8
0
 10
2084.405454
 20
513.747846
 42
-0.000058
  0
VERTEX
  8
0
 10
2157.520719
 20
548.050767
 42
-0.000059
  0
VERTEX
  8
0
 10
2230.622033
 20
582.326289
 42
-0.311486
  0
VERTEX
  8
0
 10
2232.098270
 20
582.079567
 42
-0.090607
  0
VERTEX
  8
0
 10
2232.485587
 20
581.537674
 42
-0.000037
  0
VERTEX
  8
0
 10
2242.443111
 20
560.373373
 42
-0.000573
  0
VERTEX
  8
0
 10
2253.480551
 20
536.839297
 42
-0.000348
  0
SEQEND
  0
POLYLINE
  8
0
 66
1
 70
1
  0
VERTEX
  8
0
 10
940.848311
 20
416.151335
 42
0.000000
  0
VERTEX
  8
0
 10
1007.016688
 20
369.802670
 42
0.000000
  0
VERTEX
  8
0
 10
1002.376039
 20
363.151335
 42
-0.000318
  0
VERTEX
  8
0
 10
999.097449
 20
358.458562
 42
-0.000012
  0
VERTEX
  8
0
 10
986.616806
 20
340.619553
 42
-0.000021
  0
VERTEX
  8
0
 10
971.860745
 20
319.531152
 42
-0.000015
  0
VERTEX
  8
0
 10
955.244241
 20
295.787569
 42
0.000000
  0
VERTEX
  8
0
 10
912.753093
 20
235.075138
 42
0.000000
  0
VERTEX
  8
0
 10
906.626546
 20
239.428781
 42
0.001603
  0
VERTEX
  8
0
 10
902.247063
 20
242.519848
 42
0.000051
  0
VERTEX
  8
0
 10
884.516612
 20
254.946435
 42
0.000099
  0
VERTEX
  8
0
 10
863.601407
 20
269.595692
 42
0.000069
  0
VERTEX
  8
0
 10
839.961920
 20
286.141212
 42
-0.000625
  0
VERTEX
  8
0
 10
816.726099
 20
302.442726
 42
-0.001026
  0
VERTEX
  8
0
 10
797.105873
 20
316.304558
 42
-0.000078
  0
VERTEX
  8
0
 10
779.520027
 20
328.787423
 42
-0.142384
  0
VERTEX
  8
0
 10
779.079915
 20
329.342390
 42
-0.255750
  0
VERTEX
  8
0
 10
779.330296
 20
331.545773
 42
-0.000104
  0
VERTEX
  8
0
 10
825.585532
 20
397.148956
 42
-0.000088
  0
VERTEX
  8
0
 10
871.971873
 20
462.884245
 42
-0.393063
  0
VERTEX
  8
0
 10
873.506273
 20
463.206620
 42
-0.016971
  0
VERTEX
  8
0
 10
874.431016
 20
462.606195
 42
-0.000019
  0
VERTEX
  8
0
 10
893.772131
 20
449.092649
 42
-0.000178
  0
VERTEX
  8
0
 10
915.395524
 20
433.971818
 42
-0.000110
  0
SEQEND
  0
POLYLINE
  8
0
 66
1
 70
1
  0
VERTEX
  8
0
 10
2044.510888
 20
397.000000
 42
0.000086
  0
VERTEX
  8
0
 10
2062.116183
 20
371.810765
 42
0.000139
  0
VERTEX
  8
0
 10
2077.077054
 20
350.425566
 42
0.000015
  0
VERTEX
  8
0
 10
2090.460096
 20
331.308234
 42
0.013172
  0
VERTEX
  8
0
 10
2091.111949
 20
330.427459
 42
-0.426546
  0
VERTEX
  8
0
 10
2090.939277
 20
329.227248
 42
-0.000510
  0
VERTEX
  8
0
 10
2068.602430
 20
313.262850
 42
-0.002029
  0
VERTEX
  8
0
 10
2035.007474
 20
289.508928
 42
-0.000285
  0
VERTEX
  8
0
 10
1965.415623
 20
240.784253
 42
0.000000
  0
VERTEX
  8
0
 10
1957.242105
 20
235.068506
 42
0.000000
  0
VERTEX
  8
0
 10
1910.371052
 20
302.045768
 42
-0.000787
  0
VERTEX
  8
0
 10
1892.422311
 20
327.780068
 42
-0.001302
  0
VERTEX
  8
0
 10
1877.362741
 20
349.565389
 42
-0.000080
  0
VERTEX
  8
0
 10
1863.876065
 20
369.191137
 42
-0.258606
  0
VERTEX
  8
0
 10
1863.821259
 20
369.761515
 42
-0.138995
  0
VERTEX
  8
0
 10
1865.325310
 20
371.596723
 42
-0.000062
  0
VERTEX
  8
0
 10
1930.999036
 20
417.292389
 42
-0.000033
  0
VERTEX
  8
0
 10
1997.140595
 20
463.294838
 42
-0.376130
  0
VERTEX
  8
0
 10
1998.124106
 20
463.184342
 42
-0.032015
  0
VERTEX
  8
0
 10
1998.593062
 20
462.598921
 42
-0.000017
  0
VERTEX
  8
0
 10
2012.007667
 20
443.460400
 42
-0.000230
  0
VERTEX
  8
0
 10
2026.920161
 20
422.162527
 42
-0.000140
  0
SEQEND
  0
POLYLINE
  8
0
 66
1
 70
1
  0
VERTEX
  8
0
 10
1140.500000
 20
132.000000
 42
0.000000
  0
VERTEX
  8
0
 10
1082.504306
 20
73.997840
 42
0.000000
  0
VERTEX
  8
0
 10
1024.504306
 20
131.997840
 42
0.000000
  0
VERTEX
  8
0
 10
966.504306
 20
189.997840
 42
0.000000
  0
VERTEX
  8
0
 10
1024.500000
 20
248.000000
 42
0.000000
  0
VERTEX
  8
0
 10
1082.495694
 20
306.002160
 42
0.000000
  0
VERTEX
  8
0
 10
1140.495694
 20
248.002160
 42
0.000000
  0
VERTEX
  8
0
 10
1198.495694
 20
190.002160
 42
0.000000
  0
SEQEND
  0
POLYLINE
  8
0
 66
1
 70
1
  0
VERTEX
  8
0
 10
1845.500000
 20
132.000000
 42
0.000000
  0
VERTEX
  8
0
 10
1787.504306
 20
73.997840
 42
0.000000
  0
VERTEX
  8
0
 10
1729.504306
 20
131.997840
 42
0.000000
  0
VERTEX
  8
0
 10
1671.504306
 20
189.997840
 42
0.000000
  0
VERTEX
  8
0
 10
1729.500000
 20
248.000000
 42
0.000000
  0
VERTEX
  8
0
 10
1787.495694
 20
306.002160
 42
0.000000
  0
VERTEX
  8
0
 10
1845.495694
 20
248.002160
 42
0.000000
  0
VERTEX
  8
0
 10
1903.495694
 20
190.002160
 42
0.000000
  0
SEQEND
  0
ENDSEC
  0
EOF
