  0
SECTION
  2
HEADER
  9
$ACADVER
  1
AC1014
  9
$HANDSEED
  5
FFFF
  9
$MEASUREMENT
 70
     1
  0
ENDSEC
  0
SECTION
  2
TABLES
  0
TABLE
  2
VPORT
  5
8
330
0
100
AcDbSymbolTable
 70
     4
  0
VPORT
  5
2E
330
8
100
AcDbSymbolTableRecord
100
AcDbViewportTableRecord
  2
*ACTIVE
 70
     0
 10
0.0
 20
0.0
 11
1.0
 21
1.0
 12
210.0
 22
148.5
 13
0.0
 23
0.0
 14
10.0
 24
10.0
 15
10.0
 25
10.0
 16
0.0
 26
0.0
 36
1.0
 17
0.0
 27
0.0
 37
0.0
 40
341.0
 41
1.24
 42
50.0
 43
0.0
 44
0.0
 50
0.0
 51
0.0
 71
     0
 72
   100
 73
     1
 74
     3
 75
     0
 76
     0
 77
     0
 78
     0
  0
ENDTAB
  0
TABLE
  2
LTYPE
  5
5
330
0
100
AcDbSymbolTable
 70
     1
  0
LTYPE
  5
14
330
5
100
AcDbSymbolTableRecord
100
AcDbLinetypeTableRecord
  2
BYBLOCK
 70
     0
  3

 72
    65
 73
     0
 40
0.0
  0
LTYPE
  5
15
330
5
100
AcDbSymbolTableRecord
100
AcDbLinetypeTableRecord
  2
BYLAYER
 70
     0
  3

 72
    65
 73
     0
 40
0.0
  0
LTYPE
  5
16
330
5
100
AcDbSymbolTableRecord
100
AcDbLinetypeTableRecord
  2
CONTINUOUS
 70
     0
  3
Solid line
 72
    65
 73
     0
 40
0.0
  0
ENDTAB
  0
TABLE
  2
LAYER
  5
2
100
AcDbSymbolTable
 70
1
  0
LAYER
  5
50
100
AcDbSymbolTableRecord
100
AcDbLayerTableRecord
  2
0
 70
0
  6
CONTINUOUS
  0
ENDTAB
  0
TABLE
  2
STYLE
  5
3
330
0
100
AcDbSymbolTable
 70
     1
  0
STYLE
  5
11
330
3
100
AcDbSymbolTableRecord
100
AcDbTextStyleTableRecord
  2
STANDARD
 70
     0
 40
0.0
 41
1.0
 50
0.0
 71
     0
 42
2.5
  3
txt
  4

  0
ENDTAB
  0
TABLE
  2
VIEW
  5
6
330
0
100
AcDbSymbolTable
 70
     0
  0
ENDTAB
  0
TABLE
  2
UCS
  5
7
330
0
100
AcDbSymbolTable
 70
     0
  0
ENDTAB
  0
TABLE
  2
APPID
  5
9
330
0
100
AcDbSymbolTable
 70
     2
  0
APPID
  5
12
330
9
100
AcDbSymbolTableRecord
100
AcDbRegAppTableRecord
  2
ACAD
 70
     0
  0
ENDTAB
  0
TABLE
  2
DIMSTYLE
  5
A
330
0
100
AcDbSymbolTable
 70
     1
  0
DIMSTYLE
105
27
330
A
100
AcDbSymbolTableRecord
100
AcDbDimStyleTableRecord
  2
ISO-25
 70
     0
  3

  4

  5

  6

  7

 40
1.0
 41
2.5
 42
0.625
 43
3.75
 44
1.25
 45
0.0
 46
0.0
 47
0.0
 48
0.0
140
2.5
141
2.5
142
0.0
143
0.03937007874016
144
1.0
145
0.0
146
1.0
147
0.625
 71
     0
 72
     0
 73
     0
 74
     0
 75
     0
 76
     0
 77
     1
 78
     8
170
     0
171
     3
172
     1
173
     0
174
     0
175
     0
176
     0
177
     0
178
     0
270
     2
271
     2
272
     2
273
     2
274
     3
340
11
275
     0
280
     0
281
     0
282
     0
283
     0
284
     8
285
     0
286
     0
287
     3
288
     0
  0
ENDTAB
  0
TABLE
  2
BLOCK_RECORD
  5
1
330
0
100
AcDbSymbolTable
 70
     1
  0
BLOCK_RECORD
  5
1F
330
1
100
AcDbSymbolTableRecord
100
AcDbBlockTableRecord
  2
*MODEL_SPACE
  0
BLOCK_RECORD
  5
1B
330
1
100
AcDbSymbolTableRecord
100
AcDbBlockTableRecord
  2
*PAPER_SPACE
  0
ENDTAB
  0
ENDSEC
  0
SECTION
  2
BLOCKS
  0
BLOCK
  5
20
330
1F
100
AcDbEntity
  8
0
100
AcDbBlockBegin
  2
*MODEL_SPACE
 70
     0
 10
0.0
 20
0.0
 30
0.0
  3
*MODEL_SPACE
  1

  0
ENDBLK
  5
21
330
1F
100
AcDbEntity
  8
0
100
AcDbBlockEnd
  0
BLOCK
  5
1C
330
1B
100
AcDbEntity
 67
     1
  8
0
100
AcDbBlockBegin
  2
*PAPER_SPACE
  1

  0
ENDBLK
  5
1D
330
1B
100
AcDbEntity
 67
     1
  8
0
100
AcDbBlockEnd
  0
ENDSEC
  0
SECTION
  2
ENTITIES
  0
SPLINE
  5
100
100
AcDbEntity
  8
0
 62
7
100
AcDbSpline
 70
8
 71
3
 72
8
 73
4
 74
0
 40
0
 40
0
 40
0
 40
0
 40
1
 40
1
 40
1
 40
1
 10
496.172880
 20
-270.891454
 30
0.0
 10
494.911722
 20
-270.891454
 30
0.0
 10
493.774745
 20
-271.651157
 30
0.0
 10
493.292121
 20
-272.816315
 30
0.0
  0
SPLINE
  5
101
100
AcDbEntity
  8
0
 62
7
100
AcDbSpline
 70
8
 71
3
 72
8
 73
4
 74
0
 40
0
 40
0
 40
0
 40
0
 40
1
 40
1
 40
1
 40
1
 10
493.292121
 20
-272.816315
 30
0.0
 10
492.809497
 20
-273.981474
 30
0.0
 10
493.076269
 20
-275.322629
 30
0.0
 10
493.968042
 20
-276.214402
 30
0.0
  0
SPLINE
  5
102
100
AcDbEntity
  8
0
 62
7
100
AcDbSpline
 70
8
 71
3
 72
8
 73
4
 74
0
 40
0
 40
0
 40
0
 40
0
 40
1
 40
1
 40
1
 40
1
 10
493.968042
 20
-276.214402
 30
0.0
 10
494.859816
 20
-277.106176
 30
0.0
 10
496.200971
 20
-277.372948
 30
0.0
 10
497.366129
 20
-276.890324
 30
0.0
  0
SPLINE
  5
103
100
AcDbEntity
  8
0
 62
7
100
AcDbSpline
 70
8
 71
3
 72
8
 73
4
 74
0
 40
0
 40
0
 40
0
 40
0
 40
1
 40
1
 40
1
 40
1
 10
497.366129
 20
-276.890324
 30
0.0
 10
498.531288
 20
-276.407700
 30
0.0
 10
499.290991
 20
-275.270723
 30
0.0
 10
499.290991
 20
-274.009565
 30
0.0
  0
SPLINE
  5
104
100
AcDbEntity
  8
0
 62
7
100
AcDbSpline
 70
8
 71
3
 72
8
 73
4
 74
0
 40
0
 40
0
 40
0
 40
0
 40
1
 40
1
 40
1
 40
1
 10
499.290991
 20
-274.009565
 30
0.0
 10
499.290991
 20
-273.182590
 30
0.0
 10
498.962477
 20
-272.389487
 30
0.0
 10
498.377718
 20
-271.804727
 30
0.0
  0
SPLINE
  5
105
100
AcDbEntity
  8
0
 62
7
100
AcDbSpline
 70
8
 71
3
 72
8
 73
4
 74
0
 40
0
 40
0
 40
0
 40
0
 40
1
 40
1
 40
1
 40
1
 10
498.377718
 20
-271.804727
 30
0.0
 10
497.792958
 20
-271.219968
 30
0.0
 10
496.999855
 20
-270.891454
 30
0.0
 10
496.172880
 20
-270.891454
 30
0.0
  0
SPLINE
  5
106
100
AcDbEntity
  8
0
 62
7
100
AcDbSpline
 70
8
 71
3
 72
8
 73
4
 74
0
 40
0
 40
0
 40
0
 40
0
 40
1
 40
1
 40
1
 40
1
 10
407.165040
 20
-368.970574
 30
0.0
 10
405.903882
 20
-368.970574
 30
0.0
 10
404.766905
 20
-369.730277
 30
0.0
 10
404.284281
 20
-370.895435
 30
0.0
  0
SPLINE
  5
107
100
AcDbEntity
  8
0
 62
7
100
AcDbSpline
 70
8
 71
3
 72
8
 73
4
 74
0
 40
0
 40
0
 40
0
 40
0
 40
1
 40
1
 40
1
 40
1
 10
404.284281
 20
-370.895435
 30
0.0
 10
403.801657
 20
-372.060594
 30
0.0
 10
404.068429
 20
-373.401749
 30
0.0
 10
404.960202
 20
-374.293522
 30
0.0
  0
SPLINE
  5
108
100
AcDbEntity
  8
0
 62
7
100
AcDbSpline
 70
8
 71
3
 72
8
 73
4
 74
0
 40
0
 40
0
 40
0
 40
0
 40
1
 40
1
 40
1
 40
1
 10
404.960202
 20
-374.293522
 30
0.0
 10
405.851976
 20
-375.185296
 30
0.0
 10
407.193131
 20
-375.452068
 30
0.0
 10
408.358289
 20
-374.969444
 30
0.0
  0
SPLINE
  5
109
100
AcDbEntity
  8
0
 62
7
100
AcDbSpline
 70
8
 71
3
 72
8
 73
4
 74
0
 40
0
 40
0
 40
0
 40
0
 40
1
 40
1
 40
1
 40
1
 10
408.358289
 20
-374.969444
 30
0.0
 10
409.523448
 20
-374.486820
 30
0.0
 10
410.283151
 20
-373.349843
 30
0.0
 10
410.283151
 20
-372.088685
 30
0.0
  0
SPLINE
  5
10a
100
AcDbEntity
  8
0
 62
7
100
AcDbSpline
 70
8
 71
3
 72
8
 73
4
 74
0
 40
0
 40
0
 40
0
 40
0
 40
1
 40
1
 40
1
 40
1
 10
410.283151
 20
-372.088685
 30
0.0
 10
410.283151
 20
-371.261710
 30
0.0
 10
409.954637
 20
-370.468607
 30
0.0
 10
409.369878
 20
-369.883847
 30
0.0
  0
SPLINE
  5
10b
100
AcDbEntity
  8
0
 62
7
100
AcDbSpline
 70
8
 71
3
 72
8
 73
4
 74
0
 40
0
 40
0
 40
0
 40
0
 40
1
 40
1
 40
1
 40
1
 10
409.369878
 20
-369.883847
 30
0.0
 10
408.785118
 20
-369.299088
 30
0.0
 10
407.992015
 20
-368.970574
 30
0.0
 10
407.165040
 20
-368.970574
 30
0.0
  0
LWPOLYLINE
  5
10c
100
AcDbEntity
  8
0
 62
7
100
AcDbPolyline
 90
1
 70
1
 10
496.172880
 20
-270.891454
 30
0.0
  0
SPLINE
  5
10d
100
AcDbEntity
  8
0
 62
7
100
AcDbSpline
 70
8
 71
3
 72
8
 73
4
 74
0
 40
0
 40
0
 40
0
 40
0
 40
1
 40
1
 40
1
 40
1
 10
281.306880
 20
-370.103854
 30
0.0
 10
279.584795
 20
-370.103854
 30
0.0
 10
278.188769
 20
-371.499880
 30
0.0
 10
278.188769
 20
-373.221965
 30
0.0
  0
SPLINE
  5
10e
100
AcDbEntity
  8
0
 62
7
100
AcDbSpline
 70
8
 71
3
 72
8
 73
4
 74
0
 40
0
 40
0
 40
0
 40
0
 40
1
 40
1
 40
1
 40
1
 10
278.188769
 20
-373.221965
 30
0.0
 10
278.188769
 20
-374.944050
 30
0.0
 10
279.584795
 20
-376.340076
 30
0.0
 10
281.306880
 20
-376.340076
 30
0.0
  0
SPLINE
  5
10f
100
AcDbEntity
  8
0
 62
7
100
AcDbSpline
 70
8
 71
3
 72
8
 73
4
 74
0
 40
0
 40
0
 40
0
 40
0
 40
1
 40
1
 40
1
 40
1
 10
281.306880
 20
-376.340076
 30
0.0
 10
283.028965
 20
-376.340076
 30
0.0
 10
284.424991
 20
-374.944050
 30
0.0
 10
284.424991
 20
-373.221965
 30
0.0
  0
SPLINE
  5
110
100
AcDbEntity
  8
0
 62
7
100
AcDbSpline
 70
8
 71
3
 72
8
 73
4
 74
0
 40
0
 40
0
 40
0
 40
0
 40
1
 40
1
 40
1
 40
1
 10
284.424991
 20
-373.221965
 30
0.0
 10
284.424991
 20
-372.394990
 30
0.0
 10
284.096477
 20
-371.601887
 30
0.0
 10
283.511718
 20
-371.017127
 30
0.0
  0
SPLINE
  5
111
100
AcDbEntity
  8
0
 62
7
100
AcDbSpline
 70
8
 71
3
 72
8
 73
4
 74
0
 40
0
 40
0
 40
0
 40
0
 40
1
 40
1
 40
1
 40
1
 10
283.511718
 20
-371.017127
 30
0.0
 10
282.926958
 20
-370.432368
 30
0.0
 10
282.133855
 20
-370.103854
 30
0.0
 10
281.306880
 20
-370.103854
 30
0.0
  0
LWPOLYLINE
  5
112
100
AcDbEntity
  8
0
 62
7
100
AcDbPolyline
 90
1
 70
1
 10
407.165040
 20
-368.970574
 30
0.0
  0
SPLINE
  5
113
100
AcDbEntity
  8
0
 62
7
100
AcDbSpline
 70
8
 71
3
 72
8
 73
4
 74
0
 40
0
 40
0
 40
0
 40
0
 40
1
 40
1
 40
1
 40
1
 10
438.346080
 20
-138.230014
 30
0.0
 10
437.084922
 20
-138.230014
 30
0.0
 10
435.947945
 20
-138.989717
 30
0.0
 10
435.465321
 20
-140.154875
 30
0.0
  0
SPLINE
  5
114
100
AcDbEntity
  8
0
 62
7
100
AcDbSpline
 70
8
 71
3
 72
8
 73
4
 74
0
 40
0
 40
0
 40
0
 40
0
 40
1
 40
1
 40
1
 40
1
 10
435.465321
 20
-140.154875
 30
0.0
 10
434.982697
 20
-141.320034
 30
0.0
 10
435.249469
 20
-142.661189
 30
0.0
 10
436.141242
 20
-143.552962
 30
0.0
  0
SPLINE
  5
115
100
AcDbEntity
  8
0
 62
7
100
AcDbSpline
 70
8
 71
3
 72
8
 73
4
 74
0
 40
0
 40
0
 40
0
 40
0
 40
1
 40
1
 40
1
 40
1
 10
436.141242
 20
-143.552962
 30
0.0
 10
437.033016
 20
-144.444736
 30
0.0
 10
438.374171
 20
-144.711508
 30
0.0
 10
439.539329
 20
-144.228884
 30
0.0
  0
SPLINE
  5
116
100
AcDbEntity
  8
0
 62
7
100
AcDbSpline
 70
8
 71
3
 72
8
 73
4
 74
0
 40
0
 40
0
 40
0
 40
0
 40
1
 40
1
 40
1
 40
1
 10
439.539329
 20
-144.228884
 30
0.0
 10
440.704488
 20
-143.746260
 30
0.0
 10
441.464191
 20
-142.609283
 30
0.0
 10
441.464191
 20
-141.348125
 30
0.0
  0
SPLINE
  5
117
100
AcDbEntity
  8
0
 62
7
100
AcDbSpline
 70
8
 71
3
 72
8
 73
4
 74
0
 40
0
 40
0
 40
0
 40
0
 40
1
 40
1
 40
1
 40
1
 10
441.464191
 20
-141.348125
 30
0.0
 10
441.464191
 20
-140.521150
 30
0.0
 10
441.135677
 20
-139.728047
 30
0.0
 10
440.550918
 20
-139.143287
 30
0.0
  0
SPLINE
  5
118
100
AcDbEntity
  8
0
 62
7
100
AcDbSpline
 70
8
 71
3
 72
8
 73
4
 74
0
 40
0
 40
0
 40
0
 40
0
 40
1
 40
1
 40
1
 40
1
 10
440.550918
 20
-139.143287
 30
0.0
 10
439.966158
 20
-138.558528
 30
0.0
 10
439.173055
 20
-138.230014
 30
0.0
 10
438.346080
 20
-138.230014
 30
0.0
  0
LWPOLYLINE
  5
119
100
AcDbEntity
  8
0
 62
7
100
AcDbPolyline
 90
1
 70
1
 10
281.306880
 20
-370.103854
 30
0.0
  0
SPLINE
  5
11a
100
AcDbEntity
  8
0
 62
7
100
AcDbSpline
 70
8
 71
3
 72
8
 73
4
 74
0
 40
0
 40
0
 40
0
 40
0
 40
1
 40
1
 40
1
 40
1
 10
614.661120
 20
-130.292734
 30
0.0
 10
613.399962
 20
-130.292734
 30
0.0
 10
612.262985
 20
-131.052437
 30
0.0
 10
611.780361
 20
-132.217595
 30
0.0
  0
SPLINE
  5
11b
100
AcDbEntity
  8
0
 62
7
100
AcDbSpline
 70
8
 71
3
 72
8
 73
4
 74
0
 40
0
 40
0
 40
0
 40
0
 40
1
 40
1
 40
1
 40
1
 10
611.780361
 20
-132.217595
 30
0.0
 10
611.297737
 20
-133.382754
 30
0.0
 10
611.564509
 20
-134.723909
 30
0.0
 10
612.456282
 20
-135.615682
 30
0.0
  0
SPLINE
  5
11c
100
AcDbEntity
  8
0
 62
7
100
AcDbSpline
 70
8
 71
3
 72
8
 73
4
 74
0
 40
0
 40
0
 40
0
 40
0
 40
1
 40
1
 40
1
 40
1
 10
612.456282
 20
-135.615682
 30
0.0
 10
613.348056
 20
-136.507456
 30
0.0
 10
614.689211
 20
-136.774228
 30
0.0
 10
615.854369
 20
-136.291604
 30
0.0
  0
SPLINE
  5
11d
100
AcDbEntity
  8
0
 62
7
100
AcDbSpline
 70
8
 71
3
 72
8
 73
4
 74
0
 40
0
 40
0
 40
0
 40
0
 40
1
 40
1
 40
1
 40
1
 10
615.854369
 20
-136.291604
 30
0.0
 10
617.019528
 20
-135.808980
 30
0.0
 10
617.779231
 20
-134.672003
 30
0.0
 10
617.779231
 20
-133.410845
 30
0.0
  0
SPLINE
  5
11e
100
AcDbEntity
  8
0
 62
7
100
AcDbSpline
 70
8
 71
3
 72
8
 73
4
 74
0
 40
0
 40
0
 40
0
 40
0
 40
1
 40
1
 40
1
 40
1
 10
617.779231
 20
-133.410845
 30
0.0
 10
617.779231
 20
-132.583870
 30
0.0
 10
617.450717
 20
-131.790767
 30
0.0
 10
616.865958
 20
-131.206007
 30
0.0
  0
SPLINE
  5
11f
100
AcDbEntity
  8
0
 62
7
100
AcDbSpline
 70
8
 71
3
 72
8
 73
4
 74
0
 40
0
 40
0
 40
0
 40
0
 40
1
 40
1
 40
1
 40
1
 10
616.865958
 20
-131.206007
 30
0.0
 10
616.281198
 20
-130.621248
 30
0.0
 10
615.488095
 20
-130.292734
 30
0.0
 10
614.661120
 20
-130.292734
 30
0.0
  0
LWPOLYLINE
  5
120
100
AcDbEntity
  8
0
 62
7
100
AcDbPolyline
 90
1
 70
1
 10
438.346080
 20
-138.230014
 30
0.0
  0
SPLINE
  5
121
100
AcDbEntity
  8
0
 62
7
100
AcDbSpline
 70
8
 71
3
 72
8
 73
4
 74
0
 40
0
 40
0
 40
0
 40
0
 40
1
 40
1
 40
1
 40
1
 10
569.306880
 20
-32.214334
 30
0.0
 10
568.045722
 20
-32.214334
 30
0.0
 10
566.908745
 20
-32.974037
 30
0.0
 10
566.426121
 20
-34.139195
 30
0.0
  0
SPLINE
  5
122
100
AcDbEntity
  8
0
 62
7
100
AcDbSpline
 70
8
 71
3
 72
8
 73
4
 74
0
 40
0
 40
0
 40
0
 40
0
 40
1
 40
1
 40
1
 40
1
 10
566.426121
 20
-34.139195
 30
0.0
 10
565.943497
 20
-35.304354
 30
0.0
 10
566.210269
 20
-36.645509
 30
0.0
 10
567.102042
 20
-37.537282
 30
0.0
  0
SPLINE
  5
123
100
AcDbEntity
  8
0
 62
7
100
AcDbSpline
 70
8
 71
3
 72
8
 73
4
 74
0
 40
0
 40
0
 40
0
 40
0
 40
1
 40
1
 40
1
 40
1
 10
567.102042
 20
-37.537282
 30
0.0
 10
567.993816
 20
-38.429056
 30
0.0
 10
569.334971
 20
-38.695828
 30
0.0
 10
570.500129
 20
-38.213204
 30
0.0
  0
SPLINE
  5
124
100
AcDbEntity
  8
0
 62
7
100
AcDbSpline
 70
8
 71
3
 72
8
 73
4
 74
0
 40
0
 40
0
 40
0
 40
0
 40
1
 40
1
 40
1
 40
1
 10
570.500129
 20
-38.213204
 30
0.0
 10
571.665288
 20
-37.730580
 30
0.0
 10
572.424991
 20
-36.593603
 30
0.0
 10
572.424991
 20
-35.332445
 30
0.0
  0
SPLINE
  5
125
100
AcDbEntity
  8
0
 62
7
100
AcDbSpline
 70
8
 71
3
 72
8
 73
4
 74
0
 40
0
 40
0
 40
0
 40
0
 40
1
 40
1
 40
1
 40
1
 10
572.424991
 20
-35.332445
 30
0.0
 10
572.424991
 20
-33.610360
 30
0.0
 10
571.028965
 20
-32.214334
 30
0.0
 10
569.306880
 20
-32.214334
 30
0.0
  0
LWPOLYLINE
  5
126
100
AcDbEntity
  8
0
 62
7
100
AcDbPolyline
 90
1
 70
1
 10
614.661120
 20
-130.292734
 30
0.0
  0
SPLINE
  5
127
100
AcDbEntity
  8
0
 62
7
100
AcDbSpline
 70
8
 71
3
 72
8
 73
4
 74
0
 40
0
 40
0
 40
0
 40
0
 40
1
 40
1
 40
1
 40
1
 10
197.401680
 20
-268.623454
 30
0.0
 10
196.140522
 20
-268.623454
 30
0.0
 10
195.003545
 20
-269.383157
 30
0.0
 10
194.520921
 20
-270.548315
 30
0.0
  0
SPLINE
  5
128
100
AcDbEntity
  8
0
 62
7
100
AcDbSpline
 70
8
 71
3
 72
8
 73
4
 74
0
 40
0
 40
0
 40
0
 40
0
 40
1
 40
1
 40
1
 40
1
 10
194.520921
 20
-270.548315
 30
0.0
 10
194.038297
 20
-271.713474
 30
0.0
 10
194.305069
 20
-273.054629
 30
0.0
 10
195.196842
 20
-273.946402
 30
0.0
  0
SPLINE
  5
129
100
AcDbEntity
  8
0
 62
7
100
AcDbSpline
 70
8
 71
3
 72
8
 73
4
 74
0
 40
0
 40
0
 40
0
 40
0
 40
1
 40
1
 40
1
 40
1
 10
195.196842
 20
-273.946402
 30
0.0
 10
196.088616
 20
-274.838176
 30
0.0
 10
197.429771
 20
-275.104948
 30
0.0
 10
198.594929
 20
-274.622324
 30
0.0
  0
SPLINE
  5
12a
100
AcDbEntity
  8
0
 62
7
100
AcDbSpline
 70
8
 71
3
 72
8
 73
4
 74
0
 40
0
 40
0
 40
0
 40
0
 40
1
 40
1
 40
1
 40
1
 10
198.594929
 20
-274.622324
 30
0.0
 10
199.760088
 20
-274.139700
 30
0.0
 10
200.519791
 20
-273.002723
 30
0.0
 10
200.519791
 20
-271.741565
 30
0.0
  0
SPLINE
  5
12b
100
AcDbEntity
  8
0
 62
7
100
AcDbSpline
 70
8
 71
3
 72
8
 73
4
 74
0
 40
0
 40
0
 40
0
 40
0
 40
1
 40
1
 40
1
 40
1
 10
200.519791
 20
-271.741565
 30
0.0
 10
200.519791
 20
-270.019480
 30
0.0
 10
199.123765
 20
-268.623454
 30
0.0
 10
197.401680
 20
-268.623454
 30
0.0
  0
LWPOLYLINE
  5
12c
100
AcDbEntity
  8
0
 62
7
100
AcDbPolyline
 90
1
 70
1
 10
569.306880
 20
-32.214334
 30
0.0
  0
SPLINE
  5
12d
100
AcDbEntity
  8
0
 62
7
100
AcDbSpline
 70
8
 71
3
 72
8
 73
4
 74
0
 40
0
 40
0
 40
0
 40
0
 40
1
 40
1
 40
1
 40
1
 10
254.661120
 20
-136.529374
 30
0.0
 10
253.399962
 20
-136.529374
 30
0.0
 10
252.262985
 20
-137.289077
 30
0.0
 10
251.780361
 20
-138.454235
 30
0.0
  0
SPLINE
  5
12e
100
AcDbEntity
  8
0
 62
7
100
AcDbSpline
 70
8
 71
3
 72
8
 73
4
 74
0
 40
0
 40
0
 40
0
 40
0
 40
1
 40
1
 40
1
 40
1
 10
251.780361
 20
-138.454235
 30
0.0
 10
251.297737
 20
-139.619394
 30
0.0
 10
251.564509
 20
-140.960549
 30
0.0
 10
252.456282
 20
-141.852322
 30
0.0
  0
SPLINE
  5
12f
100
AcDbEntity
  8
0
 62
7
100
AcDbSpline
 70
8
 71
3
 72
8
 73
4
 74
0
 40
0
 40
0
 40
0
 40
0
 40
1
 40
1
 40
1
 40
1
 10
252.456282
 20
-141.852322
 30
0.0
 10
253.348056
 20
-142.744096
 30
0.0
 10
254.689211
 20
-143.010868
 30
0.0
 10
255.854369
 20
-142.528244
 30
0.0
  0
SPLINE
  5
130
100
AcDbEntity
  8
0
 62
7
100
AcDbSpline
 70
8
 71
3
 72
8
 73
4
 74
0
 40
0
 40
0
 40
0
 40
0
 40
1
 40
1
 40
1
 40
1
 10
255.854369
 20
-142.528244
 30
0.0
 10
257.019528
 20
-142.045620
 30
0.0
 10
257.779231
 20
-140.908643
 30
0.0
 10
257.779231
 20
-139.647485
 30
0.0
  0
SPLINE
  5
131
100
AcDbEntity
  8
0
 62
7
100
AcDbSpline
 70
8
 71
3
 72
8
 73
4
 74
0
 40
0
 40
0
 40
0
 40
0
 40
1
 40
1
 40
1
 40
1
 10
257.779231
 20
-139.647485
 30
0.0
 10
257.779231
 20
-138.820510
 30
0.0
 10
257.450717
 20
-138.027407
 30
0.0
 10
256.865958
 20
-137.442647
 30
0.0
  0
SPLINE
  5
132
100
AcDbEntity
  8
0
 62
7
100
AcDbSpline
 70
8
 71
3
 72
8
 73
4
 74
0
 40
0
 40
0
 40
0
 40
0
 40
1
 40
1
 40
1
 40
1
 10
256.865958
 20
-137.442647
 30
0.0
 10
256.281198
 20
-136.857888
 30
0.0
 10
255.488095
 20
-136.529374
 30
0.0
 10
254.661120
 20
-136.529374
 30
0.0
  0
LWPOLYLINE
  5
133
100
AcDbEntity
  8
0
 62
7
100
AcDbPolyline
 90
1
 70
1
 10
197.401680
 20
-268.623454
 30
0.0
  0
SPLINE
  5
134
100
AcDbEntity
  8
0
 62
7
100
AcDbSpline
 70
8
 71
3
 72
8
 73
4
 74
0
 40
0
 40
0
 40
0
 40
0
 40
1
 40
1
 40
1
 40
1
 10
70.409232
 20
-149.568574
 30
0.0
 10
69.148074
 20
-149.568574
 30
0.0
 10
68.011097
 20
-150.328277
 30
0.0
 10
67.528473
 20
-151.493435
 30
0.0
  0
SPLINE
  5
135
100
AcDbEntity
  8
0
 62
7
100
AcDbSpline
 70
8
 71
3
 72
8
 73
4
 74
0
 40
0
 40
0
 40
0
 40
0
 40
1
 40
1
 40
1
 40
1
 10
67.528473
 20
-151.493435
 30
0.0
 10
67.045849
 20
-152.658594
 30
0.0
 10
67.312621
 20
-153.999749
 30
0.0
 10
68.204394
 20
-154.891522
 30
0.0
  0
SPLINE
  5
136
100
AcDbEntity
  8
0
 62
7
100
AcDbSpline
 70
8
 71
3
 72
8
 73
4
 74
0
 40
0
 40
0
 40
0
 40
0
 40
1
 40
1
 40
1
 40
1
 10
68.204394
 20
-154.891522
 30
0.0
 10
69.096168
 20
-155.783296
 30
0.0
 10
70.437323
 20
-156.050068
 30
0.0
 10
71.602481
 20
-155.567444
 30
0.0
  0
SPLINE
  5
137
100
AcDbEntity
  8
0
 62
7
100
AcDbSpline
 70
8
 71
3
 72
8
 73
4
 74
0
 40
0
 40
0
 40
0
 40
0
 40
1
 40
1
 40
1
 40
1
 10
71.602481
 20
-155.567444
 30
0.0
 10
72.767640
 20
-155.084820
 30
0.0
 10
73.527343
 20
-153.947843
 30
0.0
 10
73.527343
 20
-152.686685
 30
0.0
  0
SPLINE
  5
138
100
AcDbEntity
  8
0
 62
7
100
AcDbSpline
 70
8
 71
3
 72
8
 73
4
 74
0
 40
0
 40
0
 40
0
 40
0
 40
1
 40
1
 40
1
 40
1
 10
73.527343
 20
-152.686685
 30
0.0
 10
73.527343
 20
-150.964600
 30
0.0
 10
72.131317
 20
-149.568574
 30
0.0
 10
70.409232
 20
-149.568574
 30
0.0
  0
LWPOLYLINE
  5
139
100
AcDbEntity
  8
0
 62
7
100
AcDbPolyline
 90
1
 70
1
 10
254.661120
 20
-136.529374
 30
0.0
  0
SPLINE
  5
13a
100
AcDbEntity
  8
0
 62
7
100
AcDbSpline
 70
8
 71
3
 72
8
 73
4
 74
0
 40
0
 40
0
 40
0
 40
0
 40
1
 40
1
 40
1
 40
1
 10
118.031040
 20
-49.789174
 30
0.0
 10
116.769882
 20
-49.789174
 30
0.0
 10
115.632905
 20
-50.548877
 30
0.0
 10
115.150281
 20
-51.714035
 30
0.0
  0
SPLINE
  5
13b
100
AcDbEntity
  8
0
 62
7
100
AcDbSpline
 70
8
 71
3
 72
8
 73
4
 74
0
 40
0
 40
0
 40
0
 40
0
 40
1
 40
1
 40
1
 40
1
 10
115.150281
 20
-51.714035
 30
0.0
 10
114.667657
 20
-52.879194
 30
0.0
 10
114.934429
 20
-54.220349
 30
0.0
 10
115.826202
 20
-55.112122
 30
0.0
  0
SPLINE
  5
13c
100
AcDbEntity
  8
0
 62
7
100
AcDbSpline
 70
8
 71
3
 72
8
 73
4
 74
0
 40
0
 40
0
 40
0
 40
0
 40
1
 40
1
 40
1
 40
1
 10
115.826202
 20
-55.112122
 30
0.0
 10
116.717976
 20
-56.003896
 30
0.0
 10
118.059131
 20
-56.270668
 30
0.0
 10
119.224289
 20
-55.788044
 30
0.0
  0
SPLINE
  5
13d
100
AcDbEntity
  8
0
 62
7
100
AcDbSpline
 70
8
 71
3
 72
8
 73
4
 74
0
 40
0
 40
0
 40
0
 40
0
 40
1
 40
1
 40
1
 40
1
 10
119.224289
 20
-55.788044
 30
0.0
 10
120.389448
 20
-55.305420
 30
0.0
 10
121.149151
 20
-54.168443
 30
0.0
 10
121.149151
 20
-52.907285
 30
0.0
  0
SPLINE
  5
13e
100
AcDbEntity
  8
0
 62
7
100
AcDbSpline
 70
8
 71
3
 72
8
 73
4
 74
0
 40
0
 40
0
 40
0
 40
0
 40
1
 40
1
 40
1
 40
1
 10
121.149151
 20
-52.907285
 30
0.0
 10
121.149151
 20
-52.080310
 30
0.0
 10
120.820637
 20
-51.287207
 30
0.0
 10
120.235878
 20
-50.702447
 30
0.0
  0
SPLINE
  5
13f
100
AcDbEntity
  8
0
 62
7
100
AcDbSpline
 70
8
 71
3
 72
8
 73
4
 74
0
 40
0
 40
0
 40
0
 40
0
 40
1
 40
1
 40
1
 40
1
 10
120.235878
 20
-50.702447
 30
0.0
 10
119.651118
 20
-50.117688
 30
0.0
 10
118.858015
 20
-49.789174
 30
0.0
 10
118.031040
 20
-49.789174
 30
0.0
  0
LWPOLYLINE
  5
140
100
AcDbEntity
  8
0
 62
7
100
AcDbPolyline
 90
1
 70
1
 10
70.409232
 20
-149.568574
 30
0.0
  0
SPLINE
  5
141
100
AcDbEntity
  8
0
 62
7
100
AcDbSpline
 70
8
 71
3
 72
8
 73
4
 74
0
 40
0
 40
0
 40
0
 40
0
 40
1
 40
1
 40
1
 40
1
 10
496.172880
 20
-270.891454
 30
0.0
 10
494.911722
 20
-270.891454
 30
0.0
 10
493.774745
 20
-271.651157
 30
0.0
 10
493.292121
 20
-272.816315
 30
0.0
  0
SPLINE
  5
142
100
AcDbEntity
  8
0
 62
7
100
AcDbSpline
 70
8
 71
3
 72
8
 73
4
 74
0
 40
0
 40
0
 40
0
 40
0
 40
1
 40
1
 40
1
 40
1
 10
493.292121
 20
-272.816315
 30
0.0
 10
492.809497
 20
-273.981474
 30
0.0
 10
493.076269
 20
-275.322629
 30
0.0
 10
493.968042
 20
-276.214402
 30
0.0
  0
SPLINE
  5
143
100
AcDbEntity
  8
0
 62
7
100
AcDbSpline
 70
8
 71
3
 72
8
 73
4
 74
0
 40
0
 40
0
 40
0
 40
0
 40
1
 40
1
 40
1
 40
1
 10
493.968042
 20
-276.214402
 30
0.0
 10
494.859816
 20
-277.106176
 30
0.0
 10
496.200971
 20
-277.372948
 30
0.0
 10
497.366129
 20
-276.890324
 30
0.0
  0
SPLINE
  5
144
100
AcDbEntity
  8
0
 62
7
100
AcDbSpline
 70
8
 71
3
 72
8
 73
4
 74
0
 40
0
 40
0
 40
0
 40
0
 40
1
 40
1
 40
1
 40
1
 10
497.366129
 20
-276.890324
 30
0.0
 10
498.531288
 20
-276.407700
 30
0.0
 10
499.290991
 20
-275.270723
 30
0.0
 10
499.290991
 20
-274.009565
 30
0.0
  0
SPLINE
  5
145
100
AcDbEntity
  8
0
 62
7
100
AcDbSpline
 70
8
 71
3
 72
8
 73
4
 74
0
 40
0
 40
0
 40
0
 40
0
 40
1
 40
1
 40
1
 40
1
 10
499.290991
 20
-274.009565
 30
0.0
 10
499.290991
 20
-273.182590
 30
0.0
 10
498.962477
 20
-272.389487
 30
0.0
 10
498.377718
 20
-271.804727
 30
0.0
  0
SPLINE
  5
146
100
AcDbEntity
  8
0
 62
7
100
AcDbSpline
 70
8
 71
3
 72
8
 73
4
 74
0
 40
0
 40
0
 40
0
 40
0
 40
1
 40
1
 40
1
 40
1
 10
498.377718
 20
-271.804727
 30
0.0
 10
497.792958
 20
-271.219968
 30
0.0
 10
496.999855
 20
-270.891454
 30
0.0
 10
496.172880
 20
-270.891454
 30
0.0
  0
LWPOLYLINE
  5
147
100
AcDbEntity
  8
0
 62
7
100
AcDbPolyline
 90
1
 70
1
 10
118.031040
 20
-49.789174
 30
0.0
  0
SPLINE
  5
148
100
AcDbEntity
  8
0
 62
7
100
AcDbSpline
 70
8
 71
3
 72
8
 73
4
 74
0
 40
0
 40
0
 40
0
 40
0
 40
1
 40
1
 40
1
 40
1
 10
407.165040
 20
-368.970574
 30
0.0
 10
405.903882
 20
-368.970574
 30
0.0
 10
404.766905
 20
-369.730277
 30
0.0
 10
404.284281
 20
-370.895435
 30
0.0
  0
SPLINE
  5
149
100
AcDbEntity
  8
0
 62
7
100
AcDbSpline
 70
8
 71
3
 72
8
 73
4
 74
0
 40
0
 40
0
 40
0
 40
0
 40
1
 40
1
 40
1
 40
1
 10
404.284281
 20
-370.895435
 30
0.0
 10
403.801657
 20
-372.060594
 30
0.0
 10
404.068429
 20
-373.401749
 30
0.0
 10
404.960202
 20
-374.293522
 30
0.0
  0
SPLINE
  5
14a
100
AcDbEntity
  8
0
 62
7
100
AcDbSpline
 70
8
 71
3
 72
8
 73
4
 74
0
 40
0
 40
0
 40
0
 40
0
 40
1
 40
1
 40
1
 40
1
 10
404.960202
 20
-374.293522
 30
0.0
 10
405.851976
 20
-375.185296
 30
0.0
 10
407.193131
 20
-375.452068
 30
0.0
 10
408.358289
 20
-374.969444
 30
0.0
  0
SPLINE
  5
14b
100
AcDbEntity
  8
0
 62
7
100
AcDbSpline
 70
8
 71
3
 72
8
 73
4
 74
0
 40
0
 40
0
 40
0
 40
0
 40
1
 40
1
 40
1
 40
1
 10
408.358289
 20
-374.969444
 30
0.0
 10
409.523448
 20
-374.486820
 30
0.0
 10
410.283151
 20
-373.349843
 30
0.0
 10
410.283151
 20
-372.088685
 30
0.0
  0
SPLINE
  5
14c
100
AcDbEntity
  8
0
 62
7
100
AcDbSpline
 70
8
 71
3
 72
8
 73
4
 74
0
 40
0
 40
0
 40
0
 40
0
 40
1
 40
1
 40
1
 40
1
 10
410.283151
 20
-372.088685
 30
0.0
 10
410.283151
 20
-371.261710
 30
0.0
 10
409.954637
 20
-370.468607
 30
0.0
 10
409.369878
 20
-369.883847
 30
0.0
  0
SPLINE
  5
14d
100
AcDbEntity
  8
0
 62
7
100
AcDbSpline
 70
8
 71
3
 72
8
 73
4
 74
0
 40
0
 40
0
 40
0
 40
0
 40
1
 40
1
 40
1
 40
1
 10
409.369878
 20
-369.883847
 30
0.0
 10
408.785118
 20
-369.299088
 30
0.0
 10
407.992015
 20
-368.970574
 30
0.0
 10
407.165040
 20
-368.970574
 30
0.0
  0
LWPOLYLINE
  5
14e
100
AcDbEntity
  8
0
 62
7
100
AcDbPolyline
 90
1
 70
1
 10
496.172880
 20
-270.891454
 30
0.0
  0
SPLINE
  5
14f
100
AcDbEntity
  8
0
 62
7
100
AcDbSpline
 70
8
 71
3
 72
8
 73
4
 74
0
 40
0
 40
0
 40
0
 40
0
 40
1
 40
1
 40
1
 40
1
 10
281.306880
 20
-370.103854
 30
0.0
 10
279.584795
 20
-370.103854
 30
0.0
 10
278.188769
 20
-371.499880
 30
0.0
 10
278.188769
 20
-373.221965
 30
0.0
  0
SPLINE
  5
150
100
AcDbEntity
  8
0
 62
7
100
AcDbSpline
 70
8
 71
3
 72
8
 73
4
 74
0
 40
0
 40
0
 40
0
 40
0
 40
1
 40
1
 40
1
 40
1
 10
278.188769
 20
-373.221965
 30
0.0
 10
278.188769
 20
-374.944050
 30
0.0
 10
279.584795
 20
-376.340076
 30
0.0
 10
281.306880
 20
-376.340076
 30
0.0
  0
SPLINE
  5
151
100
AcDbEntity
  8
0
 62
7
100
AcDbSpline
 70
8
 71
3
 72
8
 73
4
 74
0
 40
0
 40
0
 40
0
 40
0
 40
1
 40
1
 40
1
 40
1
 10
281.306880
 20
-376.340076
 30
0.0
 10
283.028965
 20
-376.340076
 30
0.0
 10
284.424991
 20
-374.944050
 30
0.0
 10
284.424991
 20
-373.221965
 30
0.0
  0
SPLINE
  5
152
100
AcDbEntity
  8
0
 62
7
100
AcDbSpline
 70
8
 71
3
 72
8
 73
4
 74
0
 40
0
 40
0
 40
0
 40
0
 40
1
 40
1
 40
1
 40
1
 10
284.424991
 20
-373.221965
 30
0.0
 10
284.424991
 20
-372.394990
 30
0.0
 10
284.096477
 20
-371.601887
 30
0.0
 10
283.511718
 20
-371.017127
 30
0.0
  0
SPLINE
  5
153
100
AcDbEntity
  8
0
 62
7
100
AcDbSpline
 70
8
 71
3
 72
8
 73
4
 74
0
 40
0
 40
0
 40
0
 40
0
 40
1
 40
1
 40
1
 40
1
 10
283.511718
 20
-371.017127
 30
0.0
 10
282.926958
 20
-370.432368
 30
0.0
 10
282.133855
 20
-370.103854
 30
0.0
 10
281.306880
 20
-370.103854
 30
0.0
  0
LWPOLYLINE
  5
154
100
AcDbEntity
  8
0
 62
7
100
AcDbPolyline
 90
1
 70
1
 10
407.165040
 20
-368.970574
 30
0.0
  0
SPLINE
  5
155
100
AcDbEntity
  8
0
 62
7
100
AcDbSpline
 70
8
 71
3
 72
8
 73
4
 74
0
 40
0
 40
0
 40
0
 40
0
 40
1
 40
1
 40
1
 40
1
 10
438.346080
 20
-138.230014
 30
0.0
 10
437.084922
 20
-138.230014
 30
0.0
 10
435.947945
 20
-138.989717
 30
0.0
 10
435.465321
 20
-140.154875
 30
0.0
  0
SPLINE
  5
156
100
AcDbEntity
  8
0
 62
7
100
AcDbSpline
 70
8
 71
3
 72
8
 73
4
 74
0
 40
0
 40
0
 40
0
 40
0
 40
1
 40
1
 40
1
 40
1
 10
435.465321
 20
-140.154875
 30
0.0
 10
434.982697
 20
-141.320034
 30
0.0
 10
435.249469
 20
-142.661189
 30
0.0
 10
436.141242
 20
-143.552962
 30
0.0
  0
SPLINE
  5
157
100
AcDbEntity
  8
0
 62
7
100
AcDbSpline
 70
8
 71
3
 72
8
 73
4
 74
0
 40
0
 40
0
 40
0
 40
0
 40
1
 40
1
 40
1
 40
1
 10
436.141242
 20
-143.552962
 30
0.0
 10
437.033016
 20
-144.444736
 30
0.0
 10
438.374171
 20
-144.711508
 30
0.0
 10
439.539329
 20
-144.228884
 30
0.0
  0
SPLINE
  5
158
100
AcDbEntity
  8
0
 62
7
100
AcDbSpline
 70
8
 71
3
 72
8
 73
4
 74
0
 40
0
 40
0
 40
0
 40
0
 40
1
 40
1
 40
1
 40
1
 10
439.539329
 20
-144.228884
 30
0.0
 10
440.704488
 20
-143.746260
 30
0.0
 10
441.464191
 20
-142.609283
 30
0.0
 10
441.464191
 20
-141.348125
 30
0.0
  0
SPLINE
  5
159
100
AcDbEntity
  8
0
 62
7
100
AcDbSpline
 70
8
 71
3
 72
8
 73
4
 74
0
 40
0
 40
0
 40
0
 40
0
 40
1
 40
1
 40
1
 40
1
 10
441.464191
 20
-141.348125
 30
0.0
 10
441.464191
 20
-140.521150
 30
0.0
 10
441.135677
 20
-139.728047
 30
0.0
 10
440.550918
 20
-139.143287
 30
0.0
  0
SPLINE
  5
15a
100
AcDbEntity
  8
0
 62
7
100
AcDbSpline
 70
8
 71
3
 72
8
 73
4
 74
0
 40
0
 40
0
 40
0
 40
0
 40
1
 40
1
 40
1
 40
1
 10
440.550918
 20
-139.143287
 30
0.0
 10
439.966158
 20
-138.558528
 30
0.0
 10
439.173055
 20
-138.230014
 30
0.0
 10
438.346080
 20
-138.230014
 30
0.0
  0
LWPOLYLINE
  5
15b
100
AcDbEntity
  8
0
 62
7
100
AcDbPolyline
 90
1
 70
1
 10
281.306880
 20
-370.103854
 30
0.0
  0
SPLINE
  5
15c
100
AcDbEntity
  8
0
 62
7
100
AcDbSpline
 70
8
 71
3
 72
8
 73
4
 74
0
 40
0
 40
0
 40
0
 40
0
 40
1
 40
1
 40
1
 40
1
 10
614.661120
 20
-130.292734
 30
0.0
 10
613.399962
 20
-130.292734
 30
0.0
 10
612.262985
 20
-131.052437
 30
0.0
 10
611.780361
 20
-132.217595
 30
0.0
  0
SPLINE
  5
15d
100
AcDbEntity
  8
0
 62
7
100
AcDbSpline
 70
8
 71
3
 72
8
 73
4
 74
0
 40
0
 40
0
 40
0
 40
0
 40
1
 40
1
 40
1
 40
1
 10
611.780361
 20
-132.217595
 30
0.0
 10
611.297737
 20
-133.382754
 30
0.0
 10
611.564509
 20
-134.723909
 30
0.0
 10
612.456282
 20
-135.615682
 30
0.0
  0
SPLINE
  5
15e
100
AcDbEntity
  8
0
 62
7
100
AcDbSpline
 70
8
 71
3
 72
8
 73
4
 74
0
 40
0
 40
0
 40
0
 40
0
 40
1
 40
1
 40
1
 40
1
 10
612.456282
 20
-135.615682
 30
0.0
 10
613.348056
 20
-136.507456
 30
0.0
 10
614.689211
 20
-136.774228
 30
0.0
 10
615.854369
 20
-136.291604
 30
0.0
  0
SPLINE
  5
15f
100
AcDbEntity
  8
0
 62
7
100
AcDbSpline
 70
8
 71
3
 72
8
 73
4
 74
0
 40
0
 40
0
 40
0
 40
0
 40
1
 40
1
 40
1
 40
1
 10
615.854369
 20
-136.291604
 30
0.0
 10
617.019528
 20
-135.808980
 30
0.0
 10
617.779231
 20
-134.672003
 30
0.0
 10
617.779231
 20
-133.410845
 30
0.0
  0
SPLINE
  5
160
100
AcDbEntity
  8
0
 62
7
100
AcDbSpline
 70
8
 71
3
 72
8
 73
4
 74
0
 40
0
 40
0
 40
0
 40
0
 40
1
 40
1
 40
1
 40
1
 10
617.779231
 20
-133.410845
 30
0.0
 10
617.779231
 20
-132.583870
 30
0.0
 10
617.450717
 20
-131.790767
 30
0.0
 10
616.865958
 20
-131.206007
 30
0.0
  0
SPLINE
  5
161
100
AcDbEntity
  8
0
 62
7
100
AcDbSpline
 70
8
 71
3
 72
8
 73
4
 74
0
 40
0
 40
0
 40
0
 40
0
 40
1
 40
1
 40
1
 40
1
 10
616.865958
 20
-131.206007
 30
0.0
 10
616.281198
 20
-130.621248
 30
0.0
 10
615.488095
 20
-130.292734
 30
0.0
 10
614.661120
 20
-130.292734
 30
0.0
  0
LWPOLYLINE
  5
162
100
AcDbEntity
  8
0
 62
7
100
AcDbPolyline
 90
1
 70
1
 10
438.346080
 20
-138.230014
 30
0.0
  0
SPLINE
  5
163
100
AcDbEntity
  8
0
 62
7
100
AcDbSpline
 70
8
 71
3
 72
8
 73
4
 74
0
 40
0
 40
0
 40
0
 40
0
 40
1
 40
1
 40
1
 40
1
 10
569.306880
 20
-32.214334
 30
0.0
 10
568.045722
 20
-32.214334
 30
0.0
 10
566.908745
 20
-32.974037
 30
0.0
 10
566.426121
 20
-34.139195
 30
0.0
  0
SPLINE
  5
164
100
AcDbEntity
  8
0
 62
7
100
AcDbSpline
 70
8
 71
3
 72
8
 73
4
 74
0
 40
0
 40
0
 40
0
 40
0
 40
1
 40
1
 40
1
 40
1
 10
566.426121
 20
-34.139195
 30
0.0
 10
565.943497
 20
-35.304354
 30
0.0
 10
566.210269
 20
-36.645509
 30
0.0
 10
567.102042
 20
-37.537282
 30
0.0
  0
SPLINE
  5
165
100
AcDbEntity
  8
0
 62
7
100
AcDbSpline
 70
8
 71
3
 72
8
 73
4
 74
0
 40
0
 40
0
 40
0
 40
0
 40
1
 40
1
 40
1
 40
1
 10
567.102042
 20
-37.537282
 30
0.0
 10
567.993816
 20
-38.429056
 30
0.0
 10
569.334971
 20
-38.695828
 30
0.0
 10
570.500129
 20
-38.213204
 30
0.0
  0
SPLINE
  5
166
100
AcDbEntity
  8
0
 62
7
100
AcDbSpline
 70
8
 71
3
 72
8
 73
4
 74
0
 40
0
 40
0
 40
0
 40
0
 40
1
 40
1
 40
1
 40
1
 10
570.500129
 20
-38.213204
 30
0.0
 10
571.665288
 20
-37.730580
 30
0.0
 10
572.424991
 20
-36.593603
 30
0.0
 10
572.424991
 20
-35.332445
 30
0.0
  0
SPLINE
  5
167
100
AcDbEntity
  8
0
 62
7
100
AcDbSpline
 70
8
 71
3
 72
8
 73
4
 74
0
 40
0
 40
0
 40
0
 40
0
 40
1
 40
1
 40
1
 40
1
 10
572.424991
 20
-35.332445
 30
0.0
 10
572.424991
 20
-33.610360
 30
0.0
 10
571.028965
 20
-32.214334
 30
0.0
 10
569.306880
 20
-32.214334
 30
0.0
  0
LWPOLYLINE
  5
168
100
AcDbEntity
  8
0
 62
7
100
AcDbPolyline
 90
1
 70
1
 10
614.661120
 20
-130.292734
 30
0.0
  0
SPLINE
  5
169
100
AcDbEntity
  8
0
 62
7
100
AcDbSpline
 70
8
 71
3
 72
8
 73
4
 74
0
 40
0
 40
0
 40
0
 40
0
 40
1
 40
1
 40
1
 40
1
 10
197.401680
 20
-268.623454
 30
0.0
 10
196.140522
 20
-268.623454
 30
0.0
 10
195.003545
 20
-269.383157
 30
0.0
 10
194.520921
 20
-270.548315
 30
0.0
  0
SPLINE
  5
16a
100
AcDbEntity
  8
0
 62
7
100
AcDbSpline
 70
8
 71
3
 72
8
 73
4
 74
0
 40
0
 40
0
 40
0
 40
0
 40
1
 40
1
 40
1
 40
1
 10
194.520921
 20
-270.548315
 30
0.0
 10
194.038297
 20
-271.713474
 30
0.0
 10
194.305069
 20
-273.054629
 30
0.0
 10
195.196842
 20
-273.946402
 30
0.0
  0
SPLINE
  5
16b
100
AcDbEntity
  8
0
 62
7
100
AcDbSpline
 70
8
 71
3
 72
8
 73
4
 74
0
 40
0
 40
0
 40
0
 40
0
 40
1
 40
1
 40
1
 40
1
 10
195.196842
 20
-273.946402
 30
0.0
 10
196.088616
 20
-274.838176
 30
0.0
 10
197.429771
 20
-275.104948
 30
0.0
 10
198.594929
 20
-274.622324
 30
0.0
  0
SPLINE
  5
16c
100
AcDbEntity
  8
0
 62
7
100
AcDbSpline
 70
8
 71
3
 72
8
 73
4
 74
0
 40
0
 40
0
 40
0
 40
0
 40
1
 40
1
 40
1
 40
1
 10
198.594929
 20
-274.622324
 30
0.0
 10
199.760088
 20
-274.139700
 30
0.0
 10
200.519791
 20
-273.002723
 30
0.0
 10
200.519791
 20
-271.741565
 30
0.0
  0
SPLINE
  5
16d
100
AcDbEntity
  8
0
 62
7
100
AcDbSpline
 70
8
 71
3
 72
8
 73
4
 74
0
 40
0
 40
0
 40
0
 40
0
 40
1
 40
1
 40
1
 40
1
 10
200.519791
 20
-271.741565
 30
0.0
 10
200.519791
 20
-270.019480
 30
0.0
 10
199.123765
 20
-268.623454
 30
0.0
 10
197.401680
 20
-268.623454
 30
0.0
  0
LWPOLYLINE
  5
16e
100
AcDbEntity
  8
0
 62
7
100
AcDbPolyline
 90
1
 70
1
 10
569.306880
 20
-32.214334
 30
0.0
  0
SPLINE
  5
16f
100
AcDbEntity
  8
0
 62
7
100
AcDbSpline
 70
8
 71
3
 72
8
 73
4
 74
0
 40
0
 40
0
 40
0
 40
0
 40
1
 40
1
 40
1
 40
1
 10
254.661120
 20
-136.529374
 30
0.0
 10
253.399962
 20
-136.529374
 30
0.0
 10
252.262985
 20
-137.289077
 30
0.0
 10
251.780361
 20
-138.454235
 30
0.0
  0
SPLINE
  5
170
100
AcDbEntity
  8
0
 62
7
100
AcDbSpline
 70
8
 71
3
 72
8
 73
4
 74
0
 40
0
 40
0
 40
0
 40
0
 40
1
 40
1
 40
1
 40
1
 10
251.780361
 20
-138.454235
 30
0.0
 10
251.297737
 20
-139.619394
 30
0.0
 10
251.564509
 20
-140.960549
 30
0.0
 10
252.456282
 20
-141.852322
 30
0.0
  0
SPLINE
  5
171
100
AcDbEntity
  8
0
 62
7
100
AcDbSpline
 70
8
 71
3
 72
8
 73
4
 74
0
 40
0
 40
0
 40
0
 40
0
 40
1
 40
1
 40
1
 40
1
 10
252.456282
 20
-141.852322
 30
0.0
 10
253.348056
 20
-142.744096
 30
0.0
 10
254.689211
 20
-143.010868
 30
0.0
 10
255.854369
 20
-142.528244
 30
0.0
  0
SPLINE
  5
172
100
AcDbEntity
  8
0
 62
7
100
AcDbSpline
 70
8
 71
3
 72
8
 73
4
 74
0
 40
0
 40
0
 40
0
 40
0
 40
1
 40
1
 40
1
 40
1
 10
255.854369
 20
-142.528244
 30
0.0
 10
257.019528
 20
-142.045620
 30
0.0
 10
257.779231
 20
-140.908643
 30
0.0
 10
257.779231
 20
-139.647485
 30
0.0
  0
SPLINE
  5
173
100
AcDbEntity
  8
0
 62
7
100
AcDbSpline
 70
8
 71
3
 72
8
 73
4
 74
0
 40
0
 40
0
 40
0
 40
0
 40
1
 40
1
 40
1
 40
1
 10
257.779231
 20
-139.647485
 30
0.0
 10
257.779231
 20
-138.820510
 30
0.0
 10
257.450717
 20
-138.027407
 30
0.0
 10
256.865958
 20
-137.442647
 30
0.0
  0
SPLINE
  5
174
100
AcDbEntity
  8
0
 62
7
100
AcDbSpline
 70
8
 71
3
 72
8
 73
4
 74
0
 40
0
 40
0
 40
0
 40
0
 40
1
 40
1
 40
1
 40
1
 10
256.865958
 20
-137.442647
 30
0.0
 10
256.281198
 20
-136.857888
 30
0.0
 10
255.488095
 20
-136.529374
 30
0.0
 10
254.661120
 20
-136.529374
 30
0.0
  0
LWPOLYLINE
  5
175
100
AcDbEntity
  8
0
 62
7
100
AcDbPolyline
 90
1
 70
1
 10
197.401680
 20
-268.623454
 30
0.0
  0
SPLINE
  5
176
100
AcDbEntity
  8
0
 62
7
100
AcDbSpline
 70
8
 71
3
 72
8
 73
4
 74
0
 40
0
 40
0
 40
0
 40
0
 40
1
 40
1
 40
1
 40
1
 10
70.409232
 20
-149.568574
 30
0.0
 10
69.148074
 20
-149.568574
 30
0.0
 10
68.011097
 20
-150.328277
 30
0.0
 10
67.528473
 20
-151.493435
 30
0.0
  0
SPLINE
  5
177
100
AcDbEntity
  8
0
 62
7
100
AcDbSpline
 70
8
 71
3
 72
8
 73
4
 74
0
 40
0
 40
0
 40
0
 40
0
 40
1
 40
1
 40
1
 40
1
 10
67.528473
 20
-151.493435
 30
0.0
 10
67.045849
 20
-152.658594
 30
0.0
 10
67.312621
 20
-153.999749
 30
0.0
 10
68.204394
 20
-154.891522
 30
0.0
  0
SPLINE
  5
178
100
AcDbEntity
  8
0
 62
7
100
AcDbSpline
 70
8
 71
3
 72
8
 73
4
 74
0
 40
0
 40
0
 40
0
 40
0
 40
1
 40
1
 40
1
 40
1
 10
68.204394
 20
-154.891522
 30
0.0
 10
69.096168
 20
-155.783296
 30
0.0
 10
70.437323
 20
-156.050068
 30
0.0
 10
71.602481
 20
-155.567444
 30
0.0
  0
SPLINE
  5
179
100
AcDbEntity
  8
0
 62
7
100
AcDbSpline
 70
8
 71
3
 72
8
 73
4
 74
0
 40
0
 40
0
 40
0
 40
0
 40
1
 40
1
 40
1
 40
1
 10
71.602481
 20
-155.567444
 30
0.0
 10
72.767640
 20
-155.084820
 30
0.0
 10
73.527343
 20
-153.947843
 30
0.0
 10
73.527343
 20
-152.686685
 30
0.0
  0
SPLINE
  5
17a
100
AcDbEntity
  8
0
 62
7
100
AcDbSpline
 70
8
 71
3
 72
8
 73
4
 74
0
 40
0
 40
0
 40
0
 40
0
 40
1
 40
1
 40
1
 40
1
 10
73.527343
 20
-152.686685
 30
0.0
 10
73.527343
 20
-150.964600
 30
0.0
 10
72.131317
 20
-149.568574
 30
0.0
 10
70.409232
 20
-149.568574
 30
0.0
  0
LWPOLYLINE
  5
17b
100
AcDbEntity
  8
0
 62
7
100
AcDbPolyline
 90
1
 70
1
 10
254.661120
 20
-136.529374
 30
0.0
  0
SPLINE
  5
17c
100
AcDbEntity
  8
0
 62
7
100
AcDbSpline
 70
8
 71
3
 72
8
 73
4
 74
0
 40
0
 40
0
 40
0
 40
0
 40
1
 40
1
 40
1
 40
1
 10
118.031040
 20
-49.789174
 30
0.0
 10
116.769882
 20
-49.789174
 30
0.0
 10
115.632905
 20
-50.548877
 30
0.0
 10
115.150281
 20
-51.714035
 30
0.0
  0
SPLINE
  5
17d
100
AcDbEntity
  8
0
 62
7
100
AcDbSpline
 70
8
 71
3
 72
8
 73
4
 74
0
 40
0
 40
0
 40
0
 40
0
 40
1
 40
1
 40
1
 40
1
 10
115.150281
 20
-51.714035
 30
0.0
 10
114.667657
 20
-52.879194
 30
0.0
 10
114.934429
 20
-54.220349
 30
0.0
 10
115.826202
 20
-55.112122
 30
0.0
  0
SPLINE
  5
17e
100
AcDbEntity
  8
0
 62
7
100
AcDbSpline
 70
8
 71
3
 72
8
 73
4
 74
0
 40
0
 40
0
 40
0
 40
0
 40
1
 40
1
 40
1
 40
1
 10
115.826202
 20
-55.112122
 30
0.0
 10
116.717976
 20
-56.003896
 30
0.0
 10
118.059131
 20
-56.270668
 30
0.0
 10
119.224289
 20
-55.788044
 30
0.0
  0
SPLINE
  5
17f
100
AcDbEntity
  8
0
 62
7
100
AcDbSpline
 70
8
 71
3
 72
8
 73
4
 74
0
 40
0
 40
0
 40
0
 40
0
 40
1
 40
1
 40
1
 40
1
 10
119.224289
 20
-55.788044
 30
0.0
 10
120.389448
 20
-55.305420
 30
0.0
 10
121.149151
 20
-54.168443
 30
0.0
 10
121.149151
 20
-52.907285
 30
0.0
  0
SPLINE
  5
180
100
AcDbEntity
  8
0
 62
7
100
AcDbSpline
 70
8
 71
3
 72
8
 73
4
 74
0
 40
0
 40
0
 40
0
 40
0
 40
1
 40
1
 40
1
 40
1
 10
121.149151
 20
-52.907285
 30
0.0
 10
121.149151
 20
-52.080310
 30
0.0
 10
120.820637
 20
-51.287207
 30
0.0
 10
120.235878
 20
-50.702447
 30
0.0
  0
SPLINE
  5
181
100
AcDbEntity
  8
0
 62
7
100
AcDbSpline
 70
8
 71
3
 72
8
 73
4
 74
0
 40
0
 40
0
 40
0
 40
0
 40
1
 40
1
 40
1
 40
1
 10
120.235878
 20
-50.702447
 30
0.0
 10
119.651118
 20
-50.117688
 30
0.0
 10
118.858015
 20
-49.789174
 30
0.0
 10
118.031040
 20
-49.789174
 30
0.0
  0
LWPOLYLINE
  5
182
100
AcDbEntity
  8
0
 62
7
100
AcDbPolyline
 90
1
 70
1
 10
70.409232
 20
-149.568574
 30
0.0
  0
SPLINE
  5
183
100
AcDbEntity
  8
0
 62
7
100
AcDbSpline
 70
8
 71
3
 72
8
 73
4
 74
0
 40
0
 40
0
 40
0
 40
0
 40
1
 40
1
 40
1
 40
1
 10
496.172880
 20
-270.891454
 30
0.0
 10
494.911722
 20
-270.891454
 30
0.0
 10
493.774745
 20
-271.651157
 30
0.0
 10
493.292121
 20
-272.816315
 30
0.0
  0
SPLINE
  5
184
100
AcDbEntity
  8
0
 62
7
100
AcDbSpline
 70
8
 71
3
 72
8
 73
4
 74
0
 40
0
 40
0
 40
0
 40
0
 40
1
 40
1
 40
1
 40
1
 10
493.292121
 20
-272.816315
 30
0.0
 10
492.809497
 20
-273.981474
 30
0.0
 10
493.076269
 20
-275.322629
 30
0.0
 10
493.968042
 20
-276.214402
 30
0.0
  0
SPLINE
  5
185
100
AcDbEntity
  8
0
 62
7
100
AcDbSpline
 70
8
 71
3
 72
8
 73
4
 74
0
 40
0
 40
0
 40
0
 40
0
 40
1
 40
1
 40
1
 40
1
 10
493.968042
 20
-276.214402
 30
0.0
 10
494.859816
 20
-277.106176
 30
0.0
 10
496.200971
 20
-277.372948
 30
0.0
 10
497.366129
 20
-276.890324
 30
0.0
  0
SPLINE
  5
186
100
AcDbEntity
  8
0
 62
7
100
AcDbSpline
 70
8
 71
3
 72
8
 73
4
 74
0
 40
0
 40
0
 40
0
 40
0
 40
1
 40
1
 40
1
 40
1
 10
497.366129
 20
-276.890324
 30
0.0
 10
498.531288
 20
-276.407700
 30
0.0
 10
499.290991
 20
-275.270723
 30
0.0
 10
499.290991
 20
-274.009565
 30
0.0
  0
SPLINE
  5
187
100
AcDbEntity
  8
0
 62
7
100
AcDbSpline
 70
8
 71
3
 72
8
 73
4
 74
0
 40
0
 40
0
 40
0
 40
0
 40
1
 40
1
 40
1
 40
1
 10
499.290991
 20
-274.009565
 30
0.0
 10
499.290991
 20
-273.182590
 30
0.0
 10
498.962477
 20
-272.389487
 30
0.0
 10
498.377718
 20
-271.804727
 30
0.0
  0
SPLINE
  5
188
100
AcDbEntity
  8
0
 62
7
100
AcDbSpline
 70
8
 71
3
 72
8
 73
4
 74
0
 40
0
 40
0
 40
0
 40
0
 40
1
 40
1
 40
1
 40
1
 10
498.377718
 20
-271.804727
 30
0.0
 10
497.792958
 20
-271.219968
 30
0.0
 10
496.999855
 20
-270.891454
 30
0.0
 10
496.172880
 20
-270.891454
 30
0.0
  0
LWPOLYLINE
  5
189
100
AcDbEntity
  8
0
 62
7
100
AcDbPolyline
 90
1
 70
1
 10
118.031040
 20
-49.789174
 30
0.0
  0
SPLINE
  5
18a
100
AcDbEntity
  8
0
 62
7
100
AcDbSpline
 70
8
 71
3
 72
8
 73
4
 74
0
 40
0
 40
0
 40
0
 40
0
 40
1
 40
1
 40
1
 40
1
 10
407.165040
 20
-368.970574
 30
0.0
 10
405.903882
 20
-368.970574
 30
0.0
 10
404.766905
 20
-369.730277
 30
0.0
 10
404.284281
 20
-370.895435
 30
0.0
  0
SPLINE
  5
18b
100
AcDbEntity
  8
0
 62
7
100
AcDbSpline
 70
8
 71
3
 72
8
 73
4
 74
0
 40
0
 40
0
 40
0
 40
0
 40
1
 40
1
 40
1
 40
1
 10
404.284281
 20
-370.895435
 30
0.0
 10
403.801657
 20
-372.060594
 30
0.0
 10
404.068429
 20
-373.401749
 30
0.0
 10
404.960202
 20
-374.293522
 30
0.0
  0
SPLINE
  5
18c
100
AcDbEntity
  8
0
 62
7
100
AcDbSpline
 70
8
 71
3
 72
8
 73
4
 74
0
 40
0
 40
0
 40
0
 40
0
 40
1
 40
1
 40
1
 40
1
 10
404.960202
 20
-374.293522
 30
0.0
 10
405.851976
 20
-375.185296
 30
0.0
 10
407.193131
 20
-375.452068
 30
0.0
 10
408.358289
 20
-374.969444
 30
0.0
  0
SPLINE
  5
18d
100
AcDbEntity
  8
0
 62
7
100
AcDbSpline
 70
8
 71
3
 72
8
 73
4
 74
0
 40
0
 40
0
 40
0
 40
0
 40
1
 40
1
 40
1
 40
1
 10
408.358289
 20
-374.969444
 30
0.0
 10
409.523448
 20
-374.486820
 30
0.0
 10
410.283151
 20
-373.349843
 30
0.0
 10
410.283151
 20
-372.088685
 30
0.0
  0
SPLINE
  5
18e
100
AcDbEntity
  8
0
 62
7
100
AcDbSpline
 70
8
 71
3
 72
8
 73
4
 74
0
 40
0
 40
0
 40
0
 40
0
 40
1
 40
1
 40
1
 40
1
 10
410.283151
 20
-372.088685
 30
0.0
 10
410.283151
 20
-371.261710
 30
0.0
 10
409.954637
 20
-370.468607
 30
0.0
 10
409.369878
 20
-369.883847
 30
0.0
  0
SPLINE
  5
18f
100
AcDbEntity
  8
0
 62
7
100
AcDbSpline
 70
8
 71
3
 72
8
 73
4
 74
0
 40
0
 40
0
 40
0
 40
0
 40
1
 40
1
 40
1
 40
1
 10
409.369878
 20
-369.883847
 30
0.0
 10
408.785118
 20
-369.299088
 30
0.0
 10
407.992015
 20
-368.970574
 30
0.0
 10
407.165040
 20
-368.970574
 30
0.0
  0
LWPOLYLINE
  5
190
100
AcDbEntity
  8
0
 62
7
100
AcDbPolyline
 90
1
 70
1
 10
496.172880
 20
-270.891454
 30
0.0
  0
SPLINE
  5
191
100
AcDbEntity
  8
0
 62
7
100
AcDbSpline
 70
8
 71
3
 72
8
 73
4
 74
0
 40
0
 40
0
 40
0
 40
0
 40
1
 40
1
 40
1
 40
1
 10
281.306880
 20
-370.103854
 30
0.0
 10
279.584795
 20
-370.103854
 30
0.0
 10
278.188769
 20
-371.499880
 30
0.0
 10
278.188769
 20
-373.221965
 30
0.0
  0
SPLINE
  5
192
100
AcDbEntity
  8
0
 62
7
100
AcDbSpline
 70
8
 71
3
 72
8
 73
4
 74
0
 40
0
 40
0
 40
0
 40
0
 40
1
 40
1
 40
1
 40
1
 10
278.188769
 20
-373.221965
 30
0.0
 10
278.188769
 20
-374.944050
 30
0.0
 10
279.584795
 20
-376.340076
 30
0.0
 10
281.306880
 20
-376.340076
 30
0.0
  0
SPLINE
  5
193
100
AcDbEntity
  8
0
 62
7
100
AcDbSpline
 70
8
 71
3
 72
8
 73
4
 74
0
 40
0
 40
0
 40
0
 40
0
 40
1
 40
1
 40
1
 40
1
 10
281.306880
 20
-376.340076
 30
0.0
 10
283.028965
 20
-376.340076
 30
0.0
 10
284.424991
 20
-374.944050
 30
0.0
 10
284.424991
 20
-373.221965
 30
0.0
  0
SPLINE
  5
194
100
AcDbEntity
  8
0
 62
7
100
AcDbSpline
 70
8
 71
3
 72
8
 73
4
 74
0
 40
0
 40
0
 40
0
 40
0
 40
1
 40
1
 40
1
 40
1
 10
284.424991
 20
-373.221965
 30
0.0
 10
284.424991
 20
-372.394990
 30
0.0
 10
284.096477
 20
-371.601887
 30
0.0
 10
283.511718
 20
-371.017127
 30
0.0
  0
SPLINE
  5
195
100
AcDbEntity
  8
0
 62
7
100
AcDbSpline
 70
8
 71
3
 72
8
 73
4
 74
0
 40
0
 40
0
 40
0
 40
0
 40
1
 40
1
 40
1
 40
1
 10
283.511718
 20
-371.017127
 30
0.0
 10
282.926958
 20
-370.432368
 30
0.0
 10
282.133855
 20
-370.103854
 30
0.0
 10
281.306880
 20
-370.103854
 30
0.0
  0
LWPOLYLINE
  5
196
100
AcDbEntity
  8
0
 62
7
100
AcDbPolyline
 90
1
 70
1
 10
407.165040
 20
-368.970574
 30
0.0
  0
SPLINE
  5
197
100
AcDbEntity
  8
0
 62
7
100
AcDbSpline
 70
8
 71
3
 72
8
 73
4
 74
0
 40
0
 40
0
 40
0
 40
0
 40
1
 40
1
 40
1
 40
1
 10
438.346080
 20
-138.230014
 30
0.0
 10
437.084922
 20
-138.230014
 30
0.0
 10
435.947945
 20
-138.989717
 30
0.0
 10
435.465321
 20
-140.154875
 30
0.0
  0
SPLINE
  5
198
100
AcDbEntity
  8
0
 62
7
100
AcDbSpline
 70
8
 71
3
 72
8
 73
4
 74
0
 40
0
 40
0
 40
0
 40
0
 40
1
 40
1
 40
1
 40
1
 10
435.465321
 20
-140.154875
 30
0.0
 10
434.982697
 20
-141.320034
 30
0.0
 10
435.249469
 20
-142.661189
 30
0.0
 10
436.141242
 20
-143.552962
 30
0.0
  0
SPLINE
  5
199
100
AcDbEntity
  8
0
 62
7
100
AcDbSpline
 70
8
 71
3
 72
8
 73
4
 74
0
 40
0
 40
0
 40
0
 40
0
 40
1
 40
1
 40
1
 40
1
 10
436.141242
 20
-143.552962
 30
0.0
 10
437.033016
 20
-144.444736
 30
0.0
 10
438.374171
 20
-144.711508
 30
0.0
 10
439.539329
 20
-144.228884
 30
0.0
  0
SPLINE
  5
19a
100
AcDbEntity
  8
0
 62
7
100
AcDbSpline
 70
8
 71
3
 72
8
 73
4
 74
0
 40
0
 40
0
 40
0
 40
0
 40
1
 40
1
 40
1
 40
1
 10
439.539329
 20
-144.228884
 30
0.0
 10
440.704488
 20
-143.746260
 30
0.0
 10
441.464191
 20
-142.609283
 30
0.0
 10
441.464191
 20
-141.348125
 30
0.0
  0
SPLINE
  5
19b
100
AcDbEntity
  8
0
 62
7
100
AcDbSpline
 70
8
 71
3
 72
8
 73
4
 74
0
 40
0
 40
0
 40
0
 40
0
 40
1
 40
1
 40
1
 40
1
 10
441.464191
 20
-141.348125
 30
0.0
 10
441.464191
 20
-140.521150
 30
0.0
 10
441.135677
 20
-139.728047
 30
0.0
 10
440.550918
 20
-139.143287
 30
0.0
  0
SPLINE
  5
19c
100
AcDbEntity
  8
0
 62
7
100
AcDbSpline
 70
8
 71
3
 72
8
 73
4
 74
0
 40
0
 40
0
 40
0
 40
0
 40
1
 40
1
 40
1
 40
1
 10
440.550918
 20
-139.143287
 30
0.0
 10
439.966158
 20
-138.558528
 30
0.0
 10
439.173055
 20
-138.230014
 30
0.0
 10
438.346080
 20
-138.230014
 30
0.0
  0
LWPOLYLINE
  5
19d
100
AcDbEntity
  8
0
 62
7
100
AcDbPolyline
 90
1
 70
1
 10
281.306880
 20
-370.103854
 30
0.0
  0
SPLINE
  5
19e
100
AcDbEntity
  8
0
 62
7
100
AcDbSpline
 70
8
 71
3
 72
8
 73
4
 74
0
 40
0
 40
0
 40
0
 40
0
 40
1
 40
1
 40
1
 40
1
 10
614.661120
 20
-130.292734
 30
0.0
 10
613.399962
 20
-130.292734
 30
0.0
 10
612.262985
 20
-131.052437
 30
0.0
 10
611.780361
 20
-132.217595
 30
0.0
  0
SPLINE
  5
19f
100
AcDbEntity
  8
0
 62
7
100
AcDbSpline
 70
8
 71
3
 72
8
 73
4
 74
0
 40
0
 40
0
 40
0
 40
0
 40
1
 40
1
 40
1
 40
1
 10
611.780361
 20
-132.217595
 30
0.0
 10
611.297737
 20
-133.382754
 30
0.0
 10
611.564509
 20
-134.723909
 30
0.0
 10
612.456282
 20
-135.615682
 30
0.0
  0
SPLINE
  5
1a0
100
AcDbEntity
  8
0
 62
7
100
AcDbSpline
 70
8
 71
3
 72
8
 73
4
 74
0
 40
0
 40
0
 40
0
 40
0
 40
1
 40
1
 40
1
 40
1
 10
612.456282
 20
-135.615682
 30
0.0
 10
613.348056
 20
-136.507456
 30
0.0
 10
614.689211
 20
-136.774228
 30
0.0
 10
615.854369
 20
-136.291604
 30
0.0
  0
SPLINE
  5
1a1
100
AcDbEntity
  8
0
 62
7
100
AcDbSpline
 70
8
 71
3
 72
8
 73
4
 74
0
 40
0
 40
0
 40
0
 40
0
 40
1
 40
1
 40
1
 40
1
 10
615.854369
 20
-136.291604
 30
0.0
 10
617.019528
 20
-135.808980
 30
0.0
 10
617.779231
 20
-134.672003
 30
0.0
 10
617.779231
 20
-133.410845
 30
0.0
  0
SPLINE
  5
1a2
100
AcDbEntity
  8
0
 62
7
100
AcDbSpline
 70
8
 71
3
 72
8
 73
4
 74
0
 40
0
 40
0
 40
0
 40
0
 40
1
 40
1
 40
1
 40
1
 10
617.779231
 20
-133.410845
 30
0.0
 10
617.779231
 20
-132.583870
 30
0.0
 10
617.450717
 20
-131.790767
 30
0.0
 10
616.865958
 20
-131.206007
 30
0.0
  0
SPLINE
  5
1a3
100
AcDbEntity
  8
0
 62
7
100
AcDbSpline
 70
8
 71
3
 72
8
 73
4
 74
0
 40
0
 40
0
 40
0
 40
0
 40
1
 40
1
 40
1
 40
1
 10
616.865958
 20
-131.206007
 30
0.0
 10
616.281198
 20
-130.621248
 30
0.0
 10
615.488095
 20
-130.292734
 30
0.0
 10
614.661120
 20
-130.292734
 30
0.0
  0
LWPOLYLINE
  5
1a4
100
AcDbEntity
  8
0
 62
7
100
AcDbPolyline
 90
1
 70
1
 10
438.346080
 20
-138.230014
 30
0.0
  0
SPLINE
  5
1a5
100
AcDbEntity
  8
0
 62
7
100
AcDbSpline
 70
8
 71
3
 72
8
 73
4
 74
0
 40
0
 40
0
 40
0
 40
0
 40
1
 40
1
 40
1
 40
1
 10
569.306880
 20
-32.214334
 30
0.0
 10
568.045722
 20
-32.214334
 30
0.0
 10
566.908745
 20
-32.974037
 30
0.0
 10
566.426121
 20
-34.139195
 30
0.0
  0
SPLINE
  5
1a6
100
AcDbEntity
  8
0
 62
7
100
AcDbSpline
 70
8
 71
3
 72
8
 73
4
 74
0
 40
0
 40
0
 40
0
 40
0
 40
1
 40
1
 40
1
 40
1
 10
566.426121
 20
-34.139195
 30
0.0
 10
565.943497
 20
-35.304354
 30
0.0
 10
566.210269
 20
-36.645509
 30
0.0
 10
567.102042
 20
-37.537282
 30
0.0
  0
SPLINE
  5
1a7
100
AcDbEntity
  8
0
 62
7
100
AcDbSpline
 70
8
 71
3
 72
8
 73
4
 74
0
 40
0
 40
0
 40
0
 40
0
 40
1
 40
1
 40
1
 40
1
 10
567.102042
 20
-37.537282
 30
0.0
 10
567.993816
 20
-38.429056
 30
0.0
 10
569.334971
 20
-38.695828
 30
0.0
 10
570.500129
 20
-38.213204
 30
0.0
  0
SPLINE
  5
1a8
100
AcDbEntity
  8
0
 62
7
100
AcDbSpline
 70
8
 71
3
 72
8
 73
4
 74
0
 40
0
 40
0
 40
0
 40
0
 40
1
 40
1
 40
1
 40
1
 10
570.500129
 20
-38.213204
 30
0.0
 10
571.665288
 20
-37.730580
 30
0.0
 10
572.424991
 20
-36.593603
 30
0.0
 10
572.424991
 20
-35.332445
 30
0.0
  0
SPLINE
  5
1a9
100
AcDbEntity
  8
0
 62
7
100
AcDbSpline
 70
8
 71
3
 72
8
 73
4
 74
0
 40
0
 40
0
 40
0
 40
0
 40
1
 40
1
 40
1
 40
1
 10
572.424991
 20
-35.332445
 30
0.0
 10
572.424991
 20
-33.610360
 30
0.0
 10
571.028965
 20
-32.214334
 30
0.0
 10
569.306880
 20
-32.214334
 30
0.0
  0
LWPOLYLINE
  5
1aa
100
AcDbEntity
  8
0
 62
7
100
AcDbPolyline
 90
1
 70
1
 10
614.661120
 20
-130.292734
 30
0.0
  0
SPLINE
  5
1ab
100
AcDbEntity
  8
0
 62
7
100
AcDbSpline
 70
8
 71
3
 72
8
 73
4
 74
0
 40
0
 40
0
 40
0
 40
0
 40
1
 40
1
 40
1
 40
1
 10
197.401680
 20
-268.623454
 30
0.0
 10
196.140522
 20
-268.623454
 30
0.0
 10
195.003545
 20
-269.383157
 30
0.0
 10
194.520921
 20
-270.548315
 30
0.0
  0
SPLINE
  5
1ac
100
AcDbEntity
  8
0
 62
7
100
AcDbSpline
 70
8
 71
3
 72
8
 73
4
 74
0
 40
0
 40
0
 40
0
 40
0
 40
1
 40
1
 40
1
 40
1
 10
194.520921
 20
-270.548315
 30
0.0
 10
194.038297
 20
-271.713474
 30
0.0
 10
194.305069
 20
-273.054629
 30
0.0
 10
195.196842
 20
-273.946402
 30
0.0
  0
SPLINE
  5
1ad
100
AcDbEntity
  8
0
 62
7
100
AcDbSpline
 70
8
 71
3
 72
8
 73
4
 74
0
 40
0
 40
0
 40
0
 40
0
 40
1
 40
1
 40
1
 40
1
 10
195.196842
 20
-273.946402
 30
0.0
 10
196.088616
 20
-274.838176
 30
0.0
 10
197.429771
 20
-275.104948
 30
0.0
 10
198.594929
 20
-274.622324
 30
0.0
  0
SPLINE
  5
1ae
100
AcDbEntity
  8
0
 62
7
100
AcDbSpline
 70
8
 71
3
 72
8
 73
4
 74
0
 40
0
 40
0
 40
0
 40
0
 40
1
 40
1
 40
1
 40
1
 10
198.594929
 20
-274.622324
 30
0.0
 10
199.760088
 20
-274.139700
 30
0.0
 10
200.519791
 20
-273.002723
 30
0.0
 10
200.519791
 20
-271.741565
 30
0.0
  0
SPLINE
  5
1af
100
AcDbEntity
  8
0
 62
7
100
AcDbSpline
 70
8
 71
3
 72
8
 73
4
 74
0
 40
0
 40
0
 40
0
 40
0
 40
1
 40
1
 40
1
 40
1
 10
200.519791
 20
-271.741565
 30
0.0
 10
200.519791
 20
-270.019480
 30
0.0
 10
199.123765
 20
-268.623454
 30
0.0
 10
197.401680
 20
-268.623454
 30
0.0
  0
LWPOLYLINE
  5
1b0
100
AcDbEntity
  8
0
 62
7
100
AcDbPolyline
 90
1
 70
1
 10
569.306880
 20
-32.214334
 30
0.0
  0
SPLINE
  5
1b1
100
AcDbEntity
  8
0
 62
7
100
AcDbSpline
 70
8
 71
3
 72
8
 73
4
 74
0
 40
0
 40
0
 40
0
 40
0
 40
1
 40
1
 40
1
 40
1
 10
254.661120
 20
-136.529374
 30
0.0
 10
253.399962
 20
-136.529374
 30
0.0
 10
252.262985
 20
-137.289077
 30
0.0
 10
251.780361
 20
-138.454235
 30
0.0
  0
SPLINE
  5
1b2
100
AcDbEntity
  8
0
 62
7
100
AcDbSpline
 70
8
 71
3
 72
8
 73
4
 74
0
 40
0
 40
0
 40
0
 40
0
 40
1
 40
1
 40
1
 40
1
 10
251.780361
 20
-138.454235
 30
0.0
 10
251.297737
 20
-139.619394
 30
0.0
 10
251.564509
 20
-140.960549
 30
0.0
 10
252.456282
 20
-141.852322
 30
0.0
  0
SPLINE
  5
1b3
100
AcDbEntity
  8
0
 62
7
100
AcDbSpline
 70
8
 71
3
 72
8
 73
4
 74
0
 40
0
 40
0
 40
0
 40
0
 40
1
 40
1
 40
1
 40
1
 10
252.456282
 20
-141.852322
 30
0.0
 10
253.348056
 20
-142.744096
 30
0.0
 10
254.689211
 20
-143.010868
 30
0.0
 10
255.854369
 20
-142.528244
 30
0.0
  0
SPLINE
  5
1b4
100
AcDbEntity
  8
0
 62
7
100
AcDbSpline
 70
8
 71
3
 72
8
 73
4
 74
0
 40
0
 40
0
 40
0
 40
0
 40
1
 40
1
 40
1
 40
1
 10
255.854369
 20
-142.528244
 30
0.0
 10
257.019528
 20
-142.045620
 30
0.0
 10
257.779231
 20
-140.908643
 30
0.0
 10
257.779231
 20
-139.647485
 30
0.0
  0
SPLINE
  5
1b5
100
AcDbEntity
  8
0
 62
7
100
AcDbSpline
 70
8
 71
3
 72
8
 73
4
 74
0
 40
0
 40
0
 40
0
 40
0
 40
1
 40
1
 40
1
 40
1
 10
257.779231
 20
-139.647485
 30
0.0
 10
257.779231
 20
-138.820510
 30
0.0
 10
257.450717
 20
-138.027407
 30
0.0
 10
256.865958
 20
-137.442647
 30
0.0
  0
SPLINE
  5
1b6
100
AcDbEntity
  8
0
 62
7
100
AcDbSpline
 70
8
 71
3
 72
8
 73
4
 74
0
 40
0
 40
0
 40
0
 40
0
 40
1
 40
1
 40
1
 40
1
 10
256.865958
 20
-137.442647
 30
0.0
 10
256.281198
 20
-136.857888
 30
0.0
 10
255.488095
 20
-136.529374
 30
0.0
 10
254.661120
 20
-136.529374
 30
0.0
  0
LWPOLYLINE
  5
1b7
100
AcDbEntity
  8
0
 62
7
100
AcDbPolyline
 90
1
 70
1
 10
197.401680
 20
-268.623454
 30
0.0
  0
SPLINE
  5
1b8
100
AcDbEntity
  8
0
 62
7
100
AcDbSpline
 70
8
 71
3
 72
8
 73
4
 74
0
 40
0
 40
0
 40
0
 40
0
 40
1
 40
1
 40
1
 40
1
 10
70.409232
 20
-149.568574
 30
0.0
 10
69.148074
 20
-149.568574
 30
0.0
 10
68.011097
 20
-150.328277
 30
0.0
 10
67.528473
 20
-151.493435
 30
0.0
  0
SPLINE
  5
1b9
100
AcDbEntity
  8
0
 62
7
100
AcDbSpline
 70
8
 71
3
 72
8
 73
4
 74
0
 40
0
 40
0
 40
0
 40
0
 40
1
 40
1
 40
1
 40
1
 10
67.528473
 20
-151.493435
 30
0.0
 10
67.045849
 20
-152.658594
 30
0.0
 10
67.312621
 20
-153.999749
 30
0.0
 10
68.204394
 20
-154.891522
 30
0.0
  0
SPLINE
  5
1ba
100
AcDbEntity
  8
0
 62
7
100
AcDbSpline
 70
8
 71
3
 72
8
 73
4
 74
0
 40
0
 40
0
 40
0
 40
0
 40
1
 40
1
 40
1
 40
1
 10
68.204394
 20
-154.891522
 30
0.0
 10
69.096168
 20
-155.783296
 30
0.0
 10
70.437323
 20
-156.050068
 30
0.0
 10
71.602481
 20
-155.567444
 30
0.0
  0
SPLINE
  5
1bb
100
AcDbEntity
  8
0
 62
7
100
AcDbSpline
 70
8
 71
3
 72
8
 73
4
 74
0
 40
0
 40
0
 40
0
 40
0
 40
1
 40
1
 40
1
 40
1
 10
71.602481
 20
-155.567444
 30
0.0
 10
72.767640
 20
-155.084820
 30
0.0
 10
73.527343
 20
-153.947843
 30
0.0
 10
73.527343
 20
-152.686685
 30
0.0
  0
SPLINE
  5
1bc
100
AcDbEntity
  8
0
 62
7
100
AcDbSpline
 70
8
 71
3
 72
8
 73
4
 74
0
 40
0
 40
0
 40
0
 40
0
 40
1
 40
1
 40
1
 40
1
 10
73.527343
 20
-152.686685
 30
0.0
 10
73.527343
 20
-150.964600
 30
0.0
 10
72.131317
 20
-149.568574
 30
0.0
 10
70.409232
 20
-149.568574
 30
0.0
  0
LWPOLYLINE
  5
1bd
100
AcDbEntity
  8
0
 62
7
100
AcDbPolyline
 90
1
 70
1
 10
254.661120
 20
-136.529374
 30
0.0
  0
SPLINE
  5
1be
100
AcDbEntity
  8
0
 62
7
100
AcDbSpline
 70
8
 71
3
 72
8
 73
4
 74
0
 40
0
 40
0
 40
0
 40
0
 40
1
 40
1
 40
1
 40
1
 10
118.031040
 20
-49.789174
 30
0.0
 10
116.769882
 20
-49.789174
 30
0.0
 10
115.632905
 20
-50.548877
 30
0.0
 10
115.150281
 20
-51.714035
 30
0.0
  0
SPLINE
  5
1bf
100
AcDbEntity
  8
0
 62
7
100
AcDbSpline
 70
8
 71
3
 72
8
 73
4
 74
0
 40
0
 40
0
 40
0
 40
0
 40
1
 40
1
 40
1
 40
1
 10
115.150281
 20
-51.714035
 30
0.0
 10
114.667657
 20
-52.879194
 30
0.0
 10
114.934429
 20
-54.220349
 30
0.0
 10
115.826202
 20
-55.112122
 30
0.0
  0
SPLINE
  5
1c0
100
AcDbEntity
  8
0
 62
7
100
AcDbSpline
 70
8
 71
3
 72
8
 73
4
 74
0
 40
0
 40
0
 40
0
 40
0
 40
1
 40
1
 40
1
 40
1
 10
115.826202
 20
-55.112122
 30
0.0
 10
116.717976
 20
-56.003896
 30
0.0
 10
118.059131
 20
-56.270668
 30
0.0
 10
119.224289
 20
-55.788044
 30
0.0
  0
SPLINE
  5
1c1
100
AcDbEntity
  8
0
 62
7
100
AcDbSpline
 70
8
 71
3
 72
8
 73
4
 74
0
 40
0
 40
0
 40
0
 40
0
 40
1
 40
1
 40
1
 40
1
 10
119.224289
 20
-55.788044
 30
0.0
 10
120.389448
 20
-55.305420
 30
0.0
 10
121.149151
 20
-54.168443
 30
0.0
 10
121.149151
 20
-52.907285
 30
0.0
  0
SPLINE
  5
1c2
100
AcDbEntity
  8
0
 62
7
100
AcDbSpline
 70
8
 71
3
 72
8
 73
4
 74
0
 40
0
 40
0
 40
0
 40
0
 40
1
 40
1
 40
1
 40
1
 10
121.149151
 20
-52.907285
 30
0.0
 10
121.149151
 20
-52.080310
 30
0.0
 10
120.820637
 20
-51.287207
 30
0.0
 10
120.235878
 20
-50.702447
 30
0.0
  0
SPLINE
  5
1c3
100
AcDbEntity
  8
0
 62
7
100
AcDbSpline
 70
8
 71
3
 72
8
 73
4
 74
0
 40
0
 40
0
 40
0
 40
0
 40
1
 40
1
 40
1
 40
1
 10
120.235878
 20
-50.702447
 30
0.0
 10
119.651118
 20
-50.117688
 30
0.0
 10
118.858015
 20
-49.789174
 30
0.0
 10
118.031040
 20
-49.789174
 30
0.0
  0
LWPOLYLINE
  5
1c4
100
AcDbEntity
  8
0
 62
7
100
AcDbPolyline
 90
1
 70
1
 10
70.409232
 20
-149.568574
 30
0.0
  0
SPLINE
  5
1c5
100
AcDbEntity
  8
0
 62
7
100
AcDbSpline
 70
8
 71
3
 72
8
 73
4
 74
0
 40
0
 40
0
 40
0
 40
0
 40
1
 40
1
 40
1
 40
1
 10
496.172880
 20
-270.891454
 30
0.0
 10
494.911722
 20
-270.891454
 30
0.0
 10
493.774745
 20
-271.651157
 30
0.0
 10
493.292121
 20
-272.816315
 30
0.0
  0
SPLINE
  5
1c6
100
AcDbEntity
  8
0
 62
7
100
AcDbSpline
 70
8
 71
3
 72
8
 73
4
 74
0
 40
0
 40
0
 40
0
 40
0
 40
1
 40
1
 40
1
 40
1
 10
493.292121
 20
-272.816315
 30
0.0
 10
492.809497
 20
-273.981474
 30
0.0
 10
493.076269
 20
-275.322629
 30
0.0
 10
493.968042
 20
-276.214402
 30
0.0
  0
SPLINE
  5
1c7
100
AcDbEntity
  8
0
 62
7
100
AcDbSpline
 70
8
 71
3
 72
8
 73
4
 74
0
 40
0
 40
0
 40
0
 40
0
 40
1
 40
1
 40
1
 40
1
 10
493.968042
 20
-276.214402
 30
0.0
 10
494.859816
 20
-277.106176
 30
0.0
 10
496.200971
 20
-277.372948
 30
0.0
 10
497.366129
 20
-276.890324
 30
0.0
  0
SPLINE
  5
1c8
100
AcDbEntity
  8
0
 62
7
100
AcDbSpline
 70
8
 71
3
 72
8
 73
4
 74
0
 40
0
 40
0
 40
0
 40
0
 40
1
 40
1
 40
1
 40
1
 10
497.366129
 20
-276.890324
 30
0.0
 10
498.531288
 20
-276.407700
 30
0.0
 10
499.290991
 20
-275.270723
 30
0.0
 10
499.290991
 20
-274.009565
 30
0.0
  0
SPLINE
  5
1c9
100
AcDbEntity
  8
0
 62
7
100
AcDbSpline
 70
8
 71
3
 72
8
 73
4
 74
0
 40
0
 40
0
 40
0
 40
0
 40
1
 40
1
 40
1
 40
1
 10
499.290991
 20
-274.009565
 30
0.0
 10
499.290991
 20
-273.182590
 30
0.0
 10
498.962477
 20
-272.389487
 30
0.0
 10
498.377718
 20
-271.804727
 30
0.0
  0
SPLINE
  5
1ca
100
AcDbEntity
  8
0
 62
7
100
AcDbSpline
 70
8
 71
3
 72
8
 73
4
 74
0
 40
0
 40
0
 40
0
 40
0
 40
1
 40
1
 40
1
 40
1
 10
498.377718
 20
-271.804727
 30
0.0
 10
497.792958
 20
-271.219968
 30
0.0
 10
496.999855
 20
-270.891454
 30
0.0
 10
496.172880
 20
-270.891454
 30
0.0
  0
LWPOLYLINE
  5
1cb
100
AcDbEntity
  8
0
 62
7
100
AcDbPolyline
 90
1
 70
1
 10
118.031040
 20
-49.789174
 30
0.0
  0
SPLINE
  5
1cc
100
AcDbEntity
  8
0
 62
7
100
AcDbSpline
 70
8
 71
3
 72
8
 73
4
 74
0
 40
0
 40
0
 40
0
 40
0
 40
1
 40
1
 40
1
 40
1
 10
407.165040
 20
-368.970574
 30
0.0
 10
405.903882
 20
-368.970574
 30
0.0
 10
404.766905
 20
-369.730277
 30
0.0
 10
404.284281
 20
-370.895435
 30
0.0
  0
SPLINE
  5
1cd
100
AcDbEntity
  8
0
 62
7
100
AcDbSpline
 70
8
 71
3
 72
8
 73
4
 74
0
 40
0
 40
0
 40
0
 40
0
 40
1
 40
1
 40
1
 40
1
 10
404.284281
 20
-370.895435
 30
0.0
 10
403.801657
 20
-372.060594
 30
0.0
 10
404.068429
 20
-373.401749
 30
0.0
 10
404.960202
 20
-374.293522
 30
0.0
  0
SPLINE
  5
1ce
100
AcDbEntity
  8
0
 62
7
100
AcDbSpline
 70
8
 71
3
 72
8
 73
4
 74
0
 40
0
 40
0
 40
0
 40
0
 40
1
 40
1
 40
1
 40
1
 10
404.960202
 20
-374.293522
 30
0.0
 10
405.851976
 20
-375.185296
 30
0.0
 10
407.193131
 20
-375.452068
 30
0.0
 10
408.358289
 20
-374.969444
 30
0.0
  0
SPLINE
  5
1cf
100
AcDbEntity
  8
0
 62
7
100
AcDbSpline
 70
8
 71
3
 72
8
 73
4
 74
0
 40
0
 40
0
 40
0
 40
0
 40
1
 40
1
 40
1
 40
1
 10
408.358289
 20
-374.969444
 30
0.0
 10
409.523448
 20
-374.486820
 30
0.0
 10
410.283151
 20
-373.349843
 30
0.0
 10
410.283151
 20
-372.088685
 30
0.0
  0
SPLINE
  5
1d0
100
AcDbEntity
  8
0
 62
7
100
AcDbSpline
 70
8
 71
3
 72
8
 73
4
 74
0
 40
0
 40
0
 40
0
 40
0
 40
1
 40
1
 40
1
 40
1
 10
410.283151
 20
-372.088685
 30
0.0
 10
410.283151
 20
-371.261710
 30
0.0
 10
409.954637
 20
-370.468607
 30
0.0
 10
409.369878
 20
-369.883847
 30
0.0
  0
SPLINE
  5
1d1
100
AcDbEntity
  8
0
 62
7
100
AcDbSpline
 70
8
 71
3
 72
8
 73
4
 74
0
 40
0
 40
0
 40
0
 40
0
 40
1
 40
1
 40
1
 40
1
 10
409.369878
 20
-369.883847
 30
0.0
 10
408.785118
 20
-369.299088
 30
0.0
 10
407.992015
 20
-368.970574
 30
0.0
 10
407.165040
 20
-368.970574
 30
0.0
  0
LWPOLYLINE
  5
1d2
100
AcDbEntity
  8
0
 62
7
100
AcDbPolyline
 90
1
 70
1
 10
496.172880
 20
-270.891454
 30
0.0
  0
SPLINE
  5
1d3
100
AcDbEntity
  8
0
 62
7
100
AcDbSpline
 70
8
 71
3
 72
8
 73
4
 74
0
 40
0
 40
0
 40
0
 40
0
 40
1
 40
1
 40
1
 40
1
 10
281.306880
 20
-370.103854
 30
0.0
 10
279.584795
 20
-370.103854
 30
0.0
 10
278.188769
 20
-371.499880
 30
0.0
 10
278.188769
 20
-373.221965
 30
0.0
  0
SPLINE
  5
1d4
100
AcDbEntity
  8
0
 62
7
100
AcDbSpline
 70
8
 71
3
 72
8
 73
4
 74
0
 40
0
 40
0
 40
0
 40
0
 40
1
 40
1
 40
1
 40
1
 10
278.188769
 20
-373.221965
 30
0.0
 10
278.188769
 20
-374.944050
 30
0.0
 10
279.584795
 20
-376.340076
 30
0.0
 10
281.306880
 20
-376.340076
 30
0.0
  0
SPLINE
  5
1d5
100
AcDbEntity
  8
0
 62
7
100
AcDbSpline
 70
8
 71
3
 72
8
 73
4
 74
0
 40
0
 40
0
 40
0
 40
0
 40
1
 40
1
 40
1
 40
1
 10
281.306880
 20
-376.340076
 30
0.0
 10
283.028965
 20
-376.340076
 30
0.0
 10
284.424991
 20
-374.944050
 30
0.0
 10
284.424991
 20
-373.221965
 30
0.0
  0
SPLINE
  5
1d6
100
AcDbEntity
  8
0
 62
7
100
AcDbSpline
 70
8
 71
3
 72
8
 73
4
 74
0
 40
0
 40
0
 40
0
 40
0
 40
1
 40
1
 40
1
 40
1
 10
284.424991
 20
-373.221965
 30
0.0
 10
284.424991
 20
-372.394990
 30
0.0
 10
284.096477
 20
-371.601887
 30
0.0
 10
283.511718
 20
-371.017127
 30
0.0
  0
SPLINE
  5
1d7
100
AcDbEntity
  8
0
 62
7
100
AcDbSpline
 70
8
 71
3
 72
8
 73
4
 74
0
 40
0
 40
0
 40
0
 40
0
 40
1
 40
1
 40
1
 40
1
 10
283.511718
 20
-371.017127
 30
0.0
 10
282.926958
 20
-370.432368
 30
0.0
 10
282.133855
 20
-370.103854
 30
0.0
 10
281.306880
 20
-370.103854
 30
0.0
  0
LWPOLYLINE
  5
1d8
100
AcDbEntity
  8
0
 62
7
100
AcDbPolyline
 90
1
 70
1
 10
407.165040
 20
-368.970574
 30
0.0
  0
SPLINE
  5
1d9
100
AcDbEntity
  8
0
 62
7
100
AcDbSpline
 70
8
 71
3
 72
8
 73
4
 74
0
 40
0
 40
0
 40
0
 40
0
 40
1
 40
1
 40
1
 40
1
 10
438.346080
 20
-138.230014
 30
0.0
 10
437.084922
 20
-138.230014
 30
0.0
 10
435.947945
 20
-138.989717
 30
0.0
 10
435.465321
 20
-140.154875
 30
0.0
  0
SPLINE
  5
1da
100
AcDbEntity
  8
0
 62
7
100
AcDbSpline
 70
8
 71
3
 72
8
 73
4
 74
0
 40
0
 40
0
 40
0
 40
0
 40
1
 40
1
 40
1
 40
1
 10
435.465321
 20
-140.154875
 30
0.0
 10
434.982697
 20
-141.320034
 30
0.0
 10
435.249469
 20
-142.661189
 30
0.0
 10
436.141242
 20
-143.552962
 30
0.0
  0
SPLINE
  5
1db
100
AcDbEntity
  8
0
 62
7
100
AcDbSpline
 70
8
 71
3
 72
8
 73
4
 74
0
 40
0
 40
0
 40
0
 40
0
 40
1
 40
1
 40
1
 40
1
 10
436.141242
 20
-143.552962
 30
0.0
 10
437.033016
 20
-144.444736
 30
0.0
 10
438.374171
 20
-144.711508
 30
0.0
 10
439.539329
 20
-144.228884
 30
0.0
  0
SPLINE
  5
1dc
100
AcDbEntity
  8
0
 62
7
100
AcDbSpline
 70
8
 71
3
 72
8
 73
4
 74
0
 40
0
 40
0
 40
0
 40
0
 40
1
 40
1
 40
1
 40
1
 10
439.539329
 20
-144.228884
 30
0.0
 10
440.704488
 20
-143.746260
 30
0.0
 10
441.464191
 20
-142.609283
 30
0.0
 10
441.464191
 20
-141.348125
 30
0.0
  0
SPLINE
  5
1dd
100
AcDbEntity
  8
0
 62
7
100
AcDbSpline
 70
8
 71
3
 72
8
 73
4
 74
0
 40
0
 40
0
 40
0
 40
0
 40
1
 40
1
 40
1
 40
1
 10
441.464191
 20
-141.348125
 30
0.0
 10
441.464191
 20
-140.521150
 30
0.0
 10
441.135677
 20
-139.728047
 30
0.0
 10
440.550918
 20
-139.143287
 30
0.0
  0
SPLINE
  5
1de
100
AcDbEntity
  8
0
 62
7
100
AcDbSpline
 70
8
 71
3
 72
8
 73
4
 74
0
 40
0
 40
0
 40
0
 40
0
 40
1
 40
1
 40
1
 40
1
 10
440.550918
 20
-139.143287
 30
0.0
 10
439.966158
 20
-138.558528
 30
0.0
 10
439.173055
 20
-138.230014
 30
0.0
 10
438.346080
 20
-138.230014
 30
0.0
  0
LWPOLYLINE
  5
1df
100
AcDbEntity
  8
0
 62
7
100
AcDbPolyline
 90
1
 70
1
 10
281.306880
 20
-370.103854
 30
0.0
  0
SPLINE
  5
1e0
100
AcDbEntity
  8
0
 62
7
100
AcDbSpline
 70
8
 71
3
 72
8
 73
4
 74
0
 40
0
 40
0
 40
0
 40
0
 40
1
 40
1
 40
1
 40
1
 10
614.661120
 20
-130.292734
 30
0.0
 10
613.399962
 20
-130.292734
 30
0.0
 10
612.262985
 20
-131.052437
 30
0.0
 10
611.780361
 20
-132.217595
 30
0.0
  0
SPLINE
  5
1e1
100
AcDbEntity
  8
0
 62
7
100
AcDbSpline
 70
8
 71
3
 72
8
 73
4
 74
0
 40
0
 40
0
 40
0
 40
0
 40
1
 40
1
 40
1
 40
1
 10
611.780361
 20
-132.217595
 30
0.0
 10
611.297737
 20
-133.382754
 30
0.0
 10
611.564509
 20
-134.723909
 30
0.0
 10
612.456282
 20
-135.615682
 30
0.0
  0
SPLINE
  5
1e2
100
AcDbEntity
  8
0
 62
7
100
AcDbSpline
 70
8
 71
3
 72
8
 73
4
 74
0
 40
0
 40
0
 40
0
 40
0
 40
1
 40
1
 40
1
 40
1
 10
612.456282
 20
-135.615682
 30
0.0
 10
613.348056
 20
-136.507456
 30
0.0
 10
614.689211
 20
-136.774228
 30
0.0
 10
615.854369
 20
-136.291604
 30
0.0
  0
SPLINE
  5
1e3
100
AcDbEntity
  8
0
 62
7
100
AcDbSpline
 70
8
 71
3
 72
8
 73
4
 74
0
 40
0
 40
0
 40
0
 40
0
 40
1
 40
1
 40
1
 40
1
 10
615.854369
 20
-136.291604
 30
0.0
 10
617.019528
 20
-135.808980
 30
0.0
 10
617.779231
 20
-134.672003
 30
0.0
 10
617.779231
 20
-133.410845
 30
0.0
  0
SPLINE
  5
1e4
100
AcDbEntity
  8
0
 62
7
100
AcDbSpline
 70
8
 71
3
 72
8
 73
4
 74
0
 40
0
 40
0
 40
0
 40
0
 40
1
 40
1
 40
1
 40
1
 10
617.779231
 20
-133.410845
 30
0.0
 10
617.779231
 20
-132.583870
 30
0.0
 10
617.450717
 20
-131.790767
 30
0.0
 10
616.865958
 20
-131.206007
 30
0.0
  0
SPLINE
  5
1e5
100
AcDbEntity
  8
0
 62
7
100
AcDbSpline
 70
8
 71
3
 72
8
 73
4
 74
0
 40
0
 40
0
 40
0
 40
0
 40
1
 40
1
 40
1
 40
1
 10
616.865958
 20
-131.206007
 30
0.0
 10
616.281198
 20
-130.621248
 30
0.0
 10
615.488095
 20
-130.292734
 30
0.0
 10
614.661120
 20
-130.292734
 30
0.0
  0
LWPOLYLINE
  5
1e6
100
AcDbEntity
  8
0
 62
7
100
AcDbPolyline
 90
1
 70
1
 10
438.346080
 20
-138.230014
 30
0.0
  0
SPLINE
  5
1e7
100
AcDbEntity
  8
0
 62
7
100
AcDbSpline
 70
8
 71
3
 72
8
 73
4
 74
0
 40
0
 40
0
 40
0
 40
0
 40
1
 40
1
 40
1
 40
1
 10
569.306880
 20
-32.214334
 30
0.0
 10
568.045722
 20
-32.214334
 30
0.0
 10
566.908745
 20
-32.974037
 30
0.0
 10
566.426121
 20
-34.139195
 30
0.0
  0
SPLINE
  5
1e8
100
AcDbEntity
  8
0
 62
7
100
AcDbSpline
 70
8
 71
3
 72
8
 73
4
 74
0
 40
0
 40
0
 40
0
 40
0
 40
1
 40
1
 40
1
 40
1
 10
566.426121
 20
-34.139195
 30
0.0
 10
565.943497
 20
-35.304354
 30
0.0
 10
566.210269
 20
-36.645509
 30
0.0
 10
567.102042
 20
-37.537282
 30
0.0
  0
SPLINE
  5
1e9
100
AcDbEntity
  8
0
 62
7
100
AcDbSpline
 70
8
 71
3
 72
8
 73
4
 74
0
 40
0
 40
0
 40
0
 40
0
 40
1
 40
1
 40
1
 40
1
 10
567.102042
 20
-37.537282
 30
0.0
 10
567.993816
 20
-38.429056
 30
0.0
 10
569.334971
 20
-38.695828
 30
0.0
 10
570.500129
 20
-38.213204
 30
0.0
  0
SPLINE
  5
1ea
100
AcDbEntity
  8
0
 62
7
100
AcDbSpline
 70
8
 71
3
 72
8
 73
4
 74
0
 40
0
 40
0
 40
0
 40
0
 40
1
 40
1
 40
1
 40
1
 10
570.500129
 20
-38.213204
 30
0.0
 10
571.665288
 20
-37.730580
 30
0.0
 10
572.424991
 20
-36.593603
 30
0.0
 10
572.424991
 20
-35.332445
 30
0.0
  0
SPLINE
  5
1eb
100
AcDbEntity
  8
0
 62
7
100
AcDbSpline
 70
8
 71
3
 72
8
 73
4
 74
0
 40
0
 40
0
 40
0
 40
0
 40
1
 40
1
 40
1
 40
1
 10
572.424991
 20
-35.332445
 30
0.0
 10
572.424991
 20
-33.610360
 30
0.0
 10
571.028965
 20
-32.214334
 30
0.0
 10
569.306880
 20
-32.214334
 30
0.0
  0
LWPOLYLINE
  5
1ec
100
AcDbEntity
  8
0
 62
7
100
AcDbPolyline
 90
1
 70
1
 10
614.661120
 20
-130.292734
 30
0.0
  0
SPLINE
  5
1ed
100
AcDbEntity
  8
0
 62
7
100
AcDbSpline
 70
8
 71
3
 72
8
 73
4
 74
0
 40
0
 40
0
 40
0
 40
0
 40
1
 40
1
 40
1
 40
1
 10
197.401680
 20
-268.623454
 30
0.0
 10
196.140522
 20
-268.623454
 30
0.0
 10
195.003545
 20
-269.383157
 30
0.0
 10
194.520921
 20
-270.548315
 30
0.0
  0
SPLINE
  5
1ee
100
AcDbEntity
  8
0
 62
7
100
AcDbSpline
 70
8
 71
3
 72
8
 73
4
 74
0
 40
0
 40
0
 40
0
 40
0
 40
1
 40
1
 40
1
 40
1
 10
194.520921
 20
-270.548315
 30
0.0
 10
194.038297
 20
-271.713474
 30
0.0
 10
194.305069
 20
-273.054629
 30
0.0
 10
195.196842
 20
-273.946402
 30
0.0
  0
SPLINE
  5
1ef
100
AcDbEntity
  8
0
 62
7
100
AcDbSpline
 70
8
 71
3
 72
8
 73
4
 74
0
 40
0
 40
0
 40
0
 40
0
 40
1
 40
1
 40
1
 40
1
 10
195.196842
 20
-273.946402
 30
0.0
 10
196.088616
 20
-274.838176
 30
0.0
 10
197.429771
 20
-275.104948
 30
0.0
 10
198.594929
 20
-274.622324
 30
0.0
  0
SPLINE
  5
1f0
100
AcDbEntity
  8
0
 62
7
100
AcDbSpline
 70
8
 71
3
 72
8
 73
4
 74
0
 40
0
 40
0
 40
0
 40
0
 40
1
 40
1
 40
1
 40
1
 10
198.594929
 20
-274.622324
 30
0.0
 10
199.760088
 20
-274.139700
 30
0.0
 10
200.519791
 20
-273.002723
 30
0.0
 10
200.519791
 20
-271.741565
 30
0.0
  0
SPLINE
  5
1f1
100
AcDbEntity
  8
0
 62
7
100
AcDbSpline
 70
8
 71
3
 72
8
 73
4
 74
0
 40
0
 40
0
 40
0
 40
0
 40
1
 40
1
 40
1
 40
1
 10
200.519791
 20
-271.741565
 30
0.0
 10
200.519791
 20
-270.019480
 30
0.0
 10
199.123765
 20
-268.623454
 30
0.0
 10
197.401680
 20
-268.623454
 30
0.0
  0
LWPOLYLINE
  5
1f2
100
AcDbEntity
  8
0
 62
7
100
AcDbPolyline
 90
1
 70
1
 10
569.306880
 20
-32.214334
 30
0.0
  0
SPLINE
  5
1f3
100
AcDbEntity
  8
0
 62
7
100
AcDbSpline
 70
8
 71
3
 72
8
 73
4
 74
0
 40
0
 40
0
 40
0
 40
0
 40
1
 40
1
 40
1
 40
1
 10
254.661120
 20
-136.529374
 30
0.0
 10
253.399962
 20
-136.529374
 30
0.0
 10
252.262985
 20
-137.289077
 30
0.0
 10
251.780361
 20
-138.454235
 30
0.0
  0
SPLINE
  5
1f4
100
AcDbEntity
  8
0
 62
7
100
AcDbSpline
 70
8
 71
3
 72
8
 73
4
 74
0
 40
0
 40
0
 40
0
 40
0
 40
1
 40
1
 40
1
 40
1
 10
251.780361
 20
-138.454235
 30
0.0
 10
251.297737
 20
-139.619394
 30
0.0
 10
251.564509
 20
-140.960549
 30
0.0
 10
252.456282
 20
-141.852322
 30
0.0
  0
SPLINE
  5
1f5
100
AcDbEntity
  8
0
 62
7
100
AcDbSpline
 70
8
 71
3
 72
8
 73
4
 74
0
 40
0
 40
0
 40
0
 40
0
 40
1
 40
1
 40
1
 40
1
 10
252.456282
 20
-141.852322
 30
0.0
 10
253.348056
 20
-142.744096
 30
0.0
 10
254.689211
 20
-143.010868
 30
0.0
 10
255.854369
 20
-142.528244
 30
0.0
  0
SPLINE
  5
1f6
100
AcDbEntity
  8
0
 62
7
100
AcDbSpline
 70
8
 71
3
 72
8
 73
4
 74
0
 40
0
 40
0
 40
0
 40
0
 40
1
 40
1
 40
1
 40
1
 10
255.854369
 20
-142.528244
 30
0.0
 10
257.019528
 20
-142.045620
 30
0.0
 10
257.779231
 20
-140.908643
 30
0.0
 10
257.779231
 20
-139.647485
 30
0.0
  0
SPLINE
  5
1f7
100
AcDbEntity
  8
0
 62
7
100
AcDbSpline
 70
8
 71
3
 72
8
 73
4
 74
0
 40
0
 40
0
 40
0
 40
0
 40
1
 40
1
 40
1
 40
1
 10
257.779231
 20
-139.647485
 30
0.0
 10
257.779231
 20
-138.820510
 30
0.0
 10
257.450717
 20
-138.027407
 30
0.0
 10
256.865958
 20
-137.442647
 30
0.0
  0
SPLINE
  5
1f8
100
AcDbEntity
  8
0
 62
7
100
AcDbSpline
 70
8
 71
3
 72
8
 73
4
 74
0
 40
0
 40
0
 40
0
 40
0
 40
1
 40
1
 40
1
 40
1
 10
256.865958
 20
-137.442647
 30
0.0
 10
256.281198
 20
-136.857888
 30
0.0
 10
255.488095
 20
-136.529374
 30
0.0
 10
254.661120
 20
-136.529374
 30
0.0
  0
LWPOLYLINE
  5
1f9
100
AcDbEntity
  8
0
 62
7
100
AcDbPolyline
 90
1
 70
1
 10
197.401680
 20
-268.623454
 30
0.0
  0
SPLINE
  5
1fa
100
AcDbEntity
  8
0
 62
7
100
AcDbSpline
 70
8
 71
3
 72
8
 73
4
 74
0
 40
0
 40
0
 40
0
 40
0
 40
1
 40
1
 40
1
 40
1
 10
70.409232
 20
-149.568574
 30
0.0
 10
69.148074
 20
-149.568574
 30
0.0
 10
68.011097
 20
-150.328277
 30
0.0
 10
67.528473
 20
-151.493435
 30
0.0
  0
SPLINE
  5
1fb
100
AcDbEntity
  8
0
 62
7
100
AcDbSpline
 70
8
 71
3
 72
8
 73
4
 74
0
 40
0
 40
0
 40
0
 40
0
 40
1
 40
1
 40
1
 40
1
 10
67.528473
 20
-151.493435
 30
0.0
 10
67.045849
 20
-152.658594
 30
0.0
 10
67.312621
 20
-153.999749
 30
0.0
 10
68.204394
 20
-154.891522
 30
0.0
  0
SPLINE
  5
1fc
100
AcDbEntity
  8
0
 62
7
100
AcDbSpline
 70
8
 71
3
 72
8
 73
4
 74
0
 40
0
 40
0
 40
0
 40
0
 40
1
 40
1
 40
1
 40
1
 10
68.204394
 20
-154.891522
 30
0.0
 10
69.096168
 20
-155.783296
 30
0.0
 10
70.437323
 20
-156.050068
 30
0.0
 10
71.602481
 20
-155.567444
 30
0.0
  0
SPLINE
  5
1fd
100
AcDbEntity
  8
0
 62
7
100
AcDbSpline
 70
8
 71
3
 72
8
 73
4
 74
0
 40
0
 40
0
 40
0
 40
0
 40
1
 40
1
 40
1
 40
1
 10
71.602481
 20
-155.567444
 30
0.0
 10
72.767640
 20
-155.084820
 30
0.0
 10
73.527343
 20
-153.947843
 30
0.0
 10
73.527343
 20
-152.686685
 30
0.0
  0
SPLINE
  5
1fe
100
AcDbEntity
  8
0
 62
7
100
AcDbSpline
 70
8
 71
3
 72
8
 73
4
 74
0
 40
0
 40
0
 40
0
 40
0
 40
1
 40
1
 40
1
 40
1
 10
73.527343
 20
-152.686685
 30
0.0
 10
73.527343
 20
-150.964600
 30
0.0
 10
72.131317
 20
-149.568574
 30
0.0
 10
70.409232
 20
-149.568574
 30
0.0
  0
LWPOLYLINE
  5
1ff
100
AcDbEntity
  8
0
 62
7
100
AcDbPolyline
 90
1
 70
1
 10
254.661120
 20
-136.529374
 30
0.0
  0
SPLINE
  5
200
100
AcDbEntity
  8
0
 62
7
100
AcDbSpline
 70
8
 71
3
 72
8
 73
4
 74
0
 40
0
 40
0
 40
0
 40
0
 40
1
 40
1
 40
1
 40
1
 10
118.031040
 20
-49.789174
 30
0.0
 10
116.769882
 20
-49.789174
 30
0.0
 10
115.632905
 20
-50.548877
 30
0.0
 10
115.150281
 20
-51.714035
 30
0.0
  0
SPLINE
  5
201
100
AcDbEntity
  8
0
 62
7
100
AcDbSpline
 70
8
 71
3
 72
8
 73
4
 74
0
 40
0
 40
0
 40
0
 40
0
 40
1
 40
1
 40
1
 40
1
 10
115.150281
 20
-51.714035
 30
0.0
 10
114.667657
 20
-52.879194
 30
0.0
 10
114.934429
 20
-54.220349
 30
0.0
 10
115.826202
 20
-55.112122
 30
0.0
  0
SPLINE
  5
202
100
AcDbEntity
  8
0
 62
7
100
AcDbSpline
 70
8
 71
3
 72
8
 73
4
 74
0
 40
0
 40
0
 40
0
 40
0
 40
1
 40
1
 40
1
 40
1
 10
115.826202
 20
-55.112122
 30
0.0
 10
116.717976
 20
-56.003896
 30
0.0
 10
118.059131
 20
-56.270668
 30
0.0
 10
119.224289
 20
-55.788044
 30
0.0
  0
SPLINE
  5
203
100
AcDbEntity
  8
0
 62
7
100
AcDbSpline
 70
8
 71
3
 72
8
 73
4
 74
0
 40
0
 40
0
 40
0
 40
0
 40
1
 40
1
 40
1
 40
1
 10
119.224289
 20
-55.788044
 30
0.0
 10
120.389448
 20
-55.305420
 30
0.0
 10
121.149151
 20
-54.168443
 30
0.0
 10
121.149151
 20
-52.907285
 30
0.0
  0
SPLINE
  5
204
100
AcDbEntity
  8
0
 62
7
100
AcDbSpline
 70
8
 71
3
 72
8
 73
4
 74
0
 40
0
 40
0
 40
0
 40
0
 40
1
 40
1
 40
1
 40
1
 10
121.149151
 20
-52.907285
 30
0.0
 10
121.149151
 20
-52.080310
 30
0.0
 10
120.820637
 20
-51.287207
 30
0.0
 10
120.235878
 20
-50.702447
 30
0.0
  0
SPLINE
  5
205
100
AcDbEntity
  8
0
 62
7
100
AcDbSpline
 70
8
 71
3
 72
8
 73
4
 74
0
 40
0
 40
0
 40
0
 40
0
 40
1
 40
1
 40
1
 40
1
 10
120.235878
 20
-50.702447
 30
0.0
 10
119.651118
 20
-50.117688
 30
0.0
 10
118.858015
 20
-49.789174
 30
0.0
 10
118.031040
 20
-49.789174
 30
0.0
  0
LWPOLYLINE
  5
206
100
AcDbEntity
  8
0
 62
7
100
AcDbPolyline
 90
1
 70
1
 10
70.409232
 20
-149.568574
 30
0.0
  0
LWPOLYLINE
  5
207
100
AcDbEntity
  8
0
 62
7
100
AcDbPolyline
 90
1
 70
1
 10
118.031040
 20
-49.789174
 30
0.0
  0
LWPOLYLINE
  5
208
100
AcDbEntity
  8
0
 62
7
100
AcDbPolyline
 90
2
 70
0
 10
430.495200
 20
-365.169485
 30
0.0
 10
458.150400
 20
-337.499885
 30
0.0
  0
LWPOLYLINE
  5
209
100
AcDbEntity
  8
0
 62
7
100
AcDbPolyline
 90
2
 70
0
 10
402.832800
 20
-337.485485
 30
0.0
 10
430.495200
 20
-365.169485
 30
0.0
  0
LWPOLYLINE
  5
20a
100
AcDbEntity
  8
0
 62
7
100
AcDbPolyline
 90
3
 70
0
 10
458.150400
 20
-337.499885
 30
0.0
 10
430.509600
 20
-309.851885
 30
0.0
 10
402.832800
 20
-337.485485
 30
0.0
  0
LWPOLYLINE
  5
20b
100
AcDbEntity
  8
0
 62
7
100
AcDbPolyline
 90
2
 70
0
 10
471.297600
 20
-326.483885
 30
0.0
 10
503.344800
 20
-304.034285
 30
0.0
  0
LWPOLYLINE
  5
20c
100
AcDbEntity
  8
0
 62
7
100
AcDbPolyline
 90
2
 70
0
 10
448.869600
 20
-294.415085
 30
0.0
 10
471.297600
 20
-326.483885
 30
0.0
  0
LWPOLYLINE
  5
20d
100
AcDbEntity
  8
0
 62
7
100
AcDbPolyline
 90
3
 70
0
 10
503.344800
 20
-304.034285
 30
0.0
 10
480.924000
 20
-272.008685
 30
0.0
 10
448.869600
 20
-294.415085
 30
0.0
  0
LWPOLYLINE
  5
20e
100
AcDbEntity
  8
0
 62
7
100
AcDbPolyline
 90
2
 70
0
 10
518.205600
 20
-295.466285
 30
0.0
 10
553.658400
 20
-278.927885
 30
0.0
  0
LWPOLYLINE
  5
20f
100
AcDbEntity
  8
0
 62
7
100
AcDbPolyline
 90
2
 70
0
 10
501.681600
 20
-259.991885
 30
0.0
 10
518.205600
 20
-295.466285
 30
0.0
  0
LWPOLYLINE
  5
210
100
AcDbEntity
  8
0
 62
7
100
AcDbPolyline
 90
3
 70
0
 10
553.658400
 20
-278.927885
 30
0.0
 10
537.141600
 20
-243.489485
 30
0.0
 10
501.681600
 20
-259.991885
 30
0.0
  0
LWPOLYLINE
  5
211
100
AcDbEntity
  8
0
 62
7
100
AcDbPolyline
 90
2
 70
0
 10
638.877600
 20
-171.935885
 30
0.0
 10
674.330400
 20
-155.390285
 30
0.0
  0
LWPOLYLINE
  5
212
100
AcDbEntity
  8
0
 62
7
100
AcDbPolyline
 90
2
 70
0
 10
622.353600
 20
-136.461485
 30
0.0
 10
638.877600
 20
-171.935885
 30
0.0
  0
LWPOLYLINE
  5
213
100
AcDbEntity
  8
0
 62
7
100
AcDbPolyline
 90
3
 70
0
 10
674.330400
 20
-155.390285
 30
0.0
 10
657.813600
 20
-119.959085
 30
0.0
 10
622.353600
 20
-136.461485
 30
0.0
  0
LWPOLYLINE
  5
214
100
AcDbEntity
  8
0
 62
7
100
AcDbPolyline
 90
2
 70
0
 10
616.118400
 20
-123.119885
 30
0.0
 10
651.571200
 20
-106.581485
 30
0.0
  0
LWPOLYLINE
  5
215
100
AcDbEntity
  8
0
 62
7
100
AcDbPolyline
 90
2
 70
0
 10
599.594400
 20
-87.645485
 30
0.0
 10
616.118400
 20
-123.119885
 30
0.0
  0
LWPOLYLINE
  5
216
100
AcDbEntity
  8
0
 62
7
100
AcDbPolyline
 90
3
 70
0
 10
651.571200
 20
-106.581485
 30
0.0
 10
635.047200
 20
-71.143085
 30
0.0
 10
599.594400
 20
-87.645485
 30
0.0
  0
LWPOLYLINE
  5
217
100
AcDbEntity
  8
0
 62
7
100
AcDbPolyline
 90
2
 70
0
 10
593.352000
 20
-74.311085
 30
0.0
 10
628.804800
 20
-57.765485
 30
0.0
  0
LWPOLYLINE
  5
218
100
AcDbEntity
  8
0
 62
7
100
AcDbPolyline
 90
2
 70
0
 10
576.828000
 20
-38.836685
 30
0.0
 10
593.352000
 20
-74.311085
 30
0.0
  0
LWPOLYLINE
  5
219
100
AcDbEntity
  8
0
 62
7
100
AcDbPolyline
 90
3
 70
0
 10
628.804800
 20
-57.765485
 30
0.0
 10
612.288000
 20
-22.334285
 30
0.0
 10
576.828000
 20
-38.836685
 30
0.0
  0
LWPOLYLINE
  5
21a
100
AcDbEntity
  8
0
 62
7
100
AcDbPolyline
 90
2
 70
0
 10
597.830400
 20
-211.391885
 30
0.0
 10
633.283200
 20
-194.853485
 30
0.0
  0
LWPOLYLINE
  5
21b
100
AcDbEntity
  8
0
 62
7
100
AcDbPolyline
 90
2
 70
0
 10
581.306400
 20
-175.917485
 30
0.0
 10
597.830400
 20
-211.391885
 30
0.0
  0
LWPOLYLINE
  5
21c
100
AcDbEntity
  8
0
 62
7
100
AcDbPolyline
 90
3
 70
0
 10
633.283200
 20
-194.853485
 30
0.0
 10
616.766400
 20
-159.415085
 30
0.0
 10
581.306400
 20
-175.917485
 30
0.0
  0
LWPOLYLINE
  5
21d
100
AcDbEntity
  8
0
 62
7
100
AcDbPolyline
 90
2
 70
0
 10
575.100000
 20
-162.583085
 30
0.0
 10
610.552800
 20
-146.037485
 30
0.0
  0
LWPOLYLINE
  5
21e
100
AcDbEntity
  8
0
 62
7
100
AcDbPolyline
 90
2
 70
0
 10
558.576000
 20
-127.101485
 30
0.0
 10
575.100000
 20
-162.583085
 30
0.0
  0
LWPOLYLINE
  5
21f
100
AcDbEntity
  8
0
 62
7
100
AcDbPolyline
 90
3
 70
0
 10
610.552800
 20
-146.037485
 30
0.0
 10
594.028800
 20
-110.599085
 30
0.0
 10
558.576000
 20
-127.101485
 30
0.0
  0
LWPOLYLINE
  5
220
100
AcDbEntity
  8
0
 62
7
100
AcDbPolyline
 90
2
 70
0
 10
552.333600
 20
-113.795885
 30
0.0
 10
587.786400
 20
-97.257485
 30
0.0
  0
LWPOLYLINE
  5
221
100
AcDbEntity
  8
0
 62
7
100
AcDbPolyline
 90
2
 70
0
 10
535.809600
 20
-78.321485
 30
0.0
 10
552.333600
 20
-113.795885
 30
0.0
  0
LWPOLYLINE
  5
222
100
AcDbEntity
  8
0
 62
7
100
AcDbPolyline
 90
3
 70
0
 10
587.786400
 20
-97.257485
 30
0.0
 10
571.269600
 20
-61.819085
 30
0.0
 10
535.809600
 20
-78.321485
 30
0.0
  0
LWPOLYLINE
  5
223
100
AcDbEntity
  8
0
 62
7
100
AcDbPolyline
 90
2
 70
0
 10
529.574400
 20
-64.958285
 30
0.0
 10
565.027200
 20
-48.412685
 30
0.0
  0
LWPOLYLINE
  5
224
100
AcDbEntity
  8
0
 62
7
100
AcDbPolyline
 90
2
 70
0
 10
513.050400
 20
-29.476685
 30
0.0
 10
529.574400
 20
-64.958285
 30
0.0
  0
LWPOLYLINE
  5
225
100
AcDbEntity
  8
0
 62
7
100
AcDbPolyline
 90
3
 70
0
 10
565.027200
 20
-48.412685
 30
0.0
 10
548.503200
 20
-12.974285
 30
0.0
 10
513.050400
 20
-29.476685
 30
0.0
  0
LWPOLYLINE
  5
226
100
AcDbEntity
  8
0
 62
7
100
AcDbPolyline
 90
2
 70
0
 10
543.038400
 20
-221.313485
 30
0.0
 10
578.491200
 20
-204.775085
 30
0.0
  0
LWPOLYLINE
  5
227
100
AcDbEntity
  8
0
 62
7
100
AcDbPolyline
 90
2
 70
0
 10
526.514400
 20
-185.839085
 30
0.0
 10
543.038400
 20
-221.313485
 30
0.0
  0
LWPOLYLINE
  5
228
100
AcDbEntity
  8
0
 62
7
100
AcDbPolyline
 90
3
 70
0
 10
578.491200
 20
-204.775085
 30
0.0
 10
561.974400
 20
-169.336685
 30
0.0
 10
526.514400
 20
-185.839085
 30
0.0
  0
LWPOLYLINE
  5
229
100
AcDbEntity
  8
0
 62
7
100
AcDbPolyline
 90
2
 70
0
 10
520.279200
 20
-172.504685
 30
0.0
 10
555.732000
 20
-155.959085
 30
0.0
  0
LWPOLYLINE
  5
22a
100
AcDbEntity
  8
0
 62
7
100
AcDbPolyline
 90
2
 70
0
 10
503.755200
 20
-137.023085
 30
0.0
 10
520.279200
 20
-172.504685
 30
0.0
  0
LWPOLYLINE
  5
22b
100
AcDbEntity
  8
0
 62
7
100
AcDbPolyline
 90
3
 70
0
 10
555.732000
 20
-155.959085
 30
0.0
 10
539.208000
 20
-120.520685
 30
0.0
 10
503.755200
 20
-137.023085
 30
0.0
  0
LWPOLYLINE
  5
22c
100
AcDbEntity
  8
0
 62
7
100
AcDbPolyline
 90
2
 70
0
 10
497.512800
 20
-123.688685
 30
0.0
 10
532.965600
 20
-107.150285
 30
0.0
  0
LWPOLYLINE
  5
22d
100
AcDbEntity
  8
0
 62
7
100
AcDbPolyline
 90
2
 70
0
 10
480.988800
 20
-88.214285
 30
0.0
 10
497.512800
 20
-123.688685
 30
0.0
  0
LWPOLYLINE
  5
22e
100
AcDbEntity
  8
0
 62
7
100
AcDbPolyline
 90
3
 70
0
 10
532.965600
 20
-107.150285
 30
0.0
 10
516.448800
 20
-71.711885
 30
0.0
 10
480.988800
 20
-88.214285
 30
0.0
  0
LWPOLYLINE
  5
22f
100
AcDbEntity
  8
0
 62
7
100
AcDbPolyline
 90
2
 70
0
 10
474.753600
 20
-74.879885
 30
0.0
 10
510.206400
 20
-58.334285
 30
0.0
  0
LWPOLYLINE
  5
230
100
AcDbEntity
  8
0
 62
7
100
AcDbPolyline
 90
2
 70
0
 10
458.229600
 20
-39.398285
 30
0.0
 10
474.753600
 20
-74.879885
 30
0.0
  0
LWPOLYLINE
  5
231
100
AcDbEntity
  8
0
 62
7
100
AcDbPolyline
 90
3
 70
0
 10
510.206400
 20
-58.334285
 30
0.0
 10
493.682400
 20
-22.895885
 30
0.0
 10
458.229600
 20
-39.398285
 30
0.0
  0
LWPOLYLINE
  5
232
100
AcDbEntity
  8
0
 62
7
100
AcDbPolyline
 90
2
 70
0
 10
477.475200
 20
-208.101485
 30
0.0
 10
512.928000
 20
-191.563085
 30
0.0
  0
LWPOLYLINE
  5
233
100
AcDbEntity
  8
0
 62
7
100
AcDbPolyline
 90
2
 70
0
 10
460.951200
 20
-172.627085
 30
0.0
 10
477.475200
 20
-208.101485
 30
0.0
  0
LWPOLYLINE
  5
234
100
AcDbEntity
  8
0
 62
7
100
AcDbPolyline
 90
3
 70
0
 10
512.928000
 20
-191.563085
 30
0.0
 10
496.404000
 20
-156.124685
 30
0.0
 10
460.951200
 20
-172.627085
 30
0.0
  0
LWPOLYLINE
  5
235
100
AcDbEntity
  8
0
 62
7
100
AcDbPolyline
 90
2
 70
0
 10
454.708800
 20
-159.292685
 30
0.0
 10
490.161600
 20
-142.747085
 30
0.0
  0
LWPOLYLINE
  5
236
100
AcDbEntity
  8
0
 62
7
100
AcDbPolyline
 90
2
 70
0
 10
438.184800
 20
-123.818285
 30
0.0
 10
454.708800
 20
-159.292685
 30
0.0
  0
LWPOLYLINE
  5
237
100
AcDbEntity
  8
0
 62
7
100
AcDbPolyline
 90
3
 70
0
 10
490.161600
 20
-142.747085
 30
0.0
 10
473.644800
 20
-107.315885
 30
0.0
 10
438.184800
 20
-123.818285
 30
0.0
  0
LWPOLYLINE
  5
238
100
AcDbEntity
  8
0
 62
7
100
AcDbPolyline
 90
2
 70
0
 10
431.949600
 20
-110.476685
 30
0.0
 10
467.402400
 20
-93.938285
 30
0.0
  0
LWPOLYLINE
  5
239
100
AcDbEntity
  8
0
 62
7
100
AcDbPolyline
 90
2
 70
0
 10
415.425600
 20
-75.002285
 30
0.0
 10
431.949600
 20
-110.476685
 30
0.0
  0
LWPOLYLINE
  5
23a
100
AcDbEntity
  8
0
 62
7
100
AcDbPolyline
 90
3
 70
0
 10
467.402400
 20
-93.938285
 30
0.0
 10
450.878400
 20
-58.499885
 30
0.0
 10
415.425600
 20
-75.002285
 30
0.0
  0
LWPOLYLINE
  5
23b
100
AcDbEntity
  8
0
 62
7
100
AcDbPolyline
 90
2
 70
0
 10
386.114400
 20
-139.679885
 30
0.0
 10
421.567200
 20
-123.134285
 30
0.0
  0
LWPOLYLINE
  5
23c
100
AcDbEntity
  8
0
 62
7
100
AcDbPolyline
 90
2
 70
0
 10
369.590400
 20
-104.198285
 30
0.0
 10
386.114400
 20
-139.679885
 30
0.0
  0
LWPOLYLINE
  5
23d
100
AcDbEntity
  8
0
 62
7
100
AcDbPolyline
 90
3
 70
0
 10
421.567200
 20
-123.134285
 30
0.0
 10
405.043200
 20
-87.695885
 30
0.0
 10
369.590400
 20
-104.198285
 30
0.0
  0
LWPOLYLINE
  5
23e
100
AcDbEntity
  8
0
 62
7
100
AcDbPolyline
 90
2
 70
0
 10
408.902400
 20
-188.488685
 30
0.0
 10
444.355200
 20
-171.950285
 30
0.0
  0
LWPOLYLINE
  5
23f
100
AcDbEntity
  8
0
 62
7
100
AcDbPolyline
 90
2
 70
0
 10
392.378400
 20
-153.014285
 30
0.0
 10
408.902400
 20
-188.488685
 30
0.0
  0
LWPOLYLINE
  5
240
100
AcDbEntity
  8
0
 62
7
100
AcDbPolyline
 90
3
 70
0
 10
444.355200
 20
-171.950285
 30
0.0
 10
427.838400
 20
-136.511885
 30
0.0
 10
392.378400
 20
-153.014285
 30
0.0
  0
LWPOLYLINE
  5
241
100
AcDbEntity
  8
0
 62
7
100
AcDbPolyline
 90
4
 70
1
 10
431.640000
 20
-237.304685
 30
0.0
 10
467.092800
 20
-220.759085
 30
0.0
 10
450.568800
 20
-185.320685
 30
0.0
 10
415.108800
 20
-201.823085
 30
0.0
  0
LWPOLYLINE
  5
242
100
AcDbEntity
  8
0
 62
7
100
AcDbPolyline
 90
4
 70
1
 10
233.683200
 20
-337.507085
 30
0.0
 10
261.352800
 20
-365.169485
 30
0.0
 10
289.000800
 20
-337.521485
 30
0.0
 10
261.367200
 20
-309.844685
 30
0.0
  0
LWPOLYLINE
  5
243
100
AcDbEntity
  8
0
 62
7
100
AcDbPolyline
 90
4
 70
1
 10
188.496000
 20
-304.041485
 30
0.0
 10
220.550400
 20
-326.476685
 30
0.0
 10
242.978400
 20
-294.451085
 30
0.0
 10
210.952800
 20
-271.994285
 30
0.0
  0
LWPOLYLINE
  5
244
100
AcDbEntity
  8
0
 62
7
100
AcDbPolyline
 90
4
 70
1
 10
138.182400
 20
-278.935085
 30
0.0
 10
173.642400
 20
-295.466285
 30
0.0
 10
190.166400
 20
-260.027885
 30
0.0
 10
154.735200
 20
-243.475085
 30
0.0
  0
LWPOLYLINE
  5
245
100
AcDbEntity
  8
0
 62
7
100
AcDbPolyline
 90
4
 70
1
 10
63.036000
 20
-57.779885
 30
0.0
 10
98.496000
 20
-74.303885
 30
0.0
 10
115.020000
 20
-38.872685
 30
0.0
 10
79.588800
 20
-22.319885
 30
0.0
  0
LWPOLYLINE
  5
246
100
AcDbEntity
  8
0
 62
7
100
AcDbPolyline
 90
4
 70
1
 10
40.276800
 20
-106.588685
 30
0.0
 10
75.736800
 20
-123.119885
 30
0.0
 10
92.260800
 20
-87.681485
 30
0.0
 10
56.829600
 20
-71.128685
 30
0.0
  0
LWPOLYLINE
  5
247
100
AcDbEntity
  8
0
 62
7
100
AcDbPolyline
 90
4
 70
1
 10
17.510400
 20
-155.433485
 30
0.0
 10
52.970400
 20
-171.957485
 30
0.0
 10
69.501600
 20
-136.526285
 30
0.0
 10
34.063200
 20
-119.973485
 30
0.0
  0
LWPOLYLINE
  5
248
100
AcDbEntity
  8
0
 62
7
100
AcDbPolyline
 90
4
 70
1
 10
58.528800
 20
-194.889485
 30
0.0
 10
93.988800
 20
-211.413485
 30
0.0
 10
110.512800
 20
-175.982285
 30
0.0
 10
75.081600
 20
-159.429485
 30
0.0
  0
LWPOLYLINE
  5
249
100
AcDbEntity
  8
0
 62
7
100
AcDbPolyline
 90
4
 70
1
 10
81.316800
 20
-146.051885
 30
0.0
 10
116.784000
 20
-162.575885
 30
0.0
 10
133.308000
 20
-127.144685
 30
0.0
 10
97.876800
 20
-110.591885
 30
0.0
  0
LWPOLYLINE
  5
24a
100
AcDbEntity
  8
0
 62
7
100
AcDbPolyline
 90
4
 70
1
 10
104.054400
 20
-97.264685
 30
0.0
 10
139.514400
 20
-113.788685
 30
0.0
 10
156.038400
 20
-78.357485
 30
0.0
 10
120.607200
 20
-61.804685
 30
0.0
  0
LWPOLYLINE
  5
24b
100
AcDbEntity
  8
0
 62
7
100
AcDbPolyline
 90
4
 70
1
 10
126.813600
 20
-48.455885
 30
0.0
 10
162.273600
 20
-64.979885
 30
0.0
 10
178.804800
 20
-29.548685
 30
0.0
 10
143.366400
 20
-12.988685
 30
0.0
  0
LWPOLYLINE
  5
24c
100
AcDbEntity
  8
0
 62
7
100
AcDbPolyline
 90
4
 70
1
 10
270.273600
 20
-123.148685
 30
0.0
 10
305.740800
 20
-139.672685
 30
0.0
 10
322.264800
 20
-104.241485
 30
0.0
 10
286.833600
 20
-87.681485
 30
0.0
  0
LWPOLYLINE
  5
24d
100
AcDbEntity
  8
0
 62
7
100
AcDbPolyline
 90
4
 70
1
 10
247.514400
 20
-171.957485
 30
0.0
 10
282.974400
 20
-188.481485
 30
0.0
 10
299.498400
 20
-153.050285
 30
0.0
 10
264.067200
 20
-136.497485
 30
0.0
  0
LWPOLYLINE
  5
24e
100
AcDbEntity
  8
0
 62
7
100
AcDbPolyline
 90
4
 70
1
 10
201.679200
 20
-142.761485
 30
0.0
 10
237.139200
 20
-159.285485
 30
0.0
 10
253.663200
 20
-123.854285
 30
0.0
 10
218.232000
 20
-107.301485
 30
0.0
  0
LWPOLYLINE
  5
24f
100
AcDbEntity
  8
0
 62
7
100
AcDbPolyline
 90
4
 70
1
 10
224.467200
 20
-93.952685
 30
0.0
 10
259.927200
 20
-110.476685
 30
0.0
 10
276.458400
 20
-75.045485
 30
0.0
 10
241.020000
 20
-58.485485
 30
0.0
  0
LWPOLYLINE
  5
250
100
AcDbEntity
  8
0
 62
7
100
AcDbPolyline
 90
4
 70
1
 10
181.634400
 20
-58.348685
 30
0.0
 10
217.101600
 20
-74.872685
 30
0.0
 10
233.625600
 20
-39.441485
 30
0.0
 10
198.194400
 20
-22.881485
 30
0.0
  0
LWPOLYLINE
  5
251
100
AcDbEntity
  8
0
 62
7
100
AcDbPolyline
 90
4
 70
1
 10
158.875200
 20
-107.157485
 30
0.0
 10
194.335200
 20
-123.681485
 30
0.0
 10
210.859200
 20
-88.250285
 30
0.0
 10
175.428000
 20
-71.697485
 30
0.0
  0
LWPOLYLINE
  5
252
100
AcDbEntity
  8
0
 62
7
100
AcDbPolyline
 90
4
 70
1
 10
136.116000
 20
-155.973485
 30
0.0
 10
171.576000
 20
-172.497485
 30
0.0
 10
188.100000
 20
-137.066285
 30
0.0
 10
152.668800
 20
-120.513485
 30
0.0
  0
LWPOLYLINE
  5
253
100
AcDbEntity
  8
0
 62
7
100
AcDbPolyline
 90
4
 70
1
 10
113.349600
 20
-204.782285
 30
0.0
 10
148.809600
 20
-221.313485
 30
0.0
 10
165.340800
 20
-185.875085
 30
0.0
 10
129.902400
 20
-169.322285
 30
0.0
  0
LWPOLYLINE
  5
254
100
AcDbEntity
  8
0
 62
7
100
AcDbPolyline
 90
4
 70
1
 10
178.912800
 20
-191.606285
 30
0.0
 10
214.380000
 20
-208.130285
 30
0.0
 10
230.904000
 20
-172.699085
 30
0.0
 10
195.472800
 20
-156.139085
 30
0.0
  0
LWPOLYLINE
  5
255
100
AcDbEntity
  8
0
 62
7
100
AcDbPolyline
 90
2
 70
0
 10
241.308000
 20
-185.313485
 30
0.0
 10
224.755200
 20
-220.773485
 30
0.0
  0
LWPOLYLINE
  5
256
100
AcDbEntity
  8
0
 62
7
100
AcDbPolyline
 90
2
 70
0
 10
276.739200
 20
-201.866285
 30
0.0
 10
241.308000
 20
-185.313485
 30
0.0
  0
LWPOLYLINE
  5
257
100
AcDbEntity
  8
0
 62
7
100
AcDbPolyline
 90
2
 70
0
 10
260.215200
 20
-237.297485
 30
0.0
 10
276.739200
 20
-201.866285
 30
0.0
  0
LWPOLYLINE
  5
258
100
AcDbEntity
  8
0
 62
7
100
AcDbPolyline
 90
2
 70
0
 10
224.755200
 20
-220.773485
 30
0.0
 10
260.215200
 20
-237.297485
 30
0.0
  0
LWPOLYLINE
  5
259
100
AcDbEntity
  8
0
 62
7
100
AcDbPolyline
 90
33
 70
0
 10
129.369600
 20
-9.935885
 30
0.0
 10
129.132000
 20
-10.454285
 30
0.0
 10
128.887200
 20
-10.965485
 30
0.0
 10
128.649600
 20
-11.483885
 30
0.0
 10
128.412000
 20
-11.995085
 30
0.0
 10
128.174400
 20
-12.513485
 30
0.0
 10
127.929600
 20
-13.024685
 30
0.0
 10
127.692000
 20
-13.543085
 30
0.0
 10
127.454400
 20
-14.054285
 30
0.0
 10
127.209600
 20
-14.572685
 30
0.0
 10
126.972000
 20
-15.083885
 30
0.0
 10
126.734400
 20
-15.602285
 30
0.0
 10
126.489600
 20
-16.113485
 30
0.0
 10
126.252000
 20
-16.631885
 30
0.0
 10
126.014400
 20
-17.143085
 30
0.0
 10
125.776800
 20
-17.661485
 30
0.0
 10
125.532000
 20
-18.172685
 30
0.0
 10
125.294400
 20
-18.691085
 30
0.0
 10
125.056800
 20
-19.202285
 30
0.0
 10
124.812000
 20
-19.720685
 30
0.0
 10
124.574400
 20
-20.231885
 30
0.0
 10
124.336800
 20
-20.743085
 30
0.0
 10
124.099200
 20
-21.261485
 30
0.0
 10
123.854400
 20
-21.772685
 30
0.0
 10
123.616800
 20
-22.291085
 30
0.0
 10
123.379200
 20
-22.802285
 30
0.0
 10
123.134400
 20
-23.320685
 30
0.0
 10
122.896800
 20
-23.831885
 30
0.0
 10
122.659200
 20
-24.350285
 30
0.0
 10
122.421600
 20
-24.861485
 30
0.0
 10
122.176800
 20
-25.379885
 30
0.0
 10
121.939200
 20
-25.891085
 30
0.0
 10
121.701600
 20
-26.409485
 30
0.0
  0
LWPOLYLINE
  5
25a
100
AcDbEntity
  8
0
 62
7
100
AcDbPolyline
 90
33
 70
0
 10
68.745600
 20
-12.700685
 30
0.0
 10
66.650400
 20
-17.171885
 30
0.0
 10
64.555200
 20
-21.635885
 30
0.0
 10
62.467200
 20
-26.107085
 30
0.0
 10
60.372000
 20
-30.578285
 30
0.0
 10
58.276800
 20
-35.049485
 30
0.0
 10
56.188800
 20
-39.520685
 30
0.0
 10
54.093600
 20
-43.991885
 30
0.0
 10
52.005600
 20
-48.463085
 30
0.0
 10
49.917600
 20
-52.934285
 30
0.0
 10
47.822400
 20
-57.405485
 30
0.0
 10
45.734400
 20
-61.876685
 30
0.0
 10
43.646400
 20
-66.347885
 30
0.0
 10
41.558400
 20
-70.826285
 30
0.0
 10
39.470400
 20
-75.297485
 30
0.0
 10
37.389600
 20
-79.768685
 30
0.0
 10
35.301600
 20
-84.247085
 30
0.0
 10
33.213600
 20
-88.718285
 30
0.0
 10
31.132800
 20
-93.196685
 30
0.0
 10
29.052000
 20
-97.667885
 30
0.0
 10
26.971200
 20
-102.146285
 30
0.0
 10
24.890400
 20
-106.617485
 30
0.0
 10
22.809600
 20
-111.095885
 30
0.0
 10
20.728800
 20
-115.574285
 30
0.0
 10
18.655200
 20
-120.052685
 30
0.0
 10
16.574400
 20
-124.531085
 30
0.0
 10
14.500800
 20
-129.009485
 30
0.0
 10
12.427200
 20
-133.487885
 30
0.0
 10
10.360800
 20
-137.966285
 30
0.0
 10
8.287200
 20
-142.451885
 30
0.0
 10
6.220800
 20
-146.930285
 30
0.0
 10
4.147200
 20
-151.415885
 30
0.0
 10
2.080800
 20
-155.894285
 30
0.0
  0
LWPOLYLINE
  5
25b
100
AcDbEntity
  8
0
 62
7
100
AcDbPolyline
 90
33
 70
0
 10
121.701600
 20
-26.409485
 30
0.0
 10
120.369600
 20
-25.790285
 30
0.0
 10
119.044800
 20
-25.178285
 30
0.0
 10
117.712800
 20
-24.559085
 30
0.0
 10
116.388000
 20
-23.939885
 30
0.0
 10
115.056000
 20
-23.320685
 30
0.0
 10
113.731200
 20
-22.701485
 30
0.0
 10
112.399200
 20
-22.089485
 30
0.0
 10
111.074400
 20
-21.470285
 30
0.0
 10
109.749600
 20
-20.851085
 30
0.0
 10
108.417600
 20
-20.231885
 30
0.0
 10
107.092800
 20
-19.612685
 30
0.0
 10
105.760800
 20
-18.993485
 30
0.0
 10
104.436000
 20
-18.381485
 30
0.0
 10
103.104000
 20
-17.762285
 30
0.0
 10
101.779200
 20
-17.143085
 30
0.0
 10
100.447200
 20
-16.531085
 30
0.0
 10
99.122400
 20
-15.911885
 30
0.0
 10
97.790400
 20
-15.299885
 30
0.0
 10
96.458400
 20
-14.687885
 30
0.0
 10
95.133600
 20
-14.068685
 30
0.0
 10
93.801600
 20
-13.456685
 30
0.0
 10
92.469600
 20
-12.851885
 30
0.0
 10
91.137600
 20
-12.239885
 30
0.0
 10
89.805600
 20
-11.627885
 30
0.0
 10
88.473600
 20
-11.023085
 30
0.0
 10
87.141600
 20
-10.418285
 30
0.0
 10
85.802400
 20
-9.813485
 30
0.0
 10
84.470400
 20
-9.208685
 30
0.0
 10
83.138400
 20
-8.603885
 30
0.0
 10
81.799200
 20
-8.006285
 30
0.0
 10
80.467200
 20
-7.408685
 30
0.0
 10
79.128000
 20
-6.811085
 30
0.0
  0
LWPOLYLINE
  5
25c
100
AcDbEntity
  8
0
 62
7
100
AcDbPolyline
 90
33
 70
0
 10
137.368800
 20
2.527315
 30
0.0
 10
136.936800
 20
2.289715
 30
0.0
 10
136.526400
 20
2.030515
 30
0.0
 10
136.137600
 20
1.756915
 30
0.0
 10
135.770400
 20
1.468915
 30
0.0
 10
135.424800
 20
1.159315
 30
0.0
 10
135.086400
 20
0.835315
 30
0.0
 10
134.776800
 20
0.504115
 30
0.0
 10
134.474400
 20
0.151315
 30
0.0
 10
134.186400
 20
-0.208685
 30
0.0
 10
133.920000
 20
-0.583085
 30
0.0
 10
133.660800
 20
-0.971885
 30
0.0
 10
133.416000
 20
-1.367885
 30
0.0
 10
133.178400
 20
-1.771085
 30
0.0
 10
132.948000
 20
-2.181485
 30
0.0
 10
132.732000
 20
-2.599085
 30
0.0
 10
132.523200
 20
-3.023885
 30
0.0
 10
132.314400
 20
-3.455885
 30
0.0
 10
132.120000
 20
-3.887885
 30
0.0
 10
131.925600
 20
-4.327085
 30
0.0
 10
131.738400
 20
-4.766285
 30
0.0
 10
131.544000
 20
-5.212685
 30
0.0
 10
131.364000
 20
-5.651885
 30
0.0
 10
131.176800
 20
-6.098285
 30
0.0
 10
130.989600
 20
-6.537485
 30
0.0
 10
130.802400
 20
-6.976685
 30
0.0
 10
130.615200
 20
-7.415885
 30
0.0
 10
130.420800
 20
-7.855085
 30
0.0
 10
130.226400
 20
-8.279885
 30
0.0
 10
130.017600
 20
-8.704685
 30
0.0
 10
129.808800
 20
-9.122285
 30
0.0
 10
129.592800
 20
-9.539885
 30
0.0
 10
129.369600
 20
-9.935885
 30
0.0
  0
LWPOLYLINE
  5
25d
100
AcDbEntity
  8
0
 62
7
100
AcDbPolyline
 90
33
 70
0
 10
79.128000
 20
-6.811085
 30
0.0
 10
78.703200
 20
-6.674285
 30
0.0
 10
78.285600
 20
-6.566285
 30
0.0
 10
77.860800
 20
-6.479885
 30
0.0
 10
77.443200
 20
-6.422285
 30
0.0
 10
77.025600
 20
-6.393485
 30
0.0
 10
76.615200
 20
-6.386285
 30
0.0
 10
76.197600
 20
-6.400685
 30
0.0
 10
75.794400
 20
-6.443885
 30
0.0
 10
75.391200
 20
-6.508685
 30
0.0
 10
74.995200
 20
-6.595085
 30
0.0
 10
74.599200
 20
-6.695885
 30
0.0
 10
74.210400
 20
-6.825485
 30
0.0
 10
73.836000
 20
-6.976685
 30
0.0
 10
73.461600
 20
-7.142285
 30
0.0
 10
73.101600
 20
-7.322285
 30
0.0
 10
72.741600
 20
-7.531085
 30
0.0
 10
72.396000
 20
-7.747085
 30
0.0
 10
72.064800
 20
-7.984685
 30
0.0
 10
71.733600
 20
-8.243885
 30
0.0
 10
71.424000
 20
-8.510285
 30
0.0
 10
71.121600
 20
-8.798285
 30
0.0
 10
70.833600
 20
-9.093485
 30
0.0
 10
70.552800
 20
-9.403085
 30
0.0
 10
70.286400
 20
-9.727085
 30
0.0
 10
70.041600
 20
-10.065485
 30
0.0
 10
69.804000
 20
-10.411085
 30
0.0
 10
69.588000
 20
-10.771085
 30
0.0
 10
69.386400
 20
-11.138285
 30
0.0
 10
69.199200
 20
-11.512685
 30
0.0
 10
69.026400
 20
-11.901485
 30
0.0
 10
68.875200
 20
-12.297485
 30
0.0
 10
68.745600
 20
-12.700685
 30
0.0
  0
LWPOLYLINE
  5
25e
100
AcDbEntity
  8
0
 62
7
100
AcDbPolyline
 90
33
 70
0
 10
7.704000
 20
-167.047085
 30
0.0
 10
8.928000
 20
-167.666285
 30
0.0
 10
10.159200
 20
-168.271085
 30
0.0
 10
11.383200
 20
-168.883085
 30
0.0
 10
12.614400
 20
-169.487885
 30
0.0
 10
13.852800
 20
-170.085485
 30
0.0
 10
15.084000
 20
-170.683085
 30
0.0
 10
16.315200
 20
-171.280685
 30
0.0
 10
17.553600
 20
-171.878285
 30
0.0
 10
18.792000
 20
-172.468685
 30
0.0
 10
20.030400
 20
-173.059085
 30
0.0
 10
21.268800
 20
-173.649485
 30
0.0
 10
22.507200
 20
-174.232685
 30
0.0
 10
23.752800
 20
-174.815885
 30
0.0
 10
24.991200
 20
-175.399085
 30
0.0
 10
26.236800
 20
-175.975085
 30
0.0
 10
27.482400
 20
-176.558285
 30
0.0
 10
28.720800
 20
-177.134285
 30
0.0
 10
29.966400
 20
-177.710285
 30
0.0
 10
31.212000
 20
-178.286285
 30
0.0
 10
32.464800
 20
-178.855085
 30
0.0
 10
33.710400
 20
-179.423885
 30
0.0
 10
34.956000
 20
-179.999885
 30
0.0
 10
36.201600
 20
-180.568685
 30
0.0
 10
37.454400
 20
-181.137485
 30
0.0
 10
38.700000
 20
-181.706285
 30
0.0
 10
39.945600
 20
-182.275085
 30
0.0
 10
41.198400
 20
-182.836685
 30
0.0
 10
42.444000
 20
-183.405485
 30
0.0
 10
43.696800
 20
-183.967085
 30
0.0
 10
44.949600
 20
-184.535885
 30
0.0
 10
46.195200
 20
-185.097485
 30
0.0
 10
47.448000
 20
-185.666285
 30
0.0
  0
LWPOLYLINE
  5
25f
100
AcDbEntity
  8
0
 62
7
100
AcDbPolyline
 90
33
 70
0
 10
95.868000
 20
-228.196685
 30
0.0
 10
96.292800
 20
-228.297485
 30
0.0
 10
96.710400
 20
-228.369485
 30
0.0
 10
97.120800
 20
-228.419885
 30
0.0
 10
97.531200
 20
-228.441485
 30
0.0
 10
97.941600
 20
-228.434285
 30
0.0
 10
98.344800
 20
-228.412685
 30
0.0
 10
98.740800
 20
-228.362285
 30
0.0
 10
99.129600
 20
-228.290285
 30
0.0
 10
99.518400
 20
-228.196685
 30
0.0
 10
99.892800
 20
-228.081485
 30
0.0
 10
100.267200
 20
-227.944685
 30
0.0
 10
100.634400
 20
-227.786285
 30
0.0
 10
100.987200
 20
-227.613485
 30
0.0
 10
101.340000
 20
-227.426285
 30
0.0
 10
101.678400
 20
-227.217485
 30
0.0
 10
102.016800
 20
-226.994285
 30
0.0
 10
102.333600
 20
-226.749485
 30
0.0
 10
102.650400
 20
-226.497485
 30
0.0
 10
102.952800
 20
-226.231085
 30
0.0
 10
103.248000
 20
-225.943085
 30
0.0
 10
103.528800
 20
-225.655085
 30
0.0
 10
103.795200
 20
-225.345485
 30
0.0
 10
104.054400
 20
-225.028685
 30
0.0
 10
104.299200
 20
-224.697485
 30
0.0
 10
104.529600
 20
-224.359085
 30
0.0
 10
104.752800
 20
-224.013485
 30
0.0
 10
104.961600
 20
-223.660685
 30
0.0
 10
105.148800
 20
-223.293485
 30
0.0
 10
105.328800
 20
-222.926285
 30
0.0
 10
105.494400
 20
-222.551885
 30
0.0
 10
105.638400
 20
-222.170285
 30
0.0
 10
105.768000
 20
-221.788685
 30
0.0
  0
LWPOLYLINE
  5
260
100
AcDbEntity
  8
0
 62
7
100
AcDbPolyline
 90
33
 70
0
 10
127.994400
 20
-290.462285
 30
0.0
 10
129.448800
 20
-291.167885
 30
0.0
 10
130.903200
 20
-291.880685
 30
0.0
 10
132.364800
 20
-292.579085
 30
0.0
 10
133.826400
 20
-293.277485
 30
0.0
 10
135.288000
 20
-293.975885
 30
0.0
 10
136.749600
 20
-294.667085
 30
0.0
 10
138.211200
 20
-295.365485
 30
0.0
 10
139.680000
 20
-296.049485
 30
0.0
 10
141.141600
 20
-296.740685
 30
0.0
 10
142.610400
 20
-297.424685
 30
0.0
 10
144.079200
 20
-298.108685
 30
0.0
 10
145.548000
 20
-298.792685
 30
0.0
 10
147.016800
 20
-299.469485
 30
0.0
 10
148.485600
 20
-300.153485
 30
0.0
 10
149.961600
 20
-300.830285
 30
0.0
 10
151.430400
 20
-301.514285
 30
0.0
 10
152.899200
 20
-302.191085
 30
0.0
 10
154.368000
 20
-302.867885
 30
0.0
 10
155.836800
 20
-303.551885
 30
0.0
 10
157.305600
 20
-304.235885
 30
0.0
 10
158.774400
 20
-304.912685
 30
0.0
 10
160.243200
 20
-305.596685
 30
0.0
 10
161.712000
 20
-306.280685
 30
0.0
 10
163.173600
 20
-306.971885
 30
0.0
 10
164.642400
 20
-307.655885
 30
0.0
 10
166.104000
 20
-308.347085
 30
0.0
 10
167.572800
 20
-309.038285
 30
0.0
 10
169.027200
 20
-309.736685
 30
0.0
 10
170.488800
 20
-310.435085
 30
0.0
 10
171.950400
 20
-311.133485
 30
0.0
 10
173.404800
 20
-311.839085
 30
0.0
 10
174.859200
 20
-312.551885
 30
0.0
  0
LWPOLYLINE
  5
261
100
AcDbEntity
  8
0
 62
7
100
AcDbPolyline
 90
33
 70
0
 10
2.080800
 20
-155.894285
 30
0.0
 10
1.922400
 20
-156.326285
 30
0.0
 10
1.785600
 20
-156.758285
 30
0.0
 10
1.677600
 20
-157.190285
 30
0.0
 10
1.598400
 20
-157.622285
 30
0.0
 10
1.548000
 20
-158.054285
 30
0.0
 10
1.526400
 20
-158.486285
 30
0.0
 10
1.526400
 20
-158.911085
 30
0.0
 10
1.555200
 20
-159.335885
 30
0.0
 10
1.605600
 20
-159.753485
 30
0.0
 10
1.677600
 20
-160.171085
 30
0.0
 10
1.771200
 20
-160.581485
 30
0.0
 10
1.893600
 20
-160.991885
 30
0.0
 10
2.030400
 20
-161.387885
 30
0.0
 10
2.196000
 20
-161.783885
 30
0.0
 10
2.376000
 20
-162.172685
 30
0.0
 10
2.570400
 20
-162.547085
 30
0.0
 10
2.786400
 20
-162.921485
 30
0.0
 10
3.024000
 20
-163.281485
 30
0.0
 10
3.276000
 20
-163.634285
 30
0.0
 10
3.542400
 20
-163.972685
 30
0.0
 10
3.823200
 20
-164.303885
 30
0.0
 10
4.118400
 20
-164.620685
 30
0.0
 10
4.428000
 20
-164.930285
 30
0.0
 10
4.752000
 20
-165.225485
 30
0.0
 10
5.083200
 20
-165.506285
 30
0.0
 10
5.428800
 20
-165.772685
 30
0.0
 10
5.788800
 20
-166.024685
 30
0.0
 10
6.156000
 20
-166.262285
 30
0.0
 10
6.530400
 20
-166.485485
 30
0.0
 10
6.912000
 20
-166.694285
 30
0.0
 10
7.300800
 20
-166.881485
 30
0.0
 10
7.704000
 20
-167.047085
 30
0.0
  0
LWPOLYLINE
  5
262
100
AcDbEntity
  8
0
 62
7
100
AcDbPolyline
 90
33
 70
0
 10
122.155200
 20
-280.727885
 30
0.0
 10
122.068800
 20
-281.131085
 30
0.0
 10
121.996800
 20
-281.527085
 30
0.0
 10
121.953600
 20
-281.923085
 30
0.0
 10
121.932000
 20
-282.319085
 30
0.0
 10
121.924800
 20
-282.707885
 30
0.0
 10
121.946400
 20
-283.096685
 30
0.0
 10
121.989600
 20
-283.485485
 30
0.0
 10
122.047200
 20
-283.859885
 30
0.0
 10
122.126400
 20
-284.234285
 30
0.0
 10
122.220000
 20
-284.608685
 30
0.0
 10
122.335200
 20
-284.968685
 30
0.0
 10
122.464800
 20
-285.328685
 30
0.0
 10
122.616000
 20
-285.681485
 30
0.0
 10
122.781600
 20
-286.027085
 30
0.0
 10
122.968800
 20
-286.365485
 30
0.0
 10
123.163200
 20
-286.689485
 30
0.0
 10
123.379200
 20
-287.013485
 30
0.0
 10
123.602400
 20
-287.323085
 30
0.0
 10
123.847200
 20
-287.625485
 30
0.0
 10
124.099200
 20
-287.913485
 30
0.0
 10
124.365600
 20
-288.194285
 30
0.0
 10
124.646400
 20
-288.467885
 30
0.0
 10
124.934400
 20
-288.727085
 30
0.0
 10
125.236800
 20
-288.971885
 30
0.0
 10
125.553600
 20
-289.209485
 30
0.0
 10
125.870400
 20
-289.425485
 30
0.0
 10
126.208800
 20
-289.634285
 30
0.0
 10
126.547200
 20
-289.828685
 30
0.0
 10
126.900000
 20
-290.008685
 30
0.0
 10
127.252800
 20
-290.174285
 30
0.0
 10
127.620000
 20
-290.325485
 30
0.0
 10
127.994400
 20
-290.462285
 30
0.0
  0
LWPOLYLINE
  5
263
100
AcDbEntity
  8
0
 62
7
100
AcDbPolyline
 90
33
 70
0
 10
55.130400
 20
-209.743085
 30
0.0
 10
56.397600
 20
-210.319085
 30
0.0
 10
57.672000
 20
-210.902285
 30
0.0
 10
58.939200
 20
-211.485485
 30
0.0
 10
60.206400
 20
-212.075885
 30
0.0
 10
61.473600
 20
-212.666285
 30
0.0
 10
62.740800
 20
-213.256685
 30
0.0
 10
64.008000
 20
-213.847085
 30
0.0
 10
65.275200
 20
-214.444685
 30
0.0
 10
66.542400
 20
-215.035085
 30
0.0
 10
67.802400
 20
-215.632685
 30
0.0
 10
69.069600
 20
-216.230285
 30
0.0
 10
70.336800
 20
-216.827885
 30
0.0
 10
71.596800
 20
-217.425485
 30
0.0
 10
72.864000
 20
-218.015885
 30
0.0
 10
74.131200
 20
-218.613485
 30
0.0
 10
75.398400
 20
-219.203885
 30
0.0
 10
76.665600
 20
-219.794285
 30
0.0
 10
77.932800
 20
-220.384685
 30
0.0
 10
79.207200
 20
-220.967885
 30
0.0
 10
80.474400
 20
-221.551085
 30
0.0
 10
81.748800
 20
-222.134285
 30
0.0
 10
83.023200
 20
-222.710285
 30
0.0
 10
84.297600
 20
-223.279085
 30
0.0
 10
85.572000
 20
-223.847885
 30
0.0
 10
86.853600
 20
-224.409485
 30
0.0
 10
88.135200
 20
-224.971085
 30
0.0
 10
89.416800
 20
-225.525485
 30
0.0
 10
90.698400
 20
-226.072685
 30
0.0
 10
91.987200
 20
-226.612685
 30
0.0
 10
93.283200
 20
-227.152685
 30
0.0
 10
94.572000
 20
-227.678285
 30
0.0
 10
95.868000
 20
-228.196685
 30
0.0
  0
LWPOLYLINE
  5
264
100
AcDbEntity
  8
0
 62
7
100
AcDbPolyline
 90
33
 70
0
 10
42.890400
 20
-200.685485
 30
0.0
 10
43.020000
 20
-201.203885
 30
0.0
 10
43.185600
 20
-201.700685
 30
0.0
 10
43.380000
 20
-202.168685
 30
0.0
 10
43.603200
 20
-202.607885
 30
0.0
 10
43.848000
 20
-203.025485
 30
0.0
 10
44.121600
 20
-203.428685
 30
0.0
 10
44.416800
 20
-203.803085
 30
0.0
 10
44.733600
 20
-204.155885
 30
0.0
 10
45.064800
 20
-204.494285
 30
0.0
 10
45.417600
 20
-204.811085
 30
0.0
 10
45.792000
 20
-205.113485
 30
0.0
 10
46.180800
 20
-205.401485
 30
0.0
 10
46.584000
 20
-205.675085
 30
0.0
 10
47.001600
 20
-205.934285
 30
0.0
 10
47.426400
 20
-206.179085
 30
0.0
 10
47.865600
 20
-206.416685
 30
0.0
 10
48.312000
 20
-206.647085
 30
0.0
 10
48.765600
 20
-206.870285
 30
0.0
 10
49.226400
 20
-207.079085
 30
0.0
 10
49.687200
 20
-207.287885
 30
0.0
 10
50.155200
 20
-207.489485
 30
0.0
 10
50.630400
 20
-207.683885
 30
0.0
 10
51.098400
 20
-207.885485
 30
0.0
 10
51.566400
 20
-208.079885
 30
0.0
 10
52.034400
 20
-208.274285
 30
0.0
 10
52.502400
 20
-208.468685
 30
0.0
 10
52.956000
 20
-208.670285
 30
0.0
 10
53.409600
 20
-208.871885
 30
0.0
 10
53.856000
 20
-209.080685
 30
0.0
 10
54.288000
 20
-209.289485
 30
0.0
 10
54.712800
 20
-209.512685
 30
0.0
 10
55.130400
 20
-209.743085
 30
0.0
  0
LWPOLYLINE
  5
265
100
AcDbEntity
  8
0
 62
7
100
AcDbPolyline
 90
33
 70
0
 10
47.448000
 20
-185.666285
 30
0.0
 10
47.275200
 20
-186.119885
 30
0.0
 10
47.088000
 20
-186.573485
 30
0.0
 10
46.893600
 20
-187.027085
 30
0.0
 10
46.699200
 20
-187.480685
 30
0.0
 10
46.490400
 20
-187.934285
 30
0.0
 10
46.274400
 20
-188.387885
 30
0.0
 10
46.058400
 20
-188.841485
 30
0.0
 10
45.842400
 20
-189.295085
 30
0.0
 10
45.619200
 20
-189.748685
 30
0.0
 10
45.396000
 20
-190.202285
 30
0.0
 10
45.172800
 20
-190.663085
 30
0.0
 10
44.956800
 20
-191.116685
 30
0.0
 10
44.740800
 20
-191.577485
 30
0.0
 10
44.524800
 20
-192.038285
 30
0.0
 10
44.323200
 20
-192.499085
 30
0.0
 10
44.121600
 20
-192.959885
 30
0.0
 10
43.934400
 20
-193.427885
 30
0.0
 10
43.747200
 20
-193.895885
 30
0.0
 10
43.581600
 20
-194.363885
 30
0.0
 10
43.423200
 20
-194.831885
 30
0.0
 10
43.272000
 20
-195.307085
 30
0.0
 10
43.142400
 20
-195.775085
 30
0.0
 10
43.027200
 20
-196.257485
 30
0.0
 10
42.926400
 20
-196.732685
 30
0.0
 10
42.847200
 20
-197.215085
 30
0.0
 10
42.782400
 20
-197.704685
 30
0.0
 10
42.739200
 20
-198.194285
 30
0.0
 10
42.724800
 20
-198.683885
 30
0.0
 10
42.724800
 20
-199.180685
 30
0.0
 10
42.753600
 20
-199.677485
 30
0.0
 10
42.811200
 20
-200.181485
 30
0.0
 10
42.890400
 20
-200.685485
 30
0.0
  0
LWPOLYLINE
  5
266
100
AcDbEntity
  8
0
 62
7
100
AcDbPolyline
 90
33
 70
0
 10
143.157600
 20
-235.151885
 30
0.0
 10
142.495200
 20
-236.570285
 30
0.0
 10
141.832800
 20
-237.995885
 30
0.0
 10
141.163200
 20
-239.414285
 30
0.0
 10
140.500800
 20
-240.832685
 30
0.0
 10
139.831200
 20
-242.251085
 30
0.0
 10
139.168800
 20
-243.676685
 30
0.0
 10
138.499200
 20
-245.095085
 30
0.0
 10
137.829600
 20
-246.513485
 30
0.0
 10
137.160000
 20
-247.931885
 30
0.0
 10
136.490400
 20
-249.350285
 30
0.0
 10
135.820800
 20
-250.768685
 30
0.0
 10
135.158400
 20
-252.187085
 30
0.0
 10
134.488800
 20
-253.605485
 30
0.0
 10
133.826400
 20
-255.031085
 30
0.0
 10
133.156800
 20
-256.449485
 30
0.0
 10
132.494400
 20
-257.867885
 30
0.0
 10
131.832000
 20
-259.293485
 30
0.0
 10
131.169600
 20
-260.711885
 30
0.0
 10
130.507200
 20
-262.137485
 30
0.0
 10
129.852000
 20
-263.563085
 30
0.0
 10
129.196800
 20
-264.981485
 30
0.0
 10
128.541600
 20
-266.407085
 30
0.0
 10
127.886400
 20
-267.839885
 30
0.0
 10
127.238400
 20
-269.265485
 30
0.0
 10
126.590400
 20
-270.691085
 30
0.0
 10
125.949600
 20
-272.123885
 30
0.0
 10
125.308800
 20
-273.556685
 30
0.0
 10
124.668000
 20
-274.982285
 30
0.0
 10
124.034400
 20
-276.422285
 30
0.0
 10
123.408000
 20
-277.855085
 30
0.0
 10
122.781600
 20
-279.295085
 30
0.0
 10
122.155200
 20
-280.727885
 30
0.0
  0
LWPOLYLINE
  5
267
100
AcDbEntity
  8
0
 62
7
100
AcDbPolyline
 90
33
 70
0
 10
110.685600
 20
-219.995885
 30
0.0
 10
111.700800
 20
-220.471085
 30
0.0
 10
112.708800
 20
-220.946285
 30
0.0
 10
113.724000
 20
-221.421485
 30
0.0
 10
114.739200
 20
-221.896685
 30
0.0
 10
115.754400
 20
-222.371885
 30
0.0
 10
116.769600
 20
-222.847085
 30
0.0
 10
117.784800
 20
-223.322285
 30
0.0
 10
118.792800
 20
-223.797485
 30
0.0
 10
119.808000
 20
-224.272685
 30
0.0
 10
120.823200
 20
-224.747885
 30
0.0
 10
121.838400
 20
-225.223085
 30
0.0
 10
122.853600
 20
-225.698285
 30
0.0
 10
123.868800
 20
-226.173485
 30
0.0
 10
124.884000
 20
-226.648685
 30
0.0
 10
125.899200
 20
-227.123885
 30
0.0
 10
126.914400
 20
-227.591885
 30
0.0
 10
127.929600
 20
-228.067085
 30
0.0
 10
128.937600
 20
-228.542285
 30
0.0
 10
129.952800
 20
-229.017485
 30
0.0
 10
130.968000
 20
-229.485485
 30
0.0
 10
131.983200
 20
-229.960685
 30
0.0
 10
132.998400
 20
-230.435885
 30
0.0
 10
134.013600
 20
-230.903885
 30
0.0
 10
135.028800
 20
-231.379085
 30
0.0
 10
136.044000
 20
-231.847085
 30
0.0
 10
137.059200
 20
-232.322285
 30
0.0
 10
138.081600
 20
-232.797485
 30
0.0
 10
139.096800
 20
-233.265485
 30
0.0
 10
140.112000
 20
-233.740685
 30
0.0
 10
141.127200
 20
-234.208685
 30
0.0
 10
142.142400
 20
-234.683885
 30
0.0
 10
143.157600
 20
-235.151885
 30
0.0
  0
LWPOLYLINE
  5
268
100
AcDbEntity
  8
0
 62
7
100
AcDbPolyline
 90
16
 70
0
 10
105.768000
 20
-221.788685
 30
0.0
 10
105.919200
 20
-221.241485
 30
0.0
 10
106.092000
 20
-220.744685
 30
0.0
 10
106.286400
 20
-220.305485
 30
0.0
 10
106.495200
 20
-219.923885
 30
0.0
 10
106.725600
 20
-219.599885
 30
0.0
 10
106.977600
 20
-219.333485
 30
0.0
 10
107.395200
 20
-219.038285
 30
0.0
 10
107.856000
 20
-218.879885
 30
0.0
 10
108.367200
 20
-218.858285
 30
0.0
 10
108.741600
 20
-218.923085
 30
0.0
 10
109.130400
 20
-219.045485
 30
0.0
 10
109.548000
 20
-219.239885
 30
0.0
 10
109.987200
 20
-219.491885
 30
0.0
 10
110.448000
 20
-219.808685
 30
0.0
 10
110.685600
 20
-219.995885
 30
0.0
  0
LWPOLYLINE
  5
269
100
AcDbEntity
  8
0
 62
7
100
AcDbPolyline
 90
33
 70
0
 10
566.323200
 20
-289.432685
 30
0.0
 10
566.676000
 20
-289.209485
 30
0.0
 10
567.007200
 20
-288.979085
 30
0.0
 10
567.324000
 20
-288.734285
 30
0.0
 10
567.619200
 20
-288.467885
 30
0.0
 10
567.900000
 20
-288.194285
 30
0.0
 10
568.166400
 20
-287.906285
 30
0.0
 10
568.418400
 20
-287.603885
 30
0.0
 10
568.648800
 20
-287.294285
 30
0.0
 10
568.857600
 20
-286.970285
 30
0.0
 10
569.059200
 20
-286.631885
 30
0.0
 10
569.239200
 20
-286.293485
 30
0.0
 10
569.397600
 20
-285.940685
 30
0.0
 10
569.541600
 20
-285.587885
 30
0.0
 10
569.671200
 20
-285.220685
 30
0.0
 10
569.786400
 20
-284.846285
 30
0.0
 10
569.880000
 20
-284.471885
 30
0.0
 10
569.952000
 20
-284.097485
 30
0.0
 10
570.009600
 20
-283.708685
 30
0.0
 10
570.052800
 20
-283.327085
 30
0.0
 10
570.074400
 20
-282.938285
 30
0.0
 10
570.081600
 20
-282.542285
 30
0.0
 10
570.067200
 20
-282.153485
 30
0.0
 10
570.038400
 20
-281.764685
 30
0.0
 10
569.988000
 20
-281.375885
 30
0.0
 10
569.916000
 20
-280.987085
 30
0.0
 10
569.836800
 20
-280.605485
 30
0.0
 10
569.728800
 20
-280.223885
 30
0.0
 10
569.613600
 20
-279.849485
 30
0.0
 10
569.469600
 20
-279.475085
 30
0.0
 10
569.311200
 20
-279.115085
 30
0.0
 10
569.138400
 20
-278.755085
 30
0.0
 10
568.944000
 20
-278.402285
 30
0.0
  0
LWPOLYLINE
  5
26a
100
AcDbEntity
  8
0
 62
7
100
AcDbPolyline
 90
33
 70
0
 10
431.215200
 20
-382.953485
 30
0.0
 10
431.704800
 20
-382.881485
 30
0.0
 10
432.172800
 20
-382.787885
 30
0.0
 10
432.633600
 20
-382.665485
 30
0.0
 10
433.087200
 20
-382.521485
 30
0.0
 10
433.519200
 20
-382.348685
 30
0.0
 10
433.944000
 20
-382.161485
 30
0.0
 10
434.354400
 20
-381.952685
 30
0.0
 10
434.757600
 20
-381.722285
 30
0.0
 10
435.153600
 20
-381.477485
 30
0.0
 10
435.535200
 20
-381.211085
 30
0.0
 10
435.909600
 20
-380.937485
 30
0.0
 10
436.276800
 20
-380.642285
 30
0.0
 10
436.636800
 20
-380.339885
 30
0.0
 10
436.996800
 20
-380.023085
 30
0.0
 10
437.342400
 20
-379.699085
 30
0.0
 10
437.688000
 20
-379.367885
 30
0.0
 10
438.026400
 20
-379.029485
 30
0.0
 10
438.357600
 20
-378.676685
 30
0.0
 10
438.688800
 20
-378.323885
 30
0.0
 10
439.020000
 20
-377.971085
 30
0.0
 10
439.351200
 20
-377.611085
 30
0.0
 10
439.675200
 20
-377.251085
 30
0.0
 10
440.006400
 20
-376.898285
 30
0.0
 10
440.330400
 20
-376.538285
 30
0.0
 10
440.661600
 20
-376.185485
 30
0.0
 10
440.985600
 20
-375.832685
 30
0.0
 10
441.324000
 20
-375.487085
 30
0.0
 10
441.655200
 20
-375.148685
 30
0.0
 10
441.993600
 20
-374.817485
 30
0.0
 10
442.339200
 20
-374.493485
 30
0.0
 10
442.684800
 20
-374.183885
 30
0.0
 10
443.037600
 20
-373.881485
 30
0.0
  0
LWPOLYLINE
  5
26b
100
AcDbEntity
  8
0
 62
7
100
AcDbPolyline
 90
33
 70
0
 10
474.768000
 20
-342.316685
 30
0.0
 10
476.136000
 20
-341.366285
 30
0.0
 10
477.511200
 20
-340.415885
 30
0.0
 10
478.879200
 20
-339.458285
 30
0.0
 10
480.247200
 20
-338.507885
 30
0.0
 10
481.615200
 20
-337.550285
 30
0.0
 10
482.983200
 20
-336.592685
 30
0.0
 10
484.351200
 20
-335.635085
 30
0.0
 10
485.719200
 20
-334.670285
 30
0.0
 10
487.087200
 20
-333.712685
 30
0.0
 10
488.455200
 20
-332.755085
 30
0.0
 10
489.816000
 20
-331.790285
 30
0.0
 10
491.184000
 20
-330.832685
 30
0.0
 10
492.552000
 20
-329.867885
 30
0.0
 10
493.912800
 20
-328.903085
 30
0.0
 10
495.280800
 20
-327.945485
 30
0.0
 10
496.648800
 20
-326.987885
 30
0.0
 10
498.016800
 20
-326.023085
 30
0.0
 10
499.384800
 20
-325.065485
 30
0.0
 10
500.745600
 20
-324.107885
 30
0.0
 10
502.113600
 20
-323.150285
 30
0.0
 10
503.488800
 20
-322.192685
 30
0.0
 10
504.856800
 20
-321.242285
 30
0.0
 10
506.224800
 20
-320.284685
 30
0.0
 10
507.600000
 20
-319.334285
 30
0.0
 10
508.968000
 20
-318.383885
 30
0.0
 10
510.343200
 20
-317.440685
 30
0.0
 10
511.718400
 20
-316.497485
 30
0.0
 10
513.100800
 20
-315.554285
 30
0.0
 10
514.476000
 20
-314.611085
 30
0.0
 10
515.858400
 20
-313.675085
 30
0.0
 10
517.240800
 20
-312.746285
 30
0.0
 10
518.623200
 20
-311.810285
 30
0.0
  0
LWPOLYLINE
  5
26c
100
AcDbEntity
  8
0
 62
7
100
AcDbPolyline
 90
33
 70
0
 10
443.037600
 20
-373.881485
 30
0.0
 10
444.031200
 20
-372.902285
 30
0.0
 10
445.024800
 20
-371.915885
 30
0.0
 10
446.018400
 20
-370.929485
 30
0.0
 10
447.004800
 20
-369.943085
 30
0.0
 10
447.998400
 20
-368.949485
 30
0.0
 10
448.984800
 20
-367.963085
 30
0.0
 10
449.971200
 20
-366.969485
 30
0.0
 10
450.957600
 20
-365.975885
 30
0.0
 10
451.944000
 20
-364.982285
 30
0.0
 10
452.930400
 20
-363.988685
 30
0.0
 10
453.916800
 20
-362.995085
 30
0.0
 10
454.903200
 20
-362.001485
 30
0.0
 10
455.882400
 20
-361.007885
 30
0.0
 10
456.868800
 20
-360.014285
 30
0.0
 10
457.855200
 20
-359.020685
 30
0.0
 10
458.841600
 20
-358.027085
 30
0.0
 10
459.828000
 20
-357.033485
 30
0.0
 10
460.814400
 20
-356.047085
 30
0.0
 10
461.800800
 20
-355.053485
 30
0.0
 10
462.794400
 20
-354.067085
 30
0.0
 10
463.780800
 20
-353.073485
 30
0.0
 10
464.774400
 20
-352.087085
 30
0.0
 10
465.768000
 20
-351.100685
 30
0.0
 10
466.754400
 20
-350.114285
 30
0.0
 10
467.755200
 20
-349.135085
 30
0.0
 10
468.748800
 20
-348.155885
 30
0.0
 10
469.749600
 20
-347.176685
 30
0.0
 10
470.743200
 20
-346.197485
 30
0.0
 10
471.751200
 20
-345.225485
 30
0.0
 10
472.752000
 20
-344.253485
 30
0.0
 10
473.760000
 20
-343.281485
 30
0.0
 10
474.768000
 20
-342.316685
 30
0.0
  0
LWPOLYLINE
  5
26d
100
AcDbEntity
  8
0
 62
7
100
AcDbPolyline
 90
33
 70
0
 10
549.072000
 20
-235.173485
 30
0.0
 10
550.180800
 20
-234.647885
 30
0.0
 10
551.296800
 20
-234.122285
 30
0.0
 10
552.405600
 20
-233.596685
 30
0.0
 10
553.514400
 20
-233.071085
 30
0.0
 10
554.630400
 20
-232.552685
 30
0.0
 10
555.739200
 20
-232.027085
 30
0.0
 10
556.855200
 20
-231.501485
 30
0.0
 10
557.971200
 20
-230.983085
 30
0.0
 10
559.087200
 20
-230.457485
 30
0.0
 10
560.196000
 20
-229.939085
 30
0.0
 10
561.312000
 20
-229.413485
 30
0.0
 10
562.428000
 20
-228.895085
 30
0.0
 10
563.551200
 20
-228.369485
 30
0.0
 10
564.667200
 20
-227.851085
 30
0.0
 10
565.783200
 20
-227.325485
 30
0.0
 10
566.899200
 20
-226.807085
 30
0.0
 10
568.015200
 20
-226.281485
 30
0.0
 10
569.131200
 20
-225.755885
 30
0.0
 10
570.254400
 20
-225.237485
 30
0.0
 10
571.370400
 20
-224.711885
 30
0.0
 10
572.486400
 20
-224.186285
 30
0.0
 10
573.602400
 20
-223.660685
 30
0.0
 10
574.718400
 20
-223.135085
 30
0.0
 10
575.834400
 20
-222.609485
 30
0.0
 10
576.950400
 20
-222.083885
 30
0.0
 10
578.066400
 20
-221.558285
 30
0.0
 10
579.182400
 20
-221.025485
 30
0.0
 10
580.298400
 20
-220.499885
 30
0.0
 10
581.414400
 20
-219.967085
 30
0.0
 10
582.523200
 20
-219.434285
 30
0.0
 10
583.639200
 20
-218.901485
 30
0.0
 10
584.748000
 20
-218.368685
 30
0.0
  0
LWPOLYLINE
  5
26e
100
AcDbEntity
  8
0
 62
7
100
AcDbPolyline
 90
33
 70
0
 10
271.418400
 20
-383.039885
 30
0.0
 10
276.415200
 20
-383.032685
 30
0.0
 10
281.404800
 20
-383.025485
 30
0.0
 10
286.401600
 20
-383.025485
 30
0.0
 10
291.391200
 20
-383.025485
 30
0.0
 10
296.388000
 20
-383.025485
 30
0.0
 10
301.377600
 20
-383.025485
 30
0.0
 10
306.374400
 20
-383.025485
 30
0.0
 10
311.371200
 20
-383.025485
 30
0.0
 10
316.360800
 20
-383.032685
 30
0.0
 10
321.357600
 20
-383.032685
 30
0.0
 10
326.347200
 20
-383.032685
 30
0.0
 10
331.344000
 20
-383.039885
 30
0.0
 10
336.340800
 20
-383.039885
 30
0.0
 10
341.330400
 20
-383.039885
 30
0.0
 10
346.327200
 20
-383.047085
 30
0.0
 10
351.324000
 20
-383.047085
 30
0.0
 10
356.313600
 20
-383.047085
 30
0.0
 10
361.310400
 20
-383.047085
 30
0.0
 10
366.300000
 20
-383.047085
 30
0.0
 10
371.296800
 20
-383.047085
 30
0.0
 10
376.286400
 20
-383.047085
 30
0.0
 10
381.283200
 20
-383.047085
 30
0.0
 10
386.280000
 20
-383.047085
 30
0.0
 10
391.269600
 20
-383.039885
 30
0.0
 10
396.266400
 20
-383.032685
 30
0.0
 10
401.256000
 20
-383.025485
 30
0.0
 10
406.252800
 20
-383.018285
 30
0.0
 10
411.242400
 20
-383.011085
 30
0.0
 10
416.232000
 20
-382.996685
 30
0.0
 10
421.228800
 20
-382.989485
 30
0.0
 10
426.218400
 20
-382.975085
 30
0.0
 10
431.215200
 20
-382.953485
 30
0.0
  0
LWPOLYLINE
  5
26f
100
AcDbEntity
  8
0
 62
7
100
AcDbPolyline
 90
29
 70
0
 10
256.644000
 20
-381.081485
 30
0.0
 10
257.054400
 20
-381.290285
 30
0.0
 10
257.500800
 20
-381.484685
 30
0.0
 10
257.976000
 20
-381.671885
 30
0.0
 10
258.480000
 20
-381.837485
 30
0.0
 10
259.005600
 20
-381.988685
 30
0.0
 10
259.560000
 20
-382.132685
 30
0.0
 10
260.128800
 20
-382.255085
 30
0.0
 10
260.712000
 20
-382.370285
 30
0.0
 10
261.309600
 20
-382.478285
 30
0.0
 10
261.921600
 20
-382.571885
 30
0.0
 10
262.533600
 20
-382.658285
 30
0.0
 10
263.152800
 20
-382.730285
 30
0.0
 10
263.772000
 20
-382.795085
 30
0.0
 10
264.384000
 20
-382.845485
 30
0.0
 10
264.996000
 20
-382.895885
 30
0.0
 10
265.593600
 20
-382.939085
 30
0.0
 10
266.184000
 20
-382.967885
 30
0.0
 10
266.760000
 20
-382.996685
 30
0.0
 10
267.314400
 20
-383.018285
 30
0.0
 10
267.847200
 20
-383.032685
 30
0.0
 10
268.351200
 20
-383.047085
 30
0.0
 10
268.833600
 20
-383.054285
 30
0.0
 10
269.280000
 20
-383.061485
 30
0.0
 10
269.697600
 20
-383.061485
 30
0.0
 10
270.072000
 20
-383.061485
 30
0.0
 10
270.705600
 20
-383.054285
 30
0.0
 10
271.152000
 20
-383.047085
 30
0.0
 10
271.418400
 20
-383.039885
 30
0.0
  0
LWPOLYLINE
  5
270
100
AcDbEntity
  8
0
 62
7
100
AcDbPolyline
 90
33
 70
0
 10
174.859200
 20
-312.551885
 30
0.0
 10
176.241600
 20
-313.509485
 30
0.0
 10
177.616800
 20
-314.474285
 30
0.0
 10
178.999200
 20
-315.431885
 30
0.0
 10
180.381600
 20
-316.396685
 30
0.0
 10
181.764000
 20
-317.354285
 30
0.0
 10
183.146400
 20
-318.319085
 30
0.0
 10
184.528800
 20
-319.283885
 30
0.0
 10
185.911200
 20
-320.248685
 30
0.0
 10
187.293600
 20
-321.213485
 30
0.0
 10
188.676000
 20
-322.178285
 30
0.0
 10
190.065600
 20
-323.143085
 30
0.0
 10
191.448000
 20
-324.107885
 30
0.0
 10
192.830400
 20
-325.072685
 30
0.0
 10
194.212800
 20
-326.037485
 30
0.0
 10
195.595200
 20
-327.002285
 30
0.0
 10
196.977600
 20
-327.974285
 30
0.0
 10
198.360000
 20
-328.939085
 30
0.0
 10
199.742400
 20
-329.911085
 30
0.0
 10
201.124800
 20
-330.883085
 30
0.0
 10
202.507200
 20
-331.847885
 30
0.0
 10
203.889600
 20
-332.819885
 30
0.0
 10
205.272000
 20
-333.791885
 30
0.0
 10
206.647200
 20
-334.763885
 30
0.0
 10
208.029600
 20
-335.743085
 30
0.0
 10
209.404800
 20
-336.715085
 30
0.0
 10
210.787200
 20
-337.687085
 30
0.0
 10
212.162400
 20
-338.666285
 30
0.0
 10
213.537600
 20
-339.638285
 30
0.0
 10
214.912800
 20
-340.617485
 30
0.0
 10
216.288000
 20
-341.596685
 30
0.0
 10
217.663200
 20
-342.575885
 30
0.0
 10
219.031200
 20
-343.555085
 30
0.0
  0
LWPOLYLINE
  5
271
100
AcDbEntity
  8
0
 62
7
100
AcDbPolyline
 90
33
 70
0
 10
518.623200
 20
-311.810285
 30
0.0
 10
520.113600
 20
-311.111885
 30
0.0
 10
521.604000
 20
-310.413485
 30
0.0
 10
523.094400
 20
-309.715085
 30
0.0
 10
524.584800
 20
-309.023885
 30
0.0
 10
526.082400
 20
-308.325485
 30
0.0
 10
527.572800
 20
-307.634285
 30
0.0
 10
529.070400
 20
-306.935885
 30
0.0
 10
530.560800
 20
-306.244685
 30
0.0
 10
532.051200
 20
-305.553485
 30
0.0
 10
533.548800
 20
-304.855085
 30
0.0
 10
535.039200
 20
-304.163885
 30
0.0
 10
536.536800
 20
-303.472685
 30
0.0
 10
538.027200
 20
-302.774285
 30
0.0
 10
539.524800
 20
-302.083085
 30
0.0
 10
541.015200
 20
-301.391885
 30
0.0
 10
542.512800
 20
-300.693485
 30
0.0
 10
544.003200
 20
-300.002285
 30
0.0
 10
545.493600
 20
-299.303885
 30
0.0
 10
546.984000
 20
-298.605485
 30
0.0
 10
548.481600
 20
-297.914285
 30
0.0
 10
549.972000
 20
-297.215885
 30
0.0
 10
551.462400
 20
-296.510285
 30
0.0
 10
552.952800
 20
-295.811885
 30
0.0
 10
554.443200
 20
-295.106285
 30
0.0
 10
555.926400
 20
-294.407885
 30
0.0
 10
557.416800
 20
-293.702285
 30
0.0
 10
558.907200
 20
-292.996685
 30
0.0
 10
560.390400
 20
-292.283885
 30
0.0
 10
561.873600
 20
-291.571085
 30
0.0
 10
563.356800
 20
-290.858285
 30
0.0
 10
564.840000
 20
-290.145485
 30
0.0
 10
566.323200
 20
-289.432685
 30
0.0
  0
LWPOLYLINE
  5
272
100
AcDbEntity
  8
0
 62
7
100
AcDbPolyline
 90
33
 70
0
 10
568.944000
 20
-278.402285
 30
0.0
 10
568.339200
 20
-277.041485
 30
0.0
 10
567.741600
 20
-275.680685
 30
0.0
 10
567.136800
 20
-274.327085
 30
0.0
 10
566.532000
 20
-272.966285
 30
0.0
 10
565.920000
 20
-271.612685
 30
0.0
 10
565.315200
 20
-270.251885
 30
0.0
 10
564.703200
 20
-268.898285
 30
0.0
 10
564.091200
 20
-267.544685
 30
0.0
 10
563.479200
 20
-266.191085
 30
0.0
 10
562.867200
 20
-264.830285
 30
0.0
 10
562.248000
 20
-263.483885
 30
0.0
 10
561.636000
 20
-262.130285
 30
0.0
 10
561.016800
 20
-260.776685
 30
0.0
 10
560.397600
 20
-259.423085
 30
0.0
 10
559.778400
 20
-258.069485
 30
0.0
 10
559.152000
 20
-256.723085
 30
0.0
 10
558.532800
 20
-255.369485
 30
0.0
 10
557.906400
 20
-254.023085
 30
0.0
 10
557.280000
 20
-252.676685
 30
0.0
 10
556.653600
 20
-251.323085
 30
0.0
 10
556.027200
 20
-249.976685
 30
0.0
 10
555.400800
 20
-248.630285
 30
0.0
 10
554.774400
 20
-247.283885
 30
0.0
 10
554.140800
 20
-245.937485
 30
0.0
 10
553.514400
 20
-244.591085
 30
0.0
 10
552.880800
 20
-243.244685
 30
0.0
 10
552.247200
 20
-241.898285
 30
0.0
 10
551.613600
 20
-240.551885
 30
0.0
 10
550.980000
 20
-239.205485
 30
0.0
 10
550.346400
 20
-237.866285
 30
0.0
 10
549.712800
 20
-236.519885
 30
0.0
 10
549.072000
 20
-235.173485
 30
0.0
  0
LWPOLYLINE
  5
273
100
AcDbEntity
  8
0
 62
7
100
AcDbPolyline
 90
33
 70
0
 10
219.031200
 20
-343.555085
 30
0.0
 10
220.212000
 20
-344.728685
 30
0.0
 10
221.385600
 20
-345.895085
 30
0.0
 10
222.559200
 20
-347.068685
 30
0.0
 10
223.732800
 20
-348.242285
 30
0.0
 10
224.913600
 20
-349.415885
 30
0.0
 10
226.087200
 20
-350.596685
 30
0.0
 10
227.253600
 20
-351.770285
 30
0.0
 10
228.427200
 20
-352.943885
 30
0.0
 10
229.600800
 20
-354.117485
 30
0.0
 10
230.774400
 20
-355.298285
 30
0.0
 10
231.948000
 20
-356.471885
 30
0.0
 10
233.121600
 20
-357.652685
 30
0.0
 10
234.288000
 20
-358.826285
 30
0.0
 10
235.461600
 20
-359.999885
 30
0.0
 10
236.635200
 20
-361.180685
 30
0.0
 10
237.808800
 20
-362.354285
 30
0.0
 10
238.982400
 20
-363.535085
 30
0.0
 10
240.156000
 20
-364.708685
 30
0.0
 10
241.329600
 20
-365.882285
 30
0.0
 10
242.503200
 20
-367.055885
 30
0.0
 10
243.676800
 20
-368.229485
 30
0.0
 10
244.850400
 20
-369.403085
 30
0.0
 10
246.024000
 20
-370.576685
 30
0.0
 10
247.204800
 20
-371.750285
 30
0.0
 10
248.378400
 20
-372.916685
 30
0.0
 10
249.559200
 20
-374.090285
 30
0.0
 10
250.732800
 20
-375.256685
 30
0.0
 10
251.913600
 20
-376.423085
 30
0.0
 10
253.094400
 20
-377.589485
 30
0.0
 10
254.275200
 20
-378.755885
 30
0.0
 10
255.463200
 20
-379.915085
 30
0.0
 10
256.644000
 20
-381.081485
 30
0.0
  0
LWPOLYLINE
  5
274
100
AcDbEntity
  8
0
 62
7
100
AcDbPolyline
 90
33
 70
0
 10
183.808800
 20
-16.307885
 30
0.0
 10
182.520000
 20
-15.717485
 30
0.0
 10
181.231200
 20
-15.127085
 30
0.0
 10
179.942400
 20
-14.529485
 30
0.0
 10
178.660800
 20
-13.931885
 30
0.0
 10
177.372000
 20
-13.334285
 30
0.0
 10
176.083200
 20
-12.729485
 30
0.0
 10
174.794400
 20
-12.131885
 30
0.0
 10
173.512800
 20
-11.527085
 30
0.0
 10
172.224000
 20
-10.922285
 30
0.0
 10
170.942400
 20
-10.324685
 30
0.0
 10
169.653600
 20
-9.719885
 30
0.0
 10
168.372000
 20
-9.115085
 30
0.0
 10
167.083200
 20
-8.510285
 30
0.0
 10
165.794400
 20
-7.912685
 30
0.0
 10
164.512800
 20
-7.307885
 30
0.0
 10
163.224000
 20
-6.710285
 30
0.0
 10
161.935200
 20
-6.105485
 30
0.0
 10
160.653600
 20
-5.507885
 30
0.0
 10
159.364800
 20
-4.910285
 30
0.0
 10
158.076000
 20
-4.312685
 30
0.0
 10
156.787200
 20
-3.722285
 30
0.0
 10
155.498400
 20
-3.124685
 30
0.0
 10
154.202400
 20
-2.534285
 30
0.0
 10
152.913600
 20
-1.951085
 30
0.0
 10
151.624800
 20
-1.360685
 30
0.0
 10
150.328800
 20
-0.777485
 30
0.0
 10
149.032800
 20
-0.194285
 30
0.0
 10
147.744000
 20
0.381715
 30
0.0
 10
146.440800
 20
0.957715
 30
0.0
 10
145.144800
 20
1.526515
 30
0.0
 10
143.848800
 20
2.095315
 30
0.0
 10
142.545600
 20
2.656915
 30
0.0
  0
LWPOLYLINE
  5
275
100
AcDbEntity
  8
0
 62
7
100
AcDbPolyline
 90
16
 70
0
 10
187.567200
 20
-13.067885
 30
0.0
 10
187.365600
 20
-13.370285
 30
0.0
 10
187.178400
 20
-13.715885
 30
0.0
 10
186.998400
 20
-14.090285
 30
0.0
 10
186.832800
 20
-14.493485
 30
0.0
 10
186.674400
 20
-14.896685
 30
0.0
 10
186.508800
 20
-15.299885
 30
0.0
 10
186.336000
 20
-15.688685
 30
0.0
 10
186.156000
 20
-16.041485
 30
0.0
 10
185.961600
 20
-16.358285
 30
0.0
 10
185.630400
 20
-16.718285
 30
0.0
 10
185.241600
 20
-16.919885
 30
0.0
 10
184.780800
 20
-16.905485
 30
0.0
 10
184.428000
 20
-16.761485
 30
0.0
 10
184.024800
 20
-16.495085
 30
0.0
 10
183.808800
 20
-16.307885
 30
0.0
  0
LWPOLYLINE
  5
276
100
AcDbEntity
  8
0
 62
7
100
AcDbPolyline
 90
33
 70
0
 10
249.120000
 20
-32.443085
 30
0.0
 10
248.824800
 20
-32.090285
 30
0.0
 10
248.515200
 20
-31.751885
 30
0.0
 10
248.191200
 20
-31.435085
 30
0.0
 10
247.860000
 20
-31.125485
 30
0.0
 10
247.521600
 20
-30.837485
 30
0.0
 10
247.168800
 20
-30.556685
 30
0.0
 10
246.808800
 20
-30.290285
 30
0.0
 10
246.434400
 20
-30.038285
 30
0.0
 10
246.060000
 20
-29.793485
 30
0.0
 10
245.671200
 20
-29.555885
 30
0.0
 10
245.282400
 20
-29.332685
 30
0.0
 10
244.886400
 20
-29.116685
 30
0.0
 10
244.483200
 20
-28.907885
 30
0.0
 10
244.072800
 20
-28.706285
 30
0.0
 10
243.662400
 20
-28.504685
 30
0.0
 10
243.252000
 20
-28.317485
 30
0.0
 10
242.827200
 20
-28.123085
 30
0.0
 10
242.409600
 20
-27.943085
 30
0.0
 10
241.984800
 20
-27.763085
 30
0.0
 10
241.560000
 20
-27.583085
 30
0.0
 10
241.135200
 20
-27.403085
 30
0.0
 10
240.710400
 20
-27.223085
 30
0.0
 10
240.285600
 20
-27.043085
 30
0.0
 10
239.868000
 20
-26.863085
 30
0.0
 10
239.443200
 20
-26.683085
 30
0.0
 10
239.025600
 20
-26.495885
 30
0.0
 10
238.608000
 20
-26.308685
 30
0.0
 10
238.197600
 20
-26.114285
 30
0.0
 10
237.787200
 20
-25.919885
 30
0.0
 10
237.384000
 20
-25.711085
 30
0.0
 10
236.988000
 20
-25.502285
 30
0.0
 10
236.592000
 20
-25.279085
 30
0.0
  0
LWPOLYLINE
  5
277
100
AcDbEntity
  8
0
 62
7
100
AcDbPolyline
 90
33
 70
0
 10
247.161600
 20
-46.036685
 30
0.0
 10
247.341600
 20
-45.647885
 30
0.0
 10
247.528800
 20
-45.251885
 30
0.0
 10
247.716000
 20
-44.848685
 30
0.0
 10
247.910400
 20
-44.438285
 30
0.0
 10
248.104800
 20
-44.027885
 30
0.0
 10
248.306400
 20
-43.617485
 30
0.0
 10
248.500800
 20
-43.199885
 30
0.0
 10
248.695200
 20
-42.775085
 30
0.0
 10
248.882400
 20
-42.350285
 30
0.0
 10
249.069600
 20
-41.925485
 30
0.0
 10
249.249600
 20
-41.493485
 30
0.0
 10
249.422400
 20
-41.061485
 30
0.0
 10
249.588000
 20
-40.629485
 30
0.0
 10
249.739200
 20
-40.197485
 30
0.0
 10
249.883200
 20
-39.758285
 30
0.0
 10
250.012800
 20
-39.326285
 30
0.0
 10
250.128000
 20
-38.887085
 30
0.0
 10
250.221600
 20
-38.447885
 30
0.0
 10
250.300800
 20
-38.008685
 30
0.0
 10
250.365600
 20
-37.576685
 30
0.0
 10
250.408800
 20
-37.137485
 30
0.0
 10
250.423200
 20
-36.698285
 30
0.0
 10
250.423200
 20
-36.266285
 30
0.0
 10
250.394400
 20
-35.834285
 30
0.0
 10
250.344000
 20
-35.402285
 30
0.0
 10
250.257600
 20
-34.970285
 30
0.0
 10
250.149600
 20
-34.538285
 30
0.0
 10
250.012800
 20
-34.113485
 30
0.0
 10
249.840000
 20
-33.688685
 30
0.0
 10
249.638400
 20
-33.271085
 30
0.0
 10
249.393600
 20
-32.853485
 30
0.0
 10
249.120000
 20
-32.443085
 30
0.0
  0
LWPOLYLINE
  5
278
100
AcDbEntity
  8
0
 62
7
100
AcDbPolyline
 90
33
 70
0
 10
287.006400
 20
-64.720685
 30
0.0
 10
285.775200
 20
-64.101485
 30
0.0
 10
284.544000
 20
-63.489485
 30
0.0
 10
283.312800
 20
-62.884685
 30
0.0
 10
282.074400
 20
-62.279885
 30
0.0
 10
280.843200
 20
-61.675085
 30
0.0
 10
279.604800
 20
-61.077485
 30
0.0
 10
278.366400
 20
-60.472685
 30
0.0
 10
277.128000
 20
-59.882285
 30
0.0
 10
275.882400
 20
-59.284685
 30
0.0
 10
274.644000
 20
-58.694285
 30
0.0
 10
273.398400
 20
-58.103885
 30
0.0
 10
272.160000
 20
-57.520685
 30
0.0
 10
270.914400
 20
-56.930285
 30
0.0
 10
269.668800
 20
-56.347085
 30
0.0
 10
268.423200
 20
-55.763885
 30
0.0
 10
267.177600
 20
-55.187885
 30
0.0
 10
265.924800
 20
-54.604685
 30
0.0
 10
264.679200
 20
-54.028685
 30
0.0
 10
263.433600
 20
-53.452685
 30
0.0
 10
262.180800
 20
-52.876685
 30
0.0
 10
260.928000
 20
-52.300685
 30
0.0
 10
259.682400
 20
-51.731885
 30
0.0
 10
258.429600
 20
-51.155885
 30
0.0
 10
257.176800
 20
-50.587085
 30
0.0
 10
255.924000
 20
-50.018285
 30
0.0
 10
254.678400
 20
-49.449485
 30
0.0
 10
253.425600
 20
-48.880685
 30
0.0
 10
252.172800
 20
-48.311885
 30
0.0
 10
250.920000
 20
-47.743085
 30
0.0
 10
249.667200
 20
-47.174285
 30
0.0
 10
248.414400
 20
-46.605485
 30
0.0
 10
247.161600
 20
-46.036685
 30
0.0
  0
LWPOLYLINE
  5
279
100
AcDbEntity
  8
0
 62
7
100
AcDbPolyline
 90
33
 70
0
 10
333.604800
 20
-94.010285
 30
0.0
 10
332.337600
 20
-93.419885
 30
0.0
 10
331.063200
 20
-92.829485
 30
0.0
 10
329.796000
 20
-92.231885
 30
0.0
 10
328.521600
 20
-91.641485
 30
0.0
 10
327.254400
 20
-91.051085
 30
0.0
 10
325.980000
 20
-90.453485
 30
0.0
 10
324.712800
 20
-89.863085
 30
0.0
 10
323.438400
 20
-89.265485
 30
0.0
 10
322.171200
 20
-88.675085
 30
0.0
 10
320.896800
 20
-88.077485
 30
0.0
 10
319.629600
 20
-87.487085
 30
0.0
 10
318.362400
 20
-86.889485
 30
0.0
 10
317.088000
 20
-86.299085
 30
0.0
 10
315.820800
 20
-85.701485
 30
0.0
 10
314.546400
 20
-85.111085
 30
0.0
 10
313.279200
 20
-84.520685
 30
0.0
 10
312.004800
 20
-83.923085
 30
0.0
 10
310.737600
 20
-83.332685
 30
0.0
 10
309.463200
 20
-82.742285
 30
0.0
 10
308.196000
 20
-82.151885
 30
0.0
 10
306.921600
 20
-81.554285
 30
0.0
 10
305.647200
 20
-80.963885
 30
0.0
 10
304.380000
 20
-80.373485
 30
0.0
 10
303.105600
 20
-79.783085
 30
0.0
 10
301.831200
 20
-79.199885
 30
0.0
 10
300.564000
 20
-78.609485
 30
0.0
 10
299.289600
 20
-78.019085
 30
0.0
 10
298.015200
 20
-77.435885
 30
0.0
 10
296.740800
 20
-76.845485
 30
0.0
 10
295.466400
 20
-76.262285
 30
0.0
 10
294.192000
 20
-75.679085
 30
0.0
 10
292.917600
 20
-75.088685
 30
0.0
  0
LWPOLYLINE
  5
27a
100
AcDbEntity
  8
0
 62
7
100
AcDbPolyline
 90
33
 70
0
 10
197.906400
 20
-7.495085
 30
0.0
 10
197.496000
 20
-7.365485
 30
0.0
 10
197.085600
 20
-7.257485
 30
0.0
 10
196.675200
 20
-7.178285
 30
0.0
 10
196.264800
 20
-7.120685
 30
0.0
 10
195.854400
 20
-7.084685
 30
0.0
 10
195.451200
 20
-7.077485
 30
0.0
 10
195.048000
 20
-7.091885
 30
0.0
 10
194.644800
 20
-7.127885
 30
0.0
 10
194.248800
 20
-7.178285
 30
0.0
 10
193.852800
 20
-7.257485
 30
0.0
 10
193.471200
 20
-7.358285
 30
0.0
 10
193.089600
 20
-7.473485
 30
0.0
 10
192.715200
 20
-7.610285
 30
0.0
 10
192.348000
 20
-7.768685
 30
0.0
 10
191.988000
 20
-7.941485
 30
0.0
 10
191.635200
 20
-8.128685
 30
0.0
 10
191.289600
 20
-8.337485
 30
0.0
 10
190.951200
 20
-8.560685
 30
0.0
 10
190.627200
 20
-8.798285
 30
0.0
 10
190.310400
 20
-9.057485
 30
0.0
 10
190.008000
 20
-9.323885
 30
0.0
 10
189.720000
 20
-9.604685
 30
0.0
 10
189.439200
 20
-9.899885
 30
0.0
 10
189.172800
 20
-10.209485
 30
0.0
 10
188.920800
 20
-10.533485
 30
0.0
 10
188.676000
 20
-10.864685
 30
0.0
 10
188.452800
 20
-11.210285
 30
0.0
 10
188.244000
 20
-11.563085
 30
0.0
 10
188.049600
 20
-11.923085
 30
0.0
 10
187.869600
 20
-12.297485
 30
0.0
 10
187.711200
 20
-12.679085
 30
0.0
 10
187.567200
 20
-13.067885
 30
0.0
  0
SPLINE
  5
27b
100
AcDbEntity
  8
0
 62
7
100
AcDbSpline
 70
8
 71
3
 72
8
 73
4
 74
0
 40
0
 40
0
 40
0
 40
0
 40
1
 40
1
 40
1
 40
1
 10
137.370240
 20
2.698292
 30
0.0
 10
137.299010
 20
2.698292
 30
0.0
 10
137.234794
 20
2.655384
 30
0.0
 10
137.207535
 20
2.589576
 30
0.0
  0
SPLINE
  5
27c
100
AcDbEntity
  8
0
 62
7
100
AcDbSpline
 70
8
 71
3
 72
8
 73
4
 74
0
 40
0
 40
0
 40
0
 40
0
 40
1
 40
1
 40
1
 40
1
 10
137.207535
 20
2.589576
 30
0.0
 10
137.180276
 20
2.523768
 30
0.0
 10
137.195344
 20
2.448020
 30
0.0
 10
137.245711
 20
2.397653
 30
0.0
  0
SPLINE
  5
27d
100
AcDbEntity
  8
0
 62
7
100
AcDbSpline
 70
8
 71
3
 72
8
 73
4
 74
0
 40
0
 40
0
 40
0
 40
0
 40
1
 40
1
 40
1
 40
1
 10
137.245711
 20
2.397653
 30
0.0
 10
137.296078
 20
2.347285
 30
0.0
 10
137.371827
 20
2.332218
 30
0.0
 10
137.437635
 20
2.359477
 30
0.0
  0
SPLINE
  5
27e
100
AcDbEntity
  8
0
 62
7
100
AcDbSpline
 70
8
 71
3
 72
8
 73
4
 74
0
 40
0
 40
0
 40
0
 40
0
 40
1
 40
1
 40
1
 40
1
 10
137.437635
 20
2.359477
 30
0.0
 10
137.503443
 20
2.386735
 30
0.0
 10
137.546351
 20
2.450952
 30
0.0
 10
137.546351
 20
2.522182
 30
0.0
  0
SPLINE
  5
27f
100
AcDbEntity
  8
0
 62
7
100
AcDbSpline
 70
8
 71
3
 72
8
 73
4
 74
0
 40
0
 40
0
 40
0
 40
0
 40
1
 40
1
 40
1
 40
1
 10
137.546351
 20
2.522182
 30
0.0
 10
137.546351
 20
2.568889
 30
0.0
 10
137.527796
 20
2.613683
 30
0.0
 10
137.494769
 20
2.646711
 30
0.0
  0
SPLINE
  5
280
100
AcDbEntity
  8
0
 62
7
100
AcDbSpline
 70
8
 71
3
 72
8
 73
4
 74
0
 40
0
 40
0
 40
0
 40
0
 40
1
 40
1
 40
1
 40
1
 10
137.494769
 20
2.646711
 30
0.0
 10
137.461742
 20
2.679738
 30
0.0
 10
137.416947
 20
2.698292
 30
0.0
 10
137.370240
 20
2.698292
 30
0.0
  0
LWPOLYLINE
  5
281
100
AcDbEntity
  8
0
 62
7
100
AcDbPolyline
 90
33
 70
0
 10
292.917600
 20
-75.088685
 30
0.0
 10
293.032800
 20
-74.671085
 30
0.0
 10
293.126400
 20
-74.253485
 30
0.0
 10
293.191200
 20
-73.843085
 30
0.0
 10
293.234400
 20
-73.425485
 30
0.0
 10
293.248800
 20
-73.015085
 30
0.0
 10
293.234400
 20
-72.611885
 30
0.0
 10
293.205600
 20
-72.208685
 30
0.0
 10
293.148000
 20
-71.812685
 30
0.0
 10
293.076000
 20
-71.416685
 30
0.0
 10
292.975200
 20
-71.027885
 30
0.0
 10
292.860000
 20
-70.646285
 30
0.0
 10
292.723200
 20
-70.271885
 30
0.0
 10
292.564800
 20
-69.904685
 30
0.0
 10
292.392000
 20
-69.544685
 30
0.0
 10
292.204800
 20
-69.184685
 30
0.0
 10
291.996000
 20
-68.839085
 30
0.0
 10
291.772800
 20
-68.500685
 30
0.0
 10
291.535200
 20
-68.169485
 30
0.0
 10
291.276000
 20
-67.852685
 30
0.0
 10
291.009600
 20
-67.543085
 30
0.0
 10
290.736000
 20
-67.240685
 30
0.0
 10
290.440800
 20
-66.945485
 30
0.0
 10
290.138400
 20
-66.671885
 30
0.0
 10
289.821600
 20
-66.398285
 30
0.0
 10
289.497600
 20
-66.146285
 30
0.0
 10
289.166400
 20
-65.901485
 30
0.0
 10
288.820800
 20
-65.671085
 30
0.0
 10
288.475200
 20
-65.447885
 30
0.0
 10
288.115200
 20
-65.246285
 30
0.0
 10
287.748000
 20
-65.051885
 30
0.0
 10
287.380800
 20
-64.879085
 30
0.0
 10
287.006400
 20
-64.720685
 30
0.0
  0
LWPOLYLINE
  5
282
100
AcDbEntity
  8
0
 62
7
100
AcDbPolyline
 90
1
 70
1
 10
137.370240
 20
2.698292
 30
0.0
  0
LWPOLYLINE
  5
283
100
AcDbEntity
  8
0
 62
7
100
AcDbPolyline
 90
33
 70
0
 10
236.592000
 20
-25.279085
 30
0.0
 10
235.382400
 20
-24.724685
 30
0.0
 10
234.180000
 20
-24.163085
 30
0.0
 10
232.970400
 20
-23.601485
 30
0.0
 10
231.768000
 20
-23.039885
 30
0.0
 10
230.558400
 20
-22.478285
 30
0.0
 10
229.348800
 20
-21.916685
 30
0.0
 10
228.146400
 20
-21.362285
 30
0.0
 10
226.936800
 20
-20.800685
 30
0.0
 10
225.734400
 20
-20.239085
 30
0.0
 10
224.524800
 20
-19.677485
 30
0.0
 10
223.322400
 20
-19.115885
 30
0.0
 10
222.112800
 20
-18.554285
 30
0.0
 10
220.903200
 20
-17.992685
 30
0.0
 10
219.700800
 20
-17.431085
 30
0.0
 10
218.491200
 20
-16.869485
 30
0.0
 10
217.281600
 20
-16.307885
 30
0.0
 10
216.079200
 20
-15.753485
 30
0.0
 10
214.869600
 20
-15.191885
 30
0.0
 10
213.660000
 20
-14.637485
 30
0.0
 10
212.450400
 20
-14.075885
 30
0.0
 10
211.240800
 20
-13.521485
 30
0.0
 10
210.031200
 20
-12.967085
 30
0.0
 10
208.821600
 20
-12.412685
 30
0.0
 10
207.612000
 20
-11.865485
 30
0.0
 10
206.402400
 20
-11.311085
 30
0.0
 10
205.192800
 20
-10.763885
 30
0.0
 10
203.976000
 20
-10.216685
 30
0.0
 10
202.766400
 20
-9.669485
 30
0.0
 10
201.549600
 20
-9.122285
 30
0.0
 10
200.332800
 20
-8.582285
 30
0.0
 10
199.123200
 20
-8.035085
 30
0.0
 10
197.906400
 20
-7.495085
 30
0.0
  0
LWPOLYLINE
  5
284
100
AcDbEntity
  8
0
 62
7
100
AcDbPolyline
 90
12
 70
0
 10
142.545600
 20
2.656915
 30
0.0
 10
142.056000
 20
2.800915
 30
0.0
 10
141.566400
 20
2.901715
 30
0.0
 10
141.076800
 20
2.966515
 30
0.0
 10
140.594400
 20
2.995315
 30
0.0
 10
140.112000
 20
2.995315
 30
0.0
 10
139.636800
 20
2.966515
 30
0.0
 10
139.154400
 20
2.908915
 30
0.0
 10
138.672000
 20
2.829715
 30
0.0
 10
138.182400
 20
2.728915
 30
0.0
 10
137.692800
 20
2.613715
 30
0.0
 10
137.368800
 20
2.527315
 30
0.0
  0
LWPOLYLINE
  5
285
100
AcDbEntity
  8
0
 62
7
100
AcDbPolyline
 90
65
 70
0
 10
687.304800
 20
-165.851885
 30
0.0
 10
687.693600
 20
-165.614285
 30
0.0
 10
688.046400
 20
-165.355085
 30
0.0
 10
688.384800
 20
-165.081485
 30
0.0
 10
688.694400
 20
-164.793485
 30
0.0
 10
688.982400
 20
-164.483885
 30
0.0
 10
689.248800
 20
-164.167085
 30
0.0
 10
689.493600
 20
-163.835885
 30
0.0
 10
689.716800
 20
-163.490285
 30
0.0
 10
689.918400
 20
-163.137485
 30
0.0
 10
690.098400
 20
-162.770285
 30
0.0
 10
690.256800
 20
-162.388685
 30
0.0
 10
690.393600
 20
-162.007085
 30
0.0
 10
690.508800
 20
-161.618285
 30
0.0
 10
690.602400
 20
-161.215085
 30
0.0
 10
690.681600
 20
-160.811885
 30
0.0
 10
690.739200
 20
-160.401485
 30
0.0
 10
690.775200
 20
-159.991085
 30
0.0
 10
690.789600
 20
-159.573485
 30
0.0
 10
690.789600
 20
-159.155885
 30
0.0
 10
690.768000
 20
-158.738285
 30
0.0
 10
690.732000
 20
-158.320685
 30
0.0
 10
690.674400
 20
-157.903085
 30
0.0
 10
690.602400
 20
-157.485485
 30
0.0
 10
690.508800
 20
-157.075085
 30
0.0
 10
690.400800
 20
-156.664685
 30
0.0
 10
690.271200
 20
-156.261485
 30
0.0
 10
690.134400
 20
-155.858285
 30
0.0
 10
689.968800
 20
-155.462285
 30
0.0
 10
689.796000
 20
-155.080685
 30
0.0
 10
689.608800
 20
-154.699085
 30
0.0
 10
689.400000
 20
-154.331885
 30
0.0
 10
689.176800
 20
-153.979085
 30
0.0
 10
687.103200
 20
-149.493485
 30
0.0
 10
685.029600
 20
-145.007885
 30
0.0
 10
682.956000
 20
-140.522285
 30
0.0
 10
680.882400
 20
-136.036685
 30
0.0
 10
678.808800
 20
-131.551085
 30
0.0
 10
676.728000
 20
-127.065485
 30
0.0
 10
674.654400
 20
-122.587085
 30
0.0
 10
672.573600
 20
-118.101485
 30
0.0
 10
670.492800
 20
-113.615885
 30
0.0
 10
668.419200
 20
-109.137485
 30
0.0
 10
666.338400
 20
-104.651885
 30
0.0
 10
664.250400
 20
-100.173485
 30
0.0
 10
662.169600
 20
-95.695085
 30
0.0
 10
660.088800
 20
-91.209485
 30
0.0
 10
658.000800
 20
-86.731085
 30
0.0
 10
655.912800
 20
-82.252685
 30
0.0
 10
653.824800
 20
-77.774285
 30
0.0
 10
651.736800
 20
-73.295885
 30
0.0
 10
649.648800
 20
-68.817485
 30
0.0
 10
647.560800
 20
-64.339085
 30
0.0
 10
645.465600
 20
-59.867885
 30
0.0
 10
643.370400
 20
-55.389485
 30
0.0
 10
641.275200
 20
-50.911085
 30
0.0
 10
639.180000
 20
-46.439885
 30
0.0
 10
637.084800
 20
-41.968685
 30
0.0
 10
634.982400
 20
-37.490285
 30
0.0
 10
632.880000
 20
-33.019085
 30
0.0
 10
630.777600
 20
-28.547885
 30
0.0
 10
628.675200
 20
-24.076685
 30
0.0
 10
626.572800
 20
-19.605485
 30
0.0
 10
624.463200
 20
-15.141485
 30
0.0
 10
622.353600
 20
-10.670285
 30
0.0
  0
LWPOLYLINE
  5
286
100
AcDbEntity
  8
0
 62
7
100
AcDbPolyline
 90
33
 70
0
 10
644.767200
 20
-185.723885
 30
0.0
 10
646.099200
 20
-185.104685
 30
0.0
 10
647.431200
 20
-184.485485
 30
0.0
 10
648.756000
 20
-183.873485
 30
0.0
 10
650.088000
 20
-183.254285
 30
0.0
 10
651.427200
 20
-182.642285
 30
0.0
 10
652.759200
 20
-182.030285
 30
0.0
 10
654.091200
 20
-181.418285
 30
0.0
 10
655.423200
 20
-180.806285
 30
0.0
 10
656.762400
 20
-180.194285
 30
0.0
 10
658.094400
 20
-179.582285
 30
0.0
 10
659.433600
 20
-178.970285
 30
0.0
 10
660.765600
 20
-178.358285
 30
0.0
 10
662.104800
 20
-177.746285
 30
0.0
 10
663.436800
 20
-177.134285
 30
0.0
 10
664.768800
 20
-176.522285
 30
0.0
 10
666.108000
 20
-175.910285
 30
0.0
 10
667.440000
 20
-175.298285
 30
0.0
 10
668.772000
 20
-174.686285
 30
0.0
 10
670.104000
 20
-174.067085
 30
0.0
 10
671.436000
 20
-173.447885
 30
0.0
 10
672.768000
 20
-172.828685
 30
0.0
 10
674.092800
 20
-172.209485
 30
0.0
 10
675.424800
 20
-171.583085
 30
0.0
 10
676.749600
 20
-170.956685
 30
0.0
 10
678.074400
 20
-170.330285
 30
0.0
 10
679.399200
 20
-169.696685
 30
0.0
 10
680.724000
 20
-169.063085
 30
0.0
 10
682.041600
 20
-168.429485
 30
0.0
 10
683.359200
 20
-167.788685
 30
0.0
 10
684.676800
 20
-167.147885
 30
0.0
 10
685.994400
 20
-166.499885
 30
0.0
 10
687.304800
 20
-165.851885
 30
0.0
  0
LWPOLYLINE
  5
287
100
AcDbEntity
  8
0
 62
7
100
AcDbPolyline
 90
33
 70
0
 10
593.913600
 20
-228.578285
 30
0.0
 10
594.352800
 20
-228.563885
 30
0.0
 10
594.784800
 20
-228.535085
 30
0.0
 10
595.216800
 20
-228.484685
 30
0.0
 10
595.648800
 20
-228.419885
 30
0.0
 10
596.073600
 20
-228.340685
 30
0.0
 10
596.498400
 20
-228.247085
 30
0.0
 10
596.916000
 20
-228.146285
 30
0.0
 10
597.326400
 20
-228.023885
 30
0.0
 10
597.744000
 20
-227.894285
 30
0.0
 10
598.154400
 20
-227.750285
 30
0.0
 10
598.564800
 20
-227.599085
 30
0.0
 10
598.968000
 20
-227.433485
 30
0.0
 10
599.371200
 20
-227.267885
 30
0.0
 10
599.774400
 20
-227.087885
 30
0.0
 10
600.177600
 20
-226.907885
 30
0.0
 10
600.580800
 20
-226.720685
 30
0.0
 10
600.976800
 20
-226.526285
 30
0.0
 10
601.380000
 20
-226.331885
 30
0.0
 10
601.776000
 20
-226.130285
 30
0.0
 10
602.172000
 20
-225.928685
 30
0.0
 10
602.568000
 20
-225.727085
 30
0.0
 10
602.964000
 20
-225.525485
 30
0.0
 10
603.360000
 20
-225.331085
 30
0.0
 10
603.756000
 20
-225.129485
 30
0.0
 10
604.152000
 20
-224.935085
 30
0.0
 10
604.555200
 20
-224.740685
 30
0.0
 10
604.951200
 20
-224.553485
 30
0.0
 10
605.354400
 20
-224.366285
 30
0.0
 10
605.750400
 20
-224.186285
 30
0.0
 10
606.153600
 20
-224.020685
 30
0.0
 10
606.556800
 20
-223.855085
 30
0.0
 10
606.967200
 20
-223.703885
 30
0.0
  0
LWPOLYLINE
  5
288
100
AcDbEntity
  8
0
 62
7
100
AcDbPolyline
 90
33
 70
0
 10
646.034400
 20
-205.430285
 30
0.0
 10
646.401600
 20
-205.207085
 30
0.0
 10
646.747200
 20
-204.969485
 30
0.0
 10
647.078400
 20
-204.710285
 30
0.0
 10
647.395200
 20
-204.436685
 30
0.0
 10
647.683200
 20
-204.148685
 30
0.0
 10
647.956800
 20
-203.853485
 30
0.0
 10
648.216000
 20
-203.536685
 30
0.0
 10
648.446400
 20
-203.212685
 30
0.0
 10
648.669600
 20
-202.874285
 30
0.0
 10
648.864000
 20
-202.521485
 30
0.0
 10
649.044000
 20
-202.168685
 30
0.0
 10
649.202400
 20
-201.801485
 30
0.0
 10
649.346400
 20
-201.427085
 30
0.0
 10
649.468800
 20
-201.045485
 30
0.0
 10
649.576800
 20
-200.656685
 30
0.0
 10
649.663200
 20
-200.260685
 30
0.0
 10
649.728000
 20
-199.864685
 30
0.0
 10
649.778400
 20
-199.468685
 30
0.0
 10
649.807200
 20
-199.065485
 30
0.0
 10
649.821600
 20
-198.655085
 30
0.0
 10
649.814400
 20
-198.251885
 30
0.0
 10
649.792800
 20
-197.841485
 30
0.0
 10
649.749600
 20
-197.438285
 30
0.0
 10
649.684800
 20
-197.035085
 30
0.0
 10
649.605600
 20
-196.631885
 30
0.0
 10
649.512000
 20
-196.235885
 30
0.0
 10
649.396800
 20
-195.839885
 30
0.0
 10
649.260000
 20
-195.451085
 30
0.0
 10
649.108800
 20
-195.069485
 30
0.0
 10
648.943200
 20
-194.687885
 30
0.0
 10
648.756000
 20
-194.320685
 30
0.0
 10
648.547200
 20
-193.960685
 30
0.0
  0
LWPOLYLINE
  5
289
100
AcDbEntity
  8
0
 62
7
100
AcDbPolyline
 90
33
 70
0
 10
584.748000
 20
-218.368685
 30
0.0
 10
584.935200
 20
-218.757485
 30
0.0
 10
585.115200
 20
-219.153485
 30
0.0
 10
585.302400
 20
-219.563885
 30
0.0
 10
585.489600
 20
-219.974285
 30
0.0
 10
585.669600
 20
-220.399085
 30
0.0
 10
585.864000
 20
-220.816685
 30
0.0
 10
586.051200
 20
-221.241485
 30
0.0
 10
586.245600
 20
-221.666285
 30
0.0
 10
586.447200
 20
-222.091085
 30
0.0
 10
586.648800
 20
-222.515885
 30
0.0
 10
586.857600
 20
-222.940685
 30
0.0
 10
587.073600
 20
-223.358285
 30
0.0
 10
587.296800
 20
-223.761485
 30
0.0
 10
587.527200
 20
-224.164685
 30
0.0
 10
587.764800
 20
-224.560685
 30
0.0
 10
588.016800
 20
-224.949485
 30
0.0
 10
588.276000
 20
-225.316685
 30
0.0
 10
588.542400
 20
-225.676685
 30
0.0
 10
588.830400
 20
-226.022285
 30
0.0
 10
589.125600
 20
-226.353485
 30
0.0
 10
589.428000
 20
-226.663085
 30
0.0
 10
589.752000
 20
-226.958285
 30
0.0
 10
590.090400
 20
-227.231885
 30
0.0
 10
590.443200
 20
-227.483885
 30
0.0
 10
590.810400
 20
-227.714285
 30
0.0
 10
591.199200
 20
-227.923085
 30
0.0
 10
591.602400
 20
-228.103085
 30
0.0
 10
592.020000
 20
-228.261485
 30
0.0
 10
592.466400
 20
-228.383885
 30
0.0
 10
592.927200
 20
-228.477485
 30
0.0
 10
593.409600
 20
-228.542285
 30
0.0
 10
593.913600
 20
-228.578285
 30
0.0
  0
LWPOLYLINE
  5
28a
100
AcDbEntity
  8
0
 62
7
100
AcDbPolyline
 90
33
 70
0
 10
570.477600
 20
-26.445485
 30
0.0
 10
570.074400
 20
-25.617485
 30
0.0
 10
569.671200
 20
-24.782285
 30
0.0
 10
569.275200
 20
-23.954285
 30
0.0
 10
568.879200
 20
-23.119085
 30
0.0
 10
568.490400
 20
-22.283885
 30
0.0
 10
568.101600
 20
-21.448685
 30
0.0
 10
567.712800
 20
-20.606285
 30
0.0
 10
567.331200
 20
-19.763885
 30
0.0
 10
566.942400
 20
-18.928685
 30
0.0
 10
566.560800
 20
-18.086285
 30
0.0
 10
566.179200
 20
-17.243885
 30
0.0
 10
565.790400
 20
-16.408685
 30
0.0
 10
565.408800
 20
-15.566285
 30
0.0
 10
565.020000
 20
-14.723885
 30
0.0
 10
564.631200
 20
-13.888685
 30
0.0
 10
564.242400
 20
-13.046285
 30
0.0
 10
563.853600
 20
-12.211085
 30
0.0
 10
563.457600
 20
-11.375885
 30
0.0
 10
563.061600
 20
-10.540685
 30
0.0
 10
562.658400
 20
-9.712685
 30
0.0
 10
562.255200
 20
-8.884685
 30
0.0
 10
561.844800
 20
-8.056685
 30
0.0
 10
561.427200
 20
-7.228685
 30
0.0
 10
561.009600
 20
-6.407885
 30
0.0
 10
560.577600
 20
-5.594285
 30
0.0
 10
560.145600
 20
-4.780685
 30
0.0
 10
559.706400
 20
-3.967085
 30
0.0
 10
559.260000
 20
-3.160685
 30
0.0
 10
558.806400
 20
-2.361485
 30
0.0
 10
558.345600
 20
-1.562285
 30
0.0
 10
557.870400
 20
-0.770285
 30
0.0
 10
557.395200
 20
0.014515
 30
0.0
  0
LWPOLYLINE
  5
28b
100
AcDbEntity
  8
0
 62
7
100
AcDbPolyline
 90
33
 70
0
 10
622.353600
 20
-10.670285
 30
0.0
 10
622.144800
 20
-10.288685
 30
0.0
 10
621.921600
 20
-9.921485
 30
0.0
 10
621.676800
 20
-9.575885
 30
0.0
 10
621.410400
 20
-9.244685
 30
0.0
 10
621.136800
 20
-8.935085
 30
0.0
 10
620.841600
 20
-8.639885
 30
0.0
 10
620.532000
 20
-8.366285
 30
0.0
 10
620.208000
 20
-8.114285
 30
0.0
 10
619.876800
 20
-7.876685
 30
0.0
 10
619.524000
 20
-7.660685
 30
0.0
 10
619.171200
 20
-7.459085
 30
0.0
 10
618.804000
 20
-7.279085
 30
0.0
 10
618.422400
 20
-7.120685
 30
0.0
 10
618.040800
 20
-6.976685
 30
0.0
 10
617.652000
 20
-6.854285
 30
0.0
 10
617.248800
 20
-6.753485
 30
0.0
 10
616.845600
 20
-6.667085
 30
0.0
 10
616.442400
 20
-6.602285
 30
0.0
 10
616.032000
 20
-6.559085
 30
0.0
 10
615.621600
 20
-6.530285
 30
0.0
 10
615.204000
 20
-6.530285
 30
0.0
 10
614.793600
 20
-6.544685
 30
0.0
 10
614.376000
 20
-6.573485
 30
0.0
 10
613.965600
 20
-6.631085
 30
0.0
 10
613.555200
 20
-6.703085
 30
0.0
 10
613.144800
 20
-6.803885
 30
0.0
 10
612.748800
 20
-6.919085
 30
0.0
 10
612.352800
 20
-7.048685
 30
0.0
 10
611.956800
 20
-7.207085
 30
0.0
 10
611.575200
 20
-7.387085
 30
0.0
 10
611.200800
 20
-7.581485
 30
0.0
 10
610.833600
 20
-7.797485
 30
0.0
  0
LWPOLYLINE
  5
28c
100
AcDbEntity
  8
0
 62
7
100
AcDbPolyline
 90
17
 70
0
 10
648.547200
 20
-193.960685
 30
0.0
 10
648.324000
 20
-193.442285
 30
0.0
 10
648.093600
 20
-192.923885
 30
0.0
 10
647.863200
 20
-192.405485
 30
0.0
 10
647.632800
 20
-191.887085
 30
0.0
 10
647.395200
 20
-191.375885
 30
0.0
 10
647.157600
 20
-190.857485
 30
0.0
 10
646.927200
 20
-190.346285
 30
0.0
 10
646.682400
 20
-189.827885
 30
0.0
 10
646.444800
 20
-189.316685
 30
0.0
 10
646.207200
 20
-188.805485
 30
0.0
 10
645.969600
 20
-188.294285
 30
0.0
 10
645.724800
 20
-187.775885
 30
0.0
 10
645.487200
 20
-187.264685
 30
0.0
 10
645.249600
 20
-186.753485
 30
0.0
 10
645.004800
 20
-186.242285
 30
0.0
 10
644.767200
 20
-185.723885
 30
0.0
  0
LWPOLYLINE
  5
28d
100
AcDbEntity
  8
0
 62
7
100
AcDbPolyline
 90
33
 70
0
 10
606.967200
 20
-223.703885
 30
0.0
 10
608.184000
 20
-223.135085
 30
0.0
 10
609.408000
 20
-222.566285
 30
0.0
 10
610.632000
 20
-222.004685
 30
0.0
 10
611.856000
 20
-221.435885
 30
0.0
 10
613.080000
 20
-220.867085
 30
0.0
 10
614.296800
 20
-220.305485
 30
0.0
 10
615.520800
 20
-219.736685
 30
0.0
 10
616.744800
 20
-219.167885
 30
0.0
 10
617.968800
 20
-218.606285
 30
0.0
 10
619.192800
 20
-218.037485
 30
0.0
 10
620.416800
 20
-217.475885
 30
0.0
 10
621.640800
 20
-216.907085
 30
0.0
 10
622.864800
 20
-216.338285
 30
0.0
 10
624.088800
 20
-215.769485
 30
0.0
 10
625.305600
 20
-215.207885
 30
0.0
 10
626.529600
 20
-214.639085
 30
0.0
 10
627.753600
 20
-214.070285
 30
0.0
 10
628.977600
 20
-213.501485
 30
0.0
 10
630.194400
 20
-212.932685
 30
0.0
 10
631.418400
 20
-212.363885
 30
0.0
 10
632.635200
 20
-211.787885
 30
0.0
 10
633.859200
 20
-211.219085
 30
0.0
 10
635.076000
 20
-210.643085
 30
0.0
 10
636.300000
 20
-210.074285
 30
0.0
 10
637.516800
 20
-209.498285
 30
0.0
 10
638.733600
 20
-208.922285
 30
0.0
 10
639.950400
 20
-208.339085
 30
0.0
 10
641.167200
 20
-207.763085
 30
0.0
 10
642.384000
 20
-207.179885
 30
0.0
 10
643.600800
 20
-206.603885
 30
0.0
 10
644.817600
 20
-206.020685
 30
0.0
 10
646.034400
 20
-205.430285
 30
0.0
  0
LWPOLYLINE
  5
28e
100
AcDbEntity
  8
0
 62
7
100
AcDbPolyline
 90
33
 70
0
 10
610.833600
 20
-7.797485
 30
0.0
 10
609.566400
 20
-8.373485
 30
0.0
 10
608.306400
 20
-8.942285
 30
0.0
 10
607.039200
 20
-9.518285
 30
0.0
 10
605.772000
 20
-10.094285
 30
0.0
 10
604.512000
 20
-10.670285
 30
0.0
 10
603.244800
 20
-11.246285
 30
0.0
 10
601.984800
 20
-11.822285
 30
0.0
 10
600.717600
 20
-12.398285
 30
0.0
 10
599.457600
 20
-12.981485
 30
0.0
 10
598.190400
 20
-13.557485
 30
0.0
 10
596.930400
 20
-14.140685
 30
0.0
 10
595.670400
 20
-14.716685
 30
0.0
 10
594.410400
 20
-15.299885
 30
0.0
 10
593.143200
 20
-15.883085
 30
0.0
 10
591.883200
 20
-16.466285
 30
0.0
 10
590.623200
 20
-17.049485
 30
0.0
 10
589.363200
 20
-17.632685
 30
0.0
 10
588.103200
 20
-18.215885
 30
0.0
 10
586.843200
 20
-18.799085
 30
0.0
 10
585.583200
 20
-19.389485
 30
0.0
 10
584.323200
 20
-19.972685
 30
0.0
 10
583.063200
 20
-20.563085
 30
0.0
 10
581.803200
 20
-21.146285
 30
0.0
 10
580.543200
 20
-21.736685
 30
0.0
 10
579.290400
 20
-22.319885
 30
0.0
 10
578.030400
 20
-22.910285
 30
0.0
 10
576.770400
 20
-23.500685
 30
0.0
 10
575.510400
 20
-24.083885
 30
0.0
 10
574.257600
 20
-24.674285
 30
0.0
 10
572.997600
 20
-25.264685
 30
0.0
 10
571.737600
 20
-25.855085
 30
0.0
 10
570.477600
 20
-26.445485
 30
0.0
  0
LWPOLYLINE
  5
28f
100
AcDbEntity
  8
0
 62
7
100
AcDbPolyline
 90
65
 70
0
 10
545.968800
 20
1.173715
 30
0.0
 10
544.737600
 20
0.612115
 30
0.0
 10
543.506400
 20
0.043315
 30
0.0
 10
542.275200
 20
-0.518285
 30
0.0
 10
541.044000
 20
-1.087085
 30
0.0
 10
539.812800
 20
-1.655885
 30
0.0
 10
538.588800
 20
-2.224685
 30
0.0
 10
537.357600
 20
-2.793485
 30
0.0
 10
536.133600
 20
-3.369485
 30
0.0
 10
534.902400
 20
-3.938285
 30
0.0
 10
533.678400
 20
-4.507085
 30
0.0
 10
532.447200
 20
-5.083085
 30
0.0
 10
531.223200
 20
-5.651885
 30
0.0
 10
529.999200
 20
-6.227885
 30
0.0
 10
528.768000
 20
-6.803885
 30
0.0
 10
527.544000
 20
-7.379885
 30
0.0
 10
526.320000
 20
-7.955885
 30
0.0
 10
525.096000
 20
-8.531885
 30
0.0
 10
523.864800
 20
-9.107885
 30
0.0
 10
522.640800
 20
-9.683885
 30
0.0
 10
521.416800
 20
-10.267085
 30
0.0
 10
520.192800
 20
-10.843085
 30
0.0
 10
518.968800
 20
-11.419085
 30
0.0
 10
517.744800
 20
-12.002285
 30
0.0
 10
516.520800
 20
-12.585485
 30
0.0
 10
515.304000
 20
-13.161485
 30
0.0
 10
514.080000
 20
-13.744685
 30
0.0
 10
512.856000
 20
-14.327885
 30
0.0
 10
511.632000
 20
-14.903885
 30
0.0
 10
510.408000
 20
-15.487085
 30
0.0
 10
509.184000
 20
-16.070285
 30
0.0
 10
507.967200
 20
-16.653485
 30
0.0
 10
506.743200
 20
-17.236685
 30
0.0
 10
506.548800
 20
-16.833485
 30
0.0
 10
506.347200
 20
-16.415885
 30
0.0
 10
506.145600
 20
-15.998285
 30
0.0
 10
505.944000
 20
-15.566285
 30
0.0
 10
505.735200
 20
-15.141485
 30
0.0
 10
505.526400
 20
-14.709485
 30
0.0
 10
505.310400
 20
-14.270285
 30
0.0
 10
505.087200
 20
-13.838285
 30
0.0
 10
504.864000
 20
-13.406285
 30
0.0
 10
504.626400
 20
-12.974285
 30
0.0
 10
504.381600
 20
-12.549485
 30
0.0
 10
504.136800
 20
-12.131885
 30
0.0
 10
503.877600
 20
-11.721485
 30
0.0
 10
503.611200
 20
-11.318285
 30
0.0
 10
503.337600
 20
-10.922285
 30
0.0
 10
503.049600
 20
-10.540685
 30
0.0
 10
502.754400
 20
-10.166285
 30
0.0
 10
502.444800
 20
-9.813485
 30
0.0
 10
502.128000
 20
-9.467885
 30
0.0
 10
501.796800
 20
-9.143885
 30
0.0
 10
501.451200
 20
-8.841485
 30
0.0
 10
501.098400
 20
-8.553485
 30
0.0
 10
500.724000
 20
-8.287085
 30
0.0
 10
500.342400
 20
-8.042285
 30
0.0
 10
499.939200
 20
-7.819085
 30
0.0
 10
499.521600
 20
-7.624685
 30
0.0
 10
499.089600
 20
-7.459085
 30
0.0
 10
498.643200
 20
-7.315085
 30
0.0
 10
498.175200
 20
-7.199885
 30
0.0
 10
497.692800
 20
-7.120685
 30
0.0
 10
497.188800
 20
-7.070285
 30
0.0
 10
496.663200
 20
-7.055885
 30
0.0
  0
LWPOLYLINE
  5
290
100
AcDbEntity
  8
0
 62
7
100
AcDbPolyline
 90
33
 70
0
 10
399.535200
 20
-74.966285
 30
0.0
 10
398.239200
 20
-75.556685
 30
0.0
 10
396.950400
 20
-76.154285
 30
0.0
 10
395.654400
 20
-76.751885
 30
0.0
 10
394.358400
 20
-77.349485
 30
0.0
 10
393.062400
 20
-77.947085
 30
0.0
 10
391.766400
 20
-78.544685
 30
0.0
 10
390.477600
 20
-79.149485
 30
0.0
 10
389.181600
 20
-79.747085
 30
0.0
 10
387.885600
 20
-80.344685
 30
0.0
 10
386.596800
 20
-80.942285
 30
0.0
 10
385.300800
 20
-81.547085
 30
0.0
 10
384.004800
 20
-82.144685
 30
0.0
 10
382.716000
 20
-82.749485
 30
0.0
 10
381.420000
 20
-83.347085
 30
0.0
 10
380.131200
 20
-83.951885
 30
0.0
 10
378.835200
 20
-84.556685
 30
0.0
 10
377.546400
 20
-85.154285
 30
0.0
 10
376.250400
 20
-85.759085
 30
0.0
 10
374.961600
 20
-86.363885
 30
0.0
 10
373.665600
 20
-86.961485
 30
0.0
 10
372.376800
 20
-87.566285
 30
0.0
 10
371.080800
 20
-88.171085
 30
0.0
 10
369.792000
 20
-88.768685
 30
0.0
 10
368.496000
 20
-89.373485
 30
0.0
 10
367.207200
 20
-89.978285
 30
0.0
 10
365.911200
 20
-90.575885
 30
0.0
 10
364.622400
 20
-91.180685
 30
0.0
 10
363.326400
 20
-91.785485
 30
0.0
 10
362.037600
 20
-92.383085
 30
0.0
 10
360.741600
 20
-92.987885
 30
0.0
 10
359.452800
 20
-93.592685
 30
0.0
 10
358.156800
 20
-94.190285
 30
0.0
  0
LWPOLYLINE
  5
291
100
AcDbEntity
  8
0
 62
7
100
AcDbPolyline
 90
15
 70
0
 10
443.174400
 20
-41.630285
 30
0.0
 10
443.296800
 20
-42.119885
 30
0.0
 10
443.440800
 20
-42.472685
 30
0.0
 10
443.620800
 20
-42.839885
 30
0.0
 10
443.829600
 20
-43.214285
 30
0.0
 10
444.045600
 20
-43.588685
 30
0.0
 10
444.261600
 20
-43.970285
 30
0.0
 10
444.463200
 20
-44.337485
 30
0.0
 10
444.636000
 20
-44.697485
 30
0.0
 10
444.772800
 20
-45.043085
 30
0.0
 10
444.859200
 20
-45.518285
 30
0.0
 10
444.787200
 20
-45.928685
 30
0.0
 10
444.499200
 20
-46.259885
 30
0.0
 10
444.168000
 20
-46.432685
 30
0.0
 10
443.707200
 20
-46.555085
 30
0.0
  0
LWPOLYLINE
  5
292
100
AcDbEntity
  8
0
 62
7
100
AcDbPolyline
 90
33
 70
0
 10
445.564800
 20
-30.175085
 30
0.0
 10
445.204800
 20
-30.398285
 30
0.0
 10
444.859200
 20
-30.643085
 30
0.0
 10
444.535200
 20
-30.902285
 30
0.0
 10
444.232800
 20
-31.183085
 30
0.0
 10
443.944800
 20
-31.471085
 30
0.0
 10
443.678400
 20
-31.773485
 30
0.0
 10
443.426400
 20
-32.090285
 30
0.0
 10
443.203200
 20
-32.414285
 30
0.0
 10
442.987200
 20
-32.759885
 30
0.0
 10
442.800000
 20
-33.105485
 30
0.0
 10
442.620000
 20
-33.465485
 30
0.0
 10
442.468800
 20
-33.832685
 30
0.0
 10
442.332000
 20
-34.199885
 30
0.0
 10
442.209600
 20
-34.581485
 30
0.0
 10
442.116000
 20
-34.970285
 30
0.0
 10
442.029600
 20
-35.359085
 30
0.0
 10
441.964800
 20
-35.755085
 30
0.0
 10
441.921600
 20
-36.158285
 30
0.0
 10
441.892800
 20
-36.561485
 30
0.0
 10
441.885600
 20
-36.964685
 30
0.0
 10
441.900000
 20
-37.367885
 30
0.0
 10
441.921600
 20
-37.771085
 30
0.0
 10
441.972000
 20
-38.174285
 30
0.0
 10
442.029600
 20
-38.577485
 30
0.0
 10
442.116000
 20
-38.973485
 30
0.0
 10
442.209600
 20
-39.369485
 30
0.0
 10
442.332000
 20
-39.758285
 30
0.0
 10
442.461600
 20
-40.147085
 30
0.0
 10
442.612800
 20
-40.528685
 30
0.0
 10
442.785600
 20
-40.903085
 30
0.0
 10
442.972800
 20
-41.270285
 30
0.0
 10
443.174400
 20
-41.630285
 30
0.0
  0
LWPOLYLINE
  5
293
100
AcDbEntity
  8
0
 62
7
100
AcDbPolyline
 90
33
 70
0
 10
483.602400
 20
-12.247085
 30
0.0
 10
482.414400
 20
-12.808685
 30
0.0
 10
481.219200
 20
-13.370285
 30
0.0
 10
480.031200
 20
-13.924685
 30
0.0
 10
478.843200
 20
-14.479085
 30
0.0
 10
477.655200
 20
-15.040685
 30
0.0
 10
476.460000
 20
-15.595085
 30
0.0
 10
475.272000
 20
-16.149485
 30
0.0
 10
474.076800
 20
-16.703885
 30
0.0
 10
472.888800
 20
-17.258285
 30
0.0
 10
471.693600
 20
-17.812685
 30
0.0
 10
470.505600
 20
-18.367085
 30
0.0
 10
469.310400
 20
-18.921485
 30
0.0
 10
468.122400
 20
-19.475885
 30
0.0
 10
466.927200
 20
-20.030285
 30
0.0
 10
465.739200
 20
-20.584685
 30
0.0
 10
464.544000
 20
-21.139085
 30
0.0
 10
463.356000
 20
-21.693485
 30
0.0
 10
462.168000
 20
-22.247885
 30
0.0
 10
460.972800
 20
-22.802285
 30
0.0
 10
459.784800
 20
-23.363885
 30
0.0
 10
458.596800
 20
-23.925485
 30
0.0
 10
457.408800
 20
-24.479885
 30
0.0
 10
456.220800
 20
-25.041485
 30
0.0
 10
455.032800
 20
-25.610285
 30
0.0
 10
453.844800
 20
-26.171885
 30
0.0
 10
452.664000
 20
-26.740685
 30
0.0
 10
451.476000
 20
-27.302285
 30
0.0
 10
450.295200
 20
-27.871085
 30
0.0
 10
449.107200
 20
-28.447085
 30
0.0
 10
447.926400
 20
-29.015885
 30
0.0
 10
446.745600
 20
-29.591885
 30
0.0
 10
445.564800
 20
-30.175085
 30
0.0
  0
LWPOLYLINE
  5
294
100
AcDbEntity
  8
0
 62
7
100
AcDbPolyline
 90
33
 70
0
 10
358.156800
 20
-94.190285
 30
0.0
 10
357.393600
 20
-94.183085
 30
0.0
 10
356.623200
 20
-94.175885
 30
0.0
 10
355.852800
 20
-94.168685
 30
0.0
 10
355.089600
 20
-94.168685
 30
0.0
 10
354.319200
 20
-94.168685
 30
0.0
 10
353.548800
 20
-94.168685
 30
0.0
 10
352.785600
 20
-94.168685
 30
0.0
 10
352.015200
 20
-94.168685
 30
0.0
 10
351.244800
 20
-94.175885
 30
0.0
 10
350.474400
 20
-94.183085
 30
0.0
 10
349.704000
 20
-94.190285
 30
0.0
 10
348.933600
 20
-94.190285
 30
0.0
 10
348.163200
 20
-94.197485
 30
0.0
 10
347.392800
 20
-94.204685
 30
0.0
 10
346.622400
 20
-94.211885
 30
0.0
 10
345.859200
 20
-94.211885
 30
0.0
 10
345.088800
 20
-94.219085
 30
0.0
 10
344.318400
 20
-94.219085
 30
0.0
 10
343.548000
 20
-94.226285
 30
0.0
 10
342.777600
 20
-94.219085
 30
0.0
 10
342.014400
 20
-94.219085
 30
0.0
 10
341.244000
 20
-94.219085
 30
0.0
 10
340.480800
 20
-94.211885
 30
0.0
 10
339.710400
 20
-94.204685
 30
0.0
 10
338.947200
 20
-94.190285
 30
0.0
 10
338.176800
 20
-94.175885
 30
0.0
 10
337.413600
 20
-94.154285
 30
0.0
 10
336.650400
 20
-94.132685
 30
0.0
 10
335.887200
 20
-94.111085
 30
0.0
 10
335.124000
 20
-94.082285
 30
0.0
 10
334.368000
 20
-94.046285
 30
0.0
 10
333.604800
 20
-94.010285
 30
0.0
  0
LWPOLYLINE
  5
295
100
AcDbEntity
  8
0
 62
7
100
AcDbPolyline
 90
17
 70
0
 10
402.436800
 20
-65.908685
 30
0.0
 10
401.925600
 20
-66.304685
 30
0.0
 10
401.457600
 20
-66.736685
 30
0.0
 10
401.018400
 20
-67.204685
 30
0.0
 10
400.622400
 20
-67.708685
 30
0.0
 10
400.269600
 20
-68.234285
 30
0.0
 10
399.960000
 20
-68.788685
 30
0.0
 10
399.686400
 20
-69.364685
 30
0.0
 10
399.470400
 20
-69.962285
 30
0.0
 10
399.297600
 20
-70.567085
 30
0.0
 10
399.168000
 20
-71.186285
 30
0.0
 10
399.096000
 20
-71.819885
 30
0.0
 10
399.074400
 20
-72.453485
 30
0.0
 10
399.103200
 20
-73.087085
 30
0.0
 10
399.189600
 20
-73.720685
 30
0.0
 10
399.333600
 20
-74.347085
 30
0.0
 10
399.535200
 20
-74.966285
 30
0.0
  0
LWPOLYLINE
  5
296
100
AcDbEntity
  8
0
 62
7
100
AcDbPolyline
 90
33
 70
0
 10
443.707200
 20
-46.555085
 30
0.0
 10
442.418400
 20
-47.152685
 30
0.0
 10
441.122400
 20
-47.750285
 30
0.0
 10
439.833600
 20
-48.347885
 30
0.0
 10
438.537600
 20
-48.945485
 30
0.0
 10
437.248800
 20
-49.543085
 30
0.0
 10
435.952800
 20
-50.140685
 30
0.0
 10
434.656800
 20
-50.738285
 30
0.0
 10
433.360800
 20
-51.328685
 30
0.0
 10
432.064800
 20
-51.926285
 30
0.0
 10
430.776000
 20
-52.516685
 30
0.0
 10
429.480000
 20
-53.114285
 30
0.0
 10
428.184000
 20
-53.711885
 30
0.0
 10
426.888000
 20
-54.302285
 30
0.0
 10
425.592000
 20
-54.899885
 30
0.0
 10
424.303200
 20
-55.497485
 30
0.0
 10
423.007200
 20
-56.095085
 30
0.0
 10
421.711200
 20
-56.692685
 30
0.0
 10
420.422400
 20
-57.290285
 30
0.0
 10
419.133600
 20
-57.895085
 30
0.0
 10
417.837600
 20
-58.499885
 30
0.0
 10
416.548800
 20
-59.104685
 30
0.0
 10
415.260000
 20
-59.709485
 30
0.0
 10
413.971200
 20
-60.314285
 30
0.0
 10
412.682400
 20
-60.926285
 30
0.0
 10
411.400800
 20
-61.538285
 30
0.0
 10
410.112000
 20
-62.157485
 30
0.0
 10
408.830400
 20
-62.776685
 30
0.0
 10
407.548800
 20
-63.395885
 30
0.0
 10
406.267200
 20
-64.015085
 30
0.0
 10
404.992800
 20
-64.641485
 30
0.0
 10
403.711200
 20
-65.275085
 30
0.0
 10
402.436800
 20
-65.908685
 30
0.0
  0
LWPOLYLINE
  5
297
100
AcDbEntity
  8
0
 62
7
100
AcDbPolyline
 90
33
 70
0
 10
557.395200
 20
0.014515
 30
0.0
 10
557.128800
 20
0.338515
 30
0.0
 10
556.848000
 20
0.633715
 30
0.0
 10
556.560000
 20
0.914515
 30
0.0
 10
556.257600
 20
1.173715
 30
0.0
 10
555.940800
 20
1.411315
 30
0.0
 10
555.616800
 20
1.627315
 30
0.0
 10
555.285600
 20
1.821715
 30
0.0
 10
554.940000
 20
1.994515
 30
0.0
 10
554.587200
 20
2.152915
 30
0.0
 10
554.234400
 20
2.289715
 30
0.0
 10
553.867200
 20
2.412115
 30
0.0
 10
553.500000
 20
2.512915
 30
0.0
 10
553.125600
 20
2.599315
 30
0.0
 10
552.744000
 20
2.664115
 30
0.0
 10
552.362400
 20
2.707315
 30
0.0
 10
551.973600
 20
2.743315
 30
0.0
 10
551.584800
 20
2.757715
 30
0.0
 10
551.196000
 20
2.750515
 30
0.0
 10
550.800000
 20
2.736115
 30
0.0
 10
550.411200
 20
2.700115
 30
0.0
 10
550.022400
 20
2.649715
 30
0.0
 10
549.633600
 20
2.584915
 30
0.0
 10
549.244800
 20
2.505715
 30
0.0
 10
548.856000
 20
2.412115
 30
0.0
 10
548.474400
 20
2.304115
 30
0.0
 10
548.100000
 20
2.181715
 30
0.0
 10
547.725600
 20
2.044915
 30
0.0
 10
547.358400
 20
1.893715
 30
0.0
 10
546.998400
 20
1.735315
 30
0.0
 10
546.645600
 20
1.562515
 30
0.0
 10
546.300000
 20
1.375315
 30
0.0
 10
545.968800
 20
1.173715
 30
0.0
  0
LWPOLYLINE
  5
298
100
AcDbEntity
  8
0
 62
7
100
AcDbPolyline
 90
33
 70
0
 10
496.663200
 20
-7.055885
 30
0.0
 10
496.224000
 20
-7.091885
 30
0.0
 10
495.784800
 20
-7.149485
 30
0.0
 10
495.352800
 20
-7.221485
 30
0.0
 10
494.928000
 20
-7.307885
 30
0.0
 10
494.503200
 20
-7.408685
 30
0.0
 10
494.078400
 20
-7.523885
 30
0.0
 10
493.660800
 20
-7.646285
 30
0.0
 10
493.243200
 20
-7.783085
 30
0.0
 10
492.832800
 20
-7.927085
 30
0.0
 10
492.422400
 20
-8.085485
 30
0.0
 10
492.012000
 20
-8.243885
 30
0.0
 10
491.601600
 20
-8.416685
 30
0.0
 10
491.198400
 20
-8.596685
 30
0.0
 10
490.795200
 20
-8.776685
 30
0.0
 10
490.399200
 20
-8.971085
 30
0.0
 10
489.996000
 20
-9.165485
 30
0.0
 10
489.600000
 20
-9.359885
 30
0.0
 10
489.204000
 20
-9.561485
 30
0.0
 10
488.800800
 20
-9.770285
 30
0.0
 10
488.404800
 20
-9.971885
 30
0.0
 10
488.008800
 20
-10.180685
 30
0.0
 10
487.612800
 20
-10.382285
 30
0.0
 10
487.216800
 20
-10.591085
 30
0.0
 10
486.820800
 20
-10.792685
 30
0.0
 10
486.424800
 20
-10.987085
 30
0.0
 10
486.021600
 20
-11.188685
 30
0.0
 10
485.625600
 20
-11.375885
 30
0.0
 10
485.222400
 20
-11.563085
 30
0.0
 10
484.819200
 20
-11.750285
 30
0.0
 10
484.416000
 20
-11.923085
 30
0.0
 10
484.005600
 20
-12.088685
 30
0.0
 10
483.602400
 20
-12.247085
 30
0.0
  0
ENDSEC
  0
SECTION
  2
OBJECTS
  0
DICTIONARY
  5
C
330
0
100
AcDbDictionary
  3
ACAD_GROUP
350
D
  3
ACAD_MLINESTYLE
350
17
  0
DICTIONARY
  5
D
330
C
100
AcDbDictionary
  0
DICTIONARY
  5
1A
330
C
100
AcDbDictionary
  0
DICTIONARY
  5
17
330
C
100
AcDbDictionary
  3
STANDARD
350
18
  0
DICTIONARY
  5
19
330
C
100
AcDbDictionary
  0
ENDSEC
  0
EOF
