%TF.GenerationSoftware,KiCad,Pcbnew,(5.1.10)-1*%
%TF.CreationDate,2021-09-08T22:09:27-07:00*%
%TF.ProjectId,barobord,6261726f-626f-4726-942e-6b696361645f,rev?*%
%TF.SameCoordinates,Original*%
%TF.FileFunction,Legend,Top*%
%TF.FilePolarity,Positive*%
%FSLAX46Y46*%
G04 Gerber Fmt 4.6, Leading zero omitted, Abs format (unit mm)*
G04 Created by KiCad (PCBNEW (5.1.10)-1) date 2021-09-08 22:09:27*
%MOMM*%
%LPD*%
G01*
G04 APERTURE LIST*
%ADD10C,0.080000*%
%ADD11C,0.120000*%
%ADD12C,0.150000*%
G04 APERTURE END LIST*
D10*
X167597456Y-104021104D02*
X167766129Y-103929904D01*
X167450832Y-119437127D02*
X167329840Y-119290504D01*
X176583763Y-113670994D02*
X176505663Y-114093094D01*
X169145273Y-117742824D02*
X169145273Y-105836604D01*
X167180874Y-104643904D02*
X167238614Y-104457404D01*
X186567893Y-119558119D02*
X186399293Y-119649345D01*
X187004693Y-118785040D02*
X186984493Y-118935384D01*
X185020293Y-105836604D02*
X185020293Y-117742824D01*
X168102919Y-103852204D02*
X168153081Y-103852204D01*
X186012493Y-103852204D02*
X186062493Y-103852204D01*
X167160893Y-118785040D02*
X167160893Y-118735016D01*
X168153081Y-103852204D02*
X186012493Y-103852204D01*
X167180874Y-118935384D02*
X167160893Y-118785040D01*
X167238614Y-104457404D02*
X167329840Y-104288805D01*
X167597456Y-119558119D02*
X167450832Y-119437127D01*
X186212793Y-119707085D02*
X186062493Y-119727204D01*
X176505663Y-114093094D02*
X176490063Y-114145874D01*
X168153081Y-119727204D02*
X168102919Y-119727204D01*
X167952576Y-103872204D02*
X168102919Y-103852204D01*
X167160893Y-104794204D02*
X167180874Y-104643904D01*
X167160893Y-118735016D02*
X167160893Y-104844404D01*
X186926793Y-119121830D02*
X186835593Y-119290504D01*
X186399293Y-103929904D02*
X186567893Y-104021104D01*
X167766129Y-119649345D02*
X167597456Y-119558119D01*
X186984493Y-118935384D02*
X186926793Y-119121830D01*
X186984493Y-104643904D02*
X187004693Y-104794204D01*
X186062493Y-119727204D02*
X186012493Y-119727204D01*
X167329840Y-119290504D02*
X167238614Y-119121830D01*
X186835593Y-104288805D02*
X186926793Y-104457404D01*
X186062493Y-103852204D02*
X186212793Y-103872204D01*
X186212793Y-103872204D02*
X186399293Y-103929904D01*
X167160893Y-104844404D02*
X167160893Y-104794204D01*
X168102919Y-119727204D02*
X167952576Y-119707085D01*
X186835593Y-119290504D02*
X186714593Y-119437127D01*
X186012493Y-119727204D02*
X168153081Y-119727204D01*
X185020293Y-117742824D02*
X169145273Y-117742824D01*
X187004693Y-104794204D02*
X187004693Y-104844404D01*
X187004693Y-118735016D02*
X187004693Y-118785040D01*
X186714593Y-104142104D02*
X186835593Y-104288805D01*
X186926793Y-104457404D02*
X186984493Y-104643904D01*
X167952576Y-119707085D02*
X167766129Y-119649345D01*
X186714593Y-119437127D02*
X186567893Y-119558119D01*
X187004693Y-104844404D02*
X187004693Y-118735016D01*
X167329840Y-104288805D02*
X167450832Y-104142104D01*
X167766129Y-103929904D02*
X167952576Y-103872204D01*
X186567893Y-104021104D02*
X186714593Y-104142104D01*
X176474363Y-114198504D02*
X176249613Y-114687034D01*
X169145273Y-105836604D02*
X185020293Y-105836604D01*
X167238614Y-119121830D02*
X167180874Y-118935384D01*
X186399293Y-119649345D02*
X186212793Y-119707085D01*
X176490063Y-114145874D02*
X176474363Y-114198504D01*
X167450832Y-104142104D02*
X167597456Y-104021104D01*
X176583763Y-113512814D02*
X176583763Y-113670994D01*
X174728682Y-112429924D02*
X174609193Y-112368084D01*
X174872262Y-112533994D02*
X174728682Y-112429924D01*
X174998343Y-112664484D02*
X174872262Y-112533994D01*
X175082693Y-112780234D02*
X174998343Y-112664484D01*
X175125803Y-110170524D02*
X175153783Y-109969444D01*
X175106793Y-112821294D02*
X175082693Y-112780234D01*
X174903133Y-110627724D02*
X175042303Y-110412354D01*
X175317783Y-113443064D02*
X175265013Y-113164024D01*
X174708253Y-110816814D02*
X174761172Y-110774904D01*
X174761172Y-110774904D02*
X174903133Y-110627724D01*
X175141923Y-112875874D02*
X175106793Y-112821294D01*
X175317783Y-113536234D02*
X175317783Y-113443064D01*
X175042303Y-110412354D02*
X175125803Y-110170524D01*
X174680843Y-110838294D02*
X174708253Y-110816814D01*
X175153783Y-109969444D02*
X175153783Y-109902484D01*
X174547033Y-110925114D02*
X174680843Y-110838294D01*
X174546083Y-112344515D02*
X174447413Y-112317075D01*
X174567573Y-112352354D02*
X174546083Y-112344515D01*
X174609193Y-112368084D02*
X174567573Y-112352354D01*
X175265013Y-113164024D02*
X175141923Y-112875874D01*
X172481103Y-111027774D02*
X173969782Y-111027774D01*
X175153783Y-109815244D02*
X175100193Y-109553704D01*
X174739543Y-115677424D02*
X174346803Y-115716544D01*
X175842403Y-111953675D02*
X176189113Y-112307304D01*
X175422523Y-111540144D02*
X175294363Y-111613884D01*
X176396223Y-109741934D02*
X176396223Y-109843784D01*
X175282653Y-115542664D02*
X175080473Y-115605064D01*
X175083363Y-108015304D02*
X175149793Y-108040604D01*
X174216023Y-107862804D02*
X174328773Y-107862804D01*
X171238513Y-107862804D02*
X174216023Y-107862804D01*
X175860853Y-115177324D02*
X175821873Y-115212464D01*
X176120743Y-110854844D02*
X175776393Y-111265754D01*
X176327333Y-110380784D02*
X176120743Y-110854844D01*
X175364633Y-115509424D02*
X175317783Y-115529004D01*
X174391742Y-110992634D02*
X174417113Y-110984804D01*
X176396223Y-109978014D02*
X176327333Y-110380784D01*
X175776393Y-111265754D02*
X175422523Y-111540144D01*
X176249613Y-114687034D02*
X176220403Y-114731944D01*
X172481103Y-109105404D02*
X172481103Y-111027774D01*
X174366243Y-110998424D02*
X174391742Y-110992634D01*
X174209953Y-111018954D02*
X174366243Y-110998424D01*
X174346803Y-115716544D02*
X174216023Y-115716544D01*
X176243823Y-112387484D02*
X176300453Y-112467564D01*
X174029723Y-111027774D02*
X174209953Y-111018954D01*
X174298043Y-109105404D02*
X172481103Y-109105404D01*
X175775023Y-108437204D02*
X175823813Y-108480204D01*
X176192953Y-114776884D02*
X176038613Y-114986894D01*
X174843053Y-115659924D02*
X174790423Y-115669694D01*
X175100193Y-109553704D02*
X174939783Y-109304704D01*
X175294363Y-111613884D02*
X175397833Y-111662634D01*
X176035723Y-108721304D02*
X176204673Y-108997804D01*
X175821873Y-115212464D02*
X175784653Y-115245694D01*
X175584413Y-115391214D02*
X175364633Y-115509424D01*
X173969782Y-111027774D02*
X174029723Y-111027774D01*
X174672302Y-109155204D02*
X174391603Y-109105404D01*
X175153783Y-109902484D02*
X175153783Y-109815244D01*
X176204673Y-108997804D02*
X176232113Y-109058404D01*
X176583763Y-113361754D02*
X176583763Y-113512814D01*
X176498743Y-112909064D02*
X176583763Y-113361754D01*
X176300453Y-112467564D02*
X176498743Y-112909064D01*
X176259383Y-109118904D02*
X176355163Y-109436404D01*
X176355163Y-109436404D02*
X176396223Y-109741934D01*
X175726093Y-108392304D02*
X175775023Y-108437204D01*
X174790423Y-115669694D02*
X174739543Y-115677424D01*
X175823813Y-108480204D02*
X176035723Y-108721304D01*
X171238513Y-115716544D02*
X171238513Y-107862804D01*
X175080473Y-115605064D02*
X174843053Y-115659924D01*
X176038613Y-114986894D02*
X175860853Y-115177324D01*
X174391603Y-109105404D02*
X174298043Y-109105404D01*
X174328773Y-107862804D02*
X174667193Y-107900904D01*
X176189113Y-112307304D02*
X176243823Y-112387484D01*
X175317783Y-115529004D02*
X175282653Y-115542664D01*
X175397833Y-111662634D02*
X175842403Y-111953675D01*
X175455443Y-108196904D02*
X175726093Y-108392304D01*
X175784653Y-115245694D02*
X175584413Y-115391214D01*
X176220403Y-114731944D02*
X176192953Y-114776884D01*
X174667193Y-107900904D02*
X175016933Y-107989804D01*
X174216023Y-115716544D02*
X171238513Y-115716544D01*
X175016933Y-107989804D02*
X175083363Y-108015304D01*
X176396223Y-109843784D02*
X176396223Y-109978014D01*
X175149793Y-108040604D02*
X175455443Y-108196904D01*
X176232113Y-109058404D02*
X176259383Y-109118904D01*
X174417113Y-110984804D02*
X174547033Y-110925114D01*
X174939783Y-109304704D02*
X174672302Y-109155204D01*
X179544893Y-109304604D02*
X179384493Y-109553704D01*
X179812293Y-109155004D02*
X179544893Y-109304604D01*
X182003593Y-109105304D02*
X180186693Y-109105304D01*
X179937493Y-110925114D02*
X180067493Y-110984804D01*
X180092993Y-109105304D02*
X179812293Y-109155004D01*
X180118293Y-110998424D02*
X180274593Y-111018954D01*
X180186693Y-109105304D02*
X180092993Y-109105304D01*
X182003593Y-111027774D02*
X182003593Y-109105304D01*
X180514893Y-111027774D02*
X182003593Y-111027774D01*
X180454793Y-111027774D02*
X180514893Y-111027774D01*
X180274593Y-111018954D02*
X180454793Y-111027774D01*
X180067493Y-110984804D02*
X180092993Y-110992634D01*
X180092993Y-110992634D02*
X180118293Y-110998424D01*
X179803693Y-110838294D02*
X179937493Y-110925114D01*
X179486193Y-112664344D02*
X179401893Y-112780094D01*
X179875393Y-112368084D02*
X179755893Y-112429924D01*
X175317783Y-113636144D02*
X175317783Y-113536234D01*
X174461593Y-114450564D02*
X174777043Y-114393384D01*
X172481103Y-112293784D02*
X172481103Y-114450564D01*
X179938593Y-112344515D02*
X179917093Y-112352354D01*
X179330993Y-109969444D02*
X179358793Y-110170524D01*
X179330993Y-109902484D02*
X179330993Y-109969444D01*
X179219593Y-113164024D02*
X179166893Y-113443064D01*
X179917093Y-112352354D02*
X179875393Y-112368084D01*
X180259993Y-112296684D02*
X180155393Y-112303414D01*
X180139792Y-112305504D02*
X180114192Y-112305504D01*
X180155393Y-112303414D02*
X180139792Y-112305504D01*
X182003593Y-112293784D02*
X180432893Y-112293784D01*
X179407093Y-114221934D02*
X179707493Y-114393384D01*
X175077442Y-114221934D02*
X175257703Y-113936284D01*
X174777043Y-114393384D02*
X175077442Y-114221934D01*
X179226893Y-113936284D02*
X179407093Y-114221934D01*
X174370503Y-112305504D02*
X174344893Y-112305504D01*
X179401893Y-112780094D02*
X179377893Y-112821154D01*
X172481103Y-114450564D02*
X174356603Y-114450564D01*
X174224702Y-112296684D02*
X174095053Y-112293784D01*
X179612293Y-112533994D02*
X179486193Y-112664344D01*
X179755893Y-112429924D02*
X179612293Y-112533994D01*
X180128093Y-114450564D02*
X182003593Y-114450564D01*
X179342593Y-112875874D02*
X179219593Y-113164024D01*
X174356603Y-114450564D02*
X174461593Y-114450564D01*
X180432893Y-112293784D02*
X180389593Y-112293784D01*
X179166893Y-113636144D02*
X179226893Y-113936284D01*
X179377893Y-112821154D02*
X179342593Y-112875874D01*
X180389593Y-112293784D02*
X180259993Y-112296684D01*
X180037293Y-112317075D02*
X179938593Y-112344515D01*
X174095053Y-112293784D02*
X174051913Y-112293784D01*
X175257703Y-113936284D02*
X175317783Y-113636144D01*
X174447413Y-112317075D02*
X174370503Y-112305504D01*
X180114192Y-112305504D02*
X180037293Y-112317075D01*
X174329163Y-112303414D02*
X174224702Y-112296684D01*
X179166893Y-113536234D02*
X179166893Y-113636144D01*
X179776393Y-110816814D02*
X179803693Y-110838294D01*
X179723393Y-110774904D02*
X179776393Y-110816814D01*
X179581393Y-110627724D02*
X179723393Y-110774904D01*
X174344893Y-112305504D02*
X174329163Y-112303414D01*
X179442293Y-110412354D02*
X179581393Y-110627724D01*
X179707493Y-114393384D02*
X180022993Y-114450564D01*
X179358793Y-110170524D02*
X179442293Y-110412354D01*
X174051913Y-112293784D02*
X172481103Y-112293784D01*
X182003593Y-114450564D02*
X182003593Y-112293784D01*
X180022993Y-114450564D02*
X180128093Y-114450564D01*
X179166893Y-113443064D02*
X179166893Y-113536234D01*
X179401293Y-108015304D02*
X179467693Y-107989804D01*
X178623693Y-115177324D02*
X178445893Y-114986894D01*
X178642293Y-111953675D02*
X179086693Y-111662634D01*
X178264293Y-114731944D02*
X178234893Y-114686894D01*
X177900893Y-113657764D02*
X177900893Y-113512814D01*
X179029093Y-108196904D02*
X179334893Y-108040604D01*
X177978893Y-114093094D02*
X177900893Y-113657764D01*
X178699893Y-115245694D02*
X178662793Y-115212464D01*
X178662793Y-115212464D02*
X178623693Y-115177324D01*
X179166893Y-115529004D02*
X179119893Y-115509424D01*
X179202093Y-115542664D02*
X179166893Y-115529004D01*
X179404193Y-115605064D02*
X179202093Y-115542664D01*
X179745193Y-115677424D02*
X179694393Y-115669694D01*
X179334893Y-108040604D02*
X179401293Y-108015304D01*
X178088493Y-109843924D02*
X178088493Y-109741934D01*
X178088493Y-109978124D02*
X178088493Y-109843924D01*
X178363793Y-110854844D02*
X178157193Y-110380784D01*
X178184093Y-112467564D02*
X178240893Y-112387484D01*
X179384493Y-109553704D02*
X179330993Y-109815244D01*
X180268793Y-107862804D02*
X183246193Y-107862804D01*
X180155892Y-107862804D02*
X180268793Y-107862804D01*
X178709693Y-108437204D02*
X178758493Y-108392304D01*
X178129393Y-109436404D02*
X178225193Y-109118904D01*
X177985793Y-112909064D02*
X178184093Y-112467564D01*
X178234893Y-114686894D02*
X178010193Y-114198504D01*
X178448793Y-108721304D02*
X178660793Y-108480104D01*
X178291593Y-114776884D02*
X178264293Y-114731944D01*
X177900893Y-113512814D02*
X177900893Y-113361754D01*
X178445893Y-114986894D02*
X178291593Y-114776884D01*
X180268793Y-115716544D02*
X180125193Y-115716544D01*
X178088493Y-109741934D02*
X178129393Y-109436404D01*
X179330993Y-109815244D02*
X179330993Y-109902484D01*
X178708193Y-111265754D02*
X178363793Y-110854844D01*
X179694393Y-115669694D02*
X179641593Y-115659924D01*
X179817493Y-107900904D02*
X180155892Y-107862804D01*
X178758493Y-108392304D02*
X179029093Y-108196904D01*
X179641593Y-115659924D02*
X179404193Y-115605064D01*
X177994593Y-114145874D02*
X177978893Y-114093094D01*
X178900093Y-115391214D02*
X178699893Y-115245694D01*
X178010193Y-114198504D02*
X177994593Y-114145874D01*
X179119893Y-115509424D02*
X178900093Y-115391214D01*
X178225193Y-109118904D02*
X178252593Y-109058404D01*
X179086693Y-111662634D02*
X179190293Y-111613884D01*
X179467693Y-107989804D02*
X179817493Y-107900904D01*
X183246193Y-107862804D02*
X183246193Y-115716544D01*
X179061993Y-111540144D02*
X178708193Y-111265754D01*
X177900893Y-113361754D02*
X177985793Y-112909064D01*
X178660793Y-108480104D02*
X178709693Y-108437204D01*
X178279893Y-108997804D02*
X178448793Y-108721304D01*
X178295593Y-112307304D02*
X178642293Y-111953675D01*
X179190293Y-111613884D02*
X179061993Y-111540144D01*
X178240893Y-112387484D02*
X178295593Y-112307304D01*
X180125193Y-115716544D02*
X179745193Y-115677424D01*
X183246193Y-115716544D02*
X180268793Y-115716544D01*
X178157193Y-110380784D02*
X178088493Y-109978124D01*
X178252593Y-109058404D02*
X178279893Y-108997804D01*
X112620533Y-110672254D02*
X112704033Y-110430424D01*
X111788183Y-111278854D02*
X111944473Y-111258324D01*
X112732013Y-110162384D02*
X112732013Y-110075144D01*
X112481363Y-110887624D02*
X112620533Y-110672254D01*
X112339402Y-111034804D02*
X112481363Y-110887624D01*
X113905563Y-110640684D02*
X113698973Y-111114744D01*
X112286483Y-111076714D02*
X112339402Y-111034804D01*
X112125263Y-111185014D02*
X112259073Y-111098194D01*
X112595163Y-108249704D02*
X112661593Y-108275204D01*
X111995343Y-111244704D02*
X112125263Y-111185014D01*
X113698973Y-111114744D02*
X113354623Y-111525654D01*
X111944473Y-111258324D02*
X111969972Y-111252534D01*
X112245423Y-108160804D02*
X112595163Y-108249704D01*
X110059333Y-109365304D02*
X110059333Y-111287674D01*
X113420633Y-112213575D02*
X113767343Y-112567204D01*
X112250532Y-109415104D02*
X111969833Y-109365304D01*
X113822053Y-112647384D02*
X113878683Y-112727464D01*
X113613953Y-108981204D02*
X113782903Y-109257704D01*
X113402043Y-108740104D02*
X113613953Y-108981204D01*
X113767343Y-112567204D02*
X113822053Y-112647384D01*
X111548012Y-111287674D02*
X111607953Y-111287674D01*
X113354623Y-111525654D02*
X113000753Y-111800044D01*
X113837613Y-109378804D02*
X113933393Y-109696304D01*
X108816743Y-108122704D02*
X111794253Y-108122704D01*
X112518013Y-109564604D02*
X112250532Y-109415104D01*
X112661593Y-108275204D02*
X112728023Y-108300504D01*
X114076973Y-113168964D02*
X114161993Y-113621654D01*
X112976063Y-111922534D02*
X113420633Y-112213575D01*
X111876273Y-109365304D02*
X110059333Y-109365304D01*
X113000753Y-111800044D02*
X112872593Y-111873784D01*
X112872593Y-111873784D02*
X112976063Y-111922534D01*
X113810343Y-109318304D02*
X113837613Y-109378804D01*
X112678423Y-109813604D02*
X112518013Y-109564604D01*
X111794253Y-108122704D02*
X111907003Y-108122704D01*
X114161993Y-113621654D02*
X114161993Y-113772714D01*
X113974453Y-110103684D02*
X113974453Y-110237914D01*
X113933393Y-109696304D02*
X113974453Y-110001834D01*
X113304323Y-108652204D02*
X113353253Y-108697104D01*
X111969833Y-109365304D02*
X111876273Y-109365304D01*
X113878683Y-112727464D02*
X114076973Y-113168964D01*
X113353253Y-108697104D02*
X113402043Y-108740104D01*
X113782903Y-109257704D02*
X113810343Y-109318304D01*
X112843243Y-113423924D02*
X112720153Y-113135774D01*
X113033673Y-108456804D02*
X113304323Y-108652204D01*
X111969972Y-111252534D02*
X111995343Y-111244704D01*
X112896013Y-113702964D02*
X112843243Y-113423924D01*
X112896013Y-113796134D02*
X112896013Y-113702964D01*
X112732013Y-110229344D02*
X112732013Y-110162384D01*
X110059333Y-111287674D02*
X111548012Y-111287674D01*
X113974453Y-110237914D02*
X113905563Y-110640684D01*
X113974453Y-110001834D02*
X113974453Y-110103684D01*
X111907003Y-108122704D02*
X112245423Y-108160804D01*
X112704033Y-110430424D02*
X112732013Y-110229344D01*
X111607953Y-111287674D02*
X111788183Y-111278854D01*
X112259073Y-111098194D02*
X112286483Y-111076714D01*
X112732013Y-110075144D02*
X112678423Y-109813604D01*
X112728023Y-108300504D02*
X113033673Y-108456804D01*
X116241023Y-115472364D02*
X116201923Y-115437224D01*
X119581823Y-109365204D02*
X117764923Y-109365204D01*
X117323423Y-115937324D02*
X117272623Y-115929594D01*
X115707623Y-109696304D02*
X115803423Y-109378804D01*
X117847023Y-108122704D02*
X120824423Y-108122704D01*
X117045923Y-108249704D02*
X117395723Y-108160804D01*
X116913123Y-108300504D02*
X116979523Y-108275204D01*
X115564023Y-113168964D02*
X115762323Y-112727464D01*
X115803423Y-109378804D02*
X115830823Y-109318304D01*
X115819123Y-112647384D02*
X115873823Y-112567204D01*
X116287923Y-108697104D02*
X116336723Y-108652204D01*
X115479123Y-113772714D02*
X115479123Y-113621654D01*
X115942023Y-111114744D02*
X115735423Y-110640684D01*
X116278123Y-115505594D02*
X116241023Y-115472364D01*
X116478323Y-115651114D02*
X116278123Y-115505594D01*
X116698123Y-115769324D02*
X116478323Y-115651114D01*
X120824423Y-108122704D02*
X120824423Y-115976444D01*
X120824423Y-115976444D02*
X117847023Y-115976444D01*
X116909223Y-110075144D02*
X116909223Y-110162384D01*
X115479123Y-113621654D02*
X115564023Y-113168964D01*
X117123123Y-109564504D02*
X116962723Y-109813604D01*
X115762323Y-112727464D02*
X115819123Y-112647384D01*
X115858123Y-109257704D02*
X116027023Y-108981204D01*
X116220523Y-112213575D02*
X116664923Y-111922534D01*
X116640223Y-111800044D02*
X116286423Y-111525654D01*
X117395723Y-108160804D02*
X117734122Y-108122704D01*
X115666723Y-110238024D02*
X115666723Y-110103824D01*
X116745123Y-115788904D02*
X116698123Y-115769324D01*
X116982423Y-115864964D02*
X116780323Y-115802564D01*
X117219823Y-115919824D02*
X116982423Y-115864964D01*
X115666723Y-110001834D02*
X115707623Y-109696304D01*
X117272623Y-115929594D02*
X117219823Y-115919824D01*
X116336723Y-108652204D02*
X116607323Y-108456804D01*
X116979523Y-108275204D02*
X117045923Y-108249704D01*
X116286423Y-111525654D02*
X115942023Y-111114744D01*
X116768523Y-111873784D02*
X116640223Y-111800044D01*
X118093123Y-111287674D02*
X119581823Y-111287674D01*
X117696523Y-111258324D02*
X117852823Y-111278854D01*
X116664923Y-111922534D02*
X116768523Y-111873784D01*
X117390523Y-109414904D02*
X117123123Y-109564504D01*
X115873823Y-112567204D02*
X116220523Y-112213575D01*
X117671223Y-109365204D02*
X117390523Y-109414904D01*
X119581823Y-111287674D02*
X119581823Y-109365204D01*
X116780323Y-115802564D02*
X116745123Y-115788904D01*
X116027023Y-108981204D02*
X116239023Y-108740004D01*
X116962723Y-109813604D02*
X116909223Y-110075144D01*
X115830823Y-109318304D02*
X115858123Y-109257704D01*
X115735423Y-110640684D02*
X115666723Y-110238024D01*
X117847023Y-115976444D02*
X117703423Y-115976444D01*
X116607323Y-108456804D02*
X116913123Y-108300504D01*
X116239023Y-108740004D02*
X116287923Y-108697104D01*
X118033023Y-111287674D02*
X118093123Y-111287674D01*
X117734122Y-108122704D02*
X117847023Y-108122704D01*
X115813123Y-114946794D02*
X115588423Y-114458404D01*
X115842523Y-114991844D02*
X115813123Y-114946794D01*
X115666723Y-110103824D02*
X115666723Y-110001834D01*
X117703423Y-115976444D02*
X117323423Y-115937324D01*
X115869823Y-115036784D02*
X115842523Y-114991844D01*
X116024123Y-115246794D02*
X115869823Y-115036784D01*
X117852823Y-111278854D02*
X118033023Y-111287674D01*
X116201923Y-115437224D02*
X116024123Y-115246794D01*
X117764923Y-109365204D02*
X117671223Y-109365204D01*
X116980123Y-113039994D02*
X116956123Y-113081054D01*
X116797823Y-113423924D02*
X116745123Y-113702964D01*
X117354623Y-111076714D02*
X117381923Y-111098194D01*
X116937023Y-110430424D02*
X117020523Y-110672254D01*
X116909223Y-110229344D02*
X116937023Y-110430424D01*
X112896013Y-113896044D02*
X112896013Y-113796134D01*
X112660923Y-113040134D02*
X112576573Y-112924384D01*
X119581823Y-114710464D02*
X119581823Y-112553684D01*
X116956123Y-113081054D02*
X116920823Y-113135774D01*
X117334123Y-112689824D02*
X117190523Y-112793894D01*
X117601223Y-114710464D02*
X117706323Y-114710464D01*
X111923123Y-112565404D02*
X111907393Y-112563314D01*
X110059333Y-114710464D02*
X111934833Y-114710464D01*
X117516823Y-112604415D02*
X117495323Y-112612254D01*
X111934833Y-114710464D02*
X112039823Y-114710464D01*
X117733623Y-112563314D02*
X117718022Y-112565404D01*
X118011123Y-112553684D02*
X117967823Y-112553684D01*
X112685023Y-113081194D02*
X112660923Y-113040134D01*
X110059333Y-112553684D02*
X110059333Y-114710464D01*
X119581823Y-112553684D02*
X118011123Y-112553684D01*
X111948733Y-112565404D02*
X111923123Y-112565404D01*
X117706323Y-114710464D02*
X119581823Y-114710464D01*
X116745123Y-113796134D02*
X116745123Y-113896044D01*
X111630143Y-112553684D02*
X110059333Y-112553684D01*
X117285723Y-114653284D02*
X117601223Y-114710464D01*
X112720153Y-113135774D02*
X112685023Y-113081194D01*
X117064423Y-112924244D02*
X116980123Y-113039994D01*
X111802932Y-112556584D02*
X111673283Y-112553684D01*
X117453623Y-112627984D02*
X117334123Y-112689824D01*
X117495323Y-112612254D02*
X117453623Y-112627984D01*
X117692422Y-112565404D02*
X117615523Y-112576975D01*
X117838223Y-112556584D02*
X117733623Y-112563314D01*
X112835933Y-114196184D02*
X112896013Y-113896044D01*
X111673283Y-112553684D02*
X111630143Y-112553684D01*
X112145803Y-112612254D02*
X112124313Y-112604415D01*
X112039823Y-114710464D02*
X112355273Y-114653284D01*
X111907393Y-112563314D02*
X111802932Y-112556584D01*
X117615523Y-112576975D02*
X117516823Y-112604415D01*
X117718022Y-112565404D02*
X117692422Y-112565404D01*
X112355273Y-114653284D02*
X112655672Y-114481834D01*
X112576573Y-112924384D02*
X112450492Y-112793894D01*
X117671223Y-111252534D02*
X117696523Y-111258324D01*
X116745123Y-113702964D02*
X116745123Y-113796134D01*
X112025643Y-112576975D02*
X111948733Y-112565404D01*
X117645723Y-111244704D02*
X117671223Y-111252534D01*
X117159623Y-110887624D02*
X117301623Y-111034804D01*
X112124313Y-112604415D02*
X112025643Y-112576975D01*
X112187423Y-112627984D02*
X112145803Y-112612254D01*
X117301623Y-111034804D02*
X117354623Y-111076714D01*
X117190523Y-112793894D02*
X117064423Y-112924244D01*
X116985323Y-114481834D02*
X117285723Y-114653284D01*
X116745123Y-113896044D02*
X116805123Y-114196184D01*
X112306912Y-112689824D02*
X112187423Y-112627984D01*
X117515723Y-111185014D02*
X117645723Y-111244704D01*
X117381923Y-111098194D02*
X117515723Y-111185014D01*
X117020523Y-110672254D02*
X117159623Y-110887624D01*
X116909223Y-110162384D02*
X116909223Y-110229344D01*
X116805123Y-114196184D02*
X116985323Y-114481834D01*
X112655672Y-114481834D02*
X112835933Y-114196184D01*
X112450492Y-112793894D02*
X112306912Y-112689824D01*
X116920823Y-113135774D02*
X116797823Y-113423924D01*
X117967823Y-112553684D02*
X117838223Y-112556584D01*
X115588423Y-114458404D02*
X115572823Y-114405774D01*
X115557123Y-114352994D02*
X115479123Y-113917664D01*
X115479123Y-113917664D02*
X115479123Y-113772714D01*
X115572823Y-114405774D02*
X115557123Y-114352994D01*
X123791023Y-119966985D02*
X123640723Y-119987104D01*
X123590723Y-104112104D02*
X123640723Y-104112104D01*
X124562723Y-119195284D02*
X124505023Y-119381730D01*
X124582923Y-105104304D02*
X124582923Y-118994916D01*
X123977523Y-119909245D02*
X123791023Y-119966985D01*
X124413823Y-119550404D02*
X124292823Y-119697027D01*
X124582923Y-105054104D02*
X124582923Y-105104304D01*
X124562723Y-104903804D02*
X124582923Y-105054104D01*
X124505023Y-104717304D02*
X124562723Y-104903804D01*
X124146123Y-119818019D02*
X123977523Y-119909245D01*
X124292823Y-119697027D02*
X124146123Y-119818019D01*
X124582923Y-118994916D02*
X124582923Y-119044940D01*
X123791023Y-104132104D02*
X123977523Y-104189804D01*
X123640723Y-104112104D02*
X123791023Y-104132104D01*
X124292823Y-104402004D02*
X124413823Y-104548705D01*
X123977523Y-104189804D02*
X124146123Y-104281004D01*
X124505023Y-119381730D02*
X124413823Y-119550404D01*
X124146123Y-104281004D02*
X124292823Y-104402004D01*
X124582923Y-119044940D02*
X124562723Y-119195284D01*
X124413823Y-104548705D02*
X124505023Y-104717304D01*
X105681149Y-119987104D02*
X105530806Y-119966985D01*
X105731311Y-119987104D02*
X105681149Y-119987104D01*
X105731311Y-104112104D02*
X123590723Y-104112104D01*
X123590723Y-119987104D02*
X105731311Y-119987104D01*
X123640723Y-119987104D02*
X123590723Y-119987104D01*
X114083893Y-114352994D02*
X114068293Y-114405774D01*
X113616843Y-115246794D02*
X113439083Y-115437224D01*
X105175686Y-104281004D02*
X105344359Y-104189804D01*
X114161993Y-113772714D02*
X114161993Y-113930894D01*
X104759104Y-119195284D02*
X104739123Y-119044940D01*
X105530806Y-119966985D02*
X105344359Y-119909245D01*
X104739123Y-105054104D02*
X104759104Y-104903804D01*
X112317773Y-115937324D02*
X111925033Y-115976444D01*
X112368653Y-115929594D02*
X112317773Y-115937324D01*
X114161993Y-113930894D02*
X114083893Y-114352994D01*
X112421283Y-115919824D02*
X112368653Y-115929594D01*
X112896013Y-115788904D02*
X112860883Y-115802564D01*
X113439083Y-115437224D02*
X113400103Y-115472364D01*
X114068293Y-114405774D02*
X114052593Y-114458404D01*
X122598523Y-118002724D02*
X106723503Y-118002724D01*
X104739123Y-118994916D02*
X104739123Y-105104304D01*
X105029062Y-119697027D02*
X104908070Y-119550404D01*
X105175686Y-119818019D02*
X105029062Y-119697027D01*
X112942863Y-115769324D02*
X112896013Y-115788904D01*
X113798633Y-114991844D02*
X113771183Y-115036784D01*
X106723503Y-118002724D02*
X106723503Y-106096504D01*
X105681149Y-104112104D02*
X105731311Y-104112104D01*
X104759104Y-104903804D02*
X104816844Y-104717304D01*
X105530806Y-104132104D02*
X105681149Y-104112104D01*
X104908070Y-104548705D02*
X105029062Y-104402004D01*
X104739123Y-105104304D02*
X104739123Y-105054104D01*
X104739123Y-119044940D02*
X104739123Y-118994916D01*
X104908070Y-119550404D02*
X104816844Y-119381730D01*
X113162643Y-115651114D02*
X112942863Y-115769324D01*
X105344359Y-104189804D02*
X105530806Y-104132104D01*
X104816844Y-119381730D02*
X104759104Y-119195284D01*
X122598523Y-106096504D02*
X122598523Y-118002724D01*
X105029062Y-104402004D02*
X105175686Y-104281004D01*
X106723503Y-106096504D02*
X122598523Y-106096504D01*
X108816743Y-115976444D02*
X108816743Y-108122704D01*
X111794253Y-115976444D02*
X108816743Y-115976444D01*
X113771183Y-115036784D02*
X113616843Y-115246794D01*
X111925033Y-115976444D02*
X111794253Y-115976444D01*
X112658703Y-115864964D02*
X112421283Y-115919824D01*
X113827843Y-114946934D02*
X113798633Y-114991844D01*
X112860883Y-115802564D02*
X112658703Y-115864964D01*
X113400103Y-115472364D02*
X113362883Y-115505594D01*
X105344359Y-119909245D02*
X105175686Y-119818019D01*
X113362883Y-115505594D02*
X113162643Y-115651114D01*
X104816844Y-104717304D02*
X104908070Y-104548705D01*
X114052593Y-114458404D02*
X113827843Y-114946934D01*
D11*
%TO.C,JP1*%
X133912593Y-81698404D02*
X132512593Y-81698404D01*
X131812593Y-80998404D02*
X131812593Y-80398404D01*
X132512593Y-79698404D02*
X133912593Y-79698404D01*
X134612593Y-80398404D02*
X134612593Y-80998404D01*
X134612593Y-80998404D02*
G75*
G02*
X133912593Y-81698404I-700000J0D01*
G01*
X133912593Y-79698404D02*
G75*
G02*
X134612593Y-80398404I0J-700000D01*
G01*
X131812593Y-80398404D02*
G75*
G02*
X132512593Y-79698404I700000J0D01*
G01*
X132512593Y-81698404D02*
G75*
G02*
X131812593Y-80998404I0J700000D01*
G01*
%TO.C,SW43*%
X157352593Y-118058404D02*
X158352593Y-118058404D01*
X157852593Y-117558404D02*
X157852593Y-118558404D01*
X163952593Y-121558404D02*
X163952593Y-123958404D01*
X163952593Y-116758404D02*
X163952593Y-119358404D01*
X163952593Y-112158404D02*
X163952593Y-114558404D01*
X150652593Y-113958404D02*
X150352593Y-114258404D01*
X150052593Y-113958404D02*
X150652593Y-113958404D01*
X150352593Y-114258404D02*
X150052593Y-113958404D01*
X151752593Y-112158404D02*
X151752593Y-123958404D01*
X155852593Y-112158404D02*
X151752593Y-112158404D01*
X155852593Y-123958404D02*
X151752593Y-123958404D01*
X163952593Y-123958404D02*
X159852593Y-123958404D01*
X159852593Y-112158404D02*
X163952593Y-112158404D01*
X160852593Y-118058404D02*
G75*
G03*
X160852593Y-118058404I-3000000J0D01*
G01*
%TO.C,SW42*%
X134352593Y-118058404D02*
X133352593Y-118058404D01*
X133852593Y-118558404D02*
X133852593Y-117558404D01*
X127752593Y-114558404D02*
X127752593Y-112158404D01*
X127752593Y-119358404D02*
X127752593Y-116758404D01*
X127752593Y-123958404D02*
X127752593Y-121558404D01*
X141052593Y-122158404D02*
X141352593Y-121858404D01*
X141652593Y-122158404D02*
X141052593Y-122158404D01*
X141352593Y-121858404D02*
X141652593Y-122158404D01*
X139952593Y-123958404D02*
X139952593Y-112158404D01*
X135852593Y-123958404D02*
X139952593Y-123958404D01*
X135852593Y-112158404D02*
X139952593Y-112158404D01*
X127752593Y-112158404D02*
X131852593Y-112158404D01*
X131852593Y-123958404D02*
X127752593Y-123958404D01*
X136852593Y-118058404D02*
G75*
G03*
X136852593Y-118058404I-3000000J0D01*
G01*
%TO.C,Brd1*%
X132790593Y-150675404D02*
X133044593Y-150663404D01*
X132790593Y-134038404D02*
X132790593Y-150675404D01*
X136130593Y-134063404D02*
X132790593Y-134038404D01*
X136130593Y-150663404D02*
X133044593Y-150663404D01*
X150951593Y-153469404D02*
X150951593Y-151056404D01*
X141172593Y-151056404D02*
X150951593Y-151056404D01*
X141172593Y-153469404D02*
X141172593Y-151056404D01*
X150951593Y-153469404D02*
X141172593Y-153469404D01*
X159230593Y-150663404D02*
X136130593Y-150663404D01*
X159230593Y-134063404D02*
X159230593Y-150663404D01*
X136130593Y-134063404D02*
X159230593Y-134063404D01*
X159652593Y-126658404D02*
X159652593Y-153958404D01*
X132252593Y-126658404D02*
X159652593Y-126658404D01*
X132252593Y-153958404D02*
X132252593Y-126658404D01*
X159652593Y-153958404D02*
X132252593Y-153958404D01*
%TO.C,J1*%
X152852593Y-131458404D02*
X150852593Y-131458404D01*
X152852593Y-131458404D02*
X152852593Y-133458404D01*
X138852593Y-145458404D02*
X138852593Y-143458404D01*
X148352593Y-138458404D02*
G75*
G03*
X148352593Y-138458404I-2500000J0D01*
G01*
X152852593Y-145458404D02*
X150852593Y-145458404D01*
X138852593Y-131458404D02*
X140852593Y-131458404D01*
X138852593Y-131458404D02*
X138852593Y-133458404D01*
X152852593Y-145458404D02*
X152852593Y-143458404D01*
X138852593Y-133458404D02*
X138852593Y-131458404D01*
X152852593Y-133458404D02*
X152852593Y-131458404D01*
X138852593Y-145458404D02*
X139852593Y-145458404D01*
X139852593Y-145458404D02*
X140852593Y-145458404D01*
X140852593Y-145458404D02*
X138852593Y-145458404D01*
X133252593Y-144458404D02*
X130752593Y-144458404D01*
X133252593Y-132558404D02*
X133252593Y-144458404D01*
X130752593Y-144458404D02*
X130752593Y-132358404D01*
X133252593Y-132358404D02*
X133252593Y-132558404D01*
X130752593Y-132358404D02*
X133252593Y-132358404D01*
D12*
%TO.C,SW24*%
X86806323Y-87831623D02*
X87228941Y-86925315D01*
X93629286Y-75565932D02*
X92722978Y-75143314D01*
X86806323Y-87831623D02*
X87712630Y-88254241D01*
X92300360Y-76049621D02*
X92722978Y-75143314D01*
X105411287Y-81059969D02*
X104988669Y-81966277D01*
X98588324Y-93325660D02*
X99494632Y-93748278D01*
X105411287Y-81059969D02*
X104504980Y-80637351D01*
X99917250Y-92841971D02*
X99494632Y-93748278D01*
%TO.C,SW4*%
X102865817Y-53391928D02*
X103288435Y-52485620D01*
X109688780Y-41126237D02*
X108782472Y-40703619D01*
X102865817Y-53391928D02*
X103772124Y-53814546D01*
X108359854Y-41609926D02*
X108782472Y-40703619D01*
X121470781Y-46620274D02*
X121048163Y-47526582D01*
X114647818Y-58885965D02*
X115554126Y-59308583D01*
X121470781Y-46620274D02*
X120564474Y-46197656D01*
X115976744Y-58402276D02*
X115554126Y-59308583D01*
%TO.C,SW14*%
X94836070Y-70611775D02*
X95258688Y-69705467D01*
X101659033Y-58346084D02*
X100752725Y-57923466D01*
X94836070Y-70611775D02*
X95742377Y-71034393D01*
X100330107Y-58829773D02*
X100752725Y-57923466D01*
X113441034Y-63840121D02*
X113018416Y-64746429D01*
X106618071Y-76105812D02*
X107524379Y-76528430D01*
X113441034Y-63840121D02*
X112534727Y-63417503D01*
X107946997Y-75622123D02*
X107524379Y-76528430D01*
%TO.C,SW34*%
X90177219Y-127479288D02*
X90750795Y-126660136D01*
X99026441Y-116584736D02*
X98207289Y-116011160D01*
X90177219Y-127479288D02*
X90996371Y-128052865D01*
X97633712Y-116830312D02*
X98207289Y-116011160D01*
X109675417Y-124041230D02*
X109101841Y-124860382D01*
X100826195Y-134935782D02*
X101645347Y-135509358D01*
X109675417Y-124041230D02*
X108856265Y-123467653D01*
X102218924Y-134690206D02*
X101645347Y-135509358D01*
%TO.C,SW7*%
X176145874Y-59308583D02*
X175723256Y-58402276D01*
X171135526Y-46197656D02*
X170229219Y-46620274D01*
X176145874Y-59308583D02*
X177052182Y-58885965D01*
X170651837Y-47526582D02*
X170229219Y-46620274D01*
X182917528Y-40703619D02*
X183340146Y-41609926D01*
X187927876Y-53814546D02*
X188834183Y-53391928D01*
X182917528Y-40703619D02*
X182011220Y-41126237D01*
X188411565Y-52485620D02*
X188834183Y-53391928D01*
%TO.C,SW40*%
X234674809Y-94908631D02*
X234252191Y-94002324D01*
X229664461Y-81797704D02*
X228758154Y-82220322D01*
X234674809Y-94908631D02*
X235581117Y-94486013D01*
X229180772Y-83126630D02*
X228758154Y-82220322D01*
X241446463Y-76303667D02*
X241869081Y-77209974D01*
X246456811Y-89414594D02*
X247363118Y-88991976D01*
X241446463Y-76303667D02*
X240540155Y-76726285D01*
X246940500Y-88085668D02*
X247363118Y-88991976D01*
%TO.C,SW39*%
X215341871Y-98406839D02*
X214919253Y-97500532D01*
X210331523Y-85295912D02*
X209425216Y-85718530D01*
X215341871Y-98406839D02*
X216248179Y-97984221D01*
X209847834Y-86624838D02*
X209425216Y-85718530D01*
X222113525Y-79801875D02*
X222536143Y-80708182D01*
X227123873Y-92912802D02*
X228030180Y-92490184D01*
X222113525Y-79801875D02*
X221207217Y-80224493D01*
X227607562Y-91583876D02*
X228030180Y-92490184D01*
%TO.C,SW38*%
X206574388Y-124562742D02*
X206151770Y-123656435D01*
X201564040Y-111451815D02*
X200657733Y-111874433D01*
X206574388Y-124562742D02*
X207480696Y-124140124D01*
X201080351Y-112780741D02*
X200657733Y-111874433D01*
X213346042Y-105957778D02*
X213768660Y-106864085D01*
X218356390Y-119068705D02*
X219262697Y-118646087D01*
X213346042Y-105957778D02*
X212439734Y-106380396D01*
X218840079Y-117739779D02*
X219262697Y-118646087D01*
%TO.C,SW37*%
X190054653Y-135509358D02*
X189481076Y-134690206D01*
X182843735Y-123467653D02*
X182024583Y-124041230D01*
X190054653Y-135509358D02*
X190873805Y-134935782D01*
X182598159Y-124860382D02*
X182024583Y-124041230D01*
X193492711Y-116011160D02*
X194066288Y-116830312D01*
X200703629Y-128052865D02*
X201522781Y-127479288D01*
X193492711Y-116011160D02*
X192673559Y-116584736D01*
X200949205Y-126660136D02*
X201522781Y-127479288D01*
%TO.C,SW36*%
X175686750Y-149158294D02*
X174979643Y-148451187D01*
X166494362Y-138551692D02*
X165787255Y-139258799D01*
X175686750Y-149158294D02*
X176393857Y-148451187D01*
X166494362Y-139965906D02*
X165787255Y-139258799D01*
X175686750Y-129359304D02*
X176393857Y-130066411D01*
X184879138Y-139965906D02*
X185586245Y-139258799D01*
X175686750Y-129359304D02*
X174979643Y-130066411D01*
X184879138Y-138551692D02*
X185586245Y-139258799D01*
%TO.C,SW35*%
X106113755Y-139258799D02*
X106820862Y-138551692D01*
X116720357Y-130066411D02*
X116013250Y-129359304D01*
X106113755Y-139258799D02*
X106820862Y-139965906D01*
X115306143Y-130066411D02*
X116013250Y-129359304D01*
X125912745Y-139258799D02*
X125205638Y-139965906D01*
X115306143Y-148451187D02*
X116013250Y-149158294D01*
X125912745Y-139258799D02*
X125205638Y-138551692D01*
X116720357Y-148451187D02*
X116013250Y-149158294D01*
%TO.C,SW33*%
X72437303Y-118646087D02*
X72859921Y-117739779D01*
X79260266Y-106380396D02*
X78353958Y-105957778D01*
X72437303Y-118646087D02*
X73343610Y-119068705D01*
X77931340Y-106864085D02*
X78353958Y-105957778D01*
X91042267Y-111874433D02*
X90619649Y-112780741D01*
X84219304Y-124140124D02*
X85125612Y-124562742D01*
X91042267Y-111874433D02*
X90135960Y-111451815D01*
X85548230Y-123656435D02*
X85125612Y-124562742D01*
%TO.C,SW32*%
X63669820Y-92490184D02*
X64092438Y-91583876D01*
X70492783Y-80224493D02*
X69586475Y-79801875D01*
X63669820Y-92490184D02*
X64576127Y-92912802D01*
X69163857Y-80708182D02*
X69586475Y-79801875D01*
X82274784Y-85718530D02*
X81852166Y-86624838D01*
X75451821Y-97984221D02*
X76358129Y-98406839D01*
X82274784Y-85718530D02*
X81368477Y-85295912D01*
X76780747Y-97500532D02*
X76358129Y-98406839D01*
%TO.C,SW31*%
X44336882Y-88991976D02*
X44759500Y-88085668D01*
X51159845Y-76726285D02*
X50253537Y-76303667D01*
X44336882Y-88991976D02*
X45243189Y-89414594D01*
X49830919Y-77209974D02*
X50253537Y-76303667D01*
X62941846Y-82220322D02*
X62519228Y-83126630D01*
X56118883Y-94486013D02*
X57025191Y-94908631D01*
X62941846Y-82220322D02*
X62035539Y-81797704D01*
X57447809Y-94002324D02*
X57025191Y-94908631D01*
%TO.C,SW30*%
X249147637Y-80987884D02*
X248725019Y-80081577D01*
X244137289Y-67876957D02*
X243230982Y-68299575D01*
X249147637Y-80987884D02*
X250053945Y-80565266D01*
X243653600Y-69205883D02*
X243230982Y-68299575D01*
X255919291Y-62382920D02*
X256341909Y-63289227D01*
X260929639Y-75493847D02*
X261835946Y-75071229D01*
X255919291Y-62382920D02*
X255012983Y-62805538D01*
X261413328Y-74164921D02*
X261835946Y-75071229D01*
%TO.C,SW29*%
X226645062Y-77688784D02*
X226222444Y-76782477D01*
X221634714Y-64577857D02*
X220728407Y-65000475D01*
X226645062Y-77688784D02*
X227551370Y-77266166D01*
X221151025Y-65906783D02*
X220728407Y-65000475D01*
X233416716Y-59083820D02*
X233839334Y-59990127D01*
X238427064Y-72194747D02*
X239333371Y-71772129D01*
X233416716Y-59083820D02*
X232510408Y-59506438D01*
X238910753Y-70865821D02*
X239333371Y-71772129D01*
%TO.C,SW28*%
X207312124Y-81186992D02*
X206889506Y-80280685D01*
X202301776Y-68076065D02*
X201395469Y-68498683D01*
X207312124Y-81186992D02*
X208218432Y-80764374D01*
X201818087Y-69404991D02*
X201395469Y-68498683D01*
X214083778Y-62582028D02*
X214506396Y-63488335D01*
X219094126Y-75692955D02*
X220000433Y-75270337D01*
X214083778Y-62582028D02*
X213177470Y-63004646D01*
X219577815Y-74364029D02*
X220000433Y-75270337D01*
%TO.C,SW27*%
X192205368Y-93748278D02*
X191782750Y-92841971D01*
X187195020Y-80637351D02*
X186288713Y-81059969D01*
X192205368Y-93748278D02*
X193111676Y-93325660D01*
X186711331Y-81966277D02*
X186288713Y-81059969D01*
X198977022Y-75143314D02*
X199399640Y-76049621D01*
X203987370Y-88254241D02*
X204893677Y-87831623D01*
X198977022Y-75143314D02*
X198070714Y-75565932D01*
X204471059Y-86925315D02*
X204893677Y-87831623D01*
%TO.C,SW26*%
X176042066Y-104043794D02*
X175619448Y-103137487D01*
X171031718Y-90932867D02*
X170125411Y-91355485D01*
X176042066Y-104043794D02*
X176948374Y-103621176D01*
X170548029Y-92261793D02*
X170125411Y-91355485D01*
X182813720Y-85438830D02*
X183236338Y-86345137D01*
X187824068Y-98549757D02*
X188730375Y-98127139D01*
X182813720Y-85438830D02*
X181907412Y-85861448D01*
X188307757Y-97220831D02*
X188730375Y-98127139D01*
%TO.C,SW25*%
X102969625Y-98127139D02*
X103392243Y-97220831D01*
X109792588Y-85861448D02*
X108886280Y-85438830D01*
X102969625Y-98127139D02*
X103875932Y-98549757D01*
X108463662Y-86345137D02*
X108886280Y-85438830D01*
X121574589Y-91355485D02*
X121151971Y-92261793D01*
X114751626Y-103621176D02*
X115657934Y-104043794D01*
X121574589Y-91355485D02*
X120668282Y-90932867D01*
X116080552Y-103137487D02*
X115657934Y-104043794D01*
%TO.C,SW23*%
X71699567Y-75270337D02*
X72122185Y-74364029D01*
X78522530Y-63004646D02*
X77616222Y-62582028D01*
X71699567Y-75270337D02*
X72605874Y-75692955D01*
X77193604Y-63488335D02*
X77616222Y-62582028D01*
X90304531Y-68498683D02*
X89881913Y-69404991D01*
X83481568Y-80764374D02*
X84387876Y-81186992D01*
X90304531Y-68498683D02*
X89398224Y-68076065D01*
X84810494Y-80280685D02*
X84387876Y-81186992D01*
%TO.C,SW22*%
X52366629Y-71772129D02*
X52789247Y-70865821D01*
X59189592Y-59506438D02*
X58283284Y-59083820D01*
X52366629Y-71772129D02*
X53272936Y-72194747D01*
X57860666Y-59990127D02*
X58283284Y-59083820D01*
X70971593Y-65000475D02*
X70548975Y-65906783D01*
X64148630Y-77266166D02*
X65054938Y-77688784D01*
X70971593Y-65000475D02*
X70065286Y-64577857D01*
X65477556Y-76782477D02*
X65054938Y-77688784D01*
%TO.C,SW21*%
X29864054Y-75071229D02*
X30286672Y-74164921D01*
X36687017Y-62805538D02*
X35780709Y-62382920D01*
X29864054Y-75071229D02*
X30770361Y-75493847D01*
X35358091Y-63289227D02*
X35780709Y-62382920D01*
X48469018Y-68299575D02*
X48046400Y-69205883D01*
X41646055Y-80565266D02*
X42552363Y-80987884D01*
X48469018Y-68299575D02*
X47562711Y-67876957D01*
X42974981Y-80081577D02*
X42552363Y-80987884D01*
%TO.C,SW20*%
X241117890Y-63768037D02*
X240695272Y-62861730D01*
X236107542Y-50657110D02*
X235201235Y-51079728D01*
X241117890Y-63768037D02*
X242024198Y-63345419D01*
X235623853Y-51986036D02*
X235201235Y-51079728D01*
X247889544Y-45163073D02*
X248312162Y-46069380D01*
X252899892Y-58274000D02*
X253806199Y-57851382D01*
X247889544Y-45163073D02*
X246983236Y-45585691D01*
X253383581Y-56945074D02*
X253806199Y-57851382D01*
%TO.C,SW19*%
X218615315Y-60468937D02*
X218192697Y-59562630D01*
X213604967Y-47358010D02*
X212698660Y-47780628D01*
X218615315Y-60468937D02*
X219521623Y-60046319D01*
X213121278Y-48686936D02*
X212698660Y-47780628D01*
X225386969Y-41863973D02*
X225809587Y-42770280D01*
X230397317Y-54974900D02*
X231303624Y-54552282D01*
X225386969Y-41863973D02*
X224480661Y-42286591D01*
X230881006Y-53645974D02*
X231303624Y-54552282D01*
%TO.C,SW18*%
X199282377Y-63967145D02*
X198859759Y-63060838D01*
X194272029Y-50856218D02*
X193365722Y-51278836D01*
X199282377Y-63967145D02*
X200188685Y-63544527D01*
X193788340Y-52185144D02*
X193365722Y-51278836D01*
X206054031Y-45362181D02*
X206476649Y-46268488D01*
X211064379Y-58473108D02*
X211970686Y-58050490D01*
X206054031Y-45362181D02*
X205147723Y-45784799D01*
X211548068Y-57144182D02*
X211970686Y-58050490D01*
%TO.C,SW17*%
X184175621Y-76528430D02*
X183753003Y-75622123D01*
X179165273Y-63417503D02*
X178258966Y-63840121D01*
X184175621Y-76528430D02*
X185081929Y-76105812D01*
X178681584Y-64746429D02*
X178258966Y-63840121D01*
X190947275Y-57923466D02*
X191369893Y-58829773D01*
X195957623Y-71034393D02*
X196863930Y-70611775D01*
X190947275Y-57923466D02*
X190040967Y-58346084D01*
X196441312Y-69705467D02*
X196863930Y-70611775D01*
%TO.C,SW16*%
X168012320Y-86823947D02*
X167589702Y-85917640D01*
X163001972Y-73713020D02*
X162095665Y-74135638D01*
X168012320Y-86823947D02*
X168918628Y-86401329D01*
X162518283Y-75041946D02*
X162095665Y-74135638D01*
X174783974Y-68218983D02*
X175206592Y-69125290D01*
X179794322Y-81329910D02*
X180700629Y-80907292D01*
X174783974Y-68218983D02*
X173877666Y-68641601D01*
X180278011Y-80000984D02*
X180700629Y-80907292D01*
%TO.C,SW15*%
X110999371Y-80907292D02*
X111421989Y-80000984D01*
X117822334Y-68641601D02*
X116916026Y-68218983D01*
X110999371Y-80907292D02*
X111905678Y-81329910D01*
X116493408Y-69125290D02*
X116916026Y-68218983D01*
X129604335Y-74135638D02*
X129181717Y-75041946D01*
X122781372Y-86401329D02*
X123687680Y-86823947D01*
X129604335Y-74135638D02*
X128698028Y-73713020D01*
X124110298Y-85917640D02*
X123687680Y-86823947D01*
%TO.C,SW13*%
X79729314Y-58050490D02*
X80151932Y-57144182D01*
X86552277Y-45784799D02*
X85645969Y-45362181D01*
X79729314Y-58050490D02*
X80635621Y-58473108D01*
X85223351Y-46268488D02*
X85645969Y-45362181D01*
X98334278Y-51278836D02*
X97911660Y-52185144D01*
X91511315Y-63544527D02*
X92417623Y-63967145D01*
X98334278Y-51278836D02*
X97427971Y-50856218D01*
X92840241Y-63060838D02*
X92417623Y-63967145D01*
%TO.C,SW12*%
X60396376Y-54552282D02*
X60818994Y-53645974D01*
X67219339Y-42286591D02*
X66313031Y-41863973D01*
X60396376Y-54552282D02*
X61302683Y-54974900D01*
X65890413Y-42770280D02*
X66313031Y-41863973D01*
X79001340Y-47780628D02*
X78578722Y-48686936D01*
X72178377Y-60046319D02*
X73084685Y-60468937D01*
X79001340Y-47780628D02*
X78095033Y-47358010D01*
X73507303Y-59562630D02*
X73084685Y-60468937D01*
%TO.C,SW11*%
X37893801Y-57851382D02*
X38316419Y-56945074D01*
X44716764Y-45585691D02*
X43810456Y-45163073D01*
X37893801Y-57851382D02*
X38800108Y-58274000D01*
X43387838Y-46069380D02*
X43810456Y-45163073D01*
X56498765Y-51079728D02*
X56076147Y-51986036D01*
X49675802Y-63345419D02*
X50582110Y-63768037D01*
X56498765Y-51079728D02*
X55592458Y-50657110D01*
X51004728Y-62861730D02*
X50582110Y-63768037D01*
%TO.C,SW10*%
X233088143Y-46548190D02*
X232665525Y-45641883D01*
X228077795Y-33437263D02*
X227171488Y-33859881D01*
X233088143Y-46548190D02*
X233994451Y-46125572D01*
X227594106Y-34766189D02*
X227171488Y-33859881D01*
X239859797Y-27943226D02*
X240282415Y-28849533D01*
X244870145Y-41054153D02*
X245776452Y-40631535D01*
X239859797Y-27943226D02*
X238953489Y-28365844D01*
X245353834Y-39725227D02*
X245776452Y-40631535D01*
%TO.C,SW9*%
X210585568Y-43249090D02*
X210162950Y-42342783D01*
X205575220Y-30138163D02*
X204668913Y-30560781D01*
X210585568Y-43249090D02*
X211491876Y-42826472D01*
X205091531Y-31467089D02*
X204668913Y-30560781D01*
X217357222Y-24644126D02*
X217779840Y-25550433D01*
X222367570Y-37755053D02*
X223273877Y-37332435D01*
X217357222Y-24644126D02*
X216450914Y-25066744D01*
X222851259Y-36426127D02*
X223273877Y-37332435D01*
%TO.C,SW8*%
X191252630Y-46747298D02*
X190830012Y-45840991D01*
X186242282Y-33636371D02*
X185335975Y-34058989D01*
X191252630Y-46747298D02*
X192158938Y-46324680D01*
X185758593Y-34965297D02*
X185335975Y-34058989D01*
X198024284Y-28142334D02*
X198446902Y-29048641D01*
X203034632Y-41253261D02*
X203940939Y-40830643D01*
X198024284Y-28142334D02*
X197117976Y-28564952D01*
X203518321Y-39924335D02*
X203940939Y-40830643D01*
%TO.C,SW6*%
X159982573Y-69604100D02*
X159559955Y-68697793D01*
X154972225Y-56493173D02*
X154065918Y-56915791D01*
X159982573Y-69604100D02*
X160888881Y-69181482D01*
X154488536Y-57822099D02*
X154065918Y-56915791D01*
X166754227Y-50999136D02*
X167176845Y-51905443D01*
X171764575Y-64110063D02*
X172670882Y-63687445D01*
X166754227Y-50999136D02*
X165847919Y-51421754D01*
X172248264Y-62781137D02*
X172670882Y-63687445D01*
%TO.C,SW5*%
X119029118Y-63687445D02*
X119451736Y-62781137D01*
X125852081Y-51421754D02*
X124945773Y-50999136D01*
X119029118Y-63687445D02*
X119935425Y-64110063D01*
X124523155Y-51905443D02*
X124945773Y-50999136D01*
X137634082Y-56915791D02*
X137211464Y-57822099D01*
X130811119Y-69181482D02*
X131717427Y-69604100D01*
X137634082Y-56915791D02*
X136727775Y-56493173D01*
X132140045Y-68697793D02*
X131717427Y-69604100D01*
%TO.C,SW3*%
X87759061Y-40830643D02*
X88181679Y-39924335D01*
X94582024Y-28564952D02*
X93675716Y-28142334D01*
X87759061Y-40830643D02*
X88665368Y-41253261D01*
X93253098Y-29048641D02*
X93675716Y-28142334D01*
X106364025Y-34058989D02*
X105941407Y-34965297D01*
X99541062Y-46324680D02*
X100447370Y-46747298D01*
X106364025Y-34058989D02*
X105457718Y-33636371D01*
X100869988Y-45840991D02*
X100447370Y-46747298D01*
%TO.C,SW2*%
X68426123Y-37332435D02*
X68848741Y-36426127D01*
X75249086Y-25066744D02*
X74342778Y-24644126D01*
X68426123Y-37332435D02*
X69332430Y-37755053D01*
X73920160Y-25550433D02*
X74342778Y-24644126D01*
X87031087Y-30560781D02*
X86608469Y-31467089D01*
X80208124Y-42826472D02*
X81114432Y-43249090D01*
X87031087Y-30560781D02*
X86124780Y-30138163D01*
X81537050Y-42342783D02*
X81114432Y-43249090D01*
%TO.C,SW1*%
X45923548Y-40631535D02*
X46346166Y-39725227D01*
X52746511Y-28365844D02*
X51840203Y-27943226D01*
X45923548Y-40631535D02*
X46829855Y-41054153D01*
X51417585Y-28849533D02*
X51840203Y-27943226D01*
X64528512Y-33859881D02*
X64105894Y-34766189D01*
X57705549Y-46125572D02*
X58611857Y-46548190D01*
X64528512Y-33859881D02*
X63622205Y-33437263D01*
X59034475Y-45641883D02*
X58611857Y-46548190D01*
%TO.C,JP1*%
X132379259Y-81950784D02*
X132379259Y-82665070D01*
X132331640Y-82807927D01*
X132236402Y-82903165D01*
X132093545Y-82950784D01*
X131998307Y-82950784D01*
X132855450Y-82950784D02*
X132855450Y-81950784D01*
X133236402Y-81950784D01*
X133331640Y-81998404D01*
X133379259Y-82046023D01*
X133426878Y-82141261D01*
X133426878Y-82284118D01*
X133379259Y-82379356D01*
X133331640Y-82426975D01*
X133236402Y-82474594D01*
X132855450Y-82474594D01*
X134379259Y-82950784D02*
X133807831Y-82950784D01*
X134093545Y-82950784D02*
X134093545Y-81950784D01*
X133998307Y-82093642D01*
X133903069Y-82188880D01*
X133807831Y-82236499D01*
%TO.C,Brd1*%
X145085926Y-141332975D02*
X145228783Y-141380594D01*
X145276402Y-141428213D01*
X145324021Y-141523451D01*
X145324021Y-141666308D01*
X145276402Y-141761546D01*
X145228783Y-141809165D01*
X145133545Y-141856784D01*
X144752593Y-141856784D01*
X144752593Y-140856784D01*
X145085926Y-140856784D01*
X145181164Y-140904404D01*
X145228783Y-140952023D01*
X145276402Y-141047261D01*
X145276402Y-141142499D01*
X145228783Y-141237737D01*
X145181164Y-141285356D01*
X145085926Y-141332975D01*
X144752593Y-141332975D01*
X145752593Y-141856784D02*
X145752593Y-141190118D01*
X145752593Y-141380594D02*
X145800212Y-141285356D01*
X145847831Y-141237737D01*
X145943069Y-141190118D01*
X146038307Y-141190118D01*
X146800212Y-141856784D02*
X146800212Y-140856784D01*
X146800212Y-141809165D02*
X146704973Y-141856784D01*
X146514497Y-141856784D01*
X146419259Y-141809165D01*
X146371640Y-141761546D01*
X146324021Y-141666308D01*
X146324021Y-141380594D01*
X146371640Y-141285356D01*
X146419259Y-141237737D01*
X146514497Y-141190118D01*
X146704973Y-141190118D01*
X146800212Y-141237737D01*
X147800212Y-141856784D02*
X147228783Y-141856784D01*
X147514497Y-141856784D02*
X147514497Y-140856784D01*
X147419259Y-140999642D01*
X147324021Y-141094880D01*
X147228783Y-141142499D01*
%TO.C,J1*%
X136438307Y-148791737D02*
X137438307Y-148791737D01*
X136485926Y-148791737D02*
X136438307Y-148696499D01*
X136438307Y-148506023D01*
X136485926Y-148410784D01*
X136533545Y-148363165D01*
X136628783Y-148315546D01*
X136914497Y-148315546D01*
X137009735Y-148363165D01*
X137057354Y-148410784D01*
X137104973Y-148506023D01*
X137104973Y-148696499D01*
X137057354Y-148791737D01*
X137104973Y-147886975D02*
X136438307Y-147886975D01*
X136104973Y-147886975D02*
X136152593Y-147934594D01*
X136200212Y-147886975D01*
X136152593Y-147839356D01*
X136104973Y-147886975D01*
X136200212Y-147886975D01*
X137104973Y-147410784D02*
X136438307Y-147410784D01*
X136533545Y-147410784D02*
X136485926Y-147363165D01*
X136438307Y-147267927D01*
X136438307Y-147125070D01*
X136485926Y-147029832D01*
X136581164Y-146982213D01*
X137104973Y-146982213D01*
X136581164Y-146982213D02*
X136485926Y-146934594D01*
X136438307Y-146839356D01*
X136438307Y-146696499D01*
X136485926Y-146601261D01*
X136581164Y-146553642D01*
X137104973Y-146553642D01*
X137104973Y-145934594D02*
X137057354Y-146029832D01*
X137009735Y-146077451D01*
X136914497Y-146125070D01*
X136628783Y-146125070D01*
X136533545Y-146077451D01*
X136485926Y-146029832D01*
X136438307Y-145934594D01*
X136438307Y-145791737D01*
X136485926Y-145696499D01*
X136533545Y-145648880D01*
X136628783Y-145601261D01*
X136914497Y-145601261D01*
X137009735Y-145648880D01*
X137057354Y-145696499D01*
X137104973Y-145791737D01*
X137104973Y-145934594D01*
X137104973Y-145172689D02*
X136438307Y-145172689D01*
X136628783Y-145172689D02*
X136533545Y-145125070D01*
X136485926Y-145077451D01*
X136438307Y-144982213D01*
X136438307Y-144886975D01*
X137104973Y-144410784D02*
X137057354Y-144506023D01*
X137009735Y-144553642D01*
X136914497Y-144601261D01*
X136628783Y-144601261D01*
X136533545Y-144553642D01*
X136485926Y-144506023D01*
X136438307Y-144410784D01*
X136438307Y-144267927D01*
X136485926Y-144172689D01*
X136533545Y-144125070D01*
X136628783Y-144077451D01*
X136914497Y-144077451D01*
X137009735Y-144125070D01*
X137057354Y-144172689D01*
X137104973Y-144267927D01*
X137104973Y-144410784D01*
X136438307Y-143648880D02*
X137104973Y-143648880D01*
X136533545Y-143648880D02*
X136485926Y-143601261D01*
X136438307Y-143506023D01*
X136438307Y-143363165D01*
X136485926Y-143267927D01*
X136581164Y-143220308D01*
X137104973Y-143220308D01*
X137104973Y-142744118D02*
X136438307Y-142744118D01*
X136104973Y-142744118D02*
X136152593Y-142791737D01*
X136200212Y-142744118D01*
X136152593Y-142696499D01*
X136104973Y-142744118D01*
X136200212Y-142744118D01*
X136438307Y-141648880D02*
X136438307Y-141267927D01*
X136104973Y-141506023D02*
X136962116Y-141506023D01*
X137057354Y-141458404D01*
X137104973Y-141363165D01*
X137104973Y-141267927D01*
X137104973Y-140934594D02*
X136438307Y-140934594D01*
X136628783Y-140934594D02*
X136533545Y-140886975D01*
X136485926Y-140839356D01*
X136438307Y-140744118D01*
X136438307Y-140648880D01*
X137104973Y-139886975D02*
X136581164Y-139886975D01*
X136485926Y-139934594D01*
X136438307Y-140029832D01*
X136438307Y-140220308D01*
X136485926Y-140315546D01*
X137057354Y-139886975D02*
X137104973Y-139982213D01*
X137104973Y-140220308D01*
X137057354Y-140315546D01*
X136962116Y-140363165D01*
X136866878Y-140363165D01*
X136771640Y-140315546D01*
X136724021Y-140220308D01*
X136724021Y-139982213D01*
X136676402Y-139886975D01*
X137057354Y-138982213D02*
X137104973Y-139077451D01*
X137104973Y-139267927D01*
X137057354Y-139363165D01*
X137009735Y-139410784D01*
X136914497Y-139458404D01*
X136628783Y-139458404D01*
X136533545Y-139410784D01*
X136485926Y-139363165D01*
X136438307Y-139267927D01*
X136438307Y-139077451D01*
X136485926Y-138982213D01*
X137104973Y-138553642D02*
X136104973Y-138553642D01*
X136724021Y-138458404D02*
X137104973Y-138172689D01*
X136438307Y-138172689D02*
X136819259Y-138553642D01*
X137104973Y-137744118D02*
X136104973Y-137744118D01*
X136485926Y-137744118D02*
X136438307Y-137648880D01*
X136438307Y-137458404D01*
X136485926Y-137363165D01*
X136533545Y-137315546D01*
X136628783Y-137267927D01*
X136914497Y-137267927D01*
X137009735Y-137315546D01*
X137057354Y-137363165D01*
X137104973Y-137458404D01*
X137104973Y-137648880D01*
X137057354Y-137744118D01*
X137104973Y-136410784D02*
X136581164Y-136410784D01*
X136485926Y-136458404D01*
X136438307Y-136553642D01*
X136438307Y-136744118D01*
X136485926Y-136839356D01*
X137057354Y-136410784D02*
X137104973Y-136506023D01*
X137104973Y-136744118D01*
X137057354Y-136839356D01*
X136962116Y-136886975D01*
X136866878Y-136886975D01*
X136771640Y-136839356D01*
X136724021Y-136744118D01*
X136724021Y-136506023D01*
X136676402Y-136410784D01*
X137104973Y-135791737D02*
X137057354Y-135886975D01*
X136962116Y-135934594D01*
X136104973Y-135934594D01*
X137104973Y-135267927D02*
X137057354Y-135363165D01*
X136962116Y-135410784D01*
X136104973Y-135410784D01*
X137104973Y-134125070D02*
X136104973Y-134125070D01*
X136485926Y-134125070D02*
X136438307Y-134029832D01*
X136438307Y-133839356D01*
X136485926Y-133744118D01*
X136533545Y-133696499D01*
X136628783Y-133648880D01*
X136914497Y-133648880D01*
X137009735Y-133696499D01*
X137057354Y-133744118D01*
X137104973Y-133839356D01*
X137104973Y-134029832D01*
X137057354Y-134125070D01*
X137104973Y-133220308D02*
X136438307Y-133220308D01*
X136628783Y-133220308D02*
X136533545Y-133172689D01*
X136485926Y-133125070D01*
X136438307Y-133029832D01*
X136438307Y-132934594D01*
X137057354Y-132220308D02*
X137104973Y-132315546D01*
X137104973Y-132506023D01*
X137057354Y-132601261D01*
X136962116Y-132648880D01*
X136581164Y-132648880D01*
X136485926Y-132601261D01*
X136438307Y-132506023D01*
X136438307Y-132315546D01*
X136485926Y-132220308D01*
X136581164Y-132172689D01*
X136676402Y-132172689D01*
X136771640Y-132648880D01*
X137104973Y-131315546D02*
X136581164Y-131315546D01*
X136485926Y-131363165D01*
X136438307Y-131458404D01*
X136438307Y-131648880D01*
X136485926Y-131744118D01*
X137057354Y-131315546D02*
X137104973Y-131410784D01*
X137104973Y-131648880D01*
X137057354Y-131744118D01*
X136962116Y-131791737D01*
X136866878Y-131791737D01*
X136771640Y-131744118D01*
X136724021Y-131648880D01*
X136724021Y-131410784D01*
X136676402Y-131315546D01*
X137104973Y-130839356D02*
X136104973Y-130839356D01*
X136724021Y-130744118D02*
X137104973Y-130458404D01*
X136438307Y-130458404D02*
X136819259Y-130839356D01*
X137104973Y-129886975D02*
X137057354Y-129982213D01*
X137009735Y-130029832D01*
X136914497Y-130077451D01*
X136628783Y-130077451D01*
X136533545Y-130029832D01*
X136485926Y-129982213D01*
X136438307Y-129886975D01*
X136438307Y-129744118D01*
X136485926Y-129648880D01*
X136533545Y-129601261D01*
X136628783Y-129553642D01*
X136914497Y-129553642D01*
X137009735Y-129601261D01*
X137057354Y-129648880D01*
X137104973Y-129744118D01*
X137104973Y-129886975D01*
X136438307Y-128696499D02*
X137104973Y-128696499D01*
X136438307Y-129125070D02*
X136962116Y-129125070D01*
X137057354Y-129077451D01*
X137104973Y-128982213D01*
X137104973Y-128839356D01*
X137057354Y-128744118D01*
X137009735Y-128696499D01*
X136438307Y-128363165D02*
X136438307Y-127982213D01*
X136104973Y-128220308D02*
X136962116Y-128220308D01*
X137057354Y-128172689D01*
X137104973Y-128077451D01*
X137104973Y-127982213D01*
%TD*%
M02*
