M48
; DRILL file {KiCad (5.1.9)-1} date 07/18/21 01:14:05
; FORMAT={-:-/ absolute / inch / decimal}
; #@! TF.CreationDate,2021-07-18T01:14:05-07:00
; #@! TF.GenerationSoftware,Kicad,Pcbnew,(5.1.9)-1
; #@! TF.FileFunction,Plated,1,2,PTH
FMAT,2
INCH
T1C0.0157
T2C0.0236
T3C0.0300
T4C0.0394
T5C0.1181
%
G90
G05
T1
X1.2304Y-2.7267
X1.254Y-3.0259
X1.3643Y-3.1125
X1.4666Y-2.2936
X1.5218Y-3.2306
X1.5459Y-2.3257
X1.7029Y-3.0732
X1.7225Y-1.7228
X1.7737Y-1.6243
X1.7895Y-3.2228
X1.9548Y-2.4117
X1.9706Y-3.4325
X1.9859Y-2.4429
X2.0099Y-2.7267
X2.0178Y-1.4984
X2.1281Y-3.7346
X2.1359Y-2.6165
X2.191Y-3.0545
X2.2147Y-3.5299
X2.2225Y-2.7346
X2.2383Y-1.9551
X2.2462Y-3.0832
X2.254Y-1.7188
X2.2619Y-2.207
X2.2855Y-1.6637
X2.3249Y-1.6948
X2.3879Y-3.0832
X2.3879Y-3.6322
X2.4273Y-2.2858
X2.443Y-2.144
X2.506Y-3.0495
X2.5173Y-2.2588
X2.5375Y-3.8208
X2.5769Y-3.7582
X2.5847Y-2.8606
X2.5926Y-1.5062
X2.6005Y-2.0574
X2.6241Y-2.9708
X2.6871Y-3.7897
X2.7107Y-2.3745
X2.7422Y-1.6007
X2.7838Y-1.604
X2.7973Y-4.6873
X2.8058Y-3.0647
X2.8081Y-2.3459
X2.8446Y-3.0968
X2.8446Y-4.6795
X2.8761Y-1.6451
X2.9312Y-4.7661
X2.9627Y-2.2936
X2.9706Y-3.9551
X3.0021Y-3.9207
X3.0414Y-4.8291
X3.0966Y-1.7425
X3.1247Y-1.6446
X3.1438Y-3.7661
X3.1438Y-4.018
X3.1832Y-4.0732
X3.2068Y-4.9236
X3.2304Y-2.4196
X3.2535Y-4.0737
X3.2777Y-1.5929
X3.2777Y-3.1047
X3.3013Y-3.3251
X3.3018Y-4.0411
X3.3603Y-3.0692
X3.4346Y-3.184
X3.4588Y-2.4669
X3.4588Y-3.3881
X3.4588Y-4.1913
X3.5533Y-1.7346
X3.5611Y-3.3881
X3.6399Y-4.2385
X3.6556Y-5.1834
X3.6714Y-2.8369
X3.6792Y-3.9551
X3.6871Y-2.6243
X3.6894Y-2.4016
X3.7186Y-2.8448
X3.7186Y-5.2228
X3.719Y-3.9207
X3.7277Y-2.9368
X3.7344Y-2.6243
X3.7763Y-3.9551
X3.7934Y-1.8645
X3.7985Y-2.8763
X3.8025Y-5.335
X3.8097Y-2.6525
X3.8297Y-2.7818
X3.8525Y-2.8842
X3.8603Y-3.8842
X3.8997Y-1.7818
X3.8997Y-2.9551
X3.9312Y-2.6873
X3.9588Y-3.5574
X4.0012Y-4.0898
X4.0099Y-4.2228
X4.0336Y-1.7267
X4.0336Y-4.1627
X4.0336Y-5.1519
X4.0493Y-4.2199
X4.0887Y-2.9866
X4.1281Y-4.0732
X4.1359Y-2.1913
X4.1597Y-4.1175
X4.1753Y-2.2543
X4.1753Y-3.8054
X4.2147Y-2.9787
X4.2225Y-2.2435
X4.2777Y-5.7582
X4.3092Y-2.8921
X4.317Y-5.7503
X4.3527Y-3.2772
X4.3643Y-4.7031
X4.38Y-4.0495
X4.4171Y-2.3826
X4.4273Y-3.27
X4.4277Y-4.1681
X4.4981Y-2.2936
X4.5218Y-6.0102
X4.5926Y-3.9472
X4.632Y-2.2149
X4.632Y-5.7031
X4.6792Y-5.018
X4.7344Y-3.3881
X4.7422Y-2.6007
X4.8367Y-3.8842
X4.8653Y-4.0259
X4.9312Y-3.3566
X4.9312Y-3.5299
X4.9627Y-3.3173
X4.9706Y-2.7188
X5.0178Y-4.1283
X5.0493Y-3.4511
X5.0729Y-5.9708
X5.0887Y-3.4905
X5.1202Y-6.0732
X5.1438Y-4.7503
X5.1517Y-4.1913
X5.1522Y-4.2312
X5.1667Y-3.4669
X5.1674Y-3.5299
X5.1753Y-2.6952
X5.191Y-6.0102
X5.1989Y-3.4304
X5.216Y-3.391
X5.2237Y-3.3503
X5.2383Y-4.5535
X5.2501Y-2.896
X5.2698Y-6.0732
X5.2934Y-2.6243
X5.2934Y-5.9393
X5.3013Y-2.8527
X5.3142Y-3.0102
X5.3249Y-3.3803
X5.3328Y-4.648
X5.3328Y-5.7425
X5.3484Y-3.459
X5.3485Y-3.207
X5.3485Y-3.3094
X5.3485Y-3.3488
X5.3485Y-6.018
X5.3486Y-3.4196
X5.3489Y-3.4984
X5.38Y-3.6243
X5.4115Y-3.207
X5.4194Y-5.1963
X5.443Y-5.2306
X5.4588Y-2.8527
X5.4666Y-3.0023
X5.5375Y-3.0417
X5.6162Y-2.4669
X5.6477Y-4.1283
X5.6792Y-5.1963
X5.7029Y-5.4511
X5.7186Y-5.2306
X5.7265Y-3.8949
X5.7265Y-4.0259
X5.7501Y-4.6795
X5.7501Y-6.0732
X5.7659Y-4.2385
X5.7664Y-4.1918
X5.7973Y-3.0023
X5.7973Y-4.3015
X5.7973Y-5.2149
X5.8682Y-2.4669
X5.8918Y-2.8842
X5.9391Y-3.0417
X5.9627Y-4.3015
X6.0021Y-3.1154
X6.0021Y-3.7976
X6.0021Y-5.2228
X6.0336Y-2.144
X6.0431Y-5.7487
X6.0493Y-2.6243
X6.1123Y-2.8212
X6.1123Y-3.207
X6.1281Y-3.9866
X6.1596Y-4.6243
X6.1646Y-4.0545
X6.1855Y-4.1204
X6.2068Y-5.9393
X6.2147Y-5.1498
X6.2225Y-4.1913
X6.2383Y-3.1519
X6.254Y-2.9472
X6.254Y-4.2385
X6.2619Y-4.7425
X6.2855Y-2.8842
X6.3013Y-2.5929
X6.3451Y-2.9202
X6.3525Y-2.7464
X6.3564Y-2.2464
X6.3721Y-2.522
X6.3721Y-4.5535
X6.4036Y-4.149
X6.4115Y-4.7425
X6.4155Y-2.7306
X6.6162Y-3.27
X6.632Y-1.9314
X6.6356Y-5.1325
X6.6556Y-2.6716
X6.6871Y-3.207
X6.695Y-3.9866
X6.695Y-4.522
X6.7098Y-5.0092
X6.7186Y-2.396
X6.7265Y-4.9078
X6.7501Y-5.018
X6.7895Y-3.4432
X6.7895Y-6.0102
X6.8525Y-5.9393
X6.886Y-2.4938
X6.9233Y-2.5062
X6.9391Y-4.7818
X6.9548Y-5.9708
X6.9706Y-1.8448
X6.9706Y-2.0968
X6.9706Y-3.2936
X7.0026Y-3.8611
X7.0257Y-3.0417
X7.0533Y-2.3291
X7.0674Y-2.4062
X7.0729Y-5.7425
X7.1753Y-1.8448
X7.2462Y-3.1519
X7.2485Y-3.1936
X7.2659Y-5.707
X7.2777Y-4.018
X7.3013Y-1.9393
X7.3249Y-2.2779
X7.3249Y-3.8291
X7.4115Y-3.7031
X7.4138Y-3.0282
X7.5296Y-1.7188
X7.5296Y-1.8763
X7.5296Y-2.0968
X7.5533Y-3.4826
X7.5611Y-1.3409
X7.5661Y-3.6401
X7.5661Y-3.8291
X7.569Y-1.9078
X7.569Y-2.0968
X7.5735Y-5.3532
X7.5947Y-3.8921
X7.6005Y-3.7188
X7.6084Y-1.6401
X7.6162Y-2.6322
X7.632Y-2.8763
X7.6399Y-3.6795
X7.6714Y-3.7188
X7.6792Y-5.2385
X7.6871Y-1.8763
X7.7029Y-4.3094
X7.7265Y-3.774
X7.7973Y-2.6086
X7.8288Y-2.8054
X7.8414Y-2.6086
X7.8446Y-2.3173
X7.8469Y-5.2251
X7.8525Y-4.9944
X7.8682Y-2.8054
X7.884Y-4.7267
X7.8918Y-3.585
X7.8997Y-1.7897
X7.9233Y-1.4747
X7.9233Y-2.2779
X8.0021Y-2.5452
X8.0336Y-3.8527
X8.0493Y-3.3173
X8.1438Y-4.9916
X8.1674Y-3.0259
X8.1989Y-4.8448
X8.2147Y-2.3881
X8.2327Y-3.2881
X8.254Y-2.1598
X8.254Y-2.9708
X8.254Y-3.8183
X8.3092Y-3.1913
X8.3485Y-1.7031
X8.4666Y-3.149
X8.4903Y-3.7031
X8.506Y-4.0102
X8.5139Y-3.8921
X8.5218Y-1.2464
X8.5454Y-4.6007
X8.5696Y-3.6564
X8.5926Y-4.8212
X8.6084Y-2.6795
X8.6162Y-3.0889
X8.6399Y-4.7897
X8.6477Y-1.6716
X8.6556Y-3.0889
X8.6792Y-2.4196
X8.6871Y-1.3409
X8.758Y-3.5141
X8.8938Y-3.8074
X8.9784Y-3.522
X8.9808Y-3.7763
X9.0021Y-2.0102
X9.0021Y-2.2858
X9.0099Y-3.144
X9.0572Y-3.081
X9.0966Y-3.711
X9.1989Y-1.6795
X9.254Y-2.3173
X9.2855Y-2.2858
X9.3058Y-2.9595
X9.3249Y-3.7425
X9.4036Y-2.6716
X9.4036Y-3.711
X9.5212Y-2.5383
X9.5218Y-1.7267
X9.557Y-2.9907
X9.5611Y-2.8999
X9.569Y-2.2779
X9.5769Y-2.9472
X9.6556Y-3.6401
X9.6635Y-1.4826
X9.6714Y-3.3724
X9.76Y-3.5332
X9.7973Y-3.2306
X9.7973Y-3.5456
X9.8288Y-3.2593
X9.8288Y-3.5692
X9.8446Y-2.3724
X9.8918Y-2.9787
X9.9784Y-2.144
X10.1281Y-3.149
X10.1359Y-2.6637
X10.2383Y-3.0417
T3
X5.0119Y-4.8645
X5.0119Y-4.9432
X6.4883Y-4.3527
X6.4883Y-4.4314
T4
X4.9942Y-4.5495
X4.9942Y-4.7464
X5.13Y-4.8783
X5.23Y-4.8783
X5.33Y-4.8783
X5.43Y-4.8783
X5.5651Y-4.5495
X5.5651Y-4.648
X5.5651Y-4.7464
X5.6005Y-5.9944
X5.7005Y-5.9944
X5.8005Y-5.9944
X5.9005Y-5.9944
X5.9194Y-4.5495
X5.9194Y-4.648
X5.9194Y-4.7464
X6.0702Y-4.4177
X6.1702Y-4.4177
X6.2702Y-4.4177
X6.3702Y-4.4177
X6.4903Y-4.5495
X6.4903Y-4.7464
T2
G00X5.5721Y-2.1342
M15
G01X5.5721Y-2.1578
M16
G05
G00X5.5721Y-2.2889
M15
G01X5.5721Y-2.3322
M16
G05
G00X5.9123Y-2.1342
M15
G01X5.9123Y-2.1578
M16
G05
G00X5.9123Y-2.2889
M15
G01X5.9123Y-2.3322
M16
G05
T4
G00X5.2078Y-5.2511
M15
G01X5.1881Y-5.2511
M16
G05
G00X5.1881Y-5.3511
M15
G01X5.2078Y-5.3511
M16
G05
G00X5.1881Y-5.4511
M15
G01X5.2078Y-5.4511
M16
G05
G00X5.1881Y-5.5511
M15
G01X5.2078Y-5.5511
M16
G05
G00X5.1881Y-5.6511
M15
G01X5.2078Y-5.6511
M16
G05
T5
G00X5.5355Y-5.0653
M15
G01X5.5159Y-5.0653
M16
G05
G00X5.5355Y-5.8369
M15
G01X5.5159Y-5.8369
M16
G05
G00X5.9686Y-5.0653
M15
G01X5.9489Y-5.0653
M16
G05
G00X5.9686Y-5.8369
M15
G01X5.9489Y-5.8369
M16
G05
T0
M30
