M48
; DRILL file {KiCad (5.1.10)-1} date 09/08/21 22:09:29
; FORMAT={-:-/ absolute / inch / decimal}
; #@! TF.CreationDate,2021-09-08T22:09:29-07:00
; #@! TF.GenerationSoftware,Kicad,Pcbnew,(5.1.10)-1
; #@! TF.FileFunction,Plated,1,2,PTH
FMAT,2
INCH
T1C0.0157
T2C0.0236
T3C0.0300
T4C0.0394
T5C0.1181
%
G90
G05
T1
X1.3879Y-2.3803
X1.5533Y-2.4826
X1.6084Y-3.5062
X1.6399Y-3.5456
X1.7186Y-1.6952
X1.8052Y-2.6558
X1.8446Y-2.6007
X1.8525Y-1.7482
X1.884Y-1.8054
X1.9536Y-3.1275
X1.9721Y-2.8862
X1.9828Y-2.7991
X2.0236Y-2.9816
X2.0257Y-2.1125
X2.0339Y-3.6787
X2.0437Y-1.825
X2.0483Y-2.9076
X2.0493Y-1.018
X2.0659Y-3.224
X2.1175Y-3.0208
X2.1587Y-1.0485
X2.1837Y-1.0789
X2.1989Y-1.1362
X2.2855Y-3.7503
X2.2962Y-2.1728
X2.3407Y-1.4354
X2.3958Y-3.0381
X2.4115Y-1.1548
X2.4194Y-3.7346
X2.443Y-2.3176
X2.4509Y-3.7661
X2.5313Y-1.4451
X2.5847Y-3.1204
X2.6005Y-3.0578
X2.669Y-1.5015
X2.7029Y-1.1846
X2.7206Y-2.4901
X2.7422Y-3.0259
X2.7588Y-1.2027
X2.7659Y-1.6322
X2.7659Y-4.7031
X2.8603Y-0.9472
X2.9155Y-3.1677
X2.9919Y-4.0519
X3.0021Y-4.2621
X3.0414Y-0.9787
X3.0414Y-1.7661
X3.0572Y-2.3649
X3.1044Y-4.0732
X3.1359Y-4.3173
X3.1592Y-4.0436
X3.1596Y-2.3942
X3.1753Y-3.5771
X3.1837Y-3.202
X3.191Y-2.4515
X3.2068Y-3.2936
X3.2304Y-4.1913
X3.2383Y-3.2621
X3.2383Y-3.5771
X3.2984Y-3.5664
X3.3639Y-1.7113
X3.3691Y-1.1252
X3.3721Y-3.5062
X3.3721Y-4.9708
X3.38Y-2.4651
X3.4036Y-3.333
X3.4265Y-1.1118
X3.4588Y-1.6795
X3.4722Y-4.3038
X3.4745Y-2.6322
X3.4745Y-5.0495
X3.4903Y-1.7086
X3.5218Y-1.7661
X3.5477Y-4.2913
X3.6084Y-3.3488
X3.6544Y-2.8066
X3.6714Y-1.7958
X3.6714Y-4.2761
X3.7265Y-1.3645
X3.74Y-4.4321
X3.7489Y-4.3153
X3.7572Y-4.6708
X3.7659Y-1.144
X3.7786Y-1.8355
X3.821Y-1.9944
X3.8469Y-2.9685
X3.8603Y-4.4511
X3.8761Y-1.081
X3.9076Y-3.774
X3.9262Y-1.9994
X3.9525Y-4.5794
X3.9729Y-2.0866
X3.9869Y-3.8521
X4.0178Y-4.6007
X4.0933Y-3.1367
X4.0966Y-5.4905
X4.1162Y-2.2582
X4.1202Y-1.2779
X4.1832Y-1.2464
X4.2005Y-4.7645
X4.258Y-4.7228
X4.2957Y-3.2047
X4.355Y-4.106
X4.4125Y-2.6695
X4.4194Y-3.3413
X4.4224Y-3.2749
X4.4233Y-2.4629
X4.4273Y-1.5456
X4.5039Y-2.3611
X4.5296Y-4.8606
X4.5533Y-4.1519
X4.5832Y-1.9413
X4.596Y-4.0372
X4.5989Y-2.5472
X4.5989Y-4.8353
X4.6155Y-3.3785
X4.6454Y-5.1149
X4.6635Y-4.8212
X4.6725Y-2.0436
X4.696Y-1.7423
X4.7Y-4.7897
X4.7107Y-3.5141
X4.7344Y-5.1598
X4.7383Y-5.5385
X4.7642Y-2.6653
X4.7822Y-4.2155
X4.783Y-2.5757
X4.7855Y-1.7385
X4.7973Y-4.8921
X4.8052Y-3.9393
X4.8178Y-2.1027
X4.8367Y-3.8999
X4.8399Y-5.82
X4.8525Y-3.459
X4.8601Y-1.8131
X4.874Y-3.9704
X4.9284Y-1.8322
X4.9312Y-1.9866
X4.9312Y-5.3094
X4.9627Y-3.522
X4.968Y-2.6899
X4.9942Y-3.5535
X5.0178Y-3.9973
X5.019Y-5.7532
X5.0257Y-1.9944
X5.0336Y-2.7976
X5.0414Y-5.1519
X5.0647Y-3.396
X5.0729Y-5.3094
X5.0729Y-5.9708
X5.0999Y-3.3702
X5.1037Y-1.9629
X5.1202Y-6.0732
X5.1387Y-3.3287
X5.1438Y-4.7503
X5.1567Y-3.2779
X5.191Y-6.0102
X5.198Y-5.8198
X5.1989Y-2.8133
X5.2304Y-2.7532
X5.2383Y-4.5535
X5.2698Y-6.0732
X5.2777Y-4.0338
X5.2809Y-2.0936
X5.3091Y-3.3595
X5.3092Y-3.2808
X5.3092Y-3.459
X5.3092Y-3.3201
X5.3094Y-3.3989
X5.3305Y-2.0991
X5.3328Y-4.648
X5.3407Y-3.522
X5.3407Y-3.585
X5.3485Y-3.8688
X5.3485Y-6.018
X5.3784Y-2.0578
X5.38Y-3.6243
X5.4194Y-5.1963
X5.443Y-2.8133
X5.443Y-5.2306
X5.4588Y-2.8527
X5.4666Y-3.0023
X5.4811Y-2.1422
X5.5139Y-2.1204
X5.5375Y-3.0417
X5.6162Y-2.4669
X5.6635Y-3.9973
X5.6792Y-5.1963
X5.7029Y-5.4511
X5.7107Y-4.0102
X5.7186Y-5.2306
X5.7501Y-4.6795
X5.7501Y-6.0732
X5.7558Y-3.9704
X5.7659Y-4.2385
X5.7664Y-4.1918
X5.7973Y-3.0023
X5.7973Y-4.3015
X5.7973Y-5.2149
X5.8682Y-2.4669
X5.8918Y-2.8133
X5.9391Y-3.0417
X5.9627Y-2.7818
X5.9942Y-2.8133
X5.9963Y-2.9629
X6.0021Y-2.144
X6.0021Y-3.7976
X6.0021Y-4.2671
X6.0021Y-4.7818
X6.0021Y-5.2228
X6.0257Y-2.8527
X6.0336Y-2.1677
X6.0572Y-4.5535
X6.0651Y-2.7532
X6.1044Y-2.7818
X6.1359Y-2.7246
X6.1381Y-4.1519
X6.1596Y-4.7503
X6.1667Y-4.2927
X6.1753Y-2.0417
X6.191Y-3.1991
X6.1989Y-4.27
X6.2147Y-5.1498
X6.2225Y-4.1913
X6.2383Y-3.1519
X6.2462Y-4.648
X6.254Y-4.2385
X6.2855Y-2.8133
X6.3367Y-5.7138
X6.3485Y-2.9629
X6.3564Y-4.7818
X6.3643Y-4.5535
X6.3721Y-2.0098
X6.3721Y-3.1991
X6.3879Y-5.1204
X6.4273Y-5.1834
X6.4332Y-5.4743
X6.4453Y-1.9338
X6.473Y-2.7796
X6.5218Y-4.9629
X6.5645Y-4.0018
X6.5847Y-3.5614
X6.5847Y-3.9393
X6.5853Y-1.7316
X6.5966Y-5.7464
X6.6005Y-5.3251
X6.6157Y-4.986
X6.6162Y-3.585
X6.6162Y-3.8999
X6.6477Y-3.8684
X6.6571Y-3.4751
X6.6678Y-5.7468
X6.6918Y-5.5558
X6.695Y-4.9472
X6.7009Y-3.9688
X6.7501Y-1.648
X6.7501Y-1.7346
X6.7678Y-5.8066
X6.7839Y-5.1857
X6.797Y-4.2306
X6.7973Y-4.1834
X6.8052Y-5.0653
X6.8143Y-1.8566
X6.8154Y-2.6975
X6.8166Y-1.9873
X6.821Y-3.4511
X6.8283Y-2.5451
X6.9186Y-5.3377
X6.9452Y-2.5112
X6.9548Y-4.648
X6.9863Y-4.8842
X6.9863Y-4.9393
X7.0133Y-2.36
X7.0414Y-1.6004
X7.0966Y-3.3488
X7.1146Y-1.5164
X7.1281Y-2.3881
X7.1996Y-4.7983
X7.2091Y-4.7448
X7.2513Y-3.1255
X7.35Y-4.0209
X7.3598Y-2.2178
X7.3643Y-1.1677
X7.4171Y-3.0393
X7.447Y-5.4236
X7.4509Y-2.2779
X7.4745Y-2.1519
X7.4745Y-3.8999
X7.4967Y-4.5989
X7.5296Y-4.5062
X7.5611Y-3.774
X7.5666Y-1.9756
X7.6162Y-1.1279
X7.6218Y-4.4173
X7.6263Y-4.6906
X7.6475Y-4.6309
X7.6477Y-3.0177
X7.6572Y-5.0625
X7.7131Y-1.0282
X7.7265Y-2.9393
X7.7521Y-1.8688
X7.7548Y-4.4031
X7.7588Y-4.3243
X7.8131Y-2.9551
X7.8655Y-2.6452
X7.8859Y-4.2603
X7.9425Y-3.2036
X7.965Y-4.3353
X8.0336Y-4.2779
X8.0572Y-1.7818
X8.0627Y-2.5433
X8.0729Y-4.9629
X8.0919Y-3.3942
X8.096Y-3.4911
X8.0966Y-1.0807
X8.1176Y-3.5532
X8.1206Y-3.4261
X8.1275Y-3.2706
X8.1674Y-0.9944
X8.1736Y-3.3263
X8.1753Y-3.27
X8.1832Y-3.3645
X8.2105Y-4.1084
X8.2619Y-1.7822
X8.2723Y-3.1999
X8.3013Y-3.2779
X8.3092Y-4.1283
X8.3131Y-4.0299
X8.3249Y-2.4511
X8.3304Y-1.7438
X8.3322Y-3.995
X8.3575Y-4.0259
X8.406Y-4.1227
X8.4115Y-4.0732
X8.4509Y-1.7507
X8.4666Y-0.8999
X8.474Y-4.0147
X8.4745Y-0.9787
X8.5026Y-3.9832
X8.5296Y-2.3724
X8.5611Y-1.018
X8.6714Y-3.1283
X8.6792Y-1.599
X8.7265Y-4.6637
X8.7344Y-2.395
X8.758Y-3.0657
X8.7777Y-1.6362
X8.7879Y-1.1102
X8.8068Y-2.4134
X8.8525Y-3.0653
X8.8603Y-3.3251
X8.8635Y-1.5743
X8.893Y-1.4432
X8.9147Y-1.659
X8.9643Y-1.2598
X9.0178Y-2.2683
X9.0572Y-3.6716
X9.0662Y-1.5066
X9.0887Y-2.3173
X9.0966Y-3.6795
X9.1123Y-1.1759
X9.1123Y-3.0972
X9.2147Y-1.9472
X9.2942Y-1.0992
X9.3304Y-3.057
X9.3564Y-1.081
X9.3609Y-2.8954
X9.3895Y-1.8622
X9.406Y-2.9921
X9.4328Y-2.9055
X9.4332Y-3.0783
X9.4914Y-2.7425
X9.5344Y-3.0094
X9.5708Y-2.6021
X9.63Y-3.1074
X9.6501Y-2.6188
X9.6871Y-1.7661
X9.6871Y-2.5539
X9.7265Y-3.4196
X9.782Y-3.4098
X9.8206Y-2.9539
X10.0021Y-2.4432
X10.3407Y-3.0023
T3
X5.0119Y-4.8645
X5.0119Y-4.9432
X5.941Y-4.8645
X5.941Y-4.9432
T4
X4.9942Y-4.5495
X4.9942Y-4.7464
X5.13Y-4.8783
X5.23Y-4.8783
X5.33Y-4.8783
X5.43Y-4.8783
X5.5651Y-4.5495
X5.5651Y-4.648
X5.5651Y-4.7464
X5.6005Y-5.9944
X5.7005Y-5.9944
X5.8005Y-5.9944
X5.9005Y-5.9944
X5.9194Y-4.5495
X5.9194Y-4.648
X5.9194Y-4.7464
X6.0592Y-4.8783
X6.1592Y-4.8783
X6.2592Y-4.8783
X6.3592Y-4.8783
X6.4903Y-4.5495
X6.4903Y-4.7464
T2
G00X5.5721Y-2.1342
M15
G01X5.5721Y-2.1578
M16
G05
G00X5.5721Y-2.2889
M15
G01X5.5721Y-2.3322
M16
G05
G00X5.9123Y-2.1342
M15
G01X5.9123Y-2.1578
M16
G05
G00X5.9123Y-2.2889
M15
G01X5.9123Y-2.3322
M16
G05
T4
G00X5.2078Y-5.2511
M15
G01X5.1881Y-5.2511
M16
G05
G00X5.1881Y-5.3511
M15
G01X5.2078Y-5.3511
M16
G05
G00X5.1881Y-5.4511
M15
G01X5.2078Y-5.4511
M16
G05
G00X5.1881Y-5.5511
M15
G01X5.2078Y-5.5511
M16
G05
G00X5.1881Y-5.6511
M15
G01X5.2078Y-5.6511
M16
G05
T5
G00X5.5355Y-5.0653
M15
G01X5.5159Y-5.0653
M16
G05
G00X5.5355Y-5.8369
M15
G01X5.5159Y-5.8369
M16
G05
G00X5.9686Y-5.0653
M15
G01X5.9489Y-5.0653
M16
G05
G00X5.9686Y-5.8369
M15
G01X5.9489Y-5.8369
M16
G05
T0
M30
