M48
; DRILL file {KiCad (5.1.10)-1} date 07/25/21 08:46:20
; FORMAT={-:-/ absolute / inch / decimal}
; #@! TF.CreationDate,2021-07-25T08:46:20-07:00
; #@! TF.GenerationSoftware,Kicad,Pcbnew,(5.1.10)-1
; #@! TF.FileFunction,NonPlated,1,2,NPTH
FMAT,2
INCH
T1C0.0256
T2C0.0630
T3C0.0670
T4C0.1181
T5C0.1570
%
G90
G05
T1
X5.6284Y-2.2897
X5.856Y-2.2897
T2
X5.53Y-4.8783
X6.4592Y-4.8783
T3
X1.3607Y-2.7377
X1.6769Y-2.0598
X1.7233Y-2.9068
X1.9305Y-3.2858
X1.993Y-1.3818
X2.0394Y-2.2288
X2.2467Y-2.6079
X2.293Y-3.4548
X2.3555Y-1.5509
X2.5628Y-1.9299
X2.6092Y-2.7769
X2.6917Y-3.4235
X2.8789Y-1.252
X2.9253Y-2.099
X3.0078Y-2.7456
X3.0368Y-4.4533
X3.0542Y-3.5926
X3.2414Y-1.421
X3.3239Y-2.0676
X3.3703Y-2.9146
X3.3994Y-4.6223
X3.6025Y-3.2401
X3.6401Y-1.3897
X3.6865Y-2.2367
X3.7703Y-4.8365
X3.9187Y-2.5622
X3.9651Y-3.4092
X4.0026Y-1.5587
X4.0979Y-5.0659
X4.2348Y-1.8842
X4.2389Y-3.6454
X4.2812Y-2.7312
X4.426Y-5.3412
X4.555Y-2.9675
X4.5973Y-2.0533
X4.6014Y-3.8145
X4.7089Y-5.6241
X4.8712Y-2.2896
X4.9176Y-3.1365
X5.2337Y-2.4586
X6.2506Y-2.4586
X6.5667Y-3.1365
X6.6131Y-2.2896
X6.7754Y-5.6241
X6.8828Y-3.8145
X6.8869Y-2.0533
X6.9292Y-2.9675
X7.0582Y-5.3412
X7.203Y-2.7312
X7.2454Y-3.6454
X7.2494Y-1.8842
X7.3863Y-5.0659
X7.4817Y-1.5587
X7.5192Y-3.4092
X7.5656Y-2.5622
X7.714Y-4.8365
X7.7978Y-2.2367
X7.8442Y-1.3897
X7.8817Y-3.2401
X8.0849Y-4.6223
X8.1139Y-2.9146
X8.1603Y-2.0676
X8.2428Y-1.421
X8.4301Y-3.5926
X8.4474Y-4.4533
X8.4765Y-2.7456
X8.5589Y-2.099
X8.6053Y-1.252
X8.7926Y-3.4235
X8.8751Y-2.7769
X8.9215Y-1.9299
X9.1287Y-1.5509
X9.1912Y-3.4548
X9.2376Y-2.6079
X9.4449Y-2.2288
X9.4913Y-1.3818
X9.5537Y-3.2858
X9.761Y-2.9068
X9.8074Y-2.0598
X10.1235Y-2.7377
T4
X1.3668Y-2.9613
X1.6357Y-2.9763
X1.683Y-2.2833
X1.9366Y-3.5093
X1.9518Y-2.2983
X1.9991Y-1.6054
X2.2055Y-3.5243
X2.2528Y-2.8314
X2.2679Y-1.6204
X2.5216Y-2.8464
X2.5689Y-2.1534
X2.6978Y-3.647
X2.8377Y-2.1685
X2.885Y-1.4755
X2.9666Y-3.6621
X3.0139Y-2.9691
X3.0429Y-4.6768
X3.1539Y-1.4905
X3.2827Y-2.9841
X3.3118Y-4.6918
X3.33Y-2.2912
X3.5989Y-2.3062
X3.6087Y-3.4636
X3.6462Y-1.6132
X3.7375Y-5.0577
X3.8775Y-3.4787
X3.915Y-1.6282
X3.9248Y-2.7857
X3.9996Y-5.1191
X4.1936Y-2.8007
X4.2409Y-2.1077
X4.245Y-3.869
X4.3553Y-5.5533
X4.5098Y-2.1228
X4.5138Y-3.884
X4.5611Y-3.191
X4.6028Y-5.6594
X4.83Y-3.206
X4.8773Y-2.5131
X5.1461Y-2.5281
X6.4257Y-2.5976
X6.61Y-2.4013
X6.7419Y-3.2755
X6.9262Y-3.0793
X6.9875Y-5.6948
X7.058Y-3.9535
X7.0621Y-2.1923
X7.0936Y-5.4473
X7.2423Y-3.7572
X7.2464Y-1.996
X7.3782Y-2.8702
X7.5625Y-2.6739
X7.5829Y-5.1724
X7.6568Y-1.6977
X7.6943Y-3.5482
X7.7304Y-4.9471
X7.8411Y-1.5014
X7.8786Y-3.3519
X7.973Y-2.3757
X8.1573Y-2.1794
X8.26Y-4.7613
X8.2891Y-3.0536
X8.418Y-1.56
X8.4444Y-4.565
X8.4734Y-2.8573
X8.6023Y-1.3637
X8.6052Y-3.7316
X8.7341Y-2.238
X8.7895Y-3.5353
X8.9184Y-2.0417
X9.0502Y-2.9159
X9.2345Y-2.7196
X9.3039Y-1.6899
X9.3664Y-3.5938
X9.4882Y-1.4936
X9.5507Y-3.3976
X9.62Y-2.3678
X9.8043Y-2.1716
X9.9362Y-3.0458
X10.1205Y-2.8495
T5
X1.542Y-2.8223
X1.8581Y-2.1443
X2.1118Y-3.3703
X2.1743Y-1.4664
X2.4279Y-2.6924
X2.744Y-2.0144
X2.8729Y-3.508
X3.0602Y-1.3365
X3.1891Y-2.8301
X3.2181Y-4.5378
X3.5052Y-2.1522
X3.7838Y-3.3246
X3.8213Y-1.4742
X3.9341Y-4.9512
X4.0999Y-2.6467
X4.4161Y-1.9687
X4.4202Y-3.73
X4.5675Y-5.4826
X4.7363Y-3.052
X5.0524Y-2.3741
X6.4318Y-2.3741
X6.748Y-3.052
X6.9168Y-5.4826
X7.0641Y-3.73
X7.0682Y-1.9687
X7.3843Y-2.6467
X7.5501Y-4.9512
X7.6629Y-1.4742
X7.7004Y-3.3246
X7.9791Y-2.1522
X8.2662Y-4.5378
X8.2952Y-2.8301
X8.4241Y-1.3365
X8.6113Y-3.508
X8.7402Y-2.0144
X9.0563Y-2.6924
X9.31Y-1.4664
X9.3725Y-3.3703
X9.6261Y-2.1443
X9.9423Y-2.8223
T0
M30
