M48
; DRILL file {KiCad (5.1.10)-1} date 12/17/21 13:55:33
; FORMAT={-:-/ absolute / inch / decimal}
; #@! TF.CreationDate,2021-12-17T13:55:33-08:00
; #@! TF.GenerationSoftware,Kicad,Pcbnew,(5.1.10)-1
; #@! TF.FileFunction,Plated,1,2,PTH
FMAT,2
INCH
T1C0.0157
T2C0.0295
T3C0.0300
T4C0.0354
T5C0.0394
T6C0.0430
T7C0.0591
T8C0.1181
%
G90
G05
T1
X1.1494Y-2.4098
X1.3147Y-2.5122
X1.3698Y-3.5358
X1.4013Y-3.5752
X1.4801Y-1.7248
X1.5667Y-2.6854
X1.6061Y-2.6303
X1.6139Y-1.7778
X1.6454Y-1.835
X1.7872Y-2.1421
X1.7932Y-2.7581
X1.8052Y-1.8546
X1.8108Y-1.0476
X1.8163Y-3.0342
X1.8895Y-3.0397
X1.9202Y-1.0781
X1.9452Y-1.1085
X1.9604Y-1.1657
X2.047Y-3.7799
X2.0576Y-2.2023
X2.1021Y-1.4649
X2.1572Y-3.1185
X2.173Y-1.1843
X2.1809Y-3.7641
X2.2045Y-2.3472
X2.2124Y-3.7956
X2.3297Y-1.2947
X2.3397Y-1.3327
X2.3462Y-3.15
X2.362Y-3.0873
X2.482Y-2.5197
X2.5037Y-3.0555
X2.5273Y-1.6618
X2.5273Y-4.7326
X2.6218Y-0.9767
X2.6769Y-3.1972
X2.7533Y-4.0814
X2.7635Y-4.2917
X2.8029Y-1.7956
X2.8029Y-1.0082
X2.8187Y-2.3944
X2.8659Y-4.1027
X2.8974Y-4.3468
X2.9206Y-4.0731
X2.921Y-2.4238
X2.9368Y-3.6067
X2.9452Y-3.2316
X2.9525Y-2.4811
X2.9683Y-3.3232
X2.9919Y-4.2208
X2.9998Y-3.6067
X2.9998Y-3.2917
X3.0324Y-3.9996
X3.0337Y-1.7956
X3.0599Y-3.5959
X3.1202Y-3.8488
X3.1254Y-1.7409
X3.1305Y-1.1548
X3.1336Y-3.5358
X3.1336Y-5.0004
X3.1415Y-2.4947
X3.1651Y-3.3626
X3.1734Y-3.6689
X3.188Y-1.1413
X3.2202Y-1.709
X3.2337Y-4.3334
X3.236Y-2.6618
X3.236Y-5.0791
X3.2517Y-1.7382
X3.2832Y-1.7956
X3.3092Y-4.3209
X3.3698Y-3.3783
X3.4159Y-2.8362
X3.4328Y-1.8254
X3.4328Y-4.3057
X3.4879Y-1.3941
X3.5273Y-1.1736
X3.54Y-1.865
X3.5824Y-2.024
X3.6084Y-2.998
X3.6376Y-1.1106
X3.669Y-3.8035
X3.6877Y-2.029
X3.714Y-4.609
X3.7344Y-2.1161
X3.7483Y-3.8817
X3.7793Y-4.6303
X3.8548Y-3.1662
X3.858Y-5.52
X3.8777Y-2.2878
X3.8816Y-1.3074
X3.9446Y-1.276
X3.962Y-4.794
X3.9737Y-2.0067
X4.0188Y-5.0758
X4.0194Y-4.7523
X4.0572Y-3.2343
X4.0647Y-1.8147
X4.1165Y-4.1356
X4.1809Y-3.3708
X4.1838Y-3.3045
X4.1848Y-2.4925
X4.2911Y-4.8901
X4.3047Y-5.1077
X4.3063Y-2.614
X4.3147Y-4.1815
X4.3462Y-4.5792
X4.3575Y-4.0667
X4.3603Y-4.8649
X4.3769Y-3.4081
X4.4047Y-1.9337
X4.4069Y-5.1444
X4.4267Y-1.8917
X4.4615Y-4.8193
X4.4637Y-2.0587
X4.4722Y-3.5437
X4.4958Y-5.1893
X4.5037Y-2.0337
X4.5257Y-2.6949
X4.5407Y-1.8677
X4.5436Y-4.245
X4.5444Y-2.6053
X4.5667Y-3.9689
X4.5807Y-1.8997
X4.5956Y-5.0617
X4.5982Y-3.9295
X4.6139Y-3.4886
X4.6242Y-5.1372
X4.6537Y-2.2467
X4.6554Y-4.2067
X4.6837Y-4.2667
X4.6927Y-2.0161
X4.6927Y-5.3389
X4.7242Y-3.5515
X4.7295Y-2.7195
X4.7557Y-3.583
X4.7872Y-2.024
X4.795Y-2.8271
X4.8029Y-5.1815
X4.8335Y-2.7669
X4.8344Y-5.3389
X4.8344Y-6.0004
X4.8613Y-3.3997
X4.8652Y-1.9925
X4.8801Y-3.583
X4.8816Y-6.1027
X4.9002Y-3.3582
X4.9053Y-4.7799
X4.9186Y-3.3967
X4.9437Y-2.4167
X4.9439Y-3.3064
X4.9525Y-6.0397
X4.9604Y-2.8429
X4.9742Y-2.7672
X4.9937Y-2.9567
X4.9998Y-4.583
X5.0048Y-2.7074
X5.0313Y-6.1027
X5.0337Y-2.7967
X5.0391Y-4.0634
X5.0424Y-2.1231
X5.0437Y-2.7467
X5.0523Y-2.9867
X5.0589Y-3.0719
X5.0706Y-3.4886
X5.0837Y-2.4367
X5.0919Y-2.1287
X5.0942Y-4.6775
X5.1021Y-3.52
X5.11Y-3.8984
X5.11Y-6.0476
X5.1809Y-5.2258
X5.2045Y-5.2602
X5.2537Y-2.1367
X5.3026Y-2.1678
X5.3137Y-4.2967
X5.3347Y-3.8672
X5.4407Y-5.2258
X5.4643Y-5.4807
X5.4722Y-4.0397
X5.4801Y-5.2602
X5.5092Y-2.4742
X5.5116Y-4.709
X5.5116Y-6.1027
X5.5173Y-4.0
X5.5273Y-4.2681
X5.5279Y-4.2214
X5.5507Y-2.4367
X5.5588Y-4.3311
X5.5588Y-5.2445
X5.6807Y-3.5912
X5.6837Y-2.1989
X5.7242Y-3.8642
X5.7337Y-2.3367
X5.7635Y-4.8114
X5.8187Y-4.583
X5.8837Y-2.1575
X5.8887Y-3.5907
X5.921Y-4.7799
X5.9337Y-2.8767
X5.9368Y-2.0712
X5.9761Y-5.1793
X5.9951Y-2.8767
X5.9951Y-2.9242
X6.0076Y-4.6775
X6.0337Y-2.9867
X6.0435Y-3.2869
X6.0525Y-2.8511
X6.0555Y-2.9248
X6.0687Y-5.2537
X6.0835Y-3.0969
X6.1179Y-4.8114
X6.1257Y-4.583
X6.1336Y-2.0394
X6.1494Y-5.15
X6.1887Y-5.213
X6.1965Y-3.8267
X6.2068Y-1.9633
X6.2281Y-5.5043
X6.2345Y-2.8091
X6.2822Y-5.0032
X6.2947Y-4.3707
X6.3259Y-4.0314
X6.3292Y-5.0102
X6.3462Y-3.5909
X6.3462Y-3.9689
X6.3545Y-4.3174
X6.358Y-5.776
X6.362Y-5.3547
X6.3642Y-4.8682
X6.3772Y-5.0156
X6.3777Y-3.9295
X6.3777Y-3.6145
X6.3777Y-3.8326
X6.3795Y-1.9067
X6.3885Y-4.2888
X6.4092Y-3.898
X6.4186Y-3.5047
X6.4565Y-4.9767
X6.4624Y-3.9984
X6.4643Y-1.8193
X6.5116Y-1.6775
X6.5116Y-1.7641
X6.5117Y-4.3807
X6.5167Y-4.8687
X6.5454Y-5.2153
X6.5584Y-4.2602
X6.5588Y-4.213
X6.5667Y-5.0948
X6.5769Y-2.7271
X6.5824Y-3.4807
X6.5898Y-2.5746
X6.6032Y-4.3472
X6.7163Y-4.6775
X6.7347Y-2.4687
X6.7478Y-4.9689
X6.7478Y-4.9137
X6.7748Y-2.3896
X6.8029Y-1.6299
X6.858Y-3.3783
X6.8761Y-1.546
X6.8895Y-2.4177
X6.8974Y-3.246
X6.9611Y-4.8278
X6.9706Y-4.7743
X7.0128Y-3.1551
X7.1115Y-4.0505
X7.1213Y-2.2473
X7.1257Y-1.1972
X7.1785Y-3.0689
X7.2084Y-5.4531
X7.2124Y-2.3074
X7.236Y-2.1815
X7.236Y-3.9295
X7.2582Y-4.6285
X7.2911Y-4.5358
X7.3226Y-3.8035
X7.3281Y-2.0051
X7.3777Y-1.1575
X7.3833Y-4.4469
X7.4092Y-3.0472
X7.4745Y-1.0578
X7.4879Y-2.9689
X7.5135Y-1.8984
X7.5746Y-2.9846
X7.6269Y-2.6748
X7.6988Y-3.1876
X7.7039Y-3.2332
X7.7265Y-4.3649
X7.795Y-4.3074
X7.8187Y-1.8114
X7.8242Y-2.5728
X7.8317Y-3.6272
X7.8344Y-4.9925
X7.8575Y-3.5206
X7.858Y-1.1102
X7.8791Y-3.5827
X7.882Y-3.4556
X7.9289Y-1.024
X7.9351Y-3.3559
X7.9368Y-3.2996
X7.9446Y-3.3941
X7.972Y-4.1379
X8.0234Y-1.8118
X8.0327Y-4.0357
X8.0338Y-3.2295
X8.0628Y-3.3074
X8.0706Y-4.1578
X8.0746Y-4.0594
X8.0864Y-2.4807
X8.0918Y-1.7733
X8.0937Y-4.0245
X8.119Y-4.0555
X8.1674Y-4.1523
X8.173Y-4.1027
X8.2124Y-1.7803
X8.2281Y-0.9295
X8.2355Y-4.0442
X8.236Y-1.0082
X8.2911Y-2.4019
X8.3226Y-1.0476
X8.4328Y-3.1578
X8.4407Y-1.6285
X8.4879Y-4.6933
X8.4958Y-2.4246
X8.5194Y-3.0952
X8.5391Y-1.6657
X8.5683Y-2.4429
X8.6139Y-3.0948
X8.6218Y-3.3547
X8.7793Y-2.2978
X8.7907Y-3.4207
X8.8187Y-3.7011
X8.8252Y-3.6532
X8.8502Y-2.3468
X8.8738Y-3.1267
X8.8738Y-1.2055
X8.9592Y-3.9137
X9.1179Y-1.1106
X9.151Y-1.8917
X9.1792Y-3.0539
X9.1809Y-3.0082
X9.1943Y-2.935
X9.3797Y-1.7847
X9.4442Y-3.1557
X9.4486Y-1.7956
X9.4486Y-2.5834
X9.4501Y-2.7342
X9.6127Y-3.3577
X9.6402Y-3.5427
X9.7007Y-2.4482
X9.7635Y-2.4728
X10.1562Y-3.0927
T2
X3.1281Y-4.0411
X3.1614Y-3.9698
X3.1946Y-3.8984
T3
X4.7734Y-4.8941
X4.7734Y-4.9728
X5.7025Y-4.8941
X5.7025Y-4.9728
T4
X4.2787Y-1.6327
X4.3501Y-1.6659
X4.4214Y-1.6992
T5
X4.7557Y-4.5791
X4.7557Y-4.776
X4.8915Y-4.9078
X4.9915Y-4.9078
X5.0915Y-4.9078
X5.1915Y-4.9078
X5.3265Y-4.5791
X5.3265Y-4.6775
X5.3265Y-4.776
X5.362Y-6.024
X5.462Y-6.024
X5.562Y-6.024
X5.662Y-6.024
X5.6809Y-4.5791
X5.6809Y-4.6775
X5.6809Y-4.776
X5.8206Y-4.9078
X5.9206Y-4.9078
X6.0206Y-4.9078
X6.1206Y-4.9078
X6.2517Y-4.5791
X6.2517Y-4.776
T6
X5.2037Y-2.2867
X5.2037Y-2.2867
X5.2037Y-2.3867
X5.2037Y-2.3867
X5.2037Y-2.4867
X5.2037Y-2.4867
X5.2037Y-2.5867
X5.2037Y-2.5867
X5.2037Y-2.6867
X5.2037Y-2.6867
X5.2037Y-2.7867
X5.2037Y-2.7867
X5.2037Y-2.8867
X5.2037Y-2.8867
X5.2037Y-2.9867
X5.2037Y-2.9867
X5.2037Y-3.0867
X5.2037Y-3.0867
X5.2037Y-3.1867
X5.2037Y-3.1867
X5.2037Y-3.2867
X5.2037Y-3.2867
X5.2037Y-3.3867
X5.2127Y-3.3867
X5.3037Y-3.1867
X5.3037Y-3.3867
X5.4037Y-3.1867
X5.4037Y-3.3867
X5.5037Y-3.1867
X5.5037Y-3.3867
X5.6037Y-3.3867
X5.7037Y-3.3867
X5.8037Y-2.2867
X5.8037Y-2.2867
X5.8037Y-2.3867
X5.8037Y-2.3867
X5.8037Y-2.4867
X5.8037Y-2.4867
X5.8037Y-2.5867
X5.8037Y-2.5867
X5.8037Y-2.6867
X5.8037Y-2.6867
X5.8037Y-2.7867
X5.8037Y-2.7867
X5.8037Y-2.8867
X5.8037Y-2.8867
X5.8037Y-2.9867
X5.8037Y-2.9867
X5.8037Y-3.0867
X5.8037Y-3.0867
X5.8037Y-3.1867
X5.8037Y-3.1867
X5.8037Y-3.2867
X5.8037Y-3.2867
X5.8037Y-3.3867
X5.8037Y-3.3867
T7
X4.2038Y-1.5977
X4.4964Y-1.7342
T5
G00X4.9693Y-5.2807
M15
G01X4.9496Y-5.2807
M16
G05
G00X4.9496Y-5.3807
M15
G01X4.9693Y-5.3807
M16
G05
G00X4.9496Y-5.4807
M15
G01X4.9693Y-5.4807
M16
G05
G00X4.9496Y-5.5807
M15
G01X4.9693Y-5.5807
M16
G05
G00X4.9496Y-5.6807
M15
G01X4.9693Y-5.6807
M16
G05
T8
G00X5.297Y-5.0948
M15
G01X5.2773Y-5.0948
M16
G05
G00X5.297Y-5.8665
M15
G01X5.2773Y-5.8665
M16
G05
G00X5.7301Y-5.0948
M15
G01X5.7104Y-5.0948
M16
G05
G00X5.7301Y-5.8665
M15
G01X5.7104Y-5.8665
M16
G05
T0
M30
