%TF.GenerationSoftware,KiCad,Pcbnew,(5.1.10)-1*%
%TF.CreationDate,2021-12-08T15:35:40-08:00*%
%TF.ProjectId,barobord,6261726f-626f-4726-942e-6b696361645f,rev?*%
%TF.SameCoordinates,Original*%
%TF.FileFunction,Soldermask,Top*%
%TF.FilePolarity,Negative*%
%FSLAX46Y46*%
G04 Gerber Fmt 4.6, Leading zero omitted, Abs format (unit mm)*
G04 Created by KiCad (PCBNEW (5.1.10)-1) date 2021-12-08 15:35:40*
%MOMM*%
%LPD*%
G01*
G04 APERTURE LIST*
%ADD10C,3.500000*%
%ADD11C,1.701800*%
%ADD12C,3.987800*%
%ADD13C,3.000000*%
%ADD14C,0.100000*%
%ADD15C,1.752600*%
%ADD16R,1.752600X1.752600*%
%ADD17R,2.000000X2.000000*%
%ADD18C,2.000000*%
%ADD19O,1.600000X2.000000*%
%ADD20O,3.800000X3.300000*%
G04 APERTURE END LIST*
D10*
%TO.C,*%
X198850215Y-116860260D03*
%TD*%
D11*
%TO.C,SW29*%
X234634933Y-66239401D03*
X225426845Y-70533203D03*
D12*
X230030889Y-68386302D03*
D13*
X234557372Y-69078148D03*
X229875768Y-74063796D03*
%TD*%
D10*
%TO.C,*%
X240653464Y-67255402D03*
%TD*%
D11*
%TO.C,SW9*%
X218575439Y-31799707D03*
X209367351Y-36093509D03*
D12*
X213971395Y-33946608D03*
D13*
X218497878Y-34638454D03*
X213816274Y-39624102D03*
%TD*%
D10*
%TO.C,*%
X224653970Y-32655708D03*
%TD*%
%TO.C,*%
X178448147Y-70061465D03*
%TD*%
%TO.C,*%
X167456750Y-151458799D03*
%TD*%
%TO.C,*%
X123053250Y-151858799D03*
%TD*%
%TO.C,*%
X93449785Y-115260260D03*
%TD*%
%TO.C,*%
X113651853Y-69461465D03*
%TD*%
%TO.C,*%
X48656536Y-74055402D03*
%TD*%
%TO.C,*%
X65456030Y-38855708D03*
%TD*%
%TO.C,SW46*%
G36*
G01*
X118994430Y-43420995D02*
X119543834Y-42242795D01*
G75*
G02*
X121005653Y-41710736I996939J-464880D01*
G01*
X121005653Y-41710736D01*
G75*
G02*
X121537712Y-43172555I-464880J-996939D01*
G01*
X120988308Y-44350755D01*
G75*
G02*
X119526489Y-44882814I-996939J464880D01*
G01*
X119526489Y-44882814D01*
G75*
G02*
X118994430Y-43420995I464880J996939D01*
G01*
G37*
G36*
G01*
X111562706Y-39955526D02*
X112112110Y-38777326D01*
G75*
G02*
X113573929Y-38245267I996939J-464880D01*
G01*
X113573929Y-38245267D01*
G75*
G02*
X114105988Y-39707086I-464880J-996939D01*
G01*
X113556584Y-40885286D01*
G75*
G02*
X112094765Y-41417345I-996939J464880D01*
G01*
X112094765Y-41417345D01*
G75*
G02*
X111562706Y-39955526I464880J996939D01*
G01*
G37*
G36*
G01*
X117471784Y-42545467D02*
X117894402Y-41639159D01*
G75*
G02*
X118891097Y-41276392I679731J-316964D01*
G01*
X118891097Y-41276392D01*
G75*
G02*
X119253864Y-42273087I-316964J-679731D01*
G01*
X118831246Y-43179395D01*
G75*
G02*
X117834551Y-43542162I-679731J316964D01*
G01*
X117834551Y-43542162D01*
G75*
G02*
X117471784Y-42545467I316964J679731D01*
G01*
G37*
G36*
G01*
X115659169Y-41700231D02*
X116081787Y-40793923D01*
G75*
G02*
X117078482Y-40431156I679731J-316964D01*
G01*
X117078482Y-40431156D01*
G75*
G02*
X117441249Y-41427851I-316964J-679731D01*
G01*
X117018631Y-42334159D01*
G75*
G02*
X116021936Y-42696926I-679731J316964D01*
G01*
X116021936Y-42696926D01*
G75*
G02*
X115659169Y-41700231I316964J679731D01*
G01*
G37*
D14*
G36*
X113529589Y-41534725D02*
G01*
X114586135Y-39268956D01*
X115945597Y-39902883D01*
X114889051Y-42168652D01*
X113529589Y-41534725D01*
G37*
%TD*%
%TO.C,J2*%
G36*
G01*
X92362894Y-100983393D02*
X91864424Y-100750953D01*
G75*
G02*
X91574210Y-99953597I253571J543785D01*
G01*
X91574210Y-99953597D01*
G75*
G02*
X92371566Y-99663383I543785J-253571D01*
G01*
X92870036Y-99895823D01*
G75*
G02*
X93160250Y-100693179I-253571J-543785D01*
G01*
X93160250Y-100693179D01*
G75*
G02*
X92362894Y-100983393I-543785J253571D01*
G01*
G37*
G36*
G01*
X91834865Y-102943925D02*
X90701979Y-102415652D01*
G75*
G02*
X90581057Y-102083422I105654J226576D01*
G01*
X90876891Y-101449005D01*
G75*
G02*
X91209121Y-101328083I226576J-105654D01*
G01*
X92342007Y-101856356D01*
G75*
G02*
X92462929Y-102188586I-105654J-226576D01*
G01*
X92167095Y-102823003D01*
G75*
G02*
X91834865Y-102943925I-226576J105654D01*
G01*
G37*
%TD*%
D15*
%TO.C,U2*%
X138232593Y-57330404D03*
X138232593Y-59870404D03*
X138232593Y-62410404D03*
X138232593Y-64950404D03*
X138232593Y-67490404D03*
X138232593Y-70030404D03*
X138232593Y-72570404D03*
X138232593Y-75110404D03*
X138232593Y-77650404D03*
X138232593Y-80190404D03*
X138232593Y-82730404D03*
X153472593Y-85270404D03*
X153472593Y-82730404D03*
X153472593Y-80190404D03*
X153472593Y-77650404D03*
X153472593Y-75110404D03*
X153472593Y-72570404D03*
X153472593Y-70030404D03*
X153472593Y-67490404D03*
X153472593Y-64950404D03*
X153472593Y-62410404D03*
X153472593Y-59870404D03*
X138232593Y-85270404D03*
X153472593Y-57330404D03*
X140772593Y-80190404D03*
X143312593Y-80190404D03*
X145852593Y-80190404D03*
%TD*%
%TO.C,U1*%
X140772593Y-85270404D03*
X143312593Y-85270404D03*
X145852593Y-85270404D03*
X148392593Y-85270404D03*
X150932593Y-85270404D03*
X153472593Y-57330404D03*
X138461193Y-85270404D03*
X153472593Y-59870404D03*
X153472593Y-62410404D03*
X153472593Y-64950404D03*
X153472593Y-67490404D03*
X153472593Y-70030404D03*
X153472593Y-72570404D03*
X153472593Y-75110404D03*
X153472593Y-77650404D03*
X153472593Y-80190404D03*
X153472593Y-82730404D03*
X153472593Y-85270404D03*
X138232593Y-82730404D03*
X138232593Y-80190404D03*
X138232593Y-77650404D03*
X138232593Y-75110404D03*
X138232593Y-72570404D03*
X138232593Y-70030404D03*
X138232593Y-67490404D03*
X138232593Y-64950404D03*
X138232593Y-62410404D03*
X138232593Y-59870404D03*
D16*
X138232593Y-57330404D03*
%TD*%
D17*
%TO.C,SW43*%
X150352593Y-115558404D03*
D18*
X150352593Y-118058404D03*
X150352593Y-120558404D03*
X164852593Y-115558404D03*
X164852593Y-120558404D03*
%TD*%
D17*
%TO.C,SW42*%
X141352593Y-120558404D03*
D18*
X141352593Y-118058404D03*
X141352593Y-115558404D03*
X126852593Y-120558404D03*
X126852593Y-115558404D03*
%TD*%
D19*
%TO.C,Brd1*%
X147332593Y-152258404D03*
X149872593Y-152258404D03*
X144792593Y-152258404D03*
X142252593Y-152258404D03*
%TD*%
D20*
%TO.C,J1*%
X140352593Y-128658404D03*
X151352593Y-128658404D03*
X151352593Y-148258404D03*
X140352593Y-148258404D03*
G36*
G01*
X133128593Y-132953404D02*
X133128593Y-133803404D01*
G75*
G02*
X132703593Y-134228404I-425000J0D01*
G01*
X131353593Y-134228404D01*
G75*
G02*
X130928593Y-133803404I0J425000D01*
G01*
X130928593Y-132953404D01*
G75*
G02*
X131353593Y-132528404I425000J0D01*
G01*
X132703593Y-132528404D01*
G75*
G02*
X133128593Y-132953404I0J-425000D01*
G01*
G37*
G36*
G01*
X132703593Y-136768404D02*
X131353593Y-136768404D01*
G75*
G02*
X130928593Y-136343404I0J425000D01*
G01*
X130928593Y-135493404D01*
G75*
G02*
X131353593Y-135068404I425000J0D01*
G01*
X132703593Y-135068404D01*
G75*
G02*
X133128593Y-135493404I0J-425000D01*
G01*
X133128593Y-136343404D01*
G75*
G02*
X132703593Y-136768404I-425000J0D01*
G01*
G37*
G36*
G01*
X132703593Y-139308404D02*
X131353593Y-139308404D01*
G75*
G02*
X130928593Y-138883404I0J425000D01*
G01*
X130928593Y-138033404D01*
G75*
G02*
X131353593Y-137608404I425000J0D01*
G01*
X132703593Y-137608404D01*
G75*
G02*
X133128593Y-138033404I0J-425000D01*
G01*
X133128593Y-138883404D01*
G75*
G02*
X132703593Y-139308404I-425000J0D01*
G01*
G37*
G36*
G01*
X132703593Y-141848404D02*
X131353593Y-141848404D01*
G75*
G02*
X130928593Y-141423404I0J425000D01*
G01*
X130928593Y-140573404D01*
G75*
G02*
X131353593Y-140148404I425000J0D01*
G01*
X132703593Y-140148404D01*
G75*
G02*
X133128593Y-140573404I0J-425000D01*
G01*
X133128593Y-141423404D01*
G75*
G02*
X132703593Y-141848404I-425000J0D01*
G01*
G37*
G36*
G01*
X132703593Y-144388404D02*
X131353593Y-144388404D01*
G75*
G02*
X130928593Y-143963404I0J425000D01*
G01*
X130928593Y-143113404D01*
G75*
G02*
X131353593Y-142688404I425000J0D01*
G01*
X132703593Y-142688404D01*
G75*
G02*
X133128593Y-143113404I0J-425000D01*
G01*
X133128593Y-143963404D01*
G75*
G02*
X132703593Y-144388404I-425000J0D01*
G01*
G37*
%TD*%
D11*
%TO.C,SW24*%
X100712849Y-86592697D03*
X91504761Y-82298895D03*
D12*
X96108805Y-84445796D03*
D13*
X98488387Y-88357993D03*
X91659882Y-87976389D03*
%TD*%
D11*
%TO.C,SW4*%
X116772343Y-52153002D03*
X107564255Y-47859200D03*
D12*
X112168299Y-50006101D03*
D13*
X114547881Y-53918298D03*
X107719376Y-53536694D03*
%TD*%
D11*
%TO.C,SW14*%
X108742596Y-69372849D03*
X99534508Y-65079047D03*
D12*
X104138552Y-67225948D03*
D13*
X106518134Y-71138145D03*
X99689629Y-70756541D03*
%TD*%
D11*
%TO.C,SW34*%
X104087610Y-128674027D03*
X95765026Y-122846491D03*
D12*
X99926318Y-125760259D03*
D13*
X101590403Y-130026231D03*
X94931904Y-128464667D03*
%TD*%
D11*
%TO.C,SW7*%
X184135745Y-47859200D03*
X174927657Y-52153002D03*
D12*
X179531701Y-50006101D03*
D13*
X184058184Y-50697947D03*
X179376580Y-55683595D03*
%TD*%
D11*
%TO.C,SW40*%
X242664680Y-83459248D03*
X233456592Y-87753050D03*
D12*
X238060636Y-85606149D03*
D13*
X242587119Y-86297995D03*
X237905515Y-91283643D03*
%TD*%
D11*
%TO.C,SW39*%
X223331742Y-86957456D03*
X214123654Y-91251258D03*
D12*
X218727698Y-89104357D03*
D13*
X223254181Y-89796203D03*
X218572577Y-94781851D03*
%TD*%
D11*
%TO.C,SW38*%
X214564259Y-113113359D03*
X205356171Y-117407161D03*
D12*
X209960215Y-115260260D03*
D13*
X214486698Y-115952106D03*
X209805094Y-120937754D03*
%TD*%
D11*
%TO.C,SW37*%
X195934974Y-122846491D03*
X187612390Y-128674027D03*
D12*
X191773682Y-125760259D03*
D13*
X196351535Y-125655579D03*
X192606804Y-131378436D03*
%TD*%
D11*
%TO.C,SW36*%
X179278852Y-135666697D03*
X172094648Y-142850901D03*
D12*
X175686750Y-139258799D03*
D13*
X180176878Y-138360773D03*
X177482801Y-144646953D03*
%TD*%
D11*
%TO.C,SW35*%
X119605352Y-142850901D03*
X112421148Y-135666697D03*
D12*
X116013250Y-139258799D03*
D13*
X116911276Y-143748927D03*
X110625096Y-141054850D03*
%TD*%
D11*
%TO.C,SW33*%
X86343829Y-117407161D03*
X77135741Y-113113359D03*
D12*
X81739785Y-115260260D03*
D13*
X84119367Y-119172457D03*
X77290862Y-118790853D03*
%TD*%
D11*
%TO.C,SW32*%
X77576346Y-91251258D03*
X68368258Y-86957456D03*
D12*
X72972302Y-89104357D03*
D13*
X75351884Y-93016554D03*
X68523379Y-92634950D03*
%TD*%
D11*
%TO.C,SW31*%
X58243408Y-87753050D03*
X49035320Y-83459248D03*
D12*
X53639364Y-85606149D03*
D13*
X56018946Y-89518346D03*
X49190441Y-89136742D03*
%TD*%
D11*
%TO.C,SW30*%
X257137508Y-69538501D03*
X247929420Y-73832303D03*
D12*
X252533464Y-71685402D03*
D13*
X257059947Y-72377248D03*
X252378343Y-77362896D03*
%TD*%
D11*
%TO.C,SW28*%
X215301995Y-69737609D03*
X206093907Y-74031411D03*
D12*
X210697951Y-71884510D03*
D13*
X215224434Y-72576356D03*
X210542830Y-77562004D03*
%TD*%
D11*
%TO.C,SW27*%
X200195239Y-82298895D03*
X190987151Y-86592697D03*
D12*
X195591195Y-84445796D03*
D13*
X200117678Y-85137642D03*
X195436074Y-90123290D03*
%TD*%
D11*
%TO.C,SW26*%
X184031937Y-92594411D03*
X174823849Y-96888213D03*
D12*
X179427893Y-94741312D03*
D13*
X183954376Y-95433158D03*
X179272772Y-100418806D03*
%TD*%
D11*
%TO.C,SW25*%
X116876151Y-96888213D03*
X107668063Y-92594411D03*
D12*
X112272107Y-94741312D03*
D13*
X114651689Y-98653509D03*
X107823184Y-98271905D03*
%TD*%
D11*
%TO.C,SW23*%
X85606093Y-74031411D03*
X76398005Y-69737609D03*
D12*
X81002049Y-71884510D03*
D13*
X83381631Y-75796707D03*
X76553126Y-75415103D03*
%TD*%
D11*
%TO.C,SW22*%
X66273155Y-70533203D03*
X57065067Y-66239401D03*
D12*
X61669111Y-68386302D03*
D13*
X64048693Y-72298499D03*
X57220188Y-71916895D03*
%TD*%
D11*
%TO.C,SW21*%
X43770580Y-73832303D03*
X34562492Y-69538501D03*
D12*
X39166536Y-71685402D03*
D13*
X41546118Y-75597599D03*
X34717613Y-75215995D03*
%TD*%
D11*
%TO.C,SW20*%
X249107761Y-52318654D03*
X239899673Y-56612456D03*
D12*
X244503717Y-54465555D03*
D13*
X249030200Y-55157401D03*
X244348596Y-60143049D03*
%TD*%
D11*
%TO.C,SW19*%
X226605186Y-49019554D03*
X217397098Y-53313356D03*
D12*
X222001142Y-51166455D03*
D13*
X226527625Y-51858301D03*
X221846021Y-56843949D03*
%TD*%
D11*
%TO.C,SW18*%
X207272248Y-52517762D03*
X198064160Y-56811564D03*
D12*
X202668204Y-54664663D03*
D13*
X207194687Y-55356509D03*
X202513083Y-60342157D03*
%TD*%
D11*
%TO.C,SW17*%
X192165492Y-65079047D03*
X182957404Y-69372849D03*
D12*
X187561448Y-67225948D03*
D13*
X192087931Y-67917794D03*
X187406327Y-72903442D03*
%TD*%
D11*
%TO.C,SW16*%
X176002191Y-75374564D03*
X166794103Y-79668366D03*
D12*
X171398147Y-77521465D03*
D13*
X175924630Y-78213311D03*
X171243026Y-83198959D03*
%TD*%
D11*
%TO.C,SW15*%
X124905897Y-79668366D03*
X115697809Y-75374564D03*
D12*
X120301853Y-77521465D03*
D13*
X122681435Y-81433662D03*
X115852930Y-81052058D03*
%TD*%
D11*
%TO.C,SW13*%
X93635840Y-56811564D03*
X84427752Y-52517762D03*
D12*
X89031796Y-54664663D03*
D13*
X91411378Y-58576860D03*
X84582873Y-58195256D03*
%TD*%
D11*
%TO.C,SW12*%
X74302902Y-53313356D03*
X65094814Y-49019554D03*
D12*
X69698858Y-51166455D03*
D13*
X72078440Y-55078652D03*
X65249935Y-54697048D03*
%TD*%
D11*
%TO.C,SW11*%
X51800327Y-56612456D03*
X42592239Y-52318654D03*
D12*
X47196283Y-54465555D03*
D13*
X49575865Y-58377752D03*
X42747360Y-57996148D03*
%TD*%
D11*
%TO.C,SW10*%
X241078014Y-35098807D03*
X231869926Y-39392609D03*
D12*
X236473970Y-37245708D03*
D13*
X241000453Y-37937554D03*
X236318849Y-42923202D03*
%TD*%
D11*
%TO.C,SW8*%
X199242501Y-35297915D03*
X190034413Y-39591717D03*
D12*
X194638457Y-37444816D03*
D13*
X199164940Y-38136662D03*
X194483336Y-43122310D03*
%TD*%
D11*
%TO.C,SW6*%
X167972444Y-58154717D03*
X158764356Y-62448519D03*
D12*
X163368400Y-60301618D03*
D13*
X167894883Y-60993464D03*
X163213279Y-65979112D03*
%TD*%
D11*
%TO.C,SW5*%
X132935644Y-62448519D03*
X123727556Y-58154717D03*
D12*
X128331600Y-60301618D03*
D13*
X130711182Y-64213815D03*
X123882677Y-63832211D03*
%TD*%
D11*
%TO.C,SW3*%
X101665587Y-39591717D03*
X92457499Y-35297915D03*
D12*
X97061543Y-37444816D03*
D13*
X99441125Y-41357013D03*
X92612620Y-40975409D03*
%TD*%
D11*
%TO.C,SW2*%
X82332649Y-36093509D03*
X73124561Y-31799707D03*
D12*
X77728605Y-33946608D03*
D13*
X80108187Y-37858805D03*
X73279682Y-37477201D03*
%TD*%
D11*
%TO.C,SW1*%
X59830074Y-39392609D03*
X50621986Y-35098807D03*
D12*
X55226030Y-37245708D03*
D13*
X57605612Y-41157905D03*
X50777107Y-40776301D03*
%TD*%
M02*
