M48
; DRILL file {KiCad (5.1.10)-1} date 12/17/21 13:55:33
; FORMAT={-:-/ absolute / inch / decimal}
; #@! TF.CreationDate,2021-12-17T13:55:33-08:00
; #@! TF.GenerationSoftware,Kicad,Pcbnew,(5.1.10)-1
; #@! TF.FileFunction,NonPlated,1,2,NPTH
FMAT,2
INCH
T1C0.0630
T2C0.0670
T3C0.1181
T4C0.1378
T5C0.1570
%
G90
G05
T1
X5.2915Y-4.9078
X6.2206Y-4.9078
T2
X1.1222Y-2.7673
X1.4383Y-2.0893
X1.4847Y-2.9363
X1.692Y-3.3154
X1.7545Y-1.4114
X1.8009Y-2.2584
X2.0081Y-2.6374
X2.0545Y-3.4844
X2.117Y-1.5804
X2.3243Y-1.9595
X2.3706Y-2.8065
X2.4531Y-3.4531
X2.6404Y-1.2815
X2.6868Y-2.1285
X2.7693Y-2.7751
X2.7983Y-4.4828
X2.8157Y-3.6221
X3.0029Y-1.4506
X3.0854Y-2.0972
X3.1318Y-2.9442
X3.1608Y-4.6519
X3.364Y-3.2697
X3.4015Y-1.4192
X3.4479Y-2.2662
X3.5317Y-4.866
X3.6801Y-2.5917
X3.7265Y-3.4387
X3.764Y-1.5883
X3.8594Y-5.0955
X3.9963Y-1.9138
X4.0004Y-3.675
X4.0427Y-2.7608
X4.1875Y-5.3708
X4.3165Y-2.9971
X4.3588Y-2.0828
X4.3629Y-3.8441
X4.4703Y-5.6536
X4.6326Y-2.3191
X4.679Y-3.1661
X4.9952Y-2.4882
X6.012Y-2.4882
X6.3282Y-3.1661
X6.3746Y-2.3191
X6.5368Y-5.6536
X6.6443Y-3.8441
X6.6484Y-2.0828
X6.6907Y-2.9971
X6.8197Y-5.3708
X6.9645Y-2.7608
X7.0068Y-3.675
X7.0109Y-1.9138
X7.1478Y-5.0955
X7.2431Y-1.5883
X7.2806Y-3.4387
X7.327Y-2.5917
X7.4754Y-4.866
X7.5593Y-2.2662
X7.6057Y-1.4192
X7.6432Y-3.2697
X7.8464Y-4.6519
X7.8754Y-2.9442
X7.9218Y-2.0972
X8.0043Y-1.4506
X8.1915Y-3.6221
X8.2089Y-4.4828
X8.2379Y-2.7751
X8.3204Y-2.1285
X8.3668Y-1.2815
X8.5541Y-3.4531
X8.6365Y-2.8065
X8.6829Y-1.9595
X8.8902Y-1.5804
X8.9527Y-3.4844
X8.9991Y-2.6374
X9.2063Y-2.2584
X9.2527Y-1.4114
X9.3152Y-3.3154
X9.5225Y-2.9363
X9.5689Y-2.0893
X9.885Y-2.7673
T3
X1.1283Y-2.9908
X1.3971Y-3.0058
X1.4444Y-2.3129
X1.6981Y-3.5389
X1.7133Y-2.3279
X1.7606Y-1.6349
X1.9669Y-3.5539
X2.0142Y-2.8609
X2.0294Y-1.6499
X2.2831Y-2.876
X2.3304Y-2.183
X2.4592Y-3.6766
X2.5992Y-2.198
X2.6465Y-1.505
X2.7281Y-3.6916
X2.7754Y-2.9987
X2.8044Y-4.7064
X2.9153Y-1.5201
X3.0442Y-3.0137
X3.0733Y-4.7214
X3.0915Y-2.3207
X3.3603Y-2.3357
X3.3701Y-3.4932
X3.4076Y-1.6428
X3.4989Y-5.0872
X3.639Y-3.5082
X3.6765Y-1.6578
X3.6863Y-2.8152
X3.7611Y-5.1487
X3.9551Y-2.8303
X4.0024Y-2.1373
X4.0065Y-3.8985
X4.1168Y-5.5829
X4.2712Y-2.1523
X4.2753Y-3.9136
X4.3226Y-3.2206
X4.3643Y-5.689
X4.5914Y-3.2356
X4.6387Y-2.5426
X4.9076Y-2.5577
X6.1872Y-2.6272
X6.3715Y-2.4309
X6.5033Y-3.3051
X6.6876Y-3.1088
X6.749Y-5.7243
X6.8195Y-3.9831
X6.8235Y-2.2218
X6.855Y-5.4768
X7.0038Y-3.7868
X7.0079Y-2.0255
X7.1397Y-2.8998
X7.324Y-2.7035
X7.3444Y-5.2019
X7.4183Y-1.7273
X7.4558Y-3.5777
X7.4918Y-4.9766
X7.6026Y-1.531
X7.6401Y-3.3814
X7.7344Y-2.4052
X7.9187Y-2.2089
X8.0215Y-4.7909
X8.0506Y-3.0832
X8.1794Y-1.5896
X8.2058Y-4.5946
X8.2349Y-2.8869
X8.3637Y-1.3933
X8.3667Y-3.7611
X8.4956Y-2.2675
X8.551Y-3.5648
X8.6799Y-2.0712
X8.8117Y-2.9455
X8.996Y-2.7492
X9.0654Y-1.7194
X9.1278Y-3.6234
X9.2497Y-1.5232
X9.3121Y-3.4271
X9.3815Y-2.3974
X9.5658Y-2.2011
X9.6976Y-3.0753
X9.8819Y-2.8791
T4
X1.6771Y-2.9451
X2.3385Y-1.5593
X3.4406Y-4.5674
X4.2359Y-2.7643
X4.6061Y-6.0083
X6.3543Y-5.9925
X6.787Y-2.7879
X7.5902Y-4.6304
X8.6061Y-1.3152
X9.236Y-2.6774
T5
X1.3035Y-2.8518
X1.6196Y-2.1739
X1.8733Y-3.3999
X1.9357Y-1.4959
X2.1894Y-2.7219
X2.5055Y-2.044
X2.6344Y-3.5376
X2.8216Y-1.366
X2.9505Y-2.8597
X2.9796Y-4.5674
X3.2667Y-2.1817
X3.5453Y-3.3542
X3.5828Y-1.5038
X3.6956Y-4.9807
X3.8614Y-2.6762
X4.1775Y-1.9983
X4.1816Y-3.7595
X4.3289Y-5.5122
X4.4978Y-3.0816
X4.8139Y-2.4036
X6.1933Y-2.4036
X6.5094Y-3.0816
X6.6783Y-5.5122
X6.8256Y-3.7595
X6.8296Y-1.9983
X7.1458Y-2.6762
X7.3116Y-4.9807
X7.4244Y-1.5038
X7.4619Y-3.3542
X7.7405Y-2.1817
X8.0276Y-4.5674
X8.0567Y-2.8597
X8.1855Y-1.366
X8.3728Y-3.5376
X8.5017Y-2.044
X8.8178Y-2.7219
X9.0715Y-1.4959
X9.1339Y-3.3999
X9.3876Y-2.1739
X9.7037Y-2.8518
T0
M30
