%TF.GenerationSoftware,KiCad,Pcbnew,(5.1.10)-1*%
%TF.CreationDate,2021-12-17T13:55:30-08:00*%
%TF.ProjectId,barobord,6261726f-626f-4726-942e-6b696361645f,rev?*%
%TF.SameCoordinates,Original*%
%TF.FileFunction,Legend,Top*%
%TF.FilePolarity,Positive*%
%FSLAX46Y46*%
G04 Gerber Fmt 4.6, Leading zero omitted, Abs format (unit mm)*
G04 Created by KiCad (PCBNEW (5.1.10)-1) date 2021-12-17 13:55:30*
%MOMM*%
%LPD*%
G01*
G04 APERTURE LIST*
%ADD10C,0.080000*%
%ADD11C,0.150000*%
%ADD12C,0.381000*%
%ADD13C,0.120000*%
%ADD14C,0.300000*%
G04 APERTURE END LIST*
D10*
X161538720Y-104771876D02*
X161707393Y-104680677D01*
X161392097Y-120187900D02*
X161271104Y-120041277D01*
X170525028Y-114421766D02*
X170446927Y-114843866D01*
X163086537Y-118493596D02*
X163086537Y-106587377D01*
X161122138Y-105394676D02*
X161179878Y-105208177D01*
X180509157Y-120308891D02*
X180340558Y-120400118D01*
X180945957Y-119535813D02*
X180925757Y-119686157D01*
X178961558Y-106587377D02*
X178961558Y-118493597D01*
X162044183Y-104602976D02*
X162094345Y-104602977D01*
X179953757Y-104602976D02*
X180003758Y-104602976D01*
X161102158Y-119535813D02*
X161102158Y-119485789D01*
X162094345Y-104602977D02*
X179953757Y-104602976D01*
X161122138Y-119686157D02*
X161102158Y-119535813D01*
X161179878Y-105208177D02*
X161271104Y-105039577D01*
X161538720Y-120308891D02*
X161392097Y-120187900D01*
X180154057Y-120457858D02*
X180003758Y-120477976D01*
X170446927Y-114843866D02*
X170431328Y-114896646D01*
X162094345Y-120477977D02*
X162044183Y-120477976D01*
X161893840Y-104622976D02*
X162044183Y-104602976D01*
X161102157Y-105544977D02*
X161122138Y-105394676D01*
X161102158Y-119485789D02*
X161102157Y-105595176D01*
X180868057Y-119872602D02*
X180776857Y-120041277D01*
X180340557Y-104680677D02*
X180509157Y-104771876D01*
X161707393Y-120400118D02*
X161538720Y-120308891D01*
X180925757Y-119686157D02*
X180868057Y-119872602D01*
X180925757Y-105394676D02*
X180945957Y-105544976D01*
X180003758Y-120477976D02*
X179953757Y-120477976D01*
X161271104Y-120041277D02*
X161179878Y-119872602D01*
X180776857Y-105039578D02*
X180868057Y-105208177D01*
X180003758Y-104602976D02*
X180154057Y-104622977D01*
X180154057Y-104622977D02*
X180340557Y-104680677D01*
X161102157Y-105595176D02*
X161102157Y-105544977D01*
X162044183Y-120477976D02*
X161893840Y-120457857D01*
X180776857Y-120041277D02*
X180655857Y-120187900D01*
X179953757Y-120477976D02*
X162094345Y-120477977D01*
X178961558Y-118493597D02*
X163086537Y-118493596D01*
X180945957Y-105544976D02*
X180945957Y-105595177D01*
X180945957Y-119485789D02*
X180945957Y-119535813D01*
X180655857Y-104892876D02*
X180776857Y-105039578D01*
X180868057Y-105208177D02*
X180925757Y-105394676D01*
X161893840Y-120457857D02*
X161707393Y-120400118D01*
X180655857Y-120187900D02*
X180509157Y-120308891D01*
X180945957Y-105595177D02*
X180945957Y-119485789D01*
X161271104Y-105039577D02*
X161392097Y-104892877D01*
X161707393Y-104680677D02*
X161893840Y-104622976D01*
X180509157Y-104771876D02*
X180655857Y-104892876D01*
X170415627Y-114949276D02*
X170190877Y-115437806D01*
X163086537Y-106587377D02*
X178961558Y-106587377D01*
X161179878Y-119872602D02*
X161122138Y-119686157D01*
X180340558Y-120400118D02*
X180154057Y-120457858D01*
X170431328Y-114896646D02*
X170415627Y-114949276D01*
X161392097Y-104892877D02*
X161538720Y-104771876D01*
X170525027Y-114263587D02*
X170525028Y-114421766D01*
X168669947Y-113180697D02*
X168550457Y-113118856D01*
X168813526Y-113284766D02*
X168669947Y-113180697D01*
X168939607Y-113415257D02*
X168813526Y-113284766D01*
X169023957Y-113531006D02*
X168939607Y-113415257D01*
X169067067Y-110921297D02*
X169095047Y-110720217D01*
X169048058Y-113572066D02*
X169023957Y-113531006D01*
X168844397Y-111378496D02*
X168983567Y-111163127D01*
X169259047Y-114193837D02*
X169206278Y-113914796D01*
X168649517Y-111567587D02*
X168702436Y-111525677D01*
X168702436Y-111525677D02*
X168844397Y-111378496D01*
X169083187Y-113626647D02*
X169048058Y-113572066D01*
X169259047Y-114287007D02*
X169259047Y-114193837D01*
X168983567Y-111163127D02*
X169067067Y-110921297D01*
X168622107Y-111589066D02*
X168649517Y-111567587D01*
X169095047Y-110720217D02*
X169095048Y-110653257D01*
X168488298Y-111675886D02*
X168622107Y-111589066D01*
X168487347Y-113095287D02*
X168388677Y-113067848D01*
X168508838Y-113103126D02*
X168487347Y-113095287D01*
X168550457Y-113118856D02*
X168508838Y-113103126D01*
X169206278Y-113914796D02*
X169083187Y-113626647D01*
X166422367Y-111778547D02*
X167911047Y-111778547D01*
X169095048Y-110566017D02*
X169041457Y-110304476D01*
X168680807Y-116428197D02*
X168288067Y-116467317D01*
X169783667Y-112704447D02*
X170130377Y-113058077D01*
X169363787Y-112290917D02*
X169235627Y-112364657D01*
X170337487Y-110492707D02*
X170337487Y-110594556D01*
X169223918Y-116293436D02*
X169021737Y-116355837D01*
X169024627Y-108766077D02*
X169091057Y-108791376D01*
X168157288Y-108613577D02*
X168270037Y-108613577D01*
X165179777Y-108613577D02*
X168157288Y-108613577D01*
X169802118Y-115928097D02*
X169763137Y-115963236D01*
X170062008Y-111605616D02*
X169717657Y-112016527D01*
X170268597Y-111131557D02*
X170062008Y-111605616D01*
X169305897Y-116260196D02*
X169259047Y-116279777D01*
X168333006Y-111743406D02*
X168358377Y-111735576D01*
X170337487Y-110728787D02*
X170268597Y-111131557D01*
X169717657Y-112016527D02*
X169363787Y-112290917D01*
X170190877Y-115437806D02*
X170161668Y-115482716D01*
X166422368Y-109856177D02*
X166422367Y-111778547D01*
X168307507Y-111749196D02*
X168333006Y-111743406D01*
X168151218Y-111769726D02*
X168307507Y-111749196D01*
X168288067Y-116467317D02*
X168157288Y-116467317D01*
X170185087Y-113138256D02*
X170241717Y-113218336D01*
X167970987Y-111778547D02*
X168151218Y-111769726D01*
X168239307Y-109856177D02*
X166422368Y-109856177D01*
X169716287Y-109187976D02*
X169765077Y-109230977D01*
X170134217Y-115527657D02*
X169979878Y-115737667D01*
X168784317Y-116410697D02*
X168731687Y-116420466D01*
X169041457Y-110304476D02*
X168881047Y-110055477D01*
X169235627Y-112364657D02*
X169339097Y-112413407D01*
X169976987Y-109472077D02*
X170145937Y-109748576D01*
X169763137Y-115963236D02*
X169725917Y-115996467D01*
X169525678Y-116141987D02*
X169305897Y-116260196D01*
X167911047Y-111778547D02*
X167970987Y-111778547D01*
X168613567Y-109905977D02*
X168332868Y-109856177D01*
X169095048Y-110653257D02*
X169095048Y-110566017D01*
X170145937Y-109748576D02*
X170173377Y-109809177D01*
X170525027Y-114112527D02*
X170525027Y-114263587D01*
X170440007Y-113659836D02*
X170525027Y-114112527D01*
X170241717Y-113218336D02*
X170440007Y-113659836D01*
X170200647Y-109869677D02*
X170296427Y-110187177D01*
X170296427Y-110187177D02*
X170337487Y-110492707D01*
X169667357Y-109143077D02*
X169716287Y-109187976D01*
X168731687Y-116420466D02*
X168680807Y-116428197D01*
X169765077Y-109230977D02*
X169976987Y-109472077D01*
X165179777Y-116467317D02*
X165179777Y-108613577D01*
X169021737Y-116355837D02*
X168784317Y-116410697D01*
X169979878Y-115737667D02*
X169802118Y-115928097D01*
X168332868Y-109856177D02*
X168239307Y-109856177D01*
X168270037Y-108613577D02*
X168608457Y-108651676D01*
X170130377Y-113058077D02*
X170185087Y-113138256D01*
X169259047Y-116279777D02*
X169223918Y-116293436D01*
X169339097Y-112413407D02*
X169783667Y-112704447D01*
X169396707Y-108947677D02*
X169667357Y-109143077D01*
X169725917Y-115996467D02*
X169525678Y-116141987D01*
X170161668Y-115482716D02*
X170134217Y-115527657D01*
X168608457Y-108651676D02*
X168958197Y-108740577D01*
X168157288Y-116467317D02*
X165179777Y-116467317D01*
X168958197Y-108740577D02*
X169024627Y-108766077D01*
X170337487Y-110594556D02*
X170337487Y-110728787D01*
X169091057Y-108791376D02*
X169396707Y-108947677D01*
X170173377Y-109809177D02*
X170200647Y-109869677D01*
X168358377Y-111735576D02*
X168488298Y-111675886D01*
X168881047Y-110055477D02*
X168613567Y-109905977D01*
X173486157Y-110055377D02*
X173325757Y-110304477D01*
X173753557Y-109905777D02*
X173486157Y-110055377D01*
X175944857Y-109856077D02*
X174127958Y-109856077D01*
X173878758Y-111675886D02*
X174008757Y-111735577D01*
X174034257Y-109856076D02*
X173753557Y-109905777D01*
X174059557Y-111749197D02*
X174215857Y-111769727D01*
X174127958Y-109856077D02*
X174034257Y-109856076D01*
X175944857Y-111778546D02*
X175944857Y-109856077D01*
X174456158Y-111778546D02*
X175944857Y-111778546D01*
X174396058Y-111778547D02*
X174456158Y-111778546D01*
X174215857Y-111769727D02*
X174396058Y-111778547D01*
X174008757Y-111735577D02*
X174034258Y-111743407D01*
X174034258Y-111743407D02*
X174059557Y-111749197D01*
X173744958Y-111589066D02*
X173878758Y-111675886D01*
X173427457Y-113415117D02*
X173343158Y-113530867D01*
X173816657Y-113118856D02*
X173697157Y-113180697D01*
X169259047Y-114386917D02*
X169259047Y-114287007D01*
X168402857Y-115201337D02*
X168718308Y-115144157D01*
X166422367Y-113044556D02*
X166422367Y-115201337D01*
X173879857Y-113095288D02*
X173858358Y-113103127D01*
X173272257Y-110720216D02*
X173300058Y-110921297D01*
X173272258Y-110653257D02*
X173272257Y-110720216D01*
X173160857Y-113914797D02*
X173108157Y-114193837D01*
X173858358Y-113103127D02*
X173816657Y-113118856D01*
X174201257Y-113047457D02*
X174096658Y-113054187D01*
X174081057Y-113056276D02*
X174055456Y-113056276D01*
X174096658Y-113054187D02*
X174081057Y-113056276D01*
X175944857Y-113044556D02*
X174374157Y-113044557D01*
X173348357Y-114972707D02*
X173648757Y-115144157D01*
X169018707Y-114972706D02*
X169198967Y-114687057D01*
X168718308Y-115144157D02*
X169018707Y-114972706D01*
X173168158Y-114687057D02*
X173348357Y-114972707D01*
X168311767Y-113056276D02*
X168286157Y-113056277D01*
X173343158Y-113530867D02*
X173319158Y-113571926D01*
X166422367Y-115201337D02*
X168297867Y-115201336D01*
X168165966Y-113047457D02*
X168036317Y-113044557D01*
X173553557Y-113284766D02*
X173427457Y-113415117D01*
X173697157Y-113180697D02*
X173553557Y-113284766D01*
X174069357Y-115201336D02*
X175944858Y-115201337D01*
X173283857Y-113626647D02*
X173160857Y-113914797D01*
X168297867Y-115201336D02*
X168402857Y-115201337D01*
X174374157Y-113044557D02*
X174330857Y-113044556D01*
X173108158Y-114386917D02*
X173168158Y-114687057D01*
X173319158Y-113571926D02*
X173283857Y-113626647D01*
X174330857Y-113044556D02*
X174201257Y-113047457D01*
X173978557Y-113067847D02*
X173879857Y-113095288D01*
X168036317Y-113044557D02*
X167993177Y-113044556D01*
X169198967Y-114687057D02*
X169259047Y-114386917D01*
X168388677Y-113067848D02*
X168311767Y-113056276D01*
X174055456Y-113056276D02*
X173978557Y-113067847D01*
X168270427Y-113054186D02*
X168165966Y-113047457D01*
X173108157Y-114287007D02*
X173108158Y-114386917D01*
X173717658Y-111567587D02*
X173744958Y-111589066D01*
X173664658Y-111525677D02*
X173717658Y-111567587D01*
X173522657Y-111378497D02*
X173664658Y-111525677D01*
X168286157Y-113056277D02*
X168270427Y-113054186D01*
X173383557Y-111163127D02*
X173522657Y-111378497D01*
X173648757Y-115144157D02*
X173964257Y-115201336D01*
X173300058Y-110921297D02*
X173383557Y-111163127D01*
X167993177Y-113044556D02*
X166422367Y-113044556D01*
X175944858Y-115201337D02*
X175944857Y-113044556D01*
X173964257Y-115201336D02*
X174069357Y-115201336D01*
X173108157Y-114193837D02*
X173108157Y-114287007D01*
X173342557Y-108766076D02*
X173408958Y-108740577D01*
X172564958Y-115928096D02*
X172387157Y-115737667D01*
X172583557Y-112704448D02*
X173027957Y-112413406D01*
X172205557Y-115482716D02*
X172176157Y-115437667D01*
X171842157Y-114408537D02*
X171842157Y-114263587D01*
X172970357Y-108947677D02*
X173276158Y-108791376D01*
X171920157Y-114843867D02*
X171842157Y-114408537D01*
X172641157Y-115996466D02*
X172604057Y-115963237D01*
X172604057Y-115963237D02*
X172564958Y-115928096D01*
X173108158Y-116279776D02*
X173061157Y-116260196D01*
X173143358Y-116293436D02*
X173108158Y-116279776D01*
X173345457Y-116355837D02*
X173143358Y-116293436D01*
X173686458Y-116428197D02*
X173635657Y-116420467D01*
X173276158Y-108791376D02*
X173342557Y-108766076D01*
X172029757Y-110594697D02*
X172029758Y-110492706D01*
X172029757Y-110728896D02*
X172029757Y-110594697D01*
X172305058Y-111605617D02*
X172098457Y-111131556D01*
X172125357Y-113218337D02*
X172182157Y-113138257D01*
X173325757Y-110304477D02*
X173272258Y-110566017D01*
X174210057Y-108613577D02*
X177187457Y-108613577D01*
X174097156Y-108613577D02*
X174210057Y-108613577D01*
X172650958Y-109187977D02*
X172699757Y-109143077D01*
X172070657Y-110187176D02*
X172166457Y-109869677D01*
X171927057Y-113659837D02*
X172125357Y-113218337D01*
X172176157Y-115437667D02*
X171951457Y-114949277D01*
X172390058Y-109472077D02*
X172602058Y-109230877D01*
X172232857Y-115527657D02*
X172205557Y-115482716D01*
X171842157Y-114263587D02*
X171842157Y-114112527D01*
X172387157Y-115737667D02*
X172232857Y-115527657D01*
X174210057Y-116467316D02*
X174066457Y-116467316D01*
X172029758Y-110492706D02*
X172070657Y-110187176D01*
X173272258Y-110566017D02*
X173272258Y-110653257D01*
X172649457Y-112016527D02*
X172305058Y-111605617D01*
X173635657Y-116420467D02*
X173582857Y-116410696D01*
X173758757Y-108651677D02*
X174097156Y-108613577D01*
X172699757Y-109143077D02*
X172970357Y-108947677D01*
X173582857Y-116410696D02*
X173345457Y-116355837D01*
X171935857Y-114896646D02*
X171920157Y-114843867D01*
X172841357Y-116141987D02*
X172641157Y-115996466D01*
X171951457Y-114949277D02*
X171935857Y-114896646D01*
X173061157Y-116260196D02*
X172841357Y-116141987D01*
X172166457Y-109869677D02*
X172193858Y-109809176D01*
X173027957Y-112413406D02*
X173131557Y-112364656D01*
X173408958Y-108740577D02*
X173758757Y-108651677D01*
X177187457Y-108613577D02*
X177187457Y-116467317D01*
X173003257Y-112290916D02*
X172649457Y-112016527D01*
X171842157Y-114112527D02*
X171927057Y-113659837D01*
X172602058Y-109230877D02*
X172650958Y-109187977D01*
X172221157Y-109748576D02*
X172390058Y-109472077D01*
X172236858Y-113058077D02*
X172583557Y-112704448D01*
X173131557Y-112364656D02*
X173003257Y-112290916D01*
X172182157Y-113138257D02*
X172236858Y-113058077D01*
X174066457Y-116467316D02*
X173686458Y-116428197D01*
X177187457Y-116467317D02*
X174210057Y-116467316D01*
X172098457Y-111131556D02*
X172029757Y-110728896D01*
X172193858Y-109809176D02*
X172221157Y-109748576D01*
X106561797Y-111423026D02*
X106645297Y-111181196D01*
X105729447Y-112029627D02*
X105885738Y-112009097D01*
X106673277Y-110913156D02*
X106673278Y-110825916D01*
X106422628Y-111638396D02*
X106561797Y-111423026D01*
X106280666Y-111785576D02*
X106422628Y-111638396D01*
X107846827Y-111391457D02*
X107640237Y-111865517D01*
X106227747Y-111827486D02*
X106280666Y-111785576D01*
X106066527Y-111935787D02*
X106200337Y-111848966D01*
X106536427Y-109000476D02*
X106602857Y-109025976D01*
X105936607Y-111995477D02*
X106066527Y-111935787D01*
X107640237Y-111865517D02*
X107295887Y-112276426D01*
X105885738Y-112009097D02*
X105911237Y-112003306D01*
X106186687Y-108911577D02*
X106536427Y-109000476D01*
X104000598Y-110116077D02*
X104000597Y-112038446D01*
X107361898Y-112964347D02*
X107708608Y-113317977D01*
X106191797Y-110165876D02*
X105911097Y-110116077D01*
X107763317Y-113398157D02*
X107819948Y-113478237D01*
X107555217Y-109731977D02*
X107724168Y-110008477D01*
X107343307Y-109490876D02*
X107555217Y-109731977D01*
X107708608Y-113317977D02*
X107763317Y-113398157D01*
X105489276Y-112038447D02*
X105549217Y-112038447D01*
X107295887Y-112276426D02*
X106942017Y-112550816D01*
X107778878Y-110129577D02*
X107874657Y-110447076D01*
X102758007Y-108873476D02*
X105735517Y-108873477D01*
X106459277Y-110315376D02*
X106191797Y-110165876D01*
X106602857Y-109025976D02*
X106669287Y-109051276D01*
X108018237Y-113919737D02*
X108103258Y-114372427D01*
X106917327Y-112673306D02*
X107361898Y-112964347D01*
X105817538Y-110116077D02*
X104000598Y-110116077D01*
X106942017Y-112550816D02*
X106813858Y-112624557D01*
X106813858Y-112624557D02*
X106917327Y-112673306D01*
X107751607Y-110069076D02*
X107778878Y-110129577D01*
X106619687Y-110564377D02*
X106459277Y-110315376D01*
X105735517Y-108873477D02*
X105848267Y-108873477D01*
X108103258Y-114372427D02*
X108103257Y-114523486D01*
X107915717Y-110854456D02*
X107915717Y-110988686D01*
X107874657Y-110447076D02*
X107915718Y-110752607D01*
X107245587Y-109402976D02*
X107294518Y-109447876D01*
X105911097Y-110116077D02*
X105817538Y-110116077D01*
X107819948Y-113478237D02*
X108018237Y-113919737D01*
X107294518Y-109447876D02*
X107343307Y-109490876D01*
X107724168Y-110008477D02*
X107751607Y-110069076D01*
X106784507Y-114174697D02*
X106661417Y-113886546D01*
X106974938Y-109207577D02*
X107245587Y-109402976D01*
X105911237Y-112003306D02*
X105936607Y-111995477D01*
X106837277Y-114453736D02*
X106784507Y-114174697D01*
X106837278Y-114546907D02*
X106837277Y-114453736D01*
X106673278Y-110980117D02*
X106673277Y-110913156D01*
X104000597Y-112038446D02*
X105489276Y-112038447D01*
X107915717Y-110988686D02*
X107846827Y-111391457D01*
X107915718Y-110752607D02*
X107915717Y-110854456D01*
X105848267Y-108873477D02*
X106186687Y-108911577D01*
X106645297Y-111181196D02*
X106673278Y-110980117D01*
X105549217Y-112038447D02*
X105729447Y-112029627D01*
X106200337Y-111848966D02*
X106227747Y-111827486D01*
X106673278Y-110825916D02*
X106619687Y-110564377D01*
X106669287Y-109051276D02*
X106974938Y-109207577D01*
X110182288Y-116223137D02*
X110143187Y-116187997D01*
X113523087Y-110115976D02*
X111706188Y-110115976D01*
X111264687Y-116688097D02*
X111213888Y-116680367D01*
X109648888Y-110447076D02*
X109744688Y-110129577D01*
X111788287Y-108873476D02*
X114765687Y-108873476D01*
X110987187Y-109000477D02*
X111336987Y-108911576D01*
X110854387Y-109051277D02*
X110920788Y-109025976D01*
X109505287Y-113919736D02*
X109703587Y-113478236D01*
X109744688Y-110129577D02*
X109772087Y-110069077D01*
X109760387Y-113398156D02*
X109815088Y-113317976D01*
X110229188Y-109447876D02*
X110277987Y-109402976D01*
X109420388Y-114523487D02*
X109420387Y-114372427D01*
X109883287Y-111865517D02*
X109676687Y-111391457D01*
X110219387Y-116256366D02*
X110182288Y-116223137D01*
X110419588Y-116401887D02*
X110219387Y-116256366D01*
X110639388Y-116520096D02*
X110419588Y-116401887D01*
X114765687Y-108873476D02*
X114765687Y-116727216D01*
X114765687Y-116727216D02*
X111788287Y-116727217D01*
X110850487Y-110825917D02*
X110850487Y-110913156D01*
X109420387Y-114372427D02*
X109505287Y-113919736D01*
X111064387Y-110315277D02*
X110903988Y-110564377D01*
X109703587Y-113478236D02*
X109760387Y-113398156D01*
X109799388Y-110008477D02*
X109968287Y-109731976D01*
X110161788Y-112964348D02*
X110606188Y-112673307D01*
X110581487Y-112550817D02*
X110227687Y-112276426D01*
X111336987Y-108911576D02*
X111675386Y-108873476D01*
X109607987Y-110988797D02*
X109607987Y-110854597D01*
X110686387Y-116539677D02*
X110639388Y-116520096D01*
X110923687Y-116615736D02*
X110721587Y-116553337D01*
X111161087Y-116670597D02*
X110923687Y-116615736D01*
X109607987Y-110752607D02*
X109648888Y-110447076D01*
X111213888Y-116680367D02*
X111161087Y-116670597D01*
X110277987Y-109402976D02*
X110548587Y-109207576D01*
X110920788Y-109025976D02*
X110987187Y-109000477D01*
X110227687Y-112276426D02*
X109883287Y-111865517D01*
X110709787Y-112624557D02*
X110581487Y-112550817D01*
X112034387Y-112038447D02*
X113523087Y-112038447D01*
X111637787Y-112009097D02*
X111794088Y-112029627D01*
X110606188Y-112673307D02*
X110709787Y-112624557D01*
X111331787Y-110165676D02*
X111064387Y-110315277D01*
X109815088Y-113317976D02*
X110161788Y-112964348D01*
X111612487Y-110115977D02*
X111331787Y-110165676D01*
X113523087Y-112038447D02*
X113523087Y-110115976D01*
X110721587Y-116553337D02*
X110686387Y-116539677D01*
X109968287Y-109731976D02*
X110180288Y-109490777D01*
X110903988Y-110564377D02*
X110850487Y-110825917D01*
X109772087Y-110069077D02*
X109799388Y-110008477D01*
X109676687Y-111391457D02*
X109607987Y-110988797D01*
X111788287Y-116727217D02*
X111644688Y-116727217D01*
X110548587Y-109207576D02*
X110854387Y-109051277D01*
X110180288Y-109490777D02*
X110229188Y-109447876D01*
X111974287Y-112038447D02*
X112034387Y-112038447D01*
X111675386Y-108873476D02*
X111788287Y-108873476D01*
X109754387Y-115697566D02*
X109529687Y-115209177D01*
X109783787Y-115742616D02*
X109754387Y-115697566D01*
X109607987Y-110854597D02*
X109607987Y-110752607D01*
X111644688Y-116727217D02*
X111264687Y-116688097D01*
X109811087Y-115787556D02*
X109783787Y-115742616D01*
X109965388Y-115997567D02*
X109811087Y-115787556D01*
X111794088Y-112029627D02*
X111974287Y-112038447D01*
X110143187Y-116187997D02*
X109965388Y-115997567D01*
X111706188Y-110115976D02*
X111612487Y-110115977D01*
X110921388Y-113790767D02*
X110897387Y-113831827D01*
X110739088Y-114174697D02*
X110686388Y-114453737D01*
X111295887Y-111827486D02*
X111323187Y-111848967D01*
X110878287Y-111181196D02*
X110961787Y-111423026D01*
X110850488Y-110980117D02*
X110878287Y-111181196D01*
X106837277Y-114646816D02*
X106837278Y-114546907D01*
X106602187Y-113790907D02*
X106517837Y-113675156D01*
X113523087Y-115461237D02*
X113523087Y-113304457D01*
X110897387Y-113831827D02*
X110862087Y-113886546D01*
X111275387Y-113440596D02*
X111131788Y-113544667D01*
X111542488Y-115461237D02*
X111647587Y-115461237D01*
X105864387Y-113316177D02*
X105848657Y-113314087D01*
X104000597Y-115461236D02*
X105876097Y-115461237D01*
X111458088Y-113355188D02*
X111436587Y-113363027D01*
X105876097Y-115461237D02*
X105981088Y-115461237D01*
X111674887Y-113314086D02*
X111659286Y-113316177D01*
X111952388Y-113304457D02*
X111909087Y-113304456D01*
X106626287Y-113831967D02*
X106602187Y-113790907D01*
X104000597Y-113304457D02*
X104000597Y-115461236D01*
X113523087Y-113304457D02*
X111952388Y-113304457D01*
X105889997Y-113316177D02*
X105864387Y-113316177D01*
X111647587Y-115461237D02*
X113523087Y-115461237D01*
X110686387Y-114546907D02*
X110686388Y-114646817D01*
X105571407Y-113304457D02*
X104000597Y-113304457D01*
X111226987Y-115404056D02*
X111542488Y-115461237D01*
X106661417Y-113886546D02*
X106626287Y-113831967D01*
X111005687Y-113675016D02*
X110921388Y-113790767D01*
X105744196Y-113307356D02*
X105614547Y-113304457D01*
X111394888Y-113378756D02*
X111275387Y-113440596D01*
X111436587Y-113363027D02*
X111394888Y-113378756D01*
X111633686Y-113316177D02*
X111556787Y-113327748D01*
X111779488Y-113307357D02*
X111674887Y-113314086D01*
X106777197Y-114946956D02*
X106837277Y-114646816D01*
X105614547Y-113304457D02*
X105571407Y-113304457D01*
X106087067Y-113363027D02*
X106065578Y-113355187D01*
X105981088Y-115461237D02*
X106296537Y-115404056D01*
X105848657Y-113314087D02*
X105744196Y-113307356D01*
X111556787Y-113327748D02*
X111458088Y-113355188D01*
X111659286Y-113316177D02*
X111633686Y-113316177D01*
X106296537Y-115404056D02*
X106596936Y-115232607D01*
X106517837Y-113675156D02*
X106391757Y-113544666D01*
X111612487Y-112003307D02*
X111637787Y-112009097D01*
X110686388Y-114453737D02*
X110686387Y-114546907D01*
X105966908Y-113327748D02*
X105889997Y-113316177D01*
X111586987Y-111995477D02*
X111612487Y-112003307D01*
X111100887Y-111638396D02*
X111242887Y-111785577D01*
X106065578Y-113355187D02*
X105966908Y-113327748D01*
X106128687Y-113378757D02*
X106087067Y-113363027D01*
X111242887Y-111785577D02*
X111295887Y-111827486D01*
X111131788Y-113544667D02*
X111005687Y-113675016D01*
X110926587Y-115232606D02*
X111226987Y-115404056D01*
X110686388Y-114646817D02*
X110746387Y-114946956D01*
X106248177Y-113440596D02*
X106128687Y-113378757D01*
X111456987Y-111935787D02*
X111586987Y-111995477D01*
X111323187Y-111848967D02*
X111456987Y-111935787D01*
X110961787Y-111423026D02*
X111100887Y-111638396D01*
X110850487Y-110913156D02*
X110850488Y-110980117D01*
X110746387Y-114946956D02*
X110926587Y-115232606D01*
X106596936Y-115232607D02*
X106777197Y-114946956D01*
X106391757Y-113544666D02*
X106248177Y-113440596D01*
X110862087Y-113886546D02*
X110739088Y-114174697D01*
X111909087Y-113304456D02*
X111779488Y-113307357D01*
X109529687Y-115209177D02*
X109514087Y-115156547D01*
X109498388Y-115103767D02*
X109420387Y-114668436D01*
X109420387Y-114668436D02*
X109420388Y-114523487D01*
X109514087Y-115156547D02*
X109498388Y-115103767D01*
X117732287Y-120717757D02*
X117581987Y-120737877D01*
X117531988Y-104862876D02*
X117581987Y-104862877D01*
X118503987Y-119946057D02*
X118446287Y-120132503D01*
X118524187Y-105855076D02*
X118524187Y-119745688D01*
X117918787Y-120660018D02*
X117732287Y-120717757D01*
X118355087Y-120301177D02*
X118234087Y-120447799D01*
X118524187Y-105804877D02*
X118524187Y-105855076D01*
X118503988Y-105654576D02*
X118524187Y-105804877D01*
X118446287Y-105468076D02*
X118503988Y-105654576D01*
X118087388Y-120568791D02*
X117918787Y-120660018D01*
X118234087Y-120447799D02*
X118087388Y-120568791D01*
X118524187Y-119745688D02*
X118524187Y-119795712D01*
X117732287Y-104882876D02*
X117918787Y-104940577D01*
X117581987Y-104862877D02*
X117732287Y-104882876D01*
X118234087Y-105152777D02*
X118355087Y-105299477D01*
X117918787Y-104940577D02*
X118087387Y-105031777D01*
X118446287Y-120132503D02*
X118355087Y-120301177D01*
X118087387Y-105031777D02*
X118234087Y-105152777D01*
X118524187Y-119795712D02*
X118503987Y-119946057D01*
X118355087Y-105299477D02*
X118446287Y-105468076D01*
X99622413Y-120737877D02*
X99472071Y-120717758D01*
X99672575Y-120737876D02*
X99622413Y-120737877D01*
X99672576Y-104862877D02*
X117531988Y-104862876D01*
X117531988Y-120737877D02*
X99672575Y-120737876D01*
X117581987Y-120737877D02*
X117531988Y-120737877D01*
X108025157Y-115103767D02*
X108009557Y-115156547D01*
X107558107Y-115997567D02*
X107380348Y-116187996D01*
X99116950Y-105031777D02*
X99285623Y-104940576D01*
X108103257Y-114523486D02*
X108103257Y-114681667D01*
X98700368Y-119946057D02*
X98680388Y-119795712D01*
X99472071Y-120717758D02*
X99285623Y-120660018D01*
X98680387Y-105804877D02*
X98700369Y-105654576D01*
X106259037Y-116688097D02*
X105866297Y-116727217D01*
X106309917Y-116680366D02*
X106259037Y-116688097D01*
X108103257Y-114681667D02*
X108025157Y-115103767D01*
X106362547Y-116670596D02*
X106309917Y-116680366D01*
X106837278Y-116539677D02*
X106802147Y-116553337D01*
X107380348Y-116187996D02*
X107341367Y-116223137D01*
X108009557Y-115156547D02*
X107993858Y-115209177D01*
X116539788Y-118753496D02*
X100664768Y-118753497D01*
X98680388Y-119745688D02*
X98680388Y-105855076D01*
X98970327Y-120447799D02*
X98849334Y-120301176D01*
X99116951Y-120568791D02*
X98970327Y-120447799D01*
X106884127Y-116520097D02*
X106837278Y-116539677D01*
X107739897Y-115742617D02*
X107712447Y-115787556D01*
X100664768Y-118753497D02*
X100664768Y-106847277D01*
X99622413Y-104862877D02*
X99672576Y-104862877D01*
X98700369Y-105654576D02*
X98758109Y-105468077D01*
X99472071Y-104882876D02*
X99622413Y-104862877D01*
X98849334Y-105299478D02*
X98970326Y-105152777D01*
X98680388Y-105855076D02*
X98680387Y-105804877D01*
X98680388Y-119795712D02*
X98680388Y-119745688D01*
X98849334Y-120301176D02*
X98758108Y-120132503D01*
X107103907Y-116401887D02*
X106884127Y-116520097D01*
X99285623Y-104940576D02*
X99472071Y-104882876D01*
X98758108Y-120132503D02*
X98700368Y-119946057D01*
X116539788Y-106847276D02*
X116539788Y-118753496D01*
X98970326Y-105152777D02*
X99116950Y-105031777D01*
X100664768Y-106847277D02*
X116539788Y-106847276D01*
X102758007Y-116727217D02*
X102758007Y-108873476D01*
X105735517Y-116727217D02*
X102758007Y-116727217D01*
X107712447Y-115787556D02*
X107558107Y-115997567D01*
X105866297Y-116727217D02*
X105735517Y-116727217D01*
X106599967Y-116615736D02*
X106362547Y-116670596D01*
X107769108Y-115697707D02*
X107739897Y-115742617D01*
X106802147Y-116553337D02*
X106599967Y-116615736D01*
X107341367Y-116223137D02*
X107304148Y-116256367D01*
X99285623Y-120660018D02*
X99116951Y-120568791D01*
X107304148Y-116256367D02*
X107103907Y-116401887D01*
X98758109Y-105468077D02*
X98849334Y-105299478D01*
X107993858Y-115209177D02*
X107769108Y-115697707D01*
D11*
%TO.C,SW29*%
X232852018Y-71616594D02*
X233274636Y-72522902D01*
X227357981Y-59834593D02*
X226451673Y-60257211D01*
X232368329Y-72945520D02*
X233274636Y-72522902D01*
X227357981Y-59834593D02*
X227780599Y-60740900D01*
X215092290Y-66657556D02*
X214669672Y-65751248D01*
X220586327Y-78439557D02*
X221492635Y-78016939D01*
X215575979Y-65328630D02*
X214669672Y-65751248D01*
X220586327Y-78439557D02*
X220163709Y-77533250D01*
%TO.C,SW9*%
X216792524Y-37176900D02*
X217215142Y-38083208D01*
X211298487Y-25394899D02*
X210392179Y-25817517D01*
X216308835Y-38505826D02*
X217215142Y-38083208D01*
X211298487Y-25394899D02*
X211721105Y-26301206D01*
X199032796Y-32217862D02*
X198610178Y-31311554D01*
X204526833Y-43999863D02*
X205433141Y-43577245D01*
X199516485Y-30888936D02*
X198610178Y-31311554D01*
X204526833Y-43999863D02*
X204104215Y-43093556D01*
D12*
%TO.C,U2*%
X130903857Y-56811176D02*
X130903857Y-87291176D01*
X130903857Y-87291176D02*
X148683857Y-87291176D01*
X148683857Y-87291176D02*
X148683857Y-56811176D01*
X148683857Y-56811176D02*
X148683857Y-54271176D01*
X148683857Y-54271176D02*
X130903857Y-54271176D01*
X130903857Y-54271176D02*
X130903857Y-56811176D01*
%TO.C,U1*%
X130903857Y-56811176D02*
X130903857Y-87291176D01*
X130903857Y-87291176D02*
X148683857Y-87291176D01*
X148683857Y-87291176D02*
X148683857Y-56811176D01*
X133443857Y-56811176D02*
X133443857Y-59351176D01*
X133443857Y-59351176D02*
X130903857Y-59351176D01*
D11*
G36*
X144725425Y-62690536D02*
G01*
X144725425Y-62990536D01*
X144625425Y-62990536D01*
X144625425Y-62690536D01*
X144725425Y-62690536D01*
G37*
X144725425Y-62690536D02*
X144725425Y-62990536D01*
X144625425Y-62990536D01*
X144625425Y-62690536D01*
X144725425Y-62690536D01*
G36*
X144525425Y-63090536D02*
G01*
X144525425Y-63190536D01*
X144425425Y-63190536D01*
X144425425Y-63090536D01*
X144525425Y-63090536D01*
G37*
X144525425Y-63090536D02*
X144525425Y-63190536D01*
X144425425Y-63190536D01*
X144425425Y-63090536D01*
X144525425Y-63090536D01*
G36*
X144725425Y-62690536D02*
G01*
X144725425Y-62790536D01*
X144225425Y-62790536D01*
X144225425Y-62690536D01*
X144725425Y-62690536D01*
G37*
X144725425Y-62690536D02*
X144725425Y-62790536D01*
X144225425Y-62790536D01*
X144225425Y-62690536D01*
X144725425Y-62690536D01*
G36*
X144325425Y-62690536D02*
G01*
X144325425Y-63490536D01*
X144225425Y-63490536D01*
X144225425Y-62690536D01*
X144325425Y-62690536D01*
G37*
X144325425Y-62690536D02*
X144325425Y-63490536D01*
X144225425Y-63490536D01*
X144225425Y-62690536D01*
X144325425Y-62690536D01*
G36*
X144725425Y-63290536D02*
G01*
X144725425Y-63490536D01*
X144625425Y-63490536D01*
X144625425Y-63290536D01*
X144725425Y-63290536D01*
G37*
X144725425Y-63290536D02*
X144725425Y-63490536D01*
X144625425Y-63490536D01*
X144625425Y-63290536D01*
X144725425Y-63290536D01*
D12*
X148683857Y-56811176D02*
X148683857Y-54271176D01*
X148683857Y-54271176D02*
X130903857Y-54271176D01*
X130903857Y-54271176D02*
X130903857Y-56811176D01*
X133443857Y-56811176D02*
X130903857Y-56811176D01*
D13*
%TO.C,SW43*%
X154793857Y-118809177D02*
G75*
G03*
X154793857Y-118809177I-3000000J0D01*
G01*
X153793857Y-112909177D02*
X157893857Y-112909177D01*
X157893857Y-124709177D02*
X153793857Y-124709177D01*
X149793857Y-124709177D02*
X145693857Y-124709177D01*
X149793857Y-112909177D02*
X145693857Y-112909177D01*
X145693857Y-112909177D02*
X145693857Y-124709177D01*
X144293857Y-115009177D02*
X143993857Y-114709177D01*
X143993857Y-114709177D02*
X144593857Y-114709177D01*
X144593857Y-114709177D02*
X144293857Y-115009177D01*
X157893857Y-112909177D02*
X157893857Y-115309177D01*
X157893857Y-117509177D02*
X157893857Y-120109177D01*
X157893857Y-122309177D02*
X157893857Y-124709177D01*
X151793857Y-118309177D02*
X151793857Y-119309177D01*
X151293857Y-118809177D02*
X152293857Y-118809177D01*
%TO.C,SW42*%
X130793857Y-118809176D02*
G75*
G03*
X130793857Y-118809176I-3000000J0D01*
G01*
X125793857Y-124709176D02*
X121693857Y-124709176D01*
X121693857Y-112909176D02*
X125793857Y-112909176D01*
X129793857Y-112909176D02*
X133893857Y-112909176D01*
X129793857Y-124709176D02*
X133893857Y-124709176D01*
X133893857Y-124709176D02*
X133893857Y-112909176D01*
X135293857Y-122609176D02*
X135593857Y-122909176D01*
X135593857Y-122909176D02*
X134993857Y-122909176D01*
X134993857Y-122909176D02*
X135293857Y-122609176D01*
X121693857Y-124709176D02*
X121693857Y-122309176D01*
X121693857Y-120109176D02*
X121693857Y-117509176D01*
X121693857Y-115309176D02*
X121693857Y-112909176D01*
X127793857Y-119309176D02*
X127793857Y-118309176D01*
X128293857Y-118809176D02*
X127293857Y-118809176D01*
%TO.C,Brd1*%
X153593858Y-154709176D02*
X126193858Y-154709176D01*
X126193858Y-154709176D02*
X126193858Y-127409176D01*
X126193858Y-127409176D02*
X153593858Y-127409176D01*
X153593858Y-127409176D02*
X153593858Y-154709176D01*
X130071858Y-134814176D02*
X153171858Y-134814176D01*
X153171858Y-134814176D02*
X153171858Y-151414176D01*
X153171858Y-151414176D02*
X130071858Y-151414176D01*
X144892858Y-154220176D02*
X135113858Y-154220176D01*
X135113858Y-154220176D02*
X135113858Y-151807176D01*
X135113858Y-151807176D02*
X144892858Y-151807176D01*
X144892858Y-154220176D02*
X144892858Y-151807176D01*
X130071858Y-151414176D02*
X126985858Y-151414176D01*
X130071858Y-134814176D02*
X126731858Y-134789176D01*
X126731858Y-134789176D02*
X126731858Y-151426176D01*
X126731858Y-151426176D02*
X126985858Y-151414176D01*
%TO.C,J1*%
X124693857Y-133109177D02*
X127193857Y-133109177D01*
X127193857Y-133109177D02*
X127193857Y-133309177D01*
X124693857Y-145209177D02*
X124693857Y-133109177D01*
X127193857Y-133309177D02*
X127193857Y-145209177D01*
X127193857Y-145209177D02*
X124693857Y-145209177D01*
X134793857Y-146209177D02*
X132793857Y-146209177D01*
X133793857Y-146209177D02*
X134793857Y-146209177D01*
X132793857Y-146209177D02*
X133793857Y-146209177D01*
X146793857Y-134209177D02*
X146793857Y-132209177D01*
X132793857Y-134209177D02*
X132793857Y-132209177D01*
X146793857Y-146209177D02*
X146793857Y-144209177D01*
X132793857Y-132209177D02*
X132793857Y-134209177D01*
X132793857Y-132209177D02*
X134793857Y-132209177D01*
X146793857Y-146209177D02*
X144793857Y-146209177D01*
X142293857Y-139209177D02*
G75*
G03*
X142293857Y-139209177I-2500000J0D01*
G01*
X132793857Y-146209177D02*
X132793857Y-144209177D01*
X146793857Y-132209177D02*
X146793857Y-134209177D01*
X146793857Y-132209177D02*
X144793857Y-132209177D01*
D11*
%TO.C,SW24*%
X93858514Y-93592744D02*
X93435896Y-94499051D01*
X99352551Y-81810742D02*
X98446244Y-81388124D01*
X92529588Y-94076433D02*
X93435896Y-94499051D01*
X99352551Y-81810742D02*
X98929933Y-82717050D01*
X86241624Y-76800394D02*
X86664242Y-75894087D01*
X80747587Y-88582396D02*
X81653894Y-89005014D01*
X87570550Y-76316705D02*
X86664242Y-75894087D01*
X80747587Y-88582396D02*
X81170205Y-87676088D01*
%TO.C,SW4*%
X109918008Y-59153049D02*
X109495390Y-60059356D01*
X115412045Y-47371047D02*
X114505738Y-46948429D01*
X108589082Y-59636738D02*
X109495390Y-60059356D01*
X115412045Y-47371047D02*
X114989427Y-48277355D01*
X102301118Y-42360699D02*
X102723736Y-41454392D01*
X96807081Y-54142701D02*
X97713388Y-54565319D01*
X103630044Y-41877010D02*
X102723736Y-41454392D01*
X96807081Y-54142701D02*
X97229699Y-53236393D01*
%TO.C,SW14*%
X101888261Y-76372896D02*
X101465643Y-77279203D01*
X107382298Y-64590894D02*
X106475991Y-64168276D01*
X100559335Y-76856585D02*
X101465643Y-77279203D01*
X107382298Y-64590894D02*
X106959680Y-65497202D01*
X94271371Y-59580546D02*
X94693989Y-58674239D01*
X88777334Y-71362548D02*
X89683641Y-71785166D01*
X95600297Y-59096857D02*
X94693989Y-58674239D01*
X88777334Y-71362548D02*
X89199952Y-70456240D01*
%TO.C,SW34*%
X96160188Y-135440979D02*
X95586611Y-136260131D01*
X103616681Y-124792003D02*
X102797529Y-124218426D01*
X94767459Y-135686555D02*
X95586611Y-136260131D01*
X103616681Y-124792003D02*
X103043105Y-125611155D01*
X91574976Y-117581085D02*
X92148553Y-116761933D01*
X84118483Y-128230061D02*
X84937635Y-128803638D01*
X92967705Y-117335509D02*
X92148553Y-116761933D01*
X84118483Y-128230061D02*
X84692059Y-127410909D01*
%TO.C,SW7*%
X182352829Y-53236393D02*
X182775447Y-54142701D01*
X176858792Y-41454392D02*
X175952484Y-41877010D01*
X181869140Y-54565319D02*
X182775447Y-54142701D01*
X176858792Y-41454392D02*
X177281410Y-42360699D01*
X164593101Y-48277355D02*
X164170483Y-47371047D01*
X170087138Y-60059356D02*
X170993446Y-59636738D01*
X165076790Y-46948429D02*
X164170483Y-47371047D01*
X170087138Y-60059356D02*
X169664520Y-59153049D01*
%TO.C,SW40*%
X240881764Y-88836441D02*
X241304382Y-89742749D01*
X235387727Y-77054440D02*
X234481419Y-77477058D01*
X240398075Y-90165367D02*
X241304382Y-89742749D01*
X235387727Y-77054440D02*
X235810345Y-77960747D01*
X223122036Y-83877403D02*
X222699418Y-82971095D01*
X228616073Y-95659404D02*
X229522381Y-95236786D01*
X223605725Y-82548477D02*
X222699418Y-82971095D01*
X228616073Y-95659404D02*
X228193455Y-94753097D01*
%TO.C,SW39*%
X221548827Y-92334648D02*
X221971445Y-93240956D01*
X216054790Y-80552647D02*
X215148482Y-80975265D01*
X221065138Y-93663574D02*
X221971445Y-93240956D01*
X216054790Y-80552647D02*
X216477408Y-81458954D01*
X203789099Y-87375610D02*
X203366481Y-86469302D01*
X209283136Y-99157611D02*
X210189444Y-98734993D01*
X204272788Y-86046684D02*
X203366481Y-86469302D01*
X209283136Y-99157611D02*
X208860518Y-98251304D01*
%TO.C,SW38*%
X212781343Y-118490551D02*
X213203961Y-119396859D01*
X207287306Y-106708550D02*
X206380998Y-107131168D01*
X212297654Y-119819477D02*
X213203961Y-119396859D01*
X207287306Y-106708550D02*
X207709924Y-107614857D01*
X195021615Y-113531513D02*
X194598997Y-112625205D01*
X200515652Y-125313514D02*
X201421960Y-124890896D01*
X195505304Y-112202587D02*
X194598997Y-112625205D01*
X200515652Y-125313514D02*
X200093034Y-124407207D01*
%TO.C,SW37*%
X194890469Y-127410908D02*
X195464045Y-128230060D01*
X187433975Y-116761932D02*
X186614823Y-117335508D01*
X194644893Y-128803637D02*
X195464045Y-128230060D01*
X187433975Y-116761932D02*
X188007552Y-117581084D01*
X176539423Y-125611154D02*
X175965847Y-124792002D01*
X183995917Y-136260130D02*
X184815069Y-135686554D01*
X176784999Y-124218425D02*
X175965847Y-124792002D01*
X183995917Y-136260130D02*
X183422340Y-135440978D01*
%TO.C,SW36*%
X178820403Y-139302464D02*
X179527510Y-140009571D01*
X169628015Y-130110076D02*
X168920908Y-130817183D01*
X178820403Y-140716678D02*
X179527510Y-140009571D01*
X169628015Y-130110076D02*
X170335122Y-130817183D01*
X160435627Y-140716678D02*
X159728520Y-140009571D01*
X169628015Y-149909066D02*
X170335122Y-149201959D01*
X160435627Y-139302464D02*
X159728520Y-140009571D01*
X169628015Y-149909066D02*
X168920908Y-149201959D01*
%TO.C,SW35*%
X110661621Y-149201959D02*
X109954514Y-149909066D01*
X119854009Y-140009571D02*
X119146902Y-139302464D01*
X109247407Y-149201959D02*
X109954514Y-149909066D01*
X119854009Y-140009571D02*
X119146902Y-140716678D01*
X109247407Y-130817183D02*
X109954514Y-130110076D01*
X100055019Y-140009571D02*
X100762126Y-140716678D01*
X110661621Y-130817183D02*
X109954514Y-130110076D01*
X100055019Y-140009571D02*
X100762126Y-139302464D01*
%TO.C,SW33*%
X79489494Y-124407208D02*
X79066876Y-125313515D01*
X84983531Y-112625206D02*
X84077224Y-112202588D01*
X78160568Y-124890897D02*
X79066876Y-125313515D01*
X84983531Y-112625206D02*
X84560913Y-113531514D01*
X71872604Y-107614858D02*
X72295222Y-106708551D01*
X66378567Y-119396860D02*
X67284874Y-119819478D01*
X73201530Y-107131169D02*
X72295222Y-106708551D01*
X66378567Y-119396860D02*
X66801185Y-118490552D01*
%TO.C,SW32*%
X70722011Y-98251305D02*
X70299393Y-99157612D01*
X76216048Y-86469303D02*
X75309741Y-86046685D01*
X69393085Y-98734994D02*
X70299393Y-99157612D01*
X76216048Y-86469303D02*
X75793430Y-87375611D01*
X63105121Y-81458955D02*
X63527739Y-80552648D01*
X57611084Y-93240957D02*
X58517391Y-93663575D01*
X64434047Y-80975266D02*
X63527739Y-80552648D01*
X57611084Y-93240957D02*
X58033702Y-92334649D01*
%TO.C,SW31*%
X51389074Y-94753097D02*
X50966456Y-95659404D01*
X56883111Y-82971095D02*
X55976804Y-82548477D01*
X50060148Y-95236786D02*
X50966456Y-95659404D01*
X56883111Y-82971095D02*
X56460493Y-83877403D01*
X43772184Y-77960747D02*
X44194802Y-77054440D01*
X38278147Y-89742749D02*
X39184454Y-90165367D01*
X45101110Y-77477058D02*
X44194802Y-77054440D01*
X38278147Y-89742749D02*
X38700765Y-88836441D01*
%TO.C,SW30*%
X255354592Y-74915693D02*
X255777210Y-75822001D01*
X249860555Y-63133692D02*
X248954247Y-63556310D01*
X254870903Y-76244619D02*
X255777210Y-75822001D01*
X249860555Y-63133692D02*
X250283173Y-64039999D01*
X237594864Y-69956655D02*
X237172246Y-69050347D01*
X243088901Y-81738656D02*
X243995209Y-81316038D01*
X238078553Y-68627729D02*
X237172246Y-69050347D01*
X243088901Y-81738656D02*
X242666283Y-80832349D01*
%TO.C,SW28*%
X213519079Y-75114802D02*
X213941697Y-76021110D01*
X208025042Y-63332801D02*
X207118734Y-63755419D01*
X213035390Y-76443728D02*
X213941697Y-76021110D01*
X208025042Y-63332801D02*
X208447660Y-64239108D01*
X195759351Y-70155764D02*
X195336733Y-69249456D01*
X201253388Y-81937765D02*
X202159696Y-81515147D01*
X196243040Y-68826838D02*
X195336733Y-69249456D01*
X201253388Y-81937765D02*
X200830770Y-81031458D01*
%TO.C,SW27*%
X198412323Y-87676087D02*
X198834941Y-88582395D01*
X192918286Y-75894086D02*
X192011978Y-76316704D01*
X197928634Y-89005013D02*
X198834941Y-88582395D01*
X192918286Y-75894086D02*
X193340904Y-76800393D01*
X180652595Y-82717049D02*
X180229977Y-81810741D01*
X186146632Y-94499050D02*
X187052940Y-94076432D01*
X181136284Y-81388123D02*
X180229977Y-81810741D01*
X186146632Y-94499050D02*
X185724014Y-93592743D01*
%TO.C,SW26*%
X182249021Y-97971604D02*
X182671639Y-98877912D01*
X176754984Y-86189603D02*
X175848676Y-86612221D01*
X181765332Y-99300530D02*
X182671639Y-98877912D01*
X176754984Y-86189603D02*
X177177602Y-87095910D01*
X164489293Y-93012566D02*
X164066675Y-92106258D01*
X169983330Y-104794567D02*
X170889638Y-104371949D01*
X164972982Y-91683640D02*
X164066675Y-92106258D01*
X169983330Y-104794567D02*
X169560712Y-103888260D01*
%TO.C,SW25*%
X110021816Y-103888260D02*
X109599198Y-104794567D01*
X115515853Y-92106258D02*
X114609546Y-91683640D01*
X108692890Y-104371949D02*
X109599198Y-104794567D01*
X115515853Y-92106258D02*
X115093235Y-93012566D01*
X102404926Y-87095910D02*
X102827544Y-86189603D01*
X96910889Y-98877912D02*
X97817196Y-99300530D01*
X103733852Y-86612221D02*
X102827544Y-86189603D01*
X96910889Y-98877912D02*
X97333507Y-97971604D01*
%TO.C,SW23*%
X78751758Y-81031457D02*
X78329140Y-81937764D01*
X84245795Y-69249455D02*
X83339488Y-68826837D01*
X77422832Y-81515146D02*
X78329140Y-81937764D01*
X84245795Y-69249455D02*
X83823177Y-70155763D01*
X71134868Y-64239107D02*
X71557486Y-63332800D01*
X65640831Y-76021109D02*
X66547138Y-76443727D01*
X72463794Y-63755418D02*
X71557486Y-63332800D01*
X65640831Y-76021109D02*
X66063449Y-75114801D01*
%TO.C,SW22*%
X59418820Y-77533250D02*
X58996202Y-78439557D01*
X64912857Y-65751248D02*
X64006550Y-65328630D01*
X58089894Y-78016939D02*
X58996202Y-78439557D01*
X64912857Y-65751248D02*
X64490239Y-66657556D01*
X51801930Y-60740900D02*
X52224548Y-59834593D01*
X46307893Y-72522902D02*
X47214200Y-72945520D01*
X53130856Y-60257211D02*
X52224548Y-59834593D01*
X46307893Y-72522902D02*
X46730511Y-71616594D01*
%TO.C,SW21*%
X36916245Y-80832349D02*
X36493627Y-81738656D01*
X42410282Y-69050347D02*
X41503975Y-68627729D01*
X35587319Y-81316038D02*
X36493627Y-81738656D01*
X42410282Y-69050347D02*
X41987664Y-69956655D01*
X29299355Y-64039999D02*
X29721973Y-63133692D01*
X23805318Y-75822001D02*
X24711625Y-76244619D01*
X30628281Y-63556310D02*
X29721973Y-63133692D01*
X23805318Y-75822001D02*
X24227936Y-74915693D01*
%TO.C,SW20*%
X247324845Y-57695846D02*
X247747463Y-58602154D01*
X241830808Y-45913845D02*
X240924500Y-46336463D01*
X246841156Y-59024772D02*
X247747463Y-58602154D01*
X241830808Y-45913845D02*
X242253426Y-46820152D01*
X229565117Y-52736808D02*
X229142499Y-51830500D01*
X235059154Y-64518809D02*
X235965462Y-64096191D01*
X230048806Y-51407882D02*
X229142499Y-51830500D01*
X235059154Y-64518809D02*
X234636536Y-63612502D01*
%TO.C,SW19*%
X224822271Y-54396747D02*
X225244889Y-55303055D01*
X219328234Y-42614746D02*
X218421926Y-43037364D01*
X224338582Y-55725673D02*
X225244889Y-55303055D01*
X219328234Y-42614746D02*
X219750852Y-43521053D01*
X207062543Y-49437709D02*
X206639925Y-48531401D01*
X212556580Y-61219710D02*
X213462888Y-60797092D01*
X207546232Y-48108783D02*
X206639925Y-48531401D01*
X212556580Y-61219710D02*
X212133962Y-60313403D01*
%TO.C,SW18*%
X205489332Y-57894955D02*
X205911950Y-58801263D01*
X199995295Y-46112954D02*
X199088987Y-46535572D01*
X205005643Y-59223881D02*
X205911950Y-58801263D01*
X199995295Y-46112954D02*
X200417913Y-47019261D01*
X187729604Y-52935917D02*
X187306986Y-52029609D01*
X193223641Y-64717918D02*
X194129949Y-64295300D01*
X188213293Y-51606991D02*
X187306986Y-52029609D01*
X193223641Y-64717918D02*
X192801023Y-63811611D01*
%TO.C,SW17*%
X190382577Y-70456239D02*
X190805195Y-71362547D01*
X184888540Y-58674238D02*
X183982232Y-59096856D01*
X189898888Y-71785165D02*
X190805195Y-71362547D01*
X184888540Y-58674238D02*
X185311158Y-59580545D01*
X172622849Y-65497201D02*
X172200231Y-64590893D01*
X178116886Y-77279202D02*
X179023194Y-76856584D01*
X173106538Y-64168275D02*
X172200231Y-64590893D01*
X178116886Y-77279202D02*
X177694268Y-76372895D01*
%TO.C,SW16*%
X174219276Y-80751757D02*
X174641894Y-81658065D01*
X168725239Y-68969756D02*
X167818931Y-69392374D01*
X173735587Y-82080683D02*
X174641894Y-81658065D01*
X168725239Y-68969756D02*
X169147857Y-69876063D01*
X156459548Y-75792719D02*
X156036930Y-74886411D01*
X161953585Y-87574720D02*
X162859893Y-87152102D01*
X156943237Y-74463793D02*
X156036930Y-74886411D01*
X161953585Y-87574720D02*
X161530967Y-86668413D01*
%TO.C,SW15*%
X118051563Y-86668413D02*
X117628945Y-87574720D01*
X123545600Y-74886411D02*
X122639293Y-74463793D01*
X116722637Y-87152102D02*
X117628945Y-87574720D01*
X123545600Y-74886411D02*
X123122982Y-75792719D01*
X110434673Y-69876063D02*
X110857291Y-68969756D01*
X104940636Y-81658065D02*
X105846943Y-82080683D01*
X111763599Y-69392374D02*
X110857291Y-68969756D01*
X104940636Y-81658065D02*
X105363254Y-80751757D01*
%TO.C,SW13*%
X86781505Y-63811610D02*
X86358887Y-64717917D01*
X92275542Y-52029608D02*
X91369235Y-51606990D01*
X85452579Y-64295299D02*
X86358887Y-64717917D01*
X92275542Y-52029608D02*
X91852924Y-52935916D01*
X79164615Y-47019260D02*
X79587233Y-46112953D01*
X73670578Y-58801262D02*
X74576885Y-59223880D01*
X80493541Y-46535571D02*
X79587233Y-46112953D01*
X73670578Y-58801262D02*
X74093196Y-57894954D01*
%TO.C,SW12*%
X67448568Y-60313403D02*
X67025950Y-61219710D01*
X72942605Y-48531401D02*
X72036298Y-48108783D01*
X66119642Y-60797092D02*
X67025950Y-61219710D01*
X72942605Y-48531401D02*
X72519987Y-49437709D01*
X59831678Y-43521053D02*
X60254296Y-42614746D01*
X54337641Y-55303055D02*
X55243948Y-55725673D01*
X61160604Y-43037364D02*
X60254296Y-42614746D01*
X54337641Y-55303055D02*
X54760259Y-54396747D01*
%TO.C,SW11*%
X44945993Y-63612503D02*
X44523375Y-64518810D01*
X50440030Y-51830501D02*
X49533723Y-51407883D01*
X43617067Y-64096192D02*
X44523375Y-64518810D01*
X50440030Y-51830501D02*
X50017412Y-52736809D01*
X37329103Y-46820153D02*
X37751721Y-45913846D01*
X31835066Y-58602155D02*
X32741373Y-59024773D01*
X38658029Y-46336464D02*
X37751721Y-45913846D01*
X31835066Y-58602155D02*
X32257684Y-57695847D01*
%TO.C,SW10*%
X239295098Y-40475999D02*
X239717716Y-41382307D01*
X233801061Y-28693998D02*
X232894753Y-29116616D01*
X238811409Y-41804925D02*
X239717716Y-41382307D01*
X233801061Y-28693998D02*
X234223679Y-29600305D01*
X221535370Y-35516961D02*
X221112752Y-34610653D01*
X227029407Y-47298962D02*
X227935715Y-46876344D01*
X222019059Y-34188035D02*
X221112752Y-34610653D01*
X227029407Y-47298962D02*
X226606789Y-46392655D01*
%TO.C,SW8*%
X197459586Y-40675107D02*
X197882204Y-41581415D01*
X191965549Y-28893106D02*
X191059241Y-29315724D01*
X196975897Y-42004033D02*
X197882204Y-41581415D01*
X191965549Y-28893106D02*
X192388167Y-29799413D01*
X179699858Y-35716069D02*
X179277240Y-34809761D01*
X185193895Y-47498070D02*
X186100203Y-47075452D01*
X180183547Y-34387143D02*
X179277240Y-34809761D01*
X185193895Y-47498070D02*
X184771277Y-46591763D01*
%TO.C,SW6*%
X166189529Y-63531910D02*
X166612147Y-64438218D01*
X160695492Y-51749909D02*
X159789184Y-52172527D01*
X165705840Y-64860836D02*
X166612147Y-64438218D01*
X160695492Y-51749909D02*
X161118110Y-52656216D01*
X148429801Y-58572872D02*
X148007183Y-57666564D01*
X153923838Y-70354873D02*
X154830146Y-69932255D01*
X148913490Y-57243946D02*
X148007183Y-57666564D01*
X153923838Y-70354873D02*
X153501220Y-69448566D01*
%TO.C,SW5*%
X126081309Y-69448566D02*
X125658691Y-70354873D01*
X131575346Y-57666564D02*
X130669039Y-57243946D01*
X124752383Y-69932255D02*
X125658691Y-70354873D01*
X131575346Y-57666564D02*
X131152728Y-58572872D01*
X118464419Y-52656216D02*
X118887037Y-51749909D01*
X112970382Y-64438218D02*
X113876689Y-64860836D01*
X119793345Y-52172527D02*
X118887037Y-51749909D01*
X112970382Y-64438218D02*
X113393000Y-63531910D01*
%TO.C,SW3*%
X94811252Y-46591764D02*
X94388634Y-47498071D01*
X100305289Y-34809762D02*
X99398982Y-34387144D01*
X93482326Y-47075453D02*
X94388634Y-47498071D01*
X100305289Y-34809762D02*
X99882671Y-35716070D01*
X87194362Y-29799414D02*
X87616980Y-28893107D01*
X81700325Y-41581416D02*
X82606632Y-42004034D01*
X88523288Y-29315725D02*
X87616980Y-28893107D01*
X81700325Y-41581416D02*
X82122943Y-40675108D01*
%TO.C,SW2*%
X75478314Y-43093556D02*
X75055696Y-43999863D01*
X80972351Y-31311554D02*
X80066044Y-30888936D01*
X74149388Y-43577245D02*
X75055696Y-43999863D01*
X80972351Y-31311554D02*
X80549733Y-32217862D01*
X67861424Y-26301206D02*
X68284042Y-25394899D01*
X62367387Y-38083208D02*
X63273694Y-38505826D01*
X69190350Y-25817517D02*
X68284042Y-25394899D01*
X62367387Y-38083208D02*
X62790005Y-37176900D01*
%TO.C,SW1*%
X52975739Y-46392656D02*
X52553121Y-47298963D01*
X58469776Y-34610654D02*
X57563469Y-34188036D01*
X51646813Y-46876345D02*
X52553121Y-47298963D01*
X58469776Y-34610654D02*
X58047158Y-35516962D01*
X45358849Y-29600306D02*
X45781467Y-28693999D01*
X39864812Y-41382308D02*
X40771119Y-41804926D01*
X46687775Y-29116617D02*
X45781467Y-28693999D01*
X39864812Y-41382308D02*
X40287430Y-40476000D01*
%TO.C,*%
%TO.C,U2*%
D14*
X135012142Y-85191747D02*
X135012142Y-86191747D01*
X135012142Y-85334604D02*
X135083571Y-85263176D01*
X135226428Y-85191747D01*
X135440714Y-85191747D01*
X135583571Y-85263176D01*
X135654999Y-85406033D01*
X135654999Y-86191747D01*
X136369285Y-86191747D02*
X136369285Y-85191747D01*
X136369285Y-84691747D02*
X136297857Y-84763176D01*
X136369285Y-84834604D01*
X136440714Y-84763176D01*
X136369285Y-84691747D01*
X136369285Y-84834604D01*
X137726428Y-86120318D02*
X137583571Y-86191747D01*
X137297857Y-86191747D01*
X137154999Y-86120318D01*
X137083571Y-86048890D01*
X137012142Y-85906033D01*
X137012142Y-85477461D01*
X137083571Y-85334604D01*
X137154999Y-85263176D01*
X137297857Y-85191747D01*
X137583571Y-85191747D01*
X137726428Y-85263176D01*
X138940714Y-86120318D02*
X138797857Y-86191747D01*
X138512142Y-86191747D01*
X138369285Y-86120318D01*
X138297857Y-85977461D01*
X138297857Y-85406033D01*
X138369285Y-85263176D01*
X138512142Y-85191747D01*
X138797857Y-85191747D01*
X138940714Y-85263176D01*
X139012142Y-85406033D01*
X139012142Y-85548890D01*
X138297857Y-85691747D01*
X139654999Y-86048890D02*
X139726428Y-86120318D01*
X139654999Y-86191747D01*
X139583571Y-86120318D01*
X139654999Y-86048890D01*
X139654999Y-86191747D01*
X139654999Y-85620318D02*
X139583571Y-84763176D01*
X139654999Y-84691747D01*
X139726428Y-84763176D01*
X139654999Y-85620318D01*
X139654999Y-84691747D01*
X140369285Y-85191747D02*
X140369285Y-86191747D01*
X140369285Y-85334604D02*
X140440714Y-85263176D01*
X140583571Y-85191747D01*
X140797857Y-85191747D01*
X140940714Y-85263176D01*
X141012142Y-85406033D01*
X141012142Y-86191747D01*
X142369285Y-86191747D02*
X142369285Y-85406033D01*
X142297857Y-85263176D01*
X142154999Y-85191747D01*
X141869285Y-85191747D01*
X141726428Y-85263176D01*
X142369285Y-86120318D02*
X142226428Y-86191747D01*
X141869285Y-86191747D01*
X141726428Y-86120318D01*
X141654999Y-85977461D01*
X141654999Y-85834604D01*
X141726428Y-85691747D01*
X141869285Y-85620318D01*
X142226428Y-85620318D01*
X142369285Y-85548890D01*
X143083571Y-85191747D02*
X143083571Y-86191747D01*
X143083571Y-85334604D02*
X143154999Y-85263176D01*
X143297857Y-85191747D01*
X143512142Y-85191747D01*
X143654999Y-85263176D01*
X143726428Y-85406033D01*
X143726428Y-86191747D01*
X144654999Y-86191747D02*
X144512142Y-86120318D01*
X144440714Y-86048890D01*
X144369285Y-85906033D01*
X144369285Y-85477461D01*
X144440714Y-85334604D01*
X144512142Y-85263176D01*
X144654999Y-85191747D01*
X144869285Y-85191747D01*
X145012142Y-85263176D01*
X145083571Y-85334604D01*
X145154999Y-85477461D01*
X145154999Y-85906033D01*
X145083571Y-86048890D01*
X145012142Y-86120318D01*
X144869285Y-86191747D01*
X144654999Y-86191747D01*
D11*
X142373857Y-82461080D02*
X142450047Y-82461080D01*
X142526237Y-82499176D01*
X142564333Y-82537271D01*
X142602428Y-82613461D01*
X142640523Y-82765842D01*
X142640523Y-82956318D01*
X142602428Y-83108699D01*
X142564333Y-83184890D01*
X142526237Y-83222985D01*
X142450047Y-83261080D01*
X142373857Y-83261080D01*
X142297666Y-83222985D01*
X142259571Y-83184890D01*
X142221476Y-83108699D01*
X142183380Y-82956318D01*
X142183380Y-82765842D01*
X142221476Y-82613461D01*
X142259571Y-82537271D01*
X142297666Y-82499176D01*
X142373857Y-82461080D01*
X143402428Y-83261080D02*
X142945285Y-83261080D01*
X143173857Y-83261080D02*
X143173857Y-82461080D01*
X143097666Y-82575366D01*
X143021476Y-82651556D01*
X142945285Y-82689652D01*
X143897666Y-82461080D02*
X143973857Y-82461080D01*
X144050047Y-82499176D01*
X144088142Y-82537271D01*
X144126237Y-82613461D01*
X144164333Y-82765842D01*
X144164333Y-82956318D01*
X144126237Y-83108699D01*
X144088142Y-83184890D01*
X144050047Y-83222985D01*
X143973857Y-83261080D01*
X143897666Y-83261080D01*
X143821476Y-83222985D01*
X143783380Y-83184890D01*
X143745285Y-83108699D01*
X143707190Y-82956318D01*
X143707190Y-82765842D01*
X143745285Y-82613461D01*
X143783380Y-82537271D01*
X143821476Y-82499176D01*
X143897666Y-82461080D01*
X142600523Y-76981080D02*
X142143380Y-76981080D01*
X142371952Y-76981080D02*
X142371952Y-76181080D01*
X142295761Y-76295366D01*
X142219571Y-76371556D01*
X142143380Y-76409652D01*
X143362428Y-76981080D02*
X142905285Y-76981080D01*
X143133857Y-76981080D02*
X143133857Y-76181080D01*
X143057666Y-76295366D01*
X142981476Y-76371556D01*
X142905285Y-76409652D01*
X144086237Y-76181080D02*
X143705285Y-76181080D01*
X143667190Y-76562033D01*
X143705285Y-76523937D01*
X143781476Y-76485842D01*
X143971952Y-76485842D01*
X144048142Y-76523937D01*
X144086237Y-76562033D01*
X144124333Y-76638223D01*
X144124333Y-76828699D01*
X144086237Y-76904890D01*
X144048142Y-76942985D01*
X143971952Y-76981080D01*
X143781476Y-76981080D01*
X143705285Y-76942985D01*
X143667190Y-76904890D01*
X142333857Y-73321080D02*
X142410047Y-73321080D01*
X142486237Y-73359176D01*
X142524333Y-73397271D01*
X142562428Y-73473461D01*
X142600523Y-73625842D01*
X142600523Y-73816318D01*
X142562428Y-73968699D01*
X142524333Y-74044890D01*
X142486237Y-74082985D01*
X142410047Y-74121080D01*
X142333857Y-74121080D01*
X142257666Y-74082985D01*
X142219571Y-74044890D01*
X142181476Y-73968699D01*
X142143380Y-73816318D01*
X142143380Y-73625842D01*
X142181476Y-73473461D01*
X142219571Y-73397271D01*
X142257666Y-73359176D01*
X142333857Y-73321080D01*
X143095761Y-73321080D02*
X143171952Y-73321080D01*
X143248142Y-73359176D01*
X143286237Y-73397271D01*
X143324333Y-73473461D01*
X143362428Y-73625842D01*
X143362428Y-73816318D01*
X143324333Y-73968699D01*
X143286237Y-74044890D01*
X143248142Y-74082985D01*
X143171952Y-74121080D01*
X143095761Y-74121080D01*
X143019571Y-74082985D01*
X142981476Y-74044890D01*
X142943380Y-73968699D01*
X142905285Y-73816318D01*
X142905285Y-73625842D01*
X142943380Y-73473461D01*
X142981476Y-73397271D01*
X143019571Y-73359176D01*
X143095761Y-73321080D01*
X143667190Y-73397271D02*
X143705285Y-73359176D01*
X143781476Y-73321080D01*
X143971952Y-73321080D01*
X144048142Y-73359176D01*
X144086237Y-73397271D01*
X144124333Y-73473461D01*
X144124333Y-73549652D01*
X144086237Y-73663937D01*
X143629095Y-74121080D01*
X144124333Y-74121080D01*
X142403857Y-71001080D02*
X142480047Y-71001080D01*
X142556237Y-71039176D01*
X142594333Y-71077271D01*
X142632428Y-71153461D01*
X142670523Y-71305842D01*
X142670523Y-71496318D01*
X142632428Y-71648699D01*
X142594333Y-71724890D01*
X142556237Y-71762985D01*
X142480047Y-71801080D01*
X142403857Y-71801080D01*
X142327666Y-71762985D01*
X142289571Y-71724890D01*
X142251476Y-71648699D01*
X142213380Y-71496318D01*
X142213380Y-71305842D01*
X142251476Y-71153461D01*
X142289571Y-71077271D01*
X142327666Y-71039176D01*
X142403857Y-71001080D01*
X142975285Y-71077271D02*
X143013380Y-71039176D01*
X143089571Y-71001080D01*
X143280047Y-71001080D01*
X143356237Y-71039176D01*
X143394333Y-71077271D01*
X143432428Y-71153461D01*
X143432428Y-71229652D01*
X143394333Y-71343937D01*
X142937190Y-71801080D01*
X143432428Y-71801080D01*
X143813380Y-71801080D02*
X143965761Y-71801080D01*
X144041952Y-71762985D01*
X144080047Y-71724890D01*
X144156237Y-71610604D01*
X144194333Y-71458223D01*
X144194333Y-71153461D01*
X144156237Y-71077271D01*
X144118142Y-71039176D01*
X144041952Y-71001080D01*
X143889571Y-71001080D01*
X143813380Y-71039176D01*
X143775285Y-71077271D01*
X143737190Y-71153461D01*
X143737190Y-71343937D01*
X143775285Y-71420128D01*
X143813380Y-71458223D01*
X143889571Y-71496318D01*
X144041952Y-71496318D01*
X144118142Y-71458223D01*
X144156237Y-71420128D01*
X144194333Y-71343937D01*
X142401476Y-59171080D02*
X142134809Y-58790128D01*
X141944333Y-59171080D02*
X141944333Y-58371080D01*
X142249095Y-58371080D01*
X142325285Y-58409176D01*
X142363380Y-58447271D01*
X142401476Y-58523461D01*
X142401476Y-58637747D01*
X142363380Y-58713937D01*
X142325285Y-58752033D01*
X142249095Y-58790128D01*
X141944333Y-58790128D01*
X142706237Y-58942509D02*
X143087190Y-58942509D01*
X142630047Y-59171080D02*
X142896714Y-58371080D01*
X143163380Y-59171080D01*
X143353857Y-58371080D02*
X143544333Y-59171080D01*
X143696714Y-58599652D01*
X143849095Y-59171080D01*
X144039571Y-58371080D01*
X144639000Y-60221176D02*
X144562809Y-60183080D01*
X144448524Y-60183080D01*
X144334238Y-60221176D01*
X144258047Y-60297366D01*
X144219952Y-60373556D01*
X144181857Y-60525937D01*
X144181857Y-60640223D01*
X144219952Y-60792604D01*
X144258047Y-60868795D01*
X144334238Y-60944985D01*
X144448524Y-60983080D01*
X144524714Y-60983080D01*
X144639000Y-60944985D01*
X144677095Y-60906890D01*
X144677095Y-60640223D01*
X144524714Y-60640223D01*
X145019952Y-60983080D02*
X145019952Y-60183080D01*
X145477095Y-60983080D01*
X145477095Y-60183080D01*
X145858047Y-60983080D02*
X145858047Y-60183080D01*
X146048524Y-60183080D01*
X146162809Y-60221176D01*
X146239000Y-60297366D01*
X146277095Y-60373556D01*
X146315190Y-60525937D01*
X146315190Y-60640223D01*
X146277095Y-60792604D01*
X146239000Y-60868795D01*
X146162809Y-60944985D01*
X146048524Y-60983080D01*
X145858047Y-60983080D01*
X144943761Y-63523080D02*
X144677095Y-63142128D01*
X144486618Y-63523080D02*
X144486618Y-62723080D01*
X144791380Y-62723080D01*
X144867571Y-62761176D01*
X144905666Y-62799271D01*
X144943761Y-62875461D01*
X144943761Y-62989747D01*
X144905666Y-63065937D01*
X144867571Y-63104033D01*
X144791380Y-63142128D01*
X144486618Y-63142128D01*
X145248523Y-63484985D02*
X145362809Y-63523080D01*
X145553285Y-63523080D01*
X145629476Y-63484985D01*
X145667571Y-63446890D01*
X145705666Y-63370699D01*
X145705666Y-63294509D01*
X145667571Y-63218318D01*
X145629476Y-63180223D01*
X145553285Y-63142128D01*
X145400904Y-63104033D01*
X145324714Y-63065937D01*
X145286618Y-63027842D01*
X145248523Y-62951652D01*
X145248523Y-62875461D01*
X145286618Y-62799271D01*
X145324714Y-62761176D01*
X145400904Y-62723080D01*
X145591380Y-62723080D01*
X145705666Y-62761176D01*
X145934237Y-62723080D02*
X146391380Y-62723080D01*
X146162809Y-63523080D02*
X146162809Y-62723080D01*
X144264381Y-65263080D02*
X144531048Y-66063080D01*
X144797714Y-65263080D01*
X145521524Y-65986890D02*
X145483428Y-66024985D01*
X145369143Y-66063080D01*
X145292952Y-66063080D01*
X145178667Y-66024985D01*
X145102476Y-65948795D01*
X145064381Y-65872604D01*
X145026286Y-65720223D01*
X145026286Y-65605937D01*
X145064381Y-65453556D01*
X145102476Y-65377366D01*
X145178667Y-65301176D01*
X145292952Y-65263080D01*
X145369143Y-65263080D01*
X145483428Y-65301176D01*
X145521524Y-65339271D01*
X146321524Y-65986890D02*
X146283428Y-66024985D01*
X146169143Y-66063080D01*
X146092952Y-66063080D01*
X145978667Y-66024985D01*
X145902476Y-65948795D01*
X145864381Y-65872604D01*
X145826286Y-65720223D01*
X145826286Y-65605937D01*
X145864381Y-65453556D01*
X145902476Y-65377366D01*
X145978667Y-65301176D01*
X146092952Y-65263080D01*
X146169143Y-65263080D01*
X146283428Y-65301176D01*
X146321524Y-65339271D01*
X142543857Y-68361080D02*
X142620047Y-68361080D01*
X142696237Y-68399176D01*
X142734333Y-68437271D01*
X142772428Y-68513461D01*
X142810523Y-68665842D01*
X142810523Y-68856318D01*
X142772428Y-69008699D01*
X142734333Y-69084890D01*
X142696237Y-69122985D01*
X142620047Y-69161080D01*
X142543857Y-69161080D01*
X142467666Y-69122985D01*
X142429571Y-69084890D01*
X142391476Y-69008699D01*
X142353380Y-68856318D01*
X142353380Y-68665842D01*
X142391476Y-68513461D01*
X142429571Y-68437271D01*
X142467666Y-68399176D01*
X142543857Y-68361080D01*
X143077190Y-68361080D02*
X143572428Y-68361080D01*
X143305761Y-68665842D01*
X143420047Y-68665842D01*
X143496237Y-68703937D01*
X143534333Y-68742033D01*
X143572428Y-68818223D01*
X143572428Y-69008699D01*
X143534333Y-69084890D01*
X143496237Y-69122985D01*
X143420047Y-69161080D01*
X143191476Y-69161080D01*
X143115285Y-69122985D01*
X143077190Y-69084890D01*
X144334333Y-69161080D02*
X143877190Y-69161080D01*
X144105761Y-69161080D02*
X144105761Y-68361080D01*
X144029571Y-68475366D01*
X143953380Y-68551556D01*
X143877190Y-68589652D01*
X142670523Y-79471080D02*
X142213380Y-79471080D01*
X142441952Y-79471080D02*
X142441952Y-78671080D01*
X142365761Y-78785366D01*
X142289571Y-78861556D01*
X142213380Y-78899652D01*
X143432428Y-79471080D02*
X142975285Y-79471080D01*
X143203857Y-79471080D02*
X143203857Y-78671080D01*
X143127666Y-78785366D01*
X143051476Y-78861556D01*
X142975285Y-78899652D01*
X143699095Y-78671080D02*
X144194333Y-78671080D01*
X143927666Y-78975842D01*
X144041952Y-78975842D01*
X144118142Y-79013937D01*
X144156237Y-79052033D01*
X144194333Y-79128223D01*
X144194333Y-79318699D01*
X144156237Y-79394890D01*
X144118142Y-79432985D01*
X144041952Y-79471080D01*
X143813380Y-79471080D01*
X143737190Y-79432985D01*
X143699095Y-79394890D01*
X142640523Y-81791080D02*
X142183380Y-81791080D01*
X142411952Y-81791080D02*
X142411952Y-80991080D01*
X142335761Y-81105366D01*
X142259571Y-81181556D01*
X142183380Y-81219652D01*
X143402428Y-81791080D02*
X142945285Y-81791080D01*
X143173857Y-81791080D02*
X143173857Y-80991080D01*
X143097666Y-81105366D01*
X143021476Y-81181556D01*
X142945285Y-81219652D01*
X144164333Y-81791080D02*
X143707190Y-81791080D01*
X143935761Y-81791080D02*
X143935761Y-80991080D01*
X143859571Y-81105366D01*
X143783380Y-81181556D01*
X143707190Y-81219652D01*
X134360523Y-82871080D02*
X133903380Y-82871080D01*
X134131952Y-82871080D02*
X134131952Y-82071080D01*
X134055761Y-82185366D01*
X133979571Y-82261556D01*
X133903380Y-82299652D01*
X134855761Y-82071080D02*
X134931952Y-82071080D01*
X135008142Y-82109176D01*
X135046237Y-82147271D01*
X135084333Y-82223461D01*
X135122428Y-82375842D01*
X135122428Y-82566318D01*
X135084333Y-82718699D01*
X135046237Y-82794890D01*
X135008142Y-82832985D01*
X134931952Y-82871080D01*
X134855761Y-82871080D01*
X134779571Y-82832985D01*
X134741476Y-82794890D01*
X134703380Y-82718699D01*
X134665285Y-82566318D01*
X134665285Y-82375842D01*
X134703380Y-82223461D01*
X134741476Y-82147271D01*
X134779571Y-82109176D01*
X134855761Y-82071080D01*
X135808142Y-82337747D02*
X135808142Y-82871080D01*
X135617666Y-82032985D02*
X135427190Y-82604414D01*
X135922428Y-82604414D01*
X136100523Y-79331080D02*
X135643380Y-79331080D01*
X135871952Y-79331080D02*
X135871952Y-78531080D01*
X135795761Y-78645366D01*
X135719571Y-78721556D01*
X135643380Y-78759652D01*
X136595761Y-78531080D02*
X136671952Y-78531080D01*
X136748142Y-78569176D01*
X136786237Y-78607271D01*
X136824333Y-78683461D01*
X136862428Y-78835842D01*
X136862428Y-79026318D01*
X136824333Y-79178699D01*
X136786237Y-79254890D01*
X136748142Y-79292985D01*
X136671952Y-79331080D01*
X136595761Y-79331080D01*
X136519571Y-79292985D01*
X136481476Y-79254890D01*
X136443380Y-79178699D01*
X136405285Y-79026318D01*
X136405285Y-78835842D01*
X136443380Y-78683461D01*
X136481476Y-78607271D01*
X136519571Y-78569176D01*
X136595761Y-78531080D01*
X137357666Y-78531080D02*
X137433857Y-78531080D01*
X137510047Y-78569176D01*
X137548142Y-78607271D01*
X137586237Y-78683461D01*
X137624333Y-78835842D01*
X137624333Y-79026318D01*
X137586237Y-79178699D01*
X137548142Y-79254890D01*
X137510047Y-79292985D01*
X137433857Y-79331080D01*
X137357666Y-79331080D01*
X137281476Y-79292985D01*
X137243380Y-79254890D01*
X137205285Y-79178699D01*
X137167190Y-79026318D01*
X137167190Y-78835842D01*
X137205285Y-78683461D01*
X137243380Y-78607271D01*
X137281476Y-78569176D01*
X137357666Y-78531080D01*
X135763857Y-76111080D02*
X135840047Y-76111080D01*
X135916237Y-76149176D01*
X135954333Y-76187271D01*
X135992428Y-76263461D01*
X136030523Y-76415842D01*
X136030523Y-76606318D01*
X135992428Y-76758699D01*
X135954333Y-76834890D01*
X135916237Y-76872985D01*
X135840047Y-76911080D01*
X135763857Y-76911080D01*
X135687666Y-76872985D01*
X135649571Y-76834890D01*
X135611476Y-76758699D01*
X135573380Y-76606318D01*
X135573380Y-76415842D01*
X135611476Y-76263461D01*
X135649571Y-76187271D01*
X135687666Y-76149176D01*
X135763857Y-76111080D01*
X136335285Y-76187271D02*
X136373380Y-76149176D01*
X136449571Y-76111080D01*
X136640047Y-76111080D01*
X136716237Y-76149176D01*
X136754333Y-76187271D01*
X136792428Y-76263461D01*
X136792428Y-76339652D01*
X136754333Y-76453937D01*
X136297190Y-76911080D01*
X136792428Y-76911080D01*
X137478142Y-76377747D02*
X137478142Y-76911080D01*
X137287666Y-76072985D02*
X137097190Y-76644414D01*
X137592428Y-76644414D01*
X135733857Y-73501080D02*
X135810047Y-73501080D01*
X135886237Y-73539176D01*
X135924333Y-73577271D01*
X135962428Y-73653461D01*
X136000523Y-73805842D01*
X136000523Y-73996318D01*
X135962428Y-74148699D01*
X135924333Y-74224890D01*
X135886237Y-74262985D01*
X135810047Y-74301080D01*
X135733857Y-74301080D01*
X135657666Y-74262985D01*
X135619571Y-74224890D01*
X135581476Y-74148699D01*
X135543380Y-73996318D01*
X135543380Y-73805842D01*
X135581476Y-73653461D01*
X135619571Y-73577271D01*
X135657666Y-73539176D01*
X135733857Y-73501080D01*
X136305285Y-73577271D02*
X136343380Y-73539176D01*
X136419571Y-73501080D01*
X136610047Y-73501080D01*
X136686237Y-73539176D01*
X136724333Y-73577271D01*
X136762428Y-73653461D01*
X136762428Y-73729652D01*
X136724333Y-73843937D01*
X136267190Y-74301080D01*
X136762428Y-74301080D01*
X137067190Y-73577271D02*
X137105285Y-73539176D01*
X137181476Y-73501080D01*
X137371952Y-73501080D01*
X137448142Y-73539176D01*
X137486237Y-73577271D01*
X137524333Y-73653461D01*
X137524333Y-73729652D01*
X137486237Y-73843937D01*
X137029095Y-74301080D01*
X137524333Y-74301080D01*
X133723333Y-62761176D02*
X133647142Y-62723080D01*
X133532857Y-62723080D01*
X133418571Y-62761176D01*
X133342380Y-62837366D01*
X133304285Y-62913556D01*
X133266190Y-63065937D01*
X133266190Y-63180223D01*
X133304285Y-63332604D01*
X133342380Y-63408795D01*
X133418571Y-63484985D01*
X133532857Y-63523080D01*
X133609047Y-63523080D01*
X133723333Y-63484985D01*
X133761428Y-63446890D01*
X133761428Y-63180223D01*
X133609047Y-63180223D01*
X134104285Y-63523080D02*
X134104285Y-62723080D01*
X134561428Y-63523080D01*
X134561428Y-62723080D01*
X134942380Y-63523080D02*
X134942380Y-62723080D01*
X135132857Y-62723080D01*
X135247142Y-62761176D01*
X135323333Y-62837366D01*
X135361428Y-62913556D01*
X135399523Y-63065937D01*
X135399523Y-63180223D01*
X135361428Y-63332604D01*
X135323333Y-63408795D01*
X135247142Y-63484985D01*
X135132857Y-63523080D01*
X134942380Y-63523080D01*
X133723333Y-65301176D02*
X133647142Y-65263080D01*
X133532857Y-65263080D01*
X133418571Y-65301176D01*
X133342380Y-65377366D01*
X133304285Y-65453556D01*
X133266190Y-65605937D01*
X133266190Y-65720223D01*
X133304285Y-65872604D01*
X133342380Y-65948795D01*
X133418571Y-66024985D01*
X133532857Y-66063080D01*
X133609047Y-66063080D01*
X133723333Y-66024985D01*
X133761428Y-65986890D01*
X133761428Y-65720223D01*
X133609047Y-65720223D01*
X134104285Y-66063080D02*
X134104285Y-65263080D01*
X134561428Y-66063080D01*
X134561428Y-65263080D01*
X134942380Y-66063080D02*
X134942380Y-65263080D01*
X135132857Y-65263080D01*
X135247142Y-65301176D01*
X135323333Y-65377366D01*
X135361428Y-65453556D01*
X135399523Y-65605937D01*
X135399523Y-65720223D01*
X135361428Y-65872604D01*
X135323333Y-65948795D01*
X135247142Y-66024985D01*
X135132857Y-66063080D01*
X134942380Y-66063080D01*
X135693857Y-68221080D02*
X135770047Y-68221080D01*
X135846237Y-68259176D01*
X135884333Y-68297271D01*
X135922428Y-68373461D01*
X135960523Y-68525842D01*
X135960523Y-68716318D01*
X135922428Y-68868699D01*
X135884333Y-68944890D01*
X135846237Y-68982985D01*
X135770047Y-69021080D01*
X135693857Y-69021080D01*
X135617666Y-68982985D01*
X135579571Y-68944890D01*
X135541476Y-68868699D01*
X135503380Y-68716318D01*
X135503380Y-68525842D01*
X135541476Y-68373461D01*
X135579571Y-68297271D01*
X135617666Y-68259176D01*
X135693857Y-68221080D01*
X136722428Y-69021080D02*
X136265285Y-69021080D01*
X136493857Y-69021080D02*
X136493857Y-68221080D01*
X136417666Y-68335366D01*
X136341476Y-68411556D01*
X136265285Y-68449652D01*
X136989095Y-68221080D02*
X137522428Y-68221080D01*
X137179571Y-69021080D01*
X135663857Y-71071080D02*
X135740047Y-71071080D01*
X135816237Y-71109176D01*
X135854333Y-71147271D01*
X135892428Y-71223461D01*
X135930523Y-71375842D01*
X135930523Y-71566318D01*
X135892428Y-71718699D01*
X135854333Y-71794890D01*
X135816237Y-71832985D01*
X135740047Y-71871080D01*
X135663857Y-71871080D01*
X135587666Y-71832985D01*
X135549571Y-71794890D01*
X135511476Y-71718699D01*
X135473380Y-71566318D01*
X135473380Y-71375842D01*
X135511476Y-71223461D01*
X135549571Y-71147271D01*
X135587666Y-71109176D01*
X135663857Y-71071080D01*
X136235285Y-71147271D02*
X136273380Y-71109176D01*
X136349571Y-71071080D01*
X136540047Y-71071080D01*
X136616237Y-71109176D01*
X136654333Y-71147271D01*
X136692428Y-71223461D01*
X136692428Y-71299652D01*
X136654333Y-71413937D01*
X136197190Y-71871080D01*
X136692428Y-71871080D01*
X137187666Y-71071080D02*
X137263857Y-71071080D01*
X137340047Y-71109176D01*
X137378142Y-71147271D01*
X137416237Y-71223461D01*
X137454333Y-71375842D01*
X137454333Y-71566318D01*
X137416237Y-71718699D01*
X137378142Y-71794890D01*
X137340047Y-71832985D01*
X137263857Y-71871080D01*
X137187666Y-71871080D01*
X137111476Y-71832985D01*
X137073380Y-71794890D01*
X137035285Y-71718699D01*
X136997190Y-71566318D01*
X136997190Y-71375842D01*
X137035285Y-71223461D01*
X137073380Y-71147271D01*
X137111476Y-71109176D01*
X137187666Y-71071080D01*
X135733857Y-60831080D02*
X135810047Y-60831080D01*
X135886237Y-60869176D01*
X135924333Y-60907271D01*
X135962428Y-60983461D01*
X136000523Y-61135842D01*
X136000523Y-61326318D01*
X135962428Y-61478699D01*
X135924333Y-61554890D01*
X135886237Y-61592985D01*
X135810047Y-61631080D01*
X135733857Y-61631080D01*
X135657666Y-61592985D01*
X135619571Y-61554890D01*
X135581476Y-61478699D01*
X135543380Y-61326318D01*
X135543380Y-61135842D01*
X135581476Y-60983461D01*
X135619571Y-60907271D01*
X135657666Y-60869176D01*
X135733857Y-60831080D01*
X136495761Y-60831080D02*
X136571952Y-60831080D01*
X136648142Y-60869176D01*
X136686237Y-60907271D01*
X136724333Y-60983461D01*
X136762428Y-61135842D01*
X136762428Y-61326318D01*
X136724333Y-61478699D01*
X136686237Y-61554890D01*
X136648142Y-61592985D01*
X136571952Y-61631080D01*
X136495761Y-61631080D01*
X136419571Y-61592985D01*
X136381476Y-61554890D01*
X136343380Y-61478699D01*
X136305285Y-61326318D01*
X136305285Y-61135842D01*
X136343380Y-60983461D01*
X136381476Y-60907271D01*
X136419571Y-60869176D01*
X136495761Y-60831080D01*
X137219571Y-61173937D02*
X137143380Y-61135842D01*
X137105285Y-61097747D01*
X137067190Y-61021556D01*
X137067190Y-60983461D01*
X137105285Y-60907271D01*
X137143380Y-60869176D01*
X137219571Y-60831080D01*
X137371952Y-60831080D01*
X137448142Y-60869176D01*
X137486237Y-60907271D01*
X137524333Y-60983461D01*
X137524333Y-61021556D01*
X137486237Y-61097747D01*
X137448142Y-61135842D01*
X137371952Y-61173937D01*
X137219571Y-61173937D01*
X137143380Y-61212033D01*
X137105285Y-61250128D01*
X137067190Y-61326318D01*
X137067190Y-61478699D01*
X137105285Y-61554890D01*
X137143380Y-61592985D01*
X137219571Y-61631080D01*
X137371952Y-61631080D01*
X137448142Y-61592985D01*
X137486237Y-61554890D01*
X137524333Y-61478699D01*
X137524333Y-61326318D01*
X137486237Y-61250128D01*
X137448142Y-61212033D01*
X137371952Y-61173937D01*
X137053857Y-58691080D02*
X137130047Y-58691080D01*
X137206237Y-58729176D01*
X137244333Y-58767271D01*
X137282428Y-58843461D01*
X137320523Y-58995842D01*
X137320523Y-59186318D01*
X137282428Y-59338699D01*
X137244333Y-59414890D01*
X137206237Y-59452985D01*
X137130047Y-59491080D01*
X137053857Y-59491080D01*
X136977666Y-59452985D01*
X136939571Y-59414890D01*
X136901476Y-59338699D01*
X136863380Y-59186318D01*
X136863380Y-58995842D01*
X136901476Y-58843461D01*
X136939571Y-58767271D01*
X136977666Y-58729176D01*
X137053857Y-58691080D01*
X137815761Y-58691080D02*
X137891952Y-58691080D01*
X137968142Y-58729176D01*
X138006237Y-58767271D01*
X138044333Y-58843461D01*
X138082428Y-58995842D01*
X138082428Y-59186318D01*
X138044333Y-59338699D01*
X138006237Y-59414890D01*
X137968142Y-59452985D01*
X137891952Y-59491080D01*
X137815761Y-59491080D01*
X137739571Y-59452985D01*
X137701476Y-59414890D01*
X137663380Y-59338699D01*
X137625285Y-59186318D01*
X137625285Y-58995842D01*
X137663380Y-58843461D01*
X137701476Y-58767271D01*
X137739571Y-58729176D01*
X137815761Y-58691080D01*
X138768142Y-58691080D02*
X138615761Y-58691080D01*
X138539571Y-58729176D01*
X138501476Y-58767271D01*
X138425285Y-58881556D01*
X138387190Y-59033937D01*
X138387190Y-59338699D01*
X138425285Y-59414890D01*
X138463380Y-59452985D01*
X138539571Y-59491080D01*
X138691952Y-59491080D01*
X138768142Y-59452985D01*
X138806237Y-59414890D01*
X138844333Y-59338699D01*
X138844333Y-59148223D01*
X138806237Y-59072033D01*
X138768142Y-59033937D01*
X138691952Y-58995842D01*
X138539571Y-58995842D01*
X138463380Y-59033937D01*
X138425285Y-59072033D01*
X138387190Y-59148223D01*
%TO.C,U1*%
X136663380Y-84813080D02*
X136663380Y-84013080D01*
X136853857Y-84013080D01*
X136968142Y-84051176D01*
X137044333Y-84127366D01*
X137082428Y-84203556D01*
X137120523Y-84355937D01*
X137120523Y-84470223D01*
X137082428Y-84622604D01*
X137044333Y-84698795D01*
X136968142Y-84774985D01*
X136853857Y-84813080D01*
X136663380Y-84813080D01*
X137844333Y-84013080D02*
X137463380Y-84013080D01*
X137425285Y-84394033D01*
X137463380Y-84355937D01*
X137539571Y-84317842D01*
X137730047Y-84317842D01*
X137806237Y-84355937D01*
X137844333Y-84394033D01*
X137882428Y-84470223D01*
X137882428Y-84660699D01*
X137844333Y-84736890D01*
X137806237Y-84774985D01*
X137730047Y-84813080D01*
X137539571Y-84813080D01*
X137463380Y-84774985D01*
X137425285Y-84736890D01*
X142067190Y-84394033D02*
X141800523Y-84394033D01*
X141800523Y-84813080D02*
X141800523Y-84013080D01*
X142181476Y-84013080D01*
X142905285Y-84813080D02*
X142448142Y-84813080D01*
X142676714Y-84813080D02*
X142676714Y-84013080D01*
X142600523Y-84127366D01*
X142524333Y-84203556D01*
X142448142Y-84241652D01*
X139660523Y-84736890D02*
X139622428Y-84774985D01*
X139508142Y-84813080D01*
X139431952Y-84813080D01*
X139317666Y-84774985D01*
X139241476Y-84698795D01*
X139203380Y-84622604D01*
X139165285Y-84470223D01*
X139165285Y-84355937D01*
X139203380Y-84203556D01*
X139241476Y-84127366D01*
X139317666Y-84051176D01*
X139431952Y-84013080D01*
X139508142Y-84013080D01*
X139622428Y-84051176D01*
X139660523Y-84089271D01*
X139927190Y-84013080D02*
X140460523Y-84013080D01*
X140117666Y-84813080D01*
X145958154Y-84916167D02*
X146052435Y-84869027D01*
X146099576Y-84869027D01*
X146170286Y-84892597D01*
X146240997Y-84963308D01*
X146264567Y-85034018D01*
X146264567Y-85081159D01*
X146240997Y-85151869D01*
X146052435Y-85340431D01*
X145557460Y-84845456D01*
X145722452Y-84680465D01*
X145793163Y-84656895D01*
X145840303Y-84656895D01*
X145911014Y-84680465D01*
X145958154Y-84727605D01*
X145981724Y-84798316D01*
X145981724Y-84845456D01*
X145958154Y-84916167D01*
X145793163Y-85081159D01*
X146264567Y-84138350D02*
X146170286Y-84232631D01*
X146146716Y-84303341D01*
X146146716Y-84350482D01*
X146170286Y-84468333D01*
X146240997Y-84586184D01*
X146429559Y-84774746D01*
X146500269Y-84798316D01*
X146547410Y-84798316D01*
X146618121Y-84774746D01*
X146712401Y-84680465D01*
X146735972Y-84609754D01*
X146735972Y-84562614D01*
X146712401Y-84491903D01*
X146594550Y-84374052D01*
X146523840Y-84350482D01*
X146476699Y-84350482D01*
X146405989Y-84374052D01*
X146311708Y-84468333D01*
X146288137Y-84539043D01*
X146288137Y-84586184D01*
X146311708Y-84656895D01*
X144060523Y-84601176D02*
X143827190Y-84601176D01*
X143827190Y-84967842D02*
X143827190Y-84267842D01*
X144160523Y-84267842D01*
X144560523Y-84267842D02*
X144627190Y-84267842D01*
X144693857Y-84301176D01*
X144727190Y-84334509D01*
X144760523Y-84401176D01*
X144793857Y-84534509D01*
X144793857Y-84701176D01*
X144760523Y-84834509D01*
X144727190Y-84901176D01*
X144693857Y-84934509D01*
X144627190Y-84967842D01*
X144560523Y-84967842D01*
X144493857Y-84934509D01*
X144460523Y-84901176D01*
X144427190Y-84834509D01*
X144393857Y-84701176D01*
X144393857Y-84534509D01*
X144427190Y-84401176D01*
X144460523Y-84334509D01*
X144493857Y-84301176D01*
X144560523Y-84267842D01*
X135010523Y-84601176D02*
X135110523Y-84634509D01*
X135143857Y-84667842D01*
X135177190Y-84734509D01*
X135177190Y-84834509D01*
X135143857Y-84901176D01*
X135110523Y-84934509D01*
X135043857Y-84967842D01*
X134777190Y-84967842D01*
X134777190Y-84267842D01*
X135010523Y-84267842D01*
X135077190Y-84301176D01*
X135110523Y-84334509D01*
X135143857Y-84401176D01*
X135143857Y-84467842D01*
X135110523Y-84534509D01*
X135077190Y-84567842D01*
X135010523Y-84601176D01*
X134777190Y-84601176D01*
X135410523Y-84267842D02*
X135877190Y-84267842D01*
X135577190Y-84967842D01*
X134031508Y-57643080D02*
X134488651Y-57643080D01*
X134260080Y-58443080D02*
X134260080Y-57643080D01*
X134679127Y-57643080D02*
X135212461Y-58443080D01*
X135212461Y-57643080D02*
X134679127Y-58443080D01*
X135669604Y-57643080D02*
X135745794Y-57643080D01*
X135821985Y-57681176D01*
X135860080Y-57719271D01*
X135898175Y-57795461D01*
X135936270Y-57947842D01*
X135936270Y-58138318D01*
X135898175Y-58290699D01*
X135860080Y-58366890D01*
X135821985Y-58404985D01*
X135745794Y-58443080D01*
X135669604Y-58443080D01*
X135593413Y-58404985D01*
X135555318Y-58366890D01*
X135517223Y-58290699D01*
X135479127Y-58138318D01*
X135479127Y-57947842D01*
X135517223Y-57795461D01*
X135555318Y-57719271D01*
X135593413Y-57681176D01*
X135669604Y-57643080D01*
X136850556Y-57604985D02*
X136164842Y-58633556D01*
X137117223Y-58443080D02*
X137117223Y-57643080D01*
X137307699Y-57643080D01*
X137421985Y-57681176D01*
X137498175Y-57757366D01*
X137536270Y-57833556D01*
X137574365Y-57985937D01*
X137574365Y-58100223D01*
X137536270Y-58252604D01*
X137498175Y-58328795D01*
X137421985Y-58404985D01*
X137307699Y-58443080D01*
X137117223Y-58443080D01*
X137841032Y-57643080D02*
X138336270Y-57643080D01*
X138069604Y-57947842D01*
X138183889Y-57947842D01*
X138260080Y-57985937D01*
X138298175Y-58024033D01*
X138336270Y-58100223D01*
X138336270Y-58290699D01*
X138298175Y-58366890D01*
X138260080Y-58404985D01*
X138183889Y-58443080D01*
X137955318Y-58443080D01*
X137879127Y-58404985D01*
X137841032Y-58366890D01*
X133742380Y-60983080D02*
X133742380Y-60183080D01*
X133932857Y-60183080D01*
X134047142Y-60221176D01*
X134123333Y-60297366D01*
X134161428Y-60373556D01*
X134199523Y-60525937D01*
X134199523Y-60640223D01*
X134161428Y-60792604D01*
X134123333Y-60868795D01*
X134047142Y-60944985D01*
X133932857Y-60983080D01*
X133742380Y-60983080D01*
X134504285Y-60259271D02*
X134542380Y-60221176D01*
X134618571Y-60183080D01*
X134809047Y-60183080D01*
X134885237Y-60221176D01*
X134923333Y-60259271D01*
X134961428Y-60335461D01*
X134961428Y-60411652D01*
X134923333Y-60525937D01*
X134466190Y-60983080D01*
X134961428Y-60983080D01*
X133742380Y-71143080D02*
X133742380Y-70343080D01*
X133932857Y-70343080D01*
X134047142Y-70381176D01*
X134123333Y-70457366D01*
X134161428Y-70533556D01*
X134199523Y-70685937D01*
X134199523Y-70800223D01*
X134161428Y-70952604D01*
X134123333Y-71028795D01*
X134047142Y-71104985D01*
X133932857Y-71143080D01*
X133742380Y-71143080D01*
X134694761Y-70343080D02*
X134770952Y-70343080D01*
X134847142Y-70381176D01*
X134885237Y-70419271D01*
X134923333Y-70495461D01*
X134961428Y-70647842D01*
X134961428Y-70838318D01*
X134923333Y-70990699D01*
X134885237Y-71066890D01*
X134847142Y-71104985D01*
X134770952Y-71143080D01*
X134694761Y-71143080D01*
X134618571Y-71104985D01*
X134580476Y-71066890D01*
X134542380Y-70990699D01*
X134504285Y-70838318D01*
X134504285Y-70647842D01*
X134542380Y-70495461D01*
X134580476Y-70419271D01*
X134618571Y-70381176D01*
X134694761Y-70343080D01*
X133742380Y-68603080D02*
X133742380Y-67803080D01*
X133932857Y-67803080D01*
X134047142Y-67841176D01*
X134123333Y-67917366D01*
X134161428Y-67993556D01*
X134199523Y-68145937D01*
X134199523Y-68260223D01*
X134161428Y-68412604D01*
X134123333Y-68488795D01*
X134047142Y-68564985D01*
X133932857Y-68603080D01*
X133742380Y-68603080D01*
X134961428Y-68603080D02*
X134504285Y-68603080D01*
X134732857Y-68603080D02*
X134732857Y-67803080D01*
X134656666Y-67917366D01*
X134580476Y-67993556D01*
X134504285Y-68031652D01*
X133723333Y-65301176D02*
X133647142Y-65263080D01*
X133532857Y-65263080D01*
X133418571Y-65301176D01*
X133342380Y-65377366D01*
X133304285Y-65453556D01*
X133266190Y-65605937D01*
X133266190Y-65720223D01*
X133304285Y-65872604D01*
X133342380Y-65948795D01*
X133418571Y-66024985D01*
X133532857Y-66063080D01*
X133609047Y-66063080D01*
X133723333Y-66024985D01*
X133761428Y-65986890D01*
X133761428Y-65720223D01*
X133609047Y-65720223D01*
X134104285Y-66063080D02*
X134104285Y-65263080D01*
X134561428Y-66063080D01*
X134561428Y-65263080D01*
X134942380Y-66063080D02*
X134942380Y-65263080D01*
X135132857Y-65263080D01*
X135247142Y-65301176D01*
X135323333Y-65377366D01*
X135361428Y-65453556D01*
X135399523Y-65605937D01*
X135399523Y-65720223D01*
X135361428Y-65872604D01*
X135323333Y-65948795D01*
X135247142Y-66024985D01*
X135132857Y-66063080D01*
X134942380Y-66063080D01*
X133723333Y-62761176D02*
X133647142Y-62723080D01*
X133532857Y-62723080D01*
X133418571Y-62761176D01*
X133342380Y-62837366D01*
X133304285Y-62913556D01*
X133266190Y-63065937D01*
X133266190Y-63180223D01*
X133304285Y-63332604D01*
X133342380Y-63408795D01*
X133418571Y-63484985D01*
X133532857Y-63523080D01*
X133609047Y-63523080D01*
X133723333Y-63484985D01*
X133761428Y-63446890D01*
X133761428Y-63180223D01*
X133609047Y-63180223D01*
X134104285Y-63523080D02*
X134104285Y-62723080D01*
X134561428Y-63523080D01*
X134561428Y-62723080D01*
X134942380Y-63523080D02*
X134942380Y-62723080D01*
X135132857Y-62723080D01*
X135247142Y-62761176D01*
X135323333Y-62837366D01*
X135361428Y-62913556D01*
X135399523Y-63065937D01*
X135399523Y-63180223D01*
X135361428Y-63332604D01*
X135323333Y-63408795D01*
X135247142Y-63484985D01*
X135132857Y-63523080D01*
X134942380Y-63523080D01*
X133742380Y-73683080D02*
X133742380Y-72883080D01*
X133932857Y-72883080D01*
X134047142Y-72921176D01*
X134123333Y-72997366D01*
X134161428Y-73073556D01*
X134199523Y-73225937D01*
X134199523Y-73340223D01*
X134161428Y-73492604D01*
X134123333Y-73568795D01*
X134047142Y-73644985D01*
X133932857Y-73683080D01*
X133742380Y-73683080D01*
X134885237Y-73149747D02*
X134885237Y-73683080D01*
X134694761Y-72844985D02*
X134504285Y-73416414D01*
X134999523Y-73416414D01*
X134199523Y-76146890D02*
X134161428Y-76184985D01*
X134047142Y-76223080D01*
X133970952Y-76223080D01*
X133856666Y-76184985D01*
X133780476Y-76108795D01*
X133742380Y-76032604D01*
X133704285Y-75880223D01*
X133704285Y-75765937D01*
X133742380Y-75613556D01*
X133780476Y-75537366D01*
X133856666Y-75461176D01*
X133970952Y-75423080D01*
X134047142Y-75423080D01*
X134161428Y-75461176D01*
X134199523Y-75499271D01*
X134885237Y-75423080D02*
X134732857Y-75423080D01*
X134656666Y-75461176D01*
X134618571Y-75499271D01*
X134542380Y-75613556D01*
X134504285Y-75765937D01*
X134504285Y-76070699D01*
X134542380Y-76146890D01*
X134580476Y-76184985D01*
X134656666Y-76223080D01*
X134809047Y-76223080D01*
X134885237Y-76184985D01*
X134923333Y-76146890D01*
X134961428Y-76070699D01*
X134961428Y-75880223D01*
X134923333Y-75804033D01*
X134885237Y-75765937D01*
X134809047Y-75727842D01*
X134656666Y-75727842D01*
X134580476Y-75765937D01*
X134542380Y-75804033D01*
X134504285Y-75880223D01*
X133742380Y-78763080D02*
X133742380Y-77963080D01*
X133932857Y-77963080D01*
X134047142Y-78001176D01*
X134123333Y-78077366D01*
X134161428Y-78153556D01*
X134199523Y-78305937D01*
X134199523Y-78420223D01*
X134161428Y-78572604D01*
X134123333Y-78648795D01*
X134047142Y-78724985D01*
X133932857Y-78763080D01*
X133742380Y-78763080D01*
X134466190Y-77963080D02*
X134999523Y-77963080D01*
X134656666Y-78763080D01*
X133780476Y-80884033D02*
X134047142Y-80884033D01*
X134161428Y-81303080D02*
X133780476Y-81303080D01*
X133780476Y-80503080D01*
X134161428Y-80503080D01*
X134847142Y-80503080D02*
X134694761Y-80503080D01*
X134618571Y-80541176D01*
X134580476Y-80579271D01*
X134504285Y-80693556D01*
X134466190Y-80845937D01*
X134466190Y-81150699D01*
X134504285Y-81226890D01*
X134542380Y-81264985D01*
X134618571Y-81303080D01*
X134770952Y-81303080D01*
X134847142Y-81264985D01*
X134885237Y-81226890D01*
X134923333Y-81150699D01*
X134923333Y-80960223D01*
X134885237Y-80884033D01*
X134847142Y-80845937D01*
X134770952Y-80807842D01*
X134618571Y-80807842D01*
X134542380Y-80845937D01*
X134504285Y-80884033D01*
X134466190Y-80960223D01*
X134009047Y-83424033D02*
X134123333Y-83462128D01*
X134161428Y-83500223D01*
X134199523Y-83576414D01*
X134199523Y-83690699D01*
X134161428Y-83766890D01*
X134123333Y-83804985D01*
X134047142Y-83843080D01*
X133742380Y-83843080D01*
X133742380Y-83043080D01*
X134009047Y-83043080D01*
X134085237Y-83081176D01*
X134123333Y-83119271D01*
X134161428Y-83195461D01*
X134161428Y-83271652D01*
X134123333Y-83347842D01*
X134085237Y-83385937D01*
X134009047Y-83424033D01*
X133742380Y-83424033D01*
X134885237Y-83309747D02*
X134885237Y-83843080D01*
X134694761Y-83004985D02*
X134504285Y-83576414D01*
X134999523Y-83576414D01*
X133228865Y-84515473D02*
X133276005Y-84609754D01*
X133276005Y-84656895D01*
X133252435Y-84727605D01*
X133181724Y-84798316D01*
X133111014Y-84821886D01*
X133063873Y-84821886D01*
X132993163Y-84798316D01*
X132804601Y-84609754D01*
X133299576Y-84114779D01*
X133464567Y-84279771D01*
X133488137Y-84350482D01*
X133488137Y-84397622D01*
X133464567Y-84468333D01*
X133417427Y-84515473D01*
X133346716Y-84539043D01*
X133299576Y-84539043D01*
X133228865Y-84515473D01*
X133063873Y-84350482D01*
X134030253Y-84845456D02*
X133794550Y-84609754D01*
X133535278Y-84821886D01*
X133582418Y-84821886D01*
X133653129Y-84845456D01*
X133770980Y-84963308D01*
X133794550Y-85034018D01*
X133794550Y-85081159D01*
X133770980Y-85151869D01*
X133653129Y-85269720D01*
X133582418Y-85293291D01*
X133535278Y-85293291D01*
X133464567Y-85269720D01*
X133346716Y-85151869D01*
X133323146Y-85081159D01*
X133323146Y-85034018D01*
X144931047Y-80884033D02*
X145045333Y-80922128D01*
X145083428Y-80960223D01*
X145121523Y-81036414D01*
X145121523Y-81150699D01*
X145083428Y-81226890D01*
X145045333Y-81264985D01*
X144969142Y-81303080D01*
X144664380Y-81303080D01*
X144664380Y-80503080D01*
X144931047Y-80503080D01*
X145007237Y-80541176D01*
X145045333Y-80579271D01*
X145083428Y-80655461D01*
X145083428Y-80731652D01*
X145045333Y-80807842D01*
X145007237Y-80845937D01*
X144931047Y-80884033D01*
X144664380Y-80884033D01*
X145388190Y-80503080D02*
X145883428Y-80503080D01*
X145616761Y-80807842D01*
X145731047Y-80807842D01*
X145807237Y-80845937D01*
X145845333Y-80884033D01*
X145883428Y-80960223D01*
X145883428Y-81150699D01*
X145845333Y-81226890D01*
X145807237Y-81264985D01*
X145731047Y-81303080D01*
X145502476Y-81303080D01*
X145426285Y-81264985D01*
X145388190Y-81226890D01*
X144931047Y-78344033D02*
X145045333Y-78382128D01*
X145083428Y-78420223D01*
X145121523Y-78496414D01*
X145121523Y-78610699D01*
X145083428Y-78686890D01*
X145045333Y-78724985D01*
X144969142Y-78763080D01*
X144664380Y-78763080D01*
X144664380Y-77963080D01*
X144931047Y-77963080D01*
X145007237Y-78001176D01*
X145045333Y-78039271D01*
X145083428Y-78115461D01*
X145083428Y-78191652D01*
X145045333Y-78267842D01*
X145007237Y-78305937D01*
X144931047Y-78344033D01*
X144664380Y-78344033D01*
X145883428Y-78763080D02*
X145426285Y-78763080D01*
X145654857Y-78763080D02*
X145654857Y-77963080D01*
X145578666Y-78077366D01*
X145502476Y-78153556D01*
X145426285Y-78191652D01*
X144988190Y-68184033D02*
X144721523Y-68184033D01*
X144721523Y-68603080D02*
X144721523Y-67803080D01*
X145102476Y-67803080D01*
X145750095Y-68069747D02*
X145750095Y-68603080D01*
X145559618Y-67764985D02*
X145369142Y-68336414D01*
X145864380Y-68336414D01*
X144188190Y-65263080D02*
X144454857Y-66063080D01*
X144721523Y-65263080D01*
X145445333Y-65986890D02*
X145407237Y-66024985D01*
X145292952Y-66063080D01*
X145216761Y-66063080D01*
X145102476Y-66024985D01*
X145026285Y-65948795D01*
X144988190Y-65872604D01*
X144950095Y-65720223D01*
X144950095Y-65605937D01*
X144988190Y-65453556D01*
X145026285Y-65377366D01*
X145102476Y-65301176D01*
X145216761Y-65263080D01*
X145292952Y-65263080D01*
X145407237Y-65301176D01*
X145445333Y-65339271D01*
X146245333Y-65986890D02*
X146207237Y-66024985D01*
X146092952Y-66063080D01*
X146016761Y-66063080D01*
X145902476Y-66024985D01*
X145826285Y-65948795D01*
X145788190Y-65872604D01*
X145750095Y-65720223D01*
X145750095Y-65605937D01*
X145788190Y-65453556D01*
X145826285Y-65377366D01*
X145902476Y-65301176D01*
X146016761Y-65263080D01*
X146092952Y-65263080D01*
X146207237Y-65301176D01*
X146245333Y-65339271D01*
X144645333Y-60221176D02*
X144569142Y-60183080D01*
X144454857Y-60183080D01*
X144340571Y-60221176D01*
X144264380Y-60297366D01*
X144226285Y-60373556D01*
X144188190Y-60525937D01*
X144188190Y-60640223D01*
X144226285Y-60792604D01*
X144264380Y-60868795D01*
X144340571Y-60944985D01*
X144454857Y-60983080D01*
X144531047Y-60983080D01*
X144645333Y-60944985D01*
X144683428Y-60906890D01*
X144683428Y-60640223D01*
X144531047Y-60640223D01*
X145026285Y-60983080D02*
X145026285Y-60183080D01*
X145483428Y-60983080D01*
X145483428Y-60183080D01*
X145864380Y-60983080D02*
X145864380Y-60183080D01*
X146054857Y-60183080D01*
X146169142Y-60221176D01*
X146245333Y-60297366D01*
X146283428Y-60373556D01*
X146321523Y-60525937D01*
X146321523Y-60640223D01*
X146283428Y-60792604D01*
X146245333Y-60868795D01*
X146169142Y-60944985D01*
X146054857Y-60983080D01*
X145864380Y-60983080D01*
X144931047Y-58024033D02*
X145045333Y-58062128D01*
X145083428Y-58100223D01*
X145121523Y-58176414D01*
X145121523Y-58290699D01*
X145083428Y-58366890D01*
X145045333Y-58404985D01*
X144969142Y-58443080D01*
X144664380Y-58443080D01*
X144664380Y-57643080D01*
X144931047Y-57643080D01*
X145007237Y-57681176D01*
X145045333Y-57719271D01*
X145083428Y-57795461D01*
X145083428Y-57871652D01*
X145045333Y-57947842D01*
X145007237Y-57985937D01*
X144931047Y-58024033D01*
X144664380Y-58024033D01*
X145616761Y-57643080D02*
X145692952Y-57643080D01*
X145769142Y-57681176D01*
X145807237Y-57719271D01*
X145845333Y-57795461D01*
X145883428Y-57947842D01*
X145883428Y-58138318D01*
X145845333Y-58290699D01*
X145807237Y-58366890D01*
X145769142Y-58404985D01*
X145692952Y-58443080D01*
X145616761Y-58443080D01*
X145540571Y-58404985D01*
X145502476Y-58366890D01*
X145464380Y-58290699D01*
X145426285Y-58138318D01*
X145426285Y-57947842D01*
X145464380Y-57795461D01*
X145502476Y-57719271D01*
X145540571Y-57681176D01*
X145616761Y-57643080D01*
X144988190Y-70724033D02*
X144721523Y-70724033D01*
X144721523Y-71143080D02*
X144721523Y-70343080D01*
X145102476Y-70343080D01*
X145788190Y-70343080D02*
X145407237Y-70343080D01*
X145369142Y-70724033D01*
X145407237Y-70685937D01*
X145483428Y-70647842D01*
X145673904Y-70647842D01*
X145750095Y-70685937D01*
X145788190Y-70724033D01*
X145826285Y-70800223D01*
X145826285Y-70990699D01*
X145788190Y-71066890D01*
X145750095Y-71104985D01*
X145673904Y-71143080D01*
X145483428Y-71143080D01*
X145407237Y-71104985D01*
X145369142Y-71066890D01*
X144988190Y-73264033D02*
X144721523Y-73264033D01*
X144721523Y-73683080D02*
X144721523Y-72883080D01*
X145102476Y-72883080D01*
X145750095Y-72883080D02*
X145597714Y-72883080D01*
X145521523Y-72921176D01*
X145483428Y-72959271D01*
X145407237Y-73073556D01*
X145369142Y-73225937D01*
X145369142Y-73530699D01*
X145407237Y-73606890D01*
X145445333Y-73644985D01*
X145521523Y-73683080D01*
X145673904Y-73683080D01*
X145750095Y-73644985D01*
X145788190Y-73606890D01*
X145826285Y-73530699D01*
X145826285Y-73340223D01*
X145788190Y-73264033D01*
X145750095Y-73225937D01*
X145673904Y-73187842D01*
X145521523Y-73187842D01*
X145445333Y-73225937D01*
X145407237Y-73264033D01*
X145369142Y-73340223D01*
X144988190Y-75804033D02*
X144721523Y-75804033D01*
X144721523Y-76223080D02*
X144721523Y-75423080D01*
X145102476Y-75423080D01*
X145331047Y-75423080D02*
X145864380Y-75423080D01*
X145521523Y-76223080D01*
X144931047Y-83424033D02*
X145045333Y-83462128D01*
X145083428Y-83500223D01*
X145121523Y-83576414D01*
X145121523Y-83690699D01*
X145083428Y-83766890D01*
X145045333Y-83804985D01*
X144969142Y-83843080D01*
X144664380Y-83843080D01*
X144664380Y-83043080D01*
X144931047Y-83043080D01*
X145007237Y-83081176D01*
X145045333Y-83119271D01*
X145083428Y-83195461D01*
X145083428Y-83271652D01*
X145045333Y-83347842D01*
X145007237Y-83385937D01*
X144931047Y-83424033D01*
X144664380Y-83424033D01*
X145426285Y-83119271D02*
X145464380Y-83081176D01*
X145540571Y-83043080D01*
X145731047Y-83043080D01*
X145807237Y-83081176D01*
X145845333Y-83119271D01*
X145883428Y-83195461D01*
X145883428Y-83271652D01*
X145845333Y-83385937D01*
X145388190Y-83843080D01*
X145883428Y-83843080D01*
%TO.C,Brd1*%
X139027191Y-142083747D02*
X139170048Y-142131366D01*
X139217667Y-142178985D01*
X139265286Y-142274223D01*
X139265286Y-142417080D01*
X139217667Y-142512318D01*
X139170048Y-142559937D01*
X139074810Y-142607556D01*
X138693858Y-142607556D01*
X138693858Y-141607556D01*
X139027191Y-141607556D01*
X139122429Y-141655176D01*
X139170048Y-141702795D01*
X139217667Y-141798033D01*
X139217667Y-141893271D01*
X139170048Y-141988509D01*
X139122429Y-142036128D01*
X139027191Y-142083747D01*
X138693858Y-142083747D01*
X139693858Y-142607556D02*
X139693858Y-141940890D01*
X139693858Y-142131366D02*
X139741477Y-142036128D01*
X139789096Y-141988509D01*
X139884334Y-141940890D01*
X139979572Y-141940890D01*
X140741477Y-142607556D02*
X140741477Y-141607556D01*
X140741477Y-142559937D02*
X140646238Y-142607556D01*
X140455762Y-142607556D01*
X140360524Y-142559937D01*
X140312905Y-142512318D01*
X140265286Y-142417080D01*
X140265286Y-142131366D01*
X140312905Y-142036128D01*
X140360524Y-141988509D01*
X140455762Y-141940890D01*
X140646238Y-141940890D01*
X140741477Y-141988509D01*
X141741477Y-142607556D02*
X141170048Y-142607556D01*
X141455762Y-142607556D02*
X141455762Y-141607556D01*
X141360524Y-141750414D01*
X141265286Y-141845652D01*
X141170048Y-141893271D01*
%TO.C,J1*%
X130379571Y-149542510D02*
X131379571Y-149542510D01*
X130427190Y-149542510D02*
X130379571Y-149447272D01*
X130379571Y-149256796D01*
X130427190Y-149161557D01*
X130474809Y-149113938D01*
X130570047Y-149066319D01*
X130855761Y-149066319D01*
X130950999Y-149113938D01*
X130998618Y-149161557D01*
X131046237Y-149256796D01*
X131046237Y-149447272D01*
X130998618Y-149542510D01*
X131046237Y-148637748D02*
X130379571Y-148637748D01*
X130046237Y-148637748D02*
X130093857Y-148685367D01*
X130141476Y-148637748D01*
X130093857Y-148590129D01*
X130046237Y-148637748D01*
X130141476Y-148637748D01*
X131046237Y-148161557D02*
X130379571Y-148161557D01*
X130474809Y-148161557D02*
X130427190Y-148113938D01*
X130379571Y-148018700D01*
X130379571Y-147875843D01*
X130427190Y-147780605D01*
X130522428Y-147732986D01*
X131046237Y-147732986D01*
X130522428Y-147732986D02*
X130427190Y-147685367D01*
X130379571Y-147590129D01*
X130379571Y-147447272D01*
X130427190Y-147352034D01*
X130522428Y-147304415D01*
X131046237Y-147304415D01*
X131046237Y-146685367D02*
X130998618Y-146780605D01*
X130950999Y-146828224D01*
X130855761Y-146875843D01*
X130570047Y-146875843D01*
X130474809Y-146828224D01*
X130427190Y-146780605D01*
X130379571Y-146685367D01*
X130379571Y-146542510D01*
X130427190Y-146447272D01*
X130474809Y-146399653D01*
X130570047Y-146352034D01*
X130855761Y-146352034D01*
X130950999Y-146399653D01*
X130998618Y-146447272D01*
X131046237Y-146542510D01*
X131046237Y-146685367D01*
X131046237Y-145923462D02*
X130379571Y-145923462D01*
X130570047Y-145923462D02*
X130474809Y-145875843D01*
X130427190Y-145828224D01*
X130379571Y-145732986D01*
X130379571Y-145637748D01*
X131046237Y-145161557D02*
X130998618Y-145256796D01*
X130950999Y-145304415D01*
X130855761Y-145352034D01*
X130570047Y-145352034D01*
X130474809Y-145304415D01*
X130427190Y-145256796D01*
X130379571Y-145161557D01*
X130379571Y-145018700D01*
X130427190Y-144923462D01*
X130474809Y-144875843D01*
X130570047Y-144828224D01*
X130855761Y-144828224D01*
X130950999Y-144875843D01*
X130998618Y-144923462D01*
X131046237Y-145018700D01*
X131046237Y-145161557D01*
X130379571Y-144399653D02*
X131046237Y-144399653D01*
X130474809Y-144399653D02*
X130427190Y-144352034D01*
X130379571Y-144256796D01*
X130379571Y-144113938D01*
X130427190Y-144018700D01*
X130522428Y-143971081D01*
X131046237Y-143971081D01*
X131046237Y-143494891D02*
X130379571Y-143494891D01*
X130046237Y-143494891D02*
X130093857Y-143542510D01*
X130141476Y-143494891D01*
X130093857Y-143447272D01*
X130046237Y-143494891D01*
X130141476Y-143494891D01*
X130379571Y-142399653D02*
X130379571Y-142018700D01*
X130046237Y-142256796D02*
X130903380Y-142256796D01*
X130998618Y-142209177D01*
X131046237Y-142113938D01*
X131046237Y-142018700D01*
X131046237Y-141685367D02*
X130379571Y-141685367D01*
X130570047Y-141685367D02*
X130474809Y-141637748D01*
X130427190Y-141590129D01*
X130379571Y-141494891D01*
X130379571Y-141399653D01*
X131046237Y-140637748D02*
X130522428Y-140637748D01*
X130427190Y-140685367D01*
X130379571Y-140780605D01*
X130379571Y-140971081D01*
X130427190Y-141066319D01*
X130998618Y-140637748D02*
X131046237Y-140732986D01*
X131046237Y-140971081D01*
X130998618Y-141066319D01*
X130903380Y-141113938D01*
X130808142Y-141113938D01*
X130712904Y-141066319D01*
X130665285Y-140971081D01*
X130665285Y-140732986D01*
X130617666Y-140637748D01*
X130998618Y-139732986D02*
X131046237Y-139828224D01*
X131046237Y-140018700D01*
X130998618Y-140113938D01*
X130950999Y-140161557D01*
X130855761Y-140209177D01*
X130570047Y-140209177D01*
X130474809Y-140161557D01*
X130427190Y-140113938D01*
X130379571Y-140018700D01*
X130379571Y-139828224D01*
X130427190Y-139732986D01*
X131046237Y-139304415D02*
X130046237Y-139304415D01*
X130665285Y-139209177D02*
X131046237Y-138923462D01*
X130379571Y-138923462D02*
X130760523Y-139304415D01*
X131046237Y-138494891D02*
X130046237Y-138494891D01*
X130427190Y-138494891D02*
X130379571Y-138399653D01*
X130379571Y-138209177D01*
X130427190Y-138113938D01*
X130474809Y-138066319D01*
X130570047Y-138018700D01*
X130855761Y-138018700D01*
X130950999Y-138066319D01*
X130998618Y-138113938D01*
X131046237Y-138209177D01*
X131046237Y-138399653D01*
X130998618Y-138494891D01*
X131046237Y-137161557D02*
X130522428Y-137161557D01*
X130427190Y-137209177D01*
X130379571Y-137304415D01*
X130379571Y-137494891D01*
X130427190Y-137590129D01*
X130998618Y-137161557D02*
X131046237Y-137256796D01*
X131046237Y-137494891D01*
X130998618Y-137590129D01*
X130903380Y-137637748D01*
X130808142Y-137637748D01*
X130712904Y-137590129D01*
X130665285Y-137494891D01*
X130665285Y-137256796D01*
X130617666Y-137161557D01*
X131046237Y-136542510D02*
X130998618Y-136637748D01*
X130903380Y-136685367D01*
X130046237Y-136685367D01*
X131046237Y-136018700D02*
X130998618Y-136113938D01*
X130903380Y-136161557D01*
X130046237Y-136161557D01*
X131046237Y-134875843D02*
X130046237Y-134875843D01*
X130427190Y-134875843D02*
X130379571Y-134780605D01*
X130379571Y-134590129D01*
X130427190Y-134494891D01*
X130474809Y-134447272D01*
X130570047Y-134399653D01*
X130855761Y-134399653D01*
X130950999Y-134447272D01*
X130998618Y-134494891D01*
X131046237Y-134590129D01*
X131046237Y-134780605D01*
X130998618Y-134875843D01*
X131046237Y-133971081D02*
X130379571Y-133971081D01*
X130570047Y-133971081D02*
X130474809Y-133923462D01*
X130427190Y-133875843D01*
X130379571Y-133780605D01*
X130379571Y-133685367D01*
X130998618Y-132971081D02*
X131046237Y-133066319D01*
X131046237Y-133256796D01*
X130998618Y-133352034D01*
X130903380Y-133399653D01*
X130522428Y-133399653D01*
X130427190Y-133352034D01*
X130379571Y-133256796D01*
X130379571Y-133066319D01*
X130427190Y-132971081D01*
X130522428Y-132923462D01*
X130617666Y-132923462D01*
X130712904Y-133399653D01*
X131046237Y-132066319D02*
X130522428Y-132066319D01*
X130427190Y-132113938D01*
X130379571Y-132209177D01*
X130379571Y-132399653D01*
X130427190Y-132494891D01*
X130998618Y-132066319D02*
X131046237Y-132161557D01*
X131046237Y-132399653D01*
X130998618Y-132494891D01*
X130903380Y-132542510D01*
X130808142Y-132542510D01*
X130712904Y-132494891D01*
X130665285Y-132399653D01*
X130665285Y-132161557D01*
X130617666Y-132066319D01*
X131046237Y-131590129D02*
X130046237Y-131590129D01*
X130665285Y-131494891D02*
X131046237Y-131209177D01*
X130379571Y-131209177D02*
X130760523Y-131590129D01*
X131046237Y-130637748D02*
X130998618Y-130732986D01*
X130950999Y-130780605D01*
X130855761Y-130828224D01*
X130570047Y-130828224D01*
X130474809Y-130780605D01*
X130427190Y-130732986D01*
X130379571Y-130637748D01*
X130379571Y-130494891D01*
X130427190Y-130399653D01*
X130474809Y-130352034D01*
X130570047Y-130304415D01*
X130855761Y-130304415D01*
X130950999Y-130352034D01*
X130998618Y-130399653D01*
X131046237Y-130494891D01*
X131046237Y-130637748D01*
X130379571Y-129447272D02*
X131046237Y-129447272D01*
X130379571Y-129875843D02*
X130903380Y-129875843D01*
X130998618Y-129828224D01*
X131046237Y-129732986D01*
X131046237Y-129590129D01*
X130998618Y-129494891D01*
X130950999Y-129447272D01*
X130379571Y-129113938D02*
X130379571Y-128732986D01*
X130046237Y-128971081D02*
X130903380Y-128971081D01*
X130998618Y-128923462D01*
X131046237Y-128828224D01*
X131046237Y-128732986D01*
%TD*%
M02*
