%TF.GenerationSoftware,KiCad,Pcbnew,(5.1.10)-1*%
%TF.CreationDate,2021-12-17T13:55:30-08:00*%
%TF.ProjectId,barobord,6261726f-626f-4726-942e-6b696361645f,rev?*%
%TF.SameCoordinates,Original*%
%TF.FileFunction,Copper,L1,Top*%
%TF.FilePolarity,Positive*%
%FSLAX46Y46*%
G04 Gerber Fmt 4.6, Leading zero omitted, Abs format (unit mm)*
G04 Created by KiCad (PCBNEW (5.1.10)-1) date 2021-12-17 13:55:30*
%MOMM*%
%LPD*%
G01*
G04 APERTURE LIST*
%TA.AperFunction,ComponentPad*%
%ADD10C,0.100000*%
%TD*%
%TA.AperFunction,ComponentPad*%
%ADD11C,1.752600*%
%TD*%
%TA.AperFunction,ComponentPad*%
%ADD12R,1.752600X1.752600*%
%TD*%
%TA.AperFunction,ComponentPad*%
%ADD13O,2.000000X3.000000*%
%TD*%
%TA.AperFunction,ComponentPad*%
%ADD14O,1.524000X1.524000*%
%TD*%
%TA.AperFunction,ComponentPad*%
%ADD15C,1.524000*%
%TD*%
%TA.AperFunction,ComponentPad*%
%ADD16R,2.000000X2.000000*%
%TD*%
%TA.AperFunction,ComponentPad*%
%ADD17C,2.000000*%
%TD*%
%TA.AperFunction,ComponentPad*%
%ADD18O,1.600000X2.000000*%
%TD*%
%TA.AperFunction,ComponentPad*%
%ADD19O,3.800000X3.300000*%
%TD*%
%TA.AperFunction,ViaPad*%
%ADD20C,0.800000*%
%TD*%
%TA.AperFunction,Conductor*%
%ADD21C,0.381000*%
%TD*%
%TA.AperFunction,Conductor*%
%ADD22C,0.254000*%
%TD*%
G04 APERTURE END LIST*
%TO.P,J2,3*%
%TO.N,B-*%
%TA.AperFunction,ComponentPad*%
G36*
G01*
X79457720Y-101984403D02*
X79956190Y-102216843D01*
G75*
G02*
X80246404Y-103014199I-253571J-543785D01*
G01*
X80246404Y-103014199D01*
G75*
G02*
X79449048Y-103304413I-543785J253571D01*
G01*
X78950578Y-103071973D01*
G75*
G02*
X78660364Y-102274617I253571J543785D01*
G01*
X78660364Y-102274617D01*
G75*
G02*
X79457720Y-101984403I543785J-253571D01*
G01*
G37*
%TD.AperFunction*%
%TO.P,J2,2*%
%TO.N,Net-(J2-Pad2)*%
%TA.AperFunction,ComponentPad*%
G36*
G01*
X80302956Y-100171788D02*
X80801426Y-100404228D01*
G75*
G02*
X81091640Y-101201584I-253571J-543785D01*
G01*
X81091640Y-101201584D01*
G75*
G02*
X80294284Y-101491798I-543785J253571D01*
G01*
X79795814Y-101259358D01*
G75*
G02*
X79505600Y-100462002I253571J543785D01*
G01*
X79505600Y-100462002D01*
G75*
G02*
X80302956Y-100171788I543785J-253571D01*
G01*
G37*
%TD.AperFunction*%
%TO.P,J2,1*%
%TO.N,B-*%
%TA.AperFunction,ComponentPad*%
G36*
G01*
X80830985Y-98211256D02*
X81963871Y-98739529D01*
G75*
G02*
X82084793Y-99071759I-105654J-226576D01*
G01*
X81788959Y-99706176D01*
G75*
G02*
X81456729Y-99827098I-226576J105654D01*
G01*
X80323843Y-99298825D01*
G75*
G02*
X80202921Y-98966595I105654J226576D01*
G01*
X80498755Y-98332178D01*
G75*
G02*
X80830985Y-98211256I226576J-105654D01*
G01*
G37*
%TD.AperFunction*%
%TD*%
%TO.P,SW46,*%
%TO.N,*%
%TA.AperFunction,ComponentPad*%
G36*
G01*
X112935695Y-44171767D02*
X113485099Y-42993567D01*
G75*
G02*
X114946918Y-42461508I996939J-464880D01*
G01*
X114946918Y-42461508D01*
G75*
G02*
X115478977Y-43923327I-464880J-996939D01*
G01*
X114929573Y-45101527D01*
G75*
G02*
X113467754Y-45633586I-996939J464880D01*
G01*
X113467754Y-45633586D01*
G75*
G02*
X112935695Y-44171767I464880J996939D01*
G01*
G37*
%TD.AperFunction*%
%TA.AperFunction,ComponentPad*%
G36*
G01*
X105503971Y-40706298D02*
X106053375Y-39528098D01*
G75*
G02*
X107515194Y-38996039I996939J-464880D01*
G01*
X107515194Y-38996039D01*
G75*
G02*
X108047253Y-40457858I-464880J-996939D01*
G01*
X107497849Y-41636058D01*
G75*
G02*
X106036030Y-42168117I-996939J464880D01*
G01*
X106036030Y-42168117D01*
G75*
G02*
X105503971Y-40706298I464880J996939D01*
G01*
G37*
%TD.AperFunction*%
%TO.P,SW46,3*%
%TO.N,N/C*%
%TA.AperFunction,ComponentPad*%
G36*
G01*
X111413049Y-43296239D02*
X111835667Y-42389931D01*
G75*
G02*
X112832362Y-42027164I679731J-316964D01*
G01*
X112832362Y-42027164D01*
G75*
G02*
X113195129Y-43023859I-316964J-679731D01*
G01*
X112772511Y-43930167D01*
G75*
G02*
X111775816Y-44292934I-679731J316964D01*
G01*
X111775816Y-44292934D01*
G75*
G02*
X111413049Y-43296239I316964J679731D01*
G01*
G37*
%TD.AperFunction*%
%TO.P,SW46,2*%
%TO.N,Net-(J2-Pad2)*%
%TA.AperFunction,ComponentPad*%
G36*
G01*
X109600434Y-42451003D02*
X110023052Y-41544695D01*
G75*
G02*
X111019747Y-41181928I679731J-316964D01*
G01*
X111019747Y-41181928D01*
G75*
G02*
X111382514Y-42178623I-316964J-679731D01*
G01*
X110959896Y-43084931D01*
G75*
G02*
X109963201Y-43447698I-679731J316964D01*
G01*
X109963201Y-43447698D01*
G75*
G02*
X109600434Y-42451003I316964J679731D01*
G01*
G37*
%TD.AperFunction*%
%TA.AperFunction,ComponentPad*%
D10*
%TO.P,SW46,1*%
%TO.N,B+*%
G36*
X107470854Y-42285497D02*
G01*
X108527400Y-40019728D01*
X109886862Y-40653655D01*
X108830316Y-42919424D01*
X107470854Y-42285497D01*
G37*
%TD.AperFunction*%
%TD*%
D11*
%TO.P,U2,1*%
%TO.N,led*%
X132173857Y-58081176D03*
%TO.P,U2,2*%
%TO.N,col0*%
X132173857Y-60621176D03*
%TO.P,U2,3*%
%TO.N,GND*%
X132173857Y-63161176D03*
%TO.P,U2,4*%
X132173857Y-65701176D03*
%TO.P,U2,5*%
%TO.N,sda*%
X132173857Y-68241176D03*
%TO.P,U2,6*%
%TO.N,scl*%
X132173857Y-70781176D03*
%TO.P,U2,7*%
%TO.N,col1*%
X132173857Y-73321176D03*
%TO.P,U2,8*%
%TO.N,col2*%
X132173857Y-75861176D03*
%TO.P,U2,9*%
%TO.N,col3*%
X132173857Y-78401176D03*
%TO.P,U2,10*%
%TO.N,col4*%
X132173857Y-80941176D03*
%TO.P,U2,11*%
%TO.N,row3*%
X132173857Y-83481176D03*
%TO.P,U2,13*%
%TO.N,row0*%
X147413857Y-86021176D03*
%TO.P,U2,14*%
%TO.N,row4*%
X147413857Y-83481176D03*
%TO.P,U2,15*%
%TO.N,ENC2A*%
X147413857Y-80941176D03*
%TO.P,U2,16*%
%TO.N,col8*%
X147413857Y-78401176D03*
%TO.P,U2,17*%
%TO.N,col7*%
X147413857Y-75861176D03*
%TO.P,U2,18*%
%TO.N,col6*%
X147413857Y-73321176D03*
%TO.P,U2,19*%
%TO.N,col5*%
X147413857Y-70781176D03*
%TO.P,U2,20*%
%TO.N,row1*%
X147413857Y-68241176D03*
%TO.P,U2,21*%
%TO.N,+5V*%
X147413857Y-65701176D03*
%TO.P,U2,22*%
%TO.N,RESET*%
X147413857Y-63161176D03*
%TO.P,U2,23*%
%TO.N,B-*%
X147413857Y-60621176D03*
%TO.P,U2,12*%
%TO.N,row2*%
X132173857Y-86021176D03*
%TO.P,U2,24*%
%TO.N,B+*%
X147413857Y-58081176D03*
%TO.P,U2,31*%
%TO.N,ENC1B*%
X134713857Y-80941176D03*
%TO.P,U2,32*%
%TO.N,ENC1A*%
X137253857Y-80941176D03*
%TO.P,U2,33*%
%TO.N,ENC2B*%
X139793857Y-80941176D03*
%TD*%
%TO.P,U1,25*%
%TO.N,ENC1B*%
X134713857Y-86021176D03*
%TO.P,U1,26*%
%TO.N,ENC1A*%
X137253857Y-86021176D03*
%TO.P,U1,27*%
%TO.N,ENC2B*%
X139793857Y-86021176D03*
%TO.P,U1,28*%
%TO.N,Net-(U1-Pad28)*%
X142333857Y-86021176D03*
%TO.P,U1,29*%
%TO.N,Net-(U1-Pad29)*%
X144873857Y-86021176D03*
%TO.P,U1,24*%
%TO.N,B+*%
X147413857Y-58081176D03*
%TO.P,U1,12*%
%TO.N,row2*%
X132402457Y-86021176D03*
%TO.P,U1,23*%
%TO.N,B-*%
X147413857Y-60621176D03*
%TO.P,U1,22*%
%TO.N,RESET*%
X147413857Y-63161176D03*
%TO.P,U1,21*%
%TO.N,+5V*%
X147413857Y-65701176D03*
%TO.P,U1,20*%
%TO.N,row1*%
X147413857Y-68241176D03*
%TO.P,U1,19*%
%TO.N,col5*%
X147413857Y-70781176D03*
%TO.P,U1,18*%
%TO.N,col6*%
X147413857Y-73321176D03*
%TO.P,U1,17*%
%TO.N,col7*%
X147413857Y-75861176D03*
%TO.P,U1,16*%
%TO.N,col8*%
X147413857Y-78401176D03*
%TO.P,U1,15*%
%TO.N,ENC2A*%
X147413857Y-80941176D03*
%TO.P,U1,14*%
%TO.N,row4*%
X147413857Y-83481176D03*
%TO.P,U1,13*%
%TO.N,row0*%
X147413857Y-86021176D03*
%TO.P,U1,11*%
%TO.N,row3*%
X132173857Y-83481176D03*
%TO.P,U1,10*%
%TO.N,col4*%
X132173857Y-80941176D03*
%TO.P,U1,9*%
%TO.N,col3*%
X132173857Y-78401176D03*
%TO.P,U1,8*%
%TO.N,col2*%
X132173857Y-75861176D03*
%TO.P,U1,7*%
%TO.N,col1*%
X132173857Y-73321176D03*
%TO.P,U1,6*%
%TO.N,scl*%
X132173857Y-70781176D03*
%TO.P,U1,5*%
%TO.N,sda*%
X132173857Y-68241176D03*
%TO.P,U1,4*%
%TO.N,GND*%
X132173857Y-65701176D03*
%TO.P,U1,3*%
X132173857Y-63161176D03*
%TO.P,U1,2*%
%TO.N,col0*%
X132173857Y-60621176D03*
D12*
%TO.P,U1,1*%
%TO.N,led*%
X132173857Y-58081176D03*
%TD*%
D13*
%TO.P,SW45,NC*%
%TO.N,Net-(SW45-PadNC)*%
X155463857Y-124659177D03*
%TO.P,SW45,C*%
%TO.N,GND*%
X152923857Y-124659177D03*
%TO.P,SW45,B*%
%TO.N,ENC2B*%
X150383857Y-124659177D03*
%TO.P,SW45,A*%
%TO.N,ENC2A*%
X147843857Y-124659177D03*
D14*
%TO.P,SW45,S2*%
%TO.N,Net-(D82-Pad2)*%
X144843857Y-124309177D03*
D15*
%TO.P,SW45,S1*%
%TO.N,col3*%
X144843857Y-126309177D03*
%TD*%
D16*
%TO.P,SW43,A*%
%TO.N,ENC2A*%
X144293857Y-116309177D03*
D17*
%TO.P,SW43,C*%
%TO.N,GND*%
X144293857Y-118809177D03*
%TO.P,SW43,B*%
%TO.N,ENC2B*%
X144293857Y-121309177D03*
%TO.P,SW43,S2*%
%TO.N,Net-(D82-Pad2)*%
X158793857Y-116309177D03*
%TO.P,SW43,S1*%
%TO.N,col3*%
X158793857Y-121309177D03*
%TD*%
D16*
%TO.P,SW42,A*%
%TO.N,ENC1A*%
X135293857Y-121309176D03*
D17*
%TO.P,SW42,C*%
%TO.N,GND*%
X135293857Y-118809176D03*
%TO.P,SW42,B*%
%TO.N,ENC1B*%
X135293857Y-116309176D03*
%TO.P,SW42,S2*%
%TO.N,Net-(D81-Pad2)*%
X120793857Y-121309176D03*
%TO.P,SW42,S1*%
%TO.N,col4*%
X120793857Y-116309176D03*
%TD*%
D13*
%TO.P,SW44,NC*%
%TO.N,Net-(SW44-PadNC)*%
X131863858Y-124659177D03*
%TO.P,SW44,C*%
%TO.N,GND*%
X129323858Y-124659177D03*
%TO.P,SW44,B*%
%TO.N,ENC1B*%
X126783858Y-124659177D03*
%TO.P,SW44,A*%
%TO.N,ENC1A*%
X124243858Y-124659177D03*
D14*
%TO.P,SW44,S2*%
%TO.N,Net-(D81-Pad2)*%
X121243858Y-124309177D03*
D15*
%TO.P,SW44,S1*%
%TO.N,col4*%
X121243858Y-126309177D03*
%TD*%
D18*
%TO.P,Brd1,2*%
%TO.N,+5V*%
X141273858Y-153009176D03*
%TO.P,Brd1,1*%
%TO.N,GND*%
X143813858Y-153009176D03*
%TO.P,Brd1,3*%
%TO.N,scl*%
X138733858Y-153009176D03*
%TO.P,Brd1,4*%
%TO.N,sda*%
X136193858Y-153009176D03*
%TD*%
D19*
%TO.P,J1,9*%
%TO.N,N/C*%
X134293857Y-129409177D03*
%TO.P,J1,8*%
X145293857Y-129409177D03*
%TO.P,J1,7*%
X145293857Y-149009177D03*
%TO.P,J1,6*%
X134293857Y-149009177D03*
%TO.P,J1,1*%
%TO.N,+5V*%
%TA.AperFunction,ComponentPad*%
G36*
G01*
X127069857Y-133704177D02*
X127069857Y-134554177D01*
G75*
G02*
X126644857Y-134979177I-425000J0D01*
G01*
X125294857Y-134979177D01*
G75*
G02*
X124869857Y-134554177I0J425000D01*
G01*
X124869857Y-133704177D01*
G75*
G02*
X125294857Y-133279177I425000J0D01*
G01*
X126644857Y-133279177D01*
G75*
G02*
X127069857Y-133704177I0J-425000D01*
G01*
G37*
%TD.AperFunction*%
%TO.P,J1,2*%
%TO.N,sda*%
%TA.AperFunction,ComponentPad*%
G36*
G01*
X126644857Y-137519177D02*
X125294857Y-137519177D01*
G75*
G02*
X124869857Y-137094177I0J425000D01*
G01*
X124869857Y-136244177D01*
G75*
G02*
X125294857Y-135819177I425000J0D01*
G01*
X126644857Y-135819177D01*
G75*
G02*
X127069857Y-136244177I0J-425000D01*
G01*
X127069857Y-137094177D01*
G75*
G02*
X126644857Y-137519177I-425000J0D01*
G01*
G37*
%TD.AperFunction*%
%TO.P,J1,3*%
%TO.N,scl*%
%TA.AperFunction,ComponentPad*%
G36*
G01*
X126644857Y-140059177D02*
X125294857Y-140059177D01*
G75*
G02*
X124869857Y-139634177I0J425000D01*
G01*
X124869857Y-138784177D01*
G75*
G02*
X125294857Y-138359177I425000J0D01*
G01*
X126644857Y-138359177D01*
G75*
G02*
X127069857Y-138784177I0J-425000D01*
G01*
X127069857Y-139634177D01*
G75*
G02*
X126644857Y-140059177I-425000J0D01*
G01*
G37*
%TD.AperFunction*%
%TO.P,J1,4*%
%TO.N,Net-(J1-Pad4)*%
%TA.AperFunction,ComponentPad*%
G36*
G01*
X126644857Y-142599177D02*
X125294857Y-142599177D01*
G75*
G02*
X124869857Y-142174177I0J425000D01*
G01*
X124869857Y-141324177D01*
G75*
G02*
X125294857Y-140899177I425000J0D01*
G01*
X126644857Y-140899177D01*
G75*
G02*
X127069857Y-141324177I0J-425000D01*
G01*
X127069857Y-142174177D01*
G75*
G02*
X126644857Y-142599177I-425000J0D01*
G01*
G37*
%TD.AperFunction*%
%TO.P,J1,5*%
%TO.N,GND*%
%TA.AperFunction,ComponentPad*%
G36*
G01*
X126644857Y-145139177D02*
X125294857Y-145139177D01*
G75*
G02*
X124869857Y-144714177I0J425000D01*
G01*
X124869857Y-143864177D01*
G75*
G02*
X125294857Y-143439177I425000J0D01*
G01*
X126644857Y-143439177D01*
G75*
G02*
X127069857Y-143864177I0J-425000D01*
G01*
X127069857Y-144714177D01*
G75*
G02*
X126644857Y-145139177I-425000J0D01*
G01*
G37*
%TD.AperFunction*%
%TD*%
D20*
%TO.N,GND*%
X125793858Y-153409177D03*
X139993857Y-119609177D03*
X139993858Y-155009177D03*
X129393857Y-118809177D03*
X152593858Y-118809177D03*
X49793857Y-29609177D03*
X71193858Y-25609177D03*
X123575930Y-50609177D03*
X64193857Y-42209176D03*
X83393857Y-45609177D03*
X98493858Y-58109176D03*
X114952826Y-68450209D03*
X125993857Y-72209176D03*
X119993857Y-90209177D03*
X106193857Y-85618677D03*
X91652826Y-76150208D03*
X74993857Y-63018677D03*
X55993857Y-59618676D03*
X41793857Y-46609176D03*
X108993858Y-124209176D03*
X75993857Y-107209177D03*
X55393857Y-95609177D03*
X59593858Y-80009176D03*
X67993857Y-81209176D03*
X47993857Y-77209176D03*
X33393857Y-63809177D03*
X95993858Y-117609176D03*
X114193857Y-131809177D03*
X201393858Y-26009176D03*
X180993857Y-30409176D03*
X165393858Y-42609177D03*
X150793857Y-52609177D03*
X158355366Y-71351441D03*
X190843835Y-48218676D03*
X208593857Y-45218676D03*
X225393858Y-30618677D03*
X174993858Y-61409177D03*
X115993858Y-100809176D03*
X161193857Y-100809177D03*
X161193857Y-91209176D03*
X167193857Y-88409177D03*
X182334889Y-77950208D03*
X198734889Y-65350208D03*
X217634889Y-62050209D03*
X232434890Y-48050208D03*
X171393857Y-126209177D03*
X177052825Y-121268145D03*
X197993857Y-109409176D03*
X161593857Y-136009177D03*
X207452826Y-105468144D03*
X201551321Y-85239032D03*
X204793858Y-84009177D03*
X225393857Y-79418677D03*
X239993857Y-65618677D03*
X158193858Y-139809176D03*
X170593858Y-118809176D03*
X92393857Y-28209176D03*
X134685356Y-55061677D03*
X153734142Y-72418677D03*
X128109857Y-69765177D03*
X126344925Y-70286244D03*
X115333657Y-47438577D03*
X113377858Y-52289977D03*
X103243257Y-46092377D03*
%TO.N,+5V*%
X122793857Y-152409177D03*
X141193857Y-110009177D03*
X141193857Y-133209177D03*
X121793857Y-71809177D03*
X106293857Y-63309177D03*
X90993857Y-51409176D03*
X71193857Y-45609177D03*
X100193858Y-32409176D03*
X53393858Y-37209176D03*
X45393858Y-54409176D03*
X120793857Y-91009176D03*
X110752825Y-123568144D03*
X84052825Y-109750209D03*
X72793858Y-104209177D03*
X75393857Y-84409176D03*
X54793857Y-79209177D03*
X40793857Y-66809176D03*
X102093857Y-120709176D03*
X122793857Y-135609176D03*
X119193857Y-135609177D03*
X113593857Y-90009176D03*
X157652826Y-49868145D03*
X174652825Y-39268145D03*
X189852825Y-26868145D03*
X208993857Y-23609177D03*
X231593857Y-28209176D03*
X216893857Y-42309176D03*
X198593857Y-46009176D03*
X183193857Y-58609177D03*
X167052825Y-69268144D03*
X116793858Y-99809177D03*
X161993857Y-99809177D03*
X161993858Y-91809176D03*
X239993857Y-45609176D03*
X174193857Y-85809177D03*
X190193857Y-75409177D03*
X205393858Y-63009176D03*
X224793857Y-59609177D03*
X171393858Y-124809177D03*
X185193858Y-115209177D03*
X204993858Y-105609177D03*
X166793858Y-129409176D03*
X207593857Y-104209176D03*
X201793857Y-86209177D03*
X214193857Y-80209177D03*
X233193857Y-76409177D03*
X247993858Y-62809177D03*
X129334889Y-54068144D03*
X97910967Y-80422550D03*
X63043836Y-63999677D03*
X82193857Y-67609176D03*
X144365858Y-55852178D03*
X152274857Y-73067177D03*
X161993858Y-97349176D03*
X157389858Y-97197177D03*
X150715857Y-73067177D03*
X167720825Y-110418209D03*
X128496924Y-78026243D03*
X123953857Y-91009177D03*
X109380857Y-66396176D03*
X111879257Y-49114977D03*
X114393858Y-51654976D03*
X116349657Y-48251376D03*
X77055257Y-45609176D03*
X80974866Y-28990186D03*
X154144857Y-133442976D03*
%TO.N,row0*%
X45993858Y-26609177D03*
X79384357Y-44218677D03*
X94852826Y-53750208D03*
X186133254Y-50930172D03*
X203793858Y-46018677D03*
X162038333Y-48430600D03*
X149445857Y-54799676D03*
X145635857Y-59351177D03*
X129125857Y-61891177D03*
X122769790Y-70279243D03*
X118203858Y-57065176D03*
X125569858Y-61383177D03*
X140987657Y-61891177D03*
X59428750Y-33851454D03*
X171061257Y-62703977D03*
%TO.N,row1*%
X37593857Y-43809176D03*
X52263661Y-55939372D03*
X71593857Y-60818677D03*
X86763661Y-72039373D03*
X103052825Y-82150209D03*
X129793857Y-99018676D03*
X162793857Y-99009177D03*
X163032348Y-89018676D03*
X178124053Y-80139373D03*
X193724053Y-67939373D03*
X210593858Y-61009177D03*
X153809957Y-74291076D03*
X152274858Y-74275614D03*
X129593858Y-89409177D03*
%TO.N,row2*%
X29193858Y-61209177D03*
X63593857Y-77609177D03*
X80393857Y-85409177D03*
X79593858Y-89809176D03*
X95207925Y-98595110D03*
X164143793Y-101559198D03*
X166593857Y-107009177D03*
X185993857Y-96609176D03*
X200203357Y-87773345D03*
X201593857Y-83809177D03*
X140139847Y-101599676D03*
X218793857Y-78609176D03*
X45546457Y-70056576D03*
%TO.N,row3*%
X35593857Y-90809177D03*
X56193858Y-96409176D03*
X69934890Y-103668144D03*
X64193858Y-120209176D03*
X82193858Y-129009177D03*
X97993857Y-140209177D03*
X215593857Y-119209177D03*
X198993857Y-126809176D03*
X183093857Y-138509177D03*
X161493857Y-146709176D03*
X156193858Y-130809177D03*
X161979791Y-127395109D03*
X160678304Y-102397719D03*
X138993858Y-102609176D03*
%TO.N,led*%
X66593857Y-24809177D03*
X49407925Y-28155176D03*
X133443857Y-54271177D03*
X59174257Y-32884377D03*
%TO.N,Net-(D41-Pad2)*%
X55193858Y-30082177D03*
X48772393Y-27383100D03*
%TO.N,Net-(D42-Pad2)*%
X45851604Y-47106921D03*
X40993857Y-45155176D03*
%TO.N,Net-(D43-Pad2)*%
X39793857Y-68209176D03*
X46134889Y-77068145D03*
%TO.N,Net-(D47-Pad2)*%
X79515899Y-29331218D03*
X89593857Y-29809177D03*
%TO.N,Net-(D48-Pad2)*%
X98593857Y-33209177D03*
X88593857Y-35409177D03*
X87193857Y-46364666D03*
X82593857Y-44150308D03*
%TO.N,Net-(D49-Pad2)*%
X89916463Y-47371780D03*
X81793857Y-43409176D03*
%TO.N,Net-(D50-Pad2)*%
X79793857Y-63364667D03*
X74193858Y-61564676D03*
%TO.N,Net-(D51-Pad2)*%
X74807924Y-82082177D03*
X85593857Y-85809177D03*
%TO.N,Net-(D54-Pad2)*%
X121593857Y-51409176D03*
X112438057Y-48048176D03*
%TO.N,Net-(D55-Pad2)*%
X128075921Y-53927113D03*
X119193857Y-51209177D03*
%TO.N,Net-(D56-Pad2)*%
X120128957Y-69074076D03*
X115428958Y-66174075D03*
%TO.N,Net-(D57-Pad2)*%
X111173859Y-86564666D03*
X106269108Y-83933926D03*
X104558757Y-105044277D03*
X77720857Y-91336176D03*
X70193857Y-109009177D03*
X73593858Y-110409176D03*
%TO.N,Net-(D58-Pad2)*%
X82134889Y-110068144D03*
X94334889Y-117068144D03*
%TO.N,Net-(D59-Pad2)*%
X100634889Y-121768145D03*
X111934889Y-130668145D03*
%TO.N,Net-(D60-Pad2)*%
X121993857Y-131609177D03*
X157193858Y-132409177D03*
%TO.N,Net-(D61-Pad2)*%
X166252825Y-132468145D03*
X176811793Y-122627112D03*
%TO.N,Net-(D62-Pad2)*%
X184357575Y-117563394D03*
X196252825Y-110868145D03*
%TO.N,Net-(D63-Pad2)*%
X202488069Y-105103388D03*
X205094035Y-103109354D03*
X200129224Y-91000811D03*
X180632481Y-102882820D03*
%TO.N,Net-(D66-Pad2)*%
X155793857Y-51799676D03*
X165393858Y-44809176D03*
%TO.N,Net-(D67-Pad2)*%
X172793858Y-41399677D03*
X164193857Y-46209177D03*
%TO.N,Net-(D68-Pad2)*%
X180879790Y-57082177D03*
X172079790Y-60695110D03*
%TO.N,Net-(D69-Pad2)*%
X188193857Y-77399677D03*
X192393857Y-75809177D03*
X195679791Y-82123243D03*
X204058758Y-82028167D03*
%TO.N,Net-(D73-Pad2)*%
X187393857Y-29399677D03*
X199593857Y-28199676D03*
%TO.N,Net-(D74-Pad2)*%
X209193857Y-25609177D03*
X211393858Y-26609176D03*
%TO.N,Net-(D75-Pad2)*%
X214393858Y-41364667D03*
X205532209Y-45042690D03*
%TO.N,Net-(D76-Pad2)*%
X222993858Y-58364666D03*
X215793857Y-61583657D03*
%TO.N,Net-(D77-Pad2)*%
X233152825Y-77568145D03*
X240033657Y-69448976D03*
%TO.N,RESET*%
X163993857Y-126409176D03*
X151793858Y-131555177D03*
%TO.N,col0*%
X34793857Y-89809177D03*
X124463933Y-85299104D03*
X113320858Y-122409177D03*
X51993857Y-96009177D03*
X127120858Y-68768243D03*
X125575925Y-83983109D03*
%TO.N,col1*%
X59993858Y-78418677D03*
X76193858Y-83609176D03*
X76193857Y-91609177D03*
X74593857Y-91609177D03*
X123478026Y-86353142D03*
X115407924Y-107823244D03*
X126839858Y-75099177D03*
X124932027Y-86275176D03*
%TO.N,col2*%
X79593858Y-127009177D03*
X93666892Y-51536141D03*
X74184357Y-103457128D03*
X87193857Y-109364667D03*
X128328858Y-75861176D03*
X127855857Y-71035177D03*
%TO.N,col3*%
X109593858Y-106209176D03*
X93193858Y-96609177D03*
X127993857Y-103209177D03*
X110679790Y-103295110D03*
X109339257Y-129734576D03*
X102078057Y-128924976D03*
X159567757Y-127080276D03*
X116727557Y-128566177D03*
%TO.N,col4*%
X117193857Y-88609177D03*
X128793857Y-88609177D03*
X110393858Y-116311177D03*
%TO.N,col5*%
X183793858Y-99809176D03*
X166584357Y-108209177D03*
X167379791Y-65395110D03*
X238244257Y-45330376D03*
X175193857Y-82447377D03*
%TO.N,col6*%
X206222347Y-103009177D03*
X187534889Y-112950209D03*
X183793857Y-55409177D03*
X246397658Y-62183277D03*
X195549057Y-80964376D03*
%TO.N,col7*%
X223993858Y-94009177D03*
X199580691Y-89424145D03*
X205579790Y-102223244D03*
X209180924Y-102723460D03*
X153255857Y-75861176D03*
X162266857Y-108936187D03*
X227563557Y-99406976D03*
X244860958Y-89983577D03*
X244162458Y-85284577D03*
X257967357Y-78553576D03*
%TO.N,col8*%
X233534889Y-74550209D03*
X216393857Y-78618677D03*
X218993857Y-85209177D03*
X154519791Y-78661243D03*
X161403868Y-109663187D03*
%TO.N,sda*%
X129793858Y-153609177D03*
X127793858Y-155009177D03*
X123993858Y-155009176D03*
X131593858Y-132736177D03*
X138193857Y-132736177D03*
X140407924Y-107223244D03*
X118247857Y-106849177D03*
%TO.N,scl*%
X138793858Y-139209177D03*
X132193857Y-133609177D03*
X139193857Y-133609176D03*
X140393858Y-108409177D03*
X118965857Y-108373177D03*
%TO.N,Net-(D82-Pad2)*%
X155593857Y-116409177D03*
X155393857Y-122209177D03*
X146393857Y-122209177D03*
%TO.N,ENC1B*%
X126993857Y-116409176D03*
%TO.N,ENC1A*%
X124593857Y-121409177D03*
%TO.N,ENC2B*%
X150393857Y-121409177D03*
%TO.N,ENC2A*%
X147793857Y-116409176D03*
X144289657Y-91215477D03*
X149572857Y-91202777D03*
%TO.N,row4*%
X153503790Y-83487244D03*
X160761557Y-127258077D03*
X117454557Y-130483877D03*
X161650557Y-123651276D03*
X165524057Y-123663977D03*
X165397058Y-111268777D03*
X159885257Y-111014776D03*
X198925057Y-92129877D03*
X204030457Y-102505776D03*
X224159957Y-92790277D03*
X223283657Y-86884776D03*
X239882557Y-80153777D03*
%TO.N,B-*%
X134967857Y-109136176D03*
X135501258Y-98225877D03*
X145394557Y-98149677D03*
X139933557Y-62843677D03*
X80603857Y-93189176D03*
X77023858Y-101589177D03*
X79253857Y-97759177D03*
%TO.N,B+*%
X100931857Y-50969177D03*
%TD*%
D21*
%TO.N,GND*%
X139993857Y-119609177D02*
X137393858Y-119609177D01*
X137393858Y-119609177D02*
X136593858Y-118809176D01*
X136593858Y-118809176D02*
X135293858Y-118809177D01*
X143593857Y-118809177D02*
X144893858Y-118809177D01*
X139993857Y-119609177D02*
X141993858Y-119609177D01*
X142793857Y-118809176D02*
X144293857Y-118809177D01*
X141993858Y-119609177D02*
X142793857Y-118809176D01*
X134793857Y-155009176D02*
X139993858Y-155009177D01*
X143813857Y-154789177D02*
X143593858Y-155009176D01*
X143813858Y-153009177D02*
X143813857Y-154789177D01*
X139993858Y-155009177D02*
X143593858Y-155009176D01*
X125793858Y-153409177D02*
X127793857Y-153409177D01*
X129393857Y-155009177D02*
X134793857Y-155009176D01*
X127793857Y-153409177D02*
X129393857Y-155009177D01*
X129393857Y-118809177D02*
X135293858Y-118809177D01*
X149793858Y-118809176D02*
X144293857Y-118809177D01*
X149793858Y-118809176D02*
X152593858Y-118809177D01*
X123593858Y-72209177D02*
X123393857Y-72209177D01*
X123393857Y-72209177D02*
X122193857Y-71009176D01*
X122193857Y-71009176D02*
X119593857Y-71009177D01*
X119593857Y-71009177D02*
X117593858Y-69009177D01*
X117593858Y-69009177D02*
X115393857Y-69009177D01*
X115393857Y-69009177D02*
X113593858Y-67209177D01*
X113593858Y-67209177D02*
X111393857Y-67209177D01*
X111393857Y-67209177D02*
X105193857Y-61009177D01*
X105193857Y-61009177D02*
X103793857Y-61009176D01*
X103793857Y-61009176D02*
X101593858Y-58809176D01*
X101593858Y-58809176D02*
X99193857Y-58809176D01*
X97193857Y-56809177D02*
X96793858Y-56809176D01*
X96793858Y-56809176D02*
X91793858Y-51809177D01*
X91793858Y-51809177D02*
X91793857Y-51009177D01*
X91793857Y-51009177D02*
X88393857Y-47609176D01*
X88393857Y-47609176D02*
X86593857Y-47609176D01*
X86593857Y-47609176D02*
X84593857Y-45609176D01*
X84593857Y-45609176D02*
X83393857Y-45609177D01*
X98493858Y-58109176D02*
X97193857Y-56809177D01*
X99193857Y-58809176D02*
X98493858Y-58109176D01*
X125993857Y-72209176D02*
X123593858Y-72209177D01*
X119993857Y-90209177D02*
X116193858Y-90209176D01*
X116193858Y-90209176D02*
X115193857Y-89209177D01*
X115193857Y-89209177D02*
X113793858Y-89209176D01*
X113793858Y-89209176D02*
X112393857Y-87809176D01*
X112393857Y-87809176D02*
X110593857Y-87809177D01*
X108403357Y-85618677D02*
X106193857Y-85618677D01*
X110593857Y-87809177D02*
X108403357Y-85618677D01*
X106193857Y-85618677D02*
X104384357Y-83809177D01*
X104384357Y-83809177D02*
X103593858Y-83809176D01*
X99793858Y-80009176D02*
X98615529Y-80009176D01*
X103593858Y-83809176D02*
X99793858Y-80009176D01*
X96815529Y-78209176D02*
X95393857Y-78209177D01*
X98615529Y-80009176D02*
X96815529Y-78209176D01*
X93334889Y-76150208D02*
X91652826Y-76150208D01*
X95393857Y-78209177D02*
X93334889Y-76150208D01*
X91652826Y-76150208D02*
X89711794Y-74209176D01*
X89711794Y-74209176D02*
X87815529Y-74209176D01*
X84415529Y-67609177D02*
X83415529Y-67609176D01*
X85474867Y-68668514D02*
X84415529Y-67609177D01*
X85474867Y-71868515D02*
X85474867Y-68668514D01*
X87815529Y-74209176D02*
X85474867Y-71868515D01*
X81193857Y-66009177D02*
X81174867Y-66028166D01*
X81815530Y-66009177D02*
X81193857Y-66009177D01*
X83415529Y-67609176D02*
X81815530Y-66009177D01*
X81174867Y-66028166D02*
X79755877Y-64609177D01*
X79755877Y-64609177D02*
X77815530Y-64609177D01*
X76225029Y-63018677D02*
X74993857Y-63018677D01*
X77815530Y-64609177D02*
X76225029Y-63018677D01*
X74993857Y-63018677D02*
X73803357Y-63018677D01*
X73803357Y-63018677D02*
X72393857Y-61609176D01*
X72393857Y-61609176D02*
X68593857Y-61609177D01*
X68593857Y-61609177D02*
X66993858Y-63209176D01*
X66993858Y-63209176D02*
X62793857Y-63209176D01*
X60993857Y-61409177D02*
X59615529Y-61409177D01*
X62793857Y-63209176D02*
X60993857Y-61409177D01*
X57825030Y-59618676D02*
X55993857Y-59618676D01*
X59615529Y-61409177D02*
X57825030Y-59618676D01*
X55993857Y-59618676D02*
X53784357Y-57409176D01*
X52615529Y-57409176D02*
X49193857Y-53987504D01*
X53784357Y-57409176D02*
X52615529Y-57409176D01*
X49193857Y-53987504D02*
X49193858Y-50809177D01*
X49193858Y-50809177D02*
X46793857Y-48409176D01*
X46793857Y-48409176D02*
X45393857Y-48409177D01*
X43593857Y-46609177D02*
X41793857Y-46609176D01*
X45393857Y-48409177D02*
X43593857Y-46609177D01*
X75993857Y-107209177D02*
X74593858Y-105809176D01*
X74593858Y-105809176D02*
X72993857Y-105809177D01*
X72993857Y-105809177D02*
X70993857Y-103809177D01*
X70993857Y-103809177D02*
X70993858Y-103609177D01*
X70993858Y-103609177D02*
X68393858Y-101009176D01*
X68393858Y-101009176D02*
X65993857Y-101009176D01*
X65993857Y-101009176D02*
X63193857Y-98209176D01*
X63193857Y-98209176D02*
X61193858Y-98209177D01*
X61193858Y-98209177D02*
X58593857Y-95609176D01*
X58593857Y-95609176D02*
X55393857Y-95609177D01*
X66793857Y-80009177D02*
X67993857Y-81209176D01*
X59593858Y-80009176D02*
X66793857Y-80009177D01*
X59593858Y-80009176D02*
X54193858Y-80009177D01*
X54193858Y-80009177D02*
X52793857Y-78609177D01*
X49393857Y-78609177D02*
X47993857Y-77209176D01*
X52793857Y-78609177D02*
X49393857Y-78609177D01*
X42593857Y-69809176D02*
X39193858Y-66409177D01*
X39193858Y-66409177D02*
X38793857Y-66409176D01*
X38793857Y-66409176D02*
X37793857Y-65409177D01*
X37793857Y-65409177D02*
X36393858Y-65409176D01*
X36393858Y-65409176D02*
X34993857Y-64009177D01*
X33593857Y-64009177D02*
X33393857Y-63809177D01*
X34993857Y-64009177D02*
X33593857Y-64009177D01*
X84593858Y-111409176D02*
X82193857Y-109009177D01*
X86993858Y-111409177D02*
X84593858Y-111409176D01*
X79593857Y-109009177D02*
X77793857Y-107209177D01*
X90193857Y-114609177D02*
X86993858Y-111409177D01*
X92993858Y-114609177D02*
X90193857Y-114609177D01*
X82193857Y-109009177D02*
X79593857Y-109009177D01*
X77793857Y-107209177D02*
X75993857Y-107209177D01*
X101993857Y-122009176D02*
X98393857Y-118409177D01*
X103593857Y-122009176D02*
X101993857Y-122009176D01*
X98393857Y-118409177D02*
X96793858Y-118409177D01*
X105793858Y-124209177D02*
X103593857Y-122009176D01*
X108993858Y-124209176D02*
X105793858Y-124209177D01*
X95993858Y-117609176D02*
X92993858Y-114609177D01*
X96793858Y-118409177D02*
X95993858Y-117609176D01*
X108993858Y-124209176D02*
X108993857Y-126609176D01*
X108993857Y-126609176D02*
X111393857Y-129009177D01*
X111393857Y-129009177D02*
X114193857Y-131809177D01*
X147393857Y-54209176D02*
X148193857Y-53409176D01*
X148193857Y-53409176D02*
X149993858Y-53409176D01*
X151593857Y-51809177D02*
X152793858Y-51809177D01*
X152793858Y-51809177D02*
X154393858Y-50209177D01*
X154393858Y-50209177D02*
X156193858Y-50209176D01*
X156193858Y-50209176D02*
X157393857Y-49009176D01*
X157393857Y-49009176D02*
X158993857Y-49009177D01*
X158993857Y-49009177D02*
X160193857Y-47809177D01*
X160193857Y-47809177D02*
X160193857Y-46209177D01*
X160193857Y-46209177D02*
X162193857Y-44209177D01*
X162193857Y-44209177D02*
X163393857Y-44209176D01*
X163393857Y-44209176D02*
X164993858Y-42609176D01*
X166593857Y-42609176D02*
X167793857Y-41409176D01*
X167793857Y-41409176D02*
X169793857Y-41409176D01*
X169793857Y-41409176D02*
X171393857Y-39809177D01*
X171393857Y-39809177D02*
X172993858Y-39809176D01*
X172993858Y-39809176D02*
X174393857Y-38409177D01*
X174393857Y-38409177D02*
X175193857Y-38409176D01*
X175193857Y-38409176D02*
X176193858Y-37409176D01*
X176193858Y-37409176D02*
X176193858Y-33409176D01*
X176193858Y-33409176D02*
X178193858Y-31409177D01*
X178193858Y-31409177D02*
X179993858Y-31409176D01*
X181593857Y-29809177D02*
X183993857Y-29809177D01*
X183993857Y-29809177D02*
X185993857Y-27809177D01*
X185993857Y-27809177D02*
X187793857Y-27809177D01*
X187793857Y-27809177D02*
X189593857Y-26009177D01*
X189593857Y-26009177D02*
X191793857Y-26009177D01*
X191793857Y-26009177D02*
X192193858Y-25609176D01*
X192193858Y-25609176D02*
X193193858Y-25609177D01*
X193193858Y-25609177D02*
X195793857Y-28209177D01*
X195793857Y-28209177D02*
X197393857Y-28209177D01*
X197393857Y-28209177D02*
X198793857Y-26809176D01*
X201393858Y-26009176D02*
X200593858Y-26009177D01*
X200593858Y-26009177D02*
X199793857Y-26809177D01*
X198793857Y-26809176D02*
X199793857Y-26809177D01*
X180993857Y-30409176D02*
X181593857Y-29809177D01*
X179993858Y-31409176D02*
X180993857Y-30409176D01*
X165393858Y-42609177D02*
X166593857Y-42609176D01*
X164993858Y-42609176D02*
X165393858Y-42609177D01*
X150793857Y-52609177D02*
X151593857Y-51809177D01*
X149993858Y-53409176D02*
X150793857Y-52609177D01*
X158355366Y-71351441D02*
X160029921Y-71351440D01*
X160029921Y-71351440D02*
X161372185Y-70009176D01*
X163172185Y-70009177D02*
X164172185Y-69009177D01*
X161372185Y-70009176D02*
X163172185Y-70009177D01*
X164172185Y-69009177D02*
X166193857Y-69009177D01*
X166193857Y-69009177D02*
X167993857Y-67209176D01*
X167993857Y-67209176D02*
X168793857Y-67209177D01*
X171212848Y-64790187D02*
X171212848Y-64190187D01*
X168793857Y-67209177D02*
X171212848Y-64790187D01*
X171212848Y-64190187D02*
X173393857Y-62009176D01*
X173393857Y-62009176D02*
X173993858Y-61409176D01*
X175193857Y-61409177D02*
X176393858Y-60209176D01*
X176393858Y-60209176D02*
X177793858Y-60209177D01*
X179193857Y-58809176D02*
X181772185Y-58809177D01*
X177793858Y-60209177D02*
X179193857Y-58809176D01*
X183372185Y-57209177D02*
X183772185Y-57209177D01*
X181772185Y-58809177D02*
X183372185Y-57209177D01*
X186612848Y-54368515D02*
X186612848Y-51568514D01*
X183772185Y-57209177D02*
X186612848Y-54368515D01*
X188772186Y-49409177D02*
X189372185Y-49409177D01*
X186612848Y-51568514D02*
X188772186Y-49409177D01*
X190562686Y-48218677D02*
X190843835Y-48218676D01*
X189372185Y-49409177D02*
X190562686Y-48218677D01*
X205572185Y-46809177D02*
X207162685Y-45218677D01*
X201815529Y-46809176D02*
X205572185Y-46809177D01*
X196993857Y-45209176D02*
X200215530Y-45209177D01*
X196793857Y-45409176D02*
X196993857Y-45209176D01*
X200215530Y-45209177D02*
X201815529Y-46809176D01*
X196772186Y-45409176D02*
X196793857Y-45409176D01*
X195772185Y-46409177D02*
X196772186Y-45409176D01*
X207162685Y-45218677D02*
X208593857Y-45218676D01*
X193593858Y-47009176D02*
X194193857Y-46409177D01*
X192593857Y-47009177D02*
X193593858Y-47009176D01*
X194193857Y-46409177D02*
X195772185Y-46409177D01*
X191384357Y-48218677D02*
X192593857Y-47009177D01*
X190843835Y-48218676D02*
X191384357Y-48218677D01*
X174993858Y-61409177D02*
X175193857Y-61409177D01*
X173993858Y-61409176D02*
X174993858Y-61409177D01*
X115993858Y-100809176D02*
X161193857Y-100809177D01*
X161193857Y-91209176D02*
X162593857Y-89809177D01*
X162593857Y-89809177D02*
X164193857Y-89809177D01*
X165593858Y-88409177D02*
X167193857Y-88409177D01*
X164193857Y-89809177D02*
X165593858Y-88409177D01*
X167193857Y-88409177D02*
X168004693Y-87598341D01*
X168004693Y-87598341D02*
X170004694Y-87598341D01*
X170004694Y-87598341D02*
X171593858Y-86009177D01*
X171593858Y-86009177D02*
X172793857Y-86009177D01*
X172793857Y-86009177D02*
X173993857Y-84809177D01*
X173993857Y-84809177D02*
X175393857Y-84809176D01*
X178212848Y-81168514D02*
X180172185Y-79209177D01*
X178212847Y-81990187D02*
X178212848Y-81168514D01*
X175393857Y-84809176D02*
X178212847Y-81990187D01*
X181075922Y-79209176D02*
X182334889Y-77950208D01*
X180172185Y-79209177D02*
X181075922Y-79209176D01*
X182334889Y-77950208D02*
X182875921Y-77409177D01*
X185572185Y-77409176D02*
X186953195Y-76028167D01*
X182875921Y-77409177D02*
X185572185Y-77409176D01*
X186953195Y-76028167D02*
X188374867Y-76028166D01*
X188374867Y-76028166D02*
X190004693Y-74398340D01*
X190004693Y-74398340D02*
X192383021Y-74398340D01*
X193812849Y-68968514D02*
X196772185Y-66009177D01*
X193812847Y-72968514D02*
X193812849Y-68968514D01*
X192383021Y-74398340D02*
X193812847Y-72968514D01*
X198075921Y-66009176D02*
X198734889Y-65350208D01*
X196772185Y-66009177D02*
X198075921Y-66009176D01*
X198734889Y-65350208D02*
X199286757Y-64798341D01*
X200983021Y-64798341D02*
X200993857Y-64809177D01*
X199286757Y-64798341D02*
X200983021Y-64798341D01*
X200993857Y-64809177D02*
X202393858Y-63409176D01*
X202393858Y-63409176D02*
X203793858Y-63409177D01*
X203793858Y-63409177D02*
X205593858Y-61609177D01*
X205593858Y-61609177D02*
X209393857Y-61609177D01*
X209393857Y-61609177D02*
X211793858Y-64009176D01*
X211793858Y-64009176D02*
X213993857Y-64009176D01*
X213993857Y-64009176D02*
X215174867Y-62828166D01*
X216856932Y-62828166D02*
X217634889Y-62050209D01*
X215174867Y-62828166D02*
X216856932Y-62828166D01*
X217634889Y-62050209D02*
X218475921Y-61209176D01*
X220172186Y-61209177D02*
X221772186Y-59609176D01*
X218475921Y-61209176D02*
X220172186Y-61209177D01*
X221772186Y-59609176D02*
X223593857Y-59609177D01*
X223593857Y-59609177D02*
X224193857Y-59009177D01*
X224193857Y-59009177D02*
X226993858Y-56209177D01*
X227412848Y-51968514D02*
X230553195Y-48828167D01*
X227412848Y-55790186D02*
X227412848Y-51968514D01*
X226993858Y-56209177D02*
X227412848Y-55790186D01*
X231656931Y-48828166D02*
X232434890Y-48050208D01*
X230553195Y-48828167D02*
X231656931Y-48828166D01*
X171393857Y-126209177D02*
X172593858Y-125009177D01*
X172593858Y-125009177D02*
X172593857Y-124809177D01*
X172593857Y-124809177D02*
X173793857Y-123609176D01*
X174711793Y-123609177D02*
X177052825Y-121268145D01*
X173793857Y-123609176D02*
X174711793Y-123609177D01*
X177052825Y-121268145D02*
X178134890Y-121268145D01*
X178134890Y-121268145D02*
X181193857Y-118209176D01*
X181193857Y-118209176D02*
X182593857Y-118209177D01*
X184193857Y-116609176D02*
X184993858Y-116609176D01*
X182593857Y-118209177D02*
X184193857Y-116609176D01*
X184993858Y-116609176D02*
X186393857Y-115209177D01*
X186393857Y-115209177D02*
X187393857Y-115209177D01*
X187393857Y-115209177D02*
X189393857Y-113209177D01*
X189393857Y-113209177D02*
X190993857Y-113209176D01*
X190993857Y-113209176D02*
X192993857Y-111209176D01*
X192993857Y-111209176D02*
X194793857Y-111209176D01*
X194793857Y-111209176D02*
X195993858Y-110009177D01*
X197393857Y-110009177D02*
X197993857Y-109409176D01*
X195993858Y-110009177D02*
X197393857Y-110009177D01*
X171393857Y-126209177D02*
X161593857Y-136009177D01*
X197993857Y-109409176D02*
X198793857Y-108609176D01*
X198793857Y-108609176D02*
X199993857Y-108609176D01*
X199993857Y-108609176D02*
X201393857Y-107209177D01*
X201393857Y-107209177D02*
X203193857Y-107209177D01*
X203193857Y-107209177D02*
X203993857Y-106409176D01*
X206511793Y-106409176D02*
X207452826Y-105468144D01*
X203993857Y-106409176D02*
X206511793Y-106409176D01*
X202781177Y-84009176D02*
X204793858Y-84009177D01*
X201551321Y-85239032D02*
X202781177Y-84009176D01*
X204793858Y-84009177D02*
X206193858Y-82609176D01*
X206193858Y-82609176D02*
X207993857Y-82609177D01*
X207993857Y-82609177D02*
X209393857Y-81209176D01*
X209393857Y-81209176D02*
X211193857Y-81209176D01*
X211193857Y-81209176D02*
X212993857Y-79409176D01*
X212993857Y-79409176D02*
X217815529Y-79409177D01*
X217815529Y-79409177D02*
X219415529Y-81009177D01*
X219415529Y-81009177D02*
X222393858Y-81009177D01*
X223984357Y-79418676D02*
X225393857Y-79418677D01*
X222393858Y-81009177D02*
X223984357Y-79418676D01*
X158193858Y-139809176D02*
X158193858Y-139209177D01*
X161393857Y-136009176D02*
X161593857Y-136009177D01*
X158193858Y-139209177D02*
X161393857Y-136009176D01*
X152593858Y-118809177D02*
X170593858Y-118809176D01*
X81393857Y-45009177D02*
X81993857Y-45609176D01*
X78993857Y-45009177D02*
X81393857Y-45009177D01*
X78593857Y-44609177D02*
X78993857Y-45009177D01*
X68993858Y-44609177D02*
X78593857Y-44609177D01*
X66593857Y-42209176D02*
X68993858Y-44609177D01*
X81993857Y-45609176D02*
X83393857Y-45609177D01*
X64193857Y-42209176D02*
X66593857Y-42209176D01*
X224162685Y-30618677D02*
X225393858Y-30618677D01*
X216593858Y-41209177D02*
X217172185Y-41209176D01*
X217172185Y-41209176D02*
X220612847Y-37768515D01*
X213772185Y-42609176D02*
X215193857Y-42609177D01*
X212183021Y-44198341D02*
X213772185Y-42609176D01*
X209614193Y-44198340D02*
X212183021Y-44198341D01*
X215193857Y-42609177D02*
X216593858Y-41209177D01*
X208593857Y-45218676D02*
X209614193Y-44198340D01*
X123812847Y-50828167D02*
X125234521Y-50828168D01*
X123593857Y-50609177D02*
X123812847Y-50828167D01*
X123575930Y-50609177D02*
X123593857Y-50609177D01*
X126752455Y-52346103D02*
X128434520Y-52346104D01*
X125234521Y-50828168D02*
X126752455Y-52346103D01*
X129662324Y-53277643D02*
X130193857Y-53809176D01*
X129366060Y-53277644D02*
X129662324Y-53277643D01*
X128434520Y-52346104D02*
X129366060Y-53277644D01*
X120993857Y-49809176D02*
X119593857Y-48409177D01*
X122775930Y-49809176D02*
X120993857Y-49809176D01*
X123575930Y-50609177D02*
X122775930Y-49809176D01*
X71193858Y-25609177D02*
X71393858Y-25409177D01*
X71393858Y-25409177D02*
X74393857Y-25409177D01*
X74393857Y-25409177D02*
X75593857Y-26609176D01*
X78593858Y-28209177D02*
X80393858Y-28209176D01*
X90593857Y-28209177D02*
X92393857Y-28209176D01*
X75593857Y-26609176D02*
X76993857Y-26609177D01*
X76993857Y-26609177D02*
X78593858Y-28209177D01*
X80393858Y-28209176D02*
X80403349Y-28199685D01*
X80403349Y-28199685D02*
X81354308Y-28199685D01*
X89193857Y-26809177D02*
X90593857Y-28209177D01*
X81354308Y-28199685D02*
X81563799Y-28409177D01*
X81563799Y-28409177D02*
X84593857Y-28409176D01*
X84593857Y-28409176D02*
X86193857Y-26809176D01*
X86193857Y-26809176D02*
X89193857Y-26809177D01*
X131233988Y-53809177D02*
X131451499Y-54026687D01*
X130193857Y-53809176D02*
X131233988Y-53809177D01*
X131451499Y-54026687D02*
X132029425Y-54026687D01*
X132029425Y-54026687D02*
X133064416Y-55061678D01*
X145951858Y-54209177D02*
X147393857Y-54209176D01*
X145099357Y-55061677D02*
X145951858Y-54209177D01*
X134685356Y-55061677D02*
X145099357Y-55061677D01*
X133064416Y-55061678D02*
X134685356Y-55061677D01*
X157288130Y-72418676D02*
X153734142Y-72418677D01*
X158355366Y-71351441D02*
X157288130Y-72418676D01*
X126865991Y-69765176D02*
X126344925Y-70286244D01*
X128109857Y-69765177D02*
X126865991Y-69765176D01*
X119593857Y-48409177D02*
X119593857Y-48396776D01*
X118635658Y-47438577D02*
X115333657Y-47438577D01*
X119593857Y-48396776D02*
X118635658Y-47438577D01*
X113377858Y-52289977D02*
X112438057Y-52289977D01*
X112438057Y-52289977D02*
X109237657Y-49089577D01*
X109237657Y-49089577D02*
X108577257Y-49089577D01*
X108577257Y-49089577D02*
X107662857Y-48175176D01*
X107662857Y-48175176D02*
X106799258Y-48175177D01*
X106799258Y-48175177D02*
X106316657Y-47692577D01*
X104843457Y-47692577D02*
X103243257Y-46092377D01*
X106316657Y-47692577D02*
X104843457Y-47692577D01*
X104193857Y-39985577D02*
X103243258Y-40936177D01*
X104193857Y-38409176D02*
X104193857Y-39985577D01*
X102393858Y-36609177D02*
X104193857Y-38409176D01*
X103243258Y-40936177D02*
X103243257Y-46092377D01*
X102393857Y-33409177D02*
X102393858Y-36609177D01*
X100212847Y-31228166D02*
X102393857Y-33409177D01*
X96193857Y-30009177D02*
X97412847Y-31228166D01*
X96015530Y-30009176D02*
X96193857Y-30009177D01*
X97412847Y-31228166D02*
X100212847Y-31228166D01*
X94215530Y-28209177D02*
X96015530Y-30009176D01*
X92393857Y-28209176D02*
X94215530Y-28209177D01*
X64193858Y-40748777D02*
X64193857Y-42209176D01*
X56986566Y-33401885D02*
X56986566Y-33541486D01*
X55393857Y-31809177D02*
X56986566Y-33401885D01*
X53993857Y-31809176D02*
X55393857Y-31809177D01*
X52593858Y-30409177D02*
X53993857Y-31809176D01*
X51193857Y-30409177D02*
X52593858Y-30409177D01*
X56986566Y-33541486D02*
X64193858Y-40748777D01*
X50393858Y-29609177D02*
X51193857Y-30409177D01*
X49793857Y-29609177D02*
X50393858Y-29609177D01*
X42593857Y-69809176D02*
X42593857Y-69872576D01*
X42593857Y-69872576D02*
X46575858Y-73854577D01*
X46575857Y-75791177D02*
X47993857Y-77209176D01*
X46575858Y-73854577D02*
X46575857Y-75791177D01*
X220612847Y-37768515D02*
X220612847Y-35555186D01*
X220612847Y-35555186D02*
X221785057Y-34382977D01*
X221785057Y-34382977D02*
X221785057Y-32071576D01*
X223237957Y-30618677D02*
X224162685Y-30618677D01*
X221785057Y-32071576D02*
X223237957Y-30618677D01*
X239901557Y-65618676D02*
X239993857Y-65618677D01*
X225393857Y-79418677D02*
X225784358Y-79418676D01*
X228993857Y-78209177D02*
X230193857Y-77009177D01*
X225784358Y-79418676D02*
X226993857Y-78209176D01*
X230193857Y-77009177D02*
X231393857Y-77009177D01*
X235212848Y-72968514D02*
X235812847Y-72368515D01*
X238349047Y-67171186D02*
X239901557Y-65618676D01*
X226993857Y-78209176D02*
X228993857Y-78209177D01*
X235812848Y-72018786D02*
X238349047Y-69482586D01*
X232793857Y-75609176D02*
X233593857Y-75609177D01*
X233593857Y-75609177D02*
X235212847Y-73990187D01*
X231393857Y-77009177D02*
X232793857Y-75609176D01*
X235212847Y-73990187D02*
X235212848Y-72968514D01*
X235812847Y-72368515D02*
X235812848Y-72018786D01*
X238349047Y-69482586D02*
X238349047Y-67171186D01*
%TO.N,+5V*%
X146193858Y-133209177D02*
X146393857Y-133409177D01*
X141193857Y-133209177D02*
X146193858Y-133209177D01*
X123193857Y-73209177D02*
X121793857Y-71809177D01*
X121793857Y-71809177D02*
X119193857Y-71809176D01*
X119193857Y-71809176D02*
X117193857Y-69809176D01*
X117193857Y-69809176D02*
X115193857Y-69809177D01*
X115193857Y-69809177D02*
X113393858Y-68009176D01*
X113393858Y-68009176D02*
X110993858Y-68009176D01*
X104793857Y-61809176D02*
X103393858Y-61809177D01*
X103393858Y-61809177D02*
X101193857Y-59609177D01*
X101193857Y-59609177D02*
X98793858Y-59609177D01*
X98793858Y-59609177D02*
X96793857Y-57609177D01*
X96793857Y-57609177D02*
X96393857Y-57609177D01*
X96393857Y-57609177D02*
X90993857Y-52209177D01*
X90993857Y-52209177D02*
X90993857Y-51409176D01*
X90993857Y-51409176D02*
X87993857Y-48409177D01*
X87993857Y-48409177D02*
X86193857Y-48409177D01*
X86193857Y-48409177D02*
X84193857Y-46409177D01*
X84193857Y-46409177D02*
X81593858Y-46409177D01*
X81593858Y-46409177D02*
X81193857Y-46009176D01*
X81193857Y-46009176D02*
X78593857Y-46009177D01*
X106293857Y-63309177D02*
X104793857Y-61809176D01*
X110993858Y-68009176D02*
X109380857Y-66396176D01*
X115793857Y-91009177D02*
X114793857Y-90009176D01*
X113193858Y-90009176D02*
X111793857Y-88609176D01*
X111793857Y-88609176D02*
X110193858Y-88609176D01*
X110193858Y-88609176D02*
X107993858Y-86409176D01*
X107993858Y-86409176D02*
X105793857Y-86409177D01*
X105793857Y-86409177D02*
X103793857Y-84409177D01*
X103793857Y-84409177D02*
X103193858Y-84409176D01*
X103193858Y-84409176D02*
X99393858Y-80609176D01*
X120793857Y-91009176D02*
X115793857Y-91009177D01*
X110752825Y-123568144D02*
X110393857Y-123209176D01*
X110393857Y-123209176D02*
X106193858Y-123209177D01*
X106193858Y-123209177D02*
X104193857Y-121209177D01*
X104193857Y-121209177D02*
X102593857Y-121209177D01*
X98993857Y-117609177D02*
X97393857Y-117609177D01*
X97393857Y-117609177D02*
X94193857Y-114409176D01*
X94193857Y-114409176D02*
X93593857Y-113809177D01*
X93593857Y-113809177D02*
X90593857Y-113809176D01*
X90593857Y-113809176D02*
X87393857Y-110609177D01*
X84911793Y-110609177D02*
X84052825Y-109750209D01*
X87393857Y-110609177D02*
X84911793Y-110609177D01*
X84052825Y-109750209D02*
X82511794Y-108209177D01*
X82511794Y-108209177D02*
X79993858Y-108209176D01*
X79993858Y-108209176D02*
X78193858Y-106409176D01*
X78193858Y-106409176D02*
X76393858Y-106409177D01*
X76393858Y-106409177D02*
X74993857Y-105009177D01*
X74993857Y-105009177D02*
X73593857Y-105009176D01*
X73593857Y-105009176D02*
X72793858Y-104209177D01*
X75393857Y-84409176D02*
X74393857Y-84409176D01*
X74393857Y-84409176D02*
X72593858Y-82609177D01*
X72593858Y-82609177D02*
X70563799Y-82609177D01*
X70563799Y-82609177D02*
X67163800Y-79209176D01*
X67163800Y-79209176D02*
X54793857Y-79209177D01*
X102093857Y-120709176D02*
X98993857Y-117609177D01*
X102593857Y-121209177D02*
X102093857Y-120709176D01*
X110752825Y-123568144D02*
X109793857Y-124527113D01*
X109793857Y-124527113D02*
X109793857Y-126409177D01*
X109793857Y-126409177D02*
X114193858Y-130809177D01*
X114193858Y-130809177D02*
X114393857Y-130809176D01*
X114393857Y-130809176D02*
X119193857Y-135609177D01*
X119193857Y-135609177D02*
X122793857Y-135609176D01*
X113593857Y-90009176D02*
X113193858Y-90009176D01*
X114793857Y-90009176D02*
X113593857Y-90009176D01*
X150563800Y-54009176D02*
X151963799Y-52609177D01*
X148593857Y-54009177D02*
X150563800Y-54009176D01*
X151963799Y-52609177D02*
X152993858Y-52609176D01*
X152993858Y-52609176D02*
X154593857Y-51009177D01*
X156511793Y-51009177D02*
X157652826Y-49868145D01*
X154593857Y-51009177D02*
X156511793Y-51009177D01*
X157652826Y-49868145D02*
X159134890Y-49868144D01*
X160793857Y-48209177D02*
X160793857Y-46430848D01*
X159134890Y-49868144D02*
X160793857Y-48209177D01*
X162434519Y-44790187D02*
X163812848Y-44790187D01*
X160793857Y-46430848D02*
X162434519Y-44790187D01*
X164593857Y-44009177D02*
X164793858Y-44009177D01*
X163812848Y-44790187D02*
X164593857Y-44009177D01*
X165403356Y-43399678D02*
X166803357Y-43399677D01*
X164793858Y-44009177D02*
X165403356Y-43399678D01*
X166803357Y-43399677D02*
X167993858Y-42209176D01*
X167993858Y-42209176D02*
X169993857Y-42209177D01*
X169993857Y-42209177D02*
X171593857Y-40609176D01*
X173311793Y-40609176D02*
X174652825Y-39268145D01*
X171593857Y-40609176D02*
X173311793Y-40609176D01*
X174652825Y-39268145D02*
X175334889Y-39268144D01*
X175334889Y-39268144D02*
X176793857Y-37809177D01*
X176793857Y-37809177D02*
X176793858Y-33809176D01*
X176793858Y-33809176D02*
X178593858Y-32009176D01*
X180563800Y-32009177D02*
X181963799Y-30609177D01*
X178593858Y-32009176D02*
X180563800Y-32009177D01*
X181963799Y-30609177D02*
X181993858Y-30609176D01*
X182212847Y-30390187D02*
X184412847Y-30390187D01*
X181993858Y-30609176D02*
X182212847Y-30390187D01*
X184412847Y-30390187D02*
X186193857Y-28609176D01*
X188111793Y-28609176D02*
X189852825Y-26868145D01*
X186193857Y-28609176D02*
X188111793Y-28609176D01*
X189852825Y-26868145D02*
X191934889Y-26868144D01*
X191934889Y-26868144D02*
X192393857Y-26409177D01*
X192393857Y-26409177D02*
X192993857Y-26409177D01*
X195374867Y-28790187D02*
X197812847Y-28790187D01*
X192993857Y-26409177D02*
X195374867Y-28790187D01*
X197812847Y-28790187D02*
X199193857Y-27409176D01*
X199193857Y-27409176D02*
X200393857Y-27409177D01*
X200393857Y-27409177D02*
X200993857Y-26809177D01*
X201763800Y-26809176D02*
X202363800Y-26209177D01*
X200993857Y-26809177D02*
X201763800Y-26809176D01*
X202363800Y-26209177D02*
X203193858Y-26209177D01*
X203193858Y-26209177D02*
X203993857Y-25409176D01*
X203993857Y-25409176D02*
X205593858Y-25409177D01*
X205593858Y-25409177D02*
X206993857Y-24009177D01*
X208593857Y-24009176D02*
X208993857Y-23609177D01*
X206993857Y-24009177D02*
X208593857Y-24009176D01*
X183993857Y-57809177D02*
X187193858Y-54609176D01*
X187193858Y-54609176D02*
X187193857Y-51809177D01*
X187193857Y-51809177D02*
X188993858Y-50009177D01*
X188993858Y-50009177D02*
X189593857Y-50009177D01*
X189593857Y-50009177D02*
X190593857Y-49009177D01*
X190593857Y-49009177D02*
X191593858Y-49009176D01*
X191593858Y-49009176D02*
X192793857Y-47809176D01*
X192793857Y-47809176D02*
X193793857Y-47809177D01*
X193793857Y-47809177D02*
X194593857Y-47009176D01*
X194593857Y-47009176D02*
X195993857Y-47009177D01*
X195993857Y-47009177D02*
X196993858Y-46009176D01*
X200193858Y-46009177D02*
X201593857Y-47409176D01*
X201593857Y-47409176D02*
X205793857Y-47409177D01*
X205793857Y-47409177D02*
X207193857Y-46009176D01*
X207193857Y-46009176D02*
X208993857Y-46009176D01*
X208993857Y-46009176D02*
X210193858Y-44809177D01*
X210193858Y-44809177D02*
X212393857Y-44809177D01*
X212393857Y-44809177D02*
X213993857Y-43209176D01*
X213993857Y-43209176D02*
X215993858Y-43209177D01*
X215993858Y-43209177D02*
X216893857Y-42309176D01*
X198593857Y-46009176D02*
X200193858Y-46009177D01*
X196993858Y-46009176D02*
X198593857Y-46009176D01*
X183993857Y-57809177D02*
X183193857Y-58609177D01*
X183193857Y-58609177D02*
X182393858Y-59409176D01*
X171793857Y-65209176D02*
X168993858Y-68009177D01*
X182393858Y-59409176D02*
X179593857Y-59409177D01*
X178193858Y-60809177D02*
X176793857Y-60809177D01*
X179593857Y-59409177D02*
X178193858Y-60809177D01*
X175393857Y-62209176D02*
X174193857Y-62209177D01*
X171793857Y-64609177D02*
X171793857Y-65209176D01*
X176793857Y-60809177D02*
X175393857Y-62209176D01*
X174193857Y-62209177D02*
X171793857Y-64609177D01*
X168311794Y-68009177D02*
X167052825Y-69268144D01*
X168993858Y-68009177D02*
X168311794Y-68009177D01*
X160193857Y-72009177D02*
X158793857Y-72009177D01*
X161593857Y-70609177D02*
X160193857Y-72009177D01*
X164393857Y-69609177D02*
X163393857Y-70609177D01*
X157593857Y-73209177D02*
X153793857Y-73209176D01*
X166793858Y-69609177D02*
X164393857Y-69609177D01*
X167052826Y-69350208D02*
X166793858Y-69609177D01*
X158793857Y-72009177D02*
X157593857Y-73209177D01*
X163393857Y-70609177D02*
X161593857Y-70609177D01*
X167052825Y-69268144D02*
X167052826Y-69350208D01*
X116793858Y-99809177D02*
X161993857Y-99809177D01*
X161993858Y-91809176D02*
X163193857Y-90609177D01*
X163193857Y-90609177D02*
X164593858Y-90609176D01*
X164593858Y-90609176D02*
X165993857Y-89209176D01*
X165993857Y-89209176D02*
X167593857Y-89209177D01*
X167593857Y-89209177D02*
X168593857Y-88209177D01*
X168593857Y-88209177D02*
X170393857Y-88209177D01*
X170393857Y-88209177D02*
X171993858Y-86609177D01*
X171993858Y-86609177D02*
X173393857Y-86609177D01*
X174593858Y-85409176D02*
X175793857Y-85409176D01*
X175793857Y-85409176D02*
X177593857Y-83609177D01*
X177593857Y-83609177D02*
X178793858Y-82409176D01*
X178793858Y-82409176D02*
X178793857Y-81409177D01*
X178793857Y-81409177D02*
X180393857Y-79809177D01*
X180393857Y-79809177D02*
X181593857Y-79809177D01*
X181593857Y-79809177D02*
X183393857Y-78009176D01*
X183393857Y-78009176D02*
X185793857Y-78009176D01*
X185793857Y-78009176D02*
X187193857Y-76609177D01*
X187193857Y-76609177D02*
X188993857Y-76609177D01*
X190593858Y-75009177D02*
X192593857Y-75009177D01*
X192593857Y-75009177D02*
X194393857Y-73209177D01*
X194393857Y-73209177D02*
X194393857Y-69209177D01*
X194393857Y-69209177D02*
X196993857Y-66609177D01*
X196993857Y-66609177D02*
X198593857Y-66609177D01*
X198593857Y-66609177D02*
X199793858Y-65409176D01*
X199793858Y-65409176D02*
X201593857Y-65409177D01*
X201593857Y-65409177D02*
X202993857Y-64009176D01*
X202993857Y-64009176D02*
X204393857Y-64009177D01*
X206193857Y-62209177D02*
X208993857Y-62209176D01*
X208993857Y-62209176D02*
X211393858Y-64609176D01*
X211393858Y-64609176D02*
X214193857Y-64609176D01*
X214193857Y-64609176D02*
X214393857Y-64609177D01*
X214393857Y-64609177D02*
X215593857Y-63409176D01*
X215593857Y-63409176D02*
X217393857Y-63409176D01*
X217393857Y-63409176D02*
X218993857Y-61809177D01*
X218993857Y-61809177D02*
X220393858Y-61809177D01*
X220393858Y-61809177D02*
X221793857Y-60409177D01*
X221793857Y-60409177D02*
X223993857Y-60409177D01*
X225393857Y-59009176D02*
X227593857Y-56809177D01*
X227593857Y-56809177D02*
X227993857Y-56409176D01*
X227993857Y-56409176D02*
X227993857Y-52209177D01*
X227993857Y-52209177D02*
X230793857Y-49409177D01*
X230793857Y-49409177D02*
X232193857Y-49409176D01*
X232193857Y-49409176D02*
X233793857Y-47809176D01*
X233793857Y-47809176D02*
X235593857Y-47809177D01*
X235593857Y-47809177D02*
X236793858Y-46609176D01*
X236793858Y-46609176D02*
X238193858Y-46609177D01*
X239193857Y-45609177D02*
X239993857Y-45609176D01*
X238193858Y-46609177D02*
X239193857Y-45609177D01*
X174193857Y-85809177D02*
X174593858Y-85409176D01*
X173393857Y-86609177D02*
X174193857Y-85809177D01*
X190193857Y-75409177D02*
X190593858Y-75009177D01*
X188993857Y-76609177D02*
X190193857Y-75409177D01*
X205393858Y-63009176D02*
X206193857Y-62209177D01*
X204393857Y-64009177D02*
X205393858Y-63009176D01*
X224793857Y-59609177D02*
X225393857Y-59009176D01*
X223993857Y-60409177D02*
X224793857Y-59609177D01*
X171393858Y-124809177D02*
X173393858Y-122809177D01*
X173393858Y-122809177D02*
X174393857Y-122809176D01*
X174393857Y-122809176D02*
X176793857Y-120409177D01*
X176793857Y-120409177D02*
X177993858Y-120409177D01*
X177993858Y-120409177D02*
X180793857Y-117609177D01*
X180793857Y-117609177D02*
X182193857Y-117609176D01*
X182193857Y-117609176D02*
X183993857Y-115809176D01*
X183993857Y-115809176D02*
X184593858Y-115809176D01*
X184593858Y-115809176D02*
X185193858Y-115209177D01*
X185193858Y-115209177D02*
X185993857Y-114409176D01*
X185993857Y-114409176D02*
X187193858Y-114409177D01*
X187193858Y-114409177D02*
X188993858Y-112609177D01*
X188993858Y-112609177D02*
X190593857Y-112609177D01*
X190593857Y-112609177D02*
X192593857Y-110609177D01*
X192593857Y-110609177D02*
X194393857Y-110609176D01*
X194393857Y-110609176D02*
X195793857Y-109209177D01*
X195793857Y-109209177D02*
X196993857Y-109209177D01*
X196993857Y-109209177D02*
X198393857Y-107809176D01*
X198393857Y-107809176D02*
X199593858Y-107809177D01*
X199593858Y-107809177D02*
X200793857Y-106609177D01*
X200793857Y-106609177D02*
X202793858Y-106609176D01*
X203793857Y-105609176D02*
X204993858Y-105609177D01*
X202793858Y-106609176D02*
X203793857Y-105609176D01*
X171393858Y-124809177D02*
X166793858Y-129409176D01*
X206193857Y-105609177D02*
X207593857Y-104209176D01*
X204993858Y-105609177D02*
X206193857Y-105609177D01*
X201793857Y-86209177D02*
X203193858Y-84809176D01*
X203193858Y-84809176D02*
X205193857Y-84809177D01*
X205193857Y-84809177D02*
X206793857Y-83209176D01*
X206793857Y-83209176D02*
X208393857Y-83209177D01*
X208393857Y-83209177D02*
X209793857Y-81809177D01*
X209793857Y-81809177D02*
X211593857Y-81809177D01*
X213193858Y-80209177D02*
X214193857Y-80209177D01*
X211593857Y-81809177D02*
X213193858Y-80209177D01*
X214193857Y-80209177D02*
X216593857Y-80209177D01*
X216593857Y-80209177D02*
X217793857Y-80209176D01*
X217793857Y-80209176D02*
X219193858Y-81609176D01*
X219193858Y-81609176D02*
X222793857Y-81609177D01*
X222793857Y-81609177D02*
X224193857Y-80209176D01*
X224193857Y-80209176D02*
X225993857Y-80209176D01*
X225993857Y-80209176D02*
X227393858Y-78809177D01*
X227393858Y-78809177D02*
X229393857Y-78809176D01*
X229393857Y-78809176D02*
X230593858Y-77609177D01*
X231993857Y-77609176D02*
X233193857Y-76409177D01*
X230593858Y-77609177D02*
X231993857Y-77609176D01*
X129993857Y-152409177D02*
X122793857Y-152409177D01*
X130993857Y-151409177D02*
X129993857Y-152409177D01*
X141193857Y-151409176D02*
X130993857Y-151409177D01*
X141273857Y-151489176D02*
X141193857Y-151409176D01*
X141273857Y-153009176D02*
X141273857Y-151489176D01*
X78193857Y-45609177D02*
X78593857Y-46009177D01*
X94193858Y-29009176D02*
X90393857Y-29009177D01*
X96993858Y-31809177D02*
X94193858Y-29009176D01*
X99593857Y-31809177D02*
X96993858Y-31809177D01*
X100193858Y-32409176D02*
X99593857Y-31809177D01*
X98097594Y-80609177D02*
X97910967Y-80422550D01*
X99393858Y-80609176D02*
X98097594Y-80609177D01*
X67384358Y-63999676D02*
X63043836Y-63999677D01*
X67393857Y-64009176D02*
X67384358Y-63999676D01*
X71993857Y-62209176D02*
X69193857Y-62209176D01*
X73593857Y-63809177D02*
X71993857Y-62209176D01*
X76193857Y-63809176D02*
X73593857Y-63809177D01*
X77593858Y-65209176D02*
X76193857Y-63809176D01*
X79393857Y-65209177D02*
X77593858Y-65209176D01*
X80793857Y-66609177D02*
X79393857Y-65209177D01*
X62603357Y-63999676D02*
X63043836Y-63999677D01*
X62593857Y-64009177D02*
X62603357Y-63999676D01*
X60593857Y-62009177D02*
X62593857Y-64009177D01*
X59393858Y-62009177D02*
X60593857Y-62009177D01*
X57793857Y-60409177D02*
X59393858Y-62009177D01*
X55593857Y-60409177D02*
X57793857Y-60409177D01*
X53393857Y-58209177D02*
X55593857Y-60409177D01*
X52593857Y-58209176D02*
X53393857Y-58209177D01*
X48793857Y-54409176D02*
X52593857Y-58209176D01*
X45393858Y-54409176D02*
X48793857Y-54409176D01*
X96297594Y-78809177D02*
X97910967Y-80422550D01*
X93193858Y-77009176D02*
X94993858Y-78809177D01*
X91393858Y-77009176D02*
X93193858Y-77009176D01*
X94993858Y-78809177D02*
X96297594Y-78809177D01*
X84893858Y-72109177D02*
X87793857Y-75009176D01*
X89393858Y-75009177D02*
X91393858Y-77009176D01*
X84893857Y-68909177D02*
X84893858Y-72109177D01*
X87793857Y-75009176D02*
X89393858Y-75009177D01*
X84193858Y-68209176D02*
X84893857Y-68909177D01*
X82793857Y-68209177D02*
X84193858Y-68209176D01*
X82193857Y-67609176D02*
X82793857Y-68209177D01*
X81193857Y-66609177D02*
X80793857Y-66609177D01*
X82193857Y-67609176D02*
X81193857Y-66609177D01*
X148415529Y-54009176D02*
X147391529Y-55033177D01*
X148593857Y-54009177D02*
X148415529Y-54009176D01*
X147391529Y-55033177D02*
X146143857Y-55033177D01*
X145324857Y-55852177D02*
X144365858Y-55852178D01*
X146143857Y-55033177D02*
X145324857Y-55852177D01*
X152416857Y-73209177D02*
X152274857Y-73067177D01*
X153793857Y-73209176D02*
X152416857Y-73209177D01*
X157541858Y-97349177D02*
X157389858Y-97197177D01*
X161993858Y-97349176D02*
X157541858Y-97349177D01*
X150715857Y-73067177D02*
X152274857Y-73067177D01*
X160670368Y-110453687D02*
X167685346Y-110453688D01*
X159425857Y-109209176D02*
X160670368Y-110453687D01*
X141993858Y-109209177D02*
X159425857Y-109209176D01*
X167685346Y-110453688D02*
X167720825Y-110418209D01*
X141193857Y-110009177D02*
X141993858Y-109209177D01*
X69193857Y-62209176D02*
X67393857Y-64009176D01*
X123679857Y-73209177D02*
X128496924Y-78026243D01*
X123193857Y-73209177D02*
X123679857Y-73209177D01*
X123953857Y-91009177D02*
X120793857Y-91009176D01*
X109380857Y-66396176D02*
X106293857Y-63309177D01*
X126511793Y-52927112D02*
X128193857Y-52927112D01*
X124993858Y-51409176D02*
X126511793Y-52927112D01*
X128193857Y-52927112D02*
X129334889Y-54068144D01*
X122405988Y-50609177D02*
X123205988Y-51409176D01*
X120593857Y-50609177D02*
X122405988Y-50609177D01*
X118793857Y-48809176D02*
X120593857Y-50609177D01*
X123205988Y-51409176D02*
X124993858Y-51409176D01*
X111879257Y-49140377D02*
X114393858Y-51654976D01*
X111879257Y-49114977D02*
X111879257Y-49140377D01*
X118236057Y-48251376D02*
X116349657Y-48251376D01*
X118793857Y-48809176D02*
X118236057Y-48251376D01*
X77055257Y-45609176D02*
X78193857Y-45609177D01*
X71193857Y-45609177D02*
X77055257Y-45609176D01*
X90393857Y-29009177D02*
X88993858Y-27609176D01*
X88993858Y-27609176D02*
X86393858Y-27609177D01*
X86393858Y-27609177D02*
X85012848Y-28990186D01*
X85012848Y-28990186D02*
X80974866Y-28990186D01*
X53491458Y-37209177D02*
X53393858Y-37209176D01*
X59291458Y-43009177D02*
X53491458Y-37209177D01*
X66193858Y-43009177D02*
X59291458Y-43009177D01*
X68593857Y-45409177D02*
X66193858Y-43009177D01*
X70993857Y-45409177D02*
X68593857Y-45409177D01*
X71193857Y-45609177D02*
X70993857Y-45409177D01*
X44569258Y-70298576D02*
X41079857Y-66809176D01*
X41079857Y-66809176D02*
X40793857Y-66809176D01*
X44569257Y-70908177D02*
X44569258Y-70298576D01*
X47236257Y-75251577D02*
X47236257Y-73575177D01*
X49993858Y-78009177D02*
X47236257Y-75251577D01*
X47236257Y-73575177D02*
X44569257Y-70908177D01*
X53193857Y-78009177D02*
X49993858Y-78009177D01*
X54393858Y-79209177D02*
X53193857Y-78009177D01*
X54793857Y-79209177D02*
X54393858Y-79209177D01*
X154111057Y-133409176D02*
X154144857Y-133442976D01*
X146393857Y-133409177D02*
X154111057Y-133409176D01*
X230193858Y-29609176D02*
X231593857Y-28209176D01*
X227593858Y-29609177D02*
X230193858Y-29609176D01*
X225793857Y-31409177D02*
X227593858Y-29609177D01*
X223615857Y-31409176D02*
X225793857Y-31409177D01*
X222547057Y-34560776D02*
X222547057Y-32477977D01*
X221193857Y-35913976D02*
X222547057Y-34560776D01*
X221193857Y-38009176D02*
X221193857Y-35913976D01*
X222547057Y-32477977D02*
X223615857Y-31409176D01*
X216893857Y-42309176D02*
X221193857Y-38009176D01*
X247793858Y-63009176D02*
X247993858Y-62809177D01*
X241993858Y-64809177D02*
X244193858Y-64809177D01*
X238930058Y-67872977D02*
X241993858Y-64809177D01*
X245993857Y-63009177D02*
X247793858Y-63009176D01*
X238930057Y-69820708D02*
X238930058Y-67872977D01*
X236393857Y-72609176D02*
X236393857Y-72356908D01*
X244193858Y-64809177D02*
X245993857Y-63009177D01*
X236393857Y-72356908D02*
X238930057Y-69820708D01*
X235793857Y-73209177D02*
X236393857Y-72609176D01*
X235793858Y-74409177D02*
X235793857Y-73209177D01*
X233793858Y-76409177D02*
X235793858Y-74409177D01*
X233193857Y-76409177D02*
X233793858Y-76409177D01*
D22*
%TO.N,row0*%
X66808216Y-41691667D02*
X69193857Y-44077308D01*
X79242990Y-44077309D02*
X79384357Y-44218677D01*
X69193857Y-44077308D02*
X79242990Y-44077309D01*
X79384357Y-44218677D02*
X79403357Y-44218676D01*
X81608216Y-44491666D02*
X81993857Y-44877309D01*
X79676348Y-44491667D02*
X81608216Y-44491666D01*
X79403357Y-44218676D02*
X79676348Y-44491667D01*
X81993857Y-44877309D02*
X83737951Y-44877309D01*
X84808216Y-45091667D02*
X85193857Y-45477309D01*
X83952309Y-45091667D02*
X84808216Y-45091667D01*
X83737951Y-44877309D02*
X83952309Y-45091667D01*
X88608216Y-47091667D02*
X89593857Y-48077309D01*
X86808216Y-47091667D02*
X88608216Y-47091667D01*
X85193857Y-45477309D02*
X86808216Y-47091667D01*
X89593857Y-48077309D02*
X92311367Y-50794817D01*
X92311367Y-51208751D02*
X94852826Y-53750208D01*
X92311367Y-50794817D02*
X92311367Y-51208751D01*
X94852826Y-53750208D02*
X94852825Y-54136277D01*
X97008216Y-56291666D02*
X97408216Y-56291667D01*
X94852825Y-54136277D02*
X97008216Y-56291666D01*
X98842818Y-57382176D02*
X99220858Y-57760216D01*
X98498725Y-57382176D02*
X98842818Y-57382176D01*
X97408216Y-56291667D02*
X98498725Y-57382176D01*
X99220859Y-58036178D02*
X99476348Y-58291666D01*
X99220858Y-57760216D02*
X99220859Y-58036178D01*
X101808217Y-58291667D02*
X103993857Y-60477309D01*
X99476348Y-58291666D02*
X101808217Y-58291667D01*
X105779925Y-60477309D02*
X110752825Y-65450208D01*
X103993857Y-60477309D02*
X105779925Y-60477309D01*
X173861988Y-60809177D02*
X174517895Y-60809177D01*
X174517895Y-60809177D02*
X174717895Y-60609177D01*
X175261989Y-60609176D02*
X176179498Y-59691667D01*
X174717895Y-60609177D02*
X175261989Y-60609176D01*
X177579499Y-59691667D02*
X178979499Y-58291667D01*
X176179498Y-59691667D02*
X177579499Y-59691667D01*
X181557827Y-58291667D02*
X183157827Y-56691667D01*
X178979499Y-58291667D02*
X181557827Y-58291667D01*
X183157827Y-56691667D02*
X183557828Y-56691667D01*
X183557828Y-56691667D02*
X185993858Y-54255636D01*
X185993857Y-51069568D02*
X186133254Y-50930172D01*
X185993858Y-54255636D02*
X185993857Y-51069568D01*
X186133254Y-50930172D02*
X188171758Y-48891669D01*
X188171758Y-48891669D02*
X188911365Y-48891668D01*
X190311358Y-47491676D02*
X191276356Y-47491675D01*
X188911365Y-48891668D02*
X190311358Y-47491676D01*
X191461989Y-47409177D02*
X192379498Y-46491666D01*
X191358855Y-47409176D02*
X191461989Y-47409177D01*
X191276356Y-47491675D02*
X191358855Y-47409176D01*
X193379499Y-46491667D02*
X193979499Y-45891666D01*
X192379498Y-46491666D02*
X193379499Y-46491667D01*
X195557827Y-45891667D02*
X196757827Y-44691667D01*
X193979499Y-45891666D02*
X195557827Y-45891667D01*
X196757827Y-44691667D02*
X200429889Y-44691666D01*
X200429889Y-44691666D02*
X200476347Y-44691667D01*
X201803357Y-46018677D02*
X203793858Y-46018677D01*
X200476347Y-44691667D02*
X201803357Y-46018677D01*
X159581914Y-51063186D02*
X157831717Y-51063187D01*
X162038334Y-48606761D02*
X159581914Y-51063186D01*
X162038333Y-48430600D02*
X162038334Y-48606761D01*
X156368226Y-52526678D02*
X153984356Y-52526678D01*
X157831717Y-51063187D02*
X156368226Y-52526678D01*
X153984356Y-52526678D02*
X153384347Y-53126687D01*
X152178158Y-53126686D02*
X150525668Y-54779176D01*
X153384347Y-53126687D02*
X152178158Y-53126686D01*
X149466358Y-54779177D02*
X149445857Y-54799676D01*
X150525668Y-54779176D02*
X149466358Y-54779177D01*
X145635857Y-59351177D02*
X143095857Y-61891177D01*
X111911793Y-66609177D02*
X110752825Y-65450208D01*
X114193857Y-66609177D02*
X111911793Y-66609177D01*
X116076347Y-68491667D02*
X114193857Y-66609177D01*
X119876347Y-70491667D02*
X117876347Y-68491667D01*
X120429396Y-70491666D02*
X119876347Y-70491667D01*
X117876347Y-68491667D02*
X116076347Y-68491667D01*
X120647886Y-70273176D02*
X120429396Y-70491666D01*
X122763723Y-70273177D02*
X122769790Y-70279243D01*
X120647886Y-70273176D02*
X122763723Y-70273177D01*
X118203858Y-57065176D02*
X119219858Y-58081177D01*
X119219858Y-58081177D02*
X122521857Y-58081176D01*
X122521857Y-58081176D02*
X123029857Y-58589177D01*
X123029857Y-58589177D02*
X123791858Y-58589176D01*
X125569857Y-60367176D02*
X125569858Y-61383177D01*
X123791858Y-58589176D02*
X125569857Y-60367176D01*
X140987657Y-61891177D02*
X129125857Y-61891177D01*
X143095857Y-61891177D02*
X140987657Y-61891177D01*
X50398725Y-28882175D02*
X49066857Y-28882176D01*
X47793857Y-27609177D02*
X46993858Y-27609176D01*
X51408215Y-29891667D02*
X50398725Y-28882175D01*
X52808217Y-29891667D02*
X51408215Y-29891667D01*
X49066857Y-28882176D02*
X47793857Y-27609177D01*
X54208215Y-31291666D02*
X52808217Y-29891667D01*
X55608217Y-31291666D02*
X54208215Y-31291666D01*
X57200926Y-32884377D02*
X55608217Y-31291666D01*
X57853458Y-32884377D02*
X57200926Y-32884377D01*
X46993858Y-27609176D02*
X45993858Y-26609177D01*
X58820534Y-33851453D02*
X57853458Y-32884377D01*
X59428750Y-33851454D02*
X58820534Y-33851453D01*
X66305148Y-41691667D02*
X66178147Y-41691667D01*
X66305148Y-41691667D02*
X66808216Y-41691667D01*
X59428750Y-34942270D02*
X59428750Y-33851454D01*
X66178147Y-41691667D02*
X59428750Y-34942270D01*
X171967188Y-62703976D02*
X171061257Y-62703977D01*
X173861988Y-60809177D02*
X171967188Y-62703976D01*
%TO.N,row1*%
X37593857Y-43809176D02*
X38393858Y-43809177D01*
X38393858Y-43809177D02*
X40466856Y-45882176D01*
X43598724Y-45882175D02*
X44325725Y-46609177D01*
X40466856Y-45882176D02*
X43598724Y-45882175D01*
X45608215Y-47891667D02*
X46711368Y-47891667D01*
X44325725Y-46609177D02*
X45608215Y-47891667D01*
X47008216Y-47891667D02*
X49125726Y-50009176D01*
X46711368Y-47891667D02*
X47008216Y-47891667D01*
X49125726Y-50009176D02*
X49711367Y-50594818D01*
X49711367Y-53387078D02*
X52263661Y-55939372D01*
X49711367Y-50594818D02*
X49711367Y-53387078D01*
X52263661Y-55939372D02*
X52263661Y-56278981D01*
X52876347Y-56891666D02*
X54076347Y-56891667D01*
X52263661Y-56278981D02*
X52876347Y-56891666D01*
X54076347Y-56891667D02*
X55993858Y-58809177D01*
X55993858Y-58809177D02*
X56393857Y-58809177D01*
X56393857Y-58809177D02*
X56685848Y-59101166D01*
X58039389Y-59101167D02*
X59593857Y-60655636D01*
X56685848Y-59101166D02*
X58039389Y-59101167D01*
X61208216Y-60891667D02*
X62193858Y-61877309D01*
X59829887Y-60891667D02*
X61208216Y-60891667D01*
X59593857Y-60655636D02*
X59829887Y-60891667D01*
X62925725Y-62609177D02*
X66793857Y-62609176D01*
X62193858Y-61877309D02*
X62925725Y-62609177D01*
X68584357Y-60818676D02*
X71593857Y-60818677D01*
X66793857Y-62609176D02*
X68584357Y-60818676D01*
X72335227Y-60818676D02*
X72993857Y-61477308D01*
X71593857Y-60818677D02*
X72335227Y-60818676D01*
X72993857Y-61477308D02*
X73808225Y-62291675D01*
X73808225Y-62291675D02*
X76276356Y-62291676D01*
X78076347Y-64091666D02*
X80076348Y-64091667D01*
X76276356Y-62291676D02*
X78076347Y-64091666D01*
X81476347Y-65491666D02*
X82029888Y-65491667D01*
X80076348Y-64091667D02*
X81476347Y-65491666D01*
X83629887Y-67091666D02*
X84676347Y-67091666D01*
X82029888Y-65491667D02*
X83629887Y-67091666D01*
X84676347Y-67091666D02*
X85993858Y-68409177D01*
X85993857Y-71269569D02*
X86763661Y-72039373D01*
X85993858Y-68409177D02*
X85993857Y-71269569D01*
X86763661Y-72039373D02*
X87193858Y-72469569D01*
X87193858Y-72469569D02*
X87193857Y-72855636D01*
X87193857Y-72855636D02*
X88029887Y-73691666D01*
X89926152Y-73691667D02*
X90393858Y-74159373D01*
X88029887Y-73691666D02*
X89926152Y-73691667D01*
X90393858Y-74159373D02*
X91643662Y-75409177D01*
X91643662Y-75409177D02*
X91993857Y-75409177D01*
X93549249Y-75632699D02*
X93852399Y-75935850D01*
X92217379Y-75632698D02*
X93549249Y-75632699D01*
X91993857Y-75409177D02*
X92217379Y-75632698D01*
X93920530Y-75935850D02*
X95593857Y-77609176D01*
X93852399Y-75935850D02*
X93920530Y-75935850D01*
X95593857Y-77609176D02*
X95676347Y-77691667D01*
X97029888Y-77691667D02*
X97593857Y-78255637D01*
X95676347Y-77691667D02*
X97029888Y-77691667D01*
X98829887Y-79491666D02*
X100008216Y-79491667D01*
X97593857Y-78255637D02*
X98829887Y-79491666D01*
X100394283Y-79491666D02*
X103052825Y-82150209D01*
X100008216Y-79491667D02*
X100394283Y-79491666D01*
X162784357Y-99018677D02*
X162793857Y-99009177D01*
X129793857Y-99018676D02*
X162784357Y-99018677D01*
X163032348Y-89018676D02*
X164252489Y-89018676D01*
X164252489Y-89018676D02*
X165379498Y-87891667D01*
X166635406Y-87891667D02*
X167446241Y-87080830D01*
X165379498Y-87891667D02*
X166635406Y-87891667D01*
X169790335Y-87080831D02*
X171461990Y-85409177D01*
X167446241Y-87080830D02*
X169790335Y-87080831D01*
X171461990Y-85409177D02*
X172661989Y-85409177D01*
X172661989Y-85409177D02*
X173861989Y-84209177D01*
X173861989Y-84209177D02*
X175261989Y-84209176D01*
X175261989Y-84209176D02*
X177593857Y-81877308D01*
X177593857Y-80669568D02*
X178124053Y-80139373D01*
X177593857Y-81877308D02*
X177593857Y-80669568D01*
X178124053Y-80139373D02*
X179654249Y-78609176D01*
X179654249Y-78609176D02*
X180593857Y-78609177D01*
X180593857Y-78609177D02*
X182329383Y-76873651D01*
X185375842Y-76873652D02*
X186738837Y-75510657D01*
X182329383Y-76873651D02*
X185375842Y-76873652D01*
X188160509Y-75510657D02*
X189790334Y-73880831D01*
X186738837Y-75510657D02*
X188160509Y-75510657D01*
X189790334Y-73880831D02*
X192168663Y-73880831D01*
X192168663Y-73880831D02*
X193295338Y-72754156D01*
X193295338Y-68368087D02*
X193724053Y-67939373D01*
X193295338Y-72754156D02*
X193295338Y-68368087D01*
X193724053Y-67939373D02*
X196254250Y-65409176D01*
X196254250Y-65409176D02*
X197793857Y-65409176D01*
X198007888Y-65001247D02*
X198728305Y-64280830D01*
X198007888Y-65195146D02*
X198007888Y-65001247D01*
X197793857Y-65409176D02*
X198007888Y-65195146D01*
X200790335Y-64280831D02*
X202261989Y-62809177D01*
X198728305Y-64280830D02*
X200790335Y-64280831D01*
X202261989Y-62809177D02*
X203393857Y-62809176D01*
X203393857Y-62809176D02*
X205193857Y-61009177D01*
X205193857Y-61009177D02*
X210593858Y-61009177D01*
X115393857Y-88609176D02*
X116193857Y-89409177D01*
X103052825Y-82150209D02*
X104193857Y-83291240D01*
X108617716Y-85101167D02*
X110808216Y-87291667D01*
X106885848Y-85101167D02*
X108617716Y-85101167D01*
X116193857Y-89409177D02*
X129593858Y-89409177D01*
X104598289Y-83291241D02*
X106198725Y-84891675D01*
X106198725Y-84891675D02*
X106676357Y-84891675D01*
X106676357Y-84891675D02*
X106885848Y-85101167D01*
X110808216Y-87291667D02*
X112608216Y-87291667D01*
X104193857Y-83291240D02*
X104598289Y-83291241D01*
X112608216Y-87291667D02*
X113925727Y-88609176D01*
X113925727Y-88609176D02*
X115393857Y-88609176D01*
X152290318Y-74291076D02*
X152274858Y-74275614D01*
X153809957Y-74291076D02*
X152290318Y-74291076D01*
%TO.N,row2*%
X48408216Y-75691667D02*
X48793857Y-76077308D01*
X50208216Y-77491667D02*
X53476347Y-77491667D01*
X48793857Y-76077308D02*
X50208216Y-77491667D01*
X53476347Y-77491667D02*
X60276347Y-77491667D01*
X60393857Y-77609176D02*
X63593857Y-77609177D01*
X60276347Y-77491667D02*
X60393857Y-77609176D01*
X63593857Y-77609177D02*
X66937733Y-77609177D01*
X66937733Y-77609177D02*
X66993858Y-77609177D01*
X66993858Y-77609177D02*
X69393857Y-80009176D01*
X69393857Y-80009176D02*
X70993857Y-81609177D01*
X70993857Y-81609177D02*
X73193857Y-81609177D01*
X73193857Y-81609177D02*
X74393857Y-82809177D01*
X74393857Y-82809177D02*
X77193857Y-82809177D01*
X79793857Y-85409177D02*
X80393857Y-85409177D01*
X77193857Y-82809177D02*
X79793857Y-85409177D01*
X79593858Y-89809176D02*
X80393858Y-89809177D01*
X80393858Y-89809177D02*
X82193858Y-91609177D01*
X82193858Y-91609177D02*
X84393857Y-91609177D01*
X84393857Y-91609177D02*
X86193858Y-93409177D01*
X86193858Y-93409177D02*
X87993858Y-93409177D01*
X87993858Y-93409177D02*
X89193857Y-94609177D01*
X89193857Y-94609177D02*
X90793857Y-94609176D01*
X90793857Y-94609176D02*
X91993858Y-95809177D01*
X93469819Y-95809176D02*
X93993857Y-96333215D01*
X91993858Y-95809177D02*
X93469819Y-95809176D01*
X93993857Y-97381043D02*
X95207925Y-98595110D01*
X93993857Y-96333215D02*
X93993857Y-97381043D01*
X95207925Y-98595110D02*
X95207924Y-98823244D01*
X96381914Y-99355167D02*
X96647867Y-99621121D01*
X95739848Y-99355166D02*
X96381914Y-99355167D01*
X95207924Y-98823244D02*
X95739848Y-99355166D01*
X98581913Y-101555166D02*
X100981914Y-101555166D01*
X96647867Y-99621121D02*
X98581913Y-101555166D01*
X164139761Y-101555167D02*
X164143793Y-101559198D01*
X100981914Y-101555166D02*
X164139761Y-101555167D01*
X166593857Y-107009177D02*
X167447867Y-106155167D01*
X170605801Y-106155167D02*
X173005800Y-103755167D01*
X167447867Y-106155167D02*
X170605801Y-106155167D01*
X176805801Y-103755166D02*
X179805800Y-100755166D01*
X173005800Y-103755167D02*
X176805801Y-103755166D01*
X179805800Y-100755166D02*
X181771905Y-100755166D01*
X185917895Y-96609176D02*
X185993857Y-96609176D01*
X181771905Y-100755166D02*
X185917895Y-96609176D01*
X185993857Y-96609176D02*
X186793857Y-96609177D01*
X186793857Y-96609177D02*
X188993857Y-94409176D01*
X188993857Y-94409176D02*
X191393857Y-94409177D01*
X191393857Y-94409177D02*
X193593857Y-92209176D01*
X193593857Y-92209176D02*
X194993857Y-92209177D01*
X194993857Y-92209177D02*
X196793857Y-90409177D01*
X197567525Y-90409177D02*
X200203357Y-87773345D01*
X196793857Y-90409177D02*
X197567525Y-90409177D01*
X201593857Y-83809177D02*
X202193858Y-83209177D01*
X202193858Y-83209177D02*
X204593857Y-83209176D01*
X204593857Y-83209176D02*
X205393857Y-82409177D01*
X205393857Y-82409177D02*
X205793858Y-82009177D01*
X205793858Y-82009177D02*
X207861989Y-82009177D01*
X207861989Y-82009177D02*
X209261989Y-80609176D01*
X209261989Y-80609176D02*
X210993858Y-80609176D01*
X213711358Y-77891675D02*
X217076356Y-77891676D01*
X210993858Y-80609176D02*
X213711358Y-77891675D01*
X217276356Y-77891676D02*
X217393857Y-78009176D01*
X217076356Y-77891676D02*
X217276356Y-77891676D01*
X218193857Y-78009177D02*
X218793857Y-78609176D01*
X217393857Y-78009176D02*
X218193857Y-78009177D01*
X41950096Y-66460215D02*
X45546457Y-70056576D01*
X41520859Y-66460216D02*
X41950096Y-66460215D01*
X36676347Y-64891667D02*
X38276348Y-64891666D01*
X32393858Y-63009177D02*
X33993857Y-63009177D01*
X35276348Y-63491666D02*
X36676347Y-64891667D01*
X29193858Y-61209177D02*
X30593857Y-61209177D01*
X33993857Y-63009177D02*
X34476348Y-63491667D01*
X34476348Y-63491667D02*
X35276348Y-63491666D01*
X30593857Y-61209177D02*
X32393858Y-63009177D01*
X38276348Y-64891666D02*
X39193858Y-65809176D01*
X39193858Y-65809176D02*
X40869819Y-65809176D01*
X40869819Y-65809176D02*
X41520859Y-66460216D01*
X45546457Y-70056576D02*
X45546457Y-70691577D01*
X45546457Y-70691577D02*
X47896657Y-73041777D01*
X47896658Y-75180108D02*
X48408216Y-75691667D01*
X47896657Y-73041777D02*
X47896658Y-75180108D01*
%TO.N,row3*%
X56193858Y-96409176D02*
X58593858Y-96409176D01*
X59661989Y-97409176D02*
X60979499Y-98726687D01*
X59593858Y-97409177D02*
X59661989Y-97409176D01*
X58593858Y-96409176D02*
X59593858Y-97409177D01*
X60979499Y-98726687D02*
X62979499Y-98726686D01*
X62979499Y-98726686D02*
X65779498Y-101526686D01*
X65779498Y-101526686D02*
X67511367Y-101526686D01*
X67793431Y-101526687D02*
X69934890Y-103668144D01*
X67511367Y-101526686D02*
X67793431Y-101526687D01*
X64193858Y-120209176D02*
X65393857Y-120209177D01*
X65393857Y-120209177D02*
X67393857Y-122209177D01*
X67393857Y-122209177D02*
X69793857Y-122209177D01*
X72520859Y-124936178D02*
X74066857Y-124936178D01*
X69793857Y-122209177D02*
X72520859Y-124936178D01*
X74339855Y-125209176D02*
X74393857Y-125209176D01*
X74066857Y-124936178D02*
X74339855Y-125209176D01*
X74393857Y-125209176D02*
X76193857Y-127009176D01*
X76193857Y-127009176D02*
X78193857Y-127009177D01*
X78193857Y-127009177D02*
X79593857Y-128409176D01*
X81593857Y-128409177D02*
X82193858Y-129009177D01*
X79593857Y-128409176D02*
X81593857Y-128409177D01*
X82193858Y-129009177D02*
X82993857Y-129009177D01*
X82993857Y-129009177D02*
X85393857Y-131409177D01*
X85393857Y-131409177D02*
X87193857Y-131409177D01*
X87193857Y-131409177D02*
X89793857Y-134009176D01*
X89793857Y-134009176D02*
X90593857Y-134009177D01*
X90593857Y-134009177D02*
X93793858Y-137209176D01*
X93793858Y-137209176D02*
X94393857Y-137809176D01*
X94393857Y-137809176D02*
X95393857Y-137809177D01*
X97793857Y-140209177D02*
X97993857Y-140209177D01*
X95393857Y-137809177D02*
X97793857Y-140209177D01*
X97993857Y-140209177D02*
X104993858Y-147209177D01*
X104993858Y-147209177D02*
X105393858Y-147609176D01*
X105393858Y-147609176D02*
X122993857Y-147609177D01*
X122993857Y-147609177D02*
X123993857Y-147609177D01*
X123993857Y-147609177D02*
X124993857Y-146609177D01*
X124993857Y-146609177D02*
X161393858Y-146609177D01*
X163393857Y-148609177D02*
X172993858Y-148609177D01*
X183593858Y-138009177D02*
X185193857Y-138009176D01*
X185193857Y-138009176D02*
X188193858Y-135009177D01*
X188193858Y-135009177D02*
X188793857Y-135009176D01*
X188793857Y-135009176D02*
X191393857Y-132409177D01*
X191393857Y-132409177D02*
X191993857Y-132409177D01*
X191993857Y-132409177D02*
X194793857Y-129609177D01*
X194793857Y-129609177D02*
X196193857Y-129609176D01*
X196193857Y-129609176D02*
X198993857Y-126809176D01*
X198993857Y-126809176D02*
X201393858Y-126809176D01*
X201393858Y-126809176D02*
X203393858Y-124809177D01*
X203393858Y-124809177D02*
X207193857Y-124809177D01*
X207193857Y-124809177D02*
X210993857Y-121009177D01*
X210993857Y-121009177D02*
X213193858Y-121009177D01*
X214993857Y-119209177D02*
X215593857Y-119209177D01*
X213193858Y-121009177D02*
X214993857Y-119209177D01*
X183093857Y-138509177D02*
X183593858Y-138009177D01*
X172993858Y-148609177D02*
X183093857Y-138509177D01*
X161493857Y-146709176D02*
X163393857Y-148609177D01*
X161393858Y-146609177D02*
X161493857Y-146709176D01*
X158565723Y-130809176D02*
X161979791Y-127395109D01*
X156193858Y-130809177D02*
X158565723Y-130809176D01*
X160562751Y-102282166D02*
X160678304Y-102397719D01*
X160466847Y-102609177D02*
X160678304Y-102397719D01*
X138993858Y-102609176D02*
X160466847Y-102609177D01*
X53593858Y-96409177D02*
X56193858Y-96409176D01*
X52669820Y-96409177D02*
X53593858Y-96409177D01*
X47005801Y-95463186D02*
X48005801Y-96463186D01*
X52342819Y-96736178D02*
X52669820Y-96409177D01*
X51644897Y-96736178D02*
X52342819Y-96736178D01*
X43405802Y-93663187D02*
X45205801Y-95463187D01*
X51371905Y-96463187D02*
X51644897Y-96736178D01*
X41605801Y-93663186D02*
X43405802Y-93663187D01*
X39805802Y-91863187D02*
X41605801Y-93663186D01*
X48005801Y-96463186D02*
X51371905Y-96463187D01*
X36647867Y-91863186D02*
X39805802Y-91863187D01*
X45205801Y-95463187D02*
X47005801Y-95463186D01*
X35593857Y-90809177D02*
X36647867Y-91863186D01*
%TO.N,led*%
X104408217Y-37891668D02*
X102911367Y-36394818D01*
X102911367Y-33194818D02*
X101925725Y-32209177D01*
X102911367Y-36394818D02*
X102911367Y-33194818D01*
X101925725Y-32209177D02*
X100427206Y-30710657D01*
X97627205Y-30710656D02*
X96408218Y-29491669D01*
X100427206Y-30710657D02*
X97627205Y-30710656D01*
X96408218Y-29491669D02*
X96229889Y-29491668D01*
X94429888Y-27691667D02*
X94408216Y-27691667D01*
X96229889Y-29491668D02*
X94429888Y-27691667D01*
X94198725Y-27482175D02*
X90666856Y-27482176D01*
X94408216Y-27691667D02*
X94198725Y-27482175D01*
X90525725Y-27409177D02*
X89408217Y-26291666D01*
X90593858Y-27409177D02*
X90525725Y-27409177D01*
X90666856Y-27482176D02*
X90593858Y-27409177D01*
X85979498Y-26291667D02*
X84461988Y-27809177D01*
X89408217Y-26291666D02*
X85979498Y-26291667D01*
X79520859Y-27682174D02*
X79511367Y-27691666D01*
X81568667Y-27682174D02*
X79520859Y-27682174D01*
X81695668Y-27809177D02*
X81568667Y-27682174D01*
X84461988Y-27809177D02*
X81695668Y-27809177D01*
X78808215Y-27691667D02*
X77125725Y-26009176D01*
X79511367Y-27691666D02*
X78808215Y-27691667D01*
X75725725Y-26009177D02*
X74525726Y-24809176D01*
X77125725Y-26009176D02*
X75725725Y-26009177D01*
X74525726Y-24809176D02*
X66593857Y-24809177D01*
X57365378Y-32406760D02*
X55767793Y-30809177D01*
X52967792Y-29409177D02*
X51567792Y-29409176D01*
X54367791Y-30809176D02*
X52967792Y-29409177D01*
X55767793Y-30809177D02*
X54367791Y-30809176D01*
X51567792Y-29409176D02*
X50367791Y-28209176D01*
X49461925Y-28209177D02*
X49407925Y-28155176D01*
X50367791Y-28209176D02*
X49461925Y-28209177D01*
X104711367Y-38194818D02*
X104408217Y-37891668D01*
X104711367Y-40280866D02*
X104711367Y-38194818D01*
X104640257Y-40351977D02*
X104711367Y-40280866D01*
X126966816Y-51828595D02*
X125448878Y-50310659D01*
X125448878Y-50310659D02*
X124302931Y-50310659D01*
X130125727Y-53009176D02*
X129876683Y-52760134D01*
X111142657Y-45025576D02*
X110329857Y-44212776D01*
X129580418Y-52760134D02*
X128648878Y-51828595D01*
X129876683Y-52760134D02*
X129580418Y-52760134D01*
X119116926Y-46600376D02*
X113098457Y-46600377D01*
X130203357Y-53018677D02*
X130193857Y-53009176D01*
X128648878Y-51828595D02*
X126966816Y-51828595D01*
X130193857Y-53009176D02*
X130125727Y-53009176D01*
X131175357Y-53018676D02*
X130203357Y-53018677D01*
X131665857Y-53509177D02*
X131175357Y-53018676D01*
X132681857Y-53509177D02*
X131665857Y-53509177D01*
X124302931Y-50310659D02*
X124302931Y-50260215D01*
X105935658Y-43298377D02*
X104640258Y-42002977D01*
X133443857Y-54271177D02*
X132681857Y-53509177D01*
X124302931Y-50260215D02*
X123924891Y-49882176D01*
X113098457Y-46600377D02*
X111523657Y-45025577D01*
X123924891Y-49882176D02*
X123580798Y-49882175D01*
X104640258Y-42002977D02*
X104640257Y-40351977D01*
X123580798Y-49882175D02*
X122990289Y-49291667D01*
X122990289Y-49291667D02*
X121208216Y-49291667D01*
X121208216Y-49291667D02*
X120111368Y-48194819D01*
X120111368Y-48194819D02*
X120111367Y-47594818D01*
X120111367Y-47594818D02*
X119116926Y-46600376D01*
X111523657Y-45025577D02*
X111142657Y-45025576D01*
X110329857Y-44212776D02*
X109136057Y-44212777D01*
X109136057Y-44212777D02*
X108221657Y-43298376D01*
X108221657Y-43298376D02*
X105935658Y-43298377D01*
X58696642Y-32406761D02*
X59174257Y-32884377D01*
X57365378Y-32406760D02*
X58696642Y-32406761D01*
%TO.N,Net-(D41-Pad2)*%
X55193858Y-30082177D02*
X54282857Y-30082176D01*
X54282857Y-30082176D02*
X53155848Y-28955167D01*
X53155848Y-28955167D02*
X51755847Y-28955167D01*
X50183781Y-27383099D02*
X48772393Y-27383100D01*
X51755847Y-28955167D02*
X50183781Y-27383099D01*
%TO.N,Net-(D42-Pad2)*%
X43899859Y-45155175D02*
X40993857Y-45155176D01*
X45851604Y-47106921D02*
X43899859Y-45155175D01*
%TO.N,Net-(D43-Pad2)*%
X39793857Y-68209176D02*
X41993857Y-70409176D01*
X46134889Y-77068145D02*
X45712258Y-76645513D01*
X45712258Y-76645513D02*
X45712258Y-73981576D01*
X42139857Y-70409177D02*
X41993857Y-70409176D01*
X45712258Y-73981576D02*
X42139857Y-70409177D01*
%TO.N,Net-(D47-Pad2)*%
X79915897Y-29731217D02*
X81271818Y-29731217D01*
X79515899Y-29331218D02*
X79915897Y-29731217D01*
X81271818Y-29731217D02*
X81393857Y-29609177D01*
X81393857Y-29609177D02*
X85393857Y-29609177D01*
X85393857Y-29609177D02*
X86593857Y-28409177D01*
X88193857Y-28409176D02*
X89593857Y-29809177D01*
X86593857Y-28409177D02*
X88193857Y-28409176D01*
%TO.N,Net-(D48-Pad2)*%
X98593857Y-33209177D02*
X98593857Y-35809176D01*
X98593857Y-35809176D02*
X98593857Y-36009177D01*
X98593857Y-36009177D02*
X97993857Y-36609176D01*
X97993857Y-36609176D02*
X93593857Y-36609177D01*
X93593857Y-36609177D02*
X92393858Y-35409177D01*
X92393858Y-35409177D02*
X88593857Y-35409177D01*
X87149347Y-46409176D02*
X86767791Y-46409176D01*
X87193857Y-46364666D02*
X87149347Y-46409176D01*
X86767791Y-46409176D02*
X84967791Y-44609177D01*
X84967791Y-44609177D02*
X84593857Y-44609176D01*
X84134989Y-44150309D02*
X82593857Y-44150308D01*
X84593857Y-44609176D02*
X84134989Y-44150309D01*
%TO.N,Net-(D49-Pad2)*%
X89916463Y-47371780D02*
X88145859Y-45601177D01*
X84409857Y-43409177D02*
X81793857Y-43409176D01*
X86601857Y-45601176D02*
X84409857Y-43409177D01*
X88145859Y-45601177D02*
X86601857Y-45601176D01*
%TO.N,Net-(D50-Pad2)*%
X79793857Y-63364667D02*
X77991413Y-63364666D01*
X76191422Y-61564675D02*
X74193858Y-61564676D01*
X77991413Y-63364666D02*
X76191422Y-61564675D01*
%TO.N,Net-(D51-Pad2)*%
X74807924Y-82082177D02*
X77108923Y-82082177D01*
X77108923Y-82082177D02*
X79635923Y-84609176D01*
X84393858Y-84609176D02*
X85593857Y-85809177D01*
X79635923Y-84609176D02*
X84393858Y-84609176D01*
%TO.N,Net-(D54-Pad2)*%
X120593858Y-51409177D02*
X121593857Y-51409176D01*
X118276347Y-49091666D02*
X120593858Y-51409177D01*
X113481548Y-49091666D02*
X118276347Y-49091666D01*
X112438057Y-48048176D02*
X113481548Y-49091666D01*
%TO.N,Net-(D55-Pad2)*%
X128075921Y-53927113D02*
X126779926Y-53927112D01*
X126779926Y-53927112D02*
X124861989Y-52009177D01*
X121942818Y-52136178D02*
X120120859Y-52136177D01*
X122069819Y-52009177D02*
X121942818Y-52136178D01*
X124861989Y-52009177D02*
X122069819Y-52009177D01*
X120120859Y-52136177D02*
X119193857Y-51209177D01*
%TO.N,Net-(D56-Pad2)*%
X120128957Y-69074076D02*
X118610047Y-67555167D01*
X116810049Y-67555167D02*
X115428958Y-66174075D01*
X118610047Y-67555167D02*
X116810049Y-67555167D01*
%TO.N,Net-(D57-Pad2)*%
X110767791Y-86609177D02*
X108567791Y-84409177D01*
X111129349Y-86609177D02*
X110767791Y-86609177D01*
X111173859Y-86564666D02*
X111129349Y-86609177D01*
X106744359Y-84409176D02*
X106269108Y-83933926D01*
X108567791Y-84409177D02*
X106744359Y-84409176D01*
X104558757Y-105044277D02*
X102544825Y-105044277D01*
X100417745Y-102917197D02*
X98017745Y-102917197D01*
X102544825Y-105044277D02*
X100417745Y-102917197D01*
X95017743Y-100717197D02*
X94751791Y-100451242D01*
X95817745Y-100717197D02*
X95017743Y-100717197D01*
X98017745Y-102917197D02*
X95817745Y-100717197D01*
X89817744Y-95517196D02*
X88817739Y-95517196D01*
X94751791Y-100451242D02*
X89817744Y-95517196D01*
X88817739Y-95517196D02*
X87617740Y-94317197D01*
X85817743Y-94317196D02*
X84017744Y-92517197D01*
X87617740Y-94317197D02*
X85817743Y-94317196D01*
X81817743Y-92517196D02*
X81551790Y-92251243D01*
X84017744Y-92517197D02*
X81817743Y-92517196D01*
X80636724Y-91336177D02*
X77720857Y-91336176D01*
X81551790Y-92251243D02*
X80636724Y-91336177D01*
X70193857Y-109009177D02*
X70993857Y-109009176D01*
X70993857Y-109009176D02*
X72393858Y-110409176D01*
X72393858Y-110409176D02*
X73593858Y-110409176D01*
%TO.N,Net-(D58-Pad2)*%
X82134889Y-110068144D02*
X84075921Y-112009176D01*
X84075921Y-112009176D02*
X86593857Y-112009177D01*
X89861989Y-115009177D02*
X90061988Y-115209177D01*
X89593858Y-115009177D02*
X89861989Y-115009177D01*
X86593857Y-112009177D02*
X89593858Y-115009177D01*
X92475921Y-115209177D02*
X94334889Y-117068144D01*
X90061988Y-115209177D02*
X92475921Y-115209177D01*
%TO.N,Net-(D59-Pad2)*%
X100861989Y-121609177D02*
X101779498Y-122526687D01*
X100793857Y-121609176D02*
X100861989Y-121609177D01*
X100634889Y-121768145D02*
X100793857Y-121609176D01*
X101779498Y-122526687D02*
X103311367Y-122526687D01*
X103311367Y-122526687D02*
X107793857Y-127009176D01*
X108275922Y-127009177D02*
X111934889Y-130668145D01*
X107793857Y-127009176D02*
X108275922Y-127009177D01*
%TO.N,Net-(D60-Pad2)*%
X121993857Y-131609177D02*
X126993858Y-131609176D01*
X126993858Y-131609176D02*
X127393857Y-132009176D01*
X127393857Y-132009176D02*
X150993857Y-132009176D01*
X151393858Y-132409177D02*
X157193858Y-132409177D01*
X150993857Y-132009176D02*
X151393858Y-132409177D01*
%TO.N,Net-(D61-Pad2)*%
X166652824Y-132068146D02*
X166652825Y-131868143D01*
X166252825Y-132468145D02*
X166652824Y-132068146D01*
X166810853Y-131868144D02*
X174069819Y-124609177D01*
X166652825Y-131868143D02*
X166810853Y-131868144D01*
X174829729Y-124609177D02*
X176811793Y-122627112D01*
X174069819Y-124609177D02*
X174829729Y-124609177D01*
%TO.N,Net-(D62-Pad2)*%
X184357575Y-117563394D02*
X184771507Y-117563395D01*
X184771507Y-117563395D02*
X186525725Y-115809177D01*
X186525725Y-115809177D02*
X187593857Y-115809177D01*
X189676348Y-113726686D02*
X191276347Y-113726686D01*
X187593857Y-115809177D02*
X189676348Y-113726686D01*
X191276347Y-113726686D02*
X191793858Y-113209177D01*
X192193857Y-112809176D02*
X192193858Y-112741045D01*
X191793858Y-113209177D02*
X192193857Y-112809176D01*
X192193858Y-112741045D02*
X193125725Y-111809176D01*
X195311793Y-111809177D02*
X196252825Y-110868145D01*
X193125725Y-111809176D02*
X195311793Y-111809177D01*
%TO.N,Net-(D63-Pad2)*%
X202488069Y-105103388D02*
X203182279Y-104409176D01*
X203794213Y-104409177D02*
X205094035Y-103109354D01*
X203182279Y-104409176D02*
X203794213Y-104409177D01*
X200129224Y-91000811D02*
X199791599Y-90663187D01*
X199239713Y-90663187D02*
X198131694Y-91771207D01*
X199791599Y-90663187D02*
X199239713Y-90663187D01*
X198131694Y-91771207D02*
X197358027Y-91771207D01*
X197358027Y-91771207D02*
X195558028Y-93571206D01*
X195558028Y-93571206D02*
X194158026Y-93571207D01*
X194158026Y-93571207D02*
X191958027Y-95771207D01*
X191958027Y-95771207D02*
X189558026Y-95771207D01*
X189558026Y-95771207D02*
X187456957Y-97872276D01*
X187456957Y-97872276D02*
X187085037Y-98244198D01*
X187085037Y-98244198D02*
X186242968Y-98244198D01*
X186242968Y-98244198D02*
X185501877Y-98985289D01*
X185501877Y-100585290D02*
X185235925Y-100851244D01*
X185501877Y-98985289D02*
X185501877Y-100585290D01*
X185235925Y-100851244D02*
X184642970Y-101444198D01*
X184642970Y-101444198D02*
X184400903Y-101444197D01*
X184400903Y-101444197D02*
X183273894Y-102571207D01*
X180944095Y-102571206D02*
X180632481Y-102882820D01*
X183273894Y-102571207D02*
X180944095Y-102571206D01*
%TO.N,Net-(D66-Pad2)*%
X155793857Y-51799676D02*
X156453161Y-51799676D01*
X156453161Y-51799676D02*
X157643661Y-50609177D01*
X157643661Y-50609177D02*
X159393857Y-50609177D01*
X161193857Y-48541046D02*
X161311367Y-48423536D01*
X161193857Y-48809176D02*
X161193857Y-48541046D01*
X159393857Y-50609177D02*
X161193857Y-48809176D01*
X161311367Y-48423536D02*
X161311367Y-46645206D01*
X162648878Y-45307696D02*
X164095338Y-45307697D01*
X161311367Y-46645206D02*
X162648878Y-45307696D01*
X164593858Y-44809177D02*
X165393858Y-44809176D01*
X164095338Y-45307697D02*
X164593858Y-44809177D01*
%TO.N,Net-(D67-Pad2)*%
X172793858Y-41399677D02*
X172384358Y-41809177D01*
X172384358Y-41809177D02*
X171125726Y-41809177D01*
X171125726Y-41809177D02*
X170208217Y-42726687D01*
X170208217Y-42726687D02*
X168208215Y-42726686D01*
X168208215Y-42726686D02*
X166193857Y-44741044D01*
X166193858Y-45085139D02*
X165669819Y-45609177D01*
X166193857Y-44741044D02*
X166193858Y-45085139D01*
X164793858Y-45609176D02*
X164193857Y-46209177D01*
X165669819Y-45609177D02*
X164793858Y-45609176D01*
%TO.N,Net-(D68-Pad2)*%
X180879790Y-57082177D02*
X178904856Y-57082177D01*
X177203386Y-58783647D02*
X175803384Y-58783646D01*
X178904856Y-57082177D02*
X177203386Y-58783647D01*
X175803384Y-58783646D02*
X174885874Y-59701156D01*
X173073743Y-59701157D02*
X172079790Y-60695110D01*
X174885874Y-59701156D02*
X173073743Y-59701157D01*
%TO.N,Net-(D69-Pad2)*%
X188193857Y-77399677D02*
X188996292Y-77399677D01*
X190542819Y-76136178D02*
X190993857Y-75685139D01*
X190259791Y-76136177D02*
X190542819Y-76136178D01*
X188996292Y-77399677D02*
X190259791Y-76136177D01*
X192269819Y-75685139D02*
X192393857Y-75809177D01*
X190993857Y-75685139D02*
X192269819Y-75685139D01*
X195679791Y-82123243D02*
X196393858Y-81409177D01*
X196393858Y-81409177D02*
X201393858Y-81409177D01*
X201393858Y-81409177D02*
X202285837Y-82301156D01*
X203785767Y-82301156D02*
X204058758Y-82028167D01*
X202285837Y-82301156D02*
X203785767Y-82301156D01*
%TO.N,Net-(D73-Pad2)*%
X187393857Y-29399677D02*
X188053161Y-29399677D01*
X188053161Y-29399677D02*
X189843662Y-27609177D01*
X189843662Y-27609177D02*
X192993858Y-27609176D01*
X192993858Y-27609176D02*
X194793858Y-29409176D01*
X198384357Y-29409177D02*
X199593857Y-28199676D01*
X194793858Y-29409176D02*
X198384357Y-29409177D01*
%TO.N,Net-(D74-Pad2)*%
X210393858Y-25609177D02*
X211393858Y-26609176D01*
X209193857Y-25609177D02*
X210393858Y-25609177D01*
%TO.N,Net-(D75-Pad2)*%
X214393858Y-41364667D02*
X213438368Y-41364667D01*
X213438368Y-41364667D02*
X211647867Y-43155167D01*
X209005801Y-43155167D02*
X208005800Y-44155167D01*
X211647867Y-43155167D02*
X209005801Y-43155167D01*
X206419733Y-44155166D02*
X205532209Y-45042690D01*
X208005800Y-44155167D02*
X206419733Y-44155166D01*
%TO.N,Net-(D76-Pad2)*%
X222993858Y-58364666D02*
X221569043Y-58364667D01*
X221569043Y-58364667D02*
X219724534Y-60209176D01*
X219724534Y-60209176D02*
X217757894Y-60209176D01*
X216383413Y-61583657D02*
X215793857Y-61583657D01*
X217757894Y-60209176D02*
X216383413Y-61583657D01*
%TO.N,Net-(D77-Pad2)*%
X233152825Y-77568145D02*
X233434889Y-77568144D01*
X235393858Y-75541045D02*
X236311367Y-74623535D01*
X235393857Y-75609177D02*
X235393858Y-75541045D01*
X233434889Y-77568144D02*
X235393857Y-75609177D01*
X236311367Y-74623535D02*
X236311367Y-73691667D01*
X236793857Y-72941045D02*
X236911368Y-72823536D01*
X236793857Y-73209176D02*
X236793857Y-72941045D01*
X236311367Y-73691667D02*
X236793857Y-73209176D01*
X236911367Y-72571267D02*
X240033657Y-69448976D01*
X236911368Y-72823536D02*
X236911367Y-72571267D01*
%TO.N,RESET*%
X151793858Y-131555177D02*
X158847857Y-131555177D01*
X158847857Y-131555177D02*
X161759236Y-128643797D01*
X161759236Y-128643797D02*
X163993857Y-126409176D01*
%TO.N,col0*%
X34793857Y-89809177D02*
X35793857Y-89809176D01*
X35793857Y-89809176D02*
X37393857Y-91409177D01*
X37393857Y-91409177D02*
X39993857Y-91409176D01*
X39993857Y-91409176D02*
X41793857Y-93209176D01*
X41793857Y-93209176D02*
X43593857Y-93209176D01*
X43593857Y-93209176D02*
X45393857Y-95009177D01*
X45393857Y-95009177D02*
X47193857Y-95009177D01*
X47193857Y-95009177D02*
X48193857Y-96009176D01*
X48193857Y-96009176D02*
X49593857Y-96009177D01*
X53120858Y-94882176D02*
X51993857Y-96009177D01*
X61408216Y-97691667D02*
X58598725Y-94882175D01*
X66208215Y-100491666D02*
X63408216Y-97691666D01*
X63408216Y-97691666D02*
X61408216Y-97691667D01*
X68608216Y-100491667D02*
X66208215Y-100491666D01*
X58598725Y-94882175D02*
X53120858Y-94882176D01*
X71598724Y-103482175D02*
X68608216Y-100491667D01*
X74069819Y-104409177D02*
X73142819Y-103482176D01*
X75125725Y-104409176D02*
X74069819Y-104409177D01*
X82726153Y-107691666D02*
X80208215Y-107691667D01*
X84187755Y-108809176D02*
X83843661Y-108809177D01*
X73142819Y-103482176D02*
X71598724Y-103482175D01*
X104393857Y-120609176D02*
X103193858Y-120609176D01*
X87608216Y-110091667D02*
X85470245Y-110091666D01*
X113320858Y-122409177D02*
X106193857Y-122409177D01*
X80208215Y-107691667D02*
X78408216Y-105891667D01*
X83843661Y-108809177D02*
X82726153Y-107691666D01*
X103193858Y-120609176D02*
X102393857Y-119809177D01*
X106193857Y-122409177D02*
X104393857Y-120609176D01*
X78408216Y-105891667D02*
X76608216Y-105891666D01*
X101925725Y-119809177D02*
X99208216Y-117091666D01*
X102393857Y-119809177D02*
X101925725Y-119809177D01*
X76608216Y-105891666D02*
X75125725Y-104409176D01*
X90808215Y-113291667D02*
X87608216Y-110091667D01*
X85470245Y-110091666D02*
X84187755Y-108809176D01*
X99208216Y-117091666D02*
X97608215Y-117091667D01*
X97608215Y-117091667D02*
X93808217Y-113291666D01*
X93808217Y-113291666D02*
X90808215Y-113291667D01*
X49593857Y-96009177D02*
X51993857Y-96009177D01*
X132173857Y-60621177D02*
X129125857Y-60621177D01*
X129125857Y-60621177D02*
X128109857Y-61637176D01*
X128109858Y-67779243D02*
X127120858Y-68768243D01*
X128109857Y-61637176D02*
X128109858Y-67779243D01*
X125575925Y-84187112D02*
X124463933Y-85299104D01*
X125575925Y-83983109D02*
X125575925Y-84187112D01*
%TO.N,col1*%
X59993858Y-78418677D02*
X67105167Y-78418676D01*
X72808217Y-82091667D02*
X73393858Y-82677309D01*
X70778157Y-82091667D02*
X72808217Y-82091667D01*
X67105167Y-78418676D02*
X70778157Y-82091667D01*
X73393858Y-82677309D02*
X74325725Y-83609176D01*
X74325725Y-83609176D02*
X76193858Y-83609176D01*
X76193857Y-91609177D02*
X74593857Y-91609177D01*
X77193857Y-90609177D02*
X76193857Y-91609177D01*
X80551791Y-90609176D02*
X77193857Y-90609177D01*
X84205801Y-92063187D02*
X82005800Y-92063186D01*
X87805801Y-93863187D02*
X86005800Y-93863186D01*
X86005800Y-93863186D02*
X84205801Y-92063187D01*
X90047868Y-95063187D02*
X89005800Y-95063187D01*
X92739847Y-97755167D02*
X90047868Y-95063187D01*
X88739847Y-94797233D02*
X87805801Y-93863187D01*
X95205801Y-100263187D02*
X92739847Y-97797233D01*
X96005802Y-100263187D02*
X95205801Y-100263187D01*
X82005800Y-92063186D02*
X80551791Y-90609176D01*
X89005800Y-95063187D02*
X88739847Y-94797233D01*
X97939847Y-102197233D02*
X96005802Y-100263187D01*
X115407924Y-107823244D02*
X114593857Y-107009176D01*
X114593857Y-107009176D02*
X109317896Y-107009177D01*
X109317896Y-107009177D02*
X108793858Y-106485138D01*
X108793858Y-106485138D02*
X108669819Y-106485138D01*
X108669819Y-106485138D02*
X108047867Y-105863187D01*
X102405800Y-104263187D02*
X102139847Y-103997232D01*
X100605802Y-102463187D02*
X98205800Y-102463186D01*
X108047867Y-105863187D02*
X106405800Y-105863187D01*
X106405800Y-105863187D02*
X106139848Y-105597232D01*
X92739847Y-97797233D02*
X92739847Y-97755167D01*
X106139848Y-105597232D02*
X104805801Y-104263186D01*
X102139847Y-103997232D02*
X100605802Y-102463187D01*
X104805801Y-104263186D02*
X102405800Y-104263187D01*
X98205800Y-102463186D02*
X97939847Y-102197233D01*
X132173857Y-73321176D02*
X130395857Y-75099177D01*
X130395857Y-75099177D02*
X126839858Y-75099177D01*
X123555991Y-86275177D02*
X123478026Y-86353142D01*
X124932027Y-86275176D02*
X123555991Y-86275177D01*
%TO.N,col2*%
X73593857Y-124209177D02*
X74593857Y-124209177D01*
X74593857Y-124209177D02*
X76793857Y-126409177D01*
X78993857Y-126409176D02*
X79593858Y-127009177D01*
X76793857Y-126409177D02*
X78993857Y-126409176D01*
X118035923Y-68009177D02*
X116235923Y-68009176D01*
X116235923Y-68009176D02*
X114381914Y-66155167D01*
X114381914Y-66155167D02*
X112339847Y-66155167D01*
X111479826Y-65101247D02*
X111101786Y-64723207D01*
X111479826Y-65295146D02*
X111479826Y-65101247D01*
X112339847Y-66155167D02*
X111479826Y-65295146D01*
X111101786Y-64723207D02*
X110667890Y-64723208D01*
X110667890Y-64723208D02*
X105967982Y-60023298D01*
X104181913Y-60023299D02*
X101996273Y-57837657D01*
X105967982Y-60023298D02*
X104181913Y-60023299D01*
X101996273Y-57837657D02*
X99940366Y-57837657D01*
X99940366Y-57837657D02*
X99030876Y-56928165D01*
X98686781Y-56928166D02*
X97567792Y-55809177D01*
X99030876Y-56928165D02*
X98686781Y-56928166D01*
X97567792Y-55809177D02*
X97167792Y-55809176D01*
X95518805Y-54160190D02*
X95579827Y-54099170D01*
X97167792Y-55809176D02*
X95518805Y-54160190D01*
X95579827Y-53401247D02*
X95201786Y-53023208D01*
X95579827Y-54099170D02*
X95579827Y-53401247D01*
X95153959Y-53023207D02*
X93666892Y-51536141D01*
X95201786Y-53023208D02*
X95153959Y-53023207D01*
X74184357Y-103457128D02*
X74682395Y-103955167D01*
X75313782Y-103955166D02*
X75579735Y-104221121D01*
X74682395Y-103955167D02*
X75313782Y-103955166D01*
X75579735Y-104221121D02*
X76796272Y-105437657D01*
X78596273Y-105437657D02*
X79567794Y-106409177D01*
X76796272Y-105437657D02*
X78596273Y-105437657D01*
X79567794Y-106409177D02*
X79593858Y-106409177D01*
X82914209Y-107237656D02*
X83180163Y-107503611D01*
X80422337Y-107237657D02*
X82914209Y-107237656D01*
X79593858Y-106409177D02*
X80422337Y-107237657D01*
X83180163Y-107503611D02*
X84031719Y-108355167D01*
X84031719Y-108355167D02*
X84375812Y-108355168D01*
X85385312Y-109364667D02*
X87193857Y-109364667D01*
X84375812Y-108355168D02*
X85385312Y-109364667D01*
X132173857Y-75861176D02*
X128328858Y-75861176D01*
X127855857Y-71035177D02*
X126327878Y-71035177D01*
X120418853Y-69860144D02*
X119886890Y-69860143D01*
X120513819Y-69765176D02*
X120418853Y-69860144D01*
X119886890Y-69860143D02*
X118035923Y-68009177D01*
X120513819Y-69765176D02*
X120513819Y-69741214D01*
X120513819Y-69741214D02*
X120743857Y-69511177D01*
X120743857Y-69511177D02*
X123029857Y-69511176D01*
X124553857Y-71035176D02*
X126327878Y-71035177D01*
X123029857Y-69511176D02*
X124553857Y-71035176D01*
%TO.N,col3*%
X109593858Y-106209176D02*
X108793857Y-105409177D01*
X108793857Y-105409177D02*
X106593858Y-105409177D01*
X106593858Y-105409177D02*
X104993857Y-103809177D01*
X104993857Y-103809177D02*
X102593857Y-103809176D01*
X102593857Y-103809176D02*
X100793857Y-102009176D01*
X100793857Y-102009176D02*
X98393858Y-102009177D01*
X98393858Y-102009177D02*
X96193857Y-99809176D01*
X96193857Y-99809176D02*
X95393857Y-99809177D01*
X93193857Y-97609177D02*
X93193858Y-96609177D01*
X95393857Y-99809177D02*
X93193857Y-97609177D01*
X110765723Y-103209177D02*
X110679790Y-103295110D01*
X127993857Y-103209177D02*
X110765723Y-103209177D01*
X108529658Y-128924977D02*
X102078057Y-128924976D01*
X109339257Y-129734576D02*
X108529658Y-128924977D01*
X144843857Y-126309176D02*
X145804557Y-126309177D01*
X145804557Y-126309177D02*
X146626457Y-127131076D01*
X159516958Y-127131076D02*
X159567757Y-127080276D01*
X146626457Y-127131076D02*
X159516958Y-127131076D01*
X142994257Y-126927877D02*
X143612957Y-126309177D01*
X143612957Y-126309177D02*
X144843857Y-126309176D01*
X124033158Y-126927877D02*
X142994257Y-126927877D01*
X122394857Y-128566176D02*
X124033158Y-126927877D01*
X116727557Y-128566177D02*
X122394857Y-128566176D01*
%TO.N,col4*%
X128793857Y-88609177D02*
X117193857Y-88609177D01*
X110395857Y-116309177D02*
X110393858Y-116311177D01*
X120793857Y-116309176D02*
X110395857Y-116309177D01*
%TO.N,col5*%
X183793858Y-99809176D02*
X182393857Y-101209177D01*
X182393857Y-101209177D02*
X179993858Y-101209177D01*
X179993858Y-101209177D02*
X176993857Y-104209177D01*
X176993857Y-104209177D02*
X173193857Y-104209176D01*
X173193857Y-104209176D02*
X170793857Y-106609177D01*
X168184357Y-106609176D02*
X166584357Y-108209177D01*
X170793857Y-106609177D02*
X168184357Y-106609176D01*
X157247857Y-69955176D02*
X157593857Y-69609177D01*
X157593857Y-69609177D02*
X159593858Y-69609177D01*
X159593858Y-69609177D02*
X160793857Y-68409177D01*
X162756184Y-68409177D02*
X163610193Y-67555167D01*
X160793857Y-68409177D02*
X162756184Y-68409177D01*
X163610193Y-67555167D02*
X165447867Y-67555166D01*
X167379790Y-65623244D02*
X167379791Y-65395110D01*
X165447867Y-67555166D02*
X167379790Y-65623244D01*
X157247857Y-69955176D02*
X155605857Y-69955176D01*
X154779857Y-70781176D02*
X147413857Y-70781176D01*
X155605857Y-69955176D02*
X154779857Y-70781176D01*
X238244257Y-45330376D02*
X237685458Y-45889176D01*
X237685458Y-45889176D02*
X236453557Y-45889177D01*
X236453557Y-45889177D02*
X235310557Y-47032176D01*
X235310557Y-47032176D02*
X232326057Y-47032176D01*
X232326057Y-47032176D02*
X231259257Y-48098977D01*
X231259257Y-48098977D02*
X230255957Y-48098977D01*
X230255957Y-48098977D02*
X229100258Y-49254676D01*
X227872396Y-49254676D02*
X226242757Y-50884315D01*
X229100258Y-49254676D02*
X227872396Y-49254676D01*
X226242757Y-50884315D02*
X226242757Y-55185577D01*
X226242757Y-55185577D02*
X223918657Y-57509677D01*
X223918657Y-57509677D02*
X221531058Y-57509676D01*
X221531058Y-57509676D02*
X219460957Y-59579776D01*
X219460957Y-59579776D02*
X217416257Y-59579777D01*
X217416257Y-59579777D02*
X216387557Y-60608477D01*
X216387557Y-60608477D02*
X215447757Y-60608477D01*
X215447757Y-60608477D02*
X213466557Y-62589677D01*
X213466557Y-62589677D02*
X212425157Y-62589677D01*
X212425157Y-62589677D02*
X211625058Y-61789577D01*
X211625058Y-61789577D02*
X211625057Y-60773577D01*
X211625057Y-60773577D02*
X211015457Y-60163977D01*
X211015457Y-60163977D02*
X204944857Y-60163976D01*
X204944857Y-60163976D02*
X202938258Y-62170577D01*
X202938258Y-62170577D02*
X201973057Y-62170576D01*
X201973057Y-62170576D02*
X200499857Y-63643776D01*
X200499857Y-63643776D02*
X198404357Y-63643777D01*
X198404357Y-63643777D02*
X197312157Y-64735977D01*
X197312157Y-64735977D02*
X195927857Y-64735976D01*
X195927857Y-64735976D02*
X193591057Y-67072777D01*
X193591057Y-67072777D02*
X193298957Y-67072776D01*
X193298957Y-67072776D02*
X192740158Y-67631577D01*
X192740158Y-67631577D02*
X192740157Y-72470277D01*
X192740157Y-72470277D02*
X191965457Y-73244977D01*
X191965457Y-73244977D02*
X189501657Y-73244977D01*
X189501657Y-73244977D02*
X187850657Y-74895977D01*
X187850657Y-74895977D02*
X186364757Y-74895977D01*
X186364757Y-74895977D02*
X184967757Y-76292977D01*
X184967757Y-76292977D02*
X181957858Y-76292976D01*
X181957858Y-76292976D02*
X180243357Y-78007476D01*
X175193857Y-81993607D02*
X175193857Y-82447377D01*
X179179988Y-78007477D02*
X175193857Y-81993607D01*
X180243357Y-78007476D02*
X179179988Y-78007477D01*
%TO.N,col6*%
X206222347Y-103009177D02*
X204222347Y-105009177D01*
X204222347Y-105009177D02*
X203610414Y-105009177D01*
X202527923Y-106091667D02*
X200511367Y-106091667D01*
X203610414Y-105009177D02*
X202527923Y-106091667D01*
X199311368Y-107291666D02*
X198111367Y-107291666D01*
X200511367Y-106091667D02*
X199311368Y-107291666D01*
X195579498Y-108691666D02*
X194193857Y-110077309D01*
X196711367Y-108691667D02*
X195579498Y-108691666D01*
X198111367Y-107291666D02*
X196711367Y-108691667D01*
X194179500Y-110091666D02*
X192111367Y-110091667D01*
X194193857Y-110077309D02*
X194179500Y-110091666D01*
X192111367Y-110091667D02*
X190193857Y-112009177D01*
X188475921Y-112009177D02*
X187534889Y-112950209D01*
X190193857Y-112009177D02*
X188475921Y-112009177D01*
X195699257Y-80814177D02*
X195549057Y-80964376D01*
X201668258Y-80814177D02*
X195699257Y-80814177D01*
X202354057Y-81499976D02*
X201668258Y-80814177D01*
X203484358Y-81144377D02*
X203128758Y-81499977D01*
X204449557Y-81144377D02*
X203484358Y-81144377D01*
X235259757Y-71797177D02*
X233507157Y-73549776D01*
X233049958Y-73549776D02*
X230713157Y-75886577D01*
X203128758Y-81499977D02*
X202354057Y-81499976D01*
X245876957Y-62183277D02*
X243883058Y-64177177D01*
X230713157Y-75886577D02*
X229722557Y-75886576D01*
X240136557Y-64177176D02*
X239212567Y-65101167D01*
X243883058Y-64177177D02*
X240136557Y-64177176D01*
X226484057Y-77156577D02*
X225429957Y-78210677D01*
X233507157Y-73549776D02*
X233049958Y-73549776D01*
X246397658Y-62183277D02*
X245876957Y-62183277D01*
X213441157Y-77372476D02*
X210736058Y-80077577D01*
X229722557Y-75886576D02*
X228452557Y-77156577D01*
X207649957Y-81436477D02*
X204741657Y-81436477D01*
X228452557Y-77156577D02*
X226484057Y-77156577D01*
X209008858Y-80077576D02*
X207649957Y-81436477D01*
X225429957Y-78210677D02*
X223702757Y-78210677D01*
X223702757Y-78210677D02*
X222204158Y-79709276D01*
X222204158Y-79709276D02*
X220870657Y-79709277D01*
X220870657Y-79709277D02*
X219829257Y-78667877D01*
X219829257Y-78667877D02*
X219829258Y-78363077D01*
X219829258Y-78363077D02*
X218838658Y-77372477D01*
X218838658Y-77372477D02*
X213441157Y-77372476D01*
X210736058Y-80077577D02*
X209008858Y-80077576D01*
X204741657Y-81436477D02*
X204449557Y-81144377D01*
X154967914Y-71235187D02*
X149499847Y-71235187D01*
X155793914Y-70409187D02*
X154967914Y-71235187D01*
X157435914Y-70409187D02*
X155793914Y-70409187D01*
X149499847Y-71235187D02*
X147413858Y-73321177D01*
X160998251Y-69009176D02*
X159852261Y-70155166D01*
X183793857Y-55409177D02*
X181393858Y-57809176D01*
X168876857Y-65269376D02*
X166137057Y-68009176D01*
X159852261Y-70155166D02*
X157689935Y-70155167D01*
X181393858Y-57809176D02*
X178819923Y-57809177D01*
X177391443Y-59237656D02*
X175991442Y-59237656D01*
X178819923Y-57809177D02*
X177391443Y-59237656D01*
X162798250Y-69009177D02*
X160998251Y-69009176D01*
X175991442Y-59237656D02*
X175073932Y-60155167D01*
X175073932Y-60155167D02*
X173647867Y-60155167D01*
X163798250Y-68009177D02*
X162798250Y-69009177D01*
X173647867Y-60155167D02*
X173647867Y-60202995D01*
X170705657Y-61814976D02*
X168876858Y-63643776D01*
X157689935Y-70155167D02*
X157435914Y-70409187D01*
X173647867Y-60202995D02*
X172035885Y-61814977D01*
X172035885Y-61814977D02*
X170705657Y-61814976D01*
X168876858Y-63643776D02*
X168876857Y-65269376D01*
X166137057Y-68009176D02*
X163798250Y-68009177D01*
X235302589Y-71797176D02*
X237126657Y-69973108D01*
X235259757Y-71797177D02*
X235302589Y-71797176D01*
X237126657Y-69968377D02*
X237831538Y-69263496D01*
X237126657Y-69973108D02*
X237126657Y-69968377D01*
X237831537Y-66482197D02*
X239212567Y-65101167D01*
X237831538Y-69263496D02*
X237831537Y-66482197D01*
%TO.N,col7*%
X223993858Y-94009177D02*
X222793857Y-95209176D01*
X222793857Y-95209176D02*
X220393858Y-95209177D01*
X220393858Y-95209177D02*
X218193858Y-97409177D01*
X218193858Y-97409177D02*
X215593857Y-97409176D01*
X215593857Y-97409176D02*
X212993858Y-100009177D01*
X212993858Y-100009177D02*
X210793857Y-100009176D01*
X166660319Y-109209177D02*
X167393857Y-108475639D01*
X167393857Y-108475639D02*
X167393858Y-108041743D01*
X168372413Y-107063187D02*
X171014890Y-107063186D01*
X167393858Y-108041743D02*
X168372413Y-107063187D01*
X171014890Y-107063186D02*
X173414890Y-104663187D01*
X177181914Y-104663186D02*
X180181914Y-101663186D01*
X173414890Y-104663187D02*
X177181914Y-104663186D01*
X180181914Y-101663186D02*
X182739848Y-101663187D01*
X183866857Y-100536177D02*
X184266856Y-100536177D01*
X182739848Y-101663187D02*
X183866857Y-100536177D01*
X184266856Y-100536177D02*
X184593857Y-100209177D01*
X184593857Y-98609177D02*
X185866856Y-97336178D01*
X184593857Y-100209177D02*
X184593857Y-98609177D01*
X186708923Y-97336177D02*
X187247867Y-96797232D01*
X185866856Y-97336178D02*
X186708923Y-97336177D01*
X187247867Y-96797232D02*
X189181914Y-94863186D01*
X191581915Y-94863187D02*
X191847868Y-94597232D01*
X189181914Y-94863186D02*
X191581915Y-94863187D01*
X191847868Y-94597232D02*
X193781914Y-92663187D01*
X195181914Y-92663186D02*
X196981915Y-90863186D01*
X193781914Y-92663187D02*
X195181914Y-92663186D01*
X197755582Y-90863187D02*
X198021535Y-90597232D01*
X196981915Y-90863186D02*
X197755582Y-90863187D01*
X199194624Y-89424145D02*
X199580691Y-89424145D01*
X198021535Y-90597232D02*
X199194624Y-89424145D01*
X209180924Y-101622110D02*
X210793857Y-100009176D01*
X209180924Y-102723460D02*
X209180924Y-101622110D01*
X208680708Y-102223243D02*
X209180924Y-102723460D01*
X205579790Y-102223244D02*
X208680708Y-102223243D01*
X147413857Y-75861177D02*
X153255857Y-75861176D01*
X162266857Y-109002176D02*
X162473857Y-109209176D01*
X162266857Y-108936187D02*
X162266857Y-109002176D01*
X162473857Y-109209176D02*
X166660319Y-109209177D01*
X227563557Y-99406976D02*
X229417758Y-97552777D01*
X229417758Y-97552777D02*
X233634157Y-97552777D01*
X233634157Y-97552777D02*
X237228257Y-93958677D01*
X237228257Y-93958677D02*
X241343057Y-93958676D01*
X244860957Y-90440777D02*
X244860958Y-89983577D01*
X241343057Y-93958676D02*
X244860957Y-90440777D01*
X244162458Y-85284577D02*
X245114957Y-85284577D01*
X245114957Y-85284577D02*
X248099457Y-82300077D01*
X248099457Y-82300077D02*
X251884058Y-82300077D01*
X255630557Y-78553576D02*
X257967357Y-78553576D01*
X251884058Y-82300077D02*
X255630557Y-78553576D01*
%TO.N,col8*%
X233534889Y-74550209D02*
X233120957Y-74550209D01*
X229911367Y-76491667D02*
X228711367Y-77691667D01*
X231179499Y-76491667D02*
X229911367Y-76491667D01*
X233120957Y-74550209D02*
X231179499Y-76491667D01*
X226779498Y-77691667D02*
X225861988Y-78609177D01*
X228711367Y-77691667D02*
X226779498Y-77691667D01*
X225711359Y-78691675D02*
X224911358Y-78691675D01*
X225793857Y-78609176D02*
X225711359Y-78691675D01*
X225861988Y-78609177D02*
X225793857Y-78609176D01*
X223769999Y-78901167D02*
X222793858Y-79877309D01*
X224701868Y-78901167D02*
X223769999Y-78901167D01*
X224911358Y-78691675D02*
X224701868Y-78901167D01*
X222261990Y-80409176D02*
X219547398Y-80409176D01*
X222793858Y-79877309D02*
X222261990Y-80409176D01*
X217756898Y-78618676D02*
X216393857Y-78618677D01*
X219547398Y-80409176D02*
X217756898Y-78618676D01*
X216593857Y-85209177D02*
X218993857Y-85209177D01*
X215393857Y-86409177D02*
X216593857Y-85209177D01*
X213193858Y-86409176D02*
X215393857Y-86409177D01*
X212393857Y-87209176D02*
X213193858Y-86409176D01*
X211193857Y-87209177D02*
X212393857Y-87209176D01*
X209193858Y-89209177D02*
X211193857Y-87209177D01*
X204793857Y-89209176D02*
X209193858Y-89209177D01*
X203793858Y-90209176D02*
X204793857Y-89209176D01*
X199051657Y-90209177D02*
X203793858Y-90209176D01*
X197943638Y-91317196D02*
X199051657Y-90209177D01*
X197169970Y-91317196D02*
X197943638Y-91317196D01*
X171468900Y-107251243D02*
X173602947Y-105117196D01*
X171202947Y-107517197D02*
X171468900Y-107251243D01*
X168560469Y-107517196D02*
X171202947Y-107517197D01*
X180369970Y-102117196D02*
X183085837Y-102117196D01*
X167847867Y-108229798D02*
X168560469Y-107517196D01*
X167847867Y-108663696D02*
X167847867Y-108229798D01*
X166848377Y-109663187D02*
X167847867Y-108663696D01*
X186896980Y-97790188D02*
X189369969Y-95317196D01*
X195369971Y-93117197D02*
X195635924Y-92851243D01*
X184212846Y-100990188D02*
X184454914Y-100990188D01*
X186054913Y-97790188D02*
X186896980Y-97790188D01*
X173602947Y-105117196D02*
X177369971Y-105117197D01*
X177369971Y-105117197D02*
X177635924Y-104851242D01*
X177635924Y-104851242D02*
X180369970Y-102117196D01*
X183085837Y-102117196D02*
X184212846Y-100990188D01*
X184454914Y-100990188D02*
X185047867Y-100397234D01*
X185047867Y-100397234D02*
X185047868Y-98797233D01*
X185047868Y-98797233D02*
X186054913Y-97790188D01*
X189369969Y-95317196D02*
X191769969Y-95317196D01*
X191769969Y-95317196D02*
X193969969Y-93117196D01*
X193969969Y-93117196D02*
X195369971Y-93117197D01*
X195635924Y-92851243D02*
X197169970Y-91317196D01*
X154259723Y-78401177D02*
X154519791Y-78661243D01*
X147413857Y-78401177D02*
X154259723Y-78401177D01*
X161403868Y-109663187D02*
X166848377Y-109663187D01*
%TO.N,sda*%
X130393857Y-153009177D02*
X129793858Y-153609177D01*
X136193857Y-153009176D02*
X130393857Y-153009177D01*
X127793858Y-155009177D02*
X124193857Y-155009177D01*
X124193857Y-155009177D02*
X123993858Y-155009176D01*
X131593858Y-132736177D02*
X138193857Y-132736177D01*
X118621924Y-107223243D02*
X118247857Y-106849177D01*
X140407924Y-107223244D02*
X118621924Y-107223243D01*
%TO.N,scl*%
X138793858Y-139209177D02*
X125969858Y-139209177D01*
X132193857Y-133609177D02*
X139193857Y-133609176D01*
X119001857Y-108409177D02*
X118965857Y-108373177D01*
X140393858Y-108409177D02*
X119001857Y-108409177D01*
%TO.N,Net-(D82-Pad2)*%
X155693857Y-116309176D02*
X155593857Y-116409177D01*
X158793857Y-116309177D02*
X155693857Y-116309176D01*
X155393857Y-122209177D02*
X146393857Y-122209177D01*
%TO.N,ENC1B*%
X135193857Y-116409176D02*
X135293857Y-116309177D01*
X126993857Y-116409176D02*
X135193857Y-116409176D01*
%TO.N,ENC1A*%
X135193858Y-121409177D02*
X135293857Y-121309177D01*
X124593857Y-121409177D02*
X135193858Y-121409177D01*
%TO.N,ENC2B*%
X144393858Y-121209177D02*
X144293858Y-121309177D01*
X150293857Y-121309177D02*
X150393857Y-121409177D01*
X144293858Y-121309177D02*
X150293857Y-121309177D01*
%TO.N,ENC2A*%
X144393858Y-116409176D02*
X144293857Y-116309176D01*
X147693858Y-116309177D02*
X147793857Y-116409176D01*
X144293857Y-116309176D02*
X147693858Y-116309177D01*
X149560157Y-91215477D02*
X149572857Y-91202777D01*
X144289657Y-91215477D02*
X149560157Y-91215477D01*
%TO.N,row4*%
X153497723Y-83481176D02*
X153503790Y-83487244D01*
X147413857Y-83481176D02*
X153497723Y-83481176D01*
X160761557Y-127258077D02*
X159948757Y-128070877D01*
X159948757Y-128070877D02*
X150665058Y-128070877D01*
X150665058Y-128070877D02*
X147180767Y-131555167D01*
X127581913Y-131555166D02*
X126904323Y-130877576D01*
X147180767Y-131555167D02*
X127581913Y-131555166D01*
X126904323Y-130877576D02*
X122661557Y-130877577D01*
X122267857Y-130483876D02*
X117454557Y-130483877D01*
X122661557Y-130877577D02*
X122267857Y-130483876D01*
X165511357Y-123651277D02*
X165524057Y-123663977D01*
X161650557Y-123651276D02*
X165511357Y-123651277D01*
X160139258Y-111268777D02*
X159885257Y-111014776D01*
X165397058Y-111268777D02*
X160139258Y-111268777D01*
X165397058Y-111268777D02*
X167048058Y-111268777D01*
X167048058Y-111268777D02*
X167213158Y-111433877D01*
X167213158Y-111433877D02*
X168279958Y-111433877D01*
X168279958Y-111433877D02*
X174058458Y-105655377D01*
X174058458Y-105655377D02*
X177779557Y-105655376D01*
X177779557Y-105655376D02*
X179621057Y-103813877D01*
X179621057Y-103813877D02*
X182808757Y-103813877D01*
X182808757Y-103813877D02*
X182999257Y-103813877D01*
X185780557Y-100948677D02*
X185958357Y-100770877D01*
X185780557Y-101032577D02*
X185780557Y-100948677D01*
X182999257Y-103813877D02*
X185780557Y-101032577D01*
X186451224Y-98698210D02*
X187327525Y-98698210D01*
X185958357Y-99191076D02*
X186451224Y-98698210D01*
X185958357Y-100770877D02*
X185958357Y-99191076D01*
X189800517Y-96225216D02*
X192146083Y-96225216D01*
X187327525Y-98698210D02*
X189800517Y-96225216D01*
X194346083Y-94025217D02*
X195861317Y-94025217D01*
X192146083Y-96225216D02*
X194346083Y-94025217D01*
X195861317Y-94025217D02*
X197642358Y-92244177D01*
X198810757Y-92244177D02*
X198925057Y-92129877D01*
X197642358Y-92244177D02*
X198810757Y-92244177D01*
X204030457Y-102505776D02*
X205071857Y-101464377D01*
X205071857Y-101464377D02*
X208602458Y-101464377D01*
X208602458Y-101464377D02*
X210570957Y-99495877D01*
X210570957Y-99495877D02*
X212717258Y-99495876D01*
X212717258Y-99495876D02*
X215282657Y-96930476D01*
X215282657Y-96930476D02*
X217936957Y-96930477D01*
X217936957Y-96930477D02*
X220222957Y-94644477D01*
X222305758Y-94644476D02*
X224159957Y-92790277D01*
X220222957Y-94644477D02*
X222305758Y-94644476D01*
X223283657Y-86884776D02*
X224223457Y-85944977D01*
X224223457Y-85944977D02*
X228058858Y-85944977D01*
X228058858Y-85944977D02*
X229671757Y-84332077D01*
X229671757Y-84332077D02*
X230141657Y-84332077D01*
X230141657Y-84332077D02*
X230763957Y-83709776D01*
X230763957Y-83709776D02*
X231525957Y-83709777D01*
X231525957Y-83709777D02*
X232033957Y-83201776D01*
X232033957Y-83201776D02*
X233850058Y-83201776D01*
X233850058Y-83201776D02*
X236047157Y-81004677D01*
X239031657Y-81004677D02*
X239882557Y-80153777D01*
X236047157Y-81004677D02*
X239031657Y-81004677D01*
%TO.N,B-*%
X86593557Y-95152477D02*
X87685758Y-95152477D01*
X88625557Y-96092277D02*
X89565357Y-96092276D01*
X87685758Y-95152477D02*
X88625557Y-96092277D01*
X95643460Y-101184977D02*
X97829688Y-103371207D01*
X94658057Y-101184977D02*
X95643460Y-101184977D01*
X89565357Y-96092276D02*
X94658057Y-101184977D01*
X100229689Y-103371206D02*
X102780559Y-105922077D01*
X97829688Y-103371207D02*
X100229689Y-103371206D01*
X102780559Y-105922077D02*
X105478457Y-105922077D01*
X105478457Y-105922077D02*
X105999158Y-106442777D01*
X105999158Y-106442777D02*
X107764457Y-106442777D01*
X107764457Y-106442777D02*
X108932857Y-107611177D01*
X108932857Y-107611177D02*
X113898558Y-107611177D01*
X115423557Y-109136177D02*
X134967857Y-109136176D01*
X113898558Y-107611177D02*
X115423557Y-109136177D01*
X145318358Y-98225876D02*
X145394557Y-98149677D01*
X135501258Y-98225877D02*
X145318358Y-98225876D01*
X141178157Y-62830977D02*
X143705457Y-62830977D01*
X145915257Y-60621177D02*
X147413858Y-60621176D01*
X143705457Y-62830977D02*
X145915257Y-60621177D01*
X141165457Y-62843676D02*
X141178157Y-62830977D01*
X139933557Y-62843677D02*
X141165457Y-62843676D01*
X86593557Y-95152477D02*
X85797158Y-95152477D01*
X85797158Y-95152477D02*
X83793857Y-93149177D01*
X80643858Y-93149176D02*
X80603857Y-93189176D01*
X83793857Y-93149177D02*
X80643858Y-93149176D01*
X78398153Y-101589177D02*
X79453384Y-102644408D01*
X77023858Y-101589177D02*
X78398153Y-101589177D01*
X80513858Y-99019176D02*
X79253857Y-97759177D01*
X81143857Y-99019177D02*
X80513858Y-99019176D01*
%TO.N,B+*%
X142321157Y-58805077D02*
X143857857Y-58805076D01*
X144581757Y-58081177D02*
X147413857Y-58081177D01*
X143857857Y-58805076D02*
X144581757Y-58081177D01*
X100931857Y-50969177D02*
X101795457Y-51832777D01*
X101795457Y-51832777D02*
X102582857Y-51832776D01*
X102582857Y-51832776D02*
X106062657Y-55312577D01*
X106062657Y-55312577D02*
X106062657Y-55972977D01*
X106062657Y-55972977D02*
X111142657Y-61052976D01*
X111142657Y-61052976D02*
X117721258Y-61052977D01*
X117721258Y-61052977D02*
X120464458Y-63796177D01*
X120464458Y-63796177D02*
X122877457Y-63796176D01*
X122877457Y-63796176D02*
X123715658Y-62957976D01*
X123715658Y-62957976D02*
X125138057Y-62957976D01*
X125138057Y-62957976D02*
X128744858Y-59351177D01*
X128744858Y-59351177D02*
X138727057Y-59351177D01*
X139273157Y-58805076D02*
X142321157Y-58805077D01*
X138727057Y-59351177D02*
X139273157Y-58805076D01*
%TD*%
M02*
