%TF.GenerationSoftware,KiCad,Pcbnew,(5.1.10)-1*%
%TF.CreationDate,2021-12-17T13:55:30-08:00*%
%TF.ProjectId,barobord,6261726f-626f-4726-942e-6b696361645f,rev?*%
%TF.SameCoordinates,Original*%
%TF.FileFunction,Soldermask,Bot*%
%TF.FilePolarity,Negative*%
%FSLAX46Y46*%
G04 Gerber Fmt 4.6, Leading zero omitted, Abs format (unit mm)*
G04 Created by KiCad (PCBNEW (5.1.10)-1) date 2021-12-17 13:55:30*
%MOMM*%
%LPD*%
G01*
G04 APERTURE LIST*
%ADD10C,3.500000*%
%ADD11C,0.100000*%
%ADD12C,1.701800*%
%ADD13C,3.987800*%
%ADD14C,3.000000*%
%ADD15C,1.752600*%
%ADD16R,1.752600X1.752600*%
%ADD17O,2.000000X3.000000*%
%ADD18O,1.524000X1.524000*%
%ADD19C,1.524000*%
%ADD20R,2.000000X2.000000*%
%ADD21C,2.000000*%
%ADD22O,1.600000X2.000000*%
%ADD23R,1.200000X0.900000*%
%ADD24O,3.800000X3.300000*%
%ADD25R,1.800000X1.100000*%
G04 APERTURE END LIST*
%TO.C,J2*%
G36*
G01*
X79457720Y-101984403D02*
X79956190Y-102216843D01*
G75*
G02*
X80246404Y-103014199I-253571J-543785D01*
G01*
X80246404Y-103014199D01*
G75*
G02*
X79449048Y-103304413I-543785J253571D01*
G01*
X78950578Y-103071973D01*
G75*
G02*
X78660364Y-102274617I253571J543785D01*
G01*
X78660364Y-102274617D01*
G75*
G02*
X79457720Y-101984403I543785J-253571D01*
G01*
G37*
G36*
G01*
X80302956Y-100171788D02*
X80801426Y-100404228D01*
G75*
G02*
X81091640Y-101201584I-253571J-543785D01*
G01*
X81091640Y-101201584D01*
G75*
G02*
X80294284Y-101491798I-543785J253571D01*
G01*
X79795814Y-101259358D01*
G75*
G02*
X79505600Y-100462002I253571J543785D01*
G01*
X79505600Y-100462002D01*
G75*
G02*
X80302956Y-100171788I543785J-253571D01*
G01*
G37*
G36*
G01*
X80830985Y-98211256D02*
X81963871Y-98739529D01*
G75*
G02*
X82084793Y-99071759I-105654J-226576D01*
G01*
X81788959Y-99706176D01*
G75*
G02*
X81456729Y-99827098I-226576J105654D01*
G01*
X80323843Y-99298825D01*
G75*
G02*
X80202921Y-98966595I105654J226576D01*
G01*
X80498755Y-98332178D01*
G75*
G02*
X80830985Y-98211256I226576J-105654D01*
G01*
G37*
%TD*%
D10*
%TO.C,*%
X192791479Y-117611033D03*
%TD*%
D11*
%TO.C,SW29*%
G36*
X231858424Y-66883004D02*
G01*
X232914970Y-69148773D01*
X231283616Y-69909486D01*
X230227070Y-67643717D01*
X231858424Y-66883004D01*
G37*
D12*
X228576198Y-66990174D03*
X219368110Y-71283976D03*
D13*
X223972154Y-69137075D03*
D14*
X228498637Y-69828921D03*
X223817033Y-74814569D03*
D11*
G36*
X221045649Y-74727664D02*
G01*
X222102194Y-76993433D01*
X219791109Y-78071110D01*
X218734564Y-75805341D01*
X221045649Y-74727664D01*
G37*
%TD*%
D10*
%TO.C,*%
X234594728Y-68006174D03*
%TD*%
D11*
%TO.C,SW9*%
G36*
X215798930Y-32443310D02*
G01*
X216855476Y-34709079D01*
X215224122Y-35469792D01*
X214167576Y-33204023D01*
X215798930Y-32443310D01*
G37*
D12*
X212516704Y-32550480D03*
X203308616Y-36844282D03*
D13*
X207912660Y-34697381D03*
D14*
X212439143Y-35389227D03*
X207757539Y-40374875D03*
D11*
G36*
X204986155Y-40287970D02*
G01*
X206042700Y-42553739D01*
X203731615Y-43631416D01*
X202675070Y-41365647D01*
X204986155Y-40287970D01*
G37*
%TD*%
D10*
%TO.C,*%
X218595235Y-33406481D03*
%TD*%
%TO.C,*%
X172389411Y-70812237D03*
%TD*%
%TO.C,*%
X161398014Y-152209572D03*
%TD*%
%TO.C,*%
X116994514Y-152609572D03*
%TD*%
%TO.C,*%
X87391049Y-116011033D03*
%TD*%
%TO.C,*%
X107593118Y-70212237D03*
%TD*%
%TO.C,*%
X42597800Y-74806174D03*
%TD*%
%TO.C,*%
X59397294Y-39606481D03*
%TD*%
%TO.C,SW46*%
G36*
G01*
X112935695Y-44171767D02*
X113485099Y-42993567D01*
G75*
G02*
X114946918Y-42461508I996939J-464880D01*
G01*
X114946918Y-42461508D01*
G75*
G02*
X115478977Y-43923327I-464880J-996939D01*
G01*
X114929573Y-45101527D01*
G75*
G02*
X113467754Y-45633586I-996939J464880D01*
G01*
X113467754Y-45633586D01*
G75*
G02*
X112935695Y-44171767I464880J996939D01*
G01*
G37*
G36*
G01*
X105503971Y-40706298D02*
X106053375Y-39528098D01*
G75*
G02*
X107515194Y-38996039I996939J-464880D01*
G01*
X107515194Y-38996039D01*
G75*
G02*
X108047253Y-40457858I-464880J-996939D01*
G01*
X107497849Y-41636058D01*
G75*
G02*
X106036030Y-42168117I-996939J464880D01*
G01*
X106036030Y-42168117D01*
G75*
G02*
X105503971Y-40706298I464880J996939D01*
G01*
G37*
G36*
G01*
X111413049Y-43296239D02*
X111835667Y-42389931D01*
G75*
G02*
X112832362Y-42027164I679731J-316964D01*
G01*
X112832362Y-42027164D01*
G75*
G02*
X113195129Y-43023859I-316964J-679731D01*
G01*
X112772511Y-43930167D01*
G75*
G02*
X111775816Y-44292934I-679731J316964D01*
G01*
X111775816Y-44292934D01*
G75*
G02*
X111413049Y-43296239I316964J679731D01*
G01*
G37*
G36*
G01*
X109600434Y-42451003D02*
X110023052Y-41544695D01*
G75*
G02*
X111019747Y-41181928I679731J-316964D01*
G01*
X111019747Y-41181928D01*
G75*
G02*
X111382514Y-42178623I-316964J-679731D01*
G01*
X110959896Y-43084931D01*
G75*
G02*
X109963201Y-43447698I-679731J316964D01*
G01*
X109963201Y-43447698D01*
G75*
G02*
X109600434Y-42451003I316964J679731D01*
G01*
G37*
D11*
G36*
X107470854Y-42285497D02*
G01*
X108527400Y-40019728D01*
X109886862Y-40653655D01*
X108830316Y-42919424D01*
X107470854Y-42285497D01*
G37*
%TD*%
%TO.C,D56*%
G36*
G01*
X114828037Y-72564683D02*
X113526579Y-71957803D01*
G75*
G02*
X113486917Y-71848831I34655J74317D01*
G01*
X113764155Y-71254293D01*
G75*
G02*
X113873127Y-71214631I74317J-34655D01*
G01*
X115174585Y-71821511D01*
G75*
G02*
X115214247Y-71930483I-34655J-74317D01*
G01*
X114937009Y-72525021D01*
G75*
G02*
X114828037Y-72564683I-74317J34655D01*
G01*
G37*
G36*
G01*
X114194109Y-73924145D02*
X112892651Y-73317265D01*
G75*
G02*
X112852989Y-73208293I34655J74317D01*
G01*
X113130227Y-72613755D01*
G75*
G02*
X113239199Y-72574093I74317J-34655D01*
G01*
X114540657Y-73180973D01*
G75*
G02*
X114580319Y-73289945I-34655J-74317D01*
G01*
X114303081Y-73884483D01*
G75*
G02*
X114194109Y-73924145I-74317J34655D01*
G01*
G37*
G36*
G01*
X119540837Y-74762298D02*
X118239379Y-74155418D01*
G75*
G02*
X118199717Y-74046446I34655J74317D01*
G01*
X118476955Y-73451908D01*
G75*
G02*
X118585927Y-73412246I74317J-34655D01*
G01*
X119887385Y-74019126D01*
G75*
G02*
X119927047Y-74128098I-34655J-74317D01*
G01*
X119649809Y-74722636D01*
G75*
G02*
X119540837Y-74762298I-74317J34655D01*
G01*
G37*
G36*
G01*
X118906910Y-76121760D02*
X117605452Y-75514880D01*
G75*
G02*
X117565790Y-75405908I34655J74317D01*
G01*
X117843028Y-74811370D01*
G75*
G02*
X117952000Y-74771708I74317J-34655D01*
G01*
X119253458Y-75378588D01*
G75*
G02*
X119293120Y-75487560I-34655J-74317D01*
G01*
X119015882Y-76082098D01*
G75*
G02*
X118906910Y-76121760I-74317J34655D01*
G01*
G37*
%TD*%
D15*
%TO.C,U2*%
X132173857Y-58081176D03*
X132173857Y-60621176D03*
X132173857Y-63161176D03*
X132173857Y-65701176D03*
X132173857Y-68241176D03*
X132173857Y-70781176D03*
X132173857Y-73321176D03*
X132173857Y-75861176D03*
X132173857Y-78401176D03*
X132173857Y-80941176D03*
X132173857Y-83481176D03*
X147413857Y-86021176D03*
X147413857Y-83481176D03*
X147413857Y-80941176D03*
X147413857Y-78401176D03*
X147413857Y-75861176D03*
X147413857Y-73321176D03*
X147413857Y-70781176D03*
X147413857Y-68241176D03*
X147413857Y-65701176D03*
X147413857Y-63161176D03*
X147413857Y-60621176D03*
X132173857Y-86021176D03*
X147413857Y-58081176D03*
X134713857Y-80941176D03*
X137253857Y-80941176D03*
X139793857Y-80941176D03*
%TD*%
%TO.C,U1*%
X134713857Y-86021176D03*
X137253857Y-86021176D03*
X139793857Y-86021176D03*
X142333857Y-86021176D03*
X144873857Y-86021176D03*
X147413857Y-58081176D03*
X132402457Y-86021176D03*
X147413857Y-60621176D03*
X147413857Y-63161176D03*
X147413857Y-65701176D03*
X147413857Y-68241176D03*
X147413857Y-70781176D03*
X147413857Y-73321176D03*
X147413857Y-75861176D03*
X147413857Y-78401176D03*
X147413857Y-80941176D03*
X147413857Y-83481176D03*
X147413857Y-86021176D03*
X132173857Y-83481176D03*
X132173857Y-80941176D03*
X132173857Y-78401176D03*
X132173857Y-75861176D03*
X132173857Y-73321176D03*
X132173857Y-70781176D03*
X132173857Y-68241176D03*
X132173857Y-65701176D03*
X132173857Y-63161176D03*
X132173857Y-60621176D03*
D16*
X132173857Y-58081176D03*
%TD*%
%TO.C,D59*%
G36*
G01*
X95434722Y-120991758D02*
X94258420Y-120168102D01*
G75*
G02*
X94238283Y-120053899I47033J67170D01*
G01*
X94614549Y-119516535D01*
G75*
G02*
X94728752Y-119496398I67170J-47033D01*
G01*
X95905054Y-120320054D01*
G75*
G02*
X95925191Y-120434257I-47033J-67170D01*
G01*
X95548925Y-120971621D01*
G75*
G02*
X95434722Y-120991758I-67170J47033D01*
G01*
G37*
G36*
G01*
X94574357Y-122220486D02*
X93398055Y-121396830D01*
G75*
G02*
X93377918Y-121282627I47033J67170D01*
G01*
X93754184Y-120745263D01*
G75*
G02*
X93868387Y-120725126I67170J-47033D01*
G01*
X95044689Y-121548782D01*
G75*
G02*
X95064826Y-121662985I-47033J-67170D01*
G01*
X94688560Y-122200349D01*
G75*
G02*
X94574357Y-122220486I-67170J47033D01*
G01*
G37*
G36*
G01*
X99694312Y-123974355D02*
X98518010Y-123150699D01*
G75*
G02*
X98497873Y-123036496I47033J67170D01*
G01*
X98874139Y-122499132D01*
G75*
G02*
X98988342Y-122478995I67170J-47033D01*
G01*
X100164644Y-123302651D01*
G75*
G02*
X100184781Y-123416854I-47033J-67170D01*
G01*
X99808515Y-123954218D01*
G75*
G02*
X99694312Y-123974355I-67170J47033D01*
G01*
G37*
G36*
G01*
X98833948Y-125203083D02*
X97657646Y-124379427D01*
G75*
G02*
X97637509Y-124265224I47033J67170D01*
G01*
X98013775Y-123727860D01*
G75*
G02*
X98127978Y-123707723I67170J-47033D01*
G01*
X99304280Y-124531379D01*
G75*
G02*
X99324417Y-124645582I-47033J-67170D01*
G01*
X98948151Y-125182946D01*
G75*
G02*
X98833948Y-125203083I-67170J47033D01*
G01*
G37*
%TD*%
D17*
%TO.C,SW45*%
X155463857Y-124659177D03*
X152923857Y-124659177D03*
X150383857Y-124659177D03*
X147843857Y-124659177D03*
D18*
X144843857Y-124309177D03*
D19*
X144843857Y-126309177D03*
%TD*%
D20*
%TO.C,SW43*%
X144293857Y-116309177D03*
D21*
X144293857Y-118809177D03*
X144293857Y-121309177D03*
X158793857Y-116309177D03*
X158793857Y-121309177D03*
%TD*%
D20*
%TO.C,SW42*%
X135293857Y-121309176D03*
D21*
X135293857Y-118809176D03*
X135293857Y-116309176D03*
X120793857Y-121309176D03*
X120793857Y-116309176D03*
%TD*%
D17*
%TO.C,SW44*%
X131863858Y-124659177D03*
X129323858Y-124659177D03*
X126783858Y-124659177D03*
X124243858Y-124659177D03*
D18*
X121243858Y-124309177D03*
D19*
X121243858Y-126309177D03*
%TD*%
D22*
%TO.C,Brd1*%
X141273858Y-153009176D03*
X143813858Y-153009176D03*
X138733858Y-153009176D03*
X136193858Y-153009176D03*
%TD*%
D23*
%TO.C,D82*%
X161593857Y-121959176D03*
X161593857Y-125259176D03*
%TD*%
%TO.C,D81*%
X117393857Y-121959176D03*
X117393857Y-125259176D03*
%TD*%
D24*
%TO.C,J1*%
X134293857Y-129409177D03*
X145293857Y-129409177D03*
X145293857Y-149009177D03*
X134293857Y-149009177D03*
G36*
G01*
X127069857Y-133704177D02*
X127069857Y-134554177D01*
G75*
G02*
X126644857Y-134979177I-425000J0D01*
G01*
X125294857Y-134979177D01*
G75*
G02*
X124869857Y-134554177I0J425000D01*
G01*
X124869857Y-133704177D01*
G75*
G02*
X125294857Y-133279177I425000J0D01*
G01*
X126644857Y-133279177D01*
G75*
G02*
X127069857Y-133704177I0J-425000D01*
G01*
G37*
G36*
G01*
X126644857Y-137519177D02*
X125294857Y-137519177D01*
G75*
G02*
X124869857Y-137094177I0J425000D01*
G01*
X124869857Y-136244177D01*
G75*
G02*
X125294857Y-135819177I425000J0D01*
G01*
X126644857Y-135819177D01*
G75*
G02*
X127069857Y-136244177I0J-425000D01*
G01*
X127069857Y-137094177D01*
G75*
G02*
X126644857Y-137519177I-425000J0D01*
G01*
G37*
G36*
G01*
X126644857Y-140059177D02*
X125294857Y-140059177D01*
G75*
G02*
X124869857Y-139634177I0J425000D01*
G01*
X124869857Y-138784177D01*
G75*
G02*
X125294857Y-138359177I425000J0D01*
G01*
X126644857Y-138359177D01*
G75*
G02*
X127069857Y-138784177I0J-425000D01*
G01*
X127069857Y-139634177D01*
G75*
G02*
X126644857Y-140059177I-425000J0D01*
G01*
G37*
G36*
G01*
X126644857Y-142599177D02*
X125294857Y-142599177D01*
G75*
G02*
X124869857Y-142174177I0J425000D01*
G01*
X124869857Y-141324177D01*
G75*
G02*
X125294857Y-140899177I425000J0D01*
G01*
X126644857Y-140899177D01*
G75*
G02*
X127069857Y-141324177I0J-425000D01*
G01*
X127069857Y-142174177D01*
G75*
G02*
X126644857Y-142599177I-425000J0D01*
G01*
G37*
G36*
G01*
X126644857Y-145139177D02*
X125294857Y-145139177D01*
G75*
G02*
X124869857Y-144714177I0J425000D01*
G01*
X124869857Y-143864177D01*
G75*
G02*
X125294857Y-143439177I425000J0D01*
G01*
X126644857Y-143439177D01*
G75*
G02*
X127069857Y-143864177I0J-425000D01*
G01*
X127069857Y-144714177D01*
G75*
G02*
X126644857Y-145139177I-425000J0D01*
G01*
G37*
%TD*%
%TO.C,D57*%
G36*
G01*
X106798290Y-89784530D02*
X105496832Y-89177650D01*
G75*
G02*
X105457170Y-89068678I34655J74317D01*
G01*
X105734408Y-88474140D01*
G75*
G02*
X105843380Y-88434478I74317J-34655D01*
G01*
X107144838Y-89041358D01*
G75*
G02*
X107184500Y-89150330I-34655J-74317D01*
G01*
X106907262Y-89744868D01*
G75*
G02*
X106798290Y-89784530I-74317J34655D01*
G01*
G37*
G36*
G01*
X106164362Y-91143992D02*
X104862904Y-90537112D01*
G75*
G02*
X104823242Y-90428140I34655J74317D01*
G01*
X105100480Y-89833602D01*
G75*
G02*
X105209452Y-89793940I74317J-34655D01*
G01*
X106510910Y-90400820D01*
G75*
G02*
X106550572Y-90509792I-34655J-74317D01*
G01*
X106273334Y-91104330D01*
G75*
G02*
X106164362Y-91143992I-74317J34655D01*
G01*
G37*
G36*
G01*
X111511090Y-91982145D02*
X110209632Y-91375265D01*
G75*
G02*
X110169970Y-91266293I34655J74317D01*
G01*
X110447208Y-90671755D01*
G75*
G02*
X110556180Y-90632093I74317J-34655D01*
G01*
X111857638Y-91238973D01*
G75*
G02*
X111897300Y-91347945I-34655J-74317D01*
G01*
X111620062Y-91942483D01*
G75*
G02*
X111511090Y-91982145I-74317J34655D01*
G01*
G37*
G36*
G01*
X110877163Y-93341607D02*
X109575705Y-92734727D01*
G75*
G02*
X109536043Y-92625755I34655J74317D01*
G01*
X109813281Y-92031217D01*
G75*
G02*
X109922253Y-91991555I74317J-34655D01*
G01*
X111223711Y-92598435D01*
G75*
G02*
X111263373Y-92707407I-34655J-74317D01*
G01*
X110986135Y-93301945D01*
G75*
G02*
X110877163Y-93341607I-74317J34655D01*
G01*
G37*
%TD*%
%TO.C,D45*%
G36*
G01*
X56195294Y-63429520D02*
X54893836Y-62822640D01*
G75*
G02*
X54854174Y-62713668I34655J74317D01*
G01*
X55131412Y-62119130D01*
G75*
G02*
X55240384Y-62079468I74317J-34655D01*
G01*
X56541842Y-62686348D01*
G75*
G02*
X56581504Y-62795320I-34655J-74317D01*
G01*
X56304266Y-63389858D01*
G75*
G02*
X56195294Y-63429520I-74317J34655D01*
G01*
G37*
G36*
G01*
X55561366Y-64788982D02*
X54259908Y-64182102D01*
G75*
G02*
X54220246Y-64073130I34655J74317D01*
G01*
X54497484Y-63478592D01*
G75*
G02*
X54606456Y-63438930I74317J-34655D01*
G01*
X55907914Y-64045810D01*
G75*
G02*
X55947576Y-64154782I-34655J-74317D01*
G01*
X55670338Y-64749320D01*
G75*
G02*
X55561366Y-64788982I-74317J34655D01*
G01*
G37*
G36*
G01*
X60908094Y-65627135D02*
X59606636Y-65020255D01*
G75*
G02*
X59566974Y-64911283I34655J74317D01*
G01*
X59844212Y-64316745D01*
G75*
G02*
X59953184Y-64277083I74317J-34655D01*
G01*
X61254642Y-64883963D01*
G75*
G02*
X61294304Y-64992935I-34655J-74317D01*
G01*
X61017066Y-65587473D01*
G75*
G02*
X60908094Y-65627135I-74317J34655D01*
G01*
G37*
G36*
G01*
X60274167Y-66986597D02*
X58972709Y-66379717D01*
G75*
G02*
X58933047Y-66270745I34655J74317D01*
G01*
X59210285Y-65676207D01*
G75*
G02*
X59319257Y-65636545I74317J-34655D01*
G01*
X60620715Y-66243425D01*
G75*
G02*
X60660377Y-66352397I-34655J-74317D01*
G01*
X60383139Y-66946935D01*
G75*
G02*
X60274167Y-66986597I-74317J34655D01*
G01*
G37*
%TD*%
%TO.C,D65*%
G36*
G01*
X161343151Y-74155418D02*
X160041693Y-74762298D01*
G75*
G02*
X159932721Y-74722636I-34655J74317D01*
G01*
X159655483Y-74128098D01*
G75*
G02*
X159695145Y-74019126I74317J34655D01*
G01*
X160996603Y-73412246D01*
G75*
G02*
X161105575Y-73451908I34655J-74317D01*
G01*
X161382813Y-74046446D01*
G75*
G02*
X161343151Y-74155418I-74317J-34655D01*
G01*
G37*
G36*
G01*
X161977078Y-75514880D02*
X160675620Y-76121760D01*
G75*
G02*
X160566648Y-76082098I-34655J74317D01*
G01*
X160289410Y-75487560D01*
G75*
G02*
X160329072Y-75378588I74317J34655D01*
G01*
X161630530Y-74771708D01*
G75*
G02*
X161739502Y-74811370I34655J-74317D01*
G01*
X162016740Y-75405908D01*
G75*
G02*
X161977078Y-75514880I-74317J-34655D01*
G01*
G37*
G36*
G01*
X166055951Y-71957803D02*
X164754493Y-72564683D01*
G75*
G02*
X164645521Y-72525021I-34655J74317D01*
G01*
X164368283Y-71930483D01*
G75*
G02*
X164407945Y-71821511I74317J34655D01*
G01*
X165709403Y-71214631D01*
G75*
G02*
X165818375Y-71254293I34655J-74317D01*
G01*
X166095613Y-71848831D01*
G75*
G02*
X166055951Y-71957803I-74317J-34655D01*
G01*
G37*
G36*
G01*
X166689879Y-73317265D02*
X165388421Y-73924145D01*
G75*
G02*
X165279449Y-73884483I-34655J74317D01*
G01*
X165002211Y-73289945D01*
G75*
G02*
X165041873Y-73180973I74317J34655D01*
G01*
X166343331Y-72574093D01*
G75*
G02*
X166452303Y-72613755I34655J-74317D01*
G01*
X166729541Y-73208293D01*
G75*
G02*
X166689879Y-73317265I-74317J-34655D01*
G01*
G37*
%TD*%
%TO.C,D53*%
G36*
G01*
X98664735Y-62269166D02*
X97363277Y-61662286D01*
G75*
G02*
X97323615Y-61553314I34655J74317D01*
G01*
X97600853Y-60958776D01*
G75*
G02*
X97709825Y-60919114I74317J-34655D01*
G01*
X99011283Y-61525994D01*
G75*
G02*
X99050945Y-61634966I-34655J-74317D01*
G01*
X98773707Y-62229504D01*
G75*
G02*
X98664735Y-62269166I-74317J34655D01*
G01*
G37*
G36*
G01*
X98030807Y-63628628D02*
X96729349Y-63021748D01*
G75*
G02*
X96689687Y-62912776I34655J74317D01*
G01*
X96966925Y-62318238D01*
G75*
G02*
X97075897Y-62278576I74317J-34655D01*
G01*
X98377355Y-62885456D01*
G75*
G02*
X98417017Y-62994428I-34655J-74317D01*
G01*
X98139779Y-63588966D01*
G75*
G02*
X98030807Y-63628628I-74317J34655D01*
G01*
G37*
G36*
G01*
X103377535Y-64466781D02*
X102076077Y-63859901D01*
G75*
G02*
X102036415Y-63750929I34655J74317D01*
G01*
X102313653Y-63156391D01*
G75*
G02*
X102422625Y-63116729I74317J-34655D01*
G01*
X103724083Y-63723609D01*
G75*
G02*
X103763745Y-63832581I-34655J-74317D01*
G01*
X103486507Y-64427119D01*
G75*
G02*
X103377535Y-64466781I-74317J34655D01*
G01*
G37*
G36*
G01*
X102743608Y-65826243D02*
X101442150Y-65219363D01*
G75*
G02*
X101402488Y-65110391I34655J74317D01*
G01*
X101679726Y-64515853D01*
G75*
G02*
X101788698Y-64476191I74317J-34655D01*
G01*
X103090156Y-65083071D01*
G75*
G02*
X103129818Y-65192043I-34655J-74317D01*
G01*
X102852580Y-65786581D01*
G75*
G02*
X102743608Y-65826243I-74317J34655D01*
G01*
G37*
%TD*%
%TO.C,D52*%
G36*
G01*
X90634988Y-79489014D02*
X89333530Y-78882134D01*
G75*
G02*
X89293868Y-78773162I34655J74317D01*
G01*
X89571106Y-78178624D01*
G75*
G02*
X89680078Y-78138962I74317J-34655D01*
G01*
X90981536Y-78745842D01*
G75*
G02*
X91021198Y-78854814I-34655J-74317D01*
G01*
X90743960Y-79449352D01*
G75*
G02*
X90634988Y-79489014I-74317J34655D01*
G01*
G37*
G36*
G01*
X90001060Y-80848476D02*
X88699602Y-80241596D01*
G75*
G02*
X88659940Y-80132624I34655J74317D01*
G01*
X88937178Y-79538086D01*
G75*
G02*
X89046150Y-79498424I74317J-34655D01*
G01*
X90347608Y-80105304D01*
G75*
G02*
X90387270Y-80214276I-34655J-74317D01*
G01*
X90110032Y-80808814D01*
G75*
G02*
X90001060Y-80848476I-74317J34655D01*
G01*
G37*
G36*
G01*
X95347788Y-81686629D02*
X94046330Y-81079749D01*
G75*
G02*
X94006668Y-80970777I34655J74317D01*
G01*
X94283906Y-80376239D01*
G75*
G02*
X94392878Y-80336577I74317J-34655D01*
G01*
X95694336Y-80943457D01*
G75*
G02*
X95733998Y-81052429I-34655J-74317D01*
G01*
X95456760Y-81646967D01*
G75*
G02*
X95347788Y-81686629I-74317J34655D01*
G01*
G37*
G36*
G01*
X94713861Y-83046091D02*
X93412403Y-82439211D01*
G75*
G02*
X93372741Y-82330239I34655J74317D01*
G01*
X93649979Y-81735701D01*
G75*
G02*
X93758951Y-81696039I74317J-34655D01*
G01*
X95060409Y-82302919D01*
G75*
G02*
X95100071Y-82411891I-34655J-74317D01*
G01*
X94822833Y-83006429D01*
G75*
G02*
X94713861Y-83046091I-74317J34655D01*
G01*
G37*
%TD*%
%TO.C,D54*%
G36*
G01*
X106694482Y-45049319D02*
X105393024Y-44442439D01*
G75*
G02*
X105353362Y-44333467I34655J74317D01*
G01*
X105630600Y-43738929D01*
G75*
G02*
X105739572Y-43699267I74317J-34655D01*
G01*
X107041030Y-44306147D01*
G75*
G02*
X107080692Y-44415119I-34655J-74317D01*
G01*
X106803454Y-45009657D01*
G75*
G02*
X106694482Y-45049319I-74317J34655D01*
G01*
G37*
G36*
G01*
X106060554Y-46408781D02*
X104759096Y-45801901D01*
G75*
G02*
X104719434Y-45692929I34655J74317D01*
G01*
X104996672Y-45098391D01*
G75*
G02*
X105105644Y-45058729I74317J-34655D01*
G01*
X106407102Y-45665609D01*
G75*
G02*
X106446764Y-45774581I-34655J-74317D01*
G01*
X106169526Y-46369119D01*
G75*
G02*
X106060554Y-46408781I-74317J34655D01*
G01*
G37*
G36*
G01*
X111407282Y-47246934D02*
X110105824Y-46640054D01*
G75*
G02*
X110066162Y-46531082I34655J74317D01*
G01*
X110343400Y-45936544D01*
G75*
G02*
X110452372Y-45896882I74317J-34655D01*
G01*
X111753830Y-46503762D01*
G75*
G02*
X111793492Y-46612734I-34655J-74317D01*
G01*
X111516254Y-47207272D01*
G75*
G02*
X111407282Y-47246934I-74317J34655D01*
G01*
G37*
G36*
G01*
X110773355Y-48606396D02*
X109471897Y-47999516D01*
G75*
G02*
X109432235Y-47890544I34655J74317D01*
G01*
X109709473Y-47296006D01*
G75*
G02*
X109818445Y-47256344I74317J-34655D01*
G01*
X111119903Y-47863224D01*
G75*
G02*
X111159565Y-47972196I-34655J-74317D01*
G01*
X110882327Y-48566734D01*
G75*
G02*
X110773355Y-48606396I-74317J34655D01*
G01*
G37*
%TD*%
D11*
%TO.C,SW24*%
G36*
X97512120Y-90099539D02*
G01*
X96455575Y-92365308D01*
X94144490Y-91287631D01*
X95201035Y-89021862D01*
X97512120Y-90099539D01*
G37*
D12*
X94654113Y-87343470D03*
X85446025Y-83049668D03*
D13*
X90050069Y-85196569D03*
D14*
X92429651Y-89108766D03*
X85601146Y-88727162D03*
D11*
G36*
X83886307Y-86548298D02*
G01*
X82829762Y-88814067D01*
X80518677Y-87736390D01*
X81575222Y-85470621D01*
X83886307Y-86548298D01*
G37*
%TD*%
%TO.C,SW4*%
G36*
X113571614Y-55659844D02*
G01*
X112515069Y-57925613D01*
X110203984Y-56847936D01*
X111260529Y-54582167D01*
X113571614Y-55659844D01*
G37*
D12*
X110713607Y-52903775D03*
X101505519Y-48609973D03*
D13*
X106109563Y-50756874D03*
D14*
X108489145Y-54669071D03*
X101660640Y-54287467D03*
D11*
G36*
X99945801Y-52108603D02*
G01*
X98889256Y-54374372D01*
X96578171Y-53296695D01*
X97634716Y-51030926D01*
X99945801Y-52108603D01*
G37*
%TD*%
%TO.C,SW14*%
G36*
X105541867Y-72879691D02*
G01*
X104485322Y-75145460D01*
X102174237Y-74067783D01*
X103230782Y-71802014D01*
X105541867Y-72879691D01*
G37*
D12*
X102683860Y-70123622D03*
X93475772Y-65829820D03*
D13*
X98079816Y-67976721D03*
D14*
X100459398Y-71888918D03*
X93630893Y-71507314D03*
D11*
G36*
X91916054Y-69328450D02*
G01*
X90859509Y-71594219D01*
X88548424Y-70516542D01*
X89604969Y-68250773D01*
X91916054Y-69328450D01*
G37*
%TD*%
%TO.C,SW34*%
G36*
X100364876Y-132635286D02*
G01*
X98930935Y-134683166D01*
X96842098Y-133220546D01*
X98276039Y-131172666D01*
X100364876Y-132635286D01*
G37*
D12*
X98028874Y-129424800D03*
X89706290Y-123597264D03*
D13*
X93867582Y-126511032D03*
D14*
X95531667Y-130777004D03*
X88873168Y-129215440D03*
D11*
G36*
X87562736Y-126771899D02*
G01*
X86128795Y-128819779D01*
X84039958Y-127357159D01*
X85473899Y-125309279D01*
X87562736Y-126771899D01*
G37*
%TD*%
%TO.C,SW7*%
G36*
X182025372Y-48192179D02*
G01*
X183081917Y-50457948D01*
X180770832Y-51535625D01*
X179714287Y-49269856D01*
X182025372Y-48192179D01*
G37*
D12*
X178077009Y-48609973D03*
X168868921Y-52903775D03*
D13*
X173472965Y-50756874D03*
D14*
X177999448Y-51448720D03*
X173317844Y-56434368D03*
D11*
G36*
X170546460Y-56347463D02*
G01*
X171603005Y-58613232D01*
X169291920Y-59690909D01*
X168235375Y-57425140D01*
X170546460Y-56347463D01*
G37*
%TD*%
%TO.C,SW40*%
G36*
X240554307Y-83792227D02*
G01*
X241610852Y-86057996D01*
X239299767Y-87135673D01*
X238243222Y-84869904D01*
X240554307Y-83792227D01*
G37*
D12*
X236605944Y-84210021D03*
X227397856Y-88503823D03*
D13*
X232001900Y-86356922D03*
D14*
X236528383Y-87048768D03*
X231846779Y-92034416D03*
D11*
G36*
X229075395Y-91947511D02*
G01*
X230131940Y-94213280D01*
X227820855Y-95290957D01*
X226764310Y-93025188D01*
X229075395Y-91947511D01*
G37*
%TD*%
%TO.C,SW39*%
G36*
X221221370Y-87290434D02*
G01*
X222277915Y-89556203D01*
X219966830Y-90633880D01*
X218910285Y-88368111D01*
X221221370Y-87290434D01*
G37*
D12*
X217273007Y-87708228D03*
X208064919Y-92002030D03*
D13*
X212668963Y-89855129D03*
D14*
X217195446Y-90546975D03*
X212513842Y-95532623D03*
D11*
G36*
X209742458Y-95445718D02*
G01*
X210799003Y-97711487D01*
X208487918Y-98789164D01*
X207431373Y-96523395D01*
X209742458Y-95445718D01*
G37*
%TD*%
%TO.C,SW38*%
G36*
X212453886Y-113446337D02*
G01*
X213510431Y-115712106D01*
X211199346Y-116789783D01*
X210142801Y-114524014D01*
X212453886Y-113446337D01*
G37*
D12*
X208505523Y-113864131D03*
X199297435Y-118157933D03*
D13*
X203901479Y-116011032D03*
D14*
X208427962Y-116702878D03*
X203746358Y-121688526D03*
D11*
G36*
X200974974Y-121601621D02*
G01*
X202031519Y-123867390D01*
X199720434Y-124945067D01*
X198663889Y-122679298D01*
X200974974Y-121601621D01*
G37*
%TD*%
%TO.C,SW37*%
G36*
X193692068Y-122500189D02*
G01*
X195126009Y-124548069D01*
X193037172Y-126010689D01*
X191603231Y-123962809D01*
X193692068Y-122500189D01*
G37*
D12*
X189876238Y-123597263D03*
X181553654Y-129424799D03*
D13*
X185714946Y-126511031D03*
D14*
X190292799Y-126406351D03*
X186548068Y-132129208D03*
D11*
G36*
X183803696Y-132524869D02*
G01*
X185237637Y-134572749D01*
X183148800Y-136035369D01*
X181714859Y-133987489D01*
X183803696Y-132524869D01*
G37*
%TD*%
%TO.C,SW36*%
G36*
X176787471Y-134674450D02*
G01*
X178555238Y-136442217D01*
X176752115Y-138245340D01*
X174984348Y-136477573D01*
X176787471Y-134674450D01*
G37*
D12*
X173220117Y-136417469D03*
X166035913Y-143601673D03*
D13*
X169628015Y-140009571D03*
D14*
X174118143Y-139111545D03*
X171424066Y-145397725D03*
D11*
G36*
X168790094Y-146263930D02*
G01*
X170557861Y-148031697D01*
X168754738Y-149834820D01*
X166986971Y-148067053D01*
X168790094Y-146263930D01*
G37*
%TD*%
%TO.C,SW35*%
G36*
X115289635Y-147169027D02*
G01*
X113521868Y-148936794D01*
X111718745Y-147133671D01*
X113486512Y-145365904D01*
X115289635Y-147169027D01*
G37*
D12*
X113546616Y-143601673D03*
X106362412Y-136417469D03*
D13*
X109954514Y-140009571D03*
D14*
X110852540Y-144499699D03*
X104566360Y-141805622D03*
D11*
G36*
X103700155Y-139171650D02*
G01*
X101932388Y-140939417D01*
X100129265Y-139136294D01*
X101897032Y-137368527D01*
X103700155Y-139171650D01*
G37*
%TD*%
%TO.C,SW33*%
G36*
X83143100Y-120914003D02*
G01*
X82086555Y-123179772D01*
X79775470Y-122102095D01*
X80832015Y-119836326D01*
X83143100Y-120914003D01*
G37*
D12*
X80285093Y-118157934D03*
X71077005Y-113864132D03*
D13*
X75681049Y-116011033D03*
D14*
X78060631Y-119923230D03*
X71232126Y-119541626D03*
D11*
G36*
X69517287Y-117362762D02*
G01*
X68460742Y-119628531D01*
X66149657Y-118550854D01*
X67206202Y-116285085D01*
X69517287Y-117362762D01*
G37*
%TD*%
%TO.C,SW32*%
G36*
X74375617Y-94758100D02*
G01*
X73319072Y-97023869D01*
X71007987Y-95946192D01*
X72064532Y-93680423D01*
X74375617Y-94758100D01*
G37*
D12*
X71517610Y-92002031D03*
X62309522Y-87708229D03*
D13*
X66913566Y-89855130D03*
D14*
X69293148Y-93767327D03*
X62464643Y-93385723D03*
D11*
G36*
X60749804Y-91206859D02*
G01*
X59693259Y-93472628D01*
X57382174Y-92394951D01*
X58438719Y-90129182D01*
X60749804Y-91206859D01*
G37*
%TD*%
%TO.C,SW31*%
G36*
X55042680Y-91259892D02*
G01*
X53986135Y-93525661D01*
X51675050Y-92447984D01*
X52731595Y-90182215D01*
X55042680Y-91259892D01*
G37*
D12*
X52184673Y-88503823D03*
X42976585Y-84210021D03*
D13*
X47580629Y-86356922D03*
D14*
X49960211Y-90269119D03*
X43131706Y-89887515D03*
D11*
G36*
X41416867Y-87708651D02*
G01*
X40360322Y-89974420D01*
X38049237Y-88896743D01*
X39105782Y-86630974D01*
X41416867Y-87708651D01*
G37*
%TD*%
%TO.C,SW30*%
G36*
X255027135Y-69871479D02*
G01*
X256083680Y-72137248D01*
X253772595Y-73214925D01*
X252716050Y-70949156D01*
X255027135Y-69871479D01*
G37*
D12*
X251078772Y-70289273D03*
X241870684Y-74583075D03*
D13*
X246474728Y-72436174D03*
D14*
X251001211Y-73128020D03*
X246319607Y-78113668D03*
D11*
G36*
X243548223Y-78026763D02*
G01*
X244604768Y-80292532D01*
X242293683Y-81370209D01*
X241237138Y-79104440D01*
X243548223Y-78026763D01*
G37*
%TD*%
%TO.C,SW28*%
G36*
X213191622Y-70070588D02*
G01*
X214248167Y-72336357D01*
X211937082Y-73414034D01*
X210880537Y-71148265D01*
X213191622Y-70070588D01*
G37*
D12*
X209243259Y-70488382D03*
X200035171Y-74782184D03*
D13*
X204639215Y-72635283D03*
D14*
X209165698Y-73327129D03*
X204484094Y-78312777D03*
D11*
G36*
X201712710Y-78225872D02*
G01*
X202769255Y-80491641D01*
X200458170Y-81569318D01*
X199401625Y-79303549D01*
X201712710Y-78225872D01*
G37*
%TD*%
%TO.C,SW27*%
G36*
X198084866Y-82631873D02*
G01*
X199141411Y-84897642D01*
X196830326Y-85975319D01*
X195773781Y-83709550D01*
X198084866Y-82631873D01*
G37*
D12*
X194136503Y-83049667D03*
X184928415Y-87343469D03*
D13*
X189532459Y-85196568D03*
D14*
X194058942Y-85888414D03*
X189377338Y-90874062D03*
D11*
G36*
X186605954Y-90787157D02*
G01*
X187662499Y-93052926D01*
X185351414Y-94130603D01*
X184294869Y-91864834D01*
X186605954Y-90787157D01*
G37*
%TD*%
%TO.C,SW26*%
G36*
X181921564Y-92927390D02*
G01*
X182978109Y-95193159D01*
X180667024Y-96270836D01*
X179610479Y-94005067D01*
X181921564Y-92927390D01*
G37*
D12*
X177973201Y-93345184D03*
X168765113Y-97638986D03*
D13*
X173369157Y-95492085D03*
D14*
X177895640Y-96183931D03*
X173214036Y-101169579D03*
D11*
G36*
X170442652Y-101082674D02*
G01*
X171499197Y-103348443D01*
X169188112Y-104426120D01*
X168131567Y-102160351D01*
X170442652Y-101082674D01*
G37*
%TD*%
%TO.C,SW25*%
G36*
X113675422Y-100395055D02*
G01*
X112618877Y-102660824D01*
X110307792Y-101583147D01*
X111364337Y-99317378D01*
X113675422Y-100395055D01*
G37*
D12*
X110817415Y-97638986D03*
X101609327Y-93345184D03*
D13*
X106213371Y-95492085D03*
D14*
X108592953Y-99404282D03*
X101764448Y-99022678D03*
D11*
G36*
X100049609Y-96843814D02*
G01*
X98993064Y-99109583D01*
X96681979Y-98031906D01*
X97738524Y-95766137D01*
X100049609Y-96843814D01*
G37*
%TD*%
%TO.C,SW23*%
G36*
X82405364Y-77538252D02*
G01*
X81348819Y-79804021D01*
X79037734Y-78726344D01*
X80094279Y-76460575D01*
X82405364Y-77538252D01*
G37*
D12*
X79547357Y-74782183D03*
X70339269Y-70488381D03*
D13*
X74943313Y-72635282D03*
D14*
X77322895Y-76547479D03*
X70494390Y-76165875D03*
D11*
G36*
X68779551Y-73987011D02*
G01*
X67723006Y-76252780D01*
X65411921Y-75175103D01*
X66468466Y-72909334D01*
X68779551Y-73987011D01*
G37*
%TD*%
%TO.C,SW22*%
G36*
X63072426Y-74040045D02*
G01*
X62015881Y-76305814D01*
X59704796Y-75228137D01*
X60761341Y-72962368D01*
X63072426Y-74040045D01*
G37*
D12*
X60214419Y-71283976D03*
X51006331Y-66990174D03*
D13*
X55610375Y-69137075D03*
D14*
X57989957Y-73049272D03*
X51161452Y-72667668D03*
D11*
G36*
X49446613Y-70488804D02*
G01*
X48390068Y-72754573D01*
X46078983Y-71676896D01*
X47135528Y-69411127D01*
X49446613Y-70488804D01*
G37*
%TD*%
%TO.C,SW21*%
G36*
X40569851Y-77339144D02*
G01*
X39513306Y-79604913D01*
X37202221Y-78527236D01*
X38258766Y-76261467D01*
X40569851Y-77339144D01*
G37*
D12*
X37711844Y-74583075D03*
X28503756Y-70289273D03*
D13*
X33107800Y-72436174D03*
D14*
X35487382Y-76348371D03*
X28658877Y-75966767D03*
D11*
G36*
X26944038Y-73787903D02*
G01*
X25887493Y-76053672D01*
X23576408Y-74975995D01*
X24632953Y-72710226D01*
X26944038Y-73787903D01*
G37*
%TD*%
%TO.C,SW20*%
G36*
X246997388Y-52651632D02*
G01*
X248053933Y-54917401D01*
X245742848Y-55995078D01*
X244686303Y-53729309D01*
X246997388Y-52651632D01*
G37*
D12*
X243049025Y-53069426D03*
X233840937Y-57363228D03*
D13*
X238444981Y-55216327D03*
D14*
X242971464Y-55908173D03*
X238289860Y-60893821D03*
D11*
G36*
X235518476Y-60806916D02*
G01*
X236575021Y-63072685D01*
X234263936Y-64150362D01*
X233207391Y-61884593D01*
X235518476Y-60806916D01*
G37*
%TD*%
%TO.C,SW19*%
G36*
X224494814Y-49352533D02*
G01*
X225551359Y-51618302D01*
X223240274Y-52695979D01*
X222183729Y-50430210D01*
X224494814Y-49352533D01*
G37*
D12*
X220546451Y-49770327D03*
X211338363Y-54064129D03*
D13*
X215942407Y-51917228D03*
D14*
X220468890Y-52609074D03*
X215787286Y-57594722D03*
D11*
G36*
X213015902Y-57507817D02*
G01*
X214072447Y-59773586D01*
X211761362Y-60851263D01*
X210704817Y-58585494D01*
X213015902Y-57507817D01*
G37*
%TD*%
%TO.C,SW18*%
G36*
X205161875Y-52850741D02*
G01*
X206218420Y-55116510D01*
X203907335Y-56194187D01*
X202850790Y-53928418D01*
X205161875Y-52850741D01*
G37*
D12*
X201213512Y-53268535D03*
X192005424Y-57562337D03*
D13*
X196609468Y-55415436D03*
D14*
X201135951Y-56107282D03*
X196454347Y-61092930D03*
D11*
G36*
X193682963Y-61006025D02*
G01*
X194739508Y-63271794D01*
X192428423Y-64349471D01*
X191371878Y-62083702D01*
X193682963Y-61006025D01*
G37*
%TD*%
%TO.C,SW17*%
G36*
X190055120Y-65412025D02*
G01*
X191111665Y-67677794D01*
X188800580Y-68755471D01*
X187744035Y-66489702D01*
X190055120Y-65412025D01*
G37*
D12*
X186106757Y-65829819D03*
X176898669Y-70123621D03*
D13*
X181502713Y-67976720D03*
D14*
X186029196Y-68668566D03*
X181347592Y-73654214D03*
D11*
G36*
X178576208Y-73567309D02*
G01*
X179632753Y-75833078D01*
X177321668Y-76910755D01*
X176265123Y-74644986D01*
X178576208Y-73567309D01*
G37*
%TD*%
%TO.C,SW16*%
G36*
X173891819Y-75707543D02*
G01*
X174948364Y-77973312D01*
X172637279Y-79050989D01*
X171580734Y-76785220D01*
X173891819Y-75707543D01*
G37*
D12*
X169943456Y-76125337D03*
X160735368Y-80419139D03*
D13*
X165339412Y-78272238D03*
D14*
X169865895Y-78964084D03*
X165184291Y-83949732D03*
D11*
G36*
X162412907Y-83862827D02*
G01*
X163469452Y-86128596D01*
X161158367Y-87206273D01*
X160101822Y-84940504D01*
X162412907Y-83862827D01*
G37*
%TD*%
%TO.C,SW15*%
G36*
X121705169Y-83175208D02*
G01*
X120648624Y-85440977D01*
X118337539Y-84363300D01*
X119394084Y-82097531D01*
X121705169Y-83175208D01*
G37*
D12*
X118847162Y-80419139D03*
X109639074Y-76125337D03*
D13*
X114243118Y-78272238D03*
D14*
X116622700Y-82184435D03*
X109794195Y-81802831D03*
D11*
G36*
X108079356Y-79623967D02*
G01*
X107022811Y-81889736D01*
X104711726Y-80812059D01*
X105768271Y-78546290D01*
X108079356Y-79623967D01*
G37*
%TD*%
%TO.C,SW13*%
G36*
X90435111Y-60318405D02*
G01*
X89378566Y-62584174D01*
X87067481Y-61506497D01*
X88124026Y-59240728D01*
X90435111Y-60318405D01*
G37*
D12*
X87577104Y-57562336D03*
X78369016Y-53268534D03*
D13*
X82973060Y-55415435D03*
D14*
X85352642Y-59327632D03*
X78524137Y-58946028D03*
D11*
G36*
X76809298Y-56767164D02*
G01*
X75752753Y-59032933D01*
X73441668Y-57955256D01*
X74498213Y-55689487D01*
X76809298Y-56767164D01*
G37*
%TD*%
%TO.C,SW12*%
G36*
X71102174Y-56820198D02*
G01*
X70045629Y-59085967D01*
X67734544Y-58008290D01*
X68791089Y-55742521D01*
X71102174Y-56820198D01*
G37*
D12*
X68244167Y-54064129D03*
X59036079Y-49770327D03*
D13*
X63640123Y-51917228D03*
D14*
X66019705Y-55829425D03*
X59191200Y-55447821D03*
D11*
G36*
X57476361Y-53268957D02*
G01*
X56419816Y-55534726D01*
X54108731Y-54457049D01*
X55165276Y-52191280D01*
X57476361Y-53268957D01*
G37*
%TD*%
%TO.C,SW11*%
G36*
X48599599Y-60119298D02*
G01*
X47543054Y-62385067D01*
X45231969Y-61307390D01*
X46288514Y-59041621D01*
X48599599Y-60119298D01*
G37*
D12*
X45741592Y-57363229D03*
X36533504Y-53069427D03*
D13*
X41137548Y-55216328D03*
D14*
X43517130Y-59128525D03*
X36688625Y-58746921D03*
D11*
G36*
X34973786Y-56568057D02*
G01*
X33917241Y-58833826D01*
X31606156Y-57756149D01*
X32662701Y-55490380D01*
X34973786Y-56568057D01*
G37*
%TD*%
%TO.C,SW10*%
G36*
X238967641Y-35431785D02*
G01*
X240024186Y-37697554D01*
X237713101Y-38775231D01*
X236656556Y-36509462D01*
X238967641Y-35431785D01*
G37*
D12*
X235019278Y-35849579D03*
X225811190Y-40143381D03*
D13*
X230415234Y-37996480D03*
D14*
X234941717Y-38688326D03*
X230260113Y-43673974D03*
D11*
G36*
X227488729Y-43587069D02*
G01*
X228545274Y-45852838D01*
X226234189Y-46930515D01*
X225177644Y-44664746D01*
X227488729Y-43587069D01*
G37*
%TD*%
%TO.C,SW8*%
G36*
X197132129Y-35630893D02*
G01*
X198188674Y-37896662D01*
X195877589Y-38974339D01*
X194821044Y-36708570D01*
X197132129Y-35630893D01*
G37*
D12*
X193183766Y-36048687D03*
X183975678Y-40342489D03*
D13*
X188579722Y-38195588D03*
D14*
X193106205Y-38887434D03*
X188424601Y-43873082D03*
D11*
G36*
X185653217Y-43786177D02*
G01*
X186709762Y-46051946D01*
X184398677Y-47129623D01*
X183342132Y-44863854D01*
X185653217Y-43786177D01*
G37*
%TD*%
%TO.C,SW6*%
G36*
X165862072Y-58487696D02*
G01*
X166918617Y-60753465D01*
X164607532Y-61831142D01*
X163550987Y-59565373D01*
X165862072Y-58487696D01*
G37*
D12*
X161913709Y-58905490D03*
X152705621Y-63199292D03*
D13*
X157309665Y-61052391D03*
D14*
X161836148Y-61744237D03*
X157154544Y-66729885D03*
D11*
G36*
X154383160Y-66642980D02*
G01*
X155439705Y-68908749D01*
X153128620Y-69986426D01*
X152072075Y-67720657D01*
X154383160Y-66642980D01*
G37*
%TD*%
%TO.C,SW5*%
G36*
X129734915Y-65955361D02*
G01*
X128678370Y-68221130D01*
X126367285Y-67143453D01*
X127423830Y-64877684D01*
X129734915Y-65955361D01*
G37*
D12*
X126876908Y-63199292D03*
X117668820Y-58905490D03*
D13*
X122272864Y-61052391D03*
D14*
X124652446Y-64964588D03*
X117823941Y-64582984D03*
D11*
G36*
X116109102Y-62404120D02*
G01*
X115052557Y-64669889D01*
X112741472Y-63592212D01*
X113798017Y-61326443D01*
X116109102Y-62404120D01*
G37*
%TD*%
%TO.C,SW3*%
G36*
X98464858Y-43098559D02*
G01*
X97408313Y-45364328D01*
X95097228Y-44286651D01*
X96153773Y-42020882D01*
X98464858Y-43098559D01*
G37*
D12*
X95606851Y-40342490D03*
X86398763Y-36048688D03*
D13*
X91002807Y-38195589D03*
D14*
X93382389Y-42107786D03*
X86553884Y-41726182D03*
D11*
G36*
X84839045Y-39547318D02*
G01*
X83782500Y-41813087D01*
X81471415Y-40735410D01*
X82527960Y-38469641D01*
X84839045Y-39547318D01*
G37*
%TD*%
%TO.C,SW2*%
G36*
X79131920Y-39600351D02*
G01*
X78075375Y-41866120D01*
X75764290Y-40788443D01*
X76820835Y-38522674D01*
X79131920Y-39600351D01*
G37*
D12*
X76273913Y-36844282D03*
X67065825Y-32550480D03*
D13*
X71669869Y-34697381D03*
D14*
X74049451Y-38609578D03*
X67220946Y-38227974D03*
D11*
G36*
X65506107Y-36049110D02*
G01*
X64449562Y-38314879D01*
X62138477Y-37237202D01*
X63195022Y-34971433D01*
X65506107Y-36049110D01*
G37*
%TD*%
%TO.C,SW1*%
G36*
X56629345Y-42899451D02*
G01*
X55572800Y-45165220D01*
X53261715Y-44087543D01*
X54318260Y-41821774D01*
X56629345Y-42899451D01*
G37*
D12*
X53771338Y-40143382D03*
X44563250Y-35849580D03*
D13*
X49167294Y-37996481D03*
D14*
X51546876Y-41908678D03*
X44718371Y-41527074D03*
D11*
G36*
X43003532Y-39348210D02*
G01*
X41946987Y-41613979D01*
X39635902Y-40536302D01*
X40692447Y-38270533D01*
X43003532Y-39348210D01*
G37*
%TD*%
D25*
%TO.C,SW41*%
X149698015Y-150359572D03*
X155898015Y-154059572D03*
X149698015Y-154059572D03*
X155898015Y-150359572D03*
%TD*%
%TO.C,R4*%
G36*
G01*
X155548013Y-146809572D02*
X156448017Y-146809572D01*
G75*
G02*
X156698015Y-147059570I0J-249998D01*
G01*
X156698015Y-147584574D01*
G75*
G02*
X156448017Y-147834572I-249998J0D01*
G01*
X155548013Y-147834572D01*
G75*
G02*
X155298015Y-147584574I0J249998D01*
G01*
X155298015Y-147059570D01*
G75*
G02*
X155548013Y-146809572I249998J0D01*
G01*
G37*
G36*
G01*
X155548013Y-144984572D02*
X156448017Y-144984572D01*
G75*
G02*
X156698015Y-145234570I0J-249998D01*
G01*
X156698015Y-145759574D01*
G75*
G02*
X156448017Y-146009572I-249998J0D01*
G01*
X155548013Y-146009572D01*
G75*
G02*
X155298015Y-145759574I0J249998D01*
G01*
X155298015Y-145234570D01*
G75*
G02*
X155548013Y-144984572I249998J0D01*
G01*
G37*
%TD*%
%TO.C,D77*%
G36*
G01*
X228005639Y-82240102D02*
X226704181Y-82846982D01*
G75*
G02*
X226595209Y-82807320I-34655J74317D01*
G01*
X226317971Y-82212782D01*
G75*
G02*
X226357633Y-82103810I74317J34655D01*
G01*
X227659091Y-81496930D01*
G75*
G02*
X227768063Y-81536592I34655J-74317D01*
G01*
X228045301Y-82131130D01*
G75*
G02*
X228005639Y-82240102I-74317J-34655D01*
G01*
G37*
G36*
G01*
X228639566Y-83599564D02*
X227338108Y-84206444D01*
G75*
G02*
X227229136Y-84166782I-34655J74317D01*
G01*
X226951898Y-83572244D01*
G75*
G02*
X226991560Y-83463272I74317J34655D01*
G01*
X228293018Y-82856392D01*
G75*
G02*
X228401990Y-82896054I34655J-74317D01*
G01*
X228679228Y-83490592D01*
G75*
G02*
X228639566Y-83599564I-74317J-34655D01*
G01*
G37*
G36*
G01*
X232718439Y-80042487D02*
X231416981Y-80649367D01*
G75*
G02*
X231308009Y-80609705I-34655J74317D01*
G01*
X231030771Y-80015167D01*
G75*
G02*
X231070433Y-79906195I74317J34655D01*
G01*
X232371891Y-79299315D01*
G75*
G02*
X232480863Y-79338977I34655J-74317D01*
G01*
X232758101Y-79933515D01*
G75*
G02*
X232718439Y-80042487I-74317J-34655D01*
G01*
G37*
G36*
G01*
X233352367Y-81401949D02*
X232050909Y-82008829D01*
G75*
G02*
X231941937Y-81969167I-34655J74317D01*
G01*
X231664699Y-81374629D01*
G75*
G02*
X231704361Y-81265657I74317J34655D01*
G01*
X233005819Y-80658777D01*
G75*
G02*
X233114791Y-80698439I34655J-74317D01*
G01*
X233392029Y-81292977D01*
G75*
G02*
X233352367Y-81401949I-74317J-34655D01*
G01*
G37*
%TD*%
%TO.C,D70*%
G36*
G01*
X208672702Y-85738309D02*
X207371244Y-86345189D01*
G75*
G02*
X207262272Y-86305527I-34655J74317D01*
G01*
X206985034Y-85710989D01*
G75*
G02*
X207024696Y-85602017I74317J34655D01*
G01*
X208326154Y-84995137D01*
G75*
G02*
X208435126Y-85034799I34655J-74317D01*
G01*
X208712364Y-85629337D01*
G75*
G02*
X208672702Y-85738309I-74317J-34655D01*
G01*
G37*
G36*
G01*
X209306629Y-87097771D02*
X208005171Y-87704651D01*
G75*
G02*
X207896199Y-87664989I-34655J74317D01*
G01*
X207618961Y-87070451D01*
G75*
G02*
X207658623Y-86961479I74317J34655D01*
G01*
X208960081Y-86354599D01*
G75*
G02*
X209069053Y-86394261I34655J-74317D01*
G01*
X209346291Y-86988799D01*
G75*
G02*
X209306629Y-87097771I-74317J-34655D01*
G01*
G37*
G36*
G01*
X213385502Y-83540694D02*
X212084044Y-84147574D01*
G75*
G02*
X211975072Y-84107912I-34655J74317D01*
G01*
X211697834Y-83513374D01*
G75*
G02*
X211737496Y-83404402I74317J34655D01*
G01*
X213038954Y-82797522D01*
G75*
G02*
X213147926Y-82837184I34655J-74317D01*
G01*
X213425164Y-83431722D01*
G75*
G02*
X213385502Y-83540694I-74317J-34655D01*
G01*
G37*
G36*
G01*
X214019430Y-84900156D02*
X212717972Y-85507036D01*
G75*
G02*
X212609000Y-85467374I-34655J74317D01*
G01*
X212331762Y-84872836D01*
G75*
G02*
X212371424Y-84763864I74317J34655D01*
G01*
X213672882Y-84156984D01*
G75*
G02*
X213781854Y-84196646I34655J-74317D01*
G01*
X214059092Y-84791184D01*
G75*
G02*
X214019430Y-84900156I-74317J-34655D01*
G01*
G37*
%TD*%
%TO.C,D63*%
G36*
G01*
X199905218Y-111894212D02*
X198603760Y-112501092D01*
G75*
G02*
X198494788Y-112461430I-34655J74317D01*
G01*
X198217550Y-111866892D01*
G75*
G02*
X198257212Y-111757920I74317J34655D01*
G01*
X199558670Y-111151040D01*
G75*
G02*
X199667642Y-111190702I34655J-74317D01*
G01*
X199944880Y-111785240D01*
G75*
G02*
X199905218Y-111894212I-74317J-34655D01*
G01*
G37*
G36*
G01*
X200539145Y-113253674D02*
X199237687Y-113860554D01*
G75*
G02*
X199128715Y-113820892I-34655J74317D01*
G01*
X198851477Y-113226354D01*
G75*
G02*
X198891139Y-113117382I74317J34655D01*
G01*
X200192597Y-112510502D01*
G75*
G02*
X200301569Y-112550164I34655J-74317D01*
G01*
X200578807Y-113144702D01*
G75*
G02*
X200539145Y-113253674I-74317J-34655D01*
G01*
G37*
G36*
G01*
X204618018Y-109696597D02*
X203316560Y-110303477D01*
G75*
G02*
X203207588Y-110263815I-34655J74317D01*
G01*
X202930350Y-109669277D01*
G75*
G02*
X202970012Y-109560305I74317J34655D01*
G01*
X204271470Y-108953425D01*
G75*
G02*
X204380442Y-108993087I34655J-74317D01*
G01*
X204657680Y-109587625D01*
G75*
G02*
X204618018Y-109696597I-74317J-34655D01*
G01*
G37*
G36*
G01*
X205251946Y-111056059D02*
X203950488Y-111662939D01*
G75*
G02*
X203841516Y-111623277I-34655J74317D01*
G01*
X203564278Y-111028739D01*
G75*
G02*
X203603940Y-110919767I74317J34655D01*
G01*
X204905398Y-110312887D01*
G75*
G02*
X205014370Y-110352549I34655J-74317D01*
G01*
X205291608Y-110947087D01*
G75*
G02*
X205251946Y-111056059I-74317J-34655D01*
G01*
G37*
%TD*%
%TO.C,D62*%
G36*
G01*
X181064518Y-123150698D02*
X179888216Y-123974354D01*
G75*
G02*
X179774013Y-123954217I-47033J67170D01*
G01*
X179397747Y-123416853D01*
G75*
G02*
X179417884Y-123302650I67170J47033D01*
G01*
X180594186Y-122478994D01*
G75*
G02*
X180708389Y-122499131I47033J-67170D01*
G01*
X181084655Y-123036495D01*
G75*
G02*
X181064518Y-123150698I-67170J-47033D01*
G01*
G37*
G36*
G01*
X181924882Y-124379426D02*
X180748580Y-125203082D01*
G75*
G02*
X180634377Y-125182945I-47033J67170D01*
G01*
X180258111Y-124645581D01*
G75*
G02*
X180278248Y-124531378I67170J47033D01*
G01*
X181454550Y-123707722D01*
G75*
G02*
X181568753Y-123727859I47033J-67170D01*
G01*
X181945019Y-124265223D01*
G75*
G02*
X181924882Y-124379426I-67170J-47033D01*
G01*
G37*
G36*
G01*
X185324108Y-120168101D02*
X184147806Y-120991757D01*
G75*
G02*
X184033603Y-120971620I-47033J67170D01*
G01*
X183657337Y-120434256D01*
G75*
G02*
X183677474Y-120320053I67170J47033D01*
G01*
X184853776Y-119496397D01*
G75*
G02*
X184967979Y-119516534I47033J-67170D01*
G01*
X185344245Y-120053898D01*
G75*
G02*
X185324108Y-120168101I-67170J-47033D01*
G01*
G37*
G36*
G01*
X186184473Y-121396829D02*
X185008171Y-122220485D01*
G75*
G02*
X184893968Y-122200348I-47033J67170D01*
G01*
X184517702Y-121662984D01*
G75*
G02*
X184537839Y-121548781I67170J47033D01*
G01*
X185714141Y-120725125D01*
G75*
G02*
X185828344Y-120745262I47033J-67170D01*
G01*
X186204610Y-121282626D01*
G75*
G02*
X186184473Y-121396829I-67170J-47033D01*
G01*
G37*
%TD*%
%TO.C,D61*%
G36*
G01*
X164464723Y-137507828D02*
X163449317Y-138523234D01*
G75*
G02*
X163333351Y-138523234I-57983J57983D01*
G01*
X162869489Y-138059372D01*
G75*
G02*
X162869489Y-137943406I57983J57983D01*
G01*
X163884895Y-136928000D01*
G75*
G02*
X164000861Y-136928000I57983J-57983D01*
G01*
X164464723Y-137391862D01*
G75*
G02*
X164464723Y-137507828I-57983J-57983D01*
G01*
G37*
G36*
G01*
X165525383Y-138568488D02*
X164509977Y-139583894D01*
G75*
G02*
X164394011Y-139583894I-57983J57983D01*
G01*
X163930149Y-139120032D01*
G75*
G02*
X163930149Y-139004066I57983J57983D01*
G01*
X164945555Y-137988660D01*
G75*
G02*
X165061521Y-137988660I57983J-57983D01*
G01*
X165525383Y-138452522D01*
G75*
G02*
X165525383Y-138568488I-57983J-57983D01*
G01*
G37*
G36*
G01*
X168141678Y-133830873D02*
X167126272Y-134846279D01*
G75*
G02*
X167010306Y-134846279I-57983J57983D01*
G01*
X166546444Y-134382417D01*
G75*
G02*
X166546444Y-134266451I57983J57983D01*
G01*
X167561850Y-133251045D01*
G75*
G02*
X167677816Y-133251045I57983J-57983D01*
G01*
X168141678Y-133714907D01*
G75*
G02*
X168141678Y-133830873I-57983J-57983D01*
G01*
G37*
G36*
G01*
X169202338Y-134891533D02*
X168186932Y-135906939D01*
G75*
G02*
X168070966Y-135906939I-57983J57983D01*
G01*
X167607104Y-135443077D01*
G75*
G02*
X167607104Y-135327111I57983J57983D01*
G01*
X168622510Y-134311705D01*
G75*
G02*
X168738476Y-134311705I57983J-57983D01*
G01*
X169202338Y-134775567D01*
G75*
G02*
X169202338Y-134891533I-57983J-57983D01*
G01*
G37*
%TD*%
%TO.C,D60*%
G36*
G01*
X112456257Y-134846279D02*
X111440851Y-133830873D01*
G75*
G02*
X111440851Y-133714907I57983J57983D01*
G01*
X111904713Y-133251045D01*
G75*
G02*
X112020679Y-133251045I57983J-57983D01*
G01*
X113036085Y-134266451D01*
G75*
G02*
X113036085Y-134382417I-57983J-57983D01*
G01*
X112572223Y-134846279D01*
G75*
G02*
X112456257Y-134846279I-57983J57983D01*
G01*
G37*
G36*
G01*
X111395597Y-135906939D02*
X110380191Y-134891533D01*
G75*
G02*
X110380191Y-134775567I57983J57983D01*
G01*
X110844053Y-134311705D01*
G75*
G02*
X110960019Y-134311705I57983J-57983D01*
G01*
X111975425Y-135327111D01*
G75*
G02*
X111975425Y-135443077I-57983J-57983D01*
G01*
X111511563Y-135906939D01*
G75*
G02*
X111395597Y-135906939I-57983J57983D01*
G01*
G37*
G36*
G01*
X116133212Y-138523234D02*
X115117806Y-137507828D01*
G75*
G02*
X115117806Y-137391862I57983J57983D01*
G01*
X115581668Y-136928000D01*
G75*
G02*
X115697634Y-136928000I57983J-57983D01*
G01*
X116713040Y-137943406D01*
G75*
G02*
X116713040Y-138059372I-57983J-57983D01*
G01*
X116249178Y-138523234D01*
G75*
G02*
X116133212Y-138523234I-57983J57983D01*
G01*
G37*
G36*
G01*
X115072552Y-139583894D02*
X114057146Y-138568488D01*
G75*
G02*
X114057146Y-138452522I57983J57983D01*
G01*
X114521008Y-137988660D01*
G75*
G02*
X114636974Y-137988660I57983J-57983D01*
G01*
X115652380Y-139004066D01*
G75*
G02*
X115652380Y-139120032I-57983J-57983D01*
G01*
X115188518Y-139583894D01*
G75*
G02*
X115072552Y-139583894I-57983J57983D01*
G01*
G37*
%TD*%
%TO.C,D58*%
G36*
G01*
X76265968Y-110303478D02*
X74964510Y-109696598D01*
G75*
G02*
X74924848Y-109587626I34655J74317D01*
G01*
X75202086Y-108993088D01*
G75*
G02*
X75311058Y-108953426I74317J-34655D01*
G01*
X76612516Y-109560306D01*
G75*
G02*
X76652178Y-109669278I-34655J-74317D01*
G01*
X76374940Y-110263816D01*
G75*
G02*
X76265968Y-110303478I-74317J34655D01*
G01*
G37*
G36*
G01*
X75632040Y-111662940D02*
X74330582Y-111056060D01*
G75*
G02*
X74290920Y-110947088I34655J74317D01*
G01*
X74568158Y-110352550D01*
G75*
G02*
X74677130Y-110312888I74317J-34655D01*
G01*
X75978588Y-110919768D01*
G75*
G02*
X76018250Y-111028740I-34655J-74317D01*
G01*
X75741012Y-111623278D01*
G75*
G02*
X75632040Y-111662940I-74317J34655D01*
G01*
G37*
G36*
G01*
X80978768Y-112501093D02*
X79677310Y-111894213D01*
G75*
G02*
X79637648Y-111785241I34655J74317D01*
G01*
X79914886Y-111190703D01*
G75*
G02*
X80023858Y-111151041I74317J-34655D01*
G01*
X81325316Y-111757921D01*
G75*
G02*
X81364978Y-111866893I-34655J-74317D01*
G01*
X81087740Y-112461431D01*
G75*
G02*
X80978768Y-112501093I-74317J34655D01*
G01*
G37*
G36*
G01*
X80344841Y-113860555D02*
X79043383Y-113253675D01*
G75*
G02*
X79003721Y-113144703I34655J74317D01*
G01*
X79280959Y-112550165D01*
G75*
G02*
X79389931Y-112510503I74317J-34655D01*
G01*
X80691389Y-113117383D01*
G75*
G02*
X80731051Y-113226355I-34655J-74317D01*
G01*
X80453813Y-113820893D01*
G75*
G02*
X80344841Y-113860555I-74317J34655D01*
G01*
G37*
%TD*%
%TO.C,D51*%
G36*
G01*
X67498485Y-84147575D02*
X66197027Y-83540695D01*
G75*
G02*
X66157365Y-83431723I34655J74317D01*
G01*
X66434603Y-82837185D01*
G75*
G02*
X66543575Y-82797523I74317J-34655D01*
G01*
X67845033Y-83404403D01*
G75*
G02*
X67884695Y-83513375I-34655J-74317D01*
G01*
X67607457Y-84107913D01*
G75*
G02*
X67498485Y-84147575I-74317J34655D01*
G01*
G37*
G36*
G01*
X66864557Y-85507037D02*
X65563099Y-84900157D01*
G75*
G02*
X65523437Y-84791185I34655J74317D01*
G01*
X65800675Y-84196647D01*
G75*
G02*
X65909647Y-84156985I74317J-34655D01*
G01*
X67211105Y-84763865D01*
G75*
G02*
X67250767Y-84872837I-34655J-74317D01*
G01*
X66973529Y-85467375D01*
G75*
G02*
X66864557Y-85507037I-74317J34655D01*
G01*
G37*
G36*
G01*
X72211285Y-86345190D02*
X70909827Y-85738310D01*
G75*
G02*
X70870165Y-85629338I34655J74317D01*
G01*
X71147403Y-85034800D01*
G75*
G02*
X71256375Y-84995138I74317J-34655D01*
G01*
X72557833Y-85602018D01*
G75*
G02*
X72597495Y-85710990I-34655J-74317D01*
G01*
X72320257Y-86305528D01*
G75*
G02*
X72211285Y-86345190I-74317J34655D01*
G01*
G37*
G36*
G01*
X71577358Y-87704652D02*
X70275900Y-87097772D01*
G75*
G02*
X70236238Y-86988800I34655J74317D01*
G01*
X70513476Y-86394262D01*
G75*
G02*
X70622448Y-86354600I74317J-34655D01*
G01*
X71923906Y-86961480D01*
G75*
G02*
X71963568Y-87070452I-34655J-74317D01*
G01*
X71686330Y-87664990D01*
G75*
G02*
X71577358Y-87704652I-74317J34655D01*
G01*
G37*
%TD*%
%TO.C,D44*%
G36*
G01*
X48165548Y-80649367D02*
X46864090Y-80042487D01*
G75*
G02*
X46824428Y-79933515I34655J74317D01*
G01*
X47101666Y-79338977D01*
G75*
G02*
X47210638Y-79299315I74317J-34655D01*
G01*
X48512096Y-79906195D01*
G75*
G02*
X48551758Y-80015167I-34655J-74317D01*
G01*
X48274520Y-80609705D01*
G75*
G02*
X48165548Y-80649367I-74317J34655D01*
G01*
G37*
G36*
G01*
X47531620Y-82008829D02*
X46230162Y-81401949D01*
G75*
G02*
X46190500Y-81292977I34655J74317D01*
G01*
X46467738Y-80698439D01*
G75*
G02*
X46576710Y-80658777I74317J-34655D01*
G01*
X47878168Y-81265657D01*
G75*
G02*
X47917830Y-81374629I-34655J-74317D01*
G01*
X47640592Y-81969167D01*
G75*
G02*
X47531620Y-82008829I-74317J34655D01*
G01*
G37*
G36*
G01*
X52878348Y-82846982D02*
X51576890Y-82240102D01*
G75*
G02*
X51537228Y-82131130I34655J74317D01*
G01*
X51814466Y-81536592D01*
G75*
G02*
X51923438Y-81496930I74317J-34655D01*
G01*
X53224896Y-82103810D01*
G75*
G02*
X53264558Y-82212782I-34655J-74317D01*
G01*
X52987320Y-82807320D01*
G75*
G02*
X52878348Y-82846982I-74317J34655D01*
G01*
G37*
G36*
G01*
X52244421Y-84206444D02*
X50942963Y-83599564D01*
G75*
G02*
X50903301Y-83490592I34655J74317D01*
G01*
X51180539Y-82896054D01*
G75*
G02*
X51289511Y-82856392I74317J-34655D01*
G01*
X52590969Y-83463272D01*
G75*
G02*
X52630631Y-83572244I-34655J-74317D01*
G01*
X52353393Y-84166782D01*
G75*
G02*
X52244421Y-84206444I-74317J34655D01*
G01*
G37*
%TD*%
%TO.C,D78*%
G36*
G01*
X242478467Y-68319354D02*
X241177009Y-68926234D01*
G75*
G02*
X241068037Y-68886572I-34655J74317D01*
G01*
X240790799Y-68292034D01*
G75*
G02*
X240830461Y-68183062I74317J34655D01*
G01*
X242131919Y-67576182D01*
G75*
G02*
X242240891Y-67615844I34655J-74317D01*
G01*
X242518129Y-68210382D01*
G75*
G02*
X242478467Y-68319354I-74317J-34655D01*
G01*
G37*
G36*
G01*
X243112394Y-69678816D02*
X241810936Y-70285696D01*
G75*
G02*
X241701964Y-70246034I-34655J74317D01*
G01*
X241424726Y-69651496D01*
G75*
G02*
X241464388Y-69542524I74317J34655D01*
G01*
X242765846Y-68935644D01*
G75*
G02*
X242874818Y-68975306I34655J-74317D01*
G01*
X243152056Y-69569844D01*
G75*
G02*
X243112394Y-69678816I-74317J-34655D01*
G01*
G37*
G36*
G01*
X247191267Y-66121739D02*
X245889809Y-66728619D01*
G75*
G02*
X245780837Y-66688957I-34655J74317D01*
G01*
X245503599Y-66094419D01*
G75*
G02*
X245543261Y-65985447I74317J34655D01*
G01*
X246844719Y-65378567D01*
G75*
G02*
X246953691Y-65418229I34655J-74317D01*
G01*
X247230929Y-66012767D01*
G75*
G02*
X247191267Y-66121739I-74317J-34655D01*
G01*
G37*
G36*
G01*
X247825195Y-67481201D02*
X246523737Y-68088081D01*
G75*
G02*
X246414765Y-68048419I-34655J74317D01*
G01*
X246137527Y-67453881D01*
G75*
G02*
X246177189Y-67344909I74317J34655D01*
G01*
X247478647Y-66738029D01*
G75*
G02*
X247587619Y-66777691I34655J-74317D01*
G01*
X247864857Y-67372229D01*
G75*
G02*
X247825195Y-67481201I-74317J-34655D01*
G01*
G37*
%TD*%
%TO.C,D76*%
G36*
G01*
X219975893Y-65020255D02*
X218674435Y-65627135D01*
G75*
G02*
X218565463Y-65587473I-34655J74317D01*
G01*
X218288225Y-64992935D01*
G75*
G02*
X218327887Y-64883963I74317J34655D01*
G01*
X219629345Y-64277083D01*
G75*
G02*
X219738317Y-64316745I34655J-74317D01*
G01*
X220015555Y-64911283D01*
G75*
G02*
X219975893Y-65020255I-74317J-34655D01*
G01*
G37*
G36*
G01*
X220609820Y-66379717D02*
X219308362Y-66986597D01*
G75*
G02*
X219199390Y-66946935I-34655J74317D01*
G01*
X218922152Y-66352397D01*
G75*
G02*
X218961814Y-66243425I74317J34655D01*
G01*
X220263272Y-65636545D01*
G75*
G02*
X220372244Y-65676207I34655J-74317D01*
G01*
X220649482Y-66270745D01*
G75*
G02*
X220609820Y-66379717I-74317J-34655D01*
G01*
G37*
G36*
G01*
X224688693Y-62822640D02*
X223387235Y-63429520D01*
G75*
G02*
X223278263Y-63389858I-34655J74317D01*
G01*
X223001025Y-62795320D01*
G75*
G02*
X223040687Y-62686348I74317J34655D01*
G01*
X224342145Y-62079468D01*
G75*
G02*
X224451117Y-62119130I34655J-74317D01*
G01*
X224728355Y-62713668D01*
G75*
G02*
X224688693Y-62822640I-74317J-34655D01*
G01*
G37*
G36*
G01*
X225322621Y-64182102D02*
X224021163Y-64788982D01*
G75*
G02*
X223912191Y-64749320I-34655J74317D01*
G01*
X223634953Y-64154782D01*
G75*
G02*
X223674615Y-64045810I74317J34655D01*
G01*
X224976073Y-63438930D01*
G75*
G02*
X225085045Y-63478592I34655J-74317D01*
G01*
X225362283Y-64073130D01*
G75*
G02*
X225322621Y-64182102I-74317J-34655D01*
G01*
G37*
%TD*%
%TO.C,D71*%
G36*
G01*
X200642954Y-68518463D02*
X199341496Y-69125343D01*
G75*
G02*
X199232524Y-69085681I-34655J74317D01*
G01*
X198955286Y-68491143D01*
G75*
G02*
X198994948Y-68382171I74317J34655D01*
G01*
X200296406Y-67775291D01*
G75*
G02*
X200405378Y-67814953I34655J-74317D01*
G01*
X200682616Y-68409491D01*
G75*
G02*
X200642954Y-68518463I-74317J-34655D01*
G01*
G37*
G36*
G01*
X201276881Y-69877925D02*
X199975423Y-70484805D01*
G75*
G02*
X199866451Y-70445143I-34655J74317D01*
G01*
X199589213Y-69850605D01*
G75*
G02*
X199628875Y-69741633I74317J34655D01*
G01*
X200930333Y-69134753D01*
G75*
G02*
X201039305Y-69174415I34655J-74317D01*
G01*
X201316543Y-69768953D01*
G75*
G02*
X201276881Y-69877925I-74317J-34655D01*
G01*
G37*
G36*
G01*
X205355754Y-66320848D02*
X204054296Y-66927728D01*
G75*
G02*
X203945324Y-66888066I-34655J74317D01*
G01*
X203668086Y-66293528D01*
G75*
G02*
X203707748Y-66184556I74317J34655D01*
G01*
X205009206Y-65577676D01*
G75*
G02*
X205118178Y-65617338I34655J-74317D01*
G01*
X205395416Y-66211876D01*
G75*
G02*
X205355754Y-66320848I-74317J-34655D01*
G01*
G37*
G36*
G01*
X205989682Y-67680310D02*
X204688224Y-68287190D01*
G75*
G02*
X204579252Y-68247528I-34655J74317D01*
G01*
X204302014Y-67652990D01*
G75*
G02*
X204341676Y-67544018I74317J34655D01*
G01*
X205643134Y-66937138D01*
G75*
G02*
X205752106Y-66976800I34655J-74317D01*
G01*
X206029344Y-67571338D01*
G75*
G02*
X205989682Y-67680310I-74317J-34655D01*
G01*
G37*
%TD*%
%TO.C,D69*%
G36*
G01*
X185536198Y-81079748D02*
X184234740Y-81686628D01*
G75*
G02*
X184125768Y-81646966I-34655J74317D01*
G01*
X183848530Y-81052428D01*
G75*
G02*
X183888192Y-80943456I74317J34655D01*
G01*
X185189650Y-80336576D01*
G75*
G02*
X185298622Y-80376238I34655J-74317D01*
G01*
X185575860Y-80970776D01*
G75*
G02*
X185536198Y-81079748I-74317J-34655D01*
G01*
G37*
G36*
G01*
X186170125Y-82439210D02*
X184868667Y-83046090D01*
G75*
G02*
X184759695Y-83006428I-34655J74317D01*
G01*
X184482457Y-82411890D01*
G75*
G02*
X184522119Y-82302918I74317J34655D01*
G01*
X185823577Y-81696038D01*
G75*
G02*
X185932549Y-81735700I34655J-74317D01*
G01*
X186209787Y-82330238D01*
G75*
G02*
X186170125Y-82439210I-74317J-34655D01*
G01*
G37*
G36*
G01*
X190248998Y-78882133D02*
X188947540Y-79489013D01*
G75*
G02*
X188838568Y-79449351I-34655J74317D01*
G01*
X188561330Y-78854813D01*
G75*
G02*
X188600992Y-78745841I74317J34655D01*
G01*
X189902450Y-78138961D01*
G75*
G02*
X190011422Y-78178623I34655J-74317D01*
G01*
X190288660Y-78773161D01*
G75*
G02*
X190248998Y-78882133I-74317J-34655D01*
G01*
G37*
G36*
G01*
X190882926Y-80241595D02*
X189581468Y-80848475D01*
G75*
G02*
X189472496Y-80808813I-34655J74317D01*
G01*
X189195258Y-80214275D01*
G75*
G02*
X189234920Y-80105303I74317J34655D01*
G01*
X190536378Y-79498423D01*
G75*
G02*
X190645350Y-79538085I34655J-74317D01*
G01*
X190922588Y-80132623D01*
G75*
G02*
X190882926Y-80241595I-74317J-34655D01*
G01*
G37*
%TD*%
%TO.C,D64*%
G36*
G01*
X169372896Y-91375265D02*
X168071438Y-91982145D01*
G75*
G02*
X167962466Y-91942483I-34655J74317D01*
G01*
X167685228Y-91347945D01*
G75*
G02*
X167724890Y-91238973I74317J34655D01*
G01*
X169026348Y-90632093D01*
G75*
G02*
X169135320Y-90671755I34655J-74317D01*
G01*
X169412558Y-91266293D01*
G75*
G02*
X169372896Y-91375265I-74317J-34655D01*
G01*
G37*
G36*
G01*
X170006823Y-92734727D02*
X168705365Y-93341607D01*
G75*
G02*
X168596393Y-93301945I-34655J74317D01*
G01*
X168319155Y-92707407D01*
G75*
G02*
X168358817Y-92598435I74317J34655D01*
G01*
X169660275Y-91991555D01*
G75*
G02*
X169769247Y-92031217I34655J-74317D01*
G01*
X170046485Y-92625755D01*
G75*
G02*
X170006823Y-92734727I-74317J-34655D01*
G01*
G37*
G36*
G01*
X174085696Y-89177650D02*
X172784238Y-89784530D01*
G75*
G02*
X172675266Y-89744868I-34655J74317D01*
G01*
X172398028Y-89150330D01*
G75*
G02*
X172437690Y-89041358I74317J34655D01*
G01*
X173739148Y-88434478D01*
G75*
G02*
X173848120Y-88474140I34655J-74317D01*
G01*
X174125358Y-89068678D01*
G75*
G02*
X174085696Y-89177650I-74317J-34655D01*
G01*
G37*
G36*
G01*
X174719624Y-90537112D02*
X173418166Y-91143992D01*
G75*
G02*
X173309194Y-91104330I-34655J74317D01*
G01*
X173031956Y-90509792D01*
G75*
G02*
X173071618Y-90400820I74317J34655D01*
G01*
X174373076Y-89793940D01*
G75*
G02*
X174482048Y-89833602I34655J-74317D01*
G01*
X174759286Y-90428140D01*
G75*
G02*
X174719624Y-90537112I-74317J-34655D01*
G01*
G37*
%TD*%
%TO.C,D50*%
G36*
G01*
X75528232Y-66927727D02*
X74226774Y-66320847D01*
G75*
G02*
X74187112Y-66211875I34655J74317D01*
G01*
X74464350Y-65617337D01*
G75*
G02*
X74573322Y-65577675I74317J-34655D01*
G01*
X75874780Y-66184555D01*
G75*
G02*
X75914442Y-66293527I-34655J-74317D01*
G01*
X75637204Y-66888065D01*
G75*
G02*
X75528232Y-66927727I-74317J34655D01*
G01*
G37*
G36*
G01*
X74894304Y-68287189D02*
X73592846Y-67680309D01*
G75*
G02*
X73553184Y-67571337I34655J74317D01*
G01*
X73830422Y-66976799D01*
G75*
G02*
X73939394Y-66937137I74317J-34655D01*
G01*
X75240852Y-67544017D01*
G75*
G02*
X75280514Y-67652989I-34655J-74317D01*
G01*
X75003276Y-68247527D01*
G75*
G02*
X74894304Y-68287189I-74317J34655D01*
G01*
G37*
G36*
G01*
X80241032Y-69125342D02*
X78939574Y-68518462D01*
G75*
G02*
X78899912Y-68409490I34655J74317D01*
G01*
X79177150Y-67814952D01*
G75*
G02*
X79286122Y-67775290I74317J-34655D01*
G01*
X80587580Y-68382170D01*
G75*
G02*
X80627242Y-68491142I-34655J-74317D01*
G01*
X80350004Y-69085680D01*
G75*
G02*
X80241032Y-69125342I-74317J34655D01*
G01*
G37*
G36*
G01*
X79607105Y-70484804D02*
X78305647Y-69877924D01*
G75*
G02*
X78265985Y-69768952I34655J74317D01*
G01*
X78543223Y-69174414D01*
G75*
G02*
X78652195Y-69134752I74317J-34655D01*
G01*
X79953653Y-69741632D01*
G75*
G02*
X79993315Y-69850604I-34655J-74317D01*
G01*
X79716077Y-70445142D01*
G75*
G02*
X79607105Y-70484804I-74317J34655D01*
G01*
G37*
%TD*%
%TO.C,D43*%
G36*
G01*
X33692719Y-66728619D02*
X32391261Y-66121739D01*
G75*
G02*
X32351599Y-66012767I34655J74317D01*
G01*
X32628837Y-65418229D01*
G75*
G02*
X32737809Y-65378567I74317J-34655D01*
G01*
X34039267Y-65985447D01*
G75*
G02*
X34078929Y-66094419I-34655J-74317D01*
G01*
X33801691Y-66688957D01*
G75*
G02*
X33692719Y-66728619I-74317J34655D01*
G01*
G37*
G36*
G01*
X33058791Y-68088081D02*
X31757333Y-67481201D01*
G75*
G02*
X31717671Y-67372229I34655J74317D01*
G01*
X31994909Y-66777691D01*
G75*
G02*
X32103881Y-66738029I74317J-34655D01*
G01*
X33405339Y-67344909D01*
G75*
G02*
X33445001Y-67453881I-34655J-74317D01*
G01*
X33167763Y-68048419D01*
G75*
G02*
X33058791Y-68088081I-74317J34655D01*
G01*
G37*
G36*
G01*
X38405519Y-68926234D02*
X37104061Y-68319354D01*
G75*
G02*
X37064399Y-68210382I34655J74317D01*
G01*
X37341637Y-67615844D01*
G75*
G02*
X37450609Y-67576182I74317J-34655D01*
G01*
X38752067Y-68183062D01*
G75*
G02*
X38791729Y-68292034I-34655J-74317D01*
G01*
X38514491Y-68886572D01*
G75*
G02*
X38405519Y-68926234I-74317J34655D01*
G01*
G37*
G36*
G01*
X37771592Y-70285696D02*
X36470134Y-69678816D01*
G75*
G02*
X36430472Y-69569844I34655J74317D01*
G01*
X36707710Y-68975306D01*
G75*
G02*
X36816682Y-68935644I74317J-34655D01*
G01*
X38118140Y-69542524D01*
G75*
G02*
X38157802Y-69651496I-34655J-74317D01*
G01*
X37880564Y-70246034D01*
G75*
G02*
X37771592Y-70285696I-74317J34655D01*
G01*
G37*
%TD*%
%TO.C,D79*%
G36*
G01*
X234448720Y-51099507D02*
X233147262Y-51706387D01*
G75*
G02*
X233038290Y-51666725I-34655J74317D01*
G01*
X232761052Y-51072187D01*
G75*
G02*
X232800714Y-50963215I74317J34655D01*
G01*
X234102172Y-50356335D01*
G75*
G02*
X234211144Y-50395997I34655J-74317D01*
G01*
X234488382Y-50990535D01*
G75*
G02*
X234448720Y-51099507I-74317J-34655D01*
G01*
G37*
G36*
G01*
X235082647Y-52458969D02*
X233781189Y-53065849D01*
G75*
G02*
X233672217Y-53026187I-34655J74317D01*
G01*
X233394979Y-52431649D01*
G75*
G02*
X233434641Y-52322677I74317J34655D01*
G01*
X234736099Y-51715797D01*
G75*
G02*
X234845071Y-51755459I34655J-74317D01*
G01*
X235122309Y-52349997D01*
G75*
G02*
X235082647Y-52458969I-74317J-34655D01*
G01*
G37*
G36*
G01*
X239161520Y-48901892D02*
X237860062Y-49508772D01*
G75*
G02*
X237751090Y-49469110I-34655J74317D01*
G01*
X237473852Y-48874572D01*
G75*
G02*
X237513514Y-48765600I74317J34655D01*
G01*
X238814972Y-48158720D01*
G75*
G02*
X238923944Y-48198382I34655J-74317D01*
G01*
X239201182Y-48792920D01*
G75*
G02*
X239161520Y-48901892I-74317J-34655D01*
G01*
G37*
G36*
G01*
X239795448Y-50261354D02*
X238493990Y-50868234D01*
G75*
G02*
X238385018Y-50828572I-34655J74317D01*
G01*
X238107780Y-50234034D01*
G75*
G02*
X238147442Y-50125062I74317J34655D01*
G01*
X239448900Y-49518182D01*
G75*
G02*
X239557872Y-49557844I34655J-74317D01*
G01*
X239835110Y-50152382D01*
G75*
G02*
X239795448Y-50261354I-74317J-34655D01*
G01*
G37*
%TD*%
%TO.C,D75*%
G36*
G01*
X211946146Y-47800408D02*
X210644688Y-48407288D01*
G75*
G02*
X210535716Y-48367626I-34655J74317D01*
G01*
X210258478Y-47773088D01*
G75*
G02*
X210298140Y-47664116I74317J34655D01*
G01*
X211599598Y-47057236D01*
G75*
G02*
X211708570Y-47096898I34655J-74317D01*
G01*
X211985808Y-47691436D01*
G75*
G02*
X211946146Y-47800408I-74317J-34655D01*
G01*
G37*
G36*
G01*
X212580073Y-49159870D02*
X211278615Y-49766750D01*
G75*
G02*
X211169643Y-49727088I-34655J74317D01*
G01*
X210892405Y-49132550D01*
G75*
G02*
X210932067Y-49023578I74317J34655D01*
G01*
X212233525Y-48416698D01*
G75*
G02*
X212342497Y-48456360I34655J-74317D01*
G01*
X212619735Y-49050898D01*
G75*
G02*
X212580073Y-49159870I-74317J-34655D01*
G01*
G37*
G36*
G01*
X216658946Y-45602793D02*
X215357488Y-46209673D01*
G75*
G02*
X215248516Y-46170011I-34655J74317D01*
G01*
X214971278Y-45575473D01*
G75*
G02*
X215010940Y-45466501I74317J34655D01*
G01*
X216312398Y-44859621D01*
G75*
G02*
X216421370Y-44899283I34655J-74317D01*
G01*
X216698608Y-45493821D01*
G75*
G02*
X216658946Y-45602793I-74317J-34655D01*
G01*
G37*
G36*
G01*
X217292874Y-46962255D02*
X215991416Y-47569135D01*
G75*
G02*
X215882444Y-47529473I-34655J74317D01*
G01*
X215605206Y-46934935D01*
G75*
G02*
X215644868Y-46825963I74317J34655D01*
G01*
X216946326Y-46219083D01*
G75*
G02*
X217055298Y-46258745I34655J-74317D01*
G01*
X217332536Y-46853283D01*
G75*
G02*
X217292874Y-46962255I-74317J-34655D01*
G01*
G37*
%TD*%
%TO.C,D72*%
G36*
G01*
X192613207Y-51298616D02*
X191311749Y-51905496D01*
G75*
G02*
X191202777Y-51865834I-34655J74317D01*
G01*
X190925539Y-51271296D01*
G75*
G02*
X190965201Y-51162324I74317J34655D01*
G01*
X192266659Y-50555444D01*
G75*
G02*
X192375631Y-50595106I34655J-74317D01*
G01*
X192652869Y-51189644D01*
G75*
G02*
X192613207Y-51298616I-74317J-34655D01*
G01*
G37*
G36*
G01*
X193247134Y-52658078D02*
X191945676Y-53264958D01*
G75*
G02*
X191836704Y-53225296I-34655J74317D01*
G01*
X191559466Y-52630758D01*
G75*
G02*
X191599128Y-52521786I74317J34655D01*
G01*
X192900586Y-51914906D01*
G75*
G02*
X193009558Y-51954568I34655J-74317D01*
G01*
X193286796Y-52549106D01*
G75*
G02*
X193247134Y-52658078I-74317J-34655D01*
G01*
G37*
G36*
G01*
X197326007Y-49101001D02*
X196024549Y-49707881D01*
G75*
G02*
X195915577Y-49668219I-34655J74317D01*
G01*
X195638339Y-49073681D01*
G75*
G02*
X195678001Y-48964709I74317J34655D01*
G01*
X196979459Y-48357829D01*
G75*
G02*
X197088431Y-48397491I34655J-74317D01*
G01*
X197365669Y-48992029D01*
G75*
G02*
X197326007Y-49101001I-74317J-34655D01*
G01*
G37*
G36*
G01*
X197959935Y-50460463D02*
X196658477Y-51067343D01*
G75*
G02*
X196549505Y-51027681I-34655J74317D01*
G01*
X196272267Y-50433143D01*
G75*
G02*
X196311929Y-50324171I74317J34655D01*
G01*
X197613387Y-49717291D01*
G75*
G02*
X197722359Y-49756953I34655J-74317D01*
G01*
X197999597Y-50351491D01*
G75*
G02*
X197959935Y-50460463I-74317J-34655D01*
G01*
G37*
%TD*%
%TO.C,D68*%
G36*
G01*
X177506452Y-63859900D02*
X176204994Y-64466780D01*
G75*
G02*
X176096022Y-64427118I-34655J74317D01*
G01*
X175818784Y-63832580D01*
G75*
G02*
X175858446Y-63723608I74317J34655D01*
G01*
X177159904Y-63116728D01*
G75*
G02*
X177268876Y-63156390I34655J-74317D01*
G01*
X177546114Y-63750928D01*
G75*
G02*
X177506452Y-63859900I-74317J-34655D01*
G01*
G37*
G36*
G01*
X178140379Y-65219362D02*
X176838921Y-65826242D01*
G75*
G02*
X176729949Y-65786580I-34655J74317D01*
G01*
X176452711Y-65192042D01*
G75*
G02*
X176492373Y-65083070I74317J34655D01*
G01*
X177793831Y-64476190D01*
G75*
G02*
X177902803Y-64515852I34655J-74317D01*
G01*
X178180041Y-65110390D01*
G75*
G02*
X178140379Y-65219362I-74317J-34655D01*
G01*
G37*
G36*
G01*
X182219252Y-61662285D02*
X180917794Y-62269165D01*
G75*
G02*
X180808822Y-62229503I-34655J74317D01*
G01*
X180531584Y-61634965D01*
G75*
G02*
X180571246Y-61525993I74317J34655D01*
G01*
X181872704Y-60919113D01*
G75*
G02*
X181981676Y-60958775I34655J-74317D01*
G01*
X182258914Y-61553313D01*
G75*
G02*
X182219252Y-61662285I-74317J-34655D01*
G01*
G37*
G36*
G01*
X182853180Y-63021747D02*
X181551722Y-63628627D01*
G75*
G02*
X181442750Y-63588965I-34655J74317D01*
G01*
X181165512Y-62994427D01*
G75*
G02*
X181205174Y-62885455I74317J34655D01*
G01*
X182506632Y-62278575D01*
G75*
G02*
X182615604Y-62318237I34655J-74317D01*
G01*
X182892842Y-62912775D01*
G75*
G02*
X182853180Y-63021747I-74317J-34655D01*
G01*
G37*
%TD*%
%TO.C,D49*%
G36*
G01*
X83557979Y-49707880D02*
X82256521Y-49101000D01*
G75*
G02*
X82216859Y-48992028I34655J74317D01*
G01*
X82494097Y-48397490D01*
G75*
G02*
X82603069Y-48357828I74317J-34655D01*
G01*
X83904527Y-48964708D01*
G75*
G02*
X83944189Y-49073680I-34655J-74317D01*
G01*
X83666951Y-49668218D01*
G75*
G02*
X83557979Y-49707880I-74317J34655D01*
G01*
G37*
G36*
G01*
X82924051Y-51067342D02*
X81622593Y-50460462D01*
G75*
G02*
X81582931Y-50351490I34655J74317D01*
G01*
X81860169Y-49756952D01*
G75*
G02*
X81969141Y-49717290I74317J-34655D01*
G01*
X83270599Y-50324170D01*
G75*
G02*
X83310261Y-50433142I-34655J-74317D01*
G01*
X83033023Y-51027680D01*
G75*
G02*
X82924051Y-51067342I-74317J34655D01*
G01*
G37*
G36*
G01*
X88270779Y-51905495D02*
X86969321Y-51298615D01*
G75*
G02*
X86929659Y-51189643I34655J74317D01*
G01*
X87206897Y-50595105D01*
G75*
G02*
X87315869Y-50555443I74317J-34655D01*
G01*
X88617327Y-51162323D01*
G75*
G02*
X88656989Y-51271295I-34655J-74317D01*
G01*
X88379751Y-51865833D01*
G75*
G02*
X88270779Y-51905495I-74317J34655D01*
G01*
G37*
G36*
G01*
X87636852Y-53264957D02*
X86335394Y-52658077D01*
G75*
G02*
X86295732Y-52549105I34655J74317D01*
G01*
X86572970Y-51954567D01*
G75*
G02*
X86681942Y-51914905I74317J-34655D01*
G01*
X87983400Y-52521785D01*
G75*
G02*
X88023062Y-52630757I-34655J-74317D01*
G01*
X87745824Y-53225295D01*
G75*
G02*
X87636852Y-53264957I-74317J34655D01*
G01*
G37*
%TD*%
%TO.C,D46*%
G36*
G01*
X64225042Y-46209673D02*
X62923584Y-45602793D01*
G75*
G02*
X62883922Y-45493821I34655J74317D01*
G01*
X63161160Y-44899283D01*
G75*
G02*
X63270132Y-44859621I74317J-34655D01*
G01*
X64571590Y-45466501D01*
G75*
G02*
X64611252Y-45575473I-34655J-74317D01*
G01*
X64334014Y-46170011D01*
G75*
G02*
X64225042Y-46209673I-74317J34655D01*
G01*
G37*
G36*
G01*
X63591114Y-47569135D02*
X62289656Y-46962255D01*
G75*
G02*
X62249994Y-46853283I34655J74317D01*
G01*
X62527232Y-46258745D01*
G75*
G02*
X62636204Y-46219083I74317J-34655D01*
G01*
X63937662Y-46825963D01*
G75*
G02*
X63977324Y-46934935I-34655J-74317D01*
G01*
X63700086Y-47529473D01*
G75*
G02*
X63591114Y-47569135I-74317J34655D01*
G01*
G37*
G36*
G01*
X68937842Y-48407288D02*
X67636384Y-47800408D01*
G75*
G02*
X67596722Y-47691436I34655J74317D01*
G01*
X67873960Y-47096898D01*
G75*
G02*
X67982932Y-47057236I74317J-34655D01*
G01*
X69284390Y-47664116D01*
G75*
G02*
X69324052Y-47773088I-34655J-74317D01*
G01*
X69046814Y-48367626D01*
G75*
G02*
X68937842Y-48407288I-74317J34655D01*
G01*
G37*
G36*
G01*
X68303915Y-49766750D02*
X67002457Y-49159870D01*
G75*
G02*
X66962795Y-49050898I34655J74317D01*
G01*
X67240033Y-48456360D01*
G75*
G02*
X67349005Y-48416698I74317J-34655D01*
G01*
X68650463Y-49023578D01*
G75*
G02*
X68690125Y-49132550I-34655J-74317D01*
G01*
X68412887Y-49727088D01*
G75*
G02*
X68303915Y-49766750I-74317J34655D01*
G01*
G37*
%TD*%
%TO.C,D42*%
G36*
G01*
X41722467Y-49508773D02*
X40421009Y-48901893D01*
G75*
G02*
X40381347Y-48792921I34655J74317D01*
G01*
X40658585Y-48198383D01*
G75*
G02*
X40767557Y-48158721I74317J-34655D01*
G01*
X42069015Y-48765601D01*
G75*
G02*
X42108677Y-48874573I-34655J-74317D01*
G01*
X41831439Y-49469111D01*
G75*
G02*
X41722467Y-49508773I-74317J34655D01*
G01*
G37*
G36*
G01*
X41088539Y-50868235D02*
X39787081Y-50261355D01*
G75*
G02*
X39747419Y-50152383I34655J74317D01*
G01*
X40024657Y-49557845D01*
G75*
G02*
X40133629Y-49518183I74317J-34655D01*
G01*
X41435087Y-50125063D01*
G75*
G02*
X41474749Y-50234035I-34655J-74317D01*
G01*
X41197511Y-50828573D01*
G75*
G02*
X41088539Y-50868235I-74317J34655D01*
G01*
G37*
G36*
G01*
X46435267Y-51706388D02*
X45133809Y-51099508D01*
G75*
G02*
X45094147Y-50990536I34655J74317D01*
G01*
X45371385Y-50395998D01*
G75*
G02*
X45480357Y-50356336I74317J-34655D01*
G01*
X46781815Y-50963216D01*
G75*
G02*
X46821477Y-51072188I-34655J-74317D01*
G01*
X46544239Y-51666726D01*
G75*
G02*
X46435267Y-51706388I-74317J34655D01*
G01*
G37*
G36*
G01*
X45801340Y-53065850D02*
X44499882Y-52458970D01*
G75*
G02*
X44460220Y-52349998I34655J74317D01*
G01*
X44737458Y-51755460D01*
G75*
G02*
X44846430Y-51715798I74317J-34655D01*
G01*
X46147888Y-52322678D01*
G75*
G02*
X46187550Y-52431650I-34655J-74317D01*
G01*
X45910312Y-53026188D01*
G75*
G02*
X45801340Y-53065850I-74317J34655D01*
G01*
G37*
%TD*%
%TO.C,D80*%
G36*
G01*
X226418973Y-33879660D02*
X225117515Y-34486540D01*
G75*
G02*
X225008543Y-34446878I-34655J74317D01*
G01*
X224731305Y-33852340D01*
G75*
G02*
X224770967Y-33743368I74317J34655D01*
G01*
X226072425Y-33136488D01*
G75*
G02*
X226181397Y-33176150I34655J-74317D01*
G01*
X226458635Y-33770688D01*
G75*
G02*
X226418973Y-33879660I-74317J-34655D01*
G01*
G37*
G36*
G01*
X227052900Y-35239122D02*
X225751442Y-35846002D01*
G75*
G02*
X225642470Y-35806340I-34655J74317D01*
G01*
X225365232Y-35211802D01*
G75*
G02*
X225404894Y-35102830I74317J34655D01*
G01*
X226706352Y-34495950D01*
G75*
G02*
X226815324Y-34535612I34655J-74317D01*
G01*
X227092562Y-35130150D01*
G75*
G02*
X227052900Y-35239122I-74317J-34655D01*
G01*
G37*
G36*
G01*
X231131773Y-31682045D02*
X229830315Y-32288925D01*
G75*
G02*
X229721343Y-32249263I-34655J74317D01*
G01*
X229444105Y-31654725D01*
G75*
G02*
X229483767Y-31545753I74317J34655D01*
G01*
X230785225Y-30938873D01*
G75*
G02*
X230894197Y-30978535I34655J-74317D01*
G01*
X231171435Y-31573073D01*
G75*
G02*
X231131773Y-31682045I-74317J-34655D01*
G01*
G37*
G36*
G01*
X231765701Y-33041507D02*
X230464243Y-33648387D01*
G75*
G02*
X230355271Y-33608725I-34655J74317D01*
G01*
X230078033Y-33014187D01*
G75*
G02*
X230117695Y-32905215I74317J34655D01*
G01*
X231419153Y-32298335D01*
G75*
G02*
X231528125Y-32337997I34655J-74317D01*
G01*
X231805363Y-32932535D01*
G75*
G02*
X231765701Y-33041507I-74317J-34655D01*
G01*
G37*
%TD*%
%TO.C,D74*%
G36*
G01*
X203916399Y-30580561D02*
X202614941Y-31187441D01*
G75*
G02*
X202505969Y-31147779I-34655J74317D01*
G01*
X202228731Y-30553241D01*
G75*
G02*
X202268393Y-30444269I74317J34655D01*
G01*
X203569851Y-29837389D01*
G75*
G02*
X203678823Y-29877051I34655J-74317D01*
G01*
X203956061Y-30471589D01*
G75*
G02*
X203916399Y-30580561I-74317J-34655D01*
G01*
G37*
G36*
G01*
X204550326Y-31940023D02*
X203248868Y-32546903D01*
G75*
G02*
X203139896Y-32507241I-34655J74317D01*
G01*
X202862658Y-31912703D01*
G75*
G02*
X202902320Y-31803731I74317J34655D01*
G01*
X204203778Y-31196851D01*
G75*
G02*
X204312750Y-31236513I34655J-74317D01*
G01*
X204589988Y-31831051D01*
G75*
G02*
X204550326Y-31940023I-74317J-34655D01*
G01*
G37*
G36*
G01*
X208629199Y-28382946D02*
X207327741Y-28989826D01*
G75*
G02*
X207218769Y-28950164I-34655J74317D01*
G01*
X206941531Y-28355626D01*
G75*
G02*
X206981193Y-28246654I74317J34655D01*
G01*
X208282651Y-27639774D01*
G75*
G02*
X208391623Y-27679436I34655J-74317D01*
G01*
X208668861Y-28273974D01*
G75*
G02*
X208629199Y-28382946I-74317J-34655D01*
G01*
G37*
G36*
G01*
X209263127Y-29742408D02*
X207961669Y-30349288D01*
G75*
G02*
X207852697Y-30309626I-34655J74317D01*
G01*
X207575459Y-29715088D01*
G75*
G02*
X207615121Y-29606116I74317J34655D01*
G01*
X208916579Y-28999236D01*
G75*
G02*
X209025551Y-29038898I34655J-74317D01*
G01*
X209302789Y-29633436D01*
G75*
G02*
X209263127Y-29742408I-74317J-34655D01*
G01*
G37*
%TD*%
%TO.C,D73*%
G36*
G01*
X184583461Y-34078768D02*
X183282003Y-34685648D01*
G75*
G02*
X183173031Y-34645986I-34655J74317D01*
G01*
X182895793Y-34051448D01*
G75*
G02*
X182935455Y-33942476I74317J34655D01*
G01*
X184236913Y-33335596D01*
G75*
G02*
X184345885Y-33375258I34655J-74317D01*
G01*
X184623123Y-33969796D01*
G75*
G02*
X184583461Y-34078768I-74317J-34655D01*
G01*
G37*
G36*
G01*
X185217388Y-35438230D02*
X183915930Y-36045110D01*
G75*
G02*
X183806958Y-36005448I-34655J74317D01*
G01*
X183529720Y-35410910D01*
G75*
G02*
X183569382Y-35301938I74317J34655D01*
G01*
X184870840Y-34695058D01*
G75*
G02*
X184979812Y-34734720I34655J-74317D01*
G01*
X185257050Y-35329258D01*
G75*
G02*
X185217388Y-35438230I-74317J-34655D01*
G01*
G37*
G36*
G01*
X189296261Y-31881153D02*
X187994803Y-32488033D01*
G75*
G02*
X187885831Y-32448371I-34655J74317D01*
G01*
X187608593Y-31853833D01*
G75*
G02*
X187648255Y-31744861I74317J34655D01*
G01*
X188949713Y-31137981D01*
G75*
G02*
X189058685Y-31177643I34655J-74317D01*
G01*
X189335923Y-31772181D01*
G75*
G02*
X189296261Y-31881153I-74317J-34655D01*
G01*
G37*
G36*
G01*
X189930189Y-33240615D02*
X188628731Y-33847495D01*
G75*
G02*
X188519759Y-33807833I-34655J74317D01*
G01*
X188242521Y-33213295D01*
G75*
G02*
X188282183Y-33104323I74317J34655D01*
G01*
X189583641Y-32497443D01*
G75*
G02*
X189692613Y-32537105I34655J-74317D01*
G01*
X189969851Y-33131643D01*
G75*
G02*
X189930189Y-33240615I-74317J-34655D01*
G01*
G37*
%TD*%
%TO.C,D67*%
G36*
G01*
X169476704Y-46640054D02*
X168175246Y-47246934D01*
G75*
G02*
X168066274Y-47207272I-34655J74317D01*
G01*
X167789036Y-46612734D01*
G75*
G02*
X167828698Y-46503762I74317J34655D01*
G01*
X169130156Y-45896882D01*
G75*
G02*
X169239128Y-45936544I34655J-74317D01*
G01*
X169516366Y-46531082D01*
G75*
G02*
X169476704Y-46640054I-74317J-34655D01*
G01*
G37*
G36*
G01*
X170110631Y-47999516D02*
X168809173Y-48606396D01*
G75*
G02*
X168700201Y-48566734I-34655J74317D01*
G01*
X168422963Y-47972196D01*
G75*
G02*
X168462625Y-47863224I74317J34655D01*
G01*
X169764083Y-47256344D01*
G75*
G02*
X169873055Y-47296006I34655J-74317D01*
G01*
X170150293Y-47890544D01*
G75*
G02*
X170110631Y-47999516I-74317J-34655D01*
G01*
G37*
G36*
G01*
X174189504Y-44442439D02*
X172888046Y-45049319D01*
G75*
G02*
X172779074Y-45009657I-34655J74317D01*
G01*
X172501836Y-44415119D01*
G75*
G02*
X172541498Y-44306147I74317J34655D01*
G01*
X173842956Y-43699267D01*
G75*
G02*
X173951928Y-43738929I34655J-74317D01*
G01*
X174229166Y-44333467D01*
G75*
G02*
X174189504Y-44442439I-74317J-34655D01*
G01*
G37*
G36*
G01*
X174823432Y-45801901D02*
X173521974Y-46408781D01*
G75*
G02*
X173413002Y-46369119I-34655J74317D01*
G01*
X173135764Y-45774581D01*
G75*
G02*
X173175426Y-45665609I74317J34655D01*
G01*
X174476884Y-45058729D01*
G75*
G02*
X174585856Y-45098391I34655J-74317D01*
G01*
X174863094Y-45692929D01*
G75*
G02*
X174823432Y-45801901I-74317J-34655D01*
G01*
G37*
%TD*%
%TO.C,D66*%
G36*
G01*
X153313404Y-56935571D02*
X152011946Y-57542451D01*
G75*
G02*
X151902974Y-57502789I-34655J74317D01*
G01*
X151625736Y-56908251D01*
G75*
G02*
X151665398Y-56799279I74317J34655D01*
G01*
X152966856Y-56192399D01*
G75*
G02*
X153075828Y-56232061I34655J-74317D01*
G01*
X153353066Y-56826599D01*
G75*
G02*
X153313404Y-56935571I-74317J-34655D01*
G01*
G37*
G36*
G01*
X153947331Y-58295033D02*
X152645873Y-58901913D01*
G75*
G02*
X152536901Y-58862251I-34655J74317D01*
G01*
X152259663Y-58267713D01*
G75*
G02*
X152299325Y-58158741I74317J34655D01*
G01*
X153600783Y-57551861D01*
G75*
G02*
X153709755Y-57591523I34655J-74317D01*
G01*
X153986993Y-58186061D01*
G75*
G02*
X153947331Y-58295033I-74317J-34655D01*
G01*
G37*
G36*
G01*
X158026204Y-54737956D02*
X156724746Y-55344836D01*
G75*
G02*
X156615774Y-55305174I-34655J74317D01*
G01*
X156338536Y-54710636D01*
G75*
G02*
X156378198Y-54601664I74317J34655D01*
G01*
X157679656Y-53994784D01*
G75*
G02*
X157788628Y-54034446I34655J-74317D01*
G01*
X158065866Y-54628984D01*
G75*
G02*
X158026204Y-54737956I-74317J-34655D01*
G01*
G37*
G36*
G01*
X158660132Y-56097418D02*
X157358674Y-56704298D01*
G75*
G02*
X157249702Y-56664636I-34655J74317D01*
G01*
X156972464Y-56070098D01*
G75*
G02*
X157012126Y-55961126I74317J34655D01*
G01*
X158313584Y-55354246D01*
G75*
G02*
X158422556Y-55393908I34655J-74317D01*
G01*
X158699794Y-55988446D01*
G75*
G02*
X158660132Y-56097418I-74317J-34655D01*
G01*
G37*
%TD*%
%TO.C,D55*%
G36*
G01*
X122857783Y-55344836D02*
X121556325Y-54737956D01*
G75*
G02*
X121516663Y-54628984I34655J74317D01*
G01*
X121793901Y-54034446D01*
G75*
G02*
X121902873Y-53994784I74317J-34655D01*
G01*
X123204331Y-54601664D01*
G75*
G02*
X123243993Y-54710636I-34655J-74317D01*
G01*
X122966755Y-55305174D01*
G75*
G02*
X122857783Y-55344836I-74317J34655D01*
G01*
G37*
G36*
G01*
X122223855Y-56704298D02*
X120922397Y-56097418D01*
G75*
G02*
X120882735Y-55988446I34655J74317D01*
G01*
X121159973Y-55393908D01*
G75*
G02*
X121268945Y-55354246I74317J-34655D01*
G01*
X122570403Y-55961126D01*
G75*
G02*
X122610065Y-56070098I-34655J-74317D01*
G01*
X122332827Y-56664636D01*
G75*
G02*
X122223855Y-56704298I-74317J34655D01*
G01*
G37*
G36*
G01*
X127570583Y-57542451D02*
X126269125Y-56935571D01*
G75*
G02*
X126229463Y-56826599I34655J74317D01*
G01*
X126506701Y-56232061D01*
G75*
G02*
X126615673Y-56192399I74317J-34655D01*
G01*
X127917131Y-56799279D01*
G75*
G02*
X127956793Y-56908251I-34655J-74317D01*
G01*
X127679555Y-57502789D01*
G75*
G02*
X127570583Y-57542451I-74317J34655D01*
G01*
G37*
G36*
G01*
X126936656Y-58901913D02*
X125635198Y-58295033D01*
G75*
G02*
X125595536Y-58186061I34655J74317D01*
G01*
X125872774Y-57591523D01*
G75*
G02*
X125981746Y-57551861I74317J-34655D01*
G01*
X127283204Y-58158741D01*
G75*
G02*
X127322866Y-58267713I-34655J-74317D01*
G01*
X127045628Y-58862251D01*
G75*
G02*
X126936656Y-58901913I-74317J34655D01*
G01*
G37*
%TD*%
%TO.C,D48*%
G36*
G01*
X91587726Y-32488034D02*
X90286268Y-31881154D01*
G75*
G02*
X90246606Y-31772182I34655J74317D01*
G01*
X90523844Y-31177644D01*
G75*
G02*
X90632816Y-31137982I74317J-34655D01*
G01*
X91934274Y-31744862D01*
G75*
G02*
X91973936Y-31853834I-34655J-74317D01*
G01*
X91696698Y-32448372D01*
G75*
G02*
X91587726Y-32488034I-74317J34655D01*
G01*
G37*
G36*
G01*
X90953798Y-33847496D02*
X89652340Y-33240616D01*
G75*
G02*
X89612678Y-33131644I34655J74317D01*
G01*
X89889916Y-32537106D01*
G75*
G02*
X89998888Y-32497444I74317J-34655D01*
G01*
X91300346Y-33104324D01*
G75*
G02*
X91340008Y-33213296I-34655J-74317D01*
G01*
X91062770Y-33807834D01*
G75*
G02*
X90953798Y-33847496I-74317J34655D01*
G01*
G37*
G36*
G01*
X96300526Y-34685649D02*
X94999068Y-34078769D01*
G75*
G02*
X94959406Y-33969797I34655J74317D01*
G01*
X95236644Y-33375259D01*
G75*
G02*
X95345616Y-33335597I74317J-34655D01*
G01*
X96647074Y-33942477D01*
G75*
G02*
X96686736Y-34051449I-34655J-74317D01*
G01*
X96409498Y-34645987D01*
G75*
G02*
X96300526Y-34685649I-74317J34655D01*
G01*
G37*
G36*
G01*
X95666599Y-36045111D02*
X94365141Y-35438231D01*
G75*
G02*
X94325479Y-35329259I34655J74317D01*
G01*
X94602717Y-34734721D01*
G75*
G02*
X94711689Y-34695059I74317J-34655D01*
G01*
X96013147Y-35301939D01*
G75*
G02*
X96052809Y-35410911I-34655J-74317D01*
G01*
X95775571Y-36005449D01*
G75*
G02*
X95666599Y-36045111I-74317J34655D01*
G01*
G37*
%TD*%
%TO.C,D47*%
G36*
G01*
X72254788Y-28989826D02*
X70953330Y-28382946D01*
G75*
G02*
X70913668Y-28273974I34655J74317D01*
G01*
X71190906Y-27679436D01*
G75*
G02*
X71299878Y-27639774I74317J-34655D01*
G01*
X72601336Y-28246654D01*
G75*
G02*
X72640998Y-28355626I-34655J-74317D01*
G01*
X72363760Y-28950164D01*
G75*
G02*
X72254788Y-28989826I-74317J34655D01*
G01*
G37*
G36*
G01*
X71620860Y-30349288D02*
X70319402Y-29742408D01*
G75*
G02*
X70279740Y-29633436I34655J74317D01*
G01*
X70556978Y-29038898D01*
G75*
G02*
X70665950Y-28999236I74317J-34655D01*
G01*
X71967408Y-29606116D01*
G75*
G02*
X72007070Y-29715088I-34655J-74317D01*
G01*
X71729832Y-30309626D01*
G75*
G02*
X71620860Y-30349288I-74317J34655D01*
G01*
G37*
G36*
G01*
X76967588Y-31187441D02*
X75666130Y-30580561D01*
G75*
G02*
X75626468Y-30471589I34655J74317D01*
G01*
X75903706Y-29877051D01*
G75*
G02*
X76012678Y-29837389I74317J-34655D01*
G01*
X77314136Y-30444269D01*
G75*
G02*
X77353798Y-30553241I-34655J-74317D01*
G01*
X77076560Y-31147779D01*
G75*
G02*
X76967588Y-31187441I-74317J34655D01*
G01*
G37*
G36*
G01*
X76333661Y-32546903D02*
X75032203Y-31940023D01*
G75*
G02*
X74992541Y-31831051I34655J74317D01*
G01*
X75269779Y-31236513D01*
G75*
G02*
X75378751Y-31196851I74317J-34655D01*
G01*
X76680209Y-31803731D01*
G75*
G02*
X76719871Y-31912703I-34655J-74317D01*
G01*
X76442633Y-32507241D01*
G75*
G02*
X76333661Y-32546903I-74317J34655D01*
G01*
G37*
%TD*%
%TO.C,D41*%
G36*
G01*
X49752213Y-32288926D02*
X48450755Y-31682046D01*
G75*
G02*
X48411093Y-31573074I34655J74317D01*
G01*
X48688331Y-30978536D01*
G75*
G02*
X48797303Y-30938874I74317J-34655D01*
G01*
X50098761Y-31545754D01*
G75*
G02*
X50138423Y-31654726I-34655J-74317D01*
G01*
X49861185Y-32249264D01*
G75*
G02*
X49752213Y-32288926I-74317J34655D01*
G01*
G37*
G36*
G01*
X49118285Y-33648388D02*
X47816827Y-33041508D01*
G75*
G02*
X47777165Y-32932536I34655J74317D01*
G01*
X48054403Y-32337998D01*
G75*
G02*
X48163375Y-32298336I74317J-34655D01*
G01*
X49464833Y-32905216D01*
G75*
G02*
X49504495Y-33014188I-34655J-74317D01*
G01*
X49227257Y-33608726D01*
G75*
G02*
X49118285Y-33648388I-74317J34655D01*
G01*
G37*
G36*
G01*
X54465013Y-34486541D02*
X53163555Y-33879661D01*
G75*
G02*
X53123893Y-33770689I34655J74317D01*
G01*
X53401131Y-33176151D01*
G75*
G02*
X53510103Y-33136489I74317J-34655D01*
G01*
X54811561Y-33743369D01*
G75*
G02*
X54851223Y-33852341I-34655J-74317D01*
G01*
X54573985Y-34446879D01*
G75*
G02*
X54465013Y-34486541I-74317J34655D01*
G01*
G37*
G36*
G01*
X53831086Y-35846003D02*
X52529628Y-35239123D01*
G75*
G02*
X52489966Y-35130151I34655J74317D01*
G01*
X52767204Y-34535613D01*
G75*
G02*
X52876176Y-34495951I74317J-34655D01*
G01*
X54177634Y-35102831D01*
G75*
G02*
X54217296Y-35211803I-34655J-74317D01*
G01*
X53940058Y-35806341D01*
G75*
G02*
X53831086Y-35846003I-74317J34655D01*
G01*
G37*
%TD*%
D11*
%TO.C,D40*%
G36*
X224488218Y-91184662D02*
G01*
X225575787Y-90677521D01*
X225956144Y-91493198D01*
X224868575Y-92000339D01*
X224488218Y-91184662D01*
G37*
G36*
X223093578Y-88193846D02*
G01*
X224181147Y-87686705D01*
X224561504Y-88502382D01*
X223473935Y-89009523D01*
X223093578Y-88193846D01*
G37*
%TD*%
%TO.C,D39*%
G36*
X205155281Y-94682870D02*
G01*
X206242850Y-94175729D01*
X206623207Y-94991406D01*
X205535638Y-95498547D01*
X205155281Y-94682870D01*
G37*
G36*
X203760641Y-91692054D02*
G01*
X204848210Y-91184913D01*
X205228567Y-92000590D01*
X204140998Y-92507731D01*
X203760641Y-91692054D01*
G37*
%TD*%
%TO.C,D38*%
G36*
X196551614Y-121474516D02*
G01*
X197639183Y-120967375D01*
X198019540Y-121783052D01*
X196931971Y-122290193D01*
X196551614Y-121474516D01*
G37*
G36*
X195156974Y-118483700D02*
G01*
X196244543Y-117976559D01*
X196624900Y-118792236D01*
X195537331Y-119299377D01*
X195156974Y-118483700D01*
G37*
%TD*%
%TO.C,D37*%
G36*
X179153743Y-132570165D02*
G01*
X180136726Y-131881874D01*
X180652945Y-132619111D01*
X179669962Y-133307402D01*
X179153743Y-132570165D01*
G37*
G36*
X177260941Y-129866963D02*
G01*
X178243924Y-129178672D01*
X178760143Y-129915909D01*
X177777160Y-130604200D01*
X177260941Y-129866963D01*
G37*
%TD*%
%TO.C,D36*%
G36*
X164218648Y-147115994D02*
G01*
X165067176Y-146267466D01*
X165703572Y-146903862D01*
X164855044Y-147752390D01*
X164218648Y-147115994D01*
G37*
G36*
X161885196Y-144782542D02*
G01*
X162733724Y-143934014D01*
X163370120Y-144570410D01*
X162521592Y-145418938D01*
X161885196Y-144782542D01*
G37*
%TD*%
%TO.C,D35*%
G36*
X102848091Y-134600205D02*
G01*
X103696619Y-135448733D01*
X103060223Y-136085129D01*
X102211695Y-135236601D01*
X102848091Y-134600205D01*
G37*
G36*
X105181543Y-132266753D02*
G01*
X106030071Y-133115281D01*
X105393675Y-133751677D01*
X104545147Y-132903149D01*
X105181543Y-132266753D01*
G37*
%TD*%
%TO.C,D34*%
G36*
X85929796Y-122417863D02*
G01*
X86912779Y-123106154D01*
X86396560Y-123843391D01*
X85413577Y-123155100D01*
X85929796Y-122417863D01*
G37*
G36*
X87822598Y-119714661D02*
G01*
X88805581Y-120402952D01*
X88289362Y-121140189D01*
X87306379Y-120451898D01*
X87822598Y-119714661D01*
G37*
%TD*%
%TO.C,D33*%
G36*
X67153084Y-113358431D02*
G01*
X68240653Y-113865572D01*
X67860296Y-114681249D01*
X66772727Y-114174108D01*
X67153084Y-113358431D01*
G37*
G36*
X68547724Y-110367615D02*
G01*
X69635293Y-110874756D01*
X69254936Y-111690433D01*
X68167367Y-111183292D01*
X68547724Y-110367615D01*
G37*
%TD*%
%TO.C,D32*%
G36*
X58385601Y-87202528D02*
G01*
X59473170Y-87709669D01*
X59092813Y-88525346D01*
X58005244Y-88018205D01*
X58385601Y-87202528D01*
G37*
G36*
X59780241Y-84211712D02*
G01*
X60867810Y-84718853D01*
X60487453Y-85534530D01*
X59399884Y-85027389D01*
X59780241Y-84211712D01*
G37*
%TD*%
%TO.C,D31*%
G36*
X39052663Y-83704321D02*
G01*
X40140232Y-84211462D01*
X39759875Y-85027139D01*
X38672306Y-84519998D01*
X39052663Y-83704321D01*
G37*
G36*
X40447303Y-80713505D02*
G01*
X41534872Y-81220646D01*
X41154515Y-82036323D01*
X40066946Y-81529182D01*
X40447303Y-80713505D01*
G37*
%TD*%
%TO.C,D30*%
G36*
X238961047Y-77263915D02*
G01*
X240048616Y-76756774D01*
X240428973Y-77572451D01*
X239341404Y-78079592D01*
X238961047Y-77263915D01*
G37*
G36*
X237566407Y-74273099D02*
G01*
X238653976Y-73765958D01*
X239034333Y-74581635D01*
X237946764Y-75088776D01*
X237566407Y-74273099D01*
G37*
%TD*%
%TO.C,D29*%
G36*
X216458471Y-73964815D02*
G01*
X217546040Y-73457674D01*
X217926397Y-74273351D01*
X216838828Y-74780492D01*
X216458471Y-73964815D01*
G37*
G36*
X215063831Y-70973999D02*
G01*
X216151400Y-70466858D01*
X216531757Y-71282535D01*
X215444188Y-71789676D01*
X215063831Y-70973999D01*
G37*
%TD*%
%TO.C,D28*%
G36*
X197125533Y-77463023D02*
G01*
X198213102Y-76955882D01*
X198593459Y-77771559D01*
X197505890Y-78278700D01*
X197125533Y-77463023D01*
G37*
G36*
X195730893Y-74472207D02*
G01*
X196818462Y-73965066D01*
X197198819Y-74780743D01*
X196111250Y-75287884D01*
X195730893Y-74472207D01*
G37*
%TD*%
%TO.C,D27*%
G36*
X182018777Y-90024310D02*
G01*
X183106346Y-89517169D01*
X183486703Y-90332846D01*
X182399134Y-90839987D01*
X182018777Y-90024310D01*
G37*
G36*
X180624137Y-87033494D02*
G01*
X181711706Y-86526353D01*
X182092063Y-87342030D01*
X181004494Y-87849171D01*
X180624137Y-87033494D01*
G37*
%TD*%
%TO.C,D26*%
G36*
X165855475Y-100319825D02*
G01*
X166943044Y-99812684D01*
X167323401Y-100628361D01*
X166235832Y-101135502D01*
X165855475Y-100319825D01*
G37*
G36*
X164460835Y-97329009D02*
G01*
X165548404Y-96821868D01*
X165928761Y-97637545D01*
X164841192Y-98144686D01*
X164460835Y-97329009D01*
G37*
%TD*%
%TO.C,D25*%
G36*
X97685407Y-92839484D02*
G01*
X98772976Y-93346625D01*
X98392619Y-94162302D01*
X97305050Y-93655161D01*
X97685407Y-92839484D01*
G37*
G36*
X99080047Y-89848668D02*
G01*
X100167616Y-90355809D01*
X99787259Y-91171486D01*
X98699690Y-90664345D01*
X99080047Y-89848668D01*
G37*
%TD*%
%TO.C,D24*%
G36*
X81522104Y-82543967D02*
G01*
X82609673Y-83051108D01*
X82229316Y-83866785D01*
X81141747Y-83359644D01*
X81522104Y-82543967D01*
G37*
G36*
X82916744Y-79553151D02*
G01*
X84004313Y-80060292D01*
X83623956Y-80875969D01*
X82536387Y-80368828D01*
X82916744Y-79553151D01*
G37*
%TD*%
%TO.C,D23*%
G36*
X66415349Y-69982682D02*
G01*
X67502918Y-70489823D01*
X67122561Y-71305500D01*
X66034992Y-70798359D01*
X66415349Y-69982682D01*
G37*
G36*
X67809989Y-66991866D02*
G01*
X68897558Y-67499007D01*
X68517201Y-68314684D01*
X67429632Y-67807543D01*
X67809989Y-66991866D01*
G37*
%TD*%
%TO.C,D22*%
G36*
X47082411Y-66484473D02*
G01*
X48169980Y-66991614D01*
X47789623Y-67807291D01*
X46702054Y-67300150D01*
X47082411Y-66484473D01*
G37*
G36*
X48477051Y-63493657D02*
G01*
X49564620Y-64000798D01*
X49184263Y-64816475D01*
X48096694Y-64309334D01*
X48477051Y-63493657D01*
G37*
%TD*%
%TO.C,D21*%
G36*
X24579835Y-69783574D02*
G01*
X25667404Y-70290715D01*
X25287047Y-71106392D01*
X24199478Y-70599251D01*
X24579835Y-69783574D01*
G37*
G36*
X25974475Y-66792758D02*
G01*
X27062044Y-67299899D01*
X26681687Y-68115576D01*
X25594118Y-67608435D01*
X25974475Y-66792758D01*
G37*
%TD*%
%TO.C,D20*%
G36*
X230931300Y-60044068D02*
G01*
X232018869Y-59536927D01*
X232399226Y-60352604D01*
X231311657Y-60859745D01*
X230931300Y-60044068D01*
G37*
G36*
X229536660Y-57053252D02*
G01*
X230624229Y-56546111D01*
X231004586Y-57361788D01*
X229917017Y-57868929D01*
X229536660Y-57053252D01*
G37*
%TD*%
%TO.C,D19*%
G36*
X208428725Y-56744967D02*
G01*
X209516294Y-56237826D01*
X209896651Y-57053503D01*
X208809082Y-57560644D01*
X208428725Y-56744967D01*
G37*
G36*
X207034085Y-53754151D02*
G01*
X208121654Y-53247010D01*
X208502011Y-54062687D01*
X207414442Y-54569828D01*
X207034085Y-53754151D01*
G37*
%TD*%
%TO.C,D18*%
G36*
X188757215Y-60150317D02*
G01*
X189844784Y-59643176D01*
X190225141Y-60458853D01*
X189137572Y-60965994D01*
X188757215Y-60150317D01*
G37*
G36*
X187362575Y-57159501D02*
G01*
X188450144Y-56652360D01*
X188830501Y-57468037D01*
X187742932Y-57975178D01*
X187362575Y-57159501D01*
G37*
%TD*%
%TO.C,D17*%
G36*
X171304014Y-67372516D02*
G01*
X172391583Y-66865375D01*
X172771940Y-67681052D01*
X171684371Y-68188193D01*
X171304014Y-67372516D01*
G37*
G36*
X169909374Y-64381700D02*
G01*
X170996943Y-63874559D01*
X171377300Y-64690236D01*
X170289731Y-65197377D01*
X169909374Y-64381700D01*
G37*
%TD*%
%TO.C,D16*%
G36*
X157825731Y-83099977D02*
G01*
X158913300Y-82592836D01*
X159293657Y-83408513D01*
X158206088Y-83915654D01*
X157825731Y-83099977D01*
G37*
G36*
X156431091Y-80109161D02*
G01*
X157518660Y-79602020D01*
X157899017Y-80417697D01*
X156811448Y-80924838D01*
X156431091Y-80109161D01*
G37*
%TD*%
%TO.C,D15*%
G36*
X105715152Y-75619636D02*
G01*
X106802721Y-76126777D01*
X106422364Y-76942454D01*
X105334795Y-76435313D01*
X105715152Y-75619636D01*
G37*
G36*
X107109792Y-72628820D02*
G01*
X108197361Y-73135961D01*
X107817004Y-73951638D01*
X106729435Y-73444497D01*
X107109792Y-72628820D01*
G37*
%TD*%
%TO.C,D14*%
G36*
X89551852Y-65324118D02*
G01*
X90639421Y-65831259D01*
X90259064Y-66646936D01*
X89171495Y-66139795D01*
X89551852Y-65324118D01*
G37*
G36*
X90946492Y-62333302D02*
G01*
X92034061Y-62840443D01*
X91653704Y-63656120D01*
X90566135Y-63148979D01*
X90946492Y-62333302D01*
G37*
%TD*%
%TO.C,D13*%
G36*
X74445095Y-52762835D02*
G01*
X75532664Y-53269976D01*
X75152307Y-54085653D01*
X74064738Y-53578512D01*
X74445095Y-52762835D01*
G37*
G36*
X75839735Y-49772019D02*
G01*
X76927304Y-50279160D01*
X76546947Y-51094837D01*
X75459378Y-50587696D01*
X75839735Y-49772019D01*
G37*
%TD*%
%TO.C,D12*%
G36*
X55112157Y-49264626D02*
G01*
X56199726Y-49771767D01*
X55819369Y-50587444D01*
X54731800Y-50080303D01*
X55112157Y-49264626D01*
G37*
G36*
X56506797Y-46273810D02*
G01*
X57594366Y-46780951D01*
X57214009Y-47596628D01*
X56126440Y-47089487D01*
X56506797Y-46273810D01*
G37*
%TD*%
%TO.C,D11*%
G36*
X32609582Y-52563726D02*
G01*
X33697151Y-53070867D01*
X33316794Y-53886544D01*
X32229225Y-53379403D01*
X32609582Y-52563726D01*
G37*
G36*
X34004222Y-49572910D02*
G01*
X35091791Y-50080051D01*
X34711434Y-50895728D01*
X33623865Y-50388587D01*
X34004222Y-49572910D01*
G37*
%TD*%
%TO.C,D10*%
G36*
X222901552Y-42824221D02*
G01*
X223989121Y-42317080D01*
X224369478Y-43132757D01*
X223281909Y-43639898D01*
X222901552Y-42824221D01*
G37*
G36*
X221506912Y-39833405D02*
G01*
X222594481Y-39326264D01*
X222974838Y-40141941D01*
X221887269Y-40649082D01*
X221506912Y-39833405D01*
G37*
%TD*%
%TO.C,D9*%
G36*
X200398977Y-39525121D02*
G01*
X201486546Y-39017980D01*
X201866903Y-39833657D01*
X200779334Y-40340798D01*
X200398977Y-39525121D01*
G37*
G36*
X199004337Y-36534305D02*
G01*
X200091906Y-36027164D01*
X200472263Y-36842841D01*
X199384694Y-37349982D01*
X199004337Y-36534305D01*
G37*
%TD*%
%TO.C,D8*%
G36*
X181066039Y-43023328D02*
G01*
X182153608Y-42516187D01*
X182533965Y-43331864D01*
X181446396Y-43839005D01*
X181066039Y-43023328D01*
G37*
G36*
X179671399Y-40032512D02*
G01*
X180758968Y-39525371D01*
X181139325Y-40341048D01*
X180051756Y-40848189D01*
X179671399Y-40032512D01*
G37*
%TD*%
%TO.C,D7*%
G36*
X165959283Y-55584614D02*
G01*
X167046852Y-55077473D01*
X167427209Y-55893150D01*
X166339640Y-56400291D01*
X165959283Y-55584614D01*
G37*
G36*
X164564643Y-52593798D02*
G01*
X165652212Y-52086657D01*
X166032569Y-52902334D01*
X164945000Y-53409475D01*
X164564643Y-52593798D01*
G37*
%TD*%
%TO.C,D6*%
G36*
X150933214Y-61200316D02*
G01*
X152020783Y-60693175D01*
X152401140Y-61508852D01*
X151313571Y-62015993D01*
X150933214Y-61200316D01*
G37*
G36*
X149538574Y-58209500D02*
G01*
X150626143Y-57702359D01*
X151006500Y-58518036D01*
X149918931Y-59025177D01*
X149538574Y-58209500D01*
G37*
%TD*%
%TO.C,D5*%
G36*
X113744899Y-58399789D02*
G01*
X114832468Y-58906930D01*
X114452111Y-59722607D01*
X113364542Y-59215466D01*
X113744899Y-58399789D01*
G37*
G36*
X115139539Y-55408973D02*
G01*
X116227108Y-55916114D01*
X115846751Y-56731791D01*
X114759182Y-56224650D01*
X115139539Y-55408973D01*
G37*
%TD*%
%TO.C,D4*%
G36*
X97581598Y-48104271D02*
G01*
X98669167Y-48611412D01*
X98288810Y-49427089D01*
X97201241Y-48919948D01*
X97581598Y-48104271D01*
G37*
G36*
X98976238Y-45113455D02*
G01*
X100063807Y-45620596D01*
X99683450Y-46436273D01*
X98595881Y-45929132D01*
X98976238Y-45113455D01*
G37*
%TD*%
%TO.C,D3*%
G36*
X82474842Y-35542988D02*
G01*
X83562411Y-36050129D01*
X83182054Y-36865806D01*
X82094485Y-36358665D01*
X82474842Y-35542988D01*
G37*
G36*
X83869482Y-32552172D02*
G01*
X84957051Y-33059313D01*
X84576694Y-33874990D01*
X83489125Y-33367849D01*
X83869482Y-32552172D01*
G37*
%TD*%
%TO.C,D2*%
G36*
X63141905Y-32044780D02*
G01*
X64229474Y-32551921D01*
X63849117Y-33367598D01*
X62761548Y-32860457D01*
X63141905Y-32044780D01*
G37*
G36*
X64536545Y-29053964D02*
G01*
X65624114Y-29561105D01*
X65243757Y-30376782D01*
X64156188Y-29869641D01*
X64536545Y-29053964D01*
G37*
%TD*%
%TO.C,D1*%
G36*
X40639330Y-35343880D02*
G01*
X41726899Y-35851021D01*
X41346542Y-36666698D01*
X40258973Y-36159557D01*
X40639330Y-35343880D01*
G37*
G36*
X42033970Y-32353064D02*
G01*
X43121539Y-32860205D01*
X42741182Y-33675882D01*
X41653613Y-33168741D01*
X42033970Y-32353064D01*
G37*
%TD*%
M02*
