  0
SECTION
  2
HEADER
  9
$ACADVER
  1
AC1006
  9
$EXTMIN
 10
0.000000
 20
0.000000
 30
0.000000
  9
$EXTMAX
 10
2344.000000
 20
1875.000000
 30
0.000000
  0
ENDSEC
  0
SECTION
  2
ENTITIES
  0
POLYLINE
  8
0
 66
1
 70
1
  0
VERTEX
  8
0
 10
101.249683
 20
1873.935860
 42
0.029596
  0
VERTEX
  8
0
 10
90.687392
 20
1871.917735
 42
0.021073
  0
VERTEX
  8
0
 10
79.139836
 20
1868.470438
 42
0.020983
  0
VERTEX
  8
0
 10
67.848383
 20
1864.036167
 42
0.028115
  0
VERTEX
  8
0
 10
58.054715
 20
1859.031955
 42
0.050392
  0
VERTEX
  8
0
 10
38.910568
 20
1845.094355
 42
0.051819
  0
VERTEX
  8
0
 10
23.140026
 20
1827.727312
 42
0.050962
  0
VERTEX
  8
0
 10
11.067270
 20
1807.210732
 42
0.045852
  0
VERTEX
  8
0
 10
2.878845
 20
1783.943925
 42
0.000000
  0
VERTEX
  8
0
 10
0.500000
 20
1774.500000
 42
0.000000
  0
VERTEX
  8
0
 10
0.500000
 20
937.000000
 42
0.000000
  0
VERTEX
  8
0
 10
0.500000
 20
99.500000
 42
0.000000
  0
VERTEX
  8
0
 10
3.150568
 20
89.914907
 42
0.031826
  0
VERTEX
  8
0
 10
9.942808
 20
70.303911
 42
0.042167
  0
VERTEX
  8
0
 10
18.684763
 20
53.566687
 42
0.043709
  0
VERTEX
  8
0
 10
29.825483
 20
39.002103
 42
0.038422
  0
VERTEX
  8
0
 10
43.787743
 20
25.899477
 42
0.026009
  0
VERTEX
  8
0
 10
54.037005
 20
18.507373
 42
0.028671
  0
VERTEX
  8
0
 10
64.679365
 20
12.477372
 42
0.027278
  0
VERTEX
  8
0
 10
76.402614
 20
7.470579
 42
0.019828
  0
VERTEX
  8
0
 10
89.914907
 20
3.150568
 42
0.000000
  0
VERTEX
  8
0
 10
99.500000
 20
0.500000
 42
0.000000
  0
VERTEX
  8
0
 10
1171.500000
 20
0.500000
 42
0.000000
  0
VERTEX
  8
0
 10
2243.500000
 20
0.500000
 42
0.000000
  0
VERTEX
  8
0
 10
2254.226819
 20
3.297157
 42
0.021564
  0
VERTEX
  8
0
 10
2267.397618
 20
7.345465
 42
0.028621
  0
VERTEX
  8
0
 10
2278.947600
 20
12.209019
 42
0.029336
  0
VERTEX
  8
0
 10
2289.640015
 20
18.252294
 42
0.024603
  0
VERTEX
  8
0
 10
2300.224844
 20
25.845439
 42
0.037785
  0
VERTEX
  8
0
 10
2312.518451
 20
37.229699
 42
0.036557
  0
VERTEX
  8
0
 10
2323.107416
 20
50.454285
 42
0.036363
  0
VERTEX
  8
0
 10
2331.707503
 20
65.152660
 42
0.036478
  0
VERTEX
  8
0
 10
2338.077014
 20
80.926613
 42
0.071294
  0
VERTEX
  8
0
 10
2342.272052
 20
105.585871
 42
0.004893
  0
VERTEX
  8
0
 10
2343.434321
 20
176.557125
 42
0.001679
  0
VERTEX
  8
0
 10
2343.891035
 20
317.918669
 42
0.000045
  0
VERTEX
  8
0
 10
2343.755340
 20
942.641517
 42
0.000000
  0
VERTEX
  8
0
 10
2343.500000
 20
1775.500000
 42
0.000000
  0
VERTEX
  8
0
 10
2340.849432
 20
1785.085093
 42
0.019828
  0
VERTEX
  8
0
 10
2336.529421
 20
1798.597386
 42
0.027278
  0
VERTEX
  8
0
 10
2331.522628
 20
1810.320635
 42
0.028671
  0
VERTEX
  8
0
 10
2325.492627
 20
1820.962995
 42
0.026009
  0
VERTEX
  8
0
 10
2318.100523
 20
1831.212257
 42
0.038192
  0
VERTEX
  8
0
 10
2305.033231
 20
1845.149647
 42
0.043182
  0
VERTEX
  8
0
 10
2290.492621
 20
1856.317488
 42
0.042079
  0
VERTEX
  8
0
 10
2273.916549
 20
1865.042864
 42
0.033254
  0
VERTEX
  8
0
 10
2254.764395
 20
1871.687348
 42
0.000000
  0
VERTEX
  8
0
 10
2244.500000
 20
1874.500000
 42
0.000000
  0
VERTEX
  8
0
 10
1176.000000
 20
1874.625291
 42
0.000071
  0
VERTEX
  8
0
 10
765.856351
 20
1874.614743
 42
0.000118
  0
VERTEX
  8
0
 10
419.535844
 20
1874.474454
 42
0.000004
  0
VERTEX
  8
0
 10
106.385021
 20
1874.270843
 42
0.032251
  0
SEQEND
  0
POLYLINE
  8
0
 66
1
 70
1
  0
VERTEX
  8
0
 10
2109.500000
 20
937.500000
 42
0.000000
  0
VERTEX
  8
0
 10
2109.500000
 20
234.500000
 42
0.000000
  0
VERTEX
  8
0
 10
1172.000000
 20
234.500000
 42
0.000000
  0
VERTEX
  8
0
 10
234.500000
 20
234.500000
 42
0.000000
  0
VERTEX
  8
0
 10
234.244473
 20
936.500000
 42
-0.000063
  0
VERTEX
  8
0
 10
234.180586
 20
1205.767759
 42
-0.000105
  0
VERTEX
  8
0
 10
234.203346
 20
1432.654844
 42
-0.000001
  0
VERTEX
  8
0
 10
234.267974
 20
1638.685838
 42
-0.090807
  0
VERTEX
  8
0
 10
234.463292
 20
1639.750531
 42
-0.311295
  0
VERTEX
  8
0
 10
235.544965
 20
1640.497990
 42
-0.000009
  0
VERTEX
  8
0
 10
422.494966
 20
1640.700536
 42
-0.000283
  0
VERTEX
  8
0
 10
684.123260
 20
1640.831564
 42
-0.000051
  0
VERTEX
  8
0
 10
1172.218819
 20
1640.750531
 42
0.000000
  0
VERTEX
  8
0
 10
2109.500000
 20
1640.500000
 42
0.000000
  0
SEQEND
  0
POLYLINE
  8
0
 66
1
 70
1
  0
VERTEX
  8
0
 10
482.000000
 20
937.500000
 42
0.000000
  0
VERTEX
  8
0
 10
482.000000
 20
474.000000
 42
0.000000
  0
VERTEX
  8
0
 10
667.445532
 20
474.000000
 42
0.000382
  0
VERTEX
  8
0
 10
749.463508
 20
474.062645
 42
0.000959
  0
VERTEX
  8
0
 10
809.265398
 20
474.268695
 42
0.000578
  0
VERTEX
  8
0
 10
854.690634
 20
474.564849
 42
0.018796
  0
VERTEX
  8
0
 10
865.695532
 20
475.063315
 42
0.017713
  0
VERTEX
  8
0
 10
896.065308
 20
478.672152
 42
0.019362
  0
VERTEX
  8
0
 10
925.205641
 20
484.349496
 42
0.020705
  0
VERTEX
  8
0
 10
951.570640
 20
491.718409
 42
0.032192
  0
VERTEX
  8
0
 10
973.500000
 20
500.434272
 42
0.021479
  0
VERTEX
  8
0
 10
989.526500
 20
508.892668
 42
0.022530
  0
VERTEX
  8
0
 10
1004.506785
 20
518.571319
 42
0.022225
  0
VERTEX
  8
0
 10
1018.738211
 20
529.687664
 42
0.019743
  0
VERTEX
  8
0
 10
1032.522330
 20
542.452904
 42
0.034397
  0
VERTEX
  8
0
 10
1056.318675
 20
569.831715
 42
0.032189
  0
VERTEX
  8
0
 10
1076.718317
 20
600.806878
 42
0.032118
  0
VERTEX
  8
0
 10
1093.014879
 20
634.217499
 42
0.033862
  0
VERTEX
  8
0
 10
1104.569118
 20
668.862998
 42
0.030469
  0
VERTEX
  8
0
 10
1110.560101
 20
699.472079
 42
0.029566
  0
VERTEX
  8
0
 10
1112.865786
 20
730.892906
 42
0.029713
  0
VERTEX
  8
0
 10
1111.447108
 20
762.207694
 42
0.031552
  0
VERTEX
  8
0
 10
1106.316922
 20
792.500000
 42
0.060585
  0
VERTEX
  8
0
 10
1088.724508
 20
840.416381
 42
0.056223
  0
VERTEX
  8
0
 10
1059.809331
 20
884.051848
 42
0.053713
  0
VERTEX
  8
0
 10
1020.516301
 20
921.843723
 42
0.046656
  0
VERTEX
  8
0
 10
972.248181
 20
952.466917
 42
0.000000
  0
VERTEX
  8
0
 10
960.996362
 20
958.212405
 42
0.000000
  0
VERTEX
  8
0
 10
971.748181
 20
964.911824
 42
0.038389
  0
VERTEX
  8
0
 10
1012.336842
 20
994.753068
 42
0.048612
  0
VERTEX
  8
0
 10
1044.494545
 20
1028.388581
 42
0.051501
  0
VERTEX
  8
0
 10
1068.125692
 20
1065.840543
 42
0.052794
  0
VERTEX
  8
0
 10
1083.369274
 20
1107.026463
 42
0.012585
  0
VERTEX
  8
0
 10
1086.848748
 20
1122.311595
 42
0.020237
  0
VERTEX
  8
0
 10
1088.953552
 20
1135.506288
 42
0.019240
  0
VERTEX
  8
0
 10
1090.048313
 20
1149.292545
 42
0.010083
  0
VERTEX
  8
0
 10
1090.402895
 20
1166.500000
 42
0.010044
  0
VERTEX
  8
0
 10
1090.064330
 20
1183.727772
 42
0.019142
  0
VERTEX
  8
0
 10
1088.984761
 20
1197.537269
 42
0.020446
  0
VERTEX
  8
0
 10
1086.913060
 20
1210.608728
 42
0.013471
  0
VERTEX
  8
0
 10
1083.516118
 20
1225.450014
 42
0.035074
  0
VERTEX
  8
0
 10
1073.936438
 20
1254.158783
 42
0.035250
  0
VERTEX
  8
0
 10
1060.451022
 20
1281.196651
 42
0.035146
  0
VERTEX
  8
0
 10
1043.258529
 20
1306.145004
 42
0.034420
  0
VERTEX
  8
0
 10
1022.629768
 20
1328.625744
 42
0.042214
  0
VERTEX
  8
0
 10
987.866738
 20
1356.459067
 42
0.043472
  0
VERTEX
  8
0
 10
949.250923
 20
1377.749782
 42
0.042858
  0
VERTEX
  8
0
 10
907.018219
 20
1392.278028
 42
0.038820
  0
VERTEX
  8
0
 10
861.500000
 20
1400.000579
 42
0.020942
  0
VERTEX
  8
0
 10
852.287543
 20
1400.448473
 42
0.000397
  0
VERTEX
  8
0
 10
804.260585
 20
1400.732258
 42
0.000870
  0
VERTEX
  8
0
 10
744.093550
 20
1400.935324
 42
0.000408
  0
VERTEX
  8
0
 10
666.250000
 20
1400.999164
 42
0.000000
  0
VERTEX
  8
0
 10
482.000000
 20
1401.000000
 42
0.000000
  0
SEQEND
  0
POLYLINE
  8
0
 66
1
 70
1
  0
VERTEX
  8
0
 10
868.000000
 20
1253.113727
 42
-0.013427
  0
VERTEX
  8
0
 10
877.369924
 20
1251.220720
 42
-0.018841
  0
VERTEX
  8
0
 10
885.608239
 20
1248.994921
 42
-0.019985
  0
VERTEX
  8
0
 10
893.261920
 20
1246.274453
 42
-0.018629
  0
VERTEX
  8
0
 10
900.859073
 20
1242.893281
 42
-0.059623
  0
VERTEX
  8
0
 10
915.813821
 20
1233.199915
 42
-0.063434
  0
VERTEX
  8
0
 10
927.708892
 20
1220.428859
 42
-0.060374
  0
VERTEX
  8
0
 10
936.459624
 20
1204.509247
 42
-0.046552
  0
VERTEX
  8
0
 10
942.110711
 20
1185.500000
 42
-0.039653
  0
VERTEX
  8
0
 10
943.200459
 20
1176.201089
 42
-0.009339
  0
VERTEX
  8
0
 10
943.493579
 20
1160.541712
 42
-0.009560
  0
VERTEX
  8
0
 10
943.193551
 20
1144.820249
 42
-0.035727
  0
VERTEX
  8
0
 10
942.112666
 20
1135.000000
 42
-0.036247
  0
VERTEX
  8
0
 10
937.056035
 20
1115.482823
 42
-0.039421
  0
VERTEX
  8
0
 10
929.336315
 20
1097.464389
 42
-0.039255
  0
VERTEX
  8
0
 10
918.850681
 20
1080.815399
 42
-0.035367
  0
VERTEX
  8
0
 10
905.550352
 20
1065.379624
 42
-0.009678
  0
VERTEX
  8
0
 10
901.081340
 20
1061.050374
 42
-0.007055
  0
VERTEX
  8
0
 10
895.955416
 20
1056.406948
 42
-0.007132
  0
VERTEX
  8
0
 10
890.968437
 20
1052.140603
 42
-0.015551
  0
VERTEX
  8
0
 10
887.000000
 20
1049.045936
 42
-0.025005
  0
VERTEX
  8
0
 10
877.497913
 20
1042.803953
 42
-0.021851
  0
VERTEX
  8
0
 10
866.990604
 20
1037.232916
 42
-0.022672
  0
VERTEX
  8
0
 10
856.717257
 20
1032.907714
 42
-0.042019
  0
VERTEX
  8
0
 10
848.000000
 20
1030.502990
 42
-0.034009
  0
VERTEX
  8
0
 10
833.131577
 20
1028.752630
 42
-0.006348
  0
VERTEX
  8
0
 10
805.672822
 20
1027.750047
 42
-0.005084
  0
VERTEX
  8
0
 10
766.661906
 20
1027.218210
 42
-0.001731
  0
VERTEX
  8
0
 10
710.000000
 20
1027.218054
 42
0.000000
  0
VERTEX
  8
0
 10
628.500000
 20
1027.500000
 42
0.000000
  0
VERTEX
  8
0
 10
628.242534
 20
1140.000000
 42
-0.000418
  0
VERTEX
  8
0
 10
628.179742
 20
1183.227718
 42
-0.000685
  0
VERTEX
  8
0
 10
628.207331
 20
1219.837992
 42
-0.000053
  0
VERTEX
  8
0
 10
628.280625
 20
1252.711048
 42
-0.090668
  0
VERTEX
  8
0
 10
628.484244
 20
1253.810186
 42
-0.311916
  0
VERTEX
  8
0
 10
630.365884
 20
1255.103220
 42
-0.000069
  0
VERTEX
  8
0
 10
744.656446
 20
1254.786652
 42
-0.000374
  0
VERTEX
  8
0
 10
853.627958
 20
1254.388248
 42
-0.042047
  0
SEQEND
  0
POLYLINE
  8
0
 66
1
 70
1
  0
VERTEX
  8
0
 10
856.000000
 20
876.114764
 42
-0.034658
  0
VERTEX
  8
0
 10
868.052452
 20
873.125188
 42
-0.025012
  0
VERTEX
  8
0
 10
881.006533
 20
868.213081
 42
-0.024937
  0
VERTEX
  8
0
 10
893.461931
 20
862.006022
 42
-0.033481
  0
VERTEX
  8
0
 10
904.013390
 20
855.106253
 42
-0.027711
  0
VERTEX
  8
0
 10
911.767134
 20
848.555876
 42
-0.017375
  0
VERTEX
  8
0
 10
920.112869
 20
840.105595
 42
-0.017163
  0
VERTEX
  8
0
 10
928.032977
 20
830.893068
 42
-0.023072
  0
VERTEX
  8
0
 10
934.512223
 20
822.000000
 42
-0.029505
  0
VERTEX
  8
0
 10
947.577422
 20
799.418361
 42
-0.040482
  0
VERTEX
  8
0
 10
956.379144
 20
777.673043
 42
-0.041667
  0
VERTEX
  8
0
 10
961.391755
 20
755.299395
 42
-0.034157
  0
VERTEX
  8
0
 10
963.077284
 20
730.848732
 42
-0.030642
  0
VERTEX
  8
0
 10
961.587389
 20
706.344188
 42
-0.048563
  0
VERTEX
  8
0
 10
957.020991
 20
685.831426
 42
-0.054776
  0
VERTEX
  8
0
 10
949.141543
 20
668.446157
 42
-0.056243
  0
VERTEX
  8
0
 10
937.732508
 20
653.355250
 42
-0.044806
  0
VERTEX
  8
0
 10
926.170883
 20
643.183534
 42
-0.045954
  0
VERTEX
  8
0
 10
913.075567
 20
635.331380
 42
-0.042101
  0
VERTEX
  8
0
 10
897.755702
 20
629.492388
 42
-0.028390
  0
VERTEX
  8
0
 10
879.500000
 20
625.348183
 42
-0.030737
  0
VERTEX
  8
0
 10
869.266159
 20
624.269585
 42
-0.007362
  0
VERTEX
  8
0
 10
852.177152
 20
623.776767
 42
-0.003218
  0
VERTEX
  8
0
 10
822.004972
 20
623.545331
 42
-0.000308
  0
VERTEX
  8
0
 10
748.500000
 20
623.500000
 42
0.000000
  0
VERTEX
  8
0
 10
628.500000
 20
623.500000
 42
0.000000
  0
VERTEX
  8
0
 10
628.246179
 20
750.805699
 42
0.000000
  0
VERTEX
  8
0
 10
627.992358
 20
878.111398
 42
0.000000
  0
VERTEX
  8
0
 10
738.746179
 20
877.683861
 42
-0.000597
  0
VERTEX
  8
0
 10
789.628299
 20
877.426645
 42
-0.001783
  0
VERTEX
  8
0
 10
824.454678
 20
877.084792
 42
-0.001105
  0
VERTEX
  8
0
 10
850.062129
 20
876.685515
 42
-0.039033
  0
SEQEND
  0
POLYLINE
  8
0
 66
1
 70
1
  0
VERTEX
  8
0
 10
1269.000000
 20
937.500000
 42
0.000000
  0
VERTEX
  8
0
 10
1269.000000
 20
474.000000
 42
0.000000
  0
VERTEX
  8
0
 10
1454.445532
 20
474.000000
 42
0.000382
  0
VERTEX
  8
0
 10
1536.463508
 20
474.062645
 42
0.000959
  0
VERTEX
  8
0
 10
1596.265398
 20
474.268695
 42
0.000578
  0
VERTEX
  8
0
 10
1641.690634
 20
474.564849
 42
0.018796
  0
VERTEX
  8
0
 10
1652.695532
 20
475.063315
 42
0.012956
  0
VERTEX
  8
0
 10
1674.874721
 20
477.485136
 42
0.013691
  0
VERTEX
  8
0
 10
1696.491641
 20
481.019216
 42
0.014080
  0
VERTEX
  8
0
 10
1717.273728
 20
485.613963
 42
0.015855
  0
VERTEX
  8
0
 10
1736.948319
 20
491.217327
 42
0.030630
  0
VERTEX
  8
0
 10
1759.320486
 20
499.905074
 42
0.030605
  0
VERTEX
  8
0
 10
1780.469885
 20
511.263100
 42
0.030143
  0
VERTEX
  8
0
 10
1800.369122
 20
525.298698
 42
0.027811
  0
VERTEX
  8
0
 10
1819.007168
 20
541.984013
 42
0.039183
  0
VERTEX
  8
0
 10
1846.588201
 20
574.288380
 42
0.037668
  0
VERTEX
  8
0
 10
1869.197766
 20
610.913510
 42
0.037714
  0
VERTEX
  8
0
 10
1886.032318
 20
650.469778
 42
0.039509
  0
VERTEX
  8
0
 10
1896.421471
 20
691.500000
 42
0.026328
  0
VERTEX
  8
0
 10
1899.313481
 20
716.238818
 42
0.023404
  0
VERTEX
  8
0
 10
1899.752046
 20
742.141719
 42
0.023503
  0
VERTEX
  8
0
 10
1897.772076
 20
767.848940
 42
0.027247
  0
VERTEX
  8
0
 10
1893.418579
 20
792.000000
 42
0.059542
  0
VERTEX
  8
0
 10
1875.666575
 20
840.365910
 42
0.056640
  0
VERTEX
  8
0
 10
1846.782690
 20
884.081853
 42
0.054148
  0
VERTEX
  8
0
 10
1807.485647
 20
921.850927
 42
0.046265
  0
VERTEX
  8
0
 10
1758.946426
 20
952.616265
 42
0.000000
  0
VERTEX
  8
0
 10
1747.996362
 20
958.212405
 42
0.000000
  0
VERTEX
  8
0
 10
1759.171904
 20
965.150530
 42
0.026879
  0
VERTEX
  8
0
 10
1786.153031
 20
983.981707
 42
0.028754
  0
VERTEX
  8
0
 10
1810.325969
 20
1005.207800
 42
0.029749
  0
VERTEX
  8
0
 10
1831.134575
 20
1028.308532
 42
0.034028
  0
VERTEX
  8
0
 10
1848.058048
 20
1052.743681
 42
0.059263
  0
VERTEX
  8
0
 10
1867.078233
 20
1095.413571
 42
0.051536
  0
VERTEX
  8
0
 10
1876.708339
 20
1143.426539
 42
0.050715
  0
VERTEX
  8
0
 10
1876.390982
 20
1193.180675
 42
0.053276
  0
VERTEX
  8
0
 10
1865.989806
 20
1241.000000
 42
0.023364
  0
VERTEX
  8
0
 10
1861.675987
 20
1252.210193
 42
0.011040
  0
VERTEX
  8
0
 10
1855.127169
 20
1266.261117
 42
0.011057
  0
VERTEX
  8
0
 10
1847.880946
 20
1280.168448
 42
0.020817
  0
VERTEX
  8
0
 10
1841.328033
 20
1291.000000
 42
0.056852
  0
VERTEX
  8
0
 10
1809.242971
 20
1329.147951
 42
0.050910
  0
VERTEX
  8
0
 10
1768.252537
 20
1360.711655
 42
0.049788
  0
VERTEX
  8
0
 10
1720.775927
 20
1383.937084
 42
0.049336
  0
VERTEX
  8
0
 10
1669.500000
 20
1397.406563
 42
0.025778
  0
VERTEX
  8
0
 10
1649.997223
 20
1399.496371
 42
0.009648
  0
VERTEX
  8
0
 10
1622.492569
 20
1400.484415
 42
0.003813
  0
VERTEX
  8
0
 10
1574.403229
 20
1400.916536
 42
0.000339
  0
VERTEX
  8
0
 10
1453.250000
 20
1400.999164
 42
0.000000
  0
VERTEX
  8
0
 10
1269.000000
 20
1401.000000
 42
0.000000
  0
SEQEND
  0
POLYLINE
  8
0
 66
1
 70
1
  0
VERTEX
  8
0
 10
1655.000000
 20
1253.113727
 42
-0.013457
  0
VERTEX
  8
0
 10
1664.383166
 20
1251.217456
 42
-0.018911
  0
VERTEX
  8
0
 10
1672.628566
 20
1248.987441
 42
-0.020030
  0
VERTEX
  8
0
 10
1680.298667
 20
1246.256898
 42
-0.018494
  0
VERTEX
  8
0
 10
1687.936734
 20
1242.854677
 42
-0.012424
  0
VERTEX
  8
0
 10
1693.860872
 20
1239.763903
 42
-0.029656
  0
VERTEX
  8
0
 10
1698.049784
 20
1237.108294
 42
-0.028869
  0
VERTEX
  8
0
 10
1701.960506
 20
1233.932664
 42
-0.011220
  0
VERTEX
  8
0
 10
1707.004303
 20
1229.117660
 42
-0.037165
  0
VERTEX
  8
0
 10
1714.823923
 20
1220.054359
 42
-0.041927
  0
VERTEX
  8
0
 10
1720.869702
 20
1210.276257
 42
-0.038980
  0
VERTEX
  8
0
 10
1725.521866
 20
1199.023963
 42
-0.025724
  0
VERTEX
  8
0
 10
1729.158413
 20
1185.500000
 42
-0.044748
  0
VERTEX
  8
0
 10
1730.212519
 20
1176.889213
 42
-0.008180
  0
VERTEX
  8
0
 10
1730.469776
 20
1160.826411
 42
-0.008698
  0
VERTEX
  8
0
 10
1730.183395
 20
1144.687057
 42
-0.036047
  0
VERTEX
  8
0
 10
1729.140938
 20
1135.000000
 42
-0.020050
  0
VERTEX
  8
0
 10
1727.355390
 20
1126.991054
 42
-0.012594
  0
VERTEX
  8
0
 10
1724.661239
 20
1117.782868
 42
-0.012603
  0
VERTEX
  8
0
 10
1721.512851
 20
1108.739788
 42
-0.020388
  0
VERTEX
  8
0
 10
1718.333578
 20
1101.241139
 42
-0.038282
  0
VERTEX
  8
0
 10
1710.464241
 20
1087.442835
 42
-0.027333
  0
VERTEX
  8
0
 10
1699.706593
 20
1073.276633
 42
-0.026850
  0
VERTEX
  8
0
 10
1687.186076
 20
1060.045801
 42
-0.032029
  0
VERTEX
  8
0
 10
1674.000000
 20
1049.045936
 42
-0.025005
  0
VERTEX
  8
0
 10
1664.497913
 20
1042.803953
 42
-0.021851
  0
VERTEX
  8
0
 10
1653.990604
 20
1037.232916
 42
-0.022672
  0
VERTEX
  8
0
 10
1643.717257
 20
1032.907714
 42
-0.042019
  0
VERTEX
  8
0
 10
1635.000000
 20
1030.502990
 42
-0.034009
  0
VERTEX
  8
0
 10
1620.131577
 20
1028.752630
 42
-0.006348
  0
VERTEX
  8
0
 10
1592.672822
 20
1027.750047
 42
-0.005084
  0
VERTEX
  8
0
 10
1553.661906
 20
1027.218210
 42
-0.001731
  0
VERTEX
  8
0
 10
1497.000000
 20
1027.218054
 42
0.000000
  0
VERTEX
  8
0
 10
1415.500000
 20
1027.500000
 42
0.000000
  0
VERTEX
  8
0
 10
1415.242534
 20
1140.000000
 42
-0.000418
  0
VERTEX
  8
0
 10
1415.179742
 20
1183.227718
 42
-0.000685
  0
VERTEX
  8
0
 10
1415.207331
 20
1219.837992
 42
-0.000053
  0
VERTEX
  8
0
 10
1415.280625
 20
1252.711048
 42
-0.090668
  0
VERTEX
  8
0
 10
1415.484244
 20
1253.810186
 42
-0.311916
  0
VERTEX
  8
0
 10
1417.365884
 20
1255.103220
 42
-0.000069
  0
VERTEX
  8
0
 10
1531.656446
 20
1254.786652
 42
-0.000374
  0
VERTEX
  8
0
 10
1640.627958
 20
1254.388248
 42
-0.042047
  0
SEQEND
  0
POLYLINE
  8
0
 66
1
 70
1
  0
VERTEX
  8
0
 10
1643.000000
 20
876.117056
 42
-0.067239
  0
VERTEX
  8
0
 10
1670.051611
 20
867.517698
 42
-0.062861
  0
VERTEX
  8
0
 10
1694.537019
 20
851.905521
 42
-0.057992
  0
VERTEX
  8
0
 10
1715.982483
 20
829.421872
 42
-0.044045
  0
VERTEX
  8
0
 10
1734.029799
 20
800.500000
 42
-0.028559
  0
VERTEX
  8
0
 10
1741.264257
 20
783.979173
 42
-0.032579
  0
VERTEX
  8
0
 10
1746.207557
 20
767.444494
 42
-0.031713
  0
VERTEX
  8
0
 10
1749.053883
 20
750.024947
 42
-0.024646
  0
VERTEX
  8
0
 10
1750.000000
 20
730.842180
 42
-0.017757
  0
VERTEX
  8
0
 10
1749.382881
 20
713.470679
 42
-0.031563
  0
VERTEX
  8
0
 10
1747.469112
 20
699.287748
 42
-0.034951
  0
VERTEX
  8
0
 10
1743.967313
 20
686.490680
 42
-0.028852
  0
VERTEX
  8
0
 10
1738.527641
 20
673.430781
 42
-0.038406
  0
VERTEX
  8
0
 10
1731.615340
 20
661.609737
 42
-0.044317
  0
VERTEX
  8
0
 10
1723.262533
 20
651.581063
 42
-0.044149
  0
VERTEX
  8
0
 10
1713.243993
 20
643.151113
 42
-0.037622
  0
VERTEX
  8
0
 10
1701.366511
 20
636.095027
 42
-0.020831
  0
VERTEX
  8
0
 10
1693.513982
 20
632.595983
 42
-0.019637
  0
VERTEX
  8
0
 10
1685.242982
 20
629.686422
 42
-0.018541
  0
VERTEX
  8
0
 10
1676.318467
 20
627.294037
 42
-0.014594
  0
VERTEX
  8
0
 10
1666.500000
 20
625.348183
 42
-0.030737
  0
VERTEX
  8
0
 10
1656.266159
 20
624.269585
 42
-0.007362
  0
VERTEX
  8
0
 10
1639.177152
 20
623.776767
 42
-0.003218
  0
VERTEX
  8
0
 10
1609.004972
 20
623.545331
 42
-0.000308
  0
VERTEX
  8
0
 10
1535.500000
 20
623.500000
 42
0.000000
  0
VERTEX
  8
0
 10
1415.500000
 20
623.500000
 42
0.000000
  0
VERTEX
  8
0
 10
1415.246179
 20
750.805699
 42
0.000000
  0
VERTEX
  8
0
 10
1414.992358
 20
878.111398
 42
0.000000
  0
VERTEX
  8
0
 10
1525.746179
 20
877.683861
 42
-0.000599
  0
VERTEX
  8
0
 10
1576.550181
 20
877.426881
 42
-0.001776
  0
VERTEX
  8
0
 10
1611.403626
 20
877.084994
 42
-0.001094
  0
VERTEX
  8
0
 10
1637.070127
 20
876.685832
 42
-0.038962
  0
SEQEND
  0
ENDSEC
  0
EOF
