  0
SECTION
  2
HEADER
  9
$ACADVER
  1
AC1009
  9
$EXTMIN
 10
0.0
 20
0.0
 30
0.0
  9
$EXTMAX
 10
1000.0
 20
1000.0
 30
0.0
  9
$FILLMODE
 70
 0
  9
$SPLFRAME
 70
 1
  0
ENDSEC
  0
SECTION
  2
TABLES
  0
TABLE
  2
LAYER
 70
1
  0
LAYER
  2
0
 70
     0
 62
     7
  6
CONTINUOUS
  0
ENDTAB
  0
ENDSEC
  0
SECTION
  2
ENTITIES
  0
LINE
  8
0
 62
     0
 10
9.92188
 20
158.75
 30
0.0
 11
188.516
 21
158.75
 31
0.0
  0
LINE
  8
0
 62
     0
 10
188.516
 20
158.75
 30
0.0
 11
189.016
 21
158.75
 31
0.0
  0
LINE
  8
0
 62
     0
 10
189.016
 20
158.75
 30
0.0
 11
190.519
 21
158.55
 31
0.0
  0
LINE
  8
0
 62
     0
 10
190.519
 20
158.55
 30
0.0
 11
192.384
 21
157.973
 31
0.0
  0
LINE
  8
0
 62
     0
 10
192.384
 20
157.973
 30
0.0
 11
194.07
 21
157.061
 31
0.0
  0
LINE
  8
0
 62
     0
 10
194.07
 20
157.061
 30
0.0
 11
195.537
 21
155.851
 31
0.0
  0
LINE
  8
0
 62
     0
 10
195.537
 20
155.851
 30
0.0
 11
196.747
 21
154.384
 31
0.0
  0
LINE
  8
0
 62
     0
 10
196.747
 20
154.384
 30
0.0
 11
197.659
 21
152.698
 31
0.0
  0
LINE
  8
0
 62
     0
 10
197.659
 20
152.698
 30
0.0
 11
198.236
 21
150.833
 31
0.0
  0
LINE
  8
0
 62
     0
 10
198.236
 20
150.833
 30
0.0
 11
198.438
 21
149.33
 31
0.0
  0
LINE
  8
0
 62
     0
 10
198.438
 20
149.33
 30
0.0
 11
198.438
 21
148.828
 31
0.0
  0
LINE
  8
0
 62
     0
 10
198.438
 20
148.828
 30
0.0
 11
198.438
 21
9.92188
 31
0.0
  0
LINE
  8
0
 62
     0
 10
198.438
 20
9.92188
 30
0.0
 11
198.438
 21
9.42164
 31
0.0
  0
LINE
  8
0
 62
     0
 10
198.438
 20
9.42164
 30
0.0
 11
198.236
 21
7.9182
 31
0.0
  0
LINE
  8
0
 62
     0
 10
198.236
 20
7.9182
 30
0.0
 11
197.659
 21
6.05374
 31
0.0
  0
LINE
  8
0
 62
     0
 10
197.659
 20
6.05374
 30
0.0
 11
196.747
 21
4.367
 31
0.0
  0
LINE
  8
0
 62
     0
 10
196.747
 20
4.367
 30
0.0
 11
195.537
 21
2.90077
 31
0.0
  0
LINE
  8
0
 62
     0
 10
195.537
 20
2.90077
 30
0.0
 11
194.07
 21
1.69085
 31
0.0
  0
LINE
  8
0
 62
     0
 10
194.07
 20
1.69085
 30
0.0
 11
192.384
 21
0.778591
 31
0.0
  0
LINE
  8
0
 62
     0
 10
192.384
 20
0.778591
 30
0.0
 11
190.519
 21
0.201194
 31
0.0
  0
LINE
  8
0
 62
     0
 10
190.519
 20
0.201194
 30
0.0
 11
189.016
 21
0
 31
0.0
  0
LINE
  8
0
 62
     0
 10
189.016
 20
0
 30
0.0
 11
188.516
 21
0
 31
0.0
  0
LINE
  8
0
 62
     0
 10
188.516
 20
0
 30
0.0
 11
9.92188
 21
0
 31
0.0
  0
LINE
  8
0
 62
     0
 10
9.92188
 20
0
 30
0.0
 11
9.42026
 21
0
 31
0.0
  0
LINE
  8
0
 62
     0
 10
9.42026
 20
0
 30
0.0
 11
7.91683
 21
0.201194
 31
0.0
  0
LINE
  8
0
 62
     0
 10
7.91683
 20
0.201194
 30
0.0
 11
6.05236
 21
0.778591
 31
0.0
  0
LINE
  8
0
 62
     0
 10
6.05236
 20
0.778591
 30
0.0
 11
4.36563
 21
1.69085
 31
0.0
  0
LINE
  8
0
 62
     0
 10
4.36563
 20
1.69085
 30
0.0
 11
2.89939
 21
2.90077
 31
0.0
  0
LINE
  8
0
 62
     0
 10
2.89939
 20
2.90077
 30
0.0
 11
1.68947
 21
4.367
 31
0.0
  0
LINE
  8
0
 62
     0
 10
1.68947
 20
4.367
 30
0.0
 11
0.777215
 21
6.05374
 31
0.0
  0
LINE
  8
0
 62
     0
 10
0.777215
 20
6.05374
 30
0.0
 11
0.199815
 21
7.9182
 31
0.0
  0
LINE
  8
0
 62
     0
 10
0.199815
 20
7.9182
 30
0.0
 11
0
 21
9.42164
 31
0.0
  0
LINE
  8
0
 62
     0
 10
0
 20
9.42164
 30
0.0
 11
0
 21
9.92188
 31
0.0
  0
LINE
  8
0
 62
     0
 10
0
 20
9.92188
 30
0.0
 11
0
 21
148.828
 31
0.0
  0
LINE
  8
0
 62
     0
 10
0
 20
148.828
 30
0.0
 11
0
 21
149.33
 31
0.0
  0
LINE
  8
0
 62
     0
 10
0
 20
149.33
 30
0.0
 11
0.199815
 21
150.833
 31
0.0
  0
LINE
  8
0
 62
     0
 10
0.199815
 20
150.833
 30
0.0
 11
0.777215
 21
152.698
 31
0.0
  0
LINE
  8
0
 62
     0
 10
0.777215
 20
152.698
 30
0.0
 11
1.68947
 21
154.384
 31
0.0
  0
LINE
  8
0
 62
     0
 10
1.68947
 20
154.384
 30
0.0
 11
2.89939
 21
155.851
 31
0.0
  0
LINE
  8
0
 62
     0
 10
2.89939
 20
155.851
 30
0.0
 11
4.36563
 21
157.061
 31
0.0
  0
LINE
  8
0
 62
     0
 10
4.36563
 20
157.061
 30
0.0
 11
6.05236
 21
157.973
 31
0.0
  0
LINE
  8
0
 62
     0
 10
6.05236
 20
157.973
 30
0.0
 11
7.91683
 21
158.55
 31
0.0
  0
LINE
  8
0
 62
     0
 10
7.91683
 20
158.55
 30
0.0
 11
9.42026
 21
158.75
 31
0.0
  0
LINE
  8
0
 62
     0
 10
9.42026
 20
158.75
 30
0.0
 11
9.92188
 21
158.75
 31
0.0
  0
LINE
  8
0
 62
     7
 10
19.8438
 20
138.906
 30
0.0
 11
178.594
 21
138.906
 31
0.0
  0
LINE
  8
0
 62
     7
 10
178.594
 20
138.906
 30
0.0
 11
178.594
 21
19.8438
 31
0.0
  0
LINE
  8
0
 62
     7
 10
178.594
 20
19.8438
 30
0.0
 11
19.8438
 21
19.8438
 31
0.0
  0
LINE
  8
0
 62
     7
 10
19.8438
 20
19.8438
 30
0.0
 11
19.8438
 21
138.906
 31
0.0
  0
LINE
  8
0
 62
     0
 10
94.2287
 20
62.1439
 30
0.0
 11
94.2287
 21
60.5621
 31
0.0
  0
LINE
  8
0
 62
     0
 10
94.2287
 20
60.5621
 30
0.0
 11
93.4477
 21
56.3411
 31
0.0
  0
LINE
  8
0
 62
     0
 10
93.4477
 20
56.3411
 30
0.0
 11
93.2917
 21
55.8133
 31
0.0
  0
LINE
  8
0
 62
     0
 10
93.2917
 20
55.8133
 30
0.0
 11
93.1347
 21
55.287
 31
0.0
  0
LINE
  8
0
 62
     0
 10
93.1347
 20
55.287
 30
0.0
 11
90.8872
 21
50.4017
 31
0.0
  0
LINE
  8
0
 62
     0
 10
90.8872
 20
50.4017
 30
0.0
 11
90.5951
 21
49.9526
 31
0.0
  0
LINE
  8
0
 62
     0
 10
90.5951
 20
49.9526
 30
0.0
 11
90.3206
 21
49.5032
 31
0.0
  0
LINE
  8
0
 62
     0
 10
90.3206
 20
49.5032
 30
0.0
 11
88.7772
 21
47.4031
 31
0.0
  0
LINE
  8
0
 62
     0
 10
88.7772
 20
47.4031
 30
0.0
 11
86.9996
 21
45.4988
 31
0.0
  0
LINE
  8
0
 62
     0
 10
86.9996
 20
45.4988
 30
0.0
 11
86.6098
 21
45.1474
 31
0.0
  0
LINE
  8
0
 62
     0
 10
86.6098
 20
45.1474
 30
0.0
 11
86.2376
 21
44.8151
 31
0.0
  0
LINE
  8
0
 62
     0
 10
86.2376
 20
44.8151
 30
0.0
 11
84.2352
 21
43.3599
 31
0.0
  0
LINE
  8
0
 62
     0
 10
84.2352
 20
43.3599
 30
0.0
 11
82.0374
 21
42.1778
 31
0.0
  0
LINE
  8
0
 62
     0
 10
82.0374
 20
42.1778
 30
0.0
 11
81.5689
 21
41.982
 31
0.0
  0
LINE
  8
0
 62
     0
 10
81.5689
 20
41.982
 30
0.0
 11
81.2176
 21
41.8454
 31
0.0
  0
LINE
  8
0
 62
     0
 10
81.2176
 20
41.8454
 30
0.0
 11
79.1958
 21
41.2214
 31
0.0
  0
LINE
  8
0
 62
     0
 10
79.1958
 20
41.2214
 30
0.0
 11
76.8216
 21
40.6728
 31
0.0
  0
LINE
  8
0
 62
     0
 10
76.8216
 20
40.6728
 30
0.0
 11
76.2953
 21
40.5751
 31
0.0
  0
LINE
  8
0
 62
     0
 10
76.2953
 20
40.5751
 30
0.0
 11
75.7865
 21
40.4978
 31
0.0
  0
LINE
  8
0
 62
     0
 10
75.7865
 20
40.4978
 30
0.0
 11
71.8591
 21
40.1066
 31
0.0
  0
LINE
  8
0
 62
     0
 10
71.8591
 20
40.1066
 30
0.0
 11
70.5513
 21
40.1066
 31
0.0
  0
LINE
  8
0
 62
     0
 10
70.5513
 20
40.1066
 30
0.0
 11
40.7762
 21
40.1066
 31
0.0
  0
LINE
  8
0
 62
     0
 10
40.7762
 20
40.1066
 30
0.0
 11
40.7762
 21
118.644
 31
0.0
  0
LINE
  8
0
 62
     0
 10
40.7762
 20
118.644
 30
0.0
 11
70.5513
 21
118.644
 31
0.0
  0
LINE
  8
0
 62
     0
 10
70.5513
 20
118.644
 30
0.0
 11
71.6788
 21
118.644
 31
0.0
  0
LINE
  8
0
 62
     0
 10
71.6788
 20
118.644
 30
0.0
 11
75.063
 21
118.263
 31
0.0
  0
LINE
  8
0
 62
     0
 10
75.063
 20
118.263
 30
0.0
 11
78.5604
 21
117.374
 31
0.0
  0
LINE
  8
0
 62
     0
 10
78.5604
 20
117.374
 30
0.0
 11
79.2247
 21
117.119
 31
0.0
  0
LINE
  8
0
 62
     0
 10
79.2247
 20
117.119
 30
0.0
 11
79.889
 21
116.866
 31
0.0
  0
LINE
  8
0
 62
     0
 10
79.889
 20
116.866
 30
0.0
 11
82.9455
 21
115.303
 31
0.0
  0
LINE
  8
0
 62
     0
 10
82.9455
 20
115.303
 30
0.0
 11
85.652
 21
113.349
 31
0.0
  0
LINE
  8
0
 62
     0
 10
85.652
 20
113.349
 30
0.0
 11
86.1413
 21
112.9
 31
0.0
  0
LINE
  8
0
 62
     0
 10
86.1413
 20
112.9
 30
0.0
 11
86.6292
 21
112.47
 31
0.0
  0
LINE
  8
0
 62
     0
 10
86.6292
 20
112.47
 30
0.0
 11
88.7483
 21
110.059
 31
0.0
  0
LINE
  8
0
 62
     0
 10
88.7483
 20
110.059
 30
0.0
 11
90.4378
 21
107.294
 31
0.0
  0
LINE
  8
0
 62
     0
 10
90.4378
 20
107.294
 30
0.0
 11
90.7122
 21
106.688
 31
0.0
  0
LINE
  8
0
 62
     0
 10
90.7122
 20
106.688
 30
0.0
 11
90.9849
 21
106.083
 31
0.0
  0
LINE
  8
0
 62
     0
 10
90.9849
 20
106.083
 30
0.0
 11
91.9427
 21
102.908
 31
0.0
  0
LINE
  8
0
 62
     0
 10
91.9427
 20
102.908
 30
0.0
 11
92.3533
 21
99.8527
 31
0.0
  0
LINE
  8
0
 62
     0
 10
92.3533
 20
99.8527
 30
0.0
 11
92.3533
 21
98.8342
 31
0.0
  0
LINE
  8
0
 62
     0
 10
92.3533
 20
98.8342
 30
0.0
 11
92.3533
 21
97.4919
 31
0.0
  0
LINE
  8
0
 62
     0
 10
92.3533
 20
97.4919
 30
0.0
 11
91.6644
 21
93.4642
 31
0.0
  0
LINE
  8
0
 62
     0
 10
91.6644
 20
93.4642
 30
0.0
 11
89.5985
 21
88.7236
 31
0.0
  0
LINE
  8
0
 62
     0
 10
89.5985
 20
88.7236
 30
0.0
 11
86.155
 21
84.6145
 31
0.0
  0
LINE
  8
0
 62
     0
 10
86.155
 20
84.6145
 30
0.0
 11
82.6163
 21
81.8706
 31
0.0
  0
LINE
  8
0
 62
     0
 10
82.6163
 20
81.8706
 30
0.0
 11
81.3347
 21
81.1332
 31
0.0
  0
LINE
  8
0
 62
     0
 10
81.3347
 20
81.1332
 30
0.0
 11
82.3694
 21
80.6457
 31
0.0
  0
LINE
  8
0
 62
     0
 10
82.3694
 20
80.6457
 30
0.0
 11
86.8151
 21
77.7353
 31
0.0
  0
LINE
  8
0
 62
     0
 10
86.8151
 20
77.7353
 30
0.0
 11
90.2822
 21
74.199
 31
0.0
  0
LINE
  8
0
 62
     0
 10
90.2822
 20
74.199
 30
0.0
 11
90.8293
 21
73.3972
 31
0.0
  0
LINE
  8
0
 62
     0
 10
90.8293
 20
73.3972
 30
0.0
 11
91.3956
 21
72.5964
 31
0.0
  0
LINE
  8
0
 62
     0
 10
91.3956
 20
72.5964
 30
0.0
 11
93.3785
 21
68.1814
 31
0.0
  0
LINE
  8
0
 62
     0
 10
93.3785
 20
68.1814
 30
0.0
 11
94.2287
 21
63.6545
 31
0.0
  0
LINE
  8
0
 62
     0
 10
94.2287
 20
63.6545
 30
0.0
 11
94.2287
 21
62.1439
 31
0.0
  0
LINE
  8
0
 62
     0
 10
79.9289
 20
98.2472
 30
0.0
 11
79.9289
 21
99.1196
 31
0.0
  0
LINE
  8
0
 62
     0
 10
79.9289
 20
99.1196
 30
0.0
 11
79.393
 21
101.735
 31
0.0
  0
LINE
  8
0
 62
     0
 10
79.393
 20
101.735
 30
0.0
 11
77.7889
 21
104.225
 31
0.0
  0
LINE
  8
0
 62
     0
 10
77.7889
 20
104.225
 30
0.0
 11
75.1141
 21
105.72
 31
0.0
  0
LINE
  8
0
 62
     0
 10
75.1141
 20
105.72
 30
0.0
 11
72.3071
 21
106.218
 31
0.0
  0
LINE
  8
0
 62
     0
 10
72.3071
 20
106.218
 30
0.0
 11
71.3715
 21
106.218
 31
0.0
  0
LINE
  8
0
 62
     0
 10
71.3715
 20
106.218
 30
0.0
 11
53.2021
 21
106.218
 31
0.0
  0
LINE
  8
0
 62
     0
 10
53.2021
 20
106.218
 30
0.0
 11
53.2021
 21
86.9943
 31
0.0
  0
LINE
  8
0
 62
     0
 10
53.2021
 20
86.9943
 30
0.0
 11
68.0889
 21
86.9943
 31
0.0
  0
LINE
  8
0
 62
     0
 10
68.0889
 20
86.9943
 30
0.0
 11
68.6883
 21
86.9943
 31
0.0
  0
LINE
  8
0
 62
     0
 10
68.6883
 20
86.9943
 30
0.0
 11
70.4906
 21
87.0825
 31
0.0
  0
LINE
  8
0
 62
     0
 10
70.4906
 20
87.0825
 30
0.0
 11
72.0535
 21
87.2878
 31
0.0
  0
LINE
  8
0
 62
     0
 10
72.0535
 20
87.2878
 30
0.0
 11
72.3085
 21
87.3457
 31
0.0
  0
LINE
  8
0
 62
     0
 10
72.3085
 20
87.3457
 30
0.0
 11
72.5622
 21
87.424
 31
0.0
  0
LINE
  8
0
 62
     0
 10
72.5622
 20
87.424
 30
0.0
 11
73.8614
 21
88.0209
 31
0.0
  0
LINE
  8
0
 62
     0
 10
73.8614
 20
88.0209
 30
0.0
 11
75.1995
 21
88.8891
 31
0.0
  0
LINE
  8
0
 62
     0
 10
75.1995
 20
88.8891
 30
0.0
 11
75.4736
 21
89.1039
 31
0.0
  0
LINE
  8
0
 62
     0
 10
75.4736
 20
89.1039
 30
0.0
 11
76.0028
 21
89.523
 31
0.0
  0
LINE
  8
0
 62
     0
 10
76.0028
 20
89.523
 30
0.0
 11
77.4224
 21
90.9948
 31
0.0
  0
LINE
  8
0
 62
     0
 10
77.4224
 20
90.9948
 30
0.0
 11
78.8141
 21
93.1485
 31
0.0
  0
LINE
  8
0
 62
     0
 10
78.8141
 20
93.1485
 30
0.0
 11
79.6491
 21
95.5668
 31
0.0
  0
LINE
  8
0
 62
     0
 10
79.6491
 20
95.5668
 30
0.0
 11
79.9289
 21
97.5776
 31
0.0
  0
LINE
  8
0
 62
     0
 10
79.9289
 20
97.5776
 30
0.0
 11
79.9289
 21
98.2472
 31
0.0
  0
LINE
  8
0
 62
     0
 10
81.5689
 20
61.9097
 30
0.0
 11
81.5689
 21
62.8414
 31
0.0
  0
LINE
  8
0
 62
     0
 10
81.5689
 20
62.8414
 30
0.0
 11
81.0412
 21
65.6318
 31
0.0
  0
LINE
  8
0
 62
     0
 10
81.0412
 20
65.6318
 30
0.0
 11
79.8103
 21
68.5133
 31
0.0
  0
LINE
  8
0
 62
     0
 10
79.8103
 20
68.5133
 30
0.0
 11
79.459
 21
69.0591
 31
0.0
  0
LINE
  8
0
 62
     0
 10
79.459
 20
69.0591
 30
0.0
 11
79.218
 21
69.4697
 31
0.0
  0
LINE
  8
0
 62
     0
 10
79.218
 20
69.4697
 30
0.0
 11
78.3745
 21
70.6272
 31
0.0
  0
LINE
  8
0
 62
     0
 10
78.3745
 20
70.6272
 30
0.0
 11
77.1137
 21
71.9321
 31
0.0
  0
LINE
  8
0
 62
     0
 10
77.1137
 20
71.9321
 30
0.0
 11
75.6779
 21
72.9728
 31
0.0
  0
LINE
  8
0
 62
     0
 10
75.6779
 20
72.9728
 30
0.0
 11
74.483
 21
73.5912
 31
0.0
  0
LINE
  8
0
 62
     0
 10
74.483
 20
73.5912
 30
0.0
 11
74.0668
 21
73.7485
 31
0.0
  0
LINE
  8
0
 62
     0
 10
74.0668
 20
73.7485
 30
0.0
 11
73.8519
 21
73.8269
 31
0.0
  0
LINE
  8
0
 62
     0
 10
73.8519
 20
73.8269
 30
0.0
 11
72.8652
 21
74.1013
 31
0.0
  0
LINE
  8
0
 62
     0
 10
72.8652
 20
74.1013
 30
0.0
 11
72.0961
 21
74.217
 31
0.0
  0
LINE
  8
0
 62
     0
 10
72.0961
 20
74.217
 30
0.0
 11
71.84
 21
74.217
 31
0.0
  0
LINE
  8
0
 62
     0
 10
71.84
 20
74.217
 30
0.0
 11
71.6827
 21
74.2379
 31
0.0
  0
LINE
  8
0
 62
     0
 10
71.6827
 20
74.2379
 30
0.0
 11
70.6381
 21
74.3052
 31
0.0
  0
LINE
  8
0
 62
     0
 10
70.6381
 20
74.3052
 30
0.0
 11
69.3416
 21
74.3342
 31
0.0
  0
LINE
  8
0
 62
     0
 10
69.3416
 20
74.3342
 30
0.0
 11
68.9102
 21
74.3342
 31
0.0
  0
LINE
  8
0
 62
     0
 10
68.9102
 20
74.3342
 30
0.0
 11
53.2021
 21
74.3342
 31
0.0
  0
LINE
  8
0
 62
     0
 10
53.2021
 20
74.3342
 30
0.0
 11
53.2021
 21
52.7664
 31
0.0
  0
LINE
  8
0
 62
     0
 10
53.2021
 20
52.7664
 30
0.0
 11
71.9571
 21
52.7664
 31
0.0
  0
LINE
  8
0
 62
     0
 10
71.9571
 20
52.7664
 30
0.0
 11
73.007
 21
52.7664
 31
0.0
  0
LINE
  8
0
 62
     0
 10
73.007
 20
52.7664
 30
0.0
 11
76.1615
 21
53.3382
 31
0.0
  0
LINE
  8
0
 62
     0
 10
76.1615
 20
53.3382
 30
0.0
 11
79.1655
 21
55.0527
 31
0.0
  0
LINE
  8
0
 62
     0
 10
79.1655
 20
55.0527
 30
0.0
 11
80.9681
 21
57.9092
 31
0.0
  0
LINE
  8
0
 62
     0
 10
80.9681
 20
57.9092
 30
0.0
 11
81.5689
 21
60.9106
 31
0.0
  0
LINE
  8
0
 62
     0
 10
81.5689
 20
60.9106
 30
0.0
 11
81.5689
 21
61.9097
 31
0.0
  0
LINE
  8
0
 62
     0
 10
120.06
 20
61.9097
 30
0.0
 11
120.06
 21
60.9106
 31
0.0
  0
LINE
  8
0
 62
     0
 10
120.06
 20
60.9106
 30
0.0
 11
120.66
 21
57.9092
 31
0.0
  0
LINE
  8
0
 62
     0
 10
120.66
 20
57.9092
 30
0.0
 11
122.462
 21
55.0527
 31
0.0
  0
LINE
  8
0
 62
     0
 10
122.462
 20
55.0527
 30
0.0
 11
125.466
 21
53.3382
 31
0.0
  0
LINE
  8
0
 62
     0
 10
125.466
 20
53.3382
 30
0.0
 11
128.621
 21
52.7664
 31
0.0
  0
LINE
  8
0
 62
     0
 10
128.621
 20
52.7664
 30
0.0
 11
129.672
 21
52.7664
 31
0.0
  0
LINE
  8
0
 62
     0
 10
129.672
 20
52.7664
 30
0.0
 11
148.427
 21
52.7664
 31
0.0
  0
LINE
  8
0
 62
     0
 10
148.427
 20
52.7664
 30
0.0
 11
148.427
 21
74.3342
 31
0.0
  0
LINE
  8
0
 62
     0
 10
148.427
 20
74.3342
 30
0.0
 11
132.72
 21
74.3342
 31
0.0
  0
LINE
  8
0
 62
     0
 10
132.72
 20
74.3342
 30
0.0
 11
132.287
 21
74.3342
 31
0.0
  0
LINE
  8
0
 62
     0
 10
132.287
 20
74.3342
 30
0.0
 11
130.991
 21
74.3052
 31
0.0
  0
LINE
  8
0
 62
     0
 10
130.991
 20
74.3052
 30
0.0
 11
129.945
 21
74.2379
 31
0.0
  0
LINE
  8
0
 62
     0
 10
129.945
 20
74.2379
 30
0.0
 11
129.789
 21
74.217
 31
0.0
  0
LINE
  8
0
 62
     0
 10
129.789
 20
74.217
 30
0.0
 11
129.533
 21
74.217
 31
0.0
  0
LINE
  8
0
 62
     0
 10
129.533
 20
74.217
 30
0.0
 11
128.764
 21
74.1013
 31
0.0
  0
LINE
  8
0
 62
     0
 10
128.764
 20
74.1013
 30
0.0
 11
127.777
 21
73.8269
 31
0.0
  0
LINE
  8
0
 62
     0
 10
127.777
 20
73.8269
 30
0.0
 11
127.562
 21
73.7485
 31
0.0
  0
LINE
  8
0
 62
     0
 10
127.562
 20
73.7485
 30
0.0
 11
127.145
 21
73.5912
 31
0.0
  0
LINE
  8
0
 62
     0
 10
127.145
 20
73.5912
 30
0.0
 11
125.95
 21
72.9728
 31
0.0
  0
LINE
  8
0
 62
     0
 10
125.95
 20
72.9728
 30
0.0
 11
124.514
 21
71.9321
 31
0.0
  0
LINE
  8
0
 62
     0
 10
124.514
 20
71.9321
 30
0.0
 11
123.253
 21
70.6286
 31
0.0
  0
LINE
  8
0
 62
     0
 10
123.253
 20
70.6286
 30
0.0
 11
122.41
 21
69.4711
 31
0.0
  0
LINE
  8
0
 62
     0
 10
122.41
 20
69.4711
 30
0.0
 11
122.17
 21
69.0605
 31
0.0
  0
LINE
  8
0
 62
     0
 10
122.17
 20
69.0605
 30
0.0
 11
121.817
 21
68.5133
 31
0.0
  0
LINE
  8
0
 62
     0
 10
121.817
 20
68.5133
 30
0.0
 11
120.587
 21
65.6318
 31
0.0
  0
LINE
  8
0
 62
     0
 10
120.587
 20
65.6318
 30
0.0
 11
120.06
 21
62.8414
 31
0.0
  0
LINE
  8
0
 62
     0
 10
120.06
 20
62.8414
 30
0.0
 11
120.06
 21
61.9097
 31
0.0
  0
LINE
  8
0
 62
     0
 10
121.701
 20
98.2472
 30
0.0
 11
121.701
 21
97.5776
 31
0.0
  0
LINE
  8
0
 62
     0
 10
121.701
 20
97.5776
 30
0.0
 11
121.979
 21
95.5668
 31
0.0
  0
LINE
  8
0
 62
     0
 10
121.979
 20
95.5668
 30
0.0
 11
122.814
 21
93.1485
 31
0.0
  0
LINE
  8
0
 62
     0
 10
122.814
 20
93.1485
 30
0.0
 11
124.205
 21
90.9948
 31
0.0
  0
LINE
  8
0
 62
     0
 10
124.205
 20
90.9948
 30
0.0
 11
125.625
 21
89.523
 31
0.0
  0
LINE
  8
0
 62
     0
 10
125.625
 20
89.523
 30
0.0
 11
126.155
 21
89.1039
 31
0.0
  0
LINE
  8
0
 62
     0
 10
126.155
 20
89.1039
 30
0.0
 11
126.428
 21
88.8891
 31
0.0
  0
LINE
  8
0
 62
     0
 10
126.428
 20
88.8891
 30
0.0
 11
127.766
 21
88.0209
 31
0.0
  0
LINE
  8
0
 62
     0
 10
127.766
 20
88.0209
 30
0.0
 11
129.066
 21
87.424
 31
0.0
  0
LINE
  8
0
 62
     0
 10
129.066
 20
87.424
 30
0.0
 11
129.321
 21
87.3457
 31
0.0
  0
LINE
  8
0
 62
     0
 10
129.321
 20
87.3457
 30
0.0
 11
129.574
 21
87.2878
 31
0.0
  0
LINE
  8
0
 62
     0
 10
129.574
 20
87.2878
 30
0.0
 11
131.137
 21
87.0825
 31
0.0
  0
LINE
  8
0
 62
     0
 10
131.137
 20
87.0825
 30
0.0
 11
132.939
 21
86.9943
 31
0.0
  0
LINE
  8
0
 62
     0
 10
132.939
 20
86.9943
 30
0.0
 11
133.54
 21
86.9943
 31
0.0
  0
LINE
  8
0
 62
     0
 10
133.54
 20
86.9943
 30
0.0
 11
148.427
 21
86.9943
 31
0.0
  0
LINE
  8
0
 62
     0
 10
148.427
 20
86.9943
 30
0.0
 11
148.427
 21
106.219
 31
0.0
  0
LINE
  8
0
 62
     0
 10
148.427
 20
106.219
 30
0.0
 11
130.258
 21
106.219
 31
0.0
  0
LINE
  8
0
 62
     0
 10
130.258
 20
106.219
 30
0.0
 11
129.321
 21
106.219
 31
0.0
  0
LINE
  8
0
 62
     0
 10
129.321
 20
106.219
 30
0.0
 11
126.514
 21
105.722
 31
0.0
  0
LINE
  8
0
 62
     0
 10
126.514
 20
105.722
 30
0.0
 11
123.84
 21
104.226
 31
0.0
  0
LINE
  8
0
 62
     0
 10
123.84
 20
104.226
 30
0.0
 11
122.236
 21
101.735
 31
0.0
  0
LINE
  8
0
 62
     0
 10
122.236
 20
101.735
 30
0.0
 11
121.701
 21
99.1196
 31
0.0
  0
LINE
  8
0
 62
     0
 10
121.701
 20
99.1196
 30
0.0
 11
121.701
 21
98.2472
 31
0.0
  0
LINE
  8
0
 62
     0
 10
107.4
 20
62.1439
 30
0.0
 11
107.4
 21
63.6545
 31
0.0
  0
LINE
  8
0
 62
     0
 10
107.4
 20
63.6545
 30
0.0
 11
108.249
 21
68.1814
 31
0.0
  0
LINE
  8
0
 62
     0
 10
108.249
 20
68.1814
 30
0.0
 11
110.232
 21
72.5964
 31
0.0
  0
LINE
  8
0
 62
     0
 10
110.232
 20
72.5964
 30
0.0
 11
110.8
 21
73.3972
 31
0.0
  0
LINE
  8
0
 62
     0
 10
110.8
 20
73.3972
 30
0.0
 11
111.347
 21
74.199
 31
0.0
  0
LINE
  8
0
 62
     0
 10
111.347
 20
74.199
 30
0.0
 11
114.814
 21
77.7353
 31
0.0
  0
LINE
  8
0
 62
     0
 10
114.814
 20
77.7353
 30
0.0
 11
119.258
 21
80.6457
 31
0.0
  0
LINE
  8
0
 62
     0
 10
119.258
 20
80.6457
 30
0.0
 11
120.294
 21
81.1332
 31
0.0
  0
LINE
  8
0
 62
     0
 10
120.294
 20
81.1332
 30
0.0
 11
119.011
 21
81.8706
 31
0.0
  0
LINE
  8
0
 62
     0
 10
119.011
 20
81.8706
 30
0.0
 11
115.473
 21
84.6145
 31
0.0
  0
LINE
  8
0
 62
     0
 10
115.473
 20
84.6145
 30
0.0
 11
112.029
 21
88.7236
 31
0.0
  0
LINE
  8
0
 62
     0
 10
112.029
 20
88.7236
 30
0.0
 11
109.963
 21
93.4642
 31
0.0
  0
LINE
  8
0
 62
     0
 10
109.963
 20
93.4642
 30
0.0
 11
109.276
 21
97.4908
 31
0.0
  0
LINE
  8
0
 62
     0
 10
109.276
 20
97.4908
 30
0.0
 11
109.276
 21
98.8328
 31
0.0
  0
LINE
  8
0
 62
     0
 10
109.276
 20
98.8328
 30
0.0
 11
109.276
 21
99.8527
 31
0.0
  0
LINE
  8
0
 62
     0
 10
109.276
 20
99.8527
 30
0.0
 11
109.685
 21
102.908
 31
0.0
  0
LINE
  8
0
 62
     0
 10
109.685
 20
102.908
 30
0.0
 11
110.643
 21
106.083
 31
0.0
  0
LINE
  8
0
 62
     0
 10
110.643
 20
106.083
 30
0.0
 11
110.917
 21
106.688
 31
0.0
  0
LINE
  8
0
 62
     0
 10
110.917
 20
106.688
 30
0.0
 11
111.19
 21
107.294
 31
0.0
  0
LINE
  8
0
 62
     0
 10
111.19
 20
107.294
 30
0.0
 11
112.879
 21
110.059
 31
0.0
  0
LINE
  8
0
 62
     0
 10
112.879
 20
110.059
 30
0.0
 11
114.999
 21
112.471
 31
0.0
  0
LINE
  8
0
 62
     0
 10
114.999
 20
112.471
 30
0.0
 11
115.488
 21
112.9
 31
0.0
  0
LINE
  8
0
 62
     0
 10
115.488
 20
112.9
 30
0.0
 11
115.976
 21
113.349
 31
0.0
  0
LINE
  8
0
 62
     0
 10
115.976
 20
113.349
 30
0.0
 11
118.682
 21
115.303
 31
0.0
  0
LINE
  8
0
 62
     0
 10
118.682
 20
115.303
 30
0.0
 11
121.74
 21
116.866
 31
0.0
  0
LINE
  8
0
 62
     0
 10
121.74
 20
116.866
 30
0.0
 11
122.404
 21
117.119
 31
0.0
  0
LINE
  8
0
 62
     0
 10
122.404
 20
117.119
 30
0.0
 11
123.068
 21
117.374
 31
0.0
  0
LINE
  8
0
 62
     0
 10
123.068
 20
117.374
 30
0.0
 11
126.566
 21
118.263
 31
0.0
  0
LINE
  8
0
 62
     0
 10
126.566
 20
118.263
 30
0.0
 11
129.95
 21
118.644
 31
0.0
  0
LINE
  8
0
 62
     0
 10
129.95
 20
118.644
 30
0.0
 11
131.079
 21
118.644
 31
0.0
  0
LINE
  8
0
 62
     0
 10
131.079
 20
118.644
 30
0.0
 11
160.853
 21
118.644
 31
0.0
  0
LINE
  8
0
 62
     0
 10
160.853
 20
118.644
 30
0.0
 11
160.853
 21
40.1066
 31
0.0
  0
LINE
  8
0
 62
     0
 10
160.853
 20
40.1066
 30
0.0
 11
131.079
 21
40.1066
 31
0.0
  0
LINE
  8
0
 62
     0
 10
131.079
 20
40.1066
 30
0.0
 11
129.643
 21
40.1066
 31
0.0
  0
LINE
  8
0
 62
     0
 10
129.643
 20
40.1066
 30
0.0
 11
125.843
 21
40.4978
 31
0.0
  0
LINE
  8
0
 62
     0
 10
125.843
 20
40.4978
 30
0.0
 11
125.335
 21
40.5751
 31
0.0
  0
LINE
  8
0
 62
     0
 10
125.335
 20
40.5751
 30
0.0
 11
124.807
 21
40.6728
 31
0.0
  0
LINE
  8
0
 62
     0
 10
124.807
 20
40.6728
 30
0.0
 11
122.433
 21
41.2214
 31
0.0
  0
LINE
  8
0
 62
     0
 10
122.433
 20
41.2214
 30
0.0
 11
120.412
 21
41.8454
 31
0.0
  0
LINE
  8
0
 62
     0
 10
120.412
 20
41.8454
 30
0.0
 11
120.06
 21
41.982
 31
0.0
  0
LINE
  8
0
 62
     0
 10
120.06
 20
41.982
 30
0.0
 11
119.59
 21
42.1778
 31
0.0
  0
LINE
  8
0
 62
     0
 10
119.59
 20
42.1778
 30
0.0
 11
117.392
 21
43.3599
 31
0.0
  0
LINE
  8
0
 62
     0
 10
117.392
 20
43.3599
 30
0.0
 11
115.39
 21
44.8151
 31
0.0
  0
LINE
  8
0
 62
     0
 10
115.39
 20
44.8151
 30
0.0
 11
115.019
 21
45.1474
 31
0.0
  0
LINE
  8
0
 62
     0
 10
115.019
 20
45.1474
 30
0.0
 11
114.628
 21
45.4988
 31
0.0
  0
LINE
  8
0
 62
     0
 10
114.628
 20
45.4988
 30
0.0
 11
112.85
 21
47.4031
 31
0.0
  0
LINE
  8
0
 62
     0
 10
112.85
 20
47.4031
 30
0.0
 11
111.307
 21
49.5032
 31
0.0
  0
LINE
  8
0
 62
     0
 10
111.307
 20
49.5032
 30
0.0
 11
111.034
 21
49.9526
 31
0.0
  0
LINE
  8
0
 62
     0
 10
111.034
 20
49.9526
 30
0.0
 11
110.74
 21
50.4031
 31
0.0
  0
LINE
  8
0
 62
     0
 10
110.74
 20
50.4031
 30
0.0
 11
108.493
 21
55.287
 31
0.0
  0
LINE
  8
0
 62
     0
 10
108.493
 20
55.287
 30
0.0
 11
108.337
 21
55.8133
 31
0.0
  0
LINE
  8
0
 62
     0
 10
108.337
 20
55.8133
 30
0.0
 11
108.18
 21
56.3411
 31
0.0
  0
LINE
  8
0
 62
     0
 10
108.18
 20
56.3411
 30
0.0
 11
107.4
 21
60.6944
 31
0.0
  0
LINE
  8
0
 62
     0
 10
107.4
 20
60.6944
 30
0.0
 11
107.4
 21
62.1439
 31
0.0
  0
ENDSEC
  0
EOF
