<?xml version="1.0" encoding="UTF-8" standalone="no"?>
<!-- Created with Inkscape (http://www.inkscape.org/) -->

<svg
   xmlns:dc="http://purl.org/dc/elements/1.1/"
   xmlns:cc="http://creativecommons.org/ns#"
   xmlns:rdf="http://www.w3.org/1999/02/22-rdf-syntax-ns#"
   xmlns:svg="http://www.w3.org/2000/svg"
   xmlns="http://www.w3.org/2000/svg"
   version="1.1"
   width="750"
   height="600"
   id="svg2">
  <defs
     id="defs4" />
  <metadata
     id="metadata7">
    <rdf:RDF>
      <cc:Work
         rdf:about="">
        <dc:format>image/svg+xml</dc:format>
        <dc:type
           rdf:resource="http://purl.org/dc/dcmitype/StillImage" />
        <dc:title></dc:title>
      </cc:Work>
    </rdf:RDF>
  </metadata>
  <g
     transform="translate(0,-452.36218)"
     id="layer1">
    <rect
       width="750"
       height="600"
       rx="37.5"
       ry="37.5"
       x="0"
       y="452.36218"
       id="rect2985"
       style="fill:#000000;fill-opacity:1;stroke:none" />
    <rect
       width="600"
       height="450"
       x="75"
       y="527.36218"
       id="rect3755"
       style="fill:#ffffff;fill-opacity:1;fill-rule:nonzero;stroke:none" />
    <g
       id="text3757"
       style="font-size:443.03796387px;font-style:normal;font-variant:normal;font-weight:normal;font-stretch:normal;text-align:center;line-height:100%;letter-spacing:0px;word-spacing:0px;writing-mode:lr-tb;text-anchor:middle;fill:none;stroke:#000000;stroke-width:3.16455698px;stroke-linecap:butt;stroke-linejoin:miter;stroke-opacity:1;font-family:Roadgeek 2005 Series C;-inkscape-font-specification:Roadgeek 2005 Series C">
      <path
         d="m 356.14218,817.48877 c -2.4e-4,7.97476 -1.18168,15.94943 -3.54431,23.92405 -2.3631,7.97473 -5.75972,15.35869 -10.18987,22.1519 -4.13524,6.79328 -9.15633,12.84812 -15.06329,18.16455 -5.61202,5.02112 -11.96222,9.00845 -19.05063,11.96203 -5.31664,2.06752 -11.96221,3.83967 -19.93671,5.31646 -7.67949,1.18143 -14.91577,1.77215 -21.70886,1.77215 l -112.53165,0 0,-296.83544 112.53165,0 c 11.81418,3e-4 22.74244,1.92013 32.78481,5.75949 10.042,3.83995 18.75507,9.1564 26.13924,15.94937 7.38375,6.49816 13.14324,14.32516 17.27848,23.48101 4.13479,9.15636 6.2023,19.05087 6.20253,29.68355 -2.3e-4,28.64998 -13.88207,50.94953 -41.64557,66.89873 15.6538,7.38411 27.61582,17.13094 35.88607,29.24051 8.56517,12.10981 12.84787,26.28701 12.84811,42.53164 M 302.09154,681.03308 c -1.8e-4,-20.08415 -10.78076,-30.12633 -32.34177,-30.12658 l -68.67088,0 0,72.65822 56.26582,0 c 6.7931,1.8e-4 12.10955,-0.44286 15.94937,-1.32911 3.8395,-1.18126 7.82684,-3.39644 11.96202,-6.64557 11.22345,-8.86057 16.83526,-20.37954 16.83544,-34.55696 m 6.20254,137.34177 c -1.9e-4,-9.74675 -2.65842,-18.75518 -7.97469,-27.02532 -5.02127,-8.56528 -11.81451,-14.47245 -20.37974,-17.72152 -3.24911,-1.1813 -6.05501,-1.77202 -8.41773,-1.77215 -2.36302,-0.29523 -6.05499,-0.44291 -11.07594,-0.44304 l -59.36709,0 0,81.51899 70.88607,0 c 24.21923,4e-5 36.32893,-11.51893 36.32912,-34.55696"
         id="path3944"
         style="line-height:100%;fill:#000000;fill-opacity:1;stroke:none;font-family:Roadgeek 2005 Series D;-inkscape-font-specification:Roadgeek 2005 Series D" />
      <path
         d="m 607.94695,817.48877 c -2.3e-4,7.97476 -1.18167,15.94943 -3.5443,23.92405 -2.3631,7.97473 -5.75972,15.35869 -10.18987,22.1519 -4.13524,6.79328 -9.15633,12.84812 -15.06329,18.16455 -5.61202,5.02112 -11.96222,9.00845 -19.05064,11.96203 -5.31664,2.06752 -11.9622,3.83967 -19.9367,5.31646 -7.67949,1.18143 -14.91577,1.77215 -21.70886,1.77215 l -112.53165,0 0,-296.83544 112.53165,0 c 11.81418,3e-4 22.74244,1.92013 32.78481,5.75949 10.042,3.83995 18.75507,9.1564 26.13924,15.94937 7.38375,6.49816 13.14323,14.32516 17.27848,23.48101 4.13479,9.15636 6.2023,19.05087 6.20253,29.68355 -2.3e-4,28.64998 -13.88208,50.94953 -41.64557,66.89873 15.6538,7.38411 27.61582,17.13094 35.88607,29.24051 8.56517,12.10981 12.84787,26.28701 12.8481,42.53164 M 553.89632,681.03308 c -1.8e-4,-20.08415 -10.78076,-30.12633 -32.34177,-30.12658 l -68.67088,0 0,72.65822 56.26582,0 c 6.7931,1.8e-4 12.10955,-0.44286 15.94937,-1.32911 3.8395,-1.18126 7.82684,-3.39644 11.96202,-6.64557 11.22345,-8.86057 16.83526,-20.37954 16.83544,-34.55696 m 6.20253,137.34177 c -1.9e-4,-9.74675 -2.65841,-18.75518 -7.97468,-27.02532 -5.02127,-8.56528 -11.81451,-14.47245 -20.37975,-17.72152 -3.2491,-1.1813 -6.055,-1.77202 -8.41772,-1.77215 -2.36302,-0.29523 -6.055,-0.44291 -11.07595,-0.44304 l -59.36708,0 0,81.51899 70.88607,0 c 24.21923,4e-5 36.32892,-11.51893 36.32911,-34.55696"
         id="path3946"
         style="line-height:100%;fill:#000000;fill-opacity:1;stroke:none;font-family:Roadgeek 2005 Series D;-inkscape-font-specification:Roadgeek 2005 Series D" />
    </g>
  </g>
</svg>
