%TF.GenerationSoftware,KiCad,Pcbnew,(5.1.10)-1*%
%TF.CreationDate,2021-09-18T02:49:05-07:00*%
%TF.ProjectId,barobord-switchplate-outside-pcb,6261726f-626f-4726-942d-737769746368,rev?*%
%TF.SameCoordinates,Original*%
%TF.FileFunction,Legend,Bot*%
%TF.FilePolarity,Positive*%
%FSLAX46Y46*%
G04 Gerber Fmt 4.6, Leading zero omitted, Abs format (unit mm)*
G04 Created by KiCad (PCBNEW (5.1.10)-1) date 2021-09-18 02:49:05*
%MOMM*%
%LPD*%
G01*
G04 APERTURE LIST*
%ADD10C,0.320000*%
G04 APERTURE END LIST*
D10*
X139977333Y-120920424D02*
X139768412Y-120906964D01*
X140060013Y-120924604D02*
X140008793Y-120924604D01*
X140213833Y-120947745D02*
X140060013Y-120924604D01*
X140008793Y-120924604D02*
X139977333Y-120920424D01*
X139768412Y-120906964D02*
X139509113Y-120901164D01*
X140454153Y-121018304D02*
X140411173Y-121002625D01*
X139258572Y-118369144D02*
X139378453Y-118369144D01*
X141519393Y-115421004D02*
X141198573Y-114923004D01*
X141484393Y-121874064D02*
X141315693Y-121642564D01*
X140537393Y-121049764D02*
X140454153Y-121018304D01*
X140776372Y-121173444D02*
X140537393Y-121049764D01*
X143783233Y-114430404D02*
X143837773Y-114551404D01*
X141063532Y-121381584D02*
X140776372Y-121173444D01*
X141315693Y-121642564D02*
X141063532Y-121381584D01*
X141532593Y-121956184D02*
X141484393Y-121874064D01*
X141954573Y-123199724D02*
X141849033Y-122641644D01*
X140102213Y-114524404D02*
X139915093Y-114524404D01*
X141954573Y-123386064D02*
X141954573Y-123199724D01*
X141626573Y-116252484D02*
X141626573Y-116118564D01*
X143697233Y-120928204D02*
X143806653Y-121088564D01*
X139915093Y-114524404D02*
X136281213Y-114524404D01*
X140663612Y-114624004D02*
X140102213Y-114524404D01*
X141125273Y-117569044D02*
X141403613Y-117138304D01*
X141907733Y-119541364D02*
X142114673Y-119638864D01*
X140102492Y-118298864D02*
X140153233Y-118283204D01*
X143837773Y-114551404D02*
X144029333Y-115186404D01*
X140841352Y-117863404D02*
X141125273Y-117569044D01*
X139738913Y-118351504D02*
X140051493Y-118310444D01*
X140680693Y-117990184D02*
X140735513Y-117947224D01*
X142869053Y-113188004D02*
X142966633Y-113274004D01*
X144111453Y-116001164D02*
X144111453Y-116269624D01*
X144316493Y-122131724D02*
X144486533Y-123037104D01*
X142229893Y-112707404D02*
X142771193Y-113098204D01*
X141352873Y-112293204D02*
X141485733Y-112344204D01*
X140735513Y-117947224D02*
X140841352Y-117863404D01*
X143806653Y-121088564D02*
X143919913Y-121248724D01*
X143973673Y-117075164D02*
X143560493Y-118023284D01*
X140413073Y-118163824D02*
X140680693Y-117990184D01*
X140153233Y-118283204D02*
X140413073Y-118163824D01*
X141626573Y-116118564D02*
X141626573Y-115944084D01*
X143728353Y-114309204D02*
X143783233Y-114430404D01*
X142164053Y-119393884D02*
X141907733Y-119541364D01*
X142114673Y-119638864D02*
X143003813Y-120220945D01*
X142771193Y-113098204D02*
X142869053Y-113188004D01*
X144111453Y-115797464D02*
X144111453Y-116001164D01*
X141618593Y-112394804D02*
X142229893Y-112707404D01*
X139378453Y-118369144D02*
X139738913Y-118351504D01*
X136281213Y-114524404D02*
X136281213Y-118369144D01*
X144486533Y-123037104D02*
X144486533Y-123339224D01*
X143919913Y-121248724D02*
X144316493Y-122131724D01*
X144111453Y-116269624D02*
X143973673Y-117075164D01*
X143003813Y-120220945D02*
X143697233Y-120928204D01*
X140653393Y-112115404D02*
X141352873Y-112293204D01*
X141570613Y-116654644D02*
X141626573Y-116252484D01*
X139976553Y-112039204D02*
X140653393Y-112115404D01*
X140051493Y-118310444D02*
X140102492Y-118298864D01*
X143560493Y-118023284D02*
X142871793Y-118845104D01*
X141849033Y-122641644D02*
X141602853Y-122065344D01*
X141602853Y-122065344D02*
X141532593Y-121956184D01*
X142966633Y-113274004D02*
X143390453Y-113756204D01*
X143390453Y-113756204D02*
X143728353Y-114309204D01*
X136281213Y-118369144D02*
X139258572Y-118369144D01*
X141198573Y-114923004D02*
X140663612Y-114624004D01*
X142871793Y-118845104D02*
X142164053Y-119393884D01*
X141485733Y-112344204D02*
X141618593Y-112394804D01*
X144029333Y-115186404D02*
X144111453Y-115797464D01*
X141626573Y-115944084D02*
X141519393Y-115421004D01*
X140411173Y-121002625D02*
X140213833Y-120947745D01*
X141403613Y-117138304D02*
X141570613Y-116654644D01*
X140899853Y-127652984D02*
X140798093Y-127668444D01*
X141479953Y-127523724D02*
X141005113Y-127633444D01*
X125640793Y-105902004D02*
X125680756Y-105601404D01*
X141884313Y-127398924D02*
X141479953Y-127523724D01*
X144267733Y-124710604D02*
X143818233Y-125687664D01*
X165328393Y-105902004D02*
X165328393Y-106002404D01*
X161359593Y-131799244D02*
X129609553Y-131799244D01*
X126513919Y-104355804D02*
X126851265Y-104173404D01*
X126220671Y-104597804D02*
X126513919Y-104355804D01*
X163744593Y-135727766D02*
X163443993Y-135768004D01*
X165172593Y-134557256D02*
X164990193Y-134894604D01*
X143396233Y-126287384D02*
X143040713Y-126668244D01*
X143818233Y-125687664D02*
X143759813Y-125777484D01*
X165287993Y-105601404D02*
X165328393Y-105902004D01*
X144486533Y-123339224D02*
X144486533Y-123655584D01*
X127224159Y-135727766D02*
X126851265Y-135612286D01*
X125680756Y-134184364D02*
X125640793Y-133883676D01*
X126513919Y-135429834D02*
X126220671Y-135187850D01*
X164454793Y-135429834D02*
X164117593Y-135612286D01*
X144486533Y-123655584D02*
X144330333Y-124499784D01*
X165328393Y-133783628D02*
X165328393Y-133883676D01*
X129609553Y-131799244D02*
X129609553Y-107986804D01*
X129609553Y-107986804D02*
X161359593Y-107986804D01*
X127524845Y-104018004D02*
X127625169Y-104018004D01*
X164990193Y-134894604D02*
X164748193Y-135187850D01*
X165328393Y-133883676D02*
X165287993Y-134184364D01*
X125640793Y-133883676D02*
X125640793Y-133783628D01*
X163343993Y-135768004D02*
X127625169Y-135768004D01*
X141954573Y-127371604D02*
X141884313Y-127398924D01*
X142962753Y-126738524D02*
X142888313Y-126804984D01*
X144299133Y-124605344D02*
X144267733Y-124710604D01*
X164117593Y-135612286D02*
X163744593Y-135727766D01*
X125640793Y-133783628D02*
X125640793Y-106002404D01*
X126851265Y-104173404D02*
X127224159Y-104058004D01*
X125796236Y-105228404D02*
X125978687Y-104891205D01*
X165287993Y-134184364D02*
X165172593Y-134557256D01*
X125978687Y-104891205D02*
X126220671Y-104597804D01*
X133796033Y-112039204D02*
X139751053Y-112039204D01*
X140798093Y-127668444D02*
X140012613Y-127746684D01*
X143704913Y-125867364D02*
X143396233Y-126287384D01*
X142048273Y-127332444D02*
X141954573Y-127371604D01*
X144330333Y-124499784D02*
X144299133Y-124605344D01*
X127524845Y-135768004D02*
X127224159Y-135727766D01*
X141005113Y-127633444D02*
X140899853Y-127652984D01*
X125640793Y-106002404D02*
X125640793Y-105902004D01*
X143759813Y-125777484D02*
X143704913Y-125867364D01*
X125978687Y-134894604D02*
X125796236Y-134557256D01*
X164748193Y-135187850D02*
X164454793Y-135429834D01*
X139751053Y-112039204D02*
X139976553Y-112039204D01*
X139751053Y-127746684D02*
X133796033Y-127746684D01*
X127224159Y-104058004D02*
X127524845Y-104018004D01*
X142487833Y-127096024D02*
X142048273Y-127332444D01*
X125680756Y-105601404D02*
X125796236Y-105228404D01*
X126851265Y-135612286D02*
X126513919Y-135429834D01*
X161359593Y-107986804D02*
X161359593Y-131799244D01*
X126220671Y-135187850D02*
X125978687Y-134894604D01*
X165328393Y-106002404D02*
X165328393Y-133783628D01*
X163443993Y-135768004D02*
X163343993Y-135768004D01*
X133796033Y-127746684D02*
X133796033Y-112039204D01*
X142888313Y-126804984D02*
X142487833Y-127096024D01*
X140012613Y-127746684D02*
X139751053Y-127746684D01*
X125796236Y-134557256D02*
X125680756Y-134184364D01*
X143040713Y-126668244D02*
X142962753Y-126738524D01*
X127625169Y-135768004D02*
X127524845Y-135768004D01*
X150122793Y-121873784D02*
X150074793Y-121955904D01*
X140873093Y-125100364D02*
X141473892Y-124757464D01*
X149772793Y-124186164D02*
X150133193Y-124757464D01*
X147120793Y-123339224D02*
X147120793Y-123037104D01*
X149758193Y-122641644D02*
X149652793Y-123199724D01*
X149980993Y-115944084D02*
X149980993Y-116118564D01*
X151547392Y-120924604D02*
X151393593Y-120947745D01*
X155326193Y-120901164D02*
X152184793Y-120901164D01*
X150543593Y-121381584D02*
X150291393Y-121642284D01*
X150291393Y-121642284D02*
X150122793Y-121873784D01*
X151868193Y-118351504D02*
X152228593Y-118369144D01*
X151504993Y-114524204D02*
X150943593Y-114623604D01*
X149980993Y-116118564D02*
X149980993Y-116252484D01*
X150074793Y-121955904D02*
X150004193Y-122065344D01*
X151629793Y-120920424D02*
X151598592Y-120924604D01*
X155326193Y-114524204D02*
X151692393Y-114524204D01*
X155326193Y-118369144D02*
X155326193Y-114524204D01*
X151692393Y-114524204D02*
X151504993Y-114524204D01*
X151504993Y-118298864D02*
X151555593Y-118310444D01*
X151453993Y-118283204D02*
X151504993Y-118298864D01*
X150004193Y-122065344D02*
X149758193Y-122641644D01*
X151069793Y-121049764D02*
X150830793Y-121173444D01*
X151575193Y-125214724D02*
X155326193Y-125214724D01*
X149652793Y-123585884D02*
X149772793Y-124186164D01*
X136281213Y-125214724D02*
X140032213Y-125214724D01*
X151196193Y-121002625D02*
X151153193Y-121018304D01*
X152348793Y-118369144D02*
X155326193Y-118369144D01*
X150871793Y-117947224D02*
X150926393Y-117990184D01*
X155326193Y-125214724D02*
X155326193Y-120901164D01*
X141473892Y-124757464D02*
X141834413Y-124186164D01*
X147687193Y-121248724D02*
X147800793Y-121088564D01*
X150087993Y-115421004D02*
X149980993Y-115944084D01*
X150943593Y-114623604D02*
X150408793Y-114922804D01*
X150926393Y-117990184D02*
X151193993Y-118163824D01*
X152228593Y-118369144D02*
X152348793Y-118369144D01*
X151364993Y-125214724D02*
X151575193Y-125214724D01*
X149652793Y-123386064D02*
X149652793Y-123585884D01*
X147290593Y-122131724D02*
X147687193Y-121248724D01*
X147120793Y-123037104D02*
X147290593Y-122131724D01*
X149652793Y-123199724D02*
X149652793Y-123386064D01*
X150408793Y-114922804D02*
X150087993Y-115421004D01*
X151393593Y-120947745D02*
X151196193Y-121002625D01*
X150765793Y-117863404D02*
X150871793Y-117947224D01*
X150481793Y-117569044D02*
X150765793Y-117863404D01*
X150036593Y-116654644D02*
X150203593Y-117138304D01*
X141834413Y-124186164D02*
X141954573Y-123585884D01*
X140242193Y-125214724D02*
X140873093Y-125100364D01*
X150830793Y-121173444D02*
X150543593Y-121381584D01*
X151153193Y-121018304D02*
X151069793Y-121049764D01*
X150133193Y-124757464D02*
X150733993Y-125100364D01*
X152098193Y-120901164D02*
X151838993Y-120906964D01*
X151838993Y-120906964D02*
X151629793Y-120920424D01*
X139422833Y-120901164D02*
X136281213Y-120901164D01*
X141954573Y-123585884D02*
X141954573Y-123386064D01*
X139509113Y-120901164D02*
X139422833Y-120901164D01*
X151598592Y-120924604D02*
X151547392Y-120924604D01*
X150733993Y-125100364D02*
X151364993Y-125214724D01*
X136281213Y-120901164D02*
X136281213Y-125214724D01*
X149980993Y-116252484D02*
X150036593Y-116654644D01*
X151555593Y-118310444D02*
X151868193Y-118351504D01*
X151193993Y-118163824D02*
X151453993Y-118283204D01*
X152184793Y-120901164D02*
X152098193Y-120901164D01*
X140032213Y-125214724D02*
X140242193Y-125214724D01*
X150203593Y-117138304D02*
X150481793Y-117569044D01*
X163744593Y-104058004D02*
X164117593Y-104173404D01*
X163443993Y-104018004D02*
X163744593Y-104058004D01*
X164990193Y-104891205D02*
X165172593Y-105228404D01*
X163343993Y-104018004D02*
X163443993Y-104018004D01*
X164117593Y-104173404D02*
X164454793Y-104355804D01*
X164748193Y-104597804D02*
X164990193Y-104891205D01*
X164454793Y-104355804D02*
X164748193Y-104597804D01*
X127625169Y-104018004D02*
X163343993Y-104018004D01*
X149377193Y-112707404D02*
X149988793Y-112394804D01*
X147769393Y-114551404D02*
X147824193Y-114430404D01*
X149119193Y-127096024D02*
X148718793Y-126804984D01*
X148216593Y-113756204D02*
X148640593Y-113273804D01*
X147276793Y-124499784D02*
X147120793Y-123629124D01*
X148735393Y-118845104D02*
X148046593Y-118023284D01*
X148640593Y-113273804D02*
X148738393Y-113188004D01*
X147878793Y-114309204D02*
X148216593Y-113756204D01*
X150602193Y-127633444D02*
X150127393Y-127523724D01*
X149492393Y-119638864D02*
X149699593Y-119541364D01*
X150953993Y-112115404D02*
X151630792Y-112039204D01*
X147308193Y-124605344D02*
X147276793Y-124499784D01*
X147339393Y-124710604D02*
X147308193Y-124605344D01*
X150121593Y-112344204D02*
X150254393Y-112293204D01*
X157811393Y-112039204D02*
X157811393Y-127746684D01*
X151569393Y-127746684D02*
X150809393Y-127668444D01*
X148210793Y-126287384D02*
X147902193Y-125867364D01*
X149723193Y-127398924D02*
X149652793Y-127371604D01*
X147120793Y-123629124D02*
X147120793Y-123339224D01*
X147495993Y-116269844D02*
X147495993Y-116001444D01*
X147788793Y-125687384D02*
X147339393Y-124710604D01*
X148046593Y-118023284D02*
X147633393Y-117075164D01*
X148566393Y-126668244D02*
X148210793Y-126287384D01*
X147847593Y-125777484D02*
X147788793Y-125687384D01*
X148644593Y-126738524D02*
X148566393Y-126668244D01*
X151856593Y-112039204D02*
X157811393Y-112039204D01*
X150127393Y-127523724D02*
X149723193Y-127398924D01*
X148603593Y-120220945D02*
X149492393Y-119638864D01*
X149699593Y-119541364D02*
X149442993Y-119393884D01*
X151856593Y-127746684D02*
X151569393Y-127746684D01*
X147495993Y-115797464D02*
X147577793Y-115186404D01*
X157811393Y-127746684D02*
X151856593Y-127746684D01*
X147800793Y-121088564D02*
X147910193Y-120928204D01*
X151630792Y-112039204D02*
X151856593Y-112039204D01*
X149988793Y-112394804D02*
X150121593Y-112344204D01*
X148738393Y-113188004D02*
X148835993Y-113098204D01*
X147495993Y-116001444D02*
X147495993Y-115797464D01*
X147633393Y-117075164D02*
X147495993Y-116269844D01*
X149442993Y-119393884D02*
X148735393Y-118845104D01*
X148718793Y-126804984D02*
X148644593Y-126738524D01*
X147902193Y-125867364D02*
X147847593Y-125777484D01*
X150707793Y-127652984D02*
X150602193Y-127633444D01*
X150254393Y-112293204D02*
X150953993Y-112115404D01*
X149652793Y-127371604D02*
X149558793Y-127332444D01*
X149558793Y-127332444D02*
X149119193Y-127096024D01*
X147910193Y-120928204D02*
X148603593Y-120220945D01*
X148835993Y-113098204D02*
X149377193Y-112707404D01*
X147824193Y-114430404D02*
X147878793Y-114309204D01*
X147577793Y-115186404D02*
X147769393Y-114551404D01*
X150809393Y-127668444D02*
X150707793Y-127652984D01*
X165172593Y-105228404D02*
X165287993Y-105601404D01*
M02*
