%TF.GenerationSoftware,KiCad,Pcbnew,(5.1.10)-1*%
%TF.CreationDate,2021-09-18T02:49:05-07:00*%
%TF.ProjectId,barobord-switchplate-outside-pcb,6261726f-626f-4726-942d-737769746368,rev?*%
%TF.SameCoordinates,Original*%
%TF.FileFunction,Profile,NP*%
%FSLAX46Y46*%
G04 Gerber Fmt 4.6, Leading zero omitted, Abs format (unit mm)*
G04 Created by KiCad (PCBNEW (5.1.10)-1) date 2021-09-18 02:49:05*
%MOMM*%
%LPD*%
G01*
G04 APERTURE LIST*
%TA.AperFunction,Profile*%
%ADD10C,0.084650*%
%TD*%
G04 APERTURE END LIST*
D10*
X165588658Y-145209810D02*
X170381077Y-140395716D01*
X115686031Y-135538221D02*
G75*
G02*
X115716012Y-135550561I1J-42587D01*
G01*
X125505432Y-145315838D02*
X120574298Y-150246432D01*
X178346235Y-138565371D02*
X180231657Y-140447920D01*
X170381077Y-140395716D02*
X175174249Y-135581999D01*
X165568927Y-145374635D02*
G75*
G02*
X165544882Y-145315843I59853J58792D01*
G01*
X175174248Y-135581999D02*
G75*
G02*
X175279629Y-135538220I105381J-104943D01*
G01*
X180231657Y-140447920D02*
X185140809Y-145357620D01*
X105824854Y-145357620D02*
X110734007Y-140447920D01*
X168559230Y-148408416D02*
X166980969Y-146811555D01*
X175279629Y-135538221D02*
G75*
G02*
X175309612Y-135550563I0J-42590D01*
G01*
X175309612Y-135550563D02*
X176751973Y-136980445D01*
X117152238Y-136974308D02*
X118739756Y-138552491D01*
X115643164Y-155177025D02*
X110734009Y-150267323D01*
X166980969Y-146811555D02*
X165568927Y-145374636D01*
X180231655Y-150267322D02*
X175322501Y-155177023D01*
X118739756Y-138552491D02*
X120617168Y-140427029D01*
X112619428Y-138565371D02*
X114213689Y-136980445D01*
X110734009Y-150267323D02*
X105824854Y-145357620D01*
X115716012Y-135550561D02*
X117152238Y-136974308D01*
X120574298Y-150246432D02*
X115643164Y-155177025D01*
X176751973Y-136980445D02*
X178346235Y-138565371D01*
X165544881Y-145315843D02*
G75*
G02*
X165588658Y-145209810I150302J0D01*
G01*
X185140809Y-145357620D02*
X180231655Y-150267322D01*
X110734007Y-140447920D02*
X112619428Y-138565371D01*
X170433691Y-150288758D02*
X168559230Y-148408416D01*
X175322501Y-155177023D02*
X170433691Y-150288758D01*
X115656050Y-135550561D02*
G75*
G02*
X115686032Y-135538220I29981J-30247D01*
G01*
X114213689Y-136980445D02*
X115656050Y-135550562D01*
X120617168Y-140427029D02*
X125505432Y-145315838D01*
X221434060Y-22289482D02*
G75*
G02*
X222800048Y-23380239I-2923997J-5062522D01*
G01*
X222800048Y-23380239D02*
G75*
G02*
X223308168Y-24018807I-4007899J-3710606D01*
G01*
X217899637Y-21359982D02*
G75*
G02*
X219751392Y-21597054I16870J-7218730D01*
G01*
X219751392Y-21597054D02*
G75*
G02*
X221434059Y-22289482I-1738875J-6616372D01*
G01*
X234634150Y-26629112D02*
X232394482Y-27659149D01*
X238296773Y-24985672D02*
G75*
G02*
X238684210Y-24846502I1159406J-2618813D01*
G01*
X244588342Y-25978650D02*
G75*
G02*
X245468252Y-26752011I-3915127J-5341785D01*
G01*
X258342372Y-53541756D02*
X246549608Y-28328919D01*
X256271806Y-94043061D02*
X256239009Y-93901822D01*
X256526742Y-95110544D02*
G75*
G02*
X256615933Y-96185808I-9568394J-1335015D01*
G01*
X245468251Y-26752011D02*
G75*
G02*
X246175740Y-27651795I-4373777J-4167081D01*
G01*
X256239009Y-93901822D02*
X256219526Y-93786015D01*
X239856959Y-24699675D02*
X239388107Y-24725631D01*
X240502457Y-24691011D02*
X239856959Y-24699675D01*
X242404098Y-24887466D02*
G75*
G02*
X243558142Y-25351788I-2383302J-7589864D01*
G01*
X255865563Y-99515851D02*
X256209085Y-98790907D01*
X267753495Y-88318459D02*
X268020217Y-88177206D01*
X243558142Y-25351789D02*
G75*
G02*
X244588341Y-25978651I-3126959J-6298870D01*
G01*
X266101196Y-89103181D02*
X267753495Y-88318459D01*
X256271139Y-93723341D02*
X257935868Y-92938453D01*
X251049052Y-103294220D02*
X253117841Y-102252735D01*
X245098853Y-106093775D02*
X251049052Y-103294220D01*
X270878463Y-84253877D02*
G75*
G02*
X270386667Y-85589239I-6095702J1486721D01*
G01*
X255463985Y-100214499D02*
X255865563Y-99515851D01*
X246175741Y-27651796D02*
G75*
G02*
X246549608Y-28328919I-4861610J-3126067D01*
G01*
X241865341Y-107605547D02*
X245098853Y-106093775D01*
X270990773Y-81291784D02*
G75*
G02*
X271083222Y-82785601I-7419944J-1208969D01*
G01*
X257935868Y-92938453D02*
X259785512Y-92068830D01*
X256318921Y-94202374D02*
G75*
G02*
X256526741Y-95110544I-5142624J-1654672D01*
G01*
X255067777Y-100759758D02*
G75*
G02*
X254242551Y-101539553I-3696806J3085634D01*
G01*
X270386666Y-85589239D02*
G75*
G02*
X269934144Y-86342416I-5271541J2654709D01*
G01*
X256425510Y-98165245D02*
G75*
G02*
X256209085Y-98790907I-4577381J1233117D01*
G01*
X225834832Y-28843272D02*
X225392432Y-27928185D01*
X270603110Y-79880845D02*
G75*
G02*
X270990774Y-81291784I-6397444J-2516463D01*
G01*
X226560022Y-30294604D02*
X226216854Y-29614090D01*
X226640111Y-30307153D02*
G75*
G02*
X226594229Y-30316400I-42637J93107D01*
G01*
X256584680Y-97260246D02*
G75*
G02*
X256425510Y-98165245I-5147609J438857D01*
G01*
X232394482Y-27659149D02*
X230188933Y-28678575D01*
X236610347Y-25736046D02*
X234634150Y-26629112D01*
X238296772Y-24985671D02*
X236610347Y-25736046D01*
X230188933Y-28678575D02*
X228322400Y-29536604D01*
X261973988Y-91044292D02*
X264183428Y-90008636D01*
X238684210Y-24846502D02*
G75*
G02*
X239016158Y-24772535I854363J-3052361D01*
G01*
X254242552Y-101539553D02*
G75*
G02*
X253117841Y-102252735I-5384489J7248063D01*
G01*
X239388107Y-24725631D02*
X239016158Y-24772535D01*
X268692131Y-87701067D02*
G75*
G02*
X268020217Y-88177206I-3084398J3640452D01*
G01*
X259785512Y-92068830D02*
X261973988Y-91044292D01*
X256219526Y-93786015D02*
G75*
G02*
X256231034Y-93751552I40263J5708D01*
G01*
X241660346Y-24724187D02*
X241221923Y-24697372D01*
X241660346Y-24724187D02*
G75*
G02*
X242012853Y-24782018I-307804J-2979496D01*
G01*
X271083223Y-82785602D02*
G75*
G02*
X270878462Y-84253878I-7370621J279464D01*
G01*
X256231034Y-93751552D02*
G75*
G02*
X256271139Y-93723341I101066J-101066D01*
G01*
X256318921Y-94202374D02*
X256271806Y-94043061D01*
X264183428Y-90008636D02*
X266101196Y-89103181D01*
X256615933Y-96185808D02*
G75*
G02*
X256584680Y-97260246I-9604049J-258317D01*
G01*
X255463985Y-100214499D02*
G75*
G02*
X255067777Y-100759758I-4252325J2673337D01*
G01*
X242404098Y-24887466D02*
X242012853Y-24782018D01*
X269349789Y-87067820D02*
G75*
G02*
X268692131Y-87701066I-5301202J4847439D01*
G01*
X241221923Y-24697372D02*
X240502457Y-24691011D01*
X223843828Y-24877553D02*
X223308168Y-24018807D01*
X224494136Y-26093625D02*
X223843828Y-24877553D01*
X269961580Y-78388773D02*
X258342372Y-53541756D01*
X270603110Y-79880845D02*
X269961580Y-78388773D01*
X269934144Y-86342416D02*
G75*
G02*
X269349789Y-87067821I-6078986J4298909D01*
G01*
X225392432Y-27928185D02*
X224494136Y-26093625D01*
X226216854Y-29614090D02*
X225834832Y-28843272D01*
X226594229Y-30316399D02*
G75*
G02*
X226560022Y-30294604I1259J39717D01*
G01*
X228322400Y-29536604D02*
X226640111Y-30307152D01*
X110573454Y-162890459D02*
X111656046Y-163896224D01*
X228489047Y-126631146D02*
G75*
G02*
X228016025Y-128555497I-7057311J714439D01*
G01*
X224305529Y-132259116D02*
X225315881Y-131753601D01*
X177953192Y-164816806D02*
X178535831Y-164534492D01*
X112904062Y-164669924D02*
X113643611Y-164962314D01*
X217871293Y-135309615D02*
X220088237Y-134269019D01*
X112904063Y-164669924D02*
G75*
G02*
X112257707Y-164337058I2639196J5918745D01*
G01*
X112257707Y-164337059D02*
G75*
G02*
X111656046Y-163896224I1881817J3199345D01*
G01*
X108759247Y-161121664D02*
X110573454Y-162890459D01*
X220088237Y-134269019D02*
X221748963Y-133489205D01*
X116203628Y-165403078D02*
X134735972Y-165409698D01*
X213357686Y-137427473D02*
X215509755Y-136417826D01*
X235021963Y-110619448D02*
G75*
G02*
X233873687Y-110840096I-2194485J8322128D01*
G01*
X229843583Y-110051396D02*
G75*
G02*
X228978735Y-109482573I3641837J6478989D01*
G01*
X223265252Y-110815195D02*
X224152607Y-110372198D01*
X224124232Y-114886201D02*
X223268912Y-113017828D01*
X223094978Y-132849728D02*
X224305529Y-132259116D01*
X221748963Y-133489205D02*
X223094978Y-132849728D01*
X179997451Y-163522007D02*
X181972908Y-161590588D01*
X232762909Y-110896229D02*
G75*
G02*
X231737301Y-110782869I120888J5789908D01*
G01*
X113643611Y-164962314D02*
X114405890Y-165190315D01*
X228402730Y-124674126D02*
G75*
G02*
X228489048Y-126631146I-6659252J-1274131D01*
G01*
X239040580Y-108919925D02*
X241865341Y-107605547D01*
X222507321Y-111346319D02*
G75*
G02*
X222484435Y-111264200I250372J114025D01*
G01*
X227112915Y-121369738D02*
X225137542Y-117084520D01*
X200998786Y-144893000D02*
X208391215Y-139757152D01*
X166687657Y-165341542D02*
X176676357Y-165285183D01*
X236614009Y-110044499D02*
X239040580Y-108919925D01*
X223268912Y-113017828D02*
X222507322Y-111346319D01*
X222484434Y-111264200D02*
G75*
G02*
X222518247Y-111200489I63059J7362D01*
G01*
X236159749Y-110241264D02*
X236614009Y-110044499D01*
X236159749Y-110241264D02*
G75*
G02*
X235021964Y-110619448I-3562900J8818524D01*
G01*
X231737301Y-110782869D02*
G75*
G02*
X230801547Y-110506537I1100759J5450109D01*
G01*
X227035981Y-130256058D02*
G75*
G02*
X225642863Y-131560538I-4904396J3841512D01*
G01*
X179097203Y-164206265D02*
X179633165Y-163834510D01*
X225642863Y-131560538D02*
G75*
G02*
X225315881Y-131753601I-1637160J2399360D01*
G01*
X184260459Y-159337711D02*
X186876682Y-156738414D01*
X98036507Y-150453488D02*
X104808507Y-157196112D01*
X179997451Y-163522007D02*
G75*
G02*
X179633165Y-163834510I-2616345J2681310D01*
G01*
X152297535Y-165395502D02*
X166687657Y-165341542D01*
X116203627Y-165403078D02*
G75*
G02*
X115120769Y-165329134I3804J8021503D01*
G01*
X104808507Y-157196112D02*
X108759247Y-161121664D01*
X228978735Y-109482574D02*
G75*
G02*
X228325170Y-108864913I2584383J3389221D01*
G01*
X178535831Y-164534492D02*
X179097203Y-164206265D01*
X134735972Y-165409698D02*
X152297535Y-165395502D01*
X115120769Y-165329133D02*
G75*
G02*
X114405890Y-165190315I882681J6455703D01*
G01*
X233873688Y-110840097D02*
G75*
G02*
X232762909Y-110896229I-947976J7740582D01*
G01*
X230801548Y-110506537D02*
G75*
G02*
X229843583Y-110051396I2835828J7204461D01*
G01*
X228038659Y-108530189D02*
X228325170Y-108864913D01*
X225255333Y-109843972D02*
X228038659Y-108530189D01*
X224152607Y-110372198D02*
X225255333Y-109843972D01*
X215509755Y-136417826D02*
X217871293Y-135309615D01*
X228202121Y-123932101D02*
G75*
G02*
X228402730Y-124674126I-4837594J-1705989D01*
G01*
X228202121Y-123932101D02*
X227833968Y-122990352D01*
X181972908Y-161590588D02*
X184260459Y-159337711D01*
X222518247Y-111200489D02*
X223265252Y-110815195D01*
X225137542Y-117084520D02*
X224124232Y-114886201D01*
X227833968Y-122990352D02*
X227112915Y-121369738D01*
X228016024Y-128555497D02*
G75*
G02*
X227035980Y-130256057I-6452645J2586020D01*
G01*
X208391215Y-139757152D02*
X213357686Y-137427473D01*
X193606357Y-150028848D02*
X200998786Y-144893000D01*
X186876682Y-156738414D02*
X193606357Y-150028848D01*
X177353557Y-165051103D02*
X177953192Y-164816806D01*
X176676357Y-165285183D02*
X177353557Y-165051103D01*
X36078071Y-100705101D02*
G75*
G02*
X35793274Y-100366145I2946589J2764905D01*
G01*
X65591725Y-117888695D02*
X63461276Y-122549997D01*
X59436106Y-110696362D02*
G75*
G02*
X58749768Y-110811326I-1045294J4134216D01*
G01*
X34948331Y-93936295D02*
X34896696Y-94129685D01*
X36909452Y-101528482D02*
X37292530Y-101857045D01*
X36530815Y-101170320D02*
X36909452Y-101528482D01*
X36078071Y-100705102D02*
X36530815Y-101170320D01*
X35793273Y-100366146D02*
G75*
G02*
X35568604Y-100024112I2607573J1957624D01*
G01*
X34615648Y-96135122D02*
X34619095Y-97126744D01*
X67658993Y-113400024D02*
X66703973Y-115471620D01*
X39265620Y-103012795D02*
X47265386Y-106638256D01*
X34753084Y-94693404D02*
G75*
G02*
X34832440Y-94357213I3476706J-643192D01*
G01*
X70136161Y-133877293D02*
X72766859Y-135114161D01*
X67922165Y-132838442D02*
X70136161Y-133877293D01*
X34974229Y-93746773D02*
G75*
G02*
X34987583Y-93754680I-34155J-72913D01*
G01*
X65138183Y-131304635D02*
G75*
G02*
X64373290Y-130611780I4039214J5227816D01*
G01*
X62547873Y-126324681D02*
G75*
G02*
X62588451Y-125132320I7252015J350073D01*
G01*
X62588450Y-125132319D02*
G75*
G02*
X62832635Y-124095396I4610442J-538496D01*
G01*
X62534622Y-108982666D02*
G75*
G02*
X61842701Y-109561281I-4965029J5234276D01*
G01*
X63215596Y-128953106D02*
G75*
G02*
X62865297Y-128140723I4914927J2601032D01*
G01*
X37292530Y-101857045D02*
X37654663Y-102135796D01*
X62865297Y-128140722D02*
G75*
G02*
X62651836Y-127292742I5124574J1740858D01*
G01*
X68584338Y-111404508D02*
X68499837Y-111578576D01*
X34691937Y-95092225D02*
X34646540Y-95566482D01*
X63008987Y-108532702D02*
X65852741Y-109858561D01*
X34719203Y-97924633D02*
G75*
G02*
X34619095Y-97126744I4999561J1032499D01*
G01*
X57064158Y-110798290D02*
G75*
G02*
X56388707Y-110672616I408231J4072071D01*
G01*
X29512332Y-91189947D02*
X31606984Y-92169877D01*
X61842702Y-109561281D02*
G75*
G02*
X61090297Y-110043071I-4114444J5597062D01*
G01*
X34941528Y-98685898D02*
G75*
G02*
X34719203Y-97924632I4607536J1758715D01*
G01*
X34646540Y-95566482D02*
X34615648Y-96135122D01*
X61090296Y-110043071D02*
G75*
G02*
X60285213Y-110422669I-3336175J6032099D01*
G01*
X34896696Y-94129685D02*
X34832440Y-94357213D01*
X34987582Y-93754680D02*
G75*
G02*
X34991783Y-93766348I-6535J-8943D01*
G01*
X33372906Y-92996670D02*
X34974229Y-93746773D01*
X31606984Y-92169877D02*
X33372906Y-92996670D01*
X60285214Y-110422668D02*
G75*
G02*
X59436107Y-110696362I-2554324J6470557D01*
G01*
X35323354Y-99561971D02*
G75*
G02*
X34941529Y-98685898I9246886J4551380D01*
G01*
X56388707Y-110672616D02*
G75*
G02*
X55438793Y-110330292I1718009J6256410D01*
G01*
X39265620Y-103012796D02*
G75*
G02*
X37967885Y-102340609I5848636J12880278D01*
G01*
X34991783Y-93766348D02*
X34948331Y-93936295D01*
X35323354Y-99561970D02*
X35568604Y-100024112D01*
X27387425Y-90191746D02*
X29512332Y-91189947D01*
X47265386Y-106638256D02*
X55438793Y-110330292D01*
X37967885Y-102340608D02*
G75*
G02*
X37654663Y-102135796I1910345J3263430D01*
G01*
X34753084Y-94693404D02*
X34691937Y-95092225D01*
X90594311Y-145232028D02*
X98036507Y-150453488D01*
X83152115Y-140010568D02*
X90594311Y-145232028D01*
X75695911Y-136494252D02*
X83152115Y-140010568D01*
X72766859Y-135114161D02*
X75695911Y-136494252D01*
X67239517Y-132523263D02*
X67922165Y-132838442D01*
X66703973Y-115471620D02*
X65591725Y-117888695D01*
X66076190Y-131929406D02*
G75*
G02*
X65138183Y-131304635I3970501J6977693D01*
G01*
X67239517Y-132523263D02*
G75*
G02*
X66076190Y-131929406I5963322J13118130D01*
G01*
X62534622Y-108982666D02*
X63008987Y-108532702D01*
X64373290Y-130611779D02*
G75*
G02*
X63733300Y-129814221I4631559J4372085D01*
G01*
X63733300Y-129814221D02*
G75*
G02*
X63215596Y-128953105I7624710J5170168D01*
G01*
X62651836Y-127292742D02*
G75*
G02*
X62547873Y-126324681I8177480J1367818D01*
G01*
X63461276Y-122549997D02*
X62832635Y-124095396D01*
X68499837Y-111578576D02*
X67658993Y-113400024D01*
X68696494Y-111184420D02*
X68584338Y-111404508D01*
X65852741Y-109858561D02*
X68696494Y-111184420D01*
X58749769Y-110811326D02*
G75*
G02*
X57905336Y-110843635I-772894J9149229D01*
G01*
X57905335Y-110843635D02*
G75*
G02*
X57064157Y-110798290I71285J9147177D01*
G01*
X70186656Y-21831003D02*
G75*
G02*
X70521154Y-21692525I1134475J-2267111D01*
G01*
X64371067Y-30270908D02*
X64199104Y-30201907D01*
X69327497Y-22358411D02*
G75*
G02*
X70186657Y-21831003I3467756J-4685553D01*
G01*
X66765460Y-25414555D02*
X65811762Y-27405961D01*
X67113061Y-24752006D02*
G75*
G02*
X67688376Y-23916218I5173598J-2945350D01*
G01*
X68460858Y-23086212D02*
G75*
G02*
X69327497Y-22358412I6351934J-6683775D01*
G01*
X70995197Y-21549880D02*
X70521154Y-21692525D01*
X64199104Y-30201907D02*
X63994433Y-30110658D01*
X72091282Y-21317106D02*
X71536959Y-21419456D01*
X51695564Y-24688563D02*
G75*
G02*
X52409656Y-24874682I-1142524J-5846519D01*
G01*
X62884825Y-29601709D02*
X61593109Y-29008230D01*
X64446726Y-30276669D02*
G75*
G02*
X64371067Y-30270908I-27747J135295D01*
G01*
X71536959Y-21419456D02*
X70995197Y-21549880D01*
X64498388Y-30239591D02*
G75*
G02*
X64446726Y-30276669I-67319J39267D01*
G01*
X25523458Y-89306539D02*
X27387425Y-90191746D01*
X20267616Y-84010535D02*
G75*
G02*
X20112369Y-83207018I4505428J1287247D01*
G01*
X44189449Y-28869946D02*
G75*
G02*
X44797563Y-27764843I8448031J-3928904D01*
G01*
X54568732Y-25774588D02*
X53278784Y-25202433D01*
X64551951Y-30129544D02*
G75*
G02*
X64498388Y-30239591I-758340J301043D01*
G01*
X49215114Y-24716382D02*
G75*
G02*
X50954081Y-24588983I1299266J-5802739D01*
G01*
X52409656Y-24874682D02*
G75*
G02*
X53278784Y-25202433I-3315543J-10108398D01*
G01*
X20063001Y-82236472D02*
G75*
G02*
X20115329Y-81278183I9096614J-16151D01*
G01*
X50954082Y-24588982D02*
G75*
G02*
X51695564Y-24688563I-465242J-6274592D01*
G01*
X67688375Y-23916217D02*
G75*
G02*
X68460858Y-23086212I7144388J-5874773D01*
G01*
X23937635Y-88546302D02*
G75*
G02*
X23600315Y-88364155I1770396J3682038D01*
G01*
X44797564Y-27764843D02*
G75*
G02*
X45970884Y-26389771I5626100J-3612514D01*
G01*
X20775327Y-85301039D02*
G75*
G02*
X20267616Y-84010534I6410196J3267028D01*
G01*
X65811762Y-27405961D02*
X64871892Y-29391166D01*
X47496583Y-25340311D02*
G75*
G02*
X49215115Y-24716382I3283375J-6364930D01*
G01*
X56913272Y-26853218D02*
X55484816Y-26195789D01*
X23937635Y-88546302D02*
X25523458Y-89306539D01*
X21529531Y-86497762D02*
G75*
G02*
X20775327Y-85301040I6180048J4730840D01*
G01*
X45970883Y-26389771D02*
G75*
G02*
X47496582Y-25340311I4896033J-5484063D01*
G01*
X67113060Y-24752005D02*
X66765460Y-25414555D01*
X20273820Y-80515721D02*
G75*
G02*
X20738650Y-79313010I9298971J-2902728D01*
G01*
X23600316Y-88364155D02*
G75*
G02*
X22487682Y-87537947I3703414J6149574D01*
G01*
X55484816Y-26195789D02*
X54568732Y-25774588D01*
X61593109Y-29008230D02*
X60113307Y-28326961D01*
X22487682Y-87537947D02*
G75*
G02*
X21529531Y-86497761I5219117J5768892D01*
G01*
X20112369Y-83207018D02*
G75*
G02*
X20063002Y-82236473I9192891J954130D01*
G01*
X20115329Y-81278183D02*
G75*
G02*
X20273821Y-80515720I3971996J-427947D01*
G01*
X44189449Y-28869946D02*
X32459467Y-54096676D01*
X60113307Y-28326961D02*
X58527643Y-27596535D01*
X63994433Y-30110658D02*
X62884825Y-29601709D01*
X32459467Y-54096676D02*
X20738650Y-79313010D01*
X58527643Y-27596535D02*
X56913272Y-26853218D01*
X64871892Y-29391166D02*
X64551950Y-30129544D01*
X212467069Y-127669001D02*
X206341668Y-130515421D01*
X72532569Y-124913387D02*
G75*
G02*
X72240236Y-124714027I447090J969609D01*
G01*
X79201814Y-112646049D02*
X80852248Y-113414720D01*
X182414941Y-91626051D02*
X183152117Y-93181599D01*
X176096174Y-94539505D02*
X182206363Y-91661053D01*
X78724449Y-112424684D02*
X79201814Y-112646049D01*
X183152117Y-93181599D02*
X183965913Y-94908617D01*
X75106478Y-118380171D02*
X78035391Y-112106478D01*
X213940074Y-114268176D02*
X214877670Y-116270055D01*
X212906557Y-112117375D02*
X213026608Y-112336560D01*
X213115040Y-112510623D02*
X213940074Y-114268176D01*
X213026608Y-112336560D02*
X213115040Y-112510623D01*
X87144213Y-116348434D02*
X88952684Y-117193469D01*
X80852248Y-113414720D02*
X82809992Y-114326969D01*
X203248844Y-124233648D02*
X200365102Y-118025930D01*
X206684782Y-115022602D02*
X212906557Y-112117375D01*
X87739545Y-124204639D02*
X84886064Y-130335570D01*
X204294462Y-116138223D02*
X206684782Y-115022602D01*
X88952684Y-117193469D02*
X90589794Y-117959154D01*
X182206363Y-91661053D02*
G75*
G02*
X182390232Y-91611820I228331J-484777D01*
G01*
X84886064Y-130335570D02*
G75*
G02*
X84783724Y-130490579I-571514J266035D01*
G01*
X202271021Y-117081432D02*
X204294462Y-116138223D01*
X169891080Y-97613139D02*
G75*
G02*
X169884912Y-97504053I134175J62305D01*
G01*
X78557427Y-127689716D02*
X72532569Y-124913386D01*
X73056343Y-122828640D02*
X73987935Y-120790053D01*
X200449493Y-117929819D02*
X202271021Y-117081432D01*
X169884912Y-97504054D02*
G75*
G02*
X169942424Y-97439279I104445J-34814D01*
G01*
X200449493Y-117929819D02*
G75*
G02*
X200396176Y-117951702I-262340J563283D01*
G01*
X218724272Y-124717691D02*
G75*
G02*
X218542887Y-124844551I-449286J449287D01*
G01*
X217941122Y-122895342D02*
X218735212Y-124657984D01*
X72240236Y-124714027D02*
G75*
G02*
X72229338Y-124657578I34499J35937D01*
G01*
X72229338Y-124657578D02*
X73056343Y-122828640D01*
X84685025Y-130510998D02*
X78557427Y-127689716D01*
X90619635Y-118015355D02*
X87739545Y-124204639D01*
X90589794Y-117959154D02*
G75*
G02*
X90609533Y-117971526I-40423J-86427D01*
G01*
X183965913Y-94908617D02*
X184924451Y-96960696D01*
X90609534Y-117971525D02*
G75*
G02*
X90619635Y-118015355I-23069J-28395D01*
G01*
X200365102Y-118025930D02*
G75*
G02*
X200396176Y-117951702I49394J22941D01*
G01*
X85000407Y-115348179D02*
X87144213Y-116348434D01*
X182390231Y-91611820D02*
G75*
G02*
X182414941Y-91626051I2079J-24959D01*
G01*
X218542887Y-124844551D02*
X212467069Y-127669001D01*
X215967700Y-118604483D02*
X217044745Y-120928404D01*
X169942424Y-97439279D02*
X176096174Y-94539505D01*
X217044745Y-120928404D02*
X217941122Y-122895342D01*
X78035391Y-112106478D02*
X78724449Y-112424684D01*
X206124833Y-130421767D02*
X203248844Y-124233648D01*
X218735211Y-124657985D02*
G75*
G02*
X218724272Y-124717690I-48717J-21928D01*
G01*
X82809992Y-114326969D02*
X85000407Y-115348179D01*
X84783724Y-130490580D02*
G75*
G02*
X84685025Y-130510998I-63194J56712D01*
G01*
X206236477Y-130521393D02*
G75*
G02*
X206124833Y-130421767I59717J179289D01*
G01*
X206341668Y-130515420D02*
G75*
G02*
X206236477Y-130521393I-60111J129373D01*
G01*
X73987935Y-120790053D02*
X75106478Y-118380171D01*
X108660082Y-91653526D02*
G75*
G02*
X108759943Y-91694070I-370984J-1056996D01*
G01*
X187857525Y-103254087D02*
X188298704Y-104195079D01*
X112554793Y-93453885D02*
X114912192Y-94550743D01*
X226148056Y-99248520D02*
X220853334Y-101704600D01*
X107103448Y-94696078D02*
X107950330Y-92928992D01*
X222558404Y-87859940D02*
X223523387Y-89881967D01*
X118259833Y-103698026D02*
X115514061Y-109662014D01*
X121073639Y-97493841D02*
G75*
G02*
X121071320Y-97587675I-110152J-44224D01*
G01*
X109029406Y-107154756D02*
X106196005Y-105827659D01*
X223523387Y-89881967D02*
X224651795Y-92284431D01*
X69434596Y-86064284D02*
X71244066Y-86897938D01*
X113450366Y-109204445D02*
X111428171Y-108269858D01*
X221633558Y-86022044D02*
G75*
G02*
X221687391Y-86054208I2502J-56944D01*
G01*
X184924451Y-96960696D02*
X185911023Y-99079294D01*
X103622348Y-102203460D02*
X104551576Y-100177220D01*
X106196005Y-105827659D02*
X104295737Y-104917980D01*
X108558441Y-91694866D02*
G75*
G02*
X108660082Y-91653526I74206J-36826D01*
G01*
X114912192Y-94550743D02*
X117263255Y-95650992D01*
X214943843Y-104336613D02*
X212084144Y-98250608D01*
X188298704Y-104195079D02*
X182022975Y-107123612D01*
X110549016Y-92522967D02*
X112554793Y-93453885D01*
X115514061Y-109662015D02*
G75*
G02*
X115299380Y-110041955I-2400012J1105479D01*
G01*
X187571177Y-102641648D02*
X187857525Y-103254087D01*
X215300359Y-88939790D02*
X221304401Y-86103464D01*
X102834267Y-104204325D02*
G75*
G02*
X102776907Y-104112339I45077J91986D01*
G01*
X111428171Y-108269858D02*
X109029406Y-107154756D01*
X224651795Y-92284431D02*
X227577331Y-98550892D01*
X102776906Y-104112339D02*
G75*
G02*
X102798437Y-104013024I239822J0D01*
G01*
X104295737Y-104917980D02*
X102834267Y-104204325D01*
X117263255Y-95650992D02*
X119248735Y-96591997D01*
X172733118Y-103732647D02*
X169891081Y-97613139D01*
X177572134Y-109173281D02*
X175742614Y-109999528D01*
X108759943Y-91694070D02*
X110549016Y-92522967D01*
X119248735Y-96591997D02*
X121023438Y-97440300D01*
X215112315Y-104364899D02*
G75*
G02*
X215016277Y-104384358I-88840J191732D01*
G01*
X186813947Y-101017244D02*
X187571177Y-102641648D01*
X185911023Y-99079294D02*
X186813947Y-101017244D01*
X107950330Y-92928992D02*
X108558442Y-91694866D01*
X209286075Y-92291846D02*
G75*
G02*
X209159693Y-91918742I1592411J747356D01*
G01*
X73265197Y-87831894D02*
X75644743Y-88936294D01*
X215016277Y-104384358D02*
G75*
G02*
X214943843Y-104336613I2833J83116D01*
G01*
X69350941Y-86035846D02*
G75*
G02*
X69434596Y-86064284I-94485J-415200D01*
G01*
X221304400Y-86103463D02*
G75*
G02*
X221633557Y-86022044I366889J-777174D01*
G01*
X220853334Y-101704600D02*
X215112314Y-104364899D01*
X71244066Y-86897938D02*
X73265197Y-87831894D01*
X69279454Y-86070088D02*
G75*
G02*
X69350942Y-86035846I57334J-27953D01*
G01*
X175552486Y-109800863D02*
X172733118Y-103732647D01*
X121023439Y-97440300D02*
G75*
G02*
X121073639Y-97493841I-43630J-91212D01*
G01*
X175683900Y-109988798D02*
G75*
G02*
X175552486Y-109800863I465212J465211D01*
G01*
X175742614Y-109999529D02*
G75*
G02*
X175683899Y-109988798I-21593J47852D01*
G01*
X105655007Y-97795895D02*
X107103448Y-94696078D01*
X221687391Y-86054208D02*
X222558404Y-87859940D01*
X115299380Y-110041955D02*
G75*
G02*
X115280643Y-110047164I-12444J8459D01*
G01*
X115280643Y-110047164D02*
X113450366Y-109204445D01*
X212084144Y-98250608D02*
X209286075Y-92291847D01*
X102798437Y-104013024D02*
X103622348Y-102203460D01*
X209208000Y-91820576D02*
X215300359Y-88939790D01*
X179612093Y-108241957D02*
X177572134Y-109173281D01*
X182022975Y-107123612D02*
X179612093Y-108241957D01*
X121071320Y-97587675D02*
X118259833Y-103698026D01*
X104551576Y-100177220D02*
X105655007Y-97795895D01*
X209159694Y-91918742D02*
G75*
G02*
X209208000Y-91820576I85891J18702D01*
G01*
X227267894Y-98706726D02*
X226148056Y-99248520D01*
X227577331Y-98550892D02*
X227267894Y-98706726D01*
X80945226Y-93811297D02*
X80010759Y-95831392D01*
X228462611Y-88337174D02*
G75*
G02*
X228561564Y-88267989I244866J-244866D01*
G01*
X78905607Y-98209791D02*
X77454686Y-101313170D01*
X241904768Y-84350964D02*
X242851762Y-86374675D01*
X234761072Y-85387816D02*
X240995390Y-82491757D01*
X81773233Y-91848629D02*
G75*
G02*
X81807405Y-91919322I-27698J-56994D01*
G01*
X75416978Y-104189032D02*
X69547059Y-101428487D01*
X76000185Y-104311210D02*
G75*
G02*
X75894729Y-104359743I-82835J41152D01*
G01*
X76607647Y-103079474D02*
X76000185Y-104311209D01*
X80010759Y-95831392D02*
X78905607Y-98209791D01*
X241031779Y-82498201D02*
G75*
G02*
X241046417Y-82519065I-52167J-52168D01*
G01*
X242851762Y-86374675D02*
X243972310Y-88774133D01*
X75644743Y-88936294D02*
X78252523Y-90155988D01*
X241046417Y-82519065D02*
X241904768Y-84350964D01*
X81807404Y-91919322D02*
G75*
G02*
X81779347Y-92002605I-401540J88910D01*
G01*
X80185244Y-91078430D02*
X81773233Y-91848628D01*
X228561564Y-88267989D02*
X234761072Y-85387816D01*
X78252523Y-90155988D02*
X80185244Y-91078430D01*
X68509464Y-87652654D02*
X69279454Y-86070088D01*
X67583349Y-89587256D02*
X68509464Y-87652654D01*
X81779347Y-92002605D02*
X80945226Y-93811297D01*
X228453250Y-88390042D02*
G75*
G02*
X228462611Y-88337174I42490J19739D01*
G01*
X77454686Y-101313170D02*
X76607647Y-103079474D01*
X240995390Y-82491757D02*
G75*
G02*
X241031779Y-82498201I13586J-29247D01*
G01*
X66350241Y-92215863D02*
X67583349Y-89587256D01*
X65240938Y-94600874D02*
X66350241Y-92215863D01*
X64306876Y-96622915D02*
X65240938Y-94600874D01*
X63471470Y-98439728D02*
X64306876Y-96622915D01*
X63456982Y-98505935D02*
G75*
G02*
X63471470Y-98439728I158520J0D01*
G01*
X63507458Y-98585491D02*
G75*
G02*
X63456982Y-98505936I37455J79555D01*
G01*
X69547059Y-101428487D02*
X63507458Y-98585491D01*
X75894729Y-104359743D02*
G75*
G02*
X75416978Y-104189032I646438J2562984D01*
G01*
X92449607Y-81362561D02*
G75*
G02*
X92515086Y-81376614I1277J-153626D01*
G01*
X49956436Y-82525313D02*
G75*
G02*
X50035484Y-82495221I55184J-26092D01*
G01*
X47091289Y-88586167D02*
X49956435Y-82525313D01*
X44139116Y-94970711D02*
G75*
G02*
X44312325Y-94471299I2412228J-556880D01*
G01*
X186044097Y-87298690D02*
G75*
G02*
X186030182Y-87235165I138041J63525D01*
G01*
X188928258Y-93528907D02*
X187817103Y-91141381D01*
X44312325Y-94471299D02*
X47091289Y-88586167D01*
X186030181Y-87235165D02*
G75*
G02*
X186083144Y-87151724I92211J0D01*
G01*
X59645524Y-94566645D02*
X56809896Y-100675604D01*
X96351401Y-83146156D02*
X98734869Y-84255592D01*
X58665796Y-86526697D02*
X60665301Y-87465031D01*
X191970359Y-99702906D02*
G75*
G02*
X191850577Y-99648821I-26443J101120D01*
G01*
X56296908Y-85418203D02*
X58665796Y-86526697D01*
X198271144Y-81421536D02*
G75*
G02*
X198516684Y-81364013I258307J-549783D01*
G01*
X204370076Y-93789907D02*
G75*
G02*
X204316482Y-93908043I-100061J-25831D01*
G01*
X201467582Y-87504645D02*
X202568844Y-89869782D01*
X201501355Y-95281621D02*
X198260666Y-96798994D01*
X203193904Y-94467039D02*
X201501355Y-95281621D01*
X92370976Y-81412913D02*
G75*
G02*
X92449607Y-81362562I79360J-37360D01*
G01*
X192081967Y-99662925D02*
G75*
G02*
X191970359Y-99702905I-281859J611059D01*
G01*
X94330820Y-82212099D02*
X96351401Y-83146156D01*
X204316482Y-93908043D02*
X203193904Y-94467039D01*
X56690104Y-100855058D02*
G75*
G02*
X56532583Y-100886191I-99971J91749D01*
G01*
X198516685Y-81364013D02*
G75*
G02*
X198566218Y-81394425I1128J-53706D01*
G01*
X187817103Y-91141381D02*
X186881491Y-89117810D01*
X195893968Y-97900551D02*
X193877546Y-98834345D01*
X62510750Y-88392216D02*
X59645524Y-94566645D01*
X191850577Y-99648821D02*
X191291219Y-98526316D01*
X204330620Y-93679235D02*
G75*
G02*
X204370076Y-93789907I-594597J-274351D01*
G01*
X56532583Y-100886191D02*
X50369340Y-97998181D01*
X231323436Y-94568058D02*
X228453250Y-88390042D01*
X234279152Y-100856446D02*
G75*
G02*
X234163907Y-100680629I543797J482126D01*
G01*
X191291219Y-98526316D02*
X190471821Y-96824327D01*
X92515086Y-81376614D02*
X94330820Y-82212099D01*
X234367567Y-100875034D02*
G75*
G02*
X234279152Y-100856447I-31679J68889D01*
G01*
X246535518Y-95276566D02*
X240504880Y-98052288D01*
X246828538Y-95083575D02*
G75*
G02*
X246535518Y-95276566I-781365J867412D01*
G01*
X199418688Y-83167084D02*
X200362681Y-85149574D01*
X243972310Y-88774133D02*
X245086805Y-91176014D01*
X198260666Y-96798994D02*
X195893968Y-97900551D01*
X60665301Y-87465031D02*
X62471346Y-88314153D01*
X198566218Y-81394425D02*
X199418688Y-83167084D01*
X186083144Y-87151724D02*
X192207708Y-84271449D01*
X202568844Y-89869782D02*
X203502258Y-91884691D01*
X203502258Y-91884691D02*
X204330620Y-93679235D01*
X53924037Y-84309323D02*
X56296908Y-85418203D01*
X56809895Y-100675604D02*
G75*
G02*
X56690104Y-100855058I-638142J296272D01*
G01*
X192207708Y-84271449D02*
X198271145Y-81421536D01*
X186881491Y-89117810D02*
X186044097Y-87298690D01*
X200362681Y-85149574D02*
X201467582Y-87504645D01*
X190471821Y-96824327D02*
X188928258Y-93528907D01*
X193877546Y-98834345D02*
X192081967Y-99662925D01*
X51911540Y-83369462D02*
X53924037Y-84309323D01*
X62471346Y-88314153D02*
G75*
G02*
X62500547Y-88334669I-44122J-93839D01*
G01*
X245086805Y-91176014D02*
X246015089Y-93207145D01*
X234163907Y-100680629D02*
X231323436Y-94568058D01*
X240504880Y-98052288D02*
X234367566Y-100875034D01*
X44205255Y-95106739D02*
G75*
G02*
X44139116Y-94970712I51134J108954D01*
G01*
X50369340Y-97998181D02*
X44205254Y-95106741D01*
X62500547Y-88334669D02*
G75*
G02*
X62510750Y-88392216I-36074J-36074D01*
G01*
X246839735Y-95030123D02*
G75*
G02*
X246828538Y-95083575I-42174J-19064D01*
G01*
X246015089Y-93207145D02*
X246839736Y-95030122D01*
X50106979Y-82527079D02*
X51911540Y-83369462D01*
X50035484Y-82495221D02*
X50106979Y-82527079D01*
X104935481Y-87233162D02*
G75*
G02*
X104921292Y-87298029I-155365J0D01*
G01*
X175242396Y-76269688D02*
X176209142Y-78296719D01*
X161844445Y-80244449D02*
X162308514Y-80014621D01*
X175896293Y-89018880D02*
X173628957Y-90076422D01*
X177871534Y-88098647D02*
X175896293Y-89018880D01*
X179571609Y-87307371D02*
X177871534Y-88098647D01*
X110829642Y-87005463D02*
G75*
G02*
X110776332Y-86921413I39602J84050D01*
G01*
X123056628Y-92763905D02*
X116967018Y-89896683D01*
X116749613Y-74466818D02*
X118558519Y-75301541D01*
X176209142Y-78296719D02*
X177339434Y-80706018D01*
X167773358Y-92799060D02*
G75*
G02*
X167719923Y-92817148I-110294J237855D01*
G01*
X116566803Y-74487992D02*
G75*
G02*
X116668358Y-74438918I81157J-38330D01*
G01*
X174315361Y-74429499D02*
G75*
G02*
X174369898Y-74460364I5006J-54770D01*
G01*
X97140854Y-98850651D02*
X95120573Y-97916036D01*
X98948429Y-99684130D02*
X97140854Y-98850651D01*
X118558519Y-75301541D02*
X120578159Y-76236145D01*
X103151152Y-91140177D02*
X102041614Y-93527305D01*
X98734869Y-84255592D02*
X101112378Y-85371168D01*
X164387241Y-79041562D02*
X165972124Y-78303466D01*
X173628957Y-90076422D02*
X171384598Y-91122532D01*
X179869730Y-87170979D02*
X179571609Y-87307371D01*
X110776331Y-86921413D02*
G75*
G02*
X110846105Y-86609760I730903J1D01*
G01*
X99113004Y-99675744D02*
G75*
G02*
X99035577Y-99713278I-62646J30601D01*
G01*
X172912127Y-75062831D02*
X174243298Y-74448790D01*
X177339434Y-80706018D02*
X180269653Y-86991115D01*
X116668358Y-74438917D02*
G75*
G02*
X116749613Y-74466818I-96369J-412922D01*
G01*
X164745771Y-86602512D02*
X161860394Y-80465308D01*
X101112378Y-85371168D02*
X103114052Y-86323918D01*
X120578159Y-76236145D02*
X122956566Y-77341345D01*
X180269653Y-86991115D02*
X179869730Y-87170979D01*
X89524249Y-87461039D02*
X92370976Y-81412914D01*
X86756001Y-93347618D02*
X89524249Y-87461039D01*
X86593779Y-93805771D02*
G75*
G02*
X86756001Y-93347618I2387566J-587588D01*
G01*
X103114052Y-86323918D02*
X104904857Y-87184455D01*
X162840730Y-79757909D02*
X163472235Y-79464159D01*
X86639279Y-93903629D02*
G75*
G02*
X86593779Y-93805770I38188J77263D01*
G01*
X87938287Y-94542061D02*
X86639279Y-93903629D01*
X89741761Y-95406595D02*
X87938287Y-94542061D01*
X167806963Y-77446400D02*
X169670192Y-76573476D01*
X167653274Y-92784437D02*
X164745771Y-86602512D01*
X163472235Y-79464159D02*
X164387241Y-79041562D01*
X169483827Y-92005812D02*
X167773358Y-92799060D01*
X174243298Y-74448790D02*
G75*
G02*
X174315360Y-74429499I92083J-199743D01*
G01*
X162308514Y-80014621D02*
X162840730Y-79757909D01*
X167719923Y-92817149D02*
G75*
G02*
X167653274Y-92784437I-12885J58001D01*
G01*
X171384598Y-91122532D02*
X169483827Y-92005812D01*
X92742969Y-96810845D02*
X89741761Y-95406595D01*
X104904857Y-87184455D02*
G75*
G02*
X104935482Y-87233162I-23421J-48707D01*
G01*
X95120573Y-97916036D02*
X92742969Y-96810845D01*
X100768215Y-96244590D02*
X99853218Y-98156433D01*
X102041614Y-93527305D02*
X100768215Y-96244590D01*
X174369898Y-74460364D02*
X175242396Y-76269688D01*
X110846105Y-86609760D02*
X113686659Y-80587907D01*
X165972124Y-78303466D02*
X167806963Y-77446400D01*
X113686659Y-80587907D02*
X116566803Y-74487991D01*
X99035578Y-99713278D02*
G75*
G02*
X98948429Y-99684130I89414J412183D01*
G01*
X171421866Y-75754174D02*
X172912127Y-75062831D01*
X99853218Y-98156433D02*
X99113004Y-99675743D01*
X104921292Y-87298029D02*
X104085408Y-89116649D01*
X116967018Y-89896683D02*
X110829642Y-87005463D01*
X104085408Y-89116649D02*
X103151152Y-91140177D01*
X169670192Y-76573476D02*
X171421866Y-75754174D01*
X161822937Y-80277457D02*
G75*
G02*
X161844445Y-80244449I38809J-1777D01*
G01*
X161860394Y-80465307D02*
G75*
G02*
X161822937Y-80277457I360866J169615D01*
G01*
X187399988Y-126148252D02*
X189586158Y-124625156D01*
X182197864Y-130833978D02*
X181709221Y-130132220D01*
X214877670Y-116270055D02*
X215967700Y-118604483D01*
X109174917Y-130119431D02*
G75*
G02*
X109194772Y-130169768I-29105J-40564D01*
G01*
X98091740Y-122312149D02*
X99711501Y-123441527D01*
X109194771Y-130169768D02*
G75*
G02*
X109100306Y-130390177I-569672J113709D01*
G01*
X92430726Y-129932019D02*
X93935812Y-127776399D01*
X101347419Y-141411357D02*
G75*
G02*
X101253207Y-141458341I-90625J63773D01*
G01*
X101017225Y-141379101D02*
X95558933Y-137517330D01*
X109100306Y-130390177D02*
X105241932Y-135876253D01*
X107577024Y-128973533D02*
X109174917Y-130119431D01*
X93935812Y-127776399D02*
X95989087Y-124856324D01*
X103665732Y-126206770D02*
X105790588Y-127702069D01*
X199833340Y-131776013D02*
X200966399Y-133394860D01*
X105790588Y-127702069D02*
X107577024Y-128973533D01*
X187438947Y-138316050D02*
X185022882Y-134880092D01*
X97103251Y-123307777D02*
X97867377Y-122275316D01*
X90033820Y-133408033D02*
X91161942Y-131766403D01*
X91161942Y-131766403D02*
X92430726Y-129932019D01*
X189702689Y-141460292D02*
G75*
G02*
X189633205Y-141422268I4122J90032D01*
G01*
X197077928Y-127835070D02*
X198567908Y-129966970D01*
X189586158Y-124625156D02*
X191435743Y-123353112D01*
X90003248Y-133495418D02*
G75*
G02*
X90033820Y-133408033I176127J-12577D01*
G01*
X201018235Y-133465046D02*
G75*
G02*
X201002790Y-133569409I-57547J-44808D01*
G01*
X198567908Y-129966970D02*
X199833340Y-131776013D01*
X181709221Y-130132220D02*
X187399988Y-126148252D01*
X200966399Y-133394860D02*
X201018234Y-133465046D01*
X105241932Y-135876253D02*
X101347419Y-141411357D01*
X189926769Y-141394769D02*
G75*
G02*
X189702689Y-141460292I-207614J294087D01*
G01*
X191435743Y-123353112D02*
X193096049Y-122221171D01*
X95558933Y-137517330D02*
X90066057Y-133628266D01*
X194325399Y-123900677D02*
X195588609Y-125704708D01*
X201002790Y-133569409D02*
X195446997Y-137496025D01*
X99711501Y-123441527D02*
X101530683Y-124712069D01*
X193096050Y-122221171D02*
G75*
G02*
X193147437Y-122227390I22137J-32491D01*
G01*
X195446997Y-137496025D02*
X189926768Y-141394769D01*
X101253206Y-141458340D02*
G75*
G02*
X101017225Y-141379101I14016J432744D01*
G01*
X185022882Y-134880092D02*
X182197864Y-130833978D01*
X101530683Y-124712069D02*
X103665732Y-126206770D01*
X97867377Y-122275316D02*
G75*
G02*
X97990521Y-122248949I76650J-57234D01*
G01*
X195588609Y-125704708D02*
X197077928Y-127835070D01*
X189633205Y-141422268D02*
X187438947Y-138316050D01*
X97990521Y-122248948D02*
G75*
G02*
X98091740Y-122312149I-573108J-1030517D01*
G01*
X95989087Y-124856324D02*
X97103251Y-123307777D01*
X193190134Y-122281106D02*
X194325399Y-123900677D01*
X90066057Y-133628266D02*
G75*
G02*
X90003248Y-133495418I86533J122183D01*
G01*
X193147436Y-122227390D02*
G75*
G02*
X193190134Y-122281106I-424228J-381040D01*
G01*
X129108817Y-80449956D02*
X126233288Y-86588205D01*
X202983148Y-73741306D02*
X205009698Y-72791659D01*
X219453762Y-81173879D02*
G75*
G02*
X219482833Y-81256423I-423521J-195549D01*
G01*
X87000222Y-80844419D02*
X84186146Y-86923602D01*
X129142958Y-80280936D02*
G75*
G02*
X129108817Y-80449956I-364346J-14363D01*
G01*
X201111428Y-74683018D02*
G75*
G02*
X201122183Y-74622352I48782J22638D01*
G01*
X127324705Y-79392066D02*
X129119338Y-80245133D01*
X125327892Y-78449332D02*
X127324705Y-79392066D01*
X85943567Y-72776551D02*
X87968429Y-73725914D01*
X122956566Y-77341345D02*
X125327892Y-78449332D01*
X84186146Y-86923602D02*
G75*
G02*
X84038259Y-87139003I-708998J328309D01*
G01*
X218642003Y-79416201D02*
X219453763Y-81173879D01*
X215577629Y-72822864D02*
X216657537Y-75140445D01*
X214652359Y-70840144D02*
X215577629Y-72822864D01*
X71484185Y-81254896D02*
G75*
G02*
X71529970Y-81128619I742267J-197691D01*
G01*
X213835386Y-69091423D02*
X214652359Y-70840144D01*
X213761732Y-68940908D02*
X213835386Y-69091423D01*
X213583475Y-68870917D02*
G75*
G02*
X213761732Y-68940908I49516J-135882D01*
G01*
X203975260Y-80853491D02*
X201111429Y-74683018D01*
X205009698Y-72791659D02*
X207410268Y-71670160D01*
X213254557Y-84284307D02*
X207091976Y-87172990D01*
X89848026Y-74689555D02*
X87000222Y-80844419D01*
X81154493Y-70542677D02*
X83547656Y-71657976D01*
X79138875Y-69603773D02*
X81154493Y-70542677D01*
X83880194Y-87168031D02*
X77713985Y-84279416D01*
X89791091Y-74582863D02*
G75*
G02*
X89834469Y-74613341I-65557J-139412D01*
G01*
X212858424Y-69158536D02*
X213583474Y-68870916D01*
X201153434Y-74600408D02*
X202983148Y-73741306D01*
X216657537Y-75140445D02*
X217732506Y-77452311D01*
X71545663Y-81386881D02*
G75*
G02*
X71484185Y-81254895I48217J102770D01*
G01*
X211506953Y-69762686D02*
X212858424Y-69158536D01*
X207410268Y-71670160D02*
X211506953Y-69762686D01*
X219418425Y-81391969D02*
X213254557Y-84284307D01*
X71529970Y-81128619D02*
X74395147Y-74969229D01*
X201122183Y-74622352D02*
G75*
G02*
X201153434Y-74600408I78342J-78343D01*
G01*
X206933279Y-87142124D02*
G75*
G02*
X206808813Y-86956875I523372J486083D01*
G01*
X77283098Y-68761213D02*
G75*
G02*
X77301669Y-68749370I18571J-8639D01*
G01*
X89834469Y-74613341D02*
G75*
G02*
X89848026Y-74689555I-47819J-47819D01*
G01*
X219482833Y-81256423D02*
G75*
G02*
X219418425Y-81391969I-114610J-28616D01*
G01*
X217732506Y-77452311D02*
X218642003Y-79416201D01*
X77713985Y-84279416D02*
X71545664Y-81386881D01*
X87968429Y-73725914D02*
X89791091Y-74582863D01*
X77301669Y-68749370D02*
G75*
G02*
X77306330Y-68750402I0J-11041D01*
G01*
X123273507Y-92807592D02*
G75*
G02*
X123056628Y-92763905I-19618J462788D01*
G01*
X129119339Y-80245133D02*
G75*
G02*
X129142957Y-80280936I-17802J-37435D01*
G01*
X123339404Y-92763714D02*
G75*
G02*
X123273507Y-92807593I-69130J32398D01*
G01*
X206808813Y-86956875D02*
X203975260Y-80853491D01*
X126233288Y-86588205D02*
X123339404Y-92763714D01*
X74395147Y-74969229D02*
X77283098Y-68761213D01*
X207091976Y-87172989D02*
G75*
G02*
X206933279Y-87142124I-58192J124209D01*
G01*
X77306330Y-68750402D02*
X79138875Y-69603773D01*
X84038259Y-87139004D02*
G75*
G02*
X83880194Y-87168031I-99383J96302D01*
G01*
X233872742Y-67160218D02*
X234830002Y-69180862D01*
X220517816Y-71362685D02*
G75*
G02*
X220467954Y-71222302I723514J336027D01*
G01*
X231079301Y-66153616D02*
X232900788Y-65318049D01*
X227764324Y-83006086D02*
X226310726Y-83651671D01*
X234830002Y-69180862D02*
X235951957Y-71577195D01*
X229662075Y-82145234D02*
X227764324Y-83006086D01*
X234938569Y-79690445D02*
X232538267Y-80811011D01*
X46125719Y-73519969D02*
X47929286Y-74370631D01*
X41737236Y-71464265D02*
X44113883Y-72574670D01*
X233008050Y-65349178D02*
X233872742Y-67160218D01*
X229053347Y-67088910D02*
X231079301Y-66153616D01*
X238794174Y-77882799D02*
X236965285Y-78741201D01*
X29694080Y-81201944D02*
G75*
G02*
X29619303Y-81155111I149944J322522D01*
G01*
X232900788Y-65318048D02*
G75*
G02*
X232962223Y-65312074I39355J-85830D01*
G01*
X29607431Y-81103149D02*
X32530426Y-74856862D01*
X232962223Y-65312075D02*
G75*
G02*
X233008050Y-65349178I-16031J-66653D01*
G01*
X223972828Y-69468468D02*
X226662182Y-68203330D01*
X223306462Y-77366642D02*
X220517816Y-71362686D01*
X226662182Y-68203330D02*
X229053347Y-67088910D01*
X226043186Y-83257420D02*
X223306462Y-77366642D01*
X42029590Y-86936536D02*
X35866515Y-84071504D01*
X42132976Y-86972547D02*
G75*
G02*
X42029590Y-86936536I127821J533385D01*
G01*
X226228411Y-83623797D02*
X226043186Y-83257420D01*
X83547656Y-71657976D02*
X85943567Y-72776551D01*
X249015883Y-86907647D02*
G75*
G02*
X248862879Y-86963326I-398174J856114D01*
G01*
X39361824Y-70358384D02*
X41737236Y-71464265D01*
X220502420Y-71147905D02*
X222048561Y-70392572D01*
X249238648Y-71462140D02*
X255366959Y-68612699D01*
X42247429Y-86917331D02*
G75*
G02*
X42132976Y-86972547I-91040J42481D01*
G01*
X261353061Y-81134414D02*
G75*
G02*
X261349162Y-81155261I-16639J-7676D01*
G01*
X242978092Y-74412774D02*
G75*
G02*
X243162830Y-74288135I483294J-517100D01*
G01*
X220467954Y-71222302D02*
G75*
G02*
X220502420Y-71147905I63082J15958D01*
G01*
X258452972Y-74878823D02*
X259570608Y-77278620D01*
X260507813Y-79302458D02*
X261353061Y-81134413D01*
X226310726Y-83651670D02*
G75*
G02*
X226228411Y-83623797I-25989J58732D01*
G01*
X44113883Y-72574670D02*
X46125719Y-73519969D01*
X257328965Y-72479336D02*
X258452972Y-74878823D01*
X256371879Y-70455974D02*
X257328965Y-72479336D01*
X255130352Y-84063655D02*
X249015883Y-86907647D01*
X255366959Y-68612700D02*
G75*
G02*
X255467416Y-68605060I60398J-129912D01*
G01*
X48014451Y-74548633D02*
X45132439Y-80732094D01*
X255506604Y-68638394D02*
X256371879Y-70455974D01*
X261349162Y-81155261D02*
G75*
G02*
X261278995Y-81203480I-178388J184422D01*
G01*
X35540498Y-68588052D02*
X37354374Y-69427303D01*
X255467417Y-68605059D02*
G75*
G02*
X255506604Y-68638394I-17582J-60370D01*
G01*
X243162830Y-74288135D02*
X249238648Y-71462140D01*
X242947896Y-74569315D02*
G75*
G02*
X242978092Y-74412775I122760J57502D01*
G01*
X261278995Y-81203480D02*
X255130352Y-84063655D01*
X47929286Y-74370630D02*
G75*
G02*
X47989369Y-74412260I-94889J-201125D01*
G01*
X245837284Y-80734746D02*
X242947895Y-74569314D01*
X248730392Y-86901819D02*
X245837284Y-80734746D01*
X37354374Y-69427303D02*
X39361824Y-70358384D01*
X32530426Y-74856862D02*
X35452730Y-68612834D01*
X248862879Y-86963326D02*
G75*
G02*
X248730392Y-86901819I-29532J109830D01*
G01*
X259570608Y-77278620D02*
X260507813Y-79302458D01*
X236965285Y-78741201D02*
X234938569Y-79690445D01*
X35504239Y-68580071D02*
G75*
G02*
X35540498Y-68588052I0J-86355D01*
G01*
X35452729Y-68612834D02*
G75*
G02*
X35504239Y-68580070I51510J-24109D01*
G01*
X29619303Y-81155111D02*
G75*
G02*
X29607431Y-81103149I27383J33594D01*
G01*
X35866515Y-84071504D02*
X29694080Y-81201944D01*
X222048561Y-70392572D02*
X223972828Y-69468468D01*
X45132439Y-80732094D02*
X42247429Y-86917330D01*
X47989369Y-74412261D02*
G75*
G02*
X48014451Y-74548633I-83397J-85831D01*
G01*
X232538267Y-80811011D02*
X229662075Y-82145234D01*
X54745547Y-72165514D02*
X55778185Y-69952677D01*
X53734410Y-74337447D02*
X54745547Y-72165514D01*
X52887413Y-76170151D02*
X53734410Y-74337447D01*
X52217650Y-77912435D02*
G75*
G02*
X52129917Y-77851122I130049J279514D01*
G01*
X180861143Y-76223687D02*
X178016677Y-70101879D01*
X183873063Y-82490683D02*
G75*
G02*
X183812318Y-82479567I-22325J49536D01*
G01*
X52125511Y-77826585D02*
X52887413Y-76170151D01*
X178016678Y-70101879D02*
G75*
G02*
X178010617Y-69994889I131554J61119D01*
G01*
X52129916Y-77851121D02*
G75*
G02*
X52125511Y-77826585I15399J15428D01*
G01*
X98253445Y-68730502D02*
X99080229Y-66954109D01*
X64238059Y-68166505D02*
X66620392Y-69277583D01*
X196422949Y-76691138D02*
X190150420Y-79618139D01*
X191715333Y-66588510D02*
X192439421Y-68137329D01*
X184217649Y-67035218D02*
X190317219Y-64162007D01*
X100434754Y-64097719D02*
X102268944Y-64950326D01*
X99080229Y-66954109D02*
X99778794Y-65458271D01*
X192439421Y-68137329D02*
X193236464Y-69849666D01*
X104289451Y-65890523D02*
X106686493Y-67007771D01*
X70513017Y-71177250D02*
X67659648Y-77376348D01*
X195371417Y-74434417D02*
X196422949Y-76691138D01*
X97371987Y-70625867D02*
X98253445Y-68730502D01*
X102268944Y-64950326D02*
X104289451Y-65890523D01*
X64835849Y-83508855D02*
G75*
G02*
X64702580Y-83700139I-601684J277131D01*
G01*
X190317220Y-64162007D02*
G75*
G02*
X190516632Y-64102801I293559J-623317D01*
G01*
X183812318Y-82479567D02*
G75*
G02*
X183683295Y-82295084I456913J456913D01*
G01*
X194076386Y-71653750D02*
X194840013Y-73293644D01*
X70499139Y-71108093D02*
G75*
G02*
X70513017Y-71177250I-40546J-44108D01*
G01*
X190150420Y-79618139D02*
X187740608Y-80735734D01*
X100422393Y-64095915D02*
G75*
G02*
X100434754Y-64097719I3159J-21601D01*
G01*
X64702580Y-83700140D02*
G75*
G02*
X64670491Y-83705812I-20099J20100D01*
G01*
X237997646Y-75999178D02*
X238833587Y-77825890D01*
X237065757Y-73974862D02*
X237997646Y-75999178D01*
X187740608Y-80735734D02*
X185701184Y-81666071D01*
X61856758Y-67059242D02*
X64238059Y-68166505D01*
X59845018Y-66127007D02*
X61856758Y-67059242D01*
X57992985Y-65278721D02*
G75*
G02*
X58026158Y-65286018I0J-79048D01*
G01*
X57969409Y-65292728D02*
G75*
G02*
X57992985Y-65278720I23576J-12835D01*
G01*
X190541338Y-64116116D02*
X191098910Y-65285535D01*
X57468646Y-66325812D02*
X57668962Y-65892433D01*
X193236464Y-69849666D02*
X194076386Y-71653750D01*
X66620392Y-69277583D02*
X68635802Y-70221808D01*
X190516632Y-64102800D02*
G75*
G02*
X190541338Y-64116116I3248J-23551D01*
G01*
X178010617Y-69994888D02*
G75*
G02*
X178064138Y-69934611I97190J-32397D01*
G01*
X99778794Y-65458271D02*
X100413191Y-64102753D01*
X100413191Y-64102754D02*
G75*
G02*
X100422393Y-64095914I10952J-5125D01*
G01*
X56694092Y-67988307D02*
X57468646Y-66325812D01*
X67659648Y-77376348D02*
X64835849Y-83508855D01*
X178064138Y-69934611D02*
X184217649Y-67035218D01*
X183683295Y-82295084D02*
X180861143Y-76223687D01*
X191098910Y-65285535D02*
X191715333Y-66588510D01*
X185701184Y-81666071D02*
X183873062Y-82490683D01*
X194840013Y-73293644D02*
X195371417Y-74434417D01*
X55778185Y-69952677D02*
X56694092Y-67988307D01*
X68635802Y-70221808D02*
X70446195Y-71072541D01*
X57668962Y-65892433D02*
X57779939Y-65657168D01*
X238827560Y-77859359D02*
G75*
G02*
X238794174Y-77882799I-83658J83658D01*
G01*
X238833588Y-77825890D02*
G75*
G02*
X238827560Y-77859359I-27099J-12397D01*
G01*
X58428584Y-80802030D02*
X52217650Y-77912435D01*
X64670491Y-83705812D02*
X58428584Y-80802030D01*
X70446195Y-71072542D02*
G75*
G02*
X70499138Y-71108093I-89589J-190609D01*
G01*
X235951957Y-71577195D02*
X237065757Y-73974862D01*
X58026158Y-65286018D02*
X59845018Y-66127007D01*
X57880260Y-65458999D02*
X57969410Y-65292728D01*
X57779939Y-65657168D02*
X57880260Y-65458999D01*
X166685063Y-57859179D02*
X167485031Y-59569364D01*
X127172230Y-58359067D02*
X129145686Y-59277832D01*
X137175267Y-63037770D02*
G75*
G02*
X137185869Y-63097686I-37491J-37530D01*
G01*
X205661083Y-51631615D02*
X206525386Y-53445326D01*
X125028115Y-72698233D02*
X118867968Y-69814008D01*
X153801790Y-63084058D02*
G75*
G02*
X153830077Y-63014995I46283J21368D01*
G01*
X131186542Y-75578457D02*
X125028115Y-72698233D01*
X131351049Y-75547954D02*
G75*
G02*
X131186542Y-75578457I-103590J99821D01*
G01*
X133597882Y-61354578D02*
X135462871Y-62227821D01*
X153830077Y-63014995D02*
X153890320Y-62989629D01*
X119667882Y-67779757D02*
X120606124Y-65755106D01*
X157736374Y-61195793D02*
X160127282Y-60078957D01*
X159433627Y-75275957D02*
X156639895Y-69230194D01*
X110091411Y-76285472D02*
X107324022Y-82273959D01*
X112925545Y-70076334D02*
G75*
G02*
X112884858Y-70237966I-449686J27262D01*
G01*
X111692490Y-69374005D02*
X112853351Y-69950950D01*
X155710995Y-62140793D02*
X157736374Y-61195793D01*
X153890320Y-62989629D02*
X155710995Y-62140793D01*
X171396217Y-68011430D02*
X172170913Y-69727196D01*
X167485031Y-59569364D02*
X168413152Y-61556639D01*
X118867968Y-69814007D02*
G75*
G02*
X118801325Y-69675282I51606J110161D01*
G01*
X131469575Y-75375216D02*
G75*
G02*
X131351050Y-75547954I-576378J268451D01*
G01*
X159721178Y-75571562D02*
G75*
G02*
X159620275Y-75551972I-36816J80028D01*
G01*
X207482065Y-55467663D02*
X208603951Y-57865629D01*
X134313811Y-69267201D02*
X131469575Y-75375216D01*
X135462871Y-62227821D02*
X137146897Y-63017866D01*
X124603914Y-57172697D02*
X125118160Y-57405905D01*
X107324022Y-82273959D02*
G75*
G02*
X107170217Y-82534056I-1359696J628516D01*
G01*
X112884858Y-70237966D02*
X110091411Y-76285472D01*
X137146897Y-63017866D02*
G75*
G02*
X137175268Y-63037771I-42733J-91079D01*
G01*
X131388607Y-60323227D02*
X133597882Y-61354578D01*
X96504060Y-72490309D02*
X97371987Y-70625867D01*
X94543457Y-76687052D02*
X95321820Y-75024924D01*
X169477375Y-63839670D02*
X170524069Y-66099586D01*
X137185869Y-63097686D02*
X134313811Y-69267201D01*
X166349057Y-57171380D02*
X166543050Y-57563938D01*
X160127282Y-60078957D02*
X166349057Y-57171380D01*
X159620275Y-75551973D02*
G75*
G02*
X159433627Y-75275957I753687J710776D01*
G01*
X172161481Y-69779925D02*
G75*
G02*
X171893025Y-69968500I-650686J640941D01*
G01*
X121715404Y-63371066D02*
X124603914Y-57172697D01*
X170524069Y-66099586D02*
X171396217Y-68011430D01*
X118830051Y-69592740D02*
X119667882Y-67779757D01*
X129145686Y-59277832D02*
X131388607Y-60323227D01*
X120606124Y-65755106D02*
X121715404Y-63371066D01*
X118801324Y-69675282D02*
G75*
G02*
X118830051Y-69592740I434624J-104987D01*
G01*
X206525386Y-53445326D02*
X207482065Y-55467663D01*
X95754358Y-74099204D02*
X96504060Y-72490309D01*
X95321820Y-75024924D02*
X95754358Y-74099204D01*
X100846130Y-79625084D02*
X94543457Y-76687052D01*
X103264410Y-80749575D02*
X100846130Y-79625084D01*
X105303683Y-81691533D02*
X103264410Y-80749575D01*
X156639895Y-69230194D02*
X153801791Y-63084058D01*
X168413152Y-61556639D02*
X169477375Y-63839670D01*
X106686493Y-67007771D02*
X109955918Y-68538781D01*
X172170913Y-69727196D02*
G75*
G02*
X172161481Y-69779925I-43183J-19483D01*
G01*
X107170217Y-82534056D02*
G75*
G02*
X107148019Y-82539780I-14614J10769D01*
G01*
X165852745Y-72750149D02*
X159721179Y-75571562D01*
X107148019Y-82539780D02*
X105303683Y-81691533D01*
X112853351Y-69950949D02*
G75*
G02*
X112925546Y-70076334I-58973J-117433D01*
G01*
X166543050Y-57563938D02*
X166685063Y-57859179D01*
X109955918Y-68538781D02*
X111692490Y-69374005D01*
X171893025Y-69968500D02*
X165852745Y-72750149D01*
X125490638Y-57576952D02*
X127172230Y-58359067D01*
X125118160Y-57405905D02*
X125490638Y-57576952D01*
X88109277Y-68170055D02*
X85719932Y-67057209D01*
X205713970Y-66850689D02*
X200427781Y-69319339D01*
X211494189Y-64117501D02*
G75*
G02*
X211489828Y-64141841I-19662J-9038D01*
G01*
X210652835Y-62287471D02*
X211494188Y-64117501D01*
X89209683Y-53344135D02*
X91588404Y-54450253D01*
X85315539Y-51580058D02*
G75*
G02*
X85342459Y-51565420I26920J-17434D01*
G01*
X85259627Y-51671101D02*
X85315539Y-51580059D01*
X235036823Y-57117690D02*
X241206850Y-54247787D01*
X249280472Y-55220517D02*
X250400083Y-57619453D01*
X81319324Y-65005527D02*
X79496271Y-64153842D01*
X91950404Y-69961673D02*
G75*
G02*
X91994579Y-69984901I-222295J-476389D01*
G01*
X247476375Y-51366521D02*
X248334651Y-53198603D01*
X81157848Y-60473016D02*
X82214901Y-58202498D01*
X79496272Y-64153841D02*
G75*
G02*
X79476101Y-64140329I33672J72074D01*
G01*
X97866762Y-57511831D02*
X94976659Y-63733283D01*
X91588404Y-54450253D02*
X93967766Y-55560618D01*
X84211008Y-53917546D02*
X85011120Y-52195869D01*
X83284394Y-55908561D02*
X84211008Y-53917546D01*
X90129591Y-69112067D02*
X88109277Y-68170055D01*
X82214901Y-58202498D02*
X83284394Y-55908561D01*
X83332697Y-65945091D02*
X81319324Y-65005527D01*
X241206850Y-54247787D02*
X247438814Y-51349275D01*
X208603951Y-57865629D02*
X209718630Y-60264098D01*
X85133211Y-51925183D02*
X85197302Y-51787312D01*
X95981308Y-56505215D02*
X97787957Y-57355731D01*
X248334651Y-53198603D02*
X249280472Y-55220517D01*
X85342458Y-51565420D02*
G75*
G02*
X85382785Y-51574281I1J-96194D01*
G01*
X80271526Y-62387727D02*
X81157848Y-60473016D01*
X93967766Y-55560618D02*
X95981308Y-56505215D01*
X97787957Y-57355731D02*
G75*
G02*
X97844798Y-57394827I-90883J-193002D01*
G01*
X205617030Y-51594656D02*
G75*
G02*
X205661083Y-51631615I-18497J-66781D01*
G01*
X205557856Y-51599392D02*
G75*
G02*
X205617031Y-51594656I36073J-78668D01*
G01*
X85382785Y-51574281D02*
X87198570Y-52412840D01*
X85719932Y-67057209D02*
X83332697Y-65945091D01*
X203736398Y-52434967D02*
X205557856Y-51599392D01*
X234878913Y-57242131D02*
G75*
G02*
X234891001Y-57199281I30921J14407D01*
G01*
X201711175Y-53369988D02*
X203736398Y-52434967D01*
X198916390Y-70008402D02*
X196032255Y-63813149D01*
X199320232Y-54484472D02*
X201711175Y-53369988D01*
X85011120Y-52195869D02*
X85133211Y-51925183D01*
X193152538Y-57593111D02*
G75*
G02*
X193123288Y-57506482I391208J180339D01*
G01*
X199351099Y-69812823D02*
X198916390Y-70008402D01*
X211489828Y-64141841D02*
G75*
G02*
X211445162Y-64173140I-111277J111278D01*
G01*
X79476101Y-64140329D02*
G75*
G02*
X79472204Y-64120868I11405J12404D01*
G01*
X79472204Y-64120868D02*
X80271526Y-62387727D01*
X91950404Y-69961673D02*
X90129591Y-69112067D01*
X196032255Y-63813149D02*
X194924713Y-61429918D01*
X211445162Y-64173140D02*
X205713970Y-66850689D01*
X209718630Y-60264098D02*
X210652835Y-62287471D01*
X87198570Y-52412840D02*
X89209683Y-53344135D01*
X85197302Y-51787312D02*
X85259627Y-51671101D01*
X92083878Y-69957079D02*
G75*
G02*
X91994579Y-69984901I-57280J26630D01*
G01*
X247438814Y-51349275D02*
G75*
G02*
X247463845Y-51351540I10563J-22711D01*
G01*
X193123288Y-57506482D02*
G75*
G02*
X193160118Y-57429829I67071J14948D01*
G01*
X247463845Y-51351540D02*
G75*
G02*
X247476375Y-51366521I-22072J-31192D01*
G01*
X196609112Y-55759986D02*
X199320232Y-54484472D01*
X97844798Y-57394828D02*
G75*
G02*
X97866762Y-57511831I-70906J-73873D01*
G01*
X194690552Y-56681631D02*
X196609112Y-55759986D01*
X193160118Y-57429829D02*
X194690552Y-56681631D01*
X234891001Y-57199280D02*
G75*
G02*
X235036823Y-57117690I617786J-933031D01*
G01*
X94976659Y-63733283D02*
X92083879Y-69957080D01*
X193988040Y-59405024D02*
X193152537Y-57593112D01*
X194924713Y-61429918D02*
X193988040Y-59405024D01*
X200427781Y-69319339D02*
X199351099Y-69812823D01*
X50245838Y-69714177D02*
G75*
G02*
X50142013Y-69734939I-66188J61007D01*
G01*
X56076466Y-57196808D02*
G75*
G02*
X56087621Y-57247657I-27740J-32734D01*
G01*
X225832082Y-49912406D02*
X226779967Y-51906443D01*
X214224577Y-57880427D02*
X213290701Y-55857179D01*
X227889607Y-54274860D02*
X228994655Y-56650731D01*
X56052852Y-57181676D02*
G75*
G02*
X56076466Y-57196809I-44699J-95744D01*
G01*
X69960376Y-49882561D02*
X72347924Y-50994033D01*
X54279935Y-56354004D02*
X56052851Y-57181677D01*
X224673437Y-48154314D02*
G75*
G02*
X224926857Y-48097880I252777J-537900D01*
G01*
X212456284Y-54040554D02*
G75*
G02*
X212440982Y-53970557I152449J69997D01*
G01*
X227217517Y-62331605D02*
X224630761Y-63543395D01*
X229928799Y-58668651D02*
X230762562Y-60475540D01*
X224630761Y-63543395D02*
X222252822Y-64648604D01*
X228994655Y-56650731D02*
X229928799Y-58668651D01*
X217517799Y-64883690D02*
X216601833Y-62970652D01*
X240723361Y-69715768D02*
G75*
G02*
X240615790Y-69553011I492657J442537D01*
G01*
X240832304Y-69738263D02*
G75*
G02*
X240723362Y-69715769I-39217J85126D01*
G01*
X252449944Y-62051770D02*
X253286127Y-63881531D01*
X43724624Y-51431717D02*
X43898487Y-51516391D01*
X56087621Y-57247657D02*
X53209088Y-63427738D01*
X52320242Y-55440183D02*
X54279935Y-56354004D01*
X67935153Y-48946938D02*
X69960376Y-49882561D01*
X251515862Y-60021151D02*
X252449944Y-62051770D01*
X212498350Y-53880160D02*
X218616031Y-51002141D01*
X49997632Y-54359055D02*
X52320242Y-55440183D01*
X224926856Y-48097880D02*
G75*
G02*
X224976010Y-48128838I-59J-54596D01*
G01*
X37991624Y-64138473D02*
G75*
G02*
X37707621Y-63940236I411035J891420D01*
G01*
X218424493Y-66416913D02*
G75*
G02*
X218337817Y-66446060I-178307J386800D01*
G01*
X40576813Y-57600896D02*
X43504090Y-51319797D01*
X224976010Y-48128838D02*
X225832082Y-49912406D01*
X218616031Y-51002141D02*
X224673436Y-48154314D01*
X226779967Y-51906443D02*
X227889607Y-54274860D01*
X213290701Y-55857179D02*
X212456283Y-54040555D01*
X216601833Y-62970652D02*
X215333644Y-60265887D01*
X218261145Y-66409047D02*
X217517799Y-64883690D01*
X218337817Y-66446061D02*
G75*
G02*
X218261145Y-66409047I-14812J67236D01*
G01*
X45658289Y-52337790D02*
X47661667Y-53271765D01*
X43504090Y-51319797D02*
X43724624Y-51431717D01*
X39458568Y-60013479D02*
X40576813Y-57600896D01*
X44018182Y-66915535D02*
X37991625Y-64138474D01*
X215333644Y-60265887D02*
X214224577Y-57880427D01*
X50358939Y-69545394D02*
G75*
G02*
X50245838Y-69714177I-599066J279149D01*
G01*
X220232367Y-65583270D02*
X218424493Y-66416914D01*
X50142013Y-69734939D02*
X44018182Y-66915535D01*
X53209088Y-63427738D02*
X50358940Y-69545395D01*
X212440981Y-53970557D02*
G75*
G02*
X212498350Y-53880160I99905J0D01*
G01*
X222252822Y-64648604D02*
X220232367Y-65583270D01*
X230755657Y-60628384D02*
X229154164Y-61405976D01*
X230789951Y-60558522D02*
G75*
G02*
X230755657Y-60628384I-61996J-12915D01*
G01*
X237761433Y-63428434D02*
X234878913Y-57242131D01*
X240615790Y-69553011D02*
X237761433Y-63428434D01*
X253283318Y-63926407D02*
G75*
G02*
X253113301Y-64076954I-334989J207035D01*
G01*
X230762562Y-60475540D02*
G75*
G02*
X230789951Y-60558521I-350588J-161727D01*
G01*
X43898487Y-51516391D02*
X45658289Y-52337790D01*
X229154164Y-61405976D02*
X227217517Y-62331605D01*
X250400083Y-57619453D02*
X251515862Y-60021151D01*
X66117072Y-48111333D02*
X67935153Y-48946938D01*
X246994930Y-66898414D02*
X240832305Y-69738263D01*
X253113301Y-64076954D02*
X246994930Y-66898414D01*
X253286126Y-63881530D02*
G75*
G02*
X253283317Y-63926406I-43365J-19811D01*
G01*
X47661667Y-53271765D02*
X49997632Y-54359055D01*
X38526487Y-62054031D02*
X39458568Y-60013479D01*
X37697804Y-63886219D02*
X38526487Y-62054031D01*
X37707621Y-63940235D02*
G75*
G02*
X37697804Y-63886219I34209J34117D01*
G01*
X188307028Y-59533966D02*
X182142279Y-62399197D01*
X108673739Y-46976709D02*
X110454449Y-47802718D01*
X105504490Y-53189698D02*
X106986570Y-50029269D01*
X108572005Y-46938155D02*
G75*
G02*
X108673739Y-46976709I-216530J-724866D01*
G01*
X102968416Y-59661389D02*
X102567375Y-59480195D01*
X66046069Y-48096503D02*
G75*
G02*
X66117072Y-48111333I3066J-162703D01*
G01*
X60222156Y-60653521D02*
G75*
G02*
X60177742Y-60565046I34299J72603D01*
G01*
X60310146Y-60164409D02*
X63104387Y-54223574D01*
X185465130Y-53189594D02*
X186587930Y-55598879D01*
X65963385Y-48150063D02*
G75*
G02*
X66046069Y-48096502I84443J-39756D01*
G01*
X182142279Y-62399197D02*
X175998170Y-65254611D01*
X74728574Y-52110618D02*
X76731737Y-53061645D01*
X63104387Y-54223574D02*
X65963386Y-48150062D01*
X60177742Y-60565046D02*
G75*
G02*
X60310146Y-60164409I1724586J-347749D01*
G01*
X169978437Y-52893778D02*
G75*
G02*
X170005947Y-52744028I118951J55550D01*
G01*
X66261262Y-63505893D02*
X60222156Y-60653521D01*
X74373132Y-62961860D02*
X73454820Y-64879983D01*
X72632915Y-66446524D02*
G75*
G02*
X72124792Y-66271998I539205J2396814D01*
G01*
X78536809Y-54014378D02*
X77694558Y-55836937D01*
X72709423Y-66409796D02*
G75*
G02*
X72632915Y-66446524I-61488J30035D01*
G01*
X183379733Y-48755028D02*
X184337330Y-50781772D01*
X188377504Y-59487173D02*
G75*
G02*
X188307028Y-59533966I-188964J208134D01*
G01*
X182512335Y-46929532D02*
X183379733Y-48755028D01*
X106986570Y-50029269D02*
X107849408Y-48234670D01*
X175874194Y-65298240D02*
G75*
G02*
X175748584Y-65238223I-26258J106499D01*
G01*
X187530016Y-57629976D02*
X188380960Y-59470147D01*
X78551197Y-53961408D02*
G75*
G02*
X78536809Y-54014378I-163732J16034D01*
G01*
X184337330Y-50781772D02*
X185465130Y-53189594D01*
X172861758Y-59065061D02*
X169978437Y-52893778D01*
X102567375Y-59480195D02*
X105504490Y-53189698D01*
X76756803Y-57860398D02*
X75644347Y-60250537D01*
X78528807Y-53921691D02*
G75*
G02*
X78551196Y-53961409I-17163J-35844D01*
G01*
X170005947Y-52744028D02*
G75*
G02*
X170126870Y-52660599I308531J-317842D01*
G01*
X107849408Y-48234670D02*
X108467753Y-46983387D01*
X110454449Y-47802718D02*
X112451195Y-48731388D01*
X72347924Y-50994033D02*
X74728574Y-52110618D01*
X176239452Y-49803051D02*
X182362009Y-46941391D01*
X188380960Y-59470147D02*
G75*
G02*
X188377504Y-59487173I-13322J-6160D01*
G01*
X108467754Y-46983388D02*
G75*
G02*
X108572005Y-46938154I78996J-39313D01*
G01*
X175748584Y-65238223D02*
X172861758Y-59065061D01*
X103267375Y-59798486D02*
X102968416Y-59661389D01*
X186587930Y-55598879D02*
X187530016Y-57629976D01*
X182362009Y-46941391D02*
G75*
G02*
X182482932Y-46911815I134430J-287641D01*
G01*
X72124792Y-66271998D02*
X66261262Y-63505893D01*
X75644347Y-60250537D02*
X74373132Y-62961860D01*
X73454820Y-64879983D02*
X72709423Y-66409796D01*
X77694558Y-55836937D02*
X76756803Y-57860398D01*
X112451195Y-48731388D02*
X114797207Y-49826648D01*
X170126870Y-52660599D02*
X176239452Y-49803051D01*
X76731737Y-53061645D02*
X78528807Y-53921691D01*
X182482933Y-46911815D02*
G75*
G02*
X182512335Y-46929532I1322J-31062D01*
G01*
X175998169Y-65254610D02*
G75*
G02*
X175874194Y-65298239I-286997J617572D01*
G01*
X197576972Y-34363219D02*
G75*
G02*
X197632724Y-34373812I20453J-44362D01*
G01*
X191635739Y-37102557D02*
X197576972Y-34363218D01*
X191163947Y-52659914D02*
G75*
G02*
X191002883Y-52700020I-185315J400744D01*
G01*
X185036209Y-40182129D02*
X186161289Y-39630256D01*
X197216052Y-49860828D02*
X191163946Y-52659913D01*
X203460107Y-46937684D02*
G75*
G02*
X203216506Y-47084462I-793538J1041468D01*
G01*
X199469485Y-38270063D02*
X200587499Y-40667653D01*
X191002883Y-52700019D02*
G75*
G02*
X190884712Y-52631351I-6835J124251D01*
G01*
X198520414Y-36243246D02*
X199469485Y-38270063D01*
X197664127Y-34419600D02*
X198520414Y-36243246D01*
X203466799Y-46910931D02*
G75*
G02*
X203460107Y-46937684I-20072J-9192D01*
G01*
X109210307Y-62567662D02*
X106942893Y-61510216D01*
X120959761Y-52743016D02*
G75*
G02*
X120983541Y-52874622I-81558J-82688D01*
G01*
X104967400Y-60589849D02*
X103267375Y-59798486D01*
X115121072Y-65306894D02*
G75*
G02*
X115066399Y-65288971I48860J241392D01*
G01*
X106942893Y-61510216D02*
X104967400Y-60589849D01*
X120983541Y-52874622D02*
X118109171Y-59061974D01*
X115232122Y-65250777D02*
G75*
G02*
X115121072Y-65306894I-91115J42372D01*
G01*
X197632724Y-34373812D02*
G75*
G02*
X197664127Y-34419600I-124294J-118907D01*
G01*
X111454786Y-63613508D02*
X109210307Y-62567662D01*
X113355945Y-64496407D02*
X111454786Y-63613508D01*
X185879269Y-42027849D02*
X185031774Y-40195106D01*
X115066399Y-65288971D02*
X113355945Y-64496407D01*
X187934985Y-46450485D02*
X186817062Y-44050198D01*
X118109171Y-59061974D02*
X115232123Y-65250778D01*
X119121562Y-51858767D02*
X120897598Y-52699534D01*
X120897599Y-52699533D02*
G75*
G02*
X120959761Y-52743016I-97015J-204866D01*
G01*
X117138843Y-50923978D02*
X119121562Y-51858767D01*
X114797207Y-49826648D02*
X117138843Y-50923978D01*
X190281547Y-51412993D02*
X189428796Y-49638902D01*
X185031774Y-40195106D02*
G75*
G02*
X185036209Y-40182129I9011J4167D01*
G01*
X189428796Y-49638902D02*
X187934985Y-46450485D01*
X203216506Y-47084462D02*
X197216052Y-49860828D01*
X190884712Y-52631351D02*
X190281547Y-51412993D01*
X186817062Y-44050198D02*
X185879269Y-42027849D01*
X186161289Y-39630256D02*
X191635739Y-37102557D01*
X227059548Y-39861769D02*
X233188596Y-37038364D01*
X50317665Y-36717110D02*
X51099430Y-35036312D01*
X93796639Y-49874151D02*
X91395296Y-48755649D01*
X98853687Y-52197596D02*
X97123104Y-51416822D01*
X102231013Y-38453395D02*
X104162468Y-39352924D01*
X46480040Y-45011081D02*
X47330389Y-43142190D01*
X51636837Y-34176303D02*
X53462216Y-35026744D01*
X99941132Y-37388125D02*
X102231013Y-38453395D01*
X233188596Y-37038364D02*
X239389131Y-34183114D01*
X93356902Y-34302802D02*
X93665104Y-34457909D01*
X240346299Y-36061419D02*
X241292996Y-38079006D01*
X51466926Y-34283265D02*
X51548236Y-34158796D01*
X232660928Y-52489363D02*
X229763705Y-46270220D01*
X201699691Y-43063715D02*
X202630448Y-45085066D01*
X239389131Y-34183113D02*
G75*
G02*
X239457110Y-34196246I24837J-53944D01*
G01*
X87501128Y-46914372D02*
X88348627Y-45069797D01*
X45727908Y-46684495D02*
X46480040Y-45011081D01*
X104162468Y-39352924D02*
X105911789Y-40168210D01*
X95635821Y-35382641D02*
X97631538Y-36313284D01*
X87507588Y-46938461D02*
G75*
G02*
X87501128Y-46914372I11286J15937D01*
G01*
X90416085Y-40609189D02*
X93356902Y-34302802D01*
X89290761Y-43028998D02*
X90416085Y-40609189D01*
X87535495Y-46954681D02*
G75*
G02*
X87507588Y-46938462I76196J163224D01*
G01*
X239493321Y-34249309D02*
X240346299Y-36061419D01*
X239457110Y-34196246D02*
G75*
G02*
X239493321Y-34249309I-147550J-139579D01*
G01*
X232712814Y-52564578D02*
G75*
G02*
X232660928Y-52489363I195949J190675D01*
G01*
X238946216Y-49699297D02*
X232766418Y-52574432D01*
X51374237Y-34448380D02*
X51466926Y-34283265D01*
X226858877Y-39998099D02*
G75*
G02*
X227059548Y-39861769I509809J-534559D01*
G01*
X49397960Y-38692538D02*
X50317665Y-36717110D01*
X232766419Y-52574432D02*
G75*
G02*
X232712814Y-52564578I-19861J42690D01*
G01*
X202630448Y-45085066D02*
X203466799Y-46910931D01*
X53462216Y-35026744D02*
X55490875Y-35971490D01*
X200587499Y-40667653D02*
X201699691Y-43063715D01*
X89368328Y-47810261D02*
X87535494Y-46954680D01*
X97631538Y-36313284D02*
X99941132Y-37388125D01*
X244430016Y-44869190D02*
X245242416Y-46677349D01*
X100128398Y-52662925D02*
G75*
G02*
X100009865Y-52700924I-81081J49047D01*
G01*
X51583802Y-34150071D02*
X51636837Y-34176303D01*
X93902469Y-34573059D02*
X95635821Y-35382641D01*
X103088696Y-46344795D02*
X100305308Y-52330989D01*
X226853997Y-40023950D02*
G75*
G02*
X226858877Y-39998099I20449J9526D01*
G01*
X48353312Y-40933828D02*
X49397960Y-38692538D01*
X245242415Y-46677349D02*
G75*
G02*
X245229757Y-46740756I-50837J-22818D01*
G01*
X242406760Y-40463975D02*
X243511482Y-42849737D01*
X245067110Y-46850889D02*
X238946216Y-49699297D01*
X245229757Y-46740756D02*
G75*
G02*
X245067110Y-46850889I-423434J450169D01*
G01*
X93665104Y-34457909D02*
X93902469Y-34573059D01*
X88348627Y-45069797D02*
X89290761Y-43028998D01*
X100009865Y-52700924D02*
X98853687Y-52197596D01*
X105939465Y-40212107D02*
X103088696Y-46344795D01*
X105931288Y-40179839D02*
G75*
G02*
X105939465Y-40212107I-15729J-21156D01*
G01*
X55490875Y-35971490D02*
X57887823Y-37087028D01*
X51099430Y-35036312D02*
X51276505Y-34650959D01*
X47330389Y-43142190D02*
X48353312Y-40933828D01*
X241292996Y-38079006D02*
X242406760Y-40463975D01*
X51548236Y-34158797D02*
G75*
G02*
X51583802Y-34150071I22725J-15782D01*
G01*
X243511482Y-42849737D02*
X244430016Y-44869190D01*
X105911789Y-40168211D02*
G75*
G02*
X105931288Y-40179839I-47284J-101452D01*
G01*
X229763705Y-46270220D02*
X226853998Y-40023949D01*
X100305309Y-52330990D02*
G75*
G02*
X100128398Y-52662925I-3139099J1459920D01*
G01*
X51276505Y-34650959D02*
X51374237Y-34448380D01*
X91395296Y-48755649D02*
X89368328Y-47810261D01*
X97123104Y-51416822D02*
X93796639Y-49874151D01*
X216435569Y-46404821D02*
X210262504Y-49280719D01*
X221976147Y-41664232D02*
X222733183Y-43359708D01*
X219882901Y-37096812D02*
X221070181Y-39665534D01*
X80780374Y-49240398D02*
G75*
G02*
X80764313Y-49265334I-99596J46510D01*
G01*
X86445482Y-37087080D02*
X85624068Y-38847071D01*
X207263531Y-42970620D02*
X204424965Y-36818913D01*
X45740184Y-46741922D02*
G75*
G02*
X45727908Y-46684495I33028J37086D01*
G01*
X85624068Y-38847071D02*
X84690623Y-40849422D01*
X216927431Y-30836531D02*
G75*
G02*
X216952153Y-30850851I1997J-25053D01*
G01*
X45913324Y-46855669D02*
G75*
G02*
X45740184Y-46741922I299300J644229D01*
G01*
X52028856Y-49696350D02*
X45913324Y-46855669D01*
X58208688Y-52566216D02*
X52028856Y-49696350D01*
X64127339Y-39990185D02*
X64012989Y-40254390D01*
X68248359Y-43436269D02*
G75*
G02*
X68228709Y-43333222I62853J65383D01*
G01*
X77053103Y-32233658D02*
X79006000Y-33143484D01*
X83603497Y-43185070D02*
X82522269Y-45507777D01*
X86638028Y-36700670D02*
X86528471Y-36916633D01*
X86528471Y-36916633D02*
X86445482Y-37087080D01*
X61075199Y-46563057D02*
X58296153Y-52507057D01*
X210629912Y-33763952D02*
X216732481Y-30888369D01*
X74858418Y-31212081D02*
X75413959Y-31470250D01*
X74532712Y-46400600D02*
X68416579Y-43551562D01*
X222733183Y-43359708D02*
G75*
G02*
X222718676Y-43437249I-63409J-28265D01*
G01*
X81163467Y-34148949D02*
X86638028Y-36700670D01*
X69538571Y-40466932D02*
X71188744Y-36893770D01*
X204420120Y-36731330D02*
G75*
G02*
X204481716Y-36661947I111885J-37295D01*
G01*
X217813060Y-32674097D02*
X218762835Y-34695301D01*
X68416579Y-43551561D02*
G75*
G02*
X68248360Y-43436268I262447J563292D01*
G01*
X221070181Y-39665534D02*
X221976147Y-41664232D01*
X68228709Y-43333222D02*
X69538571Y-40466932D01*
X64012989Y-40254390D02*
X63729299Y-40884884D01*
X57887823Y-37087028D02*
X64127339Y-39990185D01*
X74027930Y-30826934D02*
X74858418Y-31212081D01*
X222718677Y-43437249D02*
G75*
G02*
X222547656Y-43556494I-427295J430561D01*
G01*
X210205145Y-49267477D02*
G75*
G02*
X210069318Y-49049287I805395J652745D01*
G01*
X71188744Y-36893770D02*
X73581201Y-31778865D01*
X80764313Y-49265335D02*
G75*
G02*
X80709650Y-49277198I-35142J30057D01*
G01*
X218762835Y-34695301D02*
X219882901Y-37096812D01*
X204481716Y-36661947D02*
X210629912Y-33763952D01*
X222547656Y-43556494D02*
X216435569Y-46404821D01*
X73581201Y-31778865D02*
X74027930Y-30826934D01*
X79006000Y-33143484D02*
X81163467Y-34148949D01*
X204424966Y-36818913D02*
G75*
G02*
X204420120Y-36731330I108173J49910D01*
G01*
X80709650Y-49277198D02*
X74532712Y-46400600D01*
X82522269Y-45507777D02*
X81608128Y-47467794D01*
X58296153Y-52507057D02*
G75*
G02*
X58261206Y-52556913I-159270J74467D01*
G01*
X58261206Y-52556913D02*
G75*
G02*
X58208688Y-52566216I-32914J32914D01*
G01*
X63729299Y-40884884D02*
X61075199Y-46563057D01*
X210069318Y-49049287D02*
X207263531Y-42970620D01*
X75413959Y-31470250D02*
X77053103Y-32233658D01*
X81608128Y-47467794D02*
X80780375Y-49240398D01*
X84690623Y-40849422D02*
X83603497Y-43185070D01*
X216952153Y-30850851D02*
X217813060Y-32674097D01*
X216732482Y-30888370D02*
G75*
G02*
X216927432Y-30836531I239607J-508603D01*
G01*
X210262504Y-49280719D02*
G75*
G02*
X210205145Y-49267477I-20198J43359D01*
G01*
X73772590Y-21319180D02*
X73155625Y-21278952D01*
X74274588Y-21394210D02*
G75*
G02*
X75019256Y-21614374I-909635J-4446116D01*
G01*
X128491553Y-46870170D02*
G75*
G02*
X129261402Y-47685542I-5490416J-5955001D01*
G01*
X102168512Y-28637499D02*
X94811508Y-25287661D01*
X127648207Y-46207976D02*
G75*
G02*
X128491553Y-46870171I-3751237J-5645553D01*
G01*
X115045797Y-36195439D02*
G75*
G02*
X115606397Y-37640495I-5736969J-3056890D01*
G01*
X125575804Y-45156645D02*
X123616693Y-44213166D01*
X121403123Y-43167126D02*
X115734790Y-40509505D01*
X127226189Y-45965119D02*
G75*
G02*
X127648208Y-46207976I-1675152J-3399061D01*
G01*
X129261402Y-47685542D02*
G75*
G02*
X129913559Y-48602261I-6299277J-5171664D01*
G01*
X114156246Y-34914148D02*
G75*
G02*
X115045797Y-36195439I-4992155J-4415297D01*
G01*
X130506673Y-49814978D02*
X130405808Y-49566840D01*
X90688955Y-25049747D02*
G75*
G02*
X91463873Y-24902085I1172852J-4047862D01*
G01*
X129913560Y-48602261D02*
G75*
G02*
X130405808Y-49566840I-5973094J-3656110D01*
G01*
X78364405Y-23086698D02*
X76170438Y-22095032D01*
X111411206Y-32897198D02*
G75*
G02*
X112939855Y-33811838I-4500749J-9256898D01*
G01*
X115692359Y-38034834D02*
G75*
G02*
X115740868Y-38400790I-3873715J-699670D01*
G01*
X115692359Y-38034834D02*
X115606397Y-37640495D01*
X87270379Y-27186479D02*
X86008418Y-26605171D01*
X92459314Y-24854886D02*
G75*
G02*
X93445211Y-24901176I2031J-10478899D01*
G01*
X73155625Y-21278952D02*
X72550369Y-21275586D01*
X115760715Y-38824388D02*
X115740868Y-38400790D01*
X89112097Y-25712818D02*
G75*
G02*
X89870309Y-25338648I3395951J-5926199D01*
G01*
X91463874Y-24902085D02*
G75*
G02*
X92459314Y-24854886I997490J-10516787D01*
G01*
X73772591Y-21319179D02*
G75*
G02*
X74274588Y-21394209I-450312J-4729764D01*
G01*
X89870309Y-25338649D02*
G75*
G02*
X90688956Y-25049746I2930420J-6999445D01*
G01*
X127226189Y-45965119D02*
X125575804Y-45156645D01*
X87743743Y-26737470D02*
X87270379Y-27186479D01*
X72091281Y-21317107D02*
G75*
G02*
X72550369Y-21275586I543550J-3451175D01*
G01*
X115734790Y-40509505D02*
X115757257Y-39413600D01*
X88406169Y-26177660D02*
G75*
G02*
X89112096Y-25712819I4099534J-5457272D01*
G01*
X94184932Y-25049067D02*
G75*
G02*
X94811508Y-25287661I-1571309J-5068454D01*
G01*
X87743743Y-26737470D02*
G75*
G02*
X88406170Y-26177660I5205289J-5487625D01*
G01*
X123616693Y-44213166D02*
X121403123Y-43167126D01*
X76170438Y-22095032D02*
X75019256Y-21614374D01*
X93445212Y-24901176D02*
G75*
G02*
X94184932Y-25049066I-343447J-3641785D01*
G01*
X111411207Y-32897198D02*
X108885023Y-31704993D01*
X86008418Y-26605171D02*
X78364405Y-23086698D01*
X108885023Y-31704993D02*
X102168512Y-28637499D01*
X112939855Y-33811838D02*
G75*
G02*
X114156246Y-34914149I-4363686J-6037586D01*
G01*
X115757257Y-39413600D02*
X115760715Y-38824388D01*
X169565757Y-43190660D02*
X167334532Y-44236351D01*
X203996313Y-27127490D02*
X203912447Y-27163358D01*
X148852779Y-55562430D02*
X145411595Y-55499559D01*
X156243125Y-52131084D02*
X154172593Y-53088404D01*
X161532355Y-47870452D02*
X161221887Y-48340597D01*
X212274329Y-23243522D02*
X209690326Y-24452069D01*
X198140557Y-24853679D02*
G75*
G02*
X199986168Y-24944307I623212J-6146454D01*
G01*
X161532355Y-47870452D02*
G75*
G02*
X161929945Y-47380750I3943743J-2795682D01*
G01*
X167334532Y-44236351D02*
X165398226Y-45146389D01*
X130659728Y-50225225D02*
X130591745Y-50037123D01*
X163036720Y-46342262D02*
X162476419Y-46831438D01*
X203497724Y-26908326D02*
X203293413Y-26729261D01*
X175426416Y-38413084D02*
G75*
G02*
X175524121Y-37737704I6462180J-590103D01*
G01*
X130690342Y-50316508D02*
G75*
G02*
X130669082Y-50279737I21169J36771D01*
G01*
X165398226Y-45146389D02*
X163726447Y-45933902D01*
X132896913Y-51247181D02*
X131361431Y-50560222D01*
X214139310Y-22391889D02*
X212274329Y-23243522D01*
X161221887Y-48340597D02*
X160967436Y-48796467D01*
X130659729Y-50225225D02*
G75*
G02*
X130669082Y-50279737I-154174J-54512D01*
G01*
X134681346Y-52056926D02*
X132896913Y-51247181D01*
X130591745Y-50037123D02*
X130506673Y-49814978D01*
X130917096Y-50416112D02*
G75*
G02*
X130787195Y-50365976I401199J1232846D01*
G01*
X136721833Y-52998529D02*
X134681346Y-52056926D01*
X163036720Y-46342262D02*
G75*
G02*
X163461594Y-46064417I1544851J-1898574D01*
G01*
X163726447Y-45933902D02*
X163461594Y-46064417D01*
X175524121Y-37737704D02*
G75*
G02*
X175680827Y-37141050I4998023J-993781D01*
G01*
X175917597Y-36524940D02*
G75*
G02*
X176356911Y-35710968I5391842J-2384532D01*
G01*
X203686939Y-27052759D02*
X203497724Y-26908326D01*
X175321957Y-40495963D02*
X169565757Y-43190660D01*
X205653366Y-26349999D02*
X203996313Y-27127490D01*
X175680826Y-37141050D02*
G75*
G02*
X175917596Y-36524940I6337656J-2081993D01*
G01*
X131071169Y-50460295D02*
X130917096Y-50416112D01*
X196134405Y-25284186D02*
G75*
G02*
X198140558Y-24853679I2945975J-8838609D01*
G01*
X216039076Y-21603358D02*
G75*
G02*
X217899638Y-21359982I1877761J-7121613D01*
G01*
X141970410Y-55436689D02*
X136721833Y-52998529D01*
X159616662Y-50602801D02*
X158059292Y-51303555D01*
X178332460Y-33685247D02*
G75*
G02*
X179263233Y-33173287I4654166J-7359455D01*
G01*
X199986168Y-24944306D02*
G75*
G02*
X201694121Y-25572371I-1179732J-5844479D01*
G01*
X215508246Y-21787445D02*
G75*
G02*
X216039076Y-21603358I1474028J-3393100D01*
G01*
X130787195Y-50365976D02*
G75*
G02*
X130690342Y-50316508I444387J989607D01*
G01*
X160374657Y-50358599D02*
X159933532Y-50486489D01*
X175369821Y-39279854D02*
X175321957Y-40495963D01*
X207508131Y-25478768D02*
X205653366Y-26349999D01*
X177619995Y-34225487D02*
G75*
G02*
X178332460Y-33685247I3531597J-3917534D01*
G01*
X195119294Y-25690649D02*
X187195516Y-29425504D01*
X176356911Y-35710968D02*
G75*
G02*
X176942797Y-34922552I6289696J-4062089D01*
G01*
X176942797Y-34922552D02*
G75*
G02*
X177619995Y-34225487I5594334J-4757408D01*
G01*
X131071169Y-50460295D02*
G75*
G02*
X131361431Y-50560222I-423597J-1701981D01*
G01*
X158059292Y-51303555D02*
X156243125Y-52131084D01*
X160559008Y-49798072D02*
X160374657Y-50358599D01*
X160751996Y-49271186D02*
X160559008Y-49798072D01*
X195119295Y-25690649D02*
G75*
G02*
X196134405Y-25284186I3940303J-8369786D01*
G01*
X203912447Y-27163358D02*
G75*
G02*
X203847015Y-27157524I-26807J69194D01*
G01*
X209690326Y-24452069D02*
X207508131Y-25478768D01*
X215508246Y-21787444D02*
X214139310Y-22391889D01*
X162476419Y-46831438D02*
X161929945Y-47380750D01*
X201694121Y-25572372D02*
G75*
G02*
X203293413Y-26729261I-3971176J-7173662D01*
G01*
X187195516Y-29425504D02*
X179263233Y-33173287D01*
X160967436Y-48796467D02*
X160751996Y-49271186D01*
X175426416Y-38413084D02*
X175369821Y-39279854D01*
X159616663Y-50602802D02*
G75*
G02*
X159933532Y-50486489I992426J-2213878D01*
G01*
X203847015Y-27157524D02*
X203686939Y-27052759D01*
X145411595Y-55499559D02*
X141970410Y-55436689D01*
X154172593Y-53088404D02*
X148852779Y-55562430D01*
M02*
