%TF.GenerationSoftware,KiCad,Pcbnew,(5.1.10)-1*%
%TF.CreationDate,2021-09-18T02:49:05-07:00*%
%TF.ProjectId,barobord-switchplate-outside-pcb,6261726f-626f-4726-942d-737769746368,rev?*%
%TF.SameCoordinates,Original*%
%TF.FileFunction,Legend,Top*%
%TF.FilePolarity,Positive*%
%FSLAX46Y46*%
G04 Gerber Fmt 4.6, Leading zero omitted, Abs format (unit mm)*
G04 Created by KiCad (PCBNEW (5.1.10)-1) date 2021-09-18 02:49:05*
%MOMM*%
%LPD*%
G01*
G04 APERTURE LIST*
%ADD10C,0.320000*%
%ADD11C,0.150000*%
G04 APERTURE END LIST*
D10*
X126532593Y-105228404D02*
X126417193Y-105601404D01*
X140895793Y-127668444D02*
X140997393Y-127652984D01*
X142966793Y-113188004D02*
X142869193Y-113098204D01*
X139848593Y-127746684D02*
X140135793Y-127746684D01*
X144584393Y-123629124D02*
X144584393Y-123339224D01*
X143826393Y-114309204D02*
X143488593Y-113756204D01*
X127960593Y-104058004D02*
X127587593Y-104173404D01*
X144428393Y-124499784D02*
X144584393Y-123629124D01*
X164080017Y-104018004D02*
X128361193Y-104018004D01*
X140751193Y-112115404D02*
X140074394Y-112039204D01*
X142327993Y-112707404D02*
X141716393Y-112394804D01*
X141716393Y-112394804D02*
X141583593Y-112344204D01*
X140074394Y-112039204D02*
X139848593Y-112039204D01*
X133893793Y-127746684D02*
X139848593Y-127746684D01*
X141583593Y-112344204D02*
X141450793Y-112293204D01*
X143857593Y-125777484D02*
X143916393Y-125687384D01*
X141102993Y-127633444D02*
X141577793Y-127523724D01*
X144396993Y-124605344D02*
X144428393Y-124499784D01*
X142585993Y-127096024D02*
X142986393Y-126804984D01*
X144209193Y-115797464D02*
X144127393Y-115186404D01*
X127250393Y-104355804D02*
X126956993Y-104597804D01*
X143138793Y-126668244D02*
X143494393Y-126287384D01*
X142969793Y-118845104D02*
X143658593Y-118023284D01*
X143935793Y-114551404D02*
X143880993Y-114430404D01*
X143658593Y-118023284D02*
X144071793Y-117075164D01*
X144365793Y-124710604D02*
X144396993Y-124605344D01*
X144209193Y-116269844D02*
X144209193Y-116001444D01*
X126956993Y-104597804D02*
X126714993Y-104891205D01*
X126714993Y-104891205D02*
X126532593Y-105228404D01*
X128261193Y-104018004D02*
X127960593Y-104058004D01*
X139848593Y-112039204D02*
X133893793Y-112039204D01*
X143904393Y-121088564D02*
X143794993Y-120928204D01*
X143101593Y-120220945D02*
X142212793Y-119638864D01*
X143488593Y-113756204D02*
X143064593Y-113273804D01*
X143916393Y-125687384D02*
X144365793Y-124710604D01*
X143064593Y-113273804D02*
X142966793Y-113188004D01*
X144127393Y-115186404D02*
X143935793Y-114551404D01*
X143880993Y-114430404D02*
X143826393Y-114309204D01*
X142869193Y-113098204D02*
X142327993Y-112707404D01*
X143794993Y-120928204D02*
X143101593Y-120220945D01*
X141450793Y-112293204D02*
X140751193Y-112115404D01*
X143802993Y-125867364D02*
X143857593Y-125777484D01*
X144209193Y-116001444D02*
X144209193Y-115797464D01*
X140997393Y-127652984D02*
X141102993Y-127633444D01*
X141577793Y-127523724D02*
X141981993Y-127398924D01*
X142146393Y-127332444D02*
X142585993Y-127096024D01*
X128361193Y-104018004D02*
X128261193Y-104018004D01*
X143060593Y-126738524D02*
X143138793Y-126668244D01*
X127587593Y-104173404D02*
X127250393Y-104355804D01*
X142052393Y-127371604D02*
X142146393Y-127332444D01*
X140135793Y-127746684D02*
X140895793Y-127668444D01*
X133893793Y-112039204D02*
X133893793Y-127746684D01*
X143494393Y-126287384D02*
X143802993Y-125867364D01*
X142986393Y-126804984D02*
X143060593Y-126738524D01*
X142005593Y-119541364D02*
X142262193Y-119393884D01*
X142212793Y-119638864D02*
X142005593Y-119541364D01*
X141981993Y-127398924D02*
X142052393Y-127371604D01*
X142262193Y-119393884D02*
X142969793Y-118845104D01*
X144071793Y-117075164D02*
X144209193Y-116269844D01*
X149750613Y-123585884D02*
X149750613Y-123386064D01*
X152282353Y-120901164D02*
X155423973Y-120901164D01*
X139606993Y-120901164D02*
X139866193Y-120906964D01*
X141582393Y-121873784D02*
X141630393Y-121955904D01*
X142052393Y-123585884D02*
X141932393Y-124186164D01*
X150832093Y-125100364D02*
X150231294Y-124757464D01*
X136378993Y-120901164D02*
X139520393Y-120901164D01*
X141932393Y-124186164D02*
X141571993Y-124757464D01*
X139866193Y-120906964D02*
X140075393Y-120920424D01*
X140551993Y-121018304D02*
X140635393Y-121049764D01*
X140874393Y-121173444D02*
X141161593Y-121381584D01*
X140075393Y-120920424D02*
X140106594Y-120924604D01*
X141668593Y-116654644D02*
X141501593Y-117138304D01*
X155423973Y-125214724D02*
X151672973Y-125214724D01*
X140311593Y-120947745D02*
X140508993Y-121002625D01*
X140200193Y-118298864D02*
X140149593Y-118310444D01*
X141946993Y-122641644D02*
X142052393Y-123199724D01*
X149870773Y-124186164D02*
X149750613Y-123585884D01*
X140939393Y-117863404D02*
X140833393Y-117947224D01*
X140129993Y-125214724D02*
X136378993Y-125214724D01*
X144584393Y-123037104D02*
X144414593Y-122131724D01*
X136378993Y-125214724D02*
X136378993Y-120901164D01*
X141617193Y-115421004D02*
X141724193Y-115944084D01*
X139356393Y-118369144D02*
X136378993Y-118369144D01*
X140157794Y-120924604D02*
X140311593Y-120947745D01*
X142052393Y-123199724D02*
X142052393Y-123386064D01*
X141630393Y-121955904D02*
X141700993Y-122065344D01*
X140761593Y-114623604D02*
X141296393Y-114922804D01*
X144414593Y-122131724D02*
X144017993Y-121248724D01*
X150231294Y-124757464D02*
X149870773Y-124186164D01*
X140251193Y-118283204D02*
X140200193Y-118298864D01*
X140012793Y-114524204D02*
X140200193Y-114524204D01*
X141161593Y-121381584D02*
X141413793Y-121642284D01*
X140200193Y-114524204D02*
X140761593Y-114623604D01*
X141724193Y-115944084D02*
X141724193Y-116118564D01*
X139476593Y-118369144D02*
X139356393Y-118369144D01*
X140778793Y-117990184D02*
X140511193Y-118163824D01*
X136378993Y-114524204D02*
X140012793Y-114524204D01*
X144584393Y-123339224D02*
X144584393Y-123037104D01*
X141501593Y-117138304D02*
X141223393Y-117569044D01*
X140833393Y-117947224D02*
X140778793Y-117990184D01*
X141223393Y-117569044D02*
X140939393Y-117863404D01*
X140635393Y-121049764D02*
X140874393Y-121173444D01*
X151672973Y-125214724D02*
X151462993Y-125214724D01*
X141296393Y-114922804D02*
X141617193Y-115421004D01*
X139520393Y-120901164D02*
X139606993Y-120901164D01*
X141413793Y-121642284D02*
X141582393Y-121873784D01*
X140340193Y-125214724D02*
X140129993Y-125214724D01*
X144017993Y-121248724D02*
X143904393Y-121088564D01*
X141700993Y-122065344D02*
X141946993Y-122641644D01*
X141724193Y-116118564D02*
X141724193Y-116252484D01*
X151462993Y-125214724D02*
X150832093Y-125100364D01*
X141571993Y-124757464D02*
X140971193Y-125100364D01*
X140511193Y-118163824D02*
X140251193Y-118283204D01*
X142052393Y-123386064D02*
X142052393Y-123585884D01*
X140149593Y-118310444D02*
X139836993Y-118351504D01*
X141724193Y-116252484D02*
X141668593Y-116654644D01*
X155423973Y-120901164D02*
X155423973Y-125214724D01*
X140971193Y-125100364D02*
X140340193Y-125214724D01*
X139836993Y-118351504D02*
X139476593Y-118369144D01*
X140508993Y-121002625D02*
X140551993Y-121018304D01*
X136378993Y-118369144D02*
X136378993Y-114524204D01*
X140106594Y-120924604D02*
X140157794Y-120924604D01*
X152196073Y-120901164D02*
X152282353Y-120901164D01*
X150805333Y-127652984D02*
X150907093Y-127668444D01*
X164853921Y-135612286D02*
X165191267Y-135429834D01*
X166024430Y-105601404D02*
X165908950Y-105228404D01*
X149217353Y-127096024D02*
X149656913Y-127332444D01*
X149820873Y-127398924D02*
X150225233Y-127523724D01*
X151954133Y-127746684D02*
X157909153Y-127746684D01*
X147218653Y-123339224D02*
X147218653Y-123655584D01*
X126532593Y-134557256D02*
X126714993Y-134894604D01*
X127960593Y-135727766D02*
X128261193Y-135768004D01*
X147437453Y-124710604D02*
X147886953Y-125687664D01*
X166064393Y-106002404D02*
X166064393Y-105902004D01*
X150700073Y-127633444D02*
X150805333Y-127652984D01*
X126417193Y-134184364D02*
X126532593Y-134557256D01*
X148742433Y-126738524D02*
X148816873Y-126804984D01*
X126376793Y-105902004D02*
X126376793Y-106002404D01*
X164853921Y-104173404D02*
X164481027Y-104058004D01*
X162095633Y-107986804D02*
X130345593Y-107986804D01*
X162095633Y-131799244D02*
X162095633Y-107986804D01*
X147218653Y-123655584D02*
X147374853Y-124499784D01*
X166024430Y-134184364D02*
X166064393Y-133883676D01*
X126417193Y-105601404D02*
X126376793Y-105902004D01*
X165484515Y-104597804D02*
X165191267Y-104355804D01*
X150225233Y-127523724D02*
X150700073Y-127633444D01*
X165191267Y-135429834D02*
X165484515Y-135187850D01*
X126376793Y-106002404D02*
X126376793Y-133783628D01*
X165191267Y-104355804D02*
X164853921Y-104173404D01*
X165726499Y-104891205D02*
X165484515Y-104597804D01*
X165908950Y-105228404D02*
X165726499Y-104891205D01*
X126376793Y-133783628D02*
X126376793Y-133883676D01*
X149750613Y-127371604D02*
X149820873Y-127398924D01*
X147374853Y-124499784D02*
X147406053Y-124605344D01*
X166064393Y-133883676D02*
X166064393Y-133783628D01*
X157909153Y-112039204D02*
X151954133Y-112039204D01*
X128361193Y-135768004D02*
X164080017Y-135768004D01*
X164180341Y-104018004D02*
X164080017Y-104018004D01*
X151954133Y-112039204D02*
X151728633Y-112039204D01*
X126376793Y-133883676D02*
X126417193Y-134184364D01*
X130345593Y-107986804D02*
X130345593Y-131799244D01*
X164180341Y-135768004D02*
X164481027Y-135727766D01*
X148308953Y-126287384D02*
X148664473Y-126668244D01*
X147945373Y-125777484D02*
X148000273Y-125867364D01*
X147886953Y-125687664D02*
X147945373Y-125777484D01*
X164481027Y-104058004D02*
X164180341Y-104018004D01*
X127250393Y-135429834D02*
X127587593Y-135612286D01*
X164481027Y-135727766D02*
X164853921Y-135612286D01*
X166064393Y-133783628D02*
X166064393Y-106002404D01*
X126956993Y-135187850D02*
X127250393Y-135429834D01*
X165726499Y-134894604D02*
X165908950Y-134557256D01*
X130345593Y-131799244D02*
X162095633Y-131799244D01*
X165484515Y-135187850D02*
X165726499Y-134894604D01*
X164080017Y-135768004D02*
X164180341Y-135768004D01*
X148000273Y-125867364D02*
X148308953Y-126287384D01*
X127587593Y-135612286D02*
X127960593Y-135727766D01*
X148664473Y-126668244D02*
X148742433Y-126738524D01*
X165908950Y-134557256D02*
X166024430Y-134184364D01*
X147406053Y-124605344D02*
X147437453Y-124710604D01*
X126714993Y-134894604D02*
X126956993Y-135187850D01*
X151692573Y-127746684D02*
X151954133Y-127746684D01*
X150907093Y-127668444D02*
X151692573Y-127746684D01*
X148816873Y-126804984D02*
X149217353Y-127096024D01*
X157909153Y-127746684D02*
X157909153Y-112039204D01*
X149656913Y-127332444D02*
X149750613Y-127371604D01*
X166064393Y-105902004D02*
X166024430Y-105601404D01*
X128261193Y-135768004D02*
X128361193Y-135768004D01*
X151936774Y-120906964D02*
X152196073Y-120901164D01*
X151727853Y-120920424D02*
X151936774Y-120906964D01*
X151696393Y-120924604D02*
X151727853Y-120920424D01*
X151491353Y-120947745D02*
X151645173Y-120924604D01*
X151645173Y-120924604D02*
X151696393Y-120924604D01*
X151728633Y-112039204D02*
X151051793Y-112115404D01*
X150134573Y-116654644D02*
X150078613Y-116252484D01*
X150352313Y-112293204D02*
X150219453Y-112344204D01*
X151051793Y-112115404D02*
X150352313Y-112293204D01*
X150579913Y-117569044D02*
X150301573Y-117138304D01*
X147921953Y-114430404D02*
X147867413Y-114551404D01*
X150220793Y-121874064D02*
X150389493Y-121642564D01*
X148701373Y-120220945D02*
X148007953Y-120928204D01*
X150172593Y-121956184D02*
X150220793Y-121874064D01*
X147593733Y-116269624D02*
X147731513Y-117075164D01*
X147785273Y-121248724D02*
X147388693Y-122131724D01*
X148933993Y-113098204D02*
X148836133Y-113188004D01*
X150078613Y-116118564D02*
X150078613Y-115944084D01*
X149750613Y-123386064D02*
X149750613Y-123199724D01*
X151292113Y-118163824D02*
X151024493Y-117990184D01*
X150641654Y-121381584D02*
X150928814Y-121173444D01*
X151966273Y-118351504D02*
X151653693Y-118310444D01*
X152446614Y-118369144D02*
X152326733Y-118369144D01*
X149750613Y-123199724D02*
X149856153Y-122641644D01*
X147218653Y-123037104D02*
X147218653Y-123339224D01*
X149590513Y-119638864D02*
X148701373Y-120220945D01*
X150969673Y-117947224D02*
X150863834Y-117863404D01*
X151167793Y-121049764D02*
X151251033Y-121018304D01*
X151251033Y-121018304D02*
X151294013Y-121002625D01*
X149541133Y-119393884D02*
X149797453Y-119541364D01*
X151602973Y-114524404D02*
X151790093Y-114524404D01*
X151551953Y-118283204D02*
X151292113Y-118163824D01*
X147898533Y-121088564D02*
X147785273Y-121248724D01*
X150863834Y-117863404D02*
X150579913Y-117569044D01*
X147867413Y-114551404D02*
X147675853Y-115186404D01*
X149797453Y-119541364D02*
X149590513Y-119638864D01*
X155423973Y-114524404D02*
X155423973Y-118369144D01*
X148836133Y-113188004D02*
X148738553Y-113274004D01*
X147731513Y-117075164D02*
X148144693Y-118023284D01*
X151602694Y-118298864D02*
X151551953Y-118283204D01*
X150185793Y-115421004D02*
X150506613Y-114923004D01*
X147388693Y-122131724D02*
X147218653Y-123037104D01*
X150928814Y-121173444D02*
X151167793Y-121049764D01*
X150301573Y-117138304D02*
X150134573Y-116654644D01*
X151294013Y-121002625D02*
X151491353Y-120947745D01*
X150078613Y-115944084D02*
X150185793Y-115421004D01*
X147675853Y-115186404D02*
X147593733Y-115797464D01*
X150219453Y-112344204D02*
X150086593Y-112394804D01*
X148833393Y-118845104D02*
X149541133Y-119393884D01*
X150506613Y-114923004D02*
X151041574Y-114624004D01*
X147976833Y-114309204D02*
X147921953Y-114430404D01*
X155423973Y-118369144D02*
X152446614Y-118369144D01*
X147593733Y-116001164D02*
X147593733Y-116269624D01*
X148314733Y-113756204D02*
X147976833Y-114309204D01*
X148738553Y-113274004D02*
X148314733Y-113756204D01*
X151653693Y-118310444D02*
X151602694Y-118298864D01*
X151024493Y-117990184D02*
X150969673Y-117947224D01*
X152326733Y-118369144D02*
X151966273Y-118351504D01*
X147593733Y-115797464D02*
X147593733Y-116001164D01*
X148007953Y-120928204D02*
X147898533Y-121088564D01*
X150078613Y-116252484D02*
X150078613Y-116118564D01*
X151790093Y-114524404D02*
X155423973Y-114524404D01*
X150086593Y-112394804D02*
X149475293Y-112707404D01*
X149475293Y-112707404D02*
X148933993Y-113098204D01*
X150102333Y-122065344D02*
X150172593Y-121956184D01*
X150389493Y-121642564D02*
X150641654Y-121381584D01*
X151041574Y-114624004D02*
X151602973Y-114524404D01*
X149856153Y-122641644D02*
X150102333Y-122065344D01*
X148144693Y-118023284D02*
X148833393Y-118845104D01*
%TO.C,*%
D11*
%TD*%
M02*
