%TF.GenerationSoftware,KiCad,Pcbnew,(5.1.10)-1*%
%TF.CreationDate,2021-09-18T02:39:17-07:00*%
%TF.ProjectId,barobord-bottomplate-outside-pcb,6261726f-626f-4726-942d-626f74746f6d,rev?*%
%TF.SameCoordinates,Original*%
%TF.FileFunction,Profile,NP*%
%FSLAX46Y46*%
G04 Gerber Fmt 4.6, Leading zero omitted, Abs format (unit mm)*
G04 Created by KiCad (PCBNEW (5.1.10)-1) date 2021-09-18 02:39:17*
%MOMM*%
%LPD*%
G01*
G04 APERTURE LIST*
%TA.AperFunction,Profile*%
%ADD10C,0.084650*%
%TD*%
G04 APERTURE END LIST*
D10*
X65128187Y-28872765D02*
G75*
G02*
X65074624Y-28982812I-758340J301043D01*
G01*
X67689296Y-23495226D02*
X67341696Y-24157776D01*
X64570669Y-28853879D02*
X63461061Y-28344930D01*
X65022962Y-29019890D02*
G75*
G02*
X64947303Y-29014129I-27747J135295D01*
G01*
X69903733Y-21101632D02*
G75*
G02*
X70762893Y-20574224I3467756J-4685553D01*
G01*
X70762892Y-20574224D02*
G75*
G02*
X71097390Y-20435746I1134475J-2267111D01*
G01*
X64947303Y-29014129D02*
X64775340Y-28945128D01*
X72667518Y-20060327D02*
X72113195Y-20162677D01*
X66387998Y-26149182D02*
X65448128Y-28134387D01*
X67341696Y-24157776D02*
X66387998Y-26149182D01*
X65074624Y-28982812D02*
G75*
G02*
X65022962Y-29019890I-67319J39267D01*
G01*
X69037094Y-21829433D02*
G75*
G02*
X69903733Y-21101633I6351934J-6683775D01*
G01*
X56061052Y-24939010D02*
X55144968Y-24517809D01*
X65448128Y-28134387D02*
X65128186Y-28872765D01*
X72113195Y-20162677D02*
X71571433Y-20293101D01*
X57489508Y-25596439D02*
X56061052Y-24939010D01*
X59103879Y-26339756D02*
X57489508Y-25596439D01*
X60689543Y-27070182D02*
X59103879Y-26339756D01*
X62169345Y-27751451D02*
X60689543Y-27070182D01*
X63461061Y-28344930D02*
X62169345Y-27751451D01*
X67689297Y-23495227D02*
G75*
G02*
X68264612Y-22659439I5173598J-2945350D01*
G01*
X71571433Y-20293101D02*
X71097390Y-20435746D01*
X68264611Y-22659438D02*
G75*
G02*
X69037094Y-21829433I7144388J-5874773D01*
G01*
X64775340Y-28945128D02*
X64570669Y-28853879D01*
X66428977Y-108601782D02*
X69272730Y-109927641D01*
X39841856Y-101756017D02*
G75*
G02*
X38544121Y-101083830I5848636J12880278D01*
G01*
X60012342Y-109439583D02*
G75*
G02*
X59326004Y-109554547I-1045294J4134216D01*
G01*
X35268173Y-93835446D02*
X35222776Y-94309703D01*
X33035703Y-52839897D02*
X21314886Y-78056231D01*
X36369509Y-99109367D02*
G75*
G02*
X36144840Y-98767333I2607573J1957624D01*
G01*
X35472932Y-92872906D02*
X35408676Y-93100434D01*
X46547119Y-25132992D02*
G75*
G02*
X48072818Y-24083532I4896033J-5484063D01*
G01*
X24176552Y-87107376D02*
G75*
G02*
X23063918Y-86281168I3703414J6149574D01*
G01*
X60861450Y-109165889D02*
G75*
G02*
X60012343Y-109439583I-2554324J6470557D01*
G01*
X57640394Y-109541511D02*
G75*
G02*
X56964943Y-109415837I408231J4072071D01*
G01*
X39841856Y-101756016D02*
X47841622Y-105381477D01*
X27963661Y-88934967D02*
X30088568Y-89933168D01*
X44765685Y-27613167D02*
G75*
G02*
X45373799Y-26508064I8448031J-3928904D01*
G01*
X35563818Y-92497901D02*
G75*
G02*
X35568019Y-92509569I-6535J-8943D01*
G01*
X30088568Y-89933168D02*
X32183220Y-90913098D01*
X55144968Y-24517809D02*
X53855020Y-23945654D01*
X63585223Y-107275923D02*
X66428977Y-108601782D01*
X63110858Y-107725887D02*
X63585223Y-107275923D01*
X35524567Y-92679516D02*
X35472932Y-92872906D01*
X63110858Y-107725887D02*
G75*
G02*
X62418937Y-108304502I-4965029J5234276D01*
G01*
X62418938Y-108304502D02*
G75*
G02*
X61666533Y-108786292I-4114444J5597062D01*
G01*
X35329320Y-93436625D02*
X35268173Y-93835446D01*
X44765685Y-27613167D02*
X33035703Y-52839897D01*
X35222776Y-94309703D02*
X35191884Y-94878343D01*
X59326005Y-109554547D02*
G75*
G02*
X58481572Y-109586856I-772894J9149229D01*
G01*
X35329320Y-93436625D02*
G75*
G02*
X35408676Y-93100434I3476706J-643192D01*
G01*
X35517764Y-97429119D02*
G75*
G02*
X35295439Y-96667853I4607536J1758715D01*
G01*
X33949142Y-91739891D02*
X35550465Y-92489994D01*
X20850056Y-79258942D02*
G75*
G02*
X21314886Y-78056231I9298971J-2902728D01*
G01*
X37868766Y-100600266D02*
X38230899Y-100879017D01*
X58481571Y-109586856D02*
G75*
G02*
X57640393Y-109541511I71285J9147177D01*
G01*
X47841622Y-105381477D02*
X56015029Y-109073513D01*
X48072819Y-24083532D02*
G75*
G02*
X49791351Y-23459603I3283375J-6364930D01*
G01*
X32183220Y-90913098D02*
X33949142Y-91739891D01*
X35899590Y-98305191D02*
X36144840Y-98767333D01*
X35899590Y-98305192D02*
G75*
G02*
X35517765Y-97429119I9246886J4551380D01*
G01*
X35295439Y-96667854D02*
G75*
G02*
X35195331Y-95869965I4999561J1032499D01*
G01*
X24513871Y-87289523D02*
X26099694Y-88049760D01*
X22105767Y-85240983D02*
G75*
G02*
X21351563Y-84044261I6180048J4730840D01*
G01*
X45373800Y-26508064D02*
G75*
G02*
X46547120Y-25132992I5626100J-3612514D01*
G01*
X20688605Y-81950239D02*
G75*
G02*
X20639238Y-80979694I9192891J954130D01*
G01*
X20843852Y-82753756D02*
G75*
G02*
X20688605Y-81950239I4505428J1287247D01*
G01*
X20691565Y-80021404D02*
G75*
G02*
X20850057Y-79258941I3971996J-427947D01*
G01*
X51530318Y-23332203D02*
G75*
G02*
X52271800Y-23431784I-465242J-6274592D01*
G01*
X52985892Y-23617903D02*
G75*
G02*
X53855020Y-23945654I-3315543J-10108398D01*
G01*
X37107051Y-99913541D02*
X37485688Y-100271703D01*
X20639237Y-80979693D02*
G75*
G02*
X20691565Y-80021404I9096614J-16151D01*
G01*
X56964943Y-109415837D02*
G75*
G02*
X56015029Y-109073513I1718009J6256410D01*
G01*
X37485688Y-100271703D02*
X37868766Y-100600266D01*
X49791350Y-23459603D02*
G75*
G02*
X51530317Y-23332204I1299266J-5802739D01*
G01*
X38544121Y-101083829D02*
G75*
G02*
X38230899Y-100879017I1910345J3263430D01*
G01*
X36654307Y-99448322D02*
G75*
G02*
X36369510Y-99109366I2946589J2764905D01*
G01*
X26099694Y-88049760D02*
X27963661Y-88934967D01*
X52271800Y-23431784D02*
G75*
G02*
X52985892Y-23617903I-1142524J-5846519D01*
G01*
X35191884Y-94878343D02*
X35195331Y-95869965D01*
X21351563Y-84044260D02*
G75*
G02*
X20843852Y-82753755I6410196J3267028D01*
G01*
X35550465Y-92489994D02*
G75*
G02*
X35563819Y-92497901I-34155J-72913D01*
G01*
X23063918Y-86281168D02*
G75*
G02*
X22105767Y-85240982I5219117J5768892D01*
G01*
X61666532Y-108786292D02*
G75*
G02*
X60861449Y-109165890I-3336175J6032099D01*
G01*
X35568019Y-92509569D02*
X35524567Y-92679516D01*
X24513871Y-87289523D02*
G75*
G02*
X24176551Y-87107376I1770396J3682038D01*
G01*
X36654307Y-99448323D02*
X37107051Y-99913541D01*
X69272730Y-109927641D02*
X69160574Y-110147729D01*
X86584654Y-25348392D02*
X78940641Y-21829919D01*
X88319979Y-25480691D02*
X87846615Y-25929700D01*
X74348827Y-20062400D02*
G75*
G02*
X74850824Y-20137430I-450312J-4729764D01*
G01*
X73731861Y-20022173D02*
X73126605Y-20018807D01*
X76746674Y-20838253D02*
X75595492Y-20357595D01*
X87846615Y-25929700D02*
X86584654Y-25348392D01*
X72667517Y-20060328D02*
G75*
G02*
X73126605Y-20018807I543550J-3451175D01*
G01*
X78940641Y-21829919D02*
X76746674Y-20838253D01*
X74850824Y-20137431D02*
G75*
G02*
X75595492Y-20357595I-909635J-4446116D01*
G01*
X88319979Y-25480691D02*
G75*
G02*
X88982406Y-24920881I5205289J-5487625D01*
G01*
X74348826Y-20062401D02*
X73731861Y-20022173D01*
X126152040Y-43899866D02*
X124192929Y-42956387D01*
X149429015Y-54305651D02*
X145987831Y-54242780D01*
X127802425Y-44708340D02*
G75*
G02*
X128224444Y-44951197I-1675152J-3399061D01*
G01*
X130489796Y-47345482D02*
G75*
G02*
X130982044Y-48310061I-5973094J-3656110D01*
G01*
X163612956Y-45085483D02*
X163052655Y-45574659D01*
X170141993Y-41933881D02*
X167910768Y-42979572D01*
X165974462Y-43889610D02*
X164302683Y-44677123D01*
X131647405Y-49203516D02*
X131493332Y-49159333D01*
X161135244Y-48541293D02*
X160950893Y-49101820D01*
X102744748Y-27380720D02*
X95387744Y-24030882D01*
X116268595Y-36778055D02*
G75*
G02*
X116317104Y-37144011I-3873715J-699670D01*
G01*
X135257582Y-50800147D02*
X133473149Y-49990402D01*
X131493332Y-49159333D02*
G75*
G02*
X131363431Y-49109197I401199J1232846D01*
G01*
X88982405Y-24920881D02*
G75*
G02*
X89688332Y-24456040I4099534J-5457272D01*
G01*
X145987831Y-54242780D02*
X142546646Y-54179910D01*
X89688333Y-24456039D02*
G75*
G02*
X90446545Y-24081869I3395951J-5926199D01*
G01*
X90446545Y-24081870D02*
G75*
G02*
X91265192Y-23792967I2930420J-6999445D01*
G01*
X91265191Y-23792968D02*
G75*
G02*
X92040109Y-23645306I1172852J-4047862D01*
G01*
X92040110Y-23645306D02*
G75*
G02*
X93035550Y-23598107I997490J-10516787D01*
G01*
X167910768Y-42979572D02*
X165974462Y-43889610D01*
X93035550Y-23598107D02*
G75*
G02*
X94021447Y-23644397I2031J-10478899D01*
G01*
X94021448Y-23644397D02*
G75*
G02*
X94761168Y-23792287I-343447J-3641785D01*
G01*
X163612956Y-45085483D02*
G75*
G02*
X164037830Y-44807638I1544851J-1898574D01*
G01*
X131167981Y-48780344D02*
X131082909Y-48558199D01*
X163052655Y-45574659D02*
X162506181Y-46123971D01*
X94761168Y-23792288D02*
G75*
G02*
X95387744Y-24030882I-1571309J-5068454D01*
G01*
X164302683Y-44677123D02*
X164037830Y-44807638D01*
X161798123Y-47083818D02*
X161543672Y-47539688D01*
X109461259Y-30448214D02*
X102744748Y-27380720D01*
X129067789Y-45613391D02*
G75*
G02*
X129837638Y-46428763I-5490416J-5955001D01*
G01*
X156819361Y-50874305D02*
X154748829Y-51831625D01*
X111987443Y-31640419D02*
X109461259Y-30448214D01*
X111987442Y-31640419D02*
G75*
G02*
X113516091Y-32555059I-4500749J-9256898D01*
G01*
X129837638Y-46428763D02*
G75*
G02*
X130489795Y-47345482I-6299277J-5171664D01*
G01*
X116336951Y-37567609D02*
X116317104Y-37144011D01*
X116268595Y-36778055D02*
X116182633Y-36383716D01*
X161328232Y-48014407D02*
X161135244Y-48541293D01*
X161543672Y-47539688D02*
X161328232Y-48014407D01*
X133473149Y-49990402D02*
X131937667Y-49303443D01*
X113516091Y-32555059D02*
G75*
G02*
X114732482Y-33657370I-4363686J-6037586D01*
G01*
X162108591Y-46613673D02*
X161798123Y-47083818D01*
X115622033Y-34938660D02*
G75*
G02*
X116182633Y-36383716I-5736969J-3056890D01*
G01*
X114732482Y-33657369D02*
G75*
G02*
X115622033Y-34938660I-4992155J-4415297D01*
G01*
X142546646Y-54179910D02*
X137298069Y-51741750D01*
X116311026Y-39252726D02*
X116333493Y-38156821D01*
X124192929Y-42956387D02*
X121979359Y-41910347D01*
X131082909Y-48558199D02*
X130982044Y-48310061D01*
X160192898Y-49346022D02*
X158635528Y-50046776D01*
X131235965Y-48968446D02*
G75*
G02*
X131245318Y-49022958I-154174J-54512D01*
G01*
X137298069Y-51741750D02*
X135257582Y-50800147D01*
X158635528Y-50046776D02*
X156819361Y-50874305D01*
X154748829Y-51831625D02*
X149429015Y-54305651D01*
X116333493Y-38156821D02*
X116336951Y-37567609D01*
X131266578Y-49059729D02*
G75*
G02*
X131245318Y-49022958I21169J36771D01*
G01*
X131647405Y-49203516D02*
G75*
G02*
X131937667Y-49303443I-423597J-1701981D01*
G01*
X160950893Y-49101820D02*
X160509768Y-49229710D01*
X175898193Y-39239184D02*
X170141993Y-41933881D01*
X162108591Y-46613673D02*
G75*
G02*
X162506181Y-46123971I3943743J-2795682D01*
G01*
X131235964Y-48968446D02*
X131167981Y-48780344D01*
X127802425Y-44708340D02*
X126152040Y-43899866D01*
X128224443Y-44951197D02*
G75*
G02*
X129067789Y-45613392I-3751237J-5645553D01*
G01*
X131363431Y-49109197D02*
G75*
G02*
X131266578Y-49059729I444387J989607D01*
G01*
X160192899Y-49346023D02*
G75*
G02*
X160509768Y-49229710I992426J-2213878D01*
G01*
X121979359Y-41910347D02*
X116311026Y-39252726D01*
X204423251Y-25900745D02*
X204263175Y-25795980D01*
X222010296Y-21032703D02*
G75*
G02*
X223376284Y-22123460I-2923997J-5062522D01*
G01*
X226793090Y-28357311D02*
X226411068Y-27586493D01*
X227216347Y-29050374D02*
G75*
G02*
X227170465Y-29059621I-42637J93107D01*
G01*
X204572549Y-25870711D02*
X204488683Y-25906579D01*
X225968668Y-26671406D02*
X225070372Y-24836846D01*
X216084482Y-20530665D02*
X214715546Y-21135110D01*
X228898636Y-28279825D02*
X227216347Y-29050373D01*
X235210386Y-25372333D02*
X232970718Y-26402370D01*
X224420064Y-23620774D02*
X223884404Y-22762028D01*
X204073960Y-25651547D02*
X203869649Y-25472482D01*
X198716793Y-23596900D02*
G75*
G02*
X200562404Y-23687528I623212J-6146454D01*
G01*
X214715546Y-21135110D02*
X212850565Y-21986743D01*
X216084482Y-20530666D02*
G75*
G02*
X216615312Y-20346579I1474028J-3393100D01*
G01*
X239260446Y-23589723D02*
G75*
G02*
X239592394Y-23515756I854363J-3052361D01*
G01*
X239964343Y-23468852D02*
X239592394Y-23515756D01*
X208084367Y-24221989D02*
X206229602Y-25093220D01*
X226411068Y-27586493D02*
X225968668Y-26671406D01*
X216615312Y-20346579D02*
G75*
G02*
X218475874Y-20103203I1877761J-7121613D01*
G01*
X230765169Y-27421796D02*
X228898636Y-28279825D01*
X241798159Y-23440593D02*
X241078693Y-23434232D01*
X218475873Y-20103203D02*
G75*
G02*
X220327628Y-20340275I16870J-7218730D01*
G01*
X227170465Y-29059620D02*
G75*
G02*
X227136258Y-29037825I1259J39717D01*
G01*
X242236582Y-23467408D02*
G75*
G02*
X242589089Y-23525239I-307804J-2979496D01*
G01*
X242236582Y-23467408D02*
X241798159Y-23440593D01*
X175946057Y-38023075D02*
X175898193Y-39239184D01*
X176002652Y-37156305D02*
X175946057Y-38023075D01*
X238873009Y-23728893D02*
G75*
G02*
X239260446Y-23589723I1159406J-2618813D01*
G01*
X176002652Y-37156305D02*
G75*
G02*
X176100357Y-36480925I6462180J-590103D01*
G01*
X210266562Y-23195290D02*
X208084367Y-24221989D01*
X176100357Y-36480925D02*
G75*
G02*
X176257063Y-35884271I4998023J-993781D01*
G01*
X176257062Y-35884271D02*
G75*
G02*
X176493832Y-35268161I6337656J-2081993D01*
G01*
X196710641Y-24027407D02*
G75*
G02*
X198716794Y-23596900I2945975J-8838609D01*
G01*
X176933147Y-34454189D02*
G75*
G02*
X177519033Y-33665773I6289696J-4062089D01*
G01*
X206229602Y-25093220D02*
X204572549Y-25870711D01*
X241078693Y-23434232D02*
X240433195Y-23442896D01*
X202270357Y-24315593D02*
G75*
G02*
X203869649Y-25472482I-3971176J-7173662D01*
G01*
X227136258Y-29037825D02*
X226793090Y-28357311D01*
X176493833Y-35268161D02*
G75*
G02*
X176933147Y-34454189I5391842J-2384532D01*
G01*
X187771752Y-28168725D02*
X179839469Y-31916508D01*
X204263175Y-25795980D02*
X204073960Y-25651547D01*
X223376284Y-22123460D02*
G75*
G02*
X223884404Y-22762028I-4007899J-3710606D01*
G01*
X220327628Y-20340275D02*
G75*
G02*
X222010295Y-21032703I-1738875J-6616372D01*
G01*
X242980334Y-23630687D02*
X242589089Y-23525239D01*
X178196231Y-32968708D02*
G75*
G02*
X178908696Y-32428468I3531597J-3917534D01*
G01*
X200562404Y-23687527D02*
G75*
G02*
X202270357Y-24315592I-1179732J-5844479D01*
G01*
X204488683Y-25906579D02*
G75*
G02*
X204423251Y-25900745I-26807J69194D01*
G01*
X225070372Y-24836846D02*
X224420064Y-23620774D01*
X177519033Y-33665773D02*
G75*
G02*
X178196231Y-32968708I5594334J-4757408D01*
G01*
X237186583Y-24479267D02*
X235210386Y-25372333D01*
X178908696Y-32428468D02*
G75*
G02*
X179839469Y-31916508I4654166J-7359455D01*
G01*
X195695530Y-24433870D02*
X187771752Y-28168725D01*
X240433195Y-23442896D02*
X239964343Y-23468852D01*
X212850565Y-21986743D02*
X210266562Y-23195290D01*
X238873008Y-23728892D02*
X237186583Y-24479267D01*
X232970718Y-26402370D02*
X230765169Y-27421796D01*
X195695531Y-24433870D02*
G75*
G02*
X196710641Y-24027407I3940303J-8369786D01*
G01*
X232313537Y-109526090D02*
G75*
G02*
X231377783Y-109249758I1100759J5450109D01*
G01*
X227689151Y-120112959D02*
X225713778Y-115827741D01*
X269268367Y-86444288D02*
G75*
G02*
X268596453Y-86920427I-3084398J3640452D01*
G01*
X264759664Y-88751857D02*
X266677432Y-87846402D01*
X256807270Y-92494773D02*
G75*
G02*
X256847375Y-92466562I101066J-101066D01*
G01*
X256795762Y-92529236D02*
G75*
G02*
X256807270Y-92494773I40263J5708D01*
G01*
X256895157Y-92945595D02*
X256848042Y-92786282D01*
X256848042Y-92786282D02*
X256815245Y-92645043D01*
X228614895Y-107273410D02*
X228901406Y-107608134D01*
X236735985Y-108984485D02*
G75*
G02*
X235598200Y-109362669I-3562900J8818524D01*
G01*
X255644013Y-99502979D02*
G75*
G02*
X254818787Y-100282774I-3696806J3085634D01*
G01*
X242980334Y-23630687D02*
G75*
G02*
X244134378Y-24095009I-2383302J-7589864D01*
G01*
X244134378Y-24095010D02*
G75*
G02*
X245164577Y-24721872I-3126959J-6298870D01*
G01*
X246751977Y-26395017D02*
G75*
G02*
X247125844Y-27072140I-4861610J-3126067D01*
G01*
X251625288Y-102037441D02*
X253694077Y-100995956D01*
X245164578Y-24721871D02*
G75*
G02*
X246044488Y-25495232I-3915127J-5341785D01*
G01*
X246044487Y-25495232D02*
G75*
G02*
X246751976Y-26395016I-4373777J-4167081D01*
G01*
X256815245Y-92645043D02*
X256795762Y-92529236D01*
X258918608Y-52284977D02*
X247125844Y-27072140D01*
X234449924Y-109583318D02*
G75*
G02*
X233339145Y-109639450I-947976J7740582D01*
G01*
X270537816Y-77131994D02*
X258918608Y-52284977D01*
X271179346Y-78624066D02*
X270537816Y-77131994D01*
X271179346Y-78624066D02*
G75*
G02*
X271567010Y-80035005I-6397444J-2516463D01*
G01*
X271567009Y-80035005D02*
G75*
G02*
X271659458Y-81528822I-7419944J-1208969D01*
G01*
X271659459Y-81528823D02*
G75*
G02*
X271454698Y-82997099I-7370621J279464D01*
G01*
X266677432Y-87846402D02*
X268329731Y-87061680D01*
X225831569Y-108587193D02*
X228614895Y-107273410D01*
X223094483Y-109943710D02*
X223841488Y-109558416D01*
X270510380Y-85085637D02*
G75*
G02*
X269926025Y-85811042I-6078986J4298909D01*
G01*
X225713778Y-115827741D02*
X224700468Y-113629422D01*
X271454699Y-82997098D02*
G75*
G02*
X270962903Y-84332460I-6095702J1486721D01*
G01*
X270962902Y-84332460D02*
G75*
G02*
X270510380Y-85085637I-5271541J2654709D01*
G01*
X228410204Y-121733573D02*
X227689151Y-120112959D01*
X268329731Y-87061680D02*
X268596453Y-86920427D01*
X256847375Y-92466562D02*
X258512104Y-91681674D01*
X262550224Y-89787513D02*
X264759664Y-88751857D01*
X236735985Y-108984485D02*
X237190245Y-108787720D01*
X256895157Y-92945595D02*
G75*
G02*
X257102977Y-93853765I-5142624J-1654672D01*
G01*
X257001746Y-96908466D02*
G75*
G02*
X256785321Y-97534128I-4577381J1233117D01*
G01*
X245675089Y-104836996D02*
X251625288Y-102037441D01*
X254818788Y-100282774D02*
G75*
G02*
X253694077Y-100995956I-5384489J7248063D01*
G01*
X242441577Y-106348768D02*
X245675089Y-104836996D01*
X224700468Y-113629422D02*
X223845148Y-111761049D01*
X229554971Y-108225795D02*
G75*
G02*
X228901406Y-107608134I2584383J3389221D01*
G01*
X260361748Y-90812051D02*
X262550224Y-89787513D01*
X224728843Y-109115419D02*
X225831569Y-108587193D01*
X223845148Y-111761049D02*
X223083558Y-110089540D01*
X223841488Y-109558416D02*
X224728843Y-109115419D01*
X257102978Y-93853765D02*
G75*
G02*
X257192169Y-94929029I-9568394J-1335015D01*
G01*
X257192169Y-94929029D02*
G75*
G02*
X257160916Y-96003467I-9604049J-258317D01*
G01*
X256441799Y-98259072D02*
X256785321Y-97534128D01*
X235598199Y-109362669D02*
G75*
G02*
X234449923Y-109583317I-2194485J8322128D01*
G01*
X223060670Y-110007421D02*
G75*
G02*
X223094483Y-109943710I63059J7362D01*
G01*
X257160916Y-96003467D02*
G75*
G02*
X257001746Y-96908466I-5147609J438857D01*
G01*
X239616816Y-107663146D02*
X242441577Y-106348768D01*
X256040221Y-98957720D02*
G75*
G02*
X255644013Y-99502979I-4252325J2673337D01*
G01*
X230419819Y-108794617D02*
G75*
G02*
X229554971Y-108225794I3641837J6478989D01*
G01*
X223083557Y-110089540D02*
G75*
G02*
X223060671Y-110007421I250372J114025D01*
G01*
X231377784Y-109249758D02*
G75*
G02*
X230419819Y-108794617I2835828J7204461D01*
G01*
X237190245Y-108787720D02*
X239616816Y-107663146D01*
X233339145Y-109639450D02*
G75*
G02*
X232313537Y-109526090I120888J5789908D01*
G01*
X256040221Y-98957720D02*
X256441799Y-98259072D01*
X269926025Y-85811041D02*
G75*
G02*
X269268367Y-86444287I-5301202J4847439D01*
G01*
X258512104Y-91681674D02*
X260361748Y-90812051D01*
X98612743Y-149196709D02*
X105384743Y-155939333D01*
X63791832Y-127696327D02*
G75*
G02*
X63441533Y-126883944I4914927J2601032D01*
G01*
X66167961Y-116631916D02*
X64037512Y-121293218D01*
X69076073Y-110321797D02*
X68235229Y-112143245D01*
X152873771Y-164138723D02*
X167263893Y-164084763D01*
X63164686Y-123875540D02*
G75*
G02*
X63408871Y-122838617I4610442J-538496D01*
G01*
X83728351Y-138753789D02*
X91170547Y-143975249D01*
X116779864Y-164146299D02*
X135312208Y-164152919D01*
X69160574Y-110147729D02*
X69076073Y-110321797D01*
X67815753Y-131266484D02*
G75*
G02*
X66652426Y-130672627I5963322J13118130D01*
G01*
X63228072Y-126035963D02*
G75*
G02*
X63124109Y-125067902I8177480J1367818D01*
G01*
X109335483Y-159864885D02*
X111149690Y-161633680D01*
X113480299Y-163413145D02*
G75*
G02*
X112833943Y-163080279I2639196J5918745D01*
G01*
X67815753Y-131266484D02*
X68498401Y-131581663D01*
X226219099Y-130303759D02*
G75*
G02*
X225892117Y-130496822I-1637160J2399360D01*
G01*
X223671214Y-131592949D02*
X224881765Y-131002337D01*
X66652426Y-130672627D02*
G75*
G02*
X65714419Y-130047856I3970501J6977693D01*
G01*
X222325199Y-132232426D02*
X223671214Y-131592949D01*
X218447529Y-134052836D02*
X220664473Y-133012240D01*
X64037512Y-121293218D02*
X63408871Y-122838617D01*
X114219847Y-163705535D02*
X114982126Y-163933536D01*
X73343095Y-133857382D02*
X76272147Y-135237473D01*
X180573687Y-162265228D02*
X182549144Y-160333809D01*
X65714419Y-130047856D02*
G75*
G02*
X64949526Y-129355001I4039214J5227816D01*
G01*
X187452918Y-155481635D02*
X194182593Y-148772069D01*
X64949526Y-129355000D02*
G75*
G02*
X64309536Y-128557442I4631559J4372085D01*
G01*
X179673439Y-162949486D02*
X180209401Y-162577731D01*
X68235229Y-112143245D02*
X67280209Y-114214841D01*
X194182593Y-148772069D02*
X201575022Y-143636221D01*
X213933922Y-136170694D02*
X216085991Y-135161047D01*
X115697005Y-164072354D02*
G75*
G02*
X114982126Y-163933536I882681J6455703D01*
G01*
X179112067Y-163277713D02*
X179673439Y-162949486D01*
X184836695Y-158080932D02*
X187452918Y-155481635D01*
X70712397Y-132620514D02*
X73343095Y-133857382D01*
X228778357Y-122675322D02*
X228410204Y-121733573D01*
X228778357Y-122675322D02*
G75*
G02*
X228978966Y-123417347I-4837594J-1705989D01*
G01*
X113480298Y-163413145D02*
X114219847Y-163705535D01*
X228978966Y-123417347D02*
G75*
G02*
X229065284Y-125374367I-6659252J-1274131D01*
G01*
X229065283Y-125374367D02*
G75*
G02*
X228592261Y-127298718I-7057311J714439D01*
G01*
X76272147Y-135237473D02*
X83728351Y-138753789D01*
X111149690Y-161633680D02*
X112232282Y-162639445D01*
X67280209Y-114214841D02*
X66167961Y-116631916D01*
X228592260Y-127298718D02*
G75*
G02*
X227612216Y-128999278I-6452645J2586020D01*
G01*
X227612217Y-128999279D02*
G75*
G02*
X226219099Y-130303759I-4904396J3841512D01*
G01*
X208967451Y-138500373D02*
X213933922Y-136170694D01*
X105384743Y-155939333D02*
X109335483Y-159864885D01*
X63441533Y-126883943D02*
G75*
G02*
X63228072Y-126035963I5124574J1740858D01*
G01*
X224881765Y-131002337D02*
X225892117Y-130496822D01*
X64309536Y-128557442D02*
G75*
G02*
X63791832Y-127696326I7624710J5170168D01*
G01*
X201575022Y-143636221D02*
X208967451Y-138500373D01*
X116779863Y-164146299D02*
G75*
G02*
X115697005Y-164072355I3804J8021503D01*
G01*
X112833943Y-163080280D02*
G75*
G02*
X112232282Y-162639445I1881817J3199345D01*
G01*
X91170547Y-143975249D02*
X98612743Y-149196709D01*
X63124109Y-125067902D02*
G75*
G02*
X63164687Y-123875541I7252015J350073D01*
G01*
X220664473Y-133012240D02*
X222325199Y-132232426D01*
X182549144Y-160333809D02*
X184836695Y-158080932D01*
X216085991Y-135161047D02*
X218447529Y-134052836D01*
X180573687Y-162265228D02*
G75*
G02*
X180209401Y-162577731I-2616345J2681310D01*
G01*
X178529428Y-163560027D02*
X179112067Y-163277713D01*
X135312208Y-164152919D02*
X152873771Y-164138723D01*
X68498401Y-131581663D02*
X70712397Y-132620514D01*
X167263893Y-164084763D02*
X177252593Y-164028404D01*
X177929793Y-163794324D02*
X178529428Y-163560027D01*
X177252593Y-164028404D02*
X177929793Y-163794324D01*
M02*
