%TF.GenerationSoftware,KiCad,Pcbnew,(5.1.10)-1*%
%TF.CreationDate,2021-09-18T02:39:17-07:00*%
%TF.ProjectId,barobord-bottomplate-outside-pcb,6261726f-626f-4726-942d-626f74746f6d,rev?*%
%TF.SameCoordinates,Original*%
%TF.FileFunction,Legend,Bot*%
%TF.FilePolarity,Positive*%
%FSLAX46Y46*%
G04 Gerber Fmt 4.6, Leading zero omitted, Abs format (unit mm)*
G04 Created by KiCad (PCBNEW (5.1.10)-1) date 2021-09-18 02:39:17*
%MOMM*%
%LPD*%
G01*
G04 APERTURE LIST*
%ADD10C,0.320000*%
G04 APERTURE END LIST*
D10*
X140457333Y-138750424D02*
X140248412Y-138736964D01*
X140540013Y-138754604D02*
X140488793Y-138754604D01*
X140693833Y-138777745D02*
X140540013Y-138754604D01*
X140488793Y-138754604D02*
X140457333Y-138750424D01*
X140248412Y-138736964D02*
X139989113Y-138731164D01*
X140934153Y-138848304D02*
X140891173Y-138832625D01*
X139738572Y-136199144D02*
X139858453Y-136199144D01*
X141999393Y-133251004D02*
X141678573Y-132753004D01*
X141964393Y-139704064D02*
X141795693Y-139472564D01*
X141017393Y-138879764D02*
X140934153Y-138848304D01*
X141256372Y-139003444D02*
X141017393Y-138879764D01*
X144263233Y-132260404D02*
X144317773Y-132381404D01*
X141543532Y-139211584D02*
X141256372Y-139003444D01*
X141795693Y-139472564D02*
X141543532Y-139211584D01*
X142012593Y-139786184D02*
X141964393Y-139704064D01*
X142434573Y-141029724D02*
X142329033Y-140471644D01*
X140582213Y-132354404D02*
X140395093Y-132354404D01*
X142434573Y-141216064D02*
X142434573Y-141029724D01*
X142106573Y-134082484D02*
X142106573Y-133948564D01*
X144177233Y-138758204D02*
X144286653Y-138918564D01*
X140395093Y-132354404D02*
X136761213Y-132354404D01*
X141143612Y-132454004D02*
X140582213Y-132354404D01*
X141605273Y-135399044D02*
X141883613Y-134968304D01*
X142387733Y-137371364D02*
X142594673Y-137468864D01*
X140582492Y-136128864D02*
X140633233Y-136113204D01*
X144317773Y-132381404D02*
X144509333Y-133016404D01*
X141321352Y-135693404D02*
X141605273Y-135399044D01*
X140218913Y-136181504D02*
X140531493Y-136140444D01*
X141160693Y-135820184D02*
X141215513Y-135777224D01*
X143349053Y-131018004D02*
X143446633Y-131104004D01*
X144591453Y-133831164D02*
X144591453Y-134099624D01*
X144796493Y-139961724D02*
X144966533Y-140867104D01*
X142709893Y-130537404D02*
X143251193Y-130928204D01*
X141832873Y-130123204D02*
X141965733Y-130174204D01*
X141215513Y-135777224D02*
X141321352Y-135693404D01*
X144286653Y-138918564D02*
X144399913Y-139078724D01*
X144453673Y-134905164D02*
X144040493Y-135853284D01*
X140893073Y-135993824D02*
X141160693Y-135820184D01*
X140633233Y-136113204D02*
X140893073Y-135993824D01*
X142106573Y-133948564D02*
X142106573Y-133774084D01*
X144208353Y-132139204D02*
X144263233Y-132260404D01*
X142644053Y-137223884D02*
X142387733Y-137371364D01*
X142594673Y-137468864D02*
X143483813Y-138050945D01*
X143251193Y-130928204D02*
X143349053Y-131018004D01*
X144591453Y-133627464D02*
X144591453Y-133831164D01*
X142098593Y-130224804D02*
X142709893Y-130537404D01*
X139858453Y-136199144D02*
X140218913Y-136181504D01*
X136761213Y-132354404D02*
X136761213Y-136199144D01*
X144966533Y-140867104D02*
X144966533Y-141169224D01*
X144399913Y-139078724D02*
X144796493Y-139961724D01*
X144591453Y-134099624D02*
X144453673Y-134905164D01*
X143483813Y-138050945D02*
X144177233Y-138758204D01*
X141133393Y-129945404D02*
X141832873Y-130123204D01*
X142050613Y-134484644D02*
X142106573Y-134082484D01*
X140456553Y-129869204D02*
X141133393Y-129945404D01*
X140531493Y-136140444D02*
X140582492Y-136128864D01*
X144040493Y-135853284D02*
X143351793Y-136675104D01*
X142329033Y-140471644D02*
X142082853Y-139895344D01*
X142082853Y-139895344D02*
X142012593Y-139786184D01*
X143446633Y-131104004D02*
X143870453Y-131586204D01*
X143870453Y-131586204D02*
X144208353Y-132139204D01*
X136761213Y-136199144D02*
X139738572Y-136199144D01*
X141678573Y-132753004D02*
X141143612Y-132454004D01*
X143351793Y-136675104D02*
X142644053Y-137223884D01*
X141965733Y-130174204D02*
X142098593Y-130224804D01*
X144509333Y-133016404D02*
X144591453Y-133627464D01*
X142106573Y-133774084D02*
X141999393Y-133251004D01*
X140891173Y-138832625D02*
X140693833Y-138777745D01*
X141883613Y-134968304D02*
X142050613Y-134484644D01*
X141379853Y-145482984D02*
X141278093Y-145498444D01*
X141959953Y-145353724D02*
X141485113Y-145463444D01*
X126120793Y-123732004D02*
X126160756Y-123431404D01*
X142364313Y-145228924D02*
X141959953Y-145353724D01*
X144747733Y-142540604D02*
X144298233Y-143517664D01*
X165808393Y-123732004D02*
X165808393Y-123832404D01*
X161839593Y-149629244D02*
X130089553Y-149629244D01*
X126993919Y-122185804D02*
X127331265Y-122003404D01*
X126700671Y-122427804D02*
X126993919Y-122185804D01*
X164224593Y-153557766D02*
X163923993Y-153598004D01*
X165652593Y-152387256D02*
X165470193Y-152724604D01*
X143876233Y-144117384D02*
X143520713Y-144498244D01*
X144298233Y-143517664D02*
X144239813Y-143607484D01*
X165767993Y-123431404D02*
X165808393Y-123732004D01*
X144966533Y-141169224D02*
X144966533Y-141485584D01*
X127704159Y-153557766D02*
X127331265Y-153442286D01*
X126160756Y-152014364D02*
X126120793Y-151713676D01*
X126993919Y-153259834D02*
X126700671Y-153017850D01*
X164934793Y-153259834D02*
X164597593Y-153442286D01*
X144966533Y-141485584D02*
X144810333Y-142329784D01*
X165808393Y-151613628D02*
X165808393Y-151713676D01*
X130089553Y-149629244D02*
X130089553Y-125816804D01*
X130089553Y-125816804D02*
X161839593Y-125816804D01*
X128004845Y-121848004D02*
X128105169Y-121848004D01*
X165470193Y-152724604D02*
X165228193Y-153017850D01*
X165808393Y-151713676D02*
X165767993Y-152014364D01*
X126120793Y-151713676D02*
X126120793Y-151613628D01*
X163823993Y-153598004D02*
X128105169Y-153598004D01*
X142434573Y-145201604D02*
X142364313Y-145228924D01*
X143442753Y-144568524D02*
X143368313Y-144634984D01*
X144779133Y-142435344D02*
X144747733Y-142540604D01*
X164597593Y-153442286D02*
X164224593Y-153557766D01*
X126120793Y-151613628D02*
X126120793Y-123832404D01*
X127331265Y-122003404D02*
X127704159Y-121888004D01*
X126276236Y-123058404D02*
X126458687Y-122721205D01*
X165767993Y-152014364D02*
X165652593Y-152387256D01*
X126458687Y-122721205D02*
X126700671Y-122427804D01*
X134276033Y-129869204D02*
X140231053Y-129869204D01*
X141278093Y-145498444D02*
X140492613Y-145576684D01*
X144184913Y-143697364D02*
X143876233Y-144117384D01*
X142528273Y-145162444D02*
X142434573Y-145201604D01*
X144810333Y-142329784D02*
X144779133Y-142435344D01*
X128004845Y-153598004D02*
X127704159Y-153557766D01*
X141485113Y-145463444D02*
X141379853Y-145482984D01*
X126120793Y-123832404D02*
X126120793Y-123732004D01*
X144239813Y-143607484D02*
X144184913Y-143697364D01*
X126458687Y-152724604D02*
X126276236Y-152387256D01*
X165228193Y-153017850D02*
X164934793Y-153259834D01*
X140231053Y-129869204D02*
X140456553Y-129869204D01*
X140231053Y-145576684D02*
X134276033Y-145576684D01*
X127704159Y-121888004D02*
X128004845Y-121848004D01*
X142967833Y-144926024D02*
X142528273Y-145162444D01*
X126160756Y-123431404D02*
X126276236Y-123058404D01*
X127331265Y-153442286D02*
X126993919Y-153259834D01*
X161839593Y-125816804D02*
X161839593Y-149629244D01*
X126700671Y-153017850D02*
X126458687Y-152724604D01*
X165808393Y-123832404D02*
X165808393Y-151613628D01*
X163923993Y-153598004D02*
X163823993Y-153598004D01*
X134276033Y-145576684D02*
X134276033Y-129869204D01*
X143368313Y-144634984D02*
X142967833Y-144926024D01*
X140492613Y-145576684D02*
X140231053Y-145576684D01*
X126276236Y-152387256D02*
X126160756Y-152014364D01*
X143520713Y-144498244D02*
X143442753Y-144568524D01*
X128105169Y-153598004D02*
X128004845Y-153598004D01*
X150602793Y-139703784D02*
X150554793Y-139785904D01*
X141353093Y-142930364D02*
X141953892Y-142587464D01*
X150252793Y-142016164D02*
X150613193Y-142587464D01*
X147600793Y-141169224D02*
X147600793Y-140867104D01*
X150238193Y-140471644D02*
X150132793Y-141029724D01*
X150460993Y-133774084D02*
X150460993Y-133948564D01*
X152027392Y-138754604D02*
X151873593Y-138777745D01*
X155806193Y-138731164D02*
X152664793Y-138731164D01*
X151023593Y-139211584D02*
X150771393Y-139472284D01*
X150771393Y-139472284D02*
X150602793Y-139703784D01*
X152348193Y-136181504D02*
X152708593Y-136199144D01*
X151984993Y-132354204D02*
X151423593Y-132453604D01*
X150460993Y-133948564D02*
X150460993Y-134082484D01*
X150554793Y-139785904D02*
X150484193Y-139895344D01*
X152109793Y-138750424D02*
X152078592Y-138754604D01*
X155806193Y-132354204D02*
X152172393Y-132354204D01*
X155806193Y-136199144D02*
X155806193Y-132354204D01*
X152172393Y-132354204D02*
X151984993Y-132354204D01*
X151984993Y-136128864D02*
X152035593Y-136140444D01*
X151933993Y-136113204D02*
X151984993Y-136128864D01*
X150484193Y-139895344D02*
X150238193Y-140471644D01*
X151549793Y-138879764D02*
X151310793Y-139003444D01*
X152055193Y-143044724D02*
X155806193Y-143044724D01*
X150132793Y-141415884D02*
X150252793Y-142016164D01*
X136761213Y-143044724D02*
X140512213Y-143044724D01*
X151676193Y-138832625D02*
X151633193Y-138848304D01*
X152828793Y-136199144D02*
X155806193Y-136199144D01*
X151351793Y-135777224D02*
X151406393Y-135820184D01*
X155806193Y-143044724D02*
X155806193Y-138731164D01*
X141953892Y-142587464D02*
X142314413Y-142016164D01*
X148167193Y-139078724D02*
X148280793Y-138918564D01*
X150567993Y-133251004D02*
X150460993Y-133774084D01*
X151423593Y-132453604D02*
X150888793Y-132752804D01*
X151406393Y-135820184D02*
X151673993Y-135993824D01*
X152708593Y-136199144D02*
X152828793Y-136199144D01*
X151844993Y-143044724D02*
X152055193Y-143044724D01*
X150132793Y-141216064D02*
X150132793Y-141415884D01*
X147770593Y-139961724D02*
X148167193Y-139078724D01*
X147600793Y-140867104D02*
X147770593Y-139961724D01*
X150132793Y-141029724D02*
X150132793Y-141216064D01*
X150888793Y-132752804D02*
X150567993Y-133251004D01*
X151873593Y-138777745D02*
X151676193Y-138832625D01*
X151245793Y-135693404D02*
X151351793Y-135777224D01*
X150961793Y-135399044D02*
X151245793Y-135693404D01*
X150516593Y-134484644D02*
X150683593Y-134968304D01*
X142314413Y-142016164D02*
X142434573Y-141415884D01*
X140722193Y-143044724D02*
X141353093Y-142930364D01*
X151310793Y-139003444D02*
X151023593Y-139211584D01*
X151633193Y-138848304D02*
X151549793Y-138879764D01*
X150613193Y-142587464D02*
X151213993Y-142930364D01*
X152578193Y-138731164D02*
X152318993Y-138736964D01*
X152318993Y-138736964D02*
X152109793Y-138750424D01*
X139902833Y-138731164D02*
X136761213Y-138731164D01*
X142434573Y-141415884D02*
X142434573Y-141216064D01*
X139989113Y-138731164D02*
X139902833Y-138731164D01*
X152078592Y-138754604D02*
X152027392Y-138754604D01*
X151213993Y-142930364D02*
X151844993Y-143044724D01*
X136761213Y-138731164D02*
X136761213Y-143044724D01*
X150460993Y-134082484D02*
X150516593Y-134484644D01*
X152035593Y-136140444D02*
X152348193Y-136181504D01*
X151673993Y-135993824D02*
X151933993Y-136113204D01*
X152664793Y-138731164D02*
X152578193Y-138731164D01*
X140512213Y-143044724D02*
X140722193Y-143044724D01*
X150683593Y-134968304D02*
X150961793Y-135399044D01*
X164224593Y-121888004D02*
X164597593Y-122003404D01*
X163923993Y-121848004D02*
X164224593Y-121888004D01*
X165470193Y-122721205D02*
X165652593Y-123058404D01*
X163823993Y-121848004D02*
X163923993Y-121848004D01*
X164597593Y-122003404D02*
X164934793Y-122185804D01*
X165228193Y-122427804D02*
X165470193Y-122721205D01*
X164934793Y-122185804D02*
X165228193Y-122427804D01*
X128105169Y-121848004D02*
X163823993Y-121848004D01*
X149857193Y-130537404D02*
X150468793Y-130224804D01*
X148249393Y-132381404D02*
X148304193Y-132260404D01*
X149599193Y-144926024D02*
X149198793Y-144634984D01*
X148696593Y-131586204D02*
X149120593Y-131103804D01*
X147756793Y-142329784D02*
X147600793Y-141459124D01*
X149215393Y-136675104D02*
X148526593Y-135853284D01*
X149120593Y-131103804D02*
X149218393Y-131018004D01*
X148358793Y-132139204D02*
X148696593Y-131586204D01*
X151082193Y-145463444D02*
X150607393Y-145353724D01*
X149972393Y-137468864D02*
X150179593Y-137371364D01*
X151433993Y-129945404D02*
X152110792Y-129869204D01*
X147788193Y-142435344D02*
X147756793Y-142329784D01*
X147819393Y-142540604D02*
X147788193Y-142435344D01*
X150601593Y-130174204D02*
X150734393Y-130123204D01*
X158291393Y-129869204D02*
X158291393Y-145576684D01*
X152049393Y-145576684D02*
X151289393Y-145498444D01*
X148690793Y-144117384D02*
X148382193Y-143697364D01*
X150203193Y-145228924D02*
X150132793Y-145201604D01*
X147600793Y-141459124D02*
X147600793Y-141169224D01*
X147975993Y-134099844D02*
X147975993Y-133831444D01*
X148268793Y-143517384D02*
X147819393Y-142540604D01*
X148526593Y-135853284D02*
X148113393Y-134905164D01*
X149046393Y-144498244D02*
X148690793Y-144117384D01*
X148327593Y-143607484D02*
X148268793Y-143517384D01*
X149124593Y-144568524D02*
X149046393Y-144498244D01*
X152336593Y-129869204D02*
X158291393Y-129869204D01*
X150607393Y-145353724D02*
X150203193Y-145228924D01*
X149083593Y-138050945D02*
X149972393Y-137468864D01*
X150179593Y-137371364D02*
X149922993Y-137223884D01*
X152336593Y-145576684D02*
X152049393Y-145576684D01*
X147975993Y-133627464D02*
X148057793Y-133016404D01*
X158291393Y-145576684D02*
X152336593Y-145576684D01*
X148280793Y-138918564D02*
X148390193Y-138758204D01*
X152110792Y-129869204D02*
X152336593Y-129869204D01*
X150468793Y-130224804D02*
X150601593Y-130174204D01*
X149218393Y-131018004D02*
X149315993Y-130928204D01*
X147975993Y-133831444D02*
X147975993Y-133627464D01*
X148113393Y-134905164D02*
X147975993Y-134099844D01*
X149922993Y-137223884D02*
X149215393Y-136675104D01*
X149198793Y-144634984D02*
X149124593Y-144568524D01*
X148382193Y-143697364D02*
X148327593Y-143607484D01*
X151187793Y-145482984D02*
X151082193Y-145463444D01*
X150734393Y-130123204D02*
X151433993Y-129945404D01*
X150132793Y-145201604D02*
X150038793Y-145162444D01*
X150038793Y-145162444D02*
X149599193Y-144926024D01*
X148390193Y-138758204D02*
X149083593Y-138050945D01*
X149315993Y-130928204D02*
X149857193Y-130537404D01*
X148304193Y-132260404D02*
X148358793Y-132139204D01*
X148057793Y-133016404D02*
X148249393Y-132381404D01*
X151289393Y-145498444D02*
X151187793Y-145482984D01*
X165652593Y-123058404D02*
X165767993Y-123431404D01*
M02*
