%TF.GenerationSoftware,KiCad,Pcbnew,(5.1.10)-1*%
%TF.CreationDate,2021-09-18T02:39:17-07:00*%
%TF.ProjectId,barobord-bottomplate-outside-pcb,6261726f-626f-4726-942d-626f74746f6d,rev?*%
%TF.SameCoordinates,Original*%
%TF.FileFunction,Legend,Top*%
%TF.FilePolarity,Positive*%
%FSLAX46Y46*%
G04 Gerber Fmt 4.6, Leading zero omitted, Abs format (unit mm)*
G04 Created by KiCad (PCBNEW (5.1.10)-1) date 2021-09-18 02:39:17*
%MOMM*%
%LPD*%
G01*
G04 APERTURE LIST*
%ADD10C,0.150000*%
G04 APERTURE END LIST*
%TO.C,REF\u002A\u002A*%
D10*
X177139259Y-37450784D02*
X176805926Y-36974594D01*
X176567831Y-37450784D02*
X176567831Y-36450784D01*
X176948783Y-36450784D01*
X177044021Y-36498404D01*
X177091640Y-36546023D01*
X177139259Y-36641261D01*
X177139259Y-36784118D01*
X177091640Y-36879356D01*
X177044021Y-36926975D01*
X176948783Y-36974594D01*
X176567831Y-36974594D01*
X177567831Y-36926975D02*
X177901164Y-36926975D01*
X178044021Y-37450784D02*
X177567831Y-37450784D01*
X177567831Y-36450784D01*
X178044021Y-36450784D01*
X178805926Y-36926975D02*
X178472593Y-36926975D01*
X178472593Y-37450784D02*
X178472593Y-36450784D01*
X178948783Y-36450784D01*
X179472593Y-36450784D02*
X179472593Y-36688880D01*
X179234497Y-36593642D02*
X179472593Y-36688880D01*
X179710688Y-36593642D01*
X179329735Y-36879356D02*
X179472593Y-36688880D01*
X179615450Y-36879356D01*
X180234497Y-36450784D02*
X180234497Y-36688880D01*
X179996402Y-36593642D02*
X180234497Y-36688880D01*
X180472593Y-36593642D01*
X180091640Y-36879356D02*
X180234497Y-36688880D01*
X180377354Y-36879356D01*
X241189259Y-22810784D02*
X240855926Y-22334594D01*
X240617831Y-22810784D02*
X240617831Y-21810784D01*
X240998783Y-21810784D01*
X241094021Y-21858404D01*
X241141640Y-21906023D01*
X241189259Y-22001261D01*
X241189259Y-22144118D01*
X241141640Y-22239356D01*
X241094021Y-22286975D01*
X240998783Y-22334594D01*
X240617831Y-22334594D01*
X241617831Y-22286975D02*
X241951164Y-22286975D01*
X242094021Y-22810784D02*
X241617831Y-22810784D01*
X241617831Y-21810784D01*
X242094021Y-21810784D01*
X242855926Y-22286975D02*
X242522593Y-22286975D01*
X242522593Y-22810784D02*
X242522593Y-21810784D01*
X242998783Y-21810784D01*
X243522593Y-21810784D02*
X243522593Y-22048880D01*
X243284497Y-21953642D02*
X243522593Y-22048880D01*
X243760688Y-21953642D01*
X243379735Y-22239356D02*
X243522593Y-22048880D01*
X243665450Y-22239356D01*
X244284497Y-21810784D02*
X244284497Y-22048880D01*
X244046402Y-21953642D02*
X244284497Y-22048880D01*
X244522593Y-21953642D01*
X244141640Y-22239356D02*
X244284497Y-22048880D01*
X244427354Y-22239356D01*
X268189259Y-79690784D02*
X267855926Y-79214594D01*
X267617831Y-79690784D02*
X267617831Y-78690784D01*
X267998783Y-78690784D01*
X268094021Y-78738404D01*
X268141640Y-78786023D01*
X268189259Y-78881261D01*
X268189259Y-79024118D01*
X268141640Y-79119356D01*
X268094021Y-79166975D01*
X267998783Y-79214594D01*
X267617831Y-79214594D01*
X268617831Y-79166975D02*
X268951164Y-79166975D01*
X269094021Y-79690784D02*
X268617831Y-79690784D01*
X268617831Y-78690784D01*
X269094021Y-78690784D01*
X269855926Y-79166975D02*
X269522593Y-79166975D01*
X269522593Y-79690784D02*
X269522593Y-78690784D01*
X269998783Y-78690784D01*
X270522593Y-78690784D02*
X270522593Y-78928880D01*
X270284497Y-78833642D02*
X270522593Y-78928880D01*
X270760688Y-78833642D01*
X270379735Y-79119356D02*
X270522593Y-78928880D01*
X270665450Y-79119356D01*
X271284497Y-78690784D02*
X271284497Y-78928880D01*
X271046402Y-78833642D02*
X271284497Y-78928880D01*
X271522593Y-78833642D01*
X271141640Y-79119356D02*
X271284497Y-78928880D01*
X271427354Y-79119356D01*
X225529259Y-123500784D02*
X225195926Y-123024594D01*
X224957831Y-123500784D02*
X224957831Y-122500784D01*
X225338783Y-122500784D01*
X225434021Y-122548404D01*
X225481640Y-122596023D01*
X225529259Y-122691261D01*
X225529259Y-122834118D01*
X225481640Y-122929356D01*
X225434021Y-122976975D01*
X225338783Y-123024594D01*
X224957831Y-123024594D01*
X225957831Y-122976975D02*
X226291164Y-122976975D01*
X226434021Y-123500784D02*
X225957831Y-123500784D01*
X225957831Y-122500784D01*
X226434021Y-122500784D01*
X227195926Y-122976975D02*
X226862593Y-122976975D01*
X226862593Y-123500784D02*
X226862593Y-122500784D01*
X227338783Y-122500784D01*
X227862593Y-122500784D02*
X227862593Y-122738880D01*
X227624497Y-122643642D02*
X227862593Y-122738880D01*
X228100688Y-122643642D01*
X227719735Y-122929356D02*
X227862593Y-122738880D01*
X228005450Y-122929356D01*
X228624497Y-122500784D02*
X228624497Y-122738880D01*
X228386402Y-122643642D02*
X228624497Y-122738880D01*
X228862593Y-122643642D01*
X228481640Y-122929356D02*
X228624497Y-122738880D01*
X228767354Y-122929356D01*
X145249259Y-159380784D02*
X144915926Y-158904594D01*
X144677831Y-159380784D02*
X144677831Y-158380784D01*
X145058783Y-158380784D01*
X145154021Y-158428404D01*
X145201640Y-158476023D01*
X145249259Y-158571261D01*
X145249259Y-158714118D01*
X145201640Y-158809356D01*
X145154021Y-158856975D01*
X145058783Y-158904594D01*
X144677831Y-158904594D01*
X145677831Y-158856975D02*
X146011164Y-158856975D01*
X146154021Y-159380784D02*
X145677831Y-159380784D01*
X145677831Y-158380784D01*
X146154021Y-158380784D01*
X146915926Y-158856975D02*
X146582593Y-158856975D01*
X146582593Y-159380784D02*
X146582593Y-158380784D01*
X147058783Y-158380784D01*
X147582593Y-158380784D02*
X147582593Y-158618880D01*
X147344497Y-158523642D02*
X147582593Y-158618880D01*
X147820688Y-158523642D01*
X147439735Y-158809356D02*
X147582593Y-158618880D01*
X147725450Y-158809356D01*
X148344497Y-158380784D02*
X148344497Y-158618880D01*
X148106402Y-158523642D02*
X148344497Y-158618880D01*
X148582593Y-158523642D01*
X148201640Y-158809356D02*
X148344497Y-158618880D01*
X148487354Y-158809356D01*
X64609259Y-124700784D02*
X64275926Y-124224594D01*
X64037831Y-124700784D02*
X64037831Y-123700784D01*
X64418783Y-123700784D01*
X64514021Y-123748404D01*
X64561640Y-123796023D01*
X64609259Y-123891261D01*
X64609259Y-124034118D01*
X64561640Y-124129356D01*
X64514021Y-124176975D01*
X64418783Y-124224594D01*
X64037831Y-124224594D01*
X65037831Y-124176975D02*
X65371164Y-124176975D01*
X65514021Y-124700784D02*
X65037831Y-124700784D01*
X65037831Y-123700784D01*
X65514021Y-123700784D01*
X66275926Y-124176975D02*
X65942593Y-124176975D01*
X65942593Y-124700784D02*
X65942593Y-123700784D01*
X66418783Y-123700784D01*
X66942593Y-123700784D02*
X66942593Y-123938880D01*
X66704497Y-123843642D02*
X66942593Y-123938880D01*
X67180688Y-123843642D01*
X66799735Y-124129356D02*
X66942593Y-123938880D01*
X67085450Y-124129356D01*
X67704497Y-123700784D02*
X67704497Y-123938880D01*
X67466402Y-123843642D02*
X67704497Y-123938880D01*
X67942593Y-123843642D01*
X67561640Y-124129356D02*
X67704497Y-123938880D01*
X67847354Y-124129356D01*
X21679259Y-80170784D02*
X21345926Y-79694594D01*
X21107831Y-80170784D02*
X21107831Y-79170784D01*
X21488783Y-79170784D01*
X21584021Y-79218404D01*
X21631640Y-79266023D01*
X21679259Y-79361261D01*
X21679259Y-79504118D01*
X21631640Y-79599356D01*
X21584021Y-79646975D01*
X21488783Y-79694594D01*
X21107831Y-79694594D01*
X22107831Y-79646975D02*
X22441164Y-79646975D01*
X22584021Y-80170784D02*
X22107831Y-80170784D01*
X22107831Y-79170784D01*
X22584021Y-79170784D01*
X23345926Y-79646975D02*
X23012593Y-79646975D01*
X23012593Y-80170784D02*
X23012593Y-79170784D01*
X23488783Y-79170784D01*
X24012593Y-79170784D02*
X24012593Y-79408880D01*
X23774497Y-79313642D02*
X24012593Y-79408880D01*
X24250688Y-79313642D01*
X23869735Y-79599356D02*
X24012593Y-79408880D01*
X24155450Y-79599356D01*
X24774497Y-79170784D02*
X24774497Y-79408880D01*
X24536402Y-79313642D02*
X24774497Y-79408880D01*
X25012593Y-79313642D01*
X24631640Y-79599356D02*
X24774497Y-79408880D01*
X24917354Y-79599356D01*
X47639259Y-23090784D02*
X47305926Y-22614594D01*
X47067831Y-23090784D02*
X47067831Y-22090784D01*
X47448783Y-22090784D01*
X47544021Y-22138404D01*
X47591640Y-22186023D01*
X47639259Y-22281261D01*
X47639259Y-22424118D01*
X47591640Y-22519356D01*
X47544021Y-22566975D01*
X47448783Y-22614594D01*
X47067831Y-22614594D01*
X48067831Y-22566975D02*
X48401164Y-22566975D01*
X48544021Y-23090784D02*
X48067831Y-23090784D01*
X48067831Y-22090784D01*
X48544021Y-22090784D01*
X49305926Y-22566975D02*
X48972593Y-22566975D01*
X48972593Y-23090784D02*
X48972593Y-22090784D01*
X49448783Y-22090784D01*
X49972593Y-22090784D02*
X49972593Y-22328880D01*
X49734497Y-22233642D02*
X49972593Y-22328880D01*
X50210688Y-22233642D01*
X49829735Y-22519356D02*
X49972593Y-22328880D01*
X50115450Y-22519356D01*
X50734497Y-22090784D02*
X50734497Y-22328880D01*
X50496402Y-22233642D02*
X50734497Y-22328880D01*
X50972593Y-22233642D01*
X50591640Y-22519356D02*
X50734497Y-22328880D01*
X50877354Y-22519356D01*
X112389259Y-37530784D02*
X112055926Y-37054594D01*
X111817831Y-37530784D02*
X111817831Y-36530784D01*
X112198783Y-36530784D01*
X112294021Y-36578404D01*
X112341640Y-36626023D01*
X112389259Y-36721261D01*
X112389259Y-36864118D01*
X112341640Y-36959356D01*
X112294021Y-37006975D01*
X112198783Y-37054594D01*
X111817831Y-37054594D01*
X112817831Y-37006975D02*
X113151164Y-37006975D01*
X113294021Y-37530784D02*
X112817831Y-37530784D01*
X112817831Y-36530784D01*
X113294021Y-36530784D01*
X114055926Y-37006975D02*
X113722593Y-37006975D01*
X113722593Y-37530784D02*
X113722593Y-36530784D01*
X114198783Y-36530784D01*
X114722593Y-36530784D02*
X114722593Y-36768880D01*
X114484497Y-36673642D02*
X114722593Y-36768880D01*
X114960688Y-36673642D01*
X114579735Y-36959356D02*
X114722593Y-36768880D01*
X114865450Y-36959356D01*
X115484497Y-36530784D02*
X115484497Y-36768880D01*
X115246402Y-36673642D02*
X115484497Y-36768880D01*
X115722593Y-36673642D01*
X115341640Y-36959356D02*
X115484497Y-36768880D01*
X115627354Y-36959356D01*
%TD*%
M02*
