M48
; DRILL file {KiCad (5.1.10)-1} date 12/17/21 13:46:16
; FORMAT={-:-/ absolute / inch / decimal}
; #@! TF.CreationDate,2021-12-17T13:46:16-08:00
; #@! TF.GenerationSoftware,Kicad,Pcbnew,(5.1.10)-1
; #@! TF.FileFunction,NonPlated,1,2,NPTH
FMAT,2
INCH
T1C0.0390
T2C0.0630
T3C0.0670
T4C0.1181
T5C0.1350
T6C0.1378
%
G90
G05
T1
X0.9712Y-3.0299
X1.2873Y-2.3519
X1.541Y-3.5779
X1.6035Y-1.674
X1.8571Y-2.9
X2.1733Y-2.222
X2.3021Y-3.7156
X2.4894Y-1.5441
X2.6183Y-3.0377
X2.6473Y-4.7454
X2.9344Y-2.3598
X3.213Y-3.5322
X3.2505Y-1.6818
X3.3704Y-5.2042
X3.5291Y-2.8543
X3.8453Y-2.1763
X3.8494Y-3.9376
X4.0028Y-5.7816
X4.1655Y-3.2596
X4.4816Y-2.5817
X5.7213Y-2.408
X6.0374Y-3.0859
X6.1183Y-5.491
X6.3535Y-3.7639
X6.3576Y-2.0026
X6.6738Y-2.6806
X6.7967Y-4.9685
X6.9524Y-1.5081
X6.9899Y-3.3585
X7.2685Y-2.186
X7.5556Y-4.5717
X7.5846Y-2.864
X7.7135Y-1.3704
X7.9008Y-3.5419
X8.0296Y-2.0483
X8.3458Y-2.7263
X8.5994Y-1.5003
X8.6619Y-3.4042
X8.9156Y-2.1782
X9.2317Y-2.8562
T2
X4.7031Y-5.1489
X5.6322Y-5.1489
T3
X0.5188Y-3.0014
X0.8349Y-2.3234
X0.9113Y-3.1844
X1.0886Y-3.5494
X1.1511Y-1.6455
X1.2274Y-2.5064
X1.4047Y-2.8715
X1.4811Y-3.7324
X1.5436Y-1.8285
X1.7209Y-2.1935
X1.7972Y-3.0545
X1.8497Y-3.6871
X2.037Y-1.5156
X2.1134Y-2.3765
X2.1659Y-3.0092
X2.1949Y-4.7169
X2.2422Y-3.8702
X2.4295Y-1.6986
X2.482Y-2.3312
X2.5584Y-3.1922
X2.5874Y-4.8999
X2.7606Y-3.5037
X2.7981Y-1.6533
X2.8745Y-2.5143
X2.9298Y-5.0976
X3.0768Y-2.8258
X3.1531Y-3.6868
X3.1906Y-1.8363
X3.2845Y-5.346
X3.3929Y-2.1478
X3.397Y-3.9091
X3.4693Y-3.0088
X3.5874Y-5.6001
X3.7131Y-3.2311
X3.7854Y-2.3309
X3.7895Y-4.0921
X3.8936Y-5.9064
X4.0292Y-2.5532
X4.1056Y-3.4141
X4.4217Y-2.7362
X5.4086Y-2.7362
X5.7248Y-3.4141
X5.8011Y-2.5532
X5.9368Y-5.9064
X6.0409Y-4.0921
X6.045Y-2.3309
X6.1173Y-3.2311
X6.243Y-5.6001
X6.3611Y-3.0088
X6.4334Y-3.9091
X6.4375Y-2.1478
X6.5458Y-5.346
X6.6398Y-1.8363
X6.6773Y-3.6868
X6.7536Y-2.8258
X6.9006Y-5.0976
X6.9559Y-2.5143
X7.0322Y-1.6533
X7.0698Y-3.5037
X7.243Y-4.8999
X7.272Y-3.1922
X7.3484Y-2.3312
X7.4009Y-1.6986
X7.5881Y-3.8702
X7.6355Y-4.7169
X7.6645Y-3.0092
X7.717Y-2.3765
X7.7934Y-1.5156
X7.9806Y-3.6871
X8.0332Y-3.0545
X8.1095Y-2.1935
X8.2868Y-1.8285
X8.3493Y-3.7324
X8.4256Y-2.8715
X8.603Y-2.5064
X8.6793Y-1.6455
X8.7418Y-3.5494
X8.9191Y-3.1844
X8.9954Y-2.3234
X9.3116Y-3.0014
T4
X0.4743Y-3.1435
X0.6161Y-3.3052
X0.7904Y-2.4655
X0.9322Y-2.6272
X1.0441Y-3.6915
X1.1065Y-1.7876
X1.1859Y-3.8532
X1.2483Y-1.9493
X1.3602Y-3.0136
X1.502Y-3.1753
X1.6763Y-2.3356
X1.8052Y-3.8293
X1.8181Y-2.4973
X1.947Y-3.991
X1.9924Y-1.6577
X2.1213Y-3.1513
X2.1342Y-1.8194
X2.1504Y-4.859
X2.2631Y-3.313
X2.2922Y-5.0207
X2.4375Y-2.4734
X2.5793Y-2.6351
X2.7161Y-3.6459
X2.7536Y-1.7954
X2.8579Y-3.8075
X2.8612Y-5.2298
X2.8954Y-1.9571
X2.9728Y-5.4137
X3.0322Y-2.9679
X3.174Y-3.1296
X3.3483Y-2.29
X3.3524Y-4.0512
X3.4901Y-2.4517
X3.4942Y-4.2129
X3.4969Y-5.7184
X3.5749Y-5.9189
X3.6686Y-3.3732
X3.8104Y-3.5349
X3.9847Y-2.6953
X4.1265Y-2.857
X5.4889Y-2.8617
X5.7039Y-2.857
X5.805Y-3.5396
X6.02Y-3.5349
X6.0551Y-5.9968
X6.1211Y-4.2176
X6.1252Y-2.4563
X6.2555Y-5.9189
X6.3362Y-4.2129
X6.3402Y-2.4517
X6.4414Y-3.1343
X6.6466Y-5.4556
X6.6564Y-3.1296
X6.72Y-1.9618
X6.7575Y-3.8122
X6.8576Y-5.4137
X6.935Y-1.9571
X6.9725Y-3.8075
X7.0361Y-2.6398
X7.2511Y-2.6351
X7.3232Y-5.0254
X7.3522Y-3.3177
X7.4811Y-1.8241
X7.5382Y-5.0207
X7.5673Y-3.313
X7.6684Y-3.9957
X7.6961Y-1.8194
X7.7973Y-2.502
X7.8834Y-3.991
X8.0123Y-2.4973
X8.1134Y-3.18
X8.3284Y-3.1753
X8.3671Y-1.954
X8.4295Y-3.8579
X8.5821Y-1.9493
X8.6445Y-3.8532
X8.6832Y-2.6319
X8.8982Y-2.6272
X8.9993Y-3.3099
X9.2143Y-3.3052
T5
X0.7151Y-3.0929
X1.0312Y-2.4149
X1.2849Y-3.6409
X1.3473Y-1.737
X1.601Y-2.963
X1.9171Y-2.285
X2.046Y-3.7787
X2.2332Y-1.6071
X2.3621Y-3.1007
X2.3912Y-4.8084
X2.6783Y-2.4228
X2.9569Y-3.5952
X2.9944Y-1.7448
X3.1072Y-5.2218
X3.273Y-2.9173
X3.5891Y-2.2394
X3.5932Y-4.0006
X3.7405Y-5.7532
X3.9094Y-3.3226
X4.2255Y-2.6447
X5.6049Y-2.6447
X5.921Y-3.3226
X6.0899Y-5.7532
X6.2372Y-4.0006
X6.2412Y-2.2394
X6.5574Y-2.9173
X6.7232Y-5.2218
X6.836Y-1.7448
X6.8735Y-3.5952
X7.1521Y-2.4228
X7.4392Y-4.8084
X7.4683Y-3.1007
X7.5971Y-1.6071
X7.7844Y-3.7787
X7.9133Y-2.285
X8.2294Y-2.963
X8.4831Y-1.737
X8.5455Y-3.6409
X8.7992Y-2.4149
X9.1153Y-3.0929
T6
X1.0887Y-3.1862
X1.7501Y-1.8004
X2.8522Y-4.8084
X3.6475Y-3.0053
X4.0177Y-6.2493
X5.7659Y-6.2336
X6.1986Y-3.0289
X7.0018Y-4.8714
X8.0177Y-1.5563
X8.6476Y-2.9185
T0
M30
