%TF.GenerationSoftware,KiCad,Pcbnew,(5.1.10)-1*%
%TF.CreationDate,2021-12-17T13:46:14-08:00*%
%TF.ProjectId,barobord,6261726f-626f-4726-942e-6b696361645f,rev?*%
%TF.SameCoordinates,Original*%
%TF.FileFunction,Paste,Bot*%
%TF.FilePolarity,Positive*%
%FSLAX46Y46*%
G04 Gerber Fmt 4.6, Leading zero omitted, Abs format (unit mm)*
G04 Created by KiCad (PCBNEW (5.1.10)-1) date 2021-12-17 13:46:14*
%MOMM*%
%LPD*%
G01*
G04 APERTURE LIST*
%ADD10C,0.100000*%
%ADD11R,1.200000X0.900000*%
%ADD12R,1.800000X1.100000*%
G04 APERTURE END LIST*
D10*
%TO.C,SW40*%
G36*
X221910490Y-98215652D02*
G01*
X220811682Y-95859252D01*
X223168082Y-94760444D01*
X224266890Y-97116844D01*
X221910490Y-98215652D01*
G37*
G36*
X210512875Y-101103015D02*
G01*
X209414067Y-98746615D01*
X211770467Y-97647807D01*
X212869275Y-100004207D01*
X210512875Y-101103015D01*
G37*
%TD*%
%TO.C,SW39*%
G36*
X202577554Y-101713856D02*
G01*
X201478746Y-99357456D01*
X203835146Y-98258648D01*
X204933954Y-100615048D01*
X202577554Y-101713856D01*
G37*
G36*
X191179939Y-104601219D02*
G01*
X190081131Y-102244819D01*
X192437531Y-101146011D01*
X193536339Y-103502411D01*
X191179939Y-104601219D01*
G37*
%TD*%
%TO.C,SW38*%
G36*
X193810065Y-127869760D02*
G01*
X192711257Y-125513360D01*
X195067657Y-124414552D01*
X196166465Y-126770952D01*
X193810065Y-127869760D01*
G37*
G36*
X182412450Y-130757123D02*
G01*
X181313642Y-128400723D01*
X183670042Y-127301915D01*
X184768850Y-129658315D01*
X182412450Y-130757123D01*
G37*
%TD*%
%TO.C,SW37*%
G36*
X176545849Y-137439738D02*
G01*
X175054550Y-135309943D01*
X177184345Y-133818644D01*
X178675644Y-135948439D01*
X176545849Y-137439738D01*
G37*
G36*
X165822774Y-142262411D02*
G01*
X164331475Y-140132616D01*
X166461270Y-138641317D01*
X167952569Y-140771112D01*
X165822774Y-142262411D01*
G37*
%TD*%
%TO.C,SW36*%
G36*
X161205724Y-149862231D02*
G01*
X159367246Y-148023753D01*
X161205724Y-146185275D01*
X163044202Y-148023753D01*
X161205724Y-149862231D01*
G37*
G36*
X151483006Y-156473679D02*
G01*
X149644528Y-154635201D01*
X151483006Y-152796723D01*
X153321484Y-154635201D01*
X151483006Y-156473679D01*
G37*
%TD*%
%TO.C,SW35*%
G36*
X91279175Y-152655299D02*
G01*
X93117653Y-150816821D01*
X94956131Y-152655299D01*
X93117653Y-154493777D01*
X91279175Y-152655299D01*
G37*
G36*
X84667727Y-142932581D02*
G01*
X86506205Y-141094103D01*
X88344683Y-142932581D01*
X86506205Y-144771059D01*
X84667727Y-142932581D01*
G37*
%TD*%
%TO.C,SW34*%
G36*
X76381624Y-139705365D02*
G01*
X77872923Y-137575570D01*
X80002718Y-139066869D01*
X78511419Y-141196664D01*
X76381624Y-139705365D01*
G37*
G36*
X68182286Y-131278423D02*
G01*
X69673585Y-129148628D01*
X71803380Y-130639927D01*
X70312081Y-132769722D01*
X68182286Y-131278423D01*
G37*
%TD*%
%TO.C,SW33*%
G36*
X59461669Y-129539104D02*
G01*
X60560477Y-127182704D01*
X62916877Y-128281512D01*
X61818069Y-130637912D01*
X59461669Y-129539104D01*
G37*
G36*
X49923575Y-122663986D02*
G01*
X51022383Y-120307586D01*
X53378783Y-121406394D01*
X52279975Y-123762794D01*
X49923575Y-122663986D01*
G37*
%TD*%
%TO.C,SW32*%
G36*
X50694189Y-103383201D02*
G01*
X51792997Y-101026801D01*
X54149397Y-102125609D01*
X53050589Y-104482009D01*
X50694189Y-103383201D01*
G37*
G36*
X41156095Y-96508083D02*
G01*
X42254903Y-94151683D01*
X44611303Y-95250491D01*
X43512495Y-97606891D01*
X41156095Y-96508083D01*
G37*
%TD*%
%TO.C,SW31*%
G36*
X31361251Y-99884993D02*
G01*
X32460059Y-97528593D01*
X34816459Y-98627401D01*
X33717651Y-100983801D01*
X31361251Y-99884993D01*
G37*
G36*
X21823157Y-93009875D02*
G01*
X22921965Y-90653475D01*
X25278365Y-91752283D01*
X24179557Y-94108683D01*
X21823157Y-93009875D01*
G37*
%TD*%
%TO.C,SW30*%
G36*
X236383316Y-84294904D02*
G01*
X235284508Y-81938504D01*
X237640908Y-80839696D01*
X238739716Y-83196096D01*
X236383316Y-84294904D01*
G37*
G36*
X224985701Y-87182267D02*
G01*
X223886893Y-84825867D01*
X226243293Y-83727059D01*
X227342101Y-86083459D01*
X224985701Y-87182267D01*
G37*
%TD*%
%TO.C,SW29*%
G36*
X213880743Y-80995805D02*
G01*
X212781935Y-78639405D01*
X215138335Y-77540597D01*
X216237143Y-79896997D01*
X213880743Y-80995805D01*
G37*
G36*
X202483128Y-83883168D02*
G01*
X201384320Y-81526768D01*
X203740720Y-80427960D01*
X204839528Y-82784360D01*
X202483128Y-83883168D01*
G37*
%TD*%
%TO.C,SW28*%
G36*
X194547805Y-84494015D02*
G01*
X193448997Y-82137615D01*
X195805397Y-81038807D01*
X196904205Y-83395207D01*
X194547805Y-84494015D01*
G37*
G36*
X183150190Y-87381378D02*
G01*
X182051382Y-85024978D01*
X184407782Y-83926170D01*
X185506590Y-86282570D01*
X183150190Y-87381378D01*
G37*
%TD*%
%TO.C,SW27*%
G36*
X179441048Y-97055297D02*
G01*
X178342240Y-94698897D01*
X180698640Y-93600089D01*
X181797448Y-95956489D01*
X179441048Y-97055297D01*
G37*
G36*
X168043433Y-99942660D02*
G01*
X166944625Y-97586260D01*
X169301025Y-96487452D01*
X170399833Y-98843852D01*
X168043433Y-99942660D01*
G37*
%TD*%
%TO.C,SW26*%
G36*
X163277745Y-107350816D02*
G01*
X162178937Y-104994416D01*
X164535337Y-103895608D01*
X165634145Y-106252008D01*
X163277745Y-107350816D01*
G37*
G36*
X151880130Y-110238179D02*
G01*
X150781322Y-107881779D01*
X153137722Y-106782971D01*
X154236530Y-109139371D01*
X151880130Y-110238179D01*
G37*
%TD*%
%TO.C,SW25*%
G36*
X89993995Y-109020156D02*
G01*
X91092803Y-106663756D01*
X93449203Y-107762564D01*
X92350395Y-110118964D01*
X89993995Y-109020156D01*
G37*
G36*
X80455901Y-102145038D02*
G01*
X81554709Y-99788638D01*
X83911109Y-100887446D01*
X82812301Y-103243846D01*
X80455901Y-102145038D01*
G37*
%TD*%
%TO.C,SW24*%
G36*
X73830691Y-98724639D02*
G01*
X74929499Y-96368239D01*
X77285899Y-97467047D01*
X76187091Y-99823447D01*
X73830691Y-98724639D01*
G37*
G36*
X64292597Y-91849521D02*
G01*
X65391405Y-89493121D01*
X67747805Y-90591929D01*
X66648997Y-92948329D01*
X64292597Y-91849521D01*
G37*
%TD*%
%TO.C,SW23*%
G36*
X58723936Y-86163352D02*
G01*
X59822744Y-83806952D01*
X62179144Y-84905760D01*
X61080336Y-87262160D01*
X58723936Y-86163352D01*
G37*
G36*
X49185842Y-79288234D02*
G01*
X50284650Y-76931834D01*
X52641050Y-78030642D01*
X51542242Y-80387042D01*
X49185842Y-79288234D01*
G37*
%TD*%
%TO.C,SW22*%
G36*
X39390999Y-82665147D02*
G01*
X40489807Y-80308747D01*
X42846207Y-81407555D01*
X41747399Y-83763955D01*
X39390999Y-82665147D01*
G37*
G36*
X29852905Y-75790029D02*
G01*
X30951713Y-73433629D01*
X33308113Y-74532437D01*
X32209305Y-76888837D01*
X29852905Y-75790029D01*
G37*
%TD*%
%TO.C,SW21*%
G36*
X16888420Y-85964246D02*
G01*
X17987228Y-83607846D01*
X20343628Y-84706654D01*
X19244820Y-87063054D01*
X16888420Y-85964246D01*
G37*
G36*
X7350326Y-79089128D02*
G01*
X8449134Y-76732728D01*
X10805534Y-77831536D01*
X9706726Y-80187936D01*
X7350326Y-79089128D01*
G37*
%TD*%
%TO.C,SW20*%
G36*
X228353569Y-67075057D02*
G01*
X227254761Y-64718657D01*
X229611161Y-63619849D01*
X230709969Y-65976249D01*
X228353569Y-67075057D01*
G37*
G36*
X216955954Y-69962420D02*
G01*
X215857146Y-67606020D01*
X218213546Y-66507212D01*
X219312354Y-68863612D01*
X216955954Y-69962420D01*
G37*
%TD*%
%TO.C,SW19*%
G36*
X205850997Y-63775956D02*
G01*
X204752189Y-61419556D01*
X207108589Y-60320748D01*
X208207397Y-62677148D01*
X205850997Y-63775956D01*
G37*
G36*
X194453382Y-66663319D02*
G01*
X193354574Y-64306919D01*
X195710974Y-63208111D01*
X196809782Y-65564511D01*
X194453382Y-66663319D01*
G37*
%TD*%
%TO.C,SW18*%
G36*
X186518055Y-67274166D02*
G01*
X185419247Y-64917766D01*
X187775647Y-63818958D01*
X188874455Y-66175358D01*
X186518055Y-67274166D01*
G37*
G36*
X175120440Y-70161529D02*
G01*
X174021632Y-67805129D01*
X176378032Y-66706321D01*
X177476840Y-69062721D01*
X175120440Y-70161529D01*
G37*
%TD*%
%TO.C,SW17*%
G36*
X171411303Y-79835452D02*
G01*
X170312495Y-77479052D01*
X172668895Y-76380244D01*
X173767703Y-78736644D01*
X171411303Y-79835452D01*
G37*
G36*
X160013688Y-82722815D02*
G01*
X158914880Y-80366415D01*
X161271280Y-79267607D01*
X162370088Y-81624007D01*
X160013688Y-82722815D01*
G37*
%TD*%
%TO.C,SW16*%
G36*
X155247996Y-90130969D02*
G01*
X154149188Y-87774569D01*
X156505588Y-86675761D01*
X157604396Y-89032161D01*
X155247996Y-90130969D01*
G37*
G36*
X143850381Y-93018332D02*
G01*
X142751573Y-90661932D01*
X145107973Y-89563124D01*
X146206781Y-91919524D01*
X143850381Y-93018332D01*
G37*
%TD*%
%TO.C,SW15*%
G36*
X98023742Y-91800312D02*
G01*
X99122550Y-89443912D01*
X101478950Y-90542720D01*
X100380142Y-92899120D01*
X98023742Y-91800312D01*
G37*
G36*
X88485648Y-84925194D02*
G01*
X89584456Y-82568794D01*
X91940856Y-83667602D01*
X90842048Y-86024002D01*
X88485648Y-84925194D01*
G37*
%TD*%
%TO.C,SW14*%
G36*
X81860438Y-81504793D02*
G01*
X82959246Y-79148393D01*
X85315646Y-80247201D01*
X84216838Y-82603601D01*
X81860438Y-81504793D01*
G37*
G36*
X72322344Y-74629675D02*
G01*
X73421152Y-72273275D01*
X75777552Y-73372083D01*
X74678744Y-75728483D01*
X72322344Y-74629675D01*
G37*
%TD*%
%TO.C,SW13*%
G36*
X66753683Y-68943508D02*
G01*
X67852491Y-66587108D01*
X70208891Y-67685916D01*
X69110083Y-70042316D01*
X66753683Y-68943508D01*
G37*
G36*
X57215589Y-62068390D02*
G01*
X58314397Y-59711990D01*
X60670797Y-60810798D01*
X59571989Y-63167198D01*
X57215589Y-62068390D01*
G37*
%TD*%
%TO.C,SW12*%
G36*
X47420745Y-65445298D02*
G01*
X48519553Y-63088898D01*
X50875953Y-64187706D01*
X49777145Y-66544106D01*
X47420745Y-65445298D01*
G37*
G36*
X37882651Y-58570180D02*
G01*
X38981459Y-56213780D01*
X41337859Y-57312588D01*
X40239051Y-59668988D01*
X37882651Y-58570180D01*
G37*
%TD*%
%TO.C,SW11*%
G36*
X24918171Y-68744398D02*
G01*
X26016979Y-66387998D01*
X28373379Y-67486806D01*
X27274571Y-69843206D01*
X24918171Y-68744398D01*
G37*
G36*
X15380077Y-61869280D02*
G01*
X16478885Y-59512880D01*
X18835285Y-60611688D01*
X17736477Y-62968088D01*
X15380077Y-61869280D01*
G37*
%TD*%
%TO.C,SW10*%
G36*
X220323823Y-49855210D02*
G01*
X219225015Y-47498810D01*
X221581415Y-46400002D01*
X222680223Y-48756402D01*
X220323823Y-49855210D01*
G37*
G36*
X208926208Y-52742573D02*
G01*
X207827400Y-50386173D01*
X210183800Y-49287365D01*
X211282608Y-51643765D01*
X208926208Y-52742573D01*
G37*
%TD*%
%TO.C,SW9*%
G36*
X197821248Y-46556111D02*
G01*
X196722440Y-44199711D01*
X199078840Y-43100903D01*
X200177648Y-45457303D01*
X197821248Y-46556111D01*
G37*
G36*
X186423633Y-49443474D02*
G01*
X185324825Y-47087074D01*
X187681225Y-45988266D01*
X188780033Y-48344666D01*
X186423633Y-49443474D01*
G37*
%TD*%
%TO.C,SW8*%
G36*
X178488311Y-50054321D02*
G01*
X177389503Y-47697921D01*
X179745903Y-46599113D01*
X180844711Y-48955513D01*
X178488311Y-50054321D01*
G37*
G36*
X167090696Y-52941684D02*
G01*
X165991888Y-50585284D01*
X168348288Y-49486476D01*
X169447096Y-51842876D01*
X167090696Y-52941684D01*
G37*
%TD*%
%TO.C,SW7*%
G36*
X163381556Y-62615604D02*
G01*
X162282748Y-60259204D01*
X164639148Y-59160396D01*
X165737956Y-61516796D01*
X163381556Y-62615604D01*
G37*
G36*
X151983941Y-65502967D02*
G01*
X150885133Y-63146567D01*
X153241533Y-62047759D01*
X154340341Y-64404159D01*
X151983941Y-65502967D01*
G37*
%TD*%
%TO.C,SW6*%
G36*
X147218250Y-72911117D02*
G01*
X146119442Y-70554717D01*
X148475842Y-69455909D01*
X149574650Y-71812309D01*
X147218250Y-72911117D01*
G37*
G36*
X135820635Y-75798480D02*
G01*
X134721827Y-73442080D01*
X137078227Y-72343272D01*
X138177035Y-74699672D01*
X135820635Y-75798480D01*
G37*
%TD*%
%TO.C,SW5*%
G36*
X106053486Y-74580462D02*
G01*
X107152294Y-72224062D01*
X109508694Y-73322870D01*
X108409886Y-75679270D01*
X106053486Y-74580462D01*
G37*
G36*
X96515392Y-67705344D02*
G01*
X97614200Y-65348944D01*
X99970600Y-66447752D01*
X98871792Y-68804152D01*
X96515392Y-67705344D01*
G37*
%TD*%
%TO.C,SW4*%
G36*
X89890185Y-64284944D02*
G01*
X90988993Y-61928544D01*
X93345393Y-63027352D01*
X92246585Y-65383752D01*
X89890185Y-64284944D01*
G37*
G36*
X80352091Y-57409826D02*
G01*
X81450899Y-55053426D01*
X83807299Y-56152234D01*
X82708491Y-58508634D01*
X80352091Y-57409826D01*
G37*
%TD*%
%TO.C,SW3*%
G36*
X74783429Y-51723660D02*
G01*
X75882237Y-49367260D01*
X78238637Y-50466068D01*
X77139829Y-52822468D01*
X74783429Y-51723660D01*
G37*
G36*
X65245335Y-44848542D02*
G01*
X66344143Y-42492142D01*
X68700543Y-43590950D01*
X67601735Y-45947350D01*
X65245335Y-44848542D01*
G37*
%TD*%
%TO.C,SW2*%
G36*
X55450492Y-48225453D02*
G01*
X56549300Y-45869053D01*
X58905700Y-46967861D01*
X57806892Y-49324261D01*
X55450492Y-48225453D01*
G37*
G36*
X45912398Y-41350335D02*
G01*
X47011206Y-38993935D01*
X49367606Y-40092743D01*
X48268798Y-42449143D01*
X45912398Y-41350335D01*
G37*
%TD*%
%TO.C,SW1*%
G36*
X32947915Y-51524552D02*
G01*
X34046723Y-49168152D01*
X36403123Y-50266960D01*
X35304315Y-52623360D01*
X32947915Y-51524552D01*
G37*
G36*
X23409821Y-44649434D02*
G01*
X24508629Y-42293034D01*
X26865029Y-43391842D01*
X25766221Y-45748242D01*
X23409821Y-44649434D01*
G37*
%TD*%
%TO.C,D56*%
G36*
G01*
X99882686Y-78687355D02*
X98581228Y-78080475D01*
G75*
G02*
X98541566Y-77971503I34655J74317D01*
G01*
X98818804Y-77376965D01*
G75*
G02*
X98927776Y-77337303I74317J-34655D01*
G01*
X100229234Y-77944183D01*
G75*
G02*
X100268896Y-78053155I-34655J-74317D01*
G01*
X99991658Y-78647693D01*
G75*
G02*
X99882686Y-78687355I-74317J34655D01*
G01*
G37*
G36*
G01*
X99248758Y-80046817D02*
X97947300Y-79439937D01*
G75*
G02*
X97907638Y-79330965I34655J74317D01*
G01*
X98184876Y-78736427D01*
G75*
G02*
X98293848Y-78696765I74317J-34655D01*
G01*
X99595306Y-79303645D01*
G75*
G02*
X99634968Y-79412617I-34655J-74317D01*
G01*
X99357730Y-80007155D01*
G75*
G02*
X99248758Y-80046817I-74317J34655D01*
G01*
G37*
G36*
G01*
X104595486Y-80884970D02*
X103294028Y-80278090D01*
G75*
G02*
X103254366Y-80169118I34655J74317D01*
G01*
X103531604Y-79574580D01*
G75*
G02*
X103640576Y-79534918I74317J-34655D01*
G01*
X104942034Y-80141798D01*
G75*
G02*
X104981696Y-80250770I-34655J-74317D01*
G01*
X104704458Y-80845308D01*
G75*
G02*
X104595486Y-80884970I-74317J34655D01*
G01*
G37*
G36*
G01*
X103961559Y-82244432D02*
X102660101Y-81637552D01*
G75*
G02*
X102620439Y-81528580I34655J74317D01*
G01*
X102897677Y-80934042D01*
G75*
G02*
X103006649Y-80894380I74317J-34655D01*
G01*
X104308107Y-81501260D01*
G75*
G02*
X104347769Y-81610232I-34655J-74317D01*
G01*
X104070531Y-82204770D01*
G75*
G02*
X103961559Y-82244432I-74317J34655D01*
G01*
G37*
%TD*%
%TO.C,D59*%
G36*
G01*
X80489368Y-127114426D02*
X79313066Y-126290770D01*
G75*
G02*
X79292929Y-126176567I47033J67170D01*
G01*
X79669195Y-125639203D01*
G75*
G02*
X79783398Y-125619066I67170J-47033D01*
G01*
X80959700Y-126442722D01*
G75*
G02*
X80979837Y-126556925I-47033J-67170D01*
G01*
X80603571Y-127094289D01*
G75*
G02*
X80489368Y-127114426I-67170J47033D01*
G01*
G37*
G36*
G01*
X79629003Y-128343154D02*
X78452701Y-127519498D01*
G75*
G02*
X78432564Y-127405295I47033J67170D01*
G01*
X78808830Y-126867931D01*
G75*
G02*
X78923033Y-126847794I67170J-47033D01*
G01*
X80099335Y-127671450D01*
G75*
G02*
X80119472Y-127785653I-47033J-67170D01*
G01*
X79743206Y-128323017D01*
G75*
G02*
X79629003Y-128343154I-67170J47033D01*
G01*
G37*
G36*
G01*
X84748958Y-130097023D02*
X83572656Y-129273367D01*
G75*
G02*
X83552519Y-129159164I47033J67170D01*
G01*
X83928785Y-128621800D01*
G75*
G02*
X84042988Y-128601663I67170J-47033D01*
G01*
X85219290Y-129425319D01*
G75*
G02*
X85239427Y-129539522I-47033J-67170D01*
G01*
X84863161Y-130076886D01*
G75*
G02*
X84748958Y-130097023I-67170J47033D01*
G01*
G37*
G36*
G01*
X83888594Y-131325751D02*
X82712292Y-130502095D01*
G75*
G02*
X82692155Y-130387892I47033J67170D01*
G01*
X83068421Y-129850528D01*
G75*
G02*
X83182624Y-129830391I67170J-47033D01*
G01*
X84358926Y-130654047D01*
G75*
G02*
X84379063Y-130768250I-47033J-67170D01*
G01*
X84002797Y-131305614D01*
G75*
G02*
X83888594Y-131325751I-67170J47033D01*
G01*
G37*
%TD*%
D11*
%TO.C,D82*%
X146648502Y-128081846D03*
X146648502Y-131381846D03*
%TD*%
%TO.C,D81*%
X102448507Y-128081843D03*
X102448507Y-131381843D03*
%TD*%
%TO.C,D57*%
G36*
G01*
X91852939Y-95907199D02*
X90551481Y-95300319D01*
G75*
G02*
X90511819Y-95191347I34655J74317D01*
G01*
X90789057Y-94596809D01*
G75*
G02*
X90898029Y-94557147I74317J-34655D01*
G01*
X92199487Y-95164027D01*
G75*
G02*
X92239149Y-95272999I-34655J-74317D01*
G01*
X91961911Y-95867537D01*
G75*
G02*
X91852939Y-95907199I-74317J34655D01*
G01*
G37*
G36*
G01*
X91219011Y-97266661D02*
X89917553Y-96659781D01*
G75*
G02*
X89877891Y-96550809I34655J74317D01*
G01*
X90155129Y-95956271D01*
G75*
G02*
X90264101Y-95916609I74317J-34655D01*
G01*
X91565559Y-96523489D01*
G75*
G02*
X91605221Y-96632461I-34655J-74317D01*
G01*
X91327983Y-97226999D01*
G75*
G02*
X91219011Y-97266661I-74317J34655D01*
G01*
G37*
G36*
G01*
X96565739Y-98104814D02*
X95264281Y-97497934D01*
G75*
G02*
X95224619Y-97388962I34655J74317D01*
G01*
X95501857Y-96794424D01*
G75*
G02*
X95610829Y-96754762I74317J-34655D01*
G01*
X96912287Y-97361642D01*
G75*
G02*
X96951949Y-97470614I-34655J-74317D01*
G01*
X96674711Y-98065152D01*
G75*
G02*
X96565739Y-98104814I-74317J34655D01*
G01*
G37*
G36*
G01*
X95931812Y-99464276D02*
X94630354Y-98857396D01*
G75*
G02*
X94590692Y-98748424I34655J74317D01*
G01*
X94867930Y-98153886D01*
G75*
G02*
X94976902Y-98114224I74317J-34655D01*
G01*
X96278360Y-98721104D01*
G75*
G02*
X96318022Y-98830076I-34655J-74317D01*
G01*
X96040784Y-99424614D01*
G75*
G02*
X95931812Y-99464276I-74317J34655D01*
G01*
G37*
%TD*%
%TO.C,D45*%
G36*
G01*
X41249943Y-69552190D02*
X39948485Y-68945310D01*
G75*
G02*
X39908823Y-68836338I34655J74317D01*
G01*
X40186061Y-68241800D01*
G75*
G02*
X40295033Y-68202138I74317J-34655D01*
G01*
X41596491Y-68809018D01*
G75*
G02*
X41636153Y-68917990I-34655J-74317D01*
G01*
X41358915Y-69512528D01*
G75*
G02*
X41249943Y-69552190I-74317J34655D01*
G01*
G37*
G36*
G01*
X40616015Y-70911652D02*
X39314557Y-70304772D01*
G75*
G02*
X39274895Y-70195800I34655J74317D01*
G01*
X39552133Y-69601262D01*
G75*
G02*
X39661105Y-69561600I74317J-34655D01*
G01*
X40962563Y-70168480D01*
G75*
G02*
X41002225Y-70277452I-34655J-74317D01*
G01*
X40724987Y-70871990D01*
G75*
G02*
X40616015Y-70911652I-74317J34655D01*
G01*
G37*
G36*
G01*
X45962743Y-71749805D02*
X44661285Y-71142925D01*
G75*
G02*
X44621623Y-71033953I34655J74317D01*
G01*
X44898861Y-70439415D01*
G75*
G02*
X45007833Y-70399753I74317J-34655D01*
G01*
X46309291Y-71006633D01*
G75*
G02*
X46348953Y-71115605I-34655J-74317D01*
G01*
X46071715Y-71710143D01*
G75*
G02*
X45962743Y-71749805I-74317J34655D01*
G01*
G37*
G36*
G01*
X45328816Y-73109267D02*
X44027358Y-72502387D01*
G75*
G02*
X43987696Y-72393415I34655J74317D01*
G01*
X44264934Y-71798877D01*
G75*
G02*
X44373906Y-71759215I74317J-34655D01*
G01*
X45675364Y-72366095D01*
G75*
G02*
X45715026Y-72475067I-34655J-74317D01*
G01*
X45437788Y-73069605D01*
G75*
G02*
X45328816Y-73109267I-74317J34655D01*
G01*
G37*
%TD*%
%TO.C,D65*%
G36*
G01*
X146397794Y-80278088D02*
X145096336Y-80884968D01*
G75*
G02*
X144987364Y-80845306I-34655J74317D01*
G01*
X144710126Y-80250768D01*
G75*
G02*
X144749788Y-80141796I74317J34655D01*
G01*
X146051246Y-79534916D01*
G75*
G02*
X146160218Y-79574578I34655J-74317D01*
G01*
X146437456Y-80169116D01*
G75*
G02*
X146397794Y-80278088I-74317J-34655D01*
G01*
G37*
G36*
G01*
X147031721Y-81637550D02*
X145730263Y-82244430D01*
G75*
G02*
X145621291Y-82204768I-34655J74317D01*
G01*
X145344053Y-81610230D01*
G75*
G02*
X145383715Y-81501258I74317J34655D01*
G01*
X146685173Y-80894378D01*
G75*
G02*
X146794145Y-80934040I34655J-74317D01*
G01*
X147071383Y-81528578D01*
G75*
G02*
X147031721Y-81637550I-74317J-34655D01*
G01*
G37*
G36*
G01*
X151110594Y-78080473D02*
X149809136Y-78687353D01*
G75*
G02*
X149700164Y-78647691I-34655J74317D01*
G01*
X149422926Y-78053153D01*
G75*
G02*
X149462588Y-77944181I74317J34655D01*
G01*
X150764046Y-77337301D01*
G75*
G02*
X150873018Y-77376963I34655J-74317D01*
G01*
X151150256Y-77971501D01*
G75*
G02*
X151110594Y-78080473I-74317J-34655D01*
G01*
G37*
G36*
G01*
X151744522Y-79439935D02*
X150443064Y-80046815D01*
G75*
G02*
X150334092Y-80007153I-34655J74317D01*
G01*
X150056854Y-79412615D01*
G75*
G02*
X150096516Y-79303643I74317J34655D01*
G01*
X151397974Y-78696763D01*
G75*
G02*
X151506946Y-78736425I34655J-74317D01*
G01*
X151784184Y-79330963D01*
G75*
G02*
X151744522Y-79439935I-74317J-34655D01*
G01*
G37*
%TD*%
%TO.C,D53*%
G36*
G01*
X83719382Y-68391836D02*
X82417924Y-67784956D01*
G75*
G02*
X82378262Y-67675984I34655J74317D01*
G01*
X82655500Y-67081446D01*
G75*
G02*
X82764472Y-67041784I74317J-34655D01*
G01*
X84065930Y-67648664D01*
G75*
G02*
X84105592Y-67757636I-34655J-74317D01*
G01*
X83828354Y-68352174D01*
G75*
G02*
X83719382Y-68391836I-74317J34655D01*
G01*
G37*
G36*
G01*
X83085454Y-69751298D02*
X81783996Y-69144418D01*
G75*
G02*
X81744334Y-69035446I34655J74317D01*
G01*
X82021572Y-68440908D01*
G75*
G02*
X82130544Y-68401246I74317J-34655D01*
G01*
X83432002Y-69008126D01*
G75*
G02*
X83471664Y-69117098I-34655J-74317D01*
G01*
X83194426Y-69711636D01*
G75*
G02*
X83085454Y-69751298I-74317J34655D01*
G01*
G37*
G36*
G01*
X88432182Y-70589451D02*
X87130724Y-69982571D01*
G75*
G02*
X87091062Y-69873599I34655J74317D01*
G01*
X87368300Y-69279061D01*
G75*
G02*
X87477272Y-69239399I74317J-34655D01*
G01*
X88778730Y-69846279D01*
G75*
G02*
X88818392Y-69955251I-34655J-74317D01*
G01*
X88541154Y-70549789D01*
G75*
G02*
X88432182Y-70589451I-74317J34655D01*
G01*
G37*
G36*
G01*
X87798255Y-71948913D02*
X86496797Y-71342033D01*
G75*
G02*
X86457135Y-71233061I34655J74317D01*
G01*
X86734373Y-70638523D01*
G75*
G02*
X86843345Y-70598861I74317J-34655D01*
G01*
X88144803Y-71205741D01*
G75*
G02*
X88184465Y-71314713I-34655J-74317D01*
G01*
X87907227Y-71909251D01*
G75*
G02*
X87798255Y-71948913I-74317J34655D01*
G01*
G37*
%TD*%
%TO.C,D52*%
G36*
G01*
X75689635Y-85611682D02*
X74388177Y-85004802D01*
G75*
G02*
X74348515Y-84895830I34655J74317D01*
G01*
X74625753Y-84301292D01*
G75*
G02*
X74734725Y-84261630I74317J-34655D01*
G01*
X76036183Y-84868510D01*
G75*
G02*
X76075845Y-84977482I-34655J-74317D01*
G01*
X75798607Y-85572020D01*
G75*
G02*
X75689635Y-85611682I-74317J34655D01*
G01*
G37*
G36*
G01*
X75055707Y-86971144D02*
X73754249Y-86364264D01*
G75*
G02*
X73714587Y-86255292I34655J74317D01*
G01*
X73991825Y-85660754D01*
G75*
G02*
X74100797Y-85621092I74317J-34655D01*
G01*
X75402255Y-86227972D01*
G75*
G02*
X75441917Y-86336944I-34655J-74317D01*
G01*
X75164679Y-86931482D01*
G75*
G02*
X75055707Y-86971144I-74317J34655D01*
G01*
G37*
G36*
G01*
X80402435Y-87809297D02*
X79100977Y-87202417D01*
G75*
G02*
X79061315Y-87093445I34655J74317D01*
G01*
X79338553Y-86498907D01*
G75*
G02*
X79447525Y-86459245I74317J-34655D01*
G01*
X80748983Y-87066125D01*
G75*
G02*
X80788645Y-87175097I-34655J-74317D01*
G01*
X80511407Y-87769635D01*
G75*
G02*
X80402435Y-87809297I-74317J34655D01*
G01*
G37*
G36*
G01*
X79768508Y-89168759D02*
X78467050Y-88561879D01*
G75*
G02*
X78427388Y-88452907I34655J74317D01*
G01*
X78704626Y-87858369D01*
G75*
G02*
X78813598Y-87818707I74317J-34655D01*
G01*
X80115056Y-88425587D01*
G75*
G02*
X80154718Y-88534559I-34655J-74317D01*
G01*
X79877480Y-89129097D01*
G75*
G02*
X79768508Y-89168759I-74317J34655D01*
G01*
G37*
%TD*%
%TO.C,D54*%
G36*
G01*
X91749129Y-51171987D02*
X90447671Y-50565107D01*
G75*
G02*
X90408009Y-50456135I34655J74317D01*
G01*
X90685247Y-49861597D01*
G75*
G02*
X90794219Y-49821935I74317J-34655D01*
G01*
X92095677Y-50428815D01*
G75*
G02*
X92135339Y-50537787I-34655J-74317D01*
G01*
X91858101Y-51132325D01*
G75*
G02*
X91749129Y-51171987I-74317J34655D01*
G01*
G37*
G36*
G01*
X91115201Y-52531449D02*
X89813743Y-51924569D01*
G75*
G02*
X89774081Y-51815597I34655J74317D01*
G01*
X90051319Y-51221059D01*
G75*
G02*
X90160291Y-51181397I74317J-34655D01*
G01*
X91461749Y-51788277D01*
G75*
G02*
X91501411Y-51897249I-34655J-74317D01*
G01*
X91224173Y-52491787D01*
G75*
G02*
X91115201Y-52531449I-74317J34655D01*
G01*
G37*
G36*
G01*
X96461929Y-53369602D02*
X95160471Y-52762722D01*
G75*
G02*
X95120809Y-52653750I34655J74317D01*
G01*
X95398047Y-52059212D01*
G75*
G02*
X95507019Y-52019550I74317J-34655D01*
G01*
X96808477Y-52626430D01*
G75*
G02*
X96848139Y-52735402I-34655J-74317D01*
G01*
X96570901Y-53329940D01*
G75*
G02*
X96461929Y-53369602I-74317J34655D01*
G01*
G37*
G36*
G01*
X95828002Y-54729064D02*
X94526544Y-54122184D01*
G75*
G02*
X94486882Y-54013212I34655J74317D01*
G01*
X94764120Y-53418674D01*
G75*
G02*
X94873092Y-53379012I74317J-34655D01*
G01*
X96174550Y-53985892D01*
G75*
G02*
X96214212Y-54094864I-34655J-74317D01*
G01*
X95936974Y-54689402D01*
G75*
G02*
X95828002Y-54729064I-74317J34655D01*
G01*
G37*
%TD*%
D12*
%TO.C,SW41*%
X134752661Y-156482241D03*
X140952661Y-160182241D03*
X134752661Y-160182241D03*
X140952661Y-156482241D03*
%TD*%
%TO.C,R4*%
G36*
G01*
X140602660Y-152932241D02*
X141502664Y-152932241D01*
G75*
G02*
X141752662Y-153182239I0J-249998D01*
G01*
X141752662Y-153707243D01*
G75*
G02*
X141502664Y-153957241I-249998J0D01*
G01*
X140602660Y-153957241D01*
G75*
G02*
X140352662Y-153707243I0J249998D01*
G01*
X140352662Y-153182239D01*
G75*
G02*
X140602660Y-152932241I249998J0D01*
G01*
G37*
G36*
G01*
X140602660Y-151107241D02*
X141502664Y-151107241D01*
G75*
G02*
X141752662Y-151357239I0J-249998D01*
G01*
X141752662Y-151882243D01*
G75*
G02*
X141502664Y-152132241I-249998J0D01*
G01*
X140602660Y-152132241D01*
G75*
G02*
X140352662Y-151882243I0J249998D01*
G01*
X140352662Y-151357239D01*
G75*
G02*
X140602660Y-151107241I249998J0D01*
G01*
G37*
%TD*%
%TO.C,D77*%
G36*
G01*
X213060288Y-88362771D02*
X211758830Y-88969651D01*
G75*
G02*
X211649858Y-88929989I-34655J74317D01*
G01*
X211372620Y-88335451D01*
G75*
G02*
X211412282Y-88226479I74317J34655D01*
G01*
X212713740Y-87619599D01*
G75*
G02*
X212822712Y-87659261I34655J-74317D01*
G01*
X213099950Y-88253799D01*
G75*
G02*
X213060288Y-88362771I-74317J-34655D01*
G01*
G37*
G36*
G01*
X213694215Y-89722233D02*
X212392757Y-90329113D01*
G75*
G02*
X212283785Y-90289451I-34655J74317D01*
G01*
X212006547Y-89694913D01*
G75*
G02*
X212046209Y-89585941I74317J34655D01*
G01*
X213347667Y-88979061D01*
G75*
G02*
X213456639Y-89018723I34655J-74317D01*
G01*
X213733877Y-89613261D01*
G75*
G02*
X213694215Y-89722233I-74317J-34655D01*
G01*
G37*
G36*
G01*
X217773088Y-86165156D02*
X216471630Y-86772036D01*
G75*
G02*
X216362658Y-86732374I-34655J74317D01*
G01*
X216085420Y-86137836D01*
G75*
G02*
X216125082Y-86028864I74317J34655D01*
G01*
X217426540Y-85421984D01*
G75*
G02*
X217535512Y-85461646I34655J-74317D01*
G01*
X217812750Y-86056184D01*
G75*
G02*
X217773088Y-86165156I-74317J-34655D01*
G01*
G37*
G36*
G01*
X218407016Y-87524618D02*
X217105558Y-88131498D01*
G75*
G02*
X216996586Y-88091836I-34655J74317D01*
G01*
X216719348Y-87497298D01*
G75*
G02*
X216759010Y-87388326I74317J34655D01*
G01*
X218060468Y-86781446D01*
G75*
G02*
X218169440Y-86821108I34655J-74317D01*
G01*
X218446678Y-87415646D01*
G75*
G02*
X218407016Y-87524618I-74317J-34655D01*
G01*
G37*
%TD*%
%TO.C,D70*%
G36*
G01*
X193727352Y-91860975D02*
X192425894Y-92467855D01*
G75*
G02*
X192316922Y-92428193I-34655J74317D01*
G01*
X192039684Y-91833655D01*
G75*
G02*
X192079346Y-91724683I74317J34655D01*
G01*
X193380804Y-91117803D01*
G75*
G02*
X193489776Y-91157465I34655J-74317D01*
G01*
X193767014Y-91752003D01*
G75*
G02*
X193727352Y-91860975I-74317J-34655D01*
G01*
G37*
G36*
G01*
X194361279Y-93220437D02*
X193059821Y-93827317D01*
G75*
G02*
X192950849Y-93787655I-34655J74317D01*
G01*
X192673611Y-93193117D01*
G75*
G02*
X192713273Y-93084145I74317J34655D01*
G01*
X194014731Y-92477265D01*
G75*
G02*
X194123703Y-92516927I34655J-74317D01*
G01*
X194400941Y-93111465D01*
G75*
G02*
X194361279Y-93220437I-74317J-34655D01*
G01*
G37*
G36*
G01*
X198440152Y-89663360D02*
X197138694Y-90270240D01*
G75*
G02*
X197029722Y-90230578I-34655J74317D01*
G01*
X196752484Y-89636040D01*
G75*
G02*
X196792146Y-89527068I74317J34655D01*
G01*
X198093604Y-88920188D01*
G75*
G02*
X198202576Y-88959850I34655J-74317D01*
G01*
X198479814Y-89554388D01*
G75*
G02*
X198440152Y-89663360I-74317J-34655D01*
G01*
G37*
G36*
G01*
X199074080Y-91022822D02*
X197772622Y-91629702D01*
G75*
G02*
X197663650Y-91590040I-34655J74317D01*
G01*
X197386412Y-90995502D01*
G75*
G02*
X197426074Y-90886530I74317J34655D01*
G01*
X198727532Y-90279650D01*
G75*
G02*
X198836504Y-90319312I34655J-74317D01*
G01*
X199113742Y-90913850D01*
G75*
G02*
X199074080Y-91022822I-74317J-34655D01*
G01*
G37*
%TD*%
%TO.C,D63*%
G36*
G01*
X184959863Y-118016879D02*
X183658405Y-118623759D01*
G75*
G02*
X183549433Y-118584097I-34655J74317D01*
G01*
X183272195Y-117989559D01*
G75*
G02*
X183311857Y-117880587I74317J34655D01*
G01*
X184613315Y-117273707D01*
G75*
G02*
X184722287Y-117313369I34655J-74317D01*
G01*
X184999525Y-117907907D01*
G75*
G02*
X184959863Y-118016879I-74317J-34655D01*
G01*
G37*
G36*
G01*
X185593790Y-119376341D02*
X184292332Y-119983221D01*
G75*
G02*
X184183360Y-119943559I-34655J74317D01*
G01*
X183906122Y-119349021D01*
G75*
G02*
X183945784Y-119240049I74317J34655D01*
G01*
X185247242Y-118633169D01*
G75*
G02*
X185356214Y-118672831I34655J-74317D01*
G01*
X185633452Y-119267369D01*
G75*
G02*
X185593790Y-119376341I-74317J-34655D01*
G01*
G37*
G36*
G01*
X189672663Y-115819264D02*
X188371205Y-116426144D01*
G75*
G02*
X188262233Y-116386482I-34655J74317D01*
G01*
X187984995Y-115791944D01*
G75*
G02*
X188024657Y-115682972I74317J34655D01*
G01*
X189326115Y-115076092D01*
G75*
G02*
X189435087Y-115115754I34655J-74317D01*
G01*
X189712325Y-115710292D01*
G75*
G02*
X189672663Y-115819264I-74317J-34655D01*
G01*
G37*
G36*
G01*
X190306591Y-117178726D02*
X189005133Y-117785606D01*
G75*
G02*
X188896161Y-117745944I-34655J74317D01*
G01*
X188618923Y-117151406D01*
G75*
G02*
X188658585Y-117042434I74317J34655D01*
G01*
X189960043Y-116435554D01*
G75*
G02*
X190069015Y-116475216I34655J-74317D01*
G01*
X190346253Y-117069754D01*
G75*
G02*
X190306591Y-117178726I-74317J-34655D01*
G01*
G37*
%TD*%
%TO.C,D62*%
G36*
G01*
X166119166Y-129273366D02*
X164942864Y-130097022D01*
G75*
G02*
X164828661Y-130076885I-47033J67170D01*
G01*
X164452395Y-129539521D01*
G75*
G02*
X164472532Y-129425318I67170J47033D01*
G01*
X165648834Y-128601662D01*
G75*
G02*
X165763037Y-128621799I47033J-67170D01*
G01*
X166139303Y-129159163D01*
G75*
G02*
X166119166Y-129273366I-67170J-47033D01*
G01*
G37*
G36*
G01*
X166979530Y-130502094D02*
X165803228Y-131325750D01*
G75*
G02*
X165689025Y-131305613I-47033J67170D01*
G01*
X165312759Y-130768249D01*
G75*
G02*
X165332896Y-130654046I67170J47033D01*
G01*
X166509198Y-129830390D01*
G75*
G02*
X166623401Y-129850527I47033J-67170D01*
G01*
X166999667Y-130387891D01*
G75*
G02*
X166979530Y-130502094I-67170J-47033D01*
G01*
G37*
G36*
G01*
X170378756Y-126290769D02*
X169202454Y-127114425D01*
G75*
G02*
X169088251Y-127094288I-47033J67170D01*
G01*
X168711985Y-126556924D01*
G75*
G02*
X168732122Y-126442721I67170J47033D01*
G01*
X169908424Y-125619065D01*
G75*
G02*
X170022627Y-125639202I47033J-67170D01*
G01*
X170398893Y-126176566D01*
G75*
G02*
X170378756Y-126290769I-67170J-47033D01*
G01*
G37*
G36*
G01*
X171239121Y-127519497D02*
X170062819Y-128343153D01*
G75*
G02*
X169948616Y-128323016I-47033J67170D01*
G01*
X169572350Y-127785652D01*
G75*
G02*
X169592487Y-127671449I67170J47033D01*
G01*
X170768789Y-126847793D01*
G75*
G02*
X170882992Y-126867930I47033J-67170D01*
G01*
X171259258Y-127405294D01*
G75*
G02*
X171239121Y-127519497I-67170J-47033D01*
G01*
G37*
%TD*%
%TO.C,D61*%
G36*
G01*
X149519372Y-143630499D02*
X148503966Y-144645905D01*
G75*
G02*
X148388000Y-144645905I-57983J57983D01*
G01*
X147924138Y-144182043D01*
G75*
G02*
X147924138Y-144066077I57983J57983D01*
G01*
X148939544Y-143050671D01*
G75*
G02*
X149055510Y-143050671I57983J-57983D01*
G01*
X149519372Y-143514533D01*
G75*
G02*
X149519372Y-143630499I-57983J-57983D01*
G01*
G37*
G36*
G01*
X150580032Y-144691159D02*
X149564626Y-145706565D01*
G75*
G02*
X149448660Y-145706565I-57983J57983D01*
G01*
X148984798Y-145242703D01*
G75*
G02*
X148984798Y-145126737I57983J57983D01*
G01*
X150000204Y-144111331D01*
G75*
G02*
X150116170Y-144111331I57983J-57983D01*
G01*
X150580032Y-144575193D01*
G75*
G02*
X150580032Y-144691159I-57983J-57983D01*
G01*
G37*
G36*
G01*
X153196327Y-139953544D02*
X152180921Y-140968950D01*
G75*
G02*
X152064955Y-140968950I-57983J57983D01*
G01*
X151601093Y-140505088D01*
G75*
G02*
X151601093Y-140389122I57983J57983D01*
G01*
X152616499Y-139373716D01*
G75*
G02*
X152732465Y-139373716I57983J-57983D01*
G01*
X153196327Y-139837578D01*
G75*
G02*
X153196327Y-139953544I-57983J-57983D01*
G01*
G37*
G36*
G01*
X154256987Y-141014204D02*
X153241581Y-142029610D01*
G75*
G02*
X153125615Y-142029610I-57983J57983D01*
G01*
X152661753Y-141565748D01*
G75*
G02*
X152661753Y-141449782I57983J57983D01*
G01*
X153677159Y-140434376D01*
G75*
G02*
X153793125Y-140434376I57983J-57983D01*
G01*
X154256987Y-140898238D01*
G75*
G02*
X154256987Y-141014204I-57983J-57983D01*
G01*
G37*
%TD*%
%TO.C,D60*%
G36*
G01*
X97510907Y-140968947D02*
X96495501Y-139953541D01*
G75*
G02*
X96495501Y-139837575I57983J57983D01*
G01*
X96959363Y-139373713D01*
G75*
G02*
X97075329Y-139373713I57983J-57983D01*
G01*
X98090735Y-140389119D01*
G75*
G02*
X98090735Y-140505085I-57983J-57983D01*
G01*
X97626873Y-140968947D01*
G75*
G02*
X97510907Y-140968947I-57983J57983D01*
G01*
G37*
G36*
G01*
X96450247Y-142029607D02*
X95434841Y-141014201D01*
G75*
G02*
X95434841Y-140898235I57983J57983D01*
G01*
X95898703Y-140434373D01*
G75*
G02*
X96014669Y-140434373I57983J-57983D01*
G01*
X97030075Y-141449779D01*
G75*
G02*
X97030075Y-141565745I-57983J-57983D01*
G01*
X96566213Y-142029607D01*
G75*
G02*
X96450247Y-142029607I-57983J57983D01*
G01*
G37*
G36*
G01*
X101187862Y-144645902D02*
X100172456Y-143630496D01*
G75*
G02*
X100172456Y-143514530I57983J57983D01*
G01*
X100636318Y-143050668D01*
G75*
G02*
X100752284Y-143050668I57983J-57983D01*
G01*
X101767690Y-144066074D01*
G75*
G02*
X101767690Y-144182040I-57983J-57983D01*
G01*
X101303828Y-144645902D01*
G75*
G02*
X101187862Y-144645902I-57983J57983D01*
G01*
G37*
G36*
G01*
X100127202Y-145706562D02*
X99111796Y-144691156D01*
G75*
G02*
X99111796Y-144575190I57983J57983D01*
G01*
X99575658Y-144111328D01*
G75*
G02*
X99691624Y-144111328I57983J-57983D01*
G01*
X100707030Y-145126734D01*
G75*
G02*
X100707030Y-145242700I-57983J-57983D01*
G01*
X100243168Y-145706562D01*
G75*
G02*
X100127202Y-145706562I-57983J57983D01*
G01*
G37*
%TD*%
%TO.C,D58*%
G36*
G01*
X61320613Y-116426147D02*
X60019155Y-115819267D01*
G75*
G02*
X59979493Y-115710295I34655J74317D01*
G01*
X60256731Y-115115757D01*
G75*
G02*
X60365703Y-115076095I74317J-34655D01*
G01*
X61667161Y-115682975D01*
G75*
G02*
X61706823Y-115791947I-34655J-74317D01*
G01*
X61429585Y-116386485D01*
G75*
G02*
X61320613Y-116426147I-74317J34655D01*
G01*
G37*
G36*
G01*
X60686685Y-117785609D02*
X59385227Y-117178729D01*
G75*
G02*
X59345565Y-117069757I34655J74317D01*
G01*
X59622803Y-116475219D01*
G75*
G02*
X59731775Y-116435557I74317J-34655D01*
G01*
X61033233Y-117042437D01*
G75*
G02*
X61072895Y-117151409I-34655J-74317D01*
G01*
X60795657Y-117745947D01*
G75*
G02*
X60686685Y-117785609I-74317J34655D01*
G01*
G37*
G36*
G01*
X66033413Y-118623762D02*
X64731955Y-118016882D01*
G75*
G02*
X64692293Y-117907910I34655J74317D01*
G01*
X64969531Y-117313372D01*
G75*
G02*
X65078503Y-117273710I74317J-34655D01*
G01*
X66379961Y-117880590D01*
G75*
G02*
X66419623Y-117989562I-34655J-74317D01*
G01*
X66142385Y-118584100D01*
G75*
G02*
X66033413Y-118623762I-74317J34655D01*
G01*
G37*
G36*
G01*
X65399486Y-119983224D02*
X64098028Y-119376344D01*
G75*
G02*
X64058366Y-119267372I34655J74317D01*
G01*
X64335604Y-118672834D01*
G75*
G02*
X64444576Y-118633172I74317J-34655D01*
G01*
X65746034Y-119240052D01*
G75*
G02*
X65785696Y-119349024I-34655J-74317D01*
G01*
X65508458Y-119943562D01*
G75*
G02*
X65399486Y-119983224I-74317J34655D01*
G01*
G37*
%TD*%
%TO.C,D51*%
G36*
G01*
X52553133Y-90270244D02*
X51251675Y-89663364D01*
G75*
G02*
X51212013Y-89554392I34655J74317D01*
G01*
X51489251Y-88959854D01*
G75*
G02*
X51598223Y-88920192I74317J-34655D01*
G01*
X52899681Y-89527072D01*
G75*
G02*
X52939343Y-89636044I-34655J-74317D01*
G01*
X52662105Y-90230582D01*
G75*
G02*
X52553133Y-90270244I-74317J34655D01*
G01*
G37*
G36*
G01*
X51919205Y-91629706D02*
X50617747Y-91022826D01*
G75*
G02*
X50578085Y-90913854I34655J74317D01*
G01*
X50855323Y-90319316D01*
G75*
G02*
X50964295Y-90279654I74317J-34655D01*
G01*
X52265753Y-90886534D01*
G75*
G02*
X52305415Y-90995506I-34655J-74317D01*
G01*
X52028177Y-91590044D01*
G75*
G02*
X51919205Y-91629706I-74317J34655D01*
G01*
G37*
G36*
G01*
X57265933Y-92467859D02*
X55964475Y-91860979D01*
G75*
G02*
X55924813Y-91752007I34655J74317D01*
G01*
X56202051Y-91157469D01*
G75*
G02*
X56311023Y-91117807I74317J-34655D01*
G01*
X57612481Y-91724687D01*
G75*
G02*
X57652143Y-91833659I-34655J-74317D01*
G01*
X57374905Y-92428197D01*
G75*
G02*
X57265933Y-92467859I-74317J34655D01*
G01*
G37*
G36*
G01*
X56632006Y-93827321D02*
X55330548Y-93220441D01*
G75*
G02*
X55290886Y-93111469I34655J74317D01*
G01*
X55568124Y-92516931D01*
G75*
G02*
X55677096Y-92477269I74317J-34655D01*
G01*
X56978554Y-93084149D01*
G75*
G02*
X57018216Y-93193121I-34655J-74317D01*
G01*
X56740978Y-93787659D01*
G75*
G02*
X56632006Y-93827321I-74317J34655D01*
G01*
G37*
%TD*%
%TO.C,D44*%
G36*
G01*
X33220195Y-86772036D02*
X31918737Y-86165156D01*
G75*
G02*
X31879075Y-86056184I34655J74317D01*
G01*
X32156313Y-85461646D01*
G75*
G02*
X32265285Y-85421984I74317J-34655D01*
G01*
X33566743Y-86028864D01*
G75*
G02*
X33606405Y-86137836I-34655J-74317D01*
G01*
X33329167Y-86732374D01*
G75*
G02*
X33220195Y-86772036I-74317J34655D01*
G01*
G37*
G36*
G01*
X32586267Y-88131498D02*
X31284809Y-87524618D01*
G75*
G02*
X31245147Y-87415646I34655J74317D01*
G01*
X31522385Y-86821108D01*
G75*
G02*
X31631357Y-86781446I74317J-34655D01*
G01*
X32932815Y-87388326D01*
G75*
G02*
X32972477Y-87497298I-34655J-74317D01*
G01*
X32695239Y-88091836D01*
G75*
G02*
X32586267Y-88131498I-74317J34655D01*
G01*
G37*
G36*
G01*
X37932995Y-88969651D02*
X36631537Y-88362771D01*
G75*
G02*
X36591875Y-88253799I34655J74317D01*
G01*
X36869113Y-87659261D01*
G75*
G02*
X36978085Y-87619599I74317J-34655D01*
G01*
X38279543Y-88226479D01*
G75*
G02*
X38319205Y-88335451I-34655J-74317D01*
G01*
X38041967Y-88929989D01*
G75*
G02*
X37932995Y-88969651I-74317J34655D01*
G01*
G37*
G36*
G01*
X37299068Y-90329113D02*
X35997610Y-89722233D01*
G75*
G02*
X35957948Y-89613261I34655J74317D01*
G01*
X36235186Y-89018723D01*
G75*
G02*
X36344158Y-88979061I74317J-34655D01*
G01*
X37645616Y-89585941D01*
G75*
G02*
X37685278Y-89694913I-34655J-74317D01*
G01*
X37408040Y-90289451D01*
G75*
G02*
X37299068Y-90329113I-74317J34655D01*
G01*
G37*
%TD*%
%TO.C,D78*%
G36*
G01*
X227533114Y-74442023D02*
X226231656Y-75048903D01*
G75*
G02*
X226122684Y-75009241I-34655J74317D01*
G01*
X225845446Y-74414703D01*
G75*
G02*
X225885108Y-74305731I74317J34655D01*
G01*
X227186566Y-73698851D01*
G75*
G02*
X227295538Y-73738513I34655J-74317D01*
G01*
X227572776Y-74333051D01*
G75*
G02*
X227533114Y-74442023I-74317J-34655D01*
G01*
G37*
G36*
G01*
X228167041Y-75801485D02*
X226865583Y-76408365D01*
G75*
G02*
X226756611Y-76368703I-34655J74317D01*
G01*
X226479373Y-75774165D01*
G75*
G02*
X226519035Y-75665193I74317J34655D01*
G01*
X227820493Y-75058313D01*
G75*
G02*
X227929465Y-75097975I34655J-74317D01*
G01*
X228206703Y-75692513D01*
G75*
G02*
X228167041Y-75801485I-74317J-34655D01*
G01*
G37*
G36*
G01*
X232245914Y-72244408D02*
X230944456Y-72851288D01*
G75*
G02*
X230835484Y-72811626I-34655J74317D01*
G01*
X230558246Y-72217088D01*
G75*
G02*
X230597908Y-72108116I74317J34655D01*
G01*
X231899366Y-71501236D01*
G75*
G02*
X232008338Y-71540898I34655J-74317D01*
G01*
X232285576Y-72135436D01*
G75*
G02*
X232245914Y-72244408I-74317J-34655D01*
G01*
G37*
G36*
G01*
X232879842Y-73603870D02*
X231578384Y-74210750D01*
G75*
G02*
X231469412Y-74171088I-34655J74317D01*
G01*
X231192174Y-73576550D01*
G75*
G02*
X231231836Y-73467578I74317J34655D01*
G01*
X232533294Y-72860698D01*
G75*
G02*
X232642266Y-72900360I34655J-74317D01*
G01*
X232919504Y-73494898D01*
G75*
G02*
X232879842Y-73603870I-74317J-34655D01*
G01*
G37*
%TD*%
%TO.C,D76*%
G36*
G01*
X205030541Y-71142924D02*
X203729083Y-71749804D01*
G75*
G02*
X203620111Y-71710142I-34655J74317D01*
G01*
X203342873Y-71115604D01*
G75*
G02*
X203382535Y-71006632I74317J34655D01*
G01*
X204683993Y-70399752D01*
G75*
G02*
X204792965Y-70439414I34655J-74317D01*
G01*
X205070203Y-71033952D01*
G75*
G02*
X205030541Y-71142924I-74317J-34655D01*
G01*
G37*
G36*
G01*
X205664468Y-72502386D02*
X204363010Y-73109266D01*
G75*
G02*
X204254038Y-73069604I-34655J74317D01*
G01*
X203976800Y-72475066D01*
G75*
G02*
X204016462Y-72366094I74317J34655D01*
G01*
X205317920Y-71759214D01*
G75*
G02*
X205426892Y-71798876I34655J-74317D01*
G01*
X205704130Y-72393414D01*
G75*
G02*
X205664468Y-72502386I-74317J-34655D01*
G01*
G37*
G36*
G01*
X209743341Y-68945309D02*
X208441883Y-69552189D01*
G75*
G02*
X208332911Y-69512527I-34655J74317D01*
G01*
X208055673Y-68917989D01*
G75*
G02*
X208095335Y-68809017I74317J34655D01*
G01*
X209396793Y-68202137D01*
G75*
G02*
X209505765Y-68241799I34655J-74317D01*
G01*
X209783003Y-68836337D01*
G75*
G02*
X209743341Y-68945309I-74317J-34655D01*
G01*
G37*
G36*
G01*
X210377269Y-70304771D02*
X209075811Y-70911651D01*
G75*
G02*
X208966839Y-70871989I-34655J74317D01*
G01*
X208689601Y-70277451D01*
G75*
G02*
X208729263Y-70168479I74317J34655D01*
G01*
X210030721Y-69561599D01*
G75*
G02*
X210139693Y-69601261I34655J-74317D01*
G01*
X210416931Y-70195799D01*
G75*
G02*
X210377269Y-70304771I-74317J-34655D01*
G01*
G37*
%TD*%
%TO.C,D71*%
G36*
G01*
X185697603Y-74641134D02*
X184396145Y-75248014D01*
G75*
G02*
X184287173Y-75208352I-34655J74317D01*
G01*
X184009935Y-74613814D01*
G75*
G02*
X184049597Y-74504842I74317J34655D01*
G01*
X185351055Y-73897962D01*
G75*
G02*
X185460027Y-73937624I34655J-74317D01*
G01*
X185737265Y-74532162D01*
G75*
G02*
X185697603Y-74641134I-74317J-34655D01*
G01*
G37*
G36*
G01*
X186331530Y-76000596D02*
X185030072Y-76607476D01*
G75*
G02*
X184921100Y-76567814I-34655J74317D01*
G01*
X184643862Y-75973276D01*
G75*
G02*
X184683524Y-75864304I74317J34655D01*
G01*
X185984982Y-75257424D01*
G75*
G02*
X186093954Y-75297086I34655J-74317D01*
G01*
X186371192Y-75891624D01*
G75*
G02*
X186331530Y-76000596I-74317J-34655D01*
G01*
G37*
G36*
G01*
X190410403Y-72443519D02*
X189108945Y-73050399D01*
G75*
G02*
X188999973Y-73010737I-34655J74317D01*
G01*
X188722735Y-72416199D01*
G75*
G02*
X188762397Y-72307227I74317J34655D01*
G01*
X190063855Y-71700347D01*
G75*
G02*
X190172827Y-71740009I34655J-74317D01*
G01*
X190450065Y-72334547D01*
G75*
G02*
X190410403Y-72443519I-74317J-34655D01*
G01*
G37*
G36*
G01*
X191044331Y-73802981D02*
X189742873Y-74409861D01*
G75*
G02*
X189633901Y-74370199I-34655J74317D01*
G01*
X189356663Y-73775661D01*
G75*
G02*
X189396325Y-73666689I74317J34655D01*
G01*
X190697783Y-73059809D01*
G75*
G02*
X190806755Y-73099471I34655J-74317D01*
G01*
X191083993Y-73694009D01*
G75*
G02*
X191044331Y-73802981I-74317J-34655D01*
G01*
G37*
%TD*%
%TO.C,D69*%
G36*
G01*
X170590846Y-87202416D02*
X169289388Y-87809296D01*
G75*
G02*
X169180416Y-87769634I-34655J74317D01*
G01*
X168903178Y-87175096D01*
G75*
G02*
X168942840Y-87066124I74317J34655D01*
G01*
X170244298Y-86459244D01*
G75*
G02*
X170353270Y-86498906I34655J-74317D01*
G01*
X170630508Y-87093444D01*
G75*
G02*
X170590846Y-87202416I-74317J-34655D01*
G01*
G37*
G36*
G01*
X171224773Y-88561878D02*
X169923315Y-89168758D01*
G75*
G02*
X169814343Y-89129096I-34655J74317D01*
G01*
X169537105Y-88534558D01*
G75*
G02*
X169576767Y-88425586I74317J34655D01*
G01*
X170878225Y-87818706D01*
G75*
G02*
X170987197Y-87858368I34655J-74317D01*
G01*
X171264435Y-88452906D01*
G75*
G02*
X171224773Y-88561878I-74317J-34655D01*
G01*
G37*
G36*
G01*
X175303646Y-85004801D02*
X174002188Y-85611681D01*
G75*
G02*
X173893216Y-85572019I-34655J74317D01*
G01*
X173615978Y-84977481D01*
G75*
G02*
X173655640Y-84868509I74317J34655D01*
G01*
X174957098Y-84261629D01*
G75*
G02*
X175066070Y-84301291I34655J-74317D01*
G01*
X175343308Y-84895829D01*
G75*
G02*
X175303646Y-85004801I-74317J-34655D01*
G01*
G37*
G36*
G01*
X175937574Y-86364263D02*
X174636116Y-86971143D01*
G75*
G02*
X174527144Y-86931481I-34655J74317D01*
G01*
X174249906Y-86336943D01*
G75*
G02*
X174289568Y-86227971I74317J34655D01*
G01*
X175591026Y-85621091D01*
G75*
G02*
X175699998Y-85660753I34655J-74317D01*
G01*
X175977236Y-86255291D01*
G75*
G02*
X175937574Y-86364263I-74317J-34655D01*
G01*
G37*
%TD*%
%TO.C,D64*%
G36*
G01*
X154427543Y-97497935D02*
X153126085Y-98104815D01*
G75*
G02*
X153017113Y-98065153I-34655J74317D01*
G01*
X152739875Y-97470615D01*
G75*
G02*
X152779537Y-97361643I74317J34655D01*
G01*
X154080995Y-96754763D01*
G75*
G02*
X154189967Y-96794425I34655J-74317D01*
G01*
X154467205Y-97388963D01*
G75*
G02*
X154427543Y-97497935I-74317J-34655D01*
G01*
G37*
G36*
G01*
X155061470Y-98857397D02*
X153760012Y-99464277D01*
G75*
G02*
X153651040Y-99424615I-34655J74317D01*
G01*
X153373802Y-98830077D01*
G75*
G02*
X153413464Y-98721105I74317J34655D01*
G01*
X154714922Y-98114225D01*
G75*
G02*
X154823894Y-98153887I34655J-74317D01*
G01*
X155101132Y-98748425D01*
G75*
G02*
X155061470Y-98857397I-74317J-34655D01*
G01*
G37*
G36*
G01*
X159140343Y-95300320D02*
X157838885Y-95907200D01*
G75*
G02*
X157729913Y-95867538I-34655J74317D01*
G01*
X157452675Y-95273000D01*
G75*
G02*
X157492337Y-95164028I74317J34655D01*
G01*
X158793795Y-94557148D01*
G75*
G02*
X158902767Y-94596810I34655J-74317D01*
G01*
X159180005Y-95191348D01*
G75*
G02*
X159140343Y-95300320I-74317J-34655D01*
G01*
G37*
G36*
G01*
X159774271Y-96659782D02*
X158472813Y-97266662D01*
G75*
G02*
X158363841Y-97227000I-34655J74317D01*
G01*
X158086603Y-96632462D01*
G75*
G02*
X158126265Y-96523490I74317J34655D01*
G01*
X159427723Y-95916610D01*
G75*
G02*
X159536695Y-95956272I34655J-74317D01*
G01*
X159813933Y-96550810D01*
G75*
G02*
X159774271Y-96659782I-74317J-34655D01*
G01*
G37*
%TD*%
%TO.C,D50*%
G36*
G01*
X60582880Y-73050395D02*
X59281422Y-72443515D01*
G75*
G02*
X59241760Y-72334543I34655J74317D01*
G01*
X59518998Y-71740005D01*
G75*
G02*
X59627970Y-71700343I74317J-34655D01*
G01*
X60929428Y-72307223D01*
G75*
G02*
X60969090Y-72416195I-34655J-74317D01*
G01*
X60691852Y-73010733D01*
G75*
G02*
X60582880Y-73050395I-74317J34655D01*
G01*
G37*
G36*
G01*
X59948952Y-74409857D02*
X58647494Y-73802977D01*
G75*
G02*
X58607832Y-73694005I34655J74317D01*
G01*
X58885070Y-73099467D01*
G75*
G02*
X58994042Y-73059805I74317J-34655D01*
G01*
X60295500Y-73666685D01*
G75*
G02*
X60335162Y-73775657I-34655J-74317D01*
G01*
X60057924Y-74370195D01*
G75*
G02*
X59948952Y-74409857I-74317J34655D01*
G01*
G37*
G36*
G01*
X65295680Y-75248010D02*
X63994222Y-74641130D01*
G75*
G02*
X63954560Y-74532158I34655J74317D01*
G01*
X64231798Y-73937620D01*
G75*
G02*
X64340770Y-73897958I74317J-34655D01*
G01*
X65642228Y-74504838D01*
G75*
G02*
X65681890Y-74613810I-34655J-74317D01*
G01*
X65404652Y-75208348D01*
G75*
G02*
X65295680Y-75248010I-74317J34655D01*
G01*
G37*
G36*
G01*
X64661753Y-76607472D02*
X63360295Y-76000592D01*
G75*
G02*
X63320633Y-75891620I34655J74317D01*
G01*
X63597871Y-75297082D01*
G75*
G02*
X63706843Y-75257420I74317J-34655D01*
G01*
X65008301Y-75864300D01*
G75*
G02*
X65047963Y-75973272I-34655J-74317D01*
G01*
X64770725Y-76567810D01*
G75*
G02*
X64661753Y-76607472I-74317J34655D01*
G01*
G37*
%TD*%
%TO.C,D43*%
G36*
G01*
X18747364Y-72851289D02*
X17445906Y-72244409D01*
G75*
G02*
X17406244Y-72135437I34655J74317D01*
G01*
X17683482Y-71540899D01*
G75*
G02*
X17792454Y-71501237I74317J-34655D01*
G01*
X19093912Y-72108117D01*
G75*
G02*
X19133574Y-72217089I-34655J-74317D01*
G01*
X18856336Y-72811627D01*
G75*
G02*
X18747364Y-72851289I-74317J34655D01*
G01*
G37*
G36*
G01*
X18113436Y-74210751D02*
X16811978Y-73603871D01*
G75*
G02*
X16772316Y-73494899I34655J74317D01*
G01*
X17049554Y-72900361D01*
G75*
G02*
X17158526Y-72860699I74317J-34655D01*
G01*
X18459984Y-73467579D01*
G75*
G02*
X18499646Y-73576551I-34655J-74317D01*
G01*
X18222408Y-74171089D01*
G75*
G02*
X18113436Y-74210751I-74317J34655D01*
G01*
G37*
G36*
G01*
X23460164Y-75048904D02*
X22158706Y-74442024D01*
G75*
G02*
X22119044Y-74333052I34655J74317D01*
G01*
X22396282Y-73738514D01*
G75*
G02*
X22505254Y-73698852I74317J-34655D01*
G01*
X23806712Y-74305732D01*
G75*
G02*
X23846374Y-74414704I-34655J-74317D01*
G01*
X23569136Y-75009242D01*
G75*
G02*
X23460164Y-75048904I-74317J34655D01*
G01*
G37*
G36*
G01*
X22826237Y-76408366D02*
X21524779Y-75801486D01*
G75*
G02*
X21485117Y-75692514I34655J74317D01*
G01*
X21762355Y-75097976D01*
G75*
G02*
X21871327Y-75058314I74317J-34655D01*
G01*
X23172785Y-75665194D01*
G75*
G02*
X23212447Y-75774166I-34655J-74317D01*
G01*
X22935209Y-76368704D01*
G75*
G02*
X22826237Y-76408366I-74317J34655D01*
G01*
G37*
%TD*%
%TO.C,D79*%
G36*
G01*
X219503367Y-57222176D02*
X218201909Y-57829056D01*
G75*
G02*
X218092937Y-57789394I-34655J74317D01*
G01*
X217815699Y-57194856D01*
G75*
G02*
X217855361Y-57085884I74317J34655D01*
G01*
X219156819Y-56479004D01*
G75*
G02*
X219265791Y-56518666I34655J-74317D01*
G01*
X219543029Y-57113204D01*
G75*
G02*
X219503367Y-57222176I-74317J-34655D01*
G01*
G37*
G36*
G01*
X220137294Y-58581638D02*
X218835836Y-59188518D01*
G75*
G02*
X218726864Y-59148856I-34655J74317D01*
G01*
X218449626Y-58554318D01*
G75*
G02*
X218489288Y-58445346I74317J34655D01*
G01*
X219790746Y-57838466D01*
G75*
G02*
X219899718Y-57878128I34655J-74317D01*
G01*
X220176956Y-58472666D01*
G75*
G02*
X220137294Y-58581638I-74317J-34655D01*
G01*
G37*
G36*
G01*
X224216167Y-55024561D02*
X222914709Y-55631441D01*
G75*
G02*
X222805737Y-55591779I-34655J74317D01*
G01*
X222528499Y-54997241D01*
G75*
G02*
X222568161Y-54888269I74317J34655D01*
G01*
X223869619Y-54281389D01*
G75*
G02*
X223978591Y-54321051I34655J-74317D01*
G01*
X224255829Y-54915589D01*
G75*
G02*
X224216167Y-55024561I-74317J-34655D01*
G01*
G37*
G36*
G01*
X224850095Y-56384023D02*
X223548637Y-56990903D01*
G75*
G02*
X223439665Y-56951241I-34655J74317D01*
G01*
X223162427Y-56356703D01*
G75*
G02*
X223202089Y-56247731I74317J34655D01*
G01*
X224503547Y-55640851D01*
G75*
G02*
X224612519Y-55680513I34655J-74317D01*
G01*
X224889757Y-56275051D01*
G75*
G02*
X224850095Y-56384023I-74317J-34655D01*
G01*
G37*
%TD*%
%TO.C,D75*%
G36*
G01*
X197000795Y-53923075D02*
X195699337Y-54529955D01*
G75*
G02*
X195590365Y-54490293I-34655J74317D01*
G01*
X195313127Y-53895755D01*
G75*
G02*
X195352789Y-53786783I74317J34655D01*
G01*
X196654247Y-53179903D01*
G75*
G02*
X196763219Y-53219565I34655J-74317D01*
G01*
X197040457Y-53814103D01*
G75*
G02*
X197000795Y-53923075I-74317J-34655D01*
G01*
G37*
G36*
G01*
X197634722Y-55282537D02*
X196333264Y-55889417D01*
G75*
G02*
X196224292Y-55849755I-34655J74317D01*
G01*
X195947054Y-55255217D01*
G75*
G02*
X195986716Y-55146245I74317J34655D01*
G01*
X197288174Y-54539365D01*
G75*
G02*
X197397146Y-54579027I34655J-74317D01*
G01*
X197674384Y-55173565D01*
G75*
G02*
X197634722Y-55282537I-74317J-34655D01*
G01*
G37*
G36*
G01*
X201713595Y-51725460D02*
X200412137Y-52332340D01*
G75*
G02*
X200303165Y-52292678I-34655J74317D01*
G01*
X200025927Y-51698140D01*
G75*
G02*
X200065589Y-51589168I74317J34655D01*
G01*
X201367047Y-50982288D01*
G75*
G02*
X201476019Y-51021950I34655J-74317D01*
G01*
X201753257Y-51616488D01*
G75*
G02*
X201713595Y-51725460I-74317J-34655D01*
G01*
G37*
G36*
G01*
X202347523Y-53084922D02*
X201046065Y-53691802D01*
G75*
G02*
X200937093Y-53652140I-34655J74317D01*
G01*
X200659855Y-53057602D01*
G75*
G02*
X200699517Y-52948630I74317J34655D01*
G01*
X202000975Y-52341750D01*
G75*
G02*
X202109947Y-52381412I34655J-74317D01*
G01*
X202387185Y-52975950D01*
G75*
G02*
X202347523Y-53084922I-74317J-34655D01*
G01*
G37*
%TD*%
%TO.C,D72*%
G36*
G01*
X177667853Y-57421285D02*
X176366395Y-58028165D01*
G75*
G02*
X176257423Y-57988503I-34655J74317D01*
G01*
X175980185Y-57393965D01*
G75*
G02*
X176019847Y-57284993I74317J34655D01*
G01*
X177321305Y-56678113D01*
G75*
G02*
X177430277Y-56717775I34655J-74317D01*
G01*
X177707515Y-57312313D01*
G75*
G02*
X177667853Y-57421285I-74317J-34655D01*
G01*
G37*
G36*
G01*
X178301780Y-58780747D02*
X177000322Y-59387627D01*
G75*
G02*
X176891350Y-59347965I-34655J74317D01*
G01*
X176614112Y-58753427D01*
G75*
G02*
X176653774Y-58644455I74317J34655D01*
G01*
X177955232Y-58037575D01*
G75*
G02*
X178064204Y-58077237I34655J-74317D01*
G01*
X178341442Y-58671775D01*
G75*
G02*
X178301780Y-58780747I-74317J-34655D01*
G01*
G37*
G36*
G01*
X182380653Y-55223670D02*
X181079195Y-55830550D01*
G75*
G02*
X180970223Y-55790888I-34655J74317D01*
G01*
X180692985Y-55196350D01*
G75*
G02*
X180732647Y-55087378I74317J34655D01*
G01*
X182034105Y-54480498D01*
G75*
G02*
X182143077Y-54520160I34655J-74317D01*
G01*
X182420315Y-55114698D01*
G75*
G02*
X182380653Y-55223670I-74317J-34655D01*
G01*
G37*
G36*
G01*
X183014581Y-56583132D02*
X181713123Y-57190012D01*
G75*
G02*
X181604151Y-57150350I-34655J74317D01*
G01*
X181326913Y-56555812D01*
G75*
G02*
X181366575Y-56446840I74317J34655D01*
G01*
X182668033Y-55839960D01*
G75*
G02*
X182777005Y-55879622I34655J-74317D01*
G01*
X183054243Y-56474160D01*
G75*
G02*
X183014581Y-56583132I-74317J-34655D01*
G01*
G37*
%TD*%
%TO.C,D68*%
G36*
G01*
X162561101Y-69982571D02*
X161259643Y-70589451D01*
G75*
G02*
X161150671Y-70549789I-34655J74317D01*
G01*
X160873433Y-69955251D01*
G75*
G02*
X160913095Y-69846279I74317J34655D01*
G01*
X162214553Y-69239399D01*
G75*
G02*
X162323525Y-69279061I34655J-74317D01*
G01*
X162600763Y-69873599D01*
G75*
G02*
X162561101Y-69982571I-74317J-34655D01*
G01*
G37*
G36*
G01*
X163195028Y-71342033D02*
X161893570Y-71948913D01*
G75*
G02*
X161784598Y-71909251I-34655J74317D01*
G01*
X161507360Y-71314713D01*
G75*
G02*
X161547022Y-71205741I74317J34655D01*
G01*
X162848480Y-70598861D01*
G75*
G02*
X162957452Y-70638523I34655J-74317D01*
G01*
X163234690Y-71233061D01*
G75*
G02*
X163195028Y-71342033I-74317J-34655D01*
G01*
G37*
G36*
G01*
X167273901Y-67784956D02*
X165972443Y-68391836D01*
G75*
G02*
X165863471Y-68352174I-34655J74317D01*
G01*
X165586233Y-67757636D01*
G75*
G02*
X165625895Y-67648664I74317J34655D01*
G01*
X166927353Y-67041784D01*
G75*
G02*
X167036325Y-67081446I34655J-74317D01*
G01*
X167313563Y-67675984D01*
G75*
G02*
X167273901Y-67784956I-74317J-34655D01*
G01*
G37*
G36*
G01*
X167907829Y-69144418D02*
X166606371Y-69751298D01*
G75*
G02*
X166497399Y-69711636I-34655J74317D01*
G01*
X166220161Y-69117098D01*
G75*
G02*
X166259823Y-69008126I74317J34655D01*
G01*
X167561281Y-68401246D01*
G75*
G02*
X167670253Y-68440908I34655J-74317D01*
G01*
X167947491Y-69035446D01*
G75*
G02*
X167907829Y-69144418I-74317J-34655D01*
G01*
G37*
%TD*%
%TO.C,D49*%
G36*
G01*
X68612627Y-55830551D02*
X67311169Y-55223671D01*
G75*
G02*
X67271507Y-55114699I34655J74317D01*
G01*
X67548745Y-54520161D01*
G75*
G02*
X67657717Y-54480499I74317J-34655D01*
G01*
X68959175Y-55087379D01*
G75*
G02*
X68998837Y-55196351I-34655J-74317D01*
G01*
X68721599Y-55790889D01*
G75*
G02*
X68612627Y-55830551I-74317J34655D01*
G01*
G37*
G36*
G01*
X67978699Y-57190013D02*
X66677241Y-56583133D01*
G75*
G02*
X66637579Y-56474161I34655J74317D01*
G01*
X66914817Y-55879623D01*
G75*
G02*
X67023789Y-55839961I74317J-34655D01*
G01*
X68325247Y-56446841D01*
G75*
G02*
X68364909Y-56555813I-34655J-74317D01*
G01*
X68087671Y-57150351D01*
G75*
G02*
X67978699Y-57190013I-74317J34655D01*
G01*
G37*
G36*
G01*
X73325427Y-58028166D02*
X72023969Y-57421286D01*
G75*
G02*
X71984307Y-57312314I34655J74317D01*
G01*
X72261545Y-56717776D01*
G75*
G02*
X72370517Y-56678114I74317J-34655D01*
G01*
X73671975Y-57284994D01*
G75*
G02*
X73711637Y-57393966I-34655J-74317D01*
G01*
X73434399Y-57988504D01*
G75*
G02*
X73325427Y-58028166I-74317J34655D01*
G01*
G37*
G36*
G01*
X72691500Y-59387628D02*
X71390042Y-58780748D01*
G75*
G02*
X71350380Y-58671776I34655J74317D01*
G01*
X71627618Y-58077238D01*
G75*
G02*
X71736590Y-58037576I74317J-34655D01*
G01*
X73038048Y-58644456D01*
G75*
G02*
X73077710Y-58753428I-34655J-74317D01*
G01*
X72800472Y-59347966D01*
G75*
G02*
X72691500Y-59387628I-74317J34655D01*
G01*
G37*
%TD*%
%TO.C,D46*%
G36*
G01*
X49279689Y-52332341D02*
X47978231Y-51725461D01*
G75*
G02*
X47938569Y-51616489I34655J74317D01*
G01*
X48215807Y-51021951D01*
G75*
G02*
X48324779Y-50982289I74317J-34655D01*
G01*
X49626237Y-51589169D01*
G75*
G02*
X49665899Y-51698141I-34655J-74317D01*
G01*
X49388661Y-52292679D01*
G75*
G02*
X49279689Y-52332341I-74317J34655D01*
G01*
G37*
G36*
G01*
X48645761Y-53691803D02*
X47344303Y-53084923D01*
G75*
G02*
X47304641Y-52975951I34655J74317D01*
G01*
X47581879Y-52381413D01*
G75*
G02*
X47690851Y-52341751I74317J-34655D01*
G01*
X48992309Y-52948631D01*
G75*
G02*
X49031971Y-53057603I-34655J-74317D01*
G01*
X48754733Y-53652141D01*
G75*
G02*
X48645761Y-53691803I-74317J34655D01*
G01*
G37*
G36*
G01*
X53992489Y-54529956D02*
X52691031Y-53923076D01*
G75*
G02*
X52651369Y-53814104I34655J74317D01*
G01*
X52928607Y-53219566D01*
G75*
G02*
X53037579Y-53179904I74317J-34655D01*
G01*
X54339037Y-53786784D01*
G75*
G02*
X54378699Y-53895756I-34655J-74317D01*
G01*
X54101461Y-54490294D01*
G75*
G02*
X53992489Y-54529956I-74317J34655D01*
G01*
G37*
G36*
G01*
X53358562Y-55889418D02*
X52057104Y-55282538D01*
G75*
G02*
X52017442Y-55173566I34655J74317D01*
G01*
X52294680Y-54579028D01*
G75*
G02*
X52403652Y-54539366I74317J-34655D01*
G01*
X53705110Y-55146246D01*
G75*
G02*
X53744772Y-55255218I-34655J-74317D01*
G01*
X53467534Y-55849756D01*
G75*
G02*
X53358562Y-55889418I-74317J34655D01*
G01*
G37*
%TD*%
%TO.C,D42*%
G36*
G01*
X26777115Y-55631441D02*
X25475657Y-55024561D01*
G75*
G02*
X25435995Y-54915589I34655J74317D01*
G01*
X25713233Y-54321051D01*
G75*
G02*
X25822205Y-54281389I74317J-34655D01*
G01*
X27123663Y-54888269D01*
G75*
G02*
X27163325Y-54997241I-34655J-74317D01*
G01*
X26886087Y-55591779D01*
G75*
G02*
X26777115Y-55631441I-74317J34655D01*
G01*
G37*
G36*
G01*
X26143187Y-56990903D02*
X24841729Y-56384023D01*
G75*
G02*
X24802067Y-56275051I34655J74317D01*
G01*
X25079305Y-55680513D01*
G75*
G02*
X25188277Y-55640851I74317J-34655D01*
G01*
X26489735Y-56247731D01*
G75*
G02*
X26529397Y-56356703I-34655J-74317D01*
G01*
X26252159Y-56951241D01*
G75*
G02*
X26143187Y-56990903I-74317J34655D01*
G01*
G37*
G36*
G01*
X31489915Y-57829056D02*
X30188457Y-57222176D01*
G75*
G02*
X30148795Y-57113204I34655J74317D01*
G01*
X30426033Y-56518666D01*
G75*
G02*
X30535005Y-56479004I74317J-34655D01*
G01*
X31836463Y-57085884D01*
G75*
G02*
X31876125Y-57194856I-34655J-74317D01*
G01*
X31598887Y-57789394D01*
G75*
G02*
X31489915Y-57829056I-74317J34655D01*
G01*
G37*
G36*
G01*
X30855988Y-59188518D02*
X29554530Y-58581638D01*
G75*
G02*
X29514868Y-58472666I34655J74317D01*
G01*
X29792106Y-57878128D01*
G75*
G02*
X29901078Y-57838466I74317J-34655D01*
G01*
X31202536Y-58445346D01*
G75*
G02*
X31242198Y-58554318I-34655J-74317D01*
G01*
X30964960Y-59148856D01*
G75*
G02*
X30855988Y-59188518I-74317J34655D01*
G01*
G37*
%TD*%
%TO.C,D80*%
G36*
G01*
X211473621Y-40002329D02*
X210172163Y-40609209D01*
G75*
G02*
X210063191Y-40569547I-34655J74317D01*
G01*
X209785953Y-39975009D01*
G75*
G02*
X209825615Y-39866037I74317J34655D01*
G01*
X211127073Y-39259157D01*
G75*
G02*
X211236045Y-39298819I34655J-74317D01*
G01*
X211513283Y-39893357D01*
G75*
G02*
X211473621Y-40002329I-74317J-34655D01*
G01*
G37*
G36*
G01*
X212107548Y-41361791D02*
X210806090Y-41968671D01*
G75*
G02*
X210697118Y-41929009I-34655J74317D01*
G01*
X210419880Y-41334471D01*
G75*
G02*
X210459542Y-41225499I74317J34655D01*
G01*
X211761000Y-40618619D01*
G75*
G02*
X211869972Y-40658281I34655J-74317D01*
G01*
X212147210Y-41252819D01*
G75*
G02*
X212107548Y-41361791I-74317J-34655D01*
G01*
G37*
G36*
G01*
X216186421Y-37804714D02*
X214884963Y-38411594D01*
G75*
G02*
X214775991Y-38371932I-34655J74317D01*
G01*
X214498753Y-37777394D01*
G75*
G02*
X214538415Y-37668422I74317J34655D01*
G01*
X215839873Y-37061542D01*
G75*
G02*
X215948845Y-37101204I34655J-74317D01*
G01*
X216226083Y-37695742D01*
G75*
G02*
X216186421Y-37804714I-74317J-34655D01*
G01*
G37*
G36*
G01*
X216820349Y-39164176D02*
X215518891Y-39771056D01*
G75*
G02*
X215409919Y-39731394I-34655J74317D01*
G01*
X215132681Y-39136856D01*
G75*
G02*
X215172343Y-39027884I74317J34655D01*
G01*
X216473801Y-38421004D01*
G75*
G02*
X216582773Y-38460666I34655J-74317D01*
G01*
X216860011Y-39055204D01*
G75*
G02*
X216820349Y-39164176I-74317J-34655D01*
G01*
G37*
%TD*%
%TO.C,D74*%
G36*
G01*
X188971046Y-36703230D02*
X187669588Y-37310110D01*
G75*
G02*
X187560616Y-37270448I-34655J74317D01*
G01*
X187283378Y-36675910D01*
G75*
G02*
X187323040Y-36566938I74317J34655D01*
G01*
X188624498Y-35960058D01*
G75*
G02*
X188733470Y-35999720I34655J-74317D01*
G01*
X189010708Y-36594258D01*
G75*
G02*
X188971046Y-36703230I-74317J-34655D01*
G01*
G37*
G36*
G01*
X189604973Y-38062692D02*
X188303515Y-38669572D01*
G75*
G02*
X188194543Y-38629910I-34655J74317D01*
G01*
X187917305Y-38035372D01*
G75*
G02*
X187956967Y-37926400I74317J34655D01*
G01*
X189258425Y-37319520D01*
G75*
G02*
X189367397Y-37359182I34655J-74317D01*
G01*
X189644635Y-37953720D01*
G75*
G02*
X189604973Y-38062692I-74317J-34655D01*
G01*
G37*
G36*
G01*
X193683846Y-34505615D02*
X192382388Y-35112495D01*
G75*
G02*
X192273416Y-35072833I-34655J74317D01*
G01*
X191996178Y-34478295D01*
G75*
G02*
X192035840Y-34369323I74317J34655D01*
G01*
X193337298Y-33762443D01*
G75*
G02*
X193446270Y-33802105I34655J-74317D01*
G01*
X193723508Y-34396643D01*
G75*
G02*
X193683846Y-34505615I-74317J-34655D01*
G01*
G37*
G36*
G01*
X194317774Y-35865077D02*
X193016316Y-36471957D01*
G75*
G02*
X192907344Y-36432295I-34655J74317D01*
G01*
X192630106Y-35837757D01*
G75*
G02*
X192669768Y-35728785I74317J34655D01*
G01*
X193971226Y-35121905D01*
G75*
G02*
X194080198Y-35161567I34655J-74317D01*
G01*
X194357436Y-35756105D01*
G75*
G02*
X194317774Y-35865077I-74317J-34655D01*
G01*
G37*
%TD*%
%TO.C,D73*%
G36*
G01*
X169638109Y-40201440D02*
X168336651Y-40808320D01*
G75*
G02*
X168227679Y-40768658I-34655J74317D01*
G01*
X167950441Y-40174120D01*
G75*
G02*
X167990103Y-40065148I74317J34655D01*
G01*
X169291561Y-39458268D01*
G75*
G02*
X169400533Y-39497930I34655J-74317D01*
G01*
X169677771Y-40092468D01*
G75*
G02*
X169638109Y-40201440I-74317J-34655D01*
G01*
G37*
G36*
G01*
X170272036Y-41560902D02*
X168970578Y-42167782D01*
G75*
G02*
X168861606Y-42128120I-34655J74317D01*
G01*
X168584368Y-41533582D01*
G75*
G02*
X168624030Y-41424610I74317J34655D01*
G01*
X169925488Y-40817730D01*
G75*
G02*
X170034460Y-40857392I34655J-74317D01*
G01*
X170311698Y-41451930D01*
G75*
G02*
X170272036Y-41560902I-74317J-34655D01*
G01*
G37*
G36*
G01*
X174350909Y-38003825D02*
X173049451Y-38610705D01*
G75*
G02*
X172940479Y-38571043I-34655J74317D01*
G01*
X172663241Y-37976505D01*
G75*
G02*
X172702903Y-37867533I74317J34655D01*
G01*
X174004361Y-37260653D01*
G75*
G02*
X174113333Y-37300315I34655J-74317D01*
G01*
X174390571Y-37894853D01*
G75*
G02*
X174350909Y-38003825I-74317J-34655D01*
G01*
G37*
G36*
G01*
X174984837Y-39363287D02*
X173683379Y-39970167D01*
G75*
G02*
X173574407Y-39930505I-34655J74317D01*
G01*
X173297169Y-39335967D01*
G75*
G02*
X173336831Y-39226995I74317J34655D01*
G01*
X174638289Y-38620115D01*
G75*
G02*
X174747261Y-38659777I34655J-74317D01*
G01*
X175024499Y-39254315D01*
G75*
G02*
X174984837Y-39363287I-74317J-34655D01*
G01*
G37*
%TD*%
%TO.C,D67*%
G36*
G01*
X154531354Y-52762723D02*
X153229896Y-53369603D01*
G75*
G02*
X153120924Y-53329941I-34655J74317D01*
G01*
X152843686Y-52735403D01*
G75*
G02*
X152883348Y-52626431I74317J34655D01*
G01*
X154184806Y-52019551D01*
G75*
G02*
X154293778Y-52059213I34655J-74317D01*
G01*
X154571016Y-52653751D01*
G75*
G02*
X154531354Y-52762723I-74317J-34655D01*
G01*
G37*
G36*
G01*
X155165281Y-54122185D02*
X153863823Y-54729065D01*
G75*
G02*
X153754851Y-54689403I-34655J74317D01*
G01*
X153477613Y-54094865D01*
G75*
G02*
X153517275Y-53985893I74317J34655D01*
G01*
X154818733Y-53379013D01*
G75*
G02*
X154927705Y-53418675I34655J-74317D01*
G01*
X155204943Y-54013213D01*
G75*
G02*
X155165281Y-54122185I-74317J-34655D01*
G01*
G37*
G36*
G01*
X159244154Y-50565108D02*
X157942696Y-51171988D01*
G75*
G02*
X157833724Y-51132326I-34655J74317D01*
G01*
X157556486Y-50537788D01*
G75*
G02*
X157596148Y-50428816I74317J34655D01*
G01*
X158897606Y-49821936D01*
G75*
G02*
X159006578Y-49861598I34655J-74317D01*
G01*
X159283816Y-50456136D01*
G75*
G02*
X159244154Y-50565108I-74317J-34655D01*
G01*
G37*
G36*
G01*
X159878082Y-51924570D02*
X158576624Y-52531450D01*
G75*
G02*
X158467652Y-52491788I-34655J74317D01*
G01*
X158190414Y-51897250D01*
G75*
G02*
X158230076Y-51788278I74317J34655D01*
G01*
X159531534Y-51181398D01*
G75*
G02*
X159640506Y-51221060I34655J-74317D01*
G01*
X159917744Y-51815598D01*
G75*
G02*
X159878082Y-51924570I-74317J-34655D01*
G01*
G37*
%TD*%
%TO.C,D66*%
G36*
G01*
X138368048Y-63058236D02*
X137066590Y-63665116D01*
G75*
G02*
X136957618Y-63625454I-34655J74317D01*
G01*
X136680380Y-63030916D01*
G75*
G02*
X136720042Y-62921944I74317J34655D01*
G01*
X138021500Y-62315064D01*
G75*
G02*
X138130472Y-62354726I34655J-74317D01*
G01*
X138407710Y-62949264D01*
G75*
G02*
X138368048Y-63058236I-74317J-34655D01*
G01*
G37*
G36*
G01*
X139001975Y-64417698D02*
X137700517Y-65024578D01*
G75*
G02*
X137591545Y-64984916I-34655J74317D01*
G01*
X137314307Y-64390378D01*
G75*
G02*
X137353969Y-64281406I74317J34655D01*
G01*
X138655427Y-63674526D01*
G75*
G02*
X138764399Y-63714188I34655J-74317D01*
G01*
X139041637Y-64308726D01*
G75*
G02*
X139001975Y-64417698I-74317J-34655D01*
G01*
G37*
G36*
G01*
X143080848Y-60860621D02*
X141779390Y-61467501D01*
G75*
G02*
X141670418Y-61427839I-34655J74317D01*
G01*
X141393180Y-60833301D01*
G75*
G02*
X141432842Y-60724329I74317J34655D01*
G01*
X142734300Y-60117449D01*
G75*
G02*
X142843272Y-60157111I34655J-74317D01*
G01*
X143120510Y-60751649D01*
G75*
G02*
X143080848Y-60860621I-74317J-34655D01*
G01*
G37*
G36*
G01*
X143714776Y-62220083D02*
X142413318Y-62826963D01*
G75*
G02*
X142304346Y-62787301I-34655J74317D01*
G01*
X142027108Y-62192763D01*
G75*
G02*
X142066770Y-62083791I74317J34655D01*
G01*
X143368228Y-61476911D01*
G75*
G02*
X143477200Y-61516573I34655J-74317D01*
G01*
X143754438Y-62111111D01*
G75*
G02*
X143714776Y-62220083I-74317J-34655D01*
G01*
G37*
%TD*%
%TO.C,D55*%
G36*
G01*
X107912430Y-61467505D02*
X106610972Y-60860625D01*
G75*
G02*
X106571310Y-60751653I34655J74317D01*
G01*
X106848548Y-60157115D01*
G75*
G02*
X106957520Y-60117453I74317J-34655D01*
G01*
X108258978Y-60724333D01*
G75*
G02*
X108298640Y-60833305I-34655J-74317D01*
G01*
X108021402Y-61427843D01*
G75*
G02*
X107912430Y-61467505I-74317J34655D01*
G01*
G37*
G36*
G01*
X107278502Y-62826967D02*
X105977044Y-62220087D01*
G75*
G02*
X105937382Y-62111115I34655J74317D01*
G01*
X106214620Y-61516577D01*
G75*
G02*
X106323592Y-61476915I74317J-34655D01*
G01*
X107625050Y-62083795D01*
G75*
G02*
X107664712Y-62192767I-34655J-74317D01*
G01*
X107387474Y-62787305D01*
G75*
G02*
X107278502Y-62826967I-74317J34655D01*
G01*
G37*
G36*
G01*
X112625230Y-63665120D02*
X111323772Y-63058240D01*
G75*
G02*
X111284110Y-62949268I34655J74317D01*
G01*
X111561348Y-62354730D01*
G75*
G02*
X111670320Y-62315068I74317J-34655D01*
G01*
X112971778Y-62921948D01*
G75*
G02*
X113011440Y-63030920I-34655J-74317D01*
G01*
X112734202Y-63625458D01*
G75*
G02*
X112625230Y-63665120I-74317J34655D01*
G01*
G37*
G36*
G01*
X111991303Y-65024582D02*
X110689845Y-64417702D01*
G75*
G02*
X110650183Y-64308730I34655J74317D01*
G01*
X110927421Y-63714192D01*
G75*
G02*
X111036393Y-63674530I74317J-34655D01*
G01*
X112337851Y-64281410D01*
G75*
G02*
X112377513Y-64390382I-34655J-74317D01*
G01*
X112100275Y-64984920D01*
G75*
G02*
X111991303Y-65024582I-74317J34655D01*
G01*
G37*
%TD*%
%TO.C,D48*%
G36*
G01*
X76642373Y-38610703D02*
X75340915Y-38003823D01*
G75*
G02*
X75301253Y-37894851I34655J74317D01*
G01*
X75578491Y-37300313D01*
G75*
G02*
X75687463Y-37260651I74317J-34655D01*
G01*
X76988921Y-37867531D01*
G75*
G02*
X77028583Y-37976503I-34655J-74317D01*
G01*
X76751345Y-38571041D01*
G75*
G02*
X76642373Y-38610703I-74317J34655D01*
G01*
G37*
G36*
G01*
X76008445Y-39970165D02*
X74706987Y-39363285D01*
G75*
G02*
X74667325Y-39254313I34655J74317D01*
G01*
X74944563Y-38659775D01*
G75*
G02*
X75053535Y-38620113I74317J-34655D01*
G01*
X76354993Y-39226993D01*
G75*
G02*
X76394655Y-39335965I-34655J-74317D01*
G01*
X76117417Y-39930503D01*
G75*
G02*
X76008445Y-39970165I-74317J34655D01*
G01*
G37*
G36*
G01*
X81355173Y-40808318D02*
X80053715Y-40201438D01*
G75*
G02*
X80014053Y-40092466I34655J74317D01*
G01*
X80291291Y-39497928D01*
G75*
G02*
X80400263Y-39458266I74317J-34655D01*
G01*
X81701721Y-40065146D01*
G75*
G02*
X81741383Y-40174118I-34655J-74317D01*
G01*
X81464145Y-40768656D01*
G75*
G02*
X81355173Y-40808318I-74317J34655D01*
G01*
G37*
G36*
G01*
X80721246Y-42167780D02*
X79419788Y-41560900D01*
G75*
G02*
X79380126Y-41451928I34655J74317D01*
G01*
X79657364Y-40857390D01*
G75*
G02*
X79766336Y-40817728I74317J-34655D01*
G01*
X81067794Y-41424608D01*
G75*
G02*
X81107456Y-41533580I-34655J-74317D01*
G01*
X80830218Y-42128118D01*
G75*
G02*
X80721246Y-42167780I-74317J34655D01*
G01*
G37*
%TD*%
%TO.C,D47*%
G36*
G01*
X57309436Y-35112496D02*
X56007978Y-34505616D01*
G75*
G02*
X55968316Y-34396644I34655J74317D01*
G01*
X56245554Y-33802106D01*
G75*
G02*
X56354526Y-33762444I74317J-34655D01*
G01*
X57655984Y-34369324D01*
G75*
G02*
X57695646Y-34478296I-34655J-74317D01*
G01*
X57418408Y-35072834D01*
G75*
G02*
X57309436Y-35112496I-74317J34655D01*
G01*
G37*
G36*
G01*
X56675508Y-36471958D02*
X55374050Y-35865078D01*
G75*
G02*
X55334388Y-35756106I34655J74317D01*
G01*
X55611626Y-35161568D01*
G75*
G02*
X55720598Y-35121906I74317J-34655D01*
G01*
X57022056Y-35728786D01*
G75*
G02*
X57061718Y-35837758I-34655J-74317D01*
G01*
X56784480Y-36432296D01*
G75*
G02*
X56675508Y-36471958I-74317J34655D01*
G01*
G37*
G36*
G01*
X62022236Y-37310111D02*
X60720778Y-36703231D01*
G75*
G02*
X60681116Y-36594259I34655J74317D01*
G01*
X60958354Y-35999721D01*
G75*
G02*
X61067326Y-35960059I74317J-34655D01*
G01*
X62368784Y-36566939D01*
G75*
G02*
X62408446Y-36675911I-34655J-74317D01*
G01*
X62131208Y-37270449D01*
G75*
G02*
X62022236Y-37310111I-74317J34655D01*
G01*
G37*
G36*
G01*
X61388309Y-38669573D02*
X60086851Y-38062693D01*
G75*
G02*
X60047189Y-37953721I34655J74317D01*
G01*
X60324427Y-37359183D01*
G75*
G02*
X60433399Y-37319521I74317J-34655D01*
G01*
X61734857Y-37926401D01*
G75*
G02*
X61774519Y-38035373I-34655J-74317D01*
G01*
X61497281Y-38629911D01*
G75*
G02*
X61388309Y-38669573I-74317J34655D01*
G01*
G37*
%TD*%
%TO.C,D41*%
G36*
G01*
X34806859Y-38411595D02*
X33505401Y-37804715D01*
G75*
G02*
X33465739Y-37695743I34655J74317D01*
G01*
X33742977Y-37101205D01*
G75*
G02*
X33851949Y-37061543I74317J-34655D01*
G01*
X35153407Y-37668423D01*
G75*
G02*
X35193069Y-37777395I-34655J-74317D01*
G01*
X34915831Y-38371933D01*
G75*
G02*
X34806859Y-38411595I-74317J34655D01*
G01*
G37*
G36*
G01*
X34172931Y-39771057D02*
X32871473Y-39164177D01*
G75*
G02*
X32831811Y-39055205I34655J74317D01*
G01*
X33109049Y-38460667D01*
G75*
G02*
X33218021Y-38421005I74317J-34655D01*
G01*
X34519479Y-39027885D01*
G75*
G02*
X34559141Y-39136857I-34655J-74317D01*
G01*
X34281903Y-39731395D01*
G75*
G02*
X34172931Y-39771057I-74317J34655D01*
G01*
G37*
G36*
G01*
X39519659Y-40609210D02*
X38218201Y-40002330D01*
G75*
G02*
X38178539Y-39893358I34655J74317D01*
G01*
X38455777Y-39298820D01*
G75*
G02*
X38564749Y-39259158I74317J-34655D01*
G01*
X39866207Y-39866038D01*
G75*
G02*
X39905869Y-39975010I-34655J-74317D01*
G01*
X39628631Y-40569548D01*
G75*
G02*
X39519659Y-40609210I-74317J34655D01*
G01*
G37*
G36*
G01*
X38885732Y-41968672D02*
X37584274Y-41361792D01*
G75*
G02*
X37544612Y-41252820I34655J74317D01*
G01*
X37821850Y-40658282D01*
G75*
G02*
X37930822Y-40618620I74317J-34655D01*
G01*
X39232280Y-41225500D01*
G75*
G02*
X39271942Y-41334472I-34655J-74317D01*
G01*
X38994704Y-41929010D01*
G75*
G02*
X38885732Y-41968672I-74317J34655D01*
G01*
G37*
%TD*%
D10*
%TO.C,D40*%
G36*
X223702138Y-98035318D02*
G01*
X224209279Y-99122887D01*
X223393602Y-99503244D01*
X222886461Y-98415675D01*
X223702138Y-98035318D01*
G37*
G36*
X226692954Y-96640678D02*
G01*
X227200095Y-97728247D01*
X226384418Y-98108604D01*
X225877277Y-97021035D01*
X226692954Y-96640678D01*
G37*
%TD*%
%TO.C,D39*%
G36*
X204369202Y-101533525D02*
G01*
X204876343Y-102621094D01*
X204060666Y-103001451D01*
X203553525Y-101913882D01*
X204369202Y-101533525D01*
G37*
G36*
X207360018Y-100138885D02*
G01*
X207867159Y-101226454D01*
X207051482Y-101606811D01*
X206544341Y-100519242D01*
X207360018Y-100138885D01*
G37*
%TD*%
%TO.C,D38*%
G36*
X195601720Y-127689430D02*
G01*
X196108861Y-128776999D01*
X195293184Y-129157356D01*
X194786043Y-128069787D01*
X195601720Y-127689430D01*
G37*
G36*
X198592536Y-126294790D02*
G01*
X199099677Y-127382359D01*
X198284000Y-127762716D01*
X197776859Y-126675147D01*
X198592536Y-126294790D01*
G37*
%TD*%
%TO.C,D37*%
G36*
X178278966Y-136951032D02*
G01*
X178967257Y-137934015D01*
X178230020Y-138450234D01*
X177541729Y-137467251D01*
X178278966Y-136951032D01*
G37*
G36*
X180982168Y-135058230D02*
G01*
X181670459Y-136041213D01*
X180933222Y-136557432D01*
X180244931Y-135574449D01*
X180982168Y-135058230D01*
G37*
%TD*%
%TO.C,D36*%
G36*
X162827647Y-149079990D02*
G01*
X163676175Y-149928518D01*
X163039779Y-150564914D01*
X162191251Y-149716386D01*
X162827647Y-149079990D01*
G37*
G36*
X165161099Y-146746538D02*
G01*
X166009627Y-147595066D01*
X165373231Y-148231462D01*
X164524703Y-147382934D01*
X165161099Y-146746538D01*
G37*
%TD*%
%TO.C,D35*%
G36*
X92061412Y-154277227D02*
G01*
X91212884Y-155125755D01*
X90576488Y-154489359D01*
X91425016Y-153640831D01*
X92061412Y-154277227D01*
G37*
G36*
X94394864Y-156610679D02*
G01*
X93546336Y-157459207D01*
X92909940Y-156822811D01*
X93758468Y-155974283D01*
X94394864Y-156610679D01*
G37*
%TD*%
%TO.C,D34*%
G36*
X77433624Y-141166815D02*
G01*
X76745333Y-142149798D01*
X76008096Y-141633579D01*
X76696387Y-140650596D01*
X77433624Y-141166815D01*
G37*
G36*
X80136826Y-143059617D02*
G01*
X79448535Y-144042600D01*
X78711298Y-143526381D01*
X79399589Y-142543398D01*
X80136826Y-143059617D01*
G37*
%TD*%
%TO.C,D33*%
G36*
X60751465Y-130795671D02*
G01*
X60244324Y-131883240D01*
X59428647Y-131502883D01*
X59935788Y-130415314D01*
X60751465Y-130795671D01*
G37*
G36*
X63742281Y-132190311D02*
G01*
X63235140Y-133277880D01*
X62419463Y-132897523D01*
X62926604Y-131809954D01*
X63742281Y-132190311D01*
G37*
%TD*%
%TO.C,D32*%
G36*
X51983983Y-104639769D02*
G01*
X51476842Y-105727338D01*
X50661165Y-105346981D01*
X51168306Y-104259412D01*
X51983983Y-104639769D01*
G37*
G36*
X54974799Y-106034409D02*
G01*
X54467658Y-107121978D01*
X53651981Y-106741621D01*
X54159122Y-105654052D01*
X54974799Y-106034409D01*
G37*
%TD*%
%TO.C,D31*%
G36*
X32651046Y-101141564D02*
G01*
X32143905Y-102229133D01*
X31328228Y-101848776D01*
X31835369Y-100761207D01*
X32651046Y-101141564D01*
G37*
G36*
X35641862Y-102536204D02*
G01*
X35134721Y-103623773D01*
X34319044Y-103243416D01*
X34826185Y-102155847D01*
X35641862Y-102536204D01*
G37*
%TD*%
%TO.C,D30*%
G36*
X238174967Y-84114571D02*
G01*
X238682108Y-85202140D01*
X237866431Y-85582497D01*
X237359290Y-84494928D01*
X238174967Y-84114571D01*
G37*
G36*
X241165783Y-82719931D02*
G01*
X241672924Y-83807500D01*
X240857247Y-84187857D01*
X240350106Y-83100288D01*
X241165783Y-82719931D01*
G37*
%TD*%
%TO.C,D29*%
G36*
X215672392Y-80815472D02*
G01*
X216179533Y-81903041D01*
X215363856Y-82283398D01*
X214856715Y-81195829D01*
X215672392Y-80815472D01*
G37*
G36*
X218663208Y-79420832D02*
G01*
X219170349Y-80508401D01*
X218354672Y-80888758D01*
X217847531Y-79801189D01*
X218663208Y-79420832D01*
G37*
%TD*%
%TO.C,D28*%
G36*
X196339454Y-84313677D02*
G01*
X196846595Y-85401246D01*
X196030918Y-85781603D01*
X195523777Y-84694034D01*
X196339454Y-84313677D01*
G37*
G36*
X199330270Y-82919037D02*
G01*
X199837411Y-84006606D01*
X199021734Y-84386963D01*
X198514593Y-83299394D01*
X199330270Y-82919037D01*
G37*
%TD*%
%TO.C,D27*%
G36*
X181232698Y-96874966D02*
G01*
X181739839Y-97962535D01*
X180924162Y-98342892D01*
X180417021Y-97255323D01*
X181232698Y-96874966D01*
G37*
G36*
X184223514Y-95480326D02*
G01*
X184730655Y-96567895D01*
X183914978Y-96948252D01*
X183407837Y-95860683D01*
X184223514Y-95480326D01*
G37*
%TD*%
%TO.C,D26*%
G36*
X165069395Y-107170481D02*
G01*
X165576536Y-108258050D01*
X164760859Y-108638407D01*
X164253718Y-107550838D01*
X165069395Y-107170481D01*
G37*
G36*
X168060211Y-105775841D02*
G01*
X168567352Y-106863410D01*
X167751675Y-107243767D01*
X167244534Y-106156198D01*
X168060211Y-105775841D01*
G37*
%TD*%
%TO.C,D25*%
G36*
X91283786Y-110276725D02*
G01*
X90776645Y-111364294D01*
X89960968Y-110983937D01*
X90468109Y-109896368D01*
X91283786Y-110276725D01*
G37*
G36*
X94274602Y-111671365D02*
G01*
X93767461Y-112758934D01*
X92951784Y-112378577D01*
X93458925Y-111291008D01*
X94274602Y-111671365D01*
G37*
%TD*%
%TO.C,D24*%
G36*
X75120486Y-99981211D02*
G01*
X74613345Y-101068780D01*
X73797668Y-100688423D01*
X74304809Y-99600854D01*
X75120486Y-99981211D01*
G37*
G36*
X78111302Y-101375851D02*
G01*
X77604161Y-102463420D01*
X76788484Y-102083063D01*
X77295625Y-100995494D01*
X78111302Y-101375851D01*
G37*
%TD*%
%TO.C,D23*%
G36*
X60013730Y-87419922D02*
G01*
X59506589Y-88507491D01*
X58690912Y-88127134D01*
X59198053Y-87039565D01*
X60013730Y-87419922D01*
G37*
G36*
X63004546Y-88814562D02*
G01*
X62497405Y-89902131D01*
X61681728Y-89521774D01*
X62188869Y-88434205D01*
X63004546Y-88814562D01*
G37*
%TD*%
%TO.C,D22*%
G36*
X40680793Y-83921717D02*
G01*
X40173652Y-85009286D01*
X39357975Y-84628929D01*
X39865116Y-83541360D01*
X40680793Y-83921717D01*
G37*
G36*
X43671609Y-85316357D02*
G01*
X43164468Y-86403926D01*
X42348791Y-86023569D01*
X42855932Y-84936000D01*
X43671609Y-85316357D01*
G37*
%TD*%
%TO.C,D21*%
G36*
X18178217Y-87220816D02*
G01*
X17671076Y-88308385D01*
X16855399Y-87928028D01*
X17362540Y-86840459D01*
X18178217Y-87220816D01*
G37*
G36*
X21169033Y-88615456D02*
G01*
X20661892Y-89703025D01*
X19846215Y-89322668D01*
X20353356Y-88235099D01*
X21169033Y-88615456D01*
G37*
%TD*%
%TO.C,D20*%
G36*
X230145221Y-66894722D02*
G01*
X230652362Y-67982291D01*
X229836685Y-68362648D01*
X229329544Y-67275079D01*
X230145221Y-66894722D01*
G37*
G36*
X233136037Y-65500082D02*
G01*
X233643178Y-66587651D01*
X232827501Y-66968008D01*
X232320360Y-65880439D01*
X233136037Y-65500082D01*
G37*
%TD*%
%TO.C,D19*%
G36*
X207642645Y-63595623D02*
G01*
X208149786Y-64683192D01*
X207334109Y-65063549D01*
X206826968Y-63975980D01*
X207642645Y-63595623D01*
G37*
G36*
X210633461Y-62200983D02*
G01*
X211140602Y-63288552D01*
X210324925Y-63668909D01*
X209817784Y-62581340D01*
X210633461Y-62200983D01*
G37*
%TD*%
%TO.C,D18*%
G36*
X188309707Y-67093831D02*
G01*
X188816848Y-68181400D01*
X188001171Y-68561757D01*
X187494030Y-67474188D01*
X188309707Y-67093831D01*
G37*
G36*
X191300523Y-65699191D02*
G01*
X191807664Y-66786760D01*
X190991987Y-67167117D01*
X190484846Y-66079548D01*
X191300523Y-65699191D01*
G37*
%TD*%
%TO.C,D17*%
G36*
X173202952Y-79655118D02*
G01*
X173710093Y-80742687D01*
X172894416Y-81123044D01*
X172387275Y-80035475D01*
X173202952Y-79655118D01*
G37*
G36*
X176193768Y-78260478D02*
G01*
X176700909Y-79348047D01*
X175885232Y-79728404D01*
X175378091Y-78640835D01*
X176193768Y-78260478D01*
G37*
%TD*%
%TO.C,D16*%
G36*
X157039652Y-89950634D02*
G01*
X157546793Y-91038203D01*
X156731116Y-91418560D01*
X156223975Y-90330991D01*
X157039652Y-89950634D01*
G37*
G36*
X160030468Y-88555994D02*
G01*
X160537609Y-89643563D01*
X159721932Y-90023920D01*
X159214791Y-88936351D01*
X160030468Y-88555994D01*
G37*
%TD*%
%TO.C,D15*%
G36*
X99313534Y-93056878D02*
G01*
X98806393Y-94144447D01*
X97990716Y-93764090D01*
X98497857Y-92676521D01*
X99313534Y-93056878D01*
G37*
G36*
X102304350Y-94451518D02*
G01*
X101797209Y-95539087D01*
X100981532Y-95158730D01*
X101488673Y-94071161D01*
X102304350Y-94451518D01*
G37*
%TD*%
%TO.C,D14*%
G36*
X83150232Y-82761360D02*
G01*
X82643091Y-83848929D01*
X81827414Y-83468572D01*
X82334555Y-82381003D01*
X83150232Y-82761360D01*
G37*
G36*
X86141048Y-84156000D02*
G01*
X85633907Y-85243569D01*
X84818230Y-84863212D01*
X85325371Y-83775643D01*
X86141048Y-84156000D01*
G37*
%TD*%
%TO.C,D13*%
G36*
X68043474Y-70200078D02*
G01*
X67536333Y-71287647D01*
X66720656Y-70907290D01*
X67227797Y-69819721D01*
X68043474Y-70200078D01*
G37*
G36*
X71034290Y-71594718D02*
G01*
X70527149Y-72682287D01*
X69711472Y-72301930D01*
X70218613Y-71214361D01*
X71034290Y-71594718D01*
G37*
%TD*%
%TO.C,D12*%
G36*
X48710537Y-66701870D02*
G01*
X48203396Y-67789439D01*
X47387719Y-67409082D01*
X47894860Y-66321513D01*
X48710537Y-66701870D01*
G37*
G36*
X51701353Y-68096510D02*
G01*
X51194212Y-69184079D01*
X50378535Y-68803722D01*
X50885676Y-67716153D01*
X51701353Y-68096510D01*
G37*
%TD*%
%TO.C,D11*%
G36*
X26207964Y-70000968D02*
G01*
X25700823Y-71088537D01*
X24885146Y-70708180D01*
X25392287Y-69620611D01*
X26207964Y-70000968D01*
G37*
G36*
X29198780Y-71395608D02*
G01*
X28691639Y-72483177D01*
X27875962Y-72102820D01*
X28383103Y-71015251D01*
X29198780Y-71395608D01*
G37*
%TD*%
%TO.C,D10*%
G36*
X222115473Y-49674876D02*
G01*
X222622614Y-50762445D01*
X221806937Y-51142802D01*
X221299796Y-50055233D01*
X222115473Y-49674876D01*
G37*
G36*
X225106289Y-48280236D02*
G01*
X225613430Y-49367805D01*
X224797753Y-49748162D01*
X224290612Y-48660593D01*
X225106289Y-48280236D01*
G37*
%TD*%
%TO.C,D9*%
G36*
X199612898Y-46375773D02*
G01*
X200120039Y-47463342D01*
X199304362Y-47843699D01*
X198797221Y-46756130D01*
X199612898Y-46375773D01*
G37*
G36*
X202603714Y-44981133D02*
G01*
X203110855Y-46068702D01*
X202295178Y-46449059D01*
X201788037Y-45361490D01*
X202603714Y-44981133D01*
G37*
%TD*%
%TO.C,D8*%
G36*
X180279961Y-49873985D02*
G01*
X180787102Y-50961554D01*
X179971425Y-51341911D01*
X179464284Y-50254342D01*
X180279961Y-49873985D01*
G37*
G36*
X183270777Y-48479345D02*
G01*
X183777918Y-49566914D01*
X182962241Y-49947271D01*
X182455100Y-48859702D01*
X183270777Y-48479345D01*
G37*
%TD*%
%TO.C,D7*%
G36*
X165173203Y-62435269D02*
G01*
X165680344Y-63522838D01*
X164864667Y-63903195D01*
X164357526Y-62815626D01*
X165173203Y-62435269D01*
G37*
G36*
X168164019Y-61040629D02*
G01*
X168671160Y-62128198D01*
X167855483Y-62508555D01*
X167348342Y-61420986D01*
X168164019Y-61040629D01*
G37*
%TD*%
%TO.C,D6*%
G36*
X149009907Y-72730786D02*
G01*
X149517048Y-73818355D01*
X148701371Y-74198712D01*
X148194230Y-73111143D01*
X149009907Y-72730786D01*
G37*
G36*
X152000723Y-71336146D02*
G01*
X152507864Y-72423715D01*
X151692187Y-72804072D01*
X151185046Y-71716503D01*
X152000723Y-71336146D01*
G37*
%TD*%
%TO.C,D5*%
G36*
X107343281Y-75837031D02*
G01*
X106836140Y-76924600D01*
X106020463Y-76544243D01*
X106527604Y-75456674D01*
X107343281Y-75837031D01*
G37*
G36*
X110334097Y-77231671D02*
G01*
X109826956Y-78319240D01*
X109011279Y-77938883D01*
X109518420Y-76851314D01*
X110334097Y-77231671D01*
G37*
%TD*%
%TO.C,D4*%
G36*
X91179980Y-65541514D02*
G01*
X90672839Y-66629083D01*
X89857162Y-66248726D01*
X90364303Y-65161157D01*
X91179980Y-65541514D01*
G37*
G36*
X94170796Y-66936154D02*
G01*
X93663655Y-68023723D01*
X92847978Y-67643366D01*
X93355119Y-66555797D01*
X94170796Y-66936154D01*
G37*
%TD*%
%TO.C,D3*%
G36*
X76073224Y-52980231D02*
G01*
X75566083Y-54067800D01*
X74750406Y-53687443D01*
X75257547Y-52599874D01*
X76073224Y-52980231D01*
G37*
G36*
X79064040Y-54374871D02*
G01*
X78556899Y-55462440D01*
X77741222Y-55082083D01*
X78248363Y-53994514D01*
X79064040Y-54374871D01*
G37*
%TD*%
%TO.C,D2*%
G36*
X56740286Y-49482019D02*
G01*
X56233145Y-50569588D01*
X55417468Y-50189231D01*
X55924609Y-49101662D01*
X56740286Y-49482019D01*
G37*
G36*
X59731102Y-50876659D02*
G01*
X59223961Y-51964228D01*
X58408284Y-51583871D01*
X58915425Y-50496302D01*
X59731102Y-50876659D01*
G37*
%TD*%
%TO.C,D1*%
G36*
X34237707Y-52781120D02*
G01*
X33730566Y-53868689D01*
X32914889Y-53488332D01*
X33422030Y-52400763D01*
X34237707Y-52781120D01*
G37*
G36*
X37228523Y-54175760D02*
G01*
X36721382Y-55263329D01*
X35905705Y-54882972D01*
X36412846Y-53795403D01*
X37228523Y-54175760D01*
G37*
%TD*%
M02*
