%TF.GenerationSoftware,KiCad,Pcbnew,(5.1.9)-1*%
%TF.CreationDate,2021-12-09T21:31:54-08:00*%
%TF.ProjectId,barobord,6261726f-626f-4726-942e-6b696361645f,rev?*%
%TF.SameCoordinates,Original*%
%TF.FileFunction,Paste,Bot*%
%TF.FilePolarity,Positive*%
%FSLAX46Y46*%
G04 Gerber Fmt 4.6, Leading zero omitted, Abs format (unit mm)*
G04 Created by KiCad (PCBNEW (5.1.9)-1) date 2021-12-09 21:31:54*
%MOMM*%
%LPD*%
G01*
G04 APERTURE LIST*
%ADD10C,0.100000*%
%ADD11R,1.200000X0.900000*%
%ADD12R,1.800000X1.100000*%
G04 APERTURE END LIST*
D10*
%TO.C,SW40*%
G36*
X233868256Y-97717931D02*
G01*
X232769448Y-95361531D01*
X235125848Y-94262723D01*
X236224656Y-96619123D01*
X233868256Y-97717931D01*
G37*
G36*
X222470641Y-100605294D02*
G01*
X221371833Y-98248894D01*
X223728233Y-97150086D01*
X224827041Y-99506486D01*
X222470641Y-100605294D01*
G37*
%TD*%
%TO.C,SW39*%
G36*
X214535319Y-101216136D02*
G01*
X213436511Y-98859736D01*
X215792911Y-97760928D01*
X216891719Y-100117328D01*
X214535319Y-101216136D01*
G37*
G36*
X203137704Y-104103499D02*
G01*
X202038896Y-101747099D01*
X204395296Y-100648291D01*
X205494104Y-103004691D01*
X203137704Y-104103499D01*
G37*
%TD*%
%TO.C,SW38*%
G36*
X205767832Y-127372039D02*
G01*
X204669024Y-125015639D01*
X207025424Y-123916831D01*
X208124232Y-126273231D01*
X205767832Y-127372039D01*
G37*
G36*
X194370217Y-130259402D02*
G01*
X193271409Y-127903002D01*
X195627809Y-126804194D01*
X196726617Y-129160594D01*
X194370217Y-130259402D01*
G37*
%TD*%
%TO.C,SW37*%
G36*
X188503614Y-136942018D02*
G01*
X187012315Y-134812223D01*
X189142110Y-133320924D01*
X190633409Y-135450719D01*
X188503614Y-136942018D01*
G37*
G36*
X177780539Y-141764691D02*
G01*
X176289240Y-139634896D01*
X178419035Y-138143597D01*
X179910334Y-140273392D01*
X177780539Y-141764691D01*
G37*
%TD*%
%TO.C,SW36*%
G36*
X173163490Y-149364509D02*
G01*
X171325012Y-147526031D01*
X173163490Y-145687553D01*
X175001968Y-147526031D01*
X173163490Y-149364509D01*
G37*
G36*
X163440772Y-155975957D02*
G01*
X161602294Y-154137479D01*
X163440772Y-152299001D01*
X165279250Y-154137479D01*
X163440772Y-155975957D01*
G37*
%TD*%
%TO.C,SW35*%
G36*
X103236940Y-152157579D02*
G01*
X105075418Y-150319101D01*
X106913896Y-152157579D01*
X105075418Y-153996057D01*
X103236940Y-152157579D01*
G37*
G36*
X96625492Y-142434861D02*
G01*
X98463970Y-140596383D01*
X100302448Y-142434861D01*
X98463970Y-144273339D01*
X96625492Y-142434861D01*
G37*
%TD*%
%TO.C,SW34*%
G36*
X88339390Y-139207644D02*
G01*
X89830689Y-137077849D01*
X91960484Y-138569148D01*
X90469185Y-140698943D01*
X88339390Y-139207644D01*
G37*
G36*
X80140052Y-130780702D02*
G01*
X81631351Y-128650907D01*
X83761146Y-130142206D01*
X82269847Y-132272001D01*
X80140052Y-130780702D01*
G37*
%TD*%
%TO.C,SW33*%
G36*
X71419435Y-129041382D02*
G01*
X72518243Y-126684982D01*
X74874643Y-127783790D01*
X73775835Y-130140190D01*
X71419435Y-129041382D01*
G37*
G36*
X61881341Y-122166264D02*
G01*
X62980149Y-119809864D01*
X65336549Y-120908672D01*
X64237741Y-123265072D01*
X61881341Y-122166264D01*
G37*
%TD*%
%TO.C,SW32*%
G36*
X62651954Y-102885480D02*
G01*
X63750762Y-100529080D01*
X66107162Y-101627888D01*
X65008354Y-103984288D01*
X62651954Y-102885480D01*
G37*
G36*
X53113860Y-96010362D02*
G01*
X54212668Y-93653962D01*
X56569068Y-94752770D01*
X55470260Y-97109170D01*
X53113860Y-96010362D01*
G37*
%TD*%
%TO.C,SW31*%
G36*
X43319017Y-99387272D02*
G01*
X44417825Y-97030872D01*
X46774225Y-98129680D01*
X45675417Y-100486080D01*
X43319017Y-99387272D01*
G37*
G36*
X33780923Y-92512154D02*
G01*
X34879731Y-90155754D01*
X37236131Y-91254562D01*
X36137323Y-93610962D01*
X33780923Y-92512154D01*
G37*
%TD*%
%TO.C,SW30*%
G36*
X248341082Y-83797183D02*
G01*
X247242274Y-81440783D01*
X249598674Y-80341975D01*
X250697482Y-82698375D01*
X248341082Y-83797183D01*
G37*
G36*
X236943467Y-86684546D02*
G01*
X235844659Y-84328146D01*
X238201059Y-83229338D01*
X239299867Y-85585738D01*
X236943467Y-86684546D01*
G37*
%TD*%
%TO.C,SW29*%
G36*
X225838509Y-80498084D02*
G01*
X224739701Y-78141684D01*
X227096101Y-77042876D01*
X228194909Y-79399276D01*
X225838509Y-80498084D01*
G37*
G36*
X214440894Y-83385447D02*
G01*
X213342086Y-81029047D01*
X215698486Y-79930239D01*
X216797294Y-82286639D01*
X214440894Y-83385447D01*
G37*
%TD*%
%TO.C,SW28*%
G36*
X206505571Y-83996294D02*
G01*
X205406763Y-81639894D01*
X207763163Y-80541086D01*
X208861971Y-82897486D01*
X206505571Y-83996294D01*
G37*
G36*
X195107956Y-86883657D02*
G01*
X194009148Y-84527257D01*
X196365548Y-83428449D01*
X197464356Y-85784849D01*
X195107956Y-86883657D01*
G37*
%TD*%
%TO.C,SW27*%
G36*
X191398813Y-96557576D02*
G01*
X190300005Y-94201176D01*
X192656405Y-93102368D01*
X193755213Y-95458768D01*
X191398813Y-96557576D01*
G37*
G36*
X180001198Y-99444939D02*
G01*
X178902390Y-97088539D01*
X181258790Y-95989731D01*
X182357598Y-98346131D01*
X180001198Y-99444939D01*
G37*
%TD*%
%TO.C,SW26*%
G36*
X175235511Y-106853094D02*
G01*
X174136703Y-104496694D01*
X176493103Y-103397886D01*
X177591911Y-105754286D01*
X175235511Y-106853094D01*
G37*
G36*
X163837896Y-109740457D02*
G01*
X162739088Y-107384057D01*
X165095488Y-106285249D01*
X166194296Y-108641649D01*
X163837896Y-109740457D01*
G37*
%TD*%
%TO.C,SW25*%
G36*
X101951761Y-108522434D02*
G01*
X103050569Y-106166034D01*
X105406969Y-107264842D01*
X104308161Y-109621242D01*
X101951761Y-108522434D01*
G37*
G36*
X92413667Y-101647316D02*
G01*
X93512475Y-99290916D01*
X95868875Y-100389724D01*
X94770067Y-102746124D01*
X92413667Y-101647316D01*
G37*
%TD*%
%TO.C,SW24*%
G36*
X85788457Y-98226918D02*
G01*
X86887265Y-95870518D01*
X89243665Y-96969326D01*
X88144857Y-99325726D01*
X85788457Y-98226918D01*
G37*
G36*
X76250363Y-91351800D02*
G01*
X77349171Y-88995400D01*
X79705571Y-90094208D01*
X78606763Y-92450608D01*
X76250363Y-91351800D01*
G37*
%TD*%
%TO.C,SW23*%
G36*
X70681701Y-85665632D02*
G01*
X71780509Y-83309232D01*
X74136909Y-84408040D01*
X73038101Y-86764440D01*
X70681701Y-85665632D01*
G37*
G36*
X61143607Y-78790514D02*
G01*
X62242415Y-76434114D01*
X64598815Y-77532922D01*
X63500007Y-79889322D01*
X61143607Y-78790514D01*
G37*
%TD*%
%TO.C,SW22*%
G36*
X51348764Y-82167426D02*
G01*
X52447572Y-79811026D01*
X54803972Y-80909834D01*
X53705164Y-83266234D01*
X51348764Y-82167426D01*
G37*
G36*
X41810670Y-75292308D02*
G01*
X42909478Y-72935908D01*
X45265878Y-74034716D01*
X44167070Y-76391116D01*
X41810670Y-75292308D01*
G37*
%TD*%
%TO.C,SW21*%
G36*
X28846186Y-85466525D02*
G01*
X29944994Y-83110125D01*
X32301394Y-84208933D01*
X31202586Y-86565333D01*
X28846186Y-85466525D01*
G37*
G36*
X19308092Y-78591407D02*
G01*
X20406900Y-76235007D01*
X22763300Y-77333815D01*
X21664492Y-79690215D01*
X19308092Y-78591407D01*
G37*
%TD*%
%TO.C,SW20*%
G36*
X240311335Y-66577336D02*
G01*
X239212527Y-64220936D01*
X241568927Y-63122128D01*
X242667735Y-65478528D01*
X240311335Y-66577336D01*
G37*
G36*
X228913720Y-69464699D02*
G01*
X227814912Y-67108299D01*
X230171312Y-66009491D01*
X231270120Y-68365891D01*
X228913720Y-69464699D01*
G37*
%TD*%
%TO.C,SW19*%
G36*
X217808763Y-63278235D02*
G01*
X216709955Y-60921835D01*
X219066355Y-59823027D01*
X220165163Y-62179427D01*
X217808763Y-63278235D01*
G37*
G36*
X206411148Y-66165598D02*
G01*
X205312340Y-63809198D01*
X207668740Y-62710390D01*
X208767548Y-65066790D01*
X206411148Y-66165598D01*
G37*
%TD*%
%TO.C,SW18*%
G36*
X198475822Y-66776445D02*
G01*
X197377014Y-64420045D01*
X199733414Y-63321237D01*
X200832222Y-65677637D01*
X198475822Y-66776445D01*
G37*
G36*
X187078207Y-69663808D02*
G01*
X185979399Y-67307408D01*
X188335799Y-66208600D01*
X189434607Y-68565000D01*
X187078207Y-69663808D01*
G37*
%TD*%
%TO.C,SW17*%
G36*
X183369068Y-79337732D02*
G01*
X182270260Y-76981332D01*
X184626660Y-75882524D01*
X185725468Y-78238924D01*
X183369068Y-79337732D01*
G37*
G36*
X171971453Y-82225095D02*
G01*
X170872645Y-79868695D01*
X173229045Y-78769887D01*
X174327853Y-81126287D01*
X171971453Y-82225095D01*
G37*
%TD*%
%TO.C,SW16*%
G36*
X167205763Y-89633247D02*
G01*
X166106955Y-87276847D01*
X168463355Y-86178039D01*
X169562163Y-88534439D01*
X167205763Y-89633247D01*
G37*
G36*
X155808148Y-92520610D02*
G01*
X154709340Y-90164210D01*
X157065740Y-89065402D01*
X158164548Y-91421802D01*
X155808148Y-92520610D01*
G37*
%TD*%
%TO.C,SW15*%
G36*
X109981508Y-91302591D02*
G01*
X111080316Y-88946191D01*
X113436716Y-90044999D01*
X112337908Y-92401399D01*
X109981508Y-91302591D01*
G37*
G36*
X100443414Y-84427473D02*
G01*
X101542222Y-82071073D01*
X103898622Y-83169881D01*
X102799814Y-85526281D01*
X100443414Y-84427473D01*
G37*
%TD*%
%TO.C,SW14*%
G36*
X93818204Y-81007071D02*
G01*
X94917012Y-78650671D01*
X97273412Y-79749479D01*
X96174604Y-82105879D01*
X93818204Y-81007071D01*
G37*
G36*
X84280110Y-74131953D02*
G01*
X85378918Y-71775553D01*
X87735318Y-72874361D01*
X86636510Y-75230761D01*
X84280110Y-74131953D01*
G37*
%TD*%
%TO.C,SW13*%
G36*
X78711449Y-68445786D02*
G01*
X79810257Y-66089386D01*
X82166657Y-67188194D01*
X81067849Y-69544594D01*
X78711449Y-68445786D01*
G37*
G36*
X69173355Y-61570668D02*
G01*
X70272163Y-59214268D01*
X72628563Y-60313076D01*
X71529755Y-62669476D01*
X69173355Y-61570668D01*
G37*
%TD*%
%TO.C,SW12*%
G36*
X59378511Y-64947578D02*
G01*
X60477319Y-62591178D01*
X62833719Y-63689986D01*
X61734911Y-66046386D01*
X59378511Y-64947578D01*
G37*
G36*
X49840417Y-58072460D02*
G01*
X50939225Y-55716060D01*
X53295625Y-56814868D01*
X52196817Y-59171268D01*
X49840417Y-58072460D01*
G37*
%TD*%
%TO.C,SW11*%
G36*
X36875936Y-68246678D02*
G01*
X37974744Y-65890278D01*
X40331144Y-66989086D01*
X39232336Y-69345486D01*
X36875936Y-68246678D01*
G37*
G36*
X27337842Y-61371560D02*
G01*
X28436650Y-59015160D01*
X30793050Y-60113968D01*
X29694242Y-62470368D01*
X27337842Y-61371560D01*
G37*
%TD*%
%TO.C,SW10*%
G36*
X232281589Y-49357489D02*
G01*
X231182781Y-47001089D01*
X233539181Y-45902281D01*
X234637989Y-48258681D01*
X232281589Y-49357489D01*
G37*
G36*
X220883974Y-52244852D02*
G01*
X219785166Y-49888452D01*
X222141566Y-48789644D01*
X223240374Y-51146044D01*
X220883974Y-52244852D01*
G37*
%TD*%
%TO.C,SW9*%
G36*
X209779014Y-46058390D02*
G01*
X208680206Y-43701990D01*
X211036606Y-42603182D01*
X212135414Y-44959582D01*
X209779014Y-46058390D01*
G37*
G36*
X198381399Y-48945753D02*
G01*
X197282591Y-46589353D01*
X199638991Y-45490545D01*
X200737799Y-47846945D01*
X198381399Y-48945753D01*
G37*
%TD*%
%TO.C,SW8*%
G36*
X190446076Y-49556599D02*
G01*
X189347268Y-47200199D01*
X191703668Y-46101391D01*
X192802476Y-48457791D01*
X190446076Y-49556599D01*
G37*
G36*
X179048461Y-52443962D02*
G01*
X177949653Y-50087562D01*
X180306053Y-48988754D01*
X181404861Y-51345154D01*
X179048461Y-52443962D01*
G37*
%TD*%
%TO.C,SW7*%
G36*
X175339321Y-62117882D02*
G01*
X174240513Y-59761482D01*
X176596913Y-58662674D01*
X177695721Y-61019074D01*
X175339321Y-62117882D01*
G37*
G36*
X163941706Y-65005245D02*
G01*
X162842898Y-62648845D01*
X165199298Y-61550037D01*
X166298106Y-63906437D01*
X163941706Y-65005245D01*
G37*
%TD*%
%TO.C,SW6*%
G36*
X159176017Y-72413396D02*
G01*
X158077209Y-70056996D01*
X160433609Y-68958188D01*
X161532417Y-71314588D01*
X159176017Y-72413396D01*
G37*
G36*
X147778402Y-75300759D02*
G01*
X146679594Y-72944359D01*
X149035994Y-71845551D01*
X150134802Y-74201951D01*
X147778402Y-75300759D01*
G37*
%TD*%
%TO.C,SW5*%
G36*
X118011252Y-74082741D02*
G01*
X119110060Y-71726341D01*
X121466460Y-72825149D01*
X120367652Y-75181549D01*
X118011252Y-74082741D01*
G37*
G36*
X108473158Y-67207623D02*
G01*
X109571966Y-64851223D01*
X111928366Y-65950031D01*
X110829558Y-68306431D01*
X108473158Y-67207623D01*
G37*
%TD*%
%TO.C,SW4*%
G36*
X101847951Y-63787222D02*
G01*
X102946759Y-61430822D01*
X105303159Y-62529630D01*
X104204351Y-64886030D01*
X101847951Y-63787222D01*
G37*
G36*
X92309857Y-56912104D02*
G01*
X93408665Y-54555704D01*
X95765065Y-55654512D01*
X94666257Y-58010912D01*
X92309857Y-56912104D01*
G37*
%TD*%
%TO.C,SW3*%
G36*
X86741195Y-51225939D02*
G01*
X87840003Y-48869539D01*
X90196403Y-49968347D01*
X89097595Y-52324747D01*
X86741195Y-51225939D01*
G37*
G36*
X77203101Y-44350821D02*
G01*
X78301909Y-41994421D01*
X80658309Y-43093229D01*
X79559501Y-45449629D01*
X77203101Y-44350821D01*
G37*
%TD*%
%TO.C,SW2*%
G36*
X67408257Y-47727732D02*
G01*
X68507065Y-45371332D01*
X70863465Y-46470140D01*
X69764657Y-48826540D01*
X67408257Y-47727732D01*
G37*
G36*
X57870163Y-40852614D02*
G01*
X58968971Y-38496214D01*
X61325371Y-39595022D01*
X60226563Y-41951422D01*
X57870163Y-40852614D01*
G37*
%TD*%
%TO.C,SW1*%
G36*
X44905682Y-51026831D02*
G01*
X46004490Y-48670431D01*
X48360890Y-49769239D01*
X47262082Y-52125639D01*
X44905682Y-51026831D01*
G37*
G36*
X35367588Y-44151713D02*
G01*
X36466396Y-41795313D01*
X38822796Y-42894121D01*
X37723988Y-45250521D01*
X35367588Y-44151713D01*
G37*
%TD*%
%TO.C,D56*%
G36*
G01*
X111840452Y-78189634D02*
X110538994Y-77582754D01*
G75*
G02*
X110499332Y-77473782I34655J74317D01*
G01*
X110776570Y-76879244D01*
G75*
G02*
X110885542Y-76839582I74317J-34655D01*
G01*
X112187000Y-77446462D01*
G75*
G02*
X112226662Y-77555434I-34655J-74317D01*
G01*
X111949424Y-78149972D01*
G75*
G02*
X111840452Y-78189634I-74317J34655D01*
G01*
G37*
G36*
G01*
X111206524Y-79549096D02*
X109905066Y-78942216D01*
G75*
G02*
X109865404Y-78833244I34655J74317D01*
G01*
X110142642Y-78238706D01*
G75*
G02*
X110251614Y-78199044I74317J-34655D01*
G01*
X111553072Y-78805924D01*
G75*
G02*
X111592734Y-78914896I-34655J-74317D01*
G01*
X111315496Y-79509434D01*
G75*
G02*
X111206524Y-79549096I-74317J34655D01*
G01*
G37*
G36*
G01*
X116553252Y-80387249D02*
X115251794Y-79780369D01*
G75*
G02*
X115212132Y-79671397I34655J74317D01*
G01*
X115489370Y-79076859D01*
G75*
G02*
X115598342Y-79037197I74317J-34655D01*
G01*
X116899800Y-79644077D01*
G75*
G02*
X116939462Y-79753049I-34655J-74317D01*
G01*
X116662224Y-80347587D01*
G75*
G02*
X116553252Y-80387249I-74317J34655D01*
G01*
G37*
G36*
G01*
X115919325Y-81746711D02*
X114617867Y-81139831D01*
G75*
G02*
X114578205Y-81030859I34655J74317D01*
G01*
X114855443Y-80436321D01*
G75*
G02*
X114964415Y-80396659I74317J-34655D01*
G01*
X116265873Y-81003539D01*
G75*
G02*
X116305535Y-81112511I-34655J-74317D01*
G01*
X116028297Y-81707049D01*
G75*
G02*
X115919325Y-81746711I-74317J34655D01*
G01*
G37*
%TD*%
%TO.C,D59*%
G36*
G01*
X92447134Y-126616705D02*
X91270832Y-125793049D01*
G75*
G02*
X91250695Y-125678846I47033J67170D01*
G01*
X91626961Y-125141482D01*
G75*
G02*
X91741164Y-125121345I67170J-47033D01*
G01*
X92917466Y-125945001D01*
G75*
G02*
X92937603Y-126059204I-47033J-67170D01*
G01*
X92561337Y-126596568D01*
G75*
G02*
X92447134Y-126616705I-67170J47033D01*
G01*
G37*
G36*
G01*
X91586769Y-127845433D02*
X90410467Y-127021777D01*
G75*
G02*
X90390330Y-126907574I47033J67170D01*
G01*
X90766596Y-126370210D01*
G75*
G02*
X90880799Y-126350073I67170J-47033D01*
G01*
X92057101Y-127173729D01*
G75*
G02*
X92077238Y-127287932I-47033J-67170D01*
G01*
X91700972Y-127825296D01*
G75*
G02*
X91586769Y-127845433I-67170J47033D01*
G01*
G37*
G36*
G01*
X96706724Y-129599302D02*
X95530422Y-128775646D01*
G75*
G02*
X95510285Y-128661443I47033J67170D01*
G01*
X95886551Y-128124079D01*
G75*
G02*
X96000754Y-128103942I67170J-47033D01*
G01*
X97177056Y-128927598D01*
G75*
G02*
X97197193Y-129041801I-47033J-67170D01*
G01*
X96820927Y-129579165D01*
G75*
G02*
X96706724Y-129599302I-67170J47033D01*
G01*
G37*
G36*
G01*
X95846360Y-130828030D02*
X94670058Y-130004374D01*
G75*
G02*
X94649921Y-129890171I47033J67170D01*
G01*
X95026187Y-129352807D01*
G75*
G02*
X95140390Y-129332670I67170J-47033D01*
G01*
X96316692Y-130156326D01*
G75*
G02*
X96336829Y-130270529I-47033J-67170D01*
G01*
X95960563Y-130807893D01*
G75*
G02*
X95846360Y-130828030I-67170J47033D01*
G01*
G37*
%TD*%
D11*
%TO.C,D82*%
X158606269Y-127584124D03*
X158606269Y-130884124D03*
%TD*%
%TO.C,D81*%
X114406272Y-127584121D03*
X114406272Y-130884121D03*
%TD*%
%TO.C,D57*%
G36*
G01*
X103810705Y-95409477D02*
X102509247Y-94802597D01*
G75*
G02*
X102469585Y-94693625I34655J74317D01*
G01*
X102746823Y-94099087D01*
G75*
G02*
X102855795Y-94059425I74317J-34655D01*
G01*
X104157253Y-94666305D01*
G75*
G02*
X104196915Y-94775277I-34655J-74317D01*
G01*
X103919677Y-95369815D01*
G75*
G02*
X103810705Y-95409477I-74317J34655D01*
G01*
G37*
G36*
G01*
X103176777Y-96768939D02*
X101875319Y-96162059D01*
G75*
G02*
X101835657Y-96053087I34655J74317D01*
G01*
X102112895Y-95458549D01*
G75*
G02*
X102221867Y-95418887I74317J-34655D01*
G01*
X103523325Y-96025767D01*
G75*
G02*
X103562987Y-96134739I-34655J-74317D01*
G01*
X103285749Y-96729277D01*
G75*
G02*
X103176777Y-96768939I-74317J34655D01*
G01*
G37*
G36*
G01*
X108523505Y-97607092D02*
X107222047Y-97000212D01*
G75*
G02*
X107182385Y-96891240I34655J74317D01*
G01*
X107459623Y-96296702D01*
G75*
G02*
X107568595Y-96257040I74317J-34655D01*
G01*
X108870053Y-96863920D01*
G75*
G02*
X108909715Y-96972892I-34655J-74317D01*
G01*
X108632477Y-97567430D01*
G75*
G02*
X108523505Y-97607092I-74317J34655D01*
G01*
G37*
G36*
G01*
X107889578Y-98966554D02*
X106588120Y-98359674D01*
G75*
G02*
X106548458Y-98250702I34655J74317D01*
G01*
X106825696Y-97656164D01*
G75*
G02*
X106934668Y-97616502I74317J-34655D01*
G01*
X108236126Y-98223382D01*
G75*
G02*
X108275788Y-98332354I-34655J-74317D01*
G01*
X107998550Y-98926892D01*
G75*
G02*
X107889578Y-98966554I-74317J34655D01*
G01*
G37*
%TD*%
%TO.C,D45*%
G36*
G01*
X53207708Y-69054469D02*
X51906250Y-68447589D01*
G75*
G02*
X51866588Y-68338617I34655J74317D01*
G01*
X52143826Y-67744079D01*
G75*
G02*
X52252798Y-67704417I74317J-34655D01*
G01*
X53554256Y-68311297D01*
G75*
G02*
X53593918Y-68420269I-34655J-74317D01*
G01*
X53316680Y-69014807D01*
G75*
G02*
X53207708Y-69054469I-74317J34655D01*
G01*
G37*
G36*
G01*
X52573780Y-70413931D02*
X51272322Y-69807051D01*
G75*
G02*
X51232660Y-69698079I34655J74317D01*
G01*
X51509898Y-69103541D01*
G75*
G02*
X51618870Y-69063879I74317J-34655D01*
G01*
X52920328Y-69670759D01*
G75*
G02*
X52959990Y-69779731I-34655J-74317D01*
G01*
X52682752Y-70374269D01*
G75*
G02*
X52573780Y-70413931I-74317J34655D01*
G01*
G37*
G36*
G01*
X57920508Y-71252084D02*
X56619050Y-70645204D01*
G75*
G02*
X56579388Y-70536232I34655J74317D01*
G01*
X56856626Y-69941694D01*
G75*
G02*
X56965598Y-69902032I74317J-34655D01*
G01*
X58267056Y-70508912D01*
G75*
G02*
X58306718Y-70617884I-34655J-74317D01*
G01*
X58029480Y-71212422D01*
G75*
G02*
X57920508Y-71252084I-74317J34655D01*
G01*
G37*
G36*
G01*
X57286581Y-72611546D02*
X55985123Y-72004666D01*
G75*
G02*
X55945461Y-71895694I34655J74317D01*
G01*
X56222699Y-71301156D01*
G75*
G02*
X56331671Y-71261494I74317J-34655D01*
G01*
X57633129Y-71868374D01*
G75*
G02*
X57672791Y-71977346I-34655J-74317D01*
G01*
X57395553Y-72571884D01*
G75*
G02*
X57286581Y-72611546I-74317J34655D01*
G01*
G37*
%TD*%
%TO.C,D65*%
G36*
G01*
X158355561Y-79780366D02*
X157054103Y-80387246D01*
G75*
G02*
X156945131Y-80347584I-34655J74317D01*
G01*
X156667893Y-79753046D01*
G75*
G02*
X156707555Y-79644074I74317J34655D01*
G01*
X158009013Y-79037194D01*
G75*
G02*
X158117985Y-79076856I34655J-74317D01*
G01*
X158395223Y-79671394D01*
G75*
G02*
X158355561Y-79780366I-74317J-34655D01*
G01*
G37*
G36*
G01*
X158989488Y-81139828D02*
X157688030Y-81746708D01*
G75*
G02*
X157579058Y-81707046I-34655J74317D01*
G01*
X157301820Y-81112508D01*
G75*
G02*
X157341482Y-81003536I74317J34655D01*
G01*
X158642940Y-80396656D01*
G75*
G02*
X158751912Y-80436318I34655J-74317D01*
G01*
X159029150Y-81030856D01*
G75*
G02*
X158989488Y-81139828I-74317J-34655D01*
G01*
G37*
G36*
G01*
X163068361Y-77582751D02*
X161766903Y-78189631D01*
G75*
G02*
X161657931Y-78149969I-34655J74317D01*
G01*
X161380693Y-77555431D01*
G75*
G02*
X161420355Y-77446459I74317J34655D01*
G01*
X162721813Y-76839579D01*
G75*
G02*
X162830785Y-76879241I34655J-74317D01*
G01*
X163108023Y-77473779D01*
G75*
G02*
X163068361Y-77582751I-74317J-34655D01*
G01*
G37*
G36*
G01*
X163702289Y-78942213D02*
X162400831Y-79549093D01*
G75*
G02*
X162291859Y-79509431I-34655J74317D01*
G01*
X162014621Y-78914893D01*
G75*
G02*
X162054283Y-78805921I74317J34655D01*
G01*
X163355741Y-78199041D01*
G75*
G02*
X163464713Y-78238703I34655J-74317D01*
G01*
X163741951Y-78833241D01*
G75*
G02*
X163702289Y-78942213I-74317J-34655D01*
G01*
G37*
%TD*%
%TO.C,D53*%
G36*
G01*
X95677148Y-67894114D02*
X94375690Y-67287234D01*
G75*
G02*
X94336028Y-67178262I34655J74317D01*
G01*
X94613266Y-66583724D01*
G75*
G02*
X94722238Y-66544062I74317J-34655D01*
G01*
X96023696Y-67150942D01*
G75*
G02*
X96063358Y-67259914I-34655J-74317D01*
G01*
X95786120Y-67854452D01*
G75*
G02*
X95677148Y-67894114I-74317J34655D01*
G01*
G37*
G36*
G01*
X95043220Y-69253576D02*
X93741762Y-68646696D01*
G75*
G02*
X93702100Y-68537724I34655J74317D01*
G01*
X93979338Y-67943186D01*
G75*
G02*
X94088310Y-67903524I74317J-34655D01*
G01*
X95389768Y-68510404D01*
G75*
G02*
X95429430Y-68619376I-34655J-74317D01*
G01*
X95152192Y-69213914D01*
G75*
G02*
X95043220Y-69253576I-74317J34655D01*
G01*
G37*
G36*
G01*
X100389948Y-70091729D02*
X99088490Y-69484849D01*
G75*
G02*
X99048828Y-69375877I34655J74317D01*
G01*
X99326066Y-68781339D01*
G75*
G02*
X99435038Y-68741677I74317J-34655D01*
G01*
X100736496Y-69348557D01*
G75*
G02*
X100776158Y-69457529I-34655J-74317D01*
G01*
X100498920Y-70052067D01*
G75*
G02*
X100389948Y-70091729I-74317J34655D01*
G01*
G37*
G36*
G01*
X99756021Y-71451191D02*
X98454563Y-70844311D01*
G75*
G02*
X98414901Y-70735339I34655J74317D01*
G01*
X98692139Y-70140801D01*
G75*
G02*
X98801111Y-70101139I74317J-34655D01*
G01*
X100102569Y-70708019D01*
G75*
G02*
X100142231Y-70816991I-34655J-74317D01*
G01*
X99864993Y-71411529D01*
G75*
G02*
X99756021Y-71451191I-74317J34655D01*
G01*
G37*
%TD*%
%TO.C,D52*%
G36*
G01*
X87647401Y-85113961D02*
X86345943Y-84507081D01*
G75*
G02*
X86306281Y-84398109I34655J74317D01*
G01*
X86583519Y-83803571D01*
G75*
G02*
X86692491Y-83763909I74317J-34655D01*
G01*
X87993949Y-84370789D01*
G75*
G02*
X88033611Y-84479761I-34655J-74317D01*
G01*
X87756373Y-85074299D01*
G75*
G02*
X87647401Y-85113961I-74317J34655D01*
G01*
G37*
G36*
G01*
X87013473Y-86473423D02*
X85712015Y-85866543D01*
G75*
G02*
X85672353Y-85757571I34655J74317D01*
G01*
X85949591Y-85163033D01*
G75*
G02*
X86058563Y-85123371I74317J-34655D01*
G01*
X87360021Y-85730251D01*
G75*
G02*
X87399683Y-85839223I-34655J-74317D01*
G01*
X87122445Y-86433761D01*
G75*
G02*
X87013473Y-86473423I-74317J34655D01*
G01*
G37*
G36*
G01*
X92360201Y-87311576D02*
X91058743Y-86704696D01*
G75*
G02*
X91019081Y-86595724I34655J74317D01*
G01*
X91296319Y-86001186D01*
G75*
G02*
X91405291Y-85961524I74317J-34655D01*
G01*
X92706749Y-86568404D01*
G75*
G02*
X92746411Y-86677376I-34655J-74317D01*
G01*
X92469173Y-87271914D01*
G75*
G02*
X92360201Y-87311576I-74317J34655D01*
G01*
G37*
G36*
G01*
X91726274Y-88671038D02*
X90424816Y-88064158D01*
G75*
G02*
X90385154Y-87955186I34655J74317D01*
G01*
X90662392Y-87360648D01*
G75*
G02*
X90771364Y-87320986I74317J-34655D01*
G01*
X92072822Y-87927866D01*
G75*
G02*
X92112484Y-88036838I-34655J-74317D01*
G01*
X91835246Y-88631376D01*
G75*
G02*
X91726274Y-88671038I-74317J34655D01*
G01*
G37*
%TD*%
%TO.C,D54*%
G36*
G01*
X103706895Y-50674265D02*
X102405437Y-50067385D01*
G75*
G02*
X102365775Y-49958413I34655J74317D01*
G01*
X102643013Y-49363875D01*
G75*
G02*
X102751985Y-49324213I74317J-34655D01*
G01*
X104053443Y-49931093D01*
G75*
G02*
X104093105Y-50040065I-34655J-74317D01*
G01*
X103815867Y-50634603D01*
G75*
G02*
X103706895Y-50674265I-74317J34655D01*
G01*
G37*
G36*
G01*
X103072967Y-52033727D02*
X101771509Y-51426847D01*
G75*
G02*
X101731847Y-51317875I34655J74317D01*
G01*
X102009085Y-50723337D01*
G75*
G02*
X102118057Y-50683675I74317J-34655D01*
G01*
X103419515Y-51290555D01*
G75*
G02*
X103459177Y-51399527I-34655J-74317D01*
G01*
X103181939Y-51994065D01*
G75*
G02*
X103072967Y-52033727I-74317J34655D01*
G01*
G37*
G36*
G01*
X108419695Y-52871880D02*
X107118237Y-52265000D01*
G75*
G02*
X107078575Y-52156028I34655J74317D01*
G01*
X107355813Y-51561490D01*
G75*
G02*
X107464785Y-51521828I74317J-34655D01*
G01*
X108766243Y-52128708D01*
G75*
G02*
X108805905Y-52237680I-34655J-74317D01*
G01*
X108528667Y-52832218D01*
G75*
G02*
X108419695Y-52871880I-74317J34655D01*
G01*
G37*
G36*
G01*
X107785768Y-54231342D02*
X106484310Y-53624462D01*
G75*
G02*
X106444648Y-53515490I34655J74317D01*
G01*
X106721886Y-52920952D01*
G75*
G02*
X106830858Y-52881290I74317J-34655D01*
G01*
X108132316Y-53488170D01*
G75*
G02*
X108171978Y-53597142I-34655J-74317D01*
G01*
X107894740Y-54191680D01*
G75*
G02*
X107785768Y-54231342I-74317J34655D01*
G01*
G37*
%TD*%
D12*
%TO.C,SW41*%
X146710427Y-155984520D03*
X152910427Y-159684520D03*
X146710427Y-159684520D03*
X152910427Y-155984520D03*
%TD*%
%TO.C,R4*%
G36*
G01*
X152560426Y-152434519D02*
X153460430Y-152434519D01*
G75*
G02*
X153710428Y-152684517I0J-249998D01*
G01*
X153710428Y-153209521D01*
G75*
G02*
X153460430Y-153459519I-249998J0D01*
G01*
X152560426Y-153459519D01*
G75*
G02*
X152310428Y-153209521I0J249998D01*
G01*
X152310428Y-152684517D01*
G75*
G02*
X152560426Y-152434519I249998J0D01*
G01*
G37*
G36*
G01*
X152560426Y-150609519D02*
X153460430Y-150609519D01*
G75*
G02*
X153710428Y-150859517I0J-249998D01*
G01*
X153710428Y-151384521D01*
G75*
G02*
X153460430Y-151634519I-249998J0D01*
G01*
X152560426Y-151634519D01*
G75*
G02*
X152310428Y-151384521I0J249998D01*
G01*
X152310428Y-150859517D01*
G75*
G02*
X152560426Y-150609519I249998J0D01*
G01*
G37*
%TD*%
%TO.C,D77*%
G36*
G01*
X225018054Y-87865050D02*
X223716596Y-88471930D01*
G75*
G02*
X223607624Y-88432268I-34655J74317D01*
G01*
X223330386Y-87837730D01*
G75*
G02*
X223370048Y-87728758I74317J34655D01*
G01*
X224671506Y-87121878D01*
G75*
G02*
X224780478Y-87161540I34655J-74317D01*
G01*
X225057716Y-87756078D01*
G75*
G02*
X225018054Y-87865050I-74317J-34655D01*
G01*
G37*
G36*
G01*
X225651981Y-89224512D02*
X224350523Y-89831392D01*
G75*
G02*
X224241551Y-89791730I-34655J74317D01*
G01*
X223964313Y-89197192D01*
G75*
G02*
X224003975Y-89088220I74317J34655D01*
G01*
X225305433Y-88481340D01*
G75*
G02*
X225414405Y-88521002I34655J-74317D01*
G01*
X225691643Y-89115540D01*
G75*
G02*
X225651981Y-89224512I-74317J-34655D01*
G01*
G37*
G36*
G01*
X229730854Y-85667435D02*
X228429396Y-86274315D01*
G75*
G02*
X228320424Y-86234653I-34655J74317D01*
G01*
X228043186Y-85640115D01*
G75*
G02*
X228082848Y-85531143I74317J34655D01*
G01*
X229384306Y-84924263D01*
G75*
G02*
X229493278Y-84963925I34655J-74317D01*
G01*
X229770516Y-85558463D01*
G75*
G02*
X229730854Y-85667435I-74317J-34655D01*
G01*
G37*
G36*
G01*
X230364782Y-87026897D02*
X229063324Y-87633777D01*
G75*
G02*
X228954352Y-87594115I-34655J74317D01*
G01*
X228677114Y-86999577D01*
G75*
G02*
X228716776Y-86890605I74317J34655D01*
G01*
X230018234Y-86283725D01*
G75*
G02*
X230127206Y-86323387I34655J-74317D01*
G01*
X230404444Y-86917925D01*
G75*
G02*
X230364782Y-87026897I-74317J-34655D01*
G01*
G37*
%TD*%
%TO.C,D70*%
G36*
G01*
X205685117Y-91363255D02*
X204383659Y-91970135D01*
G75*
G02*
X204274687Y-91930473I-34655J74317D01*
G01*
X203997449Y-91335935D01*
G75*
G02*
X204037111Y-91226963I74317J34655D01*
G01*
X205338569Y-90620083D01*
G75*
G02*
X205447541Y-90659745I34655J-74317D01*
G01*
X205724779Y-91254283D01*
G75*
G02*
X205685117Y-91363255I-74317J-34655D01*
G01*
G37*
G36*
G01*
X206319044Y-92722717D02*
X205017586Y-93329597D01*
G75*
G02*
X204908614Y-93289935I-34655J74317D01*
G01*
X204631376Y-92695397D01*
G75*
G02*
X204671038Y-92586425I74317J34655D01*
G01*
X205972496Y-91979545D01*
G75*
G02*
X206081468Y-92019207I34655J-74317D01*
G01*
X206358706Y-92613745D01*
G75*
G02*
X206319044Y-92722717I-74317J-34655D01*
G01*
G37*
G36*
G01*
X210397917Y-89165640D02*
X209096459Y-89772520D01*
G75*
G02*
X208987487Y-89732858I-34655J74317D01*
G01*
X208710249Y-89138320D01*
G75*
G02*
X208749911Y-89029348I74317J34655D01*
G01*
X210051369Y-88422468D01*
G75*
G02*
X210160341Y-88462130I34655J-74317D01*
G01*
X210437579Y-89056668D01*
G75*
G02*
X210397917Y-89165640I-74317J-34655D01*
G01*
G37*
G36*
G01*
X211031845Y-90525102D02*
X209730387Y-91131982D01*
G75*
G02*
X209621415Y-91092320I-34655J74317D01*
G01*
X209344177Y-90497782D01*
G75*
G02*
X209383839Y-90388810I74317J34655D01*
G01*
X210685297Y-89781930D01*
G75*
G02*
X210794269Y-89821592I34655J-74317D01*
G01*
X211071507Y-90416130D01*
G75*
G02*
X211031845Y-90525102I-74317J-34655D01*
G01*
G37*
%TD*%
%TO.C,D63*%
G36*
G01*
X196917630Y-117519158D02*
X195616172Y-118126038D01*
G75*
G02*
X195507200Y-118086376I-34655J74317D01*
G01*
X195229962Y-117491838D01*
G75*
G02*
X195269624Y-117382866I74317J34655D01*
G01*
X196571082Y-116775986D01*
G75*
G02*
X196680054Y-116815648I34655J-74317D01*
G01*
X196957292Y-117410186D01*
G75*
G02*
X196917630Y-117519158I-74317J-34655D01*
G01*
G37*
G36*
G01*
X197551557Y-118878620D02*
X196250099Y-119485500D01*
G75*
G02*
X196141127Y-119445838I-34655J74317D01*
G01*
X195863889Y-118851300D01*
G75*
G02*
X195903551Y-118742328I74317J34655D01*
G01*
X197205009Y-118135448D01*
G75*
G02*
X197313981Y-118175110I34655J-74317D01*
G01*
X197591219Y-118769648D01*
G75*
G02*
X197551557Y-118878620I-74317J-34655D01*
G01*
G37*
G36*
G01*
X201630430Y-115321543D02*
X200328972Y-115928423D01*
G75*
G02*
X200220000Y-115888761I-34655J74317D01*
G01*
X199942762Y-115294223D01*
G75*
G02*
X199982424Y-115185251I74317J34655D01*
G01*
X201283882Y-114578371D01*
G75*
G02*
X201392854Y-114618033I34655J-74317D01*
G01*
X201670092Y-115212571D01*
G75*
G02*
X201630430Y-115321543I-74317J-34655D01*
G01*
G37*
G36*
G01*
X202264358Y-116681005D02*
X200962900Y-117287885D01*
G75*
G02*
X200853928Y-117248223I-34655J74317D01*
G01*
X200576690Y-116653685D01*
G75*
G02*
X200616352Y-116544713I74317J34655D01*
G01*
X201917810Y-115937833D01*
G75*
G02*
X202026782Y-115977495I34655J-74317D01*
G01*
X202304020Y-116572033D01*
G75*
G02*
X202264358Y-116681005I-74317J-34655D01*
G01*
G37*
%TD*%
%TO.C,D62*%
G36*
G01*
X178076931Y-128775646D02*
X176900629Y-129599302D01*
G75*
G02*
X176786426Y-129579165I-47033J67170D01*
G01*
X176410160Y-129041801D01*
G75*
G02*
X176430297Y-128927598I67170J47033D01*
G01*
X177606599Y-128103942D01*
G75*
G02*
X177720802Y-128124079I47033J-67170D01*
G01*
X178097068Y-128661443D01*
G75*
G02*
X178076931Y-128775646I-67170J-47033D01*
G01*
G37*
G36*
G01*
X178937295Y-130004374D02*
X177760993Y-130828030D01*
G75*
G02*
X177646790Y-130807893I-47033J67170D01*
G01*
X177270524Y-130270529D01*
G75*
G02*
X177290661Y-130156326I67170J47033D01*
G01*
X178466963Y-129332670D01*
G75*
G02*
X178581166Y-129352807I47033J-67170D01*
G01*
X178957432Y-129890171D01*
G75*
G02*
X178937295Y-130004374I-67170J-47033D01*
G01*
G37*
G36*
G01*
X182336521Y-125793049D02*
X181160219Y-126616705D01*
G75*
G02*
X181046016Y-126596568I-47033J67170D01*
G01*
X180669750Y-126059204D01*
G75*
G02*
X180689887Y-125945001I67170J47033D01*
G01*
X181866189Y-125121345D01*
G75*
G02*
X181980392Y-125141482I47033J-67170D01*
G01*
X182356658Y-125678846D01*
G75*
G02*
X182336521Y-125793049I-67170J-47033D01*
G01*
G37*
G36*
G01*
X183196886Y-127021777D02*
X182020584Y-127845433D01*
G75*
G02*
X181906381Y-127825296I-47033J67170D01*
G01*
X181530115Y-127287932D01*
G75*
G02*
X181550252Y-127173729I67170J47033D01*
G01*
X182726554Y-126350073D01*
G75*
G02*
X182840757Y-126370210I47033J-67170D01*
G01*
X183217023Y-126907574D01*
G75*
G02*
X183196886Y-127021777I-67170J-47033D01*
G01*
G37*
%TD*%
%TO.C,D61*%
G36*
G01*
X161477138Y-143132777D02*
X160461732Y-144148183D01*
G75*
G02*
X160345766Y-144148183I-57983J57983D01*
G01*
X159881904Y-143684321D01*
G75*
G02*
X159881904Y-143568355I57983J57983D01*
G01*
X160897310Y-142552949D01*
G75*
G02*
X161013276Y-142552949I57983J-57983D01*
G01*
X161477138Y-143016811D01*
G75*
G02*
X161477138Y-143132777I-57983J-57983D01*
G01*
G37*
G36*
G01*
X162537798Y-144193437D02*
X161522392Y-145208843D01*
G75*
G02*
X161406426Y-145208843I-57983J57983D01*
G01*
X160942564Y-144744981D01*
G75*
G02*
X160942564Y-144629015I57983J57983D01*
G01*
X161957970Y-143613609D01*
G75*
G02*
X162073936Y-143613609I57983J-57983D01*
G01*
X162537798Y-144077471D01*
G75*
G02*
X162537798Y-144193437I-57983J-57983D01*
G01*
G37*
G36*
G01*
X165154093Y-139455822D02*
X164138687Y-140471228D01*
G75*
G02*
X164022721Y-140471228I-57983J57983D01*
G01*
X163558859Y-140007366D01*
G75*
G02*
X163558859Y-139891400I57983J57983D01*
G01*
X164574265Y-138875994D01*
G75*
G02*
X164690231Y-138875994I57983J-57983D01*
G01*
X165154093Y-139339856D01*
G75*
G02*
X165154093Y-139455822I-57983J-57983D01*
G01*
G37*
G36*
G01*
X166214753Y-140516482D02*
X165199347Y-141531888D01*
G75*
G02*
X165083381Y-141531888I-57983J57983D01*
G01*
X164619519Y-141068026D01*
G75*
G02*
X164619519Y-140952060I57983J57983D01*
G01*
X165634925Y-139936654D01*
G75*
G02*
X165750891Y-139936654I57983J-57983D01*
G01*
X166214753Y-140400516D01*
G75*
G02*
X166214753Y-140516482I-57983J-57983D01*
G01*
G37*
%TD*%
%TO.C,D60*%
G36*
G01*
X109468672Y-140471227D02*
X108453266Y-139455821D01*
G75*
G02*
X108453266Y-139339855I57983J57983D01*
G01*
X108917128Y-138875993D01*
G75*
G02*
X109033094Y-138875993I57983J-57983D01*
G01*
X110048500Y-139891399D01*
G75*
G02*
X110048500Y-140007365I-57983J-57983D01*
G01*
X109584638Y-140471227D01*
G75*
G02*
X109468672Y-140471227I-57983J57983D01*
G01*
G37*
G36*
G01*
X108408012Y-141531887D02*
X107392606Y-140516481D01*
G75*
G02*
X107392606Y-140400515I57983J57983D01*
G01*
X107856468Y-139936653D01*
G75*
G02*
X107972434Y-139936653I57983J-57983D01*
G01*
X108987840Y-140952059D01*
G75*
G02*
X108987840Y-141068025I-57983J-57983D01*
G01*
X108523978Y-141531887D01*
G75*
G02*
X108408012Y-141531887I-57983J57983D01*
G01*
G37*
G36*
G01*
X113145627Y-144148182D02*
X112130221Y-143132776D01*
G75*
G02*
X112130221Y-143016810I57983J57983D01*
G01*
X112594083Y-142552948D01*
G75*
G02*
X112710049Y-142552948I57983J-57983D01*
G01*
X113725455Y-143568354D01*
G75*
G02*
X113725455Y-143684320I-57983J-57983D01*
G01*
X113261593Y-144148182D01*
G75*
G02*
X113145627Y-144148182I-57983J57983D01*
G01*
G37*
G36*
G01*
X112084967Y-145208842D02*
X111069561Y-144193436D01*
G75*
G02*
X111069561Y-144077470I57983J57983D01*
G01*
X111533423Y-143613608D01*
G75*
G02*
X111649389Y-143613608I57983J-57983D01*
G01*
X112664795Y-144629014D01*
G75*
G02*
X112664795Y-144744980I-57983J-57983D01*
G01*
X112200933Y-145208842D01*
G75*
G02*
X112084967Y-145208842I-57983J57983D01*
G01*
G37*
%TD*%
%TO.C,D58*%
G36*
G01*
X73278379Y-115928425D02*
X71976921Y-115321545D01*
G75*
G02*
X71937259Y-115212573I34655J74317D01*
G01*
X72214497Y-114618035D01*
G75*
G02*
X72323469Y-114578373I74317J-34655D01*
G01*
X73624927Y-115185253D01*
G75*
G02*
X73664589Y-115294225I-34655J-74317D01*
G01*
X73387351Y-115888763D01*
G75*
G02*
X73278379Y-115928425I-74317J34655D01*
G01*
G37*
G36*
G01*
X72644451Y-117287887D02*
X71342993Y-116681007D01*
G75*
G02*
X71303331Y-116572035I34655J74317D01*
G01*
X71580569Y-115977497D01*
G75*
G02*
X71689541Y-115937835I74317J-34655D01*
G01*
X72990999Y-116544715D01*
G75*
G02*
X73030661Y-116653687I-34655J-74317D01*
G01*
X72753423Y-117248225D01*
G75*
G02*
X72644451Y-117287887I-74317J34655D01*
G01*
G37*
G36*
G01*
X77991179Y-118126040D02*
X76689721Y-117519160D01*
G75*
G02*
X76650059Y-117410188I34655J74317D01*
G01*
X76927297Y-116815650D01*
G75*
G02*
X77036269Y-116775988I74317J-34655D01*
G01*
X78337727Y-117382868D01*
G75*
G02*
X78377389Y-117491840I-34655J-74317D01*
G01*
X78100151Y-118086378D01*
G75*
G02*
X77991179Y-118126040I-74317J34655D01*
G01*
G37*
G36*
G01*
X77357252Y-119485502D02*
X76055794Y-118878622D01*
G75*
G02*
X76016132Y-118769650I34655J74317D01*
G01*
X76293370Y-118175112D01*
G75*
G02*
X76402342Y-118135450I74317J-34655D01*
G01*
X77703800Y-118742330D01*
G75*
G02*
X77743462Y-118851302I-34655J-74317D01*
G01*
X77466224Y-119445840D01*
G75*
G02*
X77357252Y-119485502I-74317J34655D01*
G01*
G37*
%TD*%
%TO.C,D51*%
G36*
G01*
X64510898Y-89772523D02*
X63209440Y-89165643D01*
G75*
G02*
X63169778Y-89056671I34655J74317D01*
G01*
X63447016Y-88462133D01*
G75*
G02*
X63555988Y-88422471I74317J-34655D01*
G01*
X64857446Y-89029351D01*
G75*
G02*
X64897108Y-89138323I-34655J-74317D01*
G01*
X64619870Y-89732861D01*
G75*
G02*
X64510898Y-89772523I-74317J34655D01*
G01*
G37*
G36*
G01*
X63876970Y-91131985D02*
X62575512Y-90525105D01*
G75*
G02*
X62535850Y-90416133I34655J74317D01*
G01*
X62813088Y-89821595D01*
G75*
G02*
X62922060Y-89781933I74317J-34655D01*
G01*
X64223518Y-90388813D01*
G75*
G02*
X64263180Y-90497785I-34655J-74317D01*
G01*
X63985942Y-91092323D01*
G75*
G02*
X63876970Y-91131985I-74317J34655D01*
G01*
G37*
G36*
G01*
X69223698Y-91970138D02*
X67922240Y-91363258D01*
G75*
G02*
X67882578Y-91254286I34655J74317D01*
G01*
X68159816Y-90659748D01*
G75*
G02*
X68268788Y-90620086I74317J-34655D01*
G01*
X69570246Y-91226966D01*
G75*
G02*
X69609908Y-91335938I-34655J-74317D01*
G01*
X69332670Y-91930476D01*
G75*
G02*
X69223698Y-91970138I-74317J34655D01*
G01*
G37*
G36*
G01*
X68589771Y-93329600D02*
X67288313Y-92722720D01*
G75*
G02*
X67248651Y-92613748I34655J74317D01*
G01*
X67525889Y-92019210D01*
G75*
G02*
X67634861Y-91979548I74317J-34655D01*
G01*
X68936319Y-92586428D01*
G75*
G02*
X68975981Y-92695400I-34655J-74317D01*
G01*
X68698743Y-93289938D01*
G75*
G02*
X68589771Y-93329600I-74317J34655D01*
G01*
G37*
%TD*%
%TO.C,D44*%
G36*
G01*
X45177961Y-86274315D02*
X43876503Y-85667435D01*
G75*
G02*
X43836841Y-85558463I34655J74317D01*
G01*
X44114079Y-84963925D01*
G75*
G02*
X44223051Y-84924263I74317J-34655D01*
G01*
X45524509Y-85531143D01*
G75*
G02*
X45564171Y-85640115I-34655J-74317D01*
G01*
X45286933Y-86234653D01*
G75*
G02*
X45177961Y-86274315I-74317J34655D01*
G01*
G37*
G36*
G01*
X44544033Y-87633777D02*
X43242575Y-87026897D01*
G75*
G02*
X43202913Y-86917925I34655J74317D01*
G01*
X43480151Y-86323387D01*
G75*
G02*
X43589123Y-86283725I74317J-34655D01*
G01*
X44890581Y-86890605D01*
G75*
G02*
X44930243Y-86999577I-34655J-74317D01*
G01*
X44653005Y-87594115D01*
G75*
G02*
X44544033Y-87633777I-74317J34655D01*
G01*
G37*
G36*
G01*
X49890761Y-88471930D02*
X48589303Y-87865050D01*
G75*
G02*
X48549641Y-87756078I34655J74317D01*
G01*
X48826879Y-87161540D01*
G75*
G02*
X48935851Y-87121878I74317J-34655D01*
G01*
X50237309Y-87728758D01*
G75*
G02*
X50276971Y-87837730I-34655J-74317D01*
G01*
X49999733Y-88432268D01*
G75*
G02*
X49890761Y-88471930I-74317J34655D01*
G01*
G37*
G36*
G01*
X49256834Y-89831392D02*
X47955376Y-89224512D01*
G75*
G02*
X47915714Y-89115540I34655J74317D01*
G01*
X48192952Y-88521002D01*
G75*
G02*
X48301924Y-88481340I74317J-34655D01*
G01*
X49603382Y-89088220D01*
G75*
G02*
X49643044Y-89197192I-34655J-74317D01*
G01*
X49365806Y-89791730D01*
G75*
G02*
X49256834Y-89831392I-74317J34655D01*
G01*
G37*
%TD*%
%TO.C,D78*%
G36*
G01*
X239490880Y-73944302D02*
X238189422Y-74551182D01*
G75*
G02*
X238080450Y-74511520I-34655J74317D01*
G01*
X237803212Y-73916982D01*
G75*
G02*
X237842874Y-73808010I74317J34655D01*
G01*
X239144332Y-73201130D01*
G75*
G02*
X239253304Y-73240792I34655J-74317D01*
G01*
X239530542Y-73835330D01*
G75*
G02*
X239490880Y-73944302I-74317J-34655D01*
G01*
G37*
G36*
G01*
X240124807Y-75303764D02*
X238823349Y-75910644D01*
G75*
G02*
X238714377Y-75870982I-34655J74317D01*
G01*
X238437139Y-75276444D01*
G75*
G02*
X238476801Y-75167472I74317J34655D01*
G01*
X239778259Y-74560592D01*
G75*
G02*
X239887231Y-74600254I34655J-74317D01*
G01*
X240164469Y-75194792D01*
G75*
G02*
X240124807Y-75303764I-74317J-34655D01*
G01*
G37*
G36*
G01*
X244203680Y-71746687D02*
X242902222Y-72353567D01*
G75*
G02*
X242793250Y-72313905I-34655J74317D01*
G01*
X242516012Y-71719367D01*
G75*
G02*
X242555674Y-71610395I74317J34655D01*
G01*
X243857132Y-71003515D01*
G75*
G02*
X243966104Y-71043177I34655J-74317D01*
G01*
X244243342Y-71637715D01*
G75*
G02*
X244203680Y-71746687I-74317J-34655D01*
G01*
G37*
G36*
G01*
X244837608Y-73106149D02*
X243536150Y-73713029D01*
G75*
G02*
X243427178Y-73673367I-34655J74317D01*
G01*
X243149940Y-73078829D01*
G75*
G02*
X243189602Y-72969857I74317J34655D01*
G01*
X244491060Y-72362977D01*
G75*
G02*
X244600032Y-72402639I34655J-74317D01*
G01*
X244877270Y-72997177D01*
G75*
G02*
X244837608Y-73106149I-74317J-34655D01*
G01*
G37*
%TD*%
%TO.C,D76*%
G36*
G01*
X216988307Y-70645203D02*
X215686849Y-71252083D01*
G75*
G02*
X215577877Y-71212421I-34655J74317D01*
G01*
X215300639Y-70617883D01*
G75*
G02*
X215340301Y-70508911I74317J34655D01*
G01*
X216641759Y-69902031D01*
G75*
G02*
X216750731Y-69941693I34655J-74317D01*
G01*
X217027969Y-70536231D01*
G75*
G02*
X216988307Y-70645203I-74317J-34655D01*
G01*
G37*
G36*
G01*
X217622234Y-72004665D02*
X216320776Y-72611545D01*
G75*
G02*
X216211804Y-72571883I-34655J74317D01*
G01*
X215934566Y-71977345D01*
G75*
G02*
X215974228Y-71868373I74317J34655D01*
G01*
X217275686Y-71261493D01*
G75*
G02*
X217384658Y-71301155I34655J-74317D01*
G01*
X217661896Y-71895693D01*
G75*
G02*
X217622234Y-72004665I-74317J-34655D01*
G01*
G37*
G36*
G01*
X221701107Y-68447588D02*
X220399649Y-69054468D01*
G75*
G02*
X220290677Y-69014806I-34655J74317D01*
G01*
X220013439Y-68420268D01*
G75*
G02*
X220053101Y-68311296I74317J34655D01*
G01*
X221354559Y-67704416D01*
G75*
G02*
X221463531Y-67744078I34655J-74317D01*
G01*
X221740769Y-68338616D01*
G75*
G02*
X221701107Y-68447588I-74317J-34655D01*
G01*
G37*
G36*
G01*
X222335035Y-69807050D02*
X221033577Y-70413930D01*
G75*
G02*
X220924605Y-70374268I-34655J74317D01*
G01*
X220647367Y-69779730D01*
G75*
G02*
X220687029Y-69670758I74317J34655D01*
G01*
X221988487Y-69063878D01*
G75*
G02*
X222097459Y-69103540I34655J-74317D01*
G01*
X222374697Y-69698078D01*
G75*
G02*
X222335035Y-69807050I-74317J-34655D01*
G01*
G37*
%TD*%
%TO.C,D71*%
G36*
G01*
X197655369Y-74143413D02*
X196353911Y-74750293D01*
G75*
G02*
X196244939Y-74710631I-34655J74317D01*
G01*
X195967701Y-74116093D01*
G75*
G02*
X196007363Y-74007121I74317J34655D01*
G01*
X197308821Y-73400241D01*
G75*
G02*
X197417793Y-73439903I34655J-74317D01*
G01*
X197695031Y-74034441D01*
G75*
G02*
X197655369Y-74143413I-74317J-34655D01*
G01*
G37*
G36*
G01*
X198289296Y-75502875D02*
X196987838Y-76109755D01*
G75*
G02*
X196878866Y-76070093I-34655J74317D01*
G01*
X196601628Y-75475555D01*
G75*
G02*
X196641290Y-75366583I74317J34655D01*
G01*
X197942748Y-74759703D01*
G75*
G02*
X198051720Y-74799365I34655J-74317D01*
G01*
X198328958Y-75393903D01*
G75*
G02*
X198289296Y-75502875I-74317J-34655D01*
G01*
G37*
G36*
G01*
X202368169Y-71945798D02*
X201066711Y-72552678D01*
G75*
G02*
X200957739Y-72513016I-34655J74317D01*
G01*
X200680501Y-71918478D01*
G75*
G02*
X200720163Y-71809506I74317J34655D01*
G01*
X202021621Y-71202626D01*
G75*
G02*
X202130593Y-71242288I34655J-74317D01*
G01*
X202407831Y-71836826D01*
G75*
G02*
X202368169Y-71945798I-74317J-34655D01*
G01*
G37*
G36*
G01*
X203002097Y-73305260D02*
X201700639Y-73912140D01*
G75*
G02*
X201591667Y-73872478I-34655J74317D01*
G01*
X201314429Y-73277940D01*
G75*
G02*
X201354091Y-73168968I74317J34655D01*
G01*
X202655549Y-72562088D01*
G75*
G02*
X202764521Y-72601750I34655J-74317D01*
G01*
X203041759Y-73196288D01*
G75*
G02*
X203002097Y-73305260I-74317J-34655D01*
G01*
G37*
%TD*%
%TO.C,D69*%
G36*
G01*
X182548611Y-86704695D02*
X181247153Y-87311575D01*
G75*
G02*
X181138181Y-87271913I-34655J74317D01*
G01*
X180860943Y-86677375D01*
G75*
G02*
X180900605Y-86568403I74317J34655D01*
G01*
X182202063Y-85961523D01*
G75*
G02*
X182311035Y-86001185I34655J-74317D01*
G01*
X182588273Y-86595723D01*
G75*
G02*
X182548611Y-86704695I-74317J-34655D01*
G01*
G37*
G36*
G01*
X183182538Y-88064157D02*
X181881080Y-88671037D01*
G75*
G02*
X181772108Y-88631375I-34655J74317D01*
G01*
X181494870Y-88036837D01*
G75*
G02*
X181534532Y-87927865I74317J34655D01*
G01*
X182835990Y-87320985D01*
G75*
G02*
X182944962Y-87360647I34655J-74317D01*
G01*
X183222200Y-87955185D01*
G75*
G02*
X183182538Y-88064157I-74317J-34655D01*
G01*
G37*
G36*
G01*
X187261411Y-84507080D02*
X185959953Y-85113960D01*
G75*
G02*
X185850981Y-85074298I-34655J74317D01*
G01*
X185573743Y-84479760D01*
G75*
G02*
X185613405Y-84370788I74317J34655D01*
G01*
X186914863Y-83763908D01*
G75*
G02*
X187023835Y-83803570I34655J-74317D01*
G01*
X187301073Y-84398108D01*
G75*
G02*
X187261411Y-84507080I-74317J-34655D01*
G01*
G37*
G36*
G01*
X187895339Y-85866542D02*
X186593881Y-86473422D01*
G75*
G02*
X186484909Y-86433760I-34655J74317D01*
G01*
X186207671Y-85839222D01*
G75*
G02*
X186247333Y-85730250I74317J34655D01*
G01*
X187548791Y-85123370D01*
G75*
G02*
X187657763Y-85163032I34655J-74317D01*
G01*
X187935001Y-85757570D01*
G75*
G02*
X187895339Y-85866542I-74317J-34655D01*
G01*
G37*
%TD*%
%TO.C,D64*%
G36*
G01*
X166385309Y-97000213D02*
X165083851Y-97607093D01*
G75*
G02*
X164974879Y-97567431I-34655J74317D01*
G01*
X164697641Y-96972893D01*
G75*
G02*
X164737303Y-96863921I74317J34655D01*
G01*
X166038761Y-96257041D01*
G75*
G02*
X166147733Y-96296703I34655J-74317D01*
G01*
X166424971Y-96891241D01*
G75*
G02*
X166385309Y-97000213I-74317J-34655D01*
G01*
G37*
G36*
G01*
X167019236Y-98359675D02*
X165717778Y-98966555D01*
G75*
G02*
X165608806Y-98926893I-34655J74317D01*
G01*
X165331568Y-98332355D01*
G75*
G02*
X165371230Y-98223383I74317J34655D01*
G01*
X166672688Y-97616503D01*
G75*
G02*
X166781660Y-97656165I34655J-74317D01*
G01*
X167058898Y-98250703D01*
G75*
G02*
X167019236Y-98359675I-74317J-34655D01*
G01*
G37*
G36*
G01*
X171098109Y-94802598D02*
X169796651Y-95409478D01*
G75*
G02*
X169687679Y-95369816I-34655J74317D01*
G01*
X169410441Y-94775278D01*
G75*
G02*
X169450103Y-94666306I74317J34655D01*
G01*
X170751561Y-94059426D01*
G75*
G02*
X170860533Y-94099088I34655J-74317D01*
G01*
X171137771Y-94693626D01*
G75*
G02*
X171098109Y-94802598I-74317J-34655D01*
G01*
G37*
G36*
G01*
X171732037Y-96162060D02*
X170430579Y-96768940D01*
G75*
G02*
X170321607Y-96729278I-34655J74317D01*
G01*
X170044369Y-96134740D01*
G75*
G02*
X170084031Y-96025768I74317J34655D01*
G01*
X171385489Y-95418888D01*
G75*
G02*
X171494461Y-95458550I34655J-74317D01*
G01*
X171771699Y-96053088D01*
G75*
G02*
X171732037Y-96162060I-74317J-34655D01*
G01*
G37*
%TD*%
%TO.C,D50*%
G36*
G01*
X72540645Y-72552675D02*
X71239187Y-71945795D01*
G75*
G02*
X71199525Y-71836823I34655J74317D01*
G01*
X71476763Y-71242285D01*
G75*
G02*
X71585735Y-71202623I74317J-34655D01*
G01*
X72887193Y-71809503D01*
G75*
G02*
X72926855Y-71918475I-34655J-74317D01*
G01*
X72649617Y-72513013D01*
G75*
G02*
X72540645Y-72552675I-74317J34655D01*
G01*
G37*
G36*
G01*
X71906717Y-73912137D02*
X70605259Y-73305257D01*
G75*
G02*
X70565597Y-73196285I34655J74317D01*
G01*
X70842835Y-72601747D01*
G75*
G02*
X70951807Y-72562085I74317J-34655D01*
G01*
X72253265Y-73168965D01*
G75*
G02*
X72292927Y-73277937I-34655J-74317D01*
G01*
X72015689Y-73872475D01*
G75*
G02*
X71906717Y-73912137I-74317J34655D01*
G01*
G37*
G36*
G01*
X77253445Y-74750290D02*
X75951987Y-74143410D01*
G75*
G02*
X75912325Y-74034438I34655J74317D01*
G01*
X76189563Y-73439900D01*
G75*
G02*
X76298535Y-73400238I74317J-34655D01*
G01*
X77599993Y-74007118D01*
G75*
G02*
X77639655Y-74116090I-34655J-74317D01*
G01*
X77362417Y-74710628D01*
G75*
G02*
X77253445Y-74750290I-74317J34655D01*
G01*
G37*
G36*
G01*
X76619518Y-76109752D02*
X75318060Y-75502872D01*
G75*
G02*
X75278398Y-75393900I34655J74317D01*
G01*
X75555636Y-74799362D01*
G75*
G02*
X75664608Y-74759700I74317J-34655D01*
G01*
X76966066Y-75366580D01*
G75*
G02*
X77005728Y-75475552I-34655J-74317D01*
G01*
X76728490Y-76070090D01*
G75*
G02*
X76619518Y-76109752I-74317J34655D01*
G01*
G37*
%TD*%
%TO.C,D43*%
G36*
G01*
X30705130Y-72353568D02*
X29403672Y-71746688D01*
G75*
G02*
X29364010Y-71637716I34655J74317D01*
G01*
X29641248Y-71043178D01*
G75*
G02*
X29750220Y-71003516I74317J-34655D01*
G01*
X31051678Y-71610396D01*
G75*
G02*
X31091340Y-71719368I-34655J-74317D01*
G01*
X30814102Y-72313906D01*
G75*
G02*
X30705130Y-72353568I-74317J34655D01*
G01*
G37*
G36*
G01*
X30071202Y-73713030D02*
X28769744Y-73106150D01*
G75*
G02*
X28730082Y-72997178I34655J74317D01*
G01*
X29007320Y-72402640D01*
G75*
G02*
X29116292Y-72362978I74317J-34655D01*
G01*
X30417750Y-72969858D01*
G75*
G02*
X30457412Y-73078830I-34655J-74317D01*
G01*
X30180174Y-73673368D01*
G75*
G02*
X30071202Y-73713030I-74317J34655D01*
G01*
G37*
G36*
G01*
X35417930Y-74551183D02*
X34116472Y-73944303D01*
G75*
G02*
X34076810Y-73835331I34655J74317D01*
G01*
X34354048Y-73240793D01*
G75*
G02*
X34463020Y-73201131I74317J-34655D01*
G01*
X35764478Y-73808011D01*
G75*
G02*
X35804140Y-73916983I-34655J-74317D01*
G01*
X35526902Y-74511521D01*
G75*
G02*
X35417930Y-74551183I-74317J34655D01*
G01*
G37*
G36*
G01*
X34784003Y-75910645D02*
X33482545Y-75303765D01*
G75*
G02*
X33442883Y-75194793I34655J74317D01*
G01*
X33720121Y-74600255D01*
G75*
G02*
X33829093Y-74560593I74317J-34655D01*
G01*
X35130551Y-75167473D01*
G75*
G02*
X35170213Y-75276445I-34655J-74317D01*
G01*
X34892975Y-75870983D01*
G75*
G02*
X34784003Y-75910645I-74317J34655D01*
G01*
G37*
%TD*%
%TO.C,D79*%
G36*
G01*
X231461133Y-56724455D02*
X230159675Y-57331335D01*
G75*
G02*
X230050703Y-57291673I-34655J74317D01*
G01*
X229773465Y-56697135D01*
G75*
G02*
X229813127Y-56588163I74317J34655D01*
G01*
X231114585Y-55981283D01*
G75*
G02*
X231223557Y-56020945I34655J-74317D01*
G01*
X231500795Y-56615483D01*
G75*
G02*
X231461133Y-56724455I-74317J-34655D01*
G01*
G37*
G36*
G01*
X232095060Y-58083917D02*
X230793602Y-58690797D01*
G75*
G02*
X230684630Y-58651135I-34655J74317D01*
G01*
X230407392Y-58056597D01*
G75*
G02*
X230447054Y-57947625I74317J34655D01*
G01*
X231748512Y-57340745D01*
G75*
G02*
X231857484Y-57380407I34655J-74317D01*
G01*
X232134722Y-57974945D01*
G75*
G02*
X232095060Y-58083917I-74317J-34655D01*
G01*
G37*
G36*
G01*
X236173933Y-54526840D02*
X234872475Y-55133720D01*
G75*
G02*
X234763503Y-55094058I-34655J74317D01*
G01*
X234486265Y-54499520D01*
G75*
G02*
X234525927Y-54390548I74317J34655D01*
G01*
X235827385Y-53783668D01*
G75*
G02*
X235936357Y-53823330I34655J-74317D01*
G01*
X236213595Y-54417868D01*
G75*
G02*
X236173933Y-54526840I-74317J-34655D01*
G01*
G37*
G36*
G01*
X236807861Y-55886302D02*
X235506403Y-56493182D01*
G75*
G02*
X235397431Y-56453520I-34655J74317D01*
G01*
X235120193Y-55858982D01*
G75*
G02*
X235159855Y-55750010I74317J34655D01*
G01*
X236461313Y-55143130D01*
G75*
G02*
X236570285Y-55182792I34655J-74317D01*
G01*
X236847523Y-55777330D01*
G75*
G02*
X236807861Y-55886302I-74317J-34655D01*
G01*
G37*
%TD*%
%TO.C,D75*%
G36*
G01*
X208958561Y-53425354D02*
X207657103Y-54032234D01*
G75*
G02*
X207548131Y-53992572I-34655J74317D01*
G01*
X207270893Y-53398034D01*
G75*
G02*
X207310555Y-53289062I74317J34655D01*
G01*
X208612013Y-52682182D01*
G75*
G02*
X208720985Y-52721844I34655J-74317D01*
G01*
X208998223Y-53316382D01*
G75*
G02*
X208958561Y-53425354I-74317J-34655D01*
G01*
G37*
G36*
G01*
X209592488Y-54784816D02*
X208291030Y-55391696D01*
G75*
G02*
X208182058Y-55352034I-34655J74317D01*
G01*
X207904820Y-54757496D01*
G75*
G02*
X207944482Y-54648524I74317J34655D01*
G01*
X209245940Y-54041644D01*
G75*
G02*
X209354912Y-54081306I34655J-74317D01*
G01*
X209632150Y-54675844D01*
G75*
G02*
X209592488Y-54784816I-74317J-34655D01*
G01*
G37*
G36*
G01*
X213671361Y-51227739D02*
X212369903Y-51834619D01*
G75*
G02*
X212260931Y-51794957I-34655J74317D01*
G01*
X211983693Y-51200419D01*
G75*
G02*
X212023355Y-51091447I74317J34655D01*
G01*
X213324813Y-50484567D01*
G75*
G02*
X213433785Y-50524229I34655J-74317D01*
G01*
X213711023Y-51118767D01*
G75*
G02*
X213671361Y-51227739I-74317J-34655D01*
G01*
G37*
G36*
G01*
X214305289Y-52587201D02*
X213003831Y-53194081D01*
G75*
G02*
X212894859Y-53154419I-34655J74317D01*
G01*
X212617621Y-52559881D01*
G75*
G02*
X212657283Y-52450909I74317J34655D01*
G01*
X213958741Y-51844029D01*
G75*
G02*
X214067713Y-51883691I34655J-74317D01*
G01*
X214344951Y-52478229D01*
G75*
G02*
X214305289Y-52587201I-74317J-34655D01*
G01*
G37*
%TD*%
%TO.C,D72*%
G36*
G01*
X189625620Y-56923564D02*
X188324162Y-57530444D01*
G75*
G02*
X188215190Y-57490782I-34655J74317D01*
G01*
X187937952Y-56896244D01*
G75*
G02*
X187977614Y-56787272I74317J34655D01*
G01*
X189279072Y-56180392D01*
G75*
G02*
X189388044Y-56220054I34655J-74317D01*
G01*
X189665282Y-56814592D01*
G75*
G02*
X189625620Y-56923564I-74317J-34655D01*
G01*
G37*
G36*
G01*
X190259547Y-58283026D02*
X188958089Y-58889906D01*
G75*
G02*
X188849117Y-58850244I-34655J74317D01*
G01*
X188571879Y-58255706D01*
G75*
G02*
X188611541Y-58146734I74317J34655D01*
G01*
X189912999Y-57539854D01*
G75*
G02*
X190021971Y-57579516I34655J-74317D01*
G01*
X190299209Y-58174054D01*
G75*
G02*
X190259547Y-58283026I-74317J-34655D01*
G01*
G37*
G36*
G01*
X194338420Y-54725949D02*
X193036962Y-55332829D01*
G75*
G02*
X192927990Y-55293167I-34655J74317D01*
G01*
X192650752Y-54698629D01*
G75*
G02*
X192690414Y-54589657I74317J34655D01*
G01*
X193991872Y-53982777D01*
G75*
G02*
X194100844Y-54022439I34655J-74317D01*
G01*
X194378082Y-54616977D01*
G75*
G02*
X194338420Y-54725949I-74317J-34655D01*
G01*
G37*
G36*
G01*
X194972348Y-56085411D02*
X193670890Y-56692291D01*
G75*
G02*
X193561918Y-56652629I-34655J74317D01*
G01*
X193284680Y-56058091D01*
G75*
G02*
X193324342Y-55949119I74317J34655D01*
G01*
X194625800Y-55342239D01*
G75*
G02*
X194734772Y-55381901I34655J-74317D01*
G01*
X195012010Y-55976439D01*
G75*
G02*
X194972348Y-56085411I-74317J-34655D01*
G01*
G37*
%TD*%
%TO.C,D68*%
G36*
G01*
X174518866Y-69484851D02*
X173217408Y-70091731D01*
G75*
G02*
X173108436Y-70052069I-34655J74317D01*
G01*
X172831198Y-69457531D01*
G75*
G02*
X172870860Y-69348559I74317J34655D01*
G01*
X174172318Y-68741679D01*
G75*
G02*
X174281290Y-68781341I34655J-74317D01*
G01*
X174558528Y-69375879D01*
G75*
G02*
X174518866Y-69484851I-74317J-34655D01*
G01*
G37*
G36*
G01*
X175152793Y-70844313D02*
X173851335Y-71451193D01*
G75*
G02*
X173742363Y-71411531I-34655J74317D01*
G01*
X173465125Y-70816993D01*
G75*
G02*
X173504787Y-70708021I74317J34655D01*
G01*
X174806245Y-70101141D01*
G75*
G02*
X174915217Y-70140803I34655J-74317D01*
G01*
X175192455Y-70735341D01*
G75*
G02*
X175152793Y-70844313I-74317J-34655D01*
G01*
G37*
G36*
G01*
X179231666Y-67287236D02*
X177930208Y-67894116D01*
G75*
G02*
X177821236Y-67854454I-34655J74317D01*
G01*
X177543998Y-67259916D01*
G75*
G02*
X177583660Y-67150944I74317J34655D01*
G01*
X178885118Y-66544064D01*
G75*
G02*
X178994090Y-66583726I34655J-74317D01*
G01*
X179271328Y-67178264D01*
G75*
G02*
X179231666Y-67287236I-74317J-34655D01*
G01*
G37*
G36*
G01*
X179865594Y-68646698D02*
X178564136Y-69253578D01*
G75*
G02*
X178455164Y-69213916I-34655J74317D01*
G01*
X178177926Y-68619378D01*
G75*
G02*
X178217588Y-68510406I74317J34655D01*
G01*
X179519046Y-67903526D01*
G75*
G02*
X179628018Y-67943188I34655J-74317D01*
G01*
X179905256Y-68537726D01*
G75*
G02*
X179865594Y-68646698I-74317J-34655D01*
G01*
G37*
%TD*%
%TO.C,D49*%
G36*
G01*
X80570393Y-55332829D02*
X79268935Y-54725949D01*
G75*
G02*
X79229273Y-54616977I34655J74317D01*
G01*
X79506511Y-54022439D01*
G75*
G02*
X79615483Y-53982777I74317J-34655D01*
G01*
X80916941Y-54589657D01*
G75*
G02*
X80956603Y-54698629I-34655J-74317D01*
G01*
X80679365Y-55293167D01*
G75*
G02*
X80570393Y-55332829I-74317J34655D01*
G01*
G37*
G36*
G01*
X79936465Y-56692291D02*
X78635007Y-56085411D01*
G75*
G02*
X78595345Y-55976439I34655J74317D01*
G01*
X78872583Y-55381901D01*
G75*
G02*
X78981555Y-55342239I74317J-34655D01*
G01*
X80283013Y-55949119D01*
G75*
G02*
X80322675Y-56058091I-34655J-74317D01*
G01*
X80045437Y-56652629D01*
G75*
G02*
X79936465Y-56692291I-74317J34655D01*
G01*
G37*
G36*
G01*
X85283193Y-57530444D02*
X83981735Y-56923564D01*
G75*
G02*
X83942073Y-56814592I34655J74317D01*
G01*
X84219311Y-56220054D01*
G75*
G02*
X84328283Y-56180392I74317J-34655D01*
G01*
X85629741Y-56787272D01*
G75*
G02*
X85669403Y-56896244I-34655J-74317D01*
G01*
X85392165Y-57490782D01*
G75*
G02*
X85283193Y-57530444I-74317J34655D01*
G01*
G37*
G36*
G01*
X84649266Y-58889906D02*
X83347808Y-58283026D01*
G75*
G02*
X83308146Y-58174054I34655J74317D01*
G01*
X83585384Y-57579516D01*
G75*
G02*
X83694356Y-57539854I74317J-34655D01*
G01*
X84995814Y-58146734D01*
G75*
G02*
X85035476Y-58255706I-34655J-74317D01*
G01*
X84758238Y-58850244D01*
G75*
G02*
X84649266Y-58889906I-74317J34655D01*
G01*
G37*
%TD*%
%TO.C,D46*%
G36*
G01*
X61237455Y-51834621D02*
X59935997Y-51227741D01*
G75*
G02*
X59896335Y-51118769I34655J74317D01*
G01*
X60173573Y-50524231D01*
G75*
G02*
X60282545Y-50484569I74317J-34655D01*
G01*
X61584003Y-51091449D01*
G75*
G02*
X61623665Y-51200421I-34655J-74317D01*
G01*
X61346427Y-51794959D01*
G75*
G02*
X61237455Y-51834621I-74317J34655D01*
G01*
G37*
G36*
G01*
X60603527Y-53194083D02*
X59302069Y-52587203D01*
G75*
G02*
X59262407Y-52478231I34655J74317D01*
G01*
X59539645Y-51883693D01*
G75*
G02*
X59648617Y-51844031I74317J-34655D01*
G01*
X60950075Y-52450911D01*
G75*
G02*
X60989737Y-52559883I-34655J-74317D01*
G01*
X60712499Y-53154421D01*
G75*
G02*
X60603527Y-53194083I-74317J34655D01*
G01*
G37*
G36*
G01*
X65950255Y-54032236D02*
X64648797Y-53425356D01*
G75*
G02*
X64609135Y-53316384I34655J74317D01*
G01*
X64886373Y-52721846D01*
G75*
G02*
X64995345Y-52682184I74317J-34655D01*
G01*
X66296803Y-53289064D01*
G75*
G02*
X66336465Y-53398036I-34655J-74317D01*
G01*
X66059227Y-53992574D01*
G75*
G02*
X65950255Y-54032236I-74317J34655D01*
G01*
G37*
G36*
G01*
X65316328Y-55391698D02*
X64014870Y-54784818D01*
G75*
G02*
X63975208Y-54675846I34655J74317D01*
G01*
X64252446Y-54081308D01*
G75*
G02*
X64361418Y-54041646I74317J-34655D01*
G01*
X65662876Y-54648526D01*
G75*
G02*
X65702538Y-54757498I-34655J-74317D01*
G01*
X65425300Y-55352036D01*
G75*
G02*
X65316328Y-55391698I-74317J34655D01*
G01*
G37*
%TD*%
%TO.C,D42*%
G36*
G01*
X38734880Y-55133721D02*
X37433422Y-54526841D01*
G75*
G02*
X37393760Y-54417869I34655J74317D01*
G01*
X37670998Y-53823331D01*
G75*
G02*
X37779970Y-53783669I74317J-34655D01*
G01*
X39081428Y-54390549D01*
G75*
G02*
X39121090Y-54499521I-34655J-74317D01*
G01*
X38843852Y-55094059D01*
G75*
G02*
X38734880Y-55133721I-74317J34655D01*
G01*
G37*
G36*
G01*
X38100952Y-56493183D02*
X36799494Y-55886303D01*
G75*
G02*
X36759832Y-55777331I34655J74317D01*
G01*
X37037070Y-55182793D01*
G75*
G02*
X37146042Y-55143131I74317J-34655D01*
G01*
X38447500Y-55750011D01*
G75*
G02*
X38487162Y-55858983I-34655J-74317D01*
G01*
X38209924Y-56453521D01*
G75*
G02*
X38100952Y-56493183I-74317J34655D01*
G01*
G37*
G36*
G01*
X43447680Y-57331336D02*
X42146222Y-56724456D01*
G75*
G02*
X42106560Y-56615484I34655J74317D01*
G01*
X42383798Y-56020946D01*
G75*
G02*
X42492770Y-55981284I74317J-34655D01*
G01*
X43794228Y-56588164D01*
G75*
G02*
X43833890Y-56697136I-34655J-74317D01*
G01*
X43556652Y-57291674D01*
G75*
G02*
X43447680Y-57331336I-74317J34655D01*
G01*
G37*
G36*
G01*
X42813753Y-58690798D02*
X41512295Y-58083918D01*
G75*
G02*
X41472633Y-57974946I34655J74317D01*
G01*
X41749871Y-57380408D01*
G75*
G02*
X41858843Y-57340746I74317J-34655D01*
G01*
X43160301Y-57947626D01*
G75*
G02*
X43199963Y-58056598I-34655J-74317D01*
G01*
X42922725Y-58651136D01*
G75*
G02*
X42813753Y-58690798I-74317J34655D01*
G01*
G37*
%TD*%
%TO.C,D80*%
G36*
G01*
X223431387Y-39504608D02*
X222129929Y-40111488D01*
G75*
G02*
X222020957Y-40071826I-34655J74317D01*
G01*
X221743719Y-39477288D01*
G75*
G02*
X221783381Y-39368316I74317J34655D01*
G01*
X223084839Y-38761436D01*
G75*
G02*
X223193811Y-38801098I34655J-74317D01*
G01*
X223471049Y-39395636D01*
G75*
G02*
X223431387Y-39504608I-74317J-34655D01*
G01*
G37*
G36*
G01*
X224065314Y-40864070D02*
X222763856Y-41470950D01*
G75*
G02*
X222654884Y-41431288I-34655J74317D01*
G01*
X222377646Y-40836750D01*
G75*
G02*
X222417308Y-40727778I74317J34655D01*
G01*
X223718766Y-40120898D01*
G75*
G02*
X223827738Y-40160560I34655J-74317D01*
G01*
X224104976Y-40755098D01*
G75*
G02*
X224065314Y-40864070I-74317J-34655D01*
G01*
G37*
G36*
G01*
X228144187Y-37306993D02*
X226842729Y-37913873D01*
G75*
G02*
X226733757Y-37874211I-34655J74317D01*
G01*
X226456519Y-37279673D01*
G75*
G02*
X226496181Y-37170701I74317J34655D01*
G01*
X227797639Y-36563821D01*
G75*
G02*
X227906611Y-36603483I34655J-74317D01*
G01*
X228183849Y-37198021D01*
G75*
G02*
X228144187Y-37306993I-74317J-34655D01*
G01*
G37*
G36*
G01*
X228778115Y-38666455D02*
X227476657Y-39273335D01*
G75*
G02*
X227367685Y-39233673I-34655J74317D01*
G01*
X227090447Y-38639135D01*
G75*
G02*
X227130109Y-38530163I74317J34655D01*
G01*
X228431567Y-37923283D01*
G75*
G02*
X228540539Y-37962945I34655J-74317D01*
G01*
X228817777Y-38557483D01*
G75*
G02*
X228778115Y-38666455I-74317J-34655D01*
G01*
G37*
%TD*%
%TO.C,D74*%
G36*
G01*
X200928812Y-36205509D02*
X199627354Y-36812389D01*
G75*
G02*
X199518382Y-36772727I-34655J74317D01*
G01*
X199241144Y-36178189D01*
G75*
G02*
X199280806Y-36069217I74317J34655D01*
G01*
X200582264Y-35462337D01*
G75*
G02*
X200691236Y-35501999I34655J-74317D01*
G01*
X200968474Y-36096537D01*
G75*
G02*
X200928812Y-36205509I-74317J-34655D01*
G01*
G37*
G36*
G01*
X201562739Y-37564971D02*
X200261281Y-38171851D01*
G75*
G02*
X200152309Y-38132189I-34655J74317D01*
G01*
X199875071Y-37537651D01*
G75*
G02*
X199914733Y-37428679I74317J34655D01*
G01*
X201216191Y-36821799D01*
G75*
G02*
X201325163Y-36861461I34655J-74317D01*
G01*
X201602401Y-37455999D01*
G75*
G02*
X201562739Y-37564971I-74317J-34655D01*
G01*
G37*
G36*
G01*
X205641612Y-34007894D02*
X204340154Y-34614774D01*
G75*
G02*
X204231182Y-34575112I-34655J74317D01*
G01*
X203953944Y-33980574D01*
G75*
G02*
X203993606Y-33871602I74317J34655D01*
G01*
X205295064Y-33264722D01*
G75*
G02*
X205404036Y-33304384I34655J-74317D01*
G01*
X205681274Y-33898922D01*
G75*
G02*
X205641612Y-34007894I-74317J-34655D01*
G01*
G37*
G36*
G01*
X206275540Y-35367356D02*
X204974082Y-35974236D01*
G75*
G02*
X204865110Y-35934574I-34655J74317D01*
G01*
X204587872Y-35340036D01*
G75*
G02*
X204627534Y-35231064I74317J34655D01*
G01*
X205928992Y-34624184D01*
G75*
G02*
X206037964Y-34663846I34655J-74317D01*
G01*
X206315202Y-35258384D01*
G75*
G02*
X206275540Y-35367356I-74317J-34655D01*
G01*
G37*
%TD*%
%TO.C,D73*%
G36*
G01*
X181595874Y-39703718D02*
X180294416Y-40310598D01*
G75*
G02*
X180185444Y-40270936I-34655J74317D01*
G01*
X179908206Y-39676398D01*
G75*
G02*
X179947868Y-39567426I74317J34655D01*
G01*
X181249326Y-38960546D01*
G75*
G02*
X181358298Y-39000208I34655J-74317D01*
G01*
X181635536Y-39594746D01*
G75*
G02*
X181595874Y-39703718I-74317J-34655D01*
G01*
G37*
G36*
G01*
X182229801Y-41063180D02*
X180928343Y-41670060D01*
G75*
G02*
X180819371Y-41630398I-34655J74317D01*
G01*
X180542133Y-41035860D01*
G75*
G02*
X180581795Y-40926888I74317J34655D01*
G01*
X181883253Y-40320008D01*
G75*
G02*
X181992225Y-40359670I34655J-74317D01*
G01*
X182269463Y-40954208D01*
G75*
G02*
X182229801Y-41063180I-74317J-34655D01*
G01*
G37*
G36*
G01*
X186308674Y-37506103D02*
X185007216Y-38112983D01*
G75*
G02*
X184898244Y-38073321I-34655J74317D01*
G01*
X184621006Y-37478783D01*
G75*
G02*
X184660668Y-37369811I74317J34655D01*
G01*
X185962126Y-36762931D01*
G75*
G02*
X186071098Y-36802593I34655J-74317D01*
G01*
X186348336Y-37397131D01*
G75*
G02*
X186308674Y-37506103I-74317J-34655D01*
G01*
G37*
G36*
G01*
X186942602Y-38865565D02*
X185641144Y-39472445D01*
G75*
G02*
X185532172Y-39432783I-34655J74317D01*
G01*
X185254934Y-38838245D01*
G75*
G02*
X185294596Y-38729273I74317J34655D01*
G01*
X186596054Y-38122393D01*
G75*
G02*
X186705026Y-38162055I34655J-74317D01*
G01*
X186982264Y-38756593D01*
G75*
G02*
X186942602Y-38865565I-74317J-34655D01*
G01*
G37*
%TD*%
%TO.C,D67*%
G36*
G01*
X166489119Y-52265001D02*
X165187661Y-52871881D01*
G75*
G02*
X165078689Y-52832219I-34655J74317D01*
G01*
X164801451Y-52237681D01*
G75*
G02*
X164841113Y-52128709I74317J34655D01*
G01*
X166142571Y-51521829D01*
G75*
G02*
X166251543Y-51561491I34655J-74317D01*
G01*
X166528781Y-52156029D01*
G75*
G02*
X166489119Y-52265001I-74317J-34655D01*
G01*
G37*
G36*
G01*
X167123046Y-53624463D02*
X165821588Y-54231343D01*
G75*
G02*
X165712616Y-54191681I-34655J74317D01*
G01*
X165435378Y-53597143D01*
G75*
G02*
X165475040Y-53488171I74317J34655D01*
G01*
X166776498Y-52881291D01*
G75*
G02*
X166885470Y-52920953I34655J-74317D01*
G01*
X167162708Y-53515491D01*
G75*
G02*
X167123046Y-53624463I-74317J-34655D01*
G01*
G37*
G36*
G01*
X171201919Y-50067386D02*
X169900461Y-50674266D01*
G75*
G02*
X169791489Y-50634604I-34655J74317D01*
G01*
X169514251Y-50040066D01*
G75*
G02*
X169553913Y-49931094I74317J34655D01*
G01*
X170855371Y-49324214D01*
G75*
G02*
X170964343Y-49363876I34655J-74317D01*
G01*
X171241581Y-49958414D01*
G75*
G02*
X171201919Y-50067386I-74317J-34655D01*
G01*
G37*
G36*
G01*
X171835847Y-51426848D02*
X170534389Y-52033728D01*
G75*
G02*
X170425417Y-51994066I-34655J74317D01*
G01*
X170148179Y-51399528D01*
G75*
G02*
X170187841Y-51290556I74317J34655D01*
G01*
X171489299Y-50683676D01*
G75*
G02*
X171598271Y-50723338I34655J-74317D01*
G01*
X171875509Y-51317876D01*
G75*
G02*
X171835847Y-51426848I-74317J-34655D01*
G01*
G37*
%TD*%
%TO.C,D66*%
G36*
G01*
X150325815Y-62560515D02*
X149024357Y-63167395D01*
G75*
G02*
X148915385Y-63127733I-34655J74317D01*
G01*
X148638147Y-62533195D01*
G75*
G02*
X148677809Y-62424223I74317J34655D01*
G01*
X149979267Y-61817343D01*
G75*
G02*
X150088239Y-61857005I34655J-74317D01*
G01*
X150365477Y-62451543D01*
G75*
G02*
X150325815Y-62560515I-74317J-34655D01*
G01*
G37*
G36*
G01*
X150959742Y-63919977D02*
X149658284Y-64526857D01*
G75*
G02*
X149549312Y-64487195I-34655J74317D01*
G01*
X149272074Y-63892657D01*
G75*
G02*
X149311736Y-63783685I74317J34655D01*
G01*
X150613194Y-63176805D01*
G75*
G02*
X150722166Y-63216467I34655J-74317D01*
G01*
X150999404Y-63811005D01*
G75*
G02*
X150959742Y-63919977I-74317J-34655D01*
G01*
G37*
G36*
G01*
X155038615Y-60362900D02*
X153737157Y-60969780D01*
G75*
G02*
X153628185Y-60930118I-34655J74317D01*
G01*
X153350947Y-60335580D01*
G75*
G02*
X153390609Y-60226608I74317J34655D01*
G01*
X154692067Y-59619728D01*
G75*
G02*
X154801039Y-59659390I34655J-74317D01*
G01*
X155078277Y-60253928D01*
G75*
G02*
X155038615Y-60362900I-74317J-34655D01*
G01*
G37*
G36*
G01*
X155672543Y-61722362D02*
X154371085Y-62329242D01*
G75*
G02*
X154262113Y-62289580I-34655J74317D01*
G01*
X153984875Y-61695042D01*
G75*
G02*
X154024537Y-61586070I74317J34655D01*
G01*
X155325995Y-60979190D01*
G75*
G02*
X155434967Y-61018852I34655J-74317D01*
G01*
X155712205Y-61613390D01*
G75*
G02*
X155672543Y-61722362I-74317J-34655D01*
G01*
G37*
%TD*%
%TO.C,D55*%
G36*
G01*
X119870196Y-60969784D02*
X118568738Y-60362904D01*
G75*
G02*
X118529076Y-60253932I34655J74317D01*
G01*
X118806314Y-59659394D01*
G75*
G02*
X118915286Y-59619732I74317J-34655D01*
G01*
X120216744Y-60226612D01*
G75*
G02*
X120256406Y-60335584I-34655J-74317D01*
G01*
X119979168Y-60930122D01*
G75*
G02*
X119870196Y-60969784I-74317J34655D01*
G01*
G37*
G36*
G01*
X119236268Y-62329246D02*
X117934810Y-61722366D01*
G75*
G02*
X117895148Y-61613394I34655J74317D01*
G01*
X118172386Y-61018856D01*
G75*
G02*
X118281358Y-60979194I74317J-34655D01*
G01*
X119582816Y-61586074D01*
G75*
G02*
X119622478Y-61695046I-34655J-74317D01*
G01*
X119345240Y-62289584D01*
G75*
G02*
X119236268Y-62329246I-74317J34655D01*
G01*
G37*
G36*
G01*
X124582996Y-63167399D02*
X123281538Y-62560519D01*
G75*
G02*
X123241876Y-62451547I34655J74317D01*
G01*
X123519114Y-61857009D01*
G75*
G02*
X123628086Y-61817347I74317J-34655D01*
G01*
X124929544Y-62424227D01*
G75*
G02*
X124969206Y-62533199I-34655J-74317D01*
G01*
X124691968Y-63127737D01*
G75*
G02*
X124582996Y-63167399I-74317J34655D01*
G01*
G37*
G36*
G01*
X123949069Y-64526861D02*
X122647611Y-63919981D01*
G75*
G02*
X122607949Y-63811009I34655J74317D01*
G01*
X122885187Y-63216471D01*
G75*
G02*
X122994159Y-63176809I74317J-34655D01*
G01*
X124295617Y-63783689D01*
G75*
G02*
X124335279Y-63892661I-34655J-74317D01*
G01*
X124058041Y-64487199D01*
G75*
G02*
X123949069Y-64526861I-74317J34655D01*
G01*
G37*
%TD*%
%TO.C,D48*%
G36*
G01*
X88600139Y-38112982D02*
X87298681Y-37506102D01*
G75*
G02*
X87259019Y-37397130I34655J74317D01*
G01*
X87536257Y-36802592D01*
G75*
G02*
X87645229Y-36762930I74317J-34655D01*
G01*
X88946687Y-37369810D01*
G75*
G02*
X88986349Y-37478782I-34655J-74317D01*
G01*
X88709111Y-38073320D01*
G75*
G02*
X88600139Y-38112982I-74317J34655D01*
G01*
G37*
G36*
G01*
X87966211Y-39472444D02*
X86664753Y-38865564D01*
G75*
G02*
X86625091Y-38756592I34655J74317D01*
G01*
X86902329Y-38162054D01*
G75*
G02*
X87011301Y-38122392I74317J-34655D01*
G01*
X88312759Y-38729272D01*
G75*
G02*
X88352421Y-38838244I-34655J-74317D01*
G01*
X88075183Y-39432782D01*
G75*
G02*
X87966211Y-39472444I-74317J34655D01*
G01*
G37*
G36*
G01*
X93312939Y-40310597D02*
X92011481Y-39703717D01*
G75*
G02*
X91971819Y-39594745I34655J74317D01*
G01*
X92249057Y-39000207D01*
G75*
G02*
X92358029Y-38960545I74317J-34655D01*
G01*
X93659487Y-39567425D01*
G75*
G02*
X93699149Y-39676397I-34655J-74317D01*
G01*
X93421911Y-40270935D01*
G75*
G02*
X93312939Y-40310597I-74317J34655D01*
G01*
G37*
G36*
G01*
X92679012Y-41670059D02*
X91377554Y-41063179D01*
G75*
G02*
X91337892Y-40954207I34655J74317D01*
G01*
X91615130Y-40359669D01*
G75*
G02*
X91724102Y-40320007I74317J-34655D01*
G01*
X93025560Y-40926887D01*
G75*
G02*
X93065222Y-41035859I-34655J-74317D01*
G01*
X92787984Y-41630397D01*
G75*
G02*
X92679012Y-41670059I-74317J34655D01*
G01*
G37*
%TD*%
%TO.C,D47*%
G36*
G01*
X69267201Y-34614775D02*
X67965743Y-34007895D01*
G75*
G02*
X67926081Y-33898923I34655J74317D01*
G01*
X68203319Y-33304385D01*
G75*
G02*
X68312291Y-33264723I74317J-34655D01*
G01*
X69613749Y-33871603D01*
G75*
G02*
X69653411Y-33980575I-34655J-74317D01*
G01*
X69376173Y-34575113D01*
G75*
G02*
X69267201Y-34614775I-74317J34655D01*
G01*
G37*
G36*
G01*
X68633273Y-35974237D02*
X67331815Y-35367357D01*
G75*
G02*
X67292153Y-35258385I34655J74317D01*
G01*
X67569391Y-34663847D01*
G75*
G02*
X67678363Y-34624185I74317J-34655D01*
G01*
X68979821Y-35231065D01*
G75*
G02*
X69019483Y-35340037I-34655J-74317D01*
G01*
X68742245Y-35934575D01*
G75*
G02*
X68633273Y-35974237I-74317J34655D01*
G01*
G37*
G36*
G01*
X73980001Y-36812390D02*
X72678543Y-36205510D01*
G75*
G02*
X72638881Y-36096538I34655J74317D01*
G01*
X72916119Y-35502000D01*
G75*
G02*
X73025091Y-35462338I74317J-34655D01*
G01*
X74326549Y-36069218D01*
G75*
G02*
X74366211Y-36178190I-34655J-74317D01*
G01*
X74088973Y-36772728D01*
G75*
G02*
X73980001Y-36812390I-74317J34655D01*
G01*
G37*
G36*
G01*
X73346074Y-38171852D02*
X72044616Y-37564972D01*
G75*
G02*
X72004954Y-37456000I34655J74317D01*
G01*
X72282192Y-36861462D01*
G75*
G02*
X72391164Y-36821800I74317J-34655D01*
G01*
X73692622Y-37428680D01*
G75*
G02*
X73732284Y-37537652I-34655J-74317D01*
G01*
X73455046Y-38132190D01*
G75*
G02*
X73346074Y-38171852I-74317J34655D01*
G01*
G37*
%TD*%
%TO.C,D41*%
G36*
G01*
X46764626Y-37913874D02*
X45463168Y-37306994D01*
G75*
G02*
X45423506Y-37198022I34655J74317D01*
G01*
X45700744Y-36603484D01*
G75*
G02*
X45809716Y-36563822I74317J-34655D01*
G01*
X47111174Y-37170702D01*
G75*
G02*
X47150836Y-37279674I-34655J-74317D01*
G01*
X46873598Y-37874212D01*
G75*
G02*
X46764626Y-37913874I-74317J34655D01*
G01*
G37*
G36*
G01*
X46130698Y-39273336D02*
X44829240Y-38666456D01*
G75*
G02*
X44789578Y-38557484I34655J74317D01*
G01*
X45066816Y-37962946D01*
G75*
G02*
X45175788Y-37923284I74317J-34655D01*
G01*
X46477246Y-38530164D01*
G75*
G02*
X46516908Y-38639136I-34655J-74317D01*
G01*
X46239670Y-39233674D01*
G75*
G02*
X46130698Y-39273336I-74317J34655D01*
G01*
G37*
G36*
G01*
X51477426Y-40111489D02*
X50175968Y-39504609D01*
G75*
G02*
X50136306Y-39395637I34655J74317D01*
G01*
X50413544Y-38801099D01*
G75*
G02*
X50522516Y-38761437I74317J-34655D01*
G01*
X51823974Y-39368317D01*
G75*
G02*
X51863636Y-39477289I-34655J-74317D01*
G01*
X51586398Y-40071827D01*
G75*
G02*
X51477426Y-40111489I-74317J34655D01*
G01*
G37*
G36*
G01*
X50843499Y-41470951D02*
X49542041Y-40864071D01*
G75*
G02*
X49502379Y-40755099I34655J74317D01*
G01*
X49779617Y-40160561D01*
G75*
G02*
X49888589Y-40120899I74317J-34655D01*
G01*
X51190047Y-40727779D01*
G75*
G02*
X51229709Y-40836751I-34655J-74317D01*
G01*
X50952471Y-41431289D01*
G75*
G02*
X50843499Y-41470951I-74317J34655D01*
G01*
G37*
%TD*%
D10*
%TO.C,D40*%
G36*
X235659903Y-97537596D02*
G01*
X236167044Y-98625165D01*
X235351367Y-99005522D01*
X234844226Y-97917953D01*
X235659903Y-97537596D01*
G37*
G36*
X238650719Y-96142956D02*
G01*
X239157860Y-97230525D01*
X238342183Y-97610882D01*
X237835042Y-96523313D01*
X238650719Y-96142956D01*
G37*
%TD*%
%TO.C,D39*%
G36*
X216326968Y-101035803D02*
G01*
X216834109Y-102123372D01*
X216018432Y-102503729D01*
X215511291Y-101416160D01*
X216326968Y-101035803D01*
G37*
G36*
X219317784Y-99641163D02*
G01*
X219824925Y-100728732D01*
X219009248Y-101109089D01*
X218502107Y-100021520D01*
X219317784Y-99641163D01*
G37*
%TD*%
%TO.C,D38*%
G36*
X207559485Y-127191708D02*
G01*
X208066626Y-128279277D01*
X207250949Y-128659634D01*
X206743808Y-127572065D01*
X207559485Y-127191708D01*
G37*
G36*
X210550301Y-125797068D02*
G01*
X211057442Y-126884637D01*
X210241765Y-127264994D01*
X209734624Y-126177425D01*
X210550301Y-125797068D01*
G37*
%TD*%
%TO.C,D37*%
G36*
X190236732Y-136453310D02*
G01*
X190925023Y-137436293D01*
X190187786Y-137952512D01*
X189499495Y-136969529D01*
X190236732Y-136453310D01*
G37*
G36*
X192939934Y-134560508D02*
G01*
X193628225Y-135543491D01*
X192890988Y-136059710D01*
X192202697Y-135076727D01*
X192939934Y-134560508D01*
G37*
%TD*%
%TO.C,D36*%
G36*
X174785413Y-148582268D02*
G01*
X175633941Y-149430796D01*
X174997545Y-150067192D01*
X174149017Y-149218664D01*
X174785413Y-148582268D01*
G37*
G36*
X177118865Y-146248816D02*
G01*
X177967393Y-147097344D01*
X177330997Y-147733740D01*
X176482469Y-146885212D01*
X177118865Y-146248816D01*
G37*
%TD*%
%TO.C,D35*%
G36*
X104019178Y-153779505D02*
G01*
X103170650Y-154628033D01*
X102534254Y-153991637D01*
X103382782Y-153143109D01*
X104019178Y-153779505D01*
G37*
G36*
X106352630Y-156112957D02*
G01*
X105504102Y-156961485D01*
X104867706Y-156325089D01*
X105716234Y-155476561D01*
X106352630Y-156112957D01*
G37*
%TD*%
%TO.C,D34*%
G36*
X89391390Y-140669094D02*
G01*
X88703099Y-141652077D01*
X87965862Y-141135858D01*
X88654153Y-140152875D01*
X89391390Y-140669094D01*
G37*
G36*
X92094592Y-142561896D02*
G01*
X91406301Y-143544879D01*
X90669064Y-143028660D01*
X91357355Y-142045677D01*
X92094592Y-142561896D01*
G37*
%TD*%
%TO.C,D33*%
G36*
X72709232Y-130297950D02*
G01*
X72202091Y-131385519D01*
X71386414Y-131005162D01*
X71893555Y-129917593D01*
X72709232Y-130297950D01*
G37*
G36*
X75700048Y-131692590D02*
G01*
X75192907Y-132780159D01*
X74377230Y-132399802D01*
X74884371Y-131312233D01*
X75700048Y-131692590D01*
G37*
%TD*%
%TO.C,D32*%
G36*
X63941748Y-104142049D02*
G01*
X63434607Y-105229618D01*
X62618930Y-104849261D01*
X63126071Y-103761692D01*
X63941748Y-104142049D01*
G37*
G36*
X66932564Y-105536689D02*
G01*
X66425423Y-106624258D01*
X65609746Y-106243901D01*
X66116887Y-105156332D01*
X66932564Y-105536689D01*
G37*
%TD*%
%TO.C,D31*%
G36*
X44608812Y-100643843D02*
G01*
X44101671Y-101731412D01*
X43285994Y-101351055D01*
X43793135Y-100263486D01*
X44608812Y-100643843D01*
G37*
G36*
X47599628Y-102038483D02*
G01*
X47092487Y-103126052D01*
X46276810Y-102745695D01*
X46783951Y-101658126D01*
X47599628Y-102038483D01*
G37*
%TD*%
%TO.C,D30*%
G36*
X250132733Y-83616851D02*
G01*
X250639874Y-84704420D01*
X249824197Y-85084777D01*
X249317056Y-83997208D01*
X250132733Y-83616851D01*
G37*
G36*
X253123549Y-82222211D02*
G01*
X253630690Y-83309780D01*
X252815013Y-83690137D01*
X252307872Y-82602568D01*
X253123549Y-82222211D01*
G37*
%TD*%
%TO.C,D29*%
G36*
X227630158Y-80317750D02*
G01*
X228137299Y-81405319D01*
X227321622Y-81785676D01*
X226814481Y-80698107D01*
X227630158Y-80317750D01*
G37*
G36*
X230620974Y-78923110D02*
G01*
X231128115Y-80010679D01*
X230312438Y-80391036D01*
X229805297Y-79303467D01*
X230620974Y-78923110D01*
G37*
%TD*%
%TO.C,D28*%
G36*
X208297220Y-83815957D02*
G01*
X208804361Y-84903526D01*
X207988684Y-85283883D01*
X207481543Y-84196314D01*
X208297220Y-83815957D01*
G37*
G36*
X211288036Y-82421317D02*
G01*
X211795177Y-83508886D01*
X210979500Y-83889243D01*
X210472359Y-82801674D01*
X211288036Y-82421317D01*
G37*
%TD*%
%TO.C,D27*%
G36*
X193190464Y-96377244D02*
G01*
X193697605Y-97464813D01*
X192881928Y-97845170D01*
X192374787Y-96757601D01*
X193190464Y-96377244D01*
G37*
G36*
X196181280Y-94982604D02*
G01*
X196688421Y-96070173D01*
X195872744Y-96450530D01*
X195365603Y-95362961D01*
X196181280Y-94982604D01*
G37*
%TD*%
%TO.C,D26*%
G36*
X177027161Y-106672760D02*
G01*
X177534302Y-107760329D01*
X176718625Y-108140686D01*
X176211484Y-107053117D01*
X177027161Y-106672760D01*
G37*
G36*
X180017977Y-105278120D02*
G01*
X180525118Y-106365689D01*
X179709441Y-106746046D01*
X179202300Y-105658477D01*
X180017977Y-105278120D01*
G37*
%TD*%
%TO.C,D25*%
G36*
X103241552Y-109779003D02*
G01*
X102734411Y-110866572D01*
X101918734Y-110486215D01*
X102425875Y-109398646D01*
X103241552Y-109779003D01*
G37*
G36*
X106232368Y-111173643D02*
G01*
X105725227Y-112261212D01*
X104909550Y-111880855D01*
X105416691Y-110793286D01*
X106232368Y-111173643D01*
G37*
%TD*%
%TO.C,D24*%
G36*
X87078252Y-99483490D02*
G01*
X86571111Y-100571059D01*
X85755434Y-100190702D01*
X86262575Y-99103133D01*
X87078252Y-99483490D01*
G37*
G36*
X90069068Y-100878130D02*
G01*
X89561927Y-101965699D01*
X88746250Y-101585342D01*
X89253391Y-100497773D01*
X90069068Y-100878130D01*
G37*
%TD*%
%TO.C,D23*%
G36*
X71971496Y-86922201D02*
G01*
X71464355Y-88009770D01*
X70648678Y-87629413D01*
X71155819Y-86541844D01*
X71971496Y-86922201D01*
G37*
G36*
X74962312Y-88316841D02*
G01*
X74455171Y-89404410D01*
X73639494Y-89024053D01*
X74146635Y-87936484D01*
X74962312Y-88316841D01*
G37*
%TD*%
%TO.C,D22*%
G36*
X52638559Y-83423995D02*
G01*
X52131418Y-84511564D01*
X51315741Y-84131207D01*
X51822882Y-83043638D01*
X52638559Y-83423995D01*
G37*
G36*
X55629375Y-84818635D02*
G01*
X55122234Y-85906204D01*
X54306557Y-85525847D01*
X54813698Y-84438278D01*
X55629375Y-84818635D01*
G37*
%TD*%
%TO.C,D21*%
G36*
X30135983Y-86723095D02*
G01*
X29628842Y-87810664D01*
X28813165Y-87430307D01*
X29320306Y-86342738D01*
X30135983Y-86723095D01*
G37*
G36*
X33126799Y-88117735D02*
G01*
X32619658Y-89205304D01*
X31803981Y-88824947D01*
X32311122Y-87737378D01*
X33126799Y-88117735D01*
G37*
%TD*%
%TO.C,D20*%
G36*
X242102987Y-66397002D02*
G01*
X242610128Y-67484571D01*
X241794451Y-67864928D01*
X241287310Y-66777359D01*
X242102987Y-66397002D01*
G37*
G36*
X245093803Y-65002362D02*
G01*
X245600944Y-66089931D01*
X244785267Y-66470288D01*
X244278126Y-65382719D01*
X245093803Y-65002362D01*
G37*
%TD*%
%TO.C,D19*%
G36*
X219600411Y-63097901D02*
G01*
X220107552Y-64185470D01*
X219291875Y-64565827D01*
X218784734Y-63478258D01*
X219600411Y-63097901D01*
G37*
G36*
X222591227Y-61703261D02*
G01*
X223098368Y-62790830D01*
X222282691Y-63171187D01*
X221775550Y-62083618D01*
X222591227Y-61703261D01*
G37*
%TD*%
%TO.C,D18*%
G36*
X200267473Y-66596109D02*
G01*
X200774614Y-67683678D01*
X199958937Y-68064035D01*
X199451796Y-66976466D01*
X200267473Y-66596109D01*
G37*
G36*
X203258289Y-65201469D02*
G01*
X203765430Y-66289038D01*
X202949753Y-66669395D01*
X202442612Y-65581826D01*
X203258289Y-65201469D01*
G37*
%TD*%
%TO.C,D17*%
G36*
X185160718Y-79157396D02*
G01*
X185667859Y-80244965D01*
X184852182Y-80625322D01*
X184345041Y-79537753D01*
X185160718Y-79157396D01*
G37*
G36*
X188151534Y-77762756D02*
G01*
X188658675Y-78850325D01*
X187842998Y-79230682D01*
X187335857Y-78143113D01*
X188151534Y-77762756D01*
G37*
%TD*%
%TO.C,D16*%
G36*
X168997418Y-89452913D02*
G01*
X169504559Y-90540482D01*
X168688882Y-90920839D01*
X168181741Y-89833270D01*
X168997418Y-89452913D01*
G37*
G36*
X171988234Y-88058273D02*
G01*
X172495375Y-89145842D01*
X171679698Y-89526199D01*
X171172557Y-88438630D01*
X171988234Y-88058273D01*
G37*
%TD*%
%TO.C,D15*%
G36*
X111271300Y-92559156D02*
G01*
X110764159Y-93646725D01*
X109948482Y-93266368D01*
X110455623Y-92178799D01*
X111271300Y-92559156D01*
G37*
G36*
X114262116Y-93953796D02*
G01*
X113754975Y-95041365D01*
X112939298Y-94661008D01*
X113446439Y-93573439D01*
X114262116Y-93953796D01*
G37*
%TD*%
%TO.C,D14*%
G36*
X95107998Y-82263639D02*
G01*
X94600857Y-83351208D01*
X93785180Y-82970851D01*
X94292321Y-81883282D01*
X95107998Y-82263639D01*
G37*
G36*
X98098814Y-83658279D02*
G01*
X97591673Y-84745848D01*
X96775996Y-84365491D01*
X97283137Y-83277922D01*
X98098814Y-83658279D01*
G37*
%TD*%
%TO.C,D13*%
G36*
X80001240Y-69702356D02*
G01*
X79494099Y-70789925D01*
X78678422Y-70409568D01*
X79185563Y-69321999D01*
X80001240Y-69702356D01*
G37*
G36*
X82992056Y-71096996D02*
G01*
X82484915Y-72184565D01*
X81669238Y-71804208D01*
X82176379Y-70716639D01*
X82992056Y-71096996D01*
G37*
%TD*%
%TO.C,D12*%
G36*
X60668303Y-66204148D02*
G01*
X60161162Y-67291717D01*
X59345485Y-66911360D01*
X59852626Y-65823791D01*
X60668303Y-66204148D01*
G37*
G36*
X63659119Y-67598788D02*
G01*
X63151978Y-68686357D01*
X62336301Y-68306000D01*
X62843442Y-67218431D01*
X63659119Y-67598788D01*
G37*
%TD*%
%TO.C,D11*%
G36*
X38165729Y-69503248D02*
G01*
X37658588Y-70590817D01*
X36842911Y-70210460D01*
X37350052Y-69122891D01*
X38165729Y-69503248D01*
G37*
G36*
X41156545Y-70897888D02*
G01*
X40649404Y-71985457D01*
X39833727Y-71605100D01*
X40340868Y-70517531D01*
X41156545Y-70897888D01*
G37*
%TD*%
%TO.C,D10*%
G36*
X234073238Y-49177156D02*
G01*
X234580379Y-50264725D01*
X233764702Y-50645082D01*
X233257561Y-49557513D01*
X234073238Y-49177156D01*
G37*
G36*
X237064054Y-47782516D02*
G01*
X237571195Y-48870085D01*
X236755518Y-49250442D01*
X236248377Y-48162873D01*
X237064054Y-47782516D01*
G37*
%TD*%
%TO.C,D9*%
G36*
X211570664Y-45878052D02*
G01*
X212077805Y-46965621D01*
X211262128Y-47345978D01*
X210754987Y-46258409D01*
X211570664Y-45878052D01*
G37*
G36*
X214561480Y-44483412D02*
G01*
X215068621Y-45570981D01*
X214252944Y-45951338D01*
X213745803Y-44863769D01*
X214561480Y-44483412D01*
G37*
%TD*%
%TO.C,D8*%
G36*
X192237727Y-49376263D02*
G01*
X192744868Y-50463832D01*
X191929191Y-50844189D01*
X191422050Y-49756620D01*
X192237727Y-49376263D01*
G37*
G36*
X195228543Y-47981623D02*
G01*
X195735684Y-49069192D01*
X194920007Y-49449549D01*
X194412866Y-48361980D01*
X195228543Y-47981623D01*
G37*
%TD*%
%TO.C,D7*%
G36*
X177130970Y-61937547D02*
G01*
X177638111Y-63025116D01*
X176822434Y-63405473D01*
X176315293Y-62317904D01*
X177130970Y-61937547D01*
G37*
G36*
X180121786Y-60542907D02*
G01*
X180628927Y-61630476D01*
X179813250Y-62010833D01*
X179306109Y-60923264D01*
X180121786Y-60542907D01*
G37*
%TD*%
%TO.C,D6*%
G36*
X160967672Y-72233066D02*
G01*
X161474813Y-73320635D01*
X160659136Y-73700992D01*
X160151995Y-72613423D01*
X160967672Y-72233066D01*
G37*
G36*
X163958488Y-70838426D02*
G01*
X164465629Y-71925995D01*
X163649952Y-72306352D01*
X163142811Y-71218783D01*
X163958488Y-70838426D01*
G37*
%TD*%
%TO.C,D5*%
G36*
X119301047Y-75339310D02*
G01*
X118793906Y-76426879D01*
X117978229Y-76046522D01*
X118485370Y-74958953D01*
X119301047Y-75339310D01*
G37*
G36*
X122291863Y-76733950D02*
G01*
X121784722Y-77821519D01*
X120969045Y-77441162D01*
X121476186Y-76353593D01*
X122291863Y-76733950D01*
G37*
%TD*%
%TO.C,D4*%
G36*
X103137746Y-65043792D02*
G01*
X102630605Y-66131361D01*
X101814928Y-65751004D01*
X102322069Y-64663435D01*
X103137746Y-65043792D01*
G37*
G36*
X106128562Y-66438432D02*
G01*
X105621421Y-67526001D01*
X104805744Y-67145644D01*
X105312885Y-66058075D01*
X106128562Y-66438432D01*
G37*
%TD*%
%TO.C,D3*%
G36*
X88030989Y-52482511D02*
G01*
X87523848Y-53570080D01*
X86708171Y-53189723D01*
X87215312Y-52102154D01*
X88030989Y-52482511D01*
G37*
G36*
X91021805Y-53877151D02*
G01*
X90514664Y-54964720D01*
X89698987Y-54584363D01*
X90206128Y-53496794D01*
X91021805Y-53877151D01*
G37*
%TD*%
%TO.C,D2*%
G36*
X68698051Y-48984299D02*
G01*
X68190910Y-50071868D01*
X67375233Y-49691511D01*
X67882374Y-48603942D01*
X68698051Y-48984299D01*
G37*
G36*
X71688867Y-50378939D02*
G01*
X71181726Y-51466508D01*
X70366049Y-51086151D01*
X70873190Y-49998582D01*
X71688867Y-50378939D01*
G37*
%TD*%
%TO.C,D1*%
G36*
X46195473Y-52283399D02*
G01*
X45688332Y-53370968D01*
X44872655Y-52990611D01*
X45379796Y-51903042D01*
X46195473Y-52283399D01*
G37*
G36*
X49186289Y-53678039D02*
G01*
X48679148Y-54765608D01*
X47863471Y-54385251D01*
X48370612Y-53297682D01*
X49186289Y-53678039D01*
G37*
%TD*%
M02*
