M48
; DRILL file {KiCad (5.1.9)-1} date 12/09/21 21:31:56
; FORMAT={-:-/ absolute / inch / decimal}
; #@! TF.CreationDate,2021-12-09T21:31:56-08:00
; #@! TF.GenerationSoftware,Kicad,Pcbnew,(5.1.9)-1
; #@! TF.FileFunction,Plated,1,2,PTH
FMAT,2
INCH
T1C0.0157
T2C0.0295
T3C0.0300
T4C0.0354
T5C0.0394
T6C0.0430
T7C0.0591
T8C0.1181
%
G90
G05
T1
X0.7124Y-3.2823
X0.8856Y-2.7452
X1.1032Y-2.8466
X1.1935Y-2.0613
X1.2306Y-2.7626
X1.2883Y-1.9289
X1.3202Y-3.5878
X1.4053Y-3.2634
X1.4201Y-2.1669
X1.424Y-2.9631
X1.4844Y-2.881
X1.5001Y-1.6332
X1.5252Y-2.0835
X1.5539Y-2.9685
X1.5684Y-3.0084
X1.5781Y-1.2365
X1.6681Y-3.0549
X1.673Y-3.3992
X1.6993Y-2.5619
X1.7127Y-1.5558
X1.729Y-2.664
X1.7324Y-2.136
X1.7409Y-2.2834
X1.779Y-2.2018
X1.792Y-1.3694
X1.8286Y-2.3794
X1.8536Y-3.154
X1.8636Y-2.3516
X1.9317Y-3.8619
X2.0121Y-1.8913
X2.0369Y-1.9801
X2.0712Y-1.5988
X2.0769Y-2.6277
X2.0952Y-1.4764
X2.1238Y-2.0609
X2.1534Y-1.6592
X2.2093Y-2.888
X2.2185Y-3.3888
X2.3073Y-3.1985
X2.3121Y-1.9506
X2.3218Y-3.4039
X2.3242Y-3.1622
X2.3362Y-4.9112
X2.3556Y-3.3314
X2.3663Y-1.8342
X2.3815Y-2.9683
X2.3951Y-1.955
X2.4666Y-2.8094
X2.5306Y-2.6958
X2.5353Y-2.2125
X2.5556Y-3.2812
X2.6109Y-2.5236
X2.661Y-4.191
X2.7241Y-1.2634
X2.7375Y-3.5536
X2.839Y-1.5376
X2.8524Y-2.0294
X2.8684Y-2.776
X2.8803Y-4.3594
X2.8924Y-4.4754
X2.8934Y-3.6925
X2.9202Y-3.893
X2.937Y-1.8481
X2.9574Y-1.4494
X2.9706Y-3.8747
X2.9736Y-3.0237
X2.9779Y-3.5112
X3.0025Y-4.7364
X3.025Y-5.2324
X3.0354Y-3.6483
X3.0959Y-4.536
X3.1004Y-3.0829
X3.1672Y-2.0879
X3.1929Y-4.8473
X3.2052Y-3.8048
X3.2062Y-3.0218
X3.2907Y-2.8406
X3.3087Y-2.3524
X3.3839Y-1.5048
X3.415Y-4.6088
X3.4239Y-2.4531
X3.4545Y-3.27
X3.4751Y-1.4039
X3.5231Y-2.3421
X3.5309Y-4.1001
X3.539Y-2.4187
X3.5567Y-4.2032
X3.5688Y-3.5219
X3.5731Y-4.0095
X3.6033Y-1.6733
X3.6076Y-2.1608
X3.6275Y-4.8342
X3.6419Y-5.6538
X3.6562Y-4.8957
X3.7201Y-5.1769
X3.7517Y-4.2346
X3.7624Y-2.5861
X3.7813Y-3.621
X3.8478Y-3.4204
X3.8642Y-4.159
X3.8859Y-3.3388
X3.8948Y-2.8464
X3.9012Y-5.0229
X3.9191Y-2.0771
X3.9197Y-4.0635
X3.987Y-3.6176
X4.0962Y-3.6686
X4.1339Y-1.932
X4.1648Y-2.7406
X4.1659Y-4.8844
X4.1944Y-6.1891
X4.1944Y-3.4744
X4.2028Y-2.6591
X4.2106Y-4.417
X4.2118Y-2.1667
X4.2244Y-3.938
X4.2353Y-2.429
X4.2368Y-5.2416
X4.2409Y-3.3747
X4.2987Y-4.6705
X4.3078Y-2.0791
X4.313Y-2.9421
X4.3146Y-5.3618
X4.3202Y-3.8199
X4.3429Y-5.4474
X4.3571Y-5.7295
X4.3716Y-5.2711
X4.3814Y-2.2927
X4.4132Y-2.9888
X4.4822Y-2.1702
X4.4955Y-2.048
X4.5116Y-5.3411
X4.5276Y-3.7373
X4.5323Y-3.254
X4.5338Y-5.383
X4.5624Y-3.6791
X4.5748Y-2.6351
X4.5891Y-4.5306
X4.616Y-2.3883
X4.6777Y-3.3136
X4.6791Y-3.8549
X4.6816Y-5.5011
X4.6823Y-5.984
X4.7259Y-2.3182
X4.7716Y-5.0011
X4.7899Y-2.6707
X4.8015Y-2.9061
X4.804Y-3.5159
X4.814Y-2.7372
X4.822Y-2.5616
X4.8445Y-3.0576
X4.8694Y-3.9436
X4.8716Y-4.8011
X4.8716Y-3.0111
X4.8816Y-3.7511
X4.9116Y-3.7899
X4.9416Y-3.2211
X4.9416Y-4.5011
X4.9716Y-5.2711
X4.9716Y-2.9111
X4.9816Y-4.4711
X4.9816Y-3.3111
X4.9816Y-4.9011
X5.0116Y-4.5411
X5.0116Y-3.4111
X5.0916Y-4.4111
X5.3016Y-3.7899
X5.3016Y-5.6011
X5.3416Y-5.7011
X5.3416Y-3.7511
X5.3916Y-4.9911
X5.4416Y-2.9211
X5.4416Y-5.4911
X5.4416Y-3.8911
X5.4416Y-4.4711
X5.4516Y-5.1911
X5.4716Y-4.7211
X5.5416Y-2.6211
X5.5416Y-3.9411
X5.5916Y-2.4511
X5.5916Y-2.5611
X5.6016Y-2.7111
X5.6316Y-4.4411
X5.6916Y-3.8111
X5.7016Y-4.8011
X5.7716Y-3.4111
X5.7893Y-3.0607
X5.7998Y-2.3917
X5.8016Y-4.9911
X5.8116Y-3.3011
X5.8116Y-4.4811
X5.826Y-3.2103
X5.8423Y-3.1033
X5.8516Y-3.5111
X5.8516Y-4.5211
X5.8638Y-2.4021
X5.9016Y-4.9011
X5.9016Y-5.2811
X5.9016Y-6.2411
X6.0216Y-5.4911
X6.024Y-5.8186
X6.0616Y-5.3911
X6.0716Y-3.6011
X6.0916Y-5.7875
X6.0916Y-5.4511
X6.1085Y-3.8398
X6.1279Y-3.7867
X6.1333Y-2.4679
X6.1412Y-2.3429
X6.1416Y-5.4311
X6.1616Y-5.2411
X6.179Y-3.0866
X6.2016Y-5.2811
X6.2152Y-5.9124
X6.2516Y-5.3611
X6.2718Y-5.8558
X6.2816Y-4.5211
X6.2816Y-5.3911
X6.2816Y-5.6011
X6.3116Y-5.4311
X6.3216Y-4.4411
X6.3216Y-5.7311
X6.3507Y-1.9929
X6.4412Y-3.1519
X6.4777Y-2.1418
X6.496Y-3.7663
X6.4995Y-1.9993
X6.4997Y-2.7858
X6.5216Y-5.4411
X6.53Y-3.0112
X6.5516Y-5.5811
X6.559Y-3.097
X6.5939Y-2.7373
X6.6497Y-1.8535
X6.6991Y-2.6928
X6.7105Y-5.0702
X6.7581Y-3.8316
X6.7638Y-2.0654
X6.8118Y-2.6811
X6.8131Y-1.7786
X6.8166Y-3.4655
X6.8801Y-3.4359
X6.9302Y-1.9116
X6.9384Y-5.0242
X6.9539Y-5.1562
X6.98Y-2.5618
X7.0216Y-5.7411
X7.074Y-2.7465
X7.0766Y-1.5095
X7.0928Y-2.5501
X7.0956Y-4.0637
X7.1244Y-3.3629
X7.1323Y-2.3915
X7.1378Y-4.1543
X7.1572Y-4.1011
X7.2062Y-4.9063
X7.2214Y-4.068
X7.2256Y-5.0401
X7.2611Y-2.5738
X7.3656Y-4.6848
X7.3702Y-1.5712
X7.3956Y-3.424
X7.3985Y-3.2935
X7.401Y-1.4244
X7.4026Y-2.185
X7.4097Y-3.2299
X7.4176Y-4.5834
X7.4493Y-3.0712
X7.4778Y-3.1981
X7.5332Y-3.2196
X7.5871Y-3.2493
X7.6383Y-3.8736
X7.6518Y-5.2906
X7.6781Y-2.2551
X7.6828Y-4.7024
X7.6907Y-4.5774
X7.6998Y-3.5612
X7.7138Y-3.8935
X7.7151Y-3.6833
X7.7255Y-2.869
X7.7275Y-1.8932
X7.7293Y-3.9557
X7.7753Y-3.7467
X7.8291Y-3.7437
X7.8372Y-1.5079
X7.8408Y-1.3738
X7.8641Y-4.4524
X7.8919Y-4.4174
X7.8921Y-3.7552
X7.9251Y-3.8313
X7.9406Y-4.4089
X7.9528Y-4.6427
X7.9817Y-2.93
X8.0077Y-4.2452
X8.0275Y-3.5487
X8.0279Y-3.6731
X8.0445Y-2.573
X8.0585Y-2.0589
X8.103Y-1.4391
X8.1578Y-2.0535
X8.2427Y-1.0761
X8.3029Y-3.6188
X8.3304Y-1.9321
X8.3424Y-4.9576
X8.3615Y-3.2527
X8.3755Y-2.7386
X8.4122Y-3.3614
X8.4381Y-2.1104
X8.4838Y-2.729
X8.5008Y-1.7533
X8.6452Y-4.0741
X8.6565Y-2.6076
X8.6784Y-4.027
X8.6784Y-3.9324
X8.6903Y-3.6931
X8.6955Y-3.9875
X8.7367Y-1.4967
X8.746Y-2.7943
X8.7497Y-4.1088
X8.7966Y-3.3997
X8.8157Y-4.1742
X8.8178Y-2.433
X8.8302Y-4.1343
X8.994Y-1.5753
X9.0579Y-2.1855
X9.063Y-3.4741
X9.084Y-3.3351
X9.1257Y-3.117
X9.311Y-2.255
X9.3348Y-3.5569
X9.3481Y-3.0023
X9.3698Y-2.8597
X9.4384Y-3.7877
X9.4918Y-3.8258
X9.5407Y-3.8361
X9.632Y-2.925
X10.0133Y-3.2405
T2
X3.2471Y-4.2721
X3.2804Y-4.2008
T3
X4.6558Y-5.1155
X4.6558Y-5.1943
X5.5849Y-5.1155
X5.5849Y-5.1943
T4
X4.1611Y-1.8541
X4.2324Y-1.8874
X4.3038Y-1.9207
T5
X4.638Y-4.8006
X4.638Y-4.9974
X4.7739Y-5.1293
X4.8739Y-5.1293
X4.9739Y-5.1293
X5.0739Y-5.1293
X5.2089Y-4.8006
X5.2089Y-4.899
X5.2089Y-4.9974
X5.2443Y-6.2454
X5.3443Y-6.2454
X5.4443Y-6.2454
X5.5443Y-6.2454
X5.5632Y-4.8006
X5.5632Y-4.899
X5.5632Y-4.9974
X5.703Y-5.1293
X5.803Y-5.1293
X5.903Y-5.1293
X6.003Y-5.1293
X6.1341Y-4.8006
X6.1341Y-4.9974
T6
X5.0861Y-2.5081
X5.0861Y-2.5081
X5.0861Y-2.6081
X5.0861Y-2.6081
X5.0861Y-2.7081
X5.0861Y-2.7081
X5.0861Y-2.8081
X5.0861Y-2.8081
X5.0861Y-2.9081
X5.0861Y-2.9081
X5.0861Y-3.0081
X5.0861Y-3.0081
X5.0861Y-3.1081
X5.0861Y-3.1081
X5.0861Y-3.2081
X5.0861Y-3.2081
X5.0861Y-3.3081
X5.0861Y-3.3081
X5.0861Y-3.4081
X5.0861Y-3.4081
X5.0861Y-3.5081
X5.0861Y-3.5081
X5.0861Y-3.6081
X5.0951Y-3.6081
X5.1861Y-3.4081
X5.1861Y-3.6081
X5.2861Y-3.4081
X5.2861Y-3.6081
X5.3861Y-3.4081
X5.3861Y-3.6081
X5.4861Y-3.6081
X5.5861Y-3.6081
X5.6861Y-2.5081
X5.6861Y-2.5081
X5.6861Y-2.6081
X5.6861Y-2.6081
X5.6861Y-2.7081
X5.6861Y-2.7081
X5.6861Y-2.8081
X5.6861Y-2.8081
X5.6861Y-2.9081
X5.6861Y-2.9081
X5.6861Y-3.0081
X5.6861Y-3.0081
X5.6861Y-3.1081
X5.6861Y-3.1081
X5.6861Y-3.2081
X5.6861Y-3.2081
X5.6861Y-3.3081
X5.6861Y-3.3081
X5.6861Y-3.4081
X5.6861Y-3.4081
X5.6861Y-3.5081
X5.6861Y-3.5081
X5.6861Y-3.6081
X5.6861Y-3.6081
T7
X4.0861Y-1.8192
X4.3787Y-1.9556
T5
G00X4.8517Y-5.5021
M15
G01X4.832Y-5.5021
M16
G05
G00X4.832Y-5.6021
M15
G01X4.8517Y-5.6021
M16
G05
G00X4.832Y-5.7021
M15
G01X4.8517Y-5.7021
M16
G05
G00X4.832Y-5.8021
M15
G01X4.8517Y-5.8021
M16
G05
G00X4.832Y-5.9021
M15
G01X4.8517Y-5.9021
M16
G05
T8
G00X5.1794Y-5.3163
M15
G01X5.1597Y-5.3163
M16
G05
G00X5.1794Y-6.088
M15
G01X5.1597Y-6.088
M16
G05
G00X5.6125Y-5.3163
M15
G01X5.5928Y-5.3163
M16
G05
G00X5.6125Y-6.088
M15
G01X5.5928Y-6.088
M16
G05
T0
M30
