M48
; DRILL file {KiCad (5.1.10)-1} date 12/17/21 13:46:16
; FORMAT={-:-/ absolute / inch / decimal}
; #@! TF.CreationDate,2021-12-17T13:46:16-08:00
; #@! TF.GenerationSoftware,Kicad,Pcbnew,(5.1.10)-1
; #@! TF.FileFunction,Plated,1,2,PTH
FMAT,2
INCH
T1C0.0157
T2C0.0295
T3C0.0300
T4C0.0354
T5C0.0394
T6C0.0430
T7C0.0591
T8C0.1181
%
G90
G05
T1
X0.2416Y-3.3019
X0.4149Y-2.7648
X0.6324Y-2.8662
X0.7228Y-2.0809
X0.7598Y-2.7822
X0.8176Y-1.9485
X0.8495Y-3.6074
X0.9346Y-3.283
X0.9493Y-2.1865
X0.9532Y-2.9827
X1.0136Y-2.9006
X1.0293Y-1.6528
X1.0544Y-2.1031
X1.0831Y-2.9881
X1.0976Y-3.028
X1.1073Y-1.2561
X1.1973Y-3.0745
X1.2022Y-3.4188
X1.2286Y-2.5815
X1.242Y-1.5754
X1.2582Y-2.6836
X1.2617Y-2.1556
X1.2702Y-2.303
X1.3082Y-2.2214
X1.3158Y-1.4018
X1.3578Y-2.399
X1.3828Y-3.1736
X1.3928Y-2.3712
X1.4609Y-3.8815
X1.5413Y-1.9109
X1.5661Y-1.9996
X1.6004Y-1.6184
X1.6062Y-2.6473
X1.6244Y-1.496
X1.653Y-2.0805
X1.6826Y-1.6788
X1.7385Y-2.9076
X1.7477Y-3.4084
X1.8365Y-3.2181
X1.8413Y-1.9702
X1.8511Y-3.4235
X1.8534Y-3.1818
X1.8654Y-4.9308
X1.8849Y-3.351
X1.8955Y-1.8538
X1.9107Y-2.9879
X1.9243Y-1.9746
X1.9959Y-2.829
X2.0599Y-2.7154
X2.0646Y-2.2321
X2.0848Y-3.3008
X2.1402Y-2.5432
X2.1902Y-4.2106
X2.2534Y-1.283
X2.2667Y-3.5732
X2.3682Y-1.5572
X2.3817Y-2.0489
X2.3976Y-2.7956
X2.4095Y-4.379
X2.4217Y-4.495
X2.4226Y-3.7121
X2.4494Y-3.9126
X2.4662Y-1.8677
X2.4866Y-1.469
X2.4998Y-3.8943
X2.5028Y-3.0433
X2.5072Y-3.5308
X2.5317Y-4.756
X2.5542Y-5.252
X2.5646Y-3.6679
X2.6251Y-4.5556
X2.6297Y-3.1025
X2.6964Y-2.1075
X2.7221Y-4.8669
X2.7344Y-3.8244
X2.7354Y-3.0414
X2.8199Y-2.8602
X2.8379Y-2.372
X2.8449Y-4.3363
X2.9131Y-1.5244
X2.9443Y-4.6284
X2.9531Y-2.4727
X2.9837Y-3.2896
X3.0043Y-1.4235
X3.0523Y-2.3617
X3.0601Y-4.1197
X3.0682Y-2.4383
X3.0859Y-4.2228
X3.098Y-3.5415
X3.1024Y-4.029
X3.1325Y-1.6929
X3.1369Y-2.1804
X3.1567Y-4.8538
X3.1711Y-5.6734
X3.1854Y-4.9153
X3.2494Y-5.1965
X3.2809Y-4.2542
X3.2916Y-2.6057
X3.3105Y-3.6406
X3.3771Y-3.4399
X3.3934Y-4.1786
X3.4151Y-3.3584
X3.424Y-2.866
X3.4304Y-5.0425
X3.4484Y-2.0967
X3.449Y-4.0831
X3.5162Y-3.6372
X3.6254Y-3.6882
X3.6631Y-1.9516
X3.694Y-2.7602
X3.6951Y-4.904
X3.7236Y-6.2087
X3.7237Y-3.494
X3.7321Y-2.6786
X3.7398Y-4.4366
X3.741Y-2.1863
X3.7536Y-3.9576
X3.7567Y-4.8497
X3.7645Y-2.4486
X3.7661Y-5.2612
X3.7701Y-3.3943
X3.8279Y-4.6901
X3.837Y-2.0987
X3.8422Y-2.9617
X3.8439Y-5.3814
X3.8494Y-3.8395
X3.8721Y-5.467
X3.8863Y-5.7491
X3.9008Y-5.2907
X3.9106Y-2.3123
X3.9424Y-3.0084
X4.0114Y-2.1898
X4.0247Y-2.0676
X4.0408Y-5.3607
X4.0568Y-3.7569
X4.0615Y-3.2736
X4.0631Y-5.4026
X4.0916Y-3.6987
X4.104Y-2.6547
X4.1183Y-4.5502
X4.1452Y-2.4079
X4.2069Y-3.3332
X4.2083Y-3.8745
X4.2108Y-5.5207
X4.2115Y-6.0036
X4.2551Y-2.3378
X4.3008Y-5.0207
X4.3191Y-2.6903
X4.3307Y-2.9257
X4.3332Y-3.5355
X4.3433Y-2.7568
X4.3513Y-2.5812
X4.3738Y-3.0772
X4.3986Y-3.9632
X4.4008Y-3.0307
X4.4008Y-4.8207
X4.4108Y-3.7707
X4.4408Y-3.8095
X4.4708Y-3.2407
X4.4708Y-4.5207
X4.5008Y-5.2907
X4.5008Y-2.9307
X4.5108Y-3.3307
X4.5108Y-4.4907
X4.5108Y-4.9207
X4.5408Y-4.5607
X4.5408Y-3.4307
X4.6208Y-4.4307
X4.8308Y-3.8095
X4.8308Y-5.6207
X4.8708Y-5.7207
X4.8708Y-3.7707
X4.9208Y-5.0107
X4.9708Y-2.9407
X4.9708Y-5.5107
X4.9708Y-4.4907
X4.9708Y-3.9107
X4.9808Y-5.2107
X5.0008Y-4.7407
X5.0708Y-2.6407
X5.0708Y-3.9607
X5.1208Y-2.4707
X5.1208Y-2.5807
X5.1308Y-2.7307
X5.1608Y-4.4607
X5.2208Y-3.8307
X5.2308Y-4.8207
X5.3008Y-3.4307
X5.3185Y-3.0803
X5.329Y-2.4113
X5.3308Y-5.0107
X5.3408Y-3.3207
X5.3408Y-4.5007
X5.3552Y-3.2299
X5.3715Y-3.1229
X5.3808Y-3.5307
X5.3808Y-4.5407
X5.393Y-2.4217
X5.4308Y-4.9207
X5.4308Y-5.3007
X5.4308Y-6.2607
X5.5508Y-5.5107
X5.5533Y-5.8382
X5.5908Y-5.4107
X5.6008Y-3.6207
X5.6208Y-5.8071
X5.6208Y-5.4707
X5.6377Y-3.8594
X5.6571Y-3.8063
X5.6625Y-2.4875
X5.6704Y-2.3625
X5.6708Y-5.4507
X5.6908Y-5.2607
X5.7082Y-3.1062
X5.7308Y-5.3007
X5.7444Y-5.932
X5.7808Y-5.3807
X5.801Y-5.8754
X5.8108Y-5.4107
X5.8108Y-4.5407
X5.8108Y-5.6207
X5.8408Y-5.4507
X5.8508Y-4.4607
X5.8508Y-5.7507
X5.8799Y-2.0125
X5.9704Y-3.1715
X6.0069Y-2.1614
X6.0252Y-3.7859
X6.0287Y-2.0188
X6.0289Y-2.8054
X6.0508Y-5.4607
X6.0592Y-3.0308
X6.0808Y-5.6007
X6.0882Y-3.1166
X6.1231Y-2.7569
X6.179Y-1.8731
X6.2283Y-2.7124
X6.2398Y-5.0898
X6.2874Y-3.8512
X6.2931Y-2.085
X6.341Y-2.7007
X6.3423Y-1.7982
X6.3459Y-3.4851
X6.4093Y-3.4555
X6.4595Y-1.9312
X6.4676Y-5.0438
X6.4831Y-5.1758
X6.5093Y-2.5814
X6.5508Y-5.7607
X6.6032Y-2.7661
X6.6058Y-1.5291
X6.622Y-2.5697
X6.6248Y-4.0833
X6.6536Y-3.3825
X6.6615Y-2.4111
X6.6671Y-4.1739
X6.6864Y-4.1207
X6.7354Y-4.9259
X6.7506Y-4.0876
X6.7549Y-5.0597
X6.7903Y-2.5934
X6.8948Y-4.7044
X6.8994Y-1.5908
X6.9248Y-3.4436
X6.9277Y-3.3131
X6.9302Y-1.444
X6.9318Y-2.2046
X6.939Y-3.2495
X6.9468Y-4.6029
X6.9785Y-3.0908
X7.0624Y-3.2392
X7.1163Y-3.2689
X7.1675Y-3.8932
X7.181Y-5.3102
X7.2073Y-2.2747
X7.212Y-4.722
X7.2199Y-4.597
X7.2291Y-3.5808
X7.2431Y-3.9131
X7.2443Y-3.7029
X7.2548Y-2.8886
X7.2567Y-1.9128
X7.2586Y-3.9753
X7.3045Y-3.7663
X7.3583Y-3.7633
X7.3664Y-1.5275
X7.3701Y-1.3934
X7.3933Y-4.472
X7.4211Y-4.437
X7.4213Y-3.7748
X7.4543Y-3.8509
X7.4699Y-4.4285
X7.4821Y-4.6623
X7.511Y-2.9496
X7.537Y-4.2648
X7.5567Y-3.5683
X7.5571Y-3.6927
X7.5737Y-2.5926
X7.5878Y-2.0785
X7.6322Y-1.4587
X7.687Y-2.0731
X7.7719Y-1.0957
X7.8322Y-3.6384
X7.8596Y-1.9517
X7.8716Y-4.9772
X7.8907Y-3.2723
X7.9047Y-2.7582
X7.9414Y-3.381
X7.9673Y-2.13
X8.0131Y-2.7486
X8.0301Y-1.7729
X8.1744Y-4.0937
X8.1857Y-2.6272
X8.2076Y-4.0466
X8.2076Y-3.952
X8.2195Y-3.7127
X8.2247Y-4.0071
X8.2659Y-1.5163
X8.2752Y-2.8139
X8.2789Y-4.1284
X8.3258Y-3.4193
X8.3449Y-4.1938
X8.347Y-2.4526
X8.3594Y-4.1539
X8.5233Y-1.5949
X8.5871Y-2.2051
X8.5922Y-3.4937
X8.6132Y-3.3547
X8.6549Y-3.1366
X8.8402Y-2.2746
X8.8641Y-3.5765
X8.8773Y-3.0219
X8.8991Y-2.8793
X8.9677Y-3.8073
X9.021Y-3.8454
X9.0699Y-3.8557
X9.1612Y-2.9446
X9.5425Y-3.2601
T2
X2.4753Y-4.2505
X2.5085Y-4.1791
X2.5418Y-4.1078
T3
X4.185Y-5.1351
X4.185Y-5.2139
X5.1141Y-5.1351
X5.1141Y-5.2139
T4
X3.6903Y-1.8737
X3.7617Y-1.907
X3.833Y-1.9403
T5
X4.1673Y-4.8202
X4.1673Y-5.017
X4.3031Y-5.1489
X4.4031Y-5.1489
X4.5031Y-5.1489
X4.6031Y-5.1489
X4.7381Y-4.8202
X4.7381Y-4.9186
X4.7381Y-5.017
X4.7736Y-6.265
X4.8736Y-6.265
X4.9736Y-6.265
X5.0736Y-6.265
X5.0925Y-4.8202
X5.0925Y-4.9186
X5.0925Y-5.017
X5.2322Y-5.1489
X5.3322Y-5.1489
X5.4322Y-5.1489
X5.5322Y-5.1489
X5.6633Y-4.8202
X5.6633Y-5.017
T6
X4.6153Y-2.5277
X4.6153Y-2.5277
X4.6153Y-2.6277
X4.6153Y-2.6277
X4.6153Y-2.7277
X4.6153Y-2.7277
X4.6153Y-2.8277
X4.6153Y-2.8277
X4.6153Y-2.9277
X4.6153Y-2.9277
X4.6153Y-3.0277
X4.6153Y-3.0277
X4.6153Y-3.1277
X4.6153Y-3.1277
X4.6153Y-3.2277
X4.6153Y-3.2277
X4.6153Y-3.3277
X4.6153Y-3.3277
X4.6153Y-3.4277
X4.6153Y-3.4277
X4.6153Y-3.5277
X4.6153Y-3.5277
X4.6153Y-3.6277
X4.6243Y-3.6277
X4.7153Y-3.4277
X4.7153Y-3.6277
X4.8153Y-3.4277
X4.8153Y-3.6277
X4.9153Y-3.4277
X4.9153Y-3.6277
X5.0153Y-3.6277
X5.1153Y-3.6277
X5.2153Y-2.5277
X5.2153Y-2.5277
X5.2153Y-2.6277
X5.2153Y-2.6277
X5.2153Y-2.7277
X5.2153Y-2.7277
X5.2153Y-2.8277
X5.2153Y-2.8277
X5.2153Y-2.9277
X5.2153Y-2.9277
X5.2153Y-3.0277
X5.2153Y-3.0277
X5.2153Y-3.1277
X5.2153Y-3.1277
X5.2153Y-3.2277
X5.2153Y-3.2277
X5.2153Y-3.3277
X5.2153Y-3.3277
X5.2153Y-3.4277
X5.2153Y-3.4277
X5.2153Y-3.5277
X5.2153Y-3.5277
X5.2153Y-3.6277
X5.2153Y-3.6277
T7
X3.6154Y-1.8388
X3.908Y-1.9752
T5
G00X4.3809Y-5.5217
M15
G01X4.3612Y-5.5217
M16
G05
G00X4.3612Y-5.6217
M15
G01X4.3809Y-5.6217
M16
G05
G00X4.3612Y-5.7217
M15
G01X4.3809Y-5.7217
M16
G05
G00X4.3612Y-5.8217
M15
G01X4.3809Y-5.8217
M16
G05
G00X4.3612Y-5.9217
M15
G01X4.3809Y-5.9217
M16
G05
T8
G00X4.7086Y-5.3359
M15
G01X4.6889Y-5.3359
M16
G05
G00X4.7086Y-6.1076
M15
G01X4.6889Y-6.1076
M16
G05
G00X5.1417Y-5.3359
M15
G01X5.122Y-5.3359
M16
G05
G00X5.1417Y-6.1076
M15
G01X5.122Y-6.1076
M16
G05
T0
M30
