%TF.GenerationSoftware,KiCad,Pcbnew,(5.1.10)-1*%
%TF.CreationDate,2021-12-17T13:46:14-08:00*%
%TF.ProjectId,barobord,6261726f-626f-4726-942e-6b696361645f,rev?*%
%TF.SameCoordinates,Original*%
%TF.FileFunction,Profile,NP*%
%FSLAX46Y46*%
G04 Gerber Fmt 4.6, Leading zero omitted, Abs format (unit mm)*
G04 Created by KiCad (PCBNEW (5.1.10)-1) date 2021-12-17 13:46:14*
%MOMM*%
%LPD*%
G01*
G04 APERTURE LIST*
%TA.AperFunction,Profile*%
%ADD10C,0.124256*%
%TD*%
%TA.AperFunction,Profile*%
%ADD11C,0.100000*%
%TD*%
%TA.AperFunction,Profile*%
%ADD12C,0.050000*%
%TD*%
G04 APERTURE END LIST*
D10*
X104060576Y-49899432D02*
X103626479Y-49682835D01*
X103626479Y-49682835D02*
X103191883Y-49467245D01*
X103191883Y-49467245D02*
X102756804Y-49252631D01*
X102756804Y-49252631D02*
X102321260Y-49038961D01*
X102321260Y-49038961D02*
X101885266Y-48826202D01*
X101885266Y-48826202D02*
X101448840Y-48614323D01*
X101448840Y-48614323D02*
X101011997Y-48403292D01*
X101011997Y-48403292D02*
X100574754Y-48193077D01*
X100574754Y-48193077D02*
X100137128Y-47983647D01*
X100137128Y-47983647D02*
X99699135Y-47774968D01*
X99699135Y-47774968D02*
X99260792Y-47567011D01*
X99260792Y-47567011D02*
X98822115Y-47359742D01*
X98822115Y-47359742D02*
X98383121Y-47153131D01*
X98383121Y-47153131D02*
X97943826Y-46947144D01*
X97943826Y-46947144D02*
X97504247Y-46741751D01*
X97504247Y-46741751D02*
X97064401Y-46536919D01*
X97064401Y-46536919D02*
X96624303Y-46332617D01*
X96624303Y-46332617D02*
X96183970Y-46128812D01*
X96183970Y-46128812D02*
X95743420Y-45925474D01*
X95743420Y-45925474D02*
X95302668Y-45722569D01*
X95302668Y-45722569D02*
X94861731Y-45520067D01*
X94861731Y-45520067D02*
X94420625Y-45317935D01*
X94420625Y-45317935D02*
X93979368Y-45116142D01*
X93979368Y-45116142D02*
X93537975Y-44914655D01*
X93537975Y-44914655D02*
X93096463Y-44713444D01*
X93096463Y-44713444D02*
X92654848Y-44512475D01*
X92654848Y-44512475D02*
X92213148Y-44311717D01*
X92213148Y-44311717D02*
X91771378Y-44111139D01*
X91771378Y-44111139D02*
X91329556Y-43910709D01*
X91329556Y-43910709D02*
X90887697Y-43710394D01*
X90887697Y-43710394D02*
X90445818Y-43510163D01*
X90445818Y-43510163D02*
X90003937Y-43309984D01*
X48449669Y-30575032D02*
X48365110Y-30756581D01*
X48365110Y-30756581D02*
X48280550Y-30938130D01*
X48280550Y-30938130D02*
X48195988Y-31119679D01*
X48195988Y-31119679D02*
X48111426Y-31301227D01*
X48111426Y-31301227D02*
X48026863Y-31482776D01*
X48026863Y-31482776D02*
X47942299Y-31664325D01*
X47942299Y-31664325D02*
X47857734Y-31845873D01*
X47857734Y-31845873D02*
X47773169Y-32027422D01*
X47773169Y-32027422D02*
X47688604Y-32208970D01*
X47688604Y-32208970D02*
X47604038Y-32390518D01*
X47604038Y-32390518D02*
X47519472Y-32572066D01*
X47519472Y-32572066D02*
X47434905Y-32753615D01*
X47434905Y-32753615D02*
X47350339Y-32935163D01*
X47350339Y-32935163D02*
X47265773Y-33116711D01*
X47265773Y-33116711D02*
X47181207Y-33298260D01*
X47181207Y-33298260D02*
X47096641Y-33479808D01*
X47096641Y-33479808D02*
X47012076Y-33661357D01*
X47012076Y-33661357D02*
X46927512Y-33842905D01*
X46927512Y-33842905D02*
X46842948Y-34024454D01*
X46842948Y-34024454D02*
X46758385Y-34206003D01*
X46758385Y-34206003D02*
X46673822Y-34387552D01*
X46673822Y-34387552D02*
X46589261Y-34569101D01*
X46589261Y-34569101D02*
X46504701Y-34750650D01*
X46504701Y-34750650D02*
X46420142Y-34932199D01*
X46420142Y-34932199D02*
X46335585Y-35113749D01*
X46335585Y-35113749D02*
X46251029Y-35295299D01*
X46251029Y-35295299D02*
X46166475Y-35476849D01*
X46166475Y-35476849D02*
X46081922Y-35658399D01*
X46081922Y-35658399D02*
X45997371Y-35839950D01*
X45997371Y-35839950D02*
X45912822Y-36021501D01*
X45912822Y-36021501D02*
X45828275Y-36203052D01*
X45828275Y-36203052D02*
X45743731Y-36384604D01*
X27062468Y-31548382D02*
X26323856Y-33125282D01*
X26323856Y-33125282D02*
X25585340Y-34702231D01*
X25585340Y-34702231D02*
X24846936Y-36279236D01*
X24846936Y-36279236D02*
X24108656Y-37856302D01*
X24108656Y-37856302D02*
X23370516Y-39433437D01*
X23370516Y-39433437D02*
X22632530Y-41010647D01*
X22632530Y-41010647D02*
X21894712Y-42587937D01*
X21894712Y-42587937D02*
X21157078Y-44165315D01*
X21157078Y-44165315D02*
X20419640Y-45742787D01*
X20419640Y-45742787D02*
X19682414Y-47320359D01*
X19682414Y-47320359D02*
X18945414Y-48898037D01*
X18945414Y-48898037D02*
X18208655Y-50475828D01*
X18208655Y-50475828D02*
X17472150Y-52053738D01*
X17472150Y-52053738D02*
X16735915Y-53631774D01*
X16735915Y-53631774D02*
X15999964Y-55209941D01*
X15999964Y-55209941D02*
X15264311Y-56788248D01*
X15264311Y-56788248D02*
X14528970Y-58366698D01*
X14528970Y-58366698D02*
X13793956Y-59945300D01*
X13793956Y-59945300D02*
X13059284Y-61524059D01*
X13059284Y-61524059D02*
X12324968Y-63102982D01*
X12324968Y-63102982D02*
X11591022Y-64682076D01*
X11591022Y-64682076D02*
X10857460Y-66261345D01*
X10857460Y-66261345D02*
X10124298Y-67840798D01*
X10124298Y-67840798D02*
X9391549Y-69420440D01*
X9391549Y-69420440D02*
X8659228Y-71000278D01*
X8659228Y-71000278D02*
X7927350Y-72580317D01*
X7927350Y-72580317D02*
X7195928Y-74160565D01*
X7195928Y-74160565D02*
X6464978Y-75741028D01*
X6464978Y-75741028D02*
X5734513Y-77321712D01*
X5734513Y-77321712D02*
X5004548Y-78902624D01*
X5004548Y-78902624D02*
X4275098Y-80483769D01*
X4275098Y-80483769D02*
X3546177Y-82065155D01*
X45743731Y-36384604D02*
X45275021Y-36167237D01*
X45275021Y-36167237D02*
X44806388Y-35949688D01*
X44806388Y-35949688D02*
X44337820Y-35731981D01*
X44337820Y-35731981D02*
X43869306Y-35514144D01*
X43869306Y-35514144D02*
X43400834Y-35296203D01*
X43400834Y-35296203D02*
X42932392Y-35078186D01*
X42932392Y-35078186D02*
X42463968Y-34860120D01*
X42463968Y-34860120D02*
X41995551Y-34642030D01*
X41995551Y-34642030D02*
X41527129Y-34423944D01*
X41527129Y-34423944D02*
X41058690Y-34205889D01*
X41058690Y-34205889D02*
X40590223Y-33987892D01*
X40590223Y-33987892D02*
X40121717Y-33769979D01*
X40121717Y-33769979D02*
X39653158Y-33552177D01*
X39653158Y-33552177D02*
X39184536Y-33334512D01*
X39184536Y-33334512D02*
X38715840Y-33117013D01*
X38715840Y-33117013D02*
X38247056Y-32899705D01*
X38247056Y-32899705D02*
X37778174Y-32682615D01*
X37778174Y-32682615D02*
X37309182Y-32465771D01*
X37309182Y-32465771D02*
X36840068Y-32249198D01*
X36840068Y-32249198D02*
X36370821Y-32032925D01*
X36370821Y-32032925D02*
X35901429Y-31816976D01*
X35901429Y-31816976D02*
X35431880Y-31601381D01*
X35431880Y-31601381D02*
X34962163Y-31386164D01*
X34962163Y-31386164D02*
X34492265Y-31171353D01*
X34492265Y-31171353D02*
X34022175Y-30956976D01*
X34022175Y-30956976D02*
X33551882Y-30743057D01*
X33551882Y-30743057D02*
X33081374Y-30529626D01*
X33081374Y-30529626D02*
X32610639Y-30316707D01*
X32610639Y-30316707D02*
X32139666Y-30104329D01*
X32139666Y-30104329D02*
X31668442Y-29892517D01*
X31668442Y-29892517D02*
X31196956Y-29681299D01*
X31196956Y-29681299D02*
X30725197Y-29470702D01*
X51270847Y-26177571D02*
X51119043Y-26261375D01*
X51119043Y-26261375D02*
X50974887Y-26351789D01*
X50974887Y-26351789D02*
X50838026Y-26448498D01*
X50838026Y-26448498D02*
X50708104Y-26551185D01*
X50708104Y-26551185D02*
X50584769Y-26659536D01*
X50584769Y-26659536D02*
X50467664Y-26773237D01*
X50467664Y-26773237D02*
X50356437Y-26891971D01*
X50356437Y-26891971D02*
X50250732Y-27015425D01*
X50250732Y-27015425D02*
X50150197Y-27143283D01*
X50150197Y-27143283D02*
X50054475Y-27275230D01*
X50054475Y-27275230D02*
X49963214Y-27410951D01*
X49963214Y-27410951D02*
X49876059Y-27550131D01*
X49876059Y-27550131D02*
X49792655Y-27692455D01*
X49792655Y-27692455D02*
X49712649Y-27837609D01*
X49712649Y-27837609D02*
X49635686Y-27985276D01*
X49635686Y-27985276D02*
X49561412Y-28135142D01*
X49561412Y-28135142D02*
X49489473Y-28286893D01*
X49489473Y-28286893D02*
X49419514Y-28440212D01*
X49419514Y-28440212D02*
X49351182Y-28594786D01*
X49351182Y-28594786D02*
X49284121Y-28750298D01*
X49284121Y-28750298D02*
X49217979Y-28906435D01*
X49217979Y-28906435D02*
X49152399Y-29062880D01*
X49152399Y-29062880D02*
X49087029Y-29219320D01*
X49087029Y-29219320D02*
X49021515Y-29375439D01*
X49021515Y-29375439D02*
X48955501Y-29530921D01*
X48955501Y-29530921D02*
X48888633Y-29685453D01*
X48888633Y-29685453D02*
X48820558Y-29838719D01*
X48820558Y-29838719D02*
X48750921Y-29990403D01*
X48750921Y-29990403D02*
X48679368Y-30140192D01*
X48679368Y-30140192D02*
X48605544Y-30287769D01*
X48605544Y-30287769D02*
X48529096Y-30432821D01*
X48529096Y-30432821D02*
X48449669Y-30575032D01*
X30725197Y-29470702D02*
X30576500Y-29422440D01*
X30576500Y-29422440D02*
X30427858Y-29383826D01*
X30427858Y-29383826D02*
X30279486Y-29354623D01*
X30279486Y-29354623D02*
X30131599Y-29334598D01*
X30131599Y-29334598D02*
X29984414Y-29323516D01*
X29984414Y-29323516D02*
X29838145Y-29321143D01*
X29838145Y-29321143D02*
X29693008Y-29327244D01*
X29693008Y-29327244D02*
X29549218Y-29341585D01*
X29549218Y-29341585D02*
X29406991Y-29363932D01*
X29406991Y-29363932D02*
X29266541Y-29394051D01*
X29266541Y-29394051D02*
X29128086Y-29431706D01*
X29128086Y-29431706D02*
X28991838Y-29476663D01*
X28991838Y-29476663D02*
X28858016Y-29528689D01*
X28858016Y-29528689D02*
X28726832Y-29587549D01*
X28726832Y-29587549D02*
X28598504Y-29653007D01*
X28598504Y-29653007D02*
X28473246Y-29724831D01*
X28473246Y-29724831D02*
X28351274Y-29802785D01*
X28351274Y-29802785D02*
X28232803Y-29886636D01*
X28232803Y-29886636D02*
X28118049Y-29976148D01*
X28118049Y-29976148D02*
X28007227Y-30071088D01*
X28007227Y-30071088D02*
X27900553Y-30171220D01*
X27900553Y-30171220D02*
X27798241Y-30276311D01*
X27798241Y-30276311D02*
X27700507Y-30386127D01*
X27700507Y-30386127D02*
X27607567Y-30500432D01*
X27607567Y-30500432D02*
X27519636Y-30618993D01*
X27519636Y-30618993D02*
X27436930Y-30741575D01*
X27436930Y-30741575D02*
X27359663Y-30867943D01*
X27359663Y-30867943D02*
X27288052Y-30997864D01*
X27288052Y-30997864D02*
X27222311Y-31131102D01*
X27222311Y-31131102D02*
X27162657Y-31267424D01*
X27162657Y-31267424D02*
X27109304Y-31406596D01*
X27109304Y-31406596D02*
X27062468Y-31548382D01*
X5527776Y-86000036D02*
X5960575Y-86216303D01*
X5960575Y-86216303D02*
X6393893Y-86431526D01*
X6393893Y-86431526D02*
X6827712Y-86645740D01*
X6827712Y-86645740D02*
X7262016Y-86858976D01*
X7262016Y-86858976D02*
X7696787Y-87071268D01*
X7696787Y-87071268D02*
X8132007Y-87282649D01*
X8132007Y-87282649D02*
X8567659Y-87493152D01*
X8567659Y-87493152D02*
X9003727Y-87702811D01*
X9003727Y-87702811D02*
X9440191Y-87911658D01*
X9440191Y-87911658D02*
X9877037Y-88119727D01*
X9877037Y-88119727D02*
X10314245Y-88327051D01*
X10314245Y-88327051D02*
X10751799Y-88533663D01*
X10751799Y-88533663D02*
X11189681Y-88739596D01*
X11189681Y-88739596D02*
X11627874Y-88944883D01*
X11627874Y-88944883D02*
X12066361Y-89149558D01*
X12066361Y-89149558D02*
X12505124Y-89353654D01*
X12505124Y-89353654D02*
X12944147Y-89557203D01*
X12944147Y-89557203D02*
X13383411Y-89760239D01*
X13383411Y-89760239D02*
X13822899Y-89962796D01*
X13822899Y-89962796D02*
X14262595Y-90164905D01*
X14262595Y-90164905D02*
X14702481Y-90366601D01*
X14702481Y-90366601D02*
X15142539Y-90567917D01*
X15142539Y-90567917D02*
X15582752Y-90768885D01*
X15582752Y-90768885D02*
X16023103Y-90969540D01*
X16023103Y-90969540D02*
X16463575Y-91169913D01*
X16463575Y-91169913D02*
X16904150Y-91370038D01*
X16904150Y-91370038D02*
X17344811Y-91569949D01*
X17344811Y-91569949D02*
X17785540Y-91769678D01*
X17785540Y-91769678D02*
X18226321Y-91969259D01*
X18226321Y-91969259D02*
X18667136Y-92168725D01*
X18667136Y-92168725D02*
X19107968Y-92368109D01*
X19107968Y-92368109D02*
X19548799Y-92567444D01*
X36631759Y-107572434D02*
X36780181Y-107607628D01*
X36780181Y-107607628D02*
X36927580Y-107633348D01*
X36927580Y-107633348D02*
X37073805Y-107649856D01*
X37073805Y-107649856D02*
X37218704Y-107657418D01*
X37218704Y-107657418D02*
X37362127Y-107656298D01*
X37362127Y-107656298D02*
X37503922Y-107646760D01*
X37503922Y-107646760D02*
X37643938Y-107629070D01*
X37643938Y-107629070D02*
X37782025Y-107603490D01*
X37782025Y-107603490D02*
X37918030Y-107570287D01*
X37918030Y-107570287D02*
X38051804Y-107529724D01*
X38051804Y-107529724D02*
X38183194Y-107482067D01*
X38183194Y-107482067D02*
X38312051Y-107427579D01*
X38312051Y-107427579D02*
X38438221Y-107366525D01*
X38438221Y-107366525D02*
X38561556Y-107299169D01*
X38561556Y-107299169D02*
X38681903Y-107225776D01*
X38681903Y-107225776D02*
X38799112Y-107146611D01*
X38799112Y-107146611D02*
X38913030Y-107061938D01*
X38913030Y-107061938D02*
X39023509Y-106972022D01*
X39023509Y-106972022D02*
X39130395Y-106877126D01*
X39130395Y-106877126D02*
X39233538Y-106777516D01*
X39233538Y-106777516D02*
X39332787Y-106673456D01*
X39332787Y-106673456D02*
X39427991Y-106565211D01*
X39427991Y-106565211D02*
X39518999Y-106453045D01*
X39518999Y-106453045D02*
X39605660Y-106337222D01*
X39605660Y-106337222D02*
X39687822Y-106218007D01*
X39687822Y-106218007D02*
X39765334Y-106095665D01*
X39765334Y-106095665D02*
X39838046Y-105970460D01*
X39838046Y-105970460D02*
X39905806Y-105842657D01*
X39905806Y-105842657D02*
X39968464Y-105712519D01*
X39968464Y-105712519D02*
X40025867Y-105580312D01*
X40025867Y-105580312D02*
X40077866Y-105446301D01*
X40077866Y-105446301D02*
X40124309Y-105310749D01*
X47964172Y-129536663D02*
X48477433Y-129787222D01*
X48477433Y-129787222D02*
X48991364Y-130036455D01*
X48991364Y-130036455D02*
X49505919Y-130284450D01*
X49505919Y-130284450D02*
X50021054Y-130531292D01*
X50021054Y-130531292D02*
X50536724Y-130777070D01*
X50536724Y-130777070D02*
X51052883Y-131021870D01*
X51052883Y-131021870D02*
X51569487Y-131265780D01*
X51569487Y-131265780D02*
X52086490Y-131508886D01*
X52086490Y-131508886D02*
X52603849Y-131751276D01*
X52603849Y-131751276D02*
X53121517Y-131993037D01*
X53121517Y-131993037D02*
X53639449Y-132234255D01*
X53639449Y-132234255D02*
X54157602Y-132475019D01*
X54157602Y-132475019D02*
X54675929Y-132715415D01*
X54675929Y-132715415D02*
X55194387Y-132955530D01*
X55194387Y-132955530D02*
X55712929Y-133195451D01*
X55712929Y-133195451D02*
X56231511Y-133435266D01*
X56231511Y-133435266D02*
X56750088Y-133675062D01*
X56750088Y-133675062D02*
X57268616Y-133914925D01*
X57268616Y-133914925D02*
X57787048Y-134154943D01*
X57787048Y-134154943D02*
X58305340Y-134395203D01*
X58305340Y-134395203D02*
X58823448Y-134635793D01*
X58823448Y-134635793D02*
X59341325Y-134876798D01*
X59341325Y-134876798D02*
X59858928Y-135118307D01*
X59858928Y-135118307D02*
X60376211Y-135360406D01*
X60376211Y-135360406D02*
X60893129Y-135603183D01*
X60893129Y-135603183D02*
X61409637Y-135846724D01*
X61409637Y-135846724D02*
X61925691Y-136091117D01*
X61925691Y-136091117D02*
X62441245Y-136336449D01*
X62441245Y-136336449D02*
X62956255Y-136582807D01*
X62956255Y-136582807D02*
X63470674Y-136830278D01*
X63470674Y-136830278D02*
X63984460Y-137078950D01*
X63984460Y-137078950D02*
X64497566Y-137328909D01*
X3546177Y-82065155D02*
X3488246Y-82217375D01*
X3488246Y-82217375D02*
X3440717Y-82369869D01*
X3440717Y-82369869D02*
X3403323Y-82522421D01*
X3403323Y-82522421D02*
X3375797Y-82674814D01*
X3375797Y-82674814D02*
X3357871Y-82826831D01*
X3357871Y-82826831D02*
X3349279Y-82978258D01*
X3349279Y-82978258D02*
X3349755Y-83128878D01*
X3349755Y-83128878D02*
X3359030Y-83278475D01*
X3359030Y-83278475D02*
X3376839Y-83426833D01*
X3376839Y-83426833D02*
X3402914Y-83573735D01*
X3402914Y-83573735D02*
X3436989Y-83718966D01*
X3436989Y-83718966D02*
X3478796Y-83862310D01*
X3478796Y-83862310D02*
X3528069Y-84003550D01*
X3528069Y-84003550D02*
X3584541Y-84142470D01*
X3584541Y-84142470D02*
X3647945Y-84278855D01*
X3647945Y-84278855D02*
X3718014Y-84412488D01*
X3718014Y-84412488D02*
X3794481Y-84543153D01*
X3794481Y-84543153D02*
X3877079Y-84670633D01*
X3877079Y-84670633D02*
X3965542Y-84794714D01*
X3965542Y-84794714D02*
X4059602Y-84915179D01*
X4059602Y-84915179D02*
X4158992Y-85031811D01*
X4158992Y-85031811D02*
X4263447Y-85144395D01*
X4263447Y-85144395D02*
X4372698Y-85252715D01*
X4372698Y-85252715D02*
X4486479Y-85356554D01*
X4486479Y-85356554D02*
X4604523Y-85455696D01*
X4604523Y-85455696D02*
X4726563Y-85549926D01*
X4726563Y-85549926D02*
X4852332Y-85639027D01*
X4852332Y-85639027D02*
X4981564Y-85722782D01*
X4981564Y-85722782D02*
X5113991Y-85800977D01*
X5113991Y-85800977D02*
X5249346Y-85873395D01*
X5249346Y-85873395D02*
X5387364Y-85939820D01*
X5387364Y-85939820D02*
X5527776Y-86000036D01*
X45905342Y-126103996D02*
X45873348Y-126244989D01*
X45873348Y-126244989D02*
X45849464Y-126385494D01*
X45849464Y-126385494D02*
X45833500Y-126525343D01*
X45833500Y-126525343D02*
X45825266Y-126664368D01*
X45825266Y-126664368D02*
X45824573Y-126802398D01*
X45824573Y-126802398D02*
X45831232Y-126939265D01*
X45831232Y-126939265D02*
X45845052Y-127074801D01*
X45845052Y-127074801D02*
X45865846Y-127208837D01*
X45865846Y-127208837D02*
X45893423Y-127341203D01*
X45893423Y-127341203D02*
X45927593Y-127471731D01*
X45927593Y-127471731D02*
X45968168Y-127600253D01*
X45968168Y-127600253D02*
X46014958Y-127726598D01*
X46014958Y-127726598D02*
X46067774Y-127850600D01*
X46067774Y-127850600D02*
X46126425Y-127972088D01*
X46126425Y-127972088D02*
X46190723Y-128090894D01*
X46190723Y-128090894D02*
X46260479Y-128206849D01*
X46260479Y-128206849D02*
X46335502Y-128319785D01*
X46335502Y-128319785D02*
X46415604Y-128429532D01*
X46415604Y-128429532D02*
X46500594Y-128535922D01*
X46500594Y-128535922D02*
X46590284Y-128638785D01*
X46590284Y-128638785D02*
X46684484Y-128737954D01*
X46684484Y-128737954D02*
X46783005Y-128833259D01*
X46783005Y-128833259D02*
X46885657Y-128924531D01*
X46885657Y-128924531D02*
X46992250Y-129011602D01*
X46992250Y-129011602D02*
X47102596Y-129094303D01*
X47102596Y-129094303D02*
X47216505Y-129172465D01*
X47216505Y-129172465D02*
X47333788Y-129245918D01*
X47333788Y-129245918D02*
X47454254Y-129314496D01*
X47454254Y-129314496D02*
X47577715Y-129378028D01*
X47577715Y-129378028D02*
X47703981Y-129436345D01*
X47703981Y-129436345D02*
X47832863Y-129489280D01*
X47832863Y-129489280D02*
X47964172Y-129536663D01*
X22258518Y-101060703D02*
X22707294Y-101264748D01*
X22707294Y-101264748D02*
X23155598Y-101469975D01*
X23155598Y-101469975D02*
X23603478Y-101676260D01*
X23603478Y-101676260D02*
X24050984Y-101883482D01*
X24050984Y-101883482D02*
X24498167Y-102091520D01*
X24498167Y-102091520D02*
X24945076Y-102300252D01*
X24945076Y-102300252D02*
X25391760Y-102509556D01*
X25391760Y-102509556D02*
X25838270Y-102719311D01*
X25838270Y-102719311D02*
X26284656Y-102929395D01*
X26284656Y-102929395D02*
X26730967Y-103139687D01*
X26730967Y-103139687D02*
X27177253Y-103350064D01*
X27177253Y-103350064D02*
X27623564Y-103560406D01*
X27623564Y-103560406D02*
X28069950Y-103770590D01*
X28069950Y-103770590D02*
X28516460Y-103980496D01*
X28516460Y-103980496D02*
X28963145Y-104190000D01*
X28963145Y-104190000D02*
X29410055Y-104398983D01*
X29410055Y-104398983D02*
X29857238Y-104607321D01*
X29857238Y-104607321D02*
X30304745Y-104814895D01*
X30304745Y-104814895D02*
X30752626Y-105021581D01*
X30752626Y-105021581D02*
X31200930Y-105227258D01*
X31200930Y-105227258D02*
X31649708Y-105431805D01*
X31649708Y-105431805D02*
X32099009Y-105635100D01*
X32099009Y-105635100D02*
X32548883Y-105837021D01*
X32548883Y-105837021D02*
X32999380Y-106037447D01*
X32999380Y-106037447D02*
X33450550Y-106236257D01*
X33450550Y-106236257D02*
X33902442Y-106433327D01*
X33902442Y-106433327D02*
X34355107Y-106628538D01*
X34355107Y-106628538D02*
X34808594Y-106821767D01*
X34808594Y-106821767D02*
X35262952Y-107012893D01*
X35262952Y-107012893D02*
X35718233Y-107201793D01*
X35718233Y-107201793D02*
X36174485Y-107388348D01*
X36174485Y-107388348D02*
X36631759Y-107572434D01*
X17940797Y-97865345D02*
X17988525Y-98049149D01*
X17988525Y-98049149D02*
X18046822Y-98223355D01*
X18046822Y-98223355D02*
X18115194Y-98388382D01*
X18115194Y-98388382D02*
X18193146Y-98544647D01*
X18193146Y-98544647D02*
X18280184Y-98692569D01*
X18280184Y-98692569D02*
X18375814Y-98832566D01*
X18375814Y-98832566D02*
X18479542Y-98965056D01*
X18479542Y-98965056D02*
X18590872Y-99090457D01*
X18590872Y-99090457D02*
X18709311Y-99209187D01*
X18709311Y-99209187D02*
X18834365Y-99321665D01*
X18834365Y-99321665D02*
X18965539Y-99428309D01*
X18965539Y-99428309D02*
X19102339Y-99529536D01*
X19102339Y-99529536D02*
X19244270Y-99625766D01*
X19244270Y-99625766D02*
X19390838Y-99717416D01*
X19390838Y-99717416D02*
X19541550Y-99804905D01*
X19541550Y-99804905D02*
X19695910Y-99888650D01*
X19695910Y-99888650D02*
X19853424Y-99969069D01*
X19853424Y-99969069D02*
X20013598Y-100046582D01*
X20013598Y-100046582D02*
X20175938Y-100121606D01*
X20175938Y-100121606D02*
X20339949Y-100194560D01*
X20339949Y-100194560D02*
X20505137Y-100265860D01*
X20505137Y-100265860D02*
X20671008Y-100335927D01*
X20671008Y-100335927D02*
X20837067Y-100405177D01*
X20837067Y-100405177D02*
X21002821Y-100474030D01*
X21002821Y-100474030D02*
X21167774Y-100542902D01*
X21167774Y-100542902D02*
X21331432Y-100612213D01*
X21331432Y-100612213D02*
X21493302Y-100682381D01*
X21493302Y-100682381D02*
X21652889Y-100753823D01*
X21652889Y-100753823D02*
X21809698Y-100826958D01*
X21809698Y-100826958D02*
X21963235Y-100902204D01*
X21963235Y-100902204D02*
X22113007Y-100979980D01*
X22113007Y-100979980D02*
X22258518Y-101060703D01*
X19548799Y-92567444D02*
X19487801Y-92727549D01*
X19487801Y-92727549D02*
X19423128Y-92887537D01*
X19423128Y-92887537D02*
X19355215Y-93047456D01*
X19355215Y-93047456D02*
X19284500Y-93207351D01*
X19284500Y-93207351D02*
X19211419Y-93367271D01*
X19211419Y-93367271D02*
X19136411Y-93527262D01*
X19136411Y-93527262D02*
X19059910Y-93687370D01*
X19059910Y-93687370D02*
X18982355Y-93847643D01*
X18982355Y-93847643D02*
X18904183Y-94008127D01*
X18904183Y-94008127D02*
X18825830Y-94168869D01*
X18825830Y-94168869D02*
X18747734Y-94329917D01*
X18747734Y-94329917D02*
X18670331Y-94491316D01*
X18670331Y-94491316D02*
X18594058Y-94653114D01*
X18594058Y-94653114D02*
X18519352Y-94815358D01*
X18519352Y-94815358D02*
X18446651Y-94978094D01*
X18446651Y-94978094D02*
X18376391Y-95141369D01*
X18376391Y-95141369D02*
X18309009Y-95305230D01*
X18309009Y-95305230D02*
X18244943Y-95469725D01*
X18244943Y-95469725D02*
X18184628Y-95634899D01*
X18184628Y-95634899D02*
X18128502Y-95800800D01*
X18128502Y-95800800D02*
X18077003Y-95967474D01*
X18077003Y-95967474D02*
X18030566Y-96134969D01*
X18030566Y-96134969D02*
X17989630Y-96303331D01*
X17989630Y-96303331D02*
X17954630Y-96472607D01*
X17954630Y-96472607D02*
X17926004Y-96642845D01*
X17926004Y-96642845D02*
X17904189Y-96814089D01*
X17904189Y-96814089D02*
X17889622Y-96986389D01*
X17889622Y-96986389D02*
X17882740Y-97159790D01*
X17882740Y-97159790D02*
X17883979Y-97334339D01*
X17883979Y-97334339D02*
X17893777Y-97510083D01*
X17893777Y-97510083D02*
X17912570Y-97687069D01*
X17912570Y-97687069D02*
X17940797Y-97865345D01*
X53313493Y-110025135D02*
X53079821Y-110526511D01*
X53079821Y-110526511D02*
X52845665Y-111027704D01*
X52845665Y-111027704D02*
X52611087Y-111528740D01*
X52611087Y-111528740D02*
X52376150Y-112029643D01*
X52376150Y-112029643D02*
X52140915Y-112530439D01*
X52140915Y-112530439D02*
X51905446Y-113031153D01*
X51905446Y-113031153D02*
X51669805Y-113531811D01*
X51669805Y-113531811D02*
X51434054Y-114032438D01*
X51434054Y-114032438D02*
X51198255Y-114533059D01*
X51198255Y-114533059D02*
X50962472Y-115033699D01*
X50962472Y-115033699D02*
X50726766Y-115534384D01*
X50726766Y-115534384D02*
X50491200Y-116035140D01*
X50491200Y-116035140D02*
X50255836Y-116535991D01*
X50255836Y-116535991D02*
X50020736Y-117036963D01*
X50020736Y-117036963D02*
X49785964Y-117538081D01*
X49785964Y-117538081D02*
X49551581Y-118039371D01*
X49551581Y-118039371D02*
X49317650Y-118540857D01*
X49317650Y-118540857D02*
X49084233Y-119042566D01*
X49084233Y-119042566D02*
X48851393Y-119544522D01*
X48851393Y-119544522D02*
X48619191Y-120046751D01*
X48619191Y-120046751D02*
X48387692Y-120549278D01*
X48387692Y-120549278D02*
X48156956Y-121052128D01*
X48156956Y-121052128D02*
X47927047Y-121555327D01*
X47927047Y-121555327D02*
X47698026Y-122058901D01*
X47698026Y-122058901D02*
X47469956Y-122562874D01*
X47469956Y-122562874D02*
X47242900Y-123067271D01*
X47242900Y-123067271D02*
X47016920Y-123572119D01*
X47016920Y-123572119D02*
X46792078Y-124077442D01*
X46792078Y-124077442D02*
X46568437Y-124583266D01*
X46568437Y-124583266D02*
X46346059Y-125089616D01*
X46346059Y-125089616D02*
X46125006Y-125596517D01*
X46125006Y-125596517D02*
X45905342Y-126103996D01*
X41858321Y-104677884D02*
X42215834Y-104845970D01*
X42215834Y-104845970D02*
X42573383Y-105013982D01*
X42573383Y-105013982D02*
X42930966Y-105181920D01*
X42930966Y-105181920D02*
X43288584Y-105349786D01*
X43288584Y-105349786D02*
X43646235Y-105517579D01*
X43646235Y-105517579D02*
X44003918Y-105685303D01*
X44003918Y-105685303D02*
X44361635Y-105852957D01*
X44361635Y-105852957D02*
X44719383Y-106020543D01*
X44719383Y-106020543D02*
X45077162Y-106188062D01*
X45077162Y-106188062D02*
X45434972Y-106355516D01*
X45434972Y-106355516D02*
X45792812Y-106522904D01*
X45792812Y-106522904D02*
X46150683Y-106690230D01*
X46150683Y-106690230D02*
X46508582Y-106857492D01*
X46508582Y-106857492D02*
X46866510Y-107024694D01*
X46866510Y-107024694D02*
X47224466Y-107191835D01*
X47224466Y-107191835D02*
X47582449Y-107358917D01*
X47582449Y-107358917D02*
X47940459Y-107525941D01*
X47940459Y-107525941D02*
X48298496Y-107692909D01*
X48298496Y-107692909D02*
X48656559Y-107859821D01*
X48656559Y-107859821D02*
X49014648Y-108026679D01*
X49014648Y-108026679D02*
X49372761Y-108193483D01*
X49372761Y-108193483D02*
X49730898Y-108360235D01*
X49730898Y-108360235D02*
X50089060Y-108526936D01*
X50089060Y-108526936D02*
X50447244Y-108693587D01*
X50447244Y-108693587D02*
X50805451Y-108860189D01*
X50805451Y-108860189D02*
X51163681Y-109026744D01*
X51163681Y-109026744D02*
X51521932Y-109193252D01*
X51521932Y-109193252D02*
X51880204Y-109359715D01*
X51880204Y-109359715D02*
X52238497Y-109526133D01*
X52238497Y-109526133D02*
X52596809Y-109692508D01*
X52596809Y-109692508D02*
X52955141Y-109858842D01*
X52955141Y-109858842D02*
X53313493Y-110025135D01*
X40124309Y-105310749D02*
X40177992Y-105117429D01*
X40177992Y-105117429D02*
X40238451Y-104943279D01*
X40238451Y-104943279D02*
X40305795Y-104788584D01*
X40305795Y-104788584D02*
X40380137Y-104653630D01*
X40380137Y-104653630D02*
X40461586Y-104538702D01*
X40461586Y-104538702D02*
X40550254Y-104444086D01*
X40550254Y-104444086D02*
X40697032Y-104340870D01*
X40697032Y-104340870D02*
X40860675Y-104284962D01*
X40860675Y-104284962D02*
X41041557Y-104277325D01*
X41041557Y-104277325D02*
X41171906Y-104299527D01*
X41171906Y-104299527D02*
X41310195Y-104343897D01*
X41310195Y-104343897D02*
X41456532Y-104410720D01*
X41456532Y-104410720D02*
X41611030Y-104500281D01*
X41611030Y-104500281D02*
X41773800Y-104612867D01*
X41773800Y-104612867D02*
X41858321Y-104677884D01*
X202598050Y-129172818D02*
X202721026Y-129096484D01*
X202721026Y-129096484D02*
X202838144Y-129014474D01*
X202838144Y-129014474D02*
X202949385Y-128927062D01*
X202949385Y-128927062D02*
X203054725Y-128834525D01*
X203054725Y-128834525D02*
X203154143Y-128737138D01*
X203154143Y-128737138D02*
X203247619Y-128635177D01*
X203247619Y-128635177D02*
X203335129Y-128528919D01*
X203335129Y-128528919D02*
X203416654Y-128418638D01*
X203416654Y-128418638D02*
X203492172Y-128304611D01*
X203492172Y-128304611D02*
X203561660Y-128187113D01*
X203561660Y-128187113D02*
X203625098Y-128066421D01*
X203625098Y-128066421D02*
X203682464Y-127942810D01*
X203682464Y-127942810D02*
X203733737Y-127816556D01*
X203733737Y-127816556D02*
X203778895Y-127687934D01*
X203778895Y-127687934D02*
X203817916Y-127557221D01*
X203817916Y-127557221D02*
X203850780Y-127424693D01*
X203850780Y-127424693D02*
X203877464Y-127290624D01*
X203877464Y-127290624D02*
X203897948Y-127155292D01*
X203897948Y-127155292D02*
X203912209Y-127018972D01*
X203912209Y-127018972D02*
X203920227Y-126881939D01*
X203920227Y-126881939D02*
X203921979Y-126744470D01*
X203921979Y-126744470D02*
X203917445Y-126606840D01*
X203917445Y-126606840D02*
X203906603Y-126469326D01*
X203906603Y-126469326D02*
X203889431Y-126332202D01*
X203889431Y-126332202D02*
X203865907Y-126195745D01*
X203865907Y-126195745D02*
X203836012Y-126060231D01*
X203836012Y-126060231D02*
X203799722Y-125925935D01*
X203799722Y-125925935D02*
X203757017Y-125793134D01*
X203757017Y-125793134D02*
X203707875Y-125662102D01*
X203707875Y-125662102D02*
X203652274Y-125533117D01*
X203652274Y-125533117D02*
X203590194Y-125406453D01*
X203590194Y-125406453D02*
X203521612Y-125282387D01*
X154933034Y-162166695D02*
X155105600Y-162141927D01*
X155105600Y-162141927D02*
X155273088Y-162107822D01*
X155273088Y-162107822D02*
X155435733Y-162064828D01*
X155435733Y-162064828D02*
X155593771Y-162013393D01*
X155593771Y-162013393D02*
X155747437Y-161953965D01*
X155747437Y-161953965D02*
X155896968Y-161886993D01*
X155896968Y-161886993D02*
X156042599Y-161812925D01*
X156042599Y-161812925D02*
X156184565Y-161732209D01*
X156184565Y-161732209D02*
X156323102Y-161645295D01*
X156323102Y-161645295D02*
X156458446Y-161552629D01*
X156458446Y-161552629D02*
X156590832Y-161454662D01*
X156590832Y-161454662D02*
X156720496Y-161351841D01*
X156720496Y-161351841D02*
X156847675Y-161244614D01*
X156847675Y-161244614D02*
X156972602Y-161133430D01*
X156972602Y-161133430D02*
X157095515Y-161018738D01*
X157095515Y-161018738D02*
X157216648Y-160900985D01*
X157216648Y-160900985D02*
X157336238Y-160780621D01*
X157336238Y-160780621D02*
X157454520Y-160658093D01*
X157454520Y-160658093D02*
X157571729Y-160533849D01*
X157571729Y-160533849D02*
X157688102Y-160408340D01*
X157688102Y-160408340D02*
X157803873Y-160282011D01*
X157803873Y-160282011D02*
X157919280Y-160155313D01*
X157919280Y-160155313D02*
X158034556Y-160028694D01*
X158034556Y-160028694D02*
X158149939Y-159902601D01*
X158149939Y-159902601D02*
X158265663Y-159777484D01*
X158265663Y-159777484D02*
X158381964Y-159653790D01*
X158381964Y-159653790D02*
X158499079Y-159531968D01*
X158499079Y-159531968D02*
X158617241Y-159412467D01*
X158617241Y-159412467D02*
X158736689Y-159295735D01*
X158736689Y-159295735D02*
X158857655Y-159182219D01*
X158857655Y-159182219D02*
X158980378Y-159072370D01*
X158980378Y-159072370D02*
X159105092Y-158966635D01*
X170298163Y-147830649D02*
X170782267Y-147495456D01*
X170782267Y-147495456D02*
X171265993Y-147159607D01*
X171265993Y-147159607D02*
X171749373Y-146823160D01*
X171749373Y-146823160D02*
X172232441Y-146486173D01*
X172232441Y-146486173D02*
X172715232Y-146148704D01*
X172715232Y-146148704D02*
X173197778Y-145810813D01*
X173197778Y-145810813D02*
X173680115Y-145472557D01*
X173680115Y-145472557D02*
X174162274Y-145133996D01*
X174162274Y-145133996D02*
X174644291Y-144795188D01*
X174644291Y-144795188D02*
X175126199Y-144456191D01*
X175126199Y-144456191D02*
X175608032Y-144117063D01*
X175608032Y-144117063D02*
X176089823Y-143777865D01*
X176089823Y-143777865D02*
X176571607Y-143438653D01*
X176571607Y-143438653D02*
X177053416Y-143099486D01*
X177053416Y-143099486D02*
X177535286Y-142760423D01*
X177535286Y-142760423D02*
X178017248Y-142421523D01*
X178017248Y-142421523D02*
X178499339Y-142082843D01*
X178499339Y-142082843D02*
X178981590Y-141744443D01*
X178981590Y-141744443D02*
X179464036Y-141406381D01*
X179464036Y-141406381D02*
X179946710Y-141068715D01*
X179946710Y-141068715D02*
X180429647Y-140731505D01*
X180429647Y-140731505D02*
X180912880Y-140394808D01*
X180912880Y-140394808D02*
X181396443Y-140058683D01*
X181396443Y-140058683D02*
X181880370Y-139723188D01*
X181880370Y-139723188D02*
X182364694Y-139388383D01*
X182364694Y-139388383D02*
X182849449Y-139054325D01*
X182849449Y-139054325D02*
X183334669Y-138721073D01*
X183334669Y-138721073D02*
X183820388Y-138388686D01*
X183820388Y-138388686D02*
X184306639Y-138057222D01*
X184306639Y-138057222D02*
X184793457Y-137726739D01*
X184793457Y-137726739D02*
X185280874Y-137397297D01*
X185280874Y-137397297D02*
X185768926Y-137068954D01*
X159105092Y-158966635D02*
X159455692Y-158619609D01*
X159455692Y-158619609D02*
X159805802Y-158271999D01*
X159805802Y-158271999D02*
X160155465Y-157923857D01*
X160155465Y-157923857D02*
X160504726Y-157575234D01*
X160504726Y-157575234D02*
X160853626Y-157226184D01*
X160853626Y-157226184D02*
X161202212Y-156876757D01*
X161202212Y-156876757D02*
X161550525Y-156527007D01*
X161550525Y-156527007D02*
X161898611Y-156176985D01*
X161898611Y-156176985D02*
X162246512Y-155826744D01*
X162246512Y-155826744D02*
X162594274Y-155476336D01*
X162594274Y-155476336D02*
X162941938Y-155125813D01*
X162941938Y-155125813D02*
X163289550Y-154775226D01*
X163289550Y-154775226D02*
X163637153Y-154424629D01*
X163637153Y-154424629D02*
X163984791Y-154074074D01*
X163984791Y-154074074D02*
X164332508Y-153723612D01*
X164332508Y-153723612D02*
X164680347Y-153373296D01*
X164680347Y-153373296D02*
X165028352Y-153023178D01*
X165028352Y-153023178D02*
X165376567Y-152673311D01*
X165376567Y-152673311D02*
X165725037Y-152323745D01*
X165725037Y-152323745D02*
X166073803Y-151974535D01*
X166073803Y-151974535D02*
X166422912Y-151625730D01*
X166422912Y-151625730D02*
X166772405Y-151277385D01*
X166772405Y-151277385D02*
X167122328Y-150929551D01*
X167122328Y-150929551D02*
X167472723Y-150582280D01*
X167472723Y-150582280D02*
X167823635Y-150235624D01*
X167823635Y-150235624D02*
X168175107Y-149889636D01*
X168175107Y-149889636D02*
X168527184Y-149544368D01*
X168527184Y-149544368D02*
X168879908Y-149199872D01*
X168879908Y-149199872D02*
X169233325Y-148856199D01*
X169233325Y-148856199D02*
X169587477Y-148513403D01*
X169587477Y-148513403D02*
X169942408Y-148171536D01*
X169942408Y-148171536D02*
X170298163Y-147830649D01*
X196512508Y-110033378D02*
X196903632Y-109847579D01*
X196903632Y-109847579D02*
X197295103Y-109662052D01*
X197295103Y-109662052D02*
X197686900Y-109476774D01*
X197686900Y-109476774D02*
X198079004Y-109291721D01*
X198079004Y-109291721D02*
X198471391Y-109106868D01*
X198471391Y-109106868D02*
X198864043Y-108922192D01*
X198864043Y-108922192D02*
X199256938Y-108737669D01*
X199256938Y-108737669D02*
X199650055Y-108553274D01*
X199650055Y-108553274D02*
X200043374Y-108368984D01*
X200043374Y-108368984D02*
X200436873Y-108184775D01*
X200436873Y-108184775D02*
X200830533Y-108000623D01*
X200830533Y-108000623D02*
X201224331Y-107816504D01*
X201224331Y-107816504D02*
X201618248Y-107632394D01*
X201618248Y-107632394D02*
X202012262Y-107448269D01*
X202012262Y-107448269D02*
X202406353Y-107264105D01*
X202406353Y-107264105D02*
X202800500Y-107079878D01*
X202800500Y-107079878D02*
X203194682Y-106895564D01*
X203194682Y-106895564D02*
X203588878Y-106711139D01*
X203588878Y-106711139D02*
X203983068Y-106526580D01*
X203983068Y-106526580D02*
X204377230Y-106341862D01*
X204377230Y-106341862D02*
X204771344Y-106156962D01*
X204771344Y-106156962D02*
X205165390Y-105971854D01*
X205165390Y-105971854D02*
X205559345Y-105786517D01*
X205559345Y-105786517D02*
X205953190Y-105600924D01*
X205953190Y-105600924D02*
X206346904Y-105415054D01*
X206346904Y-105415054D02*
X206740465Y-105228881D01*
X206740465Y-105228881D02*
X207133854Y-105042381D01*
X207133854Y-105042381D02*
X207527049Y-104855531D01*
X207527049Y-104855531D02*
X207920029Y-104668307D01*
X207920029Y-104668307D02*
X208312774Y-104480685D01*
X208312774Y-104480685D02*
X208705263Y-104292640D01*
X208705263Y-104292640D02*
X209097475Y-104104150D01*
X98561610Y-162195399D02*
X100323151Y-162193820D01*
X100323151Y-162193820D02*
X102084732Y-162192654D01*
X102084732Y-162192654D02*
X103846349Y-162191863D01*
X103846349Y-162191863D02*
X105607998Y-162191410D01*
X105607998Y-162191410D02*
X107369676Y-162191259D01*
X107369676Y-162191259D02*
X109131380Y-162191373D01*
X109131380Y-162191373D02*
X110893106Y-162191715D01*
X110893106Y-162191715D02*
X112654850Y-162192248D01*
X112654850Y-162192248D02*
X114416609Y-162192935D01*
X114416609Y-162192935D02*
X116178380Y-162193740D01*
X116178380Y-162193740D02*
X117940158Y-162194626D01*
X117940158Y-162194626D02*
X119701940Y-162195555D01*
X119701940Y-162195555D02*
X121463723Y-162196492D01*
X121463723Y-162196492D02*
X123225503Y-162197399D01*
X123225503Y-162197399D02*
X124987277Y-162198240D01*
X124987277Y-162198240D02*
X126749041Y-162198977D01*
X126749041Y-162198977D02*
X128510791Y-162199574D01*
X128510791Y-162199574D02*
X130272525Y-162199995D01*
X130272525Y-162199995D02*
X132034238Y-162200202D01*
X132034238Y-162200202D02*
X133795927Y-162200158D01*
X133795927Y-162200158D02*
X135557588Y-162199827D01*
X135557588Y-162199827D02*
X137319219Y-162199171D01*
X137319219Y-162199171D02*
X139080814Y-162198155D01*
X139080814Y-162198155D02*
X140842372Y-162196741D01*
X140842372Y-162196741D02*
X142603888Y-162194893D01*
X142603888Y-162194893D02*
X144365358Y-162192573D01*
X144365358Y-162192573D02*
X146126780Y-162189745D01*
X146126780Y-162189745D02*
X147888149Y-162186372D01*
X147888149Y-162186372D02*
X149649463Y-162182417D01*
X149649463Y-162182417D02*
X151410717Y-162177844D01*
X151410717Y-162177844D02*
X153171909Y-162172615D01*
X153171909Y-162172615D02*
X154933034Y-162166695D01*
X93349829Y-161504709D02*
X93494204Y-161579463D01*
X93494204Y-161579463D02*
X93650779Y-161648773D01*
X93650779Y-161648773D02*
X93818451Y-161712840D01*
X93818451Y-161712840D02*
X93996120Y-161771865D01*
X93996120Y-161771865D02*
X94182687Y-161826050D01*
X94182687Y-161826050D02*
X94377050Y-161875596D01*
X94377050Y-161875596D02*
X94578109Y-161920704D01*
X94578109Y-161920704D02*
X94784763Y-161961576D01*
X94784763Y-161961576D02*
X94995911Y-161998414D01*
X94995911Y-161998414D02*
X95210454Y-162031419D01*
X95210454Y-162031419D02*
X95427290Y-162060792D01*
X95427290Y-162060792D02*
X95645320Y-162086734D01*
X95645320Y-162086734D02*
X95863442Y-162109448D01*
X95863442Y-162109448D02*
X96080556Y-162129134D01*
X96080556Y-162129134D02*
X96295561Y-162145994D01*
X96295561Y-162145994D02*
X96507358Y-162160229D01*
X96507358Y-162160229D02*
X96714844Y-162172041D01*
X96714844Y-162172041D02*
X96916920Y-162181631D01*
X96916920Y-162181631D02*
X97112486Y-162189201D01*
X97112486Y-162189201D02*
X97300440Y-162194952D01*
X97300440Y-162194952D02*
X97479683Y-162199085D01*
X97479683Y-162199085D02*
X97649113Y-162201803D01*
X97649113Y-162201803D02*
X97807630Y-162203305D01*
X97807630Y-162203305D02*
X97954133Y-162203794D01*
X97954133Y-162203794D02*
X98087523Y-162203471D01*
X98087523Y-162203471D02*
X98310557Y-162201196D01*
X98310557Y-162201196D02*
X98467929Y-162198090D01*
X98467929Y-162198090D02*
X98561610Y-162195399D01*
X64497566Y-137328909D02*
X64984338Y-137667906D01*
X64984338Y-137667906D02*
X65471331Y-138007019D01*
X65471331Y-138007019D02*
X65958525Y-138346254D01*
X65958525Y-138346254D02*
X66445898Y-138685617D01*
X66445898Y-138685617D02*
X66933430Y-139025115D01*
X66933430Y-139025115D02*
X67421101Y-139364755D01*
X67421101Y-139364755D02*
X67908888Y-139704543D01*
X67908888Y-139704543D02*
X68396773Y-140044486D01*
X68396773Y-140044486D02*
X68884734Y-140384591D01*
X68884734Y-140384591D02*
X69372750Y-140724865D01*
X69372750Y-140724865D02*
X69860801Y-141065313D01*
X69860801Y-141065313D02*
X70348865Y-141405943D01*
X70348865Y-141405943D02*
X70836924Y-141746762D01*
X70836924Y-141746762D02*
X71324954Y-142087776D01*
X71324954Y-142087776D02*
X71812937Y-142428991D01*
X71812937Y-142428991D02*
X72300851Y-142770415D01*
X72300851Y-142770415D02*
X72788676Y-143112054D01*
X72788676Y-143112054D02*
X73276390Y-143453914D01*
X73276390Y-143453914D02*
X73763974Y-143796003D01*
X73763974Y-143796003D02*
X74251406Y-144138328D01*
X74251406Y-144138328D02*
X74738666Y-144480894D01*
X74738666Y-144480894D02*
X75225732Y-144823708D01*
X75225732Y-144823708D02*
X75712586Y-145166777D01*
X75712586Y-145166777D02*
X76199205Y-145510109D01*
X76199205Y-145510109D02*
X76685569Y-145853708D01*
X76685569Y-145853708D02*
X77171657Y-146197583D01*
X77171657Y-146197583D02*
X77657449Y-146541740D01*
X77657449Y-146541740D02*
X78142924Y-146886185D01*
X78142924Y-146886185D02*
X78628061Y-147230925D01*
X78628061Y-147230925D02*
X79112839Y-147575967D01*
X79112839Y-147575967D02*
X79597239Y-147921317D01*
X79597239Y-147921317D02*
X80081239Y-148266983D01*
X185768926Y-137068954D02*
X186294911Y-136822391D01*
X186294911Y-136822391D02*
X186821081Y-136576206D01*
X186821081Y-136576206D02*
X187347415Y-136330358D01*
X187347415Y-136330358D02*
X187873897Y-136084810D01*
X187873897Y-136084810D02*
X188400506Y-135839521D01*
X188400506Y-135839521D02*
X188927223Y-135594454D01*
X188927223Y-135594454D02*
X189454030Y-135349569D01*
X189454030Y-135349569D02*
X189980908Y-135104826D01*
X189980908Y-135104826D02*
X190507838Y-134860189D01*
X190507838Y-134860189D02*
X191034801Y-134615617D01*
X191034801Y-134615617D02*
X191561778Y-134371071D01*
X191561778Y-134371071D02*
X192088750Y-134126513D01*
X192088750Y-134126513D02*
X192615698Y-133881903D01*
X192615698Y-133881903D02*
X193142604Y-133637204D01*
X193142604Y-133637204D02*
X193669448Y-133392375D01*
X193669448Y-133392375D02*
X194196211Y-133147378D01*
X194196211Y-133147378D02*
X194722875Y-132902174D01*
X194722875Y-132902174D02*
X195249421Y-132656725D01*
X195249421Y-132656725D02*
X195775830Y-132410990D01*
X195775830Y-132410990D02*
X196302082Y-132164932D01*
X196302082Y-132164932D02*
X196828159Y-131918511D01*
X196828159Y-131918511D02*
X197354043Y-131671689D01*
X197354043Y-131671689D02*
X197879713Y-131424426D01*
X197879713Y-131424426D02*
X198405152Y-131176683D01*
X198405152Y-131176683D02*
X198930340Y-130928423D01*
X198930340Y-130928423D02*
X199455259Y-130679605D01*
X199455259Y-130679605D02*
X199979889Y-130430191D01*
X199979889Y-130430191D02*
X200504211Y-130180142D01*
X200504211Y-130180142D02*
X201028208Y-129929419D01*
X201028208Y-129929419D02*
X201551859Y-129677983D01*
X201551859Y-129677983D02*
X202075146Y-129425796D01*
X202075146Y-129425796D02*
X202598050Y-129172818D01*
X203521612Y-125282387D02*
X203309615Y-124802676D01*
X203309615Y-124802676D02*
X203097050Y-124323218D01*
X203097050Y-124323218D02*
X202883927Y-123844007D01*
X202883927Y-123844007D02*
X202670257Y-123365038D01*
X202670257Y-123365038D02*
X202456052Y-122886307D01*
X202456052Y-122886307D02*
X202241324Y-122407810D01*
X202241324Y-122407810D02*
X202026085Y-121929541D01*
X202026085Y-121929541D02*
X201810345Y-121451497D01*
X201810345Y-121451497D02*
X201594116Y-120973671D01*
X201594116Y-120973671D02*
X201377411Y-120496060D01*
X201377411Y-120496060D02*
X201160239Y-120018658D01*
X201160239Y-120018658D02*
X200942614Y-119541462D01*
X200942614Y-119541462D02*
X200724546Y-119064466D01*
X200724546Y-119064466D02*
X200506047Y-118587665D01*
X200506047Y-118587665D02*
X200287128Y-118111056D01*
X200287128Y-118111056D02*
X200067802Y-117634633D01*
X200067802Y-117634633D02*
X199848079Y-117158392D01*
X199848079Y-117158392D02*
X199627971Y-116682327D01*
X199627971Y-116682327D02*
X199407490Y-116206435D01*
X199407490Y-116206435D02*
X199186647Y-115730711D01*
X199186647Y-115730711D02*
X198965453Y-115255149D01*
X198965453Y-115255149D02*
X198743921Y-114779745D01*
X198743921Y-114779745D02*
X198522062Y-114304495D01*
X198522062Y-114304495D02*
X198299887Y-113829394D01*
X198299887Y-113829394D02*
X198077408Y-113354437D01*
X198077408Y-113354437D02*
X197854636Y-112879619D01*
X197854636Y-112879619D02*
X197631584Y-112404936D01*
X197631584Y-112404936D02*
X197408261Y-111930383D01*
X197408261Y-111930383D02*
X197184681Y-111455955D01*
X197184681Y-111455955D02*
X196960854Y-110981648D01*
X196960854Y-110981648D02*
X196736793Y-110507457D01*
X196736793Y-110507457D02*
X196512508Y-110033378D01*
X80081239Y-148266983D02*
X80496323Y-148680128D01*
X80496323Y-148680128D02*
X80911144Y-149093593D01*
X80911144Y-149093593D02*
X81325725Y-149507348D01*
X81325725Y-149507348D02*
X81740089Y-149921366D01*
X81740089Y-149921366D02*
X82154260Y-150335618D01*
X82154260Y-150335618D02*
X82568261Y-150750075D01*
X82568261Y-150750075D02*
X82982116Y-151164709D01*
X82982116Y-151164709D02*
X83395849Y-151579492D01*
X83395849Y-151579492D02*
X83809482Y-151994394D01*
X83809482Y-151994394D02*
X84223040Y-152409388D01*
X84223040Y-152409388D02*
X84636547Y-152824444D01*
X84636547Y-152824444D02*
X85050024Y-153239535D01*
X85050024Y-153239535D02*
X85463497Y-153654632D01*
X85463497Y-153654632D02*
X85876988Y-154069707D01*
X85876988Y-154069707D02*
X86290522Y-154484730D01*
X86290522Y-154484730D02*
X86704121Y-154899674D01*
X86704121Y-154899674D02*
X87117809Y-155314510D01*
X87117809Y-155314510D02*
X87531610Y-155729209D01*
X87531610Y-155729209D02*
X87945547Y-156143743D01*
X87945547Y-156143743D02*
X88359644Y-156558084D01*
X88359644Y-156558084D02*
X88773924Y-156972203D01*
X88773924Y-156972203D02*
X89188411Y-157386071D01*
X89188411Y-157386071D02*
X89603128Y-157799660D01*
X89603128Y-157799660D02*
X90018099Y-158212942D01*
X90018099Y-158212942D02*
X90433348Y-158625888D01*
X90433348Y-158625888D02*
X90848897Y-159038469D01*
X90848897Y-159038469D02*
X91264771Y-159450658D01*
X91264771Y-159450658D02*
X91680992Y-159862425D01*
X91680992Y-159862425D02*
X92097585Y-160273742D01*
X92097585Y-160273742D02*
X92514573Y-160684580D01*
X92514573Y-160684580D02*
X92931980Y-161094912D01*
X92931980Y-161094912D02*
X93349829Y-161504709D01*
X67655263Y-32822706D02*
X67200488Y-32613657D01*
X67200488Y-32613657D02*
X66745940Y-32403941D01*
X66745940Y-32403941D02*
X66291595Y-32193625D01*
X66291595Y-32193625D02*
X65837431Y-31982775D01*
X65837431Y-31982775D02*
X65383422Y-31771457D01*
X65383422Y-31771457D02*
X64929547Y-31559737D01*
X64929547Y-31559737D02*
X64475781Y-31347682D01*
X64475781Y-31347682D02*
X64022102Y-31135358D01*
X64022102Y-31135358D02*
X63568485Y-30922831D01*
X63568485Y-30922831D02*
X63114907Y-30710168D01*
X63114907Y-30710168D02*
X62661346Y-30497434D01*
X62661346Y-30497434D02*
X62207776Y-30284696D01*
X62207776Y-30284696D02*
X61754176Y-30072021D01*
X61754176Y-30072021D02*
X61300521Y-29859474D01*
X61300521Y-29859474D02*
X60846789Y-29647121D01*
X60846789Y-29647121D02*
X60392955Y-29435030D01*
X60392955Y-29435030D02*
X59938997Y-29223266D01*
X59938997Y-29223266D02*
X59484890Y-29011896D01*
X59484890Y-29011896D02*
X59030612Y-28800986D01*
X59030612Y-28800986D02*
X58576140Y-28590601D01*
X58576140Y-28590601D02*
X58121448Y-28380810D01*
X58121448Y-28380810D02*
X57666515Y-28171677D01*
X57666515Y-28171677D02*
X57211317Y-27963268D01*
X57211317Y-27963268D02*
X56755830Y-27755651D01*
X56755830Y-27755651D02*
X56300031Y-27548892D01*
X56300031Y-27548892D02*
X55843896Y-27343056D01*
X55843896Y-27343056D02*
X55387403Y-27138210D01*
X55387403Y-27138210D02*
X54930527Y-26934421D01*
X54930527Y-26934421D02*
X54473246Y-26731754D01*
X54473246Y-26731754D02*
X54015535Y-26530276D01*
X54015535Y-26530276D02*
X53557372Y-26330053D01*
X53557372Y-26330053D02*
X53098733Y-26131152D01*
X68979933Y-31678487D02*
X68908158Y-31784474D01*
X68908158Y-31784474D02*
X68842307Y-31906523D01*
X68842307Y-31906523D02*
X68780796Y-32040207D01*
X68780796Y-32040207D02*
X68722040Y-32181099D01*
X68722040Y-32181099D02*
X68664455Y-32324773D01*
X68664455Y-32324773D02*
X68606457Y-32466801D01*
X68606457Y-32466801D02*
X68546462Y-32602757D01*
X68546462Y-32602757D02*
X68482886Y-32728214D01*
X68482886Y-32728214D02*
X68414145Y-32838745D01*
X68414145Y-32838745D02*
X68297882Y-32966874D01*
X68297882Y-32966874D02*
X68161088Y-33036519D01*
X68161088Y-33036519D02*
X67998414Y-33032742D01*
X67998414Y-33032742D02*
X67872948Y-32982055D01*
X67872948Y-32982055D02*
X67732020Y-32887669D01*
X67732020Y-32887669D02*
X67655263Y-32822706D01*
X90695893Y-38513655D02*
X90590770Y-38389382D01*
X90590770Y-38389382D02*
X90481412Y-38270862D01*
X90481412Y-38270862D02*
X90368028Y-38157812D01*
X90368028Y-38157812D02*
X90250831Y-38049947D01*
X90250831Y-38049947D02*
X90130030Y-37946987D01*
X90130030Y-37946987D02*
X90005836Y-37848647D01*
X90005836Y-37848647D02*
X89878460Y-37754645D01*
X89878460Y-37754645D02*
X89748112Y-37664699D01*
X89748112Y-37664699D02*
X89615002Y-37578524D01*
X89615002Y-37578524D02*
X89479343Y-37495839D01*
X89479343Y-37495839D02*
X89341344Y-37416361D01*
X89341344Y-37416361D02*
X89201215Y-37339806D01*
X89201215Y-37339806D02*
X89059168Y-37265892D01*
X89059168Y-37265892D02*
X88915413Y-37194336D01*
X88915413Y-37194336D02*
X88770161Y-37124855D01*
X88770161Y-37124855D02*
X88623622Y-37057166D01*
X88623622Y-37057166D02*
X88476008Y-36990986D01*
X88476008Y-36990986D02*
X88327528Y-36926034D01*
X88327528Y-36926034D02*
X88178393Y-36862024D01*
X88178393Y-36862024D02*
X88028814Y-36798676D01*
X88028814Y-36798676D02*
X87879002Y-36735706D01*
X87879002Y-36735706D02*
X87729167Y-36672831D01*
X87729167Y-36672831D02*
X87579520Y-36609768D01*
X87579520Y-36609768D02*
X87430272Y-36546234D01*
X87430272Y-36546234D02*
X87281633Y-36481947D01*
X87281633Y-36481947D02*
X87133813Y-36416624D01*
X87133813Y-36416624D02*
X86987024Y-36349981D01*
X86987024Y-36349981D02*
X86841476Y-36281737D01*
X86841476Y-36281737D02*
X86697380Y-36211607D01*
X86697380Y-36211607D02*
X86554946Y-36139310D01*
X86554946Y-36139310D02*
X86414386Y-36064563D01*
X86414386Y-36064563D02*
X86275909Y-35987082D01*
X90003937Y-43309984D02*
X90067055Y-43171472D01*
X90067055Y-43171472D02*
X90132451Y-43031222D01*
X90132451Y-43031222D02*
X90199631Y-42889333D01*
X90199631Y-42889333D02*
X90268098Y-42745905D01*
X90268098Y-42745905D02*
X90337357Y-42601040D01*
X90337357Y-42601040D02*
X90406912Y-42454838D01*
X90406912Y-42454838D02*
X90476268Y-42307399D01*
X90476268Y-42307399D02*
X90544929Y-42158824D01*
X90544929Y-42158824D02*
X90612399Y-42009214D01*
X90612399Y-42009214D02*
X90678184Y-41858669D01*
X90678184Y-41858669D02*
X90741787Y-41707289D01*
X90741787Y-41707289D02*
X90802713Y-41555176D01*
X90802713Y-41555176D02*
X90860467Y-41402429D01*
X90860467Y-41402429D02*
X90914552Y-41249149D01*
X90914552Y-41249149D02*
X90964473Y-41095438D01*
X90964473Y-41095438D02*
X91009736Y-40941395D01*
X91009736Y-40941395D02*
X91049843Y-40787120D01*
X91049843Y-40787120D02*
X91084300Y-40632715D01*
X91084300Y-40632715D02*
X91112611Y-40478281D01*
X91112611Y-40478281D02*
X91134280Y-40323916D01*
X91134280Y-40323916D02*
X91148813Y-40169723D01*
X91148813Y-40169723D02*
X91155712Y-40015802D01*
X91155712Y-40015802D02*
X91154484Y-39862253D01*
X91154484Y-39862253D02*
X91144632Y-39709177D01*
X91144632Y-39709177D02*
X91125660Y-39556674D01*
X91125660Y-39556674D02*
X91097074Y-39404845D01*
X91097074Y-39404845D02*
X91058377Y-39253791D01*
X91058377Y-39253791D02*
X91009074Y-39103611D01*
X91009074Y-39103611D02*
X90948670Y-38954407D01*
X90948670Y-38954407D02*
X90876669Y-38806279D01*
X90876669Y-38806279D02*
X90792575Y-38659328D01*
X90792575Y-38659328D02*
X90695893Y-38513655D01*
X120499661Y-60233806D02*
X120051262Y-60024908D01*
X120051262Y-60024908D02*
X119602920Y-59815888D01*
X119602920Y-59815888D02*
X119154628Y-59606759D01*
X119154628Y-59606759D02*
X118706380Y-59397536D01*
X118706380Y-59397536D02*
X118258168Y-59188234D01*
X118258168Y-59188234D02*
X117809987Y-58978865D01*
X117809987Y-58978865D02*
X117361829Y-58769446D01*
X117361829Y-58769446D02*
X116913688Y-58559990D01*
X116913688Y-58559990D02*
X116465557Y-58350512D01*
X116465557Y-58350512D02*
X116017430Y-58141025D01*
X116017430Y-58141025D02*
X115569299Y-57931545D01*
X115569299Y-57931545D02*
X115121159Y-57722086D01*
X115121159Y-57722086D02*
X114673003Y-57512662D01*
X114673003Y-57512662D02*
X114224824Y-57303288D01*
X114224824Y-57303288D02*
X113776615Y-57093977D01*
X113776615Y-57093977D02*
X113328370Y-56884745D01*
X113328370Y-56884745D02*
X112880081Y-56675606D01*
X112880081Y-56675606D02*
X112431744Y-56466573D01*
X112431744Y-56466573D02*
X111983350Y-56257662D01*
X111983350Y-56257662D02*
X111534893Y-56048887D01*
X111534893Y-56048887D02*
X111086366Y-55840262D01*
X111086366Y-55840262D02*
X110637764Y-55631801D01*
X110637764Y-55631801D02*
X110189079Y-55423519D01*
X110189079Y-55423519D02*
X109740304Y-55215431D01*
X109740304Y-55215431D02*
X109291433Y-55007550D01*
X109291433Y-55007550D02*
X108842459Y-54799892D01*
X108842459Y-54799892D02*
X108393376Y-54592469D01*
X108393376Y-54592469D02*
X107944177Y-54385298D01*
X107944177Y-54385298D02*
X107494855Y-54178392D01*
X107494855Y-54178392D02*
X107045404Y-53971765D01*
X107045404Y-53971765D02*
X106595817Y-53765432D01*
X106595817Y-53765432D02*
X106146088Y-53559408D01*
X72627195Y-29713855D02*
X72482324Y-29667158D01*
X72482324Y-29667158D02*
X72337353Y-29629512D01*
X72337353Y-29629512D02*
X72192491Y-29600710D01*
X72192491Y-29600710D02*
X72047946Y-29580542D01*
X72047946Y-29580542D02*
X71903929Y-29568803D01*
X71903929Y-29568803D02*
X71760649Y-29565283D01*
X71760649Y-29565283D02*
X71618315Y-29569775D01*
X71618315Y-29569775D02*
X71477136Y-29582072D01*
X71477136Y-29582072D02*
X71337322Y-29601966D01*
X71337322Y-29601966D02*
X71199083Y-29629249D01*
X71199083Y-29629249D02*
X71062627Y-29663713D01*
X71062627Y-29663713D02*
X70928164Y-29705151D01*
X70928164Y-29705151D02*
X70795904Y-29753355D01*
X70795904Y-29753355D02*
X70666056Y-29808117D01*
X70666056Y-29808117D02*
X70538829Y-29869229D01*
X70538829Y-29869229D02*
X70414433Y-29936485D01*
X70414433Y-29936485D02*
X70293077Y-30009675D01*
X70293077Y-30009675D02*
X70174970Y-30088592D01*
X70174970Y-30088592D02*
X70060323Y-30173030D01*
X70060323Y-30173030D02*
X69949343Y-30262779D01*
X69949343Y-30262779D02*
X69842241Y-30357632D01*
X69842241Y-30357632D02*
X69739226Y-30457382D01*
X69739226Y-30457382D02*
X69640508Y-30561820D01*
X69640508Y-30561820D02*
X69546296Y-30670740D01*
X69546296Y-30670740D02*
X69456798Y-30783933D01*
X69456798Y-30783933D02*
X69372226Y-30901191D01*
X69372226Y-30901191D02*
X69292787Y-31022307D01*
X69292787Y-31022307D02*
X69218692Y-31147074D01*
X69218692Y-31147074D02*
X69150149Y-31275282D01*
X69150149Y-31275282D02*
X69087369Y-31406726D01*
X69087369Y-31406726D02*
X69030560Y-31541197D01*
X69030560Y-31541197D02*
X68979933Y-31678487D01*
X106146088Y-53559408D02*
X106187583Y-53411476D01*
X106187583Y-53411476D02*
X106219634Y-53264171D01*
X106219634Y-53264171D02*
X106242496Y-53117646D01*
X106242496Y-53117646D02*
X106256425Y-52972055D01*
X106256425Y-52972055D02*
X106261679Y-52827551D01*
X106261679Y-52827551D02*
X106258513Y-52684289D01*
X106258513Y-52684289D02*
X106247184Y-52542423D01*
X106247184Y-52542423D02*
X106227947Y-52402105D01*
X106227947Y-52402105D02*
X106201060Y-52263492D01*
X106201060Y-52263492D02*
X106166779Y-52126735D01*
X106166779Y-52126735D02*
X106125359Y-51991989D01*
X106125359Y-51991989D02*
X106077058Y-51859409D01*
X106077058Y-51859409D02*
X106022131Y-51729147D01*
X106022131Y-51729147D02*
X105960835Y-51601358D01*
X105960835Y-51601358D02*
X105893426Y-51476195D01*
X105893426Y-51476195D02*
X105820161Y-51353814D01*
X105820161Y-51353814D02*
X105741295Y-51234366D01*
X105741295Y-51234366D02*
X105657086Y-51118007D01*
X105657086Y-51118007D02*
X105567789Y-51004890D01*
X105567789Y-51004890D02*
X105473660Y-50895169D01*
X105473660Y-50895169D02*
X105374957Y-50788998D01*
X105374957Y-50788998D02*
X105271935Y-50686531D01*
X105271935Y-50686531D02*
X105164850Y-50587922D01*
X105164850Y-50587922D02*
X105053960Y-50493325D01*
X105053960Y-50493325D02*
X104939519Y-50402893D01*
X104939519Y-50402893D02*
X104821786Y-50316780D01*
X104821786Y-50316780D02*
X104701015Y-50235141D01*
X104701015Y-50235141D02*
X104577463Y-50158129D01*
X104577463Y-50158129D02*
X104451387Y-50085898D01*
X104451387Y-50085898D02*
X104323043Y-50018602D01*
X104323043Y-50018602D02*
X104192687Y-49956396D01*
X104192687Y-49956396D02*
X104060576Y-49899432D01*
X51270847Y-26177571D02*
X51270847Y-26177571D01*
X86275909Y-35987082D02*
X85849904Y-35789958D01*
X85849904Y-35789958D02*
X85423996Y-35592608D01*
X85423996Y-35592608D02*
X84998170Y-35395062D01*
X84998170Y-35395062D02*
X84572414Y-35197348D01*
X84572414Y-35197348D02*
X84146714Y-34999496D01*
X84146714Y-34999496D02*
X83721059Y-34801537D01*
X83721059Y-34801537D02*
X83295434Y-34603500D01*
X83295434Y-34603500D02*
X82869828Y-34405414D01*
X82869828Y-34405414D02*
X82444227Y-34207309D01*
X82444227Y-34207309D02*
X82018618Y-34009214D01*
X82018618Y-34009214D02*
X81592988Y-33811160D01*
X81592988Y-33811160D02*
X81167326Y-33613176D01*
X81167326Y-33613176D02*
X80741616Y-33415292D01*
X80741616Y-33415292D02*
X80315848Y-33217537D01*
X80315848Y-33217537D02*
X79890008Y-33019941D01*
X79890008Y-33019941D02*
X79464082Y-32822534D01*
X79464082Y-32822534D02*
X79038059Y-32625344D01*
X79038059Y-32625344D02*
X78611925Y-32428403D01*
X78611925Y-32428403D02*
X78185667Y-32231739D01*
X78185667Y-32231739D02*
X77759272Y-32035382D01*
X77759272Y-32035382D02*
X77332728Y-31839363D01*
X77332728Y-31839363D02*
X76906022Y-31643709D01*
X76906022Y-31643709D02*
X76479141Y-31448452D01*
X76479141Y-31448452D02*
X76052071Y-31253621D01*
X76052071Y-31253621D02*
X75624801Y-31059245D01*
X75624801Y-31059245D02*
X75197316Y-30865354D01*
X75197316Y-30865354D02*
X74769605Y-30671977D01*
X74769605Y-30671977D02*
X74341654Y-30479146D01*
X74341654Y-30479146D02*
X73913450Y-30286888D01*
X73913450Y-30286888D02*
X73484981Y-30095233D01*
X73484981Y-30095233D02*
X73056233Y-29904212D01*
X73056233Y-29904212D02*
X72627195Y-29713855D01*
X53098733Y-26131152D02*
X52924657Y-26081466D01*
X52924657Y-26081466D02*
X52752114Y-26045648D01*
X52752114Y-26045648D02*
X52580767Y-26022767D01*
X52580767Y-26022767D02*
X52410280Y-26011894D01*
X52410280Y-26011894D02*
X52240317Y-26012097D01*
X52240317Y-26012097D02*
X52070541Y-26022447D01*
X52070541Y-26022447D02*
X51900616Y-26042013D01*
X51900616Y-26042013D02*
X51730206Y-26069865D01*
X51730206Y-26069865D02*
X51558974Y-26105072D01*
X51558974Y-26105072D02*
X51386583Y-26146705D01*
X51386583Y-26146705D02*
X51270847Y-26177571D01*
X245278087Y-85577227D02*
X245412946Y-85492843D01*
X245412946Y-85492843D02*
X245539433Y-85402160D01*
X245539433Y-85402160D02*
X245657646Y-85305509D01*
X245657646Y-85305509D02*
X245767687Y-85203218D01*
X245767687Y-85203218D02*
X245869656Y-85095617D01*
X245869656Y-85095617D02*
X245963652Y-84983036D01*
X245963652Y-84983036D02*
X246049777Y-84865804D01*
X246049777Y-84865804D02*
X246128131Y-84744251D01*
X246128131Y-84744251D02*
X246198814Y-84618707D01*
X246198814Y-84618707D02*
X246261927Y-84489502D01*
X246261927Y-84489502D02*
X246317569Y-84356964D01*
X246317569Y-84356964D02*
X246365842Y-84221424D01*
X246365842Y-84221424D02*
X246406846Y-84083212D01*
X246406846Y-84083212D02*
X246440682Y-83942656D01*
X246440682Y-83942656D02*
X246467448Y-83800087D01*
X246467448Y-83800087D02*
X246487247Y-83655835D01*
X246487247Y-83655835D02*
X246500178Y-83510228D01*
X246500178Y-83510228D02*
X246506342Y-83363597D01*
X246506342Y-83363597D02*
X246505839Y-83216271D01*
X246505839Y-83216271D02*
X246498769Y-83068580D01*
X246498769Y-83068580D02*
X246485234Y-82920854D01*
X246485234Y-82920854D02*
X246465333Y-82773422D01*
X246465333Y-82773422D02*
X246439166Y-82626613D01*
X246439166Y-82626613D02*
X246406835Y-82480758D01*
X246406835Y-82480758D02*
X246368439Y-82336186D01*
X246368439Y-82336186D02*
X246324079Y-82193227D01*
X246324079Y-82193227D02*
X246273855Y-82052211D01*
X246273855Y-82052211D02*
X246217868Y-81913466D01*
X246217868Y-81913466D02*
X246156218Y-81777323D01*
X246156218Y-81777323D02*
X246089005Y-81644112D01*
X246089005Y-81644112D02*
X246016330Y-81514161D01*
X246016330Y-81514161D02*
X245938294Y-81387802D01*
X245938294Y-81387802D02*
X245206889Y-79805509D01*
X245206889Y-79805509D02*
X244475277Y-78223307D01*
X244475277Y-78223307D02*
X243743446Y-76641204D01*
X243743446Y-76641204D02*
X243011381Y-75059205D01*
X243011381Y-75059205D02*
X242279068Y-73477318D01*
X242279068Y-73477318D02*
X241546494Y-71895548D01*
X241546494Y-71895548D02*
X240813646Y-70313904D01*
X240813646Y-70313904D02*
X240080509Y-68732391D01*
X240080509Y-68732391D02*
X239347071Y-67151017D01*
X239347071Y-67151017D02*
X238613317Y-65569788D01*
X238613317Y-65569788D02*
X237879233Y-63988710D01*
X237879233Y-63988710D02*
X237144807Y-62407791D01*
X237144807Y-62407791D02*
X236410025Y-60827037D01*
X236410025Y-60827037D02*
X235674873Y-59246455D01*
X235674873Y-59246455D02*
X234939336Y-57666052D01*
X234939336Y-57666052D02*
X234203403Y-56085834D01*
X234203403Y-56085834D02*
X233467059Y-54505809D01*
X233467059Y-54505809D02*
X232730290Y-52925982D01*
X232730290Y-52925982D02*
X231993083Y-51346361D01*
X231993083Y-51346361D02*
X231255424Y-49766952D01*
X231255424Y-49766952D02*
X230517300Y-48187762D01*
X230517300Y-48187762D02*
X229778697Y-46608798D01*
X229778697Y-46608798D02*
X229039601Y-45030066D01*
X229039601Y-45030066D02*
X228299999Y-43451574D01*
X228299999Y-43451574D02*
X227559877Y-41873327D01*
X227559877Y-41873327D02*
X226819222Y-40295334D01*
X226819222Y-40295334D02*
X226078019Y-38717599D01*
X226078019Y-38717599D02*
X225336256Y-37140131D01*
X225336256Y-37140131D02*
X224593918Y-35562936D01*
X224593918Y-35562936D02*
X223850992Y-33986020D01*
X223850992Y-33986020D02*
X223107464Y-32409390D01*
X223107464Y-32409390D02*
X222363322Y-30833054D01*
X230270718Y-92588635D02*
X230739710Y-92369892D01*
X230739710Y-92369892D02*
X231209069Y-92151759D01*
X231209069Y-92151759D02*
X231678757Y-91934172D01*
X231678757Y-91934172D02*
X232148739Y-91717068D01*
X232148739Y-91717068D02*
X232618977Y-91500383D01*
X232618977Y-91500383D02*
X233089435Y-91284055D01*
X233089435Y-91284055D02*
X233560076Y-91068020D01*
X233560076Y-91068020D02*
X234030863Y-90852214D01*
X234030863Y-90852214D02*
X234501759Y-90636575D01*
X234501759Y-90636575D02*
X234972728Y-90421039D01*
X234972728Y-90421039D02*
X235443733Y-90205542D01*
X235443733Y-90205542D02*
X235914737Y-89990023D01*
X235914737Y-89990023D02*
X236385704Y-89774416D01*
X236385704Y-89774416D02*
X236856596Y-89558659D01*
X236856596Y-89558659D02*
X237327378Y-89342690D01*
X237327378Y-89342690D02*
X237798012Y-89126443D01*
X237798012Y-89126443D02*
X238268461Y-88909856D01*
X238268461Y-88909856D02*
X238738689Y-88692866D01*
X238738689Y-88692866D02*
X239208659Y-88475410D01*
X239208659Y-88475410D02*
X239678335Y-88257424D01*
X239678335Y-88257424D02*
X240147679Y-88038845D01*
X240147679Y-88038845D02*
X240616655Y-87819609D01*
X240616655Y-87819609D02*
X241085226Y-87599654D01*
X241085226Y-87599654D02*
X241553356Y-87378915D01*
X241553356Y-87378915D02*
X242021007Y-87157331D01*
X242021007Y-87157331D02*
X242488143Y-86934837D01*
X242488143Y-86934837D02*
X242954727Y-86711370D01*
X242954727Y-86711370D02*
X243420723Y-86486867D01*
X243420723Y-86486867D02*
X243886094Y-86261264D01*
X243886094Y-86261264D02*
X244350802Y-86034499D01*
X244350802Y-86034499D02*
X244814812Y-85806507D01*
X244814812Y-85806507D02*
X245278087Y-85577227D01*
X212329353Y-107705851D02*
X212484611Y-107701333D01*
X212484611Y-107701333D02*
X212638458Y-107690486D01*
X212638458Y-107690486D02*
X212790961Y-107673623D01*
X212790961Y-107673623D02*
X212942188Y-107651061D01*
X212942188Y-107651061D02*
X213092207Y-107623116D01*
X213092207Y-107623116D02*
X213241086Y-107590102D01*
X213241086Y-107590102D02*
X213388893Y-107552335D01*
X213388893Y-107552335D02*
X213535696Y-107510131D01*
X213535696Y-107510131D02*
X213681562Y-107463805D01*
X213681562Y-107463805D02*
X213826559Y-107413673D01*
X213826559Y-107413673D02*
X213970756Y-107360051D01*
X213970756Y-107360051D02*
X214114221Y-107303254D01*
X214114221Y-107303254D02*
X214257020Y-107243597D01*
X214257020Y-107243597D02*
X214399223Y-107181396D01*
X214399223Y-107181396D02*
X214540897Y-107116967D01*
X214540897Y-107116967D02*
X214682110Y-107050625D01*
X214682110Y-107050625D02*
X214822930Y-106982686D01*
X214822930Y-106982686D02*
X214963425Y-106913465D01*
X214963425Y-106913465D02*
X215103662Y-106843278D01*
X215103662Y-106843278D02*
X215243710Y-106772440D01*
X215243710Y-106772440D02*
X215383637Y-106701267D01*
X215383637Y-106701267D02*
X215523510Y-106630075D01*
X215523510Y-106630075D02*
X215663398Y-106559178D01*
X215663398Y-106559178D02*
X215803368Y-106488893D01*
X215803368Y-106488893D02*
X215943488Y-106419535D01*
X215943488Y-106419535D02*
X216083827Y-106351420D01*
X216083827Y-106351420D02*
X216224451Y-106284863D01*
X216224451Y-106284863D02*
X216365430Y-106220180D01*
X216365430Y-106220180D02*
X216506830Y-106157686D01*
X216506830Y-106157686D02*
X216648720Y-106097696D01*
X216648720Y-106097696D02*
X216791168Y-106040527D01*
X216791168Y-106040527D02*
X216934242Y-105986495D01*
X230716689Y-99540807D02*
X230846854Y-99461963D01*
X230846854Y-99461963D02*
X230970265Y-99377027D01*
X230970265Y-99377027D02*
X231086935Y-99286301D01*
X231086935Y-99286301D02*
X231196879Y-99190087D01*
X231196879Y-99190087D02*
X231300113Y-99088685D01*
X231300113Y-99088685D02*
X231396650Y-98982398D01*
X231396650Y-98982398D02*
X231486507Y-98871529D01*
X231486507Y-98871529D02*
X231569697Y-98756378D01*
X231569697Y-98756378D02*
X231646235Y-98637248D01*
X231646235Y-98637248D02*
X231716136Y-98514440D01*
X231716136Y-98514440D02*
X231779415Y-98388257D01*
X231779415Y-98388257D02*
X231836088Y-98258999D01*
X231836088Y-98258999D02*
X231886167Y-98126970D01*
X231886167Y-98126970D02*
X231929669Y-97992471D01*
X231929669Y-97992471D02*
X231966609Y-97855803D01*
X231966609Y-97855803D02*
X231997000Y-97717269D01*
X231997000Y-97717269D02*
X232020858Y-97577170D01*
X232020858Y-97577170D02*
X232038198Y-97435809D01*
X232038198Y-97435809D02*
X232049034Y-97293486D01*
X232049034Y-97293486D02*
X232053382Y-97150505D01*
X232053382Y-97150505D02*
X232051255Y-97007166D01*
X232051255Y-97007166D02*
X232042669Y-96863772D01*
X232042669Y-96863772D02*
X232027639Y-96720625D01*
X232027639Y-96720625D02*
X232006180Y-96578026D01*
X232006180Y-96578026D02*
X231978305Y-96436277D01*
X231978305Y-96436277D02*
X231944031Y-96295680D01*
X231944031Y-96295680D02*
X231903372Y-96156537D01*
X231903372Y-96156537D02*
X231856342Y-96019150D01*
X231856342Y-96019150D02*
X231802956Y-95883821D01*
X231802956Y-95883821D02*
X231743230Y-95750851D01*
X231743230Y-95750851D02*
X231677179Y-95620542D01*
X231677179Y-95620542D02*
X231604816Y-95493197D01*
X209097475Y-104104150D02*
X209162842Y-104241530D01*
X209162842Y-104241530D02*
X209227859Y-104382223D01*
X209227859Y-104382223D02*
X209292790Y-104525737D01*
X209292790Y-104525737D02*
X209357901Y-104671580D01*
X209357901Y-104671580D02*
X209423455Y-104819262D01*
X209423455Y-104819262D02*
X209489719Y-104968291D01*
X209489719Y-104968291D02*
X209556956Y-105118175D01*
X209556956Y-105118175D02*
X209625433Y-105268424D01*
X209625433Y-105268424D02*
X209695413Y-105418544D01*
X209695413Y-105418544D02*
X209767162Y-105568046D01*
X209767162Y-105568046D02*
X209840945Y-105716438D01*
X209840945Y-105716438D02*
X209917026Y-105863227D01*
X209917026Y-105863227D02*
X209995671Y-106007924D01*
X209995671Y-106007924D02*
X210077144Y-106150036D01*
X210077144Y-106150036D02*
X210161711Y-106289072D01*
X210161711Y-106289072D02*
X210249636Y-106424540D01*
X210249636Y-106424540D02*
X210341185Y-106555950D01*
X210341185Y-106555950D02*
X210436621Y-106682809D01*
X210436621Y-106682809D02*
X210536211Y-106804626D01*
X210536211Y-106804626D02*
X210640219Y-106920910D01*
X210640219Y-106920910D02*
X210748910Y-107031170D01*
X210748910Y-107031170D02*
X210862548Y-107134913D01*
X210862548Y-107134913D02*
X210981400Y-107231649D01*
X210981400Y-107231649D02*
X211105729Y-107320886D01*
X211105729Y-107320886D02*
X211235801Y-107402133D01*
X211235801Y-107402133D02*
X211371880Y-107474898D01*
X211371880Y-107474898D02*
X211514232Y-107538690D01*
X211514232Y-107538690D02*
X211663122Y-107593017D01*
X211663122Y-107593017D02*
X211818813Y-107637388D01*
X211818813Y-107637388D02*
X211981573Y-107671312D01*
X211981573Y-107671312D02*
X212151664Y-107694296D01*
X212151664Y-107694296D02*
X212329353Y-107705851D01*
X204063729Y-36397263D02*
X203920744Y-36105219D01*
X203920744Y-36105219D02*
X203779207Y-35812330D01*
X203779207Y-35812330D02*
X203638964Y-35518682D01*
X203638964Y-35518682D02*
X203499863Y-35224362D01*
X203499863Y-35224362D02*
X203361751Y-34929457D01*
X203361751Y-34929457D02*
X203224474Y-34634054D01*
X203224474Y-34634054D02*
X203087879Y-34338239D01*
X203087879Y-34338239D02*
X202951813Y-34042099D01*
X202951813Y-34042099D02*
X202816123Y-33745721D01*
X202816123Y-33745721D02*
X202680655Y-33449191D01*
X202680655Y-33449191D02*
X202545258Y-33152597D01*
X202545258Y-33152597D02*
X202409776Y-32856024D01*
X202409776Y-32856024D02*
X202274059Y-32559561D01*
X202274059Y-32559561D02*
X202137951Y-32263292D01*
X202137951Y-32263292D02*
X202001301Y-31967306D01*
X202001301Y-31967306D02*
X201863955Y-31671688D01*
X201863955Y-31671688D02*
X201725759Y-31376527D01*
X201725759Y-31376527D02*
X201586561Y-31081907D01*
X201586561Y-31081907D02*
X201446208Y-30787916D01*
X201446208Y-30787916D02*
X201304547Y-30494642D01*
X201304547Y-30494642D02*
X201161424Y-30202169D01*
X201161424Y-30202169D02*
X201016686Y-29910586D01*
X201016686Y-29910586D02*
X200870180Y-29619979D01*
X200870180Y-29619979D02*
X200721753Y-29330435D01*
X200721753Y-29330435D02*
X200571253Y-29042040D01*
X200571253Y-29042040D02*
X200418525Y-28754881D01*
X200418525Y-28754881D02*
X200263416Y-28469045D01*
X200263416Y-28469045D02*
X200105774Y-28184619D01*
X200105774Y-28184619D02*
X199945446Y-27901689D01*
X199945446Y-27901689D02*
X199782278Y-27620342D01*
X199782278Y-27620342D02*
X199616117Y-27340665D01*
X199616117Y-27340665D02*
X199446810Y-27062745D01*
X222363322Y-30833054D02*
X222290335Y-30697665D01*
X222290335Y-30697665D02*
X222210521Y-30568661D01*
X222210521Y-30568661D02*
X222124213Y-30446072D01*
X222124213Y-30446072D02*
X222031746Y-30329929D01*
X222031746Y-30329929D02*
X221933454Y-30220262D01*
X221933454Y-30220262D02*
X221829672Y-30117103D01*
X221829672Y-30117103D02*
X221720734Y-30020482D01*
X221720734Y-30020482D02*
X221606975Y-29930429D01*
X221606975Y-29930429D02*
X221488728Y-29846976D01*
X221488728Y-29846976D02*
X221366329Y-29770154D01*
X221366329Y-29770154D02*
X221240111Y-29699993D01*
X221240111Y-29699993D02*
X221110410Y-29636524D01*
X221110410Y-29636524D02*
X220977559Y-29579777D01*
X220977559Y-29579777D02*
X220841893Y-29529784D01*
X220841893Y-29529784D02*
X220703746Y-29486575D01*
X220703746Y-29486575D02*
X220563454Y-29450181D01*
X220563454Y-29450181D02*
X220421349Y-29420633D01*
X220421349Y-29420633D02*
X220277767Y-29397961D01*
X220277767Y-29397961D02*
X220133042Y-29382197D01*
X220133042Y-29382197D02*
X219987509Y-29373370D01*
X219987509Y-29373370D02*
X219841501Y-29371513D01*
X219841501Y-29371513D02*
X219695354Y-29376655D01*
X219695354Y-29376655D02*
X219549401Y-29388827D01*
X219549401Y-29388827D02*
X219403977Y-29408061D01*
X219403977Y-29408061D02*
X219259417Y-29434386D01*
X219259417Y-29434386D02*
X219116055Y-29467835D01*
X219116055Y-29467835D02*
X218974225Y-29508436D01*
X218974225Y-29508436D02*
X218834262Y-29556222D01*
X218834262Y-29556222D02*
X218696500Y-29611222D01*
X218696500Y-29611222D02*
X218561274Y-29673469D01*
X218561274Y-29673469D02*
X218428917Y-29742991D01*
X218428917Y-29742991D02*
X218299766Y-29819822D01*
X231604816Y-95493197D02*
X231524980Y-95310055D01*
X231524980Y-95310055D02*
X231444320Y-95127285D01*
X231444320Y-95127285D02*
X231362910Y-94944855D01*
X231362910Y-94944855D02*
X231280827Y-94762729D01*
X231280827Y-94762729D02*
X231198145Y-94580874D01*
X231198145Y-94580874D02*
X231114940Y-94399256D01*
X231114940Y-94399256D02*
X231031288Y-94217841D01*
X231031288Y-94217841D02*
X230947263Y-94036595D01*
X230947263Y-94036595D02*
X230862942Y-93855484D01*
X230862942Y-93855484D02*
X230778399Y-93674474D01*
X230778399Y-93674474D02*
X230693710Y-93493531D01*
X230693710Y-93493531D02*
X230608951Y-93312621D01*
X230608951Y-93312621D02*
X230524197Y-93131710D01*
X230524197Y-93131710D02*
X230439523Y-92950765D01*
X230439523Y-92950765D02*
X230355004Y-92769751D01*
X230355004Y-92769751D02*
X230270718Y-92588635D01*
X216934242Y-105986495D02*
X217365421Y-105786120D01*
X217365421Y-105786120D02*
X217796691Y-105585923D01*
X217796691Y-105585923D02*
X218228038Y-105385881D01*
X218228038Y-105385881D02*
X218659451Y-105185967D01*
X218659451Y-105185967D02*
X219090918Y-104986158D01*
X219090918Y-104986158D02*
X219522426Y-104786429D01*
X219522426Y-104786429D02*
X219953963Y-104586755D01*
X219953963Y-104586755D02*
X220385518Y-104387112D01*
X220385518Y-104387112D02*
X220817078Y-104187475D01*
X220817078Y-104187475D02*
X221248631Y-103987819D01*
X221248631Y-103987819D02*
X221680166Y-103788120D01*
X221680166Y-103788120D02*
X222111669Y-103588353D01*
X222111669Y-103588353D02*
X222543130Y-103388493D01*
X222543130Y-103388493D02*
X222974536Y-103188516D01*
X222974536Y-103188516D02*
X223405874Y-102988397D01*
X223405874Y-102988397D02*
X223837134Y-102788112D01*
X223837134Y-102788112D02*
X224268302Y-102587636D01*
X224268302Y-102587636D02*
X224699367Y-102386944D01*
X224699367Y-102386944D02*
X225130317Y-102186011D01*
X225130317Y-102186011D02*
X225561140Y-101984814D01*
X225561140Y-101984814D02*
X225991823Y-101783327D01*
X225991823Y-101783327D02*
X226422355Y-101581526D01*
X226422355Y-101581526D02*
X226852723Y-101379385D01*
X226852723Y-101379385D02*
X227282916Y-101176881D01*
X227282916Y-101176881D02*
X227712921Y-100973989D01*
X227712921Y-100973989D02*
X228142726Y-100770685D01*
X228142726Y-100770685D02*
X228572319Y-100566942D01*
X228572319Y-100566942D02*
X229001689Y-100362738D01*
X229001689Y-100362738D02*
X229430823Y-100158047D01*
X229430823Y-100158047D02*
X229859709Y-99952844D01*
X229859709Y-99952844D02*
X230288335Y-99747106D01*
X230288335Y-99747106D02*
X230716689Y-99540807D01*
X218299766Y-29819822D02*
X217853171Y-30021611D01*
X217853171Y-30021611D02*
X217406725Y-30223729D01*
X217406725Y-30223729D02*
X216960424Y-30426167D01*
X216960424Y-30426167D02*
X216514265Y-30628916D01*
X216514265Y-30628916D02*
X216068243Y-30831968D01*
X216068243Y-30831968D02*
X215622355Y-31035314D01*
X215622355Y-31035314D02*
X215176597Y-31238945D01*
X215176597Y-31238945D02*
X214730964Y-31442853D01*
X214730964Y-31442853D02*
X214285455Y-31647030D01*
X214285455Y-31647030D02*
X213840063Y-31851465D01*
X213840063Y-31851465D02*
X213394787Y-32056152D01*
X213394787Y-32056152D02*
X212949621Y-32261081D01*
X212949621Y-32261081D02*
X212504562Y-32466244D01*
X212504562Y-32466244D02*
X212059607Y-32671631D01*
X212059607Y-32671631D02*
X211614751Y-32877235D01*
X211614751Y-32877235D02*
X211169991Y-33083047D01*
X211169991Y-33083047D02*
X210725322Y-33289058D01*
X210725322Y-33289058D02*
X210280742Y-33495260D01*
X210280742Y-33495260D02*
X209836246Y-33701644D01*
X209836246Y-33701644D02*
X209391830Y-33908200D01*
X209391830Y-33908200D02*
X208947491Y-34114922D01*
X208947491Y-34114922D02*
X208503225Y-34321800D01*
X208503225Y-34321800D02*
X208059027Y-34528825D01*
X208059027Y-34528825D02*
X207614895Y-34735989D01*
X207614895Y-34735989D02*
X207170824Y-34943283D01*
X207170824Y-34943283D02*
X206726811Y-35150698D01*
X206726811Y-35150698D02*
X206282852Y-35358227D01*
X206282852Y-35358227D02*
X205838943Y-35565860D01*
X205838943Y-35565860D02*
X205395079Y-35773589D01*
X205395079Y-35773589D02*
X204951258Y-35981404D01*
X204951258Y-35981404D02*
X204507476Y-36189298D01*
X204507476Y-36189298D02*
X204063729Y-36397263D01*
X195415386Y-26654157D02*
X194981225Y-26853359D01*
X194981225Y-26853359D02*
X194547209Y-27052874D01*
X194547209Y-27052874D02*
X194113333Y-27252695D01*
X194113333Y-27252695D02*
X193679596Y-27452815D01*
X193679596Y-27452815D02*
X193245993Y-27653227D01*
X193245993Y-27653227D02*
X192812523Y-27853925D01*
X192812523Y-27853925D02*
X192379181Y-28054900D01*
X192379181Y-28054900D02*
X191945965Y-28256147D01*
X191945965Y-28256147D02*
X191512871Y-28457659D01*
X191512871Y-28457659D02*
X191079897Y-28659427D01*
X191079897Y-28659427D02*
X190647039Y-28861447D01*
X190647039Y-28861447D02*
X190214294Y-29063710D01*
X190214294Y-29063710D02*
X189781660Y-29266210D01*
X189781660Y-29266210D02*
X189349133Y-29468939D01*
X189349133Y-29468939D02*
X188916710Y-29671891D01*
X188916710Y-29671891D02*
X188484388Y-29875060D01*
X188484388Y-29875060D02*
X188052164Y-30078437D01*
X188052164Y-30078437D02*
X187620035Y-30282016D01*
X187620035Y-30282016D02*
X187187998Y-30485791D01*
X187187998Y-30485791D02*
X186756049Y-30689753D01*
X186756049Y-30689753D02*
X186324186Y-30893897D01*
X186324186Y-30893897D02*
X185892405Y-31098215D01*
X185892405Y-31098215D02*
X185460704Y-31302701D01*
X185460704Y-31302701D02*
X185029080Y-31507347D01*
X185029080Y-31507347D02*
X184597528Y-31712147D01*
X184597528Y-31712147D02*
X184166047Y-31917093D01*
X184166047Y-31917093D02*
X183734633Y-32122179D01*
X183734633Y-32122179D02*
X183303283Y-32327398D01*
X183303283Y-32327398D02*
X182871994Y-32532743D01*
X182871994Y-32532743D02*
X182440763Y-32738206D01*
X182440763Y-32738206D02*
X182009587Y-32943782D01*
X182009587Y-32943782D02*
X181578463Y-33149463D01*
X181578463Y-33149463D02*
X181509399Y-33006180D01*
X181509399Y-33006180D02*
X181439627Y-32860048D01*
X181439627Y-32860048D02*
X181368946Y-32711550D01*
X181368946Y-32711550D02*
X181297154Y-32561172D01*
X181297154Y-32561172D02*
X181224053Y-32409399D01*
X181224053Y-32409399D02*
X181149442Y-32256717D01*
X181149442Y-32256717D02*
X181073121Y-32103610D01*
X181073121Y-32103610D02*
X180994889Y-31950563D01*
X180994889Y-31950563D02*
X180914546Y-31798061D01*
X180914546Y-31798061D02*
X180831892Y-31646591D01*
X180831892Y-31646591D02*
X180746727Y-31496636D01*
X180746727Y-31496636D02*
X180658850Y-31348681D01*
X180658850Y-31348681D02*
X180568061Y-31203213D01*
X180568061Y-31203213D02*
X180474160Y-31060716D01*
X180474160Y-31060716D02*
X180376947Y-30921675D01*
X180376947Y-30921675D02*
X180276222Y-30786575D01*
X180276222Y-30786575D02*
X180171784Y-30655902D01*
X180171784Y-30655902D02*
X180063432Y-30530140D01*
X180063432Y-30530140D02*
X179950967Y-30409775D01*
X179950967Y-30409775D02*
X179834189Y-30295291D01*
X179834189Y-30295291D02*
X179712897Y-30187175D01*
X179712897Y-30187175D02*
X179586891Y-30085910D01*
X179586891Y-30085910D02*
X179455971Y-29991982D01*
X179455971Y-29991982D02*
X179319936Y-29905877D01*
X179319936Y-29905877D02*
X179178586Y-29828079D01*
X179178586Y-29828079D02*
X179031722Y-29759073D01*
X179031722Y-29759073D02*
X178879142Y-29699345D01*
X178879142Y-29699345D02*
X178720647Y-29649379D01*
X178720647Y-29649379D02*
X178556036Y-29609661D01*
X178556036Y-29609661D02*
X178385109Y-29580676D01*
X178385109Y-29580676D02*
X178207665Y-29562909D01*
X178207665Y-29562909D02*
X178023506Y-29556846D01*
X143759097Y-53514073D02*
X143302063Y-53724263D01*
X143302063Y-53724263D02*
X142845129Y-53934668D01*
X142845129Y-53934668D02*
X142388289Y-54145275D01*
X142388289Y-54145275D02*
X141931539Y-54356077D01*
X141931539Y-54356077D02*
X141474874Y-54567062D01*
X141474874Y-54567062D02*
X141018290Y-54778222D01*
X141018290Y-54778222D02*
X140561782Y-54989546D01*
X140561782Y-54989546D02*
X140105345Y-55201025D01*
X140105345Y-55201025D02*
X139648976Y-55412649D01*
X139648976Y-55412649D02*
X139192670Y-55624408D01*
X139192670Y-55624408D02*
X138736422Y-55836293D01*
X138736422Y-55836293D02*
X138280227Y-56048293D01*
X138280227Y-56048293D02*
X137824082Y-56260399D01*
X137824082Y-56260399D02*
X137367981Y-56472601D01*
X137367981Y-56472601D02*
X136911920Y-56684890D01*
X136911920Y-56684890D02*
X136455895Y-56897256D01*
X136455895Y-56897256D02*
X135999901Y-57109688D01*
X135999901Y-57109688D02*
X135543933Y-57322177D01*
X135543933Y-57322177D02*
X135087987Y-57534714D01*
X135087987Y-57534714D02*
X134632059Y-57747289D01*
X134632059Y-57747289D02*
X134176143Y-57959891D01*
X134176143Y-57959891D02*
X133720236Y-58172512D01*
X133720236Y-58172512D02*
X133264333Y-58385141D01*
X133264333Y-58385141D02*
X132808429Y-58597768D01*
X132808429Y-58597768D02*
X132352520Y-58810385D01*
X132352520Y-58810385D02*
X131896602Y-59022980D01*
X131896602Y-59022980D02*
X131440669Y-59235545D01*
X131440669Y-59235545D02*
X130984717Y-59448070D01*
X130984717Y-59448070D02*
X130528743Y-59660544D01*
X130528743Y-59660544D02*
X130072740Y-59872958D01*
X130072740Y-59872958D02*
X129616705Y-60085303D01*
X129616705Y-60085303D02*
X129160634Y-60297569D01*
X159153246Y-41753643D02*
X159195227Y-41927304D01*
X159195227Y-41927304D02*
X159246509Y-42051579D01*
X159246509Y-42051579D02*
X159311016Y-42180633D01*
X159311016Y-42180633D02*
X159384109Y-42312737D01*
X159384109Y-42312737D02*
X159461150Y-42446157D01*
X159461150Y-42446157D02*
X159537500Y-42579163D01*
X159537500Y-42579163D02*
X159608523Y-42710024D01*
X159608523Y-42710024D02*
X159669579Y-42837007D01*
X159669579Y-42837007D02*
X159716030Y-42958381D01*
X159716030Y-42958381D02*
X159748176Y-43126139D01*
X159748176Y-43126139D02*
X159721371Y-43271537D01*
X159721371Y-43271537D02*
X159619962Y-43388733D01*
X159619962Y-43388733D02*
X159503178Y-43448309D01*
X159503178Y-43448309D02*
X159341642Y-43491023D01*
X159996922Y-37712511D02*
X159869111Y-37792914D01*
X159869111Y-37792914D02*
X159748040Y-37879235D01*
X159748040Y-37879235D02*
X159633690Y-37971179D01*
X159633690Y-37971179D02*
X159526041Y-38068450D01*
X159526041Y-38068450D02*
X159425073Y-38170751D01*
X159425073Y-38170751D02*
X159330767Y-38277788D01*
X159330767Y-38277788D02*
X159243104Y-38389263D01*
X159243104Y-38389263D02*
X159162063Y-38504883D01*
X159162063Y-38504883D02*
X159087626Y-38624349D01*
X159087626Y-38624349D02*
X159019773Y-38747368D01*
X159019773Y-38747368D02*
X158958485Y-38873642D01*
X158958485Y-38873642D02*
X158903741Y-39002877D01*
X158903741Y-39002877D02*
X158855523Y-39134776D01*
X158855523Y-39134776D02*
X158813810Y-39269043D01*
X158813810Y-39269043D02*
X158778584Y-39405383D01*
X158778584Y-39405383D02*
X158749825Y-39543500D01*
X158749825Y-39543500D02*
X158727513Y-39683098D01*
X158727513Y-39683098D02*
X158711629Y-39823881D01*
X158711629Y-39823881D02*
X158702153Y-39965554D01*
X158702153Y-39965554D02*
X158699066Y-40107821D01*
X158699066Y-40107821D02*
X158702348Y-40250385D01*
X158702348Y-40250385D02*
X158711980Y-40392951D01*
X158711980Y-40392951D02*
X158727943Y-40535223D01*
X158727943Y-40535223D02*
X158750216Y-40676906D01*
X158750216Y-40676906D02*
X158778780Y-40817703D01*
X158778780Y-40817703D02*
X158813616Y-40957319D01*
X158813616Y-40957319D02*
X158854704Y-41095458D01*
X158854704Y-41095458D02*
X158902025Y-41231824D01*
X158902025Y-41231824D02*
X158955559Y-41366121D01*
X158955559Y-41366121D02*
X159015287Y-41498054D01*
X159015287Y-41498054D02*
X159081189Y-41627326D01*
X159081189Y-41627326D02*
X159153246Y-41753643D01*
X173414121Y-31389476D02*
X172994835Y-31587039D01*
X172994835Y-31587039D02*
X172575355Y-31784206D01*
X172575355Y-31784206D02*
X172155698Y-31981016D01*
X172155698Y-31981016D02*
X171735884Y-32177510D01*
X171735884Y-32177510D02*
X171315933Y-32373727D01*
X171315933Y-32373727D02*
X170895865Y-32569707D01*
X170895865Y-32569707D02*
X170475699Y-32765490D01*
X170475699Y-32765490D02*
X170055455Y-32961115D01*
X170055455Y-32961115D02*
X169635152Y-33156623D01*
X169635152Y-33156623D02*
X169214809Y-33352054D01*
X169214809Y-33352054D02*
X168794447Y-33547446D01*
X168794447Y-33547446D02*
X168374085Y-33742841D01*
X168374085Y-33742841D02*
X167953742Y-33938277D01*
X167953742Y-33938277D02*
X167533438Y-34133796D01*
X167533438Y-34133796D02*
X167113192Y-34329435D01*
X167113192Y-34329435D02*
X166693025Y-34525237D01*
X166693025Y-34525237D02*
X166272955Y-34721239D01*
X166272955Y-34721239D02*
X165853002Y-34917482D01*
X165853002Y-34917482D02*
X165433187Y-35114007D01*
X165433187Y-35114007D02*
X165013527Y-35310852D01*
X165013527Y-35310852D02*
X164594043Y-35508057D01*
X164594043Y-35508057D02*
X164174755Y-35705663D01*
X164174755Y-35705663D02*
X163755682Y-35903709D01*
X163755682Y-35903709D02*
X163336843Y-36102236D01*
X163336843Y-36102236D02*
X162918258Y-36301282D01*
X162918258Y-36301282D02*
X162499947Y-36500888D01*
X162499947Y-36500888D02*
X162081929Y-36701094D01*
X162081929Y-36701094D02*
X161664224Y-36901939D01*
X161664224Y-36901939D02*
X161246851Y-37103463D01*
X161246851Y-37103463D02*
X160829830Y-37305707D01*
X160829830Y-37305707D02*
X160413180Y-37508709D01*
X160413180Y-37508709D02*
X159996922Y-37712511D01*
X129160634Y-60297569D02*
X128890330Y-60293987D01*
X128890330Y-60293987D02*
X128619821Y-60291334D01*
X128619821Y-60291334D02*
X128349124Y-60289527D01*
X128349124Y-60289527D02*
X128078257Y-60288485D01*
X128078257Y-60288485D02*
X127807239Y-60288123D01*
X127807239Y-60288123D02*
X127536089Y-60288359D01*
X127536089Y-60288359D02*
X127264824Y-60289112D01*
X127264824Y-60289112D02*
X126993463Y-60290297D01*
X126993463Y-60290297D02*
X126722024Y-60291833D01*
X126722024Y-60291833D02*
X126450526Y-60293637D01*
X126450526Y-60293637D02*
X126178987Y-60295626D01*
X126178987Y-60295626D02*
X125907425Y-60297717D01*
X125907425Y-60297717D02*
X125635859Y-60299829D01*
X125635859Y-60299829D02*
X125364307Y-60301877D01*
X125364307Y-60301877D02*
X125092787Y-60303780D01*
X125092787Y-60303780D02*
X124821317Y-60305455D01*
X124821317Y-60305455D02*
X124549917Y-60306820D01*
X124549917Y-60306820D02*
X124278604Y-60307791D01*
X124278604Y-60307791D02*
X124007396Y-60308286D01*
X124007396Y-60308286D02*
X123736313Y-60308222D01*
X123736313Y-60308222D02*
X123465372Y-60307518D01*
X123465372Y-60307518D02*
X123194592Y-60306089D01*
X123194592Y-60306089D02*
X122923990Y-60303854D01*
X122923990Y-60303854D02*
X122653586Y-60300729D01*
X122653586Y-60300729D02*
X122383398Y-60296633D01*
X122383398Y-60296633D02*
X122113444Y-60291482D01*
X122113444Y-60291482D02*
X121843742Y-60285194D01*
X121843742Y-60285194D02*
X121574311Y-60277687D01*
X121574311Y-60277687D02*
X121305169Y-60268877D01*
X121305169Y-60268877D02*
X121036334Y-60258682D01*
X121036334Y-60258682D02*
X120767825Y-60247019D01*
X120767825Y-60247019D02*
X120499661Y-60233806D01*
X144782333Y-50319555D02*
X144602378Y-50458711D01*
X144602378Y-50458711D02*
X144435306Y-50611557D01*
X144435306Y-50611557D02*
X144281670Y-50776886D01*
X144281670Y-50776886D02*
X144142025Y-50953494D01*
X144142025Y-50953494D02*
X144016923Y-51140176D01*
X144016923Y-51140176D02*
X143906920Y-51335728D01*
X143906920Y-51335728D02*
X143812567Y-51538946D01*
X143812567Y-51538946D02*
X143734421Y-51748624D01*
X143734421Y-51748624D02*
X143673033Y-51963558D01*
X143673033Y-51963558D02*
X143628958Y-52182543D01*
X143628958Y-52182543D02*
X143602750Y-52404375D01*
X143602750Y-52404375D02*
X143594963Y-52627849D01*
X143594963Y-52627849D02*
X143606150Y-52851760D01*
X143606150Y-52851760D02*
X143636866Y-53074904D01*
X143636866Y-53074904D02*
X143687663Y-53296077D01*
X143687663Y-53296077D02*
X143759097Y-53514073D01*
X159341642Y-43491023D02*
X158886034Y-43702939D01*
X158886034Y-43702939D02*
X158430181Y-43914393D01*
X158430181Y-43914393D02*
X157974111Y-44125440D01*
X157974111Y-44125440D02*
X157517853Y-44336137D01*
X157517853Y-44336137D02*
X157061435Y-44546539D01*
X157061435Y-44546539D02*
X156604887Y-44756701D01*
X156604887Y-44756701D02*
X156148236Y-44966680D01*
X156148236Y-44966680D02*
X155691511Y-45176531D01*
X155691511Y-45176531D02*
X155234741Y-45386309D01*
X155234741Y-45386309D02*
X154777954Y-45596072D01*
X154777954Y-45596072D02*
X154321180Y-45805874D01*
X154321180Y-45805874D02*
X153864446Y-46015771D01*
X153864446Y-46015771D02*
X153407781Y-46225819D01*
X153407781Y-46225819D02*
X152951214Y-46436074D01*
X152951214Y-46436074D02*
X152494773Y-46646591D01*
X152494773Y-46646591D02*
X152038488Y-46857426D01*
X152038488Y-46857426D02*
X151582386Y-47068635D01*
X151582386Y-47068635D02*
X151126496Y-47280274D01*
X151126496Y-47280274D02*
X150670847Y-47492399D01*
X150670847Y-47492399D02*
X150215467Y-47705064D01*
X150215467Y-47705064D02*
X149760385Y-47918327D01*
X149760385Y-47918327D02*
X149305630Y-48132242D01*
X149305630Y-48132242D02*
X148851230Y-48346865D01*
X148851230Y-48346865D02*
X148397214Y-48562253D01*
X148397214Y-48562253D02*
X147943610Y-48778461D01*
X147943610Y-48778461D02*
X147490448Y-48995544D01*
X147490448Y-48995544D02*
X147037754Y-49213559D01*
X147037754Y-49213559D02*
X146585559Y-49432560D01*
X146585559Y-49432560D02*
X146133891Y-49652605D01*
X146133891Y-49652605D02*
X145682778Y-49873749D01*
X145682778Y-49873749D02*
X145232249Y-50096046D01*
X145232249Y-50096046D02*
X144782333Y-50319555D01*
X199446810Y-27062745D02*
X199353039Y-26949499D01*
X199353039Y-26949499D02*
X199254653Y-26843880D01*
X199254653Y-26843880D02*
X199151906Y-26745774D01*
X199151906Y-26745774D02*
X199045052Y-26655066D01*
X199045052Y-26655066D02*
X198934344Y-26571641D01*
X198934344Y-26571641D02*
X198820035Y-26495386D01*
X198820035Y-26495386D02*
X198702381Y-26426185D01*
X198702381Y-26426185D02*
X198581633Y-26363924D01*
X198581633Y-26363924D02*
X198458047Y-26308490D01*
X198458047Y-26308490D02*
X198331875Y-26259766D01*
X198331875Y-26259766D02*
X198203371Y-26217640D01*
X198203371Y-26217640D02*
X198072789Y-26181996D01*
X198072789Y-26181996D02*
X197940383Y-26152720D01*
X197940383Y-26152720D02*
X197806406Y-26129697D01*
X197806406Y-26129697D02*
X197671111Y-26112813D01*
X197671111Y-26112813D02*
X197534754Y-26101954D01*
X197534754Y-26101954D02*
X197397586Y-26097005D01*
X197397586Y-26097005D02*
X197259862Y-26097852D01*
X197259862Y-26097852D02*
X197121836Y-26104380D01*
X197121836Y-26104380D02*
X196983761Y-26116475D01*
X196983761Y-26116475D02*
X196845891Y-26134022D01*
X196845891Y-26134022D02*
X196708479Y-26156907D01*
X196708479Y-26156907D02*
X196571779Y-26185015D01*
X196571779Y-26185015D02*
X196436046Y-26218232D01*
X196436046Y-26218232D02*
X196301531Y-26256444D01*
X196301531Y-26256444D02*
X196168490Y-26299536D01*
X196168490Y-26299536D02*
X196037176Y-26347393D01*
X196037176Y-26347393D02*
X195907842Y-26399901D01*
X195907842Y-26399901D02*
X195780743Y-26456946D01*
X195780743Y-26456946D02*
X195656131Y-26518413D01*
X195656131Y-26518413D02*
X195534261Y-26584188D01*
X195534261Y-26584188D02*
X195415386Y-26654157D01*
X178023506Y-29556846D02*
X177867857Y-29571394D01*
X177867857Y-29571394D02*
X177713709Y-29591533D01*
X177713709Y-29591533D02*
X177560988Y-29616979D01*
X177560988Y-29616979D02*
X177409618Y-29647449D01*
X177409618Y-29647449D02*
X177259523Y-29682659D01*
X177259523Y-29682659D02*
X177110629Y-29722326D01*
X177110629Y-29722326D02*
X176962859Y-29766166D01*
X176962859Y-29766166D02*
X176816140Y-29813896D01*
X176816140Y-29813896D02*
X176670395Y-29865233D01*
X176670395Y-29865233D02*
X176525549Y-29919893D01*
X176525549Y-29919893D02*
X176381527Y-29977593D01*
X176381527Y-29977593D02*
X176238254Y-30038048D01*
X176238254Y-30038048D02*
X176095655Y-30100977D01*
X176095655Y-30100977D02*
X175953653Y-30166095D01*
X175953653Y-30166095D02*
X175812175Y-30233118D01*
X175812175Y-30233118D02*
X175671144Y-30301765D01*
X175671144Y-30301765D02*
X175530486Y-30371750D01*
X175530486Y-30371750D02*
X175390125Y-30442791D01*
X175390125Y-30442791D02*
X175249985Y-30514604D01*
X175249985Y-30514604D02*
X175109993Y-30586905D01*
X175109993Y-30586905D02*
X174970071Y-30659412D01*
X174970071Y-30659412D02*
X174830146Y-30731841D01*
X174830146Y-30731841D02*
X174690142Y-30803908D01*
X174690142Y-30803908D02*
X174549983Y-30875331D01*
X174549983Y-30875331D02*
X174409594Y-30945824D01*
X174409594Y-30945824D02*
X174268901Y-31015106D01*
X174268901Y-31015106D02*
X174127827Y-31082893D01*
X174127827Y-31082893D02*
X173986298Y-31148901D01*
X173986298Y-31148901D02*
X173844238Y-31212846D01*
X173844238Y-31212846D02*
X173701572Y-31274446D01*
X173701572Y-31274446D02*
X173558224Y-31333417D01*
X173558224Y-31333417D02*
X173414121Y-31389476D01*
D11*
%TO.C,D56*%
X101358577Y-78095656D02*
X102798613Y-78767156D01*
X99606911Y-79709408D02*
X100200979Y-78435426D01*
X101530758Y-81486078D02*
X100090721Y-80814578D01*
X103282424Y-79872327D02*
X102688356Y-81146309D01*
X103056101Y-78811865D02*
G75*
G02*
X102798613Y-78767156I-46179J497863D01*
G01*
X101358577Y-78095656D02*
G75*
G02*
X101158817Y-77927147I211309J453154D01*
G01*
X100247787Y-78217955D02*
G75*
G02*
X101158817Y-77927147I499962J6163D01*
G01*
X100247787Y-78217954D02*
G75*
G02*
X100200979Y-78435426I-499962J-6162D01*
G01*
X99606911Y-79709409D02*
G75*
G02*
X99470406Y-79885053I-453154J211310D01*
G01*
X99833234Y-80769868D02*
G75*
G02*
X99470406Y-79885053I-46179J497862D01*
G01*
X99833233Y-80769869D02*
G75*
G02*
X100090721Y-80814578I46179J-497863D01*
G01*
X101530759Y-81486079D02*
G75*
G02*
X101730518Y-81654588I-211310J-453153D01*
G01*
X102641548Y-81363781D02*
G75*
G02*
X101730518Y-81654588I-499962J-6162D01*
G01*
X102641548Y-81363780D02*
G75*
G02*
X102688356Y-81146309I499962J6162D01*
G01*
X103282424Y-79872326D02*
G75*
G02*
X103418929Y-79696682I453153J-211310D01*
G01*
X103056101Y-78811867D02*
G75*
G02*
X103418929Y-79696682I46179J-497862D01*
G01*
%TO.C,D59*%
X82045583Y-126788001D02*
X83347137Y-127699359D01*
X80040304Y-128073064D02*
X80846572Y-126921595D01*
X81626409Y-130156815D02*
X80324854Y-129245456D01*
X83631687Y-128871753D02*
X82825420Y-130023222D01*
X83592950Y-127788101D02*
G75*
G02*
X83347137Y-127699359I40976J498318D01*
G01*
X82045584Y-126788001D02*
G75*
G02*
X81878120Y-126587364I286788J409576D01*
G01*
X80930430Y-126715556D02*
G75*
G02*
X81878120Y-126587364I493438J-80748D01*
G01*
X80930432Y-126715555D02*
G75*
G02*
X80846572Y-126921595I-493436J80749D01*
G01*
X80040304Y-128073063D02*
G75*
G02*
X79875373Y-128222336I-409576J286788D01*
G01*
X80079041Y-129156713D02*
G75*
G02*
X79875373Y-128222336I40976J498317D01*
G01*
X80079042Y-129156714D02*
G75*
G02*
X80324854Y-129245456I-40976J-498318D01*
G01*
X81626409Y-130156816D02*
G75*
G02*
X81793872Y-130357453I-286789J-409575D01*
G01*
X82741560Y-130229261D02*
G75*
G02*
X81793872Y-130357453I-493437J80748D01*
G01*
X82741559Y-130229261D02*
G75*
G02*
X82825420Y-130023222I493437J-80749D01*
G01*
X83631687Y-128871753D02*
G75*
G02*
X83796619Y-128722481I409576J-286789D01*
G01*
X83592949Y-127788104D02*
G75*
G02*
X83796619Y-128722481I-40975J-498317D01*
G01*
D12*
%TO.C,SW45*%
X143248507Y-116531846D02*
X130448507Y-116531846D01*
X143248507Y-118031845D02*
X141098507Y-118031846D01*
X131448507Y-118231846D02*
X131448507Y-118531846D01*
X133648507Y-118231846D02*
X133648507Y-118531846D01*
X138498507Y-118031846D02*
X133848507Y-118031846D01*
X138698507Y-118231846D02*
X138698507Y-118531846D01*
X140898507Y-118231846D02*
X140898507Y-118531846D01*
X131248507Y-118031846D02*
X130448507Y-118031846D01*
X129898507Y-117481846D02*
X129898507Y-117081846D01*
X143798477Y-117481822D02*
X143798507Y-117081846D01*
X139248507Y-119081846D02*
X140348507Y-119081846D01*
X131998507Y-119081846D02*
X133098507Y-119081846D01*
X140898507Y-118231846D02*
G75*
G02*
X141098507Y-118031846I200000J0D01*
G01*
X138498507Y-118031846D02*
G75*
G02*
X138698507Y-118231846I0J-200000D01*
G01*
X133648507Y-118231846D02*
G75*
G02*
X133848507Y-118031846I200000J0D01*
G01*
X131248507Y-118031846D02*
G75*
G02*
X131448507Y-118231846I0J-200000D01*
G01*
X140898507Y-118531846D02*
G75*
G02*
X140348507Y-119081846I-250000J-300000D01*
G01*
X139248507Y-119081846D02*
G75*
G02*
X138698507Y-118531846I-300000J250000D01*
G01*
X133648507Y-118531846D02*
G75*
G02*
X133098507Y-119081846I-250000J-300000D01*
G01*
X131998507Y-119081846D02*
G75*
G02*
X131448507Y-118531846I-300000J250000D01*
G01*
X130448507Y-118031846D02*
G75*
G02*
X129898507Y-117481846I-300000J250000D01*
G01*
X129898507Y-117081846D02*
G75*
G02*
X130448507Y-116531846I250000J300000D01*
G01*
X143248507Y-116531846D02*
G75*
G02*
X143798507Y-117081846I300000J-250000D01*
G01*
X143798477Y-117481822D02*
G75*
G02*
X143248507Y-118031845I-249970J-300024D01*
G01*
%TO.C,SW44*%
X119648502Y-116531846D02*
X106848502Y-116531846D01*
X119648502Y-118031845D02*
X117498502Y-118031846D01*
X107848502Y-118231846D02*
X107848502Y-118531846D01*
X110048502Y-118231846D02*
X110048502Y-118531846D01*
X114898502Y-118031846D02*
X110248502Y-118031846D01*
X115098502Y-118231846D02*
X115098502Y-118531846D01*
X117298502Y-118231846D02*
X117298502Y-118531846D01*
X107648502Y-118031846D02*
X106848502Y-118031846D01*
X106298502Y-117481846D02*
X106298502Y-117081846D01*
X120198472Y-117481822D02*
X120198502Y-117081846D01*
X115648502Y-119081846D02*
X116748502Y-119081846D01*
X108398502Y-119081846D02*
X109498502Y-119081846D01*
X117298502Y-118231846D02*
G75*
G02*
X117498502Y-118031846I200000J0D01*
G01*
X114898502Y-118031846D02*
G75*
G02*
X115098502Y-118231846I0J-200000D01*
G01*
X110048502Y-118231846D02*
G75*
G02*
X110248502Y-118031846I200000J0D01*
G01*
X107648502Y-118031846D02*
G75*
G02*
X107848502Y-118231846I0J-200000D01*
G01*
X117298502Y-118531846D02*
G75*
G02*
X116748502Y-119081846I-250000J-300000D01*
G01*
X115648502Y-119081846D02*
G75*
G02*
X115098502Y-118531846I-300000J250000D01*
G01*
X110048502Y-118531846D02*
G75*
G02*
X109498502Y-119081846I-250000J-300000D01*
G01*
X108398502Y-119081846D02*
G75*
G02*
X107848502Y-118531846I-300000J250000D01*
G01*
X106848502Y-118031846D02*
G75*
G02*
X106298502Y-117481846I-300000J250000D01*
G01*
X106298502Y-117081846D02*
G75*
G02*
X106848502Y-116531846I250000J300000D01*
G01*
X119648502Y-116531846D02*
G75*
G02*
X120198502Y-117081846I300000J-250000D01*
G01*
X120198472Y-117481822D02*
G75*
G02*
X119648502Y-118031845I-249970J-300024D01*
G01*
D11*
%TO.C,D57*%
X93328830Y-95315500D02*
X94768866Y-95987000D01*
X91577164Y-96929252D02*
X92171232Y-95655270D01*
X93501011Y-98705922D02*
X92060974Y-98034422D01*
X95252677Y-97092171D02*
X94658609Y-98366153D01*
X95026354Y-96031709D02*
G75*
G02*
X94768866Y-95987000I-46179J497863D01*
G01*
X93328830Y-95315500D02*
G75*
G02*
X93129070Y-95146991I211309J453154D01*
G01*
X92218040Y-95437799D02*
G75*
G02*
X93129070Y-95146991I499962J6163D01*
G01*
X92218040Y-95437798D02*
G75*
G02*
X92171232Y-95655270I-499962J-6162D01*
G01*
X91577164Y-96929253D02*
G75*
G02*
X91440659Y-97104897I-453154J211310D01*
G01*
X91803487Y-97989712D02*
G75*
G02*
X91440659Y-97104897I-46179J497862D01*
G01*
X91803486Y-97989713D02*
G75*
G02*
X92060974Y-98034422I46179J-497863D01*
G01*
X93501012Y-98705923D02*
G75*
G02*
X93700771Y-98874432I-211310J-453153D01*
G01*
X94611801Y-98583625D02*
G75*
G02*
X93700771Y-98874432I-499962J-6162D01*
G01*
X94611801Y-98583624D02*
G75*
G02*
X94658609Y-98366153I499962J6162D01*
G01*
X95252677Y-97092170D02*
G75*
G02*
X95389182Y-96916526I453153J-211310D01*
G01*
X95026354Y-96031711D02*
G75*
G02*
X95389182Y-96916526I46179J-497862D01*
G01*
%TO.C,D45*%
X42725834Y-68960491D02*
X44165870Y-69631991D01*
X40974168Y-70574243D02*
X41568236Y-69300261D01*
X42898015Y-72350913D02*
X41457978Y-71679413D01*
X44649681Y-70737162D02*
X44055613Y-72011144D01*
X44423358Y-69676700D02*
G75*
G02*
X44165870Y-69631991I-46179J497863D01*
G01*
X42725834Y-68960491D02*
G75*
G02*
X42526074Y-68791982I211309J453154D01*
G01*
X41615044Y-69082790D02*
G75*
G02*
X42526074Y-68791982I499962J6163D01*
G01*
X41615044Y-69082789D02*
G75*
G02*
X41568236Y-69300261I-499962J-6162D01*
G01*
X40974168Y-70574244D02*
G75*
G02*
X40837663Y-70749888I-453154J211310D01*
G01*
X41200491Y-71634703D02*
G75*
G02*
X40837663Y-70749888I-46179J497862D01*
G01*
X41200490Y-71634704D02*
G75*
G02*
X41457978Y-71679413I46179J-497863D01*
G01*
X42898016Y-72350914D02*
G75*
G02*
X43097775Y-72519423I-211310J-453153D01*
G01*
X44008805Y-72228616D02*
G75*
G02*
X43097775Y-72519423I-499962J-6162D01*
G01*
X44008805Y-72228615D02*
G75*
G02*
X44055613Y-72011144I499962J6162D01*
G01*
X44649681Y-70737161D02*
G75*
G02*
X44786186Y-70561517I453153J-211310D01*
G01*
X44423358Y-69676702D02*
G75*
G02*
X44786186Y-70561517I46179J-497862D01*
G01*
%TO.C,D65*%
X146893209Y-78767154D02*
X148333245Y-78095654D01*
X147003466Y-81146307D02*
X146409398Y-79872325D01*
X149601100Y-80814576D02*
X148161063Y-81486076D01*
X149490843Y-78435424D02*
X150084911Y-79709406D01*
X148533004Y-77927145D02*
G75*
G02*
X148333245Y-78095654I-411068J284645D01*
G01*
X146893210Y-78767154D02*
G75*
G02*
X146635721Y-78811863I-211310J453154D01*
G01*
X146272894Y-79696681D02*
G75*
G02*
X146635721Y-78811863I316648J386955D01*
G01*
X146272893Y-79696680D02*
G75*
G02*
X146409398Y-79872325I-316648J-386954D01*
G01*
X147003466Y-81146308D02*
G75*
G02*
X147050274Y-81363779I-453154J-211308D01*
G01*
X147961305Y-81654585D02*
G75*
G02*
X147050274Y-81363779I-411069J284645D01*
G01*
X147961304Y-81654585D02*
G75*
G02*
X148161063Y-81486076I411068J-284645D01*
G01*
X149601101Y-80814577D02*
G75*
G02*
X149858589Y-80769868I211308J-453153D01*
G01*
X150221415Y-79885050D02*
G75*
G02*
X149858589Y-80769868I-316648J-386955D01*
G01*
X150221416Y-79885051D02*
G75*
G02*
X150084911Y-79709406I316649J386954D01*
G01*
X149490843Y-78435423D02*
G75*
G02*
X149444035Y-78217952I453154J211309D01*
G01*
X148533006Y-77927147D02*
G75*
G02*
X149444035Y-78217952I411068J-284644D01*
G01*
%TO.C,D53*%
X85195273Y-67800137D02*
X86635309Y-68471637D01*
X83443607Y-69413889D02*
X84037675Y-68139907D01*
X85367454Y-71190559D02*
X83927417Y-70519059D01*
X87119120Y-69576808D02*
X86525052Y-70850790D01*
X86892797Y-68516346D02*
G75*
G02*
X86635309Y-68471637I-46179J497863D01*
G01*
X85195273Y-67800137D02*
G75*
G02*
X84995513Y-67631628I211309J453154D01*
G01*
X84084483Y-67922436D02*
G75*
G02*
X84995513Y-67631628I499962J6163D01*
G01*
X84084483Y-67922435D02*
G75*
G02*
X84037675Y-68139907I-499962J-6162D01*
G01*
X83443607Y-69413890D02*
G75*
G02*
X83307102Y-69589534I-453154J211310D01*
G01*
X83669930Y-70474349D02*
G75*
G02*
X83307102Y-69589534I-46179J497862D01*
G01*
X83669929Y-70474350D02*
G75*
G02*
X83927417Y-70519059I46179J-497863D01*
G01*
X85367455Y-71190560D02*
G75*
G02*
X85567214Y-71359069I-211310J-453153D01*
G01*
X86478244Y-71068262D02*
G75*
G02*
X85567214Y-71359069I-499962J-6162D01*
G01*
X86478244Y-71068261D02*
G75*
G02*
X86525052Y-70850790I499962J6162D01*
G01*
X87119120Y-69576807D02*
G75*
G02*
X87255625Y-69401163I453153J-211310D01*
G01*
X86892797Y-68516348D02*
G75*
G02*
X87255625Y-69401163I46179J-497862D01*
G01*
%TO.C,D52*%
X77165526Y-85019983D02*
X78605562Y-85691483D01*
X75413860Y-86633735D02*
X76007928Y-85359753D01*
X77337707Y-88410405D02*
X75897670Y-87738905D01*
X79089373Y-86796654D02*
X78495305Y-88070636D01*
X78863050Y-85736192D02*
G75*
G02*
X78605562Y-85691483I-46179J497863D01*
G01*
X77165526Y-85019983D02*
G75*
G02*
X76965766Y-84851474I211309J453154D01*
G01*
X76054736Y-85142282D02*
G75*
G02*
X76965766Y-84851474I499962J6163D01*
G01*
X76054736Y-85142281D02*
G75*
G02*
X76007928Y-85359753I-499962J-6162D01*
G01*
X75413860Y-86633736D02*
G75*
G02*
X75277355Y-86809380I-453154J211310D01*
G01*
X75640183Y-87694195D02*
G75*
G02*
X75277355Y-86809380I-46179J497862D01*
G01*
X75640182Y-87694196D02*
G75*
G02*
X75897670Y-87738905I46179J-497863D01*
G01*
X77337708Y-88410406D02*
G75*
G02*
X77537467Y-88578915I-211310J-453153D01*
G01*
X78448497Y-88288108D02*
G75*
G02*
X77537467Y-88578915I-499962J-6162D01*
G01*
X78448497Y-88288107D02*
G75*
G02*
X78495305Y-88070636I499962J6162D01*
G01*
X79089373Y-86796653D02*
G75*
G02*
X79225878Y-86621009I453153J-211310D01*
G01*
X78863050Y-85736194D02*
G75*
G02*
X79225878Y-86621009I46179J-497862D01*
G01*
%TO.C,D54*%
X93225020Y-50580288D02*
X94665056Y-51251788D01*
X91473354Y-52194040D02*
X92067422Y-50920058D01*
X93397201Y-53970710D02*
X91957164Y-53299210D01*
X95148867Y-52356959D02*
X94554799Y-53630941D01*
X94922544Y-51296497D02*
G75*
G02*
X94665056Y-51251788I-46179J497863D01*
G01*
X93225020Y-50580288D02*
G75*
G02*
X93025260Y-50411779I211309J453154D01*
G01*
X92114230Y-50702587D02*
G75*
G02*
X93025260Y-50411779I499962J6163D01*
G01*
X92114230Y-50702586D02*
G75*
G02*
X92067422Y-50920058I-499962J-6162D01*
G01*
X91473354Y-52194041D02*
G75*
G02*
X91336849Y-52369685I-453154J211310D01*
G01*
X91699677Y-53254500D02*
G75*
G02*
X91336849Y-52369685I-46179J497862D01*
G01*
X91699676Y-53254501D02*
G75*
G02*
X91957164Y-53299210I46179J-497863D01*
G01*
X93397202Y-53970711D02*
G75*
G02*
X93596961Y-54139220I-211310J-453153D01*
G01*
X94507991Y-53848413D02*
G75*
G02*
X93596961Y-54139220I-499962J-6162D01*
G01*
X94507991Y-53848412D02*
G75*
G02*
X94554799Y-53630941I499962J6162D01*
G01*
X95148867Y-52356958D02*
G75*
G02*
X95285372Y-52181314I453153J-211310D01*
G01*
X94922544Y-51296499D02*
G75*
G02*
X95285372Y-52181314I46179J-497862D01*
G01*
%TO.C,D77*%
X213555703Y-86851837D02*
X214995739Y-86180337D01*
X213665960Y-89230990D02*
X213071892Y-87957008D01*
X216263594Y-88899259D02*
X214823557Y-89570759D01*
X216153337Y-86520107D02*
X216747405Y-87794089D01*
X215195498Y-86011828D02*
G75*
G02*
X214995739Y-86180337I-411068J284645D01*
G01*
X213555704Y-86851837D02*
G75*
G02*
X213298215Y-86896546I-211310J453154D01*
G01*
X212935388Y-87781364D02*
G75*
G02*
X213298215Y-86896546I316648J386955D01*
G01*
X212935387Y-87781363D02*
G75*
G02*
X213071892Y-87957008I-316648J-386954D01*
G01*
X213665960Y-89230991D02*
G75*
G02*
X213712768Y-89448462I-453154J-211308D01*
G01*
X214623799Y-89739268D02*
G75*
G02*
X213712768Y-89448462I-411069J284645D01*
G01*
X214623798Y-89739268D02*
G75*
G02*
X214823557Y-89570759I411068J-284645D01*
G01*
X216263595Y-88899260D02*
G75*
G02*
X216521083Y-88854551I211308J-453153D01*
G01*
X216883909Y-87969733D02*
G75*
G02*
X216521083Y-88854551I-316648J-386955D01*
G01*
X216883910Y-87969734D02*
G75*
G02*
X216747405Y-87794089I316649J386954D01*
G01*
X216153337Y-86520106D02*
G75*
G02*
X216106529Y-86302635I453154J211309D01*
G01*
X215195500Y-86011830D02*
G75*
G02*
X216106529Y-86302635I411068J-284644D01*
G01*
%TO.C,D70*%
X194222767Y-90350041D02*
X195662803Y-89678541D01*
X194333024Y-92729194D02*
X193738956Y-91455212D01*
X196930658Y-92397463D02*
X195490621Y-93068963D01*
X196820401Y-90018311D02*
X197414469Y-91292293D01*
X195862562Y-89510032D02*
G75*
G02*
X195662803Y-89678541I-411068J284645D01*
G01*
X194222768Y-90350041D02*
G75*
G02*
X193965279Y-90394750I-211310J453154D01*
G01*
X193602452Y-91279568D02*
G75*
G02*
X193965279Y-90394750I316648J386955D01*
G01*
X193602451Y-91279567D02*
G75*
G02*
X193738956Y-91455212I-316648J-386954D01*
G01*
X194333024Y-92729195D02*
G75*
G02*
X194379832Y-92946666I-453154J-211308D01*
G01*
X195290863Y-93237472D02*
G75*
G02*
X194379832Y-92946666I-411069J284645D01*
G01*
X195290862Y-93237472D02*
G75*
G02*
X195490621Y-93068963I411068J-284645D01*
G01*
X196930659Y-92397464D02*
G75*
G02*
X197188147Y-92352755I211308J-453153D01*
G01*
X197550973Y-91467937D02*
G75*
G02*
X197188147Y-92352755I-316648J-386955D01*
G01*
X197550974Y-91467938D02*
G75*
G02*
X197414469Y-91292293I316649J386954D01*
G01*
X196820401Y-90018310D02*
G75*
G02*
X196773593Y-89800839I453154J211309D01*
G01*
X195862564Y-89510034D02*
G75*
G02*
X196773593Y-89800839I411068J-284644D01*
G01*
%TO.C,D63*%
X185455278Y-116505945D02*
X186895314Y-115834445D01*
X185565535Y-118885098D02*
X184971467Y-117611116D01*
X188163169Y-118553367D02*
X186723132Y-119224867D01*
X188052912Y-116174215D02*
X188646980Y-117448197D01*
X187095073Y-115665936D02*
G75*
G02*
X186895314Y-115834445I-411068J284645D01*
G01*
X185455279Y-116505945D02*
G75*
G02*
X185197790Y-116550654I-211310J453154D01*
G01*
X184834963Y-117435472D02*
G75*
G02*
X185197790Y-116550654I316648J386955D01*
G01*
X184834962Y-117435471D02*
G75*
G02*
X184971467Y-117611116I-316648J-386954D01*
G01*
X185565535Y-118885099D02*
G75*
G02*
X185612343Y-119102570I-453154J-211308D01*
G01*
X186523374Y-119393376D02*
G75*
G02*
X185612343Y-119102570I-411069J284645D01*
G01*
X186523373Y-119393376D02*
G75*
G02*
X186723132Y-119224867I411068J-284645D01*
G01*
X188163170Y-118553368D02*
G75*
G02*
X188420658Y-118508659I211308J-453153D01*
G01*
X188783484Y-117623841D02*
G75*
G02*
X188420658Y-118508659I-316648J-386955D01*
G01*
X188783485Y-117623842D02*
G75*
G02*
X188646980Y-117448197I316649J386954D01*
G01*
X188052912Y-116174214D02*
G75*
G02*
X188006104Y-115956743I453154J211309D01*
G01*
X187095075Y-115665938D02*
G75*
G02*
X188006104Y-115956743I411068J-284644D01*
G01*
%TO.C,D62*%
X166344685Y-127699358D02*
X167646239Y-126788000D01*
X166866402Y-130023221D02*
X166060135Y-128871752D01*
X169366967Y-129245456D02*
X168065413Y-130156814D01*
X168845250Y-126921594D02*
X169651518Y-128073063D01*
X167813702Y-126587363D02*
G75*
G02*
X167646239Y-126788000I-454252J208939D01*
G01*
X166344685Y-127699359D02*
G75*
G02*
X166098871Y-127788101I-286789J409577D01*
G01*
X165895204Y-128722480D02*
G75*
G02*
X166098871Y-127788101I244643J436061D01*
G01*
X165895203Y-128722480D02*
G75*
G02*
X166060135Y-128871752I-244644J-436061D01*
G01*
X166866403Y-130023222D02*
G75*
G02*
X166950263Y-130229261I-409577J-286787D01*
G01*
X167897949Y-130357450D02*
G75*
G02*
X166950263Y-130229261I-454251J208939D01*
G01*
X167897950Y-130357450D02*
G75*
G02*
X168065413Y-130156814I454251J-208940D01*
G01*
X169366968Y-129245456D02*
G75*
G02*
X169612781Y-129156714I286788J-409576D01*
G01*
X169816449Y-128222335D02*
G75*
G02*
X169612781Y-129156714I-244644J-436061D01*
G01*
X169816450Y-128222335D02*
G75*
G02*
X169651518Y-128073063I244644J436061D01*
G01*
X168845251Y-126921592D02*
G75*
G02*
X168761390Y-126715554I409575J286787D01*
G01*
X167813702Y-126587365D02*
G75*
G02*
X168761390Y-126715554I454252J-208939D01*
G01*
%TO.C,D61*%
X149468140Y-142041242D02*
X150591664Y-140917718D01*
X150385466Y-144239205D02*
X149391497Y-143245237D01*
X152712984Y-143039037D02*
X151589459Y-144162563D01*
X151795659Y-140841075D02*
X152789627Y-141835044D01*
X150721743Y-140691050D02*
G75*
G02*
X150591664Y-140917718I-483632J126886D01*
G01*
X149468140Y-142041243D02*
G75*
G02*
X149241471Y-142171322I-353554J353554D01*
G01*
X149203150Y-143126872D02*
G75*
G02*
X149241471Y-142171322I165206J471918D01*
G01*
X149203150Y-143126873D02*
G75*
G02*
X149391497Y-143245237I-165206J-471917D01*
G01*
X150385467Y-144239206D02*
G75*
G02*
X150503831Y-144427553I-353555J-353553D01*
G01*
X151459379Y-144389229D02*
G75*
G02*
X150503831Y-144427553I-483631J126884D01*
G01*
X151459381Y-144389231D02*
G75*
G02*
X151589459Y-144162563I483631J-126885D01*
G01*
X152712986Y-143039038D02*
G75*
G02*
X152939654Y-142908959I353552J-353553D01*
G01*
X152977974Y-141953409D02*
G75*
G02*
X152939654Y-142908959I-165206J-471918D01*
G01*
X152977974Y-141953409D02*
G75*
G02*
X152789627Y-141835044I165207J471919D01*
G01*
X151795658Y-140841075D02*
G75*
G02*
X151677294Y-140652728I353554J353553D01*
G01*
X150721746Y-140691051D02*
G75*
G02*
X151677294Y-140652728I483631J-126884D01*
G01*
%TO.C,D60*%
X99100164Y-140917715D02*
X100223688Y-142041239D01*
X96902201Y-141835041D02*
X97896169Y-140841072D01*
X98102369Y-144162559D02*
X96978843Y-143039034D01*
X100300331Y-143245234D02*
X99306362Y-144239202D01*
X100450356Y-142171318D02*
G75*
G02*
X100223688Y-142041239I126886J483632D01*
G01*
X99100163Y-140917715D02*
G75*
G02*
X98970084Y-140691046I353554J353554D01*
G01*
X98014534Y-140652725D02*
G75*
G02*
X98970084Y-140691046I471918J-165206D01*
G01*
X98014533Y-140652725D02*
G75*
G02*
X97896169Y-140841072I-471917J165206D01*
G01*
X96902200Y-141835042D02*
G75*
G02*
X96713853Y-141953406I-353553J353555D01*
G01*
X96752177Y-142908954D02*
G75*
G02*
X96713853Y-141953406I126884J483631D01*
G01*
X96752175Y-142908956D02*
G75*
G02*
X96978843Y-143039034I-126885J-483631D01*
G01*
X98102368Y-144162561D02*
G75*
G02*
X98232447Y-144389229I-353553J-353552D01*
G01*
X99187997Y-144427549D02*
G75*
G02*
X98232447Y-144389229I-471918J165206D01*
G01*
X99187997Y-144427549D02*
G75*
G02*
X99306362Y-144239202I471919J-165207D01*
G01*
X100300331Y-143245233D02*
G75*
G02*
X100488678Y-143126869I353553J-353554D01*
G01*
X100450355Y-142171321D02*
G75*
G02*
X100488678Y-143126869I-126884J-483631D01*
G01*
%TO.C,D58*%
X62796504Y-115834448D02*
X64236540Y-116505948D01*
X61044838Y-117448200D02*
X61638906Y-116174218D01*
X62968685Y-119224870D02*
X61528648Y-118553370D01*
X64720351Y-117611119D02*
X64126283Y-118885101D01*
X64494028Y-116550657D02*
G75*
G02*
X64236540Y-116505948I-46179J497863D01*
G01*
X62796504Y-115834448D02*
G75*
G02*
X62596744Y-115665939I211309J453154D01*
G01*
X61685714Y-115956747D02*
G75*
G02*
X62596744Y-115665939I499962J6163D01*
G01*
X61685714Y-115956746D02*
G75*
G02*
X61638906Y-116174218I-499962J-6162D01*
G01*
X61044838Y-117448201D02*
G75*
G02*
X60908333Y-117623845I-453154J211310D01*
G01*
X61271161Y-118508660D02*
G75*
G02*
X60908333Y-117623845I-46179J497862D01*
G01*
X61271160Y-118508661D02*
G75*
G02*
X61528648Y-118553370I46179J-497863D01*
G01*
X62968686Y-119224871D02*
G75*
G02*
X63168445Y-119393380I-211310J-453153D01*
G01*
X64079475Y-119102573D02*
G75*
G02*
X63168445Y-119393380I-499962J-6162D01*
G01*
X64079475Y-119102572D02*
G75*
G02*
X64126283Y-118885101I499962J6162D01*
G01*
X64720351Y-117611118D02*
G75*
G02*
X64856856Y-117435474I453153J-211310D01*
G01*
X64494028Y-116550659D02*
G75*
G02*
X64856856Y-117435474I46179J-497862D01*
G01*
%TO.C,D51*%
X54029024Y-89678545D02*
X55469060Y-90350045D01*
X52277358Y-91292297D02*
X52871426Y-90018315D01*
X54201205Y-93068967D02*
X52761168Y-92397467D01*
X55952871Y-91455216D02*
X55358803Y-92729198D01*
X55726548Y-90394754D02*
G75*
G02*
X55469060Y-90350045I-46179J497863D01*
G01*
X54029024Y-89678545D02*
G75*
G02*
X53829264Y-89510036I211309J453154D01*
G01*
X52918234Y-89800844D02*
G75*
G02*
X53829264Y-89510036I499962J6163D01*
G01*
X52918234Y-89800843D02*
G75*
G02*
X52871426Y-90018315I-499962J-6162D01*
G01*
X52277358Y-91292298D02*
G75*
G02*
X52140853Y-91467942I-453154J211310D01*
G01*
X52503681Y-92352757D02*
G75*
G02*
X52140853Y-91467942I-46179J497862D01*
G01*
X52503680Y-92352758D02*
G75*
G02*
X52761168Y-92397467I46179J-497863D01*
G01*
X54201206Y-93068968D02*
G75*
G02*
X54400965Y-93237477I-211310J-453153D01*
G01*
X55311995Y-92946670D02*
G75*
G02*
X54400965Y-93237477I-499962J-6162D01*
G01*
X55311995Y-92946669D02*
G75*
G02*
X55358803Y-92729198I499962J6162D01*
G01*
X55952871Y-91455215D02*
G75*
G02*
X56089376Y-91279571I453153J-211310D01*
G01*
X55726548Y-90394756D02*
G75*
G02*
X56089376Y-91279571I46179J-497862D01*
G01*
%TO.C,D44*%
X34696086Y-86180337D02*
X36136122Y-86851837D01*
X32944420Y-87794089D02*
X33538488Y-86520107D01*
X34868267Y-89570759D02*
X33428230Y-88899259D01*
X36619933Y-87957008D02*
X36025865Y-89230990D01*
X36393610Y-86896546D02*
G75*
G02*
X36136122Y-86851837I-46179J497863D01*
G01*
X34696086Y-86180337D02*
G75*
G02*
X34496326Y-86011828I211309J453154D01*
G01*
X33585296Y-86302636D02*
G75*
G02*
X34496326Y-86011828I499962J6163D01*
G01*
X33585296Y-86302635D02*
G75*
G02*
X33538488Y-86520107I-499962J-6162D01*
G01*
X32944420Y-87794090D02*
G75*
G02*
X32807915Y-87969734I-453154J211310D01*
G01*
X33170743Y-88854549D02*
G75*
G02*
X32807915Y-87969734I-46179J497862D01*
G01*
X33170742Y-88854550D02*
G75*
G02*
X33428230Y-88899259I46179J-497863D01*
G01*
X34868268Y-89570760D02*
G75*
G02*
X35068027Y-89739269I-211310J-453153D01*
G01*
X35979057Y-89448462D02*
G75*
G02*
X35068027Y-89739269I-499962J-6162D01*
G01*
X35979057Y-89448461D02*
G75*
G02*
X36025865Y-89230990I499962J6162D01*
G01*
X36619933Y-87957007D02*
G75*
G02*
X36756438Y-87781363I453153J-211310D01*
G01*
X36393610Y-86896548D02*
G75*
G02*
X36756438Y-87781363I46179J-497862D01*
G01*
%TO.C,D78*%
X228028529Y-72931089D02*
X229468565Y-72259589D01*
X228138786Y-75310242D02*
X227544718Y-74036260D01*
X230736420Y-74978511D02*
X229296383Y-75650011D01*
X230626163Y-72599359D02*
X231220231Y-73873341D01*
X229668324Y-72091080D02*
G75*
G02*
X229468565Y-72259589I-411068J284645D01*
G01*
X228028530Y-72931089D02*
G75*
G02*
X227771041Y-72975798I-211310J453154D01*
G01*
X227408214Y-73860616D02*
G75*
G02*
X227771041Y-72975798I316648J386955D01*
G01*
X227408213Y-73860615D02*
G75*
G02*
X227544718Y-74036260I-316648J-386954D01*
G01*
X228138786Y-75310243D02*
G75*
G02*
X228185594Y-75527714I-453154J-211308D01*
G01*
X229096625Y-75818520D02*
G75*
G02*
X228185594Y-75527714I-411069J284645D01*
G01*
X229096624Y-75818520D02*
G75*
G02*
X229296383Y-75650011I411068J-284645D01*
G01*
X230736421Y-74978512D02*
G75*
G02*
X230993909Y-74933803I211308J-453153D01*
G01*
X231356735Y-74048985D02*
G75*
G02*
X230993909Y-74933803I-316648J-386955D01*
G01*
X231356736Y-74048986D02*
G75*
G02*
X231220231Y-73873341I316649J386954D01*
G01*
X230626163Y-72599358D02*
G75*
G02*
X230579355Y-72381887I453154J211309D01*
G01*
X229668326Y-72091082D02*
G75*
G02*
X230579355Y-72381887I411068J-284644D01*
G01*
%TO.C,D76*%
X205525956Y-69631990D02*
X206965992Y-68960490D01*
X205636213Y-72011143D02*
X205042145Y-70737161D01*
X208233847Y-71679412D02*
X206793810Y-72350912D01*
X208123590Y-69300260D02*
X208717658Y-70574242D01*
X207165751Y-68791981D02*
G75*
G02*
X206965992Y-68960490I-411068J284645D01*
G01*
X205525957Y-69631990D02*
G75*
G02*
X205268468Y-69676699I-211310J453154D01*
G01*
X204905641Y-70561517D02*
G75*
G02*
X205268468Y-69676699I316648J386955D01*
G01*
X204905640Y-70561516D02*
G75*
G02*
X205042145Y-70737161I-316648J-386954D01*
G01*
X205636213Y-72011144D02*
G75*
G02*
X205683021Y-72228615I-453154J-211308D01*
G01*
X206594052Y-72519421D02*
G75*
G02*
X205683021Y-72228615I-411069J284645D01*
G01*
X206594051Y-72519421D02*
G75*
G02*
X206793810Y-72350912I411068J-284645D01*
G01*
X208233848Y-71679413D02*
G75*
G02*
X208491336Y-71634704I211308J-453153D01*
G01*
X208854162Y-70749886D02*
G75*
G02*
X208491336Y-71634704I-316648J-386955D01*
G01*
X208854163Y-70749887D02*
G75*
G02*
X208717658Y-70574242I316649J386954D01*
G01*
X208123590Y-69300259D02*
G75*
G02*
X208076782Y-69082788I453154J211309D01*
G01*
X207165753Y-68791983D02*
G75*
G02*
X208076782Y-69082788I411068J-284644D01*
G01*
%TO.C,D71*%
X186193018Y-73130200D02*
X187633054Y-72458700D01*
X186303275Y-75509353D02*
X185709207Y-74235371D01*
X188900909Y-75177622D02*
X187460872Y-75849122D01*
X188790652Y-72798470D02*
X189384720Y-74072452D01*
X187832813Y-72290191D02*
G75*
G02*
X187633054Y-72458700I-411068J284645D01*
G01*
X186193019Y-73130200D02*
G75*
G02*
X185935530Y-73174909I-211310J453154D01*
G01*
X185572703Y-74059727D02*
G75*
G02*
X185935530Y-73174909I316648J386955D01*
G01*
X185572702Y-74059726D02*
G75*
G02*
X185709207Y-74235371I-316648J-386954D01*
G01*
X186303275Y-75509354D02*
G75*
G02*
X186350083Y-75726825I-453154J-211308D01*
G01*
X187261114Y-76017631D02*
G75*
G02*
X186350083Y-75726825I-411069J284645D01*
G01*
X187261113Y-76017631D02*
G75*
G02*
X187460872Y-75849122I411068J-284645D01*
G01*
X188900910Y-75177623D02*
G75*
G02*
X189158398Y-75132914I211308J-453153D01*
G01*
X189521224Y-74248096D02*
G75*
G02*
X189158398Y-75132914I-316648J-386955D01*
G01*
X189521225Y-74248097D02*
G75*
G02*
X189384720Y-74072452I316649J386954D01*
G01*
X188790652Y-72798469D02*
G75*
G02*
X188743844Y-72580998I453154J211309D01*
G01*
X187832815Y-72290193D02*
G75*
G02*
X188743844Y-72580998I411068J-284644D01*
G01*
%TO.C,D69*%
X171086261Y-85691482D02*
X172526297Y-85019982D01*
X171196518Y-88070635D02*
X170602450Y-86796653D01*
X173794152Y-87738904D02*
X172354115Y-88410404D01*
X173683895Y-85359752D02*
X174277963Y-86633734D01*
X172726056Y-84851473D02*
G75*
G02*
X172526297Y-85019982I-411068J284645D01*
G01*
X171086262Y-85691482D02*
G75*
G02*
X170828773Y-85736191I-211310J453154D01*
G01*
X170465946Y-86621009D02*
G75*
G02*
X170828773Y-85736191I316648J386955D01*
G01*
X170465945Y-86621008D02*
G75*
G02*
X170602450Y-86796653I-316648J-386954D01*
G01*
X171196518Y-88070636D02*
G75*
G02*
X171243326Y-88288107I-453154J-211308D01*
G01*
X172154357Y-88578913D02*
G75*
G02*
X171243326Y-88288107I-411069J284645D01*
G01*
X172154356Y-88578913D02*
G75*
G02*
X172354115Y-88410404I411068J-284645D01*
G01*
X173794153Y-87738905D02*
G75*
G02*
X174051641Y-87694196I211308J-453153D01*
G01*
X174414467Y-86809378D02*
G75*
G02*
X174051641Y-87694196I-316648J-386955D01*
G01*
X174414468Y-86809379D02*
G75*
G02*
X174277963Y-86633734I316649J386954D01*
G01*
X173683895Y-85359751D02*
G75*
G02*
X173637087Y-85142280I453154J211309D01*
G01*
X172726058Y-84851475D02*
G75*
G02*
X173637087Y-85142280I411068J-284644D01*
G01*
%TO.C,D64*%
X154922958Y-95987001D02*
X156362994Y-95315501D01*
X155033215Y-98366154D02*
X154439147Y-97092172D01*
X157630849Y-98034423D02*
X156190812Y-98705923D01*
X157520592Y-95655271D02*
X158114660Y-96929253D01*
X156562753Y-95146992D02*
G75*
G02*
X156362994Y-95315501I-411068J284645D01*
G01*
X154922959Y-95987001D02*
G75*
G02*
X154665470Y-96031710I-211310J453154D01*
G01*
X154302643Y-96916528D02*
G75*
G02*
X154665470Y-96031710I316648J386955D01*
G01*
X154302642Y-96916527D02*
G75*
G02*
X154439147Y-97092172I-316648J-386954D01*
G01*
X155033215Y-98366155D02*
G75*
G02*
X155080023Y-98583626I-453154J-211308D01*
G01*
X155991054Y-98874432D02*
G75*
G02*
X155080023Y-98583626I-411069J284645D01*
G01*
X155991053Y-98874432D02*
G75*
G02*
X156190812Y-98705923I411068J-284645D01*
G01*
X157630850Y-98034424D02*
G75*
G02*
X157888338Y-97989715I211308J-453153D01*
G01*
X158251164Y-97104897D02*
G75*
G02*
X157888338Y-97989715I-316648J-386955D01*
G01*
X158251165Y-97104898D02*
G75*
G02*
X158114660Y-96929253I316649J386954D01*
G01*
X157520592Y-95655270D02*
G75*
G02*
X157473784Y-95437799I453154J211309D01*
G01*
X156562755Y-95146994D02*
G75*
G02*
X157473784Y-95437799I411068J-284644D01*
G01*
%TO.C,D50*%
X62058771Y-72458696D02*
X63498807Y-73130196D01*
X60307105Y-74072448D02*
X60901173Y-72798466D01*
X62230952Y-75849118D02*
X60790915Y-75177618D01*
X63982618Y-74235367D02*
X63388550Y-75509349D01*
X63756295Y-73174905D02*
G75*
G02*
X63498807Y-73130196I-46179J497863D01*
G01*
X62058771Y-72458696D02*
G75*
G02*
X61859011Y-72290187I211309J453154D01*
G01*
X60947981Y-72580995D02*
G75*
G02*
X61859011Y-72290187I499962J6163D01*
G01*
X60947981Y-72580994D02*
G75*
G02*
X60901173Y-72798466I-499962J-6162D01*
G01*
X60307105Y-74072449D02*
G75*
G02*
X60170600Y-74248093I-453154J211310D01*
G01*
X60533428Y-75132908D02*
G75*
G02*
X60170600Y-74248093I-46179J497862D01*
G01*
X60533427Y-75132909D02*
G75*
G02*
X60790915Y-75177618I46179J-497863D01*
G01*
X62230953Y-75849119D02*
G75*
G02*
X62430712Y-76017628I-211310J-453153D01*
G01*
X63341742Y-75726821D02*
G75*
G02*
X62430712Y-76017628I-499962J-6162D01*
G01*
X63341742Y-75726820D02*
G75*
G02*
X63388550Y-75509349I499962J6162D01*
G01*
X63982618Y-74235366D02*
G75*
G02*
X64119123Y-74059722I453153J-211310D01*
G01*
X63756295Y-73174907D02*
G75*
G02*
X64119123Y-74059722I46179J-497862D01*
G01*
%TO.C,D43*%
X20223255Y-72259590D02*
X21663291Y-72931090D01*
X18471589Y-73873342D02*
X19065657Y-72599360D01*
X20395436Y-75650012D02*
X18955399Y-74978512D01*
X22147102Y-74036261D02*
X21553034Y-75310243D01*
X21920779Y-72975799D02*
G75*
G02*
X21663291Y-72931090I-46179J497863D01*
G01*
X20223255Y-72259590D02*
G75*
G02*
X20023495Y-72091081I211309J453154D01*
G01*
X19112465Y-72381889D02*
G75*
G02*
X20023495Y-72091081I499962J6163D01*
G01*
X19112465Y-72381888D02*
G75*
G02*
X19065657Y-72599360I-499962J-6162D01*
G01*
X18471589Y-73873343D02*
G75*
G02*
X18335084Y-74048987I-453154J211310D01*
G01*
X18697912Y-74933802D02*
G75*
G02*
X18335084Y-74048987I-46179J497862D01*
G01*
X18697911Y-74933803D02*
G75*
G02*
X18955399Y-74978512I46179J-497863D01*
G01*
X20395437Y-75650013D02*
G75*
G02*
X20595196Y-75818522I-211310J-453153D01*
G01*
X21506226Y-75527715D02*
G75*
G02*
X20595196Y-75818522I-499962J-6162D01*
G01*
X21506226Y-75527714D02*
G75*
G02*
X21553034Y-75310243I499962J6162D01*
G01*
X22147102Y-74036260D02*
G75*
G02*
X22283607Y-73860616I453153J-211310D01*
G01*
X21920779Y-72975801D02*
G75*
G02*
X22283607Y-73860616I46179J-497862D01*
G01*
%TO.C,D79*%
X219998782Y-55711242D02*
X221438818Y-55039742D01*
X220109039Y-58090395D02*
X219514971Y-56816413D01*
X222706673Y-57758664D02*
X221266636Y-58430164D01*
X222596416Y-55379512D02*
X223190484Y-56653494D01*
X221638577Y-54871233D02*
G75*
G02*
X221438818Y-55039742I-411068J284645D01*
G01*
X219998783Y-55711242D02*
G75*
G02*
X219741294Y-55755951I-211310J453154D01*
G01*
X219378467Y-56640769D02*
G75*
G02*
X219741294Y-55755951I316648J386955D01*
G01*
X219378466Y-56640768D02*
G75*
G02*
X219514971Y-56816413I-316648J-386954D01*
G01*
X220109039Y-58090396D02*
G75*
G02*
X220155847Y-58307867I-453154J-211308D01*
G01*
X221066878Y-58598673D02*
G75*
G02*
X220155847Y-58307867I-411069J284645D01*
G01*
X221066877Y-58598673D02*
G75*
G02*
X221266636Y-58430164I411068J-284645D01*
G01*
X222706674Y-57758665D02*
G75*
G02*
X222964162Y-57713956I211308J-453153D01*
G01*
X223326988Y-56829138D02*
G75*
G02*
X222964162Y-57713956I-316648J-386955D01*
G01*
X223326989Y-56829139D02*
G75*
G02*
X223190484Y-56653494I316649J386954D01*
G01*
X222596416Y-55379511D02*
G75*
G02*
X222549608Y-55162040I453154J211309D01*
G01*
X221638579Y-54871235D02*
G75*
G02*
X222549608Y-55162040I411068J-284644D01*
G01*
%TO.C,D75*%
X197496210Y-52412141D02*
X198936246Y-51740641D01*
X197606467Y-54791294D02*
X197012399Y-53517312D01*
X200204101Y-54459563D02*
X198764064Y-55131063D01*
X200093844Y-52080411D02*
X200687912Y-53354393D01*
X199136005Y-51572132D02*
G75*
G02*
X198936246Y-51740641I-411068J284645D01*
G01*
X197496211Y-52412141D02*
G75*
G02*
X197238722Y-52456850I-211310J453154D01*
G01*
X196875895Y-53341668D02*
G75*
G02*
X197238722Y-52456850I316648J386955D01*
G01*
X196875894Y-53341667D02*
G75*
G02*
X197012399Y-53517312I-316648J-386954D01*
G01*
X197606467Y-54791295D02*
G75*
G02*
X197653275Y-55008766I-453154J-211308D01*
G01*
X198564306Y-55299572D02*
G75*
G02*
X197653275Y-55008766I-411069J284645D01*
G01*
X198564305Y-55299572D02*
G75*
G02*
X198764064Y-55131063I411068J-284645D01*
G01*
X200204102Y-54459564D02*
G75*
G02*
X200461590Y-54414855I211308J-453153D01*
G01*
X200824416Y-53530037D02*
G75*
G02*
X200461590Y-54414855I-316648J-386955D01*
G01*
X200824417Y-53530038D02*
G75*
G02*
X200687912Y-53354393I316649J386954D01*
G01*
X200093844Y-52080410D02*
G75*
G02*
X200047036Y-51862939I453154J211309D01*
G01*
X199136007Y-51572134D02*
G75*
G02*
X200047036Y-51862939I411068J-284644D01*
G01*
%TO.C,D72*%
X178163268Y-55910351D02*
X179603304Y-55238851D01*
X178273525Y-58289504D02*
X177679457Y-57015522D01*
X180871159Y-57957773D02*
X179431122Y-58629273D01*
X180760902Y-55578621D02*
X181354970Y-56852603D01*
X179803063Y-55070342D02*
G75*
G02*
X179603304Y-55238851I-411068J284645D01*
G01*
X178163269Y-55910351D02*
G75*
G02*
X177905780Y-55955060I-211310J453154D01*
G01*
X177542953Y-56839878D02*
G75*
G02*
X177905780Y-55955060I316648J386955D01*
G01*
X177542952Y-56839877D02*
G75*
G02*
X177679457Y-57015522I-316648J-386954D01*
G01*
X178273525Y-58289505D02*
G75*
G02*
X178320333Y-58506976I-453154J-211308D01*
G01*
X179231364Y-58797782D02*
G75*
G02*
X178320333Y-58506976I-411069J284645D01*
G01*
X179231363Y-58797782D02*
G75*
G02*
X179431122Y-58629273I411068J-284645D01*
G01*
X180871160Y-57957774D02*
G75*
G02*
X181128648Y-57913065I211308J-453153D01*
G01*
X181491474Y-57028247D02*
G75*
G02*
X181128648Y-57913065I-316648J-386955D01*
G01*
X181491475Y-57028248D02*
G75*
G02*
X181354970Y-56852603I316649J386954D01*
G01*
X180760902Y-55578620D02*
G75*
G02*
X180714094Y-55361149I453154J211309D01*
G01*
X179803065Y-55070344D02*
G75*
G02*
X180714094Y-55361149I411068J-284644D01*
G01*
%TO.C,D68*%
X163056516Y-68471637D02*
X164496552Y-67800137D01*
X163166773Y-70850790D02*
X162572705Y-69576808D01*
X165764407Y-70519059D02*
X164324370Y-71190559D01*
X165654150Y-68139907D02*
X166248218Y-69413889D01*
X164696311Y-67631628D02*
G75*
G02*
X164496552Y-67800137I-411068J284645D01*
G01*
X163056517Y-68471637D02*
G75*
G02*
X162799028Y-68516346I-211310J453154D01*
G01*
X162436201Y-69401164D02*
G75*
G02*
X162799028Y-68516346I316648J386955D01*
G01*
X162436200Y-69401163D02*
G75*
G02*
X162572705Y-69576808I-316648J-386954D01*
G01*
X163166773Y-70850791D02*
G75*
G02*
X163213581Y-71068262I-453154J-211308D01*
G01*
X164124612Y-71359068D02*
G75*
G02*
X163213581Y-71068262I-411069J284645D01*
G01*
X164124611Y-71359068D02*
G75*
G02*
X164324370Y-71190559I411068J-284645D01*
G01*
X165764408Y-70519060D02*
G75*
G02*
X166021896Y-70474351I211308J-453153D01*
G01*
X166384722Y-69589533D02*
G75*
G02*
X166021896Y-70474351I-316648J-386955D01*
G01*
X166384723Y-69589534D02*
G75*
G02*
X166248218Y-69413889I316649J386954D01*
G01*
X165654150Y-68139906D02*
G75*
G02*
X165607342Y-67922435I453154J211309D01*
G01*
X164696313Y-67631630D02*
G75*
G02*
X165607342Y-67922435I411068J-284644D01*
G01*
%TO.C,D49*%
X70088518Y-55238852D02*
X71528554Y-55910352D01*
X68336852Y-56852604D02*
X68930920Y-55578622D01*
X70260699Y-58629274D02*
X68820662Y-57957774D01*
X72012365Y-57015523D02*
X71418297Y-58289505D01*
X71786042Y-55955061D02*
G75*
G02*
X71528554Y-55910352I-46179J497863D01*
G01*
X70088518Y-55238852D02*
G75*
G02*
X69888758Y-55070343I211309J453154D01*
G01*
X68977728Y-55361151D02*
G75*
G02*
X69888758Y-55070343I499962J6163D01*
G01*
X68977728Y-55361150D02*
G75*
G02*
X68930920Y-55578622I-499962J-6162D01*
G01*
X68336852Y-56852605D02*
G75*
G02*
X68200347Y-57028249I-453154J211310D01*
G01*
X68563175Y-57913064D02*
G75*
G02*
X68200347Y-57028249I-46179J497862D01*
G01*
X68563174Y-57913065D02*
G75*
G02*
X68820662Y-57957774I46179J-497863D01*
G01*
X70260700Y-58629275D02*
G75*
G02*
X70460459Y-58797784I-211310J-453153D01*
G01*
X71371489Y-58506977D02*
G75*
G02*
X70460459Y-58797784I-499962J-6162D01*
G01*
X71371489Y-58506976D02*
G75*
G02*
X71418297Y-58289505I499962J6162D01*
G01*
X72012365Y-57015522D02*
G75*
G02*
X72148870Y-56839878I453153J-211310D01*
G01*
X71786042Y-55955063D02*
G75*
G02*
X72148870Y-56839878I46179J-497862D01*
G01*
%TO.C,D46*%
X50755580Y-51740642D02*
X52195616Y-52412142D01*
X49003914Y-53354394D02*
X49597982Y-52080412D01*
X50927761Y-55131064D02*
X49487724Y-54459564D01*
X52679427Y-53517313D02*
X52085359Y-54791295D01*
X52453104Y-52456851D02*
G75*
G02*
X52195616Y-52412142I-46179J497863D01*
G01*
X50755580Y-51740642D02*
G75*
G02*
X50555820Y-51572133I211309J453154D01*
G01*
X49644790Y-51862941D02*
G75*
G02*
X50555820Y-51572133I499962J6163D01*
G01*
X49644790Y-51862940D02*
G75*
G02*
X49597982Y-52080412I-499962J-6162D01*
G01*
X49003914Y-53354395D02*
G75*
G02*
X48867409Y-53530039I-453154J211310D01*
G01*
X49230237Y-54414854D02*
G75*
G02*
X48867409Y-53530039I-46179J497862D01*
G01*
X49230236Y-54414855D02*
G75*
G02*
X49487724Y-54459564I46179J-497863D01*
G01*
X50927762Y-55131065D02*
G75*
G02*
X51127521Y-55299574I-211310J-453153D01*
G01*
X52038551Y-55008767D02*
G75*
G02*
X51127521Y-55299574I-499962J-6162D01*
G01*
X52038551Y-55008766D02*
G75*
G02*
X52085359Y-54791295I499962J6162D01*
G01*
X52679427Y-53517312D02*
G75*
G02*
X52815932Y-53341668I453153J-211310D01*
G01*
X52453104Y-52456853D02*
G75*
G02*
X52815932Y-53341668I46179J-497862D01*
G01*
%TO.C,D42*%
X28253006Y-55039742D02*
X29693042Y-55711242D01*
X26501340Y-56653494D02*
X27095408Y-55379512D01*
X28425187Y-58430164D02*
X26985150Y-57758664D01*
X30176853Y-56816413D02*
X29582785Y-58090395D01*
X29950530Y-55755951D02*
G75*
G02*
X29693042Y-55711242I-46179J497863D01*
G01*
X28253006Y-55039742D02*
G75*
G02*
X28053246Y-54871233I211309J453154D01*
G01*
X27142216Y-55162041D02*
G75*
G02*
X28053246Y-54871233I499962J6163D01*
G01*
X27142216Y-55162040D02*
G75*
G02*
X27095408Y-55379512I-499962J-6162D01*
G01*
X26501340Y-56653495D02*
G75*
G02*
X26364835Y-56829139I-453154J211310D01*
G01*
X26727663Y-57713954D02*
G75*
G02*
X26364835Y-56829139I-46179J497862D01*
G01*
X26727662Y-57713955D02*
G75*
G02*
X26985150Y-57758664I46179J-497863D01*
G01*
X28425188Y-58430165D02*
G75*
G02*
X28624947Y-58598674I-211310J-453153D01*
G01*
X29535977Y-58307867D02*
G75*
G02*
X28624947Y-58598674I-499962J-6162D01*
G01*
X29535977Y-58307866D02*
G75*
G02*
X29582785Y-58090395I499962J6162D01*
G01*
X30176853Y-56816412D02*
G75*
G02*
X30313358Y-56640768I453153J-211310D01*
G01*
X29950530Y-55755953D02*
G75*
G02*
X30313358Y-56640768I46179J-497862D01*
G01*
%TO.C,D80*%
X211969036Y-38491395D02*
X213409072Y-37819895D01*
X212079293Y-40870548D02*
X211485225Y-39596566D01*
X214676927Y-40538817D02*
X213236890Y-41210317D01*
X214566670Y-38159665D02*
X215160738Y-39433647D01*
X213608831Y-37651386D02*
G75*
G02*
X213409072Y-37819895I-411068J284645D01*
G01*
X211969037Y-38491395D02*
G75*
G02*
X211711548Y-38536104I-211310J453154D01*
G01*
X211348721Y-39420922D02*
G75*
G02*
X211711548Y-38536104I316648J386955D01*
G01*
X211348720Y-39420921D02*
G75*
G02*
X211485225Y-39596566I-316648J-386954D01*
G01*
X212079293Y-40870549D02*
G75*
G02*
X212126101Y-41088020I-453154J-211308D01*
G01*
X213037132Y-41378826D02*
G75*
G02*
X212126101Y-41088020I-411069J284645D01*
G01*
X213037131Y-41378826D02*
G75*
G02*
X213236890Y-41210317I411068J-284645D01*
G01*
X214676928Y-40538818D02*
G75*
G02*
X214934416Y-40494109I211308J-453153D01*
G01*
X215297242Y-39609291D02*
G75*
G02*
X214934416Y-40494109I-316648J-386955D01*
G01*
X215297243Y-39609292D02*
G75*
G02*
X215160738Y-39433647I316649J386954D01*
G01*
X214566670Y-38159664D02*
G75*
G02*
X214519862Y-37942193I453154J211309D01*
G01*
X213608833Y-37651388D02*
G75*
G02*
X214519862Y-37942193I411068J-284644D01*
G01*
%TO.C,D74*%
X189466461Y-35192296D02*
X190906497Y-34520796D01*
X189576718Y-37571449D02*
X188982650Y-36297467D01*
X192174352Y-37239718D02*
X190734315Y-37911218D01*
X192064095Y-34860566D02*
X192658163Y-36134548D01*
X191106256Y-34352287D02*
G75*
G02*
X190906497Y-34520796I-411068J284645D01*
G01*
X189466462Y-35192296D02*
G75*
G02*
X189208973Y-35237005I-211310J453154D01*
G01*
X188846146Y-36121823D02*
G75*
G02*
X189208973Y-35237005I316648J386955D01*
G01*
X188846145Y-36121822D02*
G75*
G02*
X188982650Y-36297467I-316648J-386954D01*
G01*
X189576718Y-37571450D02*
G75*
G02*
X189623526Y-37788921I-453154J-211308D01*
G01*
X190534557Y-38079727D02*
G75*
G02*
X189623526Y-37788921I-411069J284645D01*
G01*
X190534556Y-38079727D02*
G75*
G02*
X190734315Y-37911218I411068J-284645D01*
G01*
X192174353Y-37239719D02*
G75*
G02*
X192431841Y-37195010I211308J-453153D01*
G01*
X192794667Y-36310192D02*
G75*
G02*
X192431841Y-37195010I-316648J-386955D01*
G01*
X192794668Y-36310193D02*
G75*
G02*
X192658163Y-36134548I316649J386954D01*
G01*
X192064095Y-34860565D02*
G75*
G02*
X192017287Y-34643094I453154J211309D01*
G01*
X191106258Y-34352289D02*
G75*
G02*
X192017287Y-34643094I411068J-284644D01*
G01*
%TO.C,D73*%
X170133524Y-38690506D02*
X171573560Y-38019006D01*
X170243781Y-41069659D02*
X169649713Y-39795677D01*
X172841415Y-40737928D02*
X171401378Y-41409428D01*
X172731158Y-38358776D02*
X173325226Y-39632758D01*
X171773319Y-37850497D02*
G75*
G02*
X171573560Y-38019006I-411068J284645D01*
G01*
X170133525Y-38690506D02*
G75*
G02*
X169876036Y-38735215I-211310J453154D01*
G01*
X169513209Y-39620033D02*
G75*
G02*
X169876036Y-38735215I316648J386955D01*
G01*
X169513208Y-39620032D02*
G75*
G02*
X169649713Y-39795677I-316648J-386954D01*
G01*
X170243781Y-41069660D02*
G75*
G02*
X170290589Y-41287131I-453154J-211308D01*
G01*
X171201620Y-41577937D02*
G75*
G02*
X170290589Y-41287131I-411069J284645D01*
G01*
X171201619Y-41577937D02*
G75*
G02*
X171401378Y-41409428I411068J-284645D01*
G01*
X172841416Y-40737929D02*
G75*
G02*
X173098904Y-40693220I211308J-453153D01*
G01*
X173461730Y-39808402D02*
G75*
G02*
X173098904Y-40693220I-316648J-386955D01*
G01*
X173461731Y-39808403D02*
G75*
G02*
X173325226Y-39632758I316649J386954D01*
G01*
X172731158Y-38358775D02*
G75*
G02*
X172684350Y-38141304I453154J211309D01*
G01*
X171773321Y-37850499D02*
G75*
G02*
X172684350Y-38141304I411068J-284644D01*
G01*
%TO.C,D67*%
X155026769Y-51251789D02*
X156466805Y-50580289D01*
X155137026Y-53630942D02*
X154542958Y-52356960D01*
X157734660Y-53299211D02*
X156294623Y-53970711D01*
X157624403Y-50920059D02*
X158218471Y-52194041D01*
X156666564Y-50411780D02*
G75*
G02*
X156466805Y-50580289I-411068J284645D01*
G01*
X155026770Y-51251789D02*
G75*
G02*
X154769281Y-51296498I-211310J453154D01*
G01*
X154406454Y-52181316D02*
G75*
G02*
X154769281Y-51296498I316648J386955D01*
G01*
X154406453Y-52181315D02*
G75*
G02*
X154542958Y-52356960I-316648J-386954D01*
G01*
X155137026Y-53630943D02*
G75*
G02*
X155183834Y-53848414I-453154J-211308D01*
G01*
X156094865Y-54139220D02*
G75*
G02*
X155183834Y-53848414I-411069J284645D01*
G01*
X156094864Y-54139220D02*
G75*
G02*
X156294623Y-53970711I411068J-284645D01*
G01*
X157734661Y-53299212D02*
G75*
G02*
X157992149Y-53254503I211308J-453153D01*
G01*
X158354975Y-52369685D02*
G75*
G02*
X157992149Y-53254503I-316648J-386955D01*
G01*
X158354976Y-52369686D02*
G75*
G02*
X158218471Y-52194041I316649J386954D01*
G01*
X157624403Y-50920058D02*
G75*
G02*
X157577595Y-50702587I453154J211309D01*
G01*
X156666566Y-50411782D02*
G75*
G02*
X157577595Y-50702587I411068J-284644D01*
G01*
%TO.C,D66*%
X138863463Y-61547302D02*
X140303499Y-60875802D01*
X138973720Y-63926455D02*
X138379652Y-62652473D01*
X141571354Y-63594724D02*
X140131317Y-64266224D01*
X141461097Y-61215572D02*
X142055165Y-62489554D01*
X140503258Y-60707293D02*
G75*
G02*
X140303499Y-60875802I-411068J284645D01*
G01*
X138863464Y-61547302D02*
G75*
G02*
X138605975Y-61592011I-211310J453154D01*
G01*
X138243148Y-62476829D02*
G75*
G02*
X138605975Y-61592011I316648J386955D01*
G01*
X138243147Y-62476828D02*
G75*
G02*
X138379652Y-62652473I-316648J-386954D01*
G01*
X138973720Y-63926456D02*
G75*
G02*
X139020528Y-64143927I-453154J-211308D01*
G01*
X139931559Y-64434733D02*
G75*
G02*
X139020528Y-64143927I-411069J284645D01*
G01*
X139931558Y-64434733D02*
G75*
G02*
X140131317Y-64266224I411068J-284645D01*
G01*
X141571355Y-63594725D02*
G75*
G02*
X141828843Y-63550016I211308J-453153D01*
G01*
X142191669Y-62665198D02*
G75*
G02*
X141828843Y-63550016I-316648J-386955D01*
G01*
X142191670Y-62665199D02*
G75*
G02*
X142055165Y-62489554I316649J386954D01*
G01*
X141461097Y-61215571D02*
G75*
G02*
X141414289Y-60998100I453154J211309D01*
G01*
X140503260Y-60707295D02*
G75*
G02*
X141414289Y-60998100I411068J-284644D01*
G01*
%TO.C,D55*%
X109388321Y-60875806D02*
X110828357Y-61547306D01*
X107636655Y-62489558D02*
X108230723Y-61215576D01*
X109560502Y-64266228D02*
X108120465Y-63594728D01*
X111312168Y-62652477D02*
X110718100Y-63926459D01*
X111085845Y-61592015D02*
G75*
G02*
X110828357Y-61547306I-46179J497863D01*
G01*
X109388321Y-60875806D02*
G75*
G02*
X109188561Y-60707297I211309J453154D01*
G01*
X108277531Y-60998105D02*
G75*
G02*
X109188561Y-60707297I499962J6163D01*
G01*
X108277531Y-60998104D02*
G75*
G02*
X108230723Y-61215576I-499962J-6162D01*
G01*
X107636655Y-62489559D02*
G75*
G02*
X107500150Y-62665203I-453154J211310D01*
G01*
X107862978Y-63550018D02*
G75*
G02*
X107500150Y-62665203I-46179J497862D01*
G01*
X107862977Y-63550019D02*
G75*
G02*
X108120465Y-63594728I46179J-497863D01*
G01*
X109560503Y-64266229D02*
G75*
G02*
X109760262Y-64434738I-211310J-453153D01*
G01*
X110671292Y-64143931D02*
G75*
G02*
X109760262Y-64434738I-499962J-6162D01*
G01*
X110671292Y-64143930D02*
G75*
G02*
X110718100Y-63926459I499962J6162D01*
G01*
X111312168Y-62652476D02*
G75*
G02*
X111448673Y-62476832I453153J-211310D01*
G01*
X111085845Y-61592017D02*
G75*
G02*
X111448673Y-62476832I46179J-497862D01*
G01*
%TO.C,D48*%
X78118264Y-38019004D02*
X79558300Y-38690504D01*
X76366598Y-39632756D02*
X76960666Y-38358774D01*
X78290445Y-41409426D02*
X76850408Y-40737926D01*
X80042111Y-39795675D02*
X79448043Y-41069657D01*
X79815788Y-38735213D02*
G75*
G02*
X79558300Y-38690504I-46179J497863D01*
G01*
X78118264Y-38019004D02*
G75*
G02*
X77918504Y-37850495I211309J453154D01*
G01*
X77007474Y-38141303D02*
G75*
G02*
X77918504Y-37850495I499962J6163D01*
G01*
X77007474Y-38141302D02*
G75*
G02*
X76960666Y-38358774I-499962J-6162D01*
G01*
X76366598Y-39632757D02*
G75*
G02*
X76230093Y-39808401I-453154J211310D01*
G01*
X76592921Y-40693216D02*
G75*
G02*
X76230093Y-39808401I-46179J497862D01*
G01*
X76592920Y-40693217D02*
G75*
G02*
X76850408Y-40737926I46179J-497863D01*
G01*
X78290446Y-41409427D02*
G75*
G02*
X78490205Y-41577936I-211310J-453153D01*
G01*
X79401235Y-41287129D02*
G75*
G02*
X78490205Y-41577936I-499962J-6162D01*
G01*
X79401235Y-41287128D02*
G75*
G02*
X79448043Y-41069657I499962J6162D01*
G01*
X80042111Y-39795674D02*
G75*
G02*
X80178616Y-39620030I453153J-211310D01*
G01*
X79815788Y-38735215D02*
G75*
G02*
X80178616Y-39620030I46179J-497862D01*
G01*
%TO.C,D47*%
X58785327Y-34520797D02*
X60225363Y-35192297D01*
X57033661Y-36134549D02*
X57627729Y-34860567D01*
X58957508Y-37911219D02*
X57517471Y-37239719D01*
X60709174Y-36297468D02*
X60115106Y-37571450D01*
X60482851Y-35237006D02*
G75*
G02*
X60225363Y-35192297I-46179J497863D01*
G01*
X58785327Y-34520797D02*
G75*
G02*
X58585567Y-34352288I211309J453154D01*
G01*
X57674537Y-34643096D02*
G75*
G02*
X58585567Y-34352288I499962J6163D01*
G01*
X57674537Y-34643095D02*
G75*
G02*
X57627729Y-34860567I-499962J-6162D01*
G01*
X57033661Y-36134550D02*
G75*
G02*
X56897156Y-36310194I-453154J211310D01*
G01*
X57259984Y-37195009D02*
G75*
G02*
X56897156Y-36310194I-46179J497862D01*
G01*
X57259983Y-37195010D02*
G75*
G02*
X57517471Y-37239719I46179J-497863D01*
G01*
X58957509Y-37911220D02*
G75*
G02*
X59157268Y-38079729I-211310J-453153D01*
G01*
X60068298Y-37788922D02*
G75*
G02*
X59157268Y-38079729I-499962J-6162D01*
G01*
X60068298Y-37788921D02*
G75*
G02*
X60115106Y-37571450I499962J6162D01*
G01*
X60709174Y-36297467D02*
G75*
G02*
X60845679Y-36121823I453153J-211310D01*
G01*
X60482851Y-35237008D02*
G75*
G02*
X60845679Y-36121823I46179J-497862D01*
G01*
%TO.C,D41*%
X36282750Y-37819896D02*
X37722786Y-38491396D01*
X34531084Y-39433648D02*
X35125152Y-38159666D01*
X36454931Y-41210318D02*
X35014894Y-40538818D01*
X38206597Y-39596567D02*
X37612529Y-40870549D01*
X37980274Y-38536105D02*
G75*
G02*
X37722786Y-38491396I-46179J497863D01*
G01*
X36282750Y-37819896D02*
G75*
G02*
X36082990Y-37651387I211309J453154D01*
G01*
X35171960Y-37942195D02*
G75*
G02*
X36082990Y-37651387I499962J6163D01*
G01*
X35171960Y-37942194D02*
G75*
G02*
X35125152Y-38159666I-499962J-6162D01*
G01*
X34531084Y-39433649D02*
G75*
G02*
X34394579Y-39609293I-453154J211310D01*
G01*
X34757407Y-40494108D02*
G75*
G02*
X34394579Y-39609293I-46179J497862D01*
G01*
X34757406Y-40494109D02*
G75*
G02*
X35014894Y-40538818I46179J-497863D01*
G01*
X36454932Y-41210319D02*
G75*
G02*
X36654691Y-41378828I-211310J-453153D01*
G01*
X37565721Y-41088021D02*
G75*
G02*
X36654691Y-41378828I-499962J-6162D01*
G01*
X37565721Y-41088020D02*
G75*
G02*
X37612529Y-40870549I499962J6162D01*
G01*
X38206597Y-39596566D02*
G75*
G02*
X38343102Y-39420922I453153J-211310D01*
G01*
X37980274Y-38536107D02*
G75*
G02*
X38343102Y-39420922I46179J-497862D01*
G01*
%TD*%
M02*
