%TF.GenerationSoftware,KiCad,Pcbnew,(5.1.10)-1*%
%TF.CreationDate,2021-12-17T13:46:14-08:00*%
%TF.ProjectId,barobord,6261726f-626f-4726-942e-6b696361645f,rev?*%
%TF.SameCoordinates,Original*%
%TF.FileFunction,Copper,L1,Top*%
%TF.FilePolarity,Positive*%
%FSLAX46Y46*%
G04 Gerber Fmt 4.6, Leading zero omitted, Abs format (unit mm)*
G04 Created by KiCad (PCBNEW (5.1.10)-1) date 2021-12-17 13:46:14*
%MOMM*%
%LPD*%
G01*
G04 APERTURE LIST*
%TA.AperFunction,ComponentPad*%
%ADD10C,0.100000*%
%TD*%
%TA.AperFunction,ComponentPad*%
%ADD11C,1.752600*%
%TD*%
%TA.AperFunction,ComponentPad*%
%ADD12R,1.752600X1.752600*%
%TD*%
%TA.AperFunction,ComponentPad*%
%ADD13O,2.000000X3.000000*%
%TD*%
%TA.AperFunction,ComponentPad*%
%ADD14O,1.524000X1.524000*%
%TD*%
%TA.AperFunction,ComponentPad*%
%ADD15C,1.524000*%
%TD*%
%TA.AperFunction,ComponentPad*%
%ADD16R,2.000000X2.000000*%
%TD*%
%TA.AperFunction,ComponentPad*%
%ADD17C,2.000000*%
%TD*%
%TA.AperFunction,ComponentPad*%
%ADD18O,1.600000X2.000000*%
%TD*%
%TA.AperFunction,ComponentPad*%
%ADD19O,3.800000X3.300000*%
%TD*%
%TA.AperFunction,ViaPad*%
%ADD20C,0.800000*%
%TD*%
%TA.AperFunction,Conductor*%
%ADD21C,0.381000*%
%TD*%
%TA.AperFunction,Conductor*%
%ADD22C,0.254000*%
%TD*%
G04 APERTURE END LIST*
%TO.P,J2,3*%
%TO.N,B-*%
%TA.AperFunction,ComponentPad*%
G36*
G01*
X62876096Y-107302947D02*
X63374566Y-107535387D01*
G75*
G02*
X63664780Y-108332743I-253571J-543785D01*
G01*
X63664780Y-108332743D01*
G75*
G02*
X62867424Y-108622957I-543785J253571D01*
G01*
X62368954Y-108390517D01*
G75*
G02*
X62078740Y-107593161I253571J543785D01*
G01*
X62078740Y-107593161D01*
G75*
G02*
X62876096Y-107302947I543785J-253571D01*
G01*
G37*
%TD.AperFunction*%
%TO.P,J2,2*%
%TO.N,Net-(J2-Pad2)*%
%TA.AperFunction,ComponentPad*%
G36*
G01*
X63721332Y-105490332D02*
X64219802Y-105722772D01*
G75*
G02*
X64510016Y-106520128I-253571J-543785D01*
G01*
X64510016Y-106520128D01*
G75*
G02*
X63712660Y-106810342I-543785J253571D01*
G01*
X63214190Y-106577902D01*
G75*
G02*
X62923976Y-105780546I253571J543785D01*
G01*
X62923976Y-105780546D01*
G75*
G02*
X63721332Y-105490332I543785J-253571D01*
G01*
G37*
%TD.AperFunction*%
%TO.P,J2,1*%
%TO.N,B-*%
%TA.AperFunction,ComponentPad*%
G36*
G01*
X64249361Y-103529800D02*
X65382247Y-104058073D01*
G75*
G02*
X65503169Y-104390303I-105654J-226576D01*
G01*
X65207335Y-105024720D01*
G75*
G02*
X64875105Y-105145642I-226576J105654D01*
G01*
X63742219Y-104617369D01*
G75*
G02*
X63621297Y-104285139I105654J226576D01*
G01*
X63917131Y-103650722D01*
G75*
G02*
X64249361Y-103529800I226576J-105654D01*
G01*
G37*
%TD.AperFunction*%
%TD*%
%TO.P,SW46,*%
%TO.N,*%
%TA.AperFunction,ComponentPad*%
G36*
G01*
X97990343Y-50294437D02*
X98539747Y-49116237D01*
G75*
G02*
X100001566Y-48584178I996939J-464880D01*
G01*
X100001566Y-48584178D01*
G75*
G02*
X100533625Y-50045997I-464880J-996939D01*
G01*
X99984221Y-51224197D01*
G75*
G02*
X98522402Y-51756256I-996939J464880D01*
G01*
X98522402Y-51756256D01*
G75*
G02*
X97990343Y-50294437I464880J996939D01*
G01*
G37*
%TD.AperFunction*%
%TA.AperFunction,ComponentPad*%
G36*
G01*
X90558619Y-46828968D02*
X91108023Y-45650768D01*
G75*
G02*
X92569842Y-45118709I996939J-464880D01*
G01*
X92569842Y-45118709D01*
G75*
G02*
X93101901Y-46580528I-464880J-996939D01*
G01*
X92552497Y-47758728D01*
G75*
G02*
X91090678Y-48290787I-996939J464880D01*
G01*
X91090678Y-48290787D01*
G75*
G02*
X90558619Y-46828968I464880J996939D01*
G01*
G37*
%TD.AperFunction*%
%TO.P,SW46,3*%
%TO.N,N/C*%
%TA.AperFunction,ComponentPad*%
G36*
G01*
X96467697Y-49418909D02*
X96890315Y-48512601D01*
G75*
G02*
X97887010Y-48149834I679731J-316964D01*
G01*
X97887010Y-48149834D01*
G75*
G02*
X98249777Y-49146529I-316964J-679731D01*
G01*
X97827159Y-50052837D01*
G75*
G02*
X96830464Y-50415604I-679731J316964D01*
G01*
X96830464Y-50415604D01*
G75*
G02*
X96467697Y-49418909I316964J679731D01*
G01*
G37*
%TD.AperFunction*%
%TO.P,SW46,2*%
%TO.N,Net-(J2-Pad2)*%
%TA.AperFunction,ComponentPad*%
G36*
G01*
X94655082Y-48573673D02*
X95077700Y-47667365D01*
G75*
G02*
X96074395Y-47304598I679731J-316964D01*
G01*
X96074395Y-47304598D01*
G75*
G02*
X96437162Y-48301293I-316964J-679731D01*
G01*
X96014544Y-49207601D01*
G75*
G02*
X95017849Y-49570368I-679731J316964D01*
G01*
X95017849Y-49570368D01*
G75*
G02*
X94655082Y-48573673I316964J679731D01*
G01*
G37*
%TD.AperFunction*%
%TA.AperFunction,ComponentPad*%
D10*
%TO.P,SW46,1*%
%TO.N,B+*%
G36*
X92525502Y-48408167D02*
G01*
X93582048Y-46142398D01*
X94941510Y-46776325D01*
X93884964Y-49042094D01*
X92525502Y-48408167D01*
G37*
%TD.AperFunction*%
%TD*%
D11*
%TO.P,U2,1*%
%TO.N,led*%
X117228505Y-64203847D03*
%TO.P,U2,2*%
%TO.N,col0*%
X117228505Y-66743847D03*
%TO.P,U2,3*%
%TO.N,GND*%
X117228505Y-69283847D03*
%TO.P,U2,4*%
X117228505Y-71823847D03*
%TO.P,U2,5*%
%TO.N,sda*%
X117228505Y-74363847D03*
%TO.P,U2,6*%
%TO.N,scl*%
X117228505Y-76903847D03*
%TO.P,U2,7*%
%TO.N,col1*%
X117228505Y-79443847D03*
%TO.P,U2,8*%
%TO.N,col2*%
X117228505Y-81983847D03*
%TO.P,U2,9*%
%TO.N,col3*%
X117228505Y-84523847D03*
%TO.P,U2,10*%
%TO.N,col4*%
X117228505Y-87063847D03*
%TO.P,U2,11*%
%TO.N,row3*%
X117228505Y-89603847D03*
%TO.P,U2,13*%
%TO.N,row0*%
X132468505Y-92143847D03*
%TO.P,U2,14*%
%TO.N,row4*%
X132468505Y-89603847D03*
%TO.P,U2,15*%
%TO.N,ENC2A*%
X132468505Y-87063847D03*
%TO.P,U2,16*%
%TO.N,col8*%
X132468505Y-84523847D03*
%TO.P,U2,17*%
%TO.N,col7*%
X132468505Y-81983847D03*
%TO.P,U2,18*%
%TO.N,col6*%
X132468505Y-79443847D03*
%TO.P,U2,19*%
%TO.N,col5*%
X132468505Y-76903847D03*
%TO.P,U2,20*%
%TO.N,row1*%
X132468505Y-74363847D03*
%TO.P,U2,21*%
%TO.N,+5V*%
X132468505Y-71823847D03*
%TO.P,U2,22*%
%TO.N,RESET*%
X132468505Y-69283847D03*
%TO.P,U2,23*%
%TO.N,B-*%
X132468505Y-66743847D03*
%TO.P,U2,12*%
%TO.N,row2*%
X117228505Y-92143847D03*
%TO.P,U2,24*%
%TO.N,B+*%
X132468505Y-64203847D03*
%TO.P,U2,31*%
%TO.N,ENC1B*%
X119768505Y-87063847D03*
%TO.P,U2,32*%
%TO.N,ENC1A*%
X122308505Y-87063847D03*
%TO.P,U2,33*%
%TO.N,ENC2B*%
X124848505Y-87063847D03*
%TD*%
%TO.P,U1,25*%
%TO.N,ENC1B*%
X119768505Y-92143847D03*
%TO.P,U1,26*%
%TO.N,ENC1A*%
X122308505Y-92143847D03*
%TO.P,U1,27*%
%TO.N,ENC2B*%
X124848505Y-92143847D03*
%TO.P,U1,28*%
%TO.N,Net-(U1-Pad28)*%
X127388505Y-92143847D03*
%TO.P,U1,29*%
%TO.N,Net-(U1-Pad29)*%
X129928505Y-92143847D03*
%TO.P,U1,24*%
%TO.N,B+*%
X132468505Y-64203847D03*
%TO.P,U1,12*%
%TO.N,row2*%
X117457105Y-92143847D03*
%TO.P,U1,23*%
%TO.N,B-*%
X132468505Y-66743847D03*
%TO.P,U1,22*%
%TO.N,RESET*%
X132468505Y-69283847D03*
%TO.P,U1,21*%
%TO.N,+5V*%
X132468505Y-71823847D03*
%TO.P,U1,20*%
%TO.N,row1*%
X132468505Y-74363847D03*
%TO.P,U1,19*%
%TO.N,col5*%
X132468505Y-76903847D03*
%TO.P,U1,18*%
%TO.N,col6*%
X132468505Y-79443847D03*
%TO.P,U1,17*%
%TO.N,col7*%
X132468505Y-81983847D03*
%TO.P,U1,16*%
%TO.N,col8*%
X132468505Y-84523847D03*
%TO.P,U1,15*%
%TO.N,ENC2A*%
X132468505Y-87063847D03*
%TO.P,U1,14*%
%TO.N,row4*%
X132468505Y-89603847D03*
%TO.P,U1,13*%
%TO.N,row0*%
X132468505Y-92143847D03*
%TO.P,U1,11*%
%TO.N,row3*%
X117228505Y-89603847D03*
%TO.P,U1,10*%
%TO.N,col4*%
X117228505Y-87063847D03*
%TO.P,U1,9*%
%TO.N,col3*%
X117228505Y-84523847D03*
%TO.P,U1,8*%
%TO.N,col2*%
X117228505Y-81983847D03*
%TO.P,U1,7*%
%TO.N,col1*%
X117228505Y-79443847D03*
%TO.P,U1,6*%
%TO.N,scl*%
X117228505Y-76903847D03*
%TO.P,U1,5*%
%TO.N,sda*%
X117228505Y-74363847D03*
%TO.P,U1,4*%
%TO.N,GND*%
X117228505Y-71823847D03*
%TO.P,U1,3*%
X117228505Y-69283847D03*
%TO.P,U1,2*%
%TO.N,col0*%
X117228505Y-66743847D03*
D12*
%TO.P,U1,1*%
%TO.N,led*%
X117228505Y-64203847D03*
%TD*%
D13*
%TO.P,SW45,NC*%
%TO.N,Net-(SW45-PadNC)*%
X140518507Y-130781846D03*
%TO.P,SW45,C*%
%TO.N,GND*%
X137978507Y-130781846D03*
%TO.P,SW45,B*%
%TO.N,ENC2B*%
X135438507Y-130781846D03*
%TO.P,SW45,A*%
%TO.N,ENC2A*%
X132898507Y-130781846D03*
D14*
%TO.P,SW45,S2*%
%TO.N,Net-(D82-Pad2)*%
X129898507Y-130431846D03*
D15*
%TO.P,SW45,S1*%
%TO.N,col3*%
X129898507Y-132431846D03*
%TD*%
D16*
%TO.P,SW43,A*%
%TO.N,ENC2A*%
X129348507Y-122431846D03*
D17*
%TO.P,SW43,C*%
%TO.N,GND*%
X129348507Y-124931846D03*
%TO.P,SW43,B*%
%TO.N,ENC2B*%
X129348507Y-127431846D03*
%TO.P,SW43,S2*%
%TO.N,Net-(D82-Pad2)*%
X143848507Y-122431846D03*
%TO.P,SW43,S1*%
%TO.N,col3*%
X143848507Y-127431846D03*
%TD*%
D16*
%TO.P,SW42,A*%
%TO.N,ENC1A*%
X120348504Y-127431847D03*
D17*
%TO.P,SW42,C*%
%TO.N,GND*%
X120348504Y-124931847D03*
%TO.P,SW42,B*%
%TO.N,ENC1B*%
X120348504Y-122431847D03*
%TO.P,SW42,S2*%
%TO.N,Net-(D81-Pad2)*%
X105848504Y-127431847D03*
%TO.P,SW42,S1*%
%TO.N,col4*%
X105848504Y-122431847D03*
%TD*%
D13*
%TO.P,SW44,NC*%
%TO.N,Net-(SW44-PadNC)*%
X116918502Y-130781846D03*
%TO.P,SW44,C*%
%TO.N,GND*%
X114378502Y-130781846D03*
%TO.P,SW44,B*%
%TO.N,ENC1B*%
X111838502Y-130781846D03*
%TO.P,SW44,A*%
%TO.N,ENC1A*%
X109298502Y-130781846D03*
D14*
%TO.P,SW44,S2*%
%TO.N,Net-(D81-Pad2)*%
X106298502Y-130431846D03*
D15*
%TO.P,SW44,S1*%
%TO.N,col4*%
X106298502Y-132431846D03*
%TD*%
D18*
%TO.P,Brd1,2*%
%TO.N,+5V*%
X126328506Y-159131845D03*
%TO.P,Brd1,1*%
%TO.N,GND*%
X128868506Y-159131845D03*
%TO.P,Brd1,3*%
%TO.N,scl*%
X123788506Y-159131845D03*
%TO.P,Brd1,4*%
%TO.N,sda*%
X121248506Y-159131845D03*
%TD*%
D19*
%TO.P,J1,9*%
%TO.N,N/C*%
X119348504Y-135531846D03*
%TO.P,J1,8*%
X130348504Y-135531846D03*
%TO.P,J1,7*%
X130348504Y-155131846D03*
%TO.P,J1,6*%
X119348504Y-155131846D03*
%TO.P,J1,1*%
%TO.N,+5V*%
%TA.AperFunction,ComponentPad*%
G36*
G01*
X112124504Y-139826846D02*
X112124504Y-140676846D01*
G75*
G02*
X111699504Y-141101846I-425000J0D01*
G01*
X110349504Y-141101846D01*
G75*
G02*
X109924504Y-140676846I0J425000D01*
G01*
X109924504Y-139826846D01*
G75*
G02*
X110349504Y-139401846I425000J0D01*
G01*
X111699504Y-139401846D01*
G75*
G02*
X112124504Y-139826846I0J-425000D01*
G01*
G37*
%TD.AperFunction*%
%TO.P,J1,2*%
%TO.N,sda*%
%TA.AperFunction,ComponentPad*%
G36*
G01*
X111699504Y-143641846D02*
X110349504Y-143641846D01*
G75*
G02*
X109924504Y-143216846I0J425000D01*
G01*
X109924504Y-142366846D01*
G75*
G02*
X110349504Y-141941846I425000J0D01*
G01*
X111699504Y-141941846D01*
G75*
G02*
X112124504Y-142366846I0J-425000D01*
G01*
X112124504Y-143216846D01*
G75*
G02*
X111699504Y-143641846I-425000J0D01*
G01*
G37*
%TD.AperFunction*%
%TO.P,J1,3*%
%TO.N,scl*%
%TA.AperFunction,ComponentPad*%
G36*
G01*
X111699504Y-146181846D02*
X110349504Y-146181846D01*
G75*
G02*
X109924504Y-145756846I0J425000D01*
G01*
X109924504Y-144906846D01*
G75*
G02*
X110349504Y-144481846I425000J0D01*
G01*
X111699504Y-144481846D01*
G75*
G02*
X112124504Y-144906846I0J-425000D01*
G01*
X112124504Y-145756846D01*
G75*
G02*
X111699504Y-146181846I-425000J0D01*
G01*
G37*
%TD.AperFunction*%
%TO.P,J1,4*%
%TO.N,Net-(J1-Pad4)*%
%TA.AperFunction,ComponentPad*%
G36*
G01*
X111699504Y-148721846D02*
X110349504Y-148721846D01*
G75*
G02*
X109924504Y-148296846I0J425000D01*
G01*
X109924504Y-147446846D01*
G75*
G02*
X110349504Y-147021846I425000J0D01*
G01*
X111699504Y-147021846D01*
G75*
G02*
X112124504Y-147446846I0J-425000D01*
G01*
X112124504Y-148296846D01*
G75*
G02*
X111699504Y-148721846I-425000J0D01*
G01*
G37*
%TD.AperFunction*%
%TO.P,J1,5*%
%TO.N,GND*%
%TA.AperFunction,ComponentPad*%
G36*
G01*
X111699504Y-151261846D02*
X110349504Y-151261846D01*
G75*
G02*
X109924504Y-150836846I0J425000D01*
G01*
X109924504Y-149986846D01*
G75*
G02*
X110349504Y-149561846I425000J0D01*
G01*
X111699504Y-149561846D01*
G75*
G02*
X112124504Y-149986846I0J-425000D01*
G01*
X112124504Y-150836846D01*
G75*
G02*
X111699504Y-151261846I-425000J0D01*
G01*
G37*
%TD.AperFunction*%
%TD*%
D20*
%TO.N,GND*%
X108080507Y-59379349D03*
X100136973Y-76414310D03*
X39148907Y-48535623D03*
X33228182Y-56424546D03*
X26782521Y-53418886D03*
X92086099Y-93679470D03*
X31205376Y-65570581D03*
X25745053Y-73674196D03*
X19299391Y-70668536D03*
X35123252Y-80608262D03*
X52954206Y-83839712D03*
X47076296Y-80818539D03*
X50695001Y-71856164D03*
X61510147Y-114173665D03*
X76310129Y-36156839D03*
X57235609Y-32587145D03*
X93042738Y-49571237D03*
X48878296Y-50154976D03*
X68489452Y-53529346D03*
X83607713Y-66184267D03*
X40796304Y-67240327D03*
X60898978Y-71009199D03*
X75787037Y-83556774D03*
X80909436Y-124849603D03*
X98352276Y-138861750D03*
X94580860Y-88747557D03*
X95761656Y-86215336D03*
X97592553Y-75227827D03*
X86192436Y-106135577D03*
X87603429Y-103710700D03*
X89311471Y-92385643D03*
X137941946Y-124984907D03*
X114573947Y-124984910D03*
X137941947Y-159020910D03*
X147593947Y-142764909D03*
X99079945Y-134382907D03*
X114319946Y-134382908D03*
X145561947Y-134636910D03*
X137941946Y-134636910D03*
X130067948Y-65548910D03*
X130067945Y-62754908D03*
X187199532Y-35391632D03*
X144988776Y-78896761D03*
X209954808Y-38513314D03*
X153039653Y-96161921D03*
X218113027Y-56008681D03*
X183385400Y-116763460D03*
X136982137Y-61510053D03*
X153129609Y-51278698D03*
X167787469Y-38838464D03*
X195250408Y-52656795D03*
X176068550Y-55996284D03*
X169001164Y-85916368D03*
X184271152Y-73369712D03*
X203531492Y-69814610D03*
X211475025Y-86849573D03*
X191940103Y-90633955D03*
X184005883Y-94053483D03*
X161062497Y-68598879D03*
X226036371Y-73134258D03*
X161094393Y-45674674D03*
X168198764Y-65271186D03*
X176249643Y-82536345D03*
X164277623Y-128113128D03*
X145908785Y-150672902D03*
X147345625Y-149236060D03*
X104241601Y-67429018D03*
X33421598Y-35604736D03*
%TO.N,+5V*%
X40650501Y-41108345D03*
X103161863Y-83149742D03*
X39778708Y-50791107D03*
X35377561Y-60229395D03*
X32262076Y-58496365D03*
X95341190Y-100522252D03*
X31958032Y-68163618D03*
X27878920Y-76911300D03*
X24211196Y-75761529D03*
X66793643Y-78802567D03*
X48532588Y-75892457D03*
X64304837Y-120801753D03*
X86970155Y-72796843D03*
X72082092Y-60249263D03*
X52439825Y-56695083D03*
X44158745Y-73852903D03*
X63570812Y-77299738D03*
X78689073Y-89954659D03*
X60153157Y-39552780D03*
X79565220Y-42999613D03*
X95021033Y-55531679D03*
X110522138Y-65562543D03*
X82533491Y-131991463D03*
X98711488Y-146026444D03*
X106973322Y-152492227D03*
X97775146Y-97523786D03*
X110319002Y-70022381D03*
X106855415Y-84662247D03*
X69142399Y-123618056D03*
X84086020Y-92471300D03*
X109704715Y-68334645D03*
X106953948Y-140224909D03*
X140989947Y-139970909D03*
X154451947Y-142256908D03*
X141052662Y-148290193D03*
X126257946Y-139970908D03*
X193858645Y-37050823D03*
X151647888Y-80555952D03*
X154640515Y-79160463D03*
X153904613Y-76981301D03*
X216491062Y-40510052D03*
X159698764Y-97821113D03*
X190778537Y-74920639D03*
X224541939Y-57775217D03*
X190044511Y-118422652D03*
X143827210Y-63183443D03*
X159843736Y-52957910D03*
X175244533Y-40405822D03*
X202369927Y-54101293D03*
X183065208Y-57778330D03*
X175890476Y-87468216D03*
X210190602Y-71473803D03*
X198936761Y-92416005D03*
X218241480Y-88738968D03*
X183973618Y-99393430D03*
X167721608Y-70258072D03*
X232695484Y-74793449D03*
X164070271Y-49051387D03*
X172474206Y-65871659D03*
X180755285Y-83029477D03*
X171573307Y-128517014D03*
X109999965Y-74312653D03*
%TO.N,row0*%
X42737830Y-42642200D03*
X60494422Y-52043266D03*
X62641327Y-47439220D03*
X79676283Y-55382756D03*
X77529385Y-59986797D03*
X94794548Y-68037678D03*
X93828442Y-70109498D03*
X111093605Y-78160376D03*
X103927316Y-93946656D03*
X132607946Y-97298907D03*
X142259947Y-91964907D03*
X136436833Y-79322445D03*
X203963636Y-45031601D03*
X184321366Y-48585780D03*
X169203106Y-61240704D03*
X153134248Y-71256055D03*
%TO.N,row1*%
X34487777Y-60935517D03*
X52320686Y-68970884D03*
X54360243Y-64597043D03*
X71625406Y-72647918D03*
X69478508Y-77251963D03*
X86743670Y-85302843D03*
X85777567Y-87374661D03*
X103042727Y-95425538D03*
X126257950Y-99330906D03*
X126257946Y-74692909D03*
X161185126Y-88521218D03*
X143689764Y-96679443D03*
X212014512Y-62296764D03*
X192372245Y-65850945D03*
X177253982Y-78505867D03*
X135090880Y-78239076D03*
%TO.N,row2*%
X27510351Y-75898656D03*
X44392668Y-86573593D03*
X46646913Y-81739347D03*
X63681877Y-89682879D03*
X61534971Y-94286923D03*
X78800139Y-102337802D03*
X77726690Y-104639822D03*
X94991851Y-112690702D03*
X117367947Y-112538909D03*
X169343350Y-106016583D03*
X168269900Y-103714561D03*
X185535065Y-95663685D03*
X183618365Y-90952295D03*
X200423121Y-83116107D03*
X201711263Y-85878533D03*
X219835186Y-79669272D03*
%TO.N,row3*%
X37107477Y-98590643D03*
X55630998Y-106948044D03*
X47380940Y-125241361D03*
X64876308Y-133399583D03*
X94580567Y-157700777D03*
X80547190Y-144105401D03*
X93854874Y-124562305D03*
X110063976Y-89801774D03*
X166389946Y-146320905D03*
X199939487Y-126420157D03*
X208474000Y-100381271D03*
X191439038Y-108324804D03*
X182398184Y-134879768D03*
%TO.N,led*%
X101890088Y-55620490D03*
X95619402Y-62193638D03*
X31545799Y-40016025D03*
%TO.N,Net-(D41-Pad2)*%
X41260080Y-37998056D03*
X28126511Y-31905217D03*
X18358107Y-52853615D03*
X24113167Y-55537240D03*
%TO.N,Net-(D42-Pad2)*%
X32046144Y-54752320D03*
X20766238Y-49492415D03*
X10537438Y-70226124D03*
X16062288Y-72802404D03*
%TO.N,Net-(D43-Pad2)*%
X23737760Y-83387985D03*
X30536479Y-86838537D03*
%TO.N,Net-(D47-Pad2)*%
X63160057Y-37311565D03*
X73993832Y-38720085D03*
%TO.N,Net-(D51-Pad2)*%
X57575000Y-90758809D03*
X69453681Y-97138703D03*
%TO.N,Net-(D54-Pad2)*%
X97460181Y-53305977D03*
X105288296Y-61160153D03*
%TO.N,Net-(D57-Pad2)*%
X74784313Y-117560928D03*
X61202385Y-111227573D03*
%TO.N,Net-(D58-Pad2)*%
X66678474Y-115711474D03*
X80180938Y-123287491D03*
%TO.N,Net-(D59-Pad2)*%
X87132714Y-128080106D03*
X97633858Y-136686976D03*
%TO.N,Net-(D60-Pad2)*%
X103201614Y-137225793D03*
X142767949Y-138954907D03*
X142767948Y-147499692D03*
X148609947Y-146066906D03*
%TO.N,Net-(D61-Pad2)*%
X153689945Y-138700907D03*
X164670322Y-131465135D03*
%TO.N,Net-(D62-Pad2)*%
X183184980Y-119939754D03*
X171078451Y-125117656D03*
%TO.N,Net-(D63-Pad2)*%
X187790263Y-113588406D03*
X175129146Y-119492383D03*
%TO.N,Net-(D66-Pad2)*%
X144027631Y-60007149D03*
X152576135Y-54899884D03*
%TO.N,Net-(D67-Pad2)*%
X156945739Y-47576016D03*
X149349069Y-51118405D03*
%TO.N,Net-(D68-Pad2)*%
X165334964Y-65566768D03*
X158198697Y-68894465D03*
%TO.N,Net-(D69-Pad2)*%
X175963362Y-84152337D03*
X179386169Y-82275996D03*
X186900763Y-95587363D03*
X191949699Y-93793522D03*
%TO.N,Net-(D73-Pad2)*%
X176028211Y-36677293D03*
X187106461Y-38798127D03*
%TO.N,Net-(D75-Pad2)*%
X199635088Y-49572356D03*
X192729023Y-52792709D03*
%TO.N,Net-(D76-Pad2)*%
X207916169Y-66730174D03*
X200779902Y-70057871D03*
%TO.N,Net-(D77-Pad2)*%
X218774771Y-85208397D03*
X225482898Y-76755447D03*
%TO.N,RESET*%
X130321946Y-69358908D03*
X131083946Y-113300909D03*
X148609946Y-113300908D03*
X147593945Y-137430909D03*
X142005948Y-137430907D03*
%TO.N,col0*%
X21576585Y-91628722D03*
X6137526Y-83868860D03*
X26145046Y-41981739D03*
X46768325Y-50043300D03*
X48146615Y-47087545D03*
%TO.N,col1*%
X47016725Y-86956439D03*
X30411143Y-78092095D03*
X41987131Y-52844155D03*
X75008715Y-62805438D03*
X77932030Y-61932571D03*
%TO.N,col2*%
X65140650Y-93165700D03*
X47875485Y-85114821D03*
X62215017Y-99380970D03*
X113557949Y-114824907D03*
X113557945Y-82312909D03*
%TO.N,col3*%
X83334649Y-108057013D03*
X63495492Y-98914917D03*
X114573947Y-114062908D03*
X114573947Y-84598908D03*
X144545948Y-133620910D03*
X126511946Y-132350908D03*
X126257949Y-114062908D03*
%TO.N,col4*%
X95658202Y-133633690D03*
X78382312Y-107258041D03*
X115335946Y-115840908D03*
X115335948Y-87138909D03*
X104604651Y-115575518D03*
%TO.N,col5*%
X144037946Y-138446908D03*
X148355946Y-138446908D03*
X197405990Y-27829701D03*
X135357508Y-61247512D03*
%TO.N,col6*%
X229133585Y-97672794D03*
X212328825Y-105508983D03*
X208908058Y-101779208D03*
X176449549Y-116914860D03*
X155526701Y-70024387D03*
X158489895Y-129281107D03*
%TO.N,col7*%
X171466382Y-103824363D03*
X188501340Y-95880829D03*
X230376426Y-97934021D03*
X211960255Y-106521624D03*
X188496382Y-112698619D03*
X182055680Y-98886491D03*
X208473404Y-102784050D03*
X136021727Y-82038334D03*
X143198333Y-98029630D03*
X162796541Y-87769802D03*
X169834779Y-104666394D03*
%TO.N,col8*%
X135655947Y-84344909D03*
X135655947Y-114316908D03*
X189339914Y-97813066D03*
X208775594Y-94301345D03*
%TO.N,sda*%
X122701948Y-142764908D03*
X122701945Y-96762042D03*
X112795947Y-96762044D03*
X114319948Y-74438907D03*
%TO.N,scl*%
X123717947Y-145304909D03*
X123717948Y-95774908D03*
X111779948Y-76978908D03*
X112033947Y-95774908D03*
%TO.N,Net-(D82-Pad2)*%
X127019946Y-120412907D03*
%TO.N,ENC1B*%
X111779948Y-122444907D03*
%TO.N,ENC1A*%
X109239948Y-127524907D03*
%TO.N,ENC2B*%
X135401945Y-127270908D03*
X124987946Y-127270908D03*
%TO.N,ENC2A*%
X132861946Y-122444909D03*
X134639948Y-87138910D03*
%TO.N,row4*%
X102635948Y-136160907D03*
X146831946Y-136668908D03*
X136671947Y-89678906D03*
X136671949Y-115332907D03*
X147593947Y-115332907D03*
X242380444Y-82807684D03*
X225147001Y-90843772D03*
X227778720Y-96704232D03*
X210283353Y-104862458D03*
X207629636Y-103979661D03*
X189734551Y-112482716D03*
X184367301Y-100972607D03*
%TO.N,B-*%
X106890159Y-98411092D03*
X111724404Y-100665336D03*
X128797948Y-100600908D03*
X128797947Y-67072907D03*
X97229106Y-119129286D03*
X95419690Y-123182378D03*
%TO.N,B+*%
X87588556Y-53257322D03*
X99328867Y-58731921D03*
X102227183Y-52516461D03*
%TO.N,Net-(J2-Pad2)*%
X72260448Y-110143190D03*
%TD*%
D21*
%TO.N,GND*%
X92118997Y-49133792D02*
X91443903Y-49379507D01*
X88681476Y-48091368D02*
X85978619Y-40665329D01*
X75159115Y-35620112D02*
X68745719Y-37954399D01*
X93921512Y-73515993D02*
X92079897Y-72657234D01*
X92079897Y-72657234D02*
X90974183Y-69619309D01*
X77622458Y-63393295D02*
X75165314Y-56642351D01*
X66417634Y-52563238D02*
X59666688Y-55020382D01*
X59666688Y-55020382D02*
X59467595Y-55092846D01*
X44964860Y-48330107D02*
X44488853Y-48503360D01*
X41174194Y-47798481D02*
X39148907Y-48535623D01*
X33228182Y-56424546D02*
X26782521Y-53418886D01*
X41174194Y-47798481D02*
X42186832Y-47429907D01*
X44488853Y-48503360D02*
X42186832Y-47429907D01*
X84029022Y-89922398D02*
X83568615Y-89707706D01*
X83568615Y-89707706D02*
X82462899Y-86669782D01*
X70262188Y-80980493D02*
X69525045Y-78955212D01*
X69525045Y-78955212D02*
X68374031Y-78418484D01*
X68374031Y-78418484D02*
X66654033Y-73692825D01*
X58827154Y-70043093D02*
X52076213Y-72500236D01*
X34580848Y-64342011D02*
X31205376Y-65570581D01*
X25745053Y-73674196D02*
X19299391Y-70668536D01*
X35123252Y-80608262D02*
X31701941Y-79012882D01*
X30579299Y-75928440D02*
X25745053Y-73674196D01*
X31701941Y-79012882D02*
X30579299Y-75928440D01*
X47199152Y-81156084D02*
X47076296Y-80818539D01*
X52954206Y-83839712D02*
X47199152Y-81156084D01*
X52076213Y-72500236D02*
X50695001Y-71856164D01*
X76310129Y-36156839D02*
X75159115Y-35620112D01*
X85978619Y-40665329D02*
X76310129Y-36156839D01*
X68745719Y-37954399D02*
X57235609Y-32587145D01*
X91443903Y-49379507D02*
X88681476Y-48091368D01*
X93039804Y-49563174D02*
X93042738Y-49571237D01*
X92118997Y-49133792D02*
X93039804Y-49563174D01*
X48878296Y-50154976D02*
X44964860Y-48330107D01*
X59467595Y-55092846D02*
X48878296Y-50154976D01*
X68489452Y-53529346D02*
X66417634Y-52563238D01*
X75165314Y-56642351D02*
X68489452Y-53529346D01*
X83607713Y-66184267D02*
X77622458Y-63393295D01*
X90974183Y-69619309D02*
X83607713Y-66184267D01*
X40796304Y-67240327D02*
X34580848Y-64342011D01*
X50695001Y-71856164D02*
X40796304Y-67240327D01*
X60898978Y-71009199D02*
X58827154Y-70043093D01*
X66654033Y-73692825D02*
X60898978Y-71009199D01*
X75787037Y-83556774D02*
X70262188Y-80980493D01*
X82462899Y-86669782D02*
X75787037Y-83556774D01*
X80909436Y-124849603D02*
X92352992Y-132862467D01*
X73941065Y-119970297D02*
X80909436Y-124849603D01*
X92352992Y-132862467D02*
X98352276Y-138861750D01*
X109902370Y-150411845D02*
X111024503Y-150411846D01*
X98352276Y-138861750D02*
X109902370Y-150411845D01*
X94580860Y-88747557D02*
X95761656Y-86215336D01*
X97592553Y-75227827D02*
X93921512Y-73515993D01*
X100136973Y-76414310D02*
X97592553Y-75227827D01*
X87265883Y-103833556D02*
X87603429Y-103710700D01*
X86192436Y-106135577D02*
X87265883Y-103833556D01*
X89311471Y-92385643D02*
X84029022Y-89922398D01*
X92086099Y-93679470D02*
X89311471Y-92385643D01*
X117228504Y-71823845D02*
X112617009Y-71823846D01*
X137888886Y-124931845D02*
X137941946Y-124984907D01*
X129348507Y-124931849D02*
X137888886Y-124931845D01*
X120295442Y-124984908D02*
X120348505Y-124931847D01*
X114573947Y-124984910D02*
X120295442Y-124984908D01*
X120348505Y-124931847D02*
X129348507Y-124931849D01*
X128979445Y-159020908D02*
X128868504Y-159131845D01*
X137941947Y-159020910D02*
X128979445Y-159020908D01*
X99079945Y-134382907D02*
X114319946Y-134382908D01*
X145561947Y-134636910D02*
X137941946Y-134636910D01*
X117228505Y-69283845D02*
X124301008Y-69283846D01*
X128035946Y-65548908D02*
X130067948Y-65548910D01*
X124301008Y-69283846D02*
X128035946Y-65548908D01*
X130067945Y-62754908D02*
X130829948Y-62754907D01*
X130829948Y-62754907D02*
X131337946Y-62246908D01*
X131337946Y-62246908D02*
X135401947Y-62246906D01*
X143888201Y-58289701D02*
X145072535Y-55035771D01*
X160265877Y-47951001D02*
X161094393Y-45674674D01*
X183976703Y-36894461D02*
X187199532Y-35391632D01*
X177225757Y-34437319D02*
X183976703Y-36894461D01*
X144988776Y-78896761D02*
X150513628Y-76320479D01*
X150513628Y-76320479D02*
X153736459Y-74817649D01*
X153736459Y-74817649D02*
X154965030Y-71442176D01*
X184125626Y-52239207D02*
X190876569Y-54696351D01*
X207422580Y-39694110D02*
X209954808Y-38513314D01*
X204228296Y-48470337D02*
X207422580Y-39694110D01*
X153039653Y-96161921D02*
X162017537Y-91975467D01*
X162017537Y-91975467D02*
X163246109Y-88599995D01*
X192161912Y-69690190D02*
X198697246Y-72068859D01*
X215811005Y-57082131D02*
X218113027Y-56008681D01*
X212739576Y-65520812D02*
X215811005Y-57082131D01*
X136982137Y-61510053D02*
X143888201Y-58289701D01*
X135401947Y-62246906D02*
X136982137Y-61510053D01*
X153129609Y-51278698D02*
X160265877Y-47951001D01*
X145072535Y-55035771D02*
X153129609Y-51278698D01*
X167787469Y-38838464D02*
X177225757Y-34437319D01*
X162723020Y-41200056D02*
X167787469Y-38838464D01*
X195250408Y-52656795D02*
X204228296Y-48470337D01*
X190876569Y-54696351D02*
X195250408Y-52656795D01*
X176068550Y-55996284D02*
X184125626Y-52239207D01*
X171924910Y-57928493D02*
X176068550Y-55996284D01*
X163246109Y-88599995D02*
X169001164Y-85916368D01*
X184271152Y-73369712D02*
X192161912Y-69690190D01*
X180357716Y-75194579D02*
X184271152Y-73369712D01*
X203531492Y-69814610D02*
X212739576Y-65520812D01*
X198697246Y-72068859D02*
X203531492Y-69814610D01*
X211475025Y-86849573D02*
X207791787Y-88567094D01*
X207791787Y-88567094D02*
X207331384Y-88781784D01*
X200917987Y-86447498D02*
X191940103Y-90633955D01*
X207331384Y-88781784D02*
X200917987Y-86447498D01*
X184343429Y-94176340D02*
X184005883Y-94053483D01*
X191940103Y-90633955D02*
X184343429Y-94176340D01*
X154965030Y-71442176D02*
X161062497Y-68598879D01*
X220698521Y-82548588D02*
X211475025Y-86849573D01*
X223734351Y-74207709D02*
X220698521Y-82548588D01*
X226036371Y-73134258D02*
X223734351Y-74207709D01*
X169467768Y-64679436D02*
X171924910Y-57928493D01*
X161094393Y-45674674D02*
X162723020Y-41200056D01*
X168198764Y-65271186D02*
X169467768Y-64679436D01*
X161062497Y-68598879D02*
X168198764Y-65271186D01*
X169001164Y-85916368D02*
X176249643Y-82536345D01*
X147593947Y-142764909D02*
X157499947Y-132858909D01*
X157499947Y-132858909D02*
X164277623Y-128113128D01*
X175558525Y-120413193D02*
X183385400Y-116763460D01*
X174699862Y-121014434D02*
X175558525Y-120413193D01*
X174472788Y-120974396D02*
X174699862Y-121014434D01*
X164277623Y-128113128D02*
X174472788Y-120974396D01*
X145908785Y-150672902D02*
X147345625Y-149236060D01*
X112617009Y-71823846D02*
X111014297Y-71076487D01*
X111014297Y-71076487D02*
X110256698Y-71352232D01*
X104731844Y-68775953D02*
X104241601Y-67429018D01*
X110256698Y-71352232D02*
X104731844Y-68775953D01*
X62022832Y-114412733D02*
X61510147Y-114173665D01*
X73941065Y-119970297D02*
X62022832Y-114412733D01*
X108031805Y-59397076D02*
X108080507Y-59379349D01*
X100501560Y-55885663D02*
X108031805Y-59397076D01*
X99500977Y-53136584D02*
X100501560Y-55885663D01*
X97198956Y-52063134D02*
X99500977Y-53136584D01*
X96953240Y-51388040D02*
X97198956Y-52063134D01*
X96945181Y-51390974D02*
X96953240Y-51388040D01*
X93042738Y-49571237D02*
X96945181Y-51390974D01*
X47630407Y-34554097D02*
X55393993Y-31728385D01*
X46449612Y-37086324D02*
X47630407Y-34554097D01*
X55393993Y-31728385D02*
X57235609Y-32587145D01*
X41236097Y-38983887D02*
X46449612Y-37086324D01*
X33740539Y-35488651D02*
X41236097Y-38983887D01*
X33421598Y-35604736D02*
X33740539Y-35488651D01*
X177979051Y-81729909D02*
X180357716Y-75194579D01*
X176249643Y-82536345D02*
X177979051Y-81729909D01*
%TO.N,+5V*%
X104767085Y-62878916D02*
X103538513Y-59503447D01*
X86503551Y-51559912D02*
X84169264Y-45146515D01*
X71508149Y-39242537D02*
X64757198Y-41699680D01*
X51405475Y-35473670D02*
X49380190Y-36210809D01*
X49380190Y-36210809D02*
X48705095Y-36456525D01*
X48705095Y-36456525D02*
X47738990Y-38528345D01*
X47738990Y-38528345D02*
X41325592Y-40862630D01*
X41325592Y-40862630D02*
X40650501Y-41108345D01*
X103161863Y-83149742D02*
X93493375Y-78641248D01*
X93493375Y-78641248D02*
X92818280Y-78886962D01*
X92818280Y-78886962D02*
X90746461Y-77920859D01*
X90746461Y-77920859D02*
X89272174Y-73870293D01*
X78452673Y-68825077D02*
X77992267Y-68610386D01*
X77992267Y-68610386D02*
X75535123Y-61859443D01*
X63564613Y-56277498D02*
X62643802Y-55848119D01*
X62643802Y-55848119D02*
X55892861Y-58305262D01*
X43922344Y-52723320D02*
X39778708Y-50791107D01*
X34777635Y-59949651D02*
X34531923Y-59274553D01*
X35377561Y-60229395D02*
X34777635Y-59949651D01*
X32599620Y-58373509D02*
X32262076Y-58496365D01*
X34531923Y-59274553D02*
X32599620Y-58373509D01*
X95341190Y-100522252D02*
X87284116Y-96765173D01*
X87284116Y-96765173D02*
X86055541Y-93389701D01*
X70631997Y-86197583D02*
X68174854Y-79446642D01*
X55283533Y-73435314D02*
X48532588Y-75892457D01*
X27878920Y-76911300D02*
X27541371Y-77034158D01*
X27541371Y-77034158D02*
X25009146Y-75853361D01*
X24548744Y-75638671D02*
X24211196Y-75761529D01*
X25009146Y-75853361D02*
X24548744Y-75638671D01*
X68174854Y-79446642D02*
X66793643Y-78802567D01*
X64304837Y-120801753D02*
X64550551Y-121476845D01*
X64550551Y-121476845D02*
X69142399Y-123618056D01*
X86970155Y-72796843D02*
X78452673Y-68825077D01*
X89272174Y-73870293D02*
X86970155Y-72796843D01*
X72082092Y-60249263D02*
X63564613Y-56277498D01*
X75535123Y-61859443D02*
X72082092Y-60249263D01*
X52439825Y-56695083D02*
X43922344Y-52723320D01*
X55892861Y-58305262D02*
X52439825Y-56695083D01*
X44158745Y-73852903D02*
X31958032Y-68163618D01*
X48532588Y-75892457D02*
X44158745Y-73852903D01*
X63570812Y-77299738D02*
X55283533Y-73435314D01*
X66793643Y-78802567D02*
X63570812Y-77299738D01*
X78689073Y-89954659D02*
X70631997Y-86197583D01*
X60153157Y-39552780D02*
X51405475Y-35473670D01*
X64757198Y-41699680D02*
X60153157Y-39552780D01*
X79565220Y-42999613D02*
X71508149Y-39242537D01*
X84169264Y-45146515D02*
X79565220Y-42999613D01*
X95021033Y-55531679D02*
X86503551Y-51559912D01*
X103538513Y-59503447D02*
X95021033Y-55531679D01*
X110522138Y-65562543D02*
X104767085Y-62878916D01*
X70996214Y-124482505D02*
X78762766Y-129920706D01*
X78762766Y-129920706D02*
X79412523Y-129806136D01*
X82533491Y-131991463D02*
X89191559Y-136653493D01*
X79412523Y-129806136D02*
X82533491Y-131991463D01*
X98564512Y-146026443D02*
X98711488Y-146026444D01*
X89191559Y-136653493D02*
X98564512Y-146026443D01*
X105177271Y-152492226D02*
X106973322Y-152492227D01*
X98711488Y-146026444D02*
X105177271Y-152492226D01*
X96527672Y-97977829D02*
X97775146Y-97523786D01*
X95341190Y-100522252D02*
X96527672Y-97977829D01*
X110319002Y-70022381D02*
X109704715Y-68334645D01*
X106602698Y-84754229D02*
X106855415Y-84662247D01*
X103161863Y-83149742D02*
X106602698Y-84754229D01*
X69142399Y-123618056D02*
X70996214Y-124482505D01*
X84086020Y-92471300D02*
X78689073Y-89954659D01*
X86055541Y-93389701D02*
X84086020Y-92471300D01*
X132468505Y-71823845D02*
X126587009Y-71823845D01*
X122773810Y-75637044D02*
X112470081Y-75637046D01*
X126587009Y-71823845D02*
X122773810Y-75637044D01*
X106980882Y-140251845D02*
X106953948Y-140224909D01*
X111024503Y-140251845D02*
X106980882Y-140251845D01*
X111305441Y-139970909D02*
X111024503Y-140251845D01*
X148418663Y-148290192D02*
X141052662Y-148290193D01*
X154451947Y-142256908D02*
X148418663Y-148290192D01*
X126328505Y-159131844D02*
X126328504Y-159712349D01*
X126257946Y-139970908D02*
X111305441Y-139970909D01*
X140989947Y-139970909D02*
X126257946Y-139970908D01*
X154451947Y-142256908D02*
X160293949Y-136414907D01*
X132468505Y-71823848D02*
X133613722Y-71289821D01*
X133613722Y-71289821D02*
X133637018Y-71298302D01*
X133637018Y-71298302D02*
X134526052Y-70883740D01*
X134526052Y-70883740D02*
X135877479Y-67170721D01*
X135877479Y-67170721D02*
X136000337Y-66833173D01*
X136000337Y-66833173D02*
X143827210Y-63183443D01*
X143827210Y-63183443D02*
X147050041Y-61680610D01*
X148258591Y-58360151D02*
X156545869Y-54495730D01*
X147050041Y-61680610D02*
X148258591Y-58360151D01*
X163221730Y-51382724D02*
X164070271Y-49051387D01*
X193835915Y-37113268D02*
X193858645Y-37050823D01*
X185633816Y-40937971D02*
X193835915Y-37113268D01*
X179157968Y-38580957D02*
X185633816Y-40937971D01*
X151647888Y-80555952D02*
X154410312Y-79267810D01*
X154410312Y-79267810D02*
X154640515Y-79160463D01*
X153904613Y-76981301D02*
X154595219Y-76659265D01*
X154595219Y-76659265D02*
X155332361Y-74633981D01*
X155332361Y-74633981D02*
X158324990Y-73238497D01*
X158324990Y-73238497D02*
X160012726Y-73852782D01*
X171292633Y-68592875D02*
X171522836Y-68485529D01*
X186288038Y-56275501D02*
X192701437Y-58609789D01*
X206053163Y-52383772D02*
X208351664Y-46068698D01*
X209124591Y-43945093D02*
X216491062Y-40510052D01*
X208351664Y-46068698D02*
X209124591Y-43945093D01*
X159698764Y-97821113D02*
X162921596Y-96318281D01*
X162921596Y-96318281D02*
X164150169Y-92942810D01*
X182248003Y-78928270D02*
X188233259Y-76137302D01*
X190765483Y-74956504D02*
X190778537Y-74920639D01*
X188233259Y-76137302D02*
X190765483Y-74956504D01*
X190778537Y-74920639D02*
X194001367Y-73417809D01*
X194001367Y-73417809D02*
X200752314Y-75874948D01*
X214334241Y-69541594D02*
X216791384Y-62790647D01*
X217405671Y-61102911D02*
X224541939Y-57775217D01*
X216791384Y-62790647D02*
X217405671Y-61102911D01*
X190044511Y-118422652D02*
X180836423Y-122716451D01*
X180836423Y-122716451D02*
X179853566Y-125416830D01*
X179853566Y-125416830D02*
X179730710Y-125754378D01*
X179730710Y-125754378D02*
X177658890Y-126720480D01*
X177658890Y-126720480D02*
X175633605Y-125983340D01*
X159843736Y-52957910D02*
X163221730Y-51382724D01*
X156545869Y-54495730D02*
X159843736Y-52957910D01*
X175244533Y-40405822D02*
X179157968Y-38580957D01*
X165576041Y-44914315D02*
X175244533Y-40405822D01*
X202369927Y-54101293D02*
X206053163Y-52383772D01*
X192701437Y-58609789D02*
X202369927Y-54101293D01*
X183065208Y-57778330D02*
X186288038Y-56275501D01*
X173857121Y-62072131D02*
X183065208Y-57778330D01*
X175890476Y-87468216D02*
X179803915Y-85643348D01*
X164150169Y-92942810D02*
X175890476Y-87468216D01*
X210190602Y-71473803D02*
X214334241Y-69541594D01*
X200752314Y-75874948D02*
X210190602Y-71473803D01*
X198936761Y-92416005D02*
X202850200Y-90591138D01*
X202850200Y-90591138D02*
X203771009Y-90161756D01*
X210184404Y-92496040D02*
X218241480Y-88738968D01*
X203771009Y-90161756D02*
X210184404Y-92496040D01*
X198936761Y-92416005D02*
X183973618Y-99393430D01*
X167721608Y-70258072D02*
X171292633Y-68592875D01*
X160012726Y-73852782D02*
X167721608Y-70258072D01*
X232695484Y-74793449D02*
X224868611Y-78443180D01*
X221709922Y-87121603D02*
X218241480Y-88738968D01*
X224868611Y-78443180D02*
X221709922Y-87121603D01*
X164070271Y-49051387D02*
X165576041Y-44914315D01*
X172474206Y-65871659D02*
X173857121Y-62072131D01*
X171522836Y-68485529D02*
X172474206Y-65871659D01*
X180755285Y-83029477D02*
X182248003Y-78928270D01*
X179803915Y-85643348D02*
X180755285Y-83029477D01*
X175280653Y-125921101D02*
X175633605Y-125983340D01*
X171573307Y-128517014D02*
X175280653Y-125921101D01*
X160293949Y-136414907D02*
X171573307Y-128517014D01*
X110075607Y-74520485D02*
X109999965Y-74312653D01*
X112470081Y-75637046D02*
X110075607Y-74520485D01*
D22*
%TO.N,row0*%
X42737830Y-42642200D02*
X42968035Y-42749545D01*
X42968035Y-42749545D02*
X43305583Y-42626687D01*
X43305583Y-42626687D02*
X46298212Y-44022172D01*
X46912495Y-45709910D02*
X60494422Y-52043266D01*
X46298212Y-44022172D02*
X46912495Y-45709910D01*
X62641327Y-47439220D02*
X79676283Y-55382756D01*
X77529385Y-59986797D02*
X94794548Y-68037678D01*
X93828442Y-70109498D02*
X111093605Y-78160376D01*
X103927316Y-93946656D02*
X111523989Y-97489043D01*
X132417815Y-97489043D02*
X132607946Y-97298907D01*
X111523989Y-97489043D02*
X132417815Y-97489043D01*
X142081010Y-92143848D02*
X142259947Y-91964907D01*
X132468506Y-92143846D02*
X142081010Y-92143848D01*
X136436833Y-79322445D02*
X153011391Y-71593603D01*
X154239963Y-68218132D02*
X169203106Y-61240704D01*
X169203106Y-61240704D02*
X171660248Y-54489758D01*
X184781772Y-48371094D02*
X188832338Y-49845375D01*
X188832338Y-49845375D02*
X191532714Y-50828234D01*
X191532714Y-50828234D02*
X203963636Y-45031601D01*
X184321366Y-48585780D02*
X184781772Y-48371094D01*
X171660248Y-54489758D02*
X184321366Y-48585780D01*
X153134248Y-71256055D02*
X154239963Y-68218132D01*
X153011391Y-71593603D02*
X153134248Y-71256055D01*
%TO.N,row1*%
X51983140Y-69093739D02*
X52320686Y-68970884D01*
X34487777Y-60935517D02*
X51983140Y-69093739D01*
X54360243Y-64597043D02*
X71625406Y-72647918D01*
X69478508Y-77251963D02*
X86743670Y-85302843D01*
X85777567Y-87374661D02*
X103042727Y-95425538D01*
X103042727Y-95425538D02*
X111548013Y-99391613D01*
X111548013Y-99391613D02*
X111548013Y-99391613D01*
X126197238Y-99391616D02*
X126257950Y-99330906D01*
X111548013Y-99391613D02*
X126197238Y-99391616D01*
X132139442Y-74692909D02*
X132468503Y-74363846D01*
X126257946Y-74692909D02*
X132139442Y-74692909D01*
X161185126Y-88521218D02*
X143689764Y-96679443D01*
X161185126Y-88521218D02*
X162290843Y-85483292D01*
X177714387Y-78291175D02*
X179434389Y-73565516D01*
X179434389Y-73565516D02*
X180171532Y-71540230D01*
X192832647Y-65636254D02*
X199583593Y-68093396D01*
X199583593Y-68093396D02*
X212014512Y-62296764D01*
X192372245Y-65850945D02*
X192832647Y-65636254D01*
X180171532Y-71540230D02*
X192372245Y-65850945D01*
X177253982Y-78505867D02*
X177714387Y-78291175D01*
X162290843Y-85483292D02*
X177253982Y-78505867D01*
X132468505Y-74363845D02*
X133536360Y-74363846D01*
X135090881Y-75918368D02*
X135090880Y-78239076D01*
X133536360Y-74363846D02*
X135090881Y-75918368D01*
%TO.N,row2*%
X27510351Y-75898656D02*
X29067421Y-76624732D01*
X29804562Y-78650016D02*
X30197806Y-78833390D01*
X29067421Y-76624732D02*
X29804562Y-78650016D01*
X30197806Y-78833390D02*
X30540262Y-79774282D01*
X44243694Y-86164299D02*
X44392668Y-86573593D01*
X30540262Y-79774282D02*
X44243694Y-86164299D01*
X46646913Y-81739347D02*
X63681877Y-89682879D01*
X61534971Y-94286923D02*
X78800139Y-102337802D01*
X77726690Y-104639822D02*
X94991851Y-112690702D01*
X117216156Y-112690702D02*
X117367947Y-112538909D01*
X94991851Y-112690702D02*
X117216156Y-112690702D01*
X117367947Y-112538909D02*
X154959949Y-112538908D01*
X169120815Y-105935588D02*
X169343350Y-106016583D01*
X154959949Y-112538908D02*
X169120815Y-105935588D01*
X168269900Y-103714561D02*
X185535065Y-95663685D01*
X183618365Y-90952295D02*
X200423121Y-83116107D01*
X201711263Y-85878533D02*
X204411642Y-86861389D01*
X204411642Y-86861389D02*
X219835186Y-79669272D01*
%TO.N,row3*%
X55293450Y-107070899D02*
X55630998Y-106948044D01*
X37107477Y-98590643D02*
X55293450Y-107070899D01*
X47380940Y-125241361D02*
X64876308Y-133399583D01*
X94580567Y-157700777D02*
X82008210Y-145128418D01*
X80547190Y-144105401D02*
X66160040Y-134031414D01*
X82008210Y-145128418D02*
X80547190Y-144105401D01*
X64890866Y-133439585D02*
X64876308Y-133399583D01*
X66160040Y-134031414D02*
X64890866Y-133439585D01*
X93602157Y-124654286D02*
X93854874Y-124562305D01*
X55630998Y-106948044D02*
X93602157Y-124654286D01*
X117030574Y-89801778D02*
X117228504Y-89603848D01*
X110063976Y-89801774D02*
X117030574Y-89801778D01*
X166389946Y-146320905D02*
X167405946Y-145304907D01*
X166389946Y-146320905D02*
X151403948Y-161306908D01*
X98196210Y-161316416D02*
X94580567Y-157700777D01*
X101540357Y-161316419D02*
X98196210Y-161316416D01*
X101549866Y-161306908D02*
X101540357Y-161316419D01*
X151403948Y-161306908D02*
X101549866Y-161306908D01*
X199939487Y-126420157D02*
X183595131Y-134041655D01*
X208474000Y-100381271D02*
X191439038Y-108324804D01*
X170746566Y-143038319D02*
X169685313Y-142851189D01*
X167578482Y-144326411D02*
X167405946Y-145304907D01*
X169685313Y-142851189D02*
X167578482Y-144326411D01*
X182398184Y-134879768D02*
X170746566Y-143038319D01*
X183595131Y-134041655D02*
X182398184Y-134879768D01*
%TO.N,led*%
X117228506Y-64203844D02*
X114182783Y-62783603D01*
X114182783Y-62783603D02*
X113952581Y-62676258D01*
X113325301Y-60952815D02*
X101890088Y-55620490D01*
X113952581Y-62676258D02*
X113325301Y-60952815D01*
X95619402Y-62193638D02*
X87792528Y-58543905D01*
X87792528Y-58543905D02*
X87113880Y-56679331D01*
X87113880Y-56679331D02*
X82279633Y-54425087D01*
X82279633Y-54425087D02*
X80559635Y-49699427D01*
X80559635Y-49699427D02*
X73193163Y-46264385D01*
X73193163Y-46264385D02*
X72456020Y-44239099D01*
X72456020Y-44239099D02*
X67391573Y-41877509D01*
X67391573Y-41877509D02*
X65028742Y-42737510D01*
X65028742Y-42737510D02*
X61805913Y-41234682D01*
X61805913Y-41234682D02*
X59105536Y-42217537D01*
X59105536Y-42217537D02*
X58676154Y-43138345D01*
X58676154Y-43138345D02*
X56650870Y-43875489D01*
X56650870Y-43875489D02*
X54809254Y-43016729D01*
X54809254Y-43016729D02*
X50758686Y-44491014D01*
X50758686Y-44491014D02*
X43622417Y-41163319D01*
X43622417Y-41163319D02*
X42272230Y-41654747D01*
X42272230Y-41654747D02*
X41306125Y-43726564D01*
X40293483Y-44095137D02*
X31545799Y-40016025D01*
X41306125Y-43726564D02*
X40293483Y-44095137D01*
%TO.N,Net-(D41-Pad2)*%
X28164382Y-31891432D02*
X28126511Y-31905217D01*
X41260080Y-37998056D02*
X28164382Y-31891432D01*
X18358107Y-52853615D02*
X24113167Y-55537240D01*
%TO.N,Net-(D42-Pad2)*%
X32046144Y-54752320D02*
X20766238Y-49492415D01*
X10537438Y-70226124D02*
X16062288Y-72802404D01*
%TO.N,Net-(D43-Pad2)*%
X30413620Y-86500991D02*
X30536479Y-86838537D01*
X23737760Y-83387985D02*
X30413620Y-86500991D01*
%TO.N,Net-(D47-Pad2)*%
X63160057Y-37311565D02*
X67764102Y-39458468D01*
X72152216Y-37861323D02*
X73993832Y-38720085D01*
X67764102Y-39458468D02*
X72152216Y-37861323D01*
%TO.N,Net-(D51-Pad2)*%
X57575000Y-90758809D02*
X57943573Y-91771449D01*
X57943573Y-91771449D02*
X69453681Y-97138703D01*
%TO.N,Net-(D54-Pad2)*%
X97460181Y-53305977D02*
X98841395Y-53950045D01*
X98841395Y-53950045D02*
X99824253Y-56650424D01*
X104428296Y-58797325D02*
X105288296Y-61160153D01*
X99824253Y-56650424D02*
X104428296Y-58797325D01*
%TO.N,Net-(D57-Pad2)*%
X74784313Y-117560928D02*
X61202385Y-111227573D01*
%TO.N,Net-(D58-Pad2)*%
X66678474Y-115711474D02*
X74709718Y-119456504D01*
X74709718Y-119456504D02*
X80180938Y-123287491D01*
%TO.N,Net-(D59-Pad2)*%
X87132714Y-128080106D02*
X92958524Y-132159384D01*
X97486117Y-136686977D02*
X97633858Y-136686976D01*
X92958524Y-132159384D02*
X97486117Y-136686977D01*
%TO.N,Net-(D60-Pad2)*%
X103201614Y-137225793D02*
X112590833Y-137225793D01*
X114319946Y-138954908D02*
X142767949Y-138954907D01*
X112590833Y-137225793D02*
X114319946Y-138954908D01*
X147177162Y-147499695D02*
X148609947Y-146066906D01*
X142767948Y-147499692D02*
X147177162Y-147499695D01*
%TO.N,Net-(D61-Pad2)*%
X153689945Y-138700907D02*
X158261945Y-134128908D01*
X158261945Y-134128908D02*
X161341674Y-131972461D01*
X163421936Y-132339268D02*
X164670322Y-131465135D01*
X161341674Y-131972461D02*
X163421936Y-132339268D01*
%TO.N,Net-(D62-Pad2)*%
X179962151Y-121442583D02*
X183184980Y-119939754D01*
X177936869Y-120705441D02*
X179962151Y-121442583D01*
X176325454Y-121456857D02*
X177936869Y-120705441D01*
X176310403Y-121454204D02*
X176325454Y-121456857D01*
X171078451Y-125117656D02*
X176310403Y-121454204D01*
%TO.N,Net-(D63-Pad2)*%
X187790263Y-113588406D02*
X175129146Y-119492383D01*
%TO.N,Net-(D66-Pad2)*%
X144027631Y-60007149D02*
X145408843Y-59363078D01*
X145408843Y-59363078D02*
X146099447Y-59041043D01*
X146590879Y-57690852D02*
X152576135Y-54899884D01*
X146099447Y-59041043D02*
X146590879Y-57690852D01*
%TO.N,Net-(D67-Pad2)*%
X156945739Y-47576016D02*
X149349069Y-51118405D01*
%TO.N,Net-(D68-Pad2)*%
X165334964Y-65566768D02*
X158198697Y-68894465D01*
%TO.N,Net-(D69-Pad2)*%
X179263315Y-82613542D02*
X179386169Y-82275996D01*
X175963362Y-84152337D02*
X179263315Y-82613542D01*
X191274603Y-93547808D02*
X191949699Y-93793522D01*
X186900763Y-95587363D02*
X191274603Y-93547808D01*
%TO.N,Net-(D73-Pad2)*%
X176028211Y-36677293D02*
X177409422Y-36033222D01*
X186185652Y-39227505D02*
X187106461Y-38798127D01*
X177409422Y-36033222D02*
X186185652Y-39227505D01*
%TO.N,Net-(D75-Pad2)*%
X199635088Y-49572356D02*
X192729023Y-52792709D01*
%TO.N,Net-(D76-Pad2)*%
X207916169Y-66730174D02*
X200779902Y-70057871D01*
%TO.N,Net-(D77-Pad2)*%
X218774771Y-85208397D02*
X221537195Y-83920258D01*
X223871480Y-77506861D02*
X225482898Y-76755447D01*
X221537195Y-83920258D02*
X223871480Y-77506861D01*
%TO.N,RESET*%
X130397007Y-69283846D02*
X130321946Y-69358908D01*
X132468506Y-69283847D02*
X130397007Y-69283846D01*
X131083946Y-113300909D02*
X148609946Y-113300908D01*
X147593945Y-137430909D02*
X142005948Y-137430907D01*
%TO.N,col0*%
X21576585Y-91628722D02*
X6383242Y-84543951D01*
X6383242Y-84543951D02*
X6137526Y-83868860D01*
X26145046Y-41981739D02*
X30518887Y-44021297D01*
X31242080Y-46008257D02*
X33774304Y-47189055D01*
X30518887Y-44021297D02*
X31242080Y-46008257D01*
X33774304Y-47189055D02*
X38727362Y-49498701D01*
X38727362Y-49498701D02*
X38891020Y-49575018D01*
X38891020Y-49575018D02*
X42228174Y-48360392D01*
X42228174Y-48360392D02*
X44530195Y-49433847D01*
X45053157Y-49243502D02*
X46768325Y-50043300D01*
X44530195Y-49433847D02*
X45053157Y-49243502D01*
X113525083Y-66753014D02*
X117219334Y-66753015D01*
X112374072Y-66216289D02*
X113525083Y-66753014D01*
X111023882Y-66707717D02*
X112374072Y-66216289D01*
X48146615Y-47087545D02*
X60503445Y-52849630D01*
X60503445Y-52849630D02*
X67460596Y-50317433D01*
X67460596Y-50317433D02*
X78673959Y-55546311D01*
X78673959Y-55546311D02*
X79533960Y-57909142D01*
X101074526Y-61728057D02*
X109493534Y-65653906D01*
X79533960Y-57909142D02*
X85058812Y-60485425D01*
X88096738Y-59379709D02*
X94542395Y-62385371D01*
X109642667Y-66063648D02*
X111023882Y-66707717D01*
X85058812Y-60485425D02*
X88096738Y-59379709D01*
X109493534Y-65653906D02*
X109642667Y-66063648D01*
X94542395Y-62385371D02*
X94589831Y-62515697D01*
X117219334Y-66753015D02*
X117228503Y-66743846D01*
X94589831Y-62515697D02*
X96483890Y-63398911D01*
X96483890Y-63398911D02*
X101074526Y-61728057D01*
%TO.N,col1*%
X30902572Y-79442283D02*
X30411143Y-78092095D01*
X47016725Y-86956439D02*
X30902572Y-79442283D01*
X41987131Y-52844155D02*
X45900569Y-54669022D01*
X45900569Y-54669022D02*
X46373051Y-54497053D01*
X46373051Y-54497053D02*
X51207298Y-56751300D01*
X51207298Y-56751300D02*
X51282352Y-56957499D01*
X51282352Y-56957499D02*
X51330154Y-57088846D01*
X51330154Y-57088846D02*
X53171773Y-57947606D01*
X53171773Y-57947606D02*
X53509319Y-57824751D01*
X53509319Y-57824751D02*
X55811342Y-58898200D01*
X62634481Y-56414781D02*
X70823289Y-60233285D01*
X55811342Y-58898200D02*
X62634481Y-56414781D01*
X70823289Y-60233285D02*
X70972422Y-60643024D01*
X72583837Y-61394441D02*
X72993580Y-61245308D01*
X70972422Y-60643024D02*
X72583837Y-61394441D01*
X74736726Y-62058150D02*
X75008715Y-62805438D01*
X72993580Y-61245308D02*
X74736726Y-62058150D01*
X77932030Y-61932571D02*
X78385337Y-63178023D01*
X84279177Y-65695218D02*
X84380505Y-65973617D01*
X83598693Y-65377902D02*
X84279177Y-65695218D01*
X83320293Y-65479232D02*
X83598693Y-65377902D01*
X78385337Y-63178023D02*
X83320293Y-65479232D01*
X84380505Y-65973617D02*
X91516774Y-69301316D01*
X91516774Y-69301316D02*
X92535105Y-72099160D01*
X92535105Y-72099160D02*
X97139148Y-74246059D01*
X97139148Y-74246059D02*
X97476694Y-74123203D01*
X97476694Y-74123203D02*
X100929730Y-75733380D01*
X100929730Y-75733380D02*
X101052586Y-76070927D01*
X101052586Y-76070927D02*
X101390134Y-75948072D01*
X101390134Y-75948072D02*
X109907611Y-79919835D01*
X116752517Y-79919833D02*
X117228505Y-79443844D01*
X109907611Y-79919835D02*
X116752517Y-79919833D01*
%TO.N,col2*%
X65140650Y-93165700D02*
X47875485Y-85114821D01*
X62215017Y-99380970D02*
X77408361Y-106465744D01*
X77408361Y-106465744D02*
X78013740Y-106245404D01*
X78013740Y-106245404D02*
X82387582Y-108284958D01*
X82387582Y-108284958D02*
X82510438Y-108622507D01*
X82510438Y-108622507D02*
X95631965Y-114741170D01*
X95631965Y-114741170D02*
X95862166Y-114848517D01*
X113534338Y-114848520D02*
X113557949Y-114824907D01*
X95862166Y-114848517D02*
X113534338Y-114848520D01*
X116899441Y-82312909D02*
X117228501Y-81983848D01*
X113557945Y-82312909D02*
X116899441Y-82312909D01*
%TO.N,col3*%
X63626836Y-98867111D02*
X63495492Y-98914917D01*
X83334649Y-108057013D02*
X63626836Y-98867111D01*
X83334649Y-108057013D02*
X93834372Y-112953117D01*
X93834372Y-112953117D02*
X93882179Y-113084461D01*
X93882179Y-113084461D02*
X95953998Y-114050566D01*
X114561606Y-114050566D02*
X114573947Y-114062908D01*
X95953998Y-114050566D02*
X114561606Y-114050566D01*
X117153442Y-84598909D02*
X117228504Y-84523848D01*
X114573947Y-84598908D02*
X117153442Y-84598909D01*
X144545948Y-133620910D02*
X132353948Y-133620909D01*
X131164884Y-132431846D02*
X129898507Y-132431845D01*
X132353948Y-133620909D02*
X131164884Y-132431846D01*
X126592885Y-132431846D02*
X126511946Y-132350908D01*
X129898507Y-132431845D02*
X126592885Y-132431846D01*
X126257949Y-114062908D02*
X114573947Y-114062908D01*
%TO.N,col4*%
X78382312Y-107258041D02*
X96107880Y-115523612D01*
X96107880Y-115523612D02*
X112478653Y-115523613D01*
X112795948Y-115840909D02*
X115335946Y-115840908D01*
X112478653Y-115523613D02*
X112795948Y-115840909D01*
X117153443Y-87138908D02*
X117228506Y-87063847D01*
X115335948Y-87138909D02*
X117153443Y-87138908D01*
X105096660Y-133633692D02*
X106298504Y-132431845D01*
X95658202Y-133633690D02*
X105096660Y-133633692D01*
%TO.N,col5*%
X144037946Y-138446908D02*
X148355946Y-138446908D01*
X143414583Y-57490437D02*
X135357508Y-61247512D01*
X144643154Y-54114964D02*
X143414583Y-57490437D01*
X162340177Y-38576000D02*
X159145891Y-47352227D01*
X175691903Y-32349985D02*
X162340177Y-38576000D01*
X182442847Y-34807129D02*
X175691903Y-32349985D01*
X159145891Y-47352227D02*
X144643154Y-54114964D01*
X197405990Y-27829701D02*
X182442847Y-34807129D01*
%TO.N,col6*%
X229133585Y-97672794D02*
X212328825Y-105508983D01*
X208908058Y-101779208D02*
X176449549Y-116914860D01*
X132468505Y-79443847D02*
X135901200Y-80693247D01*
X135901200Y-80693247D02*
X153901177Y-72299719D01*
X154566335Y-70472214D02*
X155526701Y-70024387D01*
X153901177Y-72299719D02*
X154566335Y-70472214D01*
X176210834Y-116872771D02*
X176449549Y-116914860D01*
X158489895Y-129281107D02*
X176210834Y-116872771D01*
%TO.N,col7*%
X230376426Y-97934021D02*
X211960255Y-106521624D01*
X182055680Y-98886491D02*
X188501340Y-95880829D01*
X171466382Y-103824363D02*
X182055680Y-98886491D01*
X188759026Y-111977013D02*
X188496382Y-112698619D01*
X208473404Y-102784050D02*
X188759026Y-111977013D01*
X133960510Y-81288110D02*
X136021727Y-82038334D01*
X132468506Y-81983847D02*
X133960510Y-81288110D01*
X143198333Y-98029630D02*
X161668851Y-89416685D01*
X162305114Y-89119994D02*
X162796541Y-87769802D01*
X161668851Y-89416685D02*
X162305114Y-89119994D01*
X171430784Y-103922165D02*
X171466382Y-103824363D01*
X169834779Y-104666394D02*
X171430784Y-103922165D01*
%TO.N,col8*%
X135477010Y-84523846D02*
X135655947Y-84344909D01*
X132468504Y-84523847D02*
X135477010Y-84523846D01*
X189339914Y-97813066D02*
X192792945Y-96202887D01*
X192792945Y-96202887D02*
X194818232Y-96940031D01*
X194818232Y-96940031D02*
X195569643Y-98551447D01*
X195569643Y-98551447D02*
X197932479Y-99411446D01*
X208751978Y-94366229D02*
X208775594Y-94301345D01*
X197932479Y-99411446D02*
X208751978Y-94366229D01*
X155975947Y-114316908D02*
X135655947Y-114316908D01*
X174422492Y-105715144D02*
X155975947Y-114316908D01*
X174837178Y-104575802D02*
X174422492Y-105715144D01*
X189339914Y-97813066D02*
X174837178Y-104575802D01*
%TO.N,sda*%
X122675009Y-142791846D02*
X122701948Y-142764908D01*
X111024503Y-142791843D02*
X122675009Y-142791846D01*
X122701945Y-96762042D02*
X112795947Y-96762044D01*
X117153441Y-74438910D02*
X117228507Y-74363846D01*
X114319948Y-74438907D02*
X117153441Y-74438910D01*
%TO.N,scl*%
X111051440Y-145304907D02*
X111024504Y-145331846D01*
X123717947Y-145304909D02*
X111051440Y-145304907D01*
X117153441Y-76978908D02*
X117228505Y-76903847D01*
X111779948Y-76978908D02*
X117153441Y-76978908D01*
X123717948Y-95774908D02*
X112033947Y-95774908D01*
%TO.N,Net-(D82-Pad2)*%
X141829567Y-120412908D02*
X143848504Y-122431846D01*
X127019946Y-120412907D02*
X141829567Y-120412908D01*
%TO.N,ENC1B*%
X111793008Y-122431845D02*
X111779948Y-122444907D01*
X120348505Y-122431846D02*
X111793008Y-122431845D01*
%TO.N,ENC1A*%
X120255441Y-127524908D02*
X120348504Y-127431846D01*
X109239948Y-127524907D02*
X120255441Y-127524908D01*
%TO.N,ENC2B*%
X135241010Y-127431848D02*
X135401945Y-127270908D01*
X129348505Y-127431847D02*
X135241010Y-127431848D01*
X129187570Y-127270907D02*
X129348505Y-127431847D01*
X124987946Y-127270908D02*
X129187570Y-127270907D01*
%TO.N,ENC2A*%
X129361565Y-122444909D02*
X129348505Y-122431848D01*
X132861946Y-122444909D02*
X129361565Y-122444909D01*
X134564885Y-87063846D02*
X134639948Y-87138910D01*
X132468503Y-87063844D02*
X134564885Y-87063846D01*
%TO.N,row4*%
X102635948Y-136160907D02*
X114065947Y-136160909D01*
X114065947Y-136160909D02*
X116097947Y-138192911D01*
X116097947Y-138192911D02*
X132353946Y-138192907D01*
X133877947Y-136668908D02*
X146831946Y-136668908D01*
X132353946Y-138192907D02*
X133877947Y-136668908D01*
X136596887Y-89603846D02*
X136671947Y-89678906D01*
X132468502Y-89603847D02*
X136596887Y-89603846D01*
X136671949Y-115332907D02*
X147593947Y-115332907D01*
X242380444Y-82807684D02*
X225147001Y-90843772D01*
X227778720Y-96704232D02*
X210283353Y-104862458D01*
X189804008Y-112291885D02*
X189734551Y-112482716D01*
X207629636Y-103979661D02*
X189804008Y-112291885D01*
X184367301Y-100972607D02*
X175389414Y-105159063D01*
X175389414Y-105159063D02*
X175020844Y-106171705D01*
X175020844Y-106171705D02*
X155453657Y-115296034D01*
X155416785Y-115332907D02*
X147593947Y-115332907D01*
X155453657Y-115296034D02*
X155416785Y-115332907D01*
%TO.N,B-*%
X106890159Y-98411092D02*
X111724404Y-100665336D01*
X128733520Y-100665337D02*
X128797948Y-100600908D01*
X111724404Y-100665336D02*
X128733520Y-100665337D01*
X132139440Y-67072909D02*
X132468503Y-66743847D01*
X128797947Y-67072907D02*
X132139440Y-67072909D01*
X96697661Y-119322716D02*
X97229106Y-119129286D01*
X64562233Y-104337721D02*
X96697661Y-119322716D01*
X62890206Y-108013632D02*
X62871761Y-107962952D01*
X95419690Y-123182378D02*
X62890206Y-108013632D01*
%TO.N,B+*%
X87588556Y-53257322D02*
X89890578Y-54330773D01*
X89890578Y-54330773D02*
X90637866Y-54058785D01*
X90637866Y-54058785D02*
X93532024Y-55408355D01*
X93532024Y-55408355D02*
X93804017Y-56155641D01*
X93804017Y-56155641D02*
X99328867Y-58731921D01*
X102227183Y-52516461D02*
X120873561Y-61211409D01*
X132468503Y-64203846D02*
X121356887Y-64203846D01*
X120873561Y-63720522D02*
X120873561Y-61211409D01*
X121356887Y-64203846D02*
X120873561Y-63720522D01*
%TO.N,Net-(J2-Pad2)*%
X72256515Y-110132380D02*
X72260448Y-110143190D01*
X63716997Y-106150338D02*
X72256515Y-110132380D01*
%TD*%
M02*
