%TF.GenerationSoftware,KiCad,Pcbnew,(5.1.10)-1*%
%TF.CreationDate,2021-12-17T13:46:14-08:00*%
%TF.ProjectId,barobord,6261726f-626f-4726-942e-6b696361645f,rev?*%
%TF.SameCoordinates,Original*%
%TF.FileFunction,Legend,Top*%
%TF.FilePolarity,Positive*%
%FSLAX46Y46*%
G04 Gerber Fmt 4.6, Leading zero omitted, Abs format (unit mm)*
G04 Created by KiCad (PCBNEW (5.1.10)-1) date 2021-12-17 13:46:14*
%MOMM*%
%LPD*%
G01*
G04 APERTURE LIST*
%ADD10C,0.080000*%
%ADD11C,0.150000*%
%ADD12C,0.381000*%
%ADD13C,0.120000*%
%ADD14C,0.300000*%
G04 APERTURE END LIST*
D10*
X146593369Y-110894545D02*
X146762041Y-110803345D01*
X146446747Y-126310570D02*
X146325750Y-126163946D01*
X155579675Y-120544434D02*
X155501574Y-120966535D01*
X148141185Y-124616267D02*
X148141183Y-112710043D01*
X146176785Y-111517344D02*
X146234525Y-111330844D01*
X165563805Y-126431560D02*
X165395204Y-126522786D01*
X166000604Y-125658482D02*
X165980406Y-125808826D01*
X164016202Y-112710044D02*
X164016206Y-124616266D01*
X147098831Y-110725646D02*
X147148995Y-110725642D01*
X165008404Y-110725648D02*
X165058406Y-110725646D01*
X146156805Y-125658484D02*
X146156806Y-125608457D01*
X147148995Y-110725642D02*
X165008404Y-110725648D01*
X146176785Y-125808825D02*
X146156805Y-125658484D01*
X146234525Y-111330844D02*
X146325752Y-111162247D01*
X146593368Y-126431558D02*
X146446747Y-126310570D01*
X165208705Y-126580525D02*
X165058406Y-126600643D01*
X155501574Y-120966535D02*
X155485975Y-121019315D01*
X147148993Y-126600644D02*
X147098831Y-126600645D01*
X146948486Y-110745645D02*
X147098831Y-110725646D01*
X146156802Y-111667647D02*
X146176785Y-111517344D01*
X146156806Y-125608457D02*
X146156805Y-111717847D01*
X165922704Y-125995271D02*
X165831505Y-126163945D01*
X165395204Y-110803345D02*
X165563803Y-110894547D01*
X146762039Y-126522787D02*
X146593368Y-126431558D01*
X165980406Y-125808826D02*
X165922704Y-125995271D01*
X165980404Y-111517344D02*
X166000605Y-111667643D01*
X165058406Y-126600643D02*
X165008405Y-126600644D01*
X146325750Y-126163946D02*
X146234525Y-125995271D01*
X165831504Y-111162245D02*
X165922704Y-111330846D01*
X165058406Y-110725646D02*
X165208705Y-110745646D01*
X165208705Y-110745646D02*
X165395204Y-110803345D01*
X146156805Y-111717847D02*
X146156802Y-111667647D01*
X147098831Y-126600645D02*
X146948490Y-126580527D01*
X165831505Y-126163945D02*
X165710506Y-126310569D01*
X165008405Y-126600644D02*
X147148993Y-126600644D01*
X164016206Y-124616266D02*
X148141185Y-124616267D01*
X166000605Y-111667643D02*
X166000604Y-111717846D01*
X166000604Y-125608457D02*
X166000604Y-125658482D01*
X165710506Y-111015545D02*
X165831504Y-111162245D01*
X165922704Y-111330846D02*
X165980404Y-111517344D01*
X146948490Y-126580527D02*
X146762039Y-126522787D01*
X165710506Y-126310569D02*
X165563805Y-126431560D01*
X166000604Y-111717846D02*
X166000604Y-125608457D01*
X146325752Y-111162247D02*
X146446744Y-111015546D01*
X146762041Y-110803345D02*
X146948486Y-110745645D01*
X165563803Y-110894547D02*
X165710506Y-111015545D01*
X155470275Y-121071948D02*
X155245526Y-121560477D01*
X148141183Y-112710043D02*
X164016202Y-112710044D01*
X146234525Y-125995271D02*
X146176785Y-125808825D01*
X165395204Y-126522786D02*
X165208705Y-126580525D01*
X155485975Y-121019315D02*
X155470275Y-121071948D01*
X146446744Y-111015546D02*
X146593369Y-110894545D01*
X155579673Y-120386258D02*
X155579675Y-120544434D01*
X153724596Y-119303365D02*
X153605107Y-119241524D01*
X153868173Y-119407434D02*
X153724596Y-119303365D01*
X153994255Y-119537925D02*
X153868173Y-119407434D01*
X154078604Y-119653676D02*
X153994255Y-119537925D01*
X154121714Y-117043965D02*
X154149696Y-116842887D01*
X154102705Y-119694733D02*
X154078604Y-119653676D01*
X153899043Y-117501164D02*
X154038214Y-117285796D01*
X154313694Y-120316506D02*
X154260923Y-120037464D01*
X153704166Y-117690254D02*
X153757085Y-117648344D01*
X153757085Y-117648344D02*
X153899043Y-117501164D01*
X154137833Y-119749314D02*
X154102705Y-119694733D01*
X154313694Y-120409677D02*
X154313694Y-120316506D01*
X154038214Y-117285796D02*
X154121714Y-117043965D01*
X153676755Y-117711735D02*
X153704166Y-117690254D01*
X154149696Y-116842887D02*
X154149695Y-116775927D01*
X153542946Y-117798556D02*
X153676755Y-117711735D01*
X153541993Y-119217956D02*
X153443324Y-119190517D01*
X153563483Y-119225795D02*
X153541993Y-119217956D01*
X153605107Y-119241524D02*
X153563483Y-119225795D01*
X154260923Y-120037464D02*
X154137833Y-119749314D01*
X151477014Y-117901216D02*
X152965695Y-117901217D01*
X154149696Y-116688685D02*
X154096105Y-116427144D01*
X153735452Y-122550867D02*
X153342713Y-122589985D01*
X154838315Y-118827115D02*
X155185024Y-119180747D01*
X154418433Y-118413586D02*
X154290275Y-118487326D01*
X155392134Y-116615376D02*
X155392135Y-116717227D01*
X154278562Y-122416104D02*
X154076382Y-122478508D01*
X154079274Y-114888747D02*
X154145705Y-114914046D01*
X153211933Y-114736247D02*
X153324686Y-114736247D01*
X150234426Y-114736245D02*
X153211933Y-114736247D01*
X154856764Y-122050768D02*
X154817784Y-122085903D01*
X155116651Y-117728285D02*
X154772307Y-118139197D01*
X155323245Y-117254225D02*
X155116651Y-117728285D01*
X154360545Y-122382865D02*
X154313696Y-122402443D01*
X153387653Y-117866074D02*
X153413026Y-117858247D01*
X155392135Y-116851457D02*
X155323245Y-117254225D01*
X154772307Y-118139197D02*
X154418433Y-118413586D01*
X155245526Y-121560477D02*
X155216313Y-121605386D01*
X151477015Y-115978845D02*
X151477014Y-117901216D01*
X153362154Y-117871865D02*
X153387653Y-117866074D01*
X153205865Y-117892394D02*
X153362154Y-117871865D01*
X153342713Y-122589985D02*
X153211935Y-122589987D01*
X155239734Y-119260925D02*
X155296363Y-119341005D01*
X153025636Y-117901217D02*
X153205865Y-117892394D01*
X153293955Y-115978847D02*
X151477015Y-115978845D01*
X154770934Y-115310643D02*
X154819723Y-115353644D01*
X155188865Y-121650326D02*
X155034525Y-121860337D01*
X153838962Y-122533366D02*
X153786332Y-122543136D01*
X154096105Y-116427144D02*
X153935694Y-116178144D01*
X154290275Y-118487326D02*
X154393744Y-118536076D01*
X155031634Y-115594745D02*
X155200584Y-115871243D01*
X154817784Y-122085903D02*
X154780566Y-122119133D01*
X154580324Y-122264655D02*
X154360545Y-122382865D01*
X152965695Y-117901217D02*
X153025636Y-117901217D01*
X153668212Y-116028647D02*
X153387515Y-115978848D01*
X154149695Y-116775927D02*
X154149696Y-116688685D01*
X155200584Y-115871243D02*
X155228024Y-115931842D01*
X155579673Y-120235196D02*
X155579673Y-120386258D01*
X155494653Y-119782505D02*
X155579673Y-120235196D01*
X155296363Y-119341005D02*
X155494653Y-119782505D01*
X155255297Y-115992346D02*
X155351075Y-116309846D01*
X155351075Y-116309846D02*
X155392134Y-116615376D01*
X154722004Y-115265746D02*
X154770934Y-115310643D01*
X153786332Y-122543136D02*
X153735452Y-122550867D01*
X154819723Y-115353644D02*
X155031634Y-115594745D01*
X150234423Y-122589987D02*
X150234426Y-114736245D01*
X154076382Y-122478508D02*
X153838962Y-122533366D01*
X155034525Y-121860337D02*
X154856764Y-122050768D01*
X153387515Y-115978848D02*
X153293955Y-115978847D01*
X153324686Y-114736247D02*
X153663106Y-114774346D01*
X155185024Y-119180747D02*
X155239734Y-119260925D01*
X154313696Y-122402443D02*
X154278562Y-122416104D01*
X154393744Y-118536076D02*
X154838315Y-118827115D01*
X154451354Y-115070344D02*
X154722004Y-115265746D01*
X154780566Y-122119133D02*
X154580324Y-122264655D01*
X155216313Y-121605386D02*
X155188865Y-121650326D01*
X153663106Y-114774346D02*
X154012846Y-114863245D01*
X153211935Y-122589987D02*
X150234423Y-122589987D01*
X154012846Y-114863245D02*
X154079274Y-114888747D01*
X155392135Y-116717227D02*
X155392135Y-116851457D01*
X154145705Y-114914046D02*
X154451354Y-115070344D01*
X155228024Y-115931842D02*
X155255297Y-115992346D01*
X153413026Y-117858247D02*
X153542946Y-117798556D01*
X153935694Y-116178144D02*
X153668212Y-116028647D01*
X158540807Y-116178047D02*
X158380403Y-116427147D01*
X158808204Y-116028446D02*
X158540807Y-116178047D01*
X160999505Y-115978745D02*
X159182603Y-115978747D01*
X158933404Y-117798555D02*
X159063404Y-117858245D01*
X159088905Y-115978745D02*
X158808204Y-116028446D01*
X159114205Y-117871865D02*
X159270504Y-117892397D01*
X159182603Y-115978747D02*
X159088905Y-115978745D01*
X160999504Y-117901214D02*
X160999505Y-115978745D01*
X159510806Y-117901216D02*
X160999504Y-117901214D01*
X159450705Y-117901216D02*
X159510806Y-117901216D01*
X159270504Y-117892397D02*
X159450705Y-117901216D01*
X159063404Y-117858245D02*
X159088907Y-117866075D01*
X159088907Y-117866075D02*
X159114205Y-117871865D01*
X158799605Y-117711736D02*
X158933404Y-117798555D01*
X158482106Y-119537788D02*
X158397805Y-119653535D01*
X158871305Y-119241526D02*
X158751806Y-119303365D01*
X154313694Y-120509587D02*
X154313694Y-120409677D01*
X153457507Y-121324005D02*
X153772956Y-121266825D01*
X151477014Y-119167227D02*
X151477016Y-121324005D01*
X158934503Y-119217957D02*
X158913002Y-119225797D01*
X158326902Y-116842886D02*
X158354704Y-117043968D01*
X158326908Y-116775926D02*
X158326902Y-116842886D01*
X158215503Y-120037465D02*
X158162803Y-120316506D01*
X158913002Y-119225797D02*
X158871305Y-119241526D01*
X159255903Y-119170126D02*
X159151306Y-119176855D01*
X159135703Y-119178944D02*
X159110102Y-119178944D01*
X159151306Y-119176855D02*
X159135703Y-119178944D01*
X160999505Y-119167225D02*
X159428806Y-119167227D01*
X158403006Y-121095376D02*
X158703406Y-121266823D01*
X154073354Y-121095378D02*
X154253615Y-120809722D01*
X153772956Y-121266825D02*
X154073354Y-121095378D01*
X158222806Y-120809726D02*
X158403006Y-121095376D01*
X153366413Y-119178944D02*
X153340804Y-119178945D01*
X158397805Y-119653535D02*
X158373806Y-119694596D01*
X151477016Y-121324005D02*
X153352516Y-121324004D01*
X153220614Y-119170127D02*
X153090966Y-119167226D01*
X158608205Y-119407434D02*
X158482106Y-119537788D01*
X158751806Y-119303365D02*
X158608205Y-119407434D01*
X159124003Y-121324006D02*
X160999506Y-121324007D01*
X158338504Y-119749315D02*
X158215503Y-120037465D01*
X153352516Y-121324004D02*
X153457507Y-121324005D01*
X159428806Y-119167227D02*
X159385506Y-119167226D01*
X158162806Y-120509587D02*
X158222806Y-120809726D01*
X158373806Y-119694596D02*
X158338504Y-119749315D01*
X159385506Y-119167226D02*
X159255903Y-119170126D01*
X159033205Y-119190515D02*
X158934503Y-119217957D01*
X153090966Y-119167226D02*
X153047825Y-119167224D01*
X154253615Y-120809722D02*
X154313694Y-120509587D01*
X153443324Y-119190517D02*
X153366413Y-119178944D01*
X159110102Y-119178944D02*
X159033205Y-119190515D01*
X153325072Y-119176854D02*
X153220614Y-119170127D01*
X158162807Y-120409676D02*
X158162806Y-120509587D01*
X158772304Y-117690256D02*
X158799605Y-117711736D01*
X158719305Y-117648348D02*
X158772304Y-117690256D01*
X158577304Y-117501164D02*
X158719305Y-117648348D01*
X153340804Y-119178945D02*
X153325072Y-119176854D01*
X158438207Y-117285798D02*
X158577304Y-117501164D01*
X158703406Y-121266823D02*
X159018905Y-121324006D01*
X158354704Y-117043968D02*
X158438207Y-117285798D01*
X153047825Y-119167224D02*
X151477014Y-119167227D01*
X160999506Y-121324007D02*
X160999505Y-119167225D01*
X159018905Y-121324006D02*
X159124003Y-121324006D01*
X158162803Y-120316506D02*
X158162807Y-120409676D01*
X158397204Y-114888745D02*
X158463605Y-114863247D01*
X157619605Y-122050763D02*
X157441804Y-121860337D01*
X157638203Y-118827117D02*
X158082602Y-118536074D01*
X157260206Y-121605386D02*
X157230804Y-121560332D01*
X156896806Y-120531208D02*
X156896803Y-120386255D01*
X158025008Y-115070346D02*
X158330807Y-114914045D01*
X156974802Y-120966535D02*
X156896806Y-120531208D01*
X157695806Y-122119135D02*
X157658702Y-122085904D01*
X157658702Y-122085904D02*
X157619605Y-122050763D01*
X158162805Y-122402443D02*
X158115803Y-122382865D01*
X158198006Y-122416108D02*
X158162805Y-122402443D01*
X158400104Y-122478508D02*
X158198006Y-122416108D01*
X158741106Y-122550867D02*
X158690304Y-122543136D01*
X158330807Y-114914045D02*
X158397204Y-114888745D01*
X157084403Y-116717365D02*
X157084404Y-116615374D01*
X157084402Y-116851566D02*
X157084403Y-116717365D01*
X157359705Y-117728285D02*
X157153105Y-117254224D01*
X157180006Y-119341007D02*
X157236804Y-119260927D01*
X158380403Y-116427147D02*
X158326905Y-116688686D01*
X159264706Y-114736245D02*
X162242105Y-114736246D01*
X159151804Y-114736246D02*
X159264706Y-114736245D01*
X157705606Y-115310645D02*
X157754407Y-115265747D01*
X157125303Y-116309846D02*
X157221106Y-115992348D01*
X156981704Y-119782506D02*
X157180006Y-119341007D01*
X157230804Y-121560332D02*
X157006107Y-121071946D01*
X157444702Y-115594747D02*
X157656706Y-115353548D01*
X157287505Y-121650326D02*
X157260206Y-121605386D01*
X156896803Y-120386255D02*
X156896804Y-120235196D01*
X157441804Y-121860337D02*
X157287505Y-121650326D01*
X159264703Y-122589984D02*
X159121105Y-122589987D01*
X157084404Y-116615374D02*
X157125303Y-116309846D01*
X158326905Y-116688686D02*
X158326908Y-116775926D01*
X157704104Y-118139195D02*
X157359705Y-117728285D01*
X158690304Y-122543136D02*
X158637506Y-122533365D01*
X158813404Y-114774346D02*
X159151804Y-114736246D01*
X157754407Y-115265747D02*
X158025008Y-115070346D01*
X158637506Y-122533365D02*
X158400104Y-122478508D01*
X156990504Y-121019317D02*
X156974802Y-120966535D01*
X157896006Y-122264656D02*
X157695806Y-122119135D01*
X157006107Y-121071946D02*
X156990504Y-121019317D01*
X158115803Y-122382865D02*
X157896006Y-122264656D01*
X157221106Y-115992348D02*
X157248504Y-115931846D01*
X158082602Y-118536074D02*
X158186203Y-118487325D01*
X158463605Y-114863247D02*
X158813404Y-114774346D01*
X162242105Y-114736246D02*
X162242107Y-122589988D01*
X158057904Y-118413584D02*
X157704104Y-118139195D01*
X156896804Y-120235196D02*
X156981704Y-119782506D01*
X157656706Y-115353548D02*
X157705606Y-115310645D01*
X157275803Y-115871245D02*
X157444702Y-115594747D01*
X157291506Y-119180745D02*
X157638203Y-118827117D01*
X158186203Y-118487325D02*
X158057904Y-118413584D01*
X157236804Y-119260927D02*
X157291506Y-119180745D01*
X159121105Y-122589987D02*
X158741106Y-122550867D01*
X162242107Y-122589988D02*
X159264703Y-122589984D01*
X157153105Y-117254224D02*
X157084402Y-116851566D01*
X157248504Y-115931846D02*
X157275803Y-115871245D01*
X91616445Y-117545695D02*
X91699943Y-117303863D01*
X90784095Y-118152297D02*
X90940385Y-118131766D01*
X91727924Y-117035826D02*
X91727925Y-116948585D01*
X91477273Y-117761064D02*
X91616445Y-117545695D01*
X91335314Y-117908245D02*
X91477273Y-117761064D01*
X92901474Y-117514124D02*
X92694882Y-117988186D01*
X91282391Y-117950156D02*
X91335314Y-117908245D01*
X91121175Y-118058453D02*
X91254983Y-117971636D01*
X91591073Y-115123143D02*
X91657504Y-115148647D01*
X90991254Y-118118147D02*
X91121175Y-118058453D01*
X92694882Y-117988186D02*
X92350533Y-118399095D01*
X90940385Y-118131766D02*
X90965886Y-118125975D01*
X91241333Y-115034247D02*
X91591073Y-115123143D01*
X89055245Y-116238747D02*
X89055243Y-118161116D01*
X92416546Y-119087015D02*
X92763253Y-119440647D01*
X91246442Y-116288545D02*
X90965743Y-116238744D01*
X92817966Y-119520828D02*
X92874598Y-119600904D01*
X92609865Y-115854643D02*
X92778812Y-116131147D01*
X92397953Y-115613546D02*
X92609865Y-115854643D01*
X92763253Y-119440647D02*
X92817966Y-119520828D01*
X90543925Y-118161117D02*
X90603864Y-118161116D01*
X92350533Y-118399095D02*
X91996664Y-118673484D01*
X92833525Y-116252247D02*
X92929305Y-116569746D01*
X87812654Y-114996143D02*
X90790162Y-114996148D01*
X91513924Y-116438047D02*
X91246442Y-116288545D01*
X91657504Y-115148647D02*
X91723934Y-115173943D01*
X93072884Y-120042403D02*
X93157906Y-120495095D01*
X91971974Y-118795975D02*
X92416546Y-119087015D01*
X90872185Y-116238746D02*
X89055245Y-116238747D01*
X91996664Y-118673484D02*
X91868502Y-118747228D01*
X91868502Y-118747228D02*
X91971974Y-118795975D01*
X92806255Y-116191745D02*
X92833525Y-116252247D01*
X91674334Y-116687046D02*
X91513924Y-116438047D01*
X90790162Y-114996148D02*
X90902916Y-114996145D01*
X93157906Y-120495095D02*
X93157904Y-120646154D01*
X92970366Y-116977125D02*
X92970363Y-117111355D01*
X92929305Y-116569746D02*
X92970364Y-116875278D01*
X92300234Y-115525645D02*
X92349167Y-115570546D01*
X90965743Y-116238744D02*
X90872185Y-116238746D01*
X92874598Y-119600904D02*
X93072884Y-120042403D01*
X92349167Y-115570546D02*
X92397953Y-115613546D01*
X92778812Y-116131147D02*
X92806255Y-116191745D01*
X91839154Y-120297366D02*
X91716062Y-120009213D01*
X92029584Y-115330248D02*
X92300234Y-115525645D01*
X90965886Y-118125975D02*
X90991254Y-118118147D01*
X91891925Y-120576403D02*
X91839154Y-120297366D01*
X91891926Y-120669574D02*
X91891925Y-120576403D01*
X91727923Y-117102788D02*
X91727924Y-117035826D01*
X89055243Y-118161116D02*
X90543925Y-118161117D01*
X92970363Y-117111355D02*
X92901474Y-117514124D01*
X92970364Y-116875278D02*
X92970366Y-116977125D01*
X90902916Y-114996145D02*
X91241333Y-115034247D01*
X91699943Y-117303863D02*
X91727923Y-117102788D01*
X90603864Y-118161116D02*
X90784095Y-118152297D01*
X91254983Y-117971636D02*
X91282391Y-117950156D01*
X91727925Y-116948585D02*
X91674334Y-116687046D01*
X91723934Y-115173943D02*
X92029584Y-115330248D01*
X95236933Y-122345805D02*
X95197833Y-122310666D01*
X98577735Y-116238642D02*
X96760836Y-116238648D01*
X96319334Y-122810766D02*
X96268534Y-122803035D01*
X94703535Y-116569745D02*
X94799334Y-116252249D01*
X96842936Y-114996145D02*
X99820333Y-114996147D01*
X96041838Y-115123146D02*
X96391636Y-115034246D01*
X95909038Y-115173944D02*
X95975437Y-115148645D01*
X94559935Y-120042403D02*
X94758235Y-119600905D01*
X94799334Y-116252249D02*
X94826734Y-116191746D01*
X94815035Y-119520827D02*
X94869733Y-119440647D01*
X95283834Y-115570544D02*
X95332632Y-115525641D01*
X94475036Y-120646155D02*
X94475033Y-120495094D01*
X94937932Y-117988187D02*
X94731336Y-117514124D01*
X95274036Y-122379035D02*
X95236933Y-122345805D01*
X95474235Y-122524557D02*
X95274036Y-122379035D01*
X95694038Y-122642765D02*
X95474235Y-122524557D01*
X99820333Y-114996147D02*
X99820336Y-122849885D01*
X99820336Y-122849885D02*
X96842936Y-122849888D01*
X95905135Y-116948586D02*
X95905139Y-117035825D01*
X94475033Y-120495094D02*
X94559935Y-120042403D01*
X96119034Y-116437945D02*
X95958636Y-116687046D01*
X94758235Y-119600905D02*
X94815035Y-119520827D01*
X94854036Y-116131146D02*
X95022935Y-115854644D01*
X95216436Y-119087016D02*
X95660836Y-118795976D01*
X95636133Y-118673487D02*
X95282335Y-118399095D01*
X96391636Y-115034246D02*
X96730034Y-114996146D01*
X94662633Y-117111465D02*
X94662634Y-116977266D01*
X95741036Y-122662345D02*
X95694038Y-122642765D01*
X95978335Y-122738407D02*
X95776234Y-122676008D01*
X96215735Y-122793268D02*
X95978335Y-122738407D01*
X94662634Y-116875278D02*
X94703535Y-116569745D01*
X96268534Y-122803035D02*
X96215735Y-122793268D01*
X95332632Y-115525641D02*
X95603235Y-115330245D01*
X95975437Y-115148645D02*
X96041838Y-115123146D01*
X95282335Y-118399095D02*
X94937932Y-117988187D01*
X95764434Y-118747228D02*
X95636133Y-118673487D01*
X97089032Y-118161117D02*
X98577731Y-118161115D01*
X96692434Y-118131763D02*
X96848734Y-118152297D01*
X95660836Y-118795976D02*
X95764434Y-118747228D01*
X96386435Y-116288347D02*
X96119034Y-116437945D01*
X94869733Y-119440647D02*
X95216436Y-119087016D01*
X96667137Y-116238646D02*
X96386435Y-116288347D01*
X98577731Y-118161115D02*
X98577735Y-116238642D01*
X95776234Y-122676008D02*
X95741036Y-122662345D01*
X95022935Y-115854644D02*
X95234935Y-115613445D01*
X95958636Y-116687046D02*
X95905135Y-116948586D01*
X94826734Y-116191746D02*
X94854036Y-116131146D01*
X94731336Y-117514124D02*
X94662633Y-117111465D01*
X96842936Y-122849888D02*
X96699334Y-122849888D01*
X95603235Y-115330245D02*
X95909038Y-115173944D01*
X95234935Y-115613445D02*
X95283834Y-115570544D01*
X97028932Y-118161114D02*
X97089032Y-118161117D01*
X96730034Y-114996146D02*
X96842936Y-114996145D01*
X94809036Y-121820237D02*
X94584334Y-121331849D01*
X94838434Y-121865285D02*
X94809036Y-121820237D01*
X94662634Y-116977266D02*
X94662634Y-116875278D01*
X96699334Y-122849888D02*
X96319334Y-122810766D01*
X94865735Y-121910223D02*
X94838434Y-121865285D01*
X95020033Y-122120235D02*
X94865735Y-121910223D01*
X96848734Y-118152297D02*
X97028932Y-118161114D01*
X95197833Y-122310666D02*
X95020033Y-122120235D01*
X96760836Y-116238648D02*
X96667137Y-116238646D01*
X95976036Y-119913435D02*
X95952035Y-119954497D01*
X95793736Y-120297366D02*
X95741036Y-120576406D01*
X96350534Y-117950154D02*
X96377836Y-117971636D01*
X95932934Y-117303865D02*
X96016434Y-117545695D01*
X95905137Y-117102789D02*
X95932934Y-117303865D01*
X91891925Y-120769486D02*
X91891926Y-120669574D01*
X91656834Y-119913577D02*
X91572486Y-119797827D01*
X98577735Y-121583904D02*
X98577735Y-119427125D01*
X95952035Y-119954497D02*
X95916734Y-120009214D01*
X96330033Y-119563268D02*
X96186435Y-119667337D01*
X96597135Y-121583905D02*
X96702237Y-121583902D01*
X90919033Y-119438846D02*
X90903307Y-119436756D01*
X89055247Y-121583905D02*
X90930743Y-121583907D01*
X96512737Y-119477858D02*
X96491235Y-119485698D01*
X90930743Y-121583907D02*
X91035737Y-121583907D01*
X96729535Y-119436753D02*
X96713935Y-119438844D01*
X97007037Y-119427127D02*
X96963734Y-119427125D01*
X91680936Y-119954636D02*
X91656834Y-119913577D01*
X89055245Y-119427126D02*
X89055247Y-121583905D01*
X98577735Y-119427125D02*
X97007037Y-119427127D01*
X90944645Y-119438845D02*
X90919033Y-119438846D01*
X96702237Y-121583902D02*
X98577735Y-121583904D01*
X95741034Y-120669574D02*
X95741036Y-120769486D01*
X90626054Y-119427122D02*
X89055245Y-119427126D01*
X96281636Y-121526728D02*
X96597135Y-121583905D01*
X91716062Y-120009213D02*
X91680936Y-119954636D01*
X96060335Y-119797684D02*
X95976036Y-119913435D01*
X90798843Y-119430026D02*
X90669194Y-119427124D01*
X96449535Y-119501426D02*
X96330033Y-119563268D01*
X96491235Y-119485698D02*
X96449535Y-119501426D01*
X96688333Y-119438847D02*
X96611434Y-119450417D01*
X96834135Y-119430026D02*
X96729535Y-119436753D01*
X91831843Y-121069626D02*
X91891925Y-120769486D01*
X90669194Y-119427124D02*
X90626054Y-119427122D01*
X91141714Y-119485697D02*
X91120227Y-119477855D01*
X91035737Y-121583907D02*
X91351184Y-121526726D01*
X90903307Y-119436756D02*
X90798843Y-119430026D01*
X96611434Y-119450417D02*
X96512737Y-119477858D01*
X96713935Y-119438844D02*
X96688333Y-119438847D01*
X91351184Y-121526726D02*
X91651584Y-121355274D01*
X91572486Y-119797827D02*
X91446402Y-119667335D01*
X96667133Y-118125978D02*
X96692434Y-118131763D01*
X95741036Y-120576406D02*
X95741034Y-120669574D01*
X91021556Y-119450416D02*
X90944645Y-119438845D01*
X96641632Y-118118144D02*
X96667133Y-118125978D01*
X96155534Y-117761066D02*
X96297535Y-117908245D01*
X91120227Y-119477855D02*
X91021556Y-119450416D01*
X91183333Y-119501425D02*
X91141714Y-119485697D01*
X96297535Y-117908245D02*
X96350534Y-117950154D01*
X96186435Y-119667337D02*
X96060335Y-119797684D01*
X95981234Y-121355275D02*
X96281636Y-121526728D01*
X95741036Y-120769486D02*
X95801034Y-121069625D01*
X91302824Y-119563264D02*
X91183333Y-119501425D01*
X96511634Y-118058454D02*
X96641632Y-118118144D01*
X96377836Y-117971636D02*
X96511634Y-118058454D01*
X96016434Y-117545695D02*
X96155534Y-117761066D01*
X95905139Y-117035825D02*
X95905137Y-117102789D01*
X95801034Y-121069625D02*
X95981234Y-121355275D01*
X91651584Y-121355274D02*
X91831843Y-121069626D01*
X91446402Y-119667335D02*
X91302824Y-119563264D01*
X95916734Y-120009214D02*
X95793736Y-120297366D01*
X96963734Y-119427125D02*
X96834135Y-119430026D01*
X94584334Y-121331849D02*
X94568736Y-121279218D01*
X94553035Y-121226434D02*
X94475033Y-120791106D01*
X94475033Y-120791106D02*
X94475036Y-120646155D01*
X94568736Y-121279218D02*
X94553035Y-121226434D01*
X102786935Y-126840425D02*
X102636636Y-126860546D01*
X102586636Y-110985543D02*
X102636634Y-110985546D01*
X103558634Y-126068727D02*
X103500935Y-126255171D01*
X103578833Y-111977746D02*
X103578835Y-125868358D01*
X102973433Y-126782688D02*
X102786935Y-126840425D01*
X103409735Y-126423846D02*
X103288736Y-126570470D01*
X103578836Y-111927547D02*
X103578833Y-111977746D01*
X103558636Y-111777245D02*
X103578836Y-111927547D01*
X103500932Y-111590745D02*
X103558636Y-111777245D01*
X103142035Y-126691460D02*
X102973433Y-126782688D01*
X103288736Y-126570470D02*
X103142035Y-126691460D01*
X103578835Y-125868358D02*
X103578833Y-125918381D01*
X102786934Y-111005545D02*
X102973433Y-111063244D01*
X102636634Y-110985546D02*
X102786934Y-111005545D01*
X103288735Y-111275443D02*
X103409733Y-111422146D01*
X102973433Y-111063244D02*
X103142037Y-111154444D01*
X103500935Y-126255171D02*
X103409735Y-126423846D01*
X103142037Y-111154444D02*
X103288735Y-111275443D01*
X103578833Y-125918381D02*
X103558634Y-126068727D01*
X103409733Y-111422146D02*
X103500932Y-111590745D01*
X84677063Y-126860547D02*
X84526717Y-126840427D01*
X84727223Y-126860548D02*
X84677063Y-126860547D01*
X84727223Y-110985545D02*
X102586636Y-110985543D01*
X102586634Y-126860545D02*
X84727223Y-126860548D01*
X102636636Y-126860546D02*
X102586634Y-126860545D01*
X93079807Y-121226435D02*
X93064204Y-121279216D01*
X92612757Y-122120237D02*
X92434997Y-122310666D01*
X84171599Y-111154447D02*
X84340271Y-111063248D01*
X93157904Y-120646154D02*
X93157906Y-120804338D01*
X83755015Y-126068726D02*
X83735035Y-125918380D01*
X84526717Y-126840427D02*
X84340271Y-126782687D01*
X83735035Y-111927547D02*
X83755017Y-111777245D01*
X91313684Y-122810766D02*
X90920944Y-122849888D01*
X91364565Y-122803036D02*
X91313684Y-122810766D01*
X93157906Y-120804338D02*
X93079807Y-121226435D01*
X91417197Y-122793266D02*
X91364565Y-122803036D01*
X91891925Y-122662345D02*
X91856796Y-122676008D01*
X92434997Y-122310666D02*
X92396014Y-122345805D01*
X93064204Y-121279216D02*
X93048506Y-121331844D01*
X101594437Y-124876165D02*
X85719416Y-124876167D01*
X83735035Y-125868357D02*
X83735034Y-111977745D01*
X84024974Y-126570467D02*
X83903984Y-126423844D01*
X84171599Y-126691460D02*
X84024974Y-126570467D01*
X91938774Y-122642768D02*
X91891925Y-122662345D01*
X92794546Y-121865286D02*
X92767093Y-121910223D01*
X85719416Y-124876167D02*
X85719415Y-112969944D01*
X84677061Y-110985545D02*
X84727223Y-110985545D01*
X83755017Y-111777245D02*
X83812756Y-111590745D01*
X84526716Y-111005545D02*
X84677061Y-110985545D01*
X83903980Y-111422149D02*
X84024974Y-111275446D01*
X83735034Y-111977745D02*
X83735035Y-111927547D01*
X83735035Y-125918380D02*
X83735035Y-125868357D01*
X83903984Y-126423844D02*
X83812756Y-126255174D01*
X92158555Y-122524556D02*
X91938774Y-122642768D01*
X84340271Y-111063248D02*
X84526716Y-111005545D01*
X83812756Y-126255174D02*
X83755015Y-126068726D01*
X101594433Y-112969947D02*
X101594437Y-124876165D01*
X84024974Y-111275446D02*
X84171599Y-111154447D01*
X85719415Y-112969944D02*
X101594433Y-112969947D01*
X87812654Y-122849886D02*
X87812654Y-114996143D01*
X90790167Y-122849889D02*
X87812654Y-122849886D01*
X92767093Y-121910223D02*
X92612757Y-122120237D01*
X90920944Y-122849888D02*
X90790167Y-122849889D01*
X91654616Y-122738403D02*
X91417197Y-122793266D01*
X92823752Y-121820377D02*
X92794546Y-121865286D01*
X91856796Y-122676008D02*
X91654616Y-122738403D01*
X92396014Y-122345805D02*
X92358795Y-122379037D01*
X84340271Y-126782687D02*
X84171599Y-126691460D01*
X92358795Y-122379037D02*
X92158555Y-122524556D01*
X83812756Y-111590745D02*
X83903980Y-111422149D01*
X93048506Y-121331844D02*
X92823752Y-121820377D01*
D11*
%TO.C,SW40*%
X208176685Y-90000072D02*
X207754067Y-89093764D01*
X213670722Y-101782073D02*
X214577030Y-101359455D01*
X208660374Y-88671146D02*
X207754067Y-89093764D01*
X213670722Y-101782073D02*
X213248104Y-100875766D01*
X225936413Y-94959110D02*
X226359031Y-95865418D01*
X226359031Y-95865418D02*
X225452724Y-96288036D01*
X225452724Y-96288036D02*
X226359031Y-95865418D01*
X220442376Y-83177109D02*
X220864994Y-84083416D01*
X220442376Y-83177109D02*
X219536068Y-83599727D01*
%TO.C,SW39*%
X188843749Y-93498276D02*
X188421131Y-92591968D01*
X194337786Y-105280277D02*
X195244094Y-104857659D01*
X189327438Y-92169350D02*
X188421131Y-92591968D01*
X194337786Y-105280277D02*
X193915168Y-104373970D01*
X206603477Y-98457314D02*
X207026095Y-99363622D01*
X207026095Y-99363622D02*
X206119788Y-99786240D01*
X206119788Y-99786240D02*
X207026095Y-99363622D01*
X201109440Y-86675313D02*
X201532058Y-87581620D01*
X201109440Y-86675313D02*
X200203132Y-87097931D01*
%TO.C,SW38*%
X180076260Y-119654180D02*
X179653642Y-118747872D01*
X185570297Y-131436181D02*
X186476605Y-131013563D01*
X180559949Y-118325254D02*
X179653642Y-118747872D01*
X185570297Y-131436181D02*
X185147679Y-130529874D01*
X197835988Y-124613218D02*
X198258606Y-125519526D01*
X198258606Y-125519526D02*
X197352299Y-125942144D01*
X197352299Y-125942144D02*
X198258606Y-125519526D01*
X192341951Y-112831217D02*
X192764569Y-113737524D01*
X192341951Y-112831217D02*
X191435643Y-113253835D01*
%TO.C,SW37*%
X161594071Y-131733822D02*
X161020495Y-130914670D01*
X169050565Y-142382798D02*
X169869717Y-141809222D01*
X161839647Y-130341093D02*
X161020495Y-130914670D01*
X169050565Y-142382798D02*
X168476988Y-141563646D01*
X179945117Y-133533576D02*
X180518693Y-134352728D01*
X180518693Y-134352728D02*
X179699541Y-134926305D01*
X179699541Y-134926305D02*
X180518693Y-134352728D01*
X172488623Y-122884600D02*
X173062200Y-123703752D01*
X172488623Y-122884600D02*
X171669471Y-123458176D01*
%TO.C,SW36*%
X145490276Y-146839349D02*
X144783169Y-146132242D01*
X154682664Y-156031737D02*
X155389771Y-155324630D01*
X145490276Y-145425135D02*
X144783169Y-146132242D01*
X154682664Y-156031737D02*
X153975557Y-155324630D01*
X163875052Y-145425135D02*
X164582159Y-146132242D01*
X164582159Y-146132242D02*
X163875052Y-146839349D01*
X163875052Y-146839349D02*
X164582159Y-146132242D01*
X154682664Y-136232747D02*
X155389771Y-136939854D01*
X154682664Y-136232747D02*
X153975557Y-136939854D01*
%TO.C,SW35*%
X94302057Y-136939851D02*
X95009164Y-136232744D01*
X85109669Y-146132239D02*
X85816776Y-146839346D01*
X95716271Y-136939851D02*
X95009164Y-136232744D01*
X85109669Y-146132239D02*
X85816776Y-145425132D01*
X95716271Y-155324627D02*
X95009164Y-156031734D01*
X95009164Y-156031734D02*
X94302057Y-155324627D01*
X94302057Y-155324627D02*
X95009164Y-156031734D01*
X104908659Y-146132239D02*
X104201552Y-146839346D01*
X104908659Y-146132239D02*
X104201552Y-145425132D01*
%TO.C,SW34*%
X76629622Y-123703753D02*
X77203199Y-122884601D01*
X69173129Y-134352729D02*
X69992281Y-134926306D01*
X78022351Y-123458177D02*
X77203199Y-122884601D01*
X69173129Y-134352729D02*
X69746705Y-133533577D01*
X81214834Y-141563647D02*
X80641257Y-142382799D01*
X80641257Y-142382799D02*
X79822105Y-141809223D01*
X79822105Y-141809223D02*
X80641257Y-142382799D01*
X88671327Y-130914671D02*
X88097751Y-131733823D01*
X88671327Y-130914671D02*
X87852175Y-130341094D01*
%TO.C,SW33*%
X56927249Y-113737527D02*
X57349867Y-112831220D01*
X51433212Y-125519529D02*
X52339519Y-125942147D01*
X58256175Y-113253838D02*
X57349867Y-112831220D01*
X51433212Y-125519529D02*
X51855830Y-124613221D01*
X64544139Y-130529877D02*
X64121521Y-131436184D01*
X64121521Y-131436184D02*
X63215213Y-131013566D01*
X63215213Y-131013566D02*
X64121521Y-131436184D01*
X70038176Y-118747875D02*
X69615558Y-119654183D01*
X70038176Y-118747875D02*
X69131869Y-118325257D01*
%TO.C,SW32*%
X48159769Y-87581624D02*
X48582387Y-86675317D01*
X42665732Y-99363626D02*
X43572039Y-99786244D01*
X49488695Y-87097935D02*
X48582387Y-86675317D01*
X42665732Y-99363626D02*
X43088350Y-98457318D01*
X55776659Y-104373974D02*
X55354041Y-105280281D01*
X55354041Y-105280281D02*
X54447733Y-104857663D01*
X54447733Y-104857663D02*
X55354041Y-105280281D01*
X61270696Y-92591972D02*
X60848078Y-93498280D01*
X61270696Y-92591972D02*
X60364389Y-92169354D01*
%TO.C,SW31*%
X28826831Y-84083416D02*
X29249449Y-83177109D01*
X23332794Y-95865418D02*
X24239101Y-96288036D01*
X30155757Y-83599727D02*
X29249449Y-83177109D01*
X23332794Y-95865418D02*
X23755412Y-94959110D01*
X36443721Y-100875766D02*
X36021103Y-101782073D01*
X36021103Y-101782073D02*
X35114795Y-101359455D01*
X35114795Y-101359455D02*
X36021103Y-101782073D01*
X41937758Y-89093764D02*
X41515140Y-90000072D01*
X41937758Y-89093764D02*
X41031451Y-88671146D01*
%TO.C,SW30*%
X222649511Y-76079324D02*
X222226893Y-75173016D01*
X228143548Y-87861325D02*
X229049856Y-87438707D01*
X223133200Y-74750398D02*
X222226893Y-75173016D01*
X228143548Y-87861325D02*
X227720930Y-86955018D01*
X240409239Y-81038362D02*
X240831857Y-81944670D01*
X240831857Y-81944670D02*
X239925550Y-82367288D01*
X239925550Y-82367288D02*
X240831857Y-81944670D01*
X234915202Y-69256361D02*
X235337820Y-70162668D01*
X234915202Y-69256361D02*
X234008894Y-69678979D01*
%TO.C,SW29*%
X200146938Y-72780225D02*
X199724320Y-71873917D01*
X205640975Y-84562226D02*
X206547283Y-84139608D01*
X200630627Y-71451299D02*
X199724320Y-71873917D01*
X205640975Y-84562226D02*
X205218357Y-83655919D01*
X217906666Y-77739263D02*
X218329284Y-78645571D01*
X218329284Y-78645571D02*
X217422977Y-79068189D01*
X217422977Y-79068189D02*
X218329284Y-78645571D01*
X212412629Y-65957262D02*
X212835247Y-66863569D01*
X212412629Y-65957262D02*
X211506321Y-66379880D01*
%TO.C,SW28*%
X180814000Y-76278435D02*
X180391382Y-75372127D01*
X186308037Y-88060436D02*
X187214345Y-87637818D01*
X181297689Y-74949509D02*
X180391382Y-75372127D01*
X186308037Y-88060436D02*
X185885419Y-87154129D01*
X198573728Y-81237473D02*
X198996346Y-82143781D01*
X198996346Y-82143781D02*
X198090039Y-82566399D01*
X198090039Y-82566399D02*
X198996346Y-82143781D01*
X193079691Y-69455472D02*
X193502309Y-70361779D01*
X193079691Y-69455472D02*
X192173383Y-69878090D01*
%TO.C,SW27*%
X165707243Y-88839717D02*
X165284625Y-87933409D01*
X171201280Y-100621718D02*
X172107588Y-100199100D01*
X166190932Y-87510791D02*
X165284625Y-87933409D01*
X171201280Y-100621718D02*
X170778662Y-99715411D01*
X183466971Y-93798755D02*
X183889589Y-94705063D01*
X183889589Y-94705063D02*
X182983282Y-95127681D01*
X182983282Y-95127681D02*
X183889589Y-94705063D01*
X177972934Y-82016754D02*
X178395552Y-82923061D01*
X177972934Y-82016754D02*
X177066626Y-82439372D01*
%TO.C,SW26*%
X149543940Y-99135236D02*
X149121322Y-98228928D01*
X155037977Y-110917237D02*
X155944285Y-110494619D01*
X150027629Y-97806310D02*
X149121322Y-98228928D01*
X155037977Y-110917237D02*
X154615359Y-110010930D01*
X167303668Y-104094274D02*
X167726286Y-105000582D01*
X167726286Y-105000582D02*
X166819979Y-105423200D01*
X166819979Y-105423200D02*
X167726286Y-105000582D01*
X161809631Y-92312273D02*
X162232249Y-93218580D01*
X161809631Y-92312273D02*
X160903323Y-92734891D01*
%TO.C,SW25*%
X87459575Y-93218579D02*
X87882193Y-92312272D01*
X81965538Y-105000581D02*
X82871845Y-105423199D01*
X88788501Y-92734890D02*
X87882193Y-92312272D01*
X81965538Y-105000581D02*
X82388156Y-104094273D01*
X95076465Y-110010929D02*
X94653847Y-110917236D01*
X94653847Y-110917236D02*
X93747539Y-110494618D01*
X93747539Y-110494618D02*
X94653847Y-110917236D01*
X100570502Y-98228927D02*
X100147884Y-99135235D01*
X100570502Y-98228927D02*
X99664195Y-97806309D01*
%TO.C,SW24*%
X71296271Y-82923062D02*
X71718889Y-82016755D01*
X65802234Y-94705064D02*
X66708541Y-95127682D01*
X72625197Y-82439373D02*
X71718889Y-82016755D01*
X65802234Y-94705064D02*
X66224852Y-93798756D01*
X78913161Y-99715412D02*
X78490543Y-100621719D01*
X78490543Y-100621719D02*
X77584235Y-100199101D01*
X77584235Y-100199101D02*
X78490543Y-100621719D01*
X84407198Y-87933410D02*
X83984580Y-88839718D01*
X84407198Y-87933410D02*
X83500891Y-87510792D01*
%TO.C,SW23*%
X56189516Y-70361775D02*
X56612134Y-69455468D01*
X50695479Y-82143777D02*
X51601786Y-82566395D01*
X57518442Y-69878086D02*
X56612134Y-69455468D01*
X50695479Y-82143777D02*
X51118097Y-81237469D01*
X63806406Y-87154125D02*
X63383788Y-88060432D01*
X63383788Y-88060432D02*
X62477480Y-87637814D01*
X62477480Y-87637814D02*
X63383788Y-88060432D01*
X69300443Y-75372123D02*
X68877825Y-76278431D01*
X69300443Y-75372123D02*
X68394136Y-74949505D01*
%TO.C,SW22*%
X36856579Y-66863570D02*
X37279197Y-65957263D01*
X31362542Y-78645572D02*
X32268849Y-79068190D01*
X38185505Y-66379881D02*
X37279197Y-65957263D01*
X31362542Y-78645572D02*
X31785160Y-77739264D01*
X44473469Y-83655920D02*
X44050851Y-84562227D01*
X44050851Y-84562227D02*
X43144543Y-84139609D01*
X43144543Y-84139609D02*
X44050851Y-84562227D01*
X49967506Y-71873918D02*
X49544888Y-72780226D01*
X49967506Y-71873918D02*
X49061199Y-71451300D01*
%TO.C,SW21*%
X14354000Y-70162669D02*
X14776618Y-69256362D01*
X8859963Y-81944671D02*
X9766270Y-82367289D01*
X15682926Y-69678980D02*
X14776618Y-69256362D01*
X8859963Y-81944671D02*
X9282581Y-81038363D01*
X21970890Y-86955019D02*
X21548272Y-87861326D01*
X21548272Y-87861326D02*
X20641964Y-87438708D01*
X20641964Y-87438708D02*
X21548272Y-87861326D01*
X27464927Y-75173017D02*
X27042309Y-76079325D01*
X27464927Y-75173017D02*
X26558620Y-74750399D01*
%TO.C,SW20*%
X214619764Y-58859477D02*
X214197146Y-57953169D01*
X220113801Y-70641478D02*
X221020109Y-70218860D01*
X215103453Y-57530551D02*
X214197146Y-57953169D01*
X220113801Y-70641478D02*
X219691183Y-69735171D01*
X232379492Y-63818515D02*
X232802110Y-64724823D01*
X232802110Y-64724823D02*
X231895803Y-65147441D01*
X231895803Y-65147441D02*
X232802110Y-64724823D01*
X226885455Y-52036514D02*
X227308073Y-52942821D01*
X226885455Y-52036514D02*
X225979147Y-52459132D01*
%TO.C,SW19*%
X192117192Y-55560376D02*
X191694574Y-54654068D01*
X197611229Y-67342377D02*
X198517537Y-66919759D01*
X192600881Y-54231450D02*
X191694574Y-54654068D01*
X197611229Y-67342377D02*
X197188611Y-66436070D01*
X209876920Y-60519414D02*
X210299538Y-61425722D01*
X210299538Y-61425722D02*
X209393231Y-61848340D01*
X209393231Y-61848340D02*
X210299538Y-61425722D01*
X204382883Y-48737413D02*
X204805501Y-49643720D01*
X204382883Y-48737413D02*
X203476575Y-49160031D01*
%TO.C,SW18*%
X172784250Y-59058586D02*
X172361632Y-58152278D01*
X178278287Y-70840587D02*
X179184595Y-70417969D01*
X173267939Y-57729660D02*
X172361632Y-58152278D01*
X178278287Y-70840587D02*
X177855669Y-69934280D01*
X190543978Y-64017624D02*
X190966596Y-64923932D01*
X190966596Y-64923932D02*
X190060289Y-65346550D01*
X190060289Y-65346550D02*
X190966596Y-64923932D01*
X185049941Y-52235623D02*
X185472559Y-53141930D01*
X185049941Y-52235623D02*
X184143633Y-52658241D01*
%TO.C,SW17*%
X157677498Y-71619872D02*
X157254880Y-70713564D01*
X163171535Y-83401873D02*
X164077843Y-82979255D01*
X158161187Y-70290946D02*
X157254880Y-70713564D01*
X163171535Y-83401873D02*
X162748917Y-82495566D01*
X175437226Y-76578910D02*
X175859844Y-77485218D01*
X175859844Y-77485218D02*
X174953537Y-77907836D01*
X174953537Y-77907836D02*
X175859844Y-77485218D01*
X169943189Y-64796909D02*
X170365807Y-65703216D01*
X169943189Y-64796909D02*
X169036881Y-65219527D01*
%TO.C,SW16*%
X141514191Y-81915389D02*
X141091573Y-81009081D01*
X147008228Y-93697390D02*
X147914536Y-93274772D01*
X141997880Y-80586463D02*
X141091573Y-81009081D01*
X147008228Y-93697390D02*
X146585610Y-92791083D01*
X159273919Y-86874427D02*
X159696537Y-87780735D01*
X159696537Y-87780735D02*
X158790230Y-88203353D01*
X158790230Y-88203353D02*
X159696537Y-87780735D01*
X153779882Y-75092426D02*
X154202500Y-75998733D01*
X153779882Y-75092426D02*
X152873574Y-75515044D01*
%TO.C,SW15*%
X95489322Y-75998735D02*
X95911940Y-75092428D01*
X89995285Y-87780737D02*
X90901592Y-88203355D01*
X96818248Y-75515046D02*
X95911940Y-75092428D01*
X89995285Y-87780737D02*
X90417903Y-86874429D01*
X103106212Y-92791085D02*
X102683594Y-93697392D01*
X102683594Y-93697392D02*
X101777286Y-93274774D01*
X101777286Y-93274774D02*
X102683594Y-93697392D01*
X108600249Y-81009083D02*
X108177631Y-81915391D01*
X108600249Y-81009083D02*
X107693942Y-80586465D01*
%TO.C,SW14*%
X79326018Y-65703216D02*
X79748636Y-64796909D01*
X73831981Y-77485218D02*
X74738288Y-77907836D01*
X80654944Y-65219527D02*
X79748636Y-64796909D01*
X73831981Y-77485218D02*
X74254599Y-76578910D01*
X86942908Y-82495566D02*
X86520290Y-83401873D01*
X86520290Y-83401873D02*
X85613982Y-82979255D01*
X85613982Y-82979255D02*
X86520290Y-83401873D01*
X92436945Y-70713564D02*
X92014327Y-71619872D01*
X92436945Y-70713564D02*
X91530638Y-70290946D01*
%TO.C,SW13*%
X64219263Y-53141931D02*
X64641881Y-52235624D01*
X58725226Y-64923933D02*
X59631533Y-65346551D01*
X65548189Y-52658242D02*
X64641881Y-52235624D01*
X58725226Y-64923933D02*
X59147844Y-64017625D01*
X71836153Y-69934281D02*
X71413535Y-70840588D01*
X71413535Y-70840588D02*
X70507227Y-70417970D01*
X70507227Y-70417970D02*
X71413535Y-70840588D01*
X77330190Y-58152279D02*
X76907572Y-59058587D01*
X77330190Y-58152279D02*
X76423883Y-57729661D01*
%TO.C,SW12*%
X44886325Y-49643721D02*
X45308943Y-48737414D01*
X39392288Y-61425723D02*
X40298595Y-61848341D01*
X46215251Y-49160032D02*
X45308943Y-48737414D01*
X39392288Y-61425723D02*
X39814906Y-60519415D01*
X52503215Y-66436071D02*
X52080597Y-67342378D01*
X52080597Y-67342378D02*
X51174289Y-66919760D01*
X51174289Y-66919760D02*
X52080597Y-67342378D01*
X57997252Y-54654069D02*
X57574634Y-55560377D01*
X57997252Y-54654069D02*
X57090945Y-54231451D01*
%TO.C,SW11*%
X22383751Y-52942821D02*
X22806369Y-52036514D01*
X16889714Y-64724823D02*
X17796021Y-65147441D01*
X23712677Y-52459132D02*
X22806369Y-52036514D01*
X16889714Y-64724823D02*
X17312332Y-63818515D01*
X30000641Y-69735171D02*
X29578023Y-70641478D01*
X29578023Y-70641478D02*
X28671715Y-70218860D01*
X28671715Y-70218860D02*
X29578023Y-70641478D01*
X35494678Y-57953169D02*
X35072060Y-58859477D01*
X35494678Y-57953169D02*
X34588371Y-57530551D01*
%TO.C,SW10*%
X206590018Y-41639630D02*
X206167400Y-40733322D01*
X212084055Y-53421631D02*
X212990363Y-52999013D01*
X207073707Y-40310704D02*
X206167400Y-40733322D01*
X212084055Y-53421631D02*
X211661437Y-52515324D01*
X224349746Y-46598668D02*
X224772364Y-47504976D01*
X224772364Y-47504976D02*
X223866057Y-47927594D01*
X223866057Y-47927594D02*
X224772364Y-47504976D01*
X218855709Y-34816667D02*
X219278327Y-35722974D01*
X218855709Y-34816667D02*
X217949401Y-35239285D01*
%TO.C,SW9*%
X184087443Y-38340531D02*
X183664825Y-37434223D01*
X189581480Y-50122532D02*
X190487788Y-49699914D01*
X184571132Y-37011605D02*
X183664825Y-37434223D01*
X189581480Y-50122532D02*
X189158862Y-49216225D01*
X201847171Y-43299569D02*
X202269789Y-44205877D01*
X202269789Y-44205877D02*
X201363482Y-44628495D01*
X201363482Y-44628495D02*
X202269789Y-44205877D01*
X196353134Y-31517568D02*
X196775752Y-32423875D01*
X196353134Y-31517568D02*
X195446826Y-31940186D01*
%TO.C,SW8*%
X164754506Y-41838741D02*
X164331888Y-40932433D01*
X170248543Y-53620742D02*
X171154851Y-53198124D01*
X165238195Y-40509815D02*
X164331888Y-40932433D01*
X170248543Y-53620742D02*
X169825925Y-52714435D01*
X182514234Y-46797779D02*
X182936852Y-47704087D01*
X182936852Y-47704087D02*
X182030545Y-48126705D01*
X182030545Y-48126705D02*
X182936852Y-47704087D01*
X177020197Y-35015778D02*
X177442815Y-35922085D01*
X177020197Y-35015778D02*
X176113889Y-35438396D01*
%TO.C,SW7*%
X149647751Y-54400024D02*
X149225133Y-53493716D01*
X155141788Y-66182025D02*
X156048096Y-65759407D01*
X150131440Y-53071098D02*
X149225133Y-53493716D01*
X155141788Y-66182025D02*
X154719170Y-65275718D01*
X167407479Y-59359062D02*
X167830097Y-60265370D01*
X167830097Y-60265370D02*
X166923790Y-60687988D01*
X166923790Y-60687988D02*
X167830097Y-60265370D01*
X161913442Y-47577061D02*
X162336060Y-48483368D01*
X161913442Y-47577061D02*
X161007134Y-47999679D01*
%TO.C,SW6*%
X133484445Y-64695537D02*
X133061827Y-63789229D01*
X138978482Y-76477538D02*
X139884790Y-76054920D01*
X133968134Y-63366611D02*
X133061827Y-63789229D01*
X138978482Y-76477538D02*
X138555864Y-75571231D01*
X151244173Y-69654575D02*
X151666791Y-70560883D01*
X151666791Y-70560883D02*
X150760484Y-70983501D01*
X150760484Y-70983501D02*
X151666791Y-70560883D01*
X145750136Y-57872574D02*
X146172754Y-58778881D01*
X145750136Y-57872574D02*
X144843828Y-58295192D01*
%TO.C,SW5*%
X103519066Y-58778885D02*
X103941684Y-57872578D01*
X98025029Y-70560887D02*
X98931336Y-70983505D01*
X104847992Y-58295196D02*
X103941684Y-57872578D01*
X98025029Y-70560887D02*
X98447647Y-69654579D01*
X111135956Y-75571235D02*
X110713338Y-76477542D01*
X110713338Y-76477542D02*
X109807030Y-76054924D01*
X109807030Y-76054924D02*
X110713338Y-76477542D01*
X116629993Y-63789233D02*
X116207375Y-64695541D01*
X116629993Y-63789233D02*
X115723686Y-63366615D01*
%TO.C,SW4*%
X87355765Y-48483367D02*
X87778383Y-47577060D01*
X81861728Y-60265369D02*
X82768035Y-60687987D01*
X88684691Y-47999678D02*
X87778383Y-47577060D01*
X81861728Y-60265369D02*
X82284346Y-59359061D01*
X94972655Y-65275717D02*
X94550037Y-66182024D01*
X94550037Y-66182024D02*
X93643729Y-65759406D01*
X93643729Y-65759406D02*
X94550037Y-66182024D01*
X100466692Y-53493715D02*
X100044074Y-54400023D01*
X100466692Y-53493715D02*
X99560385Y-53071097D01*
%TO.C,SW3*%
X72249009Y-35922083D02*
X72671627Y-35015776D01*
X66754972Y-47704085D02*
X67661279Y-48126703D01*
X73577935Y-35438394D02*
X72671627Y-35015776D01*
X66754972Y-47704085D02*
X67177590Y-46797777D01*
X79865899Y-52714433D02*
X79443281Y-53620740D01*
X79443281Y-53620740D02*
X78536973Y-53198122D01*
X78536973Y-53198122D02*
X79443281Y-53620740D01*
X85359936Y-40932431D02*
X84937318Y-41838739D01*
X85359936Y-40932431D02*
X84453629Y-40509813D01*
%TO.C,SW2*%
X52916072Y-32423876D02*
X53338690Y-31517569D01*
X47422035Y-44205878D02*
X48328342Y-44628496D01*
X54244998Y-31940187D02*
X53338690Y-31517569D01*
X47422035Y-44205878D02*
X47844653Y-43299570D01*
X60532962Y-49216226D02*
X60110344Y-50122533D01*
X60110344Y-50122533D02*
X59204036Y-49699915D01*
X59204036Y-49699915D02*
X60110344Y-50122533D01*
X66026999Y-37434224D02*
X65604381Y-38340532D01*
X66026999Y-37434224D02*
X65120692Y-37011606D01*
%TO.C,SW1*%
X30413495Y-35722975D02*
X30836113Y-34816668D01*
X24919458Y-47504977D02*
X25825765Y-47927595D01*
X31742421Y-35239286D02*
X30836113Y-34816668D01*
X24919458Y-47504977D02*
X25342076Y-46598669D01*
X38030385Y-52515325D02*
X37607767Y-53421632D01*
X37607767Y-53421632D02*
X36701459Y-52999014D01*
X36701459Y-52999014D02*
X37607767Y-53421632D01*
X43524422Y-40733323D02*
X43101804Y-41639631D01*
X43524422Y-40733323D02*
X42618115Y-40310705D01*
D12*
%TO.C,U2*%
X115958505Y-62933847D02*
X115958505Y-93413847D01*
X115958505Y-93413847D02*
X133738505Y-93413847D01*
X133738505Y-93413847D02*
X133738505Y-62933847D01*
X133738505Y-62933847D02*
X133738505Y-60393847D01*
X133738505Y-60393847D02*
X115958505Y-60393847D01*
X115958505Y-60393847D02*
X115958505Y-62933847D01*
%TO.C,U1*%
X115958505Y-62933847D02*
X115958505Y-93413847D01*
X115958505Y-93413847D02*
X133738505Y-93413847D01*
X133738505Y-93413847D02*
X133738505Y-62933847D01*
X118498505Y-62933847D02*
X118498505Y-65473847D01*
X118498505Y-65473847D02*
X115958505Y-65473847D01*
D11*
G36*
X129780073Y-68813207D02*
G01*
X129780073Y-69113207D01*
X129680073Y-69113207D01*
X129680073Y-68813207D01*
X129780073Y-68813207D01*
G37*
X129780073Y-68813207D02*
X129780073Y-69113207D01*
X129680073Y-69113207D01*
X129680073Y-68813207D01*
X129780073Y-68813207D01*
G36*
X129580073Y-69213207D02*
G01*
X129580073Y-69313207D01*
X129480073Y-69313207D01*
X129480073Y-69213207D01*
X129580073Y-69213207D01*
G37*
X129580073Y-69213207D02*
X129580073Y-69313207D01*
X129480073Y-69313207D01*
X129480073Y-69213207D01*
X129580073Y-69213207D01*
G36*
X129780073Y-68813207D02*
G01*
X129780073Y-68913207D01*
X129280073Y-68913207D01*
X129280073Y-68813207D01*
X129780073Y-68813207D01*
G37*
X129780073Y-68813207D02*
X129780073Y-68913207D01*
X129280073Y-68913207D01*
X129280073Y-68813207D01*
X129780073Y-68813207D01*
G36*
X129380073Y-68813207D02*
G01*
X129380073Y-69613207D01*
X129280073Y-69613207D01*
X129280073Y-68813207D01*
X129380073Y-68813207D01*
G37*
X129380073Y-68813207D02*
X129380073Y-69613207D01*
X129280073Y-69613207D01*
X129280073Y-68813207D01*
X129380073Y-68813207D01*
G36*
X129780073Y-69413207D02*
G01*
X129780073Y-69613207D01*
X129680073Y-69613207D01*
X129680073Y-69413207D01*
X129780073Y-69413207D01*
G37*
X129780073Y-69413207D02*
X129780073Y-69613207D01*
X129680073Y-69613207D01*
X129680073Y-69413207D01*
X129780073Y-69413207D01*
D12*
X133738505Y-62933847D02*
X133738505Y-60393847D01*
X133738505Y-60393847D02*
X115958505Y-60393847D01*
X115958505Y-60393847D02*
X115958505Y-62933847D01*
X118498505Y-62933847D02*
X115958505Y-62933847D01*
D13*
%TO.C,SW43*%
X139848507Y-124931846D02*
G75*
G03*
X139848507Y-124931846I-3000000J0D01*
G01*
X138848507Y-119031846D02*
X142948507Y-119031846D01*
X142948507Y-130831846D02*
X138848507Y-130831846D01*
X134848507Y-130831846D02*
X130748507Y-130831846D01*
X134848507Y-119031846D02*
X130748507Y-119031846D01*
X130748507Y-119031846D02*
X130748507Y-130831846D01*
X129348507Y-121131846D02*
X129048507Y-120831846D01*
X129048507Y-120831846D02*
X129648507Y-120831846D01*
X129648507Y-120831846D02*
X129348507Y-121131846D01*
X142948507Y-119031846D02*
X142948507Y-121431846D01*
X142948507Y-123631846D02*
X142948507Y-126231846D01*
X142948507Y-128431846D02*
X142948507Y-130831846D01*
X136848507Y-124431846D02*
X136848507Y-125431846D01*
X136348507Y-124931846D02*
X137348507Y-124931846D01*
%TO.C,SW42*%
X115848504Y-124931847D02*
G75*
G03*
X115848504Y-124931847I-3000000J0D01*
G01*
X110848504Y-130831847D02*
X106748504Y-130831847D01*
X106748504Y-119031847D02*
X110848504Y-119031847D01*
X114848504Y-119031847D02*
X118948504Y-119031847D01*
X114848504Y-130831847D02*
X118948504Y-130831847D01*
X118948504Y-130831847D02*
X118948504Y-119031847D01*
X120348504Y-128731847D02*
X120648504Y-129031847D01*
X120648504Y-129031847D02*
X120048504Y-129031847D01*
X120048504Y-129031847D02*
X120348504Y-128731847D01*
X106748504Y-130831847D02*
X106748504Y-128431847D01*
X106748504Y-126231847D02*
X106748504Y-123631847D01*
X106748504Y-121431847D02*
X106748504Y-119031847D01*
X112848504Y-125431847D02*
X112848504Y-124431847D01*
X113348504Y-124931847D02*
X112348504Y-124931847D01*
%TO.C,Brd1*%
X138648506Y-160831845D02*
X111248506Y-160831845D01*
X111248506Y-160831845D02*
X111248506Y-133531845D01*
X111248506Y-133531845D02*
X138648506Y-133531845D01*
X138648506Y-133531845D02*
X138648506Y-160831845D01*
X115126506Y-140936845D02*
X138226506Y-140936845D01*
X138226506Y-140936845D02*
X138226506Y-157536845D01*
X138226506Y-157536845D02*
X115126506Y-157536845D01*
X129947506Y-160342845D02*
X120168506Y-160342845D01*
X120168506Y-160342845D02*
X120168506Y-157929845D01*
X120168506Y-157929845D02*
X129947506Y-157929845D01*
X129947506Y-160342845D02*
X129947506Y-157929845D01*
X115126506Y-157536845D02*
X112040506Y-157536845D01*
X115126506Y-140936845D02*
X111786506Y-140911845D01*
X111786506Y-140911845D02*
X111786506Y-157548845D01*
X111786506Y-157548845D02*
X112040506Y-157536845D01*
%TO.C,J1*%
X109748504Y-139231846D02*
X112248504Y-139231846D01*
X112248504Y-139231846D02*
X112248504Y-139431846D01*
X109748504Y-151331846D02*
X109748504Y-139231846D01*
X112248504Y-139431846D02*
X112248504Y-151331846D01*
X112248504Y-151331846D02*
X109748504Y-151331846D01*
X119848504Y-152331846D02*
X117848504Y-152331846D01*
X118848504Y-152331846D02*
X119848504Y-152331846D01*
X117848504Y-152331846D02*
X118848504Y-152331846D01*
X131848504Y-140331846D02*
X131848504Y-138331846D01*
X117848504Y-140331846D02*
X117848504Y-138331846D01*
X131848504Y-152331846D02*
X131848504Y-150331846D01*
X117848504Y-138331846D02*
X117848504Y-140331846D01*
X117848504Y-138331846D02*
X119848504Y-138331846D01*
X131848504Y-152331846D02*
X129848504Y-152331846D01*
X127348504Y-145331846D02*
G75*
G03*
X127348504Y-145331846I-2500000J0D01*
G01*
X117848504Y-152331846D02*
X117848504Y-150331846D01*
X131848504Y-138331846D02*
X131848504Y-140331846D01*
X131848504Y-138331846D02*
X129848504Y-138331846D01*
%TO.C,*%
D11*
%TO.C,U2*%
D14*
X120066790Y-91314418D02*
X120066790Y-92314418D01*
X120066790Y-91457275D02*
X120138219Y-91385847D01*
X120281076Y-91314418D01*
X120495362Y-91314418D01*
X120638219Y-91385847D01*
X120709647Y-91528704D01*
X120709647Y-92314418D01*
X121423933Y-92314418D02*
X121423933Y-91314418D01*
X121423933Y-90814418D02*
X121352505Y-90885847D01*
X121423933Y-90957275D01*
X121495362Y-90885847D01*
X121423933Y-90814418D01*
X121423933Y-90957275D01*
X122781076Y-92242989D02*
X122638219Y-92314418D01*
X122352505Y-92314418D01*
X122209647Y-92242989D01*
X122138219Y-92171561D01*
X122066790Y-92028704D01*
X122066790Y-91600132D01*
X122138219Y-91457275D01*
X122209647Y-91385847D01*
X122352505Y-91314418D01*
X122638219Y-91314418D01*
X122781076Y-91385847D01*
X123995362Y-92242989D02*
X123852505Y-92314418D01*
X123566790Y-92314418D01*
X123423933Y-92242989D01*
X123352505Y-92100132D01*
X123352505Y-91528704D01*
X123423933Y-91385847D01*
X123566790Y-91314418D01*
X123852505Y-91314418D01*
X123995362Y-91385847D01*
X124066790Y-91528704D01*
X124066790Y-91671561D01*
X123352505Y-91814418D01*
X124709647Y-92171561D02*
X124781076Y-92242989D01*
X124709647Y-92314418D01*
X124638219Y-92242989D01*
X124709647Y-92171561D01*
X124709647Y-92314418D01*
X124709647Y-91742989D02*
X124638219Y-90885847D01*
X124709647Y-90814418D01*
X124781076Y-90885847D01*
X124709647Y-91742989D01*
X124709647Y-90814418D01*
X125423933Y-91314418D02*
X125423933Y-92314418D01*
X125423933Y-91457275D02*
X125495362Y-91385847D01*
X125638219Y-91314418D01*
X125852505Y-91314418D01*
X125995362Y-91385847D01*
X126066790Y-91528704D01*
X126066790Y-92314418D01*
X127423933Y-92314418D02*
X127423933Y-91528704D01*
X127352505Y-91385847D01*
X127209647Y-91314418D01*
X126923933Y-91314418D01*
X126781076Y-91385847D01*
X127423933Y-92242989D02*
X127281076Y-92314418D01*
X126923933Y-92314418D01*
X126781076Y-92242989D01*
X126709647Y-92100132D01*
X126709647Y-91957275D01*
X126781076Y-91814418D01*
X126923933Y-91742989D01*
X127281076Y-91742989D01*
X127423933Y-91671561D01*
X128138219Y-91314418D02*
X128138219Y-92314418D01*
X128138219Y-91457275D02*
X128209647Y-91385847D01*
X128352505Y-91314418D01*
X128566790Y-91314418D01*
X128709647Y-91385847D01*
X128781076Y-91528704D01*
X128781076Y-92314418D01*
X129709647Y-92314418D02*
X129566790Y-92242989D01*
X129495362Y-92171561D01*
X129423933Y-92028704D01*
X129423933Y-91600132D01*
X129495362Y-91457275D01*
X129566790Y-91385847D01*
X129709647Y-91314418D01*
X129923933Y-91314418D01*
X130066790Y-91385847D01*
X130138219Y-91457275D01*
X130209647Y-91600132D01*
X130209647Y-92028704D01*
X130138219Y-92171561D01*
X130066790Y-92242989D01*
X129923933Y-92314418D01*
X129709647Y-92314418D01*
D11*
X127428505Y-88583751D02*
X127504695Y-88583751D01*
X127580885Y-88621847D01*
X127618981Y-88659942D01*
X127657076Y-88736132D01*
X127695171Y-88888513D01*
X127695171Y-89078989D01*
X127657076Y-89231370D01*
X127618981Y-89307561D01*
X127580885Y-89345656D01*
X127504695Y-89383751D01*
X127428505Y-89383751D01*
X127352314Y-89345656D01*
X127314219Y-89307561D01*
X127276124Y-89231370D01*
X127238028Y-89078989D01*
X127238028Y-88888513D01*
X127276124Y-88736132D01*
X127314219Y-88659942D01*
X127352314Y-88621847D01*
X127428505Y-88583751D01*
X128457076Y-89383751D02*
X127999933Y-89383751D01*
X128228505Y-89383751D02*
X128228505Y-88583751D01*
X128152314Y-88698037D01*
X128076124Y-88774227D01*
X127999933Y-88812323D01*
X128952314Y-88583751D02*
X129028505Y-88583751D01*
X129104695Y-88621847D01*
X129142790Y-88659942D01*
X129180885Y-88736132D01*
X129218981Y-88888513D01*
X129218981Y-89078989D01*
X129180885Y-89231370D01*
X129142790Y-89307561D01*
X129104695Y-89345656D01*
X129028505Y-89383751D01*
X128952314Y-89383751D01*
X128876124Y-89345656D01*
X128838028Y-89307561D01*
X128799933Y-89231370D01*
X128761838Y-89078989D01*
X128761838Y-88888513D01*
X128799933Y-88736132D01*
X128838028Y-88659942D01*
X128876124Y-88621847D01*
X128952314Y-88583751D01*
X127655171Y-83103751D02*
X127198028Y-83103751D01*
X127426600Y-83103751D02*
X127426600Y-82303751D01*
X127350409Y-82418037D01*
X127274219Y-82494227D01*
X127198028Y-82532323D01*
X128417076Y-83103751D02*
X127959933Y-83103751D01*
X128188505Y-83103751D02*
X128188505Y-82303751D01*
X128112314Y-82418037D01*
X128036124Y-82494227D01*
X127959933Y-82532323D01*
X129140885Y-82303751D02*
X128759933Y-82303751D01*
X128721838Y-82684704D01*
X128759933Y-82646608D01*
X128836124Y-82608513D01*
X129026600Y-82608513D01*
X129102790Y-82646608D01*
X129140885Y-82684704D01*
X129178981Y-82760894D01*
X129178981Y-82951370D01*
X129140885Y-83027561D01*
X129102790Y-83065656D01*
X129026600Y-83103751D01*
X128836124Y-83103751D01*
X128759933Y-83065656D01*
X128721838Y-83027561D01*
X127388505Y-79443751D02*
X127464695Y-79443751D01*
X127540885Y-79481847D01*
X127578981Y-79519942D01*
X127617076Y-79596132D01*
X127655171Y-79748513D01*
X127655171Y-79938989D01*
X127617076Y-80091370D01*
X127578981Y-80167561D01*
X127540885Y-80205656D01*
X127464695Y-80243751D01*
X127388505Y-80243751D01*
X127312314Y-80205656D01*
X127274219Y-80167561D01*
X127236124Y-80091370D01*
X127198028Y-79938989D01*
X127198028Y-79748513D01*
X127236124Y-79596132D01*
X127274219Y-79519942D01*
X127312314Y-79481847D01*
X127388505Y-79443751D01*
X128150409Y-79443751D02*
X128226600Y-79443751D01*
X128302790Y-79481847D01*
X128340885Y-79519942D01*
X128378981Y-79596132D01*
X128417076Y-79748513D01*
X128417076Y-79938989D01*
X128378981Y-80091370D01*
X128340885Y-80167561D01*
X128302790Y-80205656D01*
X128226600Y-80243751D01*
X128150409Y-80243751D01*
X128074219Y-80205656D01*
X128036124Y-80167561D01*
X127998028Y-80091370D01*
X127959933Y-79938989D01*
X127959933Y-79748513D01*
X127998028Y-79596132D01*
X128036124Y-79519942D01*
X128074219Y-79481847D01*
X128150409Y-79443751D01*
X128721838Y-79519942D02*
X128759933Y-79481847D01*
X128836124Y-79443751D01*
X129026600Y-79443751D01*
X129102790Y-79481847D01*
X129140885Y-79519942D01*
X129178981Y-79596132D01*
X129178981Y-79672323D01*
X129140885Y-79786608D01*
X128683743Y-80243751D01*
X129178981Y-80243751D01*
X127458505Y-77123751D02*
X127534695Y-77123751D01*
X127610885Y-77161847D01*
X127648981Y-77199942D01*
X127687076Y-77276132D01*
X127725171Y-77428513D01*
X127725171Y-77618989D01*
X127687076Y-77771370D01*
X127648981Y-77847561D01*
X127610885Y-77885656D01*
X127534695Y-77923751D01*
X127458505Y-77923751D01*
X127382314Y-77885656D01*
X127344219Y-77847561D01*
X127306124Y-77771370D01*
X127268028Y-77618989D01*
X127268028Y-77428513D01*
X127306124Y-77276132D01*
X127344219Y-77199942D01*
X127382314Y-77161847D01*
X127458505Y-77123751D01*
X128029933Y-77199942D02*
X128068028Y-77161847D01*
X128144219Y-77123751D01*
X128334695Y-77123751D01*
X128410885Y-77161847D01*
X128448981Y-77199942D01*
X128487076Y-77276132D01*
X128487076Y-77352323D01*
X128448981Y-77466608D01*
X127991838Y-77923751D01*
X128487076Y-77923751D01*
X128868028Y-77923751D02*
X129020409Y-77923751D01*
X129096600Y-77885656D01*
X129134695Y-77847561D01*
X129210885Y-77733275D01*
X129248981Y-77580894D01*
X129248981Y-77276132D01*
X129210885Y-77199942D01*
X129172790Y-77161847D01*
X129096600Y-77123751D01*
X128944219Y-77123751D01*
X128868028Y-77161847D01*
X128829933Y-77199942D01*
X128791838Y-77276132D01*
X128791838Y-77466608D01*
X128829933Y-77542799D01*
X128868028Y-77580894D01*
X128944219Y-77618989D01*
X129096600Y-77618989D01*
X129172790Y-77580894D01*
X129210885Y-77542799D01*
X129248981Y-77466608D01*
X127456124Y-65293751D02*
X127189457Y-64912799D01*
X126998981Y-65293751D02*
X126998981Y-64493751D01*
X127303743Y-64493751D01*
X127379933Y-64531847D01*
X127418028Y-64569942D01*
X127456124Y-64646132D01*
X127456124Y-64760418D01*
X127418028Y-64836608D01*
X127379933Y-64874704D01*
X127303743Y-64912799D01*
X126998981Y-64912799D01*
X127760885Y-65065180D02*
X128141838Y-65065180D01*
X127684695Y-65293751D02*
X127951362Y-64493751D01*
X128218028Y-65293751D01*
X128408505Y-64493751D02*
X128598981Y-65293751D01*
X128751362Y-64722323D01*
X128903743Y-65293751D01*
X129094219Y-64493751D01*
X129693648Y-66343847D02*
X129617457Y-66305751D01*
X129503172Y-66305751D01*
X129388886Y-66343847D01*
X129312695Y-66420037D01*
X129274600Y-66496227D01*
X129236505Y-66648608D01*
X129236505Y-66762894D01*
X129274600Y-66915275D01*
X129312695Y-66991466D01*
X129388886Y-67067656D01*
X129503172Y-67105751D01*
X129579362Y-67105751D01*
X129693648Y-67067656D01*
X129731743Y-67029561D01*
X129731743Y-66762894D01*
X129579362Y-66762894D01*
X130074600Y-67105751D02*
X130074600Y-66305751D01*
X130531743Y-67105751D01*
X130531743Y-66305751D01*
X130912695Y-67105751D02*
X130912695Y-66305751D01*
X131103172Y-66305751D01*
X131217457Y-66343847D01*
X131293648Y-66420037D01*
X131331743Y-66496227D01*
X131369838Y-66648608D01*
X131369838Y-66762894D01*
X131331743Y-66915275D01*
X131293648Y-66991466D01*
X131217457Y-67067656D01*
X131103172Y-67105751D01*
X130912695Y-67105751D01*
X129998409Y-69645751D02*
X129731743Y-69264799D01*
X129541266Y-69645751D02*
X129541266Y-68845751D01*
X129846028Y-68845751D01*
X129922219Y-68883847D01*
X129960314Y-68921942D01*
X129998409Y-68998132D01*
X129998409Y-69112418D01*
X129960314Y-69188608D01*
X129922219Y-69226704D01*
X129846028Y-69264799D01*
X129541266Y-69264799D01*
X130303171Y-69607656D02*
X130417457Y-69645751D01*
X130607933Y-69645751D01*
X130684124Y-69607656D01*
X130722219Y-69569561D01*
X130760314Y-69493370D01*
X130760314Y-69417180D01*
X130722219Y-69340989D01*
X130684124Y-69302894D01*
X130607933Y-69264799D01*
X130455552Y-69226704D01*
X130379362Y-69188608D01*
X130341266Y-69150513D01*
X130303171Y-69074323D01*
X130303171Y-68998132D01*
X130341266Y-68921942D01*
X130379362Y-68883847D01*
X130455552Y-68845751D01*
X130646028Y-68845751D01*
X130760314Y-68883847D01*
X130988885Y-68845751D02*
X131446028Y-68845751D01*
X131217457Y-69645751D02*
X131217457Y-68845751D01*
X129319029Y-71385751D02*
X129585696Y-72185751D01*
X129852362Y-71385751D01*
X130576172Y-72109561D02*
X130538076Y-72147656D01*
X130423791Y-72185751D01*
X130347600Y-72185751D01*
X130233315Y-72147656D01*
X130157124Y-72071466D01*
X130119029Y-71995275D01*
X130080934Y-71842894D01*
X130080934Y-71728608D01*
X130119029Y-71576227D01*
X130157124Y-71500037D01*
X130233315Y-71423847D01*
X130347600Y-71385751D01*
X130423791Y-71385751D01*
X130538076Y-71423847D01*
X130576172Y-71461942D01*
X131376172Y-72109561D02*
X131338076Y-72147656D01*
X131223791Y-72185751D01*
X131147600Y-72185751D01*
X131033315Y-72147656D01*
X130957124Y-72071466D01*
X130919029Y-71995275D01*
X130880934Y-71842894D01*
X130880934Y-71728608D01*
X130919029Y-71576227D01*
X130957124Y-71500037D01*
X131033315Y-71423847D01*
X131147600Y-71385751D01*
X131223791Y-71385751D01*
X131338076Y-71423847D01*
X131376172Y-71461942D01*
X127598505Y-74483751D02*
X127674695Y-74483751D01*
X127750885Y-74521847D01*
X127788981Y-74559942D01*
X127827076Y-74636132D01*
X127865171Y-74788513D01*
X127865171Y-74978989D01*
X127827076Y-75131370D01*
X127788981Y-75207561D01*
X127750885Y-75245656D01*
X127674695Y-75283751D01*
X127598505Y-75283751D01*
X127522314Y-75245656D01*
X127484219Y-75207561D01*
X127446124Y-75131370D01*
X127408028Y-74978989D01*
X127408028Y-74788513D01*
X127446124Y-74636132D01*
X127484219Y-74559942D01*
X127522314Y-74521847D01*
X127598505Y-74483751D01*
X128131838Y-74483751D02*
X128627076Y-74483751D01*
X128360409Y-74788513D01*
X128474695Y-74788513D01*
X128550885Y-74826608D01*
X128588981Y-74864704D01*
X128627076Y-74940894D01*
X128627076Y-75131370D01*
X128588981Y-75207561D01*
X128550885Y-75245656D01*
X128474695Y-75283751D01*
X128246124Y-75283751D01*
X128169933Y-75245656D01*
X128131838Y-75207561D01*
X129388981Y-75283751D02*
X128931838Y-75283751D01*
X129160409Y-75283751D02*
X129160409Y-74483751D01*
X129084219Y-74598037D01*
X129008028Y-74674227D01*
X128931838Y-74712323D01*
X127725171Y-85593751D02*
X127268028Y-85593751D01*
X127496600Y-85593751D02*
X127496600Y-84793751D01*
X127420409Y-84908037D01*
X127344219Y-84984227D01*
X127268028Y-85022323D01*
X128487076Y-85593751D02*
X128029933Y-85593751D01*
X128258505Y-85593751D02*
X128258505Y-84793751D01*
X128182314Y-84908037D01*
X128106124Y-84984227D01*
X128029933Y-85022323D01*
X128753743Y-84793751D02*
X129248981Y-84793751D01*
X128982314Y-85098513D01*
X129096600Y-85098513D01*
X129172790Y-85136608D01*
X129210885Y-85174704D01*
X129248981Y-85250894D01*
X129248981Y-85441370D01*
X129210885Y-85517561D01*
X129172790Y-85555656D01*
X129096600Y-85593751D01*
X128868028Y-85593751D01*
X128791838Y-85555656D01*
X128753743Y-85517561D01*
X127695171Y-87913751D02*
X127238028Y-87913751D01*
X127466600Y-87913751D02*
X127466600Y-87113751D01*
X127390409Y-87228037D01*
X127314219Y-87304227D01*
X127238028Y-87342323D01*
X128457076Y-87913751D02*
X127999933Y-87913751D01*
X128228505Y-87913751D02*
X128228505Y-87113751D01*
X128152314Y-87228037D01*
X128076124Y-87304227D01*
X127999933Y-87342323D01*
X129218981Y-87913751D02*
X128761838Y-87913751D01*
X128990409Y-87913751D02*
X128990409Y-87113751D01*
X128914219Y-87228037D01*
X128838028Y-87304227D01*
X128761838Y-87342323D01*
X119415171Y-88993751D02*
X118958028Y-88993751D01*
X119186600Y-88993751D02*
X119186600Y-88193751D01*
X119110409Y-88308037D01*
X119034219Y-88384227D01*
X118958028Y-88422323D01*
X119910409Y-88193751D02*
X119986600Y-88193751D01*
X120062790Y-88231847D01*
X120100885Y-88269942D01*
X120138981Y-88346132D01*
X120177076Y-88498513D01*
X120177076Y-88688989D01*
X120138981Y-88841370D01*
X120100885Y-88917561D01*
X120062790Y-88955656D01*
X119986600Y-88993751D01*
X119910409Y-88993751D01*
X119834219Y-88955656D01*
X119796124Y-88917561D01*
X119758028Y-88841370D01*
X119719933Y-88688989D01*
X119719933Y-88498513D01*
X119758028Y-88346132D01*
X119796124Y-88269942D01*
X119834219Y-88231847D01*
X119910409Y-88193751D01*
X120862790Y-88460418D02*
X120862790Y-88993751D01*
X120672314Y-88155656D02*
X120481838Y-88727085D01*
X120977076Y-88727085D01*
X121155171Y-85453751D02*
X120698028Y-85453751D01*
X120926600Y-85453751D02*
X120926600Y-84653751D01*
X120850409Y-84768037D01*
X120774219Y-84844227D01*
X120698028Y-84882323D01*
X121650409Y-84653751D02*
X121726600Y-84653751D01*
X121802790Y-84691847D01*
X121840885Y-84729942D01*
X121878981Y-84806132D01*
X121917076Y-84958513D01*
X121917076Y-85148989D01*
X121878981Y-85301370D01*
X121840885Y-85377561D01*
X121802790Y-85415656D01*
X121726600Y-85453751D01*
X121650409Y-85453751D01*
X121574219Y-85415656D01*
X121536124Y-85377561D01*
X121498028Y-85301370D01*
X121459933Y-85148989D01*
X121459933Y-84958513D01*
X121498028Y-84806132D01*
X121536124Y-84729942D01*
X121574219Y-84691847D01*
X121650409Y-84653751D01*
X122412314Y-84653751D02*
X122488505Y-84653751D01*
X122564695Y-84691847D01*
X122602790Y-84729942D01*
X122640885Y-84806132D01*
X122678981Y-84958513D01*
X122678981Y-85148989D01*
X122640885Y-85301370D01*
X122602790Y-85377561D01*
X122564695Y-85415656D01*
X122488505Y-85453751D01*
X122412314Y-85453751D01*
X122336124Y-85415656D01*
X122298028Y-85377561D01*
X122259933Y-85301370D01*
X122221838Y-85148989D01*
X122221838Y-84958513D01*
X122259933Y-84806132D01*
X122298028Y-84729942D01*
X122336124Y-84691847D01*
X122412314Y-84653751D01*
X120818505Y-82233751D02*
X120894695Y-82233751D01*
X120970885Y-82271847D01*
X121008981Y-82309942D01*
X121047076Y-82386132D01*
X121085171Y-82538513D01*
X121085171Y-82728989D01*
X121047076Y-82881370D01*
X121008981Y-82957561D01*
X120970885Y-82995656D01*
X120894695Y-83033751D01*
X120818505Y-83033751D01*
X120742314Y-82995656D01*
X120704219Y-82957561D01*
X120666124Y-82881370D01*
X120628028Y-82728989D01*
X120628028Y-82538513D01*
X120666124Y-82386132D01*
X120704219Y-82309942D01*
X120742314Y-82271847D01*
X120818505Y-82233751D01*
X121389933Y-82309942D02*
X121428028Y-82271847D01*
X121504219Y-82233751D01*
X121694695Y-82233751D01*
X121770885Y-82271847D01*
X121808981Y-82309942D01*
X121847076Y-82386132D01*
X121847076Y-82462323D01*
X121808981Y-82576608D01*
X121351838Y-83033751D01*
X121847076Y-83033751D01*
X122532790Y-82500418D02*
X122532790Y-83033751D01*
X122342314Y-82195656D02*
X122151838Y-82767085D01*
X122647076Y-82767085D01*
X120788505Y-79623751D02*
X120864695Y-79623751D01*
X120940885Y-79661847D01*
X120978981Y-79699942D01*
X121017076Y-79776132D01*
X121055171Y-79928513D01*
X121055171Y-80118989D01*
X121017076Y-80271370D01*
X120978981Y-80347561D01*
X120940885Y-80385656D01*
X120864695Y-80423751D01*
X120788505Y-80423751D01*
X120712314Y-80385656D01*
X120674219Y-80347561D01*
X120636124Y-80271370D01*
X120598028Y-80118989D01*
X120598028Y-79928513D01*
X120636124Y-79776132D01*
X120674219Y-79699942D01*
X120712314Y-79661847D01*
X120788505Y-79623751D01*
X121359933Y-79699942D02*
X121398028Y-79661847D01*
X121474219Y-79623751D01*
X121664695Y-79623751D01*
X121740885Y-79661847D01*
X121778981Y-79699942D01*
X121817076Y-79776132D01*
X121817076Y-79852323D01*
X121778981Y-79966608D01*
X121321838Y-80423751D01*
X121817076Y-80423751D01*
X122121838Y-79699942D02*
X122159933Y-79661847D01*
X122236124Y-79623751D01*
X122426600Y-79623751D01*
X122502790Y-79661847D01*
X122540885Y-79699942D01*
X122578981Y-79776132D01*
X122578981Y-79852323D01*
X122540885Y-79966608D01*
X122083743Y-80423751D01*
X122578981Y-80423751D01*
X118777981Y-68883847D02*
X118701790Y-68845751D01*
X118587505Y-68845751D01*
X118473219Y-68883847D01*
X118397028Y-68960037D01*
X118358933Y-69036227D01*
X118320838Y-69188608D01*
X118320838Y-69302894D01*
X118358933Y-69455275D01*
X118397028Y-69531466D01*
X118473219Y-69607656D01*
X118587505Y-69645751D01*
X118663695Y-69645751D01*
X118777981Y-69607656D01*
X118816076Y-69569561D01*
X118816076Y-69302894D01*
X118663695Y-69302894D01*
X119158933Y-69645751D02*
X119158933Y-68845751D01*
X119616076Y-69645751D01*
X119616076Y-68845751D01*
X119997028Y-69645751D02*
X119997028Y-68845751D01*
X120187505Y-68845751D01*
X120301790Y-68883847D01*
X120377981Y-68960037D01*
X120416076Y-69036227D01*
X120454171Y-69188608D01*
X120454171Y-69302894D01*
X120416076Y-69455275D01*
X120377981Y-69531466D01*
X120301790Y-69607656D01*
X120187505Y-69645751D01*
X119997028Y-69645751D01*
X118777981Y-71423847D02*
X118701790Y-71385751D01*
X118587505Y-71385751D01*
X118473219Y-71423847D01*
X118397028Y-71500037D01*
X118358933Y-71576227D01*
X118320838Y-71728608D01*
X118320838Y-71842894D01*
X118358933Y-71995275D01*
X118397028Y-72071466D01*
X118473219Y-72147656D01*
X118587505Y-72185751D01*
X118663695Y-72185751D01*
X118777981Y-72147656D01*
X118816076Y-72109561D01*
X118816076Y-71842894D01*
X118663695Y-71842894D01*
X119158933Y-72185751D02*
X119158933Y-71385751D01*
X119616076Y-72185751D01*
X119616076Y-71385751D01*
X119997028Y-72185751D02*
X119997028Y-71385751D01*
X120187505Y-71385751D01*
X120301790Y-71423847D01*
X120377981Y-71500037D01*
X120416076Y-71576227D01*
X120454171Y-71728608D01*
X120454171Y-71842894D01*
X120416076Y-71995275D01*
X120377981Y-72071466D01*
X120301790Y-72147656D01*
X120187505Y-72185751D01*
X119997028Y-72185751D01*
X120748505Y-74343751D02*
X120824695Y-74343751D01*
X120900885Y-74381847D01*
X120938981Y-74419942D01*
X120977076Y-74496132D01*
X121015171Y-74648513D01*
X121015171Y-74838989D01*
X120977076Y-74991370D01*
X120938981Y-75067561D01*
X120900885Y-75105656D01*
X120824695Y-75143751D01*
X120748505Y-75143751D01*
X120672314Y-75105656D01*
X120634219Y-75067561D01*
X120596124Y-74991370D01*
X120558028Y-74838989D01*
X120558028Y-74648513D01*
X120596124Y-74496132D01*
X120634219Y-74419942D01*
X120672314Y-74381847D01*
X120748505Y-74343751D01*
X121777076Y-75143751D02*
X121319933Y-75143751D01*
X121548505Y-75143751D02*
X121548505Y-74343751D01*
X121472314Y-74458037D01*
X121396124Y-74534227D01*
X121319933Y-74572323D01*
X122043743Y-74343751D02*
X122577076Y-74343751D01*
X122234219Y-75143751D01*
X120718505Y-77193751D02*
X120794695Y-77193751D01*
X120870885Y-77231847D01*
X120908981Y-77269942D01*
X120947076Y-77346132D01*
X120985171Y-77498513D01*
X120985171Y-77688989D01*
X120947076Y-77841370D01*
X120908981Y-77917561D01*
X120870885Y-77955656D01*
X120794695Y-77993751D01*
X120718505Y-77993751D01*
X120642314Y-77955656D01*
X120604219Y-77917561D01*
X120566124Y-77841370D01*
X120528028Y-77688989D01*
X120528028Y-77498513D01*
X120566124Y-77346132D01*
X120604219Y-77269942D01*
X120642314Y-77231847D01*
X120718505Y-77193751D01*
X121289933Y-77269942D02*
X121328028Y-77231847D01*
X121404219Y-77193751D01*
X121594695Y-77193751D01*
X121670885Y-77231847D01*
X121708981Y-77269942D01*
X121747076Y-77346132D01*
X121747076Y-77422323D01*
X121708981Y-77536608D01*
X121251838Y-77993751D01*
X121747076Y-77993751D01*
X122242314Y-77193751D02*
X122318505Y-77193751D01*
X122394695Y-77231847D01*
X122432790Y-77269942D01*
X122470885Y-77346132D01*
X122508981Y-77498513D01*
X122508981Y-77688989D01*
X122470885Y-77841370D01*
X122432790Y-77917561D01*
X122394695Y-77955656D01*
X122318505Y-77993751D01*
X122242314Y-77993751D01*
X122166124Y-77955656D01*
X122128028Y-77917561D01*
X122089933Y-77841370D01*
X122051838Y-77688989D01*
X122051838Y-77498513D01*
X122089933Y-77346132D01*
X122128028Y-77269942D01*
X122166124Y-77231847D01*
X122242314Y-77193751D01*
X120788505Y-66953751D02*
X120864695Y-66953751D01*
X120940885Y-66991847D01*
X120978981Y-67029942D01*
X121017076Y-67106132D01*
X121055171Y-67258513D01*
X121055171Y-67448989D01*
X121017076Y-67601370D01*
X120978981Y-67677561D01*
X120940885Y-67715656D01*
X120864695Y-67753751D01*
X120788505Y-67753751D01*
X120712314Y-67715656D01*
X120674219Y-67677561D01*
X120636124Y-67601370D01*
X120598028Y-67448989D01*
X120598028Y-67258513D01*
X120636124Y-67106132D01*
X120674219Y-67029942D01*
X120712314Y-66991847D01*
X120788505Y-66953751D01*
X121550409Y-66953751D02*
X121626600Y-66953751D01*
X121702790Y-66991847D01*
X121740885Y-67029942D01*
X121778981Y-67106132D01*
X121817076Y-67258513D01*
X121817076Y-67448989D01*
X121778981Y-67601370D01*
X121740885Y-67677561D01*
X121702790Y-67715656D01*
X121626600Y-67753751D01*
X121550409Y-67753751D01*
X121474219Y-67715656D01*
X121436124Y-67677561D01*
X121398028Y-67601370D01*
X121359933Y-67448989D01*
X121359933Y-67258513D01*
X121398028Y-67106132D01*
X121436124Y-67029942D01*
X121474219Y-66991847D01*
X121550409Y-66953751D01*
X122274219Y-67296608D02*
X122198028Y-67258513D01*
X122159933Y-67220418D01*
X122121838Y-67144227D01*
X122121838Y-67106132D01*
X122159933Y-67029942D01*
X122198028Y-66991847D01*
X122274219Y-66953751D01*
X122426600Y-66953751D01*
X122502790Y-66991847D01*
X122540885Y-67029942D01*
X122578981Y-67106132D01*
X122578981Y-67144227D01*
X122540885Y-67220418D01*
X122502790Y-67258513D01*
X122426600Y-67296608D01*
X122274219Y-67296608D01*
X122198028Y-67334704D01*
X122159933Y-67372799D01*
X122121838Y-67448989D01*
X122121838Y-67601370D01*
X122159933Y-67677561D01*
X122198028Y-67715656D01*
X122274219Y-67753751D01*
X122426600Y-67753751D01*
X122502790Y-67715656D01*
X122540885Y-67677561D01*
X122578981Y-67601370D01*
X122578981Y-67448989D01*
X122540885Y-67372799D01*
X122502790Y-67334704D01*
X122426600Y-67296608D01*
X122108505Y-64813751D02*
X122184695Y-64813751D01*
X122260885Y-64851847D01*
X122298981Y-64889942D01*
X122337076Y-64966132D01*
X122375171Y-65118513D01*
X122375171Y-65308989D01*
X122337076Y-65461370D01*
X122298981Y-65537561D01*
X122260885Y-65575656D01*
X122184695Y-65613751D01*
X122108505Y-65613751D01*
X122032314Y-65575656D01*
X121994219Y-65537561D01*
X121956124Y-65461370D01*
X121918028Y-65308989D01*
X121918028Y-65118513D01*
X121956124Y-64966132D01*
X121994219Y-64889942D01*
X122032314Y-64851847D01*
X122108505Y-64813751D01*
X122870409Y-64813751D02*
X122946600Y-64813751D01*
X123022790Y-64851847D01*
X123060885Y-64889942D01*
X123098981Y-64966132D01*
X123137076Y-65118513D01*
X123137076Y-65308989D01*
X123098981Y-65461370D01*
X123060885Y-65537561D01*
X123022790Y-65575656D01*
X122946600Y-65613751D01*
X122870409Y-65613751D01*
X122794219Y-65575656D01*
X122756124Y-65537561D01*
X122718028Y-65461370D01*
X122679933Y-65308989D01*
X122679933Y-65118513D01*
X122718028Y-64966132D01*
X122756124Y-64889942D01*
X122794219Y-64851847D01*
X122870409Y-64813751D01*
X123822790Y-64813751D02*
X123670409Y-64813751D01*
X123594219Y-64851847D01*
X123556124Y-64889942D01*
X123479933Y-65004227D01*
X123441838Y-65156608D01*
X123441838Y-65461370D01*
X123479933Y-65537561D01*
X123518028Y-65575656D01*
X123594219Y-65613751D01*
X123746600Y-65613751D01*
X123822790Y-65575656D01*
X123860885Y-65537561D01*
X123898981Y-65461370D01*
X123898981Y-65270894D01*
X123860885Y-65194704D01*
X123822790Y-65156608D01*
X123746600Y-65118513D01*
X123594219Y-65118513D01*
X123518028Y-65156608D01*
X123479933Y-65194704D01*
X123441838Y-65270894D01*
%TO.C,U1*%
X121718028Y-90935751D02*
X121718028Y-90135751D01*
X121908505Y-90135751D01*
X122022790Y-90173847D01*
X122098981Y-90250037D01*
X122137076Y-90326227D01*
X122175171Y-90478608D01*
X122175171Y-90592894D01*
X122137076Y-90745275D01*
X122098981Y-90821466D01*
X122022790Y-90897656D01*
X121908505Y-90935751D01*
X121718028Y-90935751D01*
X122898981Y-90135751D02*
X122518028Y-90135751D01*
X122479933Y-90516704D01*
X122518028Y-90478608D01*
X122594219Y-90440513D01*
X122784695Y-90440513D01*
X122860885Y-90478608D01*
X122898981Y-90516704D01*
X122937076Y-90592894D01*
X122937076Y-90783370D01*
X122898981Y-90859561D01*
X122860885Y-90897656D01*
X122784695Y-90935751D01*
X122594219Y-90935751D01*
X122518028Y-90897656D01*
X122479933Y-90859561D01*
X127121838Y-90516704D02*
X126855171Y-90516704D01*
X126855171Y-90935751D02*
X126855171Y-90135751D01*
X127236124Y-90135751D01*
X127959933Y-90935751D02*
X127502790Y-90935751D01*
X127731362Y-90935751D02*
X127731362Y-90135751D01*
X127655171Y-90250037D01*
X127578981Y-90326227D01*
X127502790Y-90364323D01*
X124715171Y-90859561D02*
X124677076Y-90897656D01*
X124562790Y-90935751D01*
X124486600Y-90935751D01*
X124372314Y-90897656D01*
X124296124Y-90821466D01*
X124258028Y-90745275D01*
X124219933Y-90592894D01*
X124219933Y-90478608D01*
X124258028Y-90326227D01*
X124296124Y-90250037D01*
X124372314Y-90173847D01*
X124486600Y-90135751D01*
X124562790Y-90135751D01*
X124677076Y-90173847D01*
X124715171Y-90211942D01*
X124981838Y-90135751D02*
X125515171Y-90135751D01*
X125172314Y-90935751D01*
X131012802Y-91038838D02*
X131107083Y-90991698D01*
X131154224Y-90991698D01*
X131224934Y-91015268D01*
X131295645Y-91085979D01*
X131319215Y-91156689D01*
X131319215Y-91203830D01*
X131295645Y-91274540D01*
X131107083Y-91463102D01*
X130612108Y-90968127D01*
X130777100Y-90803136D01*
X130847811Y-90779566D01*
X130894951Y-90779566D01*
X130965662Y-90803136D01*
X131012802Y-90850276D01*
X131036372Y-90920987D01*
X131036372Y-90968127D01*
X131012802Y-91038838D01*
X130847811Y-91203830D01*
X131319215Y-90261021D02*
X131224934Y-90355302D01*
X131201364Y-90426012D01*
X131201364Y-90473153D01*
X131224934Y-90591004D01*
X131295645Y-90708855D01*
X131484207Y-90897417D01*
X131554917Y-90920987D01*
X131602058Y-90920987D01*
X131672769Y-90897417D01*
X131767049Y-90803136D01*
X131790620Y-90732425D01*
X131790620Y-90685285D01*
X131767049Y-90614574D01*
X131649198Y-90496723D01*
X131578488Y-90473153D01*
X131531347Y-90473153D01*
X131460637Y-90496723D01*
X131366356Y-90591004D01*
X131342785Y-90661714D01*
X131342785Y-90708855D01*
X131366356Y-90779566D01*
X129115171Y-90723847D02*
X128881838Y-90723847D01*
X128881838Y-91090513D02*
X128881838Y-90390513D01*
X129215171Y-90390513D01*
X129615171Y-90390513D02*
X129681838Y-90390513D01*
X129748505Y-90423847D01*
X129781838Y-90457180D01*
X129815171Y-90523847D01*
X129848505Y-90657180D01*
X129848505Y-90823847D01*
X129815171Y-90957180D01*
X129781838Y-91023847D01*
X129748505Y-91057180D01*
X129681838Y-91090513D01*
X129615171Y-91090513D01*
X129548505Y-91057180D01*
X129515171Y-91023847D01*
X129481838Y-90957180D01*
X129448505Y-90823847D01*
X129448505Y-90657180D01*
X129481838Y-90523847D01*
X129515171Y-90457180D01*
X129548505Y-90423847D01*
X129615171Y-90390513D01*
X120065171Y-90723847D02*
X120165171Y-90757180D01*
X120198505Y-90790513D01*
X120231838Y-90857180D01*
X120231838Y-90957180D01*
X120198505Y-91023847D01*
X120165171Y-91057180D01*
X120098505Y-91090513D01*
X119831838Y-91090513D01*
X119831838Y-90390513D01*
X120065171Y-90390513D01*
X120131838Y-90423847D01*
X120165171Y-90457180D01*
X120198505Y-90523847D01*
X120198505Y-90590513D01*
X120165171Y-90657180D01*
X120131838Y-90690513D01*
X120065171Y-90723847D01*
X119831838Y-90723847D01*
X120465171Y-90390513D02*
X120931838Y-90390513D01*
X120631838Y-91090513D01*
X119086156Y-63765751D02*
X119543299Y-63765751D01*
X119314728Y-64565751D02*
X119314728Y-63765751D01*
X119733775Y-63765751D02*
X120267109Y-64565751D01*
X120267109Y-63765751D02*
X119733775Y-64565751D01*
X120724252Y-63765751D02*
X120800442Y-63765751D01*
X120876633Y-63803847D01*
X120914728Y-63841942D01*
X120952823Y-63918132D01*
X120990918Y-64070513D01*
X120990918Y-64260989D01*
X120952823Y-64413370D01*
X120914728Y-64489561D01*
X120876633Y-64527656D01*
X120800442Y-64565751D01*
X120724252Y-64565751D01*
X120648061Y-64527656D01*
X120609966Y-64489561D01*
X120571871Y-64413370D01*
X120533775Y-64260989D01*
X120533775Y-64070513D01*
X120571871Y-63918132D01*
X120609966Y-63841942D01*
X120648061Y-63803847D01*
X120724252Y-63765751D01*
X121905204Y-63727656D02*
X121219490Y-64756227D01*
X122171871Y-64565751D02*
X122171871Y-63765751D01*
X122362347Y-63765751D01*
X122476633Y-63803847D01*
X122552823Y-63880037D01*
X122590918Y-63956227D01*
X122629013Y-64108608D01*
X122629013Y-64222894D01*
X122590918Y-64375275D01*
X122552823Y-64451466D01*
X122476633Y-64527656D01*
X122362347Y-64565751D01*
X122171871Y-64565751D01*
X122895680Y-63765751D02*
X123390918Y-63765751D01*
X123124252Y-64070513D01*
X123238537Y-64070513D01*
X123314728Y-64108608D01*
X123352823Y-64146704D01*
X123390918Y-64222894D01*
X123390918Y-64413370D01*
X123352823Y-64489561D01*
X123314728Y-64527656D01*
X123238537Y-64565751D01*
X123009966Y-64565751D01*
X122933775Y-64527656D01*
X122895680Y-64489561D01*
X118797028Y-67105751D02*
X118797028Y-66305751D01*
X118987505Y-66305751D01*
X119101790Y-66343847D01*
X119177981Y-66420037D01*
X119216076Y-66496227D01*
X119254171Y-66648608D01*
X119254171Y-66762894D01*
X119216076Y-66915275D01*
X119177981Y-66991466D01*
X119101790Y-67067656D01*
X118987505Y-67105751D01*
X118797028Y-67105751D01*
X119558933Y-66381942D02*
X119597028Y-66343847D01*
X119673219Y-66305751D01*
X119863695Y-66305751D01*
X119939885Y-66343847D01*
X119977981Y-66381942D01*
X120016076Y-66458132D01*
X120016076Y-66534323D01*
X119977981Y-66648608D01*
X119520838Y-67105751D01*
X120016076Y-67105751D01*
X118797028Y-77265751D02*
X118797028Y-76465751D01*
X118987505Y-76465751D01*
X119101790Y-76503847D01*
X119177981Y-76580037D01*
X119216076Y-76656227D01*
X119254171Y-76808608D01*
X119254171Y-76922894D01*
X119216076Y-77075275D01*
X119177981Y-77151466D01*
X119101790Y-77227656D01*
X118987505Y-77265751D01*
X118797028Y-77265751D01*
X119749409Y-76465751D02*
X119825600Y-76465751D01*
X119901790Y-76503847D01*
X119939885Y-76541942D01*
X119977981Y-76618132D01*
X120016076Y-76770513D01*
X120016076Y-76960989D01*
X119977981Y-77113370D01*
X119939885Y-77189561D01*
X119901790Y-77227656D01*
X119825600Y-77265751D01*
X119749409Y-77265751D01*
X119673219Y-77227656D01*
X119635124Y-77189561D01*
X119597028Y-77113370D01*
X119558933Y-76960989D01*
X119558933Y-76770513D01*
X119597028Y-76618132D01*
X119635124Y-76541942D01*
X119673219Y-76503847D01*
X119749409Y-76465751D01*
X118797028Y-74725751D02*
X118797028Y-73925751D01*
X118987505Y-73925751D01*
X119101790Y-73963847D01*
X119177981Y-74040037D01*
X119216076Y-74116227D01*
X119254171Y-74268608D01*
X119254171Y-74382894D01*
X119216076Y-74535275D01*
X119177981Y-74611466D01*
X119101790Y-74687656D01*
X118987505Y-74725751D01*
X118797028Y-74725751D01*
X120016076Y-74725751D02*
X119558933Y-74725751D01*
X119787505Y-74725751D02*
X119787505Y-73925751D01*
X119711314Y-74040037D01*
X119635124Y-74116227D01*
X119558933Y-74154323D01*
X118777981Y-71423847D02*
X118701790Y-71385751D01*
X118587505Y-71385751D01*
X118473219Y-71423847D01*
X118397028Y-71500037D01*
X118358933Y-71576227D01*
X118320838Y-71728608D01*
X118320838Y-71842894D01*
X118358933Y-71995275D01*
X118397028Y-72071466D01*
X118473219Y-72147656D01*
X118587505Y-72185751D01*
X118663695Y-72185751D01*
X118777981Y-72147656D01*
X118816076Y-72109561D01*
X118816076Y-71842894D01*
X118663695Y-71842894D01*
X119158933Y-72185751D02*
X119158933Y-71385751D01*
X119616076Y-72185751D01*
X119616076Y-71385751D01*
X119997028Y-72185751D02*
X119997028Y-71385751D01*
X120187505Y-71385751D01*
X120301790Y-71423847D01*
X120377981Y-71500037D01*
X120416076Y-71576227D01*
X120454171Y-71728608D01*
X120454171Y-71842894D01*
X120416076Y-71995275D01*
X120377981Y-72071466D01*
X120301790Y-72147656D01*
X120187505Y-72185751D01*
X119997028Y-72185751D01*
X118777981Y-68883847D02*
X118701790Y-68845751D01*
X118587505Y-68845751D01*
X118473219Y-68883847D01*
X118397028Y-68960037D01*
X118358933Y-69036227D01*
X118320838Y-69188608D01*
X118320838Y-69302894D01*
X118358933Y-69455275D01*
X118397028Y-69531466D01*
X118473219Y-69607656D01*
X118587505Y-69645751D01*
X118663695Y-69645751D01*
X118777981Y-69607656D01*
X118816076Y-69569561D01*
X118816076Y-69302894D01*
X118663695Y-69302894D01*
X119158933Y-69645751D02*
X119158933Y-68845751D01*
X119616076Y-69645751D01*
X119616076Y-68845751D01*
X119997028Y-69645751D02*
X119997028Y-68845751D01*
X120187505Y-68845751D01*
X120301790Y-68883847D01*
X120377981Y-68960037D01*
X120416076Y-69036227D01*
X120454171Y-69188608D01*
X120454171Y-69302894D01*
X120416076Y-69455275D01*
X120377981Y-69531466D01*
X120301790Y-69607656D01*
X120187505Y-69645751D01*
X119997028Y-69645751D01*
X118797028Y-79805751D02*
X118797028Y-79005751D01*
X118987505Y-79005751D01*
X119101790Y-79043847D01*
X119177981Y-79120037D01*
X119216076Y-79196227D01*
X119254171Y-79348608D01*
X119254171Y-79462894D01*
X119216076Y-79615275D01*
X119177981Y-79691466D01*
X119101790Y-79767656D01*
X118987505Y-79805751D01*
X118797028Y-79805751D01*
X119939885Y-79272418D02*
X119939885Y-79805751D01*
X119749409Y-78967656D02*
X119558933Y-79539085D01*
X120054171Y-79539085D01*
X119254171Y-82269561D02*
X119216076Y-82307656D01*
X119101790Y-82345751D01*
X119025600Y-82345751D01*
X118911314Y-82307656D01*
X118835124Y-82231466D01*
X118797028Y-82155275D01*
X118758933Y-82002894D01*
X118758933Y-81888608D01*
X118797028Y-81736227D01*
X118835124Y-81660037D01*
X118911314Y-81583847D01*
X119025600Y-81545751D01*
X119101790Y-81545751D01*
X119216076Y-81583847D01*
X119254171Y-81621942D01*
X119939885Y-81545751D02*
X119787505Y-81545751D01*
X119711314Y-81583847D01*
X119673219Y-81621942D01*
X119597028Y-81736227D01*
X119558933Y-81888608D01*
X119558933Y-82193370D01*
X119597028Y-82269561D01*
X119635124Y-82307656D01*
X119711314Y-82345751D01*
X119863695Y-82345751D01*
X119939885Y-82307656D01*
X119977981Y-82269561D01*
X120016076Y-82193370D01*
X120016076Y-82002894D01*
X119977981Y-81926704D01*
X119939885Y-81888608D01*
X119863695Y-81850513D01*
X119711314Y-81850513D01*
X119635124Y-81888608D01*
X119597028Y-81926704D01*
X119558933Y-82002894D01*
X118797028Y-84885751D02*
X118797028Y-84085751D01*
X118987505Y-84085751D01*
X119101790Y-84123847D01*
X119177981Y-84200037D01*
X119216076Y-84276227D01*
X119254171Y-84428608D01*
X119254171Y-84542894D01*
X119216076Y-84695275D01*
X119177981Y-84771466D01*
X119101790Y-84847656D01*
X118987505Y-84885751D01*
X118797028Y-84885751D01*
X119520838Y-84085751D02*
X120054171Y-84085751D01*
X119711314Y-84885751D01*
X118835124Y-87006704D02*
X119101790Y-87006704D01*
X119216076Y-87425751D02*
X118835124Y-87425751D01*
X118835124Y-86625751D01*
X119216076Y-86625751D01*
X119901790Y-86625751D02*
X119749409Y-86625751D01*
X119673219Y-86663847D01*
X119635124Y-86701942D01*
X119558933Y-86816227D01*
X119520838Y-86968608D01*
X119520838Y-87273370D01*
X119558933Y-87349561D01*
X119597028Y-87387656D01*
X119673219Y-87425751D01*
X119825600Y-87425751D01*
X119901790Y-87387656D01*
X119939885Y-87349561D01*
X119977981Y-87273370D01*
X119977981Y-87082894D01*
X119939885Y-87006704D01*
X119901790Y-86968608D01*
X119825600Y-86930513D01*
X119673219Y-86930513D01*
X119597028Y-86968608D01*
X119558933Y-87006704D01*
X119520838Y-87082894D01*
X119063695Y-89546704D02*
X119177981Y-89584799D01*
X119216076Y-89622894D01*
X119254171Y-89699085D01*
X119254171Y-89813370D01*
X119216076Y-89889561D01*
X119177981Y-89927656D01*
X119101790Y-89965751D01*
X118797028Y-89965751D01*
X118797028Y-89165751D01*
X119063695Y-89165751D01*
X119139885Y-89203847D01*
X119177981Y-89241942D01*
X119216076Y-89318132D01*
X119216076Y-89394323D01*
X119177981Y-89470513D01*
X119139885Y-89508608D01*
X119063695Y-89546704D01*
X118797028Y-89546704D01*
X119939885Y-89432418D02*
X119939885Y-89965751D01*
X119749409Y-89127656D02*
X119558933Y-89699085D01*
X120054171Y-89699085D01*
X118283513Y-90638144D02*
X118330653Y-90732425D01*
X118330653Y-90779566D01*
X118307083Y-90850276D01*
X118236372Y-90920987D01*
X118165662Y-90944557D01*
X118118521Y-90944557D01*
X118047811Y-90920987D01*
X117859249Y-90732425D01*
X118354224Y-90237450D01*
X118519215Y-90402442D01*
X118542785Y-90473153D01*
X118542785Y-90520293D01*
X118519215Y-90591004D01*
X118472075Y-90638144D01*
X118401364Y-90661714D01*
X118354224Y-90661714D01*
X118283513Y-90638144D01*
X118118521Y-90473153D01*
X119084901Y-90968127D02*
X118849198Y-90732425D01*
X118589926Y-90944557D01*
X118637066Y-90944557D01*
X118707777Y-90968127D01*
X118825628Y-91085979D01*
X118849198Y-91156689D01*
X118849198Y-91203830D01*
X118825628Y-91274540D01*
X118707777Y-91392391D01*
X118637066Y-91415962D01*
X118589926Y-91415962D01*
X118519215Y-91392391D01*
X118401364Y-91274540D01*
X118377794Y-91203830D01*
X118377794Y-91156689D01*
X129985695Y-87006704D02*
X130099981Y-87044799D01*
X130138076Y-87082894D01*
X130176171Y-87159085D01*
X130176171Y-87273370D01*
X130138076Y-87349561D01*
X130099981Y-87387656D01*
X130023790Y-87425751D01*
X129719028Y-87425751D01*
X129719028Y-86625751D01*
X129985695Y-86625751D01*
X130061885Y-86663847D01*
X130099981Y-86701942D01*
X130138076Y-86778132D01*
X130138076Y-86854323D01*
X130099981Y-86930513D01*
X130061885Y-86968608D01*
X129985695Y-87006704D01*
X129719028Y-87006704D01*
X130442838Y-86625751D02*
X130938076Y-86625751D01*
X130671409Y-86930513D01*
X130785695Y-86930513D01*
X130861885Y-86968608D01*
X130899981Y-87006704D01*
X130938076Y-87082894D01*
X130938076Y-87273370D01*
X130899981Y-87349561D01*
X130861885Y-87387656D01*
X130785695Y-87425751D01*
X130557124Y-87425751D01*
X130480933Y-87387656D01*
X130442838Y-87349561D01*
X129985695Y-84466704D02*
X130099981Y-84504799D01*
X130138076Y-84542894D01*
X130176171Y-84619085D01*
X130176171Y-84733370D01*
X130138076Y-84809561D01*
X130099981Y-84847656D01*
X130023790Y-84885751D01*
X129719028Y-84885751D01*
X129719028Y-84085751D01*
X129985695Y-84085751D01*
X130061885Y-84123847D01*
X130099981Y-84161942D01*
X130138076Y-84238132D01*
X130138076Y-84314323D01*
X130099981Y-84390513D01*
X130061885Y-84428608D01*
X129985695Y-84466704D01*
X129719028Y-84466704D01*
X130938076Y-84885751D02*
X130480933Y-84885751D01*
X130709505Y-84885751D02*
X130709505Y-84085751D01*
X130633314Y-84200037D01*
X130557124Y-84276227D01*
X130480933Y-84314323D01*
X130042838Y-74306704D02*
X129776171Y-74306704D01*
X129776171Y-74725751D02*
X129776171Y-73925751D01*
X130157124Y-73925751D01*
X130804743Y-74192418D02*
X130804743Y-74725751D01*
X130614266Y-73887656D02*
X130423790Y-74459085D01*
X130919028Y-74459085D01*
X129242838Y-71385751D02*
X129509505Y-72185751D01*
X129776171Y-71385751D01*
X130499981Y-72109561D02*
X130461885Y-72147656D01*
X130347600Y-72185751D01*
X130271409Y-72185751D01*
X130157124Y-72147656D01*
X130080933Y-72071466D01*
X130042838Y-71995275D01*
X130004743Y-71842894D01*
X130004743Y-71728608D01*
X130042838Y-71576227D01*
X130080933Y-71500037D01*
X130157124Y-71423847D01*
X130271409Y-71385751D01*
X130347600Y-71385751D01*
X130461885Y-71423847D01*
X130499981Y-71461942D01*
X131299981Y-72109561D02*
X131261885Y-72147656D01*
X131147600Y-72185751D01*
X131071409Y-72185751D01*
X130957124Y-72147656D01*
X130880933Y-72071466D01*
X130842838Y-71995275D01*
X130804743Y-71842894D01*
X130804743Y-71728608D01*
X130842838Y-71576227D01*
X130880933Y-71500037D01*
X130957124Y-71423847D01*
X131071409Y-71385751D01*
X131147600Y-71385751D01*
X131261885Y-71423847D01*
X131299981Y-71461942D01*
X129699981Y-66343847D02*
X129623790Y-66305751D01*
X129509505Y-66305751D01*
X129395219Y-66343847D01*
X129319028Y-66420037D01*
X129280933Y-66496227D01*
X129242838Y-66648608D01*
X129242838Y-66762894D01*
X129280933Y-66915275D01*
X129319028Y-66991466D01*
X129395219Y-67067656D01*
X129509505Y-67105751D01*
X129585695Y-67105751D01*
X129699981Y-67067656D01*
X129738076Y-67029561D01*
X129738076Y-66762894D01*
X129585695Y-66762894D01*
X130080933Y-67105751D02*
X130080933Y-66305751D01*
X130538076Y-67105751D01*
X130538076Y-66305751D01*
X130919028Y-67105751D02*
X130919028Y-66305751D01*
X131109505Y-66305751D01*
X131223790Y-66343847D01*
X131299981Y-66420037D01*
X131338076Y-66496227D01*
X131376171Y-66648608D01*
X131376171Y-66762894D01*
X131338076Y-66915275D01*
X131299981Y-66991466D01*
X131223790Y-67067656D01*
X131109505Y-67105751D01*
X130919028Y-67105751D01*
X129985695Y-64146704D02*
X130099981Y-64184799D01*
X130138076Y-64222894D01*
X130176171Y-64299085D01*
X130176171Y-64413370D01*
X130138076Y-64489561D01*
X130099981Y-64527656D01*
X130023790Y-64565751D01*
X129719028Y-64565751D01*
X129719028Y-63765751D01*
X129985695Y-63765751D01*
X130061885Y-63803847D01*
X130099981Y-63841942D01*
X130138076Y-63918132D01*
X130138076Y-63994323D01*
X130099981Y-64070513D01*
X130061885Y-64108608D01*
X129985695Y-64146704D01*
X129719028Y-64146704D01*
X130671409Y-63765751D02*
X130747600Y-63765751D01*
X130823790Y-63803847D01*
X130861885Y-63841942D01*
X130899981Y-63918132D01*
X130938076Y-64070513D01*
X130938076Y-64260989D01*
X130899981Y-64413370D01*
X130861885Y-64489561D01*
X130823790Y-64527656D01*
X130747600Y-64565751D01*
X130671409Y-64565751D01*
X130595219Y-64527656D01*
X130557124Y-64489561D01*
X130519028Y-64413370D01*
X130480933Y-64260989D01*
X130480933Y-64070513D01*
X130519028Y-63918132D01*
X130557124Y-63841942D01*
X130595219Y-63803847D01*
X130671409Y-63765751D01*
X130042838Y-76846704D02*
X129776171Y-76846704D01*
X129776171Y-77265751D02*
X129776171Y-76465751D01*
X130157124Y-76465751D01*
X130842838Y-76465751D02*
X130461885Y-76465751D01*
X130423790Y-76846704D01*
X130461885Y-76808608D01*
X130538076Y-76770513D01*
X130728552Y-76770513D01*
X130804743Y-76808608D01*
X130842838Y-76846704D01*
X130880933Y-76922894D01*
X130880933Y-77113370D01*
X130842838Y-77189561D01*
X130804743Y-77227656D01*
X130728552Y-77265751D01*
X130538076Y-77265751D01*
X130461885Y-77227656D01*
X130423790Y-77189561D01*
X130042838Y-79386704D02*
X129776171Y-79386704D01*
X129776171Y-79805751D02*
X129776171Y-79005751D01*
X130157124Y-79005751D01*
X130804743Y-79005751D02*
X130652362Y-79005751D01*
X130576171Y-79043847D01*
X130538076Y-79081942D01*
X130461885Y-79196227D01*
X130423790Y-79348608D01*
X130423790Y-79653370D01*
X130461885Y-79729561D01*
X130499981Y-79767656D01*
X130576171Y-79805751D01*
X130728552Y-79805751D01*
X130804743Y-79767656D01*
X130842838Y-79729561D01*
X130880933Y-79653370D01*
X130880933Y-79462894D01*
X130842838Y-79386704D01*
X130804743Y-79348608D01*
X130728552Y-79310513D01*
X130576171Y-79310513D01*
X130499981Y-79348608D01*
X130461885Y-79386704D01*
X130423790Y-79462894D01*
X130042838Y-81926704D02*
X129776171Y-81926704D01*
X129776171Y-82345751D02*
X129776171Y-81545751D01*
X130157124Y-81545751D01*
X130385695Y-81545751D02*
X130919028Y-81545751D01*
X130576171Y-82345751D01*
X129985695Y-89546704D02*
X130099981Y-89584799D01*
X130138076Y-89622894D01*
X130176171Y-89699085D01*
X130176171Y-89813370D01*
X130138076Y-89889561D01*
X130099981Y-89927656D01*
X130023790Y-89965751D01*
X129719028Y-89965751D01*
X129719028Y-89165751D01*
X129985695Y-89165751D01*
X130061885Y-89203847D01*
X130099981Y-89241942D01*
X130138076Y-89318132D01*
X130138076Y-89394323D01*
X130099981Y-89470513D01*
X130061885Y-89508608D01*
X129985695Y-89546704D01*
X129719028Y-89546704D01*
X130480933Y-89241942D02*
X130519028Y-89203847D01*
X130595219Y-89165751D01*
X130785695Y-89165751D01*
X130861885Y-89203847D01*
X130899981Y-89241942D01*
X130938076Y-89318132D01*
X130938076Y-89394323D01*
X130899981Y-89508608D01*
X130442838Y-89965751D01*
X130938076Y-89965751D01*
%TO.C,Brd1*%
X124081839Y-148206416D02*
X124224696Y-148254035D01*
X124272315Y-148301654D01*
X124319934Y-148396892D01*
X124319934Y-148539749D01*
X124272315Y-148634987D01*
X124224696Y-148682606D01*
X124129458Y-148730225D01*
X123748506Y-148730225D01*
X123748506Y-147730225D01*
X124081839Y-147730225D01*
X124177077Y-147777845D01*
X124224696Y-147825464D01*
X124272315Y-147920702D01*
X124272315Y-148015940D01*
X124224696Y-148111178D01*
X124177077Y-148158797D01*
X124081839Y-148206416D01*
X123748506Y-148206416D01*
X124748506Y-148730225D02*
X124748506Y-148063559D01*
X124748506Y-148254035D02*
X124796125Y-148158797D01*
X124843744Y-148111178D01*
X124938982Y-148063559D01*
X125034220Y-148063559D01*
X125796125Y-148730225D02*
X125796125Y-147730225D01*
X125796125Y-148682606D02*
X125700886Y-148730225D01*
X125510410Y-148730225D01*
X125415172Y-148682606D01*
X125367553Y-148634987D01*
X125319934Y-148539749D01*
X125319934Y-148254035D01*
X125367553Y-148158797D01*
X125415172Y-148111178D01*
X125510410Y-148063559D01*
X125700886Y-148063559D01*
X125796125Y-148111178D01*
X126796125Y-148730225D02*
X126224696Y-148730225D01*
X126510410Y-148730225D02*
X126510410Y-147730225D01*
X126415172Y-147873083D01*
X126319934Y-147968321D01*
X126224696Y-148015940D01*
%TO.C,J1*%
X115434218Y-155665179D02*
X116434218Y-155665179D01*
X115481837Y-155665179D02*
X115434218Y-155569941D01*
X115434218Y-155379465D01*
X115481837Y-155284226D01*
X115529456Y-155236607D01*
X115624694Y-155188988D01*
X115910408Y-155188988D01*
X116005646Y-155236607D01*
X116053265Y-155284226D01*
X116100884Y-155379465D01*
X116100884Y-155569941D01*
X116053265Y-155665179D01*
X116100884Y-154760417D02*
X115434218Y-154760417D01*
X115100884Y-154760417D02*
X115148504Y-154808036D01*
X115196123Y-154760417D01*
X115148504Y-154712798D01*
X115100884Y-154760417D01*
X115196123Y-154760417D01*
X116100884Y-154284226D02*
X115434218Y-154284226D01*
X115529456Y-154284226D02*
X115481837Y-154236607D01*
X115434218Y-154141369D01*
X115434218Y-153998512D01*
X115481837Y-153903274D01*
X115577075Y-153855655D01*
X116100884Y-153855655D01*
X115577075Y-153855655D02*
X115481837Y-153808036D01*
X115434218Y-153712798D01*
X115434218Y-153569941D01*
X115481837Y-153474703D01*
X115577075Y-153427084D01*
X116100884Y-153427084D01*
X116100884Y-152808036D02*
X116053265Y-152903274D01*
X116005646Y-152950893D01*
X115910408Y-152998512D01*
X115624694Y-152998512D01*
X115529456Y-152950893D01*
X115481837Y-152903274D01*
X115434218Y-152808036D01*
X115434218Y-152665179D01*
X115481837Y-152569941D01*
X115529456Y-152522322D01*
X115624694Y-152474703D01*
X115910408Y-152474703D01*
X116005646Y-152522322D01*
X116053265Y-152569941D01*
X116100884Y-152665179D01*
X116100884Y-152808036D01*
X116100884Y-152046131D02*
X115434218Y-152046131D01*
X115624694Y-152046131D02*
X115529456Y-151998512D01*
X115481837Y-151950893D01*
X115434218Y-151855655D01*
X115434218Y-151760417D01*
X116100884Y-151284226D02*
X116053265Y-151379465D01*
X116005646Y-151427084D01*
X115910408Y-151474703D01*
X115624694Y-151474703D01*
X115529456Y-151427084D01*
X115481837Y-151379465D01*
X115434218Y-151284226D01*
X115434218Y-151141369D01*
X115481837Y-151046131D01*
X115529456Y-150998512D01*
X115624694Y-150950893D01*
X115910408Y-150950893D01*
X116005646Y-150998512D01*
X116053265Y-151046131D01*
X116100884Y-151141369D01*
X116100884Y-151284226D01*
X115434218Y-150522322D02*
X116100884Y-150522322D01*
X115529456Y-150522322D02*
X115481837Y-150474703D01*
X115434218Y-150379465D01*
X115434218Y-150236607D01*
X115481837Y-150141369D01*
X115577075Y-150093750D01*
X116100884Y-150093750D01*
X116100884Y-149617560D02*
X115434218Y-149617560D01*
X115100884Y-149617560D02*
X115148504Y-149665179D01*
X115196123Y-149617560D01*
X115148504Y-149569941D01*
X115100884Y-149617560D01*
X115196123Y-149617560D01*
X115434218Y-148522322D02*
X115434218Y-148141369D01*
X115100884Y-148379465D02*
X115958027Y-148379465D01*
X116053265Y-148331846D01*
X116100884Y-148236607D01*
X116100884Y-148141369D01*
X116100884Y-147808036D02*
X115434218Y-147808036D01*
X115624694Y-147808036D02*
X115529456Y-147760417D01*
X115481837Y-147712798D01*
X115434218Y-147617560D01*
X115434218Y-147522322D01*
X116100884Y-146760417D02*
X115577075Y-146760417D01*
X115481837Y-146808036D01*
X115434218Y-146903274D01*
X115434218Y-147093750D01*
X115481837Y-147188988D01*
X116053265Y-146760417D02*
X116100884Y-146855655D01*
X116100884Y-147093750D01*
X116053265Y-147188988D01*
X115958027Y-147236607D01*
X115862789Y-147236607D01*
X115767551Y-147188988D01*
X115719932Y-147093750D01*
X115719932Y-146855655D01*
X115672313Y-146760417D01*
X116053265Y-145855655D02*
X116100884Y-145950893D01*
X116100884Y-146141369D01*
X116053265Y-146236607D01*
X116005646Y-146284226D01*
X115910408Y-146331846D01*
X115624694Y-146331846D01*
X115529456Y-146284226D01*
X115481837Y-146236607D01*
X115434218Y-146141369D01*
X115434218Y-145950893D01*
X115481837Y-145855655D01*
X116100884Y-145427084D02*
X115100884Y-145427084D01*
X115719932Y-145331846D02*
X116100884Y-145046131D01*
X115434218Y-145046131D02*
X115815170Y-145427084D01*
X116100884Y-144617560D02*
X115100884Y-144617560D01*
X115481837Y-144617560D02*
X115434218Y-144522322D01*
X115434218Y-144331846D01*
X115481837Y-144236607D01*
X115529456Y-144188988D01*
X115624694Y-144141369D01*
X115910408Y-144141369D01*
X116005646Y-144188988D01*
X116053265Y-144236607D01*
X116100884Y-144331846D01*
X116100884Y-144522322D01*
X116053265Y-144617560D01*
X116100884Y-143284226D02*
X115577075Y-143284226D01*
X115481837Y-143331846D01*
X115434218Y-143427084D01*
X115434218Y-143617560D01*
X115481837Y-143712798D01*
X116053265Y-143284226D02*
X116100884Y-143379465D01*
X116100884Y-143617560D01*
X116053265Y-143712798D01*
X115958027Y-143760417D01*
X115862789Y-143760417D01*
X115767551Y-143712798D01*
X115719932Y-143617560D01*
X115719932Y-143379465D01*
X115672313Y-143284226D01*
X116100884Y-142665179D02*
X116053265Y-142760417D01*
X115958027Y-142808036D01*
X115100884Y-142808036D01*
X116100884Y-142141369D02*
X116053265Y-142236607D01*
X115958027Y-142284226D01*
X115100884Y-142284226D01*
X116100884Y-140998512D02*
X115100884Y-140998512D01*
X115481837Y-140998512D02*
X115434218Y-140903274D01*
X115434218Y-140712798D01*
X115481837Y-140617560D01*
X115529456Y-140569941D01*
X115624694Y-140522322D01*
X115910408Y-140522322D01*
X116005646Y-140569941D01*
X116053265Y-140617560D01*
X116100884Y-140712798D01*
X116100884Y-140903274D01*
X116053265Y-140998512D01*
X116100884Y-140093750D02*
X115434218Y-140093750D01*
X115624694Y-140093750D02*
X115529456Y-140046131D01*
X115481837Y-139998512D01*
X115434218Y-139903274D01*
X115434218Y-139808036D01*
X116053265Y-139093750D02*
X116100884Y-139188988D01*
X116100884Y-139379465D01*
X116053265Y-139474703D01*
X115958027Y-139522322D01*
X115577075Y-139522322D01*
X115481837Y-139474703D01*
X115434218Y-139379465D01*
X115434218Y-139188988D01*
X115481837Y-139093750D01*
X115577075Y-139046131D01*
X115672313Y-139046131D01*
X115767551Y-139522322D01*
X116100884Y-138188988D02*
X115577075Y-138188988D01*
X115481837Y-138236607D01*
X115434218Y-138331846D01*
X115434218Y-138522322D01*
X115481837Y-138617560D01*
X116053265Y-138188988D02*
X116100884Y-138284226D01*
X116100884Y-138522322D01*
X116053265Y-138617560D01*
X115958027Y-138665179D01*
X115862789Y-138665179D01*
X115767551Y-138617560D01*
X115719932Y-138522322D01*
X115719932Y-138284226D01*
X115672313Y-138188988D01*
X116100884Y-137712798D02*
X115100884Y-137712798D01*
X115719932Y-137617560D02*
X116100884Y-137331846D01*
X115434218Y-137331846D02*
X115815170Y-137712798D01*
X116100884Y-136760417D02*
X116053265Y-136855655D01*
X116005646Y-136903274D01*
X115910408Y-136950893D01*
X115624694Y-136950893D01*
X115529456Y-136903274D01*
X115481837Y-136855655D01*
X115434218Y-136760417D01*
X115434218Y-136617560D01*
X115481837Y-136522322D01*
X115529456Y-136474703D01*
X115624694Y-136427084D01*
X115910408Y-136427084D01*
X116005646Y-136474703D01*
X116053265Y-136522322D01*
X116100884Y-136617560D01*
X116100884Y-136760417D01*
X115434218Y-135569941D02*
X116100884Y-135569941D01*
X115434218Y-135998512D02*
X115958027Y-135998512D01*
X116053265Y-135950893D01*
X116100884Y-135855655D01*
X116100884Y-135712798D01*
X116053265Y-135617560D01*
X116005646Y-135569941D01*
X115434218Y-135236607D02*
X115434218Y-134855655D01*
X115100884Y-135093750D02*
X115958027Y-135093750D01*
X116053265Y-135046131D01*
X116100884Y-134950893D01*
X116100884Y-134855655D01*
%TD*%
M02*
