%TF.GenerationSoftware,KiCad,Pcbnew,(5.1.10)-1*%
%TF.CreationDate,2021-12-17T13:46:14-08:00*%
%TF.ProjectId,barobord,6261726f-626f-4726-942e-6b696361645f,rev?*%
%TF.SameCoordinates,Original*%
%TF.FileFunction,Soldermask,Top*%
%TF.FilePolarity,Negative*%
%FSLAX46Y46*%
G04 Gerber Fmt 4.6, Leading zero omitted, Abs format (unit mm)*
G04 Created by KiCad (PCBNEW (5.1.10)-1) date 2021-12-17 13:46:14*
%MOMM*%
%LPD*%
G01*
G04 APERTURE LIST*
%ADD10C,1.701800*%
%ADD11C,3.000000*%
%ADD12C,3.429000*%
%ADD13C,0.990600*%
%ADD14C,3.500000*%
%ADD15C,0.100000*%
%ADD16C,1.752600*%
%ADD17R,1.752600X1.752600*%
%ADD18R,2.000000X2.000000*%
%ADD19C,2.000000*%
%ADD20O,1.600000X2.000000*%
%ADD21O,3.800000X3.300000*%
G04 APERTURE END LIST*
%TO.C,J2*%
G36*
G01*
X62876096Y-107302947D02*
X63374566Y-107535387D01*
G75*
G02*
X63664780Y-108332743I-253571J-543785D01*
G01*
X63664780Y-108332743D01*
G75*
G02*
X62867424Y-108622957I-543785J253571D01*
G01*
X62368954Y-108390517D01*
G75*
G02*
X62078740Y-107593161I253571J543785D01*
G01*
X62078740Y-107593161D01*
G75*
G02*
X62876096Y-107302947I543785J-253571D01*
G01*
G37*
G36*
G01*
X63721332Y-105490332D02*
X64219802Y-105722772D01*
G75*
G02*
X64510016Y-106520128I-253571J-543785D01*
G01*
X64510016Y-106520128D01*
G75*
G02*
X63712660Y-106810342I-543785J253571D01*
G01*
X63214190Y-106577902D01*
G75*
G02*
X62923976Y-105780546I253571J543785D01*
G01*
X62923976Y-105780546D01*
G75*
G02*
X63721332Y-105490332I543785J-253571D01*
G01*
G37*
G36*
G01*
X64249361Y-103529800D02*
X65382247Y-104058073D01*
G75*
G02*
X65503169Y-104390303I-105654J-226576D01*
G01*
X65207335Y-105024720D01*
G75*
G02*
X64875105Y-105145642I-226576J105654D01*
G01*
X63742219Y-104617369D01*
G75*
G02*
X63621297Y-104285139I105654J226576D01*
G01*
X63917131Y-103650722D01*
G75*
G02*
X64249361Y-103529800I226576J-105654D01*
G01*
G37*
%TD*%
D10*
%TO.C,SW40*%
X212071856Y-94803991D03*
X222041242Y-90155191D03*
D11*
X214109829Y-97991337D03*
D12*
X217056549Y-92479591D03*
D11*
X219571128Y-97872122D03*
D13*
X220012479Y-86467031D03*
%TD*%
D10*
%TO.C,SW39*%
X192738920Y-98302195D03*
X202708306Y-93653395D03*
D11*
X194776893Y-101489541D03*
D12*
X197723613Y-95977795D03*
D11*
X200238192Y-101370326D03*
D13*
X200679543Y-89965235D03*
%TD*%
D10*
%TO.C,SW38*%
X183971431Y-124458099D03*
X193940817Y-119809299D03*
D11*
X186009404Y-127645445D03*
D12*
X188956124Y-122133699D03*
D11*
X191470703Y-127526230D03*
D13*
X191912054Y-116121139D03*
%TD*%
D10*
%TO.C,SW37*%
X166264258Y-135788369D03*
X175274930Y-129479029D03*
D11*
X168824745Y-138573401D03*
D12*
X170769594Y-132633699D03*
D11*
X174182374Y-137507654D03*
D13*
X172636547Y-126199191D03*
%TD*%
D10*
%TO.C,SW36*%
X150793577Y-150021329D03*
X158571751Y-142243155D03*
D11*
X153798781Y-152319426D03*
D12*
X154682664Y-146132242D03*
D11*
X158889949Y-150339527D03*
D13*
X155403913Y-139471296D03*
%TD*%
D10*
%TO.C,SW35*%
X91120077Y-142243152D03*
X98898251Y-150021326D03*
D11*
X88821980Y-145248356D03*
D12*
X95009164Y-146132239D03*
D11*
X90801879Y-150339524D03*
D13*
X101670110Y-146853488D03*
%TD*%
D10*
%TO.C,SW34*%
X74416892Y-129479030D03*
X83427564Y-135788370D03*
D11*
X72675556Y-132837638D03*
D12*
X78922228Y-132633700D03*
D11*
X75509448Y-137507655D03*
D13*
X85607223Y-132187330D03*
%TD*%
D10*
%TO.C,SW33*%
X55751001Y-119809302D03*
X65720387Y-124458102D03*
D11*
X54619337Y-123419265D03*
D12*
X60735694Y-122133702D03*
D11*
X58221115Y-127526233D03*
D13*
X67241617Y-120533277D03*
%TD*%
D10*
%TO.C,SW32*%
X46983521Y-93653399D03*
X56952907Y-98302199D03*
D11*
X45851857Y-97263362D03*
D12*
X51968214Y-95977799D03*
D11*
X49453635Y-101370330D03*
D13*
X58474137Y-94377374D03*
%TD*%
D10*
%TO.C,SW31*%
X27650583Y-90155191D03*
X37619969Y-94803991D03*
D11*
X26518919Y-93765154D03*
D12*
X32635276Y-92479591D03*
D11*
X30120697Y-97872122D03*
D13*
X39141199Y-90879166D03*
%TD*%
D10*
%TO.C,SW30*%
X226544682Y-80883243D03*
X236514068Y-76234443D03*
D11*
X228582655Y-84070589D03*
D12*
X231529375Y-78558843D03*
D11*
X234043954Y-83951374D03*
D13*
X234485305Y-72546283D03*
%TD*%
D10*
%TO.C,SW29*%
X204042109Y-77584144D03*
X214011495Y-72935344D03*
D11*
X206080082Y-80771490D03*
D12*
X209026802Y-75259744D03*
D11*
X211541381Y-80652275D03*
D13*
X211982732Y-69247184D03*
%TD*%
D10*
%TO.C,SW28*%
X184709171Y-81082354D03*
X194678557Y-76433554D03*
D11*
X186747144Y-84269700D03*
D12*
X189693864Y-78757954D03*
D11*
X192208443Y-84150485D03*
D13*
X192649794Y-72745394D03*
%TD*%
D10*
%TO.C,SW27*%
X169602414Y-93643636D03*
X179571800Y-88994836D03*
D11*
X171640387Y-96830982D03*
D12*
X174587107Y-91319236D03*
D11*
X177101686Y-96711767D03*
D13*
X177543037Y-85306676D03*
%TD*%
D10*
%TO.C,SW26*%
X153439111Y-103939155D03*
X163408497Y-99290355D03*
D11*
X155477084Y-107126501D03*
D12*
X158423804Y-101614755D03*
D11*
X160938383Y-107007286D03*
D13*
X161379734Y-95602195D03*
%TD*%
D10*
%TO.C,SW25*%
X86283327Y-99290354D03*
X96252713Y-103939154D03*
D11*
X85151663Y-102900317D03*
D12*
X91268020Y-101614754D03*
D11*
X88753441Y-107007285D03*
D13*
X97773943Y-100014329D03*
%TD*%
D10*
%TO.C,SW24*%
X70120023Y-88994837D03*
X80089409Y-93643637D03*
D11*
X68988359Y-92604800D03*
D12*
X75104716Y-91319237D03*
D11*
X72590137Y-96711768D03*
D13*
X81610639Y-89718812D03*
%TD*%
D10*
%TO.C,SW23*%
X55013268Y-76433550D03*
X64982654Y-81082350D03*
D11*
X53881604Y-80043513D03*
D12*
X59997961Y-78757950D03*
D11*
X57483382Y-84150481D03*
D13*
X66503884Y-77157525D03*
%TD*%
D10*
%TO.C,SW22*%
X35680331Y-72935345D03*
X45649717Y-77584145D03*
D11*
X34548667Y-76545308D03*
D12*
X40665024Y-75259745D03*
D11*
X38150445Y-80652276D03*
D13*
X47170947Y-73659320D03*
%TD*%
D10*
%TO.C,SW21*%
X13177752Y-76234444D03*
X23147138Y-80883244D03*
D11*
X12046088Y-79844407D03*
D12*
X18162445Y-78558844D03*
D11*
X15647866Y-83951375D03*
D13*
X24668368Y-76958419D03*
%TD*%
D10*
%TO.C,SW20*%
X218514935Y-63663396D03*
X228484321Y-59014596D03*
D11*
X220552908Y-66850742D03*
D12*
X223499628Y-61338996D03*
D11*
X226014207Y-66731527D03*
D13*
X226455558Y-55326436D03*
%TD*%
D10*
%TO.C,SW19*%
X196012363Y-60364295D03*
X205981749Y-55715495D03*
D11*
X198050336Y-63551641D03*
D12*
X200997056Y-58039895D03*
D11*
X203511635Y-63432426D03*
D13*
X203952986Y-52027335D03*
%TD*%
D10*
%TO.C,SW18*%
X176679421Y-63862505D03*
X186648807Y-59213705D03*
D11*
X178717394Y-67049851D03*
D12*
X181664114Y-61538105D03*
D11*
X184178693Y-66930636D03*
D13*
X184620044Y-55525545D03*
%TD*%
D10*
%TO.C,SW17*%
X161572669Y-76423791D03*
X171542055Y-71774991D03*
D11*
X163610642Y-79611137D03*
D12*
X166557362Y-74099391D03*
D11*
X169071941Y-79491922D03*
D13*
X169513292Y-68086831D03*
%TD*%
D10*
%TO.C,SW16*%
X145409362Y-86719308D03*
X155378748Y-82070508D03*
D11*
X147447335Y-89906654D03*
D12*
X150394055Y-84394908D03*
D11*
X152908634Y-89787439D03*
D13*
X153349985Y-78382348D03*
%TD*%
D10*
%TO.C,SW15*%
X94313074Y-82070510D03*
X104282460Y-86719310D03*
D11*
X93181410Y-85680473D03*
D12*
X99297767Y-84394910D03*
D11*
X96783188Y-89787441D03*
D13*
X105803690Y-82794485D03*
%TD*%
D10*
%TO.C,SW14*%
X78149770Y-71774991D03*
X88119156Y-76423791D03*
D11*
X77018106Y-75384954D03*
D12*
X83134463Y-74099391D03*
D11*
X80619884Y-79491922D03*
D13*
X89640386Y-72498966D03*
%TD*%
D10*
%TO.C,SW13*%
X63043015Y-59213706D03*
X73012401Y-63862506D03*
D11*
X61911351Y-62823669D03*
D12*
X68027708Y-61538106D03*
D11*
X65513129Y-66930637D03*
D13*
X74533631Y-59937681D03*
%TD*%
D10*
%TO.C,SW12*%
X43710077Y-55715496D03*
X53679463Y-60364296D03*
D11*
X42578413Y-59325459D03*
D12*
X48694770Y-58039896D03*
D11*
X46180191Y-63432427D03*
D13*
X55200693Y-56439471D03*
%TD*%
D10*
%TO.C,SW11*%
X21207503Y-59014596D03*
X31176889Y-63663396D03*
D11*
X20075839Y-62624559D03*
D12*
X26192196Y-61338996D03*
D11*
X23677617Y-66731527D03*
D13*
X32698119Y-59738571D03*
%TD*%
D10*
%TO.C,SW10*%
X210485189Y-46443549D03*
X220454575Y-41794749D03*
D11*
X212523162Y-49630895D03*
D12*
X215469882Y-44119149D03*
D11*
X217984461Y-49511680D03*
D13*
X218425812Y-38106589D03*
%TD*%
D10*
%TO.C,SW9*%
X187982614Y-43144450D03*
X197952000Y-38495650D03*
D11*
X190020587Y-46331796D03*
D12*
X192967307Y-40820050D03*
D11*
X195481886Y-46212581D03*
D13*
X195923237Y-34807490D03*
%TD*%
D10*
%TO.C,SW8*%
X168649677Y-46642660D03*
X178619063Y-41993860D03*
D11*
X170687650Y-49830006D03*
D12*
X173634370Y-44318260D03*
D11*
X176148949Y-49710791D03*
D13*
X176590300Y-38305700D03*
%TD*%
D10*
%TO.C,SW7*%
X153542922Y-59203943D03*
X163512308Y-54555143D03*
D11*
X155580895Y-62391289D03*
D12*
X158527615Y-56879543D03*
D11*
X161042194Y-62272074D03*
D13*
X161483545Y-50866983D03*
%TD*%
D10*
%TO.C,SW6*%
X137379616Y-69499456D03*
X147349002Y-64850656D03*
D11*
X139417589Y-72686802D03*
D12*
X142364309Y-67175056D03*
D11*
X144878888Y-72567587D03*
D13*
X145320239Y-61162496D03*
%TD*%
D10*
%TO.C,SW5*%
X102342818Y-64850660D03*
X112312204Y-69499460D03*
D11*
X101211154Y-68460623D03*
D12*
X107327511Y-67175060D03*
D11*
X104812932Y-72567591D03*
D13*
X113833434Y-65574635D03*
%TD*%
D10*
%TO.C,SW4*%
X86179517Y-54555142D03*
X96148903Y-59203942D03*
D11*
X85047853Y-58165105D03*
D12*
X91164210Y-56879542D03*
D11*
X88649631Y-62272073D03*
D13*
X97670133Y-55279117D03*
%TD*%
D10*
%TO.C,SW3*%
X71072761Y-41993858D03*
X81042147Y-46642658D03*
D11*
X69941097Y-45603821D03*
D12*
X76057454Y-44318258D03*
D11*
X73542875Y-49710789D03*
D13*
X82563377Y-42717833D03*
%TD*%
D10*
%TO.C,SW2*%
X51739824Y-38495651D03*
X61709210Y-43144451D03*
D11*
X50608160Y-42105614D03*
D12*
X56724517Y-40820051D03*
D11*
X54209938Y-46212582D03*
D13*
X63230440Y-39219626D03*
%TD*%
D10*
%TO.C,SW1*%
X29237247Y-41794750D03*
X39206633Y-46443550D03*
D11*
X28105583Y-45404713D03*
D12*
X34221940Y-44119150D03*
D11*
X31707361Y-49511681D03*
D13*
X40727863Y-42518725D03*
%TD*%
D14*
%TO.C,*%
X177846126Y-123733700D03*
%TD*%
%TO.C,*%
X219649378Y-74128842D03*
%TD*%
%TO.C,*%
X203649882Y-39529151D03*
%TD*%
%TO.C,*%
X157444059Y-76934905D03*
%TD*%
%TO.C,*%
X146452660Y-158332242D03*
%TD*%
%TO.C,*%
X102049162Y-158732239D03*
%TD*%
%TO.C,*%
X72445696Y-122133699D03*
%TD*%
%TO.C,*%
X92647765Y-76334905D03*
%TD*%
%TO.C,*%
X27652448Y-80928845D03*
%TD*%
%TO.C,*%
X44451941Y-45729150D03*
%TD*%
%TO.C,SW46*%
G36*
G01*
X97990343Y-50294437D02*
X98539747Y-49116237D01*
G75*
G02*
X100001566Y-48584178I996939J-464880D01*
G01*
X100001566Y-48584178D01*
G75*
G02*
X100533625Y-50045997I-464880J-996939D01*
G01*
X99984221Y-51224197D01*
G75*
G02*
X98522402Y-51756256I-996939J464880D01*
G01*
X98522402Y-51756256D01*
G75*
G02*
X97990343Y-50294437I464880J996939D01*
G01*
G37*
G36*
G01*
X90558619Y-46828968D02*
X91108023Y-45650768D01*
G75*
G02*
X92569842Y-45118709I996939J-464880D01*
G01*
X92569842Y-45118709D01*
G75*
G02*
X93101901Y-46580528I-464880J-996939D01*
G01*
X92552497Y-47758728D01*
G75*
G02*
X91090678Y-48290787I-996939J464880D01*
G01*
X91090678Y-48290787D01*
G75*
G02*
X90558619Y-46828968I464880J996939D01*
G01*
G37*
G36*
G01*
X96467697Y-49418909D02*
X96890315Y-48512601D01*
G75*
G02*
X97887010Y-48149834I679731J-316964D01*
G01*
X97887010Y-48149834D01*
G75*
G02*
X98249777Y-49146529I-316964J-679731D01*
G01*
X97827159Y-50052837D01*
G75*
G02*
X96830464Y-50415604I-679731J316964D01*
G01*
X96830464Y-50415604D01*
G75*
G02*
X96467697Y-49418909I316964J679731D01*
G01*
G37*
G36*
G01*
X94655082Y-48573673D02*
X95077700Y-47667365D01*
G75*
G02*
X96074395Y-47304598I679731J-316964D01*
G01*
X96074395Y-47304598D01*
G75*
G02*
X96437162Y-48301293I-316964J-679731D01*
G01*
X96014544Y-49207601D01*
G75*
G02*
X95017849Y-49570368I-679731J316964D01*
G01*
X95017849Y-49570368D01*
G75*
G02*
X94655082Y-48573673I316964J679731D01*
G01*
G37*
D15*
G36*
X92525502Y-48408167D02*
G01*
X93582048Y-46142398D01*
X94941510Y-46776325D01*
X93884964Y-49042094D01*
X92525502Y-48408167D01*
G37*
%TD*%
D16*
%TO.C,U2*%
X117228505Y-64203847D03*
X117228505Y-66743847D03*
X117228505Y-69283847D03*
X117228505Y-71823847D03*
X117228505Y-74363847D03*
X117228505Y-76903847D03*
X117228505Y-79443847D03*
X117228505Y-81983847D03*
X117228505Y-84523847D03*
X117228505Y-87063847D03*
X117228505Y-89603847D03*
X132468505Y-92143847D03*
X132468505Y-89603847D03*
X132468505Y-87063847D03*
X132468505Y-84523847D03*
X132468505Y-81983847D03*
X132468505Y-79443847D03*
X132468505Y-76903847D03*
X132468505Y-74363847D03*
X132468505Y-71823847D03*
X132468505Y-69283847D03*
X132468505Y-66743847D03*
X117228505Y-92143847D03*
X132468505Y-64203847D03*
X119768505Y-87063847D03*
X122308505Y-87063847D03*
X124848505Y-87063847D03*
%TD*%
%TO.C,U1*%
X119768505Y-92143847D03*
X122308505Y-92143847D03*
X124848505Y-92143847D03*
X127388505Y-92143847D03*
X129928505Y-92143847D03*
X132468505Y-64203847D03*
X117457105Y-92143847D03*
X132468505Y-66743847D03*
X132468505Y-69283847D03*
X132468505Y-71823847D03*
X132468505Y-74363847D03*
X132468505Y-76903847D03*
X132468505Y-79443847D03*
X132468505Y-81983847D03*
X132468505Y-84523847D03*
X132468505Y-87063847D03*
X132468505Y-89603847D03*
X132468505Y-92143847D03*
X117228505Y-89603847D03*
X117228505Y-87063847D03*
X117228505Y-84523847D03*
X117228505Y-81983847D03*
X117228505Y-79443847D03*
X117228505Y-76903847D03*
X117228505Y-74363847D03*
X117228505Y-71823847D03*
X117228505Y-69283847D03*
X117228505Y-66743847D03*
D17*
X117228505Y-64203847D03*
%TD*%
D18*
%TO.C,SW43*%
X129348507Y-122431846D03*
D19*
X129348507Y-124931846D03*
X129348507Y-127431846D03*
X143848507Y-122431846D03*
X143848507Y-127431846D03*
%TD*%
D18*
%TO.C,SW42*%
X120348504Y-127431847D03*
D19*
X120348504Y-124931847D03*
X120348504Y-122431847D03*
X105848504Y-127431847D03*
X105848504Y-122431847D03*
%TD*%
D20*
%TO.C,Brd1*%
X126328506Y-159131845D03*
X128868506Y-159131845D03*
X123788506Y-159131845D03*
X121248506Y-159131845D03*
%TD*%
D21*
%TO.C,J1*%
X119348504Y-135531846D03*
X130348504Y-135531846D03*
X130348504Y-155131846D03*
X119348504Y-155131846D03*
G36*
G01*
X112124504Y-139826846D02*
X112124504Y-140676846D01*
G75*
G02*
X111699504Y-141101846I-425000J0D01*
G01*
X110349504Y-141101846D01*
G75*
G02*
X109924504Y-140676846I0J425000D01*
G01*
X109924504Y-139826846D01*
G75*
G02*
X110349504Y-139401846I425000J0D01*
G01*
X111699504Y-139401846D01*
G75*
G02*
X112124504Y-139826846I0J-425000D01*
G01*
G37*
G36*
G01*
X111699504Y-143641846D02*
X110349504Y-143641846D01*
G75*
G02*
X109924504Y-143216846I0J425000D01*
G01*
X109924504Y-142366846D01*
G75*
G02*
X110349504Y-141941846I425000J0D01*
G01*
X111699504Y-141941846D01*
G75*
G02*
X112124504Y-142366846I0J-425000D01*
G01*
X112124504Y-143216846D01*
G75*
G02*
X111699504Y-143641846I-425000J0D01*
G01*
G37*
G36*
G01*
X111699504Y-146181846D02*
X110349504Y-146181846D01*
G75*
G02*
X109924504Y-145756846I0J425000D01*
G01*
X109924504Y-144906846D01*
G75*
G02*
X110349504Y-144481846I425000J0D01*
G01*
X111699504Y-144481846D01*
G75*
G02*
X112124504Y-144906846I0J-425000D01*
G01*
X112124504Y-145756846D01*
G75*
G02*
X111699504Y-146181846I-425000J0D01*
G01*
G37*
G36*
G01*
X111699504Y-148721846D02*
X110349504Y-148721846D01*
G75*
G02*
X109924504Y-148296846I0J425000D01*
G01*
X109924504Y-147446846D01*
G75*
G02*
X110349504Y-147021846I425000J0D01*
G01*
X111699504Y-147021846D01*
G75*
G02*
X112124504Y-147446846I0J-425000D01*
G01*
X112124504Y-148296846D01*
G75*
G02*
X111699504Y-148721846I-425000J0D01*
G01*
G37*
G36*
G01*
X111699504Y-151261846D02*
X110349504Y-151261846D01*
G75*
G02*
X109924504Y-150836846I0J425000D01*
G01*
X109924504Y-149986846D01*
G75*
G02*
X110349504Y-149561846I425000J0D01*
G01*
X111699504Y-149561846D01*
G75*
G02*
X112124504Y-149986846I0J-425000D01*
G01*
X112124504Y-150836846D01*
G75*
G02*
X111699504Y-151261846I-425000J0D01*
G01*
G37*
%TD*%
M02*
