M48
; DRILL file {KiCad (5.1.9)-1} date 12/09/21 21:31:56
; FORMAT={-:-/ absolute / inch / decimal}
; #@! TF.CreationDate,2021-12-09T21:31:56-08:00
; #@! TF.GenerationSoftware,Kicad,Pcbnew,(5.1.9)-1
; #@! TF.FileFunction,NonPlated,1,2,NPTH
FMAT,2
INCH
T1C0.0390
T2C0.0630
T3C0.0670
T4C0.1181
T5C0.1350
T6C0.1378
%
G90
G05
T1
X1.442Y-3.0103
X1.7581Y-2.3323
X2.0118Y-3.5583
X2.0742Y-1.6544
X2.3279Y-2.8804
X2.644Y-2.2024
X2.7729Y-3.696
X2.9602Y-1.5245
X3.089Y-3.0181
X3.1181Y-4.7258
X3.4052Y-2.3402
X3.6838Y-3.5126
X3.7213Y-1.6622
X3.8411Y-5.1846
X3.9999Y-2.8347
X4.3161Y-2.1567
X4.3201Y-3.918
X4.4735Y-5.762
X4.6363Y-3.24
X4.9524Y-2.5621
X6.192Y-2.3884
X6.5082Y-3.0663
X6.589Y-5.4714
X6.8243Y-3.7443
X6.8284Y-1.983
X7.1445Y-2.661
X7.2675Y-4.9489
X7.4232Y-1.4885
X7.4607Y-3.3389
X7.7393Y-2.1664
X8.0264Y-4.5521
X8.0554Y-2.8444
X8.1843Y-1.3508
X8.3715Y-3.5223
X8.5004Y-2.0287
X8.8166Y-2.7067
X9.0702Y-1.4807
X9.1327Y-3.3846
X9.3864Y-2.1586
X9.7025Y-2.8366
T2
X5.1739Y-5.1293
X6.103Y-5.1293
T3
X0.9896Y-2.9818
X1.3057Y-2.3038
X1.3821Y-3.1648
X1.5594Y-3.5298
X1.6219Y-1.6259
X1.6982Y-2.4868
X1.8755Y-2.8519
X1.9519Y-3.7128
X2.0143Y-1.8089
X2.1916Y-2.1739
X2.268Y-3.0349
X2.3205Y-3.6675
X2.5078Y-1.496
X2.5841Y-2.357
X2.6367Y-2.9896
X2.6657Y-4.6973
X2.713Y-3.8506
X2.9003Y-1.679
X2.9528Y-2.3117
X3.0292Y-3.1726
X3.0582Y-4.8803
X3.2314Y-3.4841
X3.2689Y-1.6337
X3.3453Y-2.4947
X3.4006Y-5.078
X3.5475Y-2.8062
X3.6239Y-3.6672
X3.6614Y-1.8167
X3.7553Y-5.3264
X3.8637Y-2.1282
X3.8678Y-3.8895
X3.94Y-2.9892
X4.0582Y-5.5805
X4.1839Y-3.2115
X4.2562Y-2.3113
X4.2603Y-4.0725
X4.3644Y-5.8868
X4.5Y-2.5336
X4.5764Y-3.3946
X4.8925Y-2.7166
X5.8794Y-2.7166
X6.1956Y-3.3946
X6.2719Y-2.5336
X6.4075Y-5.8868
X6.5117Y-4.0725
X6.5158Y-2.3113
X6.5881Y-3.2115
X6.7138Y-5.5805
X6.8319Y-2.9892
X6.9042Y-3.8895
X6.9083Y-2.1282
X7.0166Y-5.3264
X7.1105Y-1.8167
X7.148Y-3.6672
X7.2244Y-2.8062
X7.3714Y-5.078
X7.4267Y-2.4947
X7.503Y-1.6337
X7.5405Y-3.4841
X7.7137Y-4.8803
X7.7428Y-3.1726
X7.8192Y-2.3117
X7.8717Y-1.679
X8.0589Y-3.8506
X8.1062Y-4.6973
X8.1353Y-2.9896
X8.1878Y-2.357
X8.2642Y-1.496
X8.4514Y-3.6675
X8.5039Y-3.0349
X8.5803Y-2.1739
X8.7576Y-1.8089
X8.8201Y-3.7128
X8.8964Y-2.8519
X9.0737Y-2.4868
X9.1501Y-1.6259
X9.2126Y-3.5298
X9.3899Y-3.1648
X9.4662Y-2.3038
X9.7824Y-2.9818
T4
X0.945Y-3.1239
X1.0868Y-3.2856
X1.2612Y-2.4459
X1.403Y-2.6076
X1.5148Y-3.6719
X1.5773Y-1.768
X1.6566Y-3.8336
X1.7191Y-1.9297
X1.831Y-2.994
X1.9728Y-3.1557
X2.1471Y-2.3161
X2.276Y-3.8097
X2.2889Y-2.4777
X2.4178Y-3.9714
X2.4632Y-1.6381
X2.5921Y-3.1317
X2.605Y-1.7998
X2.6211Y-4.8394
X2.7339Y-3.2934
X2.7629Y-5.0011
X2.9082Y-2.4538
X3.05Y-2.6155
X3.1869Y-3.6263
X3.2244Y-1.7758
X3.3287Y-3.788
X3.332Y-5.2102
X3.3662Y-1.9375
X3.4436Y-5.3941
X3.503Y-2.9483
X3.6448Y-3.11
X3.8191Y-2.2704
X3.8232Y-4.0316
X3.9609Y-2.4321
X3.965Y-4.1933
X3.9677Y-5.6988
X4.0457Y-5.8993
X4.1393Y-3.3537
X4.2811Y-3.5153
X4.4555Y-2.6757
X4.5973Y-2.8374
X5.9597Y-2.8421
X6.1747Y-2.8374
X6.2758Y-3.52
X6.4908Y-3.5153
X6.5258Y-5.9772
X6.5919Y-4.198
X6.596Y-2.4368
X6.7263Y-5.8993
X6.8069Y-4.1933
X6.811Y-2.4321
X6.9121Y-3.1147
X7.1174Y-5.4361
X7.1272Y-3.11
X7.1908Y-1.9422
X7.2283Y-3.7926
X7.3284Y-5.3941
X7.4058Y-1.9375
X7.4433Y-3.788
X7.5069Y-2.6202
X7.7219Y-2.6155
X7.794Y-5.0058
X7.823Y-3.2981
X7.9519Y-1.8045
X8.009Y-5.0011
X8.038Y-3.2934
X8.1392Y-3.9761
X8.1669Y-1.7998
X8.268Y-2.4824
X8.3542Y-3.9714
X8.483Y-2.4777
X8.5842Y-3.1604
X8.7992Y-3.1557
X8.8378Y-1.9344
X8.9003Y-3.8383
X9.0528Y-1.9297
X9.1153Y-3.8336
X9.154Y-2.6123
X9.369Y-2.6076
X9.4701Y-3.2903
X9.6851Y-3.2856
T5
X1.1858Y-3.0733
X1.502Y-2.3953
X1.7556Y-3.6213
X1.8181Y-1.7174
X2.0718Y-2.9434
X2.3879Y-2.2654
X2.5168Y-3.7591
X2.704Y-1.5875
X2.8329Y-3.0811
X2.8619Y-4.7888
X3.149Y-2.4032
X3.4277Y-3.5757
X3.4652Y-1.7252
X3.578Y-5.2022
X3.7438Y-2.8977
X4.0599Y-2.2198
X4.064Y-3.981
X4.2113Y-5.7336
X4.3801Y-3.303
X4.6963Y-2.6251
X6.0757Y-2.6251
X6.3918Y-3.303
X6.5606Y-5.7336
X6.7079Y-3.981
X6.712Y-2.2198
X7.0282Y-2.8977
X7.194Y-5.2022
X7.3068Y-1.7252
X7.3443Y-3.5757
X7.6229Y-2.4032
X7.91Y-4.7888
X7.939Y-3.0811
X8.0679Y-1.5875
X8.2552Y-3.7591
X8.384Y-2.2654
X8.7002Y-2.9434
X8.9538Y-1.7174
X9.0163Y-3.6213
X9.27Y-2.3953
X9.5861Y-3.0733
T6
X1.5595Y-3.1666
X2.2209Y-1.7808
X3.323Y-4.7888
X4.1183Y-2.9857
X4.4885Y-6.2297
X6.2366Y-6.214
X6.6694Y-3.0093
X7.4726Y-4.8518
X8.4885Y-1.5367
X9.1184Y-2.8989
T0
M30
