%TF.GenerationSoftware,KiCad,Pcbnew,(5.1.9)-1*%
%TF.CreationDate,2021-12-09T21:31:54-08:00*%
%TF.ProjectId,barobord,6261726f-626f-4726-942e-6b696361645f,rev?*%
%TF.SameCoordinates,Original*%
%TF.FileFunction,Legend,Top*%
%TF.FilePolarity,Positive*%
%FSLAX46Y46*%
G04 Gerber Fmt 4.6, Leading zero omitted, Abs format (unit mm)*
G04 Created by KiCad (PCBNEW (5.1.9)-1) date 2021-12-09 21:31:54*
%MOMM*%
%LPD*%
G01*
G04 APERTURE LIST*
%ADD10C,0.080000*%
%ADD11C,0.150000*%
%ADD12C,0.381000*%
%ADD13C,0.120000*%
%ADD14C,0.300000*%
G04 APERTURE END LIST*
D10*
X158551135Y-110396823D02*
X158719807Y-110305625D01*
X158404512Y-125812848D02*
X158283517Y-125666225D01*
X167537441Y-120046713D02*
X167459340Y-120468814D01*
X160098951Y-124118545D02*
X160098948Y-112212323D01*
X158134551Y-111019623D02*
X158192291Y-110833122D01*
X177521570Y-125933838D02*
X177352971Y-126025065D01*
X177958370Y-125160760D02*
X177938172Y-125311104D01*
X175973969Y-112212323D02*
X175973971Y-124118545D01*
X159056597Y-110227924D02*
X159106760Y-110227922D01*
X176966170Y-110227926D02*
X177016171Y-110227924D01*
X158114571Y-125160762D02*
X158114571Y-125110737D01*
X159106760Y-110227922D02*
X176966170Y-110227926D01*
X158134551Y-125311103D02*
X158114571Y-125160762D01*
X158192291Y-110833122D02*
X158283518Y-110664526D01*
X158551133Y-125933838D02*
X158404512Y-125812848D01*
X177166471Y-126082805D02*
X177016171Y-126102922D01*
X167459340Y-120468814D02*
X167443741Y-120521594D01*
X159106759Y-126102924D02*
X159056596Y-126102924D01*
X158906252Y-110247925D02*
X159056597Y-110227924D01*
X158114569Y-111169925D02*
X158134551Y-111019623D01*
X158114571Y-125110737D02*
X158114571Y-111220125D01*
X177880470Y-125497550D02*
X177789271Y-125666224D01*
X177352970Y-110305624D02*
X177521569Y-110396825D01*
X158719806Y-126025066D02*
X158551133Y-125933838D01*
X177938172Y-125311104D02*
X177880470Y-125497550D01*
X177938170Y-111019623D02*
X177958370Y-111169923D01*
X177016171Y-126102922D02*
X176966171Y-126102923D01*
X158283517Y-125666225D02*
X158192291Y-125497550D01*
X177789269Y-110664525D02*
X177880470Y-110833124D01*
X177016171Y-110227924D02*
X177166472Y-110247925D01*
X177166472Y-110247925D02*
X177352970Y-110305624D01*
X158114571Y-111220125D02*
X158114569Y-111169925D01*
X159056596Y-126102924D02*
X158906256Y-126082805D01*
X177789271Y-125666224D02*
X177668272Y-125812848D01*
X176966171Y-126102923D02*
X159106759Y-126102924D01*
X175973971Y-124118545D02*
X160098951Y-124118545D01*
X177958370Y-111169923D02*
X177958370Y-111220124D01*
X177958370Y-125110735D02*
X177958370Y-125160760D01*
X177668272Y-110517823D02*
X177789269Y-110664525D01*
X177880470Y-110833124D02*
X177938170Y-111019623D01*
X158906256Y-126082805D02*
X158719806Y-126025066D01*
X177668272Y-125812848D02*
X177521570Y-125933838D01*
X177958370Y-111220124D02*
X177958370Y-125110735D01*
X158283518Y-110664526D02*
X158404510Y-110517825D01*
X158719807Y-110305625D02*
X158906252Y-110247925D01*
X177521569Y-110396825D02*
X177668272Y-110517823D01*
X167428041Y-120574226D02*
X167203291Y-121062755D01*
X160098948Y-112212323D02*
X175973969Y-112212323D01*
X158192291Y-125497550D02*
X158134551Y-125311103D01*
X177352971Y-126025065D02*
X177166471Y-126082805D01*
X167443741Y-120521594D02*
X167428041Y-120574226D01*
X158404510Y-110517825D02*
X158551135Y-110396823D01*
X167537440Y-119888536D02*
X167537441Y-120046713D01*
X165682362Y-118805644D02*
X165562872Y-118743804D01*
X165825939Y-118909713D02*
X165682362Y-118805644D01*
X165952021Y-119040203D02*
X165825939Y-118909713D01*
X166036371Y-119155955D02*
X165952021Y-119040203D01*
X166079480Y-116546243D02*
X166107462Y-116345166D01*
X166060471Y-119197012D02*
X166036371Y-119155955D01*
X165856809Y-117003443D02*
X165995980Y-116788075D01*
X166271460Y-119818785D02*
X166218688Y-119539744D01*
X165661931Y-117192534D02*
X165714850Y-117150624D01*
X165714850Y-117150624D02*
X165856809Y-117003443D01*
X166095599Y-119251592D02*
X166060471Y-119197012D01*
X166271460Y-119911955D02*
X166271460Y-119818785D01*
X165995980Y-116788075D02*
X166079480Y-116546243D01*
X165634520Y-117214014D02*
X165661931Y-117192534D01*
X166107462Y-116345166D02*
X166107461Y-116278205D01*
X165500711Y-117300834D02*
X165634520Y-117214014D01*
X165499759Y-118720234D02*
X165401090Y-118692795D01*
X165521250Y-118728073D02*
X165499759Y-118720234D01*
X165562872Y-118743804D02*
X165521250Y-118728073D01*
X166218688Y-119539744D02*
X166095599Y-119251592D01*
X163434780Y-117403494D02*
X164923461Y-117403495D01*
X166107461Y-116190965D02*
X166053870Y-115929424D01*
X165693219Y-122053145D02*
X165300480Y-122092264D01*
X166796080Y-118329395D02*
X167142790Y-118683025D01*
X166376200Y-117915865D02*
X166248040Y-117989605D01*
X167349900Y-116117654D02*
X167349901Y-116219505D01*
X166236329Y-121918383D02*
X166034148Y-121980786D01*
X166037040Y-114391026D02*
X166103471Y-114416324D01*
X165169700Y-114238526D02*
X165282452Y-114238525D01*
X162192191Y-114238525D02*
X165169700Y-114238526D01*
X166814530Y-121553046D02*
X166775550Y-121588183D01*
X167074417Y-117230564D02*
X166730073Y-117641475D01*
X167281010Y-116756505D02*
X167074417Y-117230564D01*
X166318310Y-121885143D02*
X166271462Y-121904722D01*
X165345419Y-117368353D02*
X165370791Y-117360525D01*
X167349901Y-116353736D02*
X167281010Y-116756505D01*
X166730073Y-117641475D02*
X166376200Y-117915865D01*
X167203291Y-121062755D02*
X167174079Y-121107664D01*
X163434781Y-115481124D02*
X163434780Y-117403494D01*
X165319920Y-117374144D02*
X165345419Y-117368353D01*
X165163631Y-117394673D02*
X165319920Y-117374144D01*
X165300480Y-122092264D02*
X165169701Y-122092266D01*
X167197501Y-118763203D02*
X167254129Y-118843284D01*
X164983402Y-117403495D02*
X165163631Y-117394673D01*
X165251720Y-115481127D02*
X163434781Y-115481124D01*
X166728701Y-114812922D02*
X166777490Y-114855923D01*
X167146631Y-121152605D02*
X166992290Y-121362615D01*
X165796728Y-122035644D02*
X165744098Y-122045414D01*
X166053870Y-115929424D02*
X165893460Y-115680423D01*
X166248040Y-117989605D02*
X166351510Y-118038354D01*
X166989400Y-115097025D02*
X167158351Y-115373522D01*
X166775550Y-121588183D02*
X166738331Y-121621413D01*
X166538090Y-121766933D02*
X166318310Y-121885143D01*
X164923461Y-117403495D02*
X164983402Y-117403495D01*
X165625979Y-115530926D02*
X165345281Y-115481127D01*
X166107461Y-116278205D02*
X166107461Y-116190965D01*
X167158351Y-115373522D02*
X167185790Y-115434122D01*
X167537439Y-119737475D02*
X167537440Y-119888536D01*
X167452419Y-119284784D02*
X167537439Y-119737475D01*
X167254129Y-118843284D02*
X167452419Y-119284784D01*
X167213062Y-115494625D02*
X167308841Y-115812124D01*
X167308841Y-115812124D02*
X167349900Y-116117654D01*
X166679770Y-114768024D02*
X166728701Y-114812922D01*
X165744098Y-122045414D02*
X165693219Y-122053145D01*
X166777490Y-114855923D02*
X166989400Y-115097025D01*
X162192190Y-122092265D02*
X162192191Y-114238525D01*
X166034148Y-121980786D02*
X165796728Y-122035644D01*
X166992290Y-121362615D02*
X166814530Y-121553046D01*
X165345281Y-115481127D02*
X165251720Y-115481127D01*
X165282452Y-114238525D02*
X165620871Y-114276625D01*
X167142790Y-118683025D02*
X167197501Y-118763203D01*
X166271462Y-121904722D02*
X166236329Y-121918383D01*
X166351510Y-118038354D02*
X166796080Y-118329395D01*
X166409119Y-114572623D02*
X166679770Y-114768024D01*
X166738331Y-121621413D02*
X166538090Y-121766933D01*
X167174079Y-121107664D02*
X167146631Y-121152605D01*
X165620871Y-114276625D02*
X165970611Y-114365524D01*
X165169701Y-122092266D02*
X162192190Y-122092265D01*
X165970611Y-114365524D02*
X166037040Y-114391026D01*
X167349901Y-116219505D02*
X167349901Y-116353736D01*
X166103471Y-114416324D02*
X166409119Y-114572623D01*
X167185790Y-115434122D02*
X167213062Y-115494625D01*
X165370791Y-117360525D02*
X165500711Y-117300834D01*
X165893460Y-115680423D02*
X165625979Y-115530926D01*
X170498572Y-115680327D02*
X170338169Y-115929425D01*
X170765970Y-115530725D02*
X170498572Y-115680327D01*
X172957271Y-115481025D02*
X171140369Y-115481026D01*
X170891170Y-117300833D02*
X171021170Y-117360523D01*
X171046671Y-115481024D02*
X170765970Y-115530725D01*
X171071971Y-117374144D02*
X171228270Y-117394675D01*
X171140369Y-115481026D02*
X171046671Y-115481024D01*
X172957270Y-117403494D02*
X172957271Y-115481025D01*
X171468571Y-117403494D02*
X172957270Y-117403494D01*
X171408470Y-117403495D02*
X171468571Y-117403494D01*
X171228270Y-117394675D02*
X171408470Y-117403495D01*
X171021170Y-117360523D02*
X171046673Y-117368354D01*
X171046673Y-117368354D02*
X171071971Y-117374144D01*
X170757371Y-117214014D02*
X170891170Y-117300833D01*
X170439872Y-119040066D02*
X170355571Y-119155814D01*
X170829071Y-118743804D02*
X170709571Y-118805645D01*
X166271460Y-120011865D02*
X166271460Y-119911955D01*
X165415272Y-120826283D02*
X165730721Y-120769105D01*
X163434781Y-118669505D02*
X163434781Y-120826284D01*
X170892270Y-118720235D02*
X170870769Y-118728076D01*
X170284669Y-116345164D02*
X170312470Y-116546246D01*
X170284673Y-116278205D02*
X170284669Y-116345164D01*
X170173268Y-119539745D02*
X170120569Y-119818785D01*
X170870769Y-118728076D02*
X170829071Y-118743804D01*
X171213669Y-118672405D02*
X171109071Y-118679134D01*
X171093469Y-118681223D02*
X171067867Y-118681223D01*
X171109071Y-118679134D02*
X171093469Y-118681223D01*
X172957271Y-118669504D02*
X171386572Y-118669505D01*
X170360771Y-120597656D02*
X170661171Y-120769103D01*
X166031120Y-120597656D02*
X166211380Y-120312002D01*
X165730721Y-120769105D02*
X166031120Y-120597656D01*
X170180571Y-120312005D02*
X170360771Y-120597656D01*
X165324180Y-118681222D02*
X165298570Y-118681225D01*
X170355571Y-119155814D02*
X170331572Y-119196875D01*
X163434781Y-120826284D02*
X165310281Y-120826282D01*
X165178379Y-118672405D02*
X165048732Y-118669504D01*
X170565971Y-118909713D02*
X170439872Y-119040066D01*
X170709571Y-118805645D02*
X170565971Y-118909713D01*
X171081769Y-120826285D02*
X172957272Y-120826285D01*
X170296270Y-119251594D02*
X170173268Y-119539745D01*
X165310281Y-120826282D02*
X165415272Y-120826283D01*
X171386572Y-118669505D02*
X171343271Y-118669505D01*
X170120572Y-120011865D02*
X170180571Y-120312005D01*
X170331572Y-119196875D02*
X170296270Y-119251594D01*
X171343271Y-118669505D02*
X171213669Y-118672405D01*
X170990971Y-118692793D02*
X170892270Y-118720235D01*
X165048732Y-118669504D02*
X165005590Y-118669503D01*
X166211380Y-120312002D02*
X166271460Y-120011865D01*
X165401090Y-118692795D02*
X165324180Y-118681222D01*
X171067867Y-118681223D02*
X170990971Y-118692793D01*
X165282838Y-118679133D02*
X165178379Y-118672405D01*
X170120572Y-119911956D02*
X170120572Y-120011865D01*
X170730070Y-117192534D02*
X170757371Y-117214014D01*
X170677071Y-117150626D02*
X170730070Y-117192534D01*
X170535069Y-117003444D02*
X170677071Y-117150626D01*
X165298570Y-118681225D02*
X165282838Y-118679133D01*
X170395972Y-116788076D02*
X170535069Y-117003444D01*
X170661171Y-120769103D02*
X170976671Y-120826284D01*
X170312470Y-116546246D02*
X170395972Y-116788076D01*
X165005590Y-118669503D02*
X163434781Y-118669505D01*
X172957272Y-120826285D02*
X172957271Y-118669504D01*
X170976671Y-120826284D02*
X171081769Y-120826285D01*
X170120569Y-119818785D02*
X170120572Y-119911956D01*
X170354970Y-114391024D02*
X170421371Y-114365525D01*
X169577371Y-121553043D02*
X169399570Y-121362615D01*
X169595968Y-118329396D02*
X170040368Y-118038353D01*
X169217971Y-121107665D02*
X169188569Y-121062612D01*
X168854572Y-120033487D02*
X168854569Y-119888534D01*
X169982773Y-114572624D02*
X170288572Y-114416325D01*
X168932568Y-120468813D02*
X168854572Y-120033487D01*
X169653571Y-121621413D02*
X169616468Y-121588183D01*
X169616468Y-121588183D02*
X169577371Y-121553043D01*
X170120571Y-121904723D02*
X170073569Y-121885143D01*
X170155771Y-121918386D02*
X170120571Y-121904723D01*
X170357870Y-121980786D02*
X170155771Y-121918386D01*
X170698872Y-122053145D02*
X170648070Y-122045415D01*
X170288572Y-114416325D02*
X170354970Y-114391024D01*
X169042169Y-116219644D02*
X169042171Y-116117653D01*
X169042169Y-116353844D02*
X169042169Y-116219644D01*
X169317471Y-117230564D02*
X169110870Y-116756504D01*
X169137772Y-118843286D02*
X169194570Y-118763205D01*
X170338169Y-115929425D02*
X170284671Y-116190965D01*
X171222472Y-114238523D02*
X174199871Y-114238524D01*
X171109570Y-114238525D02*
X171222472Y-114238523D01*
X169663371Y-114812924D02*
X169712172Y-114768025D01*
X169083069Y-115812124D02*
X169178872Y-115494626D01*
X168939470Y-119284785D02*
X169137772Y-118843286D01*
X169188569Y-121062612D02*
X168963872Y-120574226D01*
X169402468Y-115097025D02*
X169614472Y-114855826D01*
X169245271Y-121152604D02*
X169217971Y-121107665D01*
X168854569Y-119888534D02*
X168854570Y-119737475D01*
X169399570Y-121362615D02*
X169245271Y-121152604D01*
X171222469Y-122092263D02*
X171078871Y-122092265D01*
X169042171Y-116117653D02*
X169083069Y-115812124D01*
X170284671Y-116190965D02*
X170284673Y-116278205D01*
X169661870Y-117641473D02*
X169317471Y-117230564D01*
X170648070Y-122045415D02*
X170595272Y-122035644D01*
X170771170Y-114276626D02*
X171109570Y-114238525D01*
X169712172Y-114768025D02*
X169982773Y-114572624D01*
X170595272Y-122035644D02*
X170357870Y-121980786D01*
X168948270Y-120521596D02*
X168932568Y-120468813D01*
X169853771Y-121766936D02*
X169653571Y-121621413D01*
X168963872Y-120574226D02*
X168948270Y-120521596D01*
X170073569Y-121885143D02*
X169853771Y-121766936D01*
X169178872Y-115494626D02*
X169206269Y-115434126D01*
X170040368Y-118038353D02*
X170143969Y-117989603D01*
X170421371Y-114365525D02*
X170771170Y-114276626D01*
X174199871Y-114238524D02*
X174199873Y-122092267D01*
X170015671Y-117915863D02*
X169661870Y-117641473D01*
X168854570Y-119737475D02*
X168939470Y-119284785D01*
X169614472Y-114855826D02*
X169663371Y-114812924D01*
X169233569Y-115373524D02*
X169402468Y-115097025D01*
X169249271Y-118683025D02*
X169595968Y-118329396D01*
X170143969Y-117989603D02*
X170015671Y-117915863D01*
X169194570Y-118763205D02*
X169249271Y-118683025D01*
X171078871Y-122092265D02*
X170698872Y-122053145D01*
X174199873Y-122092267D02*
X171222469Y-122092263D01*
X169110870Y-116756504D02*
X169042169Y-116353844D01*
X169206269Y-115434126D02*
X169233569Y-115373524D01*
X103574211Y-117047973D02*
X103657709Y-116806142D01*
X102741860Y-117654575D02*
X102898151Y-117634045D01*
X103685690Y-116538105D02*
X103685691Y-116450863D01*
X103435039Y-117263343D02*
X103574211Y-117047973D01*
X103293080Y-117410524D02*
X103435039Y-117263343D01*
X104859240Y-117016403D02*
X104652648Y-117490464D01*
X103240158Y-117452434D02*
X103293080Y-117410524D01*
X103078941Y-117560733D02*
X103212749Y-117473914D01*
X103548840Y-114625422D02*
X103615269Y-114650925D01*
X102949020Y-117620427D02*
X103078941Y-117560733D01*
X104652648Y-117490464D02*
X104308299Y-117901373D01*
X102898151Y-117634045D02*
X102923651Y-117628255D01*
X103199099Y-114536525D02*
X103548840Y-114625422D01*
X101013010Y-115741026D02*
X101013010Y-117663394D01*
X104374311Y-118589294D02*
X104721019Y-118942925D01*
X103204209Y-115790823D02*
X102923509Y-115741023D01*
X104775732Y-119023106D02*
X104832364Y-119103184D01*
X104567630Y-115356922D02*
X104736579Y-115633426D01*
X104355719Y-115115824D02*
X104567630Y-115356922D01*
X104721019Y-118942925D02*
X104775732Y-119023106D01*
X102501690Y-117663396D02*
X102561630Y-117663395D01*
X104308299Y-117901373D02*
X103954430Y-118175763D01*
X104791291Y-115754525D02*
X104887071Y-116072025D01*
X99770421Y-114498422D02*
X102747928Y-114498426D01*
X103471690Y-115940325D02*
X103204209Y-115790823D01*
X103615269Y-114650925D02*
X103681700Y-114676223D01*
X105030649Y-119544683D02*
X105115672Y-119997375D01*
X103929740Y-118298254D02*
X104374311Y-118589294D01*
X102829951Y-115741026D02*
X101013010Y-115741026D01*
X103954430Y-118175763D02*
X103826268Y-118249506D01*
X103826268Y-118249506D02*
X103929740Y-118298254D01*
X104764021Y-115694023D02*
X104791291Y-115754525D01*
X103632100Y-116189326D02*
X103471690Y-115940325D01*
X102747928Y-114498426D02*
X102860682Y-114498424D01*
X105115672Y-119997375D02*
X105115670Y-120148433D01*
X104928131Y-116479403D02*
X104928129Y-116613633D01*
X104887071Y-116072025D02*
X104928130Y-116377556D01*
X104258000Y-115027924D02*
X104306932Y-115072825D01*
X102923509Y-115741023D02*
X102829951Y-115741026D01*
X104832364Y-119103184D02*
X105030649Y-119544683D01*
X104306932Y-115072825D02*
X104355719Y-115115824D01*
X104736579Y-115633426D02*
X104764021Y-115694023D01*
X103796920Y-119799645D02*
X103673829Y-119511492D01*
X103987350Y-114832526D02*
X104258000Y-115027924D01*
X102923651Y-117628255D02*
X102949020Y-117620427D01*
X103849690Y-120078683D02*
X103796920Y-119799645D01*
X103849691Y-120171852D02*
X103849690Y-120078683D01*
X103685690Y-116605066D02*
X103685690Y-116538105D01*
X101013010Y-117663394D02*
X102501690Y-117663396D01*
X104928129Y-116613633D02*
X104859240Y-117016403D01*
X104928130Y-116377556D02*
X104928131Y-116479403D01*
X102860682Y-114498424D02*
X103199099Y-114536525D01*
X103657709Y-116806142D02*
X103685690Y-116605066D01*
X102561630Y-117663395D02*
X102741860Y-117654575D01*
X103212749Y-117473914D02*
X103240158Y-117452434D01*
X103685691Y-116450863D02*
X103632100Y-116189326D01*
X103681700Y-114676223D02*
X103987350Y-114832526D01*
X107194699Y-121848083D02*
X107155598Y-121812945D01*
X110535501Y-115740921D02*
X108718601Y-115740926D01*
X108277100Y-122313044D02*
X108226299Y-122305315D01*
X106661302Y-116072024D02*
X106757100Y-115754527D01*
X108800701Y-114498425D02*
X111778099Y-114498425D01*
X107999603Y-114625425D02*
X108349401Y-114536525D01*
X107866803Y-114676224D02*
X107933202Y-114650925D01*
X106517700Y-119544683D02*
X106716001Y-119103184D01*
X106757100Y-115754527D02*
X106784500Y-115694024D01*
X106772801Y-119023105D02*
X106827499Y-118942926D01*
X107241600Y-115072823D02*
X107290398Y-115027921D01*
X106432801Y-120148435D02*
X106432799Y-119997374D01*
X106895698Y-117490465D02*
X106689101Y-117016404D01*
X107231801Y-121881313D02*
X107194699Y-121848083D01*
X107432001Y-122026835D02*
X107231801Y-121881313D01*
X107651803Y-122145043D02*
X107432001Y-122026835D01*
X111778099Y-114498425D02*
X111778103Y-122352163D01*
X111778103Y-122352163D02*
X108800702Y-122352166D01*
X107862900Y-116450864D02*
X107862904Y-116538105D01*
X106432799Y-119997374D02*
X106517700Y-119544683D01*
X108076800Y-115940223D02*
X107916402Y-116189325D01*
X106716001Y-119103184D02*
X106772801Y-119023105D01*
X106811802Y-115633424D02*
X106980700Y-115356924D01*
X107174202Y-118589295D02*
X107618602Y-118298254D01*
X107593899Y-118175765D02*
X107240101Y-117901373D01*
X108349401Y-114536525D02*
X108687800Y-114498424D01*
X106620398Y-116613745D02*
X106620400Y-116479545D01*
X107698801Y-122164624D02*
X107651803Y-122145043D01*
X107936101Y-122240685D02*
X107734000Y-122178286D01*
X108173500Y-122295547D02*
X107936101Y-122240685D01*
X106620400Y-116377556D02*
X106661302Y-116072024D01*
X108226299Y-122305315D02*
X108173500Y-122295547D01*
X107290398Y-115027921D02*
X107561001Y-114832524D01*
X107933202Y-114650925D02*
X107999603Y-114625425D01*
X107240101Y-117901373D02*
X106895698Y-117490465D01*
X107722200Y-118249507D02*
X107593899Y-118175765D01*
X109046799Y-117663395D02*
X110535498Y-117663394D01*
X108650199Y-117634043D02*
X108806500Y-117654576D01*
X107618602Y-118298254D02*
X107722200Y-118249507D01*
X108344201Y-115790625D02*
X108076800Y-115940223D01*
X106827499Y-118942926D02*
X107174202Y-118589295D01*
X108624902Y-115740924D02*
X108344201Y-115790625D01*
X110535498Y-117663394D02*
X110535501Y-115740921D01*
X107734000Y-122178286D02*
X107698801Y-122164624D01*
X106980700Y-115356924D02*
X107192701Y-115115725D01*
X107916402Y-116189325D02*
X107862900Y-116450864D01*
X106784500Y-115694024D02*
X106811802Y-115633424D01*
X106689101Y-117016404D02*
X106620398Y-116613745D01*
X108800702Y-122352166D02*
X108657099Y-122352166D01*
X107561001Y-114832524D02*
X107866803Y-114676224D01*
X107192701Y-115115725D02*
X107241600Y-115072823D01*
X108986699Y-117663392D02*
X109046799Y-117663395D01*
X108687800Y-114498424D02*
X108800701Y-114498425D01*
X106766801Y-121322516D02*
X106542100Y-120834127D01*
X106796200Y-121367565D02*
X106766801Y-121322516D01*
X106620400Y-116479545D02*
X106620400Y-116377556D01*
X108657099Y-122352166D02*
X108277100Y-122313044D01*
X106823501Y-121412502D02*
X106796200Y-121367565D01*
X106977799Y-121622515D02*
X106823501Y-121412502D01*
X108806500Y-117654576D02*
X108986699Y-117663392D01*
X107155598Y-121812945D02*
X106977799Y-121622515D01*
X108718601Y-115740926D02*
X108624902Y-115740924D01*
X107933801Y-119415714D02*
X107909801Y-119456776D01*
X107751502Y-119799645D02*
X107698802Y-120078685D01*
X108308300Y-117452434D02*
X108335602Y-117473914D01*
X107890700Y-116806144D02*
X107974199Y-117047975D01*
X107862902Y-116605068D02*
X107890700Y-116806144D01*
X103849690Y-120271765D02*
X103849691Y-120171852D01*
X103614600Y-119415855D02*
X103530251Y-119300105D01*
X110535501Y-121086183D02*
X110535500Y-118929403D01*
X107909801Y-119456776D02*
X107874500Y-119511492D01*
X108287799Y-119065546D02*
X108144201Y-119169615D01*
X108554901Y-121086185D02*
X108660004Y-121086182D01*
X102876800Y-118941125D02*
X102861072Y-118939036D01*
X101013013Y-121086183D02*
X102888509Y-121086185D01*
X108470503Y-118980136D02*
X108449000Y-118987976D01*
X102888509Y-121086185D02*
X102993503Y-121086186D01*
X108687301Y-118939032D02*
X108671701Y-118941123D01*
X108964803Y-118929405D02*
X108921501Y-118929404D01*
X103638702Y-119456914D02*
X103614600Y-119415855D01*
X101013010Y-118929405D02*
X101013013Y-121086183D01*
X110535500Y-118929403D02*
X108964803Y-118929405D01*
X102902410Y-118941125D02*
X102876800Y-118941125D01*
X108660004Y-121086182D02*
X110535501Y-121086183D01*
X107698801Y-120171853D02*
X107698802Y-120271765D01*
X102583819Y-118929402D02*
X101013010Y-118929405D01*
X108239402Y-121029006D02*
X108554901Y-121086185D01*
X103673829Y-119511492D02*
X103638702Y-119456914D01*
X108018100Y-119299963D02*
X107933801Y-119415714D01*
X102756608Y-118932305D02*
X102626960Y-118929402D01*
X108407301Y-119003704D02*
X108287799Y-119065546D01*
X108449000Y-118987976D02*
X108407301Y-119003704D01*
X108646099Y-118941125D02*
X108569200Y-118952695D01*
X108791901Y-118932304D02*
X108687301Y-118939032D01*
X103789609Y-120571904D02*
X103849690Y-120271765D01*
X102626960Y-118929402D02*
X102583819Y-118929402D01*
X103099480Y-118987975D02*
X103077993Y-118980135D01*
X102993503Y-121086186D02*
X103308950Y-121029005D01*
X102861072Y-118939036D02*
X102756608Y-118932305D01*
X108569200Y-118952695D02*
X108470503Y-118980136D01*
X108671701Y-118941123D02*
X108646099Y-118941125D01*
X103308950Y-121029005D02*
X103609350Y-120857554D01*
X103530251Y-119300105D02*
X103404169Y-119169613D01*
X108624899Y-117628256D02*
X108650199Y-117634043D01*
X107698802Y-120078685D02*
X107698801Y-120171853D01*
X102979321Y-118952695D02*
X102902410Y-118941125D01*
X108599399Y-117620422D02*
X108624899Y-117628256D01*
X108113301Y-117263345D02*
X108255301Y-117410523D01*
X103077993Y-118980135D02*
X102979321Y-118952695D01*
X103141100Y-119003704D02*
X103099480Y-118987975D01*
X108255301Y-117410523D02*
X108308300Y-117452434D01*
X108144201Y-119169615D02*
X108018100Y-119299963D01*
X107939000Y-120857554D02*
X108239402Y-121029006D01*
X107698802Y-120271765D02*
X107758800Y-120571904D01*
X103260590Y-119065543D02*
X103141100Y-119003704D01*
X108469400Y-117560733D02*
X108599399Y-117620422D01*
X108335602Y-117473914D02*
X108469400Y-117560733D01*
X107974199Y-117047975D02*
X108113301Y-117263345D01*
X107862904Y-116538105D02*
X107862902Y-116605068D01*
X107758800Y-120571904D02*
X107939000Y-120857554D01*
X103609350Y-120857554D02*
X103789609Y-120571904D01*
X103404169Y-119169613D02*
X103260590Y-119065543D01*
X107874500Y-119511492D02*
X107751502Y-119799645D01*
X108921501Y-118929404D02*
X108791901Y-118932304D01*
X106542100Y-120834127D02*
X106526502Y-120781496D01*
X106510801Y-120728714D02*
X106432799Y-120293384D01*
X106432799Y-120293384D02*
X106432801Y-120148435D01*
X106526502Y-120781496D02*
X106510801Y-120728714D01*
X114744701Y-126342703D02*
X114594402Y-126362824D01*
X114544401Y-110487823D02*
X114594400Y-110487824D01*
X115516400Y-125571005D02*
X115458700Y-125757450D01*
X115536599Y-111480024D02*
X115536601Y-125370637D01*
X114931199Y-126284966D02*
X114744701Y-126342703D01*
X115367501Y-125926125D02*
X115246501Y-126072748D01*
X115536602Y-111429825D02*
X115536599Y-111480024D01*
X115516402Y-111279525D02*
X115536602Y-111429825D01*
X115458699Y-111093023D02*
X115516402Y-111279525D01*
X115099801Y-126193739D02*
X114931199Y-126284966D01*
X115246501Y-126072748D02*
X115099801Y-126193739D01*
X115536601Y-125370637D02*
X115536599Y-125420659D01*
X114744700Y-110507824D02*
X114931199Y-110565524D01*
X114594400Y-110487824D02*
X114744700Y-110507824D01*
X115246500Y-110777721D02*
X115367499Y-110924425D01*
X114931199Y-110565524D02*
X115099802Y-110656722D01*
X115458700Y-125757450D02*
X115367501Y-125926125D01*
X115099802Y-110656722D02*
X115246500Y-110777721D01*
X115536599Y-125420659D02*
X115516400Y-125571005D01*
X115367499Y-110924425D02*
X115458699Y-111093023D01*
X96634828Y-126362826D02*
X96484483Y-126342706D01*
X96684989Y-126362826D02*
X96634828Y-126362826D01*
X96684989Y-110487824D02*
X114544401Y-110487823D01*
X114544401Y-126362824D02*
X96684989Y-126362826D01*
X114594402Y-126362824D02*
X114544401Y-126362824D01*
X105037572Y-120728713D02*
X105021970Y-120781496D01*
X104570523Y-121622516D02*
X104392762Y-121812945D01*
X96129365Y-110656725D02*
X96298037Y-110565526D01*
X105115670Y-120148433D02*
X105115672Y-120306616D01*
X95712781Y-125571005D02*
X95692801Y-125420659D01*
X96484483Y-126342706D02*
X96298037Y-126284965D01*
X95692801Y-111429826D02*
X95712783Y-111279525D01*
X103271450Y-122313045D02*
X102878710Y-122352166D01*
X103322332Y-122305314D02*
X103271450Y-122313045D01*
X105115672Y-120306616D02*
X105037572Y-120728713D01*
X103374962Y-122295546D02*
X103322332Y-122305314D01*
X103849691Y-122164625D02*
X103814562Y-122178286D01*
X104392762Y-121812945D02*
X104353780Y-121848083D01*
X105021970Y-120781496D02*
X105006271Y-120834123D01*
X113552202Y-124378445D02*
X97677182Y-124378445D01*
X95692801Y-125370636D02*
X95692800Y-111480025D01*
X95982739Y-126072747D02*
X95861749Y-125926124D01*
X96129365Y-126193738D02*
X95982739Y-126072747D01*
X103896540Y-122145046D02*
X103849691Y-122164625D01*
X104752312Y-121367564D02*
X104724859Y-121412503D01*
X97677182Y-124378445D02*
X97677181Y-112472224D01*
X96634826Y-110487825D02*
X96684989Y-110487824D01*
X95712783Y-111279525D02*
X95770522Y-111093024D01*
X96484482Y-110507823D02*
X96634826Y-110487825D01*
X95861746Y-110924427D02*
X95982739Y-110777724D01*
X95692800Y-111480025D02*
X95692801Y-111429826D01*
X95692801Y-125420659D02*
X95692801Y-125370636D01*
X95861749Y-125926124D02*
X95770522Y-125757452D01*
X104116321Y-122026834D02*
X103896540Y-122145046D01*
X96298037Y-110565526D02*
X96484482Y-110507823D01*
X95770522Y-125757452D02*
X95712781Y-125571005D01*
X113552199Y-112472225D02*
X113552202Y-124378445D01*
X95982739Y-110777724D02*
X96129365Y-110656725D01*
X97677181Y-112472224D02*
X113552199Y-112472225D01*
X99770420Y-122352164D02*
X99770421Y-114498422D01*
X102747932Y-122352167D02*
X99770420Y-122352164D01*
X104724859Y-121412503D02*
X104570523Y-121622516D01*
X102878710Y-122352166D02*
X102747932Y-122352167D01*
X103612381Y-122240682D02*
X103374962Y-122295546D01*
X104781519Y-121322656D02*
X104752312Y-121367564D01*
X103814562Y-122178286D02*
X103612381Y-122240682D01*
X104353780Y-121848083D02*
X104316561Y-121881315D01*
X96298037Y-126284965D02*
X96129365Y-126193738D01*
X104316561Y-121881315D02*
X104116321Y-122026834D01*
X95770522Y-111093024D02*
X95861746Y-110924427D01*
X105006271Y-120834123D02*
X104781519Y-121322656D01*
D11*
%TO.C,SW40*%
X232400142Y-82679388D02*
X231493834Y-83102006D01*
X232400142Y-82679388D02*
X232822760Y-83585695D01*
X237410490Y-95790315D02*
X238316797Y-95367697D01*
X238316797Y-95367697D02*
X237410490Y-95790315D01*
X237894179Y-94461389D02*
X238316797Y-95367697D01*
X225628488Y-101284352D02*
X225205870Y-100378045D01*
X220618140Y-88173425D02*
X219711833Y-88596043D01*
X225628488Y-101284352D02*
X226534796Y-100861734D01*
X220134451Y-89502351D02*
X219711833Y-88596043D01*
%TO.C,SW39*%
X213067205Y-86177593D02*
X212160897Y-86600211D01*
X213067205Y-86177593D02*
X213489823Y-87083900D01*
X218077553Y-99288520D02*
X218983860Y-98865902D01*
X218983860Y-98865902D02*
X218077553Y-99288520D01*
X218561242Y-97959594D02*
X218983860Y-98865902D01*
X206295551Y-104782557D02*
X205872933Y-103876250D01*
X201285203Y-91671630D02*
X200378896Y-92094248D01*
X206295551Y-104782557D02*
X207201859Y-104359939D01*
X200801514Y-93000556D02*
X200378896Y-92094248D01*
%TO.C,SW38*%
X204299718Y-112333496D02*
X203393410Y-112756114D01*
X204299718Y-112333496D02*
X204722336Y-113239803D01*
X209310066Y-125444423D02*
X210216373Y-125021805D01*
X210216373Y-125021805D02*
X209310066Y-125444423D01*
X209793755Y-124115497D02*
X210216373Y-125021805D01*
X197528064Y-130938460D02*
X197105446Y-130032153D01*
X192517716Y-117827533D02*
X191611409Y-118250151D01*
X197528064Y-130938460D02*
X198434372Y-130515842D01*
X192034027Y-119156459D02*
X191611409Y-118250151D01*
%TO.C,SW37*%
X184446388Y-122386880D02*
X183627236Y-122960456D01*
X184446388Y-122386880D02*
X185019965Y-123206032D01*
X191657306Y-134428585D02*
X192476458Y-133855008D01*
X192476458Y-133855008D02*
X191657306Y-134428585D01*
X191902882Y-133035856D02*
X192476458Y-133855008D01*
X181008330Y-141885078D02*
X180434753Y-141065926D01*
X173797412Y-129843373D02*
X172978260Y-130416950D01*
X181008330Y-141885078D02*
X181827482Y-141311502D01*
X173551836Y-131236102D02*
X172978260Y-130416950D01*
%TO.C,SW36*%
X166640430Y-135735025D02*
X165933323Y-136442132D01*
X166640430Y-135735025D02*
X167347537Y-136442132D01*
X175832818Y-146341627D02*
X176539925Y-145634520D01*
X176539925Y-145634520D02*
X175832818Y-146341627D01*
X175832818Y-144927413D02*
X176539925Y-145634520D01*
X166640430Y-155534015D02*
X165933323Y-154826908D01*
X157448042Y-144927413D02*
X156740935Y-145634520D01*
X166640430Y-155534015D02*
X167347537Y-154826908D01*
X157448042Y-146341627D02*
X156740935Y-145634520D01*
%TO.C,SW35*%
X116866424Y-145634519D02*
X116159317Y-144927412D01*
X116866424Y-145634519D02*
X116159317Y-146341626D01*
X106259822Y-154826907D02*
X106966929Y-155534014D01*
X106966929Y-155534014D02*
X106259822Y-154826907D01*
X107674036Y-154826907D02*
X106966929Y-155534014D01*
X97067434Y-145634519D02*
X97774541Y-144927412D01*
X107674036Y-136442131D02*
X106966929Y-135735024D01*
X97067434Y-145634519D02*
X97774541Y-146341626D01*
X106259822Y-136442131D02*
X106966929Y-135735024D01*
%TO.C,SW34*%
X100629093Y-130416950D02*
X99809941Y-129843373D01*
X100629093Y-130416950D02*
X100055517Y-131236102D01*
X91779871Y-141311502D02*
X92599023Y-141885078D01*
X92599023Y-141885078D02*
X91779871Y-141311502D01*
X93172600Y-141065926D02*
X92599023Y-141885078D01*
X81130895Y-133855008D02*
X81704471Y-133035856D01*
X89980117Y-122960456D02*
X89160965Y-122386880D01*
X81130895Y-133855008D02*
X81950047Y-134428585D01*
X88587388Y-123206032D02*
X89160965Y-122386880D01*
%TO.C,SW33*%
X81995942Y-118250153D02*
X81089635Y-117827535D01*
X81995942Y-118250153D02*
X81573324Y-119156461D01*
X75172979Y-130515844D02*
X76079287Y-130938462D01*
X76079287Y-130938462D02*
X75172979Y-130515844D01*
X76501905Y-130032155D02*
X76079287Y-130938462D01*
X63390978Y-125021807D02*
X63813596Y-124115499D01*
X70213941Y-112756116D02*
X69307633Y-112333498D01*
X63390978Y-125021807D02*
X64297285Y-125444425D01*
X68885015Y-113239805D02*
X69307633Y-112333498D01*
%TO.C,SW32*%
X73228461Y-92094251D02*
X72322154Y-91671633D01*
X73228461Y-92094251D02*
X72805843Y-93000559D01*
X66405498Y-104359942D02*
X67311806Y-104782560D01*
X67311806Y-104782560D02*
X66405498Y-104359942D01*
X67734424Y-103876253D02*
X67311806Y-104782560D01*
X54623497Y-98865905D02*
X55046115Y-97959597D01*
X61446460Y-86600214D02*
X60540152Y-86177596D01*
X54623497Y-98865905D02*
X55529804Y-99288523D01*
X60117534Y-87083903D02*
X60540152Y-86177596D01*
%TO.C,SW31*%
X53895524Y-88596043D02*
X52989217Y-88173425D01*
X53895524Y-88596043D02*
X53472906Y-89502351D01*
X47072561Y-100861734D02*
X47978869Y-101284352D01*
X47978869Y-101284352D02*
X47072561Y-100861734D01*
X48401487Y-100378045D02*
X47978869Y-101284352D01*
X35290560Y-95367697D02*
X35713178Y-94461389D01*
X42113523Y-83102006D02*
X41207215Y-82679388D01*
X35290560Y-95367697D02*
X36196867Y-95790315D01*
X40784597Y-83585695D02*
X41207215Y-82679388D01*
%TO.C,SW30*%
X246872968Y-68758640D02*
X245966660Y-69181258D01*
X246872968Y-68758640D02*
X247295586Y-69664947D01*
X251883316Y-81869567D02*
X252789623Y-81446949D01*
X252789623Y-81446949D02*
X251883316Y-81869567D01*
X252367005Y-80540641D02*
X252789623Y-81446949D01*
X240101314Y-87363604D02*
X239678696Y-86457297D01*
X235090966Y-74252677D02*
X234184659Y-74675295D01*
X240101314Y-87363604D02*
X241007622Y-86940986D01*
X234607277Y-75581603D02*
X234184659Y-74675295D01*
%TO.C,SW29*%
X224370395Y-65459541D02*
X223464087Y-65882159D01*
X224370395Y-65459541D02*
X224793013Y-66365848D01*
X229380743Y-78570468D02*
X230287050Y-78147850D01*
X230287050Y-78147850D02*
X229380743Y-78570468D01*
X229864432Y-77241542D02*
X230287050Y-78147850D01*
X217598741Y-84064505D02*
X217176123Y-83158198D01*
X212588393Y-70953578D02*
X211682086Y-71376196D01*
X217598741Y-84064505D02*
X218505049Y-83641887D01*
X212104704Y-72282504D02*
X211682086Y-71376196D01*
%TO.C,SW28*%
X205037457Y-68957751D02*
X204131149Y-69380369D01*
X205037457Y-68957751D02*
X205460075Y-69864058D01*
X210047805Y-82068678D02*
X210954112Y-81646060D01*
X210954112Y-81646060D02*
X210047805Y-82068678D01*
X210531494Y-80739752D02*
X210954112Y-81646060D01*
X198265803Y-87562715D02*
X197843185Y-86656408D01*
X193255455Y-74451788D02*
X192349148Y-74874406D01*
X198265803Y-87562715D02*
X199172111Y-87140097D01*
X192771766Y-75780714D02*
X192349148Y-74874406D01*
%TO.C,SW27*%
X189930699Y-81519033D02*
X189024391Y-81941651D01*
X189930699Y-81519033D02*
X190353317Y-82425340D01*
X194941047Y-94629960D02*
X195847354Y-94207342D01*
X195847354Y-94207342D02*
X194941047Y-94629960D01*
X195424736Y-93301034D02*
X195847354Y-94207342D01*
X183159045Y-100123997D02*
X182736427Y-99217690D01*
X178148697Y-87013070D02*
X177242390Y-87435688D01*
X183159045Y-100123997D02*
X184065353Y-99701379D01*
X177665008Y-88341996D02*
X177242390Y-87435688D01*
%TO.C,SW26*%
X173767397Y-91814551D02*
X172861089Y-92237169D01*
X173767397Y-91814551D02*
X174190015Y-92720858D01*
X178777745Y-104925478D02*
X179684052Y-104502860D01*
X179684052Y-104502860D02*
X178777745Y-104925478D01*
X179261434Y-103596552D02*
X179684052Y-104502860D01*
X166995743Y-110419515D02*
X166573125Y-109513208D01*
X161985395Y-97308588D02*
X161079088Y-97731206D01*
X166995743Y-110419515D02*
X167902051Y-109996897D01*
X161501706Y-98637514D02*
X161079088Y-97731206D01*
%TO.C,SW25*%
X112528268Y-97731205D02*
X111621961Y-97308587D01*
X112528268Y-97731205D02*
X112105650Y-98637513D01*
X105705305Y-109996896D02*
X106611613Y-110419514D01*
X106611613Y-110419514D02*
X105705305Y-109996896D01*
X107034231Y-109513207D02*
X106611613Y-110419514D01*
X93923304Y-104502859D02*
X94345922Y-103596551D01*
X100746267Y-92237168D02*
X99839959Y-91814550D01*
X93923304Y-104502859D02*
X94829611Y-104925477D01*
X99417341Y-92720857D02*
X99839959Y-91814550D01*
%TO.C,SW24*%
X96364964Y-87435689D02*
X95458657Y-87013071D01*
X96364964Y-87435689D02*
X95942346Y-88341997D01*
X89542001Y-99701380D02*
X90448309Y-100123998D01*
X90448309Y-100123998D02*
X89542001Y-99701380D01*
X90870927Y-99217691D02*
X90448309Y-100123998D01*
X77760000Y-94207343D02*
X78182618Y-93301035D01*
X84582963Y-81941652D02*
X83676655Y-81519034D01*
X77760000Y-94207343D02*
X78666307Y-94629961D01*
X83254037Y-82425341D02*
X83676655Y-81519034D01*
%TO.C,SW23*%
X81258208Y-74874403D02*
X80351901Y-74451785D01*
X81258208Y-74874403D02*
X80835590Y-75780711D01*
X74435245Y-87140094D02*
X75341553Y-87562712D01*
X75341553Y-87562712D02*
X74435245Y-87140094D01*
X75764171Y-86656405D02*
X75341553Y-87562712D01*
X62653244Y-81646057D02*
X63075862Y-80739749D01*
X69476207Y-69380366D02*
X68569899Y-68957748D01*
X62653244Y-81646057D02*
X63559551Y-82068675D01*
X68147281Y-69864055D02*
X68569899Y-68957748D01*
%TO.C,SW22*%
X61925271Y-71376197D02*
X61018964Y-70953579D01*
X61925271Y-71376197D02*
X61502653Y-72282505D01*
X55102308Y-83641888D02*
X56008616Y-84064506D01*
X56008616Y-84064506D02*
X55102308Y-83641888D01*
X56431234Y-83158199D02*
X56008616Y-84064506D01*
X43320307Y-78147851D02*
X43742925Y-77241543D01*
X50143270Y-65882160D02*
X49236962Y-65459542D01*
X43320307Y-78147851D02*
X44226614Y-78570469D01*
X48814344Y-66365849D02*
X49236962Y-65459542D01*
%TO.C,SW21*%
X39422693Y-74675296D02*
X38516386Y-74252678D01*
X39422693Y-74675296D02*
X39000075Y-75581604D01*
X32599730Y-86940987D02*
X33506038Y-87363605D01*
X33506038Y-87363605D02*
X32599730Y-86940987D01*
X33928656Y-86457298D02*
X33506038Y-87363605D01*
X20817729Y-81446950D02*
X21240347Y-80540642D01*
X27640692Y-69181259D02*
X26734384Y-68758641D01*
X20817729Y-81446950D02*
X21724036Y-81869568D01*
X26311766Y-69664948D02*
X26734384Y-68758641D01*
%TO.C,SW20*%
X238843221Y-51538793D02*
X237936913Y-51961411D01*
X238843221Y-51538793D02*
X239265839Y-52445100D01*
X243853569Y-64649720D02*
X244759876Y-64227102D01*
X244759876Y-64227102D02*
X243853569Y-64649720D01*
X244337258Y-63320794D02*
X244759876Y-64227102D01*
X232071567Y-70143757D02*
X231648949Y-69237450D01*
X227061219Y-57032830D02*
X226154912Y-57455448D01*
X232071567Y-70143757D02*
X232977875Y-69721139D01*
X226577530Y-58361756D02*
X226154912Y-57455448D01*
%TO.C,SW19*%
X216340649Y-48239692D02*
X215434341Y-48662310D01*
X216340649Y-48239692D02*
X216763267Y-49145999D01*
X221350997Y-61350619D02*
X222257304Y-60928001D01*
X222257304Y-60928001D02*
X221350997Y-61350619D01*
X221834686Y-60021693D02*
X222257304Y-60928001D01*
X209568995Y-66844656D02*
X209146377Y-65938349D01*
X204558647Y-53733729D02*
X203652340Y-54156347D01*
X209568995Y-66844656D02*
X210475303Y-66422038D01*
X204074958Y-55062655D02*
X203652340Y-54156347D01*
%TO.C,SW18*%
X197007708Y-51737902D02*
X196101400Y-52160520D01*
X197007708Y-51737902D02*
X197430326Y-52644209D01*
X202018056Y-64848829D02*
X202924363Y-64426211D01*
X202924363Y-64426211D02*
X202018056Y-64848829D01*
X202501745Y-63519903D02*
X202924363Y-64426211D01*
X190236054Y-70342866D02*
X189813436Y-69436559D01*
X185225706Y-57231939D02*
X184319399Y-57654557D01*
X190236054Y-70342866D02*
X191142362Y-69920248D01*
X184742017Y-58560865D02*
X184319399Y-57654557D01*
%TO.C,SW17*%
X181900954Y-64299189D02*
X180994646Y-64721807D01*
X181900954Y-64299189D02*
X182323572Y-65205496D01*
X186911302Y-77410116D02*
X187817609Y-76987498D01*
X187817609Y-76987498D02*
X186911302Y-77410116D01*
X187394991Y-76081190D02*
X187817609Y-76987498D01*
X175129300Y-82904153D02*
X174706682Y-81997846D01*
X170118952Y-69793226D02*
X169212645Y-70215844D01*
X175129300Y-82904153D02*
X176035608Y-82481535D01*
X169635263Y-71122152D02*
X169212645Y-70215844D01*
%TO.C,SW16*%
X165737649Y-74594704D02*
X164831341Y-75017322D01*
X165737649Y-74594704D02*
X166160267Y-75501011D01*
X170747997Y-87705631D02*
X171654304Y-87283013D01*
X171654304Y-87283013D02*
X170747997Y-87705631D01*
X171231686Y-86376705D02*
X171654304Y-87283013D01*
X158965995Y-93199668D02*
X158543377Y-92293361D01*
X153955647Y-80088741D02*
X153049340Y-80511359D01*
X158965995Y-93199668D02*
X159872303Y-92777050D01*
X153471958Y-81417667D02*
X153049340Y-80511359D01*
%TO.C,SW15*%
X120558015Y-80511362D02*
X119651708Y-80088744D01*
X120558015Y-80511362D02*
X120135397Y-81417670D01*
X113735052Y-92777053D02*
X114641360Y-93199671D01*
X114641360Y-93199671D02*
X113735052Y-92777053D01*
X115063978Y-92293364D02*
X114641360Y-93199671D01*
X101953051Y-87283016D02*
X102375669Y-86376708D01*
X108776014Y-75017325D02*
X107869706Y-74594707D01*
X101953051Y-87283016D02*
X102859358Y-87705634D01*
X107447088Y-75501014D02*
X107869706Y-74594707D01*
%TO.C,SW14*%
X104394711Y-70215842D02*
X103488404Y-69793224D01*
X104394711Y-70215842D02*
X103972093Y-71122150D01*
X97571748Y-82481533D02*
X98478056Y-82904151D01*
X98478056Y-82904151D02*
X97571748Y-82481533D01*
X98900674Y-81997844D02*
X98478056Y-82904151D01*
X85789747Y-76987496D02*
X86212365Y-76081188D01*
X92612710Y-64721805D02*
X91706402Y-64299187D01*
X85789747Y-76987496D02*
X86696054Y-77410114D01*
X91283784Y-65205494D02*
X91706402Y-64299187D01*
%TO.C,SW13*%
X89287956Y-57654557D02*
X88381649Y-57231939D01*
X89287956Y-57654557D02*
X88865338Y-58560865D01*
X82464993Y-69920248D02*
X83371301Y-70342866D01*
X83371301Y-70342866D02*
X82464993Y-69920248D01*
X83793919Y-69436559D02*
X83371301Y-70342866D01*
X70682992Y-64426211D02*
X71105610Y-63519903D01*
X77505955Y-52160520D02*
X76599647Y-51737902D01*
X70682992Y-64426211D02*
X71589299Y-64848829D01*
X76177029Y-52644209D02*
X76599647Y-51737902D01*
%TO.C,SW12*%
X69955018Y-54156349D02*
X69048711Y-53733731D01*
X69955018Y-54156349D02*
X69532400Y-55062657D01*
X63132055Y-66422040D02*
X64038363Y-66844658D01*
X64038363Y-66844658D02*
X63132055Y-66422040D01*
X64460981Y-65938351D02*
X64038363Y-66844658D01*
X51350054Y-60928003D02*
X51772672Y-60021695D01*
X58173017Y-48662312D02*
X57266709Y-48239694D01*
X51350054Y-60928003D02*
X52256361Y-61350621D01*
X56844091Y-49146001D02*
X57266709Y-48239694D01*
%TO.C,SW11*%
X47452443Y-57455449D02*
X46546136Y-57032831D01*
X47452443Y-57455449D02*
X47029825Y-58361757D01*
X40629480Y-69721140D02*
X41535788Y-70143758D01*
X41535788Y-70143758D02*
X40629480Y-69721140D01*
X41958406Y-69237451D02*
X41535788Y-70143758D01*
X28847479Y-64227103D02*
X29270097Y-63320795D01*
X35670442Y-51961412D02*
X34764134Y-51538794D01*
X28847479Y-64227103D02*
X29753786Y-64649721D01*
X34341516Y-52445101D02*
X34764134Y-51538794D01*
%TO.C,SW10*%
X230813475Y-34318946D02*
X229907167Y-34741564D01*
X230813475Y-34318946D02*
X231236093Y-35225253D01*
X235823823Y-47429873D02*
X236730130Y-47007255D01*
X236730130Y-47007255D02*
X235823823Y-47429873D01*
X236307512Y-46100947D02*
X236730130Y-47007255D01*
X224041821Y-52923910D02*
X223619203Y-52017603D01*
X219031473Y-39812983D02*
X218125166Y-40235601D01*
X224041821Y-52923910D02*
X224948129Y-52501292D01*
X218547784Y-41141909D02*
X218125166Y-40235601D01*
%TO.C,SW9*%
X208310900Y-31019847D02*
X207404592Y-31442465D01*
X208310900Y-31019847D02*
X208733518Y-31926154D01*
X213321248Y-44130774D02*
X214227555Y-43708156D01*
X214227555Y-43708156D02*
X213321248Y-44130774D01*
X213804937Y-42801848D02*
X214227555Y-43708156D01*
X201539246Y-49624811D02*
X201116628Y-48718504D01*
X196528898Y-36513884D02*
X195622591Y-36936502D01*
X201539246Y-49624811D02*
X202445554Y-49202193D01*
X196045209Y-37842810D02*
X195622591Y-36936502D01*
%TO.C,SW8*%
X188977962Y-34518056D02*
X188071654Y-34940674D01*
X188977962Y-34518056D02*
X189400580Y-35424363D01*
X193988310Y-47628983D02*
X194894617Y-47206365D01*
X194894617Y-47206365D02*
X193988310Y-47628983D01*
X194471999Y-46300057D02*
X194894617Y-47206365D01*
X182206308Y-53123020D02*
X181783690Y-52216713D01*
X177195960Y-40012093D02*
X176289653Y-40434711D01*
X182206308Y-53123020D02*
X183112616Y-52700402D01*
X176712271Y-41341019D02*
X176289653Y-40434711D01*
%TO.C,SW7*%
X173871207Y-47079339D02*
X172964899Y-47501957D01*
X173871207Y-47079339D02*
X174293825Y-47985646D01*
X178881555Y-60190266D02*
X179787862Y-59767648D01*
X179787862Y-59767648D02*
X178881555Y-60190266D01*
X179365244Y-58861340D02*
X179787862Y-59767648D01*
X167099553Y-65684303D02*
X166676935Y-64777996D01*
X162089205Y-52573376D02*
X161182898Y-52995994D01*
X167099553Y-65684303D02*
X168005861Y-65261685D01*
X161605516Y-53902302D02*
X161182898Y-52995994D01*
%TO.C,SW6*%
X157707903Y-57374853D02*
X156801595Y-57797471D01*
X157707903Y-57374853D02*
X158130521Y-58281160D01*
X162718251Y-70485780D02*
X163624558Y-70063162D01*
X163624558Y-70063162D02*
X162718251Y-70485780D01*
X163201940Y-69156854D02*
X163624558Y-70063162D01*
X150936249Y-75979817D02*
X150513631Y-75073510D01*
X145925901Y-62868890D02*
X145019594Y-63291508D01*
X150936249Y-75979817D02*
X151842557Y-75557199D01*
X145442212Y-64197816D02*
X145019594Y-63291508D01*
%TO.C,SW5*%
X128587759Y-63291512D02*
X127681452Y-62868894D01*
X128587759Y-63291512D02*
X128165141Y-64197820D01*
X121764796Y-75557203D02*
X122671104Y-75979821D01*
X122671104Y-75979821D02*
X121764796Y-75557203D01*
X123093722Y-75073514D02*
X122671104Y-75979821D01*
X109982795Y-70063166D02*
X110405413Y-69156858D01*
X116805758Y-57797475D02*
X115899450Y-57374857D01*
X109982795Y-70063166D02*
X110889102Y-70485784D01*
X115476832Y-58281164D02*
X115899450Y-57374857D01*
%TO.C,SW4*%
X112424458Y-52995993D02*
X111518151Y-52573375D01*
X112424458Y-52995993D02*
X112001840Y-53902301D01*
X105601495Y-65261684D02*
X106507803Y-65684302D01*
X106507803Y-65684302D02*
X105601495Y-65261684D01*
X106930421Y-64777995D02*
X106507803Y-65684302D01*
X93819494Y-59767647D02*
X94242112Y-58861339D01*
X100642457Y-47501956D02*
X99736149Y-47079338D01*
X93819494Y-59767647D02*
X94725801Y-60190265D01*
X99313531Y-47985645D02*
X99736149Y-47079338D01*
%TO.C,SW3*%
X97317702Y-40434710D02*
X96411395Y-40012092D01*
X97317702Y-40434710D02*
X96895084Y-41341018D01*
X90494739Y-52700401D02*
X91401047Y-53123019D01*
X91401047Y-53123019D02*
X90494739Y-52700401D01*
X91823665Y-52216712D02*
X91401047Y-53123019D01*
X78712738Y-47206364D02*
X79135356Y-46300056D01*
X85535701Y-34940673D02*
X84629393Y-34518055D01*
X78712738Y-47206364D02*
X79619045Y-47628982D01*
X84206775Y-35424362D02*
X84629393Y-34518055D01*
%TO.C,SW2*%
X77984764Y-36936503D02*
X77078457Y-36513885D01*
X77984764Y-36936503D02*
X77562146Y-37842811D01*
X71161801Y-49202194D02*
X72068109Y-49624812D01*
X72068109Y-49624812D02*
X71161801Y-49202194D01*
X72490727Y-48718505D02*
X72068109Y-49624812D01*
X59379800Y-43708157D02*
X59802418Y-42801849D01*
X66202763Y-31442466D02*
X65296455Y-31019848D01*
X59379800Y-43708157D02*
X60286107Y-44130775D01*
X64873837Y-31926155D02*
X65296455Y-31019848D01*
%TO.C,SW1*%
X55482189Y-40235602D02*
X54575882Y-39812984D01*
X55482189Y-40235602D02*
X55059571Y-41141910D01*
X48659226Y-52501293D02*
X49565534Y-52923911D01*
X49565534Y-52923911D02*
X48659226Y-52501293D01*
X49988152Y-52017604D02*
X49565534Y-52923911D01*
X36877225Y-47007256D02*
X37299843Y-46100948D01*
X43700188Y-34741565D02*
X42793880Y-34318947D01*
X36877225Y-47007256D02*
X37783532Y-47429874D01*
X42371262Y-35225254D02*
X42793880Y-34318947D01*
D12*
%TO.C,U2*%
X127916271Y-59896125D02*
X127916271Y-62436125D01*
X145696271Y-59896125D02*
X127916271Y-59896125D01*
X145696271Y-62436125D02*
X145696271Y-59896125D01*
X145696271Y-92916125D02*
X145696271Y-62436125D01*
X127916271Y-92916125D02*
X145696271Y-92916125D01*
X127916271Y-62436125D02*
X127916271Y-92916125D01*
%TO.C,U1*%
X130456271Y-62436125D02*
X127916271Y-62436125D01*
X127916271Y-59896125D02*
X127916271Y-62436125D01*
X145696271Y-59896125D02*
X127916271Y-59896125D01*
X145696271Y-62436125D02*
X145696271Y-59896125D01*
D11*
G36*
X141737839Y-68915485D02*
G01*
X141737839Y-69115485D01*
X141637839Y-69115485D01*
X141637839Y-68915485D01*
X141737839Y-68915485D01*
G37*
X141737839Y-68915485D02*
X141737839Y-69115485D01*
X141637839Y-69115485D01*
X141637839Y-68915485D01*
X141737839Y-68915485D01*
G36*
X141337839Y-68315485D02*
G01*
X141337839Y-69115485D01*
X141237839Y-69115485D01*
X141237839Y-68315485D01*
X141337839Y-68315485D01*
G37*
X141337839Y-68315485D02*
X141337839Y-69115485D01*
X141237839Y-69115485D01*
X141237839Y-68315485D01*
X141337839Y-68315485D01*
G36*
X141737839Y-68315485D02*
G01*
X141737839Y-68415485D01*
X141237839Y-68415485D01*
X141237839Y-68315485D01*
X141737839Y-68315485D01*
G37*
X141737839Y-68315485D02*
X141737839Y-68415485D01*
X141237839Y-68415485D01*
X141237839Y-68315485D01*
X141737839Y-68315485D01*
G36*
X141537839Y-68715485D02*
G01*
X141537839Y-68815485D01*
X141437839Y-68815485D01*
X141437839Y-68715485D01*
X141537839Y-68715485D01*
G37*
X141537839Y-68715485D02*
X141537839Y-68815485D01*
X141437839Y-68815485D01*
X141437839Y-68715485D01*
X141537839Y-68715485D01*
G36*
X141737839Y-68315485D02*
G01*
X141737839Y-68615485D01*
X141637839Y-68615485D01*
X141637839Y-68315485D01*
X141737839Y-68315485D01*
G37*
X141737839Y-68315485D02*
X141737839Y-68615485D01*
X141637839Y-68615485D01*
X141637839Y-68315485D01*
X141737839Y-68315485D01*
D12*
X130456271Y-64976125D02*
X127916271Y-64976125D01*
X130456271Y-62436125D02*
X130456271Y-64976125D01*
X145696271Y-92916125D02*
X145696271Y-62436125D01*
X127916271Y-92916125D02*
X145696271Y-92916125D01*
X127916271Y-62436125D02*
X127916271Y-92916125D01*
D13*
%TO.C,SW43*%
X148306272Y-124434125D02*
X149306272Y-124434125D01*
X148806272Y-123934125D02*
X148806272Y-124934125D01*
X154906272Y-127934125D02*
X154906272Y-130334125D01*
X154906272Y-123134125D02*
X154906272Y-125734125D01*
X154906272Y-118534125D02*
X154906272Y-120934125D01*
X141606272Y-120334125D02*
X141306272Y-120634125D01*
X141006272Y-120334125D02*
X141606272Y-120334125D01*
X141306272Y-120634125D02*
X141006272Y-120334125D01*
X142706272Y-118534125D02*
X142706272Y-130334125D01*
X146806272Y-118534125D02*
X142706272Y-118534125D01*
X146806272Y-130334125D02*
X142706272Y-130334125D01*
X154906272Y-130334125D02*
X150806272Y-130334125D01*
X150806272Y-118534125D02*
X154906272Y-118534125D01*
X151806272Y-124434125D02*
G75*
G03*
X151806272Y-124434125I-3000000J0D01*
G01*
%TO.C,SW42*%
X125306270Y-124434125D02*
X124306270Y-124434125D01*
X124806270Y-124934125D02*
X124806270Y-123934125D01*
X118706270Y-120934125D02*
X118706270Y-118534125D01*
X118706270Y-125734125D02*
X118706270Y-123134125D01*
X118706270Y-130334125D02*
X118706270Y-127934125D01*
X132006270Y-128534125D02*
X132306270Y-128234125D01*
X132606270Y-128534125D02*
X132006270Y-128534125D01*
X132306270Y-128234125D02*
X132606270Y-128534125D01*
X130906270Y-130334125D02*
X130906270Y-118534125D01*
X126806270Y-130334125D02*
X130906270Y-130334125D01*
X126806270Y-118534125D02*
X130906270Y-118534125D01*
X118706270Y-118534125D02*
X122806270Y-118534125D01*
X122806270Y-130334125D02*
X118706270Y-130334125D01*
X127806270Y-124434125D02*
G75*
G03*
X127806270Y-124434125I-3000000J0D01*
G01*
%TO.C,Brd1*%
X123744272Y-157051123D02*
X123998272Y-157039123D01*
X123744272Y-140414123D02*
X123744272Y-157051123D01*
X127084272Y-140439123D02*
X123744272Y-140414123D01*
X127084272Y-157039123D02*
X123998272Y-157039123D01*
X141905272Y-159845123D02*
X141905272Y-157432123D01*
X132126272Y-157432123D02*
X141905272Y-157432123D01*
X132126272Y-159845123D02*
X132126272Y-157432123D01*
X141905272Y-159845123D02*
X132126272Y-159845123D01*
X150184272Y-157039123D02*
X127084272Y-157039123D01*
X150184272Y-140439123D02*
X150184272Y-157039123D01*
X127084272Y-140439123D02*
X150184272Y-140439123D01*
X150606272Y-133034123D02*
X150606272Y-160334123D01*
X123206272Y-133034123D02*
X150606272Y-133034123D01*
X123206272Y-160334123D02*
X123206272Y-133034123D01*
X150606272Y-160334123D02*
X123206272Y-160334123D01*
%TO.C,J1*%
X143806270Y-137834124D02*
X141806270Y-137834124D01*
X143806270Y-137834124D02*
X143806270Y-139834124D01*
X129806270Y-151834124D02*
X129806270Y-149834124D01*
X139306270Y-144834124D02*
G75*
G03*
X139306270Y-144834124I-2500000J0D01*
G01*
X143806270Y-151834124D02*
X141806270Y-151834124D01*
X129806270Y-137834124D02*
X131806270Y-137834124D01*
X129806270Y-137834124D02*
X129806270Y-139834124D01*
X143806270Y-151834124D02*
X143806270Y-149834124D01*
X129806270Y-139834124D02*
X129806270Y-137834124D01*
X143806270Y-139834124D02*
X143806270Y-137834124D01*
X129806270Y-151834124D02*
X130806270Y-151834124D01*
X130806270Y-151834124D02*
X131806270Y-151834124D01*
X131806270Y-151834124D02*
X129806270Y-151834124D01*
X124206270Y-150834124D02*
X121706270Y-150834124D01*
X124206270Y-138934124D02*
X124206270Y-150834124D01*
X121706270Y-150834124D02*
X121706270Y-138734124D01*
X124206270Y-138734124D02*
X124206270Y-138934124D01*
X121706270Y-138734124D02*
X124206270Y-138734124D01*
%TO.C,*%
D11*
%TO.C,U2*%
D14*
X132024556Y-90816696D02*
X132024556Y-91816696D01*
X132024556Y-90959553D02*
X132095985Y-90888125D01*
X132238842Y-90816696D01*
X132453128Y-90816696D01*
X132595985Y-90888125D01*
X132667413Y-91030982D01*
X132667413Y-91816696D01*
X133381699Y-91816696D02*
X133381699Y-90816696D01*
X133381699Y-90316696D02*
X133310271Y-90388125D01*
X133381699Y-90459553D01*
X133453128Y-90388125D01*
X133381699Y-90316696D01*
X133381699Y-90459553D01*
X134738842Y-91745267D02*
X134595985Y-91816696D01*
X134310271Y-91816696D01*
X134167413Y-91745267D01*
X134095985Y-91673839D01*
X134024556Y-91530982D01*
X134024556Y-91102410D01*
X134095985Y-90959553D01*
X134167413Y-90888125D01*
X134310271Y-90816696D01*
X134595985Y-90816696D01*
X134738842Y-90888125D01*
X135953128Y-91745267D02*
X135810271Y-91816696D01*
X135524556Y-91816696D01*
X135381699Y-91745267D01*
X135310271Y-91602410D01*
X135310271Y-91030982D01*
X135381699Y-90888125D01*
X135524556Y-90816696D01*
X135810271Y-90816696D01*
X135953128Y-90888125D01*
X136024556Y-91030982D01*
X136024556Y-91173839D01*
X135310271Y-91316696D01*
X136667413Y-91673839D02*
X136738842Y-91745267D01*
X136667413Y-91816696D01*
X136595985Y-91745267D01*
X136667413Y-91673839D01*
X136667413Y-91816696D01*
X136667413Y-91245267D02*
X136595985Y-90388125D01*
X136667413Y-90316696D01*
X136738842Y-90388125D01*
X136667413Y-91245267D01*
X136667413Y-90316696D01*
X137381699Y-90816696D02*
X137381699Y-91816696D01*
X137381699Y-90959553D02*
X137453128Y-90888125D01*
X137595985Y-90816696D01*
X137810271Y-90816696D01*
X137953128Y-90888125D01*
X138024556Y-91030982D01*
X138024556Y-91816696D01*
X139381699Y-91816696D02*
X139381699Y-91030982D01*
X139310271Y-90888125D01*
X139167413Y-90816696D01*
X138881699Y-90816696D01*
X138738842Y-90888125D01*
X139381699Y-91745267D02*
X139238842Y-91816696D01*
X138881699Y-91816696D01*
X138738842Y-91745267D01*
X138667413Y-91602410D01*
X138667413Y-91459553D01*
X138738842Y-91316696D01*
X138881699Y-91245267D01*
X139238842Y-91245267D01*
X139381699Y-91173839D01*
X140095985Y-90816696D02*
X140095985Y-91816696D01*
X140095985Y-90959553D02*
X140167413Y-90888125D01*
X140310271Y-90816696D01*
X140524556Y-90816696D01*
X140667413Y-90888125D01*
X140738842Y-91030982D01*
X140738842Y-91816696D01*
X141667413Y-91816696D02*
X141524556Y-91745267D01*
X141453128Y-91673839D01*
X141381699Y-91530982D01*
X141381699Y-91102410D01*
X141453128Y-90959553D01*
X141524556Y-90888125D01*
X141667413Y-90816696D01*
X141881699Y-90816696D01*
X142024556Y-90888125D01*
X142095985Y-90959553D01*
X142167413Y-91102410D01*
X142167413Y-91530982D01*
X142095985Y-91673839D01*
X142024556Y-91745267D01*
X141881699Y-91816696D01*
X141667413Y-91816696D01*
D11*
X139386271Y-88086029D02*
X139462461Y-88086029D01*
X139538651Y-88124125D01*
X139576747Y-88162220D01*
X139614842Y-88238410D01*
X139652937Y-88390791D01*
X139652937Y-88581267D01*
X139614842Y-88733648D01*
X139576747Y-88809839D01*
X139538651Y-88847934D01*
X139462461Y-88886029D01*
X139386271Y-88886029D01*
X139310080Y-88847934D01*
X139271985Y-88809839D01*
X139233890Y-88733648D01*
X139195794Y-88581267D01*
X139195794Y-88390791D01*
X139233890Y-88238410D01*
X139271985Y-88162220D01*
X139310080Y-88124125D01*
X139386271Y-88086029D01*
X140414842Y-88886029D02*
X139957699Y-88886029D01*
X140186271Y-88886029D02*
X140186271Y-88086029D01*
X140110080Y-88200315D01*
X140033890Y-88276505D01*
X139957699Y-88314601D01*
X140910080Y-88086029D02*
X140986271Y-88086029D01*
X141062461Y-88124125D01*
X141100556Y-88162220D01*
X141138651Y-88238410D01*
X141176747Y-88390791D01*
X141176747Y-88581267D01*
X141138651Y-88733648D01*
X141100556Y-88809839D01*
X141062461Y-88847934D01*
X140986271Y-88886029D01*
X140910080Y-88886029D01*
X140833890Y-88847934D01*
X140795794Y-88809839D01*
X140757699Y-88733648D01*
X140719604Y-88581267D01*
X140719604Y-88390791D01*
X140757699Y-88238410D01*
X140795794Y-88162220D01*
X140833890Y-88124125D01*
X140910080Y-88086029D01*
X139612937Y-82606029D02*
X139155794Y-82606029D01*
X139384366Y-82606029D02*
X139384366Y-81806029D01*
X139308175Y-81920315D01*
X139231985Y-81996505D01*
X139155794Y-82034601D01*
X140374842Y-82606029D02*
X139917699Y-82606029D01*
X140146271Y-82606029D02*
X140146271Y-81806029D01*
X140070080Y-81920315D01*
X139993890Y-81996505D01*
X139917699Y-82034601D01*
X141098651Y-81806029D02*
X140717699Y-81806029D01*
X140679604Y-82186982D01*
X140717699Y-82148886D01*
X140793890Y-82110791D01*
X140984366Y-82110791D01*
X141060556Y-82148886D01*
X141098651Y-82186982D01*
X141136747Y-82263172D01*
X141136747Y-82453648D01*
X141098651Y-82529839D01*
X141060556Y-82567934D01*
X140984366Y-82606029D01*
X140793890Y-82606029D01*
X140717699Y-82567934D01*
X140679604Y-82529839D01*
X139346271Y-78946029D02*
X139422461Y-78946029D01*
X139498651Y-78984125D01*
X139536747Y-79022220D01*
X139574842Y-79098410D01*
X139612937Y-79250791D01*
X139612937Y-79441267D01*
X139574842Y-79593648D01*
X139536747Y-79669839D01*
X139498651Y-79707934D01*
X139422461Y-79746029D01*
X139346271Y-79746029D01*
X139270080Y-79707934D01*
X139231985Y-79669839D01*
X139193890Y-79593648D01*
X139155794Y-79441267D01*
X139155794Y-79250791D01*
X139193890Y-79098410D01*
X139231985Y-79022220D01*
X139270080Y-78984125D01*
X139346271Y-78946029D01*
X140108175Y-78946029D02*
X140184366Y-78946029D01*
X140260556Y-78984125D01*
X140298651Y-79022220D01*
X140336747Y-79098410D01*
X140374842Y-79250791D01*
X140374842Y-79441267D01*
X140336747Y-79593648D01*
X140298651Y-79669839D01*
X140260556Y-79707934D01*
X140184366Y-79746029D01*
X140108175Y-79746029D01*
X140031985Y-79707934D01*
X139993890Y-79669839D01*
X139955794Y-79593648D01*
X139917699Y-79441267D01*
X139917699Y-79250791D01*
X139955794Y-79098410D01*
X139993890Y-79022220D01*
X140031985Y-78984125D01*
X140108175Y-78946029D01*
X140679604Y-79022220D02*
X140717699Y-78984125D01*
X140793890Y-78946029D01*
X140984366Y-78946029D01*
X141060556Y-78984125D01*
X141098651Y-79022220D01*
X141136747Y-79098410D01*
X141136747Y-79174601D01*
X141098651Y-79288886D01*
X140641509Y-79746029D01*
X141136747Y-79746029D01*
X139416271Y-76626029D02*
X139492461Y-76626029D01*
X139568651Y-76664125D01*
X139606747Y-76702220D01*
X139644842Y-76778410D01*
X139682937Y-76930791D01*
X139682937Y-77121267D01*
X139644842Y-77273648D01*
X139606747Y-77349839D01*
X139568651Y-77387934D01*
X139492461Y-77426029D01*
X139416271Y-77426029D01*
X139340080Y-77387934D01*
X139301985Y-77349839D01*
X139263890Y-77273648D01*
X139225794Y-77121267D01*
X139225794Y-76930791D01*
X139263890Y-76778410D01*
X139301985Y-76702220D01*
X139340080Y-76664125D01*
X139416271Y-76626029D01*
X139987699Y-76702220D02*
X140025794Y-76664125D01*
X140101985Y-76626029D01*
X140292461Y-76626029D01*
X140368651Y-76664125D01*
X140406747Y-76702220D01*
X140444842Y-76778410D01*
X140444842Y-76854601D01*
X140406747Y-76968886D01*
X139949604Y-77426029D01*
X140444842Y-77426029D01*
X140825794Y-77426029D02*
X140978175Y-77426029D01*
X141054366Y-77387934D01*
X141092461Y-77349839D01*
X141168651Y-77235553D01*
X141206747Y-77083172D01*
X141206747Y-76778410D01*
X141168651Y-76702220D01*
X141130556Y-76664125D01*
X141054366Y-76626029D01*
X140901985Y-76626029D01*
X140825794Y-76664125D01*
X140787699Y-76702220D01*
X140749604Y-76778410D01*
X140749604Y-76968886D01*
X140787699Y-77045077D01*
X140825794Y-77083172D01*
X140901985Y-77121267D01*
X141054366Y-77121267D01*
X141130556Y-77083172D01*
X141168651Y-77045077D01*
X141206747Y-76968886D01*
X139413890Y-64796029D02*
X139147223Y-64415077D01*
X138956747Y-64796029D02*
X138956747Y-63996029D01*
X139261509Y-63996029D01*
X139337699Y-64034125D01*
X139375794Y-64072220D01*
X139413890Y-64148410D01*
X139413890Y-64262696D01*
X139375794Y-64338886D01*
X139337699Y-64376982D01*
X139261509Y-64415077D01*
X138956747Y-64415077D01*
X139718651Y-64567458D02*
X140099604Y-64567458D01*
X139642461Y-64796029D02*
X139909128Y-63996029D01*
X140175794Y-64796029D01*
X140366271Y-63996029D02*
X140556747Y-64796029D01*
X140709128Y-64224601D01*
X140861509Y-64796029D01*
X141051985Y-63996029D01*
X141651414Y-65846125D02*
X141575223Y-65808029D01*
X141460938Y-65808029D01*
X141346652Y-65846125D01*
X141270461Y-65922315D01*
X141232366Y-65998505D01*
X141194271Y-66150886D01*
X141194271Y-66265172D01*
X141232366Y-66417553D01*
X141270461Y-66493744D01*
X141346652Y-66569934D01*
X141460938Y-66608029D01*
X141537128Y-66608029D01*
X141651414Y-66569934D01*
X141689509Y-66531839D01*
X141689509Y-66265172D01*
X141537128Y-66265172D01*
X142032366Y-66608029D02*
X142032366Y-65808029D01*
X142489509Y-66608029D01*
X142489509Y-65808029D01*
X142870461Y-66608029D02*
X142870461Y-65808029D01*
X143060938Y-65808029D01*
X143175223Y-65846125D01*
X143251414Y-65922315D01*
X143289509Y-65998505D01*
X143327604Y-66150886D01*
X143327604Y-66265172D01*
X143289509Y-66417553D01*
X143251414Y-66493744D01*
X143175223Y-66569934D01*
X143060938Y-66608029D01*
X142870461Y-66608029D01*
X141956175Y-69148029D02*
X141689509Y-68767077D01*
X141499032Y-69148029D02*
X141499032Y-68348029D01*
X141803794Y-68348029D01*
X141879985Y-68386125D01*
X141918080Y-68424220D01*
X141956175Y-68500410D01*
X141956175Y-68614696D01*
X141918080Y-68690886D01*
X141879985Y-68728982D01*
X141803794Y-68767077D01*
X141499032Y-68767077D01*
X142260937Y-69109934D02*
X142375223Y-69148029D01*
X142565699Y-69148029D01*
X142641890Y-69109934D01*
X142679985Y-69071839D01*
X142718080Y-68995648D01*
X142718080Y-68919458D01*
X142679985Y-68843267D01*
X142641890Y-68805172D01*
X142565699Y-68767077D01*
X142413318Y-68728982D01*
X142337128Y-68690886D01*
X142299032Y-68652791D01*
X142260937Y-68576601D01*
X142260937Y-68500410D01*
X142299032Y-68424220D01*
X142337128Y-68386125D01*
X142413318Y-68348029D01*
X142603794Y-68348029D01*
X142718080Y-68386125D01*
X142946651Y-68348029D02*
X143403794Y-68348029D01*
X143175223Y-69148029D02*
X143175223Y-68348029D01*
X141276795Y-70888029D02*
X141543462Y-71688029D01*
X141810128Y-70888029D01*
X142533938Y-71611839D02*
X142495842Y-71649934D01*
X142381557Y-71688029D01*
X142305366Y-71688029D01*
X142191081Y-71649934D01*
X142114890Y-71573744D01*
X142076795Y-71497553D01*
X142038700Y-71345172D01*
X142038700Y-71230886D01*
X142076795Y-71078505D01*
X142114890Y-71002315D01*
X142191081Y-70926125D01*
X142305366Y-70888029D01*
X142381557Y-70888029D01*
X142495842Y-70926125D01*
X142533938Y-70964220D01*
X143333938Y-71611839D02*
X143295842Y-71649934D01*
X143181557Y-71688029D01*
X143105366Y-71688029D01*
X142991081Y-71649934D01*
X142914890Y-71573744D01*
X142876795Y-71497553D01*
X142838700Y-71345172D01*
X142838700Y-71230886D01*
X142876795Y-71078505D01*
X142914890Y-71002315D01*
X142991081Y-70926125D01*
X143105366Y-70888029D01*
X143181557Y-70888029D01*
X143295842Y-70926125D01*
X143333938Y-70964220D01*
X139556271Y-73986029D02*
X139632461Y-73986029D01*
X139708651Y-74024125D01*
X139746747Y-74062220D01*
X139784842Y-74138410D01*
X139822937Y-74290791D01*
X139822937Y-74481267D01*
X139784842Y-74633648D01*
X139746747Y-74709839D01*
X139708651Y-74747934D01*
X139632461Y-74786029D01*
X139556271Y-74786029D01*
X139480080Y-74747934D01*
X139441985Y-74709839D01*
X139403890Y-74633648D01*
X139365794Y-74481267D01*
X139365794Y-74290791D01*
X139403890Y-74138410D01*
X139441985Y-74062220D01*
X139480080Y-74024125D01*
X139556271Y-73986029D01*
X140089604Y-73986029D02*
X140584842Y-73986029D01*
X140318175Y-74290791D01*
X140432461Y-74290791D01*
X140508651Y-74328886D01*
X140546747Y-74366982D01*
X140584842Y-74443172D01*
X140584842Y-74633648D01*
X140546747Y-74709839D01*
X140508651Y-74747934D01*
X140432461Y-74786029D01*
X140203890Y-74786029D01*
X140127699Y-74747934D01*
X140089604Y-74709839D01*
X141346747Y-74786029D02*
X140889604Y-74786029D01*
X141118175Y-74786029D02*
X141118175Y-73986029D01*
X141041985Y-74100315D01*
X140965794Y-74176505D01*
X140889604Y-74214601D01*
X139682937Y-85096029D02*
X139225794Y-85096029D01*
X139454366Y-85096029D02*
X139454366Y-84296029D01*
X139378175Y-84410315D01*
X139301985Y-84486505D01*
X139225794Y-84524601D01*
X140444842Y-85096029D02*
X139987699Y-85096029D01*
X140216271Y-85096029D02*
X140216271Y-84296029D01*
X140140080Y-84410315D01*
X140063890Y-84486505D01*
X139987699Y-84524601D01*
X140711509Y-84296029D02*
X141206747Y-84296029D01*
X140940080Y-84600791D01*
X141054366Y-84600791D01*
X141130556Y-84638886D01*
X141168651Y-84676982D01*
X141206747Y-84753172D01*
X141206747Y-84943648D01*
X141168651Y-85019839D01*
X141130556Y-85057934D01*
X141054366Y-85096029D01*
X140825794Y-85096029D01*
X140749604Y-85057934D01*
X140711509Y-85019839D01*
X139652937Y-87416029D02*
X139195794Y-87416029D01*
X139424366Y-87416029D02*
X139424366Y-86616029D01*
X139348175Y-86730315D01*
X139271985Y-86806505D01*
X139195794Y-86844601D01*
X140414842Y-87416029D02*
X139957699Y-87416029D01*
X140186271Y-87416029D02*
X140186271Y-86616029D01*
X140110080Y-86730315D01*
X140033890Y-86806505D01*
X139957699Y-86844601D01*
X141176747Y-87416029D02*
X140719604Y-87416029D01*
X140948175Y-87416029D02*
X140948175Y-86616029D01*
X140871985Y-86730315D01*
X140795794Y-86806505D01*
X140719604Y-86844601D01*
X131372937Y-88496029D02*
X130915794Y-88496029D01*
X131144366Y-88496029D02*
X131144366Y-87696029D01*
X131068175Y-87810315D01*
X130991985Y-87886505D01*
X130915794Y-87924601D01*
X131868175Y-87696029D02*
X131944366Y-87696029D01*
X132020556Y-87734125D01*
X132058651Y-87772220D01*
X132096747Y-87848410D01*
X132134842Y-88000791D01*
X132134842Y-88191267D01*
X132096747Y-88343648D01*
X132058651Y-88419839D01*
X132020556Y-88457934D01*
X131944366Y-88496029D01*
X131868175Y-88496029D01*
X131791985Y-88457934D01*
X131753890Y-88419839D01*
X131715794Y-88343648D01*
X131677699Y-88191267D01*
X131677699Y-88000791D01*
X131715794Y-87848410D01*
X131753890Y-87772220D01*
X131791985Y-87734125D01*
X131868175Y-87696029D01*
X132820556Y-87962696D02*
X132820556Y-88496029D01*
X132630080Y-87657934D02*
X132439604Y-88229363D01*
X132934842Y-88229363D01*
X133112937Y-84956029D02*
X132655794Y-84956029D01*
X132884366Y-84956029D02*
X132884366Y-84156029D01*
X132808175Y-84270315D01*
X132731985Y-84346505D01*
X132655794Y-84384601D01*
X133608175Y-84156029D02*
X133684366Y-84156029D01*
X133760556Y-84194125D01*
X133798651Y-84232220D01*
X133836747Y-84308410D01*
X133874842Y-84460791D01*
X133874842Y-84651267D01*
X133836747Y-84803648D01*
X133798651Y-84879839D01*
X133760556Y-84917934D01*
X133684366Y-84956029D01*
X133608175Y-84956029D01*
X133531985Y-84917934D01*
X133493890Y-84879839D01*
X133455794Y-84803648D01*
X133417699Y-84651267D01*
X133417699Y-84460791D01*
X133455794Y-84308410D01*
X133493890Y-84232220D01*
X133531985Y-84194125D01*
X133608175Y-84156029D01*
X134370080Y-84156029D02*
X134446271Y-84156029D01*
X134522461Y-84194125D01*
X134560556Y-84232220D01*
X134598651Y-84308410D01*
X134636747Y-84460791D01*
X134636747Y-84651267D01*
X134598651Y-84803648D01*
X134560556Y-84879839D01*
X134522461Y-84917934D01*
X134446271Y-84956029D01*
X134370080Y-84956029D01*
X134293890Y-84917934D01*
X134255794Y-84879839D01*
X134217699Y-84803648D01*
X134179604Y-84651267D01*
X134179604Y-84460791D01*
X134217699Y-84308410D01*
X134255794Y-84232220D01*
X134293890Y-84194125D01*
X134370080Y-84156029D01*
X132776271Y-81736029D02*
X132852461Y-81736029D01*
X132928651Y-81774125D01*
X132966747Y-81812220D01*
X133004842Y-81888410D01*
X133042937Y-82040791D01*
X133042937Y-82231267D01*
X133004842Y-82383648D01*
X132966747Y-82459839D01*
X132928651Y-82497934D01*
X132852461Y-82536029D01*
X132776271Y-82536029D01*
X132700080Y-82497934D01*
X132661985Y-82459839D01*
X132623890Y-82383648D01*
X132585794Y-82231267D01*
X132585794Y-82040791D01*
X132623890Y-81888410D01*
X132661985Y-81812220D01*
X132700080Y-81774125D01*
X132776271Y-81736029D01*
X133347699Y-81812220D02*
X133385794Y-81774125D01*
X133461985Y-81736029D01*
X133652461Y-81736029D01*
X133728651Y-81774125D01*
X133766747Y-81812220D01*
X133804842Y-81888410D01*
X133804842Y-81964601D01*
X133766747Y-82078886D01*
X133309604Y-82536029D01*
X133804842Y-82536029D01*
X134490556Y-82002696D02*
X134490556Y-82536029D01*
X134300080Y-81697934D02*
X134109604Y-82269363D01*
X134604842Y-82269363D01*
X132746271Y-79126029D02*
X132822461Y-79126029D01*
X132898651Y-79164125D01*
X132936747Y-79202220D01*
X132974842Y-79278410D01*
X133012937Y-79430791D01*
X133012937Y-79621267D01*
X132974842Y-79773648D01*
X132936747Y-79849839D01*
X132898651Y-79887934D01*
X132822461Y-79926029D01*
X132746271Y-79926029D01*
X132670080Y-79887934D01*
X132631985Y-79849839D01*
X132593890Y-79773648D01*
X132555794Y-79621267D01*
X132555794Y-79430791D01*
X132593890Y-79278410D01*
X132631985Y-79202220D01*
X132670080Y-79164125D01*
X132746271Y-79126029D01*
X133317699Y-79202220D02*
X133355794Y-79164125D01*
X133431985Y-79126029D01*
X133622461Y-79126029D01*
X133698651Y-79164125D01*
X133736747Y-79202220D01*
X133774842Y-79278410D01*
X133774842Y-79354601D01*
X133736747Y-79468886D01*
X133279604Y-79926029D01*
X133774842Y-79926029D01*
X134079604Y-79202220D02*
X134117699Y-79164125D01*
X134193890Y-79126029D01*
X134384366Y-79126029D01*
X134460556Y-79164125D01*
X134498651Y-79202220D01*
X134536747Y-79278410D01*
X134536747Y-79354601D01*
X134498651Y-79468886D01*
X134041509Y-79926029D01*
X134536747Y-79926029D01*
X130735747Y-68386125D02*
X130659556Y-68348029D01*
X130545271Y-68348029D01*
X130430985Y-68386125D01*
X130354794Y-68462315D01*
X130316699Y-68538505D01*
X130278604Y-68690886D01*
X130278604Y-68805172D01*
X130316699Y-68957553D01*
X130354794Y-69033744D01*
X130430985Y-69109934D01*
X130545271Y-69148029D01*
X130621461Y-69148029D01*
X130735747Y-69109934D01*
X130773842Y-69071839D01*
X130773842Y-68805172D01*
X130621461Y-68805172D01*
X131116699Y-69148029D02*
X131116699Y-68348029D01*
X131573842Y-69148029D01*
X131573842Y-68348029D01*
X131954794Y-69148029D02*
X131954794Y-68348029D01*
X132145271Y-68348029D01*
X132259556Y-68386125D01*
X132335747Y-68462315D01*
X132373842Y-68538505D01*
X132411937Y-68690886D01*
X132411937Y-68805172D01*
X132373842Y-68957553D01*
X132335747Y-69033744D01*
X132259556Y-69109934D01*
X132145271Y-69148029D01*
X131954794Y-69148029D01*
X130735747Y-70926125D02*
X130659556Y-70888029D01*
X130545271Y-70888029D01*
X130430985Y-70926125D01*
X130354794Y-71002315D01*
X130316699Y-71078505D01*
X130278604Y-71230886D01*
X130278604Y-71345172D01*
X130316699Y-71497553D01*
X130354794Y-71573744D01*
X130430985Y-71649934D01*
X130545271Y-71688029D01*
X130621461Y-71688029D01*
X130735747Y-71649934D01*
X130773842Y-71611839D01*
X130773842Y-71345172D01*
X130621461Y-71345172D01*
X131116699Y-71688029D02*
X131116699Y-70888029D01*
X131573842Y-71688029D01*
X131573842Y-70888029D01*
X131954794Y-71688029D02*
X131954794Y-70888029D01*
X132145271Y-70888029D01*
X132259556Y-70926125D01*
X132335747Y-71002315D01*
X132373842Y-71078505D01*
X132411937Y-71230886D01*
X132411937Y-71345172D01*
X132373842Y-71497553D01*
X132335747Y-71573744D01*
X132259556Y-71649934D01*
X132145271Y-71688029D01*
X131954794Y-71688029D01*
X132706271Y-73846029D02*
X132782461Y-73846029D01*
X132858651Y-73884125D01*
X132896747Y-73922220D01*
X132934842Y-73998410D01*
X132972937Y-74150791D01*
X132972937Y-74341267D01*
X132934842Y-74493648D01*
X132896747Y-74569839D01*
X132858651Y-74607934D01*
X132782461Y-74646029D01*
X132706271Y-74646029D01*
X132630080Y-74607934D01*
X132591985Y-74569839D01*
X132553890Y-74493648D01*
X132515794Y-74341267D01*
X132515794Y-74150791D01*
X132553890Y-73998410D01*
X132591985Y-73922220D01*
X132630080Y-73884125D01*
X132706271Y-73846029D01*
X133734842Y-74646029D02*
X133277699Y-74646029D01*
X133506271Y-74646029D02*
X133506271Y-73846029D01*
X133430080Y-73960315D01*
X133353890Y-74036505D01*
X133277699Y-74074601D01*
X134001509Y-73846029D02*
X134534842Y-73846029D01*
X134191985Y-74646029D01*
X132676271Y-76696029D02*
X132752461Y-76696029D01*
X132828651Y-76734125D01*
X132866747Y-76772220D01*
X132904842Y-76848410D01*
X132942937Y-77000791D01*
X132942937Y-77191267D01*
X132904842Y-77343648D01*
X132866747Y-77419839D01*
X132828651Y-77457934D01*
X132752461Y-77496029D01*
X132676271Y-77496029D01*
X132600080Y-77457934D01*
X132561985Y-77419839D01*
X132523890Y-77343648D01*
X132485794Y-77191267D01*
X132485794Y-77000791D01*
X132523890Y-76848410D01*
X132561985Y-76772220D01*
X132600080Y-76734125D01*
X132676271Y-76696029D01*
X133247699Y-76772220D02*
X133285794Y-76734125D01*
X133361985Y-76696029D01*
X133552461Y-76696029D01*
X133628651Y-76734125D01*
X133666747Y-76772220D01*
X133704842Y-76848410D01*
X133704842Y-76924601D01*
X133666747Y-77038886D01*
X133209604Y-77496029D01*
X133704842Y-77496029D01*
X134200080Y-76696029D02*
X134276271Y-76696029D01*
X134352461Y-76734125D01*
X134390556Y-76772220D01*
X134428651Y-76848410D01*
X134466747Y-77000791D01*
X134466747Y-77191267D01*
X134428651Y-77343648D01*
X134390556Y-77419839D01*
X134352461Y-77457934D01*
X134276271Y-77496029D01*
X134200080Y-77496029D01*
X134123890Y-77457934D01*
X134085794Y-77419839D01*
X134047699Y-77343648D01*
X134009604Y-77191267D01*
X134009604Y-77000791D01*
X134047699Y-76848410D01*
X134085794Y-76772220D01*
X134123890Y-76734125D01*
X134200080Y-76696029D01*
X132746271Y-66456029D02*
X132822461Y-66456029D01*
X132898651Y-66494125D01*
X132936747Y-66532220D01*
X132974842Y-66608410D01*
X133012937Y-66760791D01*
X133012937Y-66951267D01*
X132974842Y-67103648D01*
X132936747Y-67179839D01*
X132898651Y-67217934D01*
X132822461Y-67256029D01*
X132746271Y-67256029D01*
X132670080Y-67217934D01*
X132631985Y-67179839D01*
X132593890Y-67103648D01*
X132555794Y-66951267D01*
X132555794Y-66760791D01*
X132593890Y-66608410D01*
X132631985Y-66532220D01*
X132670080Y-66494125D01*
X132746271Y-66456029D01*
X133508175Y-66456029D02*
X133584366Y-66456029D01*
X133660556Y-66494125D01*
X133698651Y-66532220D01*
X133736747Y-66608410D01*
X133774842Y-66760791D01*
X133774842Y-66951267D01*
X133736747Y-67103648D01*
X133698651Y-67179839D01*
X133660556Y-67217934D01*
X133584366Y-67256029D01*
X133508175Y-67256029D01*
X133431985Y-67217934D01*
X133393890Y-67179839D01*
X133355794Y-67103648D01*
X133317699Y-66951267D01*
X133317699Y-66760791D01*
X133355794Y-66608410D01*
X133393890Y-66532220D01*
X133431985Y-66494125D01*
X133508175Y-66456029D01*
X134231985Y-66798886D02*
X134155794Y-66760791D01*
X134117699Y-66722696D01*
X134079604Y-66646505D01*
X134079604Y-66608410D01*
X134117699Y-66532220D01*
X134155794Y-66494125D01*
X134231985Y-66456029D01*
X134384366Y-66456029D01*
X134460556Y-66494125D01*
X134498651Y-66532220D01*
X134536747Y-66608410D01*
X134536747Y-66646505D01*
X134498651Y-66722696D01*
X134460556Y-66760791D01*
X134384366Y-66798886D01*
X134231985Y-66798886D01*
X134155794Y-66836982D01*
X134117699Y-66875077D01*
X134079604Y-66951267D01*
X134079604Y-67103648D01*
X134117699Y-67179839D01*
X134155794Y-67217934D01*
X134231985Y-67256029D01*
X134384366Y-67256029D01*
X134460556Y-67217934D01*
X134498651Y-67179839D01*
X134536747Y-67103648D01*
X134536747Y-66951267D01*
X134498651Y-66875077D01*
X134460556Y-66836982D01*
X134384366Y-66798886D01*
X134066271Y-64316029D02*
X134142461Y-64316029D01*
X134218651Y-64354125D01*
X134256747Y-64392220D01*
X134294842Y-64468410D01*
X134332937Y-64620791D01*
X134332937Y-64811267D01*
X134294842Y-64963648D01*
X134256747Y-65039839D01*
X134218651Y-65077934D01*
X134142461Y-65116029D01*
X134066271Y-65116029D01*
X133990080Y-65077934D01*
X133951985Y-65039839D01*
X133913890Y-64963648D01*
X133875794Y-64811267D01*
X133875794Y-64620791D01*
X133913890Y-64468410D01*
X133951985Y-64392220D01*
X133990080Y-64354125D01*
X134066271Y-64316029D01*
X134828175Y-64316029D02*
X134904366Y-64316029D01*
X134980556Y-64354125D01*
X135018651Y-64392220D01*
X135056747Y-64468410D01*
X135094842Y-64620791D01*
X135094842Y-64811267D01*
X135056747Y-64963648D01*
X135018651Y-65039839D01*
X134980556Y-65077934D01*
X134904366Y-65116029D01*
X134828175Y-65116029D01*
X134751985Y-65077934D01*
X134713890Y-65039839D01*
X134675794Y-64963648D01*
X134637699Y-64811267D01*
X134637699Y-64620791D01*
X134675794Y-64468410D01*
X134713890Y-64392220D01*
X134751985Y-64354125D01*
X134828175Y-64316029D01*
X135780556Y-64316029D02*
X135628175Y-64316029D01*
X135551985Y-64354125D01*
X135513890Y-64392220D01*
X135437699Y-64506505D01*
X135399604Y-64658886D01*
X135399604Y-64963648D01*
X135437699Y-65039839D01*
X135475794Y-65077934D01*
X135551985Y-65116029D01*
X135704366Y-65116029D01*
X135780556Y-65077934D01*
X135818651Y-65039839D01*
X135856747Y-64963648D01*
X135856747Y-64773172D01*
X135818651Y-64696982D01*
X135780556Y-64658886D01*
X135704366Y-64620791D01*
X135551985Y-64620791D01*
X135475794Y-64658886D01*
X135437699Y-64696982D01*
X135399604Y-64773172D01*
%TO.C,U1*%
X133675794Y-90438029D02*
X133675794Y-89638029D01*
X133866271Y-89638029D01*
X133980556Y-89676125D01*
X134056747Y-89752315D01*
X134094842Y-89828505D01*
X134132937Y-89980886D01*
X134132937Y-90095172D01*
X134094842Y-90247553D01*
X134056747Y-90323744D01*
X133980556Y-90399934D01*
X133866271Y-90438029D01*
X133675794Y-90438029D01*
X134856747Y-89638029D02*
X134475794Y-89638029D01*
X134437699Y-90018982D01*
X134475794Y-89980886D01*
X134551985Y-89942791D01*
X134742461Y-89942791D01*
X134818651Y-89980886D01*
X134856747Y-90018982D01*
X134894842Y-90095172D01*
X134894842Y-90285648D01*
X134856747Y-90361839D01*
X134818651Y-90399934D01*
X134742461Y-90438029D01*
X134551985Y-90438029D01*
X134475794Y-90399934D01*
X134437699Y-90361839D01*
X139079604Y-90018982D02*
X138812937Y-90018982D01*
X138812937Y-90438029D02*
X138812937Y-89638029D01*
X139193890Y-89638029D01*
X139917699Y-90438029D02*
X139460556Y-90438029D01*
X139689128Y-90438029D02*
X139689128Y-89638029D01*
X139612937Y-89752315D01*
X139536747Y-89828505D01*
X139460556Y-89866601D01*
X136672937Y-90361839D02*
X136634842Y-90399934D01*
X136520556Y-90438029D01*
X136444366Y-90438029D01*
X136330080Y-90399934D01*
X136253890Y-90323744D01*
X136215794Y-90247553D01*
X136177699Y-90095172D01*
X136177699Y-89980886D01*
X136215794Y-89828505D01*
X136253890Y-89752315D01*
X136330080Y-89676125D01*
X136444366Y-89638029D01*
X136520556Y-89638029D01*
X136634842Y-89676125D01*
X136672937Y-89714220D01*
X136939604Y-89638029D02*
X137472937Y-89638029D01*
X137130080Y-90438029D01*
X142970568Y-90541116D02*
X143064849Y-90493976D01*
X143111990Y-90493976D01*
X143182700Y-90517546D01*
X143253411Y-90588257D01*
X143276981Y-90658967D01*
X143276981Y-90706108D01*
X143253411Y-90776818D01*
X143064849Y-90965380D01*
X142569874Y-90470405D01*
X142734866Y-90305414D01*
X142805577Y-90281844D01*
X142852717Y-90281844D01*
X142923428Y-90305414D01*
X142970568Y-90352554D01*
X142994138Y-90423265D01*
X142994138Y-90470405D01*
X142970568Y-90541116D01*
X142805577Y-90706108D01*
X143276981Y-89763299D02*
X143182700Y-89857580D01*
X143159130Y-89928290D01*
X143159130Y-89975431D01*
X143182700Y-90093282D01*
X143253411Y-90211133D01*
X143441973Y-90399695D01*
X143512683Y-90423265D01*
X143559824Y-90423265D01*
X143630535Y-90399695D01*
X143724815Y-90305414D01*
X143748386Y-90234703D01*
X143748386Y-90187563D01*
X143724815Y-90116852D01*
X143606964Y-89999001D01*
X143536254Y-89975431D01*
X143489113Y-89975431D01*
X143418403Y-89999001D01*
X143324122Y-90093282D01*
X143300551Y-90163992D01*
X143300551Y-90211133D01*
X143324122Y-90281844D01*
X141072937Y-90226125D02*
X140839604Y-90226125D01*
X140839604Y-90592791D02*
X140839604Y-89892791D01*
X141172937Y-89892791D01*
X141572937Y-89892791D02*
X141639604Y-89892791D01*
X141706271Y-89926125D01*
X141739604Y-89959458D01*
X141772937Y-90026125D01*
X141806271Y-90159458D01*
X141806271Y-90326125D01*
X141772937Y-90459458D01*
X141739604Y-90526125D01*
X141706271Y-90559458D01*
X141639604Y-90592791D01*
X141572937Y-90592791D01*
X141506271Y-90559458D01*
X141472937Y-90526125D01*
X141439604Y-90459458D01*
X141406271Y-90326125D01*
X141406271Y-90159458D01*
X141439604Y-90026125D01*
X141472937Y-89959458D01*
X141506271Y-89926125D01*
X141572937Y-89892791D01*
X132022937Y-90226125D02*
X132122937Y-90259458D01*
X132156271Y-90292791D01*
X132189604Y-90359458D01*
X132189604Y-90459458D01*
X132156271Y-90526125D01*
X132122937Y-90559458D01*
X132056271Y-90592791D01*
X131789604Y-90592791D01*
X131789604Y-89892791D01*
X132022937Y-89892791D01*
X132089604Y-89926125D01*
X132122937Y-89959458D01*
X132156271Y-90026125D01*
X132156271Y-90092791D01*
X132122937Y-90159458D01*
X132089604Y-90192791D01*
X132022937Y-90226125D01*
X131789604Y-90226125D01*
X132422937Y-89892791D02*
X132889604Y-89892791D01*
X132589604Y-90592791D01*
X131043922Y-63268029D02*
X131501065Y-63268029D01*
X131272494Y-64068029D02*
X131272494Y-63268029D01*
X131691541Y-63268029D02*
X132224875Y-64068029D01*
X132224875Y-63268029D02*
X131691541Y-64068029D01*
X132682018Y-63268029D02*
X132758208Y-63268029D01*
X132834399Y-63306125D01*
X132872494Y-63344220D01*
X132910589Y-63420410D01*
X132948684Y-63572791D01*
X132948684Y-63763267D01*
X132910589Y-63915648D01*
X132872494Y-63991839D01*
X132834399Y-64029934D01*
X132758208Y-64068029D01*
X132682018Y-64068029D01*
X132605827Y-64029934D01*
X132567732Y-63991839D01*
X132529637Y-63915648D01*
X132491541Y-63763267D01*
X132491541Y-63572791D01*
X132529637Y-63420410D01*
X132567732Y-63344220D01*
X132605827Y-63306125D01*
X132682018Y-63268029D01*
X133862970Y-63229934D02*
X133177256Y-64258505D01*
X134129637Y-64068029D02*
X134129637Y-63268029D01*
X134320113Y-63268029D01*
X134434399Y-63306125D01*
X134510589Y-63382315D01*
X134548684Y-63458505D01*
X134586779Y-63610886D01*
X134586779Y-63725172D01*
X134548684Y-63877553D01*
X134510589Y-63953744D01*
X134434399Y-64029934D01*
X134320113Y-64068029D01*
X134129637Y-64068029D01*
X134853446Y-63268029D02*
X135348684Y-63268029D01*
X135082018Y-63572791D01*
X135196303Y-63572791D01*
X135272494Y-63610886D01*
X135310589Y-63648982D01*
X135348684Y-63725172D01*
X135348684Y-63915648D01*
X135310589Y-63991839D01*
X135272494Y-64029934D01*
X135196303Y-64068029D01*
X134967732Y-64068029D01*
X134891541Y-64029934D01*
X134853446Y-63991839D01*
X130754794Y-66608029D02*
X130754794Y-65808029D01*
X130945271Y-65808029D01*
X131059556Y-65846125D01*
X131135747Y-65922315D01*
X131173842Y-65998505D01*
X131211937Y-66150886D01*
X131211937Y-66265172D01*
X131173842Y-66417553D01*
X131135747Y-66493744D01*
X131059556Y-66569934D01*
X130945271Y-66608029D01*
X130754794Y-66608029D01*
X131516699Y-65884220D02*
X131554794Y-65846125D01*
X131630985Y-65808029D01*
X131821461Y-65808029D01*
X131897651Y-65846125D01*
X131935747Y-65884220D01*
X131973842Y-65960410D01*
X131973842Y-66036601D01*
X131935747Y-66150886D01*
X131478604Y-66608029D01*
X131973842Y-66608029D01*
X130754794Y-76768029D02*
X130754794Y-75968029D01*
X130945271Y-75968029D01*
X131059556Y-76006125D01*
X131135747Y-76082315D01*
X131173842Y-76158505D01*
X131211937Y-76310886D01*
X131211937Y-76425172D01*
X131173842Y-76577553D01*
X131135747Y-76653744D01*
X131059556Y-76729934D01*
X130945271Y-76768029D01*
X130754794Y-76768029D01*
X131707175Y-75968029D02*
X131783366Y-75968029D01*
X131859556Y-76006125D01*
X131897651Y-76044220D01*
X131935747Y-76120410D01*
X131973842Y-76272791D01*
X131973842Y-76463267D01*
X131935747Y-76615648D01*
X131897651Y-76691839D01*
X131859556Y-76729934D01*
X131783366Y-76768029D01*
X131707175Y-76768029D01*
X131630985Y-76729934D01*
X131592890Y-76691839D01*
X131554794Y-76615648D01*
X131516699Y-76463267D01*
X131516699Y-76272791D01*
X131554794Y-76120410D01*
X131592890Y-76044220D01*
X131630985Y-76006125D01*
X131707175Y-75968029D01*
X130754794Y-74228029D02*
X130754794Y-73428029D01*
X130945271Y-73428029D01*
X131059556Y-73466125D01*
X131135747Y-73542315D01*
X131173842Y-73618505D01*
X131211937Y-73770886D01*
X131211937Y-73885172D01*
X131173842Y-74037553D01*
X131135747Y-74113744D01*
X131059556Y-74189934D01*
X130945271Y-74228029D01*
X130754794Y-74228029D01*
X131973842Y-74228029D02*
X131516699Y-74228029D01*
X131745271Y-74228029D02*
X131745271Y-73428029D01*
X131669080Y-73542315D01*
X131592890Y-73618505D01*
X131516699Y-73656601D01*
X130735747Y-70926125D02*
X130659556Y-70888029D01*
X130545271Y-70888029D01*
X130430985Y-70926125D01*
X130354794Y-71002315D01*
X130316699Y-71078505D01*
X130278604Y-71230886D01*
X130278604Y-71345172D01*
X130316699Y-71497553D01*
X130354794Y-71573744D01*
X130430985Y-71649934D01*
X130545271Y-71688029D01*
X130621461Y-71688029D01*
X130735747Y-71649934D01*
X130773842Y-71611839D01*
X130773842Y-71345172D01*
X130621461Y-71345172D01*
X131116699Y-71688029D02*
X131116699Y-70888029D01*
X131573842Y-71688029D01*
X131573842Y-70888029D01*
X131954794Y-71688029D02*
X131954794Y-70888029D01*
X132145271Y-70888029D01*
X132259556Y-70926125D01*
X132335747Y-71002315D01*
X132373842Y-71078505D01*
X132411937Y-71230886D01*
X132411937Y-71345172D01*
X132373842Y-71497553D01*
X132335747Y-71573744D01*
X132259556Y-71649934D01*
X132145271Y-71688029D01*
X131954794Y-71688029D01*
X130735747Y-68386125D02*
X130659556Y-68348029D01*
X130545271Y-68348029D01*
X130430985Y-68386125D01*
X130354794Y-68462315D01*
X130316699Y-68538505D01*
X130278604Y-68690886D01*
X130278604Y-68805172D01*
X130316699Y-68957553D01*
X130354794Y-69033744D01*
X130430985Y-69109934D01*
X130545271Y-69148029D01*
X130621461Y-69148029D01*
X130735747Y-69109934D01*
X130773842Y-69071839D01*
X130773842Y-68805172D01*
X130621461Y-68805172D01*
X131116699Y-69148029D02*
X131116699Y-68348029D01*
X131573842Y-69148029D01*
X131573842Y-68348029D01*
X131954794Y-69148029D02*
X131954794Y-68348029D01*
X132145271Y-68348029D01*
X132259556Y-68386125D01*
X132335747Y-68462315D01*
X132373842Y-68538505D01*
X132411937Y-68690886D01*
X132411937Y-68805172D01*
X132373842Y-68957553D01*
X132335747Y-69033744D01*
X132259556Y-69109934D01*
X132145271Y-69148029D01*
X131954794Y-69148029D01*
X130754794Y-79308029D02*
X130754794Y-78508029D01*
X130945271Y-78508029D01*
X131059556Y-78546125D01*
X131135747Y-78622315D01*
X131173842Y-78698505D01*
X131211937Y-78850886D01*
X131211937Y-78965172D01*
X131173842Y-79117553D01*
X131135747Y-79193744D01*
X131059556Y-79269934D01*
X130945271Y-79308029D01*
X130754794Y-79308029D01*
X131897651Y-78774696D02*
X131897651Y-79308029D01*
X131707175Y-78469934D02*
X131516699Y-79041363D01*
X132011937Y-79041363D01*
X131211937Y-81771839D02*
X131173842Y-81809934D01*
X131059556Y-81848029D01*
X130983366Y-81848029D01*
X130869080Y-81809934D01*
X130792890Y-81733744D01*
X130754794Y-81657553D01*
X130716699Y-81505172D01*
X130716699Y-81390886D01*
X130754794Y-81238505D01*
X130792890Y-81162315D01*
X130869080Y-81086125D01*
X130983366Y-81048029D01*
X131059556Y-81048029D01*
X131173842Y-81086125D01*
X131211937Y-81124220D01*
X131897651Y-81048029D02*
X131745271Y-81048029D01*
X131669080Y-81086125D01*
X131630985Y-81124220D01*
X131554794Y-81238505D01*
X131516699Y-81390886D01*
X131516699Y-81695648D01*
X131554794Y-81771839D01*
X131592890Y-81809934D01*
X131669080Y-81848029D01*
X131821461Y-81848029D01*
X131897651Y-81809934D01*
X131935747Y-81771839D01*
X131973842Y-81695648D01*
X131973842Y-81505172D01*
X131935747Y-81428982D01*
X131897651Y-81390886D01*
X131821461Y-81352791D01*
X131669080Y-81352791D01*
X131592890Y-81390886D01*
X131554794Y-81428982D01*
X131516699Y-81505172D01*
X130754794Y-84388029D02*
X130754794Y-83588029D01*
X130945271Y-83588029D01*
X131059556Y-83626125D01*
X131135747Y-83702315D01*
X131173842Y-83778505D01*
X131211937Y-83930886D01*
X131211937Y-84045172D01*
X131173842Y-84197553D01*
X131135747Y-84273744D01*
X131059556Y-84349934D01*
X130945271Y-84388029D01*
X130754794Y-84388029D01*
X131478604Y-83588029D02*
X132011937Y-83588029D01*
X131669080Y-84388029D01*
X130792890Y-86508982D02*
X131059556Y-86508982D01*
X131173842Y-86928029D02*
X130792890Y-86928029D01*
X130792890Y-86128029D01*
X131173842Y-86128029D01*
X131859556Y-86128029D02*
X131707175Y-86128029D01*
X131630985Y-86166125D01*
X131592890Y-86204220D01*
X131516699Y-86318505D01*
X131478604Y-86470886D01*
X131478604Y-86775648D01*
X131516699Y-86851839D01*
X131554794Y-86889934D01*
X131630985Y-86928029D01*
X131783366Y-86928029D01*
X131859556Y-86889934D01*
X131897651Y-86851839D01*
X131935747Y-86775648D01*
X131935747Y-86585172D01*
X131897651Y-86508982D01*
X131859556Y-86470886D01*
X131783366Y-86432791D01*
X131630985Y-86432791D01*
X131554794Y-86470886D01*
X131516699Y-86508982D01*
X131478604Y-86585172D01*
X131021461Y-89048982D02*
X131135747Y-89087077D01*
X131173842Y-89125172D01*
X131211937Y-89201363D01*
X131211937Y-89315648D01*
X131173842Y-89391839D01*
X131135747Y-89429934D01*
X131059556Y-89468029D01*
X130754794Y-89468029D01*
X130754794Y-88668029D01*
X131021461Y-88668029D01*
X131097651Y-88706125D01*
X131135747Y-88744220D01*
X131173842Y-88820410D01*
X131173842Y-88896601D01*
X131135747Y-88972791D01*
X131097651Y-89010886D01*
X131021461Y-89048982D01*
X130754794Y-89048982D01*
X131897651Y-88934696D02*
X131897651Y-89468029D01*
X131707175Y-88629934D02*
X131516699Y-89201363D01*
X132011937Y-89201363D01*
X130241279Y-90140422D02*
X130288419Y-90234703D01*
X130288419Y-90281844D01*
X130264849Y-90352554D01*
X130194138Y-90423265D01*
X130123428Y-90446835D01*
X130076287Y-90446835D01*
X130005577Y-90423265D01*
X129817015Y-90234703D01*
X130311990Y-89739728D01*
X130476981Y-89904720D01*
X130500551Y-89975431D01*
X130500551Y-90022571D01*
X130476981Y-90093282D01*
X130429841Y-90140422D01*
X130359130Y-90163992D01*
X130311990Y-90163992D01*
X130241279Y-90140422D01*
X130076287Y-89975431D01*
X131042667Y-90470405D02*
X130806964Y-90234703D01*
X130547692Y-90446835D01*
X130594832Y-90446835D01*
X130665543Y-90470405D01*
X130783394Y-90588257D01*
X130806964Y-90658967D01*
X130806964Y-90706108D01*
X130783394Y-90776818D01*
X130665543Y-90894669D01*
X130594832Y-90918240D01*
X130547692Y-90918240D01*
X130476981Y-90894669D01*
X130359130Y-90776818D01*
X130335560Y-90706108D01*
X130335560Y-90658967D01*
X141943461Y-86508982D02*
X142057747Y-86547077D01*
X142095842Y-86585172D01*
X142133937Y-86661363D01*
X142133937Y-86775648D01*
X142095842Y-86851839D01*
X142057747Y-86889934D01*
X141981556Y-86928029D01*
X141676794Y-86928029D01*
X141676794Y-86128029D01*
X141943461Y-86128029D01*
X142019651Y-86166125D01*
X142057747Y-86204220D01*
X142095842Y-86280410D01*
X142095842Y-86356601D01*
X142057747Y-86432791D01*
X142019651Y-86470886D01*
X141943461Y-86508982D01*
X141676794Y-86508982D01*
X142400604Y-86128029D02*
X142895842Y-86128029D01*
X142629175Y-86432791D01*
X142743461Y-86432791D01*
X142819651Y-86470886D01*
X142857747Y-86508982D01*
X142895842Y-86585172D01*
X142895842Y-86775648D01*
X142857747Y-86851839D01*
X142819651Y-86889934D01*
X142743461Y-86928029D01*
X142514890Y-86928029D01*
X142438699Y-86889934D01*
X142400604Y-86851839D01*
X141943461Y-83968982D02*
X142057747Y-84007077D01*
X142095842Y-84045172D01*
X142133937Y-84121363D01*
X142133937Y-84235648D01*
X142095842Y-84311839D01*
X142057747Y-84349934D01*
X141981556Y-84388029D01*
X141676794Y-84388029D01*
X141676794Y-83588029D01*
X141943461Y-83588029D01*
X142019651Y-83626125D01*
X142057747Y-83664220D01*
X142095842Y-83740410D01*
X142095842Y-83816601D01*
X142057747Y-83892791D01*
X142019651Y-83930886D01*
X141943461Y-83968982D01*
X141676794Y-83968982D01*
X142895842Y-84388029D02*
X142438699Y-84388029D01*
X142667271Y-84388029D02*
X142667271Y-83588029D01*
X142591080Y-83702315D01*
X142514890Y-83778505D01*
X142438699Y-83816601D01*
X142000604Y-73808982D02*
X141733937Y-73808982D01*
X141733937Y-74228029D02*
X141733937Y-73428029D01*
X142114890Y-73428029D01*
X142762509Y-73694696D02*
X142762509Y-74228029D01*
X142572032Y-73389934D02*
X142381556Y-73961363D01*
X142876794Y-73961363D01*
X141200604Y-70888029D02*
X141467271Y-71688029D01*
X141733937Y-70888029D01*
X142457747Y-71611839D02*
X142419651Y-71649934D01*
X142305366Y-71688029D01*
X142229175Y-71688029D01*
X142114890Y-71649934D01*
X142038699Y-71573744D01*
X142000604Y-71497553D01*
X141962509Y-71345172D01*
X141962509Y-71230886D01*
X142000604Y-71078505D01*
X142038699Y-71002315D01*
X142114890Y-70926125D01*
X142229175Y-70888029D01*
X142305366Y-70888029D01*
X142419651Y-70926125D01*
X142457747Y-70964220D01*
X143257747Y-71611839D02*
X143219651Y-71649934D01*
X143105366Y-71688029D01*
X143029175Y-71688029D01*
X142914890Y-71649934D01*
X142838699Y-71573744D01*
X142800604Y-71497553D01*
X142762509Y-71345172D01*
X142762509Y-71230886D01*
X142800604Y-71078505D01*
X142838699Y-71002315D01*
X142914890Y-70926125D01*
X143029175Y-70888029D01*
X143105366Y-70888029D01*
X143219651Y-70926125D01*
X143257747Y-70964220D01*
X141657747Y-65846125D02*
X141581556Y-65808029D01*
X141467271Y-65808029D01*
X141352985Y-65846125D01*
X141276794Y-65922315D01*
X141238699Y-65998505D01*
X141200604Y-66150886D01*
X141200604Y-66265172D01*
X141238699Y-66417553D01*
X141276794Y-66493744D01*
X141352985Y-66569934D01*
X141467271Y-66608029D01*
X141543461Y-66608029D01*
X141657747Y-66569934D01*
X141695842Y-66531839D01*
X141695842Y-66265172D01*
X141543461Y-66265172D01*
X142038699Y-66608029D02*
X142038699Y-65808029D01*
X142495842Y-66608029D01*
X142495842Y-65808029D01*
X142876794Y-66608029D02*
X142876794Y-65808029D01*
X143067271Y-65808029D01*
X143181556Y-65846125D01*
X143257747Y-65922315D01*
X143295842Y-65998505D01*
X143333937Y-66150886D01*
X143333937Y-66265172D01*
X143295842Y-66417553D01*
X143257747Y-66493744D01*
X143181556Y-66569934D01*
X143067271Y-66608029D01*
X142876794Y-66608029D01*
X141943461Y-63648982D02*
X142057747Y-63687077D01*
X142095842Y-63725172D01*
X142133937Y-63801363D01*
X142133937Y-63915648D01*
X142095842Y-63991839D01*
X142057747Y-64029934D01*
X141981556Y-64068029D01*
X141676794Y-64068029D01*
X141676794Y-63268029D01*
X141943461Y-63268029D01*
X142019651Y-63306125D01*
X142057747Y-63344220D01*
X142095842Y-63420410D01*
X142095842Y-63496601D01*
X142057747Y-63572791D01*
X142019651Y-63610886D01*
X141943461Y-63648982D01*
X141676794Y-63648982D01*
X142629175Y-63268029D02*
X142705366Y-63268029D01*
X142781556Y-63306125D01*
X142819651Y-63344220D01*
X142857747Y-63420410D01*
X142895842Y-63572791D01*
X142895842Y-63763267D01*
X142857747Y-63915648D01*
X142819651Y-63991839D01*
X142781556Y-64029934D01*
X142705366Y-64068029D01*
X142629175Y-64068029D01*
X142552985Y-64029934D01*
X142514890Y-63991839D01*
X142476794Y-63915648D01*
X142438699Y-63763267D01*
X142438699Y-63572791D01*
X142476794Y-63420410D01*
X142514890Y-63344220D01*
X142552985Y-63306125D01*
X142629175Y-63268029D01*
X142000604Y-76348982D02*
X141733937Y-76348982D01*
X141733937Y-76768029D02*
X141733937Y-75968029D01*
X142114890Y-75968029D01*
X142800604Y-75968029D02*
X142419651Y-75968029D01*
X142381556Y-76348982D01*
X142419651Y-76310886D01*
X142495842Y-76272791D01*
X142686318Y-76272791D01*
X142762509Y-76310886D01*
X142800604Y-76348982D01*
X142838699Y-76425172D01*
X142838699Y-76615648D01*
X142800604Y-76691839D01*
X142762509Y-76729934D01*
X142686318Y-76768029D01*
X142495842Y-76768029D01*
X142419651Y-76729934D01*
X142381556Y-76691839D01*
X142000604Y-78888982D02*
X141733937Y-78888982D01*
X141733937Y-79308029D02*
X141733937Y-78508029D01*
X142114890Y-78508029D01*
X142762509Y-78508029D02*
X142610128Y-78508029D01*
X142533937Y-78546125D01*
X142495842Y-78584220D01*
X142419651Y-78698505D01*
X142381556Y-78850886D01*
X142381556Y-79155648D01*
X142419651Y-79231839D01*
X142457747Y-79269934D01*
X142533937Y-79308029D01*
X142686318Y-79308029D01*
X142762509Y-79269934D01*
X142800604Y-79231839D01*
X142838699Y-79155648D01*
X142838699Y-78965172D01*
X142800604Y-78888982D01*
X142762509Y-78850886D01*
X142686318Y-78812791D01*
X142533937Y-78812791D01*
X142457747Y-78850886D01*
X142419651Y-78888982D01*
X142381556Y-78965172D01*
X142000604Y-81428982D02*
X141733937Y-81428982D01*
X141733937Y-81848029D02*
X141733937Y-81048029D01*
X142114890Y-81048029D01*
X142343461Y-81048029D02*
X142876794Y-81048029D01*
X142533937Y-81848029D01*
X141943461Y-89048982D02*
X142057747Y-89087077D01*
X142095842Y-89125172D01*
X142133937Y-89201363D01*
X142133937Y-89315648D01*
X142095842Y-89391839D01*
X142057747Y-89429934D01*
X141981556Y-89468029D01*
X141676794Y-89468029D01*
X141676794Y-88668029D01*
X141943461Y-88668029D01*
X142019651Y-88706125D01*
X142057747Y-88744220D01*
X142095842Y-88820410D01*
X142095842Y-88896601D01*
X142057747Y-88972791D01*
X142019651Y-89010886D01*
X141943461Y-89048982D01*
X141676794Y-89048982D01*
X142438699Y-88744220D02*
X142476794Y-88706125D01*
X142552985Y-88668029D01*
X142743461Y-88668029D01*
X142819651Y-88706125D01*
X142857747Y-88744220D01*
X142895842Y-88820410D01*
X142895842Y-88896601D01*
X142857747Y-89010886D01*
X142400604Y-89468029D01*
X142895842Y-89468029D01*
%TO.C,Brd1*%
X136039605Y-147708694D02*
X136182462Y-147756313D01*
X136230081Y-147803932D01*
X136277700Y-147899170D01*
X136277700Y-148042027D01*
X136230081Y-148137265D01*
X136182462Y-148184884D01*
X136087224Y-148232503D01*
X135706272Y-148232503D01*
X135706272Y-147232503D01*
X136039605Y-147232503D01*
X136134843Y-147280123D01*
X136182462Y-147327742D01*
X136230081Y-147422980D01*
X136230081Y-147518218D01*
X136182462Y-147613456D01*
X136134843Y-147661075D01*
X136039605Y-147708694D01*
X135706272Y-147708694D01*
X136706272Y-148232503D02*
X136706272Y-147565837D01*
X136706272Y-147756313D02*
X136753891Y-147661075D01*
X136801510Y-147613456D01*
X136896748Y-147565837D01*
X136991986Y-147565837D01*
X137753891Y-148232503D02*
X137753891Y-147232503D01*
X137753891Y-148184884D02*
X137658652Y-148232503D01*
X137468176Y-148232503D01*
X137372938Y-148184884D01*
X137325319Y-148137265D01*
X137277700Y-148042027D01*
X137277700Y-147756313D01*
X137325319Y-147661075D01*
X137372938Y-147613456D01*
X137468176Y-147565837D01*
X137658652Y-147565837D01*
X137753891Y-147613456D01*
X138753891Y-148232503D02*
X138182462Y-148232503D01*
X138468176Y-148232503D02*
X138468176Y-147232503D01*
X138372938Y-147375361D01*
X138277700Y-147470599D01*
X138182462Y-147518218D01*
%TO.C,J1*%
X127391984Y-155167457D02*
X128391984Y-155167457D01*
X127439603Y-155167457D02*
X127391984Y-155072219D01*
X127391984Y-154881743D01*
X127439603Y-154786504D01*
X127487222Y-154738885D01*
X127582460Y-154691266D01*
X127868174Y-154691266D01*
X127963412Y-154738885D01*
X128011031Y-154786504D01*
X128058650Y-154881743D01*
X128058650Y-155072219D01*
X128011031Y-155167457D01*
X128058650Y-154262695D02*
X127391984Y-154262695D01*
X127058650Y-154262695D02*
X127106270Y-154310314D01*
X127153889Y-154262695D01*
X127106270Y-154215076D01*
X127058650Y-154262695D01*
X127153889Y-154262695D01*
X128058650Y-153786504D02*
X127391984Y-153786504D01*
X127487222Y-153786504D02*
X127439603Y-153738885D01*
X127391984Y-153643647D01*
X127391984Y-153500790D01*
X127439603Y-153405552D01*
X127534841Y-153357933D01*
X128058650Y-153357933D01*
X127534841Y-153357933D02*
X127439603Y-153310314D01*
X127391984Y-153215076D01*
X127391984Y-153072219D01*
X127439603Y-152976981D01*
X127534841Y-152929362D01*
X128058650Y-152929362D01*
X128058650Y-152310314D02*
X128011031Y-152405552D01*
X127963412Y-152453171D01*
X127868174Y-152500790D01*
X127582460Y-152500790D01*
X127487222Y-152453171D01*
X127439603Y-152405552D01*
X127391984Y-152310314D01*
X127391984Y-152167457D01*
X127439603Y-152072219D01*
X127487222Y-152024600D01*
X127582460Y-151976981D01*
X127868174Y-151976981D01*
X127963412Y-152024600D01*
X128011031Y-152072219D01*
X128058650Y-152167457D01*
X128058650Y-152310314D01*
X128058650Y-151548409D02*
X127391984Y-151548409D01*
X127582460Y-151548409D02*
X127487222Y-151500790D01*
X127439603Y-151453171D01*
X127391984Y-151357933D01*
X127391984Y-151262695D01*
X128058650Y-150786504D02*
X128011031Y-150881743D01*
X127963412Y-150929362D01*
X127868174Y-150976981D01*
X127582460Y-150976981D01*
X127487222Y-150929362D01*
X127439603Y-150881743D01*
X127391984Y-150786504D01*
X127391984Y-150643647D01*
X127439603Y-150548409D01*
X127487222Y-150500790D01*
X127582460Y-150453171D01*
X127868174Y-150453171D01*
X127963412Y-150500790D01*
X128011031Y-150548409D01*
X128058650Y-150643647D01*
X128058650Y-150786504D01*
X127391984Y-150024600D02*
X128058650Y-150024600D01*
X127487222Y-150024600D02*
X127439603Y-149976981D01*
X127391984Y-149881743D01*
X127391984Y-149738885D01*
X127439603Y-149643647D01*
X127534841Y-149596028D01*
X128058650Y-149596028D01*
X128058650Y-149119838D02*
X127391984Y-149119838D01*
X127058650Y-149119838D02*
X127106270Y-149167457D01*
X127153889Y-149119838D01*
X127106270Y-149072219D01*
X127058650Y-149119838D01*
X127153889Y-149119838D01*
X127391984Y-148024600D02*
X127391984Y-147643647D01*
X127058650Y-147881743D02*
X127915793Y-147881743D01*
X128011031Y-147834124D01*
X128058650Y-147738885D01*
X128058650Y-147643647D01*
X128058650Y-147310314D02*
X127391984Y-147310314D01*
X127582460Y-147310314D02*
X127487222Y-147262695D01*
X127439603Y-147215076D01*
X127391984Y-147119838D01*
X127391984Y-147024600D01*
X128058650Y-146262695D02*
X127534841Y-146262695D01*
X127439603Y-146310314D01*
X127391984Y-146405552D01*
X127391984Y-146596028D01*
X127439603Y-146691266D01*
X128011031Y-146262695D02*
X128058650Y-146357933D01*
X128058650Y-146596028D01*
X128011031Y-146691266D01*
X127915793Y-146738885D01*
X127820555Y-146738885D01*
X127725317Y-146691266D01*
X127677698Y-146596028D01*
X127677698Y-146357933D01*
X127630079Y-146262695D01*
X128011031Y-145357933D02*
X128058650Y-145453171D01*
X128058650Y-145643647D01*
X128011031Y-145738885D01*
X127963412Y-145786504D01*
X127868174Y-145834124D01*
X127582460Y-145834124D01*
X127487222Y-145786504D01*
X127439603Y-145738885D01*
X127391984Y-145643647D01*
X127391984Y-145453171D01*
X127439603Y-145357933D01*
X128058650Y-144929362D02*
X127058650Y-144929362D01*
X127677698Y-144834124D02*
X128058650Y-144548409D01*
X127391984Y-144548409D02*
X127772936Y-144929362D01*
X128058650Y-144119838D02*
X127058650Y-144119838D01*
X127439603Y-144119838D02*
X127391984Y-144024600D01*
X127391984Y-143834124D01*
X127439603Y-143738885D01*
X127487222Y-143691266D01*
X127582460Y-143643647D01*
X127868174Y-143643647D01*
X127963412Y-143691266D01*
X128011031Y-143738885D01*
X128058650Y-143834124D01*
X128058650Y-144024600D01*
X128011031Y-144119838D01*
X128058650Y-142786504D02*
X127534841Y-142786504D01*
X127439603Y-142834124D01*
X127391984Y-142929362D01*
X127391984Y-143119838D01*
X127439603Y-143215076D01*
X128011031Y-142786504D02*
X128058650Y-142881743D01*
X128058650Y-143119838D01*
X128011031Y-143215076D01*
X127915793Y-143262695D01*
X127820555Y-143262695D01*
X127725317Y-143215076D01*
X127677698Y-143119838D01*
X127677698Y-142881743D01*
X127630079Y-142786504D01*
X128058650Y-142167457D02*
X128011031Y-142262695D01*
X127915793Y-142310314D01*
X127058650Y-142310314D01*
X128058650Y-141643647D02*
X128011031Y-141738885D01*
X127915793Y-141786504D01*
X127058650Y-141786504D01*
X128058650Y-140500790D02*
X127058650Y-140500790D01*
X127439603Y-140500790D02*
X127391984Y-140405552D01*
X127391984Y-140215076D01*
X127439603Y-140119838D01*
X127487222Y-140072219D01*
X127582460Y-140024600D01*
X127868174Y-140024600D01*
X127963412Y-140072219D01*
X128011031Y-140119838D01*
X128058650Y-140215076D01*
X128058650Y-140405552D01*
X128011031Y-140500790D01*
X128058650Y-139596028D02*
X127391984Y-139596028D01*
X127582460Y-139596028D02*
X127487222Y-139548409D01*
X127439603Y-139500790D01*
X127391984Y-139405552D01*
X127391984Y-139310314D01*
X128011031Y-138596028D02*
X128058650Y-138691266D01*
X128058650Y-138881743D01*
X128011031Y-138976981D01*
X127915793Y-139024600D01*
X127534841Y-139024600D01*
X127439603Y-138976981D01*
X127391984Y-138881743D01*
X127391984Y-138691266D01*
X127439603Y-138596028D01*
X127534841Y-138548409D01*
X127630079Y-138548409D01*
X127725317Y-139024600D01*
X128058650Y-137691266D02*
X127534841Y-137691266D01*
X127439603Y-137738885D01*
X127391984Y-137834124D01*
X127391984Y-138024600D01*
X127439603Y-138119838D01*
X128011031Y-137691266D02*
X128058650Y-137786504D01*
X128058650Y-138024600D01*
X128011031Y-138119838D01*
X127915793Y-138167457D01*
X127820555Y-138167457D01*
X127725317Y-138119838D01*
X127677698Y-138024600D01*
X127677698Y-137786504D01*
X127630079Y-137691266D01*
X128058650Y-137215076D02*
X127058650Y-137215076D01*
X127677698Y-137119838D02*
X128058650Y-136834124D01*
X127391984Y-136834124D02*
X127772936Y-137215076D01*
X128058650Y-136262695D02*
X128011031Y-136357933D01*
X127963412Y-136405552D01*
X127868174Y-136453171D01*
X127582460Y-136453171D01*
X127487222Y-136405552D01*
X127439603Y-136357933D01*
X127391984Y-136262695D01*
X127391984Y-136119838D01*
X127439603Y-136024600D01*
X127487222Y-135976981D01*
X127582460Y-135929362D01*
X127868174Y-135929362D01*
X127963412Y-135976981D01*
X128011031Y-136024600D01*
X128058650Y-136119838D01*
X128058650Y-136262695D01*
X127391984Y-135072219D02*
X128058650Y-135072219D01*
X127391984Y-135500790D02*
X127915793Y-135500790D01*
X128011031Y-135453171D01*
X128058650Y-135357933D01*
X128058650Y-135215076D01*
X128011031Y-135119838D01*
X127963412Y-135072219D01*
X127391984Y-134738885D02*
X127391984Y-134357933D01*
X127058650Y-134596028D02*
X127915793Y-134596028D01*
X128011031Y-134548409D01*
X128058650Y-134453171D01*
X128058650Y-134357933D01*
%TD*%
M02*
