%TF.GenerationSoftware,KiCad,Pcbnew,(5.1.9)-1*%
%TF.CreationDate,2021-12-09T21:31:54-08:00*%
%TF.ProjectId,barobord,6261726f-626f-4726-942e-6b696361645f,rev?*%
%TF.SameCoordinates,Original*%
%TF.FileFunction,Soldermask,Top*%
%TF.FilePolarity,Negative*%
%FSLAX46Y46*%
G04 Gerber Fmt 4.6, Leading zero omitted, Abs format (unit mm)*
G04 Created by KiCad (PCBNEW (5.1.9)-1) date 2021-12-09 21:31:54*
%MOMM*%
%LPD*%
G01*
G04 APERTURE LIST*
%ADD10C,1.701800*%
%ADD11C,3.000000*%
%ADD12C,3.429000*%
%ADD13C,0.990600*%
%ADD14C,3.500000*%
%ADD15C,0.100000*%
%ADD16C,1.752600*%
%ADD17R,1.752600X1.752600*%
%ADD18R,2.000000X2.000000*%
%ADD19C,2.000000*%
%ADD20O,1.600000X2.000000*%
%ADD21O,3.800000X3.300000*%
G04 APERTURE END LIST*
D10*
%TO.C,SW40*%
X224029622Y-94306270D03*
X233999008Y-89657470D03*
D11*
X226067595Y-97493616D03*
D12*
X229014315Y-91981870D03*
D11*
X231528894Y-97374401D03*
D13*
X231970245Y-85969310D03*
%TD*%
D10*
%TO.C,SW39*%
X204696685Y-97804475D03*
X214666071Y-93155675D03*
D11*
X206734658Y-100991821D03*
D12*
X209681378Y-95480075D03*
D11*
X212195957Y-100872606D03*
D13*
X212637308Y-89467515D03*
%TD*%
D10*
%TO.C,SW38*%
X195929198Y-123960378D03*
X205898584Y-119311578D03*
D11*
X197967171Y-127147724D03*
D12*
X200913891Y-121635978D03*
D11*
X203428470Y-127028509D03*
D13*
X203869821Y-115623418D03*
%TD*%
D10*
%TO.C,SW37*%
X178222023Y-135290649D03*
X187232695Y-128981309D03*
D11*
X180782510Y-138075681D03*
D12*
X182727359Y-132135979D03*
D11*
X186140139Y-137009934D03*
D13*
X184594312Y-125701471D03*
%TD*%
D10*
%TO.C,SW36*%
X162751343Y-149523607D03*
X170529517Y-141745433D03*
D11*
X165756547Y-151821704D03*
D12*
X166640430Y-145634520D03*
D11*
X170847715Y-149841805D03*
D13*
X167361679Y-138973574D03*
%TD*%
D10*
%TO.C,SW35*%
X103077842Y-141745432D03*
X110856016Y-149523606D03*
D11*
X100779745Y-144750636D03*
D12*
X106966929Y-145634519D03*
D11*
X102759644Y-149841804D03*
D13*
X113627875Y-146355768D03*
%TD*%
D10*
%TO.C,SW34*%
X86374658Y-128981309D03*
X95385330Y-135290649D03*
D11*
X84633322Y-132339917D03*
D12*
X90879994Y-132135979D03*
D11*
X87467214Y-137009934D03*
D13*
X97564989Y-131689609D03*
%TD*%
D10*
%TO.C,SW33*%
X67708767Y-119311580D03*
X77678153Y-123960380D03*
D11*
X66577103Y-122921543D03*
D12*
X72693460Y-121635980D03*
D11*
X70178881Y-127028511D03*
D13*
X79199383Y-120035555D03*
%TD*%
D10*
%TO.C,SW32*%
X58941286Y-93155678D03*
X68910672Y-97804478D03*
D11*
X57809622Y-96765641D03*
D12*
X63925979Y-95480078D03*
D11*
X61411400Y-100872609D03*
D13*
X70431902Y-93879653D03*
%TD*%
D10*
%TO.C,SW31*%
X39608349Y-89657470D03*
X49577735Y-94306270D03*
D11*
X38476685Y-93267433D03*
D12*
X44593042Y-91981870D03*
D11*
X42078463Y-97374401D03*
D13*
X51098965Y-90381445D03*
%TD*%
D10*
%TO.C,SW30*%
X238502448Y-80385522D03*
X248471834Y-75736722D03*
D11*
X240540421Y-83572868D03*
D12*
X243487141Y-78061122D03*
D11*
X246001720Y-83453653D03*
D13*
X246443071Y-72048562D03*
%TD*%
D10*
%TO.C,SW29*%
X215999875Y-77086423D03*
X225969261Y-72437623D03*
D11*
X218037848Y-80273769D03*
D12*
X220984568Y-74762023D03*
D11*
X223499147Y-80154554D03*
D13*
X223940498Y-68749463D03*
%TD*%
D10*
%TO.C,SW28*%
X196666937Y-80584633D03*
X206636323Y-75935833D03*
D11*
X198704910Y-83771979D03*
D12*
X201651630Y-78260233D03*
D11*
X204166209Y-83652764D03*
D13*
X204607560Y-72247673D03*
%TD*%
D10*
%TO.C,SW27*%
X181560179Y-93145915D03*
X191529565Y-88497115D03*
D11*
X183598152Y-96333261D03*
D12*
X186544872Y-90821515D03*
D11*
X189059451Y-96214046D03*
D13*
X189500802Y-84808955D03*
%TD*%
D10*
%TO.C,SW26*%
X165396877Y-103441433D03*
X175366263Y-98792633D03*
D11*
X167434850Y-106628779D03*
D12*
X170381570Y-101117033D03*
D11*
X172896149Y-106509564D03*
D13*
X173337500Y-95104473D03*
%TD*%
D10*
%TO.C,SW25*%
X98241093Y-98792632D03*
X108210479Y-103441432D03*
D11*
X97109429Y-102402595D03*
D12*
X103225786Y-101117032D03*
D11*
X100711207Y-106509563D03*
D13*
X109731709Y-99516607D03*
%TD*%
D10*
%TO.C,SW24*%
X82077789Y-88497116D03*
X92047175Y-93145916D03*
D11*
X80946125Y-92107079D03*
D12*
X87062482Y-90821516D03*
D11*
X84547903Y-96214047D03*
D13*
X93568405Y-89221091D03*
%TD*%
D10*
%TO.C,SW23*%
X66971033Y-75935830D03*
X76940419Y-80584630D03*
D11*
X65839369Y-79545793D03*
D12*
X71955726Y-78260230D03*
D11*
X69441147Y-83652761D03*
D13*
X78461649Y-76659805D03*
%TD*%
D10*
%TO.C,SW22*%
X47638096Y-72437624D03*
X57607482Y-77086424D03*
D11*
X46506432Y-76047587D03*
D12*
X52622789Y-74762024D03*
D11*
X50108210Y-80154555D03*
D13*
X59128712Y-73161599D03*
%TD*%
D10*
%TO.C,SW21*%
X25135518Y-75736723D03*
X35104904Y-80385523D03*
D11*
X24003854Y-79346686D03*
D12*
X30120211Y-78061123D03*
D11*
X27605632Y-83453654D03*
D13*
X36626134Y-76460698D03*
%TD*%
D10*
%TO.C,SW20*%
X230472701Y-63165675D03*
X240442087Y-58516875D03*
D11*
X232510674Y-66353021D03*
D12*
X235457394Y-60841275D03*
D11*
X237971973Y-66233806D03*
D13*
X238413324Y-54828715D03*
%TD*%
D10*
%TO.C,SW19*%
X207970129Y-59866574D03*
X217939515Y-55217774D03*
D11*
X210008102Y-63053920D03*
D12*
X212954822Y-57542174D03*
D11*
X215469401Y-62934705D03*
D13*
X215910752Y-51529614D03*
%TD*%
D10*
%TO.C,SW18*%
X188637188Y-63364784D03*
X198606574Y-58715984D03*
D11*
X190675161Y-66552130D03*
D12*
X193621881Y-61040384D03*
D11*
X196136460Y-66432915D03*
D13*
X196577811Y-55027824D03*
%TD*%
D10*
%TO.C,SW17*%
X173530434Y-75926071D03*
X183499820Y-71277271D03*
D11*
X175568407Y-79113417D03*
D12*
X178515127Y-73601671D03*
D11*
X181029706Y-78994202D03*
D13*
X181471057Y-67589111D03*
%TD*%
D10*
%TO.C,SW16*%
X157367129Y-86221586D03*
X167336515Y-81572786D03*
D11*
X159405102Y-89408932D03*
D12*
X162351822Y-83897186D03*
D11*
X164866401Y-89289717D03*
D13*
X165307752Y-77884626D03*
%TD*%
D10*
%TO.C,SW15*%
X106270840Y-81572789D03*
X116240226Y-86221589D03*
D11*
X105139176Y-85182752D03*
D12*
X111255533Y-83897189D03*
D11*
X108740954Y-89289720D03*
D13*
X117761456Y-82296764D03*
%TD*%
D10*
%TO.C,SW14*%
X90107536Y-71277269D03*
X100076922Y-75926069D03*
D11*
X88975872Y-74887232D03*
D12*
X95092229Y-73601669D03*
D11*
X92577650Y-78994200D03*
D13*
X101598152Y-72001244D03*
%TD*%
D10*
%TO.C,SW13*%
X75000781Y-58715984D03*
X84970167Y-63364784D03*
D11*
X73869117Y-62325947D03*
D12*
X79985474Y-61040384D03*
D11*
X77470895Y-66432915D03*
D13*
X86491397Y-59439959D03*
%TD*%
D10*
%TO.C,SW12*%
X55667843Y-55217776D03*
X65637229Y-59866576D03*
D11*
X54536179Y-58827739D03*
D12*
X60652536Y-57542176D03*
D11*
X58137957Y-62934707D03*
D13*
X67158459Y-55941751D03*
%TD*%
D10*
%TO.C,SW11*%
X33165268Y-58516876D03*
X43134654Y-63165676D03*
D11*
X32033604Y-62126839D03*
D12*
X38149961Y-60841276D03*
D11*
X35635382Y-66233807D03*
D13*
X44655884Y-59240851D03*
%TD*%
D10*
%TO.C,SW10*%
X222442955Y-45945828D03*
X232412341Y-41297028D03*
D11*
X224480928Y-49133174D03*
D12*
X227427648Y-43621428D03*
D11*
X229942227Y-49013959D03*
D13*
X230383578Y-37608868D03*
%TD*%
D10*
%TO.C,SW9*%
X199940380Y-42646729D03*
X209909766Y-37997929D03*
D11*
X201978353Y-45834075D03*
D12*
X204925073Y-40322329D03*
D11*
X207439652Y-45714860D03*
D13*
X207881003Y-34309769D03*
%TD*%
D10*
%TO.C,SW8*%
X180607442Y-46144938D03*
X190576828Y-41496138D03*
D11*
X182645415Y-49332284D03*
D12*
X185592135Y-43820538D03*
D11*
X188106714Y-49213069D03*
D13*
X188548065Y-37807978D03*
%TD*%
D10*
%TO.C,SW7*%
X165500687Y-58706221D03*
X175470073Y-54057421D03*
D11*
X167538660Y-61893567D03*
D12*
X170485380Y-56381821D03*
D11*
X172999959Y-61774352D03*
D13*
X173441310Y-50369261D03*
%TD*%
D10*
%TO.C,SW6*%
X149337383Y-69001735D03*
X159306769Y-64352935D03*
D11*
X151375356Y-72189081D03*
D12*
X154322076Y-66677335D03*
D11*
X156836655Y-72069866D03*
D13*
X157278006Y-60664775D03*
%TD*%
D10*
%TO.C,SW5*%
X114300584Y-64352939D03*
X124269970Y-69001739D03*
D11*
X113168920Y-67962902D03*
D12*
X119285277Y-66677339D03*
D11*
X116770698Y-72069870D03*
D13*
X125791200Y-65076914D03*
%TD*%
D10*
%TO.C,SW4*%
X98137283Y-54057420D03*
X108106669Y-58706220D03*
D11*
X97005619Y-57667383D03*
D12*
X103121976Y-56381820D03*
D11*
X100607397Y-61774351D03*
D13*
X109627899Y-54781395D03*
%TD*%
D10*
%TO.C,SW3*%
X83030527Y-41496137D03*
X92999913Y-46144937D03*
D11*
X81898863Y-45106100D03*
D12*
X88015220Y-43820537D03*
D11*
X85500641Y-49213068D03*
D13*
X94521143Y-42220112D03*
%TD*%
D10*
%TO.C,SW2*%
X63697589Y-37997930D03*
X73666975Y-42646730D03*
D11*
X62565925Y-41607893D03*
D12*
X68682282Y-40322330D03*
D11*
X66167703Y-45714861D03*
D13*
X75188205Y-38721905D03*
%TD*%
D10*
%TO.C,SW1*%
X41195014Y-41297029D03*
X51164400Y-45945829D03*
D11*
X40063350Y-44906992D03*
D12*
X46179707Y-43621429D03*
D11*
X43665128Y-49013960D03*
D13*
X52685630Y-42021004D03*
%TD*%
D14*
%TO.C,*%
X189803891Y-123235980D03*
%TD*%
%TO.C,*%
X231607143Y-73631122D03*
%TD*%
%TO.C,*%
X215607648Y-39031429D03*
%TD*%
%TO.C,*%
X169401824Y-76437184D03*
%TD*%
%TO.C,*%
X158410426Y-157834521D03*
%TD*%
%TO.C,*%
X114006929Y-158234518D03*
%TD*%
%TO.C,*%
X84403462Y-121635977D03*
%TD*%
%TO.C,*%
X104605531Y-75837184D03*
%TD*%
%TO.C,*%
X39610214Y-80431123D03*
%TD*%
%TO.C,*%
X56409707Y-45231429D03*
%TD*%
%TO.C,SW46*%
G36*
G01*
X109948109Y-49796716D02*
X110497513Y-48618516D01*
G75*
G02*
X111959332Y-48086457I996939J-464880D01*
G01*
X111959332Y-48086457D01*
G75*
G02*
X112491391Y-49548276I-464880J-996939D01*
G01*
X111941987Y-50726476D01*
G75*
G02*
X110480168Y-51258535I-996939J464880D01*
G01*
X110480168Y-51258535D01*
G75*
G02*
X109948109Y-49796716I464880J996939D01*
G01*
G37*
G36*
G01*
X102516385Y-46331247D02*
X103065789Y-45153047D01*
G75*
G02*
X104527608Y-44620988I996939J-464880D01*
G01*
X104527608Y-44620988D01*
G75*
G02*
X105059667Y-46082807I-464880J-996939D01*
G01*
X104510263Y-47261007D01*
G75*
G02*
X103048444Y-47793066I-996939J464880D01*
G01*
X103048444Y-47793066D01*
G75*
G02*
X102516385Y-46331247I464880J996939D01*
G01*
G37*
G36*
G01*
X108425463Y-48921188D02*
X108848081Y-48014880D01*
G75*
G02*
X109844776Y-47652113I679731J-316964D01*
G01*
X109844776Y-47652113D01*
G75*
G02*
X110207543Y-48648808I-316964J-679731D01*
G01*
X109784925Y-49555116D01*
G75*
G02*
X108788230Y-49917883I-679731J316964D01*
G01*
X108788230Y-49917883D01*
G75*
G02*
X108425463Y-48921188I316964J679731D01*
G01*
G37*
G36*
G01*
X106612848Y-48075952D02*
X107035466Y-47169644D01*
G75*
G02*
X108032161Y-46806877I679731J-316964D01*
G01*
X108032161Y-46806877D01*
G75*
G02*
X108394928Y-47803572I-316964J-679731D01*
G01*
X107972310Y-48709880D01*
G75*
G02*
X106975615Y-49072647I-679731J316964D01*
G01*
X106975615Y-49072647D01*
G75*
G02*
X106612848Y-48075952I316964J679731D01*
G01*
G37*
D15*
G36*
X104483268Y-47910446D02*
G01*
X105539814Y-45644677D01*
X106899276Y-46278604D01*
X105842730Y-48544373D01*
X104483268Y-47910446D01*
G37*
%TD*%
%TO.C,J2*%
G36*
G01*
X83316571Y-107359114D02*
X82818101Y-107126674D01*
G75*
G02*
X82527887Y-106329318I253571J543785D01*
G01*
X82527887Y-106329318D01*
G75*
G02*
X83325243Y-106039104I543785J-253571D01*
G01*
X83823713Y-106271544D01*
G75*
G02*
X84113927Y-107068900I-253571J-543785D01*
G01*
X84113927Y-107068900D01*
G75*
G02*
X83316571Y-107359114I-543785J253571D01*
G01*
G37*
G36*
G01*
X82788542Y-109319646D02*
X81655656Y-108791373D01*
G75*
G02*
X81534734Y-108459143I105654J226576D01*
G01*
X81830568Y-107824726D01*
G75*
G02*
X82162798Y-107703804I226576J-105654D01*
G01*
X83295684Y-108232077D01*
G75*
G02*
X83416606Y-108564307I-105654J-226576D01*
G01*
X83120772Y-109198724D01*
G75*
G02*
X82788542Y-109319646I-226576J105654D01*
G01*
G37*
%TD*%
D16*
%TO.C,U2*%
X129186271Y-63706125D03*
X129186271Y-66246125D03*
X129186271Y-68786125D03*
X129186271Y-71326125D03*
X129186271Y-73866125D03*
X129186271Y-76406125D03*
X129186271Y-78946125D03*
X129186271Y-81486125D03*
X129186271Y-84026125D03*
X129186271Y-86566125D03*
X129186271Y-89106125D03*
X144426271Y-91646125D03*
X144426271Y-89106125D03*
X144426271Y-86566125D03*
X144426271Y-84026125D03*
X144426271Y-81486125D03*
X144426271Y-78946125D03*
X144426271Y-76406125D03*
X144426271Y-73866125D03*
X144426271Y-71326125D03*
X144426271Y-68786125D03*
X144426271Y-66246125D03*
X129186271Y-91646125D03*
X144426271Y-63706125D03*
X131726271Y-86566125D03*
X134266271Y-86566125D03*
X136806271Y-86566125D03*
%TD*%
%TO.C,U1*%
X131726271Y-91646125D03*
X134266271Y-91646125D03*
X136806271Y-91646125D03*
X139346271Y-91646125D03*
X141886271Y-91646125D03*
X144426271Y-63706125D03*
X129414871Y-91646125D03*
X144426271Y-66246125D03*
X144426271Y-68786125D03*
X144426271Y-71326125D03*
X144426271Y-73866125D03*
X144426271Y-76406125D03*
X144426271Y-78946125D03*
X144426271Y-81486125D03*
X144426271Y-84026125D03*
X144426271Y-86566125D03*
X144426271Y-89106125D03*
X144426271Y-91646125D03*
X129186271Y-89106125D03*
X129186271Y-86566125D03*
X129186271Y-84026125D03*
X129186271Y-81486125D03*
X129186271Y-78946125D03*
X129186271Y-76406125D03*
X129186271Y-73866125D03*
X129186271Y-71326125D03*
X129186271Y-68786125D03*
X129186271Y-66246125D03*
D17*
X129186271Y-63706125D03*
%TD*%
D18*
%TO.C,SW43*%
X141306272Y-121934125D03*
D19*
X141306272Y-124434125D03*
X141306272Y-126934125D03*
X155806272Y-121934125D03*
X155806272Y-126934125D03*
%TD*%
D18*
%TO.C,SW42*%
X132306270Y-126934125D03*
D19*
X132306270Y-124434125D03*
X132306270Y-121934125D03*
X117806270Y-126934125D03*
X117806270Y-121934125D03*
%TD*%
D20*
%TO.C,Brd1*%
X138286272Y-158634123D03*
X140826272Y-158634123D03*
X135746272Y-158634123D03*
X133206272Y-158634123D03*
%TD*%
D21*
%TO.C,J1*%
X131306270Y-135034124D03*
X142306270Y-135034124D03*
X142306270Y-154634124D03*
X131306270Y-154634124D03*
G36*
G01*
X124082270Y-139329124D02*
X124082270Y-140179124D01*
G75*
G02*
X123657270Y-140604124I-425000J0D01*
G01*
X122307270Y-140604124D01*
G75*
G02*
X121882270Y-140179124I0J425000D01*
G01*
X121882270Y-139329124D01*
G75*
G02*
X122307270Y-138904124I425000J0D01*
G01*
X123657270Y-138904124D01*
G75*
G02*
X124082270Y-139329124I0J-425000D01*
G01*
G37*
G36*
G01*
X123657270Y-143144124D02*
X122307270Y-143144124D01*
G75*
G02*
X121882270Y-142719124I0J425000D01*
G01*
X121882270Y-141869124D01*
G75*
G02*
X122307270Y-141444124I425000J0D01*
G01*
X123657270Y-141444124D01*
G75*
G02*
X124082270Y-141869124I0J-425000D01*
G01*
X124082270Y-142719124D01*
G75*
G02*
X123657270Y-143144124I-425000J0D01*
G01*
G37*
G36*
G01*
X123657270Y-145684124D02*
X122307270Y-145684124D01*
G75*
G02*
X121882270Y-145259124I0J425000D01*
G01*
X121882270Y-144409124D01*
G75*
G02*
X122307270Y-143984124I425000J0D01*
G01*
X123657270Y-143984124D01*
G75*
G02*
X124082270Y-144409124I0J-425000D01*
G01*
X124082270Y-145259124D01*
G75*
G02*
X123657270Y-145684124I-425000J0D01*
G01*
G37*
G36*
G01*
X123657270Y-148224124D02*
X122307270Y-148224124D01*
G75*
G02*
X121882270Y-147799124I0J425000D01*
G01*
X121882270Y-146949124D01*
G75*
G02*
X122307270Y-146524124I425000J0D01*
G01*
X123657270Y-146524124D01*
G75*
G02*
X124082270Y-146949124I0J-425000D01*
G01*
X124082270Y-147799124D01*
G75*
G02*
X123657270Y-148224124I-425000J0D01*
G01*
G37*
G36*
G01*
X123657270Y-150764124D02*
X122307270Y-150764124D01*
G75*
G02*
X121882270Y-150339124I0J425000D01*
G01*
X121882270Y-149489124D01*
G75*
G02*
X122307270Y-149064124I425000J0D01*
G01*
X123657270Y-149064124D01*
G75*
G02*
X124082270Y-149489124I0J-425000D01*
G01*
X124082270Y-150339124D01*
G75*
G02*
X123657270Y-150764124I-425000J0D01*
G01*
G37*
%TD*%
M02*
