%TF.GenerationSoftware,KiCad,Pcbnew,(5.1.10)-1*%
%TF.CreationDate,2021-08-07T23:39:34-07:00*%
%TF.ProjectId,bottom-plate,626f7474-6f6d-42d7-906c-6174652e6b69,rev?*%
%TF.SameCoordinates,Original*%
%TF.FileFunction,Profile,NP*%
%FSLAX46Y46*%
G04 Gerber Fmt 4.6, Leading zero omitted, Abs format (unit mm)*
G04 Created by KiCad (PCBNEW (5.1.10)-1) date 2021-08-07 23:39:34*
%MOMM*%
%LPD*%
G01*
G04 APERTURE LIST*
%TA.AperFunction,Profile*%
%ADD10C,0.124256*%
%TD*%
G04 APERTURE END LIST*
D10*
X69453757Y-23701591D02*
X69369198Y-23883140D01*
X69369198Y-23883140D02*
X69284638Y-24064689D01*
X69284638Y-24064689D02*
X69200076Y-24246238D01*
X69200076Y-24246238D02*
X69115514Y-24427787D01*
X69115514Y-24427787D02*
X69030951Y-24609336D01*
X69030951Y-24609336D02*
X68946387Y-24790884D01*
X68946387Y-24790884D02*
X68861822Y-24972433D01*
X68861822Y-24972433D02*
X68777257Y-25153981D01*
X68777257Y-25153981D02*
X68692692Y-25335529D01*
X68692692Y-25335529D02*
X68608126Y-25517078D01*
X68608126Y-25517078D02*
X68523559Y-25698626D01*
X68523559Y-25698626D02*
X68438993Y-25880174D01*
X68438993Y-25880174D02*
X68354427Y-26061723D01*
X68354427Y-26061723D02*
X68269860Y-26243271D01*
X68269860Y-26243271D02*
X68185295Y-26424819D01*
X68185295Y-26424819D02*
X68100729Y-26606368D01*
X68100729Y-26606368D02*
X68016164Y-26787916D01*
X68016164Y-26787916D02*
X67931599Y-26969465D01*
X67931599Y-26969465D02*
X67847035Y-27151014D01*
X67847035Y-27151014D02*
X67762472Y-27332562D01*
X67762472Y-27332562D02*
X67677910Y-27514111D01*
X67677910Y-27514111D02*
X67593349Y-27695660D01*
X67593349Y-27695660D02*
X67508788Y-27877210D01*
X67508788Y-27877210D02*
X67424230Y-28058759D01*
X67424230Y-28058759D02*
X67339672Y-28240309D01*
X67339672Y-28240309D02*
X67255116Y-28421858D01*
X67255116Y-28421858D02*
X67170562Y-28603408D01*
X67170562Y-28603408D02*
X67086009Y-28784959D01*
X67086009Y-28784959D02*
X67001458Y-28966509D01*
X67001458Y-28966509D02*
X66916909Y-29148060D01*
X66916909Y-29148060D02*
X66832362Y-29329611D01*
X66832362Y-29329611D02*
X66747818Y-29511163D01*
X48066556Y-24674939D02*
X47327944Y-26251839D01*
X47327944Y-26251839D02*
X46589429Y-27828788D01*
X46589429Y-27828788D02*
X45851024Y-29405793D01*
X45851024Y-29405793D02*
X45112745Y-30982860D01*
X45112745Y-30982860D02*
X44374605Y-32559995D01*
X44374605Y-32559995D02*
X43636619Y-34137204D01*
X43636619Y-34137204D02*
X42898801Y-35714495D01*
X42898801Y-35714495D02*
X42161167Y-37291873D01*
X42161167Y-37291873D02*
X41423729Y-38869345D01*
X41423729Y-38869345D02*
X40686503Y-40446916D01*
X40686503Y-40446916D02*
X39949503Y-42024595D01*
X39949503Y-42024595D02*
X39212744Y-43602386D01*
X39212744Y-43602386D02*
X38476239Y-45180296D01*
X38476239Y-45180296D02*
X37740004Y-46758332D01*
X37740004Y-46758332D02*
X37004053Y-48336500D01*
X37004053Y-48336500D02*
X36268400Y-49914806D01*
X36268400Y-49914806D02*
X35533059Y-51493257D01*
X35533059Y-51493257D02*
X34798045Y-53071858D01*
X34798045Y-53071858D02*
X34063373Y-54650618D01*
X34063373Y-54650618D02*
X33329057Y-56229541D01*
X33329057Y-56229541D02*
X32595111Y-57808634D01*
X32595111Y-57808634D02*
X31861549Y-59387904D01*
X31861549Y-59387904D02*
X31128387Y-60967356D01*
X31128387Y-60967356D02*
X30395638Y-62546998D01*
X30395638Y-62546998D02*
X29663318Y-64126836D01*
X29663318Y-64126836D02*
X28931439Y-65706876D01*
X28931439Y-65706876D02*
X28200018Y-67287124D01*
X28200018Y-67287124D02*
X27469067Y-68867586D01*
X27469067Y-68867586D02*
X26738603Y-70448270D01*
X26738603Y-70448270D02*
X26008638Y-72029182D01*
X26008638Y-72029182D02*
X25279188Y-73610327D01*
X25279188Y-73610327D02*
X24550267Y-75191713D01*
X66747818Y-29511163D02*
X66279108Y-29293796D01*
X66279108Y-29293796D02*
X65810475Y-29076247D01*
X65810475Y-29076247D02*
X65341908Y-28858540D01*
X65341908Y-28858540D02*
X64873394Y-28640703D01*
X64873394Y-28640703D02*
X64404921Y-28422762D01*
X64404921Y-28422762D02*
X63936479Y-28204745D01*
X63936479Y-28204745D02*
X63468056Y-27986679D01*
X63468056Y-27986679D02*
X62999639Y-27768589D01*
X62999639Y-27768589D02*
X62531217Y-27550503D01*
X62531217Y-27550503D02*
X62062778Y-27332448D01*
X62062778Y-27332448D02*
X61594311Y-27114451D01*
X61594311Y-27114451D02*
X61125805Y-26896537D01*
X61125805Y-26896537D02*
X60657246Y-26678735D01*
X60657246Y-26678735D02*
X60188625Y-26461071D01*
X60188625Y-26461071D02*
X59719928Y-26243572D01*
X59719928Y-26243572D02*
X59251144Y-26026264D01*
X59251144Y-26026264D02*
X58782263Y-25809174D01*
X58782263Y-25809174D02*
X58313271Y-25592330D01*
X58313271Y-25592330D02*
X57844157Y-25375757D01*
X57844157Y-25375757D02*
X57374910Y-25159483D01*
X57374910Y-25159483D02*
X56905518Y-24943535D01*
X56905518Y-24943535D02*
X56435969Y-24727939D01*
X56435969Y-24727939D02*
X55966251Y-24512723D01*
X55966251Y-24512723D02*
X55496354Y-24297912D01*
X55496354Y-24297912D02*
X55026264Y-24083535D01*
X55026264Y-24083535D02*
X54555971Y-23869617D01*
X54555971Y-23869617D02*
X54085463Y-23656185D01*
X54085463Y-23656185D02*
X53614728Y-23443266D01*
X53614728Y-23443266D02*
X53143755Y-23230888D01*
X53143755Y-23230888D02*
X52672531Y-23019077D01*
X52672531Y-23019077D02*
X52201045Y-22807859D01*
X52201045Y-22807859D02*
X51729286Y-22597262D01*
X72274937Y-19304128D02*
X72123132Y-19387933D01*
X72123132Y-19387933D02*
X71978977Y-19478347D01*
X71978977Y-19478347D02*
X71842115Y-19575055D01*
X71842115Y-19575055D02*
X71712193Y-19677742D01*
X71712193Y-19677742D02*
X71588857Y-19786094D01*
X71588857Y-19786094D02*
X71471753Y-19899795D01*
X71471753Y-19899795D02*
X71360525Y-20018529D01*
X71360525Y-20018529D02*
X71254821Y-20141983D01*
X71254821Y-20141983D02*
X71154285Y-20269841D01*
X71154285Y-20269841D02*
X71058563Y-20401788D01*
X71058563Y-20401788D02*
X70967302Y-20537509D01*
X70967302Y-20537509D02*
X70880146Y-20676689D01*
X70880146Y-20676689D02*
X70796743Y-20819014D01*
X70796743Y-20819014D02*
X70716737Y-20964167D01*
X70716737Y-20964167D02*
X70639774Y-21111834D01*
X70639774Y-21111834D02*
X70565500Y-21261701D01*
X70565500Y-21261701D02*
X70493560Y-21413451D01*
X70493560Y-21413451D02*
X70423602Y-21566771D01*
X70423602Y-21566771D02*
X70355269Y-21721344D01*
X70355269Y-21721344D02*
X70288209Y-21876857D01*
X70288209Y-21876857D02*
X70222066Y-22032993D01*
X70222066Y-22032993D02*
X70156487Y-22189439D01*
X70156487Y-22189439D02*
X70091117Y-22345879D01*
X70091117Y-22345879D02*
X70025602Y-22501997D01*
X70025602Y-22501997D02*
X69959588Y-22657480D01*
X69959588Y-22657480D02*
X69892721Y-22812012D01*
X69892721Y-22812012D02*
X69824646Y-22965277D01*
X69824646Y-22965277D02*
X69755009Y-23116962D01*
X69755009Y-23116962D02*
X69683455Y-23266751D01*
X69683455Y-23266751D02*
X69609632Y-23414328D01*
X69609632Y-23414328D02*
X69533184Y-23559380D01*
X69533184Y-23559380D02*
X69453757Y-23701591D01*
X51729286Y-22597262D02*
X51580588Y-22549000D01*
X51580588Y-22549000D02*
X51431946Y-22510385D01*
X51431946Y-22510385D02*
X51283574Y-22481182D01*
X51283574Y-22481182D02*
X51135688Y-22461157D01*
X51135688Y-22461157D02*
X50988502Y-22450075D01*
X50988502Y-22450075D02*
X50842234Y-22447702D01*
X50842234Y-22447702D02*
X50697096Y-22453803D01*
X50697096Y-22453803D02*
X50553306Y-22468144D01*
X50553306Y-22468144D02*
X50411079Y-22490491D01*
X50411079Y-22490491D02*
X50270630Y-22520609D01*
X50270630Y-22520609D02*
X50132174Y-22558264D01*
X50132174Y-22558264D02*
X49995927Y-22603222D01*
X49995927Y-22603222D02*
X49862104Y-22655247D01*
X49862104Y-22655247D02*
X49730921Y-22714107D01*
X49730921Y-22714107D02*
X49602593Y-22779565D01*
X49602593Y-22779565D02*
X49477335Y-22851389D01*
X49477335Y-22851389D02*
X49355363Y-22929343D01*
X49355363Y-22929343D02*
X49236892Y-23013193D01*
X49236892Y-23013193D02*
X49122138Y-23102706D01*
X49122138Y-23102706D02*
X49011316Y-23197645D01*
X49011316Y-23197645D02*
X48904641Y-23297778D01*
X48904641Y-23297778D02*
X48802329Y-23402869D01*
X48802329Y-23402869D02*
X48704596Y-23512684D01*
X48704596Y-23512684D02*
X48611656Y-23626989D01*
X48611656Y-23626989D02*
X48523725Y-23745550D01*
X48523725Y-23745550D02*
X48441019Y-23868132D01*
X48441019Y-23868132D02*
X48363752Y-23994500D01*
X48363752Y-23994500D02*
X48292141Y-24124421D01*
X48292141Y-24124421D02*
X48226400Y-24257659D01*
X48226400Y-24257659D02*
X48166745Y-24393981D01*
X48166745Y-24393981D02*
X48113392Y-24533153D01*
X48113392Y-24533153D02*
X48066556Y-24674939D01*
X26531866Y-79126595D02*
X26964664Y-79342862D01*
X26964664Y-79342862D02*
X27397982Y-79558085D01*
X27397982Y-79558085D02*
X27831802Y-79772298D01*
X27831802Y-79772298D02*
X28266105Y-79985534D01*
X28266105Y-79985534D02*
X28700876Y-80197826D01*
X28700876Y-80197826D02*
X29136096Y-80409207D01*
X29136096Y-80409207D02*
X29571748Y-80619710D01*
X29571748Y-80619710D02*
X30007815Y-80829369D01*
X30007815Y-80829369D02*
X30444280Y-81038216D01*
X30444280Y-81038216D02*
X30881125Y-81246285D01*
X30881125Y-81246285D02*
X31318333Y-81453609D01*
X31318333Y-81453609D02*
X31755886Y-81660221D01*
X31755886Y-81660221D02*
X32193768Y-81866154D01*
X32193768Y-81866154D02*
X32631961Y-82071441D01*
X32631961Y-82071441D02*
X33070448Y-82276116D01*
X33070448Y-82276116D02*
X33509212Y-82480212D01*
X33509212Y-82480212D02*
X33948234Y-82683761D01*
X33948234Y-82683761D02*
X34387498Y-82886797D01*
X34387498Y-82886797D02*
X34826986Y-83089354D01*
X34826986Y-83089354D02*
X35266682Y-83291463D01*
X35266682Y-83291463D02*
X35706568Y-83493159D01*
X35706568Y-83493159D02*
X36146626Y-83694475D01*
X36146626Y-83694475D02*
X36586839Y-83895443D01*
X36586839Y-83895443D02*
X37027190Y-84096098D01*
X37027190Y-84096098D02*
X37467662Y-84296471D01*
X37467662Y-84296471D02*
X37908236Y-84496596D01*
X37908236Y-84496596D02*
X38348897Y-84696507D01*
X38348897Y-84696507D02*
X38789627Y-84896236D01*
X38789627Y-84896236D02*
X39230408Y-85095817D01*
X39230408Y-85095817D02*
X39671222Y-85295283D01*
X39671222Y-85295283D02*
X40112054Y-85494667D01*
X40112054Y-85494667D02*
X40552885Y-85694002D01*
X57635847Y-100698993D02*
X57784269Y-100734187D01*
X57784269Y-100734187D02*
X57931668Y-100759907D01*
X57931668Y-100759907D02*
X58077893Y-100776415D01*
X58077893Y-100776415D02*
X58222792Y-100783977D01*
X58222792Y-100783977D02*
X58366215Y-100782857D01*
X58366215Y-100782857D02*
X58508010Y-100773319D01*
X58508010Y-100773319D02*
X58648027Y-100755629D01*
X58648027Y-100755629D02*
X58786113Y-100730049D01*
X58786113Y-100730049D02*
X58922119Y-100696846D01*
X58922119Y-100696846D02*
X59055892Y-100656283D01*
X59055892Y-100656283D02*
X59187283Y-100608625D01*
X59187283Y-100608625D02*
X59316139Y-100554137D01*
X59316139Y-100554137D02*
X59442310Y-100493083D01*
X59442310Y-100493083D02*
X59565645Y-100425727D01*
X59565645Y-100425727D02*
X59685992Y-100352334D01*
X59685992Y-100352334D02*
X59803201Y-100273169D01*
X59803201Y-100273169D02*
X59917120Y-100188496D01*
X59917120Y-100188496D02*
X60027598Y-100098579D01*
X60027598Y-100098579D02*
X60134484Y-100003684D01*
X60134484Y-100003684D02*
X60237627Y-99904074D01*
X60237627Y-99904074D02*
X60336876Y-99800013D01*
X60336876Y-99800013D02*
X60432081Y-99691768D01*
X60432081Y-99691768D02*
X60523088Y-99579602D01*
X60523088Y-99579602D02*
X60609749Y-99463779D01*
X60609749Y-99463779D02*
X60691911Y-99344564D01*
X60691911Y-99344564D02*
X60769424Y-99222222D01*
X60769424Y-99222222D02*
X60842136Y-99097016D01*
X60842136Y-99097016D02*
X60909896Y-98969213D01*
X60909896Y-98969213D02*
X60972554Y-98839075D01*
X60972554Y-98839075D02*
X61029957Y-98706868D01*
X61029957Y-98706868D02*
X61081956Y-98572857D01*
X61081956Y-98572857D02*
X61128399Y-98437305D01*
X68968261Y-122663221D02*
X69481522Y-122913780D01*
X69481522Y-122913780D02*
X69995452Y-123163013D01*
X69995452Y-123163013D02*
X70510008Y-123411008D01*
X70510008Y-123411008D02*
X71025142Y-123657850D01*
X71025142Y-123657850D02*
X71540812Y-123903628D01*
X71540812Y-123903628D02*
X72056971Y-124148428D01*
X72056971Y-124148428D02*
X72573575Y-124392337D01*
X72573575Y-124392337D02*
X73090578Y-124635444D01*
X73090578Y-124635444D02*
X73607936Y-124877833D01*
X73607936Y-124877833D02*
X74125604Y-125119594D01*
X74125604Y-125119594D02*
X74643537Y-125360813D01*
X74643537Y-125360813D02*
X75161690Y-125601576D01*
X75161690Y-125601576D02*
X75680017Y-125841972D01*
X75680017Y-125841972D02*
X76198474Y-126082088D01*
X76198474Y-126082088D02*
X76717017Y-126322009D01*
X76717017Y-126322009D02*
X77235599Y-126561824D01*
X77235599Y-126561824D02*
X77754176Y-126801620D01*
X77754176Y-126801620D02*
X78272703Y-127041483D01*
X78272703Y-127041483D02*
X78791136Y-127281502D01*
X78791136Y-127281502D02*
X79309428Y-127521762D01*
X79309428Y-127521762D02*
X79827535Y-127762351D01*
X79827535Y-127762351D02*
X80345413Y-128003357D01*
X80345413Y-128003357D02*
X80863016Y-128244866D01*
X80863016Y-128244866D02*
X81380298Y-128486965D01*
X81380298Y-128486965D02*
X81897217Y-128729742D01*
X81897217Y-128729742D02*
X82413725Y-128973284D01*
X82413725Y-128973284D02*
X82929779Y-129217677D01*
X82929779Y-129217677D02*
X83445333Y-129463009D01*
X83445333Y-129463009D02*
X83960342Y-129709367D01*
X83960342Y-129709367D02*
X84474762Y-129956839D01*
X84474762Y-129956839D02*
X84988547Y-130205510D01*
X84988547Y-130205510D02*
X85501653Y-130455470D01*
X24550267Y-75191713D02*
X24492336Y-75343933D01*
X24492336Y-75343933D02*
X24444807Y-75496428D01*
X24444807Y-75496428D02*
X24407413Y-75648979D01*
X24407413Y-75648979D02*
X24379886Y-75801372D01*
X24379886Y-75801372D02*
X24361961Y-75953390D01*
X24361961Y-75953390D02*
X24353369Y-76104817D01*
X24353369Y-76104817D02*
X24353844Y-76255437D01*
X24353844Y-76255437D02*
X24363120Y-76405034D01*
X24363120Y-76405034D02*
X24380929Y-76553391D01*
X24380929Y-76553391D02*
X24407004Y-76700294D01*
X24407004Y-76700294D02*
X24441079Y-76845525D01*
X24441079Y-76845525D02*
X24482886Y-76988868D01*
X24482886Y-76988868D02*
X24532159Y-77130108D01*
X24532159Y-77130108D02*
X24588631Y-77269029D01*
X24588631Y-77269029D02*
X24652035Y-77405413D01*
X24652035Y-77405413D02*
X24722104Y-77539046D01*
X24722104Y-77539046D02*
X24798570Y-77669711D01*
X24798570Y-77669711D02*
X24881169Y-77797192D01*
X24881169Y-77797192D02*
X24969631Y-77921273D01*
X24969631Y-77921273D02*
X25063691Y-78041737D01*
X25063691Y-78041737D02*
X25163082Y-78158370D01*
X25163082Y-78158370D02*
X25267536Y-78270954D01*
X25267536Y-78270954D02*
X25376787Y-78379273D01*
X25376787Y-78379273D02*
X25490569Y-78483112D01*
X25490569Y-78483112D02*
X25608613Y-78582255D01*
X25608613Y-78582255D02*
X25730653Y-78676484D01*
X25730653Y-78676484D02*
X25856422Y-78765585D01*
X25856422Y-78765585D02*
X25985654Y-78849341D01*
X25985654Y-78849341D02*
X26118081Y-78927536D01*
X26118081Y-78927536D02*
X26253436Y-78999954D01*
X26253436Y-78999954D02*
X26391454Y-79066379D01*
X26391454Y-79066379D02*
X26531866Y-79126595D01*
X66909430Y-119230553D02*
X66877436Y-119371545D01*
X66877436Y-119371545D02*
X66853552Y-119512051D01*
X66853552Y-119512051D02*
X66837588Y-119651900D01*
X66837588Y-119651900D02*
X66829354Y-119790924D01*
X66829354Y-119790924D02*
X66828661Y-119928954D01*
X66828661Y-119928954D02*
X66835319Y-120065822D01*
X66835319Y-120065822D02*
X66849140Y-120201358D01*
X66849140Y-120201358D02*
X66869934Y-120335393D01*
X66869934Y-120335393D02*
X66897511Y-120467760D01*
X66897511Y-120467760D02*
X66931681Y-120598288D01*
X66931681Y-120598288D02*
X66972256Y-120726809D01*
X66972256Y-120726809D02*
X67019046Y-120853155D01*
X67019046Y-120853155D02*
X67071862Y-120977157D01*
X67071862Y-120977157D02*
X67130513Y-121098645D01*
X67130513Y-121098645D02*
X67194812Y-121217451D01*
X67194812Y-121217451D02*
X67264567Y-121333407D01*
X67264567Y-121333407D02*
X67339591Y-121446342D01*
X67339591Y-121446342D02*
X67419692Y-121556089D01*
X67419692Y-121556089D02*
X67504683Y-121662479D01*
X67504683Y-121662479D02*
X67594373Y-121765343D01*
X67594373Y-121765343D02*
X67688573Y-121864511D01*
X67688573Y-121864511D02*
X67787094Y-121959816D01*
X67787094Y-121959816D02*
X67889746Y-122051089D01*
X67889746Y-122051089D02*
X67996340Y-122138160D01*
X67996340Y-122138160D02*
X68106686Y-122220861D01*
X68106686Y-122220861D02*
X68220595Y-122299022D01*
X68220595Y-122299022D02*
X68337877Y-122372476D01*
X68337877Y-122372476D02*
X68458343Y-122441054D01*
X68458343Y-122441054D02*
X68581804Y-122504586D01*
X68581804Y-122504586D02*
X68708070Y-122562903D01*
X68708070Y-122562903D02*
X68836952Y-122615838D01*
X68836952Y-122615838D02*
X68968261Y-122663221D01*
X43262606Y-94187262D02*
X43711382Y-94391307D01*
X43711382Y-94391307D02*
X44159686Y-94596533D01*
X44159686Y-94596533D02*
X44607566Y-94802818D01*
X44607566Y-94802818D02*
X45055072Y-95010041D01*
X45055072Y-95010041D02*
X45502255Y-95218078D01*
X45502255Y-95218078D02*
X45949164Y-95426810D01*
X45949164Y-95426810D02*
X46395848Y-95636115D01*
X46395848Y-95636115D02*
X46842359Y-95845869D01*
X46842359Y-95845869D02*
X47288744Y-96055954D01*
X47288744Y-96055954D02*
X47735055Y-96266245D01*
X47735055Y-96266245D02*
X48181341Y-96476623D01*
X48181341Y-96476623D02*
X48627653Y-96686964D01*
X48627653Y-96686964D02*
X49074039Y-96897149D01*
X49074039Y-96897149D02*
X49520549Y-97107054D01*
X49520549Y-97107054D02*
X49967234Y-97316559D01*
X49967234Y-97316559D02*
X50414143Y-97525541D01*
X50414143Y-97525541D02*
X50861327Y-97733880D01*
X50861327Y-97733880D02*
X51308834Y-97941453D01*
X51308834Y-97941453D02*
X51756715Y-98148139D01*
X51756715Y-98148139D02*
X52205019Y-98353816D01*
X52205019Y-98353816D02*
X52653797Y-98558363D01*
X52653797Y-98558363D02*
X53103098Y-98761658D01*
X53103098Y-98761658D02*
X53552972Y-98963580D01*
X53552972Y-98963580D02*
X54003469Y-99164006D01*
X54003469Y-99164006D02*
X54454639Y-99362815D01*
X54454639Y-99362815D02*
X54906531Y-99559886D01*
X54906531Y-99559886D02*
X55359196Y-99755097D01*
X55359196Y-99755097D02*
X55812682Y-99948326D01*
X55812682Y-99948326D02*
X56267041Y-100139451D01*
X56267041Y-100139451D02*
X56722321Y-100328352D01*
X56722321Y-100328352D02*
X57178573Y-100514906D01*
X57178573Y-100514906D02*
X57635847Y-100698993D01*
X38944887Y-90991902D02*
X38992614Y-91175706D01*
X38992614Y-91175706D02*
X39050911Y-91349912D01*
X39050911Y-91349912D02*
X39119283Y-91514939D01*
X39119283Y-91514939D02*
X39197235Y-91671204D01*
X39197235Y-91671204D02*
X39284273Y-91819126D01*
X39284273Y-91819126D02*
X39379903Y-91959123D01*
X39379903Y-91959123D02*
X39483630Y-92091613D01*
X39483630Y-92091613D02*
X39594960Y-92217014D01*
X39594960Y-92217014D02*
X39713400Y-92335744D01*
X39713400Y-92335744D02*
X39838453Y-92448222D01*
X39838453Y-92448222D02*
X39969627Y-92554866D01*
X39969627Y-92554866D02*
X40106427Y-92656094D01*
X40106427Y-92656094D02*
X40248358Y-92752324D01*
X40248358Y-92752324D02*
X40394926Y-92843974D01*
X40394926Y-92843974D02*
X40545638Y-92931462D01*
X40545638Y-92931462D02*
X40699998Y-93015207D01*
X40699998Y-93015207D02*
X40857512Y-93095627D01*
X40857512Y-93095627D02*
X41017686Y-93173140D01*
X41017686Y-93173140D02*
X41180026Y-93248164D01*
X41180026Y-93248164D02*
X41344037Y-93321117D01*
X41344037Y-93321117D02*
X41509226Y-93392418D01*
X41509226Y-93392418D02*
X41675097Y-93462485D01*
X41675097Y-93462485D02*
X41841156Y-93531735D01*
X41841156Y-93531735D02*
X42006909Y-93600588D01*
X42006909Y-93600588D02*
X42171862Y-93669460D01*
X42171862Y-93669460D02*
X42335521Y-93738771D01*
X42335521Y-93738771D02*
X42497391Y-93808939D01*
X42497391Y-93808939D02*
X42656977Y-93880381D01*
X42656977Y-93880381D02*
X42813786Y-93953517D01*
X42813786Y-93953517D02*
X42967324Y-94028763D01*
X42967324Y-94028763D02*
X43117095Y-94106538D01*
X43117095Y-94106538D02*
X43262606Y-94187262D01*
X40552885Y-85694002D02*
X40491888Y-85854106D01*
X40491888Y-85854106D02*
X40427214Y-86014095D01*
X40427214Y-86014095D02*
X40359302Y-86174013D01*
X40359302Y-86174013D02*
X40288587Y-86333909D01*
X40288587Y-86333909D02*
X40215507Y-86493829D01*
X40215507Y-86493829D02*
X40140498Y-86653819D01*
X40140498Y-86653819D02*
X40063998Y-86813928D01*
X40063998Y-86813928D02*
X39986443Y-86974200D01*
X39986443Y-86974200D02*
X39908271Y-87134684D01*
X39908271Y-87134684D02*
X39829918Y-87295427D01*
X39829918Y-87295427D02*
X39751822Y-87456474D01*
X39751822Y-87456474D02*
X39674419Y-87617873D01*
X39674419Y-87617873D02*
X39598146Y-87779671D01*
X39598146Y-87779671D02*
X39523441Y-87941915D01*
X39523441Y-87941915D02*
X39450739Y-88104651D01*
X39450739Y-88104651D02*
X39380480Y-88267926D01*
X39380480Y-88267926D02*
X39313098Y-88431787D01*
X39313098Y-88431787D02*
X39249031Y-88596282D01*
X39249031Y-88596282D02*
X39188717Y-88761456D01*
X39188717Y-88761456D02*
X39132591Y-88927357D01*
X39132591Y-88927357D02*
X39081092Y-89094032D01*
X39081092Y-89094032D02*
X39034655Y-89261526D01*
X39034655Y-89261526D02*
X38993719Y-89429888D01*
X38993719Y-89429888D02*
X38958719Y-89599165D01*
X38958719Y-89599165D02*
X38930093Y-89769402D01*
X38930093Y-89769402D02*
X38908278Y-89940646D01*
X38908278Y-89940646D02*
X38893711Y-90112946D01*
X38893711Y-90112946D02*
X38886829Y-90286347D01*
X38886829Y-90286347D02*
X38888068Y-90460896D01*
X38888068Y-90460896D02*
X38897866Y-90636640D01*
X38897866Y-90636640D02*
X38916660Y-90813626D01*
X38916660Y-90813626D02*
X38944887Y-90991902D01*
X74317580Y-103151694D02*
X74083908Y-103653070D01*
X74083908Y-103653070D02*
X73849752Y-104154263D01*
X73849752Y-104154263D02*
X73615174Y-104655298D01*
X73615174Y-104655298D02*
X73380237Y-105156201D01*
X73380237Y-105156201D02*
X73145002Y-105656997D01*
X73145002Y-105656997D02*
X72909533Y-106157712D01*
X72909533Y-106157712D02*
X72673892Y-106658369D01*
X72673892Y-106658369D02*
X72438141Y-107158996D01*
X72438141Y-107158996D02*
X72202342Y-107659617D01*
X72202342Y-107659617D02*
X71966559Y-108160258D01*
X71966559Y-108160258D02*
X71730853Y-108660943D01*
X71730853Y-108660943D02*
X71495286Y-109161699D01*
X71495286Y-109161699D02*
X71259922Y-109662550D01*
X71259922Y-109662550D02*
X71024823Y-110163522D01*
X71024823Y-110163522D02*
X70790050Y-110664640D01*
X70790050Y-110664640D02*
X70555668Y-111165929D01*
X70555668Y-111165929D02*
X70321736Y-111667416D01*
X70321736Y-111667416D02*
X70088320Y-112169124D01*
X70088320Y-112169124D02*
X69855479Y-112671081D01*
X69855479Y-112671081D02*
X69623278Y-113173309D01*
X69623278Y-113173309D02*
X69391779Y-113675836D01*
X69391779Y-113675836D02*
X69161043Y-114178687D01*
X69161043Y-114178687D02*
X68931133Y-114681886D01*
X68931133Y-114681886D02*
X68702113Y-115185459D01*
X68702113Y-115185459D02*
X68474043Y-115689432D01*
X68474043Y-115689432D02*
X68246987Y-116193830D01*
X68246987Y-116193830D02*
X68021007Y-116698677D01*
X68021007Y-116698677D02*
X67796165Y-117204000D01*
X67796165Y-117204000D02*
X67572524Y-117709824D01*
X67572524Y-117709824D02*
X67350146Y-118216174D01*
X67350146Y-118216174D02*
X67129094Y-118723075D01*
X67129094Y-118723075D02*
X66909430Y-119230553D01*
X62862411Y-97804440D02*
X63219924Y-97972526D01*
X63219924Y-97972526D02*
X63577472Y-98140538D01*
X63577472Y-98140538D02*
X63935056Y-98308477D01*
X63935056Y-98308477D02*
X64292673Y-98476342D01*
X64292673Y-98476342D02*
X64650323Y-98644136D01*
X64650323Y-98644136D02*
X65008007Y-98811860D01*
X65008007Y-98811860D02*
X65365723Y-98979515D01*
X65365723Y-98979515D02*
X65723471Y-99147101D01*
X65723471Y-99147101D02*
X66081250Y-99314620D01*
X66081250Y-99314620D02*
X66439060Y-99482074D01*
X66439060Y-99482074D02*
X66796900Y-99649463D01*
X66796900Y-99649463D02*
X67154770Y-99816788D01*
X67154770Y-99816788D02*
X67512670Y-99984051D01*
X67512670Y-99984051D02*
X67870597Y-100151252D01*
X67870597Y-100151252D02*
X68228553Y-100318394D01*
X68228553Y-100318394D02*
X68586537Y-100485476D01*
X68586537Y-100485476D02*
X68944547Y-100652501D01*
X68944547Y-100652501D02*
X69302584Y-100819468D01*
X69302584Y-100819468D02*
X69660647Y-100986380D01*
X69660647Y-100986380D02*
X70018735Y-101153238D01*
X70018735Y-101153238D02*
X70376849Y-101320042D01*
X70376849Y-101320042D02*
X70734986Y-101486794D01*
X70734986Y-101486794D02*
X71093147Y-101653495D01*
X71093147Y-101653495D02*
X71451332Y-101820147D01*
X71451332Y-101820147D02*
X71809539Y-101986749D01*
X71809539Y-101986749D02*
X72167768Y-102153303D01*
X72167768Y-102153303D02*
X72526019Y-102319811D01*
X72526019Y-102319811D02*
X72884291Y-102486274D01*
X72884291Y-102486274D02*
X73242584Y-102652693D01*
X73242584Y-102652693D02*
X73600897Y-102819068D01*
X73600897Y-102819068D02*
X73959229Y-102985401D01*
X73959229Y-102985401D02*
X74317580Y-103151694D01*
X61128399Y-98437305D02*
X61182082Y-98243986D01*
X61182082Y-98243986D02*
X61242541Y-98069836D01*
X61242541Y-98069836D02*
X61309885Y-97915142D01*
X61309885Y-97915142D02*
X61384227Y-97780188D01*
X61384227Y-97780188D02*
X61465676Y-97665261D01*
X61465676Y-97665261D02*
X61554343Y-97570644D01*
X61554343Y-97570644D02*
X61701121Y-97467429D01*
X61701121Y-97467429D02*
X61864764Y-97411521D01*
X61864764Y-97411521D02*
X62045645Y-97403884D01*
X62045645Y-97403884D02*
X62175995Y-97426085D01*
X62175995Y-97426085D02*
X62314283Y-97470454D01*
X62314283Y-97470454D02*
X62460621Y-97537277D01*
X62460621Y-97537277D02*
X62615120Y-97626838D01*
X62615120Y-97626838D02*
X62777889Y-97739423D01*
X62777889Y-97739423D02*
X62862411Y-97804440D01*
X223602141Y-122299376D02*
X223725116Y-122223042D01*
X223725116Y-122223042D02*
X223842235Y-122141032D01*
X223842235Y-122141032D02*
X223953475Y-122053620D01*
X223953475Y-122053620D02*
X224058814Y-121961082D01*
X224058814Y-121961082D02*
X224158233Y-121863696D01*
X224158233Y-121863696D02*
X224251708Y-121761735D01*
X224251708Y-121761735D02*
X224339219Y-121655476D01*
X224339219Y-121655476D02*
X224420744Y-121545196D01*
X224420744Y-121545196D02*
X224496261Y-121431168D01*
X224496261Y-121431168D02*
X224565749Y-121313671D01*
X224565749Y-121313671D02*
X224629187Y-121192978D01*
X224629187Y-121192978D02*
X224686553Y-121069367D01*
X224686553Y-121069367D02*
X224737826Y-120943113D01*
X224737826Y-120943113D02*
X224782984Y-120814492D01*
X224782984Y-120814492D02*
X224822005Y-120683779D01*
X224822005Y-120683779D02*
X224854869Y-120551250D01*
X224854869Y-120551250D02*
X224881553Y-120417182D01*
X224881553Y-120417182D02*
X224902037Y-120281850D01*
X224902037Y-120281850D02*
X224916298Y-120145529D01*
X224916298Y-120145529D02*
X224924316Y-120008497D01*
X224924316Y-120008497D02*
X224926068Y-119871028D01*
X224926068Y-119871028D02*
X224921534Y-119733398D01*
X224921534Y-119733398D02*
X224910691Y-119595883D01*
X224910691Y-119595883D02*
X224893519Y-119458759D01*
X224893519Y-119458759D02*
X224869996Y-119322302D01*
X224869996Y-119322302D02*
X224840100Y-119186788D01*
X224840100Y-119186788D02*
X224803810Y-119052492D01*
X224803810Y-119052492D02*
X224761105Y-118919691D01*
X224761105Y-118919691D02*
X224711963Y-118788659D01*
X224711963Y-118788659D02*
X224656362Y-118659674D01*
X224656362Y-118659674D02*
X224594281Y-118533010D01*
X224594281Y-118533010D02*
X224525699Y-118408944D01*
X175937123Y-155293254D02*
X176109689Y-155268486D01*
X176109689Y-155268486D02*
X176277177Y-155234382D01*
X176277177Y-155234382D02*
X176439822Y-155191387D01*
X176439822Y-155191387D02*
X176597860Y-155139952D01*
X176597860Y-155139952D02*
X176751526Y-155080524D01*
X176751526Y-155080524D02*
X176901057Y-155013552D01*
X176901057Y-155013552D02*
X177046687Y-154939484D01*
X177046687Y-154939484D02*
X177188653Y-154858768D01*
X177188653Y-154858768D02*
X177327190Y-154771854D01*
X177327190Y-154771854D02*
X177462534Y-154679188D01*
X177462534Y-154679188D02*
X177594920Y-154581221D01*
X177594920Y-154581221D02*
X177724585Y-154478400D01*
X177724585Y-154478400D02*
X177851763Y-154371173D01*
X177851763Y-154371173D02*
X177976690Y-154259989D01*
X177976690Y-154259989D02*
X178099603Y-154145296D01*
X178099603Y-154145296D02*
X178220736Y-154027544D01*
X178220736Y-154027544D02*
X178340325Y-153907179D01*
X178340325Y-153907179D02*
X178458607Y-153784651D01*
X178458607Y-153784651D02*
X178575816Y-153660407D01*
X178575816Y-153660407D02*
X178692189Y-153534897D01*
X178692189Y-153534897D02*
X178807960Y-153408569D01*
X178807960Y-153408569D02*
X178923367Y-153281871D01*
X178923367Y-153281871D02*
X179038643Y-153155251D01*
X179038643Y-153155251D02*
X179154026Y-153029159D01*
X179154026Y-153029159D02*
X179269750Y-152904041D01*
X179269750Y-152904041D02*
X179386051Y-152780347D01*
X179386051Y-152780347D02*
X179503165Y-152658525D01*
X179503165Y-152658525D02*
X179621328Y-152539024D01*
X179621328Y-152539024D02*
X179740775Y-152422292D01*
X179740775Y-152422292D02*
X179861742Y-152308776D01*
X179861742Y-152308776D02*
X179984465Y-152198927D01*
X179984465Y-152198927D02*
X180109179Y-152093192D01*
X191302249Y-140957209D02*
X191786353Y-140622016D01*
X191786353Y-140622016D02*
X192270079Y-140286166D01*
X192270079Y-140286166D02*
X192753459Y-139949719D01*
X192753459Y-139949719D02*
X193236527Y-139612731D01*
X193236527Y-139612731D02*
X193719318Y-139275263D01*
X193719318Y-139275263D02*
X194201865Y-138937371D01*
X194201865Y-138937371D02*
X194684201Y-138599116D01*
X194684201Y-138599116D02*
X195166361Y-138260555D01*
X195166361Y-138260555D02*
X195648378Y-137921746D01*
X195648378Y-137921746D02*
X196130286Y-137582749D01*
X196130286Y-137582749D02*
X196612119Y-137243622D01*
X196612119Y-137243622D02*
X197093910Y-136904423D01*
X197093910Y-136904423D02*
X197575694Y-136565211D01*
X197575694Y-136565211D02*
X198057504Y-136226044D01*
X198057504Y-136226044D02*
X198539373Y-135886982D01*
X198539373Y-135886982D02*
X199021336Y-135548081D01*
X199021336Y-135548081D02*
X199503426Y-135209402D01*
X199503426Y-135209402D02*
X199985678Y-134871002D01*
X199985678Y-134871002D02*
X200468124Y-134532940D01*
X200468124Y-134532940D02*
X200950799Y-134195275D01*
X200950799Y-134195275D02*
X201433736Y-133858064D01*
X201433736Y-133858064D02*
X201916969Y-133521367D01*
X201916969Y-133521367D02*
X202400532Y-133185242D01*
X202400532Y-133185242D02*
X202884459Y-132849748D01*
X202884459Y-132849748D02*
X203368783Y-132514943D01*
X203368783Y-132514943D02*
X203853538Y-132180885D01*
X203853538Y-132180885D02*
X204338758Y-131847633D01*
X204338758Y-131847633D02*
X204824477Y-131515246D01*
X204824477Y-131515246D02*
X205310728Y-131183782D01*
X205310728Y-131183782D02*
X205797545Y-130853300D01*
X205797545Y-130853300D02*
X206284963Y-130523858D01*
X206284963Y-130523858D02*
X206773014Y-130195515D01*
X180109179Y-152093192D02*
X180459779Y-151746166D01*
X180459779Y-151746166D02*
X180809889Y-151398557D01*
X180809889Y-151398557D02*
X181159553Y-151050414D01*
X181159553Y-151050414D02*
X181508813Y-150701792D01*
X181508813Y-150701792D02*
X181857714Y-150352742D01*
X181857714Y-150352742D02*
X182206299Y-150003315D01*
X182206299Y-150003315D02*
X182554613Y-149653565D01*
X182554613Y-149653565D02*
X182902698Y-149303543D01*
X182902698Y-149303543D02*
X183250600Y-148953302D01*
X183250600Y-148953302D02*
X183598361Y-148602894D01*
X183598361Y-148602894D02*
X183946026Y-148252371D01*
X183946026Y-148252371D02*
X184293638Y-147901785D01*
X184293638Y-147901785D02*
X184641241Y-147551188D01*
X184641241Y-147551188D02*
X184988879Y-147200632D01*
X184988879Y-147200632D02*
X185336595Y-146850171D01*
X185336595Y-146850171D02*
X185684435Y-146499855D01*
X185684435Y-146499855D02*
X186032440Y-146149737D01*
X186032440Y-146149737D02*
X186380655Y-145799869D01*
X186380655Y-145799869D02*
X186729124Y-145450304D01*
X186729124Y-145450304D02*
X187077891Y-145101093D01*
X187077891Y-145101093D02*
X187426999Y-144752289D01*
X187426999Y-144752289D02*
X187776492Y-144403944D01*
X187776492Y-144403944D02*
X188126415Y-144056110D01*
X188126415Y-144056110D02*
X188476810Y-143708839D01*
X188476810Y-143708839D02*
X188827722Y-143362183D01*
X188827722Y-143362183D02*
X189179194Y-143016195D01*
X189179194Y-143016195D02*
X189531271Y-142670927D01*
X189531271Y-142670927D02*
X189883995Y-142326431D01*
X189883995Y-142326431D02*
X190237411Y-141982759D01*
X190237411Y-141982759D02*
X190591563Y-141639963D01*
X190591563Y-141639963D02*
X190946494Y-141298095D01*
X190946494Y-141298095D02*
X191302249Y-140957209D01*
X217516596Y-103159937D02*
X217907720Y-102974137D01*
X217907720Y-102974137D02*
X218299192Y-102788611D01*
X218299192Y-102788611D02*
X218690989Y-102603333D01*
X218690989Y-102603333D02*
X219083093Y-102418279D01*
X219083093Y-102418279D02*
X219475481Y-102233426D01*
X219475481Y-102233426D02*
X219868133Y-102048750D01*
X219868133Y-102048750D02*
X220261028Y-101864227D01*
X220261028Y-101864227D02*
X220654145Y-101679832D01*
X220654145Y-101679832D02*
X221047464Y-101495542D01*
X221047464Y-101495542D02*
X221440963Y-101311333D01*
X221440963Y-101311333D02*
X221834623Y-101127181D01*
X221834623Y-101127181D02*
X222228421Y-100943062D01*
X222228421Y-100943062D02*
X222622338Y-100758952D01*
X222622338Y-100758952D02*
X223016352Y-100574827D01*
X223016352Y-100574827D02*
X223410443Y-100390663D01*
X223410443Y-100390663D02*
X223804590Y-100206436D01*
X223804590Y-100206436D02*
X224198771Y-100022122D01*
X224198771Y-100022122D02*
X224592967Y-99837698D01*
X224592967Y-99837698D02*
X224987157Y-99653138D01*
X224987157Y-99653138D02*
X225381319Y-99468421D01*
X225381319Y-99468421D02*
X225775433Y-99283520D01*
X225775433Y-99283520D02*
X226169478Y-99098413D01*
X226169478Y-99098413D02*
X226563434Y-98913075D01*
X226563434Y-98913075D02*
X226957278Y-98727483D01*
X226957278Y-98727483D02*
X227350992Y-98541613D01*
X227350992Y-98541613D02*
X227744553Y-98355440D01*
X227744553Y-98355440D02*
X228137941Y-98168940D01*
X228137941Y-98168940D02*
X228531136Y-97982091D01*
X228531136Y-97982091D02*
X228924116Y-97794867D01*
X228924116Y-97794867D02*
X229316861Y-97607244D01*
X229316861Y-97607244D02*
X229709349Y-97419200D01*
X229709349Y-97419200D02*
X230101561Y-97230710D01*
X119565697Y-155321959D02*
X121327238Y-155320380D01*
X121327238Y-155320380D02*
X123088819Y-155319214D01*
X123088819Y-155319214D02*
X124850436Y-155318423D01*
X124850436Y-155318423D02*
X126612086Y-155317971D01*
X126612086Y-155317971D02*
X128373764Y-155317820D01*
X128373764Y-155317820D02*
X130135468Y-155317933D01*
X130135468Y-155317933D02*
X131897194Y-155318275D01*
X131897194Y-155318275D02*
X133658939Y-155318808D01*
X133658939Y-155318808D02*
X135420698Y-155319495D01*
X135420698Y-155319495D02*
X137182468Y-155320300D01*
X137182468Y-155320300D02*
X138944246Y-155321186D01*
X138944246Y-155321186D02*
X140706029Y-155322115D01*
X140706029Y-155322115D02*
X142467812Y-155323052D01*
X142467812Y-155323052D02*
X144229592Y-155323959D01*
X144229592Y-155323959D02*
X145991366Y-155324800D01*
X145991366Y-155324800D02*
X147753130Y-155325537D01*
X147753130Y-155325537D02*
X149514881Y-155326134D01*
X149514881Y-155326134D02*
X151276614Y-155326554D01*
X151276614Y-155326554D02*
X153038327Y-155326761D01*
X153038327Y-155326761D02*
X154800016Y-155326717D01*
X154800016Y-155326717D02*
X156561678Y-155326386D01*
X156561678Y-155326386D02*
X158323308Y-155325731D01*
X158323308Y-155325731D02*
X160084904Y-155324714D01*
X160084904Y-155324714D02*
X161846461Y-155323300D01*
X161846461Y-155323300D02*
X163607977Y-155321452D01*
X163607977Y-155321452D02*
X165369448Y-155319132D01*
X165369448Y-155319132D02*
X167130869Y-155316304D01*
X167130869Y-155316304D02*
X168892239Y-155312931D01*
X168892239Y-155312931D02*
X170653552Y-155308976D01*
X170653552Y-155308976D02*
X172414806Y-155304403D01*
X172414806Y-155304403D02*
X174175998Y-155299174D01*
X174175998Y-155299174D02*
X175937123Y-155293254D01*
X114353919Y-154631268D02*
X114498294Y-154706022D01*
X114498294Y-154706022D02*
X114654869Y-154775332D01*
X114654869Y-154775332D02*
X114822541Y-154839399D01*
X114822541Y-154839399D02*
X115000211Y-154898424D01*
X115000211Y-154898424D02*
X115186777Y-154952609D01*
X115186777Y-154952609D02*
X115381140Y-155002155D01*
X115381140Y-155002155D02*
X115582199Y-155047263D01*
X115582199Y-155047263D02*
X115788853Y-155088136D01*
X115788853Y-155088136D02*
X116000001Y-155124974D01*
X116000001Y-155124974D02*
X116214544Y-155157979D01*
X116214544Y-155157979D02*
X116431380Y-155187351D01*
X116431380Y-155187351D02*
X116649409Y-155213294D01*
X116649409Y-155213294D02*
X116867531Y-155236008D01*
X116867531Y-155236008D02*
X117084645Y-155255694D01*
X117084645Y-155255694D02*
X117299650Y-155272554D01*
X117299650Y-155272554D02*
X117511446Y-155286789D01*
X117511446Y-155286789D02*
X117718933Y-155298601D01*
X117718933Y-155298601D02*
X117921009Y-155308191D01*
X117921009Y-155308191D02*
X118116574Y-155315761D01*
X118116574Y-155315761D02*
X118304528Y-155321512D01*
X118304528Y-155321512D02*
X118483771Y-155325645D01*
X118483771Y-155325645D02*
X118653201Y-155328362D01*
X118653201Y-155328362D02*
X118811717Y-155329865D01*
X118811717Y-155329865D02*
X118958221Y-155330354D01*
X118958221Y-155330354D02*
X119091610Y-155330031D01*
X119091610Y-155330031D02*
X119314644Y-155327756D01*
X119314644Y-155327756D02*
X119472016Y-155324650D01*
X119472016Y-155324650D02*
X119565697Y-155321959D01*
X85501653Y-130455470D02*
X85988425Y-130794467D01*
X85988425Y-130794467D02*
X86475419Y-131133580D01*
X86475419Y-131133580D02*
X86962612Y-131472814D01*
X86962612Y-131472814D02*
X87449986Y-131812177D01*
X87449986Y-131812177D02*
X87937518Y-132151675D01*
X87937518Y-132151675D02*
X88425188Y-132491314D01*
X88425188Y-132491314D02*
X88912976Y-132831102D01*
X88912976Y-132831102D02*
X89400861Y-133171045D01*
X89400861Y-133171045D02*
X89888822Y-133511150D01*
X89888822Y-133511150D02*
X90376838Y-133851423D01*
X90376838Y-133851423D02*
X90864889Y-134191871D01*
X90864889Y-134191871D02*
X91352954Y-134532502D01*
X91352954Y-134532502D02*
X91841012Y-134873320D01*
X91841012Y-134873320D02*
X92329043Y-135214334D01*
X92329043Y-135214334D02*
X92817025Y-135555549D01*
X92817025Y-135555549D02*
X93304940Y-135896973D01*
X93304940Y-135896973D02*
X93792764Y-136238611D01*
X93792764Y-136238611D02*
X94280479Y-136580472D01*
X94280479Y-136580472D02*
X94768062Y-136922561D01*
X94768062Y-136922561D02*
X95255494Y-137264885D01*
X95255494Y-137264885D02*
X95742754Y-137607451D01*
X95742754Y-137607451D02*
X96229821Y-137950266D01*
X96229821Y-137950266D02*
X96716674Y-138293335D01*
X96716674Y-138293335D02*
X97203293Y-138636667D01*
X97203293Y-138636667D02*
X97689657Y-138980266D01*
X97689657Y-138980266D02*
X98175746Y-139324141D01*
X98175746Y-139324141D02*
X98661538Y-139668298D01*
X98661538Y-139668298D02*
X99147013Y-140012743D01*
X99147013Y-140012743D02*
X99632150Y-140357483D01*
X99632150Y-140357483D02*
X100116928Y-140702525D01*
X100116928Y-140702525D02*
X100601328Y-141047876D01*
X100601328Y-141047876D02*
X101085328Y-141393542D01*
X206773014Y-130195515D02*
X207298999Y-129948952D01*
X207298999Y-129948952D02*
X207825168Y-129702767D01*
X207825168Y-129702767D02*
X208351503Y-129456919D01*
X208351503Y-129456919D02*
X208877984Y-129211371D01*
X208877984Y-129211371D02*
X209404593Y-128966082D01*
X209404593Y-128966082D02*
X209931311Y-128721015D01*
X209931311Y-128721015D02*
X210458118Y-128476129D01*
X210458118Y-128476129D02*
X210984996Y-128231387D01*
X210984996Y-128231387D02*
X211511926Y-127986749D01*
X211511926Y-127986749D02*
X212038889Y-127742177D01*
X212038889Y-127742177D02*
X212565866Y-127497631D01*
X212565866Y-127497631D02*
X213092838Y-127253073D01*
X213092838Y-127253073D02*
X213619786Y-127008464D01*
X213619786Y-127008464D02*
X214146692Y-126763764D01*
X214146692Y-126763764D02*
X214673536Y-126518935D01*
X214673536Y-126518935D02*
X215200300Y-126273938D01*
X215200300Y-126273938D02*
X215726964Y-126028734D01*
X215726964Y-126028734D02*
X216253510Y-125783284D01*
X216253510Y-125783284D02*
X216779919Y-125537550D01*
X216779919Y-125537550D02*
X217306172Y-125291491D01*
X217306172Y-125291491D02*
X217832249Y-125045070D01*
X217832249Y-125045070D02*
X218358133Y-124798248D01*
X218358133Y-124798248D02*
X218883803Y-124550985D01*
X218883803Y-124550985D02*
X219409242Y-124303242D01*
X219409242Y-124303242D02*
X219934431Y-124054982D01*
X219934431Y-124054982D02*
X220459349Y-123806164D01*
X220459349Y-123806164D02*
X220983979Y-123556750D01*
X220983979Y-123556750D02*
X221508302Y-123306701D01*
X221508302Y-123306701D02*
X222032299Y-123055978D01*
X222032299Y-123055978D02*
X222555950Y-122804542D01*
X222555950Y-122804542D02*
X223079237Y-122552354D01*
X223079237Y-122552354D02*
X223602141Y-122299376D01*
X224525699Y-118408944D02*
X224313702Y-117929233D01*
X224313702Y-117929233D02*
X224101137Y-117449775D01*
X224101137Y-117449775D02*
X223888014Y-116970564D01*
X223888014Y-116970564D02*
X223674344Y-116491596D01*
X223674344Y-116491596D02*
X223460139Y-116012865D01*
X223460139Y-116012865D02*
X223245411Y-115534368D01*
X223245411Y-115534368D02*
X223030172Y-115056099D01*
X223030172Y-115056099D02*
X222814432Y-114578055D01*
X222814432Y-114578055D02*
X222598203Y-114100229D01*
X222598203Y-114100229D02*
X222381498Y-113622618D01*
X222381498Y-113622618D02*
X222164326Y-113145216D01*
X222164326Y-113145216D02*
X221946701Y-112668020D01*
X221946701Y-112668020D02*
X221728633Y-112191024D01*
X221728633Y-112191024D02*
X221510134Y-111714224D01*
X221510134Y-111714224D02*
X221291215Y-111237615D01*
X221291215Y-111237615D02*
X221071889Y-110761192D01*
X221071889Y-110761192D02*
X220852166Y-110284951D01*
X220852166Y-110284951D02*
X220632058Y-109808886D01*
X220632058Y-109808886D02*
X220411577Y-109332994D01*
X220411577Y-109332994D02*
X220190734Y-108857270D01*
X220190734Y-108857270D02*
X219969541Y-108381708D01*
X219969541Y-108381708D02*
X219748009Y-107906304D01*
X219748009Y-107906304D02*
X219526149Y-107431054D01*
X219526149Y-107431054D02*
X219303975Y-106955953D01*
X219303975Y-106955953D02*
X219081496Y-106480996D01*
X219081496Y-106480996D02*
X218858724Y-106006178D01*
X218858724Y-106006178D02*
X218635671Y-105531495D01*
X218635671Y-105531495D02*
X218412349Y-105056942D01*
X218412349Y-105056942D02*
X218188769Y-104582514D01*
X218188769Y-104582514D02*
X217964942Y-104108207D01*
X217964942Y-104108207D02*
X217740881Y-103634016D01*
X217740881Y-103634016D02*
X217516596Y-103159937D01*
X101085328Y-141393542D02*
X101500412Y-141806687D01*
X101500412Y-141806687D02*
X101915233Y-142220152D01*
X101915233Y-142220152D02*
X102329813Y-142633907D01*
X102329813Y-142633907D02*
X102744177Y-143047925D01*
X102744177Y-143047925D02*
X103158348Y-143462177D01*
X103158348Y-143462177D02*
X103572349Y-143876634D01*
X103572349Y-143876634D02*
X103986204Y-144291268D01*
X103986204Y-144291268D02*
X104399937Y-144706051D01*
X104399937Y-144706051D02*
X104813570Y-145120953D01*
X104813570Y-145120953D02*
X105227128Y-145535947D01*
X105227128Y-145535947D02*
X105640635Y-145951004D01*
X105640635Y-145951004D02*
X106054112Y-146366095D01*
X106054112Y-146366095D02*
X106467585Y-146781192D01*
X106467585Y-146781192D02*
X106881076Y-147196266D01*
X106881076Y-147196266D02*
X107294610Y-147611290D01*
X107294610Y-147611290D02*
X107708209Y-148026233D01*
X107708209Y-148026233D02*
X108121897Y-148441069D01*
X108121897Y-148441069D02*
X108535698Y-148855768D01*
X108535698Y-148855768D02*
X108949635Y-149270303D01*
X108949635Y-149270303D02*
X109363732Y-149684644D01*
X109363732Y-149684644D02*
X109778012Y-150098762D01*
X109778012Y-150098762D02*
X110192499Y-150512631D01*
X110192499Y-150512631D02*
X110607217Y-150926220D01*
X110607217Y-150926220D02*
X111022188Y-151339502D01*
X111022188Y-151339502D02*
X111437436Y-151752447D01*
X111437436Y-151752447D02*
X111852986Y-152165029D01*
X111852986Y-152165029D02*
X112268860Y-152577217D01*
X112268860Y-152577217D02*
X112685081Y-152988984D01*
X112685081Y-152988984D02*
X113101675Y-153400301D01*
X113101675Y-153400301D02*
X113518663Y-153811140D01*
X113518663Y-153811140D02*
X113936070Y-154221471D01*
X113936070Y-154221471D02*
X114353919Y-154631268D01*
X88659351Y-25949270D02*
X88204576Y-25740220D01*
X88204576Y-25740220D02*
X87750028Y-25530504D01*
X87750028Y-25530504D02*
X87295683Y-25320187D01*
X87295683Y-25320187D02*
X86841518Y-25109337D01*
X86841518Y-25109337D02*
X86387510Y-24898018D01*
X86387510Y-24898018D02*
X85933635Y-24686298D01*
X85933635Y-24686298D02*
X85479869Y-24474243D01*
X85479869Y-24474243D02*
X85026189Y-24261918D01*
X85026189Y-24261918D02*
X84572572Y-24049391D01*
X84572572Y-24049391D02*
X84118994Y-23836727D01*
X84118994Y-23836727D02*
X83665433Y-23623993D01*
X83665433Y-23623993D02*
X83211863Y-23411255D01*
X83211863Y-23411255D02*
X82758263Y-23198580D01*
X82758263Y-23198580D02*
X82304608Y-22986033D01*
X82304608Y-22986033D02*
X81850876Y-22773680D01*
X81850876Y-22773680D02*
X81397042Y-22561589D01*
X81397042Y-22561589D02*
X80943084Y-22349825D01*
X80943084Y-22349825D02*
X80488977Y-22138455D01*
X80488977Y-22138455D02*
X80034700Y-21927544D01*
X80034700Y-21927544D02*
X79580227Y-21717160D01*
X79580227Y-21717160D02*
X79125535Y-21507368D01*
X79125535Y-21507368D02*
X78670602Y-21298235D01*
X78670602Y-21298235D02*
X78215404Y-21089827D01*
X78215404Y-21089827D02*
X77759917Y-20882210D01*
X77759917Y-20882210D02*
X77304119Y-20675451D01*
X77304119Y-20675451D02*
X76847984Y-20469615D01*
X76847984Y-20469615D02*
X76391491Y-20264769D01*
X76391491Y-20264769D02*
X75934615Y-20060980D01*
X75934615Y-20060980D02*
X75477334Y-19858313D01*
X75477334Y-19858313D02*
X75019624Y-19656835D01*
X75019624Y-19656835D02*
X74561461Y-19456612D01*
X74561461Y-19456612D02*
X74102822Y-19257711D01*
X89984020Y-24805045D02*
X89912245Y-24911032D01*
X89912245Y-24911032D02*
X89846395Y-25033081D01*
X89846395Y-25033081D02*
X89784883Y-25166765D01*
X89784883Y-25166765D02*
X89726127Y-25307657D01*
X89726127Y-25307657D02*
X89668542Y-25451331D01*
X89668542Y-25451331D02*
X89610544Y-25593359D01*
X89610544Y-25593359D02*
X89550549Y-25729315D01*
X89550549Y-25729315D02*
X89486973Y-25854772D01*
X89486973Y-25854772D02*
X89418232Y-25965304D01*
X89418232Y-25965304D02*
X89301970Y-26093433D01*
X89301970Y-26093433D02*
X89165175Y-26163079D01*
X89165175Y-26163079D02*
X89002502Y-26159303D01*
X89002502Y-26159303D02*
X88877036Y-26108617D01*
X88877036Y-26108617D02*
X88736108Y-26014232D01*
X88736108Y-26014232D02*
X88659351Y-25949270D01*
X111699980Y-31640215D02*
X111594857Y-31515942D01*
X111594857Y-31515942D02*
X111485499Y-31397422D01*
X111485499Y-31397422D02*
X111372116Y-31284372D01*
X111372116Y-31284372D02*
X111254918Y-31176508D01*
X111254918Y-31176508D02*
X111134117Y-31073547D01*
X111134117Y-31073547D02*
X111009923Y-30975207D01*
X111009923Y-30975207D02*
X110882547Y-30881206D01*
X110882547Y-30881206D02*
X110752199Y-30791259D01*
X110752199Y-30791259D02*
X110619090Y-30705085D01*
X110619090Y-30705085D02*
X110483430Y-30622400D01*
X110483430Y-30622400D02*
X110345431Y-30542921D01*
X110345431Y-30542921D02*
X110205302Y-30466366D01*
X110205302Y-30466366D02*
X110063255Y-30392452D01*
X110063255Y-30392452D02*
X109919500Y-30320896D01*
X109919500Y-30320896D02*
X109774248Y-30251415D01*
X109774248Y-30251415D02*
X109627709Y-30183726D01*
X109627709Y-30183726D02*
X109480095Y-30117547D01*
X109480095Y-30117547D02*
X109331615Y-30052594D01*
X109331615Y-30052594D02*
X109182480Y-29988584D01*
X109182480Y-29988584D02*
X109032901Y-29925236D01*
X109032901Y-29925236D02*
X108883089Y-29862266D01*
X108883089Y-29862266D02*
X108733254Y-29799390D01*
X108733254Y-29799390D02*
X108583608Y-29736327D01*
X108583608Y-29736327D02*
X108434359Y-29672794D01*
X108434359Y-29672794D02*
X108285720Y-29608507D01*
X108285720Y-29608507D02*
X108137901Y-29543183D01*
X108137901Y-29543183D02*
X107991112Y-29476541D01*
X107991112Y-29476541D02*
X107845564Y-29408296D01*
X107845564Y-29408296D02*
X107701468Y-29338167D01*
X107701468Y-29338167D02*
X107559034Y-29265869D01*
X107559034Y-29265869D02*
X107418473Y-29191122D01*
X107418473Y-29191122D02*
X107279997Y-29113641D01*
X111008025Y-36436543D02*
X111071143Y-36298031D01*
X111071143Y-36298031D02*
X111136539Y-36157781D01*
X111136539Y-36157781D02*
X111203719Y-36015892D01*
X111203719Y-36015892D02*
X111272185Y-35872464D01*
X111272185Y-35872464D02*
X111341444Y-35727599D01*
X111341444Y-35727599D02*
X111410999Y-35581397D01*
X111410999Y-35581397D02*
X111480355Y-35433958D01*
X111480355Y-35433958D02*
X111549016Y-35285383D01*
X111549016Y-35285383D02*
X111616486Y-35135773D01*
X111616486Y-35135773D02*
X111682271Y-34985228D01*
X111682271Y-34985228D02*
X111745874Y-34833848D01*
X111745874Y-34833848D02*
X111806800Y-34681734D01*
X111806800Y-34681734D02*
X111864553Y-34528988D01*
X111864553Y-34528988D02*
X111918638Y-34375708D01*
X111918638Y-34375708D02*
X111968560Y-34221996D01*
X111968560Y-34221996D02*
X112013822Y-34067953D01*
X112013822Y-34067953D02*
X112053929Y-33913679D01*
X112053929Y-33913679D02*
X112088386Y-33759274D01*
X112088386Y-33759274D02*
X112116697Y-33604839D01*
X112116697Y-33604839D02*
X112138367Y-33450475D01*
X112138367Y-33450475D02*
X112152899Y-33296282D01*
X112152899Y-33296282D02*
X112159799Y-33142361D01*
X112159799Y-33142361D02*
X112158570Y-32988812D01*
X112158570Y-32988812D02*
X112148718Y-32835736D01*
X112148718Y-32835736D02*
X112129747Y-32683233D01*
X112129747Y-32683233D02*
X112101160Y-32531404D01*
X112101160Y-32531404D02*
X112062464Y-32380350D01*
X112062464Y-32380350D02*
X112013161Y-32230170D01*
X112013161Y-32230170D02*
X111952757Y-32080967D01*
X111952757Y-32080967D02*
X111880756Y-31932839D01*
X111880756Y-31932839D02*
X111796662Y-31785888D01*
X111796662Y-31785888D02*
X111699980Y-31640215D01*
X125064664Y-43025989D02*
X124630567Y-42809392D01*
X124630567Y-42809392D02*
X124195971Y-42593803D01*
X124195971Y-42593803D02*
X123760892Y-42379189D01*
X123760892Y-42379189D02*
X123325348Y-42165519D01*
X123325348Y-42165519D02*
X122889354Y-41952760D01*
X122889354Y-41952760D02*
X122452928Y-41740881D01*
X122452928Y-41740881D02*
X122016085Y-41529850D01*
X122016085Y-41529850D02*
X121578842Y-41319636D01*
X121578842Y-41319636D02*
X121141216Y-41110205D01*
X121141216Y-41110205D02*
X120703223Y-40901527D01*
X120703223Y-40901527D02*
X120264880Y-40693570D01*
X120264880Y-40693570D02*
X119826203Y-40486301D01*
X119826203Y-40486301D02*
X119387209Y-40279689D01*
X119387209Y-40279689D02*
X118947914Y-40073703D01*
X118947914Y-40073703D02*
X118508335Y-39868310D01*
X118508335Y-39868310D02*
X118068488Y-39663478D01*
X118068488Y-39663478D02*
X117628390Y-39459176D01*
X117628390Y-39459176D02*
X117188058Y-39255371D01*
X117188058Y-39255371D02*
X116747508Y-39052033D01*
X116747508Y-39052033D02*
X116306756Y-38849128D01*
X116306756Y-38849128D02*
X115865818Y-38646626D01*
X115865818Y-38646626D02*
X115424713Y-38444494D01*
X115424713Y-38444494D02*
X114983455Y-38242701D01*
X114983455Y-38242701D02*
X114542062Y-38041214D01*
X114542062Y-38041214D02*
X114100550Y-37840002D01*
X114100550Y-37840002D02*
X113658936Y-37639034D01*
X113658936Y-37639034D02*
X113217236Y-37438276D01*
X113217236Y-37438276D02*
X112775466Y-37237698D01*
X112775466Y-37237698D02*
X112333644Y-37037267D01*
X112333644Y-37037267D02*
X111891785Y-36836953D01*
X111891785Y-36836953D02*
X111449906Y-36636722D01*
X111449906Y-36636722D02*
X111008025Y-36436543D01*
X141503747Y-53360365D02*
X141055348Y-53151467D01*
X141055348Y-53151467D02*
X140607006Y-52942447D01*
X140607006Y-52942447D02*
X140158714Y-52733318D01*
X140158714Y-52733318D02*
X139710466Y-52524095D01*
X139710466Y-52524095D02*
X139262255Y-52314792D01*
X139262255Y-52314792D02*
X138814074Y-52105424D01*
X138814074Y-52105424D02*
X138365916Y-51896004D01*
X138365916Y-51896004D02*
X137917775Y-51686548D01*
X137917775Y-51686548D02*
X137469644Y-51477070D01*
X137469644Y-51477070D02*
X137021517Y-51267583D01*
X137021517Y-51267583D02*
X136573387Y-51058103D01*
X136573387Y-51058103D02*
X136125247Y-50848644D01*
X136125247Y-50848644D02*
X135677091Y-50639220D01*
X135677091Y-50639220D02*
X135228912Y-50429846D01*
X135228912Y-50429846D02*
X134780703Y-50220535D01*
X134780703Y-50220535D02*
X134332458Y-50011303D01*
X134332458Y-50011303D02*
X133884169Y-49802163D01*
X133884169Y-49802163D02*
X133435832Y-49593131D01*
X133435832Y-49593131D02*
X132987438Y-49384220D01*
X132987438Y-49384220D02*
X132538981Y-49175444D01*
X132538981Y-49175444D02*
X132090455Y-48966819D01*
X132090455Y-48966819D02*
X131641852Y-48758359D01*
X131641852Y-48758359D02*
X131193167Y-48550077D01*
X131193167Y-48550077D02*
X130744392Y-48341989D01*
X130744392Y-48341989D02*
X130295521Y-48134108D01*
X130295521Y-48134108D02*
X129846547Y-47926449D01*
X129846547Y-47926449D02*
X129397464Y-47719027D01*
X129397464Y-47719027D02*
X128948265Y-47511855D01*
X128948265Y-47511855D02*
X128498943Y-47304949D01*
X128498943Y-47304949D02*
X128049492Y-47098322D01*
X128049492Y-47098322D02*
X127599904Y-46891989D01*
X127599904Y-46891989D02*
X127150175Y-46685965D01*
X93631283Y-22840412D02*
X93486412Y-22793715D01*
X93486412Y-22793715D02*
X93341441Y-22756070D01*
X93341441Y-22756070D02*
X93196579Y-22727267D01*
X93196579Y-22727267D02*
X93052034Y-22707100D01*
X93052034Y-22707100D02*
X92908017Y-22695360D01*
X92908017Y-22695360D02*
X92764737Y-22691841D01*
X92764737Y-22691841D02*
X92622403Y-22696333D01*
X92622403Y-22696333D02*
X92481224Y-22708630D01*
X92481224Y-22708630D02*
X92341411Y-22728524D01*
X92341411Y-22728524D02*
X92203171Y-22755807D01*
X92203171Y-22755807D02*
X92066716Y-22790272D01*
X92066716Y-22790272D02*
X91932253Y-22831709D01*
X91932253Y-22831709D02*
X91799993Y-22879913D01*
X91799993Y-22879913D02*
X91670145Y-22934675D01*
X91670145Y-22934675D02*
X91542918Y-22995788D01*
X91542918Y-22995788D02*
X91418522Y-23063043D01*
X91418522Y-23063043D02*
X91297166Y-23136233D01*
X91297166Y-23136233D02*
X91179059Y-23215151D01*
X91179059Y-23215151D02*
X91064412Y-23299588D01*
X91064412Y-23299588D02*
X90953432Y-23389337D01*
X90953432Y-23389337D02*
X90846330Y-23484190D01*
X90846330Y-23484190D02*
X90743315Y-23583940D01*
X90743315Y-23583940D02*
X90644597Y-23688378D01*
X90644597Y-23688378D02*
X90550384Y-23797298D01*
X90550384Y-23797298D02*
X90460887Y-23910491D01*
X90460887Y-23910491D02*
X90376314Y-24027749D01*
X90376314Y-24027749D02*
X90296875Y-24148865D01*
X90296875Y-24148865D02*
X90222780Y-24273632D01*
X90222780Y-24273632D02*
X90154237Y-24401840D01*
X90154237Y-24401840D02*
X90091457Y-24533284D01*
X90091457Y-24533284D02*
X90034648Y-24667755D01*
X90034648Y-24667755D02*
X89984020Y-24805045D01*
X127150175Y-46685965D02*
X127191670Y-46538034D01*
X127191670Y-46538034D02*
X127223721Y-46390729D01*
X127223721Y-46390729D02*
X127246583Y-46244204D01*
X127246583Y-46244204D02*
X127260513Y-46098612D01*
X127260513Y-46098612D02*
X127265767Y-45954109D01*
X127265767Y-45954109D02*
X127262601Y-45810847D01*
X127262601Y-45810847D02*
X127251272Y-45668980D01*
X127251272Y-45668980D02*
X127232036Y-45528663D01*
X127232036Y-45528663D02*
X127205149Y-45390049D01*
X127205149Y-45390049D02*
X127170867Y-45253293D01*
X127170867Y-45253293D02*
X127129448Y-45118547D01*
X127129448Y-45118547D02*
X127081146Y-44985966D01*
X127081146Y-44985966D02*
X127026220Y-44855705D01*
X127026220Y-44855705D02*
X126964924Y-44727916D01*
X126964924Y-44727916D02*
X126897515Y-44602753D01*
X126897515Y-44602753D02*
X126824250Y-44480371D01*
X126824250Y-44480371D02*
X126745384Y-44360924D01*
X126745384Y-44360924D02*
X126661174Y-44244565D01*
X126661174Y-44244565D02*
X126571877Y-44131448D01*
X126571877Y-44131448D02*
X126477749Y-44021727D01*
X126477749Y-44021727D02*
X126379045Y-43915556D01*
X126379045Y-43915556D02*
X126276023Y-43813089D01*
X126276023Y-43813089D02*
X126168939Y-43714479D01*
X126168939Y-43714479D02*
X126058048Y-43619882D01*
X126058048Y-43619882D02*
X125943608Y-43529450D01*
X125943608Y-43529450D02*
X125825874Y-43443337D01*
X125825874Y-43443337D02*
X125705103Y-43361698D01*
X125705103Y-43361698D02*
X125581552Y-43284686D01*
X125581552Y-43284686D02*
X125455476Y-43212455D01*
X125455476Y-43212455D02*
X125327131Y-43145159D01*
X125327131Y-43145159D02*
X125196775Y-43082953D01*
X125196775Y-43082953D02*
X125064664Y-43025989D01*
X72274937Y-19304128D02*
X72274937Y-19304128D01*
X107279997Y-29113641D02*
X106853992Y-28916517D01*
X106853992Y-28916517D02*
X106428084Y-28719168D01*
X106428084Y-28719168D02*
X106002258Y-28521621D01*
X106002258Y-28521621D02*
X105576502Y-28323907D01*
X105576502Y-28323907D02*
X105150802Y-28126056D01*
X105150802Y-28126056D02*
X104725147Y-27928097D01*
X104725147Y-27928097D02*
X104299523Y-27730059D01*
X104299523Y-27730059D02*
X103873916Y-27531973D01*
X103873916Y-27531973D02*
X103448315Y-27333868D01*
X103448315Y-27333868D02*
X103022707Y-27135774D01*
X103022707Y-27135774D02*
X102597077Y-26937720D01*
X102597077Y-26937720D02*
X102171415Y-26739736D01*
X102171415Y-26739736D02*
X101745706Y-26541851D01*
X101745706Y-26541851D02*
X101319937Y-26344096D01*
X101319937Y-26344096D02*
X100894097Y-26146500D01*
X100894097Y-26146500D02*
X100468172Y-25949092D01*
X100468172Y-25949092D02*
X100042148Y-25751903D01*
X100042148Y-25751903D02*
X99616014Y-25554961D01*
X99616014Y-25554961D02*
X99189756Y-25358297D01*
X99189756Y-25358297D02*
X98763362Y-25161941D01*
X98763362Y-25161941D02*
X98336818Y-24965921D01*
X98336818Y-24965921D02*
X97910112Y-24770267D01*
X97910112Y-24770267D02*
X97483231Y-24575010D01*
X97483231Y-24575010D02*
X97056161Y-24380178D01*
X97056161Y-24380178D02*
X96628890Y-24185802D01*
X96628890Y-24185802D02*
X96201406Y-23991911D01*
X96201406Y-23991911D02*
X95773694Y-23798535D01*
X95773694Y-23798535D02*
X95345743Y-23605703D01*
X95345743Y-23605703D02*
X94917539Y-23413445D01*
X94917539Y-23413445D02*
X94489069Y-23221790D01*
X94489069Y-23221790D02*
X94060322Y-23030769D01*
X94060322Y-23030769D02*
X93631283Y-22840412D01*
X74102822Y-19257711D02*
X73928746Y-19208024D01*
X73928746Y-19208024D02*
X73756203Y-19172206D01*
X73756203Y-19172206D02*
X73584857Y-19149325D01*
X73584857Y-19149325D02*
X73414370Y-19138451D01*
X73414370Y-19138451D02*
X73244407Y-19138655D01*
X73244407Y-19138655D02*
X73074632Y-19149004D01*
X73074632Y-19149004D02*
X72904707Y-19168570D01*
X72904707Y-19168570D02*
X72734296Y-19196422D01*
X72734296Y-19196422D02*
X72563064Y-19231630D01*
X72563064Y-19231630D02*
X72390673Y-19273262D01*
X72390673Y-19273262D02*
X72274937Y-19304128D01*
X266282177Y-78703784D02*
X266417036Y-78619400D01*
X266417036Y-78619400D02*
X266543523Y-78528718D01*
X266543523Y-78528718D02*
X266661736Y-78432066D01*
X266661736Y-78432066D02*
X266771777Y-78329775D01*
X266771777Y-78329775D02*
X266873745Y-78222174D01*
X266873745Y-78222174D02*
X266967741Y-78109593D01*
X266967741Y-78109593D02*
X267053866Y-77992362D01*
X267053866Y-77992362D02*
X267132220Y-77870809D01*
X267132220Y-77870809D02*
X267202903Y-77745265D01*
X267202903Y-77745265D02*
X267266015Y-77616060D01*
X267266015Y-77616060D02*
X267321658Y-77483522D01*
X267321658Y-77483522D02*
X267369931Y-77347983D01*
X267369931Y-77347983D02*
X267410935Y-77209770D01*
X267410935Y-77209770D02*
X267444770Y-77069215D01*
X267444770Y-77069215D02*
X267471537Y-76926646D01*
X267471537Y-76926646D02*
X267491336Y-76782394D01*
X267491336Y-76782394D02*
X267504267Y-76636787D01*
X267504267Y-76636787D02*
X267510431Y-76490156D01*
X267510431Y-76490156D02*
X267509927Y-76342830D01*
X267509927Y-76342830D02*
X267502858Y-76195139D01*
X267502858Y-76195139D02*
X267489322Y-76047413D01*
X267489322Y-76047413D02*
X267469421Y-75899981D01*
X267469421Y-75899981D02*
X267443255Y-75753172D01*
X267443255Y-75753172D02*
X267410923Y-75607317D01*
X267410923Y-75607317D02*
X267372527Y-75462746D01*
X267372527Y-75462746D02*
X267328167Y-75319786D01*
X267328167Y-75319786D02*
X267277943Y-75178770D01*
X267277943Y-75178770D02*
X267221956Y-75040025D01*
X267221956Y-75040025D02*
X267160306Y-74903882D01*
X267160306Y-74903882D02*
X267093093Y-74770671D01*
X267093093Y-74770671D02*
X267020418Y-74640720D01*
X267020418Y-74640720D02*
X266942382Y-74514361D01*
X266942382Y-74514361D02*
X266210977Y-72932068D01*
X266210977Y-72932068D02*
X265479365Y-71349866D01*
X265479365Y-71349866D02*
X264747534Y-69767763D01*
X264747534Y-69767763D02*
X264015468Y-68185764D01*
X264015468Y-68185764D02*
X263283156Y-66603876D01*
X263283156Y-66603876D02*
X262550582Y-65022107D01*
X262550582Y-65022107D02*
X261817734Y-63440463D01*
X261817734Y-63440463D02*
X261084597Y-61858950D01*
X261084597Y-61858950D02*
X260351159Y-60277575D01*
X260351159Y-60277575D02*
X259617405Y-58696346D01*
X259617405Y-58696346D02*
X258883322Y-57115268D01*
X258883322Y-57115268D02*
X258148896Y-55534349D01*
X258148896Y-55534349D02*
X257414114Y-53953596D01*
X257414114Y-53953596D02*
X256678961Y-52373014D01*
X256678961Y-52373014D02*
X255943425Y-50792611D01*
X255943425Y-50792611D02*
X255207492Y-49212393D01*
X255207492Y-49212393D02*
X254471148Y-47632367D01*
X254471148Y-47632367D02*
X253734379Y-46052540D01*
X253734379Y-46052540D02*
X252997173Y-44472919D01*
X252997173Y-44472919D02*
X252259514Y-42893510D01*
X252259514Y-42893510D02*
X251521390Y-41314320D01*
X251521390Y-41314320D02*
X250782787Y-39735356D01*
X250782787Y-39735356D02*
X250043691Y-38156625D01*
X250043691Y-38156625D02*
X249304090Y-36578132D01*
X249304090Y-36578132D02*
X248563968Y-34999886D01*
X248563968Y-34999886D02*
X247823312Y-33421892D01*
X247823312Y-33421892D02*
X247082110Y-31844158D01*
X247082110Y-31844158D02*
X246340346Y-30266689D01*
X246340346Y-30266689D02*
X245598009Y-28689494D01*
X245598009Y-28689494D02*
X244855083Y-27112578D01*
X244855083Y-27112578D02*
X244111555Y-25535948D01*
X244111555Y-25535948D02*
X243367413Y-23959612D01*
X251274808Y-85715195D02*
X251743800Y-85496452D01*
X251743800Y-85496452D02*
X252213158Y-85278319D01*
X252213158Y-85278319D02*
X252682847Y-85060732D01*
X252682847Y-85060732D02*
X253152829Y-84843628D01*
X253152829Y-84843628D02*
X253623067Y-84626943D01*
X253623067Y-84626943D02*
X254093524Y-84410615D01*
X254093524Y-84410615D02*
X254564165Y-84194579D01*
X254564165Y-84194579D02*
X255034952Y-83978774D01*
X255034952Y-83978774D02*
X255505848Y-83763134D01*
X255505848Y-83763134D02*
X255976817Y-83547598D01*
X255976817Y-83547598D02*
X256447822Y-83332102D01*
X256447822Y-83332102D02*
X256918826Y-83116582D01*
X256918826Y-83116582D02*
X257389793Y-82900975D01*
X257389793Y-82900975D02*
X257860685Y-82685218D01*
X257860685Y-82685218D02*
X258331466Y-82469248D01*
X258331466Y-82469248D02*
X258802100Y-82253001D01*
X258802100Y-82253001D02*
X259272549Y-82036415D01*
X259272549Y-82036415D02*
X259742778Y-81819425D01*
X259742778Y-81819425D02*
X260212748Y-81601968D01*
X260212748Y-81601968D02*
X260682423Y-81383982D01*
X260682423Y-81383982D02*
X261151767Y-81165403D01*
X261151767Y-81165403D02*
X261620744Y-80946167D01*
X261620744Y-80946167D02*
X262089315Y-80726211D01*
X262089315Y-80726211D02*
X262557444Y-80505473D01*
X262557444Y-80505473D02*
X263025096Y-80283888D01*
X263025096Y-80283888D02*
X263492232Y-80061394D01*
X263492232Y-80061394D02*
X263958817Y-79837927D01*
X263958817Y-79837927D02*
X264424813Y-79613424D01*
X264424813Y-79613424D02*
X264890183Y-79387821D01*
X264890183Y-79387821D02*
X265354892Y-79161056D01*
X265354892Y-79161056D02*
X265818902Y-78933064D01*
X265818902Y-78933064D02*
X266282177Y-78703784D01*
X233333440Y-100832409D02*
X233488698Y-100827891D01*
X233488698Y-100827891D02*
X233642546Y-100817044D01*
X233642546Y-100817044D02*
X233795049Y-100800182D01*
X233795049Y-100800182D02*
X233946276Y-100777620D01*
X233946276Y-100777620D02*
X234096295Y-100749674D01*
X234096295Y-100749674D02*
X234245174Y-100716660D01*
X234245174Y-100716660D02*
X234392981Y-100678893D01*
X234392981Y-100678893D02*
X234539784Y-100636690D01*
X234539784Y-100636690D02*
X234685650Y-100590364D01*
X234685650Y-100590364D02*
X234830648Y-100540232D01*
X234830648Y-100540232D02*
X234974845Y-100486610D01*
X234974845Y-100486610D02*
X235118309Y-100429813D01*
X235118309Y-100429813D02*
X235261109Y-100370156D01*
X235261109Y-100370156D02*
X235403312Y-100307955D01*
X235403312Y-100307955D02*
X235544985Y-100243526D01*
X235544985Y-100243526D02*
X235686198Y-100177184D01*
X235686198Y-100177184D02*
X235827018Y-100109245D01*
X235827018Y-100109245D02*
X235967513Y-100040024D01*
X235967513Y-100040024D02*
X236107750Y-99969837D01*
X236107750Y-99969837D02*
X236247799Y-99898999D01*
X236247799Y-99898999D02*
X236387725Y-99827826D01*
X236387725Y-99827826D02*
X236527599Y-99756634D01*
X236527599Y-99756634D02*
X236667486Y-99685737D01*
X236667486Y-99685737D02*
X236807456Y-99615452D01*
X236807456Y-99615452D02*
X236947577Y-99546094D01*
X236947577Y-99546094D02*
X237087915Y-99477979D01*
X237087915Y-99477979D02*
X237228539Y-99411422D01*
X237228539Y-99411422D02*
X237369518Y-99346738D01*
X237369518Y-99346738D02*
X237510918Y-99284244D01*
X237510918Y-99284244D02*
X237652809Y-99224255D01*
X237652809Y-99224255D02*
X237795257Y-99167086D01*
X237795257Y-99167086D02*
X237938331Y-99113053D01*
X251720780Y-92667363D02*
X251850945Y-92588519D01*
X251850945Y-92588519D02*
X251974356Y-92503584D01*
X251974356Y-92503584D02*
X252091025Y-92412858D01*
X252091025Y-92412858D02*
X252200970Y-92316643D01*
X252200970Y-92316643D02*
X252304203Y-92215242D01*
X252304203Y-92215242D02*
X252400741Y-92108956D01*
X252400741Y-92108956D02*
X252490597Y-91998086D01*
X252490597Y-91998086D02*
X252573787Y-91882936D01*
X252573787Y-91882936D02*
X252650325Y-91763806D01*
X252650325Y-91763806D02*
X252720226Y-91640998D01*
X252720226Y-91640998D02*
X252783505Y-91514815D01*
X252783505Y-91514815D02*
X252840177Y-91385557D01*
X252840177Y-91385557D02*
X252890257Y-91253528D01*
X252890257Y-91253528D02*
X252933759Y-91119029D01*
X252933759Y-91119029D02*
X252970698Y-90982361D01*
X252970698Y-90982361D02*
X253001090Y-90843827D01*
X253001090Y-90843827D02*
X253024948Y-90703729D01*
X253024948Y-90703729D02*
X253042288Y-90562367D01*
X253042288Y-90562367D02*
X253053124Y-90420045D01*
X253053124Y-90420045D02*
X253057471Y-90277064D01*
X253057471Y-90277064D02*
X253055345Y-90133725D01*
X253055345Y-90133725D02*
X253046759Y-89990331D01*
X253046759Y-89990331D02*
X253031729Y-89847184D01*
X253031729Y-89847184D02*
X253010269Y-89704585D01*
X253010269Y-89704585D02*
X252982395Y-89562837D01*
X252982395Y-89562837D02*
X252948120Y-89422240D01*
X252948120Y-89422240D02*
X252907461Y-89283097D01*
X252907461Y-89283097D02*
X252860431Y-89145710D01*
X252860431Y-89145710D02*
X252807046Y-89010381D01*
X252807046Y-89010381D02*
X252747320Y-88877411D01*
X252747320Y-88877411D02*
X252681268Y-88747103D01*
X252681268Y-88747103D02*
X252608905Y-88619758D01*
X230101561Y-97230710D02*
X230166928Y-97368090D01*
X230166928Y-97368090D02*
X230231945Y-97508783D01*
X230231945Y-97508783D02*
X230296877Y-97652296D01*
X230296877Y-97652296D02*
X230361987Y-97798140D01*
X230361987Y-97798140D02*
X230427542Y-97945822D01*
X230427542Y-97945822D02*
X230493806Y-98094851D01*
X230493806Y-98094851D02*
X230561044Y-98244735D01*
X230561044Y-98244735D02*
X230629520Y-98394983D01*
X230629520Y-98394983D02*
X230699501Y-98545103D01*
X230699501Y-98545103D02*
X230771250Y-98694605D01*
X230771250Y-98694605D02*
X230845033Y-98842996D01*
X230845033Y-98842996D02*
X230921114Y-98989786D01*
X230921114Y-98989786D02*
X230999759Y-99134482D01*
X230999759Y-99134482D02*
X231081232Y-99276594D01*
X231081232Y-99276594D02*
X231165799Y-99415630D01*
X231165799Y-99415630D02*
X231253724Y-99551098D01*
X231253724Y-99551098D02*
X231345273Y-99682508D01*
X231345273Y-99682508D02*
X231440709Y-99809367D01*
X231440709Y-99809367D02*
X231540299Y-99931184D01*
X231540299Y-99931184D02*
X231644307Y-100047468D01*
X231644307Y-100047468D02*
X231752997Y-100157728D01*
X231752997Y-100157728D02*
X231866636Y-100261471D01*
X231866636Y-100261471D02*
X231985487Y-100358207D01*
X231985487Y-100358207D02*
X232109816Y-100447444D01*
X232109816Y-100447444D02*
X232239888Y-100528691D01*
X232239888Y-100528691D02*
X232375968Y-100601456D01*
X232375968Y-100601456D02*
X232518320Y-100665248D01*
X232518320Y-100665248D02*
X232667209Y-100719575D01*
X232667209Y-100719575D02*
X232822901Y-100763946D01*
X232822901Y-100763946D02*
X232985660Y-100797869D01*
X232985660Y-100797869D02*
X233155751Y-100820854D01*
X233155751Y-100820854D02*
X233333440Y-100832409D01*
X225067816Y-29523820D02*
X224924831Y-29231776D01*
X224924831Y-29231776D02*
X224783294Y-28938887D01*
X224783294Y-28938887D02*
X224643051Y-28645239D01*
X224643051Y-28645239D02*
X224503951Y-28350920D01*
X224503951Y-28350920D02*
X224365838Y-28056015D01*
X224365838Y-28056015D02*
X224228561Y-27760612D01*
X224228561Y-27760612D02*
X224091966Y-27464797D01*
X224091966Y-27464797D02*
X223955900Y-27168657D01*
X223955900Y-27168657D02*
X223820210Y-26872279D01*
X223820210Y-26872279D02*
X223684743Y-26575750D01*
X223684743Y-26575750D02*
X223549345Y-26279156D01*
X223549345Y-26279156D02*
X223413864Y-25982583D01*
X223413864Y-25982583D02*
X223278146Y-25686120D01*
X223278146Y-25686120D02*
X223142039Y-25389851D01*
X223142039Y-25389851D02*
X223005388Y-25093865D01*
X223005388Y-25093865D02*
X222868042Y-24798248D01*
X222868042Y-24798248D02*
X222729846Y-24503086D01*
X222729846Y-24503086D02*
X222590649Y-24208467D01*
X222590649Y-24208467D02*
X222450296Y-23914476D01*
X222450296Y-23914476D02*
X222308634Y-23621202D01*
X222308634Y-23621202D02*
X222165511Y-23328729D01*
X222165511Y-23328729D02*
X222020773Y-23037147D01*
X222020773Y-23037147D02*
X221874268Y-22746540D01*
X221874268Y-22746540D02*
X221725841Y-22456995D01*
X221725841Y-22456995D02*
X221575340Y-22168600D01*
X221575340Y-22168600D02*
X221422612Y-21881441D01*
X221422612Y-21881441D02*
X221267504Y-21595605D01*
X221267504Y-21595605D02*
X221109862Y-21311179D01*
X221109862Y-21311179D02*
X220949533Y-21028249D01*
X220949533Y-21028249D02*
X220786365Y-20746902D01*
X220786365Y-20746902D02*
X220620204Y-20467224D01*
X220620204Y-20467224D02*
X220450897Y-20189304D01*
X243367413Y-23959612D02*
X243294426Y-23824223D01*
X243294426Y-23824223D02*
X243214611Y-23695219D01*
X243214611Y-23695219D02*
X243128303Y-23572630D01*
X243128303Y-23572630D02*
X243035836Y-23456487D01*
X243035836Y-23456487D02*
X242937544Y-23346820D01*
X242937544Y-23346820D02*
X242833762Y-23243661D01*
X242833762Y-23243661D02*
X242724824Y-23147039D01*
X242724824Y-23147039D02*
X242611064Y-23056987D01*
X242611064Y-23056987D02*
X242492817Y-22973534D01*
X242492817Y-22973534D02*
X242370418Y-22896712D01*
X242370418Y-22896712D02*
X242244200Y-22826550D01*
X242244200Y-22826550D02*
X242114499Y-22763081D01*
X242114499Y-22763081D02*
X241981648Y-22706335D01*
X241981648Y-22706335D02*
X241845982Y-22656342D01*
X241845982Y-22656342D02*
X241707835Y-22613133D01*
X241707835Y-22613133D02*
X241567542Y-22576739D01*
X241567542Y-22576739D02*
X241425437Y-22547191D01*
X241425437Y-22547191D02*
X241281855Y-22524519D01*
X241281855Y-22524519D02*
X241137130Y-22508755D01*
X241137130Y-22508755D02*
X240991597Y-22499928D01*
X240991597Y-22499928D02*
X240845589Y-22498071D01*
X240845589Y-22498071D02*
X240699442Y-22503213D01*
X240699442Y-22503213D02*
X240553489Y-22515386D01*
X240553489Y-22515386D02*
X240408065Y-22534619D01*
X240408065Y-22534619D02*
X240263505Y-22560945D01*
X240263505Y-22560945D02*
X240120143Y-22594393D01*
X240120143Y-22594393D02*
X239978313Y-22634995D01*
X239978313Y-22634995D02*
X239838350Y-22682780D01*
X239838350Y-22682780D02*
X239700588Y-22737781D01*
X239700588Y-22737781D02*
X239565362Y-22800027D01*
X239565362Y-22800027D02*
X239433005Y-22869550D01*
X239433005Y-22869550D02*
X239303854Y-22946381D01*
X252608905Y-88619758D02*
X252529069Y-88436615D01*
X252529069Y-88436615D02*
X252448409Y-88253846D01*
X252448409Y-88253846D02*
X252366999Y-88071415D01*
X252366999Y-88071415D02*
X252284916Y-87889289D01*
X252284916Y-87889289D02*
X252202234Y-87707433D01*
X252202234Y-87707433D02*
X252119029Y-87525815D01*
X252119029Y-87525815D02*
X252035377Y-87344399D01*
X252035377Y-87344399D02*
X251951352Y-87163153D01*
X251951352Y-87163153D02*
X251867031Y-86982042D01*
X251867031Y-86982042D02*
X251782488Y-86801032D01*
X251782488Y-86801032D02*
X251697800Y-86620089D01*
X251697800Y-86620089D02*
X251613041Y-86439179D01*
X251613041Y-86439179D02*
X251528286Y-86258269D01*
X251528286Y-86258269D02*
X251443613Y-86077324D01*
X251443613Y-86077324D02*
X251359094Y-85896310D01*
X251359094Y-85896310D02*
X251274808Y-85715195D01*
X237938331Y-99113053D02*
X238369510Y-98912678D01*
X238369510Y-98912678D02*
X238800780Y-98712482D01*
X238800780Y-98712482D02*
X239232127Y-98512439D01*
X239232127Y-98512439D02*
X239663540Y-98312526D01*
X239663540Y-98312526D02*
X240095006Y-98112717D01*
X240095006Y-98112717D02*
X240526514Y-97912988D01*
X240526514Y-97912988D02*
X240958051Y-97713314D01*
X240958051Y-97713314D02*
X241389606Y-97513671D01*
X241389606Y-97513671D02*
X241821166Y-97314034D01*
X241821166Y-97314034D02*
X242252719Y-97114378D01*
X242252719Y-97114378D02*
X242684254Y-96914679D01*
X242684254Y-96914679D02*
X243115758Y-96714912D01*
X243115758Y-96714912D02*
X243547218Y-96515052D01*
X243547218Y-96515052D02*
X243978624Y-96315075D01*
X243978624Y-96315075D02*
X244409963Y-96114957D01*
X244409963Y-96114957D02*
X244841223Y-95914671D01*
X244841223Y-95914671D02*
X245272391Y-95714195D01*
X245272391Y-95714195D02*
X245703457Y-95513503D01*
X245703457Y-95513503D02*
X246134407Y-95312570D01*
X246134407Y-95312570D02*
X246565229Y-95111373D01*
X246565229Y-95111373D02*
X246995913Y-94909886D01*
X246995913Y-94909886D02*
X247426444Y-94708084D01*
X247426444Y-94708084D02*
X247856813Y-94505944D01*
X247856813Y-94505944D02*
X248287006Y-94303440D01*
X248287006Y-94303440D02*
X248717011Y-94100547D01*
X248717011Y-94100547D02*
X249146816Y-93897242D01*
X249146816Y-93897242D02*
X249576410Y-93693500D01*
X249576410Y-93693500D02*
X250005780Y-93489295D01*
X250005780Y-93489295D02*
X250434914Y-93284604D01*
X250434914Y-93284604D02*
X250863800Y-93079401D01*
X250863800Y-93079401D02*
X251292426Y-92873662D01*
X251292426Y-92873662D02*
X251720780Y-92667363D01*
X239303854Y-22946381D02*
X238857259Y-23148170D01*
X238857259Y-23148170D02*
X238410813Y-23350288D01*
X238410813Y-23350288D02*
X237964512Y-23552726D01*
X237964512Y-23552726D02*
X237518353Y-23755475D01*
X237518353Y-23755475D02*
X237072331Y-23958527D01*
X237072331Y-23958527D02*
X236626443Y-24161873D01*
X236626443Y-24161873D02*
X236180685Y-24365504D01*
X236180685Y-24365504D02*
X235735052Y-24569412D01*
X235735052Y-24569412D02*
X235289543Y-24773588D01*
X235289543Y-24773588D02*
X234844151Y-24978024D01*
X234844151Y-24978024D02*
X234398875Y-25182710D01*
X234398875Y-25182710D02*
X233953709Y-25387639D01*
X233953709Y-25387639D02*
X233508650Y-25592802D01*
X233508650Y-25592802D02*
X233063695Y-25798190D01*
X233063695Y-25798190D02*
X232618839Y-26003794D01*
X232618839Y-26003794D02*
X232174079Y-26209606D01*
X232174079Y-26209606D02*
X231729410Y-26415617D01*
X231729410Y-26415617D02*
X231284830Y-26621818D01*
X231284830Y-26621818D02*
X230840334Y-26828202D01*
X230840334Y-26828202D02*
X230395918Y-27034759D01*
X230395918Y-27034759D02*
X229951579Y-27241480D01*
X229951579Y-27241480D02*
X229507312Y-27448358D01*
X229507312Y-27448358D02*
X229063115Y-27655383D01*
X229063115Y-27655383D02*
X228618983Y-27862547D01*
X228618983Y-27862547D02*
X228174912Y-28069841D01*
X228174912Y-28069841D02*
X227730899Y-28277256D01*
X227730899Y-28277256D02*
X227286939Y-28484785D01*
X227286939Y-28484785D02*
X226843030Y-28692417D01*
X226843030Y-28692417D02*
X226399167Y-28900146D01*
X226399167Y-28900146D02*
X225955346Y-29107962D01*
X225955346Y-29107962D02*
X225511563Y-29315856D01*
X225511563Y-29315856D02*
X225067816Y-29523820D01*
X216419472Y-19780716D02*
X215985311Y-19979918D01*
X215985311Y-19979918D02*
X215551295Y-20179433D01*
X215551295Y-20179433D02*
X215117419Y-20379254D01*
X215117419Y-20379254D02*
X214683682Y-20579374D01*
X214683682Y-20579374D02*
X214250080Y-20779787D01*
X214250080Y-20779787D02*
X213816609Y-20980484D01*
X213816609Y-20980484D02*
X213383267Y-21181460D01*
X213383267Y-21181460D02*
X212950051Y-21382707D01*
X212950051Y-21382707D02*
X212516957Y-21584218D01*
X212516957Y-21584218D02*
X212083983Y-21785987D01*
X212083983Y-21785987D02*
X211651125Y-21988007D01*
X211651125Y-21988007D02*
X211218381Y-22190270D01*
X211218381Y-22190270D02*
X210785747Y-22392769D01*
X210785747Y-22392769D02*
X210353220Y-22595499D01*
X210353220Y-22595499D02*
X209920797Y-22798451D01*
X209920797Y-22798451D02*
X209488475Y-23001620D01*
X209488475Y-23001620D02*
X209056251Y-23204997D01*
X209056251Y-23204997D02*
X208624122Y-23408576D01*
X208624122Y-23408576D02*
X208192085Y-23612350D01*
X208192085Y-23612350D02*
X207760136Y-23816313D01*
X207760136Y-23816313D02*
X207328273Y-24020457D01*
X207328273Y-24020457D02*
X206896493Y-24224775D01*
X206896493Y-24224775D02*
X206464792Y-24429261D01*
X206464792Y-24429261D02*
X206033167Y-24633907D01*
X206033167Y-24633907D02*
X205601616Y-24838707D01*
X205601616Y-24838707D02*
X205170135Y-25043653D01*
X205170135Y-25043653D02*
X204738721Y-25248739D01*
X204738721Y-25248739D02*
X204307371Y-25453958D01*
X204307371Y-25453958D02*
X203876083Y-25659303D01*
X203876083Y-25659303D02*
X203444852Y-25864766D01*
X203444852Y-25864766D02*
X203013676Y-26070342D01*
X203013676Y-26070342D02*
X202582552Y-26276023D01*
X202582552Y-26276023D02*
X202513488Y-26132740D01*
X202513488Y-26132740D02*
X202443716Y-25986608D01*
X202443716Y-25986608D02*
X202373034Y-25838110D01*
X202373034Y-25838110D02*
X202301243Y-25687732D01*
X202301243Y-25687732D02*
X202228142Y-25535959D01*
X202228142Y-25535959D02*
X202153531Y-25383277D01*
X202153531Y-25383277D02*
X202077209Y-25230169D01*
X202077209Y-25230169D02*
X201998977Y-25077122D01*
X201998977Y-25077122D02*
X201918634Y-24924621D01*
X201918634Y-24924621D02*
X201835980Y-24773150D01*
X201835980Y-24773150D02*
X201750815Y-24623195D01*
X201750815Y-24623195D02*
X201662938Y-24475240D01*
X201662938Y-24475240D02*
X201572149Y-24329772D01*
X201572149Y-24329772D02*
X201478248Y-24187275D01*
X201478248Y-24187275D02*
X201381035Y-24048234D01*
X201381035Y-24048234D02*
X201280310Y-23913134D01*
X201280310Y-23913134D02*
X201175871Y-23782460D01*
X201175871Y-23782460D02*
X201067520Y-23656698D01*
X201067520Y-23656698D02*
X200955055Y-23536333D01*
X200955055Y-23536333D02*
X200838277Y-23421849D01*
X200838277Y-23421849D02*
X200716984Y-23313733D01*
X200716984Y-23313733D02*
X200590978Y-23212468D01*
X200590978Y-23212468D02*
X200460058Y-23118540D01*
X200460058Y-23118540D02*
X200324023Y-23032435D01*
X200324023Y-23032435D02*
X200182674Y-22954637D01*
X200182674Y-22954637D02*
X200035809Y-22885631D01*
X200035809Y-22885631D02*
X199883229Y-22825903D01*
X199883229Y-22825903D02*
X199724734Y-22775937D01*
X199724734Y-22775937D02*
X199560123Y-22736219D01*
X199560123Y-22736219D02*
X199389196Y-22707234D01*
X199389196Y-22707234D02*
X199211752Y-22689467D01*
X199211752Y-22689467D02*
X199027593Y-22683404D01*
X164763185Y-46640631D02*
X164306151Y-46850822D01*
X164306151Y-46850822D02*
X163849217Y-47061226D01*
X163849217Y-47061226D02*
X163392377Y-47271834D01*
X163392377Y-47271834D02*
X162935627Y-47482635D01*
X162935627Y-47482635D02*
X162478962Y-47693621D01*
X162478962Y-47693621D02*
X162022378Y-47904781D01*
X162022378Y-47904781D02*
X161565870Y-48116105D01*
X161565870Y-48116105D02*
X161109433Y-48327584D01*
X161109433Y-48327584D02*
X160653064Y-48539208D01*
X160653064Y-48539208D02*
X160196758Y-48750967D01*
X160196758Y-48750967D02*
X159740510Y-48962851D01*
X159740510Y-48962851D02*
X159284315Y-49174851D01*
X159284315Y-49174851D02*
X158828170Y-49386958D01*
X158828170Y-49386958D02*
X158372069Y-49599160D01*
X158372069Y-49599160D02*
X157916008Y-49811449D01*
X157916008Y-49811449D02*
X157459983Y-50023814D01*
X157459983Y-50023814D02*
X157003988Y-50236246D01*
X157003988Y-50236246D02*
X156548021Y-50448736D01*
X156548021Y-50448736D02*
X156092075Y-50661272D01*
X156092075Y-50661272D02*
X155636146Y-50873847D01*
X155636146Y-50873847D02*
X155180231Y-51086449D01*
X155180231Y-51086449D02*
X154724324Y-51299070D01*
X154724324Y-51299070D02*
X154268421Y-51511699D01*
X154268421Y-51511699D02*
X153812517Y-51724326D01*
X153812517Y-51724326D02*
X153356608Y-51936943D01*
X153356608Y-51936943D02*
X152900689Y-52149538D01*
X152900689Y-52149538D02*
X152444756Y-52362103D01*
X152444756Y-52362103D02*
X151988805Y-52574628D01*
X151988805Y-52574628D02*
X151532830Y-52787102D01*
X151532830Y-52787102D02*
X151076827Y-52999516D01*
X151076827Y-52999516D02*
X150620792Y-53211861D01*
X150620792Y-53211861D02*
X150164721Y-53424127D01*
X180157335Y-34880200D02*
X180199316Y-35053862D01*
X180199316Y-35053862D02*
X180250598Y-35178137D01*
X180250598Y-35178137D02*
X180315104Y-35307191D01*
X180315104Y-35307191D02*
X180388197Y-35439295D01*
X180388197Y-35439295D02*
X180465238Y-35572715D01*
X180465238Y-35572715D02*
X180541589Y-35705722D01*
X180541589Y-35705722D02*
X180612612Y-35836582D01*
X180612612Y-35836582D02*
X180673668Y-35963565D01*
X180673668Y-35963565D02*
X180720119Y-36084939D01*
X180720119Y-36084939D02*
X180752265Y-36252697D01*
X180752265Y-36252697D02*
X180725461Y-36398095D01*
X180725461Y-36398095D02*
X180624051Y-36515291D01*
X180624051Y-36515291D02*
X180507268Y-36574867D01*
X180507268Y-36574867D02*
X180345731Y-36617581D01*
X181001009Y-30839070D02*
X180873198Y-30919473D01*
X180873198Y-30919473D02*
X180752128Y-31005794D01*
X180752128Y-31005794D02*
X180637778Y-31097738D01*
X180637778Y-31097738D02*
X180530129Y-31195008D01*
X180530129Y-31195008D02*
X180429162Y-31297310D01*
X180429162Y-31297310D02*
X180334856Y-31404346D01*
X180334856Y-31404346D02*
X180247193Y-31515822D01*
X180247193Y-31515822D02*
X180166153Y-31631441D01*
X180166153Y-31631441D02*
X180091716Y-31750908D01*
X180091716Y-31750908D02*
X180023864Y-31873926D01*
X180023864Y-31873926D02*
X179962575Y-32000200D01*
X179962575Y-32000200D02*
X179907832Y-32129435D01*
X179907832Y-32129435D02*
X179859613Y-32261334D01*
X179859613Y-32261334D02*
X179817901Y-32395601D01*
X179817901Y-32395601D02*
X179782675Y-32531941D01*
X179782675Y-32531941D02*
X179753916Y-32670058D01*
X179753916Y-32670058D02*
X179731604Y-32809656D01*
X179731604Y-32809656D02*
X179715720Y-32950439D01*
X179715720Y-32950439D02*
X179706244Y-33092112D01*
X179706244Y-33092112D02*
X179703157Y-33234378D01*
X179703157Y-33234378D02*
X179706439Y-33376942D01*
X179706439Y-33376942D02*
X179716071Y-33519509D01*
X179716071Y-33519509D02*
X179732033Y-33661781D01*
X179732033Y-33661781D02*
X179754306Y-33803463D01*
X179754306Y-33803463D02*
X179782870Y-33944261D01*
X179782870Y-33944261D02*
X179817706Y-34083877D01*
X179817706Y-34083877D02*
X179858794Y-34222015D01*
X179858794Y-34222015D02*
X179906115Y-34358381D01*
X179906115Y-34358381D02*
X179959649Y-34492678D01*
X179959649Y-34492678D02*
X180019377Y-34624611D01*
X180019377Y-34624611D02*
X180085278Y-34753883D01*
X180085278Y-34753883D02*
X180157335Y-34880200D01*
X194418210Y-24516035D02*
X193998924Y-24713598D01*
X193998924Y-24713598D02*
X193579443Y-24910765D01*
X193579443Y-24910765D02*
X193159786Y-25107575D01*
X193159786Y-25107575D02*
X192739973Y-25304069D01*
X192739973Y-25304069D02*
X192320022Y-25500286D01*
X192320022Y-25500286D02*
X191899954Y-25696266D01*
X191899954Y-25696266D02*
X191479788Y-25892049D01*
X191479788Y-25892049D02*
X191059543Y-26087674D01*
X191059543Y-26087674D02*
X190639240Y-26283182D01*
X190639240Y-26283182D02*
X190218898Y-26478612D01*
X190218898Y-26478612D02*
X189798536Y-26674005D01*
X189798536Y-26674005D02*
X189378173Y-26869400D01*
X189378173Y-26869400D02*
X188957830Y-27064836D01*
X188957830Y-27064836D02*
X188537526Y-27260354D01*
X188537526Y-27260354D02*
X188117281Y-27455994D01*
X188117281Y-27455994D02*
X187697114Y-27651795D01*
X187697114Y-27651795D02*
X187277044Y-27847797D01*
X187277044Y-27847797D02*
X186857091Y-28044041D01*
X186857091Y-28044041D02*
X186437275Y-28240565D01*
X186437275Y-28240565D02*
X186017616Y-28437410D01*
X186017616Y-28437410D02*
X185598132Y-28634616D01*
X185598132Y-28634616D02*
X185178844Y-28832222D01*
X185178844Y-28832222D02*
X184759770Y-29030268D01*
X184759770Y-29030268D02*
X184340932Y-29228795D01*
X184340932Y-29228795D02*
X183922347Y-29427841D01*
X183922347Y-29427841D02*
X183504035Y-29627447D01*
X183504035Y-29627447D02*
X183086017Y-29827653D01*
X183086017Y-29827653D02*
X182668312Y-30028498D01*
X182668312Y-30028498D02*
X182250939Y-30230022D01*
X182250939Y-30230022D02*
X181833917Y-30432266D01*
X181833917Y-30432266D02*
X181417268Y-30635268D01*
X181417268Y-30635268D02*
X181001009Y-30839070D01*
X150164721Y-53424127D02*
X149894418Y-53420545D01*
X149894418Y-53420545D02*
X149623908Y-53417892D01*
X149623908Y-53417892D02*
X149353211Y-53416086D01*
X149353211Y-53416086D02*
X149082345Y-53415043D01*
X149082345Y-53415043D02*
X148811328Y-53414681D01*
X148811328Y-53414681D02*
X148540177Y-53414918D01*
X148540177Y-53414918D02*
X148268913Y-53415670D01*
X148268913Y-53415670D02*
X147997552Y-53416856D01*
X147997552Y-53416856D02*
X147726113Y-53418392D01*
X147726113Y-53418392D02*
X147454615Y-53420196D01*
X147454615Y-53420196D02*
X147183076Y-53422185D01*
X147183076Y-53422185D02*
X146911514Y-53424276D01*
X146911514Y-53424276D02*
X146639948Y-53426387D01*
X146639948Y-53426387D02*
X146368395Y-53428436D01*
X146368395Y-53428436D02*
X146096875Y-53430339D01*
X146096875Y-53430339D02*
X145825406Y-53432014D01*
X145825406Y-53432014D02*
X145554006Y-53433379D01*
X145554006Y-53433379D02*
X145282692Y-53434350D01*
X145282692Y-53434350D02*
X145011485Y-53434845D01*
X145011485Y-53434845D02*
X144740401Y-53434781D01*
X144740401Y-53434781D02*
X144469460Y-53434077D01*
X144469460Y-53434077D02*
X144198680Y-53432648D01*
X144198680Y-53432648D02*
X143928078Y-53430413D01*
X143928078Y-53430413D02*
X143657674Y-53427288D01*
X143657674Y-53427288D02*
X143387486Y-53423192D01*
X143387486Y-53423192D02*
X143117531Y-53418041D01*
X143117531Y-53418041D02*
X142847829Y-53411753D01*
X142847829Y-53411753D02*
X142578398Y-53404246D01*
X142578398Y-53404246D02*
X142309256Y-53395436D01*
X142309256Y-53395436D02*
X142040421Y-53385241D01*
X142040421Y-53385241D02*
X141771912Y-53373578D01*
X141771912Y-53373578D02*
X141503747Y-53360365D01*
X165786420Y-43446114D02*
X165606465Y-43585271D01*
X165606465Y-43585271D02*
X165439393Y-43738116D01*
X165439393Y-43738116D02*
X165285757Y-43903445D01*
X165285757Y-43903445D02*
X165146112Y-44080053D01*
X165146112Y-44080053D02*
X165021010Y-44266735D01*
X165021010Y-44266735D02*
X164911007Y-44462288D01*
X164911007Y-44462288D02*
X164816654Y-44665505D01*
X164816654Y-44665505D02*
X164738508Y-44875183D01*
X164738508Y-44875183D02*
X164677120Y-45090117D01*
X164677120Y-45090117D02*
X164633046Y-45309102D01*
X164633046Y-45309102D02*
X164606838Y-45530934D01*
X164606838Y-45530934D02*
X164599051Y-45754408D01*
X164599051Y-45754408D02*
X164610238Y-45978319D01*
X164610238Y-45978319D02*
X164640954Y-46201463D01*
X164640954Y-46201463D02*
X164691751Y-46422635D01*
X164691751Y-46422635D02*
X164763185Y-46640631D01*
X180345731Y-36617581D02*
X179890123Y-36829497D01*
X179890123Y-36829497D02*
X179434269Y-37040951D01*
X179434269Y-37040951D02*
X178978199Y-37251998D01*
X178978199Y-37251998D02*
X178521941Y-37462695D01*
X178521941Y-37462695D02*
X178065523Y-37673096D01*
X178065523Y-37673096D02*
X177608975Y-37883258D01*
X177608975Y-37883258D02*
X177152324Y-38093237D01*
X177152324Y-38093237D02*
X176695599Y-38303088D01*
X176695599Y-38303088D02*
X176238829Y-38512866D01*
X176238829Y-38512866D02*
X175782042Y-38722629D01*
X175782042Y-38722629D02*
X175325267Y-38932431D01*
X175325267Y-38932431D02*
X174868533Y-39142328D01*
X174868533Y-39142328D02*
X174411869Y-39352376D01*
X174411869Y-39352376D02*
X173955302Y-39562630D01*
X173955302Y-39562630D02*
X173498861Y-39773147D01*
X173498861Y-39773147D02*
X173042575Y-39983983D01*
X173042575Y-39983983D02*
X172586473Y-40195192D01*
X172586473Y-40195192D02*
X172130583Y-40406831D01*
X172130583Y-40406831D02*
X171674934Y-40618955D01*
X171674934Y-40618955D02*
X171219555Y-40831621D01*
X171219555Y-40831621D02*
X170764473Y-41044883D01*
X170764473Y-41044883D02*
X170309718Y-41258798D01*
X170309718Y-41258798D02*
X169855318Y-41473422D01*
X169855318Y-41473422D02*
X169401302Y-41688810D01*
X169401302Y-41688810D02*
X168947698Y-41905018D01*
X168947698Y-41905018D02*
X168494535Y-42122101D01*
X168494535Y-42122101D02*
X168041842Y-42340116D01*
X168041842Y-42340116D02*
X167589646Y-42559118D01*
X167589646Y-42559118D02*
X167137978Y-42779163D01*
X167137978Y-42779163D02*
X166686865Y-43000307D01*
X166686865Y-43000307D02*
X166236336Y-43222605D01*
X166236336Y-43222605D02*
X165786420Y-43446114D01*
X220450897Y-20189304D02*
X220357126Y-20076058D01*
X220357126Y-20076058D02*
X220258740Y-19970439D01*
X220258740Y-19970439D02*
X220155993Y-19872333D01*
X220155993Y-19872333D02*
X220049139Y-19781625D01*
X220049139Y-19781625D02*
X219938431Y-19698200D01*
X219938431Y-19698200D02*
X219824123Y-19621945D01*
X219824123Y-19621945D02*
X219706468Y-19552744D01*
X219706468Y-19552744D02*
X219585721Y-19490484D01*
X219585721Y-19490484D02*
X219462134Y-19435049D01*
X219462134Y-19435049D02*
X219335962Y-19386326D01*
X219335962Y-19386326D02*
X219207458Y-19344199D01*
X219207458Y-19344199D02*
X219076877Y-19308555D01*
X219076877Y-19308555D02*
X218944470Y-19279279D01*
X218944470Y-19279279D02*
X218810493Y-19256256D01*
X218810493Y-19256256D02*
X218675199Y-19239373D01*
X218675199Y-19239373D02*
X218538841Y-19228514D01*
X218538841Y-19228514D02*
X218401673Y-19223565D01*
X218401673Y-19223565D02*
X218263949Y-19224412D01*
X218263949Y-19224412D02*
X218125923Y-19230940D01*
X218125923Y-19230940D02*
X217987848Y-19243034D01*
X217987848Y-19243034D02*
X217849978Y-19260582D01*
X217849978Y-19260582D02*
X217712566Y-19283466D01*
X217712566Y-19283466D02*
X217575866Y-19311575D01*
X217575866Y-19311575D02*
X217440132Y-19344792D01*
X217440132Y-19344792D02*
X217305618Y-19383004D01*
X217305618Y-19383004D02*
X217172577Y-19426095D01*
X217172577Y-19426095D02*
X217041263Y-19473952D01*
X217041263Y-19473952D02*
X216911929Y-19526461D01*
X216911929Y-19526461D02*
X216784829Y-19583506D01*
X216784829Y-19583506D02*
X216660217Y-19644973D01*
X216660217Y-19644973D02*
X216538347Y-19710747D01*
X216538347Y-19710747D02*
X216419472Y-19780716D01*
X199027593Y-22683404D02*
X198871944Y-22697952D01*
X198871944Y-22697952D02*
X198717797Y-22718091D01*
X198717797Y-22718091D02*
X198565075Y-22743537D01*
X198565075Y-22743537D02*
X198413705Y-22774007D01*
X198413705Y-22774007D02*
X198263610Y-22809217D01*
X198263610Y-22809217D02*
X198114716Y-22848884D01*
X198114716Y-22848884D02*
X197966947Y-22892724D01*
X197966947Y-22892724D02*
X197820227Y-22940455D01*
X197820227Y-22940455D02*
X197674482Y-22991791D01*
X197674482Y-22991791D02*
X197529636Y-23046451D01*
X197529636Y-23046451D02*
X197385614Y-23104151D01*
X197385614Y-23104151D02*
X197242341Y-23164607D01*
X197242341Y-23164607D02*
X197099742Y-23227535D01*
X197099742Y-23227535D02*
X196957741Y-23292653D01*
X196957741Y-23292653D02*
X196816262Y-23359677D01*
X196816262Y-23359677D02*
X196675231Y-23428323D01*
X196675231Y-23428323D02*
X196534573Y-23498308D01*
X196534573Y-23498308D02*
X196394212Y-23569349D01*
X196394212Y-23569349D02*
X196254073Y-23641162D01*
X196254073Y-23641162D02*
X196114080Y-23713464D01*
X196114080Y-23713464D02*
X195974159Y-23785971D01*
X195974159Y-23785971D02*
X195834234Y-23858400D01*
X195834234Y-23858400D02*
X195694229Y-23930467D01*
X195694229Y-23930467D02*
X195554070Y-24001889D01*
X195554070Y-24001889D02*
X195413682Y-24072383D01*
X195413682Y-24072383D02*
X195272989Y-24141665D01*
X195272989Y-24141665D02*
X195131915Y-24209452D01*
X195131915Y-24209452D02*
X194990386Y-24275460D01*
X194990386Y-24275460D02*
X194848326Y-24339405D01*
X194848326Y-24339405D02*
X194705660Y-24401005D01*
X194705660Y-24401005D02*
X194562313Y-24459976D01*
X194562313Y-24459976D02*
X194418210Y-24516035D01*
M02*
