%TF.GenerationSoftware,KiCad,Pcbnew,(5.1.10)-1*%
%TF.CreationDate,2021-08-07T23:39:34-07:00*%
%TF.ProjectId,bottom-plate,626f7474-6f6d-42d7-906c-6174652e6b69,rev?*%
%TF.SameCoordinates,Original*%
%TF.FileFunction,Legend,Bot*%
%TF.FilePolarity,Positive*%
%FSLAX46Y46*%
G04 Gerber Fmt 4.6, Leading zero omitted, Abs format (unit mm)*
G04 Created by KiCad (PCBNEW (5.1.10)-1) date 2021-08-07 23:39:34*
%MOMM*%
%LPD*%
G01*
G04 APERTURE LIST*
%ADD10C,0.320000*%
G04 APERTURE END LIST*
D10*
X140057333Y-98750424D02*
X139848412Y-98736964D01*
X140140013Y-98754604D02*
X140088793Y-98754604D01*
X140293833Y-98777745D02*
X140140013Y-98754604D01*
X140088793Y-98754604D02*
X140057333Y-98750424D01*
X139848412Y-98736964D02*
X139589113Y-98731164D01*
X140534153Y-98848304D02*
X140491173Y-98832625D01*
X139338572Y-96199144D02*
X139458453Y-96199144D01*
X141599393Y-93251004D02*
X141278573Y-92753004D01*
X141564393Y-99704064D02*
X141395693Y-99472564D01*
X140617393Y-98879764D02*
X140534153Y-98848304D01*
X140856372Y-99003444D02*
X140617393Y-98879764D01*
X143863233Y-92260404D02*
X143917773Y-92381404D01*
X141143532Y-99211584D02*
X140856372Y-99003444D01*
X141395693Y-99472564D02*
X141143532Y-99211584D01*
X141612593Y-99786184D02*
X141564393Y-99704064D01*
X142034573Y-101029724D02*
X141929033Y-100471644D01*
X140182213Y-92354404D02*
X139995093Y-92354404D01*
X142034573Y-101216064D02*
X142034573Y-101029724D01*
X141706573Y-94082484D02*
X141706573Y-93948564D01*
X143777233Y-98758204D02*
X143886653Y-98918564D01*
X139995093Y-92354404D02*
X136361213Y-92354404D01*
X140743612Y-92454004D02*
X140182213Y-92354404D01*
X141205273Y-95399044D02*
X141483613Y-94968304D01*
X141987733Y-97371364D02*
X142194673Y-97468864D01*
X140182492Y-96128864D02*
X140233233Y-96113204D01*
X143917773Y-92381404D02*
X144109333Y-93016404D01*
X140921352Y-95693404D02*
X141205273Y-95399044D01*
X139818913Y-96181504D02*
X140131493Y-96140444D01*
X140760693Y-95820184D02*
X140815513Y-95777224D01*
X142949053Y-91018004D02*
X143046633Y-91104004D01*
X144191453Y-93831164D02*
X144191453Y-94099624D01*
X144396493Y-99961724D02*
X144566533Y-100867104D01*
X142309893Y-90537404D02*
X142851193Y-90928204D01*
X141432873Y-90123204D02*
X141565733Y-90174204D01*
X140815513Y-95777224D02*
X140921352Y-95693404D01*
X143886653Y-98918564D02*
X143999913Y-99078724D01*
X144053673Y-94905164D02*
X143640493Y-95853284D01*
X140493073Y-95993824D02*
X140760693Y-95820184D01*
X140233233Y-96113204D02*
X140493073Y-95993824D01*
X141706573Y-93948564D02*
X141706573Y-93774084D01*
X143808353Y-92139204D02*
X143863233Y-92260404D01*
X142244053Y-97223884D02*
X141987733Y-97371364D01*
X142194673Y-97468864D02*
X143083813Y-98050945D01*
X142851193Y-90928204D02*
X142949053Y-91018004D01*
X144191453Y-93627464D02*
X144191453Y-93831164D01*
X141698593Y-90224804D02*
X142309893Y-90537404D01*
X139458453Y-96199144D02*
X139818913Y-96181504D01*
X136361213Y-92354404D02*
X136361213Y-96199144D01*
X144566533Y-100867104D02*
X144566533Y-101169224D01*
X143999913Y-99078724D02*
X144396493Y-99961724D01*
X144191453Y-94099624D02*
X144053673Y-94905164D01*
X143083813Y-98050945D02*
X143777233Y-98758204D01*
X140733393Y-89945404D02*
X141432873Y-90123204D01*
X141650613Y-94484644D02*
X141706573Y-94082484D01*
X140056553Y-89869204D02*
X140733393Y-89945404D01*
X140131493Y-96140444D02*
X140182492Y-96128864D01*
X143640493Y-95853284D02*
X142951793Y-96675104D01*
X141929033Y-100471644D02*
X141682853Y-99895344D01*
X141682853Y-99895344D02*
X141612593Y-99786184D01*
X143046633Y-91104004D02*
X143470453Y-91586204D01*
X143470453Y-91586204D02*
X143808353Y-92139204D01*
X136361213Y-96199144D02*
X139338572Y-96199144D01*
X141278573Y-92753004D02*
X140743612Y-92454004D01*
X142951793Y-96675104D02*
X142244053Y-97223884D01*
X141565733Y-90174204D02*
X141698593Y-90224804D01*
X144109333Y-93016404D02*
X144191453Y-93627464D01*
X141706573Y-93774084D02*
X141599393Y-93251004D01*
X140491173Y-98832625D02*
X140293833Y-98777745D01*
X141483613Y-94968304D02*
X141650613Y-94484644D01*
X140979853Y-105482984D02*
X140878093Y-105498444D01*
X141559953Y-105353724D02*
X141085113Y-105463444D01*
X125720793Y-83732004D02*
X125760756Y-83431404D01*
X141964313Y-105228924D02*
X141559953Y-105353724D01*
X144347733Y-102540604D02*
X143898233Y-103517664D01*
X165408393Y-83732004D02*
X165408393Y-83832404D01*
X161439593Y-109629244D02*
X129689553Y-109629244D01*
X126593919Y-82185804D02*
X126931265Y-82003404D01*
X126300671Y-82427804D02*
X126593919Y-82185804D01*
X163824593Y-113557766D02*
X163523993Y-113598004D01*
X165252593Y-112387256D02*
X165070193Y-112724604D01*
X143476233Y-104117384D02*
X143120713Y-104498244D01*
X143898233Y-103517664D02*
X143839813Y-103607484D01*
X165367993Y-83431404D02*
X165408393Y-83732004D01*
X144566533Y-101169224D02*
X144566533Y-101485584D01*
X127304159Y-113557766D02*
X126931265Y-113442286D01*
X125760756Y-112014364D02*
X125720793Y-111713676D01*
X126593919Y-113259834D02*
X126300671Y-113017850D01*
X164534793Y-113259834D02*
X164197593Y-113442286D01*
X144566533Y-101485584D02*
X144410333Y-102329784D01*
X165408393Y-111613628D02*
X165408393Y-111713676D01*
X129689553Y-109629244D02*
X129689553Y-85816804D01*
X129689553Y-85816804D02*
X161439593Y-85816804D01*
X127604845Y-81848004D02*
X127705169Y-81848004D01*
X165070193Y-112724604D02*
X164828193Y-113017850D01*
X165408393Y-111713676D02*
X165367993Y-112014364D01*
X125720793Y-111713676D02*
X125720793Y-111613628D01*
X163423993Y-113598004D02*
X127705169Y-113598004D01*
X142034573Y-105201604D02*
X141964313Y-105228924D01*
X143042753Y-104568524D02*
X142968313Y-104634984D01*
X144379133Y-102435344D02*
X144347733Y-102540604D01*
X164197593Y-113442286D02*
X163824593Y-113557766D01*
X125720793Y-111613628D02*
X125720793Y-83832404D01*
X126931265Y-82003404D02*
X127304159Y-81888004D01*
X125876236Y-83058404D02*
X126058687Y-82721205D01*
X165367993Y-112014364D02*
X165252593Y-112387256D01*
X126058687Y-82721205D02*
X126300671Y-82427804D01*
X133876033Y-89869204D02*
X139831053Y-89869204D01*
X140878093Y-105498444D02*
X140092613Y-105576684D01*
X143784913Y-103697364D02*
X143476233Y-104117384D01*
X142128273Y-105162444D02*
X142034573Y-105201604D01*
X144410333Y-102329784D02*
X144379133Y-102435344D01*
X127604845Y-113598004D02*
X127304159Y-113557766D01*
X141085113Y-105463444D02*
X140979853Y-105482984D01*
X125720793Y-83832404D02*
X125720793Y-83732004D01*
X143839813Y-103607484D02*
X143784913Y-103697364D01*
X126058687Y-112724604D02*
X125876236Y-112387256D01*
X164828193Y-113017850D02*
X164534793Y-113259834D01*
X139831053Y-89869204D02*
X140056553Y-89869204D01*
X139831053Y-105576684D02*
X133876033Y-105576684D01*
X127304159Y-81888004D02*
X127604845Y-81848004D01*
X142567833Y-104926024D02*
X142128273Y-105162444D01*
X125760756Y-83431404D02*
X125876236Y-83058404D01*
X126931265Y-113442286D02*
X126593919Y-113259834D01*
X161439593Y-85816804D02*
X161439593Y-109629244D01*
X126300671Y-113017850D02*
X126058687Y-112724604D01*
X165408393Y-83832404D02*
X165408393Y-111613628D01*
X163523993Y-113598004D02*
X163423993Y-113598004D01*
X133876033Y-105576684D02*
X133876033Y-89869204D01*
X142968313Y-104634984D02*
X142567833Y-104926024D01*
X140092613Y-105576684D02*
X139831053Y-105576684D01*
X125876236Y-112387256D02*
X125760756Y-112014364D01*
X143120713Y-104498244D02*
X143042753Y-104568524D01*
X127705169Y-113598004D02*
X127604845Y-113598004D01*
X150202793Y-99703784D02*
X150154793Y-99785904D01*
X140953093Y-102930364D02*
X141553892Y-102587464D01*
X149852793Y-102016164D02*
X150213193Y-102587464D01*
X147200793Y-101169224D02*
X147200793Y-100867104D01*
X149838193Y-100471644D02*
X149732793Y-101029724D01*
X150060993Y-93774084D02*
X150060993Y-93948564D01*
X151627392Y-98754604D02*
X151473593Y-98777745D01*
X155406193Y-98731164D02*
X152264793Y-98731164D01*
X150623593Y-99211584D02*
X150371393Y-99472284D01*
X150371393Y-99472284D02*
X150202793Y-99703784D01*
X151948193Y-96181504D02*
X152308593Y-96199144D01*
X151584993Y-92354204D02*
X151023593Y-92453604D01*
X150060993Y-93948564D02*
X150060993Y-94082484D01*
X150154793Y-99785904D02*
X150084193Y-99895344D01*
X151709793Y-98750424D02*
X151678592Y-98754604D01*
X155406193Y-92354204D02*
X151772393Y-92354204D01*
X155406193Y-96199144D02*
X155406193Y-92354204D01*
X151772393Y-92354204D02*
X151584993Y-92354204D01*
X151584993Y-96128864D02*
X151635593Y-96140444D01*
X151533993Y-96113204D02*
X151584993Y-96128864D01*
X150084193Y-99895344D02*
X149838193Y-100471644D01*
X151149793Y-98879764D02*
X150910793Y-99003444D01*
X151655193Y-103044724D02*
X155406193Y-103044724D01*
X149732793Y-101415884D02*
X149852793Y-102016164D01*
X136361213Y-103044724D02*
X140112213Y-103044724D01*
X151276193Y-98832625D02*
X151233193Y-98848304D01*
X152428793Y-96199144D02*
X155406193Y-96199144D01*
X150951793Y-95777224D02*
X151006393Y-95820184D01*
X155406193Y-103044724D02*
X155406193Y-98731164D01*
X141553892Y-102587464D02*
X141914413Y-102016164D01*
X147767193Y-99078724D02*
X147880793Y-98918564D01*
X150167993Y-93251004D02*
X150060993Y-93774084D01*
X151023593Y-92453604D02*
X150488793Y-92752804D01*
X151006393Y-95820184D02*
X151273993Y-95993824D01*
X152308593Y-96199144D02*
X152428793Y-96199144D01*
X151444993Y-103044724D02*
X151655193Y-103044724D01*
X149732793Y-101216064D02*
X149732793Y-101415884D01*
X147370593Y-99961724D02*
X147767193Y-99078724D01*
X147200793Y-100867104D02*
X147370593Y-99961724D01*
X149732793Y-101029724D02*
X149732793Y-101216064D01*
X150488793Y-92752804D02*
X150167993Y-93251004D01*
X151473593Y-98777745D02*
X151276193Y-98832625D01*
X150845793Y-95693404D02*
X150951793Y-95777224D01*
X150561793Y-95399044D02*
X150845793Y-95693404D01*
X150116593Y-94484644D02*
X150283593Y-94968304D01*
X141914413Y-102016164D02*
X142034573Y-101415884D01*
X140322193Y-103044724D02*
X140953093Y-102930364D01*
X150910793Y-99003444D02*
X150623593Y-99211584D01*
X151233193Y-98848304D02*
X151149793Y-98879764D01*
X150213193Y-102587464D02*
X150813993Y-102930364D01*
X152178193Y-98731164D02*
X151918993Y-98736964D01*
X151918993Y-98736964D02*
X151709793Y-98750424D01*
X139502833Y-98731164D02*
X136361213Y-98731164D01*
X142034573Y-101415884D02*
X142034573Y-101216064D01*
X139589113Y-98731164D02*
X139502833Y-98731164D01*
X151678592Y-98754604D02*
X151627392Y-98754604D01*
X150813993Y-102930364D02*
X151444993Y-103044724D01*
X136361213Y-98731164D02*
X136361213Y-103044724D01*
X150060993Y-94082484D02*
X150116593Y-94484644D01*
X151635593Y-96140444D02*
X151948193Y-96181504D01*
X151273993Y-95993824D02*
X151533993Y-96113204D01*
X152264793Y-98731164D02*
X152178193Y-98731164D01*
X140112213Y-103044724D02*
X140322193Y-103044724D01*
X150283593Y-94968304D02*
X150561793Y-95399044D01*
X163824593Y-81888004D02*
X164197593Y-82003404D01*
X163523993Y-81848004D02*
X163824593Y-81888004D01*
X165070193Y-82721205D02*
X165252593Y-83058404D01*
X163423993Y-81848004D02*
X163523993Y-81848004D01*
X164197593Y-82003404D02*
X164534793Y-82185804D01*
X164828193Y-82427804D02*
X165070193Y-82721205D01*
X164534793Y-82185804D02*
X164828193Y-82427804D01*
X127705169Y-81848004D02*
X163423993Y-81848004D01*
X149457193Y-90537404D02*
X150068793Y-90224804D01*
X147849393Y-92381404D02*
X147904193Y-92260404D01*
X149199193Y-104926024D02*
X148798793Y-104634984D01*
X148296593Y-91586204D02*
X148720593Y-91103804D01*
X147356793Y-102329784D02*
X147200793Y-101459124D01*
X148815393Y-96675104D02*
X148126593Y-95853284D01*
X148720593Y-91103804D02*
X148818393Y-91018004D01*
X147958793Y-92139204D02*
X148296593Y-91586204D01*
X150682193Y-105463444D02*
X150207393Y-105353724D01*
X149572393Y-97468864D02*
X149779593Y-97371364D01*
X151033993Y-89945404D02*
X151710792Y-89869204D01*
X147388193Y-102435344D02*
X147356793Y-102329784D01*
X147419393Y-102540604D02*
X147388193Y-102435344D01*
X150201593Y-90174204D02*
X150334393Y-90123204D01*
X157891393Y-89869204D02*
X157891393Y-105576684D01*
X151649393Y-105576684D02*
X150889393Y-105498444D01*
X148290793Y-104117384D02*
X147982193Y-103697364D01*
X149803193Y-105228924D02*
X149732793Y-105201604D01*
X147200793Y-101459124D02*
X147200793Y-101169224D01*
X147575993Y-94099844D02*
X147575993Y-93831444D01*
X147868793Y-103517384D02*
X147419393Y-102540604D01*
X148126593Y-95853284D02*
X147713393Y-94905164D01*
X148646393Y-104498244D02*
X148290793Y-104117384D01*
X147927593Y-103607484D02*
X147868793Y-103517384D01*
X148724593Y-104568524D02*
X148646393Y-104498244D01*
X151936593Y-89869204D02*
X157891393Y-89869204D01*
X150207393Y-105353724D02*
X149803193Y-105228924D01*
X148683593Y-98050945D02*
X149572393Y-97468864D01*
X149779593Y-97371364D02*
X149522993Y-97223884D01*
X151936593Y-105576684D02*
X151649393Y-105576684D01*
X147575993Y-93627464D02*
X147657793Y-93016404D01*
X157891393Y-105576684D02*
X151936593Y-105576684D01*
X147880793Y-98918564D02*
X147990193Y-98758204D01*
X151710792Y-89869204D02*
X151936593Y-89869204D01*
X150068793Y-90224804D02*
X150201593Y-90174204D01*
X148818393Y-91018004D02*
X148915993Y-90928204D01*
X147575993Y-93831444D02*
X147575993Y-93627464D01*
X147713393Y-94905164D02*
X147575993Y-94099844D01*
X149522993Y-97223884D02*
X148815393Y-96675104D01*
X148798793Y-104634984D02*
X148724593Y-104568524D01*
X147982193Y-103697364D02*
X147927593Y-103607484D01*
X150787793Y-105482984D02*
X150682193Y-105463444D01*
X150334393Y-90123204D02*
X151033993Y-89945404D01*
X149732793Y-105201604D02*
X149638793Y-105162444D01*
X149638793Y-105162444D02*
X149199193Y-104926024D01*
X147990193Y-98758204D02*
X148683593Y-98050945D01*
X148915993Y-90928204D02*
X149457193Y-90537404D01*
X147904193Y-92260404D02*
X147958793Y-92139204D01*
X147657793Y-93016404D02*
X147849393Y-92381404D01*
X150889393Y-105498444D02*
X150787793Y-105482984D01*
X165252593Y-83058404D02*
X165367993Y-83431404D01*
M02*
