  0
SECTION
  2
HEADER
  9
$ACADVER
  1
AC1014
  9
$HANDSEED
  5
FFFF
  9
$MEASUREMENT
 70
     1
  0
ENDSEC
  0
SECTION
  2
TABLES
  0
TABLE
  2
VPORT
  5
8
330
0
100
AcDbSymbolTable
 70
     4
  0
VPORT
  5
2E
330
8
100
AcDbSymbolTableRecord
100
AcDbViewportTableRecord
  2
*ACTIVE
 70
     0
 10
0.0
 20
0.0
 11
1.0
 21
1.0
 12
210.0
 22
148.5
 13
0.0
 23
0.0
 14
10.0
 24
10.0
 15
10.0
 25
10.0
 16
0.0
 26
0.0
 36
1.0
 17
0.0
 27
0.0
 37
0.0
 40
341.0
 41
1.24
 42
50.0
 43
0.0
 44
0.0
 50
0.0
 51
0.0
 71
     0
 72
   100
 73
     1
 74
     3
 75
     0
 76
     0
 77
     0
 78
     0
  0
ENDTAB
  0
TABLE
  2
LTYPE
  5
5
330
0
100
AcDbSymbolTable
 70
     1
  0
LTYPE
  5
14
330
5
100
AcDbSymbolTableRecord
100
AcDbLinetypeTableRecord
  2
BYBLOCK
 70
     0
  3

 72
    65
 73
     0
 40
0.0
  0
LTYPE
  5
15
330
5
100
AcDbSymbolTableRecord
100
AcDbLinetypeTableRecord
  2
BYLAYER
 70
     0
  3

 72
    65
 73
     0
 40
0.0
  0
LTYPE
  5
16
330
5
100
AcDbSymbolTableRecord
100
AcDbLinetypeTableRecord
  2
CONTINUOUS
 70
     0
  3
Solid line
 72
    65
 73
     0
 40
0.0
  0
ENDTAB
  0
TABLE
  2
LAYER
  5
2
100
AcDbSymbolTable
 70
2
  0
LAYER
  5
50
100
AcDbSymbolTableRecord
100
AcDbLayerTableRecord
  2
0
 70
0
  6
CONTINUOUS
  0
LAYER
  5
51
100
AcDbSymbolTableRecord
100
AcDbLayerTableRecord
  2
Layer_1
 70
0
  6
CONTINUOUS
  0
ENDTAB
  0
TABLE
  2
STYLE
  5
3
330
0
100
AcDbSymbolTable
 70
     1
  0
STYLE
  5
11
330
3
100
AcDbSymbolTableRecord
100
AcDbTextStyleTableRecord
  2
STANDARD
 70
     0
 40
0.0
 41
1.0
 50
0.0
 71
     0
 42
2.5
  3
txt
  4

  0
ENDTAB
  0
TABLE
  2
VIEW
  5
6
330
0
100
AcDbSymbolTable
 70
     0
  0
ENDTAB
  0
TABLE
  2
UCS
  5
7
330
0
100
AcDbSymbolTable
 70
     0
  0
ENDTAB
  0
TABLE
  2
APPID
  5
9
330
0
100
AcDbSymbolTable
 70
     2
  0
APPID
  5
12
330
9
100
AcDbSymbolTableRecord
100
AcDbRegAppTableRecord
  2
ACAD
 70
     0
  0
ENDTAB
  0
TABLE
  2
DIMSTYLE
  5
A
330
0
100
AcDbSymbolTable
 70
     1
  0
DIMSTYLE
105
27
330
A
100
AcDbSymbolTableRecord
100
AcDbDimStyleTableRecord
  2
ISO-25
 70
     0
  3

  4

  5

  6

  7

 40
1.0
 41
2.5
 42
0.625
 43
3.75
 44
1.25
 45
0.0
 46
0.0
 47
0.0
 48
0.0
140
2.5
141
2.5
142
0.0
143
0.03937007874016
144
1.0
145
0.0
146
1.0
147
0.625
 71
     0
 72
     0
 73
     0
 74
     0
 75
     0
 76
     0
 77
     1
 78
     8
170
     0
171
     3
172
     1
173
     0
174
     0
175
     0
176
     0
177
     0
178
     0
270
     2
271
     2
272
     2
273
     2
274
     3
340
11
275
     0
280
     0
281
     0
282
     0
283
     0
284
     8
285
     0
286
     0
287
     3
288
     0
  0
ENDTAB
  0
TABLE
  2
BLOCK_RECORD
  5
1
330
0
100
AcDbSymbolTable
 70
     1
  0
BLOCK_RECORD
  5
1F
330
1
100
AcDbSymbolTableRecord
100
AcDbBlockTableRecord
  2
*MODEL_SPACE
  0
BLOCK_RECORD
  5
1B
330
1
100
AcDbSymbolTableRecord
100
AcDbBlockTableRecord
  2
*PAPER_SPACE
  0
ENDTAB
  0
ENDSEC
  0
SECTION
  2
BLOCKS
  0
BLOCK
  5
20
330
1F
100
AcDbEntity
  8
0
100
AcDbBlockBegin
  2
*MODEL_SPACE
 70
     0
 10
0.0
 20
0.0
 30
0.0
  3
*MODEL_SPACE
  1

  0
ENDBLK
  5
21
330
1F
100
AcDbEntity
  8
0
100
AcDbBlockEnd
  0
BLOCK
  5
1C
330
1B
100
AcDbEntity
 67
     1
  8
0
100
AcDbBlockBegin
  2
*PAPER_SPACE
  1

  0
ENDBLK
  5
1D
330
1B
100
AcDbEntity
 67
     1
  8
0
100
AcDbBlockEnd
  0
ENDSEC
  0
SECTION
  2
ENTITIES
  0
SPLINE
  5
100
100
AcDbEntity
  8
Layer_1
 62
7
100
AcDbSpline
 70
8
 71
3
 72
8
 73
4
 74
0
 40
0
 40
0
 40
0
 40
0
 40
1
 40
1
 40
1
 40
1
 10
185.029905
 20
489.996992
 30
0.0
 10
180.317015
 20
487.564220
 30
0.0
 10
179.478669
 20
481.779056
 30
0.0
 10
177.026558
 20
477.521919
 30
0.0
  0
SPLINE
  5
101
100
AcDbEntity
  8
Layer_1
 62
7
100
AcDbSpline
 70
8
 71
3
 72
8
 73
4
 74
0
 40
0
 40
0
 40
0
 40
0
 40
1
 40
1
 40
1
 40
1
 10
177.026558
 20
477.521919
 30
0.0
 10
174.467822
 20
472.028225
 30
0.0
 10
171.908431
 20
466.534622
 30
0.0
 10
169.350134
 20
461.040864
 30
0.0
  0
SPLINE
  5
102
100
AcDbEntity
  8
Layer_1
 62
7
100
AcDbSpline
 70
8
 71
3
 72
8
 73
4
 74
0
 40
0
 40
0
 40
0
 40
0
 40
1
 40
1
 40
1
 40
1
 10
169.350134
 20
461.040864
 30
0.0
 10
155.165680
 20
467.615321
 30
0.0
 10
141.024088
 20
474.291740
 30
0.0
 10
126.744371
 20
480.654768
 30
0.0
  0
SPLINE
  5
103
100
AcDbEntity
  8
Layer_1
 62
7
100
AcDbSpline
 70
8
 71
3
 72
8
 73
4
 74
0
 40
0
 40
0
 40
0
 40
0
 40
1
 40
1
 40
1
 40
1
 10
126.744371
 20
480.654768
 30
0.0
 10
122.246135
 20
482.263472
 30
0.0
 10
117.670147
 20
479.088293
 30
0.0
 10
116.353648
 20
474.760647
 30
0.0
  0
SPLINE
  5
104
100
AcDbEntity
  8
Layer_1
 62
7
100
AcDbSpline
 70
8
 71
3
 72
8
 73
4
 74
0
 40
0
 40
0
 40
0
 40
0
 40
1
 40
1
 40
1
 40
1
 10
116.353648
 20
474.760647
 30
0.0
 10
94.001915
 20
427.044252
 30
0.0
 10
71.689813
 20
379.307151
 30
0.0
 10
49.640771
 20
331.450652
 30
0.0
  0
SPLINE
  5
105
100
AcDbEntity
  8
Layer_1
 62
7
100
AcDbSpline
 70
8
 71
3
 72
8
 73
4
 74
0
 40
0
 40
0
 40
0
 40
0
 40
1
 40
1
 40
1
 40
1
 10
49.640771
 20
331.450652
 30
0.0
 10
47.727724
 20
326.850759
 30
0.0
 10
50.979913
 20
322.013864
 30
0.0
 10
55.262329
 20
320.287865
 30
0.0
  0
SPLINE
  5
106
100
AcDbEntity
  8
Layer_1
 62
7
100
AcDbSpline
 70
8
 71
3
 72
8
 73
4
 74
0
 40
0
 40
0
 40
0
 40
0
 40
1
 40
1
 40
1
 40
1
 10
55.262329
 20
320.287865
 30
0.0
 10
68.350821
 20
313.727492
 30
0.0
 10
81.698893
 20
307.688398
 30
0.0
 10
95.038269
 20
301.656922
 30
0.0
  0
SPLINE
  5
107
100
AcDbEntity
  8
Layer_1
 62
7
100
AcDbSpline
 70
8
 71
3
 72
8
 73
4
 74
0
 40
0
 40
0
 40
0
 40
0
 40
1
 40
1
 40
1
 40
1
 10
95.038269
 20
301.656922
 30
0.0
 10
93.252525
 20
296.809904
 30
0.0
 10
89.475318
 20
292.042006
 30
0.0
 10
90.476572
 20
286.627419
 30
0.0
  0
SPLINE
  5
108
100
AcDbEntity
  8
Layer_1
 62
7
100
AcDbSpline
 70
8
 71
3
 72
8
 73
4
 74
0
 40
0
 40
0
 40
0
 40
0
 40
1
 40
1
 40
1
 40
1
 10
90.476572
 20
286.627419
 30
0.0
 10
91.755925
 20
280.916062
 30
0.0
 10
98.391705
 20
280.054064
 30
0.0
 10
102.725421
 20
277.562568
 30
0.0
  0
SPLINE
  5
109
100
AcDbEntity
  8
Layer_1
 62
7
100
AcDbSpline
 70
8
 71
3
 72
8
 73
4
 74
0
 40
0
 40
0
 40
0
 40
0
 40
1
 40
1
 40
1
 40
1
 10
102.725421
 20
277.562568
 30
0.0
 10
116.313091
 20
271.407224
 30
0.0
 10
129.647498
 20
264.621454
 30
0.0
 10
143.500571
 20
259.089572
 30
0.0
  0
SPLINE
  5
10a
100
AcDbEntity
  8
Layer_1
 62
7
100
AcDbSpline
 70
8
 71
3
 72
8
 73
4
 74
0
 40
0
 40
0
 40
0
 40
0
 40
1
 40
1
 40
1
 40
1
 10
143.500571
 20
259.089572
 30
0.0
 10
148.005799
 20
257.878539
 30
0.0
 10
152.088753
 20
261.383254
 30
0.0
 10
153.408520
 20
265.505708
 30
0.0
  0
SPLINE
  5
10b
100
AcDbEntity
  8
Layer_1
 62
7
100
AcDbSpline
 70
8
 71
3
 72
8
 73
4
 74
0
 40
0
 40
0
 40
0
 40
0
 40
1
 40
1
 40
1
 40
1
 10
153.408520
 20
265.505708
 30
0.0
 10
154.170057
 20
268.574204
 30
0.0
 10
155.738246
 20
269.356988
 30
0.0
 10
158.327704
 20
267.301071
 30
0.0
  0
SPLINE
  5
10c
100
AcDbEntity
  8
Layer_1
 62
7
100
AcDbSpline
 70
8
 71
3
 72
8
 73
4
 74
0
 40
0
 40
0
 40
0
 40
0
 40
1
 40
1
 40
1
 40
1
 10
158.327704
 20
267.301071
 30
0.0
 10
169.145539
 20
262.213608
 30
0.0
 10
179.980639
 20
257.162967
 30
0.0
 10
190.824638
 20
252.131556
 30
0.0
  0
SPLINE
  5
10d
100
AcDbEntity
  8
Layer_1
 62
7
100
AcDbSpline
 70
8
 71
3
 72
8
 73
4
 74
0
 40
0
 40
0
 40
0
 40
0
 40
1
 40
1
 40
1
 40
1
 10
190.824638
 20
252.131556
 30
0.0
 10
183.761675
 20
236.956865
 30
0.0
 10
176.434034
 20
221.883053
 30
0.0
 10
169.808608
 20
206.517771
 30
0.0
  0
SPLINE
  5
10e
100
AcDbEntity
  8
Layer_1
 62
7
100
AcDbSpline
 70
8
 71
3
 72
8
 73
4
 74
0
 40
0
 40
0
 40
0
 40
0
 40
1
 40
1
 40
1
 40
1
 10
169.808608
 20
206.517771
 30
0.0
 10
168.715879
 20
202.245644
 30
0.0
 10
171.641073
 20
198.127805
 30
0.0
 10
175.649263
 20
196.779706
 30
0.0
  0
SPLINE
  5
10f
100
AcDbEntity
  8
Layer_1
 62
7
100
AcDbSpline
 70
8
 71
3
 72
8
 73
4
 74
0
 40
0
 40
0
 40
0
 40
0
 40
1
 40
1
 40
1
 40
1
 10
175.649263
 20
196.779706
 30
0.0
 10
191.169986
 20
189.176823
 30
0.0
 10
207.036640
 20
182.258163
 30
0.0
 10
222.552503
 20
174.674036
 30
0.0
  0
SPLINE
  5
110
100
AcDbEntity
  8
Layer_1
 62
7
100
AcDbSpline
 70
8
 71
3
 72
8
 73
4
 74
0
 40
0
 40
0
 40
0
 40
0
 40
1
 40
1
 40
1
 40
1
 10
222.552503
 20
174.674036
 30
0.0
 10
237.278714
 20
164.417628
 30
0.0
 10
252.121917
 20
154.108740
 30
0.0
 10
266.761511
 20
143.644044
 30
0.0
  0
SPLINE
  5
111
100
AcDbEntity
  8
Layer_1
 62
7
100
AcDbSpline
 70
8
 71
3
 72
8
 73
4
 74
0
 40
0
 40
0
 40
0
 40
0
 40
1
 40
1
 40
1
 40
1
 10
266.761511
 20
143.644044
 30
0.0
 10
279.326210
 20
131.147364
 30
0.0
 10
291.751855
 20
118.482276
 30
0.0
 10
304.402903
 20
106.090212
 30
0.0
  0
SPLINE
  5
112
100
AcDbEntity
  8
Layer_1
 62
7
100
AcDbSpline
 70
8
 71
3
 72
8
 73
4
 74
0
 40
0
 40
0
 40
0
 40
0
 40
1
 40
1
 40
1
 40
1
 10
304.402903
 20
106.090212
 30
0.0
 10
308.576059
 20
102.767844
 30
0.0
 10
314.282275
 20
104.610828
 30
0.0
 10
319.188088
 20
104.130804
 30
0.0
  0
SPLINE
  5
113
100
AcDbEntity
  8
Layer_1
 62
7
100
AcDbSpline
 70
8
 71
3
 72
8
 73
4
 74
0
 40
0
 40
0
 40
0
 40
0
 40
1
 40
1
 40
1
 40
1
 10
319.188088
 20
104.130804
 30
0.0
 10
372.491783
 20
104.185164
 30
0.0
 10
425.816351
 20
104.022228
 30
0.0
 10
479.107029
 20
104.212236
 30
0.0
  0
SPLINE
  5
114
100
AcDbEntity
  8
Layer_1
 62
7
100
AcDbSpline
 70
8
 71
3
 72
8
 73
4
 74
0
 40
0
 40
0
 40
0
 40
0
 40
1
 40
1
 40
1
 40
1
 10
479.107029
 20
104.212236
 30
0.0
 10
484.408108
 20
104.815884
 30
0.0
 10
487.136303
 20
110.157636
 30
0.0
 10
490.942648
 20
113.290428
 30
0.0
  0
SPLINE
  5
115
100
AcDbEntity
  8
Layer_1
 62
7
100
AcDbSpline
 70
8
 71
3
 72
8
 73
4
 74
0
 40
0
 40
0
 40
0
 40
0
 40
1
 40
1
 40
1
 40
1
 10
490.942648
 20
113.290428
 30
0.0
 10
501.559711
 20
123.782052
 30
0.0
 10
511.917998
 20
134.581980
 30
0.0
 10
522.696038
 20
144.881868
 30
0.0
  0
SPLINE
  5
116
100
AcDbEntity
  8
Layer_1
 62
7
100
AcDbSpline
 70
8
 71
3
 72
8
 73
4
 74
0
 40
0
 40
0
 40
0
 40
0
 40
1
 40
1
 40
1
 40
1
 10
522.696038
 20
144.881868
 30
0.0
 10
537.351141
 20
155.014284
 30
0.0
 10
551.806358
 20
165.493020
 30
0.0
 10
566.584732
 20
175.411496
 30
0.0
  0
SPLINE
  5
117
100
AcDbEntity
  8
Layer_1
 62
7
100
AcDbSpline
 70
8
 71
3
 72
8
 73
4
 74
0
 40
0
 40
0
 40
0
 40
0
 40
1
 40
1
 40
1
 40
1
 10
566.584732
 20
175.411496
 30
0.0
 10
582.498093
 20
182.878572
 30
0.0
 10
598.509827
 20
190.144395
 30
0.0
 10
614.326939
 20
197.811891
 30
0.0
  0
SPLINE
  5
118
100
AcDbEntity
  8
Layer_1
 62
7
100
AcDbSpline
 70
8
 71
3
 72
8
 73
4
 74
0
 40
0
 40
0
 40
0
 40
0
 40
1
 40
1
 40
1
 40
1
 10
614.326939
 20
197.811891
 30
0.0
 10
618.136588
 20
200.033069
 30
0.0
 10
619.120850
 20
205.136408
 30
0.0
 10
616.946961
 20
208.848576
 30
0.0
  0
SPLINE
  5
119
100
AcDbEntity
  8
Layer_1
 62
7
100
AcDbSpline
 70
8
 71
3
 72
8
 73
4
 74
0
 40
0
 40
0
 40
0
 40
0
 40
1
 40
1
 40
1
 40
1
 10
616.946961
 20
208.848576
 30
0.0
 10
610.540682
 20
223.368492
 30
0.0
 10
603.853120
 20
237.764129
 30
0.0
 10
597.062980
 20
252.108171
 30
0.0
  0
SPLINE
  5
11a
100
AcDbEntity
  8
Layer_1
 62
7
100
AcDbSpline
 70
8
 71
3
 72
8
 73
4
 74
0
 40
0
 40
0
 40
0
 40
0
 40
1
 40
1
 40
1
 40
1
 10
597.062980
 20
252.108171
 30
0.0
 10
608.892962
 20
257.734827
 30
0.0
 10
620.901071
 20
263.217951
 30
0.0
 10
632.765008
 20
268.928674
 30
0.0
  0
SPLINE
  5
11b
100
AcDbEntity
  8
Layer_1
 62
7
100
AcDbSpline
 70
8
 71
3
 72
8
 73
4
 74
0
 40
0
 40
0
 40
0
 40
0
 40
1
 40
1
 40
1
 40
1
 10
632.765008
 20
268.928674
 30
0.0
 10
634.751020
 20
264.826618
 30
0.0
 10
636.438981
 20
258.882824
 30
0.0
 10
641.933459
 20
258.711089
 30
0.0
  0
SPLINE
  5
11c
100
AcDbEntity
  8
Layer_1
 62
7
100
AcDbSpline
 70
8
 71
3
 72
8
 73
4
 74
0
 40
0
 40
0
 40
0
 40
0
 40
1
 40
1
 40
1
 40
1
 10
641.933459
 20
258.711089
 30
0.0
 10
646.653650
 20
258.748810
 30
0.0
 10
650.657411
 20
262.004276
 30
0.0
 10
654.996981
 20
263.588693
 30
0.0
  0
SPLINE
  5
11d
100
AcDbEntity
  8
Layer_1
 62
7
100
AcDbSpline
 70
8
 71
3
 72
8
 73
4
 74
0
 40
0
 40
0
 40
0
 40
0
 40
1
 40
1
 40
1
 40
1
 10
654.996981
 20
263.588693
 30
0.0
 10
668.043021
 20
269.654988
 30
0.0
 10
681.138352
 20
275.622975
 30
0.0
 10
694.096127
 20
281.874339
 30
0.0
  0
SPLINE
  5
11e
100
AcDbEntity
  8
Layer_1
 62
7
100
AcDbSpline
 70
8
 71
3
 72
8
 73
4
 74
0
 40
0
 40
0
 40
0
 40
0
 40
1
 40
1
 40
1
 40
1
 10
694.096127
 20
281.874339
 30
0.0
 10
698.137300
 20
284.164911
 30
0.0
 10
698.900680
 20
289.551310
 30
0.0
 10
696.615631
 20
293.356906
 30
0.0
  0
SPLINE
  5
11f
100
AcDbEntity
  8
Layer_1
 62
7
100
AcDbSpline
 70
8
 71
3
 72
8
 73
4
 74
0
 40
0
 40
0
 40
0
 40
0
 40
1
 40
1
 40
1
 40
1
 10
696.615631
 20
293.356906
 30
0.0
 10
695.414332
 20
296.130843
 30
0.0
 10
694.104091
 20
298.855568
 30
0.0
 10
692.830958
 20
301.596802
 30
0.0
  0
SPLINE
  5
120
100
AcDbEntity
  8
Layer_1
 62
7
100
AcDbSpline
 70
8
 71
3
 72
8
 73
4
 74
0
 40
0
 40
0
 40
0
 40
0
 40
1
 40
1
 40
1
 40
1
 10
692.830958
 20
301.596802
 30
0.0
 10
707.016765
 20
308.225820
 30
0.0
 10
721.397843
 20
314.529140
 30
0.0
 10
735.405055
 20
321.487328
 30
0.0
  0
SPLINE
  5
121
100
AcDbEntity
  8
Layer_1
 62
7
100
AcDbSpline
 70
8
 71
3
 72
8
 73
4
 74
0
 40
0
 40
0
 40
0
 40
0
 40
1
 40
1
 40
1
 40
1
 10
735.405055
 20
321.487328
 30
0.0
 10
739.613620
 20
323.942153
 30
0.0
 10
739.719482
 20
329.606213
 30
0.0
 10
737.277976
 20
333.372216
 30
0.0
  0
SPLINE
  5
122
100
AcDbEntity
  8
Layer_1
 62
7
100
AcDbSpline
 70
8
 71
3
 72
8
 73
4
 74
0
 40
0
 40
0
 40
0
 40
0
 40
1
 40
1
 40
1
 40
1
 10
737.277976
 20
333.372216
 30
0.0
 10
715.148618
 20
381.253786
 30
0.0
 10
692.925875
 20
429.094424
 30
0.0
 10
670.398631
 20
476.789945
 30
0.0
  0
SPLINE
  5
123
100
AcDbEntity
  8
Layer_1
 62
7
100
AcDbSpline
 70
8
 71
3
 72
8
 73
4
 74
0
 40
0
 40
0
 40
0
 40
0
 40
1
 40
1
 40
1
 40
1
 10
670.398631
 20
476.789945
 30
0.0
 10
668.296735
 20
480.983088
 30
0.0
 10
662.727095
 20
482.100111
 30
0.0
 10
658.870804
 20
479.664358
 30
0.0
  0
SPLINE
  5
124
100
AcDbEntity
  8
Layer_1
 62
7
100
AcDbSpline
 70
8
 71
3
 72
8
 73
4
 74
0
 40
0
 40
0
 40
0
 40
0
 40
1
 40
1
 40
1
 40
1
 10
658.870804
 20
479.664358
 30
0.0
 10
645.354532
 20
473.563258
 30
0.0
 10
631.912219
 20
467.298924
 30
0.0
 10
618.484881
 20
461.004958
 30
0.0
  0
SPLINE
  5
125
100
AcDbEntity
  8
Layer_1
 62
7
100
AcDbSpline
 70
8
 71
3
 72
8
 73
4
 74
0
 40
0
 40
0
 40
0
 40
0
 40
1
 40
1
 40
1
 40
1
 10
618.484881
 20
461.004958
 30
0.0
 10
614.134706
 20
469.828550
 30
0.0
 10
610.559625
 20
479.103406
 30
0.0
 10
605.387239
 20
487.485855
 30
0.0
  0
SPLINE
  5
126
100
AcDbEntity
  8
Layer_1
 62
7
100
AcDbSpline
 70
8
 71
3
 72
8
 73
4
 74
0
 40
0
 40
0
 40
0
 40
0
 40
1
 40
1
 40
1
 40
1
 10
605.387239
 20
487.485855
 30
0.0
 10
602.622107
 20
491.029227
 30
0.0
 10
597.499869
 20
490.824495
 30
0.0
 10
593.950571
 20
488.644968
 30
0.0
  0
SPLINE
  5
127
100
AcDbEntity
  8
Layer_1
 62
7
100
AcDbSpline
 70
8
 71
3
 72
8
 73
4
 74
0
 40
0
 40
0
 40
0
 40
0
 40
1
 40
1
 40
1
 40
1
 10
593.950571
 20
488.644968
 30
0.0
 10
580.810643
 20
482.621902
 30
0.0
 10
567.741988
 20
476.443992
 30
0.0
 10
554.696899
 20
470.218567
 30
0.0
  0
SPLINE
  5
128
100
AcDbEntity
  8
Layer_1
 62
7
100
AcDbSpline
 70
8
 71
3
 72
8
 73
4
 74
0
 40
0
 40
0
 40
0
 40
0
 40
1
 40
1
 40
1
 40
1
 10
554.696899
 20
470.218567
 30
0.0
 10
552.615753
 20
474.506278
 30
0.0
 10
550.288231
 20
480.408860
 30
0.0
 10
544.611909
 20
480.410393
 30
0.0
  0
SPLINE
  5
129
100
AcDbEntity
  8
Layer_1
 62
7
100
AcDbSpline
 70
8
 71
3
 72
8
 73
4
 74
0
 40
0
 40
0
 40
0
 40
0
 40
1
 40
1
 40
1
 40
1
 10
544.611909
 20
480.410393
 30
0.0
 10
539.878499
 20
480.057600
 30
0.0
 10
535.908434
 20
476.860844
 30
0.0
 10
531.535643
 20
475.211439
 30
0.0
  0
SPLINE
  5
12a
100
AcDbEntity
  8
Layer_1
 62
7
100
AcDbSpline
 70
8
 71
3
 72
8
 73
4
 74
0
 40
0
 40
0
 40
0
 40
0
 40
1
 40
1
 40
1
 40
1
 10
531.535643
 20
475.211439
 30
0.0
 10
518.851209
 20
469.226767
 30
0.0
 10
506.062569
 20
463.453274
 30
0.0
 10
493.472663
 20
457.273752
 30
0.0
  0
SPLINE
  5
12b
100
AcDbEntity
  8
Layer_1
 62
7
100
AcDbSpline
 70
8
 71
3
 72
8
 73
4
 74
0
 40
0
 40
0
 40
0
 40
0
 40
1
 40
1
 40
1
 40
1
 10
493.472663
 20
457.273752
 30
0.0
 10
489.502943
 20
454.933277
 30
0.0
 10
488.805911
 20
449.584174
 30
0.0
 10
491.079261
 20
445.809552
 30
0.0
  0
SPLINE
  5
12c
100
AcDbEntity
  8
Layer_1
 62
7
100
AcDbSpline
 70
8
 71
3
 72
8
 73
4
 74
0
 40
0
 40
0
 40
0
 40
0
 40
1
 40
1
 40
1
 40
1
 10
491.079261
 20
445.809552
 30
0.0
 10
491.247381
 20
444.151414
 30
0.0
 10
494.419730
 20
441.390761
 30
0.0
 10
491.613717
 20
440.880814
 30
0.0
  0
SPLINE
  5
12d
100
AcDbEntity
  8
Layer_1
 62
7
100
AcDbSpline
 70
8
 71
3
 72
8
 73
4
 74
0
 40
0
 40
0
 40
0
 40
0
 40
1
 40
1
 40
1
 40
1
 10
491.613717
 20
440.880814
 30
0.0
 10
477.831002
 20
434.460660
 30
0.0
 10
463.915648
 20
428.291336
 30
0.0
 10
450.310708
 20
421.509087
 30
0.0
  0
SPLINE
  5
12e
100
AcDbEntity
  8
Layer_1
 62
7
100
AcDbSpline
 70
8
 71
3
 72
8
 73
4
 74
0
 40
0
 40
0
 40
0
 40
0
 40
1
 40
1
 40
1
 40
1
 10
450.310708
 20
421.509087
 30
0.0
 10
447.493327
 20
419.513268
 30
0.0
 10
446.168224
 20
415.714800
 30
0.0
 10
447.407913
 20
412.446627
 30
0.0
  0
SPLINE
  5
12f
100
AcDbEntity
  8
Layer_1
 62
7
100
AcDbSpline
 70
8
 71
3
 72
8
 73
4
 74
0
 40
0
 40
0
 40
0
 40
0
 40
1
 40
1
 40
1
 40
1
 10
447.407913
 20
412.446627
 30
0.0
 10
433.576526
 20
406.089560
 30
0.0
 10
419.795186
 20
399.624528
 30
0.0
 10
405.993830
 20
393.202668
 30
0.0
  0
SPLINE
  5
130
100
AcDbEntity
  8
Layer_1
 62
7
100
AcDbSpline
 70
8
 71
3
 72
8
 73
4
 74
0
 40
0
 40
0
 40
0
 40
0
 40
1
 40
1
 40
1
 40
1
 10
405.993830
 20
393.202668
 30
0.0
 10
397.817755
 20
393.325940
 30
0.0
 10
389.532988
 20
392.959431
 30
0.0
 10
381.423693
 20
393.383554
 30
0.0
  0
SPLINE
  5
131
100
AcDbEntity
  8
Layer_1
 62
7
100
AcDbSpline
 70
8
 71
3
 72
8
 73
4
 74
0
 40
0
 40
0
 40
0
 40
0
 40
1
 40
1
 40
1
 40
1
 10
381.423693
 20
393.383554
 30
0.0
 10
367.854206
 20
399.702792
 30
0.0
 10
354.315412
 20
406.088516
 30
0.0
 10
340.704338
 20
412.318020
 30
0.0
  0
SPLINE
  5
132
100
AcDbEntity
  8
Layer_1
 62
7
100
AcDbSpline
 70
8
 71
3
 72
8
 73
4
 74
0
 40
0
 40
0
 40
0
 40
0
 40
1
 40
1
 40
1
 40
1
 10
340.704338
 20
412.318020
 30
0.0
 10
342.105487
 20
416.802339
 30
0.0
 10
338.809679
 20
421.058072
 30
0.0
 10
334.787997
 20
422.700932
 30
0.0
  0
SPLINE
  5
133
100
AcDbEntity
  8
Layer_1
 62
7
100
AcDbSpline
 70
8
 71
3
 72
8
 73
4
 74
0
 40
0
 40
0
 40
0
 40
0
 40
1
 40
1
 40
1
 40
1
 10
334.787997
 20
422.700932
 30
0.0
 10
321.659920
 20
429.270708
 30
0.0
 10
308.282255
 20
435.337433
 30
0.0
 10
294.911006
 20
441.394397
 30
0.0
  0
SPLINE
  5
134
100
AcDbEntity
  8
Layer_1
 62
7
100
AcDbSpline
 70
8
 71
3
 72
8
 73
4
 74
0
 40
0
 40
0
 40
0
 40
0
 40
1
 40
1
 40
1
 40
1
 10
294.911006
 20
441.394397
 30
0.0
 10
296.781487
 20
445.558416
 30
0.0
 10
299.995063
 20
450.613248
 30
0.0
 10
296.873999
 20
455.001000
 30
0.0
  0
SPLINE
  5
135
100
AcDbEntity
  8
Layer_1
 62
7
100
AcDbSpline
 70
8
 71
3
 72
8
 73
4
 74
0
 40
0
 40
0
 40
0
 40
0
 40
1
 40
1
 40
1
 40
1
 10
296.873999
 20
455.001000
 30
0.0
 10
293.759193
 20
458.851366
 30
0.0
 10
288.491709
 20
459.779791
 30
0.0
 10
284.335041
 20
462.168586
 30
0.0
  0
SPLINE
  5
136
100
AcDbEntity
  8
Layer_1
 62
7
100
AcDbSpline
 70
8
 71
3
 72
8
 73
4
 74
0
 40
0
 40
0
 40
0
 40
0
 40
1
 40
1
 40
1
 40
1
 10
284.335041
 20
462.168586
 30
0.0
 10
271.442563
 20
468.129818
 30
0.0
 10
258.602565
 20
474.215067
 30
0.0
 10
245.615284
 20
479.964980
 30
0.0
  0
SPLINE
  5
137
100
AcDbEntity
  8
Layer_1
 62
7
100
AcDbSpline
 70
8
 71
3
 72
8
 73
4
 74
0
 40
0
 40
0
 40
0
 40
0
 40
1
 40
1
 40
1
 40
1
 10
245.615284
 20
479.964980
 30
0.0
 10
241.235143
 20
481.517048
 30
0.0
 10
236.704816
 20
478.586511
 30
0.0
 10
235.268438
 20
474.391553
 30
0.0
  0
SPLINE
  5
138
100
AcDbEntity
  8
Layer_1
 62
7
100
AcDbSpline
 70
8
 71
3
 72
8
 73
4
 74
0
 40
0
 40
0
 40
0
 40
0
 40
1
 40
1
 40
1
 40
1
 10
235.268438
 20
474.391553
 30
0.0
 10
234.129693
 20
472.931789
 30
0.0
 10
233.899667
 20
468.992126
 30
0.0
 10
231.510513
 20
471.145524
 30
0.0
  0
SPLINE
  5
139
100
AcDbEntity
  8
Layer_1
 62
7
100
AcDbSpline
 70
8
 71
3
 72
8
 73
4
 74
0
 40
0
 40
0
 40
0
 40
0
 40
1
 40
1
 40
1
 40
1
 10
231.510513
 20
471.145524
 30
0.0
 10
217.745344
 20
477.460618
 30
0.0
 10
204.101272
 20
484.130561
 30
0.0
 10
190.215395
 20
490.128672
 30
0.0
  0
SPLINE
  5
13a
100
AcDbEntity
  8
Layer_1
 62
7
100
AcDbSpline
 70
8
 71
3
 72
8
 73
4
 74
0
 40
0
 40
0
 40
0
 40
0
 40
1
 40
1
 40
1
 40
1
 10
190.215395
 20
490.128672
 30
0.0
 10
188.450690
 20
490.702908
 30
0.0
 10
186.786532
 20
490.481069
 30
0.0
 10
185.029905
 20
489.996992
 30
0.0
  0
LWPOLYLINE
  5
13b
100
AcDbEntity
  8
Layer_1
 62
7
100
AcDbPolyline
 90
1
 70
1
 10
185.029905
 20
489.996992
 30
0.0
  0
ENDSEC
  0
SECTION
  2
OBJECTS
  0
DICTIONARY
  5
C
330
0
100
AcDbDictionary
  3
ACAD_GROUP
350
D
  3
ACAD_MLINESTYLE
350
17
  0
DICTIONARY
  5
D
330
C
100
AcDbDictionary
  0
DICTIONARY
  5
1A
330
C
100
AcDbDictionary
  0
DICTIONARY
  5
17
330
C
100
AcDbDictionary
  3
STANDARD
350
18
  0
DICTIONARY
  5
19
330
C
100
AcDbDictionary
  0
ENDSEC
  0
EOF
