%TF.GenerationSoftware,KiCad,Pcbnew,(5.1.10)-1*%
%TF.CreationDate,2021-08-07T23:48:32-07:00*%
%TF.ProjectId,barobord,6261726f-626f-4726-942e-6b696361645f,rev?*%
%TF.SameCoordinates,Original*%
%TF.FileFunction,Soldermask,Top*%
%TF.FilePolarity,Negative*%
%FSLAX46Y46*%
G04 Gerber Fmt 4.6, Leading zero omitted, Abs format (unit mm)*
G04 Created by KiCad (PCBNEW (5.1.10)-1) date 2021-08-07 23:48:32*
%MOMM*%
%LPD*%
G01*
G04 APERTURE LIST*
%ADD10C,4.400000*%
%ADD11C,1.701800*%
%ADD12C,3.000000*%
%ADD13C,3.429000*%
%ADD14C,0.990600*%
%ADD15R,2.000000X2.000000*%
%ADD16C,2.000000*%
%ADD17O,1.600000X2.000000*%
%ADD18O,3.800000X3.300000*%
%ADD19C,0.650000*%
%ADD20O,1.000000X2.100000*%
%ADD21O,1.000000X1.600000*%
G04 APERTURE END LIST*
D10*
%TO.C,REF\u002A\u002A*%
X167452593Y-151458404D03*
%TD*%
%TO.C,REF\u002A\u002A*%
X123052593Y-151858404D03*
%TD*%
%TO.C,REF\u002A\u002A*%
X178452593Y-70058404D03*
%TD*%
%TO.C,REF\u002A\u002A*%
X198852593Y-116858404D03*
%TD*%
%TO.C,REF\u002A\u002A*%
X240652593Y-67258404D03*
%TD*%
%TO.C,REF\u002A\u002A*%
X224652593Y-32658404D03*
%TD*%
%TO.C,REF\u002A\u002A*%
X93452593Y-116058404D03*
%TD*%
%TO.C,REF\u002A\u002A*%
X113652593Y-69458404D03*
%TD*%
%TO.C,REF\u002A\u002A*%
X48652593Y-74058404D03*
%TD*%
%TO.C,REF\u002A\u002A*%
X65452593Y-38858404D03*
%TD*%
D11*
%TO.C,SW40*%
X233075943Y-87930549D03*
X243045329Y-83281749D03*
D12*
X235113916Y-91117895D03*
D13*
X238060636Y-85606149D03*
D12*
X240575215Y-90998680D03*
D14*
X241016566Y-79593589D03*
%TD*%
D11*
%TO.C,SW39*%
X213743005Y-91428757D03*
X223712391Y-86779957D03*
D12*
X215780978Y-94616103D03*
D13*
X218727698Y-89104357D03*
D12*
X221242277Y-94496888D03*
D14*
X221683628Y-83091797D03*
%TD*%
D11*
%TO.C,SW38*%
X204975522Y-117584660D03*
X214944908Y-112935860D03*
D12*
X207013495Y-120772006D03*
D13*
X209960215Y-115260260D03*
D12*
X212474794Y-120652791D03*
D14*
X212916145Y-109247700D03*
%TD*%
D11*
%TO.C,SW37*%
X187268346Y-128914929D03*
X196279018Y-122605589D03*
D12*
X189828833Y-131699961D03*
D13*
X191773682Y-125760259D03*
D12*
X195186462Y-130634214D03*
D14*
X193640635Y-119325751D03*
%TD*%
D11*
%TO.C,SW36*%
X171797663Y-143147886D03*
X179575837Y-135369712D03*
D12*
X174802867Y-145445983D03*
D13*
X175686750Y-139258799D03*
D12*
X179894035Y-143466084D03*
D14*
X176407999Y-132597853D03*
%TD*%
D11*
%TO.C,SW35*%
X112124163Y-135369712D03*
X119902337Y-143147886D03*
D12*
X109826066Y-138374916D03*
D13*
X116013250Y-139258799D03*
D12*
X111805965Y-143466084D03*
D14*
X122674196Y-139980048D03*
%TD*%
D11*
%TO.C,SW34*%
X95420982Y-122605589D03*
X104431654Y-128914929D03*
D12*
X93679646Y-125964197D03*
D13*
X99926318Y-125760259D03*
D12*
X96513538Y-130634214D03*
D14*
X106611313Y-125313889D03*
%TD*%
D11*
%TO.C,SW33*%
X76755092Y-112935860D03*
X86724478Y-117584660D03*
D12*
X75623428Y-116545823D03*
D13*
X81739785Y-115260260D03*
D12*
X79225206Y-120652791D03*
D14*
X88245708Y-113659835D03*
%TD*%
D11*
%TO.C,SW32*%
X67987609Y-86779957D03*
X77956995Y-91428757D03*
D12*
X66855945Y-90389920D03*
D13*
X72972302Y-89104357D03*
D12*
X70457723Y-94496888D03*
D14*
X79478225Y-87503932D03*
%TD*%
D11*
%TO.C,SW31*%
X48654671Y-83281749D03*
X58624057Y-87930549D03*
D12*
X47523007Y-86891712D03*
D13*
X53639364Y-85606149D03*
D12*
X51124785Y-90998680D03*
D14*
X60145287Y-84005724D03*
%TD*%
D11*
%TO.C,SW30*%
X247548771Y-74009802D03*
X257518157Y-69361002D03*
D12*
X249586744Y-77197148D03*
D13*
X252533464Y-71685402D03*
D12*
X255048043Y-77077933D03*
D14*
X255489394Y-65672842D03*
%TD*%
D11*
%TO.C,SW29*%
X225046196Y-70710702D03*
X235015582Y-66061902D03*
D12*
X227084169Y-73898048D03*
D13*
X230030889Y-68386302D03*
D12*
X232545468Y-73778833D03*
D14*
X232986819Y-62373742D03*
%TD*%
D11*
%TO.C,SW28*%
X205713258Y-74208910D03*
X215682644Y-69560110D03*
D12*
X207751231Y-77396256D03*
D13*
X210697951Y-71884510D03*
D12*
X213212530Y-77277041D03*
D14*
X213653881Y-65871950D03*
%TD*%
D11*
%TO.C,SW27*%
X190606502Y-86770196D03*
X200575888Y-82121396D03*
D12*
X192644475Y-89957542D03*
D13*
X195591195Y-84445796D03*
D12*
X198105774Y-89838327D03*
D14*
X198547125Y-78433236D03*
%TD*%
D11*
%TO.C,SW26*%
X174443200Y-97065712D03*
X184412586Y-92416912D03*
D12*
X176481173Y-100253058D03*
D13*
X179427893Y-94741312D03*
D12*
X181942472Y-100133843D03*
D14*
X182383823Y-88728752D03*
%TD*%
D11*
%TO.C,SW25*%
X107287414Y-92416912D03*
X117256800Y-97065712D03*
D12*
X106155750Y-96026875D03*
D13*
X112272107Y-94741312D03*
D12*
X109757528Y-100133843D03*
D14*
X118778030Y-93140887D03*
%TD*%
D11*
%TO.C,SW24*%
X91124112Y-82121396D03*
X101093498Y-86770196D03*
D12*
X89992448Y-85731359D03*
D13*
X96108805Y-84445796D03*
D12*
X93594226Y-89838327D03*
D14*
X102614728Y-82845371D03*
%TD*%
D11*
%TO.C,SW23*%
X76017356Y-69560110D03*
X85986742Y-74208910D03*
D12*
X74885692Y-73170073D03*
D13*
X81002049Y-71884510D03*
D12*
X78487470Y-77277041D03*
D14*
X87507972Y-70284085D03*
%TD*%
D11*
%TO.C,SW22*%
X56684418Y-66061902D03*
X66653804Y-70710702D03*
D12*
X55552754Y-69671865D03*
D13*
X61669111Y-68386302D03*
D12*
X59154532Y-73778833D03*
D14*
X68175034Y-66785877D03*
%TD*%
D11*
%TO.C,SW21*%
X34181843Y-69361002D03*
X44151229Y-74009802D03*
D12*
X33050179Y-72970965D03*
D13*
X39166536Y-71685402D03*
D12*
X36651957Y-77077933D03*
D14*
X45672459Y-70084977D03*
%TD*%
D11*
%TO.C,SW20*%
X239519024Y-56789955D03*
X249488410Y-52141155D03*
D12*
X241556997Y-59977301D03*
D13*
X244503717Y-54465555D03*
D12*
X247018296Y-59858086D03*
D14*
X247459647Y-48452995D03*
%TD*%
D11*
%TO.C,SW19*%
X217016449Y-53490855D03*
X226985835Y-48842055D03*
D12*
X219054422Y-56678201D03*
D13*
X222001142Y-51166455D03*
D12*
X224515721Y-56558986D03*
D14*
X224957072Y-45153895D03*
%TD*%
D11*
%TO.C,SW18*%
X197683511Y-56989063D03*
X207652897Y-52340263D03*
D12*
X199721484Y-60176409D03*
D13*
X202668204Y-54664663D03*
D12*
X205182783Y-60057194D03*
D14*
X205624134Y-48652103D03*
%TD*%
D11*
%TO.C,SW17*%
X182576755Y-69550348D03*
X192546141Y-64901548D03*
D12*
X184614728Y-72737694D03*
D13*
X187561448Y-67225948D03*
D12*
X190076027Y-72618479D03*
D14*
X190517378Y-61213388D03*
%TD*%
D11*
%TO.C,SW16*%
X166413454Y-79845865D03*
X176382840Y-75197065D03*
D12*
X168451427Y-83033211D03*
D13*
X171398147Y-77521465D03*
D12*
X173912726Y-82913996D03*
D14*
X174354077Y-71508905D03*
%TD*%
D11*
%TO.C,SW15*%
X115317160Y-75197065D03*
X125286546Y-79845865D03*
D12*
X114185496Y-78807028D03*
D13*
X120301853Y-77521465D03*
D12*
X117787274Y-82913996D03*
D14*
X126807776Y-75921040D03*
%TD*%
D11*
%TO.C,SW14*%
X99153859Y-64901548D03*
X109123245Y-69550348D03*
D12*
X98022195Y-68511511D03*
D13*
X104138552Y-67225948D03*
D12*
X101623973Y-72618479D03*
D14*
X110644475Y-65625523D03*
%TD*%
D11*
%TO.C,SW13*%
X84047103Y-52340263D03*
X94016489Y-56989063D03*
D12*
X82915439Y-55950226D03*
D13*
X89031796Y-54664663D03*
D12*
X86517217Y-60057194D03*
D14*
X95537719Y-53064238D03*
%TD*%
D11*
%TO.C,SW12*%
X64714165Y-48842055D03*
X74683551Y-53490855D03*
D12*
X63582501Y-52452018D03*
D13*
X69698858Y-51166455D03*
D12*
X67184279Y-56558986D03*
D14*
X76204781Y-49566030D03*
%TD*%
D11*
%TO.C,SW11*%
X42211590Y-52141155D03*
X52180976Y-56789955D03*
D12*
X41079926Y-55751118D03*
D13*
X47196283Y-54465555D03*
D12*
X44681704Y-59858086D03*
D14*
X53702206Y-52865130D03*
%TD*%
D11*
%TO.C,SW10*%
X231489277Y-39570108D03*
X241458663Y-34921308D03*
D12*
X233527250Y-42757454D03*
D13*
X236473970Y-37245708D03*
D12*
X238988549Y-42638239D03*
D14*
X239429900Y-31233148D03*
%TD*%
D11*
%TO.C,SW9*%
X208986702Y-36271008D03*
X218956088Y-31622208D03*
D12*
X211024675Y-39458354D03*
D13*
X213971395Y-33946608D03*
D12*
X216485974Y-39339139D03*
D14*
X216927325Y-27934048D03*
%TD*%
D11*
%TO.C,SW8*%
X189653764Y-39769216D03*
X199623150Y-35120416D03*
D12*
X191691737Y-42956562D03*
D13*
X194638457Y-37444816D03*
D12*
X197153036Y-42837347D03*
D14*
X197594387Y-31432256D03*
%TD*%
D11*
%TO.C,SW7*%
X174547008Y-52330501D03*
X184516394Y-47681701D03*
D12*
X176584981Y-55517847D03*
D13*
X179531701Y-50006101D03*
D12*
X182046280Y-55398632D03*
D14*
X182487631Y-43993541D03*
%TD*%
%TO.C,SW6*%
X166324330Y-54289058D03*
D12*
X165882979Y-65694149D03*
D13*
X163368400Y-60301618D03*
D12*
X160421680Y-65813364D03*
D11*
X168353093Y-57977218D03*
X158383707Y-62626018D03*
%TD*%
%TO.C,SW5*%
X123346907Y-57977218D03*
X133316293Y-62626018D03*
D12*
X122215243Y-61587181D03*
D13*
X128331600Y-60301618D03*
D12*
X125817021Y-65694149D03*
D14*
X134837523Y-58701193D03*
%TD*%
D11*
%TO.C,SW4*%
X107183606Y-47681701D03*
X117152992Y-52330501D03*
D12*
X106051942Y-51291664D03*
D13*
X112168299Y-50006101D03*
D12*
X109653720Y-55398632D03*
D14*
X118674222Y-48405676D03*
%TD*%
D11*
%TO.C,SW3*%
X92076850Y-35120416D03*
X102046236Y-39769216D03*
D12*
X90945186Y-38730379D03*
D13*
X97061543Y-37444816D03*
D12*
X94546964Y-42837347D03*
D14*
X103567466Y-35844391D03*
%TD*%
D11*
%TO.C,SW2*%
X72743912Y-31622208D03*
X82713298Y-36271008D03*
D12*
X71612248Y-35232171D03*
D13*
X77728605Y-33946608D03*
D12*
X75214026Y-39339139D03*
D14*
X84234528Y-32346183D03*
%TD*%
D11*
%TO.C,SW1*%
X50241337Y-34921308D03*
X60210723Y-39570108D03*
D12*
X49109673Y-38531271D03*
D13*
X55226030Y-37245708D03*
D12*
X52711451Y-42638239D03*
D14*
X61731953Y-35645283D03*
%TD*%
D15*
%TO.C,SW43*%
X150352593Y-115558404D03*
D16*
X150352593Y-118058404D03*
X150352593Y-120558404D03*
X164852593Y-115558404D03*
X164852593Y-120558404D03*
%TD*%
D15*
%TO.C,SW42*%
X141352593Y-120558404D03*
D16*
X141352593Y-118058404D03*
X141352593Y-115558404D03*
X126852593Y-120558404D03*
X126852593Y-115558404D03*
%TD*%
D17*
%TO.C,Brd1*%
X147332593Y-152258404D03*
X149872593Y-152258404D03*
X144792593Y-152258404D03*
X142252593Y-152258404D03*
%TD*%
D18*
%TO.C,J1*%
X140352593Y-128658404D03*
X151352593Y-128658404D03*
X151352593Y-148258404D03*
X140352593Y-148258404D03*
G36*
G01*
X133128593Y-132953404D02*
X133128593Y-133803404D01*
G75*
G02*
X132703593Y-134228404I-425000J0D01*
G01*
X131353593Y-134228404D01*
G75*
G02*
X130928593Y-133803404I0J425000D01*
G01*
X130928593Y-132953404D01*
G75*
G02*
X131353593Y-132528404I425000J0D01*
G01*
X132703593Y-132528404D01*
G75*
G02*
X133128593Y-132953404I0J-425000D01*
G01*
G37*
G36*
G01*
X132703593Y-136768404D02*
X131353593Y-136768404D01*
G75*
G02*
X130928593Y-136343404I0J425000D01*
G01*
X130928593Y-135493404D01*
G75*
G02*
X131353593Y-135068404I425000J0D01*
G01*
X132703593Y-135068404D01*
G75*
G02*
X133128593Y-135493404I0J-425000D01*
G01*
X133128593Y-136343404D01*
G75*
G02*
X132703593Y-136768404I-425000J0D01*
G01*
G37*
G36*
G01*
X132703593Y-139308404D02*
X131353593Y-139308404D01*
G75*
G02*
X130928593Y-138883404I0J425000D01*
G01*
X130928593Y-138033404D01*
G75*
G02*
X131353593Y-137608404I425000J0D01*
G01*
X132703593Y-137608404D01*
G75*
G02*
X133128593Y-138033404I0J-425000D01*
G01*
X133128593Y-138883404D01*
G75*
G02*
X132703593Y-139308404I-425000J0D01*
G01*
G37*
G36*
G01*
X132703593Y-141848404D02*
X131353593Y-141848404D01*
G75*
G02*
X130928593Y-141423404I0J425000D01*
G01*
X130928593Y-140573404D01*
G75*
G02*
X131353593Y-140148404I425000J0D01*
G01*
X132703593Y-140148404D01*
G75*
G02*
X133128593Y-140573404I0J-425000D01*
G01*
X133128593Y-141423404D01*
G75*
G02*
X132703593Y-141848404I-425000J0D01*
G01*
G37*
G36*
G01*
X132703593Y-144388404D02*
X131353593Y-144388404D01*
G75*
G02*
X130928593Y-143963404I0J425000D01*
G01*
X130928593Y-143113404D01*
G75*
G02*
X131353593Y-142688404I425000J0D01*
G01*
X132703593Y-142688404D01*
G75*
G02*
X133128593Y-143113404I0J-425000D01*
G01*
X133128593Y-143963404D01*
G75*
G02*
X132703593Y-144388404I-425000J0D01*
G01*
G37*
%TD*%
D19*
%TO.C,USB1*%
X148742593Y-58158404D03*
X142962593Y-58158404D03*
D20*
X141532593Y-58688404D03*
X150172593Y-58688404D03*
D21*
X141532593Y-54508404D03*
X150172593Y-54508404D03*
%TD*%
M02*
