%TF.GenerationSoftware,KiCad,Pcbnew,(5.1.10)-1*%
%TF.CreationDate,2021-08-07T23:48:32-07:00*%
%TF.ProjectId,barobord,6261726f-626f-4726-942e-6b696361645f,rev?*%
%TF.SameCoordinates,Original*%
%TF.FileFunction,Legend,Bot*%
%TF.FilePolarity,Positive*%
%FSLAX46Y46*%
G04 Gerber Fmt 4.6, Leading zero omitted, Abs format (unit mm)*
G04 Created by KiCad (PCBNEW (5.1.10)-1) date 2021-08-07 23:48:32*
%MOMM*%
%LPD*%
G01*
G04 APERTURE LIST*
%ADD10C,0.320000*%
%ADD11C,0.150000*%
%ADD12C,0.100000*%
%ADD13C,0.120000*%
G04 APERTURE END LIST*
D10*
X140457333Y-138750424D02*
X140248412Y-138736964D01*
X140540013Y-138754604D02*
X140488793Y-138754604D01*
X140693833Y-138777745D02*
X140540013Y-138754604D01*
X140488793Y-138754604D02*
X140457333Y-138750424D01*
X140248412Y-138736964D02*
X139989113Y-138731164D01*
X140934153Y-138848304D02*
X140891173Y-138832625D01*
X139738572Y-136199144D02*
X139858453Y-136199144D01*
X141999393Y-133251004D02*
X141678573Y-132753004D01*
X141964393Y-139704064D02*
X141795693Y-139472564D01*
X141017393Y-138879764D02*
X140934153Y-138848304D01*
X141256372Y-139003444D02*
X141017393Y-138879764D01*
X144263233Y-132260404D02*
X144317773Y-132381404D01*
X141543532Y-139211584D02*
X141256372Y-139003444D01*
X141795693Y-139472564D02*
X141543532Y-139211584D01*
X142012593Y-139786184D02*
X141964393Y-139704064D01*
X142434573Y-141029724D02*
X142329033Y-140471644D01*
X140582213Y-132354404D02*
X140395093Y-132354404D01*
X142434573Y-141216064D02*
X142434573Y-141029724D01*
X142106573Y-134082484D02*
X142106573Y-133948564D01*
X144177233Y-138758204D02*
X144286653Y-138918564D01*
X140395093Y-132354404D02*
X136761213Y-132354404D01*
X141143612Y-132454004D02*
X140582213Y-132354404D01*
X141605273Y-135399044D02*
X141883613Y-134968304D01*
X142387733Y-137371364D02*
X142594673Y-137468864D01*
X140582492Y-136128864D02*
X140633233Y-136113204D01*
X144317773Y-132381404D02*
X144509333Y-133016404D01*
X141321352Y-135693404D02*
X141605273Y-135399044D01*
X140218913Y-136181504D02*
X140531493Y-136140444D01*
X141160693Y-135820184D02*
X141215513Y-135777224D01*
X143349053Y-131018004D02*
X143446633Y-131104004D01*
X144591453Y-133831164D02*
X144591453Y-134099624D01*
X144796493Y-139961724D02*
X144966533Y-140867104D01*
X142709893Y-130537404D02*
X143251193Y-130928204D01*
X141832873Y-130123204D02*
X141965733Y-130174204D01*
X141215513Y-135777224D02*
X141321352Y-135693404D01*
X144286653Y-138918564D02*
X144399913Y-139078724D01*
X144453673Y-134905164D02*
X144040493Y-135853284D01*
X140893073Y-135993824D02*
X141160693Y-135820184D01*
X140633233Y-136113204D02*
X140893073Y-135993824D01*
X142106573Y-133948564D02*
X142106573Y-133774084D01*
X144208353Y-132139204D02*
X144263233Y-132260404D01*
X142644053Y-137223884D02*
X142387733Y-137371364D01*
X142594673Y-137468864D02*
X143483813Y-138050945D01*
X143251193Y-130928204D02*
X143349053Y-131018004D01*
X144591453Y-133627464D02*
X144591453Y-133831164D01*
X142098593Y-130224804D02*
X142709893Y-130537404D01*
X139858453Y-136199144D02*
X140218913Y-136181504D01*
X136761213Y-132354404D02*
X136761213Y-136199144D01*
X144966533Y-140867104D02*
X144966533Y-141169224D01*
X144399913Y-139078724D02*
X144796493Y-139961724D01*
X144591453Y-134099624D02*
X144453673Y-134905164D01*
X143483813Y-138050945D02*
X144177233Y-138758204D01*
X141133393Y-129945404D02*
X141832873Y-130123204D01*
X142050613Y-134484644D02*
X142106573Y-134082484D01*
X140456553Y-129869204D02*
X141133393Y-129945404D01*
X140531493Y-136140444D02*
X140582492Y-136128864D01*
X144040493Y-135853284D02*
X143351793Y-136675104D01*
X142329033Y-140471644D02*
X142082853Y-139895344D01*
X142082853Y-139895344D02*
X142012593Y-139786184D01*
X143446633Y-131104004D02*
X143870453Y-131586204D01*
X143870453Y-131586204D02*
X144208353Y-132139204D01*
X136761213Y-136199144D02*
X139738572Y-136199144D01*
X141678573Y-132753004D02*
X141143612Y-132454004D01*
X143351793Y-136675104D02*
X142644053Y-137223884D01*
X141965733Y-130174204D02*
X142098593Y-130224804D01*
X144509333Y-133016404D02*
X144591453Y-133627464D01*
X142106573Y-133774084D02*
X141999393Y-133251004D01*
X140891173Y-138832625D02*
X140693833Y-138777745D01*
X141883613Y-134968304D02*
X142050613Y-134484644D01*
X141379853Y-145482984D02*
X141278093Y-145498444D01*
X141959953Y-145353724D02*
X141485113Y-145463444D01*
X126120793Y-123732004D02*
X126160756Y-123431404D01*
X142364313Y-145228924D02*
X141959953Y-145353724D01*
X144747733Y-142540604D02*
X144298233Y-143517664D01*
X165808393Y-123732004D02*
X165808393Y-123832404D01*
X161839593Y-149629244D02*
X130089553Y-149629244D01*
X126993919Y-122185804D02*
X127331265Y-122003404D01*
X126700671Y-122427804D02*
X126993919Y-122185804D01*
X164224593Y-153557766D02*
X163923993Y-153598004D01*
X165652593Y-152387256D02*
X165470193Y-152724604D01*
X143876233Y-144117384D02*
X143520713Y-144498244D01*
X144298233Y-143517664D02*
X144239813Y-143607484D01*
X165767993Y-123431404D02*
X165808393Y-123732004D01*
X144966533Y-141169224D02*
X144966533Y-141485584D01*
X127704159Y-153557766D02*
X127331265Y-153442286D01*
X126160756Y-152014364D02*
X126120793Y-151713676D01*
X126993919Y-153259834D02*
X126700671Y-153017850D01*
X164934793Y-153259834D02*
X164597593Y-153442286D01*
X144966533Y-141485584D02*
X144810333Y-142329784D01*
X165808393Y-151613628D02*
X165808393Y-151713676D01*
X130089553Y-149629244D02*
X130089553Y-125816804D01*
X130089553Y-125816804D02*
X161839593Y-125816804D01*
X128004845Y-121848004D02*
X128105169Y-121848004D01*
X165470193Y-152724604D02*
X165228193Y-153017850D01*
X165808393Y-151713676D02*
X165767993Y-152014364D01*
X126120793Y-151713676D02*
X126120793Y-151613628D01*
X163823993Y-153598004D02*
X128105169Y-153598004D01*
X142434573Y-145201604D02*
X142364313Y-145228924D01*
X143442753Y-144568524D02*
X143368313Y-144634984D01*
X144779133Y-142435344D02*
X144747733Y-142540604D01*
X164597593Y-153442286D02*
X164224593Y-153557766D01*
X126120793Y-151613628D02*
X126120793Y-123832404D01*
X127331265Y-122003404D02*
X127704159Y-121888004D01*
X126276236Y-123058404D02*
X126458687Y-122721205D01*
X165767993Y-152014364D02*
X165652593Y-152387256D01*
X126458687Y-122721205D02*
X126700671Y-122427804D01*
X134276033Y-129869204D02*
X140231053Y-129869204D01*
X141278093Y-145498444D02*
X140492613Y-145576684D01*
X144184913Y-143697364D02*
X143876233Y-144117384D01*
X142528273Y-145162444D02*
X142434573Y-145201604D01*
X144810333Y-142329784D02*
X144779133Y-142435344D01*
X128004845Y-153598004D02*
X127704159Y-153557766D01*
X141485113Y-145463444D02*
X141379853Y-145482984D01*
X126120793Y-123832404D02*
X126120793Y-123732004D01*
X144239813Y-143607484D02*
X144184913Y-143697364D01*
X126458687Y-152724604D02*
X126276236Y-152387256D01*
X165228193Y-153017850D02*
X164934793Y-153259834D01*
X140231053Y-129869204D02*
X140456553Y-129869204D01*
X140231053Y-145576684D02*
X134276033Y-145576684D01*
X127704159Y-121888004D02*
X128004845Y-121848004D01*
X142967833Y-144926024D02*
X142528273Y-145162444D01*
X126160756Y-123431404D02*
X126276236Y-123058404D01*
X127331265Y-153442286D02*
X126993919Y-153259834D01*
X161839593Y-125816804D02*
X161839593Y-149629244D01*
X126700671Y-153017850D02*
X126458687Y-152724604D01*
X165808393Y-123832404D02*
X165808393Y-151613628D01*
X163923993Y-153598004D02*
X163823993Y-153598004D01*
X134276033Y-145576684D02*
X134276033Y-129869204D01*
X143368313Y-144634984D02*
X142967833Y-144926024D01*
X140492613Y-145576684D02*
X140231053Y-145576684D01*
X126276236Y-152387256D02*
X126160756Y-152014364D01*
X143520713Y-144498244D02*
X143442753Y-144568524D01*
X128105169Y-153598004D02*
X128004845Y-153598004D01*
X150602793Y-139703784D02*
X150554793Y-139785904D01*
X141353093Y-142930364D02*
X141953892Y-142587464D01*
X150252793Y-142016164D02*
X150613193Y-142587464D01*
X147600793Y-141169224D02*
X147600793Y-140867104D01*
X150238193Y-140471644D02*
X150132793Y-141029724D01*
X150460993Y-133774084D02*
X150460993Y-133948564D01*
X152027392Y-138754604D02*
X151873593Y-138777745D01*
X155806193Y-138731164D02*
X152664793Y-138731164D01*
X151023593Y-139211584D02*
X150771393Y-139472284D01*
X150771393Y-139472284D02*
X150602793Y-139703784D01*
X152348193Y-136181504D02*
X152708593Y-136199144D01*
X151984993Y-132354204D02*
X151423593Y-132453604D01*
X150460993Y-133948564D02*
X150460993Y-134082484D01*
X150554793Y-139785904D02*
X150484193Y-139895344D01*
X152109793Y-138750424D02*
X152078592Y-138754604D01*
X155806193Y-132354204D02*
X152172393Y-132354204D01*
X155806193Y-136199144D02*
X155806193Y-132354204D01*
X152172393Y-132354204D02*
X151984993Y-132354204D01*
X151984993Y-136128864D02*
X152035593Y-136140444D01*
X151933993Y-136113204D02*
X151984993Y-136128864D01*
X150484193Y-139895344D02*
X150238193Y-140471644D01*
X151549793Y-138879764D02*
X151310793Y-139003444D01*
X152055193Y-143044724D02*
X155806193Y-143044724D01*
X150132793Y-141415884D02*
X150252793Y-142016164D01*
X136761213Y-143044724D02*
X140512213Y-143044724D01*
X151676193Y-138832625D02*
X151633193Y-138848304D01*
X152828793Y-136199144D02*
X155806193Y-136199144D01*
X151351793Y-135777224D02*
X151406393Y-135820184D01*
X155806193Y-143044724D02*
X155806193Y-138731164D01*
X141953892Y-142587464D02*
X142314413Y-142016164D01*
X148167193Y-139078724D02*
X148280793Y-138918564D01*
X150567993Y-133251004D02*
X150460993Y-133774084D01*
X151423593Y-132453604D02*
X150888793Y-132752804D01*
X151406393Y-135820184D02*
X151673993Y-135993824D01*
X152708593Y-136199144D02*
X152828793Y-136199144D01*
X151844993Y-143044724D02*
X152055193Y-143044724D01*
X150132793Y-141216064D02*
X150132793Y-141415884D01*
X147770593Y-139961724D02*
X148167193Y-139078724D01*
X147600793Y-140867104D02*
X147770593Y-139961724D01*
X150132793Y-141029724D02*
X150132793Y-141216064D01*
X150888793Y-132752804D02*
X150567993Y-133251004D01*
X151873593Y-138777745D02*
X151676193Y-138832625D01*
X151245793Y-135693404D02*
X151351793Y-135777224D01*
X150961793Y-135399044D02*
X151245793Y-135693404D01*
X150516593Y-134484644D02*
X150683593Y-134968304D01*
X142314413Y-142016164D02*
X142434573Y-141415884D01*
X140722193Y-143044724D02*
X141353093Y-142930364D01*
X151310793Y-139003444D02*
X151023593Y-139211584D01*
X151633193Y-138848304D02*
X151549793Y-138879764D01*
X150613193Y-142587464D02*
X151213993Y-142930364D01*
X152578193Y-138731164D02*
X152318993Y-138736964D01*
X152318993Y-138736964D02*
X152109793Y-138750424D01*
X139902833Y-138731164D02*
X136761213Y-138731164D01*
X142434573Y-141415884D02*
X142434573Y-141216064D01*
X139989113Y-138731164D02*
X139902833Y-138731164D01*
X152078592Y-138754604D02*
X152027392Y-138754604D01*
X151213993Y-142930364D02*
X151844993Y-143044724D01*
X136761213Y-138731164D02*
X136761213Y-143044724D01*
X150460993Y-134082484D02*
X150516593Y-134484644D01*
X152035593Y-136140444D02*
X152348193Y-136181504D01*
X151673993Y-135993824D02*
X151933993Y-136113204D01*
X152664793Y-138731164D02*
X152578193Y-138731164D01*
X140512213Y-143044724D02*
X140722193Y-143044724D01*
X150683593Y-134968304D02*
X150961793Y-135399044D01*
X164224593Y-121888004D02*
X164597593Y-122003404D01*
X163923993Y-121848004D02*
X164224593Y-121888004D01*
X165470193Y-122721205D02*
X165652593Y-123058404D01*
X163823993Y-121848004D02*
X163923993Y-121848004D01*
X164597593Y-122003404D02*
X164934793Y-122185804D01*
X165228193Y-122427804D02*
X165470193Y-122721205D01*
X164934793Y-122185804D02*
X165228193Y-122427804D01*
X128105169Y-121848004D02*
X163823993Y-121848004D01*
X149857193Y-130537404D02*
X150468793Y-130224804D01*
X148249393Y-132381404D02*
X148304193Y-132260404D01*
X149599193Y-144926024D02*
X149198793Y-144634984D01*
X148696593Y-131586204D02*
X149120593Y-131103804D01*
X147756793Y-142329784D02*
X147600793Y-141459124D01*
X149215393Y-136675104D02*
X148526593Y-135853284D01*
X149120593Y-131103804D02*
X149218393Y-131018004D01*
X148358793Y-132139204D02*
X148696593Y-131586204D01*
X151082193Y-145463444D02*
X150607393Y-145353724D01*
X149972393Y-137468864D02*
X150179593Y-137371364D01*
X151433993Y-129945404D02*
X152110792Y-129869204D01*
X147788193Y-142435344D02*
X147756793Y-142329784D01*
X147819393Y-142540604D02*
X147788193Y-142435344D01*
X150601593Y-130174204D02*
X150734393Y-130123204D01*
X158291393Y-129869204D02*
X158291393Y-145576684D01*
X152049393Y-145576684D02*
X151289393Y-145498444D01*
X148690793Y-144117384D02*
X148382193Y-143697364D01*
X150203193Y-145228924D02*
X150132793Y-145201604D01*
X147600793Y-141459124D02*
X147600793Y-141169224D01*
X147975993Y-134099844D02*
X147975993Y-133831444D01*
X148268793Y-143517384D02*
X147819393Y-142540604D01*
X148526593Y-135853284D02*
X148113393Y-134905164D01*
X149046393Y-144498244D02*
X148690793Y-144117384D01*
X148327593Y-143607484D02*
X148268793Y-143517384D01*
X149124593Y-144568524D02*
X149046393Y-144498244D01*
X152336593Y-129869204D02*
X158291393Y-129869204D01*
X150607393Y-145353724D02*
X150203193Y-145228924D01*
X149083593Y-138050945D02*
X149972393Y-137468864D01*
X150179593Y-137371364D02*
X149922993Y-137223884D01*
X152336593Y-145576684D02*
X152049393Y-145576684D01*
X147975993Y-133627464D02*
X148057793Y-133016404D01*
X158291393Y-145576684D02*
X152336593Y-145576684D01*
X148280793Y-138918564D02*
X148390193Y-138758204D01*
X152110792Y-129869204D02*
X152336593Y-129869204D01*
X150468793Y-130224804D02*
X150601593Y-130174204D01*
X149218393Y-131018004D02*
X149315993Y-130928204D01*
X147975993Y-133831444D02*
X147975993Y-133627464D01*
X148113393Y-134905164D02*
X147975993Y-134099844D01*
X149922993Y-137223884D02*
X149215393Y-136675104D01*
X149198793Y-144634984D02*
X149124593Y-144568524D01*
X148382193Y-143697364D02*
X148327593Y-143607484D01*
X151187793Y-145482984D02*
X151082193Y-145463444D01*
X150734393Y-130123204D02*
X151433993Y-129945404D01*
X150132793Y-145201604D02*
X150038793Y-145162444D01*
X150038793Y-145162444D02*
X149599193Y-144926024D01*
X148390193Y-138758204D02*
X149083593Y-138050945D01*
X149315993Y-130928204D02*
X149857193Y-130537404D01*
X148304193Y-132260404D02*
X148358793Y-132139204D01*
X148057793Y-133016404D02*
X148249393Y-132381404D01*
X151289393Y-145498444D02*
X151187793Y-145482984D01*
X165652593Y-123058404D02*
X165767993Y-123431404D01*
D11*
%TO.C,SW40*%
X234083144Y-93639800D02*
X234336715Y-94183585D01*
X240983785Y-88325560D02*
X238718016Y-89382106D01*
X240166644Y-93671800D02*
X239502181Y-93429955D01*
X239079563Y-92523648D02*
X239502181Y-93429955D01*
X234336715Y-94183585D02*
X238415100Y-92281803D01*
X241648248Y-88567405D02*
X240983785Y-88325560D01*
X243127412Y-91739482D02*
X242885567Y-92403945D01*
X242885567Y-92403945D02*
X240166644Y-93671800D01*
X236724627Y-88656572D02*
X236428794Y-88022156D01*
X236428794Y-88022156D02*
X232350409Y-89923939D01*
X232350409Y-89923939D02*
X232561718Y-90377092D01*
X238415100Y-92281803D02*
G75*
G02*
X239079563Y-92523648I211309J-453154D01*
G01*
X238718016Y-89382105D02*
G75*
G02*
X236724627Y-88656572I-633928J1359461D01*
G01*
%TO.C,SW39*%
X214750206Y-97138008D02*
X215003777Y-97681793D01*
X221650847Y-91823768D02*
X219385078Y-92880314D01*
X220833706Y-97170008D02*
X220169243Y-96928163D01*
X219746625Y-96021856D02*
X220169243Y-96928163D01*
X215003777Y-97681793D02*
X219082162Y-95780011D01*
X222315310Y-92065613D02*
X221650847Y-91823768D01*
X223794474Y-95237690D02*
X223552629Y-95902153D01*
X223552629Y-95902153D02*
X220833706Y-97170008D01*
X217391689Y-92154780D02*
X217095856Y-91520364D01*
X217095856Y-91520364D02*
X213017471Y-93422147D01*
X213017471Y-93422147D02*
X213228780Y-93875300D01*
X219082162Y-95780011D02*
G75*
G02*
X219746625Y-96021856I211309J-453154D01*
G01*
X219385078Y-92880313D02*
G75*
G02*
X217391689Y-92154780I-633928J1359461D01*
G01*
%TO.C,SW38*%
X205982723Y-123293911D02*
X206236294Y-123837696D01*
X212883364Y-117979671D02*
X210617595Y-119036217D01*
X212066223Y-123325911D02*
X211401760Y-123084066D01*
X210979142Y-122177759D02*
X211401760Y-123084066D01*
X206236294Y-123837696D02*
X210314679Y-121935914D01*
X213547827Y-118221516D02*
X212883364Y-117979671D01*
X215026991Y-121393593D02*
X214785146Y-122058056D01*
X214785146Y-122058056D02*
X212066223Y-123325911D01*
X208624206Y-118310683D02*
X208328373Y-117676267D01*
X208328373Y-117676267D02*
X204249988Y-119578050D01*
X204249988Y-119578050D02*
X204461297Y-120031203D01*
X210314679Y-121935914D02*
G75*
G02*
X210979142Y-122177759I211309J-453154D01*
G01*
X210617595Y-119036216D02*
G75*
G02*
X208624206Y-118310683I-633928J1359461D01*
G01*
%TO.C,SW37*%
X189251646Y-134362546D02*
X189595792Y-134854037D01*
X195124643Y-127930757D02*
X193076763Y-129364698D01*
X195248281Y-133337670D02*
X194551916Y-133214883D01*
X193978340Y-132395731D02*
X194551916Y-133214883D01*
X189595792Y-134854037D02*
X193281976Y-132272943D01*
X195821007Y-128053545D02*
X195124643Y-127930757D01*
X197828525Y-130920577D02*
X197705737Y-131616941D01*
X197705737Y-131616941D02*
X195248281Y-133337670D01*
X190987670Y-128996335D02*
X190586167Y-128422928D01*
X190586167Y-128422928D02*
X186899982Y-131004022D01*
X186899982Y-131004022D02*
X187186771Y-131413598D01*
X193281976Y-132272943D02*
G75*
G02*
X193978340Y-132395731I286788J-409576D01*
G01*
X193076763Y-129364698D02*
G75*
G02*
X190987670Y-128996335I-860365J1228728D01*
G01*
%TO.C,SW36*%
X174696801Y-148168344D02*
X175121065Y-148592609D01*
X179363705Y-140814434D02*
X177595938Y-142582201D01*
X180424365Y-146117735D02*
X179717259Y-146117735D01*
X179010152Y-145410628D02*
X179717259Y-146117735D01*
X175121065Y-148592609D02*
X178303045Y-145410628D01*
X180070812Y-140814434D02*
X179363705Y-140814434D01*
X182545686Y-143289308D02*
X182545686Y-143996414D01*
X182545686Y-143996414D02*
X180424365Y-146117735D01*
X175474618Y-142582201D02*
X174979643Y-142087226D01*
X174979643Y-142087226D02*
X171797663Y-145269207D01*
X171797663Y-145269207D02*
X172151216Y-145622760D01*
X178303045Y-145410627D02*
G75*
G02*
X179010152Y-145410628I353553J-353554D01*
G01*
X177595938Y-142582201D02*
G75*
G02*
X175474618Y-142582201I-1060660J1060660D01*
G01*
%TO.C,SW35*%
X107103705Y-138268850D02*
X106679440Y-138693114D01*
X114457615Y-142935754D02*
X112689848Y-141167987D01*
X109154314Y-143996414D02*
X109154314Y-143289308D01*
X109861421Y-142582201D02*
X109154314Y-143289308D01*
X106679440Y-138693114D02*
X109861421Y-141875094D01*
X114457615Y-143642861D02*
X114457615Y-142935754D01*
X111982741Y-146117735D02*
X111275635Y-146117735D01*
X111275635Y-146117735D02*
X109154314Y-143996414D01*
X112689848Y-139046667D02*
X113184823Y-138551692D01*
X113184823Y-138551692D02*
X110002842Y-135369712D01*
X110002842Y-135369712D02*
X109649289Y-135723265D01*
X109861422Y-141875094D02*
G75*
G02*
X109861421Y-142582201I-353554J-353553D01*
G01*
X112689848Y-141167987D02*
G75*
G02*
X112689848Y-139046667I1060660J1060660D01*
G01*
%TO.C,SW34*%
X90980226Y-126332475D02*
X90636080Y-126823967D01*
X99032813Y-129651486D02*
X96984933Y-128217545D01*
X93994263Y-131616941D02*
X93871475Y-130920577D01*
X94445052Y-130101425D02*
X93871475Y-130920577D01*
X90636080Y-126823967D02*
X94322264Y-129405061D01*
X99155601Y-130347850D02*
X99032813Y-129651486D01*
X97148084Y-133214883D02*
X96451719Y-133337670D01*
X96451719Y-133337670D02*
X93994263Y-131616941D01*
X96616570Y-126128452D02*
X97018073Y-125555046D01*
X97018073Y-125555046D02*
X93331889Y-122973952D01*
X93331889Y-122973952D02*
X93045101Y-123383528D01*
X94322264Y-129405061D02*
G75*
G02*
X94445052Y-130101425I-286788J-409576D01*
G01*
X96984933Y-128217545D02*
G75*
G02*
X96616570Y-126128452I860365J1228728D01*
G01*
%TO.C,SW33*%
X73028968Y-117377256D02*
X72775397Y-117921040D01*
X81535559Y-119247526D02*
X79269790Y-118190981D01*
X76914854Y-122058056D02*
X76673009Y-121393593D01*
X77095627Y-120487286D02*
X76673009Y-121393593D01*
X72775397Y-117921040D02*
X76853782Y-119822823D01*
X81777404Y-119911989D02*
X81535559Y-119247526D01*
X80298240Y-123084066D02*
X79633777Y-123325911D01*
X79633777Y-123325911D02*
X76914854Y-122058056D01*
X78544255Y-116197591D02*
X78840088Y-115563176D01*
X78840088Y-115563176D02*
X74761703Y-113661394D01*
X74761703Y-113661394D02*
X74550394Y-114114548D01*
X76853782Y-119822823D02*
G75*
G02*
X77095627Y-120487286I-211309J-453154D01*
G01*
X79269789Y-118190981D02*
G75*
G02*
X78544255Y-116197591I633928J1359462D01*
G01*
%TO.C,SW32*%
X64261485Y-91221353D02*
X64007914Y-91765137D01*
X72768076Y-93091623D02*
X70502307Y-92035078D01*
X68147371Y-95902153D02*
X67905526Y-95237690D01*
X68328144Y-94331383D02*
X67905526Y-95237690D01*
X64007914Y-91765137D02*
X68086299Y-93666920D01*
X73009921Y-93756086D02*
X72768076Y-93091623D01*
X71530757Y-96928163D02*
X70866294Y-97170008D01*
X70866294Y-97170008D02*
X68147371Y-95902153D01*
X69776772Y-90041688D02*
X70072605Y-89407273D01*
X70072605Y-89407273D02*
X65994220Y-87505491D01*
X65994220Y-87505491D02*
X65782911Y-87958645D01*
X68086299Y-93666920D02*
G75*
G02*
X68328144Y-94331383I-211309J-453154D01*
G01*
X70502306Y-92035078D02*
G75*
G02*
X69776772Y-90041688I633928J1359462D01*
G01*
%TO.C,SW31*%
X44928547Y-87723145D02*
X44674976Y-88266929D01*
X53435138Y-89593415D02*
X51169369Y-88536870D01*
X48814433Y-92403945D02*
X48572588Y-91739482D01*
X48995206Y-90833175D02*
X48572588Y-91739482D01*
X44674976Y-88266929D02*
X48753361Y-90168712D01*
X53676983Y-90257878D02*
X53435138Y-89593415D01*
X52197819Y-93429955D02*
X51533356Y-93671800D01*
X51533356Y-93671800D02*
X48814433Y-92403945D01*
X50443834Y-86543480D02*
X50739667Y-85909065D01*
X50739667Y-85909065D02*
X46661282Y-84007283D01*
X46661282Y-84007283D02*
X46449973Y-84460437D01*
X48753361Y-90168712D02*
G75*
G02*
X48995206Y-90833175I-211309J-453154D01*
G01*
X51169368Y-88536870D02*
G75*
G02*
X50443834Y-86543480I633928J1359462D01*
G01*
%TO.C,SW30*%
X248555972Y-79719053D02*
X248809543Y-80262838D01*
X255456613Y-74404813D02*
X253190844Y-75461359D01*
X254639472Y-79751053D02*
X253975009Y-79509208D01*
X253552391Y-78602901D02*
X253975009Y-79509208D01*
X248809543Y-80262838D02*
X252887928Y-78361056D01*
X256121076Y-74646658D02*
X255456613Y-74404813D01*
X257600240Y-77818735D02*
X257358395Y-78483198D01*
X257358395Y-78483198D02*
X254639472Y-79751053D01*
X251197455Y-74735825D02*
X250901622Y-74101409D01*
X250901622Y-74101409D02*
X246823237Y-76003192D01*
X246823237Y-76003192D02*
X247034546Y-76456345D01*
X252887928Y-78361056D02*
G75*
G02*
X253552391Y-78602901I211309J-453154D01*
G01*
X253190844Y-75461358D02*
G75*
G02*
X251197455Y-74735825I-633928J1359461D01*
G01*
%TO.C,SW29*%
X226053397Y-76419953D02*
X226306968Y-76963738D01*
X232954038Y-71105713D02*
X230688269Y-72162259D01*
X232136897Y-76451953D02*
X231472434Y-76210108D01*
X231049816Y-75303801D02*
X231472434Y-76210108D01*
X226306968Y-76963738D02*
X230385353Y-75061956D01*
X233618501Y-71347558D02*
X232954038Y-71105713D01*
X235097665Y-74519635D02*
X234855820Y-75184098D01*
X234855820Y-75184098D02*
X232136897Y-76451953D01*
X228694880Y-71436725D02*
X228399047Y-70802309D01*
X228399047Y-70802309D02*
X224320662Y-72704092D01*
X224320662Y-72704092D02*
X224531971Y-73157245D01*
X230385353Y-75061956D02*
G75*
G02*
X231049816Y-75303801I211309J-453154D01*
G01*
X230688269Y-72162258D02*
G75*
G02*
X228694880Y-71436725I-633928J1359461D01*
G01*
%TO.C,SW28*%
X206720459Y-79918161D02*
X206974030Y-80461946D01*
X213621100Y-74603921D02*
X211355331Y-75660467D01*
X212803959Y-79950161D02*
X212139496Y-79708316D01*
X211716878Y-78802009D02*
X212139496Y-79708316D01*
X206974030Y-80461946D02*
X211052415Y-78560164D01*
X214285563Y-74845766D02*
X213621100Y-74603921D01*
X215764727Y-78017843D02*
X215522882Y-78682306D01*
X215522882Y-78682306D02*
X212803959Y-79950161D01*
X209361942Y-74934933D02*
X209066109Y-74300517D01*
X209066109Y-74300517D02*
X204987724Y-76202300D01*
X204987724Y-76202300D02*
X205199033Y-76655453D01*
X211052415Y-78560164D02*
G75*
G02*
X211716878Y-78802009I211309J-453154D01*
G01*
X211355331Y-75660466D02*
G75*
G02*
X209361942Y-74934933I-633928J1359461D01*
G01*
%TO.C,SW27*%
X191613703Y-92479447D02*
X191867274Y-93023232D01*
X198514344Y-87165207D02*
X196248575Y-88221753D01*
X197697203Y-92511447D02*
X197032740Y-92269602D01*
X196610122Y-91363295D02*
X197032740Y-92269602D01*
X191867274Y-93023232D02*
X195945659Y-91121450D01*
X199178807Y-87407052D02*
X198514344Y-87165207D01*
X200657971Y-90579129D02*
X200416126Y-91243592D01*
X200416126Y-91243592D02*
X197697203Y-92511447D01*
X194255186Y-87496219D02*
X193959353Y-86861803D01*
X193959353Y-86861803D02*
X189880968Y-88763586D01*
X189880968Y-88763586D02*
X190092277Y-89216739D01*
X195945659Y-91121450D02*
G75*
G02*
X196610122Y-91363295I211309J-453154D01*
G01*
X196248575Y-88221752D02*
G75*
G02*
X194255186Y-87496219I-633928J1359461D01*
G01*
%TO.C,SW26*%
X175450401Y-102774963D02*
X175703972Y-103318748D01*
X182351042Y-97460723D02*
X180085273Y-98517269D01*
X181533901Y-102806963D02*
X180869438Y-102565118D01*
X180446820Y-101658811D02*
X180869438Y-102565118D01*
X175703972Y-103318748D02*
X179782357Y-101416966D01*
X183015505Y-97702568D02*
X182351042Y-97460723D01*
X184494669Y-100874645D02*
X184252824Y-101539108D01*
X184252824Y-101539108D02*
X181533901Y-102806963D01*
X178091884Y-97791735D02*
X177796051Y-97157319D01*
X177796051Y-97157319D02*
X173717666Y-99059102D01*
X173717666Y-99059102D02*
X173928975Y-99512255D01*
X179782357Y-101416966D02*
G75*
G02*
X180446820Y-101658811I211309J-453154D01*
G01*
X180085273Y-98517268D02*
G75*
G02*
X178091884Y-97791735I-633928J1359461D01*
G01*
%TO.C,SW25*%
X103561290Y-96858308D02*
X103307719Y-97402092D01*
X112067881Y-98728578D02*
X109802112Y-97672033D01*
X107447176Y-101539108D02*
X107205331Y-100874645D01*
X107627949Y-99968338D02*
X107205331Y-100874645D01*
X103307719Y-97402092D02*
X107386104Y-99303875D01*
X112309726Y-99393041D02*
X112067881Y-98728578D01*
X110830562Y-102565118D02*
X110166099Y-102806963D01*
X110166099Y-102806963D02*
X107447176Y-101539108D01*
X109076577Y-95678643D02*
X109372410Y-95044228D01*
X109372410Y-95044228D02*
X105294025Y-93142446D01*
X105294025Y-93142446D02*
X105082716Y-93595600D01*
X107386104Y-99303875D02*
G75*
G02*
X107627949Y-99968338I-211309J-453154D01*
G01*
X109802111Y-97672033D02*
G75*
G02*
X109076577Y-95678643I633928J1359462D01*
G01*
%TO.C,SW24*%
X87397988Y-86562792D02*
X87144417Y-87106576D01*
X95904579Y-88433062D02*
X93638810Y-87376517D01*
X91283874Y-91243592D02*
X91042029Y-90579129D01*
X91464647Y-89672822D02*
X91042029Y-90579129D01*
X87144417Y-87106576D02*
X91222802Y-89008359D01*
X96146424Y-89097525D02*
X95904579Y-88433062D01*
X94667260Y-92269602D02*
X94002797Y-92511447D01*
X94002797Y-92511447D02*
X91283874Y-91243592D01*
X92913275Y-85383127D02*
X93209108Y-84748712D01*
X93209108Y-84748712D02*
X89130723Y-82846930D01*
X89130723Y-82846930D02*
X88919414Y-83300084D01*
X91222802Y-89008359D02*
G75*
G02*
X91464647Y-89672822I-211309J-453154D01*
G01*
X93638809Y-87376517D02*
G75*
G02*
X92913275Y-85383127I633928J1359462D01*
G01*
%TO.C,SW23*%
X72291232Y-74001506D02*
X72037661Y-74545290D01*
X80797823Y-75871776D02*
X78532054Y-74815231D01*
X76177118Y-78682306D02*
X75935273Y-78017843D01*
X76357891Y-77111536D02*
X75935273Y-78017843D01*
X72037661Y-74545290D02*
X76116046Y-76447073D01*
X81039668Y-76536239D02*
X80797823Y-75871776D01*
X79560504Y-79708316D02*
X78896041Y-79950161D01*
X78896041Y-79950161D02*
X76177118Y-78682306D01*
X77806519Y-72821841D02*
X78102352Y-72187426D01*
X78102352Y-72187426D02*
X74023967Y-70285644D01*
X74023967Y-70285644D02*
X73812658Y-70738798D01*
X76116046Y-76447073D02*
G75*
G02*
X76357891Y-77111536I-211309J-453154D01*
G01*
X78532053Y-74815231D02*
G75*
G02*
X77806519Y-72821841I633928J1359462D01*
G01*
%TO.C,SW22*%
X52958294Y-70503298D02*
X52704723Y-71047082D01*
X61464885Y-72373568D02*
X59199116Y-71317023D01*
X56844180Y-75184098D02*
X56602335Y-74519635D01*
X57024953Y-73613328D02*
X56602335Y-74519635D01*
X52704723Y-71047082D02*
X56783108Y-72948865D01*
X61706730Y-73038031D02*
X61464885Y-72373568D01*
X60227566Y-76210108D02*
X59563103Y-76451953D01*
X59563103Y-76451953D02*
X56844180Y-75184098D01*
X58473581Y-69323633D02*
X58769414Y-68689218D01*
X58769414Y-68689218D02*
X54691029Y-66787436D01*
X54691029Y-66787436D02*
X54479720Y-67240590D01*
X56783108Y-72948865D02*
G75*
G02*
X57024953Y-73613328I-211309J-453154D01*
G01*
X59199115Y-71317023D02*
G75*
G02*
X58473581Y-69323633I633928J1359462D01*
G01*
%TO.C,SW21*%
X30455719Y-73802398D02*
X30202148Y-74346182D01*
X38962310Y-75672668D02*
X36696541Y-74616123D01*
X34341605Y-78483198D02*
X34099760Y-77818735D01*
X34522378Y-76912428D02*
X34099760Y-77818735D01*
X30202148Y-74346182D02*
X34280533Y-76247965D01*
X39204155Y-76337131D02*
X38962310Y-75672668D01*
X37724991Y-79509208D02*
X37060528Y-79751053D01*
X37060528Y-79751053D02*
X34341605Y-78483198D01*
X35971006Y-72622733D02*
X36266839Y-71988318D01*
X36266839Y-71988318D02*
X32188454Y-70086536D01*
X32188454Y-70086536D02*
X31977145Y-70539690D01*
X34280533Y-76247965D02*
G75*
G02*
X34522378Y-76912428I-211309J-453154D01*
G01*
X36696540Y-74616123D02*
G75*
G02*
X35971006Y-72622733I633928J1359462D01*
G01*
%TO.C,SW20*%
X240526225Y-62499206D02*
X240779796Y-63042991D01*
X247426866Y-57184966D02*
X245161097Y-58241512D01*
X246609725Y-62531206D02*
X245945262Y-62289361D01*
X245522644Y-61383054D02*
X245945262Y-62289361D01*
X240779796Y-63042991D02*
X244858181Y-61141209D01*
X248091329Y-57426811D02*
X247426866Y-57184966D01*
X249570493Y-60598888D02*
X249328648Y-61263351D01*
X249328648Y-61263351D02*
X246609725Y-62531206D01*
X243167708Y-57515978D02*
X242871875Y-56881562D01*
X242871875Y-56881562D02*
X238793490Y-58783345D01*
X238793490Y-58783345D02*
X239004799Y-59236498D01*
X244858181Y-61141209D02*
G75*
G02*
X245522644Y-61383054I211309J-453154D01*
G01*
X245161097Y-58241511D02*
G75*
G02*
X243167708Y-57515978I-633928J1359461D01*
G01*
%TO.C,SW19*%
X218023650Y-59200106D02*
X218277221Y-59743891D01*
X224924291Y-53885866D02*
X222658522Y-54942412D01*
X224107150Y-59232106D02*
X223442687Y-58990261D01*
X223020069Y-58083954D02*
X223442687Y-58990261D01*
X218277221Y-59743891D02*
X222355606Y-57842109D01*
X225588754Y-54127711D02*
X224924291Y-53885866D01*
X227067918Y-57299788D02*
X226826073Y-57964251D01*
X226826073Y-57964251D02*
X224107150Y-59232106D01*
X220665133Y-54216878D02*
X220369300Y-53582462D01*
X220369300Y-53582462D02*
X216290915Y-55484245D01*
X216290915Y-55484245D02*
X216502224Y-55937398D01*
X222355606Y-57842109D02*
G75*
G02*
X223020069Y-58083954I211309J-453154D01*
G01*
X222658522Y-54942411D02*
G75*
G02*
X220665133Y-54216878I-633928J1359461D01*
G01*
%TO.C,SW18*%
X198690712Y-62698314D02*
X198944283Y-63242099D01*
X205591353Y-57384074D02*
X203325584Y-58440620D01*
X204774212Y-62730314D02*
X204109749Y-62488469D01*
X203687131Y-61582162D02*
X204109749Y-62488469D01*
X198944283Y-63242099D02*
X203022668Y-61340317D01*
X206255816Y-57625919D02*
X205591353Y-57384074D01*
X207734980Y-60797996D02*
X207493135Y-61462459D01*
X207493135Y-61462459D02*
X204774212Y-62730314D01*
X201332195Y-57715086D02*
X201036362Y-57080670D01*
X201036362Y-57080670D02*
X196957977Y-58982453D01*
X196957977Y-58982453D02*
X197169286Y-59435606D01*
X203022668Y-61340317D02*
G75*
G02*
X203687131Y-61582162I211309J-453154D01*
G01*
X203325584Y-58440619D02*
G75*
G02*
X201332195Y-57715086I-633928J1359461D01*
G01*
%TO.C,SW17*%
X183583956Y-75259599D02*
X183837527Y-75803384D01*
X190484597Y-69945359D02*
X188218828Y-71001905D01*
X189667456Y-75291599D02*
X189002993Y-75049754D01*
X188580375Y-74143447D02*
X189002993Y-75049754D01*
X183837527Y-75803384D02*
X187915912Y-73901602D01*
X191149060Y-70187204D02*
X190484597Y-69945359D01*
X192628224Y-73359281D02*
X192386379Y-74023744D01*
X192386379Y-74023744D02*
X189667456Y-75291599D01*
X186225439Y-70276371D02*
X185929606Y-69641955D01*
X185929606Y-69641955D02*
X181851221Y-71543738D01*
X181851221Y-71543738D02*
X182062530Y-71996891D01*
X187915912Y-73901602D02*
G75*
G02*
X188580375Y-74143447I211309J-453154D01*
G01*
X188218828Y-71001904D02*
G75*
G02*
X186225439Y-70276371I-633928J1359461D01*
G01*
%TO.C,SW16*%
X167420655Y-85555116D02*
X167674226Y-86098901D01*
X174321296Y-80240876D02*
X172055527Y-81297422D01*
X173504155Y-85587116D02*
X172839692Y-85345271D01*
X172417074Y-84438964D02*
X172839692Y-85345271D01*
X167674226Y-86098901D02*
X171752611Y-84197119D01*
X174985759Y-80482721D02*
X174321296Y-80240876D01*
X176464923Y-83654798D02*
X176223078Y-84319261D01*
X176223078Y-84319261D02*
X173504155Y-85587116D01*
X170062138Y-80571888D02*
X169766305Y-79937472D01*
X169766305Y-79937472D02*
X165687920Y-81839255D01*
X165687920Y-81839255D02*
X165899229Y-82292408D01*
X171752611Y-84197119D02*
G75*
G02*
X172417074Y-84438964I211309J-453154D01*
G01*
X172055527Y-81297421D02*
G75*
G02*
X170062138Y-80571888I-633928J1359461D01*
G01*
%TO.C,SW15*%
X111591036Y-79638461D02*
X111337465Y-80182245D01*
X120097627Y-81508731D02*
X117831858Y-80452186D01*
X115476922Y-84319261D02*
X115235077Y-83654798D01*
X115657695Y-82748491D02*
X115235077Y-83654798D01*
X111337465Y-80182245D02*
X115415850Y-82084028D01*
X120339472Y-82173194D02*
X120097627Y-81508731D01*
X118860308Y-85345271D02*
X118195845Y-85587116D01*
X118195845Y-85587116D02*
X115476922Y-84319261D01*
X117106323Y-78458796D02*
X117402156Y-77824381D01*
X117402156Y-77824381D02*
X113323771Y-75922599D01*
X113323771Y-75922599D02*
X113112462Y-76375753D01*
X115415850Y-82084028D02*
G75*
G02*
X115657695Y-82748491I-211309J-453154D01*
G01*
X117831857Y-80452186D02*
G75*
G02*
X117106323Y-78458796I633928J1359462D01*
G01*
%TO.C,SW14*%
X95427735Y-69342944D02*
X95174164Y-69886728D01*
X103934326Y-71213214D02*
X101668557Y-70156669D01*
X99313621Y-74023744D02*
X99071776Y-73359281D01*
X99494394Y-72452974D02*
X99071776Y-73359281D01*
X95174164Y-69886728D02*
X99252549Y-71788511D01*
X104176171Y-71877677D02*
X103934326Y-71213214D01*
X102697007Y-75049754D02*
X102032544Y-75291599D01*
X102032544Y-75291599D02*
X99313621Y-74023744D01*
X100943022Y-68163279D02*
X101238855Y-67528864D01*
X101238855Y-67528864D02*
X97160470Y-65627082D01*
X97160470Y-65627082D02*
X96949161Y-66080236D01*
X99252549Y-71788511D02*
G75*
G02*
X99494394Y-72452974I-211309J-453154D01*
G01*
X101668556Y-70156669D02*
G75*
G02*
X100943022Y-68163279I633928J1359462D01*
G01*
%TO.C,SW13*%
X80320979Y-56781659D02*
X80067408Y-57325443D01*
X88827570Y-58651929D02*
X86561801Y-57595384D01*
X84206865Y-61462459D02*
X83965020Y-60797996D01*
X84387638Y-59891689D02*
X83965020Y-60797996D01*
X80067408Y-57325443D02*
X84145793Y-59227226D01*
X89069415Y-59316392D02*
X88827570Y-58651929D01*
X87590251Y-62488469D02*
X86925788Y-62730314D01*
X86925788Y-62730314D02*
X84206865Y-61462459D01*
X85836266Y-55601994D02*
X86132099Y-54967579D01*
X86132099Y-54967579D02*
X82053714Y-53065797D01*
X82053714Y-53065797D02*
X81842405Y-53518951D01*
X84145793Y-59227226D02*
G75*
G02*
X84387638Y-59891689I-211309J-453154D01*
G01*
X86561800Y-57595384D02*
G75*
G02*
X85836266Y-55601994I633928J1359462D01*
G01*
%TO.C,SW12*%
X60988041Y-53283451D02*
X60734470Y-53827235D01*
X69494632Y-55153721D02*
X67228863Y-54097176D01*
X64873927Y-57964251D02*
X64632082Y-57299788D01*
X65054700Y-56393481D02*
X64632082Y-57299788D01*
X60734470Y-53827235D02*
X64812855Y-55729018D01*
X69736477Y-55818184D02*
X69494632Y-55153721D01*
X68257313Y-58990261D02*
X67592850Y-59232106D01*
X67592850Y-59232106D02*
X64873927Y-57964251D01*
X66503328Y-52103786D02*
X66799161Y-51469371D01*
X66799161Y-51469371D02*
X62720776Y-49567589D01*
X62720776Y-49567589D02*
X62509467Y-50020743D01*
X64812855Y-55729018D02*
G75*
G02*
X65054700Y-56393481I-211309J-453154D01*
G01*
X67228862Y-54097176D02*
G75*
G02*
X66503328Y-52103786I633928J1359462D01*
G01*
%TO.C,SW11*%
X38485466Y-56582551D02*
X38231895Y-57126335D01*
X46992057Y-58452821D02*
X44726288Y-57396276D01*
X42371352Y-61263351D02*
X42129507Y-60598888D01*
X42552125Y-59692581D02*
X42129507Y-60598888D01*
X38231895Y-57126335D02*
X42310280Y-59028118D01*
X47233902Y-59117284D02*
X46992057Y-58452821D01*
X45754738Y-62289361D02*
X45090275Y-62531206D01*
X45090275Y-62531206D02*
X42371352Y-61263351D01*
X44000753Y-55402886D02*
X44296586Y-54768471D01*
X44296586Y-54768471D02*
X40218201Y-52866689D01*
X40218201Y-52866689D02*
X40006892Y-53319843D01*
X42310280Y-59028118D02*
G75*
G02*
X42552125Y-59692581I-211309J-453154D01*
G01*
X44726287Y-57396276D02*
G75*
G02*
X44000753Y-55402886I633928J1359462D01*
G01*
%TO.C,SW10*%
X232496478Y-45279359D02*
X232750049Y-45823144D01*
X239397119Y-39965119D02*
X237131350Y-41021665D01*
X238579978Y-45311359D02*
X237915515Y-45069514D01*
X237492897Y-44163207D02*
X237915515Y-45069514D01*
X232750049Y-45823144D02*
X236828434Y-43921362D01*
X240061582Y-40206964D02*
X239397119Y-39965119D01*
X241540746Y-43379041D02*
X241298901Y-44043504D01*
X241298901Y-44043504D02*
X238579978Y-45311359D01*
X235137961Y-40296131D02*
X234842128Y-39661715D01*
X234842128Y-39661715D02*
X230763743Y-41563498D01*
X230763743Y-41563498D02*
X230975052Y-42016651D01*
X236828434Y-43921362D02*
G75*
G02*
X237492897Y-44163207I211309J-453154D01*
G01*
X237131350Y-41021664D02*
G75*
G02*
X235137961Y-40296131I-633928J1359461D01*
G01*
%TO.C,SW9*%
X209993903Y-41980259D02*
X210247474Y-42524044D01*
X216894544Y-36666019D02*
X214628775Y-37722565D01*
X216077403Y-42012259D02*
X215412940Y-41770414D01*
X214990322Y-40864107D02*
X215412940Y-41770414D01*
X210247474Y-42524044D02*
X214325859Y-40622262D01*
X217559007Y-36907864D02*
X216894544Y-36666019D01*
X219038171Y-40079941D02*
X218796326Y-40744404D01*
X218796326Y-40744404D02*
X216077403Y-42012259D01*
X212635386Y-36997031D02*
X212339553Y-36362615D01*
X212339553Y-36362615D02*
X208261168Y-38264398D01*
X208261168Y-38264398D02*
X208472477Y-38717551D01*
X214325859Y-40622262D02*
G75*
G02*
X214990322Y-40864107I211309J-453154D01*
G01*
X214628775Y-37722564D02*
G75*
G02*
X212635386Y-36997031I-633928J1359461D01*
G01*
%TO.C,SW8*%
X190660965Y-45478467D02*
X190914536Y-46022252D01*
X197561606Y-40164227D02*
X195295837Y-41220773D01*
X196744465Y-45510467D02*
X196080002Y-45268622D01*
X195657384Y-44362315D02*
X196080002Y-45268622D01*
X190914536Y-46022252D02*
X194992921Y-44120470D01*
X198226069Y-40406072D02*
X197561606Y-40164227D01*
X199705233Y-43578149D02*
X199463388Y-44242612D01*
X199463388Y-44242612D02*
X196744465Y-45510467D01*
X193302448Y-40495239D02*
X193006615Y-39860823D01*
X193006615Y-39860823D02*
X188928230Y-41762606D01*
X188928230Y-41762606D02*
X189139539Y-42215759D01*
X194992921Y-44120470D02*
G75*
G02*
X195657384Y-44362315I211309J-453154D01*
G01*
X195295837Y-41220772D02*
G75*
G02*
X193302448Y-40495239I-633928J1359461D01*
G01*
%TO.C,SW7*%
X175554209Y-58039752D02*
X175807780Y-58583537D01*
X182454850Y-52725512D02*
X180189081Y-53782058D01*
X181637709Y-58071752D02*
X180973246Y-57829907D01*
X180550628Y-56923600D02*
X180973246Y-57829907D01*
X175807780Y-58583537D02*
X179886165Y-56681755D01*
X183119313Y-52967357D02*
X182454850Y-52725512D01*
X184598477Y-56139434D02*
X184356632Y-56803897D01*
X184356632Y-56803897D02*
X181637709Y-58071752D01*
X178195692Y-53056524D02*
X177899859Y-52422108D01*
X177899859Y-52422108D02*
X173821474Y-54323891D01*
X173821474Y-54323891D02*
X174032783Y-54777044D01*
X179886165Y-56681755D02*
G75*
G02*
X180550628Y-56923600I211309J-453154D01*
G01*
X180189081Y-53782057D02*
G75*
G02*
X178195692Y-53056524I-633928J1359461D01*
G01*
%TO.C,SW6*%
X157658173Y-64619408D02*
X157869482Y-65072561D01*
X161736558Y-62717625D02*
X157658173Y-64619408D01*
X162032391Y-63352041D02*
X161736558Y-62717625D01*
X168193331Y-67099414D02*
X165474408Y-68367269D01*
X168435176Y-66434951D02*
X168193331Y-67099414D01*
X166956012Y-63262874D02*
X166291549Y-63021029D01*
X159644479Y-68879054D02*
X163722864Y-66977272D01*
X164387327Y-67219117D02*
X164809945Y-68125424D01*
X165474408Y-68367269D02*
X164809945Y-68125424D01*
X166291549Y-63021029D02*
X164025780Y-64077575D01*
X159390908Y-68335269D02*
X159644479Y-68879054D01*
X164025780Y-64077574D02*
G75*
G02*
X162032391Y-63352041I-633928J1359461D01*
G01*
X163722864Y-66977272D02*
G75*
G02*
X164387327Y-67219117I211309J-453154D01*
G01*
%TO.C,SW5*%
X119620783Y-62418614D02*
X119367212Y-62962398D01*
X128127374Y-64288884D02*
X125861605Y-63232339D01*
X123506669Y-67099414D02*
X123264824Y-66434951D01*
X123687442Y-65528644D02*
X123264824Y-66434951D01*
X119367212Y-62962398D02*
X123445597Y-64864181D01*
X128369219Y-64953347D02*
X128127374Y-64288884D01*
X126890055Y-68125424D02*
X126225592Y-68367269D01*
X126225592Y-68367269D02*
X123506669Y-67099414D01*
X125136070Y-61238949D02*
X125431903Y-60604534D01*
X125431903Y-60604534D02*
X121353518Y-58702752D01*
X121353518Y-58702752D02*
X121142209Y-59155906D01*
X123445597Y-64864181D02*
G75*
G02*
X123687442Y-65528644I-211309J-453154D01*
G01*
X125861604Y-63232339D02*
G75*
G02*
X125136070Y-61238949I633928J1359462D01*
G01*
%TO.C,SW4*%
X103457482Y-52123097D02*
X103203911Y-52666881D01*
X111964073Y-53993367D02*
X109698304Y-52936822D01*
X107343368Y-56803897D02*
X107101523Y-56139434D01*
X107524141Y-55233127D02*
X107101523Y-56139434D01*
X103203911Y-52666881D02*
X107282296Y-54568664D01*
X112205918Y-54657830D02*
X111964073Y-53993367D01*
X110726754Y-57829907D02*
X110062291Y-58071752D01*
X110062291Y-58071752D02*
X107343368Y-56803897D01*
X108972769Y-50943432D02*
X109268602Y-50309017D01*
X109268602Y-50309017D02*
X105190217Y-48407235D01*
X105190217Y-48407235D02*
X104978908Y-48860389D01*
X107282296Y-54568664D02*
G75*
G02*
X107524141Y-55233127I-211309J-453154D01*
G01*
X109698303Y-52936822D02*
G75*
G02*
X108972769Y-50943432I633928J1359462D01*
G01*
%TO.C,SW3*%
X88350726Y-39561812D02*
X88097155Y-40105596D01*
X96857317Y-41432082D02*
X94591548Y-40375537D01*
X92236612Y-44242612D02*
X91994767Y-43578149D01*
X92417385Y-42671842D02*
X91994767Y-43578149D01*
X88097155Y-40105596D02*
X92175540Y-42007379D01*
X97099162Y-42096545D02*
X96857317Y-41432082D01*
X95619998Y-45268622D02*
X94955535Y-45510467D01*
X94955535Y-45510467D02*
X92236612Y-44242612D01*
X93866013Y-38382147D02*
X94161846Y-37747732D01*
X94161846Y-37747732D02*
X90083461Y-35845950D01*
X90083461Y-35845950D02*
X89872152Y-36299104D01*
X92175540Y-42007379D02*
G75*
G02*
X92417385Y-42671842I-211309J-453154D01*
G01*
X94591547Y-40375537D02*
G75*
G02*
X93866013Y-38382147I633928J1359462D01*
G01*
%TO.C,SW2*%
X69017788Y-36063604D02*
X68764217Y-36607388D01*
X77524379Y-37933874D02*
X75258610Y-36877329D01*
X72903674Y-40744404D02*
X72661829Y-40079941D01*
X73084447Y-39173634D02*
X72661829Y-40079941D01*
X68764217Y-36607388D02*
X72842602Y-38509171D01*
X77766224Y-38598337D02*
X77524379Y-37933874D01*
X76287060Y-41770414D02*
X75622597Y-42012259D01*
X75622597Y-42012259D02*
X72903674Y-40744404D01*
X74533075Y-34883939D02*
X74828908Y-34249524D01*
X74828908Y-34249524D02*
X70750523Y-32347742D01*
X70750523Y-32347742D02*
X70539214Y-32800896D01*
X72842602Y-38509171D02*
G75*
G02*
X73084447Y-39173634I-211309J-453154D01*
G01*
X75258609Y-36877329D02*
G75*
G02*
X74533075Y-34883939I633928J1359462D01*
G01*
%TO.C,SW1*%
X46515213Y-39362704D02*
X46261642Y-39906488D01*
X55021804Y-41232974D02*
X52756035Y-40176429D01*
X50401099Y-44043504D02*
X50159254Y-43379041D01*
X50581872Y-42472734D02*
X50159254Y-43379041D01*
X46261642Y-39906488D02*
X50340027Y-41808271D01*
X55263649Y-41897437D02*
X55021804Y-41232974D01*
X53784485Y-45069514D02*
X53120022Y-45311359D01*
X53120022Y-45311359D02*
X50401099Y-44043504D01*
X52030500Y-38183039D02*
X52326333Y-37548624D01*
X52326333Y-37548624D02*
X48247948Y-35646842D01*
X48247948Y-35646842D02*
X48036639Y-36099996D01*
X50340027Y-41808271D02*
G75*
G02*
X50581872Y-42472734I-211309J-453154D01*
G01*
X52756034Y-40176429D02*
G75*
G02*
X52030500Y-38183039I633928J1359462D01*
G01*
D12*
%TO.C,D59*%
G36*
X99973224Y-118370794D02*
G01*
X101226679Y-118149776D01*
X100489442Y-117633558D01*
X99973224Y-118370794D01*
G37*
X99973224Y-118370794D02*
X101226679Y-118149776D01*
X100489442Y-117633558D01*
X99973224Y-118370794D01*
D13*
%TO.C,D82*%
X168652593Y-125108404D02*
X168652593Y-121208404D01*
X166652593Y-125108404D02*
X166652593Y-121208404D01*
X168652593Y-125108404D02*
X166652593Y-125108404D01*
%TO.C,D81*%
X124452593Y-125108404D02*
X124452593Y-121208404D01*
X122452593Y-125108404D02*
X122452593Y-121208404D01*
X124452593Y-125108404D02*
X122452593Y-125108404D01*
%TO.C,J1*%
X152852593Y-131458404D02*
X150852593Y-131458404D01*
X152852593Y-133458404D02*
X152852593Y-131458404D01*
X152852593Y-131458404D02*
X152852593Y-133458404D01*
X138852593Y-131458404D02*
X140852593Y-131458404D01*
X138852593Y-133458404D02*
X138852593Y-131458404D01*
X138852593Y-131458404D02*
X138852593Y-133458404D01*
X152852593Y-145458404D02*
X152852593Y-143458404D01*
X150852593Y-145458404D02*
X152852593Y-145458404D01*
X151852593Y-145458404D02*
X150852593Y-145458404D01*
X152852593Y-145458404D02*
X151852593Y-145458404D01*
X138852593Y-145458404D02*
X138852593Y-143458404D01*
X138852593Y-145458404D02*
X140852593Y-145458404D01*
X148352593Y-138458404D02*
G75*
G03*
X148352593Y-138458404I-2500000J0D01*
G01*
X130752593Y-132558404D02*
X130752593Y-144458404D01*
X130752593Y-144458404D02*
X133252593Y-144458404D01*
X133252593Y-144458404D02*
X133252593Y-132358404D01*
X133252593Y-132358404D02*
X130752593Y-132358404D01*
X130752593Y-132358404D02*
X130752593Y-132558404D01*
D12*
%TO.C,D56*%
G36*
X119064879Y-70236118D02*
G01*
X120260912Y-69800797D01*
X119445235Y-69420441D01*
X119064879Y-70236118D01*
G37*
X119064879Y-70236118D02*
X120260912Y-69800797D01*
X119445235Y-69420441D01*
X119064879Y-70236118D01*
%TO.C,D57*%
G36*
X111035133Y-87455965D02*
G01*
X112231166Y-87020644D01*
X111415489Y-86640288D01*
X111035133Y-87455965D01*
G37*
X111035133Y-87455965D02*
X112231166Y-87020644D01*
X111415489Y-86640288D01*
X111035133Y-87455965D01*
%TO.C,D45*%
G36*
X60432137Y-61100955D02*
G01*
X61628170Y-60665634D01*
X60812493Y-60285278D01*
X60432137Y-61100955D01*
G37*
X60432137Y-61100955D02*
X61628170Y-60665634D01*
X60812493Y-60285278D01*
X60432137Y-61100955D01*
%TO.C,D65*%
G36*
X165022136Y-73786111D02*
G01*
X165457456Y-72590078D01*
X164641779Y-72970434D01*
X165022136Y-73786111D01*
G37*
X165022136Y-73786111D02*
X165457456Y-72590078D01*
X164641779Y-72970434D01*
X165022136Y-73786111D01*
%TO.C,D53*%
G36*
X102901578Y-59940601D02*
G01*
X104097611Y-59505280D01*
X103281934Y-59124924D01*
X102901578Y-59940601D01*
G37*
X102901578Y-59940601D02*
X104097611Y-59505280D01*
X103281934Y-59124924D01*
X102901578Y-59940601D01*
%TO.C,D52*%
G36*
X94871831Y-77160449D02*
G01*
X96067864Y-76725128D01*
X95252187Y-76344772D01*
X94871831Y-77160449D01*
G37*
X94871831Y-77160449D02*
X96067864Y-76725128D01*
X95252187Y-76344772D01*
X94871831Y-77160449D01*
%TO.C,D54*%
G36*
X110931325Y-42720754D02*
G01*
X112127358Y-42285433D01*
X111311681Y-41905077D01*
X110931325Y-42720754D01*
G37*
X110931325Y-42720754D02*
X112127358Y-42285433D01*
X111311681Y-41905077D01*
X110931325Y-42720754D01*
D13*
%TO.C,Y1*%
X157552593Y-89008404D02*
X154252593Y-89008404D01*
X154252593Y-89008404D02*
X154252593Y-85008404D01*
D11*
%TO.C,U2*%
X145202593Y-66408404D02*
X145202593Y-69308404D01*
X145202593Y-66408404D02*
X146502593Y-66408404D01*
X146502593Y-66408404D02*
X146502593Y-69308404D01*
X146502593Y-69308404D02*
X145202593Y-69308404D01*
%TO.C,U1*%
X138677593Y-81683404D02*
X139252593Y-81683404D01*
X138677593Y-92033404D02*
X139352593Y-92033404D01*
X149027593Y-92033404D02*
X148352593Y-92033404D01*
X149027593Y-81683404D02*
X148352593Y-81683404D01*
X138677593Y-81683404D02*
X138677593Y-82358404D01*
X149027593Y-81683404D02*
X149027593Y-82358404D01*
X149027593Y-92033404D02*
X149027593Y-91358404D01*
X138677593Y-92033404D02*
X138677593Y-91358404D01*
X139252593Y-81683404D02*
X139252593Y-80408404D01*
%TO.C,SW41*%
X156252593Y-154058404D02*
X161452593Y-154058404D01*
X161452593Y-154058404D02*
X161452593Y-148858404D01*
X161452593Y-148858404D02*
X156252593Y-148858404D01*
X156252593Y-148858404D02*
X156252593Y-154058404D01*
X159852593Y-151458404D02*
G75*
G03*
X159852593Y-151458404I-1000000J0D01*
G01*
D13*
%TO.C,R6*%
X141879657Y-65593404D02*
X141425529Y-65593404D01*
X141879657Y-64123404D02*
X141425529Y-64123404D01*
%TO.C,R5*%
X149825529Y-64123404D02*
X150279657Y-64123404D01*
X149825529Y-65593404D02*
X150279657Y-65593404D01*
%TO.C,R4*%
X162787593Y-145431340D02*
X162787593Y-145885468D01*
X161317593Y-145431340D02*
X161317593Y-145885468D01*
%TO.C,R3*%
X147987593Y-73231340D02*
X147987593Y-73685468D01*
X146517593Y-73231340D02*
X146517593Y-73685468D01*
%TO.C,R2*%
X143717593Y-73685468D02*
X143717593Y-73231340D01*
X145187593Y-73685468D02*
X145187593Y-73231340D01*
%TO.C,R1*%
X138025529Y-95593404D02*
X138479657Y-95593404D01*
X138025529Y-94123404D02*
X138479657Y-94123404D01*
%TO.C,F1*%
X140542593Y-71260468D02*
X140542593Y-70056340D01*
X142362593Y-71260468D02*
X142362593Y-70056340D01*
D12*
%TO.C,D77*%
G36*
X231684625Y-81870795D02*
G01*
X232119945Y-80674762D01*
X231304268Y-81055118D01*
X231684625Y-81870795D01*
G37*
X231684625Y-81870795D02*
X232119945Y-80674762D01*
X231304268Y-81055118D01*
X231684625Y-81870795D01*
%TO.C,D70*%
G36*
X212351687Y-85369003D02*
G01*
X212787007Y-84172970D01*
X211971330Y-84553326D01*
X212351687Y-85369003D01*
G37*
X212351687Y-85369003D02*
X212787007Y-84172970D01*
X211971330Y-84553326D01*
X212351687Y-85369003D01*
%TO.C,D63*%
G36*
X203584204Y-111524906D02*
G01*
X204019524Y-110328873D01*
X203203847Y-110709229D01*
X203584204Y-111524906D01*
G37*
X203584204Y-111524906D02*
X204019524Y-110328873D01*
X203203847Y-110709229D01*
X203584204Y-111524906D01*
%TO.C,D62*%
G36*
X184845899Y-123188836D02*
G01*
X185066917Y-121935381D01*
X184329680Y-122451600D01*
X184845899Y-123188836D01*
G37*
X184845899Y-123188836D02*
X185066917Y-121935381D01*
X184329680Y-122451600D01*
X184845899Y-123188836D01*
%TO.C,D61*%
G36*
X168417693Y-137929439D02*
G01*
X168417693Y-136656647D01*
X167781297Y-137293043D01*
X168417693Y-137929439D01*
G37*
X168417693Y-137929439D02*
X168417693Y-136656647D01*
X167781297Y-137293043D01*
X168417693Y-137929439D01*
%TO.C,D60*%
G36*
X117342610Y-131989742D02*
G01*
X118615402Y-131989742D01*
X117979006Y-131353346D01*
X117342610Y-131989742D01*
G37*
X117342610Y-131989742D02*
X118615402Y-131989742D01*
X117979006Y-131353346D01*
X117342610Y-131989742D01*
%TO.C,D58*%
G36*
X80502811Y-107974913D02*
G01*
X81698844Y-107539592D01*
X80883167Y-107159236D01*
X80502811Y-107974913D01*
G37*
X80502811Y-107974913D02*
X81698844Y-107539592D01*
X80883167Y-107159236D01*
X80502811Y-107974913D01*
%TO.C,D51*%
G36*
X71735328Y-81819010D02*
G01*
X72931361Y-81383689D01*
X72115684Y-81003333D01*
X71735328Y-81819010D01*
G37*
X71735328Y-81819010D02*
X72931361Y-81383689D01*
X72115684Y-81003333D01*
X71735328Y-81819010D01*
%TO.C,D44*%
G36*
X52402390Y-78320802D02*
G01*
X53598423Y-77885481D01*
X52782746Y-77505125D01*
X52402390Y-78320802D01*
G37*
X52402390Y-78320802D02*
X53598423Y-77885481D01*
X52782746Y-77505125D01*
X52402390Y-78320802D01*
%TO.C,D78*%
G36*
X246157453Y-67950048D02*
G01*
X246592773Y-66754015D01*
X245777096Y-67134371D01*
X246157453Y-67950048D01*
G37*
X246157453Y-67950048D02*
X246592773Y-66754015D01*
X245777096Y-67134371D01*
X246157453Y-67950048D01*
%TO.C,D76*%
G36*
X223654878Y-64650948D02*
G01*
X224090198Y-63454915D01*
X223274521Y-63835271D01*
X223654878Y-64650948D01*
G37*
X223654878Y-64650948D02*
X224090198Y-63454915D01*
X223274521Y-63835271D01*
X223654878Y-64650948D01*
%TO.C,D71*%
G36*
X204321940Y-68149156D02*
G01*
X204757260Y-66953123D01*
X203941583Y-67333479D01*
X204321940Y-68149156D01*
G37*
X204321940Y-68149156D02*
X204757260Y-66953123D01*
X203941583Y-67333479D01*
X204321940Y-68149156D01*
%TO.C,D69*%
G36*
X189215184Y-80710442D02*
G01*
X189650504Y-79514409D01*
X188834827Y-79894765D01*
X189215184Y-80710442D01*
G37*
X189215184Y-80710442D02*
X189650504Y-79514409D01*
X188834827Y-79894765D01*
X189215184Y-80710442D01*
%TO.C,D64*%
G36*
X173051882Y-91005958D02*
G01*
X173487202Y-89809925D01*
X172671525Y-90190281D01*
X173051882Y-91005958D01*
G37*
X173051882Y-91005958D02*
X173487202Y-89809925D01*
X172671525Y-90190281D01*
X173051882Y-91005958D01*
%TO.C,D50*%
G36*
X79765075Y-64599163D02*
G01*
X80961108Y-64163842D01*
X80145431Y-63783486D01*
X79765075Y-64599163D01*
G37*
X79765075Y-64599163D02*
X80961108Y-64163842D01*
X80145431Y-63783486D01*
X79765075Y-64599163D01*
%TO.C,D43*%
G36*
X37929562Y-64400055D02*
G01*
X39125595Y-63964734D01*
X38309918Y-63584378D01*
X37929562Y-64400055D01*
G37*
X37929562Y-64400055D02*
X39125595Y-63964734D01*
X38309918Y-63584378D01*
X37929562Y-64400055D01*
%TO.C,D79*%
G36*
X238127706Y-50730201D02*
G01*
X238563026Y-49534168D01*
X237747349Y-49914524D01*
X238127706Y-50730201D01*
G37*
X238127706Y-50730201D02*
X238563026Y-49534168D01*
X237747349Y-49914524D01*
X238127706Y-50730201D01*
%TO.C,D75*%
G36*
X215625131Y-47431101D02*
G01*
X216060451Y-46235068D01*
X215244774Y-46615424D01*
X215625131Y-47431101D01*
G37*
X215625131Y-47431101D02*
X216060451Y-46235068D01*
X215244774Y-46615424D01*
X215625131Y-47431101D01*
%TO.C,D72*%
G36*
X196292193Y-50929309D02*
G01*
X196727513Y-49733276D01*
X195911836Y-50113632D01*
X196292193Y-50929309D01*
G37*
X196292193Y-50929309D02*
X196727513Y-49733276D01*
X195911836Y-50113632D01*
X196292193Y-50929309D01*
%TO.C,D68*%
G36*
X181185437Y-63490594D02*
G01*
X181620757Y-62294561D01*
X180805080Y-62674917D01*
X181185437Y-63490594D01*
G37*
X181185437Y-63490594D02*
X181620757Y-62294561D01*
X180805080Y-62674917D01*
X181185437Y-63490594D01*
%TO.C,D49*%
G36*
X87794822Y-47379316D02*
G01*
X88990855Y-46943995D01*
X88175178Y-46563639D01*
X87794822Y-47379316D01*
G37*
X87794822Y-47379316D02*
X88990855Y-46943995D01*
X88175178Y-46563639D01*
X87794822Y-47379316D01*
%TO.C,D46*%
G36*
X68461884Y-43881108D02*
G01*
X69657917Y-43445787D01*
X68842240Y-43065431D01*
X68461884Y-43881108D01*
G37*
X68461884Y-43881108D02*
X69657917Y-43445787D01*
X68842240Y-43065431D01*
X68461884Y-43881108D01*
%TO.C,D42*%
G36*
X45959309Y-47180208D02*
G01*
X47155342Y-46744887D01*
X46339665Y-46364531D01*
X45959309Y-47180208D01*
G37*
X45959309Y-47180208D02*
X47155342Y-46744887D01*
X46339665Y-46364531D01*
X45959309Y-47180208D01*
%TO.C,D80*%
G36*
X230097959Y-33510354D02*
G01*
X230533279Y-32314321D01*
X229717602Y-32694677D01*
X230097959Y-33510354D01*
G37*
X230097959Y-33510354D02*
X230533279Y-32314321D01*
X229717602Y-32694677D01*
X230097959Y-33510354D01*
%TO.C,D74*%
G36*
X207595384Y-30211254D02*
G01*
X208030704Y-29015221D01*
X207215027Y-29395577D01*
X207595384Y-30211254D01*
G37*
X207595384Y-30211254D02*
X208030704Y-29015221D01*
X207215027Y-29395577D01*
X207595384Y-30211254D01*
%TO.C,D73*%
G36*
X188262446Y-33709462D02*
G01*
X188697766Y-32513429D01*
X187882089Y-32893785D01*
X188262446Y-33709462D01*
G37*
X188262446Y-33709462D02*
X188697766Y-32513429D01*
X187882089Y-32893785D01*
X188262446Y-33709462D01*
%TO.C,D67*%
G36*
X173155690Y-46270747D02*
G01*
X173591010Y-45074714D01*
X172775333Y-45455070D01*
X173155690Y-46270747D01*
G37*
X173155690Y-46270747D02*
X173591010Y-45074714D01*
X172775333Y-45455070D01*
X173155690Y-46270747D01*
%TO.C,D66*%
G36*
X156992389Y-56566264D02*
G01*
X157427709Y-55370231D01*
X156612032Y-55750587D01*
X156992389Y-56566264D01*
G37*
X156992389Y-56566264D02*
X157427709Y-55370231D01*
X156612032Y-55750587D01*
X156992389Y-56566264D01*
%TO.C,D55*%
G36*
X127094626Y-53016271D02*
G01*
X128290659Y-52580950D01*
X127474982Y-52200594D01*
X127094626Y-53016271D01*
G37*
X127094626Y-53016271D02*
X128290659Y-52580950D01*
X127474982Y-52200594D01*
X127094626Y-53016271D01*
%TO.C,D48*%
G36*
X95824569Y-30159469D02*
G01*
X97020602Y-29724148D01*
X96204925Y-29343792D01*
X95824569Y-30159469D01*
G37*
X95824569Y-30159469D02*
X97020602Y-29724148D01*
X96204925Y-29343792D01*
X95824569Y-30159469D01*
%TO.C,D47*%
G36*
X76491631Y-26661261D02*
G01*
X77687664Y-26225940D01*
X76871987Y-25845584D01*
X76491631Y-26661261D01*
G37*
X76491631Y-26661261D02*
X77687664Y-26225940D01*
X76871987Y-25845584D01*
X76491631Y-26661261D01*
%TO.C,D41*%
G36*
X53989056Y-29960361D02*
G01*
X55185089Y-29525040D01*
X54369412Y-29144684D01*
X53989056Y-29960361D01*
G37*
X53989056Y-29960361D02*
X55185089Y-29525040D01*
X54369412Y-29144684D01*
X53989056Y-29960361D01*
D13*
%TO.C,D40*%
X247669167Y-89401205D02*
X244134567Y-91049416D01*
X248514404Y-91213821D02*
X244979803Y-92862032D01*
X247669167Y-89401205D02*
X248514404Y-91213821D01*
%TO.C,D39*%
X228469167Y-93001205D02*
X224934567Y-94649416D01*
X229314404Y-94813821D02*
X225779803Y-96462032D01*
X228469167Y-93001205D02*
X229314404Y-94813821D01*
%TO.C,D38*%
X219669167Y-119201205D02*
X216134567Y-120849416D01*
X220514404Y-121013821D02*
X216979803Y-122662032D01*
X219669167Y-119201205D02*
X220514404Y-121013821D01*
%TO.C,D37*%
X202122109Y-127948705D02*
X198927416Y-130185653D01*
X203269262Y-129587009D02*
X200074569Y-131823957D01*
X202122109Y-127948705D02*
X203269262Y-129587009D01*
%TO.C,D36*%
X186136476Y-139760307D02*
X183378760Y-142518023D01*
X187550690Y-141174521D02*
X184792974Y-143932237D01*
X186136476Y-139760307D02*
X187550690Y-141174521D01*
%TO.C,D35*%
X115750690Y-149742287D02*
X112992974Y-146984571D01*
X114336476Y-151156501D02*
X111578760Y-148398785D01*
X115750690Y-149742287D02*
X114336476Y-151156501D01*
%TO.C,D34*%
X101469262Y-136129799D02*
X98274569Y-133892851D01*
X100322109Y-137768103D02*
X97127416Y-135531155D01*
X101469262Y-136129799D02*
X100322109Y-137768103D01*
%TO.C,D33*%
X84914404Y-125102987D02*
X81379803Y-123454776D01*
X84069167Y-126915603D02*
X80534567Y-125267392D01*
X84914404Y-125102987D02*
X84069167Y-126915603D01*
%TO.C,D32*%
X76314404Y-99102987D02*
X72779803Y-97454776D01*
X75469167Y-100915603D02*
X71934567Y-99267392D01*
X76314404Y-99102987D02*
X75469167Y-100915603D01*
%TO.C,D31*%
X56914404Y-95502987D02*
X53379803Y-93854776D01*
X56069167Y-97315603D02*
X52534567Y-95667392D01*
X56914404Y-95502987D02*
X56069167Y-97315603D01*
%TO.C,D30*%
X262069167Y-75401205D02*
X258534567Y-77049416D01*
X262914404Y-77213821D02*
X259379803Y-78862032D01*
X262069167Y-75401205D02*
X262914404Y-77213821D01*
%TO.C,D29*%
X239669167Y-72201205D02*
X236134567Y-73849416D01*
X240514404Y-74013821D02*
X236979803Y-75662032D01*
X239669167Y-72201205D02*
X240514404Y-74013821D01*
%TO.C,D28*%
X220269167Y-75801205D02*
X216734567Y-77449416D01*
X221114404Y-77613821D02*
X217579803Y-79262032D01*
X220269167Y-75801205D02*
X221114404Y-77613821D01*
%TO.C,D27*%
X205269167Y-88401205D02*
X201734567Y-90049416D01*
X206114404Y-90213821D02*
X202579803Y-91862032D01*
X205269167Y-88401205D02*
X206114404Y-90213821D01*
%TO.C,D26*%
X189069167Y-98601205D02*
X185534567Y-100249416D01*
X189914404Y-100413821D02*
X186379803Y-102062032D01*
X189069167Y-98601205D02*
X189914404Y-100413821D01*
%TO.C,D25*%
X115514404Y-104702987D02*
X111979803Y-103054776D01*
X114669167Y-106515603D02*
X111134567Y-104867392D01*
X115514404Y-104702987D02*
X114669167Y-106515603D01*
%TO.C,D24*%
X99314404Y-94302987D02*
X95779803Y-92654776D01*
X98469167Y-96115603D02*
X94934567Y-94467392D01*
X99314404Y-94302987D02*
X98469167Y-96115603D01*
%TO.C,D23*%
X84314404Y-81702987D02*
X80779803Y-80054776D01*
X83469167Y-83515603D02*
X79934567Y-81867392D01*
X84314404Y-81702987D02*
X83469167Y-83515603D01*
%TO.C,D22*%
X64914404Y-78302987D02*
X61379803Y-76654776D01*
X64069167Y-80115603D02*
X60534567Y-78467392D01*
X64914404Y-78302987D02*
X64069167Y-80115603D01*
%TO.C,D21*%
X42514404Y-81702987D02*
X38979803Y-80054776D01*
X41669167Y-83515603D02*
X38134567Y-81867392D01*
X42514404Y-81702987D02*
X41669167Y-83515603D01*
%TO.C,D20*%
X254069167Y-58201205D02*
X250534567Y-59849416D01*
X254914404Y-60013821D02*
X251379803Y-61662032D01*
X254069167Y-58201205D02*
X254914404Y-60013821D01*
%TO.C,D19*%
X231669167Y-54801205D02*
X228134567Y-56449416D01*
X232514404Y-56613821D02*
X228979803Y-58262032D01*
X231669167Y-54801205D02*
X232514404Y-56613821D01*
%TO.C,D18*%
X212269167Y-58401205D02*
X208734567Y-60049416D01*
X213114404Y-60213821D02*
X209579803Y-61862032D01*
X212269167Y-58401205D02*
X213114404Y-60213821D01*
%TO.C,D17*%
X197069167Y-71001205D02*
X193534567Y-72649416D01*
X197914404Y-72813821D02*
X194379803Y-74462032D01*
X197069167Y-71001205D02*
X197914404Y-72813821D01*
%TO.C,D16*%
X181069167Y-81401205D02*
X177534567Y-83049416D01*
X181914404Y-83213821D02*
X178379803Y-84862032D01*
X181069167Y-81401205D02*
X181914404Y-83213821D01*
%TO.C,D15*%
X123514404Y-87502987D02*
X119979803Y-85854776D01*
X122669167Y-89315603D02*
X119134567Y-87667392D01*
X123514404Y-87502987D02*
X122669167Y-89315603D01*
%TO.C,D14*%
X107514404Y-77102987D02*
X103979803Y-75454776D01*
X106669167Y-78915603D02*
X103134567Y-77267392D01*
X107514404Y-77102987D02*
X106669167Y-78915603D01*
%TO.C,D13*%
X92314404Y-64502987D02*
X88779803Y-62854776D01*
X91469167Y-66315603D02*
X87934567Y-64667392D01*
X92314404Y-64502987D02*
X91469167Y-66315603D01*
%TO.C,D12*%
X73114404Y-61102987D02*
X69579803Y-59454776D01*
X72269167Y-62915603D02*
X68734567Y-61267392D01*
X73114404Y-61102987D02*
X72269167Y-62915603D01*
%TO.C,D11*%
X50514404Y-64302987D02*
X46979803Y-62654776D01*
X49669167Y-66115603D02*
X46134567Y-64467392D01*
X50514404Y-64302987D02*
X49669167Y-66115603D01*
%TO.C,D10*%
X246269167Y-41001205D02*
X242734567Y-42649416D01*
X247114404Y-42813821D02*
X243579803Y-44462032D01*
X246269167Y-41001205D02*
X247114404Y-42813821D01*
%TO.C,D9*%
X223469167Y-37601205D02*
X219934567Y-39249416D01*
X224314404Y-39413821D02*
X220779803Y-41062032D01*
X223469167Y-37601205D02*
X224314404Y-39413821D01*
%TO.C,D8*%
X204269167Y-41201205D02*
X200734567Y-42849416D01*
X205114404Y-43013821D02*
X201579803Y-44662032D01*
X204269167Y-41201205D02*
X205114404Y-43013821D01*
%TO.C,D7*%
X189069167Y-53801205D02*
X185534567Y-55449416D01*
X189914404Y-55613821D02*
X186379803Y-57262032D01*
X189069167Y-53801205D02*
X189914404Y-55613821D01*
%TO.C,D6*%
X173069167Y-64001205D02*
X169534567Y-65649416D01*
X173914404Y-65813821D02*
X170379803Y-67462032D01*
X173069167Y-64001205D02*
X173914404Y-65813821D01*
%TO.C,D5*%
X131514404Y-70102987D02*
X127979803Y-68454776D01*
X130669167Y-71915603D02*
X127134567Y-70267392D01*
X131514404Y-70102987D02*
X130669167Y-71915603D01*
%TO.C,D4*%
X115514404Y-59902987D02*
X111979803Y-58254776D01*
X114669167Y-61715603D02*
X111134567Y-60067392D01*
X115514404Y-59902987D02*
X114669167Y-61715603D01*
%TO.C,D3*%
X100314404Y-47302987D02*
X96779803Y-45654776D01*
X99469167Y-49115603D02*
X95934567Y-47467392D01*
X100314404Y-47302987D02*
X99469167Y-49115603D01*
%TO.C,D2*%
X81114404Y-43902987D02*
X77579803Y-42254776D01*
X80269167Y-45715603D02*
X76734567Y-44067392D01*
X81114404Y-43902987D02*
X80269167Y-45715603D01*
%TO.C,D1*%
X58514404Y-47102987D02*
X54979803Y-45454776D01*
X57669167Y-48915603D02*
X54134567Y-47267392D01*
X58514404Y-47102987D02*
X57669167Y-48915603D01*
%TO.C,C8*%
X135913845Y-78323404D02*
X135391341Y-78323404D01*
X135913845Y-79793404D02*
X135391341Y-79793404D01*
%TO.C,C7*%
X149191341Y-95593404D02*
X149713845Y-95593404D01*
X149191341Y-94123404D02*
X149713845Y-94123404D01*
%TO.C,C6*%
X135987593Y-91319656D02*
X135987593Y-90797152D01*
X134517593Y-91319656D02*
X134517593Y-90797152D01*
%TO.C,C4*%
X155191341Y-83593404D02*
X155713845Y-83593404D01*
X155191341Y-82123404D02*
X155713845Y-82123404D01*
%TO.C,C3*%
X159391341Y-86393404D02*
X159913845Y-86393404D01*
X159391341Y-84923404D02*
X159913845Y-84923404D01*
%TO.C,C2*%
X159391341Y-88993404D02*
X159913845Y-88993404D01*
X159391341Y-87523404D02*
X159913845Y-87523404D01*
%TO.C,C1*%
X144713845Y-77123404D02*
X144191341Y-77123404D01*
X144713845Y-78593404D02*
X144191341Y-78593404D01*
%TO.C,SW40*%
D11*
X234494906Y-85508726D02*
X234385558Y-85612257D01*
X234169770Y-85712881D01*
X234063331Y-85709972D01*
X234000048Y-85686940D01*
X233916642Y-85620749D01*
X233876392Y-85534434D01*
X233879300Y-85427994D01*
X233902333Y-85364712D01*
X233968524Y-85281305D01*
X234121029Y-85157649D01*
X234187219Y-85074242D01*
X234210252Y-85010960D01*
X234213160Y-84904520D01*
X234172911Y-84818205D01*
X234089504Y-84752015D01*
X234026222Y-84728982D01*
X233919782Y-84726074D01*
X233703995Y-84826697D01*
X233594647Y-84930229D01*
X233272419Y-85027944D02*
X233479250Y-86034875D01*
X233004750Y-85468011D01*
X233133990Y-86195873D01*
X232495584Y-85390188D01*
X231902779Y-86034411D02*
X232184525Y-86638616D01*
X231957569Y-85588527D02*
X232475227Y-86135266D01*
X231914179Y-86396887D01*
X231114544Y-86034178D02*
X231028229Y-86074428D01*
X230962038Y-86157834D01*
X230939006Y-86221117D01*
X230936097Y-86327556D01*
X230973439Y-86520311D01*
X231074062Y-86736099D01*
X231197718Y-86888604D01*
X231281125Y-86954794D01*
X231344407Y-86977827D01*
X231450847Y-86980735D01*
X231537162Y-86940486D01*
X231603352Y-86857079D01*
X231626385Y-86793797D01*
X231629293Y-86687357D01*
X231591952Y-86494602D01*
X231491329Y-86278815D01*
X231367673Y-86126309D01*
X231284266Y-86060119D01*
X231220983Y-86037086D01*
X231114544Y-86034178D01*
%TO.C,SW39*%
X215161968Y-89006934D02*
X215052620Y-89110465D01*
X214836832Y-89211089D01*
X214730393Y-89208180D01*
X214667110Y-89185148D01*
X214583704Y-89118957D01*
X214543454Y-89032642D01*
X214546362Y-88926202D01*
X214569395Y-88862920D01*
X214635586Y-88779513D01*
X214788091Y-88655857D01*
X214854281Y-88572450D01*
X214877314Y-88509168D01*
X214880222Y-88402728D01*
X214839973Y-88316413D01*
X214756566Y-88250223D01*
X214693284Y-88227190D01*
X214586844Y-88224282D01*
X214371057Y-88324905D01*
X214261709Y-88428437D01*
X213939481Y-88526152D02*
X214146312Y-89533083D01*
X213671812Y-88966219D01*
X213801052Y-89694081D01*
X213162646Y-88888396D01*
X212903701Y-89009144D02*
X212342653Y-89270765D01*
X212805753Y-89475153D01*
X212676281Y-89535527D01*
X212610091Y-89618934D01*
X212587058Y-89682216D01*
X212584150Y-89788655D01*
X212684773Y-90004443D01*
X212768180Y-90070633D01*
X212831462Y-90093666D01*
X212937902Y-90096574D01*
X213196847Y-89975826D01*
X213263037Y-89892419D01*
X213286070Y-89829137D01*
X212333697Y-90378320D02*
X212161067Y-90458819D01*
X212054627Y-90455910D01*
X211991345Y-90432878D01*
X211844656Y-90343654D01*
X211720999Y-90191149D01*
X211560002Y-89845889D01*
X211562910Y-89739449D01*
X211585943Y-89676167D01*
X211652133Y-89592760D01*
X211824763Y-89512261D01*
X211931203Y-89515170D01*
X211994485Y-89538202D01*
X212077892Y-89604393D01*
X212178515Y-89820180D01*
X212175607Y-89926620D01*
X212152574Y-89989902D01*
X212086384Y-90073309D01*
X211913754Y-90153808D01*
X211807314Y-90150900D01*
X211744032Y-90127867D01*
X211660625Y-90061677D01*
%TO.C,SW38*%
X206394485Y-115162837D02*
X206285137Y-115266368D01*
X206069349Y-115366992D01*
X205962910Y-115364083D01*
X205899627Y-115341051D01*
X205816221Y-115274860D01*
X205775971Y-115188545D01*
X205778879Y-115082105D01*
X205801912Y-115018823D01*
X205868103Y-114935416D01*
X206020608Y-114811760D01*
X206086798Y-114728353D01*
X206109831Y-114665071D01*
X206112739Y-114558631D01*
X206072490Y-114472316D01*
X205989083Y-114406126D01*
X205925801Y-114383093D01*
X205819361Y-114380185D01*
X205603574Y-114480808D01*
X205494226Y-114584340D01*
X205171998Y-114682055D02*
X205378829Y-115688986D01*
X204904329Y-115122122D01*
X205033569Y-115849984D01*
X204395163Y-115044299D01*
X204136218Y-115165047D02*
X203575170Y-115426668D01*
X204038270Y-115631056D01*
X203908798Y-115691430D01*
X203842608Y-115774837D01*
X203819575Y-115838119D01*
X203816667Y-115944558D01*
X203917290Y-116160346D01*
X204000697Y-116226536D01*
X204063979Y-116249569D01*
X204170419Y-116252477D01*
X204429364Y-116131729D01*
X204495554Y-116048322D01*
X204518587Y-115985040D01*
X203238402Y-116056582D02*
X203304593Y-115973175D01*
X203327626Y-115909893D01*
X203330534Y-115803453D01*
X203310409Y-115760296D01*
X203227002Y-115694105D01*
X203163720Y-115671073D01*
X203057280Y-115668164D01*
X202884650Y-115748663D01*
X202818460Y-115832070D01*
X202795427Y-115895352D01*
X202792519Y-116001792D01*
X202812644Y-116044949D01*
X202896050Y-116111140D01*
X202959333Y-116134173D01*
X203065772Y-116137081D01*
X203238402Y-116056582D01*
X203344842Y-116059490D01*
X203408124Y-116082523D01*
X203491531Y-116148713D01*
X203572030Y-116321343D01*
X203569122Y-116427783D01*
X203546089Y-116491065D01*
X203479899Y-116574472D01*
X203307268Y-116654971D01*
X203200829Y-116652063D01*
X203137547Y-116629030D01*
X203054140Y-116562840D01*
X202973641Y-116390210D01*
X202976549Y-116283770D01*
X202999582Y-116220488D01*
X203065772Y-116137081D01*
%TO.C,SW37*%
X188245206Y-126283498D02*
X188155497Y-126404445D01*
X187960461Y-126541010D01*
X187855133Y-126556629D01*
X187788813Y-126544935D01*
X187695179Y-126494234D01*
X187640553Y-126416220D01*
X187624934Y-126310892D01*
X187636628Y-126244572D01*
X187687329Y-126150938D01*
X187816045Y-126002678D01*
X187866746Y-125909045D01*
X187878440Y-125842724D01*
X187862821Y-125737396D01*
X187808195Y-125659382D01*
X187714561Y-125608681D01*
X187648241Y-125596987D01*
X187542913Y-125612606D01*
X187347877Y-125749171D01*
X187258169Y-125870118D01*
X186957805Y-126022303D02*
X187336345Y-126978021D01*
X186770619Y-126502165D01*
X187024287Y-127196526D01*
X186255674Y-126513940D01*
X186021631Y-126677819D02*
X185514537Y-127032890D01*
X186006093Y-127153756D01*
X185889071Y-127235695D01*
X185838370Y-127329329D01*
X185826676Y-127395649D01*
X185842295Y-127500977D01*
X185978861Y-127696013D01*
X186072494Y-127746715D01*
X186138815Y-127758409D01*
X186244142Y-127742790D01*
X186478186Y-127578911D01*
X186528887Y-127485277D01*
X186540581Y-127418957D01*
X185241486Y-127224082D02*
X184695385Y-127606467D01*
X185620026Y-128179800D01*
%TO.C,SW36*%
X172302739Y-140386802D02*
X172235395Y-140521489D01*
X172067037Y-140689848D01*
X171966021Y-140723519D01*
X171898678Y-140723519D01*
X171797663Y-140689848D01*
X171730319Y-140622504D01*
X171696647Y-140521489D01*
X171696647Y-140454145D01*
X171730319Y-140353130D01*
X171831334Y-140184771D01*
X171865006Y-140083756D01*
X171865006Y-140016413D01*
X171831334Y-139915397D01*
X171763991Y-139848054D01*
X171662976Y-139814382D01*
X171595632Y-139814382D01*
X171494617Y-139848054D01*
X171326258Y-140016413D01*
X171258915Y-140151100D01*
X170989541Y-140353130D02*
X171528289Y-141228596D01*
X170888525Y-140858206D01*
X171258915Y-141497970D01*
X170383449Y-140959222D01*
X170181419Y-141161252D02*
X169743686Y-141598985D01*
X170248762Y-141632657D01*
X170147747Y-141733672D01*
X170114075Y-141834687D01*
X170114075Y-141902031D01*
X170147747Y-142003046D01*
X170316106Y-142171405D01*
X170417121Y-142205076D01*
X170484464Y-142205076D01*
X170585480Y-142171405D01*
X170787510Y-141969374D01*
X170821182Y-141868359D01*
X170821182Y-141801015D01*
X169137594Y-142205076D02*
X169272281Y-142070389D01*
X169373297Y-142036718D01*
X169440640Y-142036718D01*
X169608999Y-142070389D01*
X169777358Y-142171405D01*
X170046732Y-142440779D01*
X170080403Y-142541794D01*
X170080403Y-142609137D01*
X170046732Y-142710153D01*
X169912045Y-142844840D01*
X169811029Y-142878511D01*
X169743686Y-142878511D01*
X169642671Y-142844840D01*
X169474312Y-142676481D01*
X169440640Y-142575466D01*
X169440640Y-142508122D01*
X169474312Y-142407107D01*
X169608999Y-142272420D01*
X169710014Y-142238748D01*
X169777358Y-142238748D01*
X169878373Y-142272420D01*
%TO.C,SW35*%
X114885246Y-135874788D02*
X114750559Y-135807444D01*
X114582200Y-135639086D01*
X114548529Y-135538070D01*
X114548529Y-135470727D01*
X114582200Y-135369712D01*
X114649544Y-135302368D01*
X114750559Y-135268696D01*
X114817903Y-135268696D01*
X114918918Y-135302368D01*
X115087277Y-135403383D01*
X115188292Y-135437055D01*
X115255635Y-135437055D01*
X115356651Y-135403383D01*
X115423994Y-135336040D01*
X115457666Y-135235025D01*
X115457666Y-135167681D01*
X115423994Y-135066666D01*
X115255635Y-134898307D01*
X115120948Y-134830964D01*
X114918918Y-134561590D02*
X114043452Y-135100338D01*
X114413842Y-134460574D01*
X113774078Y-134830964D01*
X114312826Y-133955498D01*
X114110796Y-133753468D02*
X113673063Y-133315735D01*
X113639391Y-133820811D01*
X113538376Y-133719796D01*
X113437361Y-133686124D01*
X113370017Y-133686124D01*
X113269002Y-133719796D01*
X113100643Y-133888155D01*
X113066972Y-133989170D01*
X113066972Y-134056513D01*
X113100643Y-134157529D01*
X113302674Y-134359559D01*
X113403689Y-134393231D01*
X113471033Y-134393231D01*
X113033300Y-132675972D02*
X113370017Y-133012689D01*
X113066972Y-133383078D01*
X113066972Y-133315735D01*
X113033300Y-133214720D01*
X112864941Y-133046361D01*
X112763926Y-133012689D01*
X112696582Y-133012689D01*
X112595567Y-133046361D01*
X112427208Y-133214720D01*
X112393537Y-133315735D01*
X112393537Y-133383078D01*
X112427208Y-133484094D01*
X112595567Y-133652452D01*
X112696582Y-133686124D01*
X112763926Y-133686124D01*
%TO.C,SW34*%
X98227824Y-122623534D02*
X98083489Y-122580602D01*
X97888453Y-122444036D01*
X97837751Y-122350403D01*
X97826057Y-122284082D01*
X97841676Y-122178755D01*
X97896303Y-122100740D01*
X97989936Y-122050039D01*
X98056257Y-122038345D01*
X98161584Y-122053964D01*
X98344926Y-122124209D01*
X98450254Y-122139828D01*
X98516574Y-122128134D01*
X98610208Y-122077433D01*
X98664834Y-121999418D01*
X98680453Y-121894091D01*
X98668759Y-121827770D01*
X98618058Y-121734137D01*
X98423022Y-121597571D01*
X98278687Y-121554639D01*
X98032949Y-121324439D02*
X97264337Y-122007026D01*
X97518005Y-121312664D01*
X96952279Y-121788520D01*
X97330819Y-120832802D01*
X97096776Y-120668923D02*
X96589682Y-120313852D01*
X96644227Y-120817102D01*
X96527205Y-120735163D01*
X96421878Y-120719544D01*
X96355557Y-120731238D01*
X96261924Y-120781939D01*
X96125358Y-120976975D01*
X96109739Y-121082303D01*
X96121433Y-121148623D01*
X96172134Y-121242257D01*
X96406178Y-121406136D01*
X96511505Y-121421755D01*
X96577826Y-121410061D01*
X95696359Y-120095266D02*
X95313975Y-120641367D01*
X96109901Y-119919774D02*
X95895239Y-120641448D01*
X95388145Y-120286377D01*
%TO.C,SW33*%
X79522408Y-112466129D02*
X79372811Y-112448913D01*
X79157023Y-112348289D01*
X79090833Y-112264882D01*
X79067800Y-112201600D01*
X79064892Y-112095160D01*
X79105141Y-112008845D01*
X79188548Y-111942655D01*
X79251831Y-111919622D01*
X79358270Y-111916714D01*
X79551025Y-111954055D01*
X79657465Y-111951147D01*
X79720747Y-111928114D01*
X79804154Y-111861924D01*
X79844403Y-111775609D01*
X79841495Y-111669169D01*
X79818462Y-111605887D01*
X79752272Y-111522480D01*
X79536484Y-111421857D01*
X79386887Y-111404640D01*
X79104909Y-111220610D02*
X78466503Y-112026294D01*
X78595743Y-111298433D01*
X78121243Y-111865297D01*
X78328074Y-110858366D01*
X78069129Y-110737618D02*
X77508081Y-110475997D01*
X77649186Y-110962130D01*
X77519714Y-110901756D01*
X77413274Y-110904664D01*
X77349992Y-110927697D01*
X77266585Y-110993887D01*
X77165962Y-111209675D01*
X77168870Y-111316114D01*
X77191903Y-111379397D01*
X77258093Y-111462803D01*
X77517038Y-111583551D01*
X77623478Y-111580643D01*
X77686760Y-111557610D01*
X77205978Y-110335124D02*
X76644931Y-110073503D01*
X76786036Y-110559636D01*
X76656563Y-110499262D01*
X76550124Y-110502170D01*
X76486842Y-110525203D01*
X76403435Y-110591393D01*
X76302811Y-110807181D01*
X76305719Y-110913621D01*
X76328752Y-110976903D01*
X76394943Y-111060310D01*
X76653888Y-111181058D01*
X76760327Y-111178150D01*
X76823610Y-111155117D01*
%TO.C,SW32*%
X70754925Y-86310226D02*
X70605328Y-86293010D01*
X70389540Y-86192386D01*
X70323350Y-86108979D01*
X70300317Y-86045697D01*
X70297409Y-85939257D01*
X70337658Y-85852942D01*
X70421065Y-85786752D01*
X70484348Y-85763719D01*
X70590787Y-85760811D01*
X70783542Y-85798152D01*
X70889982Y-85795244D01*
X70953264Y-85772211D01*
X71036671Y-85706021D01*
X71076920Y-85619706D01*
X71074012Y-85513266D01*
X71050979Y-85449984D01*
X70984789Y-85366577D01*
X70769001Y-85265954D01*
X70619404Y-85248737D01*
X70337426Y-85064707D02*
X69699020Y-85870391D01*
X69828260Y-85142530D01*
X69353760Y-85709394D01*
X69560591Y-84702463D01*
X69301646Y-84581715D02*
X68740598Y-84320094D01*
X68881703Y-84806227D01*
X68752231Y-84745853D01*
X68645791Y-84748761D01*
X68582509Y-84771794D01*
X68499102Y-84837984D01*
X68398479Y-85053772D01*
X68401387Y-85160211D01*
X68424420Y-85223494D01*
X68490610Y-85306900D01*
X68749555Y-85427648D01*
X68855995Y-85424740D01*
X68919277Y-85401707D01*
X68355089Y-84245411D02*
X68332056Y-84182129D01*
X68265865Y-84098722D01*
X68050078Y-83998099D01*
X67943638Y-84001007D01*
X67880356Y-84024040D01*
X67796949Y-84090230D01*
X67756700Y-84176545D01*
X67739483Y-84326143D01*
X68015877Y-85085529D01*
X67454830Y-84823908D01*
%TO.C,SW31*%
X51421987Y-82812018D02*
X51272390Y-82794802D01*
X51056602Y-82694178D01*
X50990412Y-82610771D01*
X50967379Y-82547489D01*
X50964471Y-82441049D01*
X51004720Y-82354734D01*
X51088127Y-82288544D01*
X51151410Y-82265511D01*
X51257849Y-82262603D01*
X51450604Y-82299944D01*
X51557044Y-82297036D01*
X51620326Y-82274003D01*
X51703733Y-82207813D01*
X51743982Y-82121498D01*
X51741074Y-82015058D01*
X51718041Y-81951776D01*
X51651851Y-81868369D01*
X51436063Y-81767746D01*
X51286466Y-81750529D01*
X51004488Y-81566499D02*
X50366082Y-82372183D01*
X50495322Y-81644322D01*
X50020822Y-82211186D01*
X50227653Y-81204255D01*
X49968708Y-81083507D02*
X49407660Y-80821886D01*
X49548765Y-81308019D01*
X49419293Y-81247645D01*
X49312853Y-81250553D01*
X49249571Y-81273586D01*
X49166164Y-81339776D01*
X49065541Y-81555564D01*
X49068449Y-81662003D01*
X49091482Y-81725286D01*
X49157672Y-81808692D01*
X49416617Y-81929440D01*
X49523057Y-81926532D01*
X49586339Y-81903499D01*
X48121892Y-81325700D02*
X48639782Y-81567196D01*
X48380837Y-81446448D02*
X48803455Y-80540140D01*
X48829396Y-80709862D01*
X48875462Y-80836427D01*
X48941652Y-80919834D01*
%TO.C,SW30*%
X248967734Y-71587979D02*
X248858386Y-71691510D01*
X248642598Y-71792134D01*
X248536159Y-71789225D01*
X248472876Y-71766193D01*
X248389470Y-71700002D01*
X248349220Y-71613687D01*
X248352128Y-71507247D01*
X248375161Y-71443965D01*
X248441352Y-71360558D01*
X248593857Y-71236902D01*
X248660047Y-71153495D01*
X248683080Y-71090213D01*
X248685988Y-70983773D01*
X248645739Y-70897458D01*
X248562332Y-70831268D01*
X248499050Y-70808235D01*
X248392610Y-70805327D01*
X248176823Y-70905950D01*
X248067475Y-71009482D01*
X247745247Y-71107197D02*
X247952078Y-72114128D01*
X247477578Y-71547264D01*
X247606818Y-72275126D01*
X246968412Y-71469441D01*
X246709467Y-71590189D02*
X246148419Y-71851810D01*
X246611519Y-72056198D01*
X246482047Y-72116572D01*
X246415857Y-72199979D01*
X246392824Y-72263261D01*
X246389916Y-72369700D01*
X246490539Y-72585488D01*
X246573946Y-72651678D01*
X246637228Y-72674711D01*
X246743668Y-72677619D01*
X247002613Y-72556871D01*
X247068803Y-72473464D01*
X247091836Y-72410182D01*
X245587372Y-72113431D02*
X245501057Y-72153681D01*
X245434866Y-72237087D01*
X245411834Y-72300370D01*
X245408925Y-72406809D01*
X245446267Y-72599564D01*
X245546890Y-72815352D01*
X245670546Y-72967857D01*
X245753953Y-73034047D01*
X245817235Y-73057080D01*
X245923675Y-73059988D01*
X246009990Y-73019739D01*
X246076180Y-72936332D01*
X246099213Y-72873050D01*
X246102121Y-72766610D01*
X246064780Y-72573855D01*
X245964157Y-72358068D01*
X245840501Y-72205562D01*
X245757094Y-72139372D01*
X245693811Y-72116339D01*
X245587372Y-72113431D01*
%TO.C,SW29*%
X226465159Y-68288879D02*
X226355811Y-68392410D01*
X226140023Y-68493034D01*
X226033584Y-68490125D01*
X225970301Y-68467093D01*
X225886895Y-68400902D01*
X225846645Y-68314587D01*
X225849553Y-68208147D01*
X225872586Y-68144865D01*
X225938777Y-68061458D01*
X226091282Y-67937802D01*
X226157472Y-67854395D01*
X226180505Y-67791113D01*
X226183413Y-67684673D01*
X226143164Y-67598358D01*
X226059757Y-67532168D01*
X225996475Y-67509135D01*
X225890035Y-67506227D01*
X225674248Y-67606850D01*
X225564900Y-67710382D01*
X225242672Y-67808097D02*
X225449503Y-68815028D01*
X224975003Y-68248164D01*
X225104243Y-68976026D01*
X224465837Y-68170341D01*
X224203984Y-68397529D02*
X224140702Y-68374496D01*
X224034262Y-68371588D01*
X223818474Y-68472212D01*
X223752284Y-68555618D01*
X223729251Y-68618901D01*
X223726343Y-68725340D01*
X223766593Y-68811655D01*
X223870124Y-68921003D01*
X224629510Y-69197397D01*
X224068463Y-69459018D01*
X223636888Y-69660265D02*
X223464258Y-69740764D01*
X223357818Y-69737855D01*
X223294536Y-69714823D01*
X223147847Y-69625599D01*
X223024190Y-69473094D01*
X222863193Y-69127834D01*
X222866101Y-69021394D01*
X222889134Y-68958112D01*
X222955324Y-68874705D01*
X223127954Y-68794206D01*
X223234394Y-68797115D01*
X223297676Y-68820147D01*
X223381083Y-68886338D01*
X223481706Y-69102125D01*
X223478798Y-69208565D01*
X223455765Y-69271847D01*
X223389575Y-69355254D01*
X223216945Y-69435753D01*
X223110505Y-69432845D01*
X223047223Y-69409812D01*
X222963816Y-69343622D01*
%TO.C,SW28*%
X207132221Y-71787087D02*
X207022873Y-71890618D01*
X206807085Y-71991242D01*
X206700646Y-71988333D01*
X206637363Y-71965301D01*
X206553957Y-71899110D01*
X206513707Y-71812795D01*
X206516615Y-71706355D01*
X206539648Y-71643073D01*
X206605839Y-71559666D01*
X206758344Y-71436010D01*
X206824534Y-71352603D01*
X206847567Y-71289321D01*
X206850475Y-71182881D01*
X206810226Y-71096566D01*
X206726819Y-71030376D01*
X206663537Y-71007343D01*
X206557097Y-71004435D01*
X206341310Y-71105058D01*
X206231962Y-71208590D01*
X205909734Y-71306305D02*
X206116565Y-72313236D01*
X205642065Y-71746372D01*
X205771305Y-72474234D01*
X205132899Y-71668549D01*
X204871046Y-71895737D02*
X204807764Y-71872704D01*
X204701324Y-71869796D01*
X204485536Y-71970420D01*
X204419346Y-72053826D01*
X204396313Y-72117109D01*
X204393405Y-72223548D01*
X204433655Y-72309863D01*
X204537186Y-72419211D01*
X205296572Y-72695605D01*
X204735525Y-72957226D01*
X203976138Y-72680832D02*
X204042329Y-72597425D01*
X204065362Y-72534143D01*
X204068270Y-72427703D01*
X204048145Y-72384546D01*
X203964738Y-72318355D01*
X203901456Y-72295323D01*
X203795016Y-72292414D01*
X203622386Y-72372913D01*
X203556196Y-72456320D01*
X203533163Y-72519602D01*
X203530255Y-72626042D01*
X203550380Y-72669199D01*
X203633786Y-72735390D01*
X203697069Y-72758423D01*
X203803508Y-72761331D01*
X203976138Y-72680832D01*
X204082578Y-72683740D01*
X204145860Y-72706773D01*
X204229267Y-72772963D01*
X204309766Y-72945593D01*
X204306858Y-73052033D01*
X204283825Y-73115315D01*
X204217635Y-73198722D01*
X204045004Y-73279221D01*
X203938565Y-73276313D01*
X203875283Y-73253280D01*
X203791876Y-73187090D01*
X203711377Y-73014460D01*
X203714285Y-72908020D01*
X203737318Y-72844738D01*
X203803508Y-72761331D01*
%TO.C,SW27*%
X192025465Y-84348373D02*
X191916117Y-84451904D01*
X191700329Y-84552528D01*
X191593890Y-84549619D01*
X191530607Y-84526587D01*
X191447201Y-84460396D01*
X191406951Y-84374081D01*
X191409859Y-84267641D01*
X191432892Y-84204359D01*
X191499083Y-84120952D01*
X191651588Y-83997296D01*
X191717778Y-83913889D01*
X191740811Y-83850607D01*
X191743719Y-83744167D01*
X191703470Y-83657852D01*
X191620063Y-83591662D01*
X191556781Y-83568629D01*
X191450341Y-83565721D01*
X191234554Y-83666344D01*
X191125206Y-83769876D01*
X190802978Y-83867591D02*
X191009809Y-84874522D01*
X190535309Y-84307658D01*
X190664549Y-85035520D01*
X190026143Y-84229835D01*
X189764290Y-84457023D02*
X189701008Y-84433990D01*
X189594568Y-84431082D01*
X189378780Y-84531706D01*
X189312590Y-84615112D01*
X189289557Y-84678395D01*
X189286649Y-84784834D01*
X189326899Y-84871149D01*
X189430430Y-84980497D01*
X190189816Y-85256891D01*
X189628769Y-85518512D01*
X188904048Y-84753077D02*
X188299843Y-85034823D01*
X189110879Y-85760008D01*
%TO.C,SW26*%
X175862163Y-94643889D02*
X175752815Y-94747420D01*
X175537027Y-94848044D01*
X175430588Y-94845135D01*
X175367305Y-94822103D01*
X175283899Y-94755912D01*
X175243649Y-94669597D01*
X175246557Y-94563157D01*
X175269590Y-94499875D01*
X175335781Y-94416468D01*
X175488286Y-94292812D01*
X175554476Y-94209405D01*
X175577509Y-94146123D01*
X175580417Y-94039683D01*
X175540168Y-93953368D01*
X175456761Y-93887178D01*
X175393479Y-93864145D01*
X175287039Y-93861237D01*
X175071252Y-93961860D01*
X174961904Y-94065392D01*
X174639676Y-94163107D02*
X174846507Y-95170038D01*
X174372007Y-94603174D01*
X174501247Y-95331036D01*
X173862841Y-94525351D01*
X173600988Y-94752539D02*
X173537706Y-94729506D01*
X173431266Y-94726598D01*
X173215478Y-94827222D01*
X173149288Y-94910628D01*
X173126255Y-94973911D01*
X173123347Y-95080350D01*
X173163597Y-95166665D01*
X173267128Y-95276013D01*
X174026514Y-95552407D01*
X173465467Y-95814028D01*
X172266013Y-95269965D02*
X172438643Y-95189466D01*
X172545083Y-95192374D01*
X172608365Y-95215407D01*
X172755054Y-95304630D01*
X172878710Y-95457135D01*
X173039708Y-95802395D01*
X173036800Y-95908835D01*
X173013767Y-95972117D01*
X172947577Y-96055524D01*
X172774946Y-96136023D01*
X172668507Y-96133115D01*
X172605225Y-96110082D01*
X172521818Y-96043892D01*
X172421194Y-95828104D01*
X172424102Y-95721664D01*
X172447135Y-95658382D01*
X172513326Y-95574975D01*
X172685956Y-95494477D01*
X172792395Y-95497385D01*
X172855678Y-95520418D01*
X172939084Y-95586608D01*
%TO.C,SW25*%
X110054730Y-91947181D02*
X109905133Y-91929965D01*
X109689345Y-91829341D01*
X109623155Y-91745934D01*
X109600122Y-91682652D01*
X109597214Y-91576212D01*
X109637463Y-91489897D01*
X109720870Y-91423707D01*
X109784153Y-91400674D01*
X109890592Y-91397766D01*
X110083347Y-91435107D01*
X110189787Y-91432199D01*
X110253069Y-91409166D01*
X110336476Y-91342976D01*
X110376725Y-91256661D01*
X110373817Y-91150221D01*
X110350784Y-91086939D01*
X110284594Y-91003532D01*
X110068806Y-90902909D01*
X109919209Y-90885692D01*
X109637231Y-90701662D02*
X108998825Y-91507346D01*
X109128065Y-90779485D01*
X108653565Y-91346349D01*
X108860396Y-90339418D01*
X108518044Y-90284860D02*
X108495011Y-90221578D01*
X108428821Y-90138171D01*
X108213033Y-90037548D01*
X108106593Y-90040456D01*
X108043311Y-90063489D01*
X107959904Y-90129679D01*
X107919655Y-90215994D01*
X107902438Y-90365591D01*
X108178832Y-91124977D01*
X107617785Y-90863357D01*
X107220410Y-89574680D02*
X107651985Y-89775927D01*
X107493896Y-90227627D01*
X107470863Y-90164344D01*
X107404673Y-90080938D01*
X107188885Y-89980314D01*
X107082446Y-89983222D01*
X107019164Y-90006255D01*
X106935757Y-90072445D01*
X106835133Y-90288233D01*
X106838041Y-90394673D01*
X106861074Y-90457955D01*
X106927265Y-90541362D01*
X107143052Y-90641985D01*
X107249492Y-90639077D01*
X107312774Y-90616044D01*
%TO.C,SW24*%
X93891428Y-81651665D02*
X93741831Y-81634449D01*
X93526043Y-81533825D01*
X93459853Y-81450418D01*
X93436820Y-81387136D01*
X93433912Y-81280696D01*
X93474161Y-81194381D01*
X93557568Y-81128191D01*
X93620851Y-81105158D01*
X93727290Y-81102250D01*
X93920045Y-81139591D01*
X94026485Y-81136683D01*
X94089767Y-81113650D01*
X94173174Y-81047460D01*
X94213423Y-80961145D01*
X94210515Y-80854705D01*
X94187482Y-80791423D01*
X94121292Y-80708016D01*
X93905504Y-80607393D01*
X93755907Y-80590176D01*
X93473929Y-80406146D02*
X92835523Y-81211830D01*
X92964763Y-80483969D01*
X92490263Y-81050833D01*
X92697094Y-80043902D01*
X92354742Y-79989344D02*
X92331709Y-79926062D01*
X92265519Y-79842655D01*
X92049731Y-79742032D01*
X91943291Y-79744940D01*
X91880009Y-79767973D01*
X91796602Y-79834163D01*
X91756353Y-79920478D01*
X91739136Y-80070075D01*
X92015530Y-80829461D01*
X91454483Y-80567841D01*
X90959393Y-79601391D02*
X90677648Y-80205596D01*
X91336178Y-79356755D02*
X91250095Y-80104741D01*
X90689048Y-79843120D01*
%TO.C,SW23*%
X78784672Y-69090379D02*
X78635075Y-69073163D01*
X78419287Y-68972539D01*
X78353097Y-68889132D01*
X78330064Y-68825850D01*
X78327156Y-68719410D01*
X78367405Y-68633095D01*
X78450812Y-68566905D01*
X78514095Y-68543872D01*
X78620534Y-68540964D01*
X78813289Y-68578305D01*
X78919729Y-68575397D01*
X78983011Y-68552364D01*
X79066418Y-68486174D01*
X79106667Y-68399859D01*
X79103759Y-68293419D01*
X79080726Y-68230137D01*
X79014536Y-68146730D01*
X78798748Y-68046107D01*
X78649151Y-68028890D01*
X78367173Y-67844860D02*
X77728767Y-68650544D01*
X77858007Y-67922683D01*
X77383507Y-68489547D01*
X77590338Y-67482616D01*
X77247986Y-67428058D02*
X77224953Y-67364776D01*
X77158763Y-67281369D01*
X76942975Y-67180746D01*
X76836535Y-67183654D01*
X76773253Y-67206687D01*
X76689846Y-67272877D01*
X76649597Y-67359192D01*
X76632380Y-67508789D01*
X76908774Y-68268175D01*
X76347727Y-68006555D01*
X76468242Y-66959374D02*
X75907195Y-66697753D01*
X76048300Y-67183886D01*
X75918827Y-67123512D01*
X75812388Y-67126420D01*
X75749106Y-67149453D01*
X75665699Y-67215643D01*
X75565075Y-67431431D01*
X75567983Y-67537871D01*
X75591016Y-67601153D01*
X75657207Y-67684560D01*
X75916152Y-67805308D01*
X76022591Y-67802400D01*
X76085874Y-67779367D01*
%TO.C,SW22*%
X59451734Y-65592171D02*
X59302137Y-65574955D01*
X59086349Y-65474331D01*
X59020159Y-65390924D01*
X58997126Y-65327642D01*
X58994218Y-65221202D01*
X59034467Y-65134887D01*
X59117874Y-65068697D01*
X59181157Y-65045664D01*
X59287596Y-65042756D01*
X59480351Y-65080097D01*
X59586791Y-65077189D01*
X59650073Y-65054156D01*
X59733480Y-64987966D01*
X59773729Y-64901651D01*
X59770821Y-64795211D01*
X59747788Y-64731929D01*
X59681598Y-64648522D01*
X59465810Y-64547899D01*
X59316213Y-64530682D01*
X59034235Y-64346652D02*
X58395829Y-65152336D01*
X58525069Y-64424475D01*
X58050569Y-64991339D01*
X58257400Y-63984408D01*
X57915048Y-63929850D02*
X57892015Y-63866568D01*
X57825825Y-63783161D01*
X57610037Y-63682538D01*
X57503597Y-63685446D01*
X57440315Y-63708479D01*
X57356908Y-63774669D01*
X57316659Y-63860984D01*
X57299442Y-64010581D01*
X57575836Y-64769967D01*
X57014789Y-64508347D01*
X57051898Y-63527356D02*
X57028865Y-63464074D01*
X56962674Y-63380667D01*
X56746887Y-63280044D01*
X56640447Y-63282952D01*
X56577165Y-63305985D01*
X56493758Y-63372175D01*
X56453509Y-63458490D01*
X56436292Y-63608088D01*
X56712686Y-64367474D01*
X56151639Y-64105853D01*
%TO.C,SW21*%
X36949159Y-68891271D02*
X36799562Y-68874055D01*
X36583774Y-68773431D01*
X36517584Y-68690024D01*
X36494551Y-68626742D01*
X36491643Y-68520302D01*
X36531892Y-68433987D01*
X36615299Y-68367797D01*
X36678582Y-68344764D01*
X36785021Y-68341856D01*
X36977776Y-68379197D01*
X37084216Y-68376289D01*
X37147498Y-68353256D01*
X37230905Y-68287066D01*
X37271154Y-68200751D01*
X37268246Y-68094311D01*
X37245213Y-68031029D01*
X37179023Y-67947622D01*
X36963235Y-67846999D01*
X36813638Y-67829782D01*
X36531660Y-67645752D02*
X35893254Y-68451436D01*
X36022494Y-67723575D01*
X35547994Y-68290439D01*
X35754825Y-67283508D01*
X35412473Y-67228950D02*
X35389440Y-67165668D01*
X35323250Y-67082261D01*
X35107462Y-66981638D01*
X35001022Y-66984546D01*
X34937740Y-67007579D01*
X34854333Y-67073769D01*
X34814084Y-67160084D01*
X34796867Y-67309681D01*
X35073261Y-68069067D01*
X34512214Y-67807447D01*
X33649064Y-67404953D02*
X34166954Y-67646449D01*
X33908009Y-67525701D02*
X34330627Y-66619393D01*
X34356568Y-66789115D01*
X34402634Y-66915680D01*
X34468824Y-66999087D01*
%TO.C,SW20*%
X240937987Y-54368132D02*
X240828639Y-54471663D01*
X240612851Y-54572287D01*
X240506412Y-54569378D01*
X240443129Y-54546346D01*
X240359723Y-54480155D01*
X240319473Y-54393840D01*
X240322381Y-54287400D01*
X240345414Y-54224118D01*
X240411605Y-54140711D01*
X240564110Y-54017055D01*
X240630300Y-53933648D01*
X240653333Y-53870366D01*
X240656241Y-53763926D01*
X240615992Y-53677611D01*
X240532585Y-53611421D01*
X240469303Y-53588388D01*
X240362863Y-53585480D01*
X240147076Y-53686103D01*
X240037728Y-53789635D01*
X239715500Y-53887350D02*
X239922331Y-54894281D01*
X239447831Y-54327417D01*
X239577071Y-55055279D01*
X238938665Y-54249594D01*
X238676812Y-54476782D02*
X238613530Y-54453749D01*
X238507090Y-54450841D01*
X238291302Y-54551465D01*
X238225112Y-54634871D01*
X238202079Y-54698154D01*
X238199171Y-54804593D01*
X238239421Y-54890908D01*
X238342952Y-55000256D01*
X239102338Y-55276650D01*
X238541291Y-55538271D01*
X237557625Y-54893584D02*
X237471310Y-54933834D01*
X237405119Y-55017240D01*
X237382087Y-55080523D01*
X237379178Y-55186962D01*
X237416520Y-55379717D01*
X237517143Y-55595505D01*
X237640799Y-55748010D01*
X237724206Y-55814200D01*
X237787488Y-55837233D01*
X237893928Y-55840141D01*
X237980243Y-55799892D01*
X238046433Y-55716485D01*
X238069466Y-55653203D01*
X238072374Y-55546763D01*
X238035033Y-55354008D01*
X237934410Y-55138221D01*
X237810754Y-54985715D01*
X237727347Y-54919525D01*
X237664064Y-54896492D01*
X237557625Y-54893584D01*
%TO.C,SW19*%
X218435412Y-51069032D02*
X218326064Y-51172563D01*
X218110276Y-51273187D01*
X218003837Y-51270278D01*
X217940554Y-51247246D01*
X217857148Y-51181055D01*
X217816898Y-51094740D01*
X217819806Y-50988300D01*
X217842839Y-50925018D01*
X217909030Y-50841611D01*
X218061535Y-50717955D01*
X218127725Y-50634548D01*
X218150758Y-50571266D01*
X218153666Y-50464826D01*
X218113417Y-50378511D01*
X218030010Y-50312321D01*
X217966728Y-50289288D01*
X217860288Y-50286380D01*
X217644501Y-50387003D01*
X217535153Y-50490535D01*
X217212925Y-50588250D02*
X217419756Y-51595181D01*
X216945256Y-51028317D01*
X217074496Y-51756179D01*
X216436090Y-50950494D01*
X216038716Y-52239171D02*
X216556606Y-51997675D01*
X216297661Y-52118423D02*
X215875043Y-51212115D01*
X216021732Y-51301338D01*
X216148296Y-51347404D01*
X216254736Y-51350312D01*
X215607141Y-52440418D02*
X215434511Y-52520917D01*
X215328071Y-52518008D01*
X215264789Y-52494976D01*
X215118100Y-52405752D01*
X214994443Y-52253247D01*
X214833446Y-51907987D01*
X214836354Y-51801547D01*
X214859387Y-51738265D01*
X214925577Y-51654858D01*
X215098207Y-51574359D01*
X215204647Y-51577268D01*
X215267929Y-51600300D01*
X215351336Y-51666491D01*
X215451959Y-51882278D01*
X215449051Y-51988718D01*
X215426018Y-52052000D01*
X215359828Y-52135407D01*
X215187198Y-52215906D01*
X215080758Y-52212998D01*
X215017476Y-52189965D01*
X214934069Y-52123775D01*
%TO.C,SW18*%
X199102474Y-54567240D02*
X198993126Y-54670771D01*
X198777338Y-54771395D01*
X198670899Y-54768486D01*
X198607616Y-54745454D01*
X198524210Y-54679263D01*
X198483960Y-54592948D01*
X198486868Y-54486508D01*
X198509901Y-54423226D01*
X198576092Y-54339819D01*
X198728597Y-54216163D01*
X198794787Y-54132756D01*
X198817820Y-54069474D01*
X198820728Y-53963034D01*
X198780479Y-53876719D01*
X198697072Y-53810529D01*
X198633790Y-53787496D01*
X198527350Y-53784588D01*
X198311563Y-53885211D01*
X198202215Y-53988743D01*
X197879987Y-54086458D02*
X198086818Y-55093389D01*
X197612318Y-54526525D01*
X197741558Y-55254387D01*
X197103152Y-54448702D01*
X196705778Y-55737379D02*
X197223668Y-55495883D01*
X196964723Y-55616631D02*
X196542105Y-54710323D01*
X196688794Y-54799546D01*
X196815358Y-54845612D01*
X196921798Y-54848520D01*
X195946391Y-55460985D02*
X196012582Y-55377578D01*
X196035615Y-55314296D01*
X196038523Y-55207856D01*
X196018398Y-55164699D01*
X195934991Y-55098508D01*
X195871709Y-55075476D01*
X195765269Y-55072567D01*
X195592639Y-55153066D01*
X195526449Y-55236473D01*
X195503416Y-55299755D01*
X195500508Y-55406195D01*
X195520633Y-55449352D01*
X195604039Y-55515543D01*
X195667322Y-55538576D01*
X195773761Y-55541484D01*
X195946391Y-55460985D01*
X196052831Y-55463893D01*
X196116113Y-55486926D01*
X196199520Y-55553116D01*
X196280019Y-55725746D01*
X196277111Y-55832186D01*
X196254078Y-55895468D01*
X196187888Y-55978875D01*
X196015257Y-56059374D01*
X195908818Y-56056466D01*
X195845536Y-56033433D01*
X195762129Y-55967243D01*
X195681630Y-55794613D01*
X195684538Y-55688173D01*
X195707571Y-55624891D01*
X195773761Y-55541484D01*
%TO.C,SW17*%
X183995718Y-67128525D02*
X183886370Y-67232056D01*
X183670582Y-67332680D01*
X183564143Y-67329771D01*
X183500860Y-67306739D01*
X183417454Y-67240548D01*
X183377204Y-67154233D01*
X183380112Y-67047793D01*
X183403145Y-66984511D01*
X183469336Y-66901104D01*
X183621841Y-66777448D01*
X183688031Y-66694041D01*
X183711064Y-66630759D01*
X183713972Y-66524319D01*
X183673723Y-66438004D01*
X183590316Y-66371814D01*
X183527034Y-66348781D01*
X183420594Y-66345873D01*
X183204807Y-66446496D01*
X183095459Y-66550028D01*
X182773231Y-66647743D02*
X182980062Y-67654674D01*
X182505562Y-67087810D01*
X182634802Y-67815672D01*
X181996396Y-67009987D01*
X181599022Y-68298664D02*
X182116912Y-68057168D01*
X181857967Y-68177916D02*
X181435349Y-67271608D01*
X181582038Y-67360831D01*
X181708602Y-67406897D01*
X181815042Y-67409805D01*
X180874301Y-67533229D02*
X180270096Y-67814975D01*
X181081132Y-68540160D01*
%TO.C,SW16*%
X167832417Y-77424042D02*
X167723069Y-77527573D01*
X167507281Y-77628197D01*
X167400842Y-77625288D01*
X167337559Y-77602256D01*
X167254153Y-77536065D01*
X167213903Y-77449750D01*
X167216811Y-77343310D01*
X167239844Y-77280028D01*
X167306035Y-77196621D01*
X167458540Y-77072965D01*
X167524730Y-76989558D01*
X167547763Y-76926276D01*
X167550671Y-76819836D01*
X167510422Y-76733521D01*
X167427015Y-76667331D01*
X167363733Y-76644298D01*
X167257293Y-76641390D01*
X167041506Y-76742013D01*
X166932158Y-76845545D01*
X166609930Y-76943260D02*
X166816761Y-77950191D01*
X166342261Y-77383327D01*
X166471501Y-78111189D01*
X165833095Y-77305504D01*
X165435721Y-78594181D02*
X165953611Y-78352685D01*
X165694666Y-78473433D02*
X165272048Y-77567125D01*
X165418737Y-77656348D01*
X165545301Y-77702414D01*
X165651741Y-77705322D01*
X164236267Y-78050118D02*
X164408897Y-77969619D01*
X164515337Y-77972527D01*
X164578619Y-77995560D01*
X164725308Y-78084783D01*
X164848964Y-78237288D01*
X165009962Y-78582548D01*
X165007054Y-78688988D01*
X164984021Y-78752270D01*
X164917831Y-78835677D01*
X164745200Y-78916176D01*
X164638761Y-78913268D01*
X164575479Y-78890235D01*
X164492072Y-78824045D01*
X164391448Y-78608257D01*
X164394356Y-78501817D01*
X164417389Y-78438535D01*
X164483580Y-78355128D01*
X164656210Y-78274630D01*
X164762649Y-78277538D01*
X164825932Y-78300571D01*
X164909338Y-78366761D01*
%TO.C,SW15*%
X118084476Y-74727334D02*
X117934879Y-74710118D01*
X117719091Y-74609494D01*
X117652901Y-74526087D01*
X117629868Y-74462805D01*
X117626960Y-74356365D01*
X117667209Y-74270050D01*
X117750616Y-74203860D01*
X117813899Y-74180827D01*
X117920338Y-74177919D01*
X118113093Y-74215260D01*
X118219533Y-74212352D01*
X118282815Y-74189319D01*
X118366222Y-74123129D01*
X118406471Y-74036814D01*
X118403563Y-73930374D01*
X118380530Y-73867092D01*
X118314340Y-73783685D01*
X118098552Y-73683062D01*
X117948955Y-73665845D01*
X117666977Y-73481815D02*
X117028571Y-74287499D01*
X117157811Y-73559638D01*
X116683311Y-74126502D01*
X116890142Y-73119571D01*
X115647531Y-73643510D02*
X116165421Y-73885006D01*
X115906476Y-73764258D02*
X116329094Y-72857950D01*
X116355035Y-73027672D01*
X116401101Y-73154236D01*
X116467291Y-73237643D01*
X115250156Y-72354833D02*
X115681731Y-72556080D01*
X115523642Y-73007780D01*
X115500609Y-72944497D01*
X115434419Y-72861091D01*
X115218631Y-72760467D01*
X115112192Y-72763375D01*
X115048910Y-72786408D01*
X114965503Y-72852598D01*
X114864879Y-73068386D01*
X114867787Y-73174826D01*
X114890820Y-73238108D01*
X114957011Y-73321515D01*
X115172798Y-73422138D01*
X115279238Y-73419230D01*
X115342520Y-73396197D01*
%TO.C,SW14*%
X101921175Y-64431817D02*
X101771578Y-64414601D01*
X101555790Y-64313977D01*
X101489600Y-64230570D01*
X101466567Y-64167288D01*
X101463659Y-64060848D01*
X101503908Y-63974533D01*
X101587315Y-63908343D01*
X101650598Y-63885310D01*
X101757037Y-63882402D01*
X101949792Y-63919743D01*
X102056232Y-63916835D01*
X102119514Y-63893802D01*
X102202921Y-63827612D01*
X102243170Y-63741297D01*
X102240262Y-63634857D01*
X102217229Y-63571575D01*
X102151039Y-63488168D01*
X101935251Y-63387545D01*
X101785654Y-63370328D01*
X101503676Y-63186298D02*
X100865270Y-63991982D01*
X100994510Y-63264121D01*
X100520010Y-63830985D01*
X100726841Y-62824054D01*
X99484230Y-63347993D02*
X100002120Y-63589489D01*
X99743175Y-63468741D02*
X100165793Y-62562433D01*
X100191734Y-62732155D01*
X100237800Y-62858719D01*
X100303990Y-62942126D01*
X98989140Y-62381543D02*
X98707395Y-62985748D01*
X99365925Y-62136907D02*
X99279842Y-62884893D01*
X98718795Y-62623272D01*
%TO.C,SW13*%
X86814419Y-51870532D02*
X86664822Y-51853316D01*
X86449034Y-51752692D01*
X86382844Y-51669285D01*
X86359811Y-51606003D01*
X86356903Y-51499563D01*
X86397152Y-51413248D01*
X86480559Y-51347058D01*
X86543842Y-51324025D01*
X86650281Y-51321117D01*
X86843036Y-51358458D01*
X86949476Y-51355550D01*
X87012758Y-51332517D01*
X87096165Y-51266327D01*
X87136414Y-51180012D01*
X87133506Y-51073572D01*
X87110473Y-51010290D01*
X87044283Y-50926883D01*
X86828495Y-50826260D01*
X86678898Y-50809043D01*
X86396920Y-50625013D02*
X85758514Y-51430697D01*
X85887754Y-50702836D01*
X85413254Y-51269700D01*
X85620085Y-50262769D01*
X84377474Y-50786708D02*
X84895364Y-51028204D01*
X84636419Y-50907456D02*
X85059037Y-50001148D01*
X85084978Y-50170870D01*
X85131044Y-50297434D01*
X85197234Y-50380841D01*
X84497989Y-49739527D02*
X83936942Y-49477906D01*
X84078047Y-49964039D01*
X83948574Y-49903665D01*
X83842135Y-49906573D01*
X83778853Y-49929606D01*
X83695446Y-49995796D01*
X83594822Y-50211584D01*
X83597730Y-50318024D01*
X83620763Y-50381306D01*
X83686954Y-50464713D01*
X83945899Y-50585461D01*
X84052338Y-50582553D01*
X84115621Y-50559520D01*
%TO.C,SW12*%
X67481481Y-48372324D02*
X67331884Y-48355108D01*
X67116096Y-48254484D01*
X67049906Y-48171077D01*
X67026873Y-48107795D01*
X67023965Y-48001355D01*
X67064214Y-47915040D01*
X67147621Y-47848850D01*
X67210904Y-47825817D01*
X67317343Y-47822909D01*
X67510098Y-47860250D01*
X67616538Y-47857342D01*
X67679820Y-47834309D01*
X67763227Y-47768119D01*
X67803476Y-47681804D01*
X67800568Y-47575364D01*
X67777535Y-47512082D01*
X67711345Y-47428675D01*
X67495557Y-47328052D01*
X67345960Y-47310835D01*
X67063982Y-47126805D02*
X66425576Y-47932489D01*
X66554816Y-47204628D01*
X66080316Y-47771492D01*
X66287147Y-46764561D01*
X65044536Y-47288500D02*
X65562426Y-47529996D01*
X65303481Y-47409248D02*
X65726099Y-46502940D01*
X65752040Y-46672662D01*
X65798106Y-46799226D01*
X65864296Y-46882633D01*
X65081645Y-46307509D02*
X65058612Y-46244227D01*
X64992421Y-46160820D01*
X64776634Y-46060197D01*
X64670194Y-46063105D01*
X64606912Y-46086138D01*
X64523505Y-46152328D01*
X64483256Y-46238643D01*
X64466039Y-46388241D01*
X64742433Y-47147627D01*
X64181386Y-46886006D01*
%TO.C,SW11*%
X44978906Y-51671424D02*
X44829309Y-51654208D01*
X44613521Y-51553584D01*
X44547331Y-51470177D01*
X44524298Y-51406895D01*
X44521390Y-51300455D01*
X44561639Y-51214140D01*
X44645046Y-51147950D01*
X44708329Y-51124917D01*
X44814768Y-51122009D01*
X45007523Y-51159350D01*
X45113963Y-51156442D01*
X45177245Y-51133409D01*
X45260652Y-51067219D01*
X45300901Y-50980904D01*
X45297993Y-50874464D01*
X45274960Y-50811182D01*
X45208770Y-50727775D01*
X44992982Y-50627152D01*
X44843385Y-50609935D01*
X44561407Y-50425905D02*
X43923001Y-51231589D01*
X44052241Y-50503728D01*
X43577741Y-51070592D01*
X43784572Y-50063661D01*
X42541961Y-50587600D02*
X43059851Y-50829096D01*
X42800906Y-50708348D02*
X43223524Y-49802040D01*
X43249465Y-49971762D01*
X43295531Y-50098326D01*
X43361721Y-50181733D01*
X41678811Y-50185106D02*
X42196701Y-50426602D01*
X41937756Y-50305854D02*
X42360374Y-49399546D01*
X42386315Y-49569268D01*
X42432381Y-49695833D01*
X42498571Y-49779240D01*
%TO.C,SW10*%
X232908240Y-37148285D02*
X232798892Y-37251816D01*
X232583104Y-37352440D01*
X232476665Y-37349531D01*
X232413382Y-37326499D01*
X232329976Y-37260308D01*
X232289726Y-37173993D01*
X232292634Y-37067553D01*
X232315667Y-37004271D01*
X232381858Y-36920864D01*
X232534363Y-36797208D01*
X232600553Y-36713801D01*
X232623586Y-36650519D01*
X232626494Y-36544079D01*
X232586245Y-36457764D01*
X232502838Y-36391574D01*
X232439556Y-36368541D01*
X232333116Y-36365633D01*
X232117329Y-36466256D01*
X232007981Y-36569788D01*
X231685753Y-36667503D02*
X231892584Y-37674434D01*
X231418084Y-37107570D01*
X231547324Y-37835432D01*
X230908918Y-37029747D01*
X230511544Y-38318424D02*
X231029434Y-38076928D01*
X230770489Y-38197676D02*
X230347871Y-37291368D01*
X230494560Y-37380591D01*
X230621124Y-37426657D01*
X230727564Y-37429565D01*
X229527878Y-37673737D02*
X229441563Y-37713987D01*
X229375372Y-37797393D01*
X229352340Y-37860676D01*
X229349431Y-37967115D01*
X229386773Y-38159870D01*
X229487396Y-38375658D01*
X229611052Y-38528163D01*
X229694459Y-38594353D01*
X229757741Y-38617386D01*
X229864181Y-38620294D01*
X229950496Y-38580045D01*
X230016686Y-38496638D01*
X230039719Y-38433356D01*
X230042627Y-38326916D01*
X230005286Y-38134161D01*
X229904663Y-37918374D01*
X229781007Y-37765868D01*
X229697600Y-37699678D01*
X229634317Y-37676645D01*
X229527878Y-37673737D01*
%TO.C,SW9*%
X209974090Y-34050431D02*
X209864742Y-34153963D01*
X209648954Y-34254586D01*
X209542515Y-34251678D01*
X209479232Y-34228645D01*
X209395825Y-34162455D01*
X209355576Y-34076140D01*
X209358484Y-33969700D01*
X209381517Y-33906418D01*
X209447707Y-33823011D01*
X209600213Y-33699355D01*
X209666403Y-33615948D01*
X209689436Y-33552666D01*
X209692344Y-33446226D01*
X209652095Y-33359911D01*
X209568688Y-33293721D01*
X209505406Y-33270688D01*
X209398966Y-33267780D01*
X209183178Y-33368403D01*
X209073831Y-33471935D01*
X208751603Y-33569650D02*
X208958434Y-34576581D01*
X208483934Y-34009717D01*
X208613174Y-34737579D01*
X207974768Y-33931894D01*
X208008969Y-35019324D02*
X207836339Y-35099823D01*
X207729899Y-35096915D01*
X207666617Y-35073882D01*
X207519928Y-34984659D01*
X207396271Y-34832153D01*
X207235274Y-34486893D01*
X207238182Y-34380453D01*
X207261215Y-34317171D01*
X207327405Y-34233764D01*
X207500035Y-34153266D01*
X207606475Y-34156174D01*
X207669757Y-34179207D01*
X207753164Y-34245397D01*
X207853788Y-34461185D01*
X207850879Y-34567624D01*
X207827847Y-34630906D01*
X207761656Y-34714313D01*
X207589026Y-34794812D01*
X207482586Y-34791904D01*
X207419304Y-34768871D01*
X207335897Y-34702681D01*
%TO.C,SW8*%
X190641152Y-37548639D02*
X190531804Y-37652171D01*
X190316016Y-37752794D01*
X190209577Y-37749886D01*
X190146294Y-37726853D01*
X190062887Y-37660663D01*
X190022638Y-37574348D01*
X190025546Y-37467908D01*
X190048579Y-37404626D01*
X190114769Y-37321219D01*
X190267275Y-37197563D01*
X190333465Y-37114156D01*
X190356498Y-37050874D01*
X190359406Y-36944434D01*
X190319157Y-36858119D01*
X190235750Y-36791929D01*
X190172468Y-36768896D01*
X190066028Y-36765988D01*
X189850240Y-36866611D01*
X189740893Y-36970143D01*
X189418665Y-37067858D02*
X189625496Y-38074789D01*
X189150996Y-37507925D01*
X189280236Y-38235787D01*
X188641830Y-37430102D01*
X188348220Y-38039891D02*
X188414410Y-37956484D01*
X188437443Y-37893202D01*
X188440351Y-37786763D01*
X188420226Y-37743605D01*
X188336819Y-37677415D01*
X188273537Y-37654382D01*
X188167097Y-37651474D01*
X187994467Y-37731972D01*
X187928277Y-37815379D01*
X187905244Y-37878661D01*
X187902336Y-37985101D01*
X187922461Y-38028259D01*
X188005868Y-38094449D01*
X188069150Y-38117482D01*
X188175589Y-38120390D01*
X188348220Y-38039891D01*
X188454659Y-38042799D01*
X188517941Y-38065832D01*
X188601348Y-38132023D01*
X188681847Y-38304653D01*
X188678939Y-38411092D01*
X188655906Y-38474375D01*
X188589716Y-38557781D01*
X188417086Y-38638280D01*
X188310646Y-38635372D01*
X188247364Y-38612339D01*
X188163957Y-38546149D01*
X188083458Y-38373519D01*
X188086366Y-38267079D01*
X188109399Y-38203797D01*
X188175589Y-38120390D01*
%TO.C,SW7*%
X175534396Y-50109924D02*
X175425048Y-50213456D01*
X175209260Y-50314079D01*
X175102821Y-50311171D01*
X175039538Y-50288138D01*
X174956131Y-50221948D01*
X174915882Y-50135633D01*
X174918790Y-50029193D01*
X174941823Y-49965911D01*
X175008013Y-49882504D01*
X175160519Y-49758848D01*
X175226709Y-49675441D01*
X175249742Y-49612159D01*
X175252650Y-49505719D01*
X175212401Y-49419404D01*
X175128994Y-49353214D01*
X175065712Y-49330181D01*
X174959272Y-49327273D01*
X174743484Y-49427896D01*
X174634137Y-49531428D01*
X174311909Y-49629143D02*
X174518740Y-50636074D01*
X174044240Y-50069210D01*
X174173480Y-50797072D01*
X173535074Y-49991387D01*
X173276129Y-50112135D02*
X172671924Y-50393881D01*
X173482960Y-51119066D01*
%TO.C,SW6*%
X159371095Y-60405441D02*
X159261747Y-60508973D01*
X159045959Y-60609596D01*
X158939520Y-60606688D01*
X158876237Y-60583655D01*
X158792830Y-60517465D01*
X158752581Y-60431150D01*
X158755489Y-60324710D01*
X158778522Y-60261428D01*
X158844712Y-60178021D01*
X158997218Y-60054365D01*
X159063408Y-59970958D01*
X159086441Y-59907676D01*
X159089349Y-59801236D01*
X159049100Y-59714921D01*
X158965693Y-59648731D01*
X158902411Y-59625698D01*
X158795971Y-59622790D01*
X158580183Y-59723413D01*
X158470836Y-59826945D01*
X158148608Y-59924660D02*
X158355439Y-60931591D01*
X157880939Y-60364727D01*
X158010179Y-61092589D01*
X157371773Y-60286904D01*
X156638095Y-60629024D02*
X156810725Y-60548525D01*
X156917165Y-60551433D01*
X156980447Y-60574466D01*
X157127136Y-60663689D01*
X157250793Y-60816195D01*
X157411790Y-61161455D01*
X157408882Y-61267894D01*
X157385849Y-61331177D01*
X157319659Y-61414583D01*
X157147029Y-61495082D01*
X157040589Y-61492174D01*
X156977307Y-61469141D01*
X156893900Y-61402951D01*
X156793276Y-61187163D01*
X156796185Y-61080724D01*
X156819217Y-61017441D01*
X156885408Y-60934035D01*
X157058038Y-60853536D01*
X157164478Y-60856444D01*
X157227760Y-60879477D01*
X157311167Y-60945667D01*
%TO.C,SW5*%
X125682648Y-57306240D02*
X125533051Y-57289024D01*
X125317263Y-57188400D01*
X125251073Y-57104994D01*
X125228040Y-57041711D01*
X125225132Y-56935272D01*
X125265381Y-56848957D01*
X125348788Y-56782766D01*
X125412070Y-56759733D01*
X125518510Y-56756825D01*
X125711265Y-56794167D01*
X125817705Y-56791258D01*
X125880987Y-56768226D01*
X125964394Y-56702035D01*
X126004643Y-56615720D01*
X126001735Y-56509280D01*
X125978702Y-56445998D01*
X125912512Y-56362591D01*
X125696724Y-56261968D01*
X125547127Y-56244751D01*
X125265149Y-56060721D02*
X124626743Y-56866406D01*
X124755983Y-56138544D01*
X124281483Y-56705408D01*
X124488314Y-55698477D01*
X123711478Y-55336233D02*
X124143054Y-55537480D01*
X123984964Y-55989179D01*
X123961931Y-55925897D01*
X123895741Y-55842490D01*
X123679954Y-55741867D01*
X123573514Y-55744775D01*
X123510232Y-55767808D01*
X123426825Y-55833998D01*
X123326201Y-56049786D01*
X123329110Y-56156226D01*
X123352142Y-56219508D01*
X123418333Y-56302915D01*
X123634120Y-56403538D01*
X123740560Y-56400630D01*
X123803842Y-56377597D01*
%TO.C,SW4*%
X109519347Y-47010723D02*
X109369750Y-46993507D01*
X109153962Y-46892883D01*
X109087772Y-46809477D01*
X109064739Y-46746194D01*
X109061831Y-46639755D01*
X109102080Y-46553440D01*
X109185487Y-46487249D01*
X109248769Y-46464216D01*
X109355209Y-46461308D01*
X109547964Y-46498650D01*
X109654404Y-46495741D01*
X109717686Y-46472709D01*
X109801093Y-46406518D01*
X109841342Y-46320203D01*
X109838434Y-46213763D01*
X109815401Y-46150481D01*
X109749211Y-46067074D01*
X109533423Y-45966451D01*
X109383826Y-45949234D01*
X109101848Y-45765204D02*
X108463442Y-46570889D01*
X108592682Y-45843027D01*
X108118182Y-46409891D01*
X108325013Y-45402960D01*
X107450462Y-45362943D02*
X107168717Y-45967148D01*
X107827247Y-45118306D02*
X107741165Y-45866292D01*
X107180117Y-45604672D01*
%TO.C,SW3*%
X94412591Y-34449438D02*
X94262994Y-34432222D01*
X94047206Y-34331598D01*
X93981016Y-34248192D01*
X93957983Y-34184909D01*
X93955075Y-34078470D01*
X93995324Y-33992155D01*
X94078731Y-33925964D01*
X94142013Y-33902931D01*
X94248453Y-33900023D01*
X94441208Y-33937365D01*
X94547648Y-33934456D01*
X94610930Y-33911424D01*
X94694337Y-33845233D01*
X94734586Y-33758918D01*
X94731678Y-33652478D01*
X94708645Y-33589196D01*
X94642455Y-33505789D01*
X94426667Y-33405166D01*
X94277070Y-33387949D01*
X93995092Y-33203919D02*
X93356686Y-34009604D01*
X93485926Y-33281742D01*
X93011426Y-33848606D01*
X93218257Y-32841675D01*
X92959312Y-32720927D02*
X92398264Y-32459306D01*
X92539369Y-32945439D01*
X92409897Y-32885065D01*
X92303457Y-32887973D01*
X92240175Y-32911006D01*
X92156768Y-32977196D01*
X92056144Y-33192984D01*
X92059053Y-33299424D01*
X92082085Y-33362706D01*
X92148276Y-33446113D01*
X92407221Y-33566861D01*
X92513661Y-33563953D01*
X92576943Y-33540920D01*
%TO.C,SW2*%
X75079653Y-30951230D02*
X74930056Y-30934014D01*
X74714268Y-30833390D01*
X74648078Y-30749984D01*
X74625045Y-30686701D01*
X74622137Y-30580262D01*
X74662386Y-30493947D01*
X74745793Y-30427756D01*
X74809075Y-30404723D01*
X74915515Y-30401815D01*
X75108270Y-30439157D01*
X75214710Y-30436248D01*
X75277992Y-30413216D01*
X75361399Y-30347025D01*
X75401648Y-30260710D01*
X75398740Y-30154270D01*
X75375707Y-30090988D01*
X75309517Y-30007581D01*
X75093729Y-29906958D01*
X74944132Y-29889741D01*
X74662154Y-29705711D02*
X74023748Y-30511396D01*
X74152988Y-29783534D01*
X73678488Y-30350398D01*
X73885319Y-29343467D01*
X73542967Y-29288909D02*
X73519934Y-29225627D01*
X73453744Y-29142220D01*
X73237956Y-29041597D01*
X73131516Y-29044505D01*
X73068234Y-29067538D01*
X72984827Y-29133728D01*
X72944578Y-29220043D01*
X72927361Y-29369640D01*
X73203755Y-30129027D01*
X72642708Y-29867406D01*
%TO.C,SW1*%
X52577078Y-34250330D02*
X52427481Y-34233114D01*
X52211693Y-34132490D01*
X52145503Y-34049084D01*
X52122470Y-33985801D01*
X52119562Y-33879362D01*
X52159811Y-33793047D01*
X52243218Y-33726856D01*
X52306500Y-33703823D01*
X52412940Y-33700915D01*
X52605695Y-33738257D01*
X52712135Y-33735348D01*
X52775417Y-33712316D01*
X52858824Y-33646125D01*
X52899073Y-33559810D01*
X52896165Y-33453370D01*
X52873132Y-33390088D01*
X52806942Y-33306681D01*
X52591154Y-33206058D01*
X52441557Y-33188841D01*
X52159579Y-33004811D02*
X51521173Y-33810496D01*
X51650413Y-33082634D01*
X51175913Y-33649498D01*
X51382744Y-32642567D01*
X50140133Y-33166506D02*
X50658023Y-33408002D01*
X50399078Y-33287254D02*
X50821696Y-32380946D01*
X50847637Y-32550668D01*
X50893703Y-32677232D01*
X50959893Y-32760639D01*
%TO.C,D82*%
X170104973Y-121644118D02*
X169104973Y-121644118D01*
X169104973Y-121882213D01*
X169152593Y-122025070D01*
X169247831Y-122120308D01*
X169343069Y-122167927D01*
X169533545Y-122215546D01*
X169676402Y-122215546D01*
X169866878Y-122167927D01*
X169962116Y-122120308D01*
X170057354Y-122025070D01*
X170104973Y-121882213D01*
X170104973Y-121644118D01*
X169533545Y-122786975D02*
X169485926Y-122691737D01*
X169438307Y-122644118D01*
X169343069Y-122596499D01*
X169295450Y-122596499D01*
X169200212Y-122644118D01*
X169152593Y-122691737D01*
X169104973Y-122786975D01*
X169104973Y-122977451D01*
X169152593Y-123072689D01*
X169200212Y-123120308D01*
X169295450Y-123167927D01*
X169343069Y-123167927D01*
X169438307Y-123120308D01*
X169485926Y-123072689D01*
X169533545Y-122977451D01*
X169533545Y-122786975D01*
X169581164Y-122691737D01*
X169628783Y-122644118D01*
X169724021Y-122596499D01*
X169914497Y-122596499D01*
X170009735Y-122644118D01*
X170057354Y-122691737D01*
X170104973Y-122786975D01*
X170104973Y-122977451D01*
X170057354Y-123072689D01*
X170009735Y-123120308D01*
X169914497Y-123167927D01*
X169724021Y-123167927D01*
X169628783Y-123120308D01*
X169581164Y-123072689D01*
X169533545Y-122977451D01*
X169200212Y-123548880D02*
X169152593Y-123596499D01*
X169104973Y-123691737D01*
X169104973Y-123929832D01*
X169152593Y-124025070D01*
X169200212Y-124072689D01*
X169295450Y-124120308D01*
X169390688Y-124120308D01*
X169533545Y-124072689D01*
X170104973Y-123501261D01*
X170104973Y-124120308D01*
%TO.C,D81*%
X125904973Y-121644118D02*
X124904973Y-121644118D01*
X124904973Y-121882213D01*
X124952593Y-122025070D01*
X125047831Y-122120308D01*
X125143069Y-122167927D01*
X125333545Y-122215546D01*
X125476402Y-122215546D01*
X125666878Y-122167927D01*
X125762116Y-122120308D01*
X125857354Y-122025070D01*
X125904973Y-121882213D01*
X125904973Y-121644118D01*
X125333545Y-122786975D02*
X125285926Y-122691737D01*
X125238307Y-122644118D01*
X125143069Y-122596499D01*
X125095450Y-122596499D01*
X125000212Y-122644118D01*
X124952593Y-122691737D01*
X124904973Y-122786975D01*
X124904973Y-122977451D01*
X124952593Y-123072689D01*
X125000212Y-123120308D01*
X125095450Y-123167927D01*
X125143069Y-123167927D01*
X125238307Y-123120308D01*
X125285926Y-123072689D01*
X125333545Y-122977451D01*
X125333545Y-122786975D01*
X125381164Y-122691737D01*
X125428783Y-122644118D01*
X125524021Y-122596499D01*
X125714497Y-122596499D01*
X125809735Y-122644118D01*
X125857354Y-122691737D01*
X125904973Y-122786975D01*
X125904973Y-122977451D01*
X125857354Y-123072689D01*
X125809735Y-123120308D01*
X125714497Y-123167927D01*
X125524021Y-123167927D01*
X125428783Y-123120308D01*
X125381164Y-123072689D01*
X125333545Y-122977451D01*
X125904973Y-124120308D02*
X125904973Y-123548880D01*
X125904973Y-123834594D02*
X124904973Y-123834594D01*
X125047831Y-123739356D01*
X125143069Y-123644118D01*
X125190688Y-123548880D01*
%TO.C,J1*%
X134304973Y-138125070D02*
X135019259Y-138125070D01*
X135162116Y-138077451D01*
X135257354Y-137982213D01*
X135304973Y-137839356D01*
X135304973Y-137744118D01*
X135304973Y-139125070D02*
X135304973Y-138553642D01*
X135304973Y-138839356D02*
X134304973Y-138839356D01*
X134447831Y-138744118D01*
X134543069Y-138648880D01*
X134590688Y-138553642D01*
X136438307Y-128125070D02*
X137438307Y-128125070D01*
X136485926Y-128125070D02*
X136438307Y-128220308D01*
X136438307Y-128410784D01*
X136485926Y-128506023D01*
X136533545Y-128553642D01*
X136628783Y-128601261D01*
X136914497Y-128601261D01*
X137009735Y-128553642D01*
X137057354Y-128506023D01*
X137104973Y-128410784D01*
X137104973Y-128220308D01*
X137057354Y-128125070D01*
X137104973Y-129029832D02*
X136438307Y-129029832D01*
X136104973Y-129029832D02*
X136152593Y-128982213D01*
X136200212Y-129029832D01*
X136152593Y-129077451D01*
X136104973Y-129029832D01*
X136200212Y-129029832D01*
X137104973Y-129506023D02*
X136438307Y-129506023D01*
X136533545Y-129506023D02*
X136485926Y-129553642D01*
X136438307Y-129648880D01*
X136438307Y-129791737D01*
X136485926Y-129886975D01*
X136581164Y-129934594D01*
X137104973Y-129934594D01*
X136581164Y-129934594D02*
X136485926Y-129982213D01*
X136438307Y-130077451D01*
X136438307Y-130220308D01*
X136485926Y-130315546D01*
X136581164Y-130363165D01*
X137104973Y-130363165D01*
X137104973Y-130982213D02*
X137057354Y-130886975D01*
X137009735Y-130839356D01*
X136914497Y-130791737D01*
X136628783Y-130791737D01*
X136533545Y-130839356D01*
X136485926Y-130886975D01*
X136438307Y-130982213D01*
X136438307Y-131125070D01*
X136485926Y-131220308D01*
X136533545Y-131267927D01*
X136628783Y-131315546D01*
X136914497Y-131315546D01*
X137009735Y-131267927D01*
X137057354Y-131220308D01*
X137104973Y-131125070D01*
X137104973Y-130982213D01*
X137104973Y-131744118D02*
X136438307Y-131744118D01*
X136628783Y-131744118D02*
X136533545Y-131791737D01*
X136485926Y-131839356D01*
X136438307Y-131934594D01*
X136438307Y-132029832D01*
X137104973Y-132506023D02*
X137057354Y-132410784D01*
X137009735Y-132363165D01*
X136914497Y-132315546D01*
X136628783Y-132315546D01*
X136533545Y-132363165D01*
X136485926Y-132410784D01*
X136438307Y-132506023D01*
X136438307Y-132648880D01*
X136485926Y-132744118D01*
X136533545Y-132791737D01*
X136628783Y-132839356D01*
X136914497Y-132839356D01*
X137009735Y-132791737D01*
X137057354Y-132744118D01*
X137104973Y-132648880D01*
X137104973Y-132506023D01*
X136438307Y-133267927D02*
X137104973Y-133267927D01*
X136533545Y-133267927D02*
X136485926Y-133315546D01*
X136438307Y-133410784D01*
X136438307Y-133553642D01*
X136485926Y-133648880D01*
X136581164Y-133696499D01*
X137104973Y-133696499D01*
X137104973Y-134172689D02*
X136438307Y-134172689D01*
X136104973Y-134172689D02*
X136152593Y-134125070D01*
X136200212Y-134172689D01*
X136152593Y-134220308D01*
X136104973Y-134172689D01*
X136200212Y-134172689D01*
X136438307Y-135267927D02*
X136438307Y-135648880D01*
X136104973Y-135410784D02*
X136962116Y-135410784D01*
X137057354Y-135458404D01*
X137104973Y-135553642D01*
X137104973Y-135648880D01*
X137104973Y-135982213D02*
X136438307Y-135982213D01*
X136628783Y-135982213D02*
X136533545Y-136029832D01*
X136485926Y-136077451D01*
X136438307Y-136172689D01*
X136438307Y-136267927D01*
X137104973Y-137029832D02*
X136581164Y-137029832D01*
X136485926Y-136982213D01*
X136438307Y-136886975D01*
X136438307Y-136696499D01*
X136485926Y-136601261D01*
X137057354Y-137029832D02*
X137104973Y-136934594D01*
X137104973Y-136696499D01*
X137057354Y-136601261D01*
X136962116Y-136553642D01*
X136866878Y-136553642D01*
X136771640Y-136601261D01*
X136724021Y-136696499D01*
X136724021Y-136934594D01*
X136676402Y-137029832D01*
X137057354Y-137934594D02*
X137104973Y-137839356D01*
X137104973Y-137648880D01*
X137057354Y-137553642D01*
X137009735Y-137506023D01*
X136914497Y-137458404D01*
X136628783Y-137458404D01*
X136533545Y-137506023D01*
X136485926Y-137553642D01*
X136438307Y-137648880D01*
X136438307Y-137839356D01*
X136485926Y-137934594D01*
X137104973Y-138363165D02*
X136104973Y-138363165D01*
X136724021Y-138458404D02*
X137104973Y-138744118D01*
X136438307Y-138744118D02*
X136819259Y-138363165D01*
X137104973Y-139172689D02*
X136104973Y-139172689D01*
X136485926Y-139172689D02*
X136438307Y-139267927D01*
X136438307Y-139458404D01*
X136485926Y-139553642D01*
X136533545Y-139601261D01*
X136628783Y-139648880D01*
X136914497Y-139648880D01*
X137009735Y-139601261D01*
X137057354Y-139553642D01*
X137104973Y-139458404D01*
X137104973Y-139267927D01*
X137057354Y-139172689D01*
X137104973Y-140506023D02*
X136581164Y-140506023D01*
X136485926Y-140458404D01*
X136438307Y-140363165D01*
X136438307Y-140172689D01*
X136485926Y-140077451D01*
X137057354Y-140506023D02*
X137104973Y-140410784D01*
X137104973Y-140172689D01*
X137057354Y-140077451D01*
X136962116Y-140029832D01*
X136866878Y-140029832D01*
X136771640Y-140077451D01*
X136724021Y-140172689D01*
X136724021Y-140410784D01*
X136676402Y-140506023D01*
X137104973Y-141125070D02*
X137057354Y-141029832D01*
X136962116Y-140982213D01*
X136104973Y-140982213D01*
X137104973Y-141648880D02*
X137057354Y-141553642D01*
X136962116Y-141506023D01*
X136104973Y-141506023D01*
X137104973Y-142791737D02*
X136104973Y-142791737D01*
X136485926Y-142791737D02*
X136438307Y-142886975D01*
X136438307Y-143077451D01*
X136485926Y-143172689D01*
X136533545Y-143220308D01*
X136628783Y-143267927D01*
X136914497Y-143267927D01*
X137009735Y-143220308D01*
X137057354Y-143172689D01*
X137104973Y-143077451D01*
X137104973Y-142886975D01*
X137057354Y-142791737D01*
X137104973Y-143696499D02*
X136438307Y-143696499D01*
X136628783Y-143696499D02*
X136533545Y-143744118D01*
X136485926Y-143791737D01*
X136438307Y-143886975D01*
X136438307Y-143982213D01*
X137057354Y-144696499D02*
X137104973Y-144601261D01*
X137104973Y-144410784D01*
X137057354Y-144315546D01*
X136962116Y-144267927D01*
X136581164Y-144267927D01*
X136485926Y-144315546D01*
X136438307Y-144410784D01*
X136438307Y-144601261D01*
X136485926Y-144696499D01*
X136581164Y-144744118D01*
X136676402Y-144744118D01*
X136771640Y-144267927D01*
X137104973Y-145601261D02*
X136581164Y-145601261D01*
X136485926Y-145553642D01*
X136438307Y-145458404D01*
X136438307Y-145267927D01*
X136485926Y-145172689D01*
X137057354Y-145601261D02*
X137104973Y-145506023D01*
X137104973Y-145267927D01*
X137057354Y-145172689D01*
X136962116Y-145125070D01*
X136866878Y-145125070D01*
X136771640Y-145172689D01*
X136724021Y-145267927D01*
X136724021Y-145506023D01*
X136676402Y-145601261D01*
X137104973Y-146077451D02*
X136104973Y-146077451D01*
X136724021Y-146172689D02*
X137104973Y-146458404D01*
X136438307Y-146458404D02*
X136819259Y-146077451D01*
X137104973Y-147029832D02*
X137057354Y-146934594D01*
X137009735Y-146886975D01*
X136914497Y-146839356D01*
X136628783Y-146839356D01*
X136533545Y-146886975D01*
X136485926Y-146934594D01*
X136438307Y-147029832D01*
X136438307Y-147172689D01*
X136485926Y-147267927D01*
X136533545Y-147315546D01*
X136628783Y-147363165D01*
X136914497Y-147363165D01*
X137009735Y-147315546D01*
X137057354Y-147267927D01*
X137104973Y-147172689D01*
X137104973Y-147029832D01*
X136438307Y-148220308D02*
X137104973Y-148220308D01*
X136438307Y-147791737D02*
X136962116Y-147791737D01*
X137057354Y-147839356D01*
X137104973Y-147934594D01*
X137104973Y-148077451D01*
X137057354Y-148172689D01*
X137009735Y-148220308D01*
X136438307Y-148553642D02*
X136438307Y-148934594D01*
X136104973Y-148696499D02*
X136962116Y-148696499D01*
X137057354Y-148744118D01*
X137104973Y-148839356D01*
X137104973Y-148934594D01*
%TO.C,Y1*%
X158328783Y-86532213D02*
X158804973Y-86532213D01*
X157804973Y-86198880D02*
X158328783Y-86532213D01*
X157804973Y-86865546D01*
X158804973Y-87722689D02*
X158804973Y-87151261D01*
X158804973Y-87436975D02*
X157804973Y-87436975D01*
X157947831Y-87341737D01*
X158043069Y-87246499D01*
X158090688Y-87151261D01*
%TO.C,USB1*%
X147590688Y-61560784D02*
X147590688Y-62370308D01*
X147543069Y-62465546D01*
X147495450Y-62513165D01*
X147400212Y-62560784D01*
X147209735Y-62560784D01*
X147114497Y-62513165D01*
X147066878Y-62465546D01*
X147019259Y-62370308D01*
X147019259Y-61560784D01*
X146590688Y-62513165D02*
X146447831Y-62560784D01*
X146209735Y-62560784D01*
X146114497Y-62513165D01*
X146066878Y-62465546D01*
X146019259Y-62370308D01*
X146019259Y-62275070D01*
X146066878Y-62179832D01*
X146114497Y-62132213D01*
X146209735Y-62084594D01*
X146400212Y-62036975D01*
X146495450Y-61989356D01*
X146543069Y-61941737D01*
X146590688Y-61846499D01*
X146590688Y-61751261D01*
X146543069Y-61656023D01*
X146495450Y-61608404D01*
X146400212Y-61560784D01*
X146162116Y-61560784D01*
X146019259Y-61608404D01*
X145257354Y-62036975D02*
X145114497Y-62084594D01*
X145066878Y-62132213D01*
X145019259Y-62227451D01*
X145019259Y-62370308D01*
X145066878Y-62465546D01*
X145114497Y-62513165D01*
X145209735Y-62560784D01*
X145590688Y-62560784D01*
X145590688Y-61560784D01*
X145257354Y-61560784D01*
X145162116Y-61608404D01*
X145114497Y-61656023D01*
X145066878Y-61751261D01*
X145066878Y-61846499D01*
X145114497Y-61941737D01*
X145162116Y-61989356D01*
X145257354Y-62036975D01*
X145590688Y-62036975D01*
X144066878Y-62560784D02*
X144638307Y-62560784D01*
X144352593Y-62560784D02*
X144352593Y-61560784D01*
X144447831Y-61703642D01*
X144543069Y-61798880D01*
X144638307Y-61846499D01*
%TO.C,U2*%
X146614497Y-69760784D02*
X146614497Y-70570308D01*
X146566878Y-70665546D01*
X146519259Y-70713165D01*
X146424021Y-70760784D01*
X146233545Y-70760784D01*
X146138307Y-70713165D01*
X146090688Y-70665546D01*
X146043069Y-70570308D01*
X146043069Y-69760784D01*
X145614497Y-69856023D02*
X145566878Y-69808404D01*
X145471640Y-69760784D01*
X145233545Y-69760784D01*
X145138307Y-69808404D01*
X145090688Y-69856023D01*
X145043069Y-69951261D01*
X145043069Y-70046499D01*
X145090688Y-70189356D01*
X145662116Y-70760784D01*
X145043069Y-70760784D01*
%TO.C,U1*%
X135854973Y-86096499D02*
X136664497Y-86096499D01*
X136759735Y-86144118D01*
X136807354Y-86191737D01*
X136854973Y-86286975D01*
X136854973Y-86477451D01*
X136807354Y-86572689D01*
X136759735Y-86620308D01*
X136664497Y-86667927D01*
X135854973Y-86667927D01*
X136854973Y-87667927D02*
X136854973Y-87096499D01*
X136854973Y-87382213D02*
X135854973Y-87382213D01*
X135997831Y-87286975D01*
X136093069Y-87191737D01*
X136140688Y-87096499D01*
%TO.C,SW41*%
X160662116Y-147799165D02*
X160519259Y-147846784D01*
X160281164Y-147846784D01*
X160185926Y-147799165D01*
X160138307Y-147751546D01*
X160090688Y-147656308D01*
X160090688Y-147561070D01*
X160138307Y-147465832D01*
X160185926Y-147418213D01*
X160281164Y-147370594D01*
X160471640Y-147322975D01*
X160566878Y-147275356D01*
X160614497Y-147227737D01*
X160662116Y-147132499D01*
X160662116Y-147037261D01*
X160614497Y-146942023D01*
X160566878Y-146894404D01*
X160471640Y-146846784D01*
X160233545Y-146846784D01*
X160090688Y-146894404D01*
X159757354Y-146846784D02*
X159519259Y-147846784D01*
X159328783Y-147132499D01*
X159138307Y-147846784D01*
X158900212Y-146846784D01*
X158090688Y-147180118D02*
X158090688Y-147846784D01*
X158328783Y-146799165D02*
X158566878Y-147513451D01*
X157947831Y-147513451D01*
X157043069Y-147846784D02*
X157614497Y-147846784D01*
X157328783Y-147846784D02*
X157328783Y-146846784D01*
X157424021Y-146989642D01*
X157519259Y-147084880D01*
X157614497Y-147132499D01*
%TO.C,R6*%
X141819259Y-63660784D02*
X142152593Y-63184594D01*
X142390688Y-63660784D02*
X142390688Y-62660784D01*
X142009735Y-62660784D01*
X141914497Y-62708404D01*
X141866878Y-62756023D01*
X141819259Y-62851261D01*
X141819259Y-62994118D01*
X141866878Y-63089356D01*
X141914497Y-63136975D01*
X142009735Y-63184594D01*
X142390688Y-63184594D01*
X140962116Y-62660784D02*
X141152593Y-62660784D01*
X141247831Y-62708404D01*
X141295450Y-62756023D01*
X141390688Y-62898880D01*
X141438307Y-63089356D01*
X141438307Y-63470308D01*
X141390688Y-63565546D01*
X141343069Y-63613165D01*
X141247831Y-63660784D01*
X141057354Y-63660784D01*
X140962116Y-63613165D01*
X140914497Y-63565546D01*
X140866878Y-63470308D01*
X140866878Y-63232213D01*
X140914497Y-63136975D01*
X140962116Y-63089356D01*
X141057354Y-63041737D01*
X141247831Y-63041737D01*
X141343069Y-63089356D01*
X141390688Y-63136975D01*
X141438307Y-63232213D01*
%TO.C,R5*%
X150219259Y-66960784D02*
X150552593Y-66484594D01*
X150790688Y-66960784D02*
X150790688Y-65960784D01*
X150409735Y-65960784D01*
X150314497Y-66008404D01*
X150266878Y-66056023D01*
X150219259Y-66151261D01*
X150219259Y-66294118D01*
X150266878Y-66389356D01*
X150314497Y-66436975D01*
X150409735Y-66484594D01*
X150790688Y-66484594D01*
X149314497Y-65960784D02*
X149790688Y-65960784D01*
X149838307Y-66436975D01*
X149790688Y-66389356D01*
X149695450Y-66341737D01*
X149457354Y-66341737D01*
X149362116Y-66389356D01*
X149314497Y-66436975D01*
X149266878Y-66532213D01*
X149266878Y-66770308D01*
X149314497Y-66865546D01*
X149362116Y-66913165D01*
X149457354Y-66960784D01*
X149695450Y-66960784D01*
X149790688Y-66913165D01*
X149838307Y-66865546D01*
%TO.C,R4*%
X160854973Y-145491737D02*
X160378783Y-145158404D01*
X160854973Y-144920308D02*
X159854973Y-144920308D01*
X159854973Y-145301261D01*
X159902593Y-145396499D01*
X159950212Y-145444118D01*
X160045450Y-145491737D01*
X160188307Y-145491737D01*
X160283545Y-145444118D01*
X160331164Y-145396499D01*
X160378783Y-145301261D01*
X160378783Y-144920308D01*
X160188307Y-146348880D02*
X160854973Y-146348880D01*
X159807354Y-146110784D02*
X160521640Y-145872689D01*
X160521640Y-146491737D01*
%TO.C,R3*%
X146054973Y-73291737D02*
X145578783Y-72958404D01*
X146054973Y-72720308D02*
X145054973Y-72720308D01*
X145054973Y-73101261D01*
X145102593Y-73196499D01*
X145150212Y-73244118D01*
X145245450Y-73291737D01*
X145388307Y-73291737D01*
X145483545Y-73244118D01*
X145531164Y-73196499D01*
X145578783Y-73101261D01*
X145578783Y-72720308D01*
X145054973Y-73625070D02*
X145054973Y-74244118D01*
X145435926Y-73910784D01*
X145435926Y-74053642D01*
X145483545Y-74148880D01*
X145531164Y-74196499D01*
X145626402Y-74244118D01*
X145864497Y-74244118D01*
X145959735Y-74196499D01*
X146007354Y-74148880D01*
X146054973Y-74053642D01*
X146054973Y-73767927D01*
X146007354Y-73672689D01*
X145959735Y-73625070D01*
%TO.C,R2*%
X146554973Y-73291737D02*
X146078783Y-72958404D01*
X146554973Y-72720308D02*
X145554973Y-72720308D01*
X145554973Y-73101261D01*
X145602593Y-73196499D01*
X145650212Y-73244118D01*
X145745450Y-73291737D01*
X145888307Y-73291737D01*
X145983545Y-73244118D01*
X146031164Y-73196499D01*
X146078783Y-73101261D01*
X146078783Y-72720308D01*
X145650212Y-73672689D02*
X145602593Y-73720308D01*
X145554973Y-73815546D01*
X145554973Y-74053642D01*
X145602593Y-74148880D01*
X145650212Y-74196499D01*
X145745450Y-74244118D01*
X145840688Y-74244118D01*
X145983545Y-74196499D01*
X146554973Y-73625070D01*
X146554973Y-74244118D01*
%TO.C,R1*%
X138419259Y-96960784D02*
X138752593Y-96484594D01*
X138990688Y-96960784D02*
X138990688Y-95960784D01*
X138609735Y-95960784D01*
X138514497Y-96008404D01*
X138466878Y-96056023D01*
X138419259Y-96151261D01*
X138419259Y-96294118D01*
X138466878Y-96389356D01*
X138514497Y-96436975D01*
X138609735Y-96484594D01*
X138990688Y-96484594D01*
X137466878Y-96960784D02*
X138038307Y-96960784D01*
X137752593Y-96960784D02*
X137752593Y-95960784D01*
X137847831Y-96103642D01*
X137943069Y-96198880D01*
X138038307Y-96246499D01*
%TO.C,F1*%
X143201164Y-70325070D02*
X143201164Y-69991737D01*
X143724973Y-69991737D02*
X142724973Y-69991737D01*
X142724973Y-70467927D01*
X143724973Y-71372689D02*
X143724973Y-70801261D01*
X143724973Y-71086975D02*
X142724973Y-71086975D01*
X142867831Y-70991737D01*
X142963069Y-70896499D01*
X143010688Y-70801261D01*
%TO.C,D40*%
X246499057Y-89342605D02*
X246076438Y-88436297D01*
X245860651Y-88536920D01*
X245751303Y-88640452D01*
X245705237Y-88767016D01*
X245702329Y-88873456D01*
X245739670Y-89066211D01*
X245800044Y-89195683D01*
X245923701Y-89348188D01*
X246007107Y-89414379D01*
X246133672Y-89460444D01*
X246283269Y-89443228D01*
X246499057Y-89342605D01*
X244922586Y-89342140D02*
X245204331Y-89946345D01*
X244977376Y-88896256D02*
X245495034Y-89442996D01*
X244933986Y-89704616D01*
X244134350Y-89341907D02*
X244048035Y-89382157D01*
X243981845Y-89465564D01*
X243958812Y-89528846D01*
X243955904Y-89635285D01*
X243993245Y-89828040D01*
X244093868Y-90043828D01*
X244217525Y-90196333D01*
X244300932Y-90262523D01*
X244364214Y-90285556D01*
X244470653Y-90288464D01*
X244556968Y-90248215D01*
X244623159Y-90164808D01*
X244646192Y-90101526D01*
X244649100Y-89995086D01*
X244611759Y-89802332D01*
X244511135Y-89586544D01*
X244387479Y-89434039D01*
X244304072Y-89367848D01*
X244240790Y-89344815D01*
X244134350Y-89341907D01*
%TO.C,D39*%
X227299057Y-92942605D02*
X226876438Y-92036297D01*
X226660651Y-92136920D01*
X226551303Y-92240452D01*
X226505237Y-92367016D01*
X226502329Y-92473456D01*
X226539670Y-92666211D01*
X226600044Y-92795683D01*
X226723701Y-92948188D01*
X226807107Y-93014379D01*
X226933672Y-93060444D01*
X227083269Y-93043228D01*
X227299057Y-92942605D01*
X226056446Y-92418666D02*
X225495398Y-92680287D01*
X225958498Y-92884674D01*
X225829025Y-92945048D01*
X225762835Y-93028455D01*
X225739802Y-93091737D01*
X225736894Y-93198177D01*
X225837517Y-93413964D01*
X225920924Y-93480155D01*
X225984206Y-93503187D01*
X226090646Y-93506096D01*
X226349591Y-93385348D01*
X226415782Y-93301941D01*
X226438814Y-93238658D01*
X225486441Y-93787841D02*
X225313811Y-93868340D01*
X225207371Y-93865432D01*
X225144089Y-93842399D01*
X224997400Y-93753176D01*
X224873744Y-93600670D01*
X224712746Y-93255410D01*
X224715654Y-93148970D01*
X224738687Y-93085688D01*
X224804878Y-93002281D01*
X224977508Y-92921783D01*
X225083947Y-92924691D01*
X225147230Y-92947724D01*
X225230636Y-93013914D01*
X225331260Y-93229702D01*
X225328352Y-93336141D01*
X225305319Y-93399423D01*
X225239129Y-93482830D01*
X225066498Y-93563329D01*
X224960059Y-93560421D01*
X224896777Y-93537388D01*
X224813370Y-93471198D01*
%TO.C,D38*%
X218499057Y-119142605D02*
X218076438Y-118236297D01*
X217860651Y-118336920D01*
X217751303Y-118440452D01*
X217705237Y-118567016D01*
X217702329Y-118673456D01*
X217739670Y-118866211D01*
X217800044Y-118995683D01*
X217923701Y-119148188D01*
X218007107Y-119214379D01*
X218133672Y-119260444D01*
X218283269Y-119243228D01*
X218499057Y-119142605D01*
X217256446Y-118618666D02*
X216695398Y-118880287D01*
X217158498Y-119084674D01*
X217029025Y-119145048D01*
X216962835Y-119228455D01*
X216939802Y-119291737D01*
X216936894Y-119398177D01*
X217037517Y-119613964D01*
X217120924Y-119680155D01*
X217184206Y-119703187D01*
X217290646Y-119706096D01*
X217549591Y-119585348D01*
X217615782Y-119501941D01*
X217638814Y-119438658D01*
X216358630Y-119510200D02*
X216424820Y-119426793D01*
X216447853Y-119363511D01*
X216450761Y-119257072D01*
X216430636Y-119213914D01*
X216347230Y-119147724D01*
X216283947Y-119124691D01*
X216177508Y-119121783D01*
X216004878Y-119202281D01*
X215938687Y-119285688D01*
X215915654Y-119348970D01*
X215912746Y-119455410D01*
X215932871Y-119498568D01*
X216016278Y-119564758D01*
X216079560Y-119587791D01*
X216186000Y-119590699D01*
X216358630Y-119510200D01*
X216465070Y-119513108D01*
X216528352Y-119536141D01*
X216611759Y-119602332D01*
X216692257Y-119774962D01*
X216689349Y-119881401D01*
X216666316Y-119944684D01*
X216600126Y-120028090D01*
X216427496Y-120108589D01*
X216321056Y-120105681D01*
X216257774Y-120082648D01*
X216174367Y-120016458D01*
X216093868Y-119843828D01*
X216096777Y-119737388D01*
X216119809Y-119674106D01*
X216186000Y-119590699D01*
%TO.C,D37*%
X200959599Y-128094183D02*
X200386023Y-127275031D01*
X200190987Y-127411596D01*
X200101278Y-127532543D01*
X200077890Y-127665184D01*
X200093509Y-127770512D01*
X200163754Y-127953854D01*
X200245694Y-128070875D01*
X200393954Y-128199591D01*
X200487587Y-128250293D01*
X200620228Y-128273681D01*
X200764563Y-128230748D01*
X200959599Y-128094183D01*
X199644885Y-127793981D02*
X199137791Y-128149052D01*
X199629347Y-128269918D01*
X199512325Y-128351857D01*
X199461624Y-128445491D01*
X199449930Y-128511811D01*
X199465549Y-128617139D01*
X199602115Y-128812175D01*
X199695748Y-128862876D01*
X199762069Y-128874570D01*
X199867396Y-128858951D01*
X200101440Y-128695072D01*
X200152141Y-128601439D01*
X200163835Y-128535118D01*
X198864740Y-128340244D02*
X198318639Y-128722628D01*
X199243281Y-129295962D01*
%TO.C,D36*%
X185016890Y-140105441D02*
X184309783Y-139398335D01*
X184141424Y-139566693D01*
X184074081Y-139701380D01*
X184074081Y-139836067D01*
X184107753Y-139937083D01*
X184208768Y-140105441D01*
X184309783Y-140206457D01*
X184478142Y-140307472D01*
X184579157Y-140341144D01*
X184713844Y-140341144D01*
X184848531Y-140273800D01*
X185016890Y-140105441D01*
X183670020Y-140038098D02*
X183232287Y-140475831D01*
X183737363Y-140509502D01*
X183636348Y-140610518D01*
X183602676Y-140711533D01*
X183602676Y-140778877D01*
X183636348Y-140879892D01*
X183804707Y-141048251D01*
X183905722Y-141081922D01*
X183973066Y-141081922D01*
X184074081Y-141048251D01*
X184276111Y-140846220D01*
X184309783Y-140745205D01*
X184309783Y-140677861D01*
X182626195Y-141081922D02*
X182760882Y-140947235D01*
X182861898Y-140913564D01*
X182929241Y-140913564D01*
X183097600Y-140947235D01*
X183265959Y-141048251D01*
X183535333Y-141317625D01*
X183569004Y-141418640D01*
X183569004Y-141485983D01*
X183535333Y-141586999D01*
X183400646Y-141721686D01*
X183299630Y-141755357D01*
X183232287Y-141755357D01*
X183131272Y-141721686D01*
X182962913Y-141553327D01*
X182929241Y-141452312D01*
X182929241Y-141384968D01*
X182962913Y-141283953D01*
X183097600Y-141149266D01*
X183198615Y-141115594D01*
X183265959Y-141115594D01*
X183366974Y-141149266D01*
%TO.C,D35*%
X115405555Y-148622701D02*
X116112661Y-147915594D01*
X115944303Y-147747235D01*
X115809616Y-147679892D01*
X115674929Y-147679892D01*
X115573913Y-147713564D01*
X115405555Y-147814579D01*
X115304539Y-147915594D01*
X115203524Y-148083953D01*
X115169852Y-148184968D01*
X115169852Y-148319655D01*
X115237196Y-148454342D01*
X115405555Y-148622701D01*
X115472898Y-147275831D02*
X115035165Y-146838098D01*
X115001494Y-147343174D01*
X114900478Y-147242159D01*
X114799463Y-147208487D01*
X114732119Y-147208487D01*
X114631104Y-147242159D01*
X114462745Y-147410518D01*
X114429074Y-147511533D01*
X114429074Y-147578877D01*
X114462745Y-147679892D01*
X114664776Y-147881922D01*
X114765791Y-147915594D01*
X114833135Y-147915594D01*
X114395402Y-146198335D02*
X114732119Y-146535052D01*
X114429074Y-146905441D01*
X114429074Y-146838098D01*
X114395402Y-146737083D01*
X114227043Y-146568724D01*
X114126028Y-146535052D01*
X114058684Y-146535052D01*
X113957669Y-146568724D01*
X113789310Y-146737083D01*
X113755639Y-146838098D01*
X113755639Y-146905441D01*
X113789310Y-147006457D01*
X113957669Y-147174815D01*
X114058684Y-147208487D01*
X114126028Y-147208487D01*
%TO.C,D34*%
X100934955Y-135087154D02*
X101508532Y-134268002D01*
X101313495Y-134131436D01*
X101169160Y-134088504D01*
X101036520Y-134111892D01*
X100942886Y-134162593D01*
X100794626Y-134291309D01*
X100712687Y-134408331D01*
X100642441Y-134591673D01*
X100626822Y-134697001D01*
X100650210Y-134829641D01*
X100739919Y-134950588D01*
X100934955Y-135087154D01*
X100767394Y-133749052D02*
X100260300Y-133393981D01*
X100314845Y-133897231D01*
X100197823Y-133815291D01*
X100092496Y-133799672D01*
X100026175Y-133811366D01*
X99932542Y-133862068D01*
X99795976Y-134057104D01*
X99780357Y-134162431D01*
X99792051Y-134228752D01*
X99842752Y-134322385D01*
X100076796Y-134486264D01*
X100182123Y-134501883D01*
X100248444Y-134490189D01*
X99366977Y-133175394D02*
X98984593Y-133721496D01*
X99780519Y-132999902D02*
X99565858Y-133721577D01*
X99058763Y-133366506D01*
%TO.C,D33*%
X84207162Y-124168963D02*
X84629780Y-123262655D01*
X84413992Y-123162032D01*
X84264395Y-123144815D01*
X84137831Y-123190881D01*
X84054424Y-123257072D01*
X83930768Y-123409577D01*
X83870394Y-123539049D01*
X83833052Y-123731804D01*
X83835961Y-123838244D01*
X83882026Y-123964808D01*
X83991374Y-124068340D01*
X84207162Y-124168963D01*
X83809787Y-122880287D02*
X83248739Y-122618666D01*
X83389845Y-123104799D01*
X83260372Y-123044425D01*
X83153932Y-123047333D01*
X83090650Y-123070365D01*
X83007243Y-123136556D01*
X82906620Y-123352343D01*
X82909528Y-123458783D01*
X82932561Y-123522065D01*
X82998751Y-123605472D01*
X83257696Y-123726220D01*
X83364136Y-123723312D01*
X83427418Y-123700279D01*
X82946637Y-122477793D02*
X82385589Y-122216172D01*
X82526694Y-122702305D01*
X82397222Y-122641931D01*
X82290782Y-122644839D01*
X82227500Y-122667872D01*
X82144093Y-122734062D01*
X82043470Y-122949850D01*
X82046378Y-123056290D01*
X82069411Y-123119572D01*
X82135601Y-123202979D01*
X82394546Y-123323727D01*
X82500986Y-123320819D01*
X82564268Y-123297786D01*
%TO.C,D32*%
X75607162Y-98168963D02*
X76029780Y-97262655D01*
X75813992Y-97162032D01*
X75664395Y-97144815D01*
X75537831Y-97190881D01*
X75454424Y-97257072D01*
X75330768Y-97409577D01*
X75270394Y-97539049D01*
X75233052Y-97731804D01*
X75235961Y-97838244D01*
X75282026Y-97964808D01*
X75391374Y-98068340D01*
X75607162Y-98168963D01*
X75209787Y-96880287D02*
X74648739Y-96618666D01*
X74789845Y-97104799D01*
X74660372Y-97044425D01*
X74553932Y-97047333D01*
X74490650Y-97070365D01*
X74407243Y-97136556D01*
X74306620Y-97352343D01*
X74309528Y-97458783D01*
X74332561Y-97522065D01*
X74398751Y-97605472D01*
X74657696Y-97726220D01*
X74764136Y-97723312D01*
X74827418Y-97700279D01*
X74263230Y-96543983D02*
X74240197Y-96480701D01*
X74174007Y-96397294D01*
X73958219Y-96296671D01*
X73851780Y-96299579D01*
X73788497Y-96322612D01*
X73705090Y-96388802D01*
X73664841Y-96475117D01*
X73647625Y-96624714D01*
X73924019Y-97384101D01*
X73362971Y-97122480D01*
%TO.C,D31*%
X56207162Y-94568963D02*
X56629780Y-93662655D01*
X56413992Y-93562032D01*
X56264395Y-93544815D01*
X56137831Y-93590881D01*
X56054424Y-93657072D01*
X55930768Y-93809577D01*
X55870394Y-93939049D01*
X55833052Y-94131804D01*
X55835961Y-94238244D01*
X55882026Y-94364808D01*
X55991374Y-94468340D01*
X56207162Y-94568963D01*
X55809787Y-93280287D02*
X55248739Y-93018666D01*
X55389845Y-93504799D01*
X55260372Y-93444425D01*
X55153932Y-93447333D01*
X55090650Y-93470365D01*
X55007243Y-93536556D01*
X54906620Y-93752343D01*
X54909528Y-93858783D01*
X54932561Y-93922065D01*
X54998751Y-94005472D01*
X55257696Y-94126220D01*
X55364136Y-94123312D01*
X55427418Y-94100279D01*
X53962971Y-93522480D02*
X54480861Y-93763976D01*
X54221916Y-93643228D02*
X54644534Y-92736920D01*
X54670475Y-92906642D01*
X54716541Y-93033206D01*
X54782731Y-93116613D01*
%TO.C,D30*%
X260899057Y-75342605D02*
X260476438Y-74436297D01*
X260260651Y-74536920D01*
X260151303Y-74640452D01*
X260105237Y-74767016D01*
X260102329Y-74873456D01*
X260139670Y-75066211D01*
X260200044Y-75195683D01*
X260323701Y-75348188D01*
X260407107Y-75414379D01*
X260533672Y-75460444D01*
X260683269Y-75443228D01*
X260899057Y-75342605D01*
X259656446Y-74818666D02*
X259095398Y-75080287D01*
X259558498Y-75284674D01*
X259429025Y-75345048D01*
X259362835Y-75428455D01*
X259339802Y-75491737D01*
X259336894Y-75598177D01*
X259437517Y-75813964D01*
X259520924Y-75880155D01*
X259584206Y-75903187D01*
X259690646Y-75906096D01*
X259949591Y-75785348D01*
X260015782Y-75701941D01*
X260038814Y-75638658D01*
X258534350Y-75341907D02*
X258448035Y-75382157D01*
X258381845Y-75465564D01*
X258358812Y-75528846D01*
X258355904Y-75635285D01*
X258393245Y-75828040D01*
X258493868Y-76043828D01*
X258617525Y-76196333D01*
X258700932Y-76262523D01*
X258764214Y-76285556D01*
X258870653Y-76288464D01*
X258956968Y-76248215D01*
X259023159Y-76164808D01*
X259046192Y-76101526D01*
X259049100Y-75995086D01*
X259011759Y-75802332D01*
X258911135Y-75586544D01*
X258787479Y-75434039D01*
X258704072Y-75367848D01*
X258640790Y-75344815D01*
X258534350Y-75341907D01*
%TO.C,D29*%
X238499057Y-72142605D02*
X238076438Y-71236297D01*
X237860651Y-71336920D01*
X237751303Y-71440452D01*
X237705237Y-71567016D01*
X237702329Y-71673456D01*
X237739670Y-71866211D01*
X237800044Y-71995683D01*
X237923701Y-72148188D01*
X238007107Y-72214379D01*
X238133672Y-72260444D01*
X238283269Y-72243228D01*
X238499057Y-72142605D01*
X237253537Y-71725105D02*
X237190255Y-71702073D01*
X237083815Y-71699164D01*
X236868028Y-71799788D01*
X236801838Y-71883195D01*
X236778805Y-71946477D01*
X236775897Y-72052917D01*
X236816146Y-72139232D01*
X236919677Y-72248579D01*
X237679064Y-72524973D01*
X237118016Y-72786594D01*
X236686441Y-72987841D02*
X236513811Y-73068340D01*
X236407371Y-73065432D01*
X236344089Y-73042399D01*
X236197400Y-72953176D01*
X236073744Y-72800670D01*
X235912746Y-72455410D01*
X235915654Y-72348970D01*
X235938687Y-72285688D01*
X236004878Y-72202281D01*
X236177508Y-72121783D01*
X236283947Y-72124691D01*
X236347230Y-72147724D01*
X236430636Y-72213914D01*
X236531260Y-72429702D01*
X236528352Y-72536141D01*
X236505319Y-72599423D01*
X236439129Y-72682830D01*
X236266498Y-72763329D01*
X236160059Y-72760421D01*
X236096777Y-72737388D01*
X236013370Y-72671198D01*
%TO.C,D28*%
X219099057Y-75742605D02*
X218676438Y-74836297D01*
X218460651Y-74936920D01*
X218351303Y-75040452D01*
X218305237Y-75167016D01*
X218302329Y-75273456D01*
X218339670Y-75466211D01*
X218400044Y-75595683D01*
X218523701Y-75748188D01*
X218607107Y-75814379D01*
X218733672Y-75860444D01*
X218883269Y-75843228D01*
X219099057Y-75742605D01*
X217853537Y-75325105D02*
X217790255Y-75302073D01*
X217683815Y-75299164D01*
X217468028Y-75399788D01*
X217401838Y-75483195D01*
X217378805Y-75546477D01*
X217375897Y-75652917D01*
X217416146Y-75739232D01*
X217519677Y-75848579D01*
X218279064Y-76124973D01*
X217718016Y-76386594D01*
X216958630Y-76110200D02*
X217024820Y-76026793D01*
X217047853Y-75963511D01*
X217050761Y-75857072D01*
X217030636Y-75813914D01*
X216947230Y-75747724D01*
X216883947Y-75724691D01*
X216777508Y-75721783D01*
X216604878Y-75802281D01*
X216538687Y-75885688D01*
X216515654Y-75948970D01*
X216512746Y-76055410D01*
X216532871Y-76098568D01*
X216616278Y-76164758D01*
X216679560Y-76187791D01*
X216786000Y-76190699D01*
X216958630Y-76110200D01*
X217065070Y-76113108D01*
X217128352Y-76136141D01*
X217211759Y-76202332D01*
X217292257Y-76374962D01*
X217289349Y-76481401D01*
X217266316Y-76544684D01*
X217200126Y-76628090D01*
X217027496Y-76708589D01*
X216921056Y-76705681D01*
X216857774Y-76682648D01*
X216774367Y-76616458D01*
X216693868Y-76443828D01*
X216696777Y-76337388D01*
X216719809Y-76274106D01*
X216786000Y-76190699D01*
%TO.C,D27*%
X204099057Y-88342605D02*
X203676438Y-87436297D01*
X203460651Y-87536920D01*
X203351303Y-87640452D01*
X203305237Y-87767016D01*
X203302329Y-87873456D01*
X203339670Y-88066211D01*
X203400044Y-88195683D01*
X203523701Y-88348188D01*
X203607107Y-88414379D01*
X203733672Y-88460444D01*
X203883269Y-88443228D01*
X204099057Y-88342605D01*
X202853537Y-87925105D02*
X202790255Y-87902073D01*
X202683815Y-87899164D01*
X202468028Y-87999788D01*
X202401838Y-88083195D01*
X202378805Y-88146477D01*
X202375897Y-88252917D01*
X202416146Y-88339232D01*
X202519677Y-88448579D01*
X203279064Y-88724973D01*
X202718016Y-88986594D01*
X201993295Y-88221159D02*
X201389090Y-88502905D01*
X202200126Y-89228090D01*
%TO.C,D26*%
X187899057Y-98542605D02*
X187476438Y-97636297D01*
X187260651Y-97736920D01*
X187151303Y-97840452D01*
X187105237Y-97967016D01*
X187102329Y-98073456D01*
X187139670Y-98266211D01*
X187200044Y-98395683D01*
X187323701Y-98548188D01*
X187407107Y-98614379D01*
X187533672Y-98660444D01*
X187683269Y-98643228D01*
X187899057Y-98542605D01*
X186653537Y-98125105D02*
X186590255Y-98102073D01*
X186483815Y-98099164D01*
X186268028Y-98199788D01*
X186201838Y-98283195D01*
X186178805Y-98346477D01*
X186175897Y-98452917D01*
X186216146Y-98539232D01*
X186319677Y-98648579D01*
X187079064Y-98924973D01*
X186518016Y-99186594D01*
X185318563Y-98642531D02*
X185491193Y-98562032D01*
X185597632Y-98564940D01*
X185660915Y-98587973D01*
X185807604Y-98677196D01*
X185931260Y-98829702D01*
X186092257Y-99174962D01*
X186089349Y-99281401D01*
X186066316Y-99344684D01*
X186000126Y-99428090D01*
X185827496Y-99508589D01*
X185721056Y-99505681D01*
X185657774Y-99482648D01*
X185574367Y-99416458D01*
X185473744Y-99200670D01*
X185476652Y-99094231D01*
X185499685Y-99030948D01*
X185565875Y-98947541D01*
X185738505Y-98867043D01*
X185844945Y-98869951D01*
X185908227Y-98892984D01*
X185991634Y-98959174D01*
%TO.C,D25*%
X114807162Y-103768963D02*
X115229780Y-102862655D01*
X115013992Y-102762032D01*
X114864395Y-102744815D01*
X114737831Y-102790881D01*
X114654424Y-102857072D01*
X114530768Y-103009577D01*
X114470394Y-103139049D01*
X114433052Y-103331804D01*
X114435961Y-103438244D01*
X114482026Y-103564808D01*
X114591374Y-103668340D01*
X114807162Y-103768963D01*
X114326380Y-102546477D02*
X114303347Y-102483195D01*
X114237157Y-102399788D01*
X114021370Y-102299164D01*
X113914930Y-102302073D01*
X113851648Y-102325105D01*
X113768241Y-102391296D01*
X113727991Y-102477611D01*
X113710775Y-102627208D01*
X113987169Y-103386594D01*
X113426121Y-103124973D01*
X113028747Y-101836297D02*
X113460322Y-102037544D01*
X113302233Y-102489243D01*
X113279200Y-102425961D01*
X113213009Y-102342554D01*
X112997222Y-102241931D01*
X112890782Y-102244839D01*
X112827500Y-102267872D01*
X112744093Y-102334062D01*
X112643470Y-102549850D01*
X112646378Y-102656290D01*
X112669411Y-102719572D01*
X112735601Y-102802979D01*
X112951389Y-102903602D01*
X113057828Y-102900694D01*
X113121110Y-102877661D01*
%TO.C,D24*%
X98607162Y-93368963D02*
X99029780Y-92462655D01*
X98813992Y-92362032D01*
X98664395Y-92344815D01*
X98537831Y-92390881D01*
X98454424Y-92457072D01*
X98330768Y-92609577D01*
X98270394Y-92739049D01*
X98233052Y-92931804D01*
X98235961Y-93038244D01*
X98282026Y-93164808D01*
X98391374Y-93268340D01*
X98607162Y-93368963D01*
X98126380Y-92146477D02*
X98103347Y-92083195D01*
X98037157Y-91999788D01*
X97821370Y-91899164D01*
X97714930Y-91902073D01*
X97651648Y-91925105D01*
X97568241Y-91991296D01*
X97527991Y-92077611D01*
X97510775Y-92227208D01*
X97787169Y-92986594D01*
X97226121Y-92724973D01*
X96731031Y-91758524D02*
X96449286Y-92362729D01*
X97107816Y-91513887D02*
X97021734Y-92261873D01*
X96460686Y-92000253D01*
%TO.C,D23*%
X83607162Y-80768963D02*
X84029780Y-79862655D01*
X83813992Y-79762032D01*
X83664395Y-79744815D01*
X83537831Y-79790881D01*
X83454424Y-79857072D01*
X83330768Y-80009577D01*
X83270394Y-80139049D01*
X83233052Y-80331804D01*
X83235961Y-80438244D01*
X83282026Y-80564808D01*
X83391374Y-80668340D01*
X83607162Y-80768963D01*
X83126380Y-79546477D02*
X83103347Y-79483195D01*
X83037157Y-79399788D01*
X82821370Y-79299164D01*
X82714930Y-79302073D01*
X82651648Y-79325105D01*
X82568241Y-79391296D01*
X82527991Y-79477611D01*
X82510775Y-79627208D01*
X82787169Y-80386594D01*
X82226121Y-80124973D01*
X82346637Y-79077793D02*
X81785589Y-78816172D01*
X81926694Y-79302305D01*
X81797222Y-79241931D01*
X81690782Y-79244839D01*
X81627500Y-79267872D01*
X81544093Y-79334062D01*
X81443470Y-79549850D01*
X81446378Y-79656290D01*
X81469411Y-79719572D01*
X81535601Y-79802979D01*
X81794546Y-79923727D01*
X81900986Y-79920819D01*
X81964268Y-79897786D01*
%TO.C,D22*%
X64207162Y-77368963D02*
X64629780Y-76462655D01*
X64413992Y-76362032D01*
X64264395Y-76344815D01*
X64137831Y-76390881D01*
X64054424Y-76457072D01*
X63930768Y-76609577D01*
X63870394Y-76739049D01*
X63833052Y-76931804D01*
X63835961Y-77038244D01*
X63882026Y-77164808D01*
X63991374Y-77268340D01*
X64207162Y-77368963D01*
X63726380Y-76146477D02*
X63703347Y-76083195D01*
X63637157Y-75999788D01*
X63421370Y-75899164D01*
X63314930Y-75902073D01*
X63251648Y-75925105D01*
X63168241Y-75991296D01*
X63127991Y-76077611D01*
X63110775Y-76227208D01*
X63387169Y-76986594D01*
X62826121Y-76724973D01*
X62863230Y-75743983D02*
X62840197Y-75680701D01*
X62774007Y-75597294D01*
X62558219Y-75496671D01*
X62451780Y-75499579D01*
X62388497Y-75522612D01*
X62305090Y-75588802D01*
X62264841Y-75675117D01*
X62247625Y-75824714D01*
X62524019Y-76584101D01*
X61962971Y-76322480D01*
%TO.C,D21*%
X41807162Y-80768963D02*
X42229780Y-79862655D01*
X42013992Y-79762032D01*
X41864395Y-79744815D01*
X41737831Y-79790881D01*
X41654424Y-79857072D01*
X41530768Y-80009577D01*
X41470394Y-80139049D01*
X41433052Y-80331804D01*
X41435961Y-80438244D01*
X41482026Y-80564808D01*
X41591374Y-80668340D01*
X41807162Y-80768963D01*
X41326380Y-79546477D02*
X41303347Y-79483195D01*
X41237157Y-79399788D01*
X41021370Y-79299164D01*
X40914930Y-79302073D01*
X40851648Y-79325105D01*
X40768241Y-79391296D01*
X40727991Y-79477611D01*
X40710775Y-79627208D01*
X40987169Y-80386594D01*
X40426121Y-80124973D01*
X39562971Y-79722480D02*
X40080861Y-79963976D01*
X39821916Y-79843228D02*
X40244534Y-78936920D01*
X40270475Y-79106642D01*
X40316541Y-79233206D01*
X40382731Y-79316613D01*
%TO.C,D20*%
X252899057Y-58142605D02*
X252476438Y-57236297D01*
X252260651Y-57336920D01*
X252151303Y-57440452D01*
X252105237Y-57567016D01*
X252102329Y-57673456D01*
X252139670Y-57866211D01*
X252200044Y-57995683D01*
X252323701Y-58148188D01*
X252407107Y-58214379D01*
X252533672Y-58260444D01*
X252683269Y-58243228D01*
X252899057Y-58142605D01*
X251653537Y-57725105D02*
X251590255Y-57702073D01*
X251483815Y-57699164D01*
X251268028Y-57799788D01*
X251201838Y-57883195D01*
X251178805Y-57946477D01*
X251175897Y-58052917D01*
X251216146Y-58139232D01*
X251319677Y-58248579D01*
X252079064Y-58524973D01*
X251518016Y-58786594D01*
X250534350Y-58141907D02*
X250448035Y-58182157D01*
X250381845Y-58265564D01*
X250358812Y-58328846D01*
X250355904Y-58435285D01*
X250393245Y-58628040D01*
X250493868Y-58843828D01*
X250617525Y-58996333D01*
X250700932Y-59062523D01*
X250764214Y-59085556D01*
X250870653Y-59088464D01*
X250956968Y-59048215D01*
X251023159Y-58964808D01*
X251046192Y-58901526D01*
X251049100Y-58795086D01*
X251011759Y-58602332D01*
X250911135Y-58386544D01*
X250787479Y-58234039D01*
X250704072Y-58167848D01*
X250640790Y-58144815D01*
X250534350Y-58141907D01*
%TO.C,D19*%
X230499057Y-54742605D02*
X230076438Y-53836297D01*
X229860651Y-53936920D01*
X229751303Y-54040452D01*
X229705237Y-54167016D01*
X229702329Y-54273456D01*
X229739670Y-54466211D01*
X229800044Y-54595683D01*
X229923701Y-54748188D01*
X230007107Y-54814379D01*
X230133672Y-54860444D01*
X230283269Y-54843228D01*
X230499057Y-54742605D01*
X229118016Y-55386594D02*
X229635906Y-55145098D01*
X229376961Y-55265846D02*
X228954343Y-54359538D01*
X229101032Y-54448762D01*
X229227596Y-54494827D01*
X229334036Y-54497735D01*
X228686441Y-55587841D02*
X228513811Y-55668340D01*
X228407371Y-55665432D01*
X228344089Y-55642399D01*
X228197400Y-55553176D01*
X228073744Y-55400670D01*
X227912746Y-55055410D01*
X227915654Y-54948970D01*
X227938687Y-54885688D01*
X228004878Y-54802281D01*
X228177508Y-54721783D01*
X228283947Y-54724691D01*
X228347230Y-54747724D01*
X228430636Y-54813914D01*
X228531260Y-55029702D01*
X228528352Y-55136141D01*
X228505319Y-55199423D01*
X228439129Y-55282830D01*
X228266498Y-55363329D01*
X228160059Y-55360421D01*
X228096777Y-55337388D01*
X228013370Y-55271198D01*
%TO.C,D18*%
X211099057Y-58342605D02*
X210676438Y-57436297D01*
X210460651Y-57536920D01*
X210351303Y-57640452D01*
X210305237Y-57767016D01*
X210302329Y-57873456D01*
X210339670Y-58066211D01*
X210400044Y-58195683D01*
X210523701Y-58348188D01*
X210607107Y-58414379D01*
X210733672Y-58460444D01*
X210883269Y-58443228D01*
X211099057Y-58342605D01*
X209718016Y-58986594D02*
X210235906Y-58745098D01*
X209976961Y-58865846D02*
X209554343Y-57959538D01*
X209701032Y-58048762D01*
X209827596Y-58094827D01*
X209934036Y-58097735D01*
X208958630Y-58710200D02*
X209024820Y-58626793D01*
X209047853Y-58563511D01*
X209050761Y-58457072D01*
X209030636Y-58413914D01*
X208947230Y-58347724D01*
X208883947Y-58324691D01*
X208777508Y-58321783D01*
X208604878Y-58402281D01*
X208538687Y-58485688D01*
X208515654Y-58548970D01*
X208512746Y-58655410D01*
X208532871Y-58698568D01*
X208616278Y-58764758D01*
X208679560Y-58787791D01*
X208786000Y-58790699D01*
X208958630Y-58710200D01*
X209065070Y-58713108D01*
X209128352Y-58736141D01*
X209211759Y-58802332D01*
X209292257Y-58974962D01*
X209289349Y-59081401D01*
X209266316Y-59144684D01*
X209200126Y-59228090D01*
X209027496Y-59308589D01*
X208921056Y-59305681D01*
X208857774Y-59282648D01*
X208774367Y-59216458D01*
X208693868Y-59043828D01*
X208696777Y-58937388D01*
X208719809Y-58874106D01*
X208786000Y-58790699D01*
%TO.C,D17*%
X195899057Y-70942605D02*
X195476438Y-70036297D01*
X195260651Y-70136920D01*
X195151303Y-70240452D01*
X195105237Y-70367016D01*
X195102329Y-70473456D01*
X195139670Y-70666211D01*
X195200044Y-70795683D01*
X195323701Y-70948188D01*
X195407107Y-71014379D01*
X195533672Y-71060444D01*
X195683269Y-71043228D01*
X195899057Y-70942605D01*
X194518016Y-71586594D02*
X195035906Y-71345098D01*
X194776961Y-71465846D02*
X194354343Y-70559538D01*
X194501032Y-70648762D01*
X194627596Y-70694827D01*
X194734036Y-70697735D01*
X193793295Y-70821159D02*
X193189090Y-71102905D01*
X194000126Y-71828090D01*
%TO.C,D16*%
X179899057Y-81342605D02*
X179476438Y-80436297D01*
X179260651Y-80536920D01*
X179151303Y-80640452D01*
X179105237Y-80767016D01*
X179102329Y-80873456D01*
X179139670Y-81066211D01*
X179200044Y-81195683D01*
X179323701Y-81348188D01*
X179407107Y-81414379D01*
X179533672Y-81460444D01*
X179683269Y-81443228D01*
X179899057Y-81342605D01*
X178518016Y-81986594D02*
X179035906Y-81745098D01*
X178776961Y-81865846D02*
X178354343Y-80959538D01*
X178501032Y-81048762D01*
X178627596Y-81094827D01*
X178734036Y-81097735D01*
X177318563Y-81442531D02*
X177491193Y-81362032D01*
X177597632Y-81364940D01*
X177660915Y-81387973D01*
X177807604Y-81477196D01*
X177931260Y-81629702D01*
X178092257Y-81974962D01*
X178089349Y-82081401D01*
X178066316Y-82144684D01*
X178000126Y-82228090D01*
X177827496Y-82308589D01*
X177721056Y-82305681D01*
X177657774Y-82282648D01*
X177574367Y-82216458D01*
X177473744Y-82000670D01*
X177476652Y-81894231D01*
X177499685Y-81830948D01*
X177565875Y-81747541D01*
X177738505Y-81667043D01*
X177844945Y-81669951D01*
X177908227Y-81692984D01*
X177991634Y-81759174D01*
%TO.C,D15*%
X122807162Y-86568963D02*
X123229780Y-85662655D01*
X123013992Y-85562032D01*
X122864395Y-85544815D01*
X122737831Y-85590881D01*
X122654424Y-85657072D01*
X122530768Y-85809577D01*
X122470394Y-85939049D01*
X122433052Y-86131804D01*
X122435961Y-86238244D01*
X122482026Y-86364808D01*
X122591374Y-86468340D01*
X122807162Y-86568963D01*
X121426121Y-85924973D02*
X121944011Y-86166470D01*
X121685066Y-86045722D02*
X122107685Y-85139414D01*
X122133626Y-85309136D01*
X122179691Y-85435700D01*
X122245882Y-85519107D01*
X121028747Y-84636297D02*
X121460322Y-84837544D01*
X121302233Y-85289243D01*
X121279200Y-85225961D01*
X121213009Y-85142554D01*
X120997222Y-85041931D01*
X120890782Y-85044839D01*
X120827500Y-85067872D01*
X120744093Y-85134062D01*
X120643470Y-85349850D01*
X120646378Y-85456290D01*
X120669411Y-85519572D01*
X120735601Y-85602979D01*
X120951389Y-85703602D01*
X121057828Y-85700694D01*
X121121110Y-85677661D01*
%TO.C,D14*%
X106807162Y-76168963D02*
X107229780Y-75262655D01*
X107013992Y-75162032D01*
X106864395Y-75144815D01*
X106737831Y-75190881D01*
X106654424Y-75257072D01*
X106530768Y-75409577D01*
X106470394Y-75539049D01*
X106433052Y-75731804D01*
X106435961Y-75838244D01*
X106482026Y-75964808D01*
X106591374Y-76068340D01*
X106807162Y-76168963D01*
X105426121Y-75524973D02*
X105944011Y-75766470D01*
X105685066Y-75645722D02*
X106107685Y-74739414D01*
X106133626Y-74909136D01*
X106179691Y-75035700D01*
X106245882Y-75119107D01*
X104931031Y-74558524D02*
X104649286Y-75162729D01*
X105307816Y-74313887D02*
X105221734Y-75061873D01*
X104660686Y-74800253D01*
%TO.C,D13*%
X91607162Y-63568963D02*
X92029780Y-62662655D01*
X91813992Y-62562032D01*
X91664395Y-62544815D01*
X91537831Y-62590881D01*
X91454424Y-62657072D01*
X91330768Y-62809577D01*
X91270394Y-62939049D01*
X91233052Y-63131804D01*
X91235961Y-63238244D01*
X91282026Y-63364808D01*
X91391374Y-63468340D01*
X91607162Y-63568963D01*
X90226121Y-62924973D02*
X90744011Y-63166470D01*
X90485066Y-63045722D02*
X90907685Y-62139414D01*
X90933626Y-62309136D01*
X90979691Y-62435700D01*
X91045882Y-62519107D01*
X90346637Y-61877793D02*
X89785589Y-61616172D01*
X89926694Y-62102305D01*
X89797222Y-62041931D01*
X89690782Y-62044839D01*
X89627500Y-62067872D01*
X89544093Y-62134062D01*
X89443470Y-62349850D01*
X89446378Y-62456290D01*
X89469411Y-62519572D01*
X89535601Y-62602979D01*
X89794546Y-62723727D01*
X89900986Y-62720819D01*
X89964268Y-62697786D01*
%TO.C,D12*%
X72407162Y-60168963D02*
X72829780Y-59262655D01*
X72613992Y-59162032D01*
X72464395Y-59144815D01*
X72337831Y-59190881D01*
X72254424Y-59257072D01*
X72130768Y-59409577D01*
X72070394Y-59539049D01*
X72033052Y-59731804D01*
X72035961Y-59838244D01*
X72082026Y-59964808D01*
X72191374Y-60068340D01*
X72407162Y-60168963D01*
X71026121Y-59524973D02*
X71544011Y-59766470D01*
X71285066Y-59645722D02*
X71707685Y-58739414D01*
X71733626Y-58909136D01*
X71779691Y-59035700D01*
X71845882Y-59119107D01*
X71063230Y-58543983D02*
X71040197Y-58480701D01*
X70974007Y-58397294D01*
X70758219Y-58296671D01*
X70651780Y-58299579D01*
X70588497Y-58322612D01*
X70505090Y-58388802D01*
X70464841Y-58475117D01*
X70447625Y-58624714D01*
X70724019Y-59384101D01*
X70162971Y-59122480D01*
%TO.C,D11*%
X49807162Y-63368963D02*
X50229780Y-62462655D01*
X50013992Y-62362032D01*
X49864395Y-62344815D01*
X49737831Y-62390881D01*
X49654424Y-62457072D01*
X49530768Y-62609577D01*
X49470394Y-62739049D01*
X49433052Y-62931804D01*
X49435961Y-63038244D01*
X49482026Y-63164808D01*
X49591374Y-63268340D01*
X49807162Y-63368963D01*
X48426121Y-62724973D02*
X48944011Y-62966470D01*
X48685066Y-62845722D02*
X49107685Y-61939414D01*
X49133626Y-62109136D01*
X49179691Y-62235700D01*
X49245882Y-62319107D01*
X47562971Y-62322480D02*
X48080861Y-62563976D01*
X47821916Y-62443228D02*
X48244534Y-61536920D01*
X48270475Y-61706642D01*
X48316541Y-61833206D01*
X48382731Y-61916613D01*
%TO.C,D10*%
X245099057Y-40942605D02*
X244676438Y-40036297D01*
X244460651Y-40136920D01*
X244351303Y-40240452D01*
X244305237Y-40367016D01*
X244302329Y-40473456D01*
X244339670Y-40666211D01*
X244400044Y-40795683D01*
X244523701Y-40948188D01*
X244607107Y-41014379D01*
X244733672Y-41060444D01*
X244883269Y-41043228D01*
X245099057Y-40942605D01*
X243718016Y-41586594D02*
X244235906Y-41345098D01*
X243976961Y-41465846D02*
X243554343Y-40559538D01*
X243701032Y-40648762D01*
X243827596Y-40694827D01*
X243934036Y-40697735D01*
X242734350Y-40941907D02*
X242648035Y-40982157D01*
X242581845Y-41065564D01*
X242558812Y-41128846D01*
X242555904Y-41235285D01*
X242593245Y-41428040D01*
X242693868Y-41643828D01*
X242817525Y-41796333D01*
X242900932Y-41862523D01*
X242964214Y-41885556D01*
X243070653Y-41888464D01*
X243156968Y-41848215D01*
X243223159Y-41764808D01*
X243246192Y-41701526D01*
X243249100Y-41595086D01*
X243211759Y-41402332D01*
X243111135Y-41186544D01*
X242987479Y-41034039D01*
X242904072Y-40967848D01*
X242840790Y-40944815D01*
X242734350Y-40941907D01*
%TO.C,D9*%
X221867481Y-37743851D02*
X221444863Y-36837544D01*
X221229076Y-36938167D01*
X221119728Y-37041699D01*
X221073662Y-37168263D01*
X221070754Y-37274703D01*
X221108095Y-37467457D01*
X221168469Y-37596930D01*
X221292125Y-37749435D01*
X221375532Y-37815626D01*
X221502097Y-37861691D01*
X221651694Y-37844475D01*
X221867481Y-37743851D01*
X220918016Y-38186594D02*
X220745386Y-38267093D01*
X220638946Y-38264185D01*
X220575664Y-38241152D01*
X220428975Y-38151929D01*
X220305319Y-37999423D01*
X220144321Y-37654163D01*
X220147230Y-37547724D01*
X220170262Y-37484441D01*
X220236453Y-37401035D01*
X220409083Y-37320536D01*
X220515523Y-37323444D01*
X220578805Y-37346477D01*
X220662212Y-37412667D01*
X220762835Y-37628455D01*
X220759927Y-37734894D01*
X220736894Y-37798177D01*
X220670704Y-37881584D01*
X220498074Y-37962082D01*
X220391634Y-37959174D01*
X220328352Y-37936141D01*
X220244945Y-37869951D01*
%TO.C,D8*%
X202667481Y-41343851D02*
X202244863Y-40437544D01*
X202029076Y-40538167D01*
X201919728Y-40641699D01*
X201873662Y-40768263D01*
X201870754Y-40874703D01*
X201908095Y-41067457D01*
X201968469Y-41196930D01*
X202092125Y-41349435D01*
X202175532Y-41415626D01*
X202302097Y-41461691D01*
X202451694Y-41444475D01*
X202667481Y-41343851D01*
X201390205Y-41308953D02*
X201456395Y-41225547D01*
X201479428Y-41162264D01*
X201482336Y-41055825D01*
X201462212Y-41012667D01*
X201378805Y-40946477D01*
X201315523Y-40923444D01*
X201209083Y-40920536D01*
X201036453Y-41001035D01*
X200970262Y-41084441D01*
X200947230Y-41147724D01*
X200944321Y-41254163D01*
X200964446Y-41297321D01*
X201047853Y-41363511D01*
X201111135Y-41386544D01*
X201217575Y-41389452D01*
X201390205Y-41308953D01*
X201496645Y-41311862D01*
X201559927Y-41334894D01*
X201643334Y-41401085D01*
X201723832Y-41573715D01*
X201720924Y-41680155D01*
X201697891Y-41743437D01*
X201631701Y-41826844D01*
X201459071Y-41907342D01*
X201352631Y-41904434D01*
X201289349Y-41881401D01*
X201205942Y-41815211D01*
X201125444Y-41642581D01*
X201128352Y-41536141D01*
X201151385Y-41472859D01*
X201217575Y-41389452D01*
%TO.C,D7*%
X187467481Y-53943851D02*
X187044863Y-53037544D01*
X186829076Y-53138167D01*
X186719728Y-53241699D01*
X186673662Y-53368263D01*
X186670754Y-53474703D01*
X186708095Y-53667457D01*
X186768469Y-53796930D01*
X186892125Y-53949435D01*
X186975532Y-54015626D01*
X187102097Y-54061691D01*
X187251694Y-54044475D01*
X187467481Y-53943851D01*
X186224870Y-53419912D02*
X185620665Y-53701658D01*
X186431701Y-54426844D01*
%TO.C,D6*%
X171467481Y-64143851D02*
X171044863Y-63237544D01*
X170829076Y-63338167D01*
X170719728Y-63441699D01*
X170673662Y-63568263D01*
X170670754Y-63674703D01*
X170708095Y-63867457D01*
X170768469Y-63996930D01*
X170892125Y-64149435D01*
X170975532Y-64215626D01*
X171102097Y-64261691D01*
X171251694Y-64244475D01*
X171467481Y-64143851D01*
X169750138Y-63841284D02*
X169922768Y-63760785D01*
X170029208Y-63763693D01*
X170092490Y-63786726D01*
X170239179Y-63875949D01*
X170362835Y-64028455D01*
X170523832Y-64373715D01*
X170520924Y-64480155D01*
X170497891Y-64543437D01*
X170431701Y-64626844D01*
X170259071Y-64707342D01*
X170152631Y-64704434D01*
X170089349Y-64681401D01*
X170005942Y-64615211D01*
X169905319Y-64399423D01*
X169908227Y-64292984D01*
X169931260Y-64229702D01*
X169997450Y-64146295D01*
X170170080Y-64065796D01*
X170276520Y-64068704D01*
X170339802Y-64091737D01*
X170423209Y-64157927D01*
%TO.C,D5*%
X130375587Y-68967716D02*
X130798205Y-68061409D01*
X130582417Y-67960785D01*
X130432820Y-67943569D01*
X130306256Y-67989634D01*
X130222849Y-68055825D01*
X130099192Y-68208330D01*
X130038818Y-68337803D01*
X130001477Y-68530557D01*
X130004385Y-68636997D01*
X130050451Y-68763561D01*
X130159799Y-68867093D01*
X130375587Y-68967716D01*
X129460322Y-67437544D02*
X129891897Y-67638790D01*
X129733808Y-68090490D01*
X129710775Y-68027208D01*
X129644585Y-67943801D01*
X129428797Y-67843178D01*
X129322357Y-67846086D01*
X129259075Y-67869119D01*
X129175668Y-67935309D01*
X129075045Y-68151097D01*
X129077953Y-68257536D01*
X129100986Y-68320819D01*
X129167176Y-68404225D01*
X129382964Y-68504849D01*
X129489403Y-68501941D01*
X129552686Y-68478908D01*
%TO.C,D4*%
X114375587Y-58767716D02*
X114798205Y-57861409D01*
X114582417Y-57760785D01*
X114432820Y-57743569D01*
X114306256Y-57789634D01*
X114222849Y-57855825D01*
X114099192Y-58008330D01*
X114038818Y-58137803D01*
X114001477Y-58330557D01*
X114004385Y-58436997D01*
X114050451Y-58563561D01*
X114159799Y-58667093D01*
X114375587Y-58767716D01*
X113362607Y-57559771D02*
X113080861Y-58163976D01*
X113739392Y-57315134D02*
X113653309Y-58063120D01*
X113092261Y-57801499D01*
%TO.C,D3*%
X99175587Y-46167716D02*
X99598205Y-45261409D01*
X99382417Y-45160785D01*
X99232820Y-45143569D01*
X99106256Y-45189634D01*
X99022849Y-45255825D01*
X98899192Y-45408330D01*
X98838818Y-45537803D01*
X98801477Y-45730557D01*
X98804385Y-45836997D01*
X98850451Y-45963561D01*
X98959799Y-46067093D01*
X99175587Y-46167716D01*
X98778212Y-44879040D02*
X98217164Y-44617419D01*
X98358269Y-45103552D01*
X98228797Y-45043178D01*
X98122357Y-45046086D01*
X98059075Y-45069119D01*
X97975668Y-45135309D01*
X97875045Y-45351097D01*
X97877953Y-45457536D01*
X97900986Y-45520819D01*
X97967176Y-45604225D01*
X98226121Y-45724973D01*
X98332561Y-45722065D01*
X98395843Y-45699032D01*
%TO.C,D2*%
X79975587Y-42767716D02*
X80398205Y-41861409D01*
X80182417Y-41760785D01*
X80032820Y-41743569D01*
X79906256Y-41789634D01*
X79822849Y-41855825D01*
X79699192Y-42008330D01*
X79638818Y-42137803D01*
X79601477Y-42330557D01*
X79604385Y-42436997D01*
X79650451Y-42563561D01*
X79759799Y-42667093D01*
X79975587Y-42767716D01*
X79494805Y-41545230D02*
X79471772Y-41481948D01*
X79405582Y-41398541D01*
X79189794Y-41297918D01*
X79083355Y-41300826D01*
X79020072Y-41323859D01*
X78936666Y-41390049D01*
X78896416Y-41476364D01*
X78879200Y-41625961D01*
X79155594Y-42385348D01*
X78594546Y-42123727D01*
%TO.C,D1*%
X57375587Y-45967716D02*
X57798205Y-45061409D01*
X57582417Y-44960785D01*
X57432820Y-44943569D01*
X57306256Y-44989634D01*
X57222849Y-45055825D01*
X57099192Y-45208330D01*
X57038818Y-45337803D01*
X57001477Y-45530557D01*
X57004385Y-45636997D01*
X57050451Y-45763561D01*
X57159799Y-45867093D01*
X57375587Y-45967716D01*
X55994546Y-45323727D02*
X56512436Y-45565223D01*
X56253491Y-45444475D02*
X56676109Y-44538167D01*
X56702050Y-44707889D01*
X56748116Y-44834453D01*
X56814306Y-44917860D01*
%TO.C,C8*%
X135819259Y-77735546D02*
X135866878Y-77783165D01*
X136009735Y-77830784D01*
X136104973Y-77830784D01*
X136247831Y-77783165D01*
X136343069Y-77687927D01*
X136390688Y-77592689D01*
X136438307Y-77402213D01*
X136438307Y-77259356D01*
X136390688Y-77068880D01*
X136343069Y-76973642D01*
X136247831Y-76878404D01*
X136104973Y-76830784D01*
X136009735Y-76830784D01*
X135866878Y-76878404D01*
X135819259Y-76926023D01*
X135247831Y-77259356D02*
X135343069Y-77211737D01*
X135390688Y-77164118D01*
X135438307Y-77068880D01*
X135438307Y-77021261D01*
X135390688Y-76926023D01*
X135343069Y-76878404D01*
X135247831Y-76830784D01*
X135057354Y-76830784D01*
X134962116Y-76878404D01*
X134914497Y-76926023D01*
X134866878Y-77021261D01*
X134866878Y-77068880D01*
X134914497Y-77164118D01*
X134962116Y-77211737D01*
X135057354Y-77259356D01*
X135247831Y-77259356D01*
X135343069Y-77306975D01*
X135390688Y-77354594D01*
X135438307Y-77449832D01*
X135438307Y-77640308D01*
X135390688Y-77735546D01*
X135343069Y-77783165D01*
X135247831Y-77830784D01*
X135057354Y-77830784D01*
X134962116Y-77783165D01*
X134914497Y-77735546D01*
X134866878Y-77640308D01*
X134866878Y-77449832D01*
X134914497Y-77354594D01*
X134962116Y-77306975D01*
X135057354Y-77259356D01*
%TO.C,C7*%
X149619259Y-96895546D02*
X149666878Y-96943165D01*
X149809735Y-96990784D01*
X149904973Y-96990784D01*
X150047831Y-96943165D01*
X150143069Y-96847927D01*
X150190688Y-96752689D01*
X150238307Y-96562213D01*
X150238307Y-96419356D01*
X150190688Y-96228880D01*
X150143069Y-96133642D01*
X150047831Y-96038404D01*
X149904973Y-95990784D01*
X149809735Y-95990784D01*
X149666878Y-96038404D01*
X149619259Y-96086023D01*
X149285926Y-95990784D02*
X148619259Y-95990784D01*
X149047831Y-96990784D01*
%TO.C,C6*%
X137289735Y-90891737D02*
X137337354Y-90844118D01*
X137384973Y-90701261D01*
X137384973Y-90606023D01*
X137337354Y-90463165D01*
X137242116Y-90367927D01*
X137146878Y-90320308D01*
X136956402Y-90272689D01*
X136813545Y-90272689D01*
X136623069Y-90320308D01*
X136527831Y-90367927D01*
X136432593Y-90463165D01*
X136384973Y-90606023D01*
X136384973Y-90701261D01*
X136432593Y-90844118D01*
X136480212Y-90891737D01*
X136384973Y-91748880D02*
X136384973Y-91558404D01*
X136432593Y-91463165D01*
X136480212Y-91415546D01*
X136623069Y-91320308D01*
X136813545Y-91272689D01*
X137194497Y-91272689D01*
X137289735Y-91320308D01*
X137337354Y-91367927D01*
X137384973Y-91463165D01*
X137384973Y-91653642D01*
X137337354Y-91748880D01*
X137289735Y-91796499D01*
X137194497Y-91844118D01*
X136956402Y-91844118D01*
X136861164Y-91796499D01*
X136813545Y-91748880D01*
X136765926Y-91653642D01*
X136765926Y-91463165D01*
X136813545Y-91367927D01*
X136861164Y-91320308D01*
X136956402Y-91272689D01*
%TO.C,C4*%
X155619259Y-84895546D02*
X155666878Y-84943165D01*
X155809735Y-84990784D01*
X155904973Y-84990784D01*
X156047831Y-84943165D01*
X156143069Y-84847927D01*
X156190688Y-84752689D01*
X156238307Y-84562213D01*
X156238307Y-84419356D01*
X156190688Y-84228880D01*
X156143069Y-84133642D01*
X156047831Y-84038404D01*
X155904973Y-83990784D01*
X155809735Y-83990784D01*
X155666878Y-84038404D01*
X155619259Y-84086023D01*
X154762116Y-84324118D02*
X154762116Y-84990784D01*
X155000212Y-83943165D02*
X155238307Y-84657451D01*
X154619259Y-84657451D01*
%TO.C,C3*%
X159819259Y-87695546D02*
X159866878Y-87743165D01*
X160009735Y-87790784D01*
X160104973Y-87790784D01*
X160247831Y-87743165D01*
X160343069Y-87647927D01*
X160390688Y-87552689D01*
X160438307Y-87362213D01*
X160438307Y-87219356D01*
X160390688Y-87028880D01*
X160343069Y-86933642D01*
X160247831Y-86838404D01*
X160104973Y-86790784D01*
X160009735Y-86790784D01*
X159866878Y-86838404D01*
X159819259Y-86886023D01*
X159485926Y-86790784D02*
X158866878Y-86790784D01*
X159200212Y-87171737D01*
X159057354Y-87171737D01*
X158962116Y-87219356D01*
X158914497Y-87266975D01*
X158866878Y-87362213D01*
X158866878Y-87600308D01*
X158914497Y-87695546D01*
X158962116Y-87743165D01*
X159057354Y-87790784D01*
X159343069Y-87790784D01*
X159438307Y-87743165D01*
X159485926Y-87695546D01*
%TO.C,C2*%
X159819259Y-90295546D02*
X159866878Y-90343165D01*
X160009735Y-90390784D01*
X160104973Y-90390784D01*
X160247831Y-90343165D01*
X160343069Y-90247927D01*
X160390688Y-90152689D01*
X160438307Y-89962213D01*
X160438307Y-89819356D01*
X160390688Y-89628880D01*
X160343069Y-89533642D01*
X160247831Y-89438404D01*
X160104973Y-89390784D01*
X160009735Y-89390784D01*
X159866878Y-89438404D01*
X159819259Y-89486023D01*
X159438307Y-89486023D02*
X159390688Y-89438404D01*
X159295450Y-89390784D01*
X159057354Y-89390784D01*
X158962116Y-89438404D01*
X158914497Y-89486023D01*
X158866878Y-89581261D01*
X158866878Y-89676499D01*
X158914497Y-89819356D01*
X159485926Y-90390784D01*
X158866878Y-90390784D01*
%TO.C,C1*%
X144619259Y-76535546D02*
X144666878Y-76583165D01*
X144809735Y-76630784D01*
X144904973Y-76630784D01*
X145047831Y-76583165D01*
X145143069Y-76487927D01*
X145190688Y-76392689D01*
X145238307Y-76202213D01*
X145238307Y-76059356D01*
X145190688Y-75868880D01*
X145143069Y-75773642D01*
X145047831Y-75678404D01*
X144904973Y-75630784D01*
X144809735Y-75630784D01*
X144666878Y-75678404D01*
X144619259Y-75726023D01*
X143666878Y-76630784D02*
X144238307Y-76630784D01*
X143952593Y-76630784D02*
X143952593Y-75630784D01*
X144047831Y-75773642D01*
X144143069Y-75868880D01*
X144238307Y-75916499D01*
%TD*%
M02*
