M48
; DRILL file {KiCad (5.1.10)-1} date 07/25/21 08:52:13
; FORMAT={-:-/ absolute / inch / decimal}
; #@! TF.CreationDate,2021-07-25T08:52:13-07:00
; #@! TF.GenerationSoftware,Kicad,Pcbnew,(5.1.10)-1
; #@! TF.FileFunction,Plated,1,2,PTH
FMAT,2
INCH
T1C0.0157
T2C0.0236
T3C0.0300
T4C0.0394
T5C0.1181
%
G90
G05
T1
X1.0651Y-3.0574
X1.5533Y-2.4826
X1.7186Y-3.459
X1.7265Y-2.5141
X1.7816Y-1.7661
X1.821Y-3.1677
X1.8446Y-2.6007
X1.884Y-1.8054
X1.9842Y-2.8065
X2.0257Y-2.1125
X2.0493Y-1.0495
X2.1123Y-1.1047
X2.1168Y-2.9112
X2.1281Y-3.0102
X2.1619Y-1.9134
X2.1989Y-1.1362
X2.2383Y-2.1125
X2.2698Y-3.8054
X2.2777Y-3.0338
X2.3407Y-1.4354
X2.4036Y-1.1738
X2.4194Y-3.7346
X2.443Y-2.3176
X2.4509Y-3.6773
X2.5438Y-3.2763
X2.5454Y-3.0495
X2.5533Y-3.4117
X2.5847Y-3.1204
X2.5926Y-1.4511
X2.6005Y-1.2228
X2.7501Y-2.4901
X2.758Y-4.7031
X2.7659Y-1.6322
X2.8052Y-0.9157
X2.8918Y-2.3645
X2.9155Y-3.1677
X2.9239Y-4.3336
X3.0414Y-0.9787
X3.0414Y-1.7661
X3.0414Y-3.9236
X3.0493Y-4.0023
X3.0751Y-4.1429
X3.0864Y-2.4771
X3.1674Y-1.8684
X3.1753Y-1.648
X3.191Y-2.4515
X3.2068Y-1.8369
X3.2068Y-3.2936
X3.2304Y-4.1913
X3.2383Y-3.522
X3.2477Y-3.2921
X3.2619Y-1.711
X3.2777Y-1.5771
X3.3131Y-1.707
X3.3534Y-3.4384
X3.3564Y-3.4826
X3.3721Y-3.0023
X3.3757Y-1.6868
X3.377Y-1.1173
X3.3879Y-4.9393
X3.3958Y-1.8129
X3.4265Y-1.1118
X3.4351Y-2.6243
X3.4722Y-4.3038
X3.4784Y-2.6204
X3.5218Y-1.7661
X3.5477Y-4.2913
X3.5593Y-2.6007
X3.664Y-2.7891
X3.6871Y-3.1283
X3.6871Y-4.7267
X3.6887Y-1.9074
X3.7344Y-1.1204
X3.7895Y-1.0889
X3.821Y-1.9944
X3.8446Y-1.0495
X3.8469Y-2.9685
X3.884Y-1.9787
X3.8895Y-3.0334
X3.9233Y-3.7897
X3.9525Y-4.5794
X3.9548Y-3.8999
X4.0175Y-3.1049
X4.0178Y-4.6007
X4.0414Y-5.3881
X4.089Y-3.1324
X4.1123Y-3.6243
X4.1162Y-2.2582
X4.1281Y-1.2385
X4.1359Y-3.0893
X4.1832Y-1.2464
X4.2005Y-4.7645
X4.2045Y-2.3484
X4.2157Y-3.2521
X4.258Y-4.7228
X4.3541Y-2.4377
X4.4194Y-3.3413
X4.4233Y-2.4629
X4.4273Y-1.5456
X4.5218Y-2.4669
X4.5296Y-4.8606
X4.5769Y-5.9314
X4.5989Y-4.8353
X4.6084Y-4.1204
X4.6196Y-4.1868
X4.6241Y-3.4901
X4.6313Y-4.8576
X4.6454Y-5.1149
X4.6556Y-2.6791
X4.6871Y-4.829
X4.7107Y-3.5141
X4.7344Y-5.1598
X4.7399Y-1.7369
X4.7557Y-3.9685
X4.7642Y-2.6653
X4.7855Y-1.7385
X4.7973Y-5.7346
X4.8048Y-4.1204
X4.8052Y-3.9393
X4.8052Y-4.8999
X4.8367Y-3.8999
X4.8678Y-3.9708
X4.8761Y-3.8684
X4.8997Y-3.4905
X4.9312Y-5.3094
X4.9391Y-1.9944
X4.9627Y-3.522
X4.9627Y-4.1519
X4.9942Y-2.8287
X4.9942Y-3.5535
X5.0021Y-1.9941
X5.0099Y-3.3409
X5.0178Y-3.4905
X5.0336Y-2.7976
X5.0414Y-5.1519
X5.0607Y-3.4972
X5.0647Y-3.4196
X5.0729Y-5.3094
X5.0729Y-5.9708
X5.0955Y-3.3824
X5.0966Y-3.3015
X5.1037Y-1.9629
X5.1202Y-6.0732
X5.1438Y-4.7503
X5.191Y-3.3015
X5.191Y-3.3409
X5.191Y-3.3803
X5.191Y-3.4196
X5.191Y-3.459
X5.191Y-3.4984
X5.191Y-6.0102
X5.1989Y-2.8133
X5.2147Y-2.7346
X5.2225Y-3.6243
X5.2383Y-2.6952
X5.2383Y-4.5535
X5.254Y-2.6558
X5.2698Y-6.0732
X5.3092Y-3.0023
X5.3147Y-2.1227
X5.3328Y-4.648
X5.3407Y-2.8527
X5.3485Y-6.018
X5.3721Y-2.1204
X5.3721Y-2.648
X5.38Y-3.0417
X5.3879Y-2.8133
X5.4194Y-5.1963
X5.443Y-5.2306
X5.4588Y-2.1677
X5.4588Y-2.8527
X5.4654Y-2.098
X5.4824Y-2.1362
X5.5375Y-3.0417
X5.5375Y-4.1519
X5.569Y-3.9704
X5.6005Y-4.1204
X5.6162Y-2.4669
X5.6399Y-3.0023
X5.6792Y-5.1963
X5.7029Y-5.4511
X5.7186Y-5.2306
X5.7501Y-4.6795
X5.7501Y-6.0732
X5.758Y-3.8291
X5.7659Y-4.2385
X5.7664Y-4.1918
X5.7816Y-3.0417
X5.7973Y-4.3015
X5.7973Y-5.2149
X5.8131Y-3.0023
X5.8446Y-3.7976
X5.8682Y-2.4669
X5.8918Y-2.8133
X5.9155Y-3.8287
X5.9233Y-2.7818
X5.952Y-2.8842
X5.9806Y-2.9151
X5.9902Y-2.9618
X5.9942Y-2.8133
X6.0021Y-2.144
X6.0021Y-3.7976
X6.0021Y-4.2671
X6.0021Y-4.7818
X6.0257Y-2.8527
X6.0336Y-2.1677
X6.0336Y-3.1991
X6.0364Y-3.6401
X6.0572Y-2.9128
X6.0572Y-4.5535
X6.0718Y-2.1581
X6.0808Y-3.1519
X6.1596Y-2.8133
X6.1596Y-4.7503
X6.1624Y-4.0574
X6.1753Y-2.0417
X6.191Y-4.0918
X6.2147Y-3.1991
X6.2147Y-5.1498
X6.2225Y-4.1913
X6.2462Y-4.648
X6.254Y-4.2385
X6.2963Y-2.8842
X6.3249Y-2.9551
X6.3328Y-5.2149
X6.3485Y-2.0309
X6.3564Y-4.7818
X6.3643Y-4.5535
X6.3879Y-3.4354
X6.4036Y-5.1212
X6.4242Y-3.1106
X6.4273Y-5.1834
X6.4453Y-1.9338
X6.4666Y-5.4747
X6.473Y-2.7796
X6.5218Y-4.9629
X6.5275Y-3.522
X6.5275Y-3.8684
X6.5354Y-3.9728
X6.5561Y-3.4461
X6.5611Y-4.1519
X6.5611Y-5.7346
X6.5847Y-3.5614
X6.5847Y-3.9393
X6.5999Y-5.0017
X6.6005Y-4.5535
X6.6005Y-5.3251
X6.6084Y-3.0653
X6.6162Y-3.585
X6.6162Y-3.8999
X6.6399Y-1.774
X6.695Y-4.9472
X6.7029Y-5.711
X6.7288Y-1.7369
X6.7501Y-1.648
X6.7737Y-3.5299
X6.7816Y-3.42
X6.7839Y-5.1857
X6.8052Y-5.0653
X6.8131Y-1.8842
X6.8154Y-2.6975
X6.821Y-3.4511
X6.8682Y-6.0023
X6.884Y-2.5692
X6.9548Y-4.648
X6.9863Y-4.8842
X6.9863Y-4.9393
X7.0083Y-1.6004
X7.0144Y-4.2183
X7.0595Y-2.5007
X7.0966Y-3.3488
X7.1146Y-1.5164
X7.1281Y-2.3881
X7.1887Y-3.2205
X7.1952Y-4.0632
X7.1989Y-4.6798
X7.1996Y-4.7983
X7.2091Y-4.7448
X7.2225Y-5.3094
X7.2304Y-4.0889
X7.2316Y-4.1948
X7.3328Y-2.3405
X7.3643Y-1.1677
X7.3643Y-3.1615
X7.3721Y-5.459
X7.4171Y-3.0393
X7.4267Y-4.0096
X7.4509Y-2.2779
X7.4903Y-2.1519
X7.4967Y-4.5989
X7.5296Y-4.5062
X7.5375Y-3.9551
X7.5794Y-1.1304
X7.632Y-3.0355
X7.6944Y-3.7025
X7.7131Y-1.0282
X7.7265Y-2.9393
X7.7521Y-1.8688
X7.821Y-2.8212
X7.843Y-2.9456
X7.844Y-2.6395
X7.965Y-4.3353
X7.9863Y-4.7188
X8.0021Y-5.018
X8.0336Y-4.2779
X8.0572Y-1.7818
X8.0627Y-2.5433
X8.0651Y-3.4747
X8.0808Y-1.1362
X8.0912Y-1.0832
X8.1027Y-3.2464
X8.1044Y-1.7192
X8.1674Y-0.9944
X8.1736Y-3.3263
X8.1832Y-3.3645
X8.3013Y-3.2779
X8.3092Y-2.27
X8.3092Y-4.1283
X8.3249Y-2.4511
X8.3249Y-3.6558
X8.3721Y-3.4432
X8.3782Y-1.8434
X8.3784Y-0.9692
X8.406Y-4.1227
X8.4115Y-4.0732
X8.443Y-3.9393
X8.4509Y-1.7507
X8.4666Y-0.8999
X8.4716Y-4.0417
X8.4745Y-3.9679
X8.5926Y-4.4826
X8.6714Y-3.1283
X8.6776Y-1.7027
X8.695Y-4.6716
X8.7329Y-2.5044
X8.758Y-3.0495
X8.7777Y-1.6362
X8.8068Y-2.4134
X8.821Y-1.4275
X8.9627Y-3.4826
X8.9847Y-2.3799
X9.0493Y-3.6637
X9.0887Y-2.3173
X9.0966Y-3.5535
X9.1123Y-1.1759
X9.1123Y-3.0972
X9.1281Y-2.1283
X9.1576Y-2.1571
X9.191Y-3.7188
X9.2147Y-3.8054
X9.3274Y-3.0596
X9.3564Y-1.081
X9.3895Y-1.8622
X9.4115Y-2.7031
X9.4194Y-2.8291
X9.4194Y-2.9787
X9.6871Y-1.7661
X9.6871Y-2.5539
X9.695Y-2.7425
X9.7501Y-3.3409
X9.758Y-1.6322
X9.7659Y-3.2228
X9.7895Y-3.5062
X10.0021Y-2.4432
X10.0336Y-2.2543
X10.3328Y-2.9393
T3
X5.0119Y-4.8645
X5.0119Y-4.9432
X5.941Y-4.8645
X5.941Y-4.9432
T4
X4.9942Y-4.5495
X4.9942Y-4.7464
X5.13Y-4.8783
X5.23Y-4.8783
X5.33Y-4.8783
X5.43Y-4.8783
X5.5651Y-4.5495
X5.5651Y-4.648
X5.5651Y-4.7464
X5.6005Y-5.9944
X5.7005Y-5.9944
X5.8005Y-5.9944
X5.9005Y-5.9944
X5.9194Y-4.5495
X5.9194Y-4.648
X5.9194Y-4.7464
X6.0592Y-4.8783
X6.1592Y-4.8783
X6.2592Y-4.8783
X6.3592Y-4.8783
X6.4903Y-4.5495
X6.4903Y-4.7464
T2
G00X5.5721Y-2.1342
M15
G01X5.5721Y-2.1578
M16
G05
G00X5.5721Y-2.2889
M15
G01X5.5721Y-2.3322
M16
G05
G00X5.9123Y-2.1342
M15
G01X5.9123Y-2.1578
M16
G05
G00X5.9123Y-2.2889
M15
G01X5.9123Y-2.3322
M16
G05
T4
G00X5.2078Y-5.2511
M15
G01X5.1881Y-5.2511
M16
G05
G00X5.1881Y-5.3511
M15
G01X5.2078Y-5.3511
M16
G05
G00X5.1881Y-5.4511
M15
G01X5.2078Y-5.4511
M16
G05
G00X5.1881Y-5.5511
M15
G01X5.2078Y-5.5511
M16
G05
G00X5.1881Y-5.6511
M15
G01X5.2078Y-5.6511
M16
G05
T5
G00X5.5355Y-5.0653
M15
G01X5.5159Y-5.0653
M16
G05
G00X5.5355Y-5.8369
M15
G01X5.5159Y-5.8369
M16
G05
G00X5.9686Y-5.0653
M15
G01X5.9489Y-5.0653
M16
G05
G00X5.9686Y-5.8369
M15
G01X5.9489Y-5.8369
M16
G05
T0
M30
