%TF.GenerationSoftware,KiCad,Pcbnew,(5.1.10)-1*%
%TF.CreationDate,2021-07-25T08:52:11-07:00*%
%TF.ProjectId,barobord,6261726f-626f-4726-942e-6b696361645f,rev?*%
%TF.SameCoordinates,Original*%
%TF.FileFunction,Copper,L1,Top*%
%TF.FilePolarity,Positive*%
%FSLAX46Y46*%
G04 Gerber Fmt 4.6, Leading zero omitted, Abs format (unit mm)*
G04 Created by KiCad (PCBNEW (5.1.10)-1) date 2021-07-25 08:52:11*
%MOMM*%
%LPD*%
G01*
G04 APERTURE LIST*
%TA.AperFunction,ComponentPad*%
%ADD10O,2.000000X3.000000*%
%TD*%
%TA.AperFunction,ComponentPad*%
%ADD11O,1.524000X1.524000*%
%TD*%
%TA.AperFunction,ComponentPad*%
%ADD12C,1.524000*%
%TD*%
%TA.AperFunction,ComponentPad*%
%ADD13R,2.000000X2.000000*%
%TD*%
%TA.AperFunction,ComponentPad*%
%ADD14C,2.000000*%
%TD*%
%TA.AperFunction,ComponentPad*%
%ADD15O,1.600000X2.000000*%
%TD*%
%TA.AperFunction,ComponentPad*%
%ADD16O,3.800000X3.300000*%
%TD*%
%TA.AperFunction,ComponentPad*%
%ADD17O,1.000000X2.100000*%
%TD*%
%TA.AperFunction,ComponentPad*%
%ADD18O,1.000000X1.600000*%
%TD*%
%TA.AperFunction,ViaPad*%
%ADD19C,0.800000*%
%TD*%
%TA.AperFunction,Conductor*%
%ADD20C,0.381000*%
%TD*%
%TA.AperFunction,Conductor*%
%ADD21C,0.254000*%
%TD*%
G04 APERTURE END LIST*
D10*
%TO.P,SW45,NC*%
%TO.N,Net-(SW45-PadNC)*%
X161522593Y-123908404D03*
%TO.P,SW45,C*%
%TO.N,GND*%
X158982593Y-123908404D03*
%TO.P,SW45,B*%
%TO.N,ENC2B*%
X156442593Y-123908404D03*
%TO.P,SW45,A*%
%TO.N,ENC2A*%
X153902593Y-123908404D03*
D11*
%TO.P,SW45,S2*%
%TO.N,Net-(D82-Pad2)*%
X150902593Y-123558404D03*
D12*
%TO.P,SW45,S1*%
%TO.N,col10*%
X150902593Y-125558404D03*
%TD*%
D13*
%TO.P,SW43,A*%
%TO.N,ENC2A*%
X150352593Y-115558404D03*
D14*
%TO.P,SW43,C*%
%TO.N,GND*%
X150352593Y-118058404D03*
%TO.P,SW43,B*%
%TO.N,ENC2B*%
X150352593Y-120558404D03*
%TO.P,SW43,S2*%
%TO.N,Net-(D82-Pad2)*%
X164852593Y-115558404D03*
%TO.P,SW43,S1*%
%TO.N,col10*%
X164852593Y-120558404D03*
%TD*%
D13*
%TO.P,SW42,A*%
%TO.N,ENC1A*%
X141352593Y-120558404D03*
D14*
%TO.P,SW42,C*%
%TO.N,GND*%
X141352593Y-118058404D03*
%TO.P,SW42,B*%
%TO.N,ENC1B*%
X141352593Y-115558404D03*
%TO.P,SW42,S2*%
%TO.N,Net-(D81-Pad2)*%
X126852593Y-120558404D03*
%TO.P,SW42,S1*%
%TO.N,col10*%
X126852593Y-115558404D03*
%TD*%
D10*
%TO.P,SW44,NC*%
%TO.N,Net-(SW44-PadNC)*%
X137922593Y-123908404D03*
%TO.P,SW44,C*%
%TO.N,GND*%
X135382593Y-123908404D03*
%TO.P,SW44,B*%
%TO.N,ENC1B*%
X132842593Y-123908404D03*
%TO.P,SW44,A*%
%TO.N,ENC1A*%
X130302593Y-123908404D03*
D11*
%TO.P,SW44,S2*%
%TO.N,Net-(D81-Pad2)*%
X127302593Y-123558404D03*
D12*
%TO.P,SW44,S1*%
%TO.N,col10*%
X127302593Y-125558404D03*
%TD*%
D15*
%TO.P,Brd1,2*%
%TO.N,+5V*%
X147332593Y-152258404D03*
%TO.P,Brd1,1*%
%TO.N,GND*%
X149872593Y-152258404D03*
%TO.P,Brd1,3*%
%TO.N,scl*%
X144792593Y-152258404D03*
%TO.P,Brd1,4*%
%TO.N,sda*%
X142252593Y-152258404D03*
%TD*%
D16*
%TO.P,J1,9*%
%TO.N,N/C*%
X140352593Y-128658404D03*
%TO.P,J1,8*%
X151352593Y-128658404D03*
%TO.P,J1,7*%
X151352593Y-148258404D03*
%TO.P,J1,6*%
X140352593Y-148258404D03*
%TO.P,J1,1*%
%TO.N,+5V*%
%TA.AperFunction,ComponentPad*%
G36*
G01*
X133128593Y-132953404D02*
X133128593Y-133803404D01*
G75*
G02*
X132703593Y-134228404I-425000J0D01*
G01*
X131353593Y-134228404D01*
G75*
G02*
X130928593Y-133803404I0J425000D01*
G01*
X130928593Y-132953404D01*
G75*
G02*
X131353593Y-132528404I425000J0D01*
G01*
X132703593Y-132528404D01*
G75*
G02*
X133128593Y-132953404I0J-425000D01*
G01*
G37*
%TD.AperFunction*%
%TO.P,J1,2*%
%TO.N,sda*%
%TA.AperFunction,ComponentPad*%
G36*
G01*
X132703593Y-136768404D02*
X131353593Y-136768404D01*
G75*
G02*
X130928593Y-136343404I0J425000D01*
G01*
X130928593Y-135493404D01*
G75*
G02*
X131353593Y-135068404I425000J0D01*
G01*
X132703593Y-135068404D01*
G75*
G02*
X133128593Y-135493404I0J-425000D01*
G01*
X133128593Y-136343404D01*
G75*
G02*
X132703593Y-136768404I-425000J0D01*
G01*
G37*
%TD.AperFunction*%
%TO.P,J1,3*%
%TO.N,scl*%
%TA.AperFunction,ComponentPad*%
G36*
G01*
X132703593Y-139308404D02*
X131353593Y-139308404D01*
G75*
G02*
X130928593Y-138883404I0J425000D01*
G01*
X130928593Y-138033404D01*
G75*
G02*
X131353593Y-137608404I425000J0D01*
G01*
X132703593Y-137608404D01*
G75*
G02*
X133128593Y-138033404I0J-425000D01*
G01*
X133128593Y-138883404D01*
G75*
G02*
X132703593Y-139308404I-425000J0D01*
G01*
G37*
%TD.AperFunction*%
%TO.P,J1,4*%
%TO.N,Net-(J1-Pad4)*%
%TA.AperFunction,ComponentPad*%
G36*
G01*
X132703593Y-141848404D02*
X131353593Y-141848404D01*
G75*
G02*
X130928593Y-141423404I0J425000D01*
G01*
X130928593Y-140573404D01*
G75*
G02*
X131353593Y-140148404I425000J0D01*
G01*
X132703593Y-140148404D01*
G75*
G02*
X133128593Y-140573404I0J-425000D01*
G01*
X133128593Y-141423404D01*
G75*
G02*
X132703593Y-141848404I-425000J0D01*
G01*
G37*
%TD.AperFunction*%
%TO.P,J1,5*%
%TO.N,GND*%
%TA.AperFunction,ComponentPad*%
G36*
G01*
X132703593Y-144388404D02*
X131353593Y-144388404D01*
G75*
G02*
X130928593Y-143963404I0J425000D01*
G01*
X130928593Y-143113404D01*
G75*
G02*
X131353593Y-142688404I425000J0D01*
G01*
X132703593Y-142688404D01*
G75*
G02*
X133128593Y-143113404I0J-425000D01*
G01*
X133128593Y-143963404D01*
G75*
G02*
X132703593Y-144388404I-425000J0D01*
G01*
G37*
%TD.AperFunction*%
%TD*%
D17*
%TO.P,USB1,13*%
%TO.N,GND*%
X141532593Y-58688404D03*
X150172593Y-58688404D03*
D18*
X141532593Y-54508404D03*
X150172593Y-54508404D03*
%TD*%
D19*
%TO.N,GND*%
X134852593Y-76258404D03*
X143252593Y-76258404D03*
X131852593Y-152658404D03*
X146052593Y-118858404D03*
X146052593Y-154258404D03*
X135452593Y-118058404D03*
X158652593Y-118058404D03*
X149652593Y-71458404D03*
X55852593Y-28858404D03*
X136852593Y-71458404D03*
X139252593Y-54258404D03*
X77252593Y-24858404D03*
X129634666Y-49858404D03*
X112452593Y-39258404D03*
X97652593Y-26658404D03*
X70252593Y-41458404D03*
X89452593Y-44858404D03*
X104552593Y-57358404D03*
X121011561Y-67699436D03*
X132052593Y-71458404D03*
X126052593Y-89458404D03*
X112252593Y-84867904D03*
X97711561Y-75399436D03*
X81052593Y-62267904D03*
X62052593Y-58867904D03*
X47852593Y-45858404D03*
X115052593Y-123458404D03*
X82052593Y-106458404D03*
X61452593Y-94858404D03*
X65652593Y-79258404D03*
X74052593Y-80458404D03*
X54052593Y-76458404D03*
X39452593Y-63058404D03*
X102052593Y-116858404D03*
X120252593Y-131058404D03*
X152252593Y-71458404D03*
X152452593Y-54458404D03*
X207452593Y-25258404D03*
X187052593Y-29658404D03*
X171452593Y-41858404D03*
X156852593Y-51858404D03*
X164414102Y-70600668D03*
X196902571Y-47467904D03*
X214652593Y-44467904D03*
X231452593Y-29867904D03*
X181052593Y-60658404D03*
X122052593Y-100058404D03*
X167252593Y-100058404D03*
X167252593Y-90458404D03*
X173252593Y-87658404D03*
X188393625Y-77199436D03*
X204793625Y-64599436D03*
X223693625Y-61299436D03*
X238493625Y-47299436D03*
X177452593Y-125458404D03*
X183111561Y-120517372D03*
X204052593Y-108658404D03*
X167652593Y-135258404D03*
X213511561Y-104717372D03*
X207610057Y-84488260D03*
X210852593Y-83258404D03*
X231452593Y-78667904D03*
X246052593Y-64867904D03*
X164252593Y-139058404D03*
X176652593Y-118058404D03*
X147652593Y-76258404D03*
X156452593Y-71458404D03*
X81452593Y-46658404D03*
X84152593Y-43358404D03*
%TO.N,+5V*%
X136652593Y-77258404D03*
X154452593Y-80058404D03*
X132652593Y-92058404D03*
X146852593Y-77258404D03*
X138652593Y-72458404D03*
X128852593Y-151658404D03*
X147252593Y-109258404D03*
X147252593Y-132458404D03*
X82852593Y-43458404D03*
X80452593Y-47458404D03*
X152452593Y-108385404D03*
X135652593Y-72458404D03*
X127852593Y-71058404D03*
X112352593Y-62558404D03*
X97052593Y-50658404D03*
X77252593Y-44858404D03*
X138652593Y-55058404D03*
X87033602Y-28239413D03*
X106252593Y-31658404D03*
X121552593Y-44158404D03*
X136452593Y-53858404D03*
X59452593Y-36458404D03*
X51452593Y-53658404D03*
X126852593Y-90258404D03*
X116811561Y-122817372D03*
X90111561Y-108999436D03*
X81452593Y-83658404D03*
X46852593Y-66058404D03*
X108152593Y-119958404D03*
X128852593Y-134858404D03*
X125252593Y-134858404D03*
X119652593Y-89258404D03*
X153052593Y-72458404D03*
X153252593Y-55058404D03*
X163711561Y-49117372D03*
X180711561Y-38517372D03*
X195911561Y-26117372D03*
X215052593Y-22858404D03*
X237652593Y-27458404D03*
X222952593Y-41558404D03*
X204652593Y-45258404D03*
X189252593Y-57858404D03*
X173111561Y-68517372D03*
X122852593Y-99058404D03*
X168052593Y-99058404D03*
X168052593Y-91058404D03*
X246052593Y-44858404D03*
X180252593Y-85058404D03*
X196252593Y-74658404D03*
X211452593Y-62258404D03*
X230852593Y-58858404D03*
X177452593Y-124058404D03*
X191252593Y-114458404D03*
X211052593Y-104858404D03*
X172852593Y-128658404D03*
X213652593Y-103458404D03*
X207852593Y-85458404D03*
X220252593Y-79458404D03*
X239252593Y-75658404D03*
X254052593Y-62058404D03*
X148452593Y-96458404D03*
X140652593Y-77258404D03*
X152452593Y-96458404D03*
X160852593Y-132458404D03*
X57852593Y-77058404D03*
X103860085Y-79562161D03*
X69852593Y-63248904D03*
X88352593Y-66558404D03*
X77452593Y-101658404D03*
%TO.N,row0*%
X65852593Y-36858404D03*
X80652593Y-41858404D03*
X83252593Y-40058404D03*
X98652593Y-50258404D03*
X114852593Y-62658404D03*
X132452593Y-69458404D03*
X174852593Y-65258404D03*
X190252593Y-54658404D03*
X205852593Y-43667904D03*
X224052593Y-36258404D03*
X231852593Y-54058404D03*
X247852593Y-41458404D03*
X150452593Y-70658404D03*
%TO.N,row1*%
X56852593Y-53658404D03*
X90406133Y-66058404D03*
X105052593Y-78467904D03*
X124452593Y-88658404D03*
X127452593Y-88658404D03*
X123852593Y-98258404D03*
X165798592Y-98258404D03*
X165798592Y-89458404D03*
X182593625Y-81799436D03*
X198652593Y-71658404D03*
X211052593Y-57658404D03*
X232603247Y-54789813D03*
X239052593Y-68658404D03*
X254852593Y-57258404D03*
X151179593Y-73258404D03*
X159925593Y-73258404D03*
X163175026Y-79008971D03*
X167852593Y-77858404D03*
X172252593Y-86867904D03*
X73452593Y-60058404D03*
%TO.N,row2*%
X50397494Y-71285369D03*
X64652593Y-77458404D03*
X117052593Y-104658404D03*
X99652593Y-96258404D03*
X82490574Y-83620423D03*
X122043093Y-104658404D03*
X117635411Y-123384183D03*
X122052593Y-124458404D03*
X188638526Y-101844337D03*
X205808083Y-82458404D03*
X239252593Y-71858404D03*
X262452593Y-74658404D03*
X247652593Y-84858404D03*
X142252593Y-104658404D03*
X222452593Y-77458404D03*
X204852593Y-88258404D03*
%TO.N,row3*%
X57652593Y-96658404D03*
X77252593Y-99658404D03*
X70052593Y-119458404D03*
X86052593Y-125458404D03*
X102652593Y-136858404D03*
X116252593Y-150658404D03*
X121852593Y-145658404D03*
X166652593Y-145658404D03*
X174452593Y-152458404D03*
X187252593Y-138658404D03*
X203252593Y-127458404D03*
X220852593Y-118658404D03*
X214452593Y-100058404D03*
X229852593Y-93058404D03*
X234052593Y-96658404D03*
X248652593Y-89058404D03*
X167638526Y-127044337D03*
X162652593Y-130077404D03*
X141452593Y-100848904D03*
X165999456Y-100909074D03*
%TO.N,led*%
X131852593Y-83858389D03*
X129452593Y-83858404D03*
X133452593Y-67458404D03*
X136452593Y-67258404D03*
X138822397Y-53288600D03*
X71252593Y-23258404D03*
X66052593Y-31058404D03*
X53652593Y-28058404D03*
%TO.N,Net-(D41-Pad2)*%
X61052593Y-29813894D03*
X52052593Y-26658404D03*
%TO.N,VCC*%
X149052593Y-62658404D03*
X142652593Y-62658404D03*
%TO.N,Net-(D42-Pad2)*%
X54911561Y-48599436D03*
X45252593Y-44858404D03*
%TO.N,Net-(D43-Pad2)*%
X43852593Y-63858404D03*
X53766660Y-73944337D03*
%TO.N,Net-(D47-Pad2)*%
X85774634Y-28380445D03*
X96252593Y-27658404D03*
%TO.N,Net-(D48-Pad2)*%
X104852593Y-31458404D03*
X94852593Y-28458404D03*
%TO.N,Net-(D49-Pad2)*%
X93693625Y-48448904D03*
X86252593Y-46048904D03*
%TO.N,Net-(D50-Pad2)*%
X87252593Y-66658404D03*
X78393625Y-62917372D03*
%TO.N,Net-(D51-Pad2)*%
X85652593Y-76258404D03*
X93652593Y-79458404D03*
%TO.N,Net-(D52-Pad2)*%
X102045492Y-78865505D03*
X98793625Y-77048904D03*
%TO.N,Net-(D53-Pad2)*%
X110593625Y-61917372D03*
X106793625Y-59648904D03*
%TO.N,Net-(D54-Pad2)*%
X120393625Y-44117372D03*
X127052593Y-50648904D03*
%TO.N,Net-(D55-Pad2)*%
X134993625Y-53917372D03*
X125452593Y-50658404D03*
%TO.N,Net-(D56-Pad2)*%
X126852593Y-71848904D03*
X118252593Y-68048904D03*
%TO.N,Net-(D57-Pad2)*%
X117452593Y-88648904D03*
X107079558Y-82603305D03*
X100452593Y-99058404D03*
X85252593Y-88458404D03*
%TO.N,Net-(D58-Pad2)*%
X88193625Y-109317372D03*
X100393625Y-116317372D03*
%TO.N,Net-(D59-Pad2)*%
X106693625Y-121017372D03*
X117993625Y-129917372D03*
%TO.N,Net-(D60-Pad2)*%
X128052593Y-130858404D03*
X163252593Y-131658404D03*
%TO.N,Net-(D61-Pad2)*%
X172311561Y-131717372D03*
X182870529Y-121876340D03*
%TO.N,Net-(D62-Pad2)*%
X190416311Y-116812622D03*
X202311561Y-110117372D03*
%TO.N,Net-(D63-Pad2)*%
X199211561Y-74817372D03*
X172052593Y-89658404D03*
%TO.N,Net-(D66-Pad2)*%
X161252593Y-51585404D03*
X173052593Y-47858404D03*
%TO.N,Net-(D67-Pad2)*%
X178011561Y-40648904D03*
X170911561Y-44117372D03*
%TO.N,Net-(D68-Pad2)*%
X186252593Y-59448904D03*
X179311561Y-63517372D03*
%TO.N,Net-(D69-Pad2)*%
X193852593Y-77102914D03*
X187052593Y-80302914D03*
X195438526Y-94044337D03*
X212652593Y-87458404D03*
%TO.N,Net-(D73-Pad2)*%
X192516311Y-28712622D03*
X205516311Y-27512622D03*
%TO.N,Net-(D74-Pad2)*%
X212811561Y-24617372D03*
X205252593Y-28858404D03*
%TO.N,Net-(D75-Pad2)*%
X220411561Y-43248904D03*
X212806811Y-46822122D03*
%TO.N,Net-(D76-Pad2)*%
X228211561Y-60448904D03*
X221816311Y-63612622D03*
%TO.N,Net-(D77-Pad2)*%
X236916311Y-77712622D03*
X246252593Y-69658404D03*
%TO.N,RESET*%
X157852593Y-130804404D03*
X170052593Y-125658404D03*
X157852593Y-81258404D03*
X153252593Y-81258404D03*
X162252593Y-87258404D03*
X166525592Y-87531403D03*
%TO.N,col0*%
X27052593Y-77658404D03*
X43652593Y-87858404D03*
X131852593Y-84858392D03*
X127252593Y-84858404D03*
X117338526Y-106344337D03*
X85176507Y-87334490D03*
X78107177Y-105230924D03*
%TO.N,col1*%
X46252593Y-80458404D03*
X64852593Y-86658404D03*
X131852593Y-85858395D03*
X129425410Y-85913721D03*
X119052593Y-122657183D03*
X62252593Y-93404403D03*
%TO.N,col2*%
X82252593Y-89458404D03*
X64611561Y-83217372D03*
X131852593Y-86858398D03*
X128643093Y-86858404D03*
X133052593Y-68458404D03*
X85742622Y-42844337D03*
%TO.N,col3*%
X74266660Y-110072471D03*
X93652593Y-120058404D03*
X131852593Y-87858401D03*
X93066660Y-70844337D03*
%TO.N,col4*%
X104452593Y-92058404D03*
X131852593Y-88858404D03*
X128542286Y-88828507D03*
X123643093Y-100858404D03*
X120793625Y-100799436D03*
%TO.N,col5*%
X183452593Y-134858404D03*
X170252593Y-145058404D03*
X152151443Y-75229755D03*
X160652593Y-75058404D03*
%TO.N,col6*%
X191452593Y-100458404D03*
X178166660Y-107144337D03*
X151906593Y-74043724D03*
X153852593Y-73985404D03*
X154222737Y-54815868D03*
X168652593Y-45058404D03*
%TO.N,col7*%
X202852593Y-119858404D03*
X218252593Y-113858404D03*
X153325593Y-92458404D03*
X199238526Y-67044337D03*
%TO.N,col8*%
X227652593Y-88458404D03*
X211452593Y-92858404D03*
X157252593Y-103931404D03*
X183652593Y-103858404D03*
X183682490Y-106548097D03*
%TO.N,col9*%
X231052593Y-90258404D03*
X248052593Y-81858404D03*
X156525593Y-103058404D03*
X182758164Y-103204404D03*
X182852593Y-118867904D03*
X215179593Y-102658404D03*
X215252593Y-100785404D03*
X233452593Y-94458404D03*
%TO.N,sda*%
X135852593Y-152858404D03*
X133852593Y-154258404D03*
X130052593Y-154258404D03*
X137652593Y-131985404D03*
X144252593Y-131985404D03*
X146466660Y-106472471D03*
X158052593Y-106458404D03*
%TO.N,scl*%
X144852593Y-138458404D03*
X138252593Y-132858404D03*
X145252593Y-132858404D03*
X146452593Y-107658404D03*
X158852593Y-107658404D03*
%TO.N,Net-(D82-Pad2)*%
X161652593Y-115658404D03*
X161452593Y-121458404D03*
X152452593Y-121458404D03*
X167652593Y-115658404D03*
%TO.N,ENC1B*%
X133052593Y-115658404D03*
%TO.N,ENC1A*%
X130652593Y-120658404D03*
%TO.N,col10*%
X165652593Y-126058404D03*
X126052593Y-105458404D03*
X140652593Y-105458404D03*
X166652593Y-105458404D03*
%TO.N,ENC2B*%
X156452593Y-120658404D03*
%TO.N,ENC2A*%
X153852593Y-115658404D03*
X150252593Y-97248904D03*
X146252593Y-97258404D03*
%TD*%
D20*
%TO.N,GND*%
X134852593Y-76258404D02*
X143252593Y-76258404D01*
X146052593Y-118858404D02*
X143452593Y-118858404D01*
X143452593Y-118858404D02*
X142652593Y-118058404D01*
X142652593Y-118058404D02*
X141352593Y-118058404D01*
X149652593Y-118058404D02*
X150952593Y-118058404D01*
X146052593Y-118858404D02*
X148052593Y-118858404D01*
X148852593Y-118058404D02*
X150352593Y-118058404D01*
X148052593Y-118858404D02*
X148852593Y-118058404D01*
X140852593Y-154258404D02*
X146052593Y-154258404D01*
X149872593Y-154038404D02*
X149652593Y-154258404D01*
X149872593Y-152258404D02*
X149872593Y-154038404D01*
X146052593Y-154258404D02*
X149652593Y-154258404D01*
X131852593Y-152658404D02*
X133852593Y-152658404D01*
X135452593Y-154258404D02*
X140852593Y-154258404D01*
X133852593Y-152658404D02*
X135452593Y-154258404D01*
X135452593Y-118058404D02*
X141352593Y-118058404D01*
X155852593Y-118058404D02*
X150352593Y-118058404D01*
X155852593Y-118058404D02*
X158652593Y-118058404D01*
X149652593Y-71458404D02*
X136852593Y-71458404D01*
X129652593Y-71458404D02*
X129452593Y-71458404D01*
X129452593Y-71458404D02*
X128252593Y-70258404D01*
X128252593Y-70258404D02*
X125652593Y-70258404D01*
X125652593Y-70258404D02*
X123652593Y-68258404D01*
X123652593Y-68258404D02*
X121452593Y-68258404D01*
X121452593Y-68258404D02*
X119652593Y-66458404D01*
X119652593Y-66458404D02*
X117452593Y-66458404D01*
X117452593Y-66458404D02*
X111252593Y-60258404D01*
X111252593Y-60258404D02*
X109852593Y-60258404D01*
X109852593Y-60258404D02*
X107652593Y-58058404D01*
X107652593Y-58058404D02*
X105252593Y-58058404D01*
X103252593Y-56058404D02*
X102852593Y-56058404D01*
X102852593Y-56058404D02*
X97852593Y-51058404D01*
X97852593Y-51058404D02*
X97852593Y-50258404D01*
X97852593Y-50258404D02*
X94452593Y-46858404D01*
X94452593Y-46858404D02*
X92652593Y-46858404D01*
X92652593Y-46858404D02*
X90652593Y-44858404D01*
X88052593Y-44858404D02*
X87652593Y-44458404D01*
X87652593Y-44458404D02*
X87452593Y-44258404D01*
X87452593Y-44258404D02*
X85052593Y-44258404D01*
X56452593Y-28858404D02*
X55852593Y-28858404D01*
X58652593Y-29658404D02*
X57252593Y-29658404D01*
X60052593Y-31058404D02*
X58652593Y-29658404D01*
X61452593Y-31058404D02*
X60052593Y-31058404D01*
X62452593Y-34658404D02*
X62452593Y-32058404D01*
X57252593Y-29658404D02*
X56452593Y-28858404D01*
X62452593Y-32058404D02*
X61452593Y-31058404D01*
X69252593Y-41458404D02*
X62452593Y-34658404D01*
X75052593Y-43858404D02*
X72652593Y-41458404D01*
X77852593Y-43858404D02*
X75052593Y-43858404D01*
X79452593Y-45458404D02*
X77852593Y-43858404D01*
X136852593Y-71458404D02*
X132052593Y-71458404D01*
X136252593Y-53058404D02*
X134452593Y-51258404D01*
X134452593Y-51258404D02*
X132852593Y-51258404D01*
X132852593Y-51258404D02*
X131452593Y-49858404D01*
X129634666Y-49858404D02*
X128834666Y-49058404D01*
X131452593Y-49858404D02*
X129634666Y-49858404D01*
X128834666Y-49058404D02*
X127052593Y-49058404D01*
X127052593Y-49058404D02*
X125652593Y-47658404D01*
X125652593Y-47658404D02*
X125652593Y-46258404D01*
X125652593Y-46258404D02*
X123452593Y-44058404D01*
X123452593Y-44058404D02*
X122652593Y-44058404D01*
X117652593Y-41458404D02*
X116652593Y-40458404D01*
X116652593Y-40458404D02*
X115452593Y-40458404D01*
X115452593Y-40458404D02*
X114252593Y-39258404D01*
X112052593Y-39258404D02*
X110452593Y-37658404D01*
X110452593Y-37658404D02*
X110252593Y-37658404D01*
X110252593Y-37658404D02*
X108452593Y-35858404D01*
X112452593Y-39258404D02*
X112052593Y-39258404D01*
X114252593Y-39258404D02*
X112452593Y-39258404D01*
X98452593Y-27458404D02*
X97652593Y-26658404D01*
X70252593Y-41458404D02*
X69252593Y-41458404D01*
X72652593Y-41458404D02*
X70252593Y-41458404D01*
X89452593Y-44858404D02*
X88052593Y-44858404D01*
X90652593Y-44858404D02*
X89452593Y-44858404D01*
X104552593Y-57358404D02*
X103252593Y-56058404D01*
X105252593Y-58058404D02*
X104552593Y-57358404D01*
X132052593Y-71458404D02*
X129652593Y-71458404D01*
X126052593Y-89458404D02*
X122252593Y-89458404D01*
X122252593Y-89458404D02*
X121252593Y-88458404D01*
X121252593Y-88458404D02*
X119852593Y-88458404D01*
X119852593Y-88458404D02*
X118452593Y-87058404D01*
X118452593Y-87058404D02*
X116652593Y-87058404D01*
X114462093Y-84867904D02*
X112252593Y-84867904D01*
X116652593Y-87058404D02*
X114462093Y-84867904D01*
X112252593Y-84867904D02*
X110443093Y-83058404D01*
X110443093Y-83058404D02*
X109652593Y-83058404D01*
X105852593Y-79258404D02*
X104674265Y-79258404D01*
X109652593Y-83058404D02*
X105852593Y-79258404D01*
X102874265Y-77458404D02*
X101452593Y-77458404D01*
X104674265Y-79258404D02*
X102874265Y-77458404D01*
X99393625Y-75399436D02*
X97711561Y-75399436D01*
X101452593Y-77458404D02*
X99393625Y-75399436D01*
X97711561Y-75399436D02*
X95770529Y-73458404D01*
X95770529Y-73458404D02*
X93874265Y-73458404D01*
X91533602Y-67917741D02*
X90474265Y-66858404D01*
X91533603Y-71117742D02*
X91533602Y-67917741D01*
X93874265Y-73458404D02*
X91533603Y-71117742D01*
X87252593Y-65258404D02*
X87233603Y-65277394D01*
X87233603Y-65277394D02*
X85814613Y-63858404D01*
X85814613Y-63858404D02*
X83874265Y-63858404D01*
X82283765Y-62267904D02*
X81052593Y-62267904D01*
X83874265Y-63858404D02*
X82283765Y-62267904D01*
X81052593Y-62267904D02*
X79862093Y-62267904D01*
X79862093Y-62267904D02*
X78452593Y-60858404D01*
X78452593Y-60858404D02*
X74652593Y-60858404D01*
X74652593Y-60858404D02*
X73052593Y-62458404D01*
X73052593Y-62458404D02*
X68852593Y-62458404D01*
X67052593Y-60658404D02*
X65674265Y-60658404D01*
X68852593Y-62458404D02*
X67052593Y-60658404D01*
X63883765Y-58867904D02*
X62052593Y-58867904D01*
X65674265Y-60658404D02*
X63883765Y-58867904D01*
X62052593Y-58867904D02*
X59843093Y-56658404D01*
X58674265Y-56658404D02*
X55252593Y-53236732D01*
X59843093Y-56658404D02*
X58674265Y-56658404D01*
X55252593Y-53236732D02*
X55252593Y-50058404D01*
X55252593Y-50058404D02*
X52852593Y-47658404D01*
X52852593Y-47658404D02*
X51452593Y-47658404D01*
X49652593Y-45858404D02*
X47852593Y-45858404D01*
X51452593Y-47658404D02*
X49652593Y-45858404D01*
X82052593Y-106458404D02*
X80652593Y-105058404D01*
X80652593Y-105058404D02*
X79052593Y-105058404D01*
X79052593Y-105058404D02*
X77052593Y-103058404D01*
X77052593Y-103058404D02*
X77052593Y-102858404D01*
X77052593Y-102858404D02*
X74452593Y-100258404D01*
X74452593Y-100258404D02*
X72052593Y-100258404D01*
X72052593Y-100258404D02*
X69252593Y-97458404D01*
X69252593Y-97458404D02*
X67252593Y-97458404D01*
X67252593Y-97458404D02*
X64652593Y-94858404D01*
X64652593Y-94858404D02*
X61452593Y-94858404D01*
X72852593Y-79258404D02*
X74052593Y-80458404D01*
X65652593Y-79258404D02*
X72852593Y-79258404D01*
X65652593Y-79258404D02*
X60252593Y-79258404D01*
X60252593Y-79258404D02*
X58852593Y-77858404D01*
X55452593Y-77858404D02*
X54052593Y-76458404D01*
X58852593Y-77858404D02*
X55452593Y-77858404D01*
X54052593Y-76458404D02*
X53452593Y-76458404D01*
X53452593Y-76458404D02*
X48652593Y-71658404D01*
X48652593Y-71658404D02*
X48652593Y-69058404D01*
X48652593Y-69058404D02*
X45252593Y-65658404D01*
X45252593Y-65658404D02*
X44852593Y-65658404D01*
X44852593Y-65658404D02*
X43852593Y-64658404D01*
X43852593Y-64658404D02*
X42452593Y-64658404D01*
X42452593Y-64658404D02*
X41052593Y-63258404D01*
X39652593Y-63258404D02*
X39452593Y-63058404D01*
X41052593Y-63258404D02*
X39652593Y-63258404D01*
X90652593Y-110658404D02*
X88252593Y-108258404D01*
X93052593Y-110658404D02*
X90652593Y-110658404D01*
X85652593Y-108258404D02*
X83852593Y-106458404D01*
X96252593Y-113858404D02*
X93052593Y-110658404D01*
X99052593Y-113858404D02*
X96252593Y-113858404D01*
X88252593Y-108258404D02*
X85652593Y-108258404D01*
X83852593Y-106458404D02*
X82052593Y-106458404D01*
X108052593Y-121258404D02*
X104452593Y-117658404D01*
X109652593Y-121258404D02*
X108052593Y-121258404D01*
X104452593Y-117658404D02*
X102852593Y-117658404D01*
X111852593Y-123458404D02*
X109652593Y-121258404D01*
X115052593Y-123458404D02*
X111852593Y-123458404D01*
X102052593Y-116858404D02*
X99052593Y-113858404D01*
X102852593Y-117658404D02*
X102052593Y-116858404D01*
X115052593Y-123458404D02*
X115052593Y-125858404D01*
X115052593Y-125858404D02*
X117452593Y-128258404D01*
X117452593Y-128258404D02*
X120252593Y-131058404D01*
X152252593Y-71458404D02*
X149652593Y-71458404D01*
X152452593Y-54458404D02*
X153452593Y-53458404D01*
X153452593Y-53458404D02*
X154252593Y-52658404D01*
X154252593Y-52658404D02*
X156052593Y-52658404D01*
X157652593Y-51058404D02*
X158852593Y-51058404D01*
X158852593Y-51058404D02*
X160452593Y-49458404D01*
X160452593Y-49458404D02*
X162252593Y-49458404D01*
X162252593Y-49458404D02*
X163452593Y-48258404D01*
X163452593Y-48258404D02*
X165052593Y-48258404D01*
X165052593Y-48258404D02*
X166252593Y-47058404D01*
X166252593Y-47058404D02*
X166252593Y-45458404D01*
X166252593Y-45458404D02*
X168252593Y-43458404D01*
X168252593Y-43458404D02*
X169452593Y-43458404D01*
X169452593Y-43458404D02*
X171052593Y-41858404D01*
X172652593Y-41858404D02*
X173852593Y-40658404D01*
X173852593Y-40658404D02*
X175852593Y-40658404D01*
X175852593Y-40658404D02*
X177452593Y-39058404D01*
X177452593Y-39058404D02*
X179052593Y-39058404D01*
X179052593Y-39058404D02*
X180452593Y-37658404D01*
X180452593Y-37658404D02*
X181252593Y-37658404D01*
X181252593Y-37658404D02*
X182252593Y-36658404D01*
X182252593Y-36658404D02*
X182252593Y-32658404D01*
X182252593Y-32658404D02*
X184252593Y-30658404D01*
X184252593Y-30658404D02*
X186052593Y-30658404D01*
X187652593Y-29058404D02*
X190052593Y-29058404D01*
X190052593Y-29058404D02*
X192052593Y-27058404D01*
X192052593Y-27058404D02*
X193852593Y-27058404D01*
X193852593Y-27058404D02*
X195652593Y-25258404D01*
X195652593Y-25258404D02*
X197852593Y-25258404D01*
X197852593Y-25258404D02*
X198252593Y-24858404D01*
X198252593Y-24858404D02*
X199252593Y-24858404D01*
X199252593Y-24858404D02*
X201852593Y-27458404D01*
X201852593Y-27458404D02*
X203452593Y-27458404D01*
X203452593Y-27458404D02*
X204852593Y-26058404D01*
X207452593Y-25258404D02*
X206652593Y-25258404D01*
X206652593Y-25258404D02*
X205852593Y-26058404D01*
X204852593Y-26058404D02*
X205852593Y-26058404D01*
X187052593Y-29658404D02*
X187652593Y-29058404D01*
X186052593Y-30658404D02*
X187052593Y-29658404D01*
X171452593Y-41858404D02*
X172652593Y-41858404D01*
X171052593Y-41858404D02*
X171452593Y-41858404D01*
X156852593Y-51858404D02*
X157652593Y-51058404D01*
X156052593Y-52658404D02*
X156852593Y-51858404D01*
X159652593Y-71458404D02*
X163252593Y-71458404D01*
X163556366Y-71458404D02*
X164414102Y-70600668D01*
X163252593Y-71458404D02*
X163556366Y-71458404D01*
X164414102Y-70600668D02*
X166088657Y-70600668D01*
X166088657Y-70600668D02*
X167430921Y-69258404D01*
X169230921Y-69258404D02*
X170230921Y-68258404D01*
X167430921Y-69258404D02*
X169230921Y-69258404D01*
X170230921Y-68258404D02*
X172252593Y-68258404D01*
X172252593Y-68258404D02*
X174052593Y-66458404D01*
X174052593Y-66458404D02*
X174852593Y-66458404D01*
X177271583Y-64039414D02*
X177271583Y-63439414D01*
X174852593Y-66458404D02*
X177271583Y-64039414D01*
X177271583Y-63439414D02*
X179452593Y-61258404D01*
X179452593Y-61258404D02*
X180052593Y-60658404D01*
X181252593Y-60658404D02*
X182452593Y-59458404D01*
X182452593Y-59458404D02*
X183852593Y-59458404D01*
X185252593Y-58058404D02*
X187830921Y-58058404D01*
X183852593Y-59458404D02*
X185252593Y-58058404D01*
X189430921Y-56458404D02*
X189830921Y-56458404D01*
X187830921Y-58058404D02*
X189430921Y-56458404D01*
X192671583Y-53617742D02*
X192671584Y-50817741D01*
X189830921Y-56458404D02*
X192671583Y-53617742D01*
X194830921Y-48658404D02*
X195430921Y-48658404D01*
X192671584Y-50817741D02*
X194830921Y-48658404D01*
X196621421Y-47467904D02*
X196902571Y-47467904D01*
X195430921Y-48658404D02*
X196621421Y-47467904D01*
X214652593Y-44467904D02*
X215672929Y-43447568D01*
X218241757Y-43447568D02*
X219830921Y-41858404D01*
X215672929Y-43447568D02*
X218241757Y-43447568D01*
X224871583Y-38817742D02*
X224871584Y-38217741D01*
X230221421Y-29867904D02*
X231452593Y-29867904D01*
X224871584Y-35217741D02*
X230221421Y-29867904D01*
X224871584Y-38217741D02*
X224871584Y-35217741D01*
X219830921Y-41858404D02*
X221252593Y-41858404D01*
X221252593Y-41858404D02*
X222652593Y-40458404D01*
X223230921Y-40458404D02*
X224871583Y-38817742D01*
X222652593Y-40458404D02*
X223230921Y-40458404D01*
X211630921Y-46058404D02*
X213221421Y-44467904D01*
X207874265Y-46058404D02*
X211630921Y-46058404D01*
X203052593Y-44458404D02*
X206274265Y-44458404D01*
X202852593Y-44658404D02*
X203052593Y-44458404D01*
X206274265Y-44458404D02*
X207874265Y-46058404D01*
X202830921Y-44658404D02*
X202852593Y-44658404D01*
X201830921Y-45658404D02*
X202830921Y-44658404D01*
X213221421Y-44467904D02*
X214652593Y-44467904D01*
X199652593Y-46258404D02*
X200252593Y-45658404D01*
X198652593Y-46258404D02*
X199652593Y-46258404D01*
X200252593Y-45658404D02*
X201830921Y-45658404D01*
X197443093Y-47467904D02*
X198652593Y-46258404D01*
X196902571Y-47467904D02*
X197443093Y-47467904D01*
X181052593Y-60658404D02*
X181252593Y-60658404D01*
X180052593Y-60658404D02*
X181052593Y-60658404D01*
X122052593Y-100058404D02*
X167252593Y-100058404D01*
X167252593Y-90458404D02*
X168652593Y-89058404D01*
X168652593Y-89058404D02*
X170252593Y-89058404D01*
X171652593Y-87658404D02*
X173252593Y-87658404D01*
X170252593Y-89058404D02*
X171652593Y-87658404D01*
X173252593Y-87658404D02*
X174063429Y-86847568D01*
X174063429Y-86847568D02*
X176063429Y-86847568D01*
X176063429Y-86847568D02*
X177652593Y-85258404D01*
X177652593Y-85258404D02*
X178852593Y-85258404D01*
X178852593Y-85258404D02*
X180052593Y-84058404D01*
X180052593Y-84058404D02*
X181452593Y-84058404D01*
X184271584Y-80417741D02*
X186230921Y-78458404D01*
X184271583Y-81239414D02*
X184271584Y-80417741D01*
X181452593Y-84058404D02*
X184271583Y-81239414D01*
X187134657Y-78458404D02*
X188393625Y-77199436D01*
X186230921Y-78458404D02*
X187134657Y-78458404D01*
X188393625Y-77199436D02*
X188934657Y-76658404D01*
X191630921Y-76658404D02*
X193011931Y-75277394D01*
X188934657Y-76658404D02*
X191630921Y-76658404D01*
X193011931Y-75277394D02*
X194433603Y-75277394D01*
X194433603Y-75277394D02*
X196063429Y-73647568D01*
X196063429Y-73647568D02*
X198441757Y-73647568D01*
X199871584Y-68217741D02*
X202830921Y-65258404D01*
X199871583Y-72217742D02*
X199871584Y-68217741D01*
X198441757Y-73647568D02*
X199871583Y-72217742D01*
X204134657Y-65258404D02*
X204793625Y-64599436D01*
X202830921Y-65258404D02*
X204134657Y-65258404D01*
X204793625Y-64599436D02*
X205345493Y-64047568D01*
X207041757Y-64047568D02*
X207052593Y-64058404D01*
X205345493Y-64047568D02*
X207041757Y-64047568D01*
X207052593Y-64058404D02*
X208452593Y-62658404D01*
X208452593Y-62658404D02*
X209852593Y-62658404D01*
X209852593Y-62658404D02*
X211652593Y-60858404D01*
X211652593Y-60858404D02*
X215452593Y-60858404D01*
X215452593Y-60858404D02*
X217852593Y-63258404D01*
X217852593Y-63258404D02*
X220052593Y-63258404D01*
X220052593Y-63258404D02*
X221233603Y-62077394D01*
X222915667Y-62077394D02*
X223693625Y-61299436D01*
X221233603Y-62077394D02*
X222915667Y-62077394D01*
X223693625Y-61299436D02*
X224534657Y-60458404D01*
X226230921Y-60458404D02*
X227830921Y-58858404D01*
X224534657Y-60458404D02*
X226230921Y-60458404D01*
X227830921Y-58858404D02*
X229652593Y-58858404D01*
X229652593Y-58858404D02*
X230252593Y-58258404D01*
X230252593Y-58258404D02*
X233052593Y-55458404D01*
X233471584Y-51217741D02*
X236611931Y-48077394D01*
X233471583Y-55039414D02*
X233471584Y-51217741D01*
X233052593Y-55458404D02*
X233471583Y-55039414D01*
X237715667Y-48077394D02*
X238493625Y-47299436D01*
X236611931Y-48077394D02*
X237715667Y-48077394D01*
X177452593Y-125458404D02*
X178652593Y-124258404D01*
X178652593Y-124258404D02*
X178652593Y-124058404D01*
X178652593Y-124058404D02*
X179852593Y-122858404D01*
X180770529Y-122858404D02*
X183111561Y-120517372D01*
X179852593Y-122858404D02*
X180770529Y-122858404D01*
X183111561Y-120517372D02*
X184193625Y-120517372D01*
X184193625Y-120517372D02*
X187252593Y-117458404D01*
X187252593Y-117458404D02*
X188652593Y-117458404D01*
X190252593Y-115858404D02*
X191052593Y-115858404D01*
X188652593Y-117458404D02*
X190252593Y-115858404D01*
X191052593Y-115858404D02*
X192452593Y-114458404D01*
X192452593Y-114458404D02*
X193452593Y-114458404D01*
X193452593Y-114458404D02*
X195452593Y-112458404D01*
X195452593Y-112458404D02*
X197052593Y-112458404D01*
X197052593Y-112458404D02*
X199052593Y-110458404D01*
X199052593Y-110458404D02*
X200852593Y-110458404D01*
X200852593Y-110458404D02*
X202052593Y-109258404D01*
X203452593Y-109258404D02*
X204052593Y-108658404D01*
X202052593Y-109258404D02*
X203452593Y-109258404D01*
X177452593Y-125458404D02*
X167652593Y-135258404D01*
X204052593Y-108658404D02*
X204852593Y-107858404D01*
X204852593Y-107858404D02*
X206052593Y-107858404D01*
X206052593Y-107858404D02*
X207452593Y-106458404D01*
X207452593Y-106458404D02*
X209252593Y-106458404D01*
X209252593Y-106458404D02*
X210052593Y-105658404D01*
X212570529Y-105658404D02*
X213511561Y-104717372D01*
X210052593Y-105658404D02*
X212570529Y-105658404D01*
X208839913Y-83258404D02*
X210852593Y-83258404D01*
X207610057Y-84488260D02*
X208839913Y-83258404D01*
X210852593Y-83258404D02*
X212252593Y-81858404D01*
X212252593Y-81858404D02*
X214052593Y-81858404D01*
X214052593Y-81858404D02*
X215452593Y-80458404D01*
X215452593Y-80458404D02*
X217252593Y-80458404D01*
X217252593Y-80458404D02*
X219052593Y-78658404D01*
X219052593Y-78658404D02*
X223874265Y-78658404D01*
X223874265Y-78658404D02*
X225474265Y-80258404D01*
X225474265Y-80258404D02*
X228452593Y-80258404D01*
X230043093Y-78667904D02*
X231452593Y-78667904D01*
X228452593Y-80258404D02*
X230043093Y-78667904D01*
X231452593Y-78667904D02*
X231843093Y-78667904D01*
X231843093Y-78667904D02*
X232252593Y-78258404D01*
X233052593Y-77458404D02*
X235052593Y-77458404D01*
X232252593Y-78258404D02*
X233052593Y-77458404D01*
X235052593Y-77458404D02*
X236252593Y-76258404D01*
X236252593Y-76258404D02*
X237452593Y-76258404D01*
X238852593Y-74858404D02*
X239652593Y-74858404D01*
X237452593Y-76258404D02*
X238852593Y-74858404D01*
X241271583Y-73239414D02*
X241271584Y-72217741D01*
X239652593Y-74858404D02*
X241271583Y-73239414D01*
X241871583Y-71617742D02*
X241871583Y-67639414D01*
X241271584Y-72217741D02*
X241871583Y-71617742D01*
X244643093Y-64867904D02*
X246052593Y-64867904D01*
X241871583Y-67639414D02*
X244643093Y-64867904D01*
X164252593Y-139058404D02*
X164252593Y-138458404D01*
X167452593Y-135258404D02*
X167652593Y-135258404D01*
X164252593Y-138458404D02*
X167452593Y-135258404D01*
X158652593Y-118058404D02*
X176652593Y-118058404D01*
X143252593Y-76258404D02*
X147652593Y-76258404D01*
X156452593Y-71458404D02*
X152252593Y-71458404D01*
X159652593Y-71458404D02*
X156452593Y-71458404D01*
X89822535Y-66858404D02*
X90474265Y-66858404D01*
X88241525Y-65277394D02*
X89822535Y-66858404D01*
X87233603Y-65277394D02*
X88241525Y-65277394D01*
X79452593Y-45458404D02*
X80052593Y-46058404D01*
X80652593Y-46658404D02*
X81452593Y-46658404D01*
X80052593Y-46058404D02*
X80652593Y-46658404D01*
X85052593Y-44258404D02*
X84152593Y-43358404D01*
X136462092Y-53067903D02*
X136832034Y-53067903D01*
X136452593Y-53058404D02*
X136462092Y-53067903D01*
X136252593Y-53058404D02*
X136452593Y-53058404D01*
X136832034Y-53067903D02*
X137022535Y-53258404D01*
X137022535Y-53258404D02*
X137674265Y-53258404D01*
X138674265Y-54258404D02*
X139252593Y-54258404D01*
X137674265Y-53258404D02*
X138674265Y-54258404D01*
X122652593Y-44058404D02*
X121962092Y-43367903D01*
X121583764Y-43367903D02*
X119893255Y-41677394D01*
X121962092Y-43367903D02*
X121583764Y-43367903D01*
X119893255Y-41677394D02*
X117852593Y-41677394D01*
X117852593Y-41658404D02*
X117652593Y-41458404D01*
X117852593Y-41677394D02*
X117852593Y-41658404D01*
X108433603Y-35639414D02*
X108433602Y-33017741D01*
X108452593Y-35658404D02*
X108433603Y-35639414D01*
X108452593Y-35858404D02*
X108452593Y-35658404D01*
X107043094Y-31278963D02*
X106632034Y-30867903D01*
X107043094Y-31627233D02*
X107043094Y-31278963D01*
X108433602Y-33017741D02*
X107043094Y-31627233D01*
X106632034Y-30867903D02*
X106283764Y-30867903D01*
X106283764Y-30867903D02*
X104693255Y-29277394D01*
X104693255Y-29277394D02*
X102493255Y-29277394D01*
X102493255Y-29277394D02*
X100893255Y-27677394D01*
X98671583Y-27677394D02*
X98452593Y-27458404D01*
X100893255Y-27677394D02*
X98671583Y-27677394D01*
X90652593Y-27658404D02*
X87622535Y-27658404D01*
X92252593Y-26058404D02*
X90652593Y-27658404D01*
X87222535Y-27258404D02*
X84452593Y-27258404D01*
X87622535Y-27658404D02*
X87222535Y-27258404D01*
X97052593Y-26058404D02*
X92252593Y-26058404D01*
X97652593Y-26658404D02*
X97052593Y-26058404D01*
X82052593Y-24858404D02*
X82152593Y-24958404D01*
X77252593Y-24858404D02*
X82052593Y-24858404D01*
X84452593Y-27258404D02*
X82152593Y-24958404D01*
%TO.N,+5V*%
X136652593Y-77258404D02*
X133252593Y-77258404D01*
X133252593Y-77258404D02*
X132652593Y-77858404D01*
X153652593Y-79258404D02*
X154452593Y-80058404D01*
X151652593Y-77258404D02*
X153652593Y-79258404D01*
X146852593Y-77258404D02*
X151652593Y-77258404D01*
X139052593Y-72458404D02*
X138652593Y-72458404D01*
X139052593Y-72458404D02*
X153052593Y-72458404D01*
X138652593Y-72458404D02*
X135652593Y-72458404D01*
X129252593Y-72458404D02*
X127852593Y-71058404D01*
X127852593Y-71058404D02*
X125252593Y-71058404D01*
X125252593Y-71058404D02*
X123252593Y-69058404D01*
X123252593Y-69058404D02*
X121252593Y-69058404D01*
X121252593Y-69058404D02*
X119452593Y-67258404D01*
X119452593Y-67258404D02*
X117052593Y-67258404D01*
X110852593Y-61058404D02*
X109452593Y-61058404D01*
X109452593Y-61058404D02*
X107252593Y-58858404D01*
X107252593Y-58858404D02*
X104852593Y-58858404D01*
X104852593Y-58858404D02*
X102852593Y-56858404D01*
X102852593Y-56858404D02*
X102452593Y-56858404D01*
X102452593Y-56858404D02*
X97052593Y-51458404D01*
X97052593Y-51458404D02*
X97052593Y-50658404D01*
X97052593Y-50658404D02*
X94052593Y-47658404D01*
X94052593Y-47658404D02*
X92252593Y-47658404D01*
X92252593Y-47658404D02*
X90252593Y-45658404D01*
X90252593Y-45658404D02*
X87652593Y-45658404D01*
X87652593Y-45658404D02*
X87252593Y-45258404D01*
X87252593Y-45258404D02*
X84652593Y-45258404D01*
X84652593Y-45258404D02*
X82852593Y-43458404D01*
X80452593Y-47458404D02*
X79852593Y-47458404D01*
X77052593Y-44658404D02*
X74652593Y-44658404D01*
X74652593Y-44658404D02*
X72252593Y-42258404D01*
X72252593Y-42258404D02*
X68252593Y-42258404D01*
X68252593Y-42258404D02*
X68052593Y-42258404D01*
X147252593Y-109258404D02*
X148052593Y-108458404D01*
X152379593Y-108458404D02*
X152452593Y-108385404D01*
X148052593Y-108458404D02*
X152379593Y-108458404D01*
X135652593Y-72458404D02*
X129252593Y-72458404D01*
X112352593Y-62558404D02*
X110852593Y-61058404D01*
X117052593Y-67258404D02*
X112352593Y-62558404D01*
X77252593Y-44858404D02*
X77052593Y-44658404D01*
X79852593Y-47458404D02*
X77252593Y-44858404D01*
X138652593Y-55058404D02*
X137652593Y-54058404D01*
X137652593Y-54058404D02*
X137452593Y-53858404D01*
X136052593Y-53858404D02*
X134252593Y-52058404D01*
X134252593Y-52058404D02*
X132452593Y-52058404D01*
X132452593Y-52058404D02*
X131052593Y-50658404D01*
X129264724Y-50658404D02*
X128464724Y-49858404D01*
X131052593Y-50658404D02*
X129264724Y-50658404D01*
X128464724Y-49858404D02*
X126652593Y-49858404D01*
X126652593Y-49858404D02*
X124852593Y-48058404D01*
X124852593Y-48058404D02*
X124852593Y-46458404D01*
X124852593Y-46458404D02*
X123252593Y-44858404D01*
X123252593Y-44858404D02*
X122252593Y-44858404D01*
X119652593Y-42258404D02*
X117452593Y-42258404D01*
X117452593Y-42258404D02*
X116252593Y-41058404D01*
X116252593Y-41058404D02*
X115052593Y-41058404D01*
X114043094Y-40048905D02*
X111643094Y-40048905D01*
X115052593Y-41058404D02*
X114043094Y-40048905D01*
X111643094Y-40048905D02*
X107852593Y-36258404D01*
X107852593Y-36258404D02*
X107852593Y-33258404D01*
X104452593Y-29858404D02*
X102252593Y-29858404D01*
X102252593Y-29858404D02*
X100652593Y-28258404D01*
X98082651Y-28258404D02*
X96682651Y-26858404D01*
X100652593Y-28258404D02*
X98082651Y-28258404D01*
X96682651Y-26858404D02*
X92452593Y-26858404D01*
X91071584Y-28239413D02*
X87033602Y-28239413D01*
X92452593Y-26858404D02*
X91071584Y-28239413D01*
X106252593Y-31658404D02*
X104452593Y-29858404D01*
X107852593Y-33258404D02*
X106252593Y-31658404D01*
X121552593Y-44158404D02*
X119652593Y-42258404D01*
X122252593Y-44858404D02*
X121552593Y-44158404D01*
X136452593Y-53858404D02*
X136052593Y-53858404D01*
X137452593Y-53858404D02*
X136452593Y-53858404D01*
X68052593Y-42258404D02*
X68052593Y-41858404D01*
X132652593Y-77858404D02*
X132652593Y-90258404D01*
X132652593Y-90258404D02*
X132652593Y-92058404D01*
X121852593Y-90258404D02*
X120852593Y-89258404D01*
X126852593Y-90258404D02*
X121852593Y-90258404D01*
X116811561Y-122817372D02*
X116452593Y-122458404D01*
X116452593Y-122458404D02*
X112252593Y-122458404D01*
X112252593Y-122458404D02*
X110252593Y-120458404D01*
X110252593Y-120458404D02*
X108652593Y-120458404D01*
X105052593Y-116858404D02*
X103452593Y-116858404D01*
X103452593Y-116858404D02*
X100252593Y-113658404D01*
X100252593Y-113658404D02*
X99652593Y-113058404D01*
X99652593Y-113058404D02*
X96652593Y-113058404D01*
X96652593Y-113058404D02*
X93452593Y-109858404D01*
X90970529Y-109858404D02*
X90111561Y-108999436D01*
X93452593Y-109858404D02*
X90970529Y-109858404D01*
X90111561Y-108999436D02*
X88570529Y-107458404D01*
X88570529Y-107458404D02*
X86052593Y-107458404D01*
X86052593Y-107458404D02*
X84252593Y-105658404D01*
X84252593Y-105658404D02*
X82452593Y-105658404D01*
X82452593Y-105658404D02*
X81052593Y-104258404D01*
X81052593Y-104258404D02*
X79652593Y-104258404D01*
X79652593Y-104258404D02*
X78852593Y-103458404D01*
X54452593Y-75658404D02*
X54252593Y-75458404D01*
X54252593Y-75458404D02*
X53452593Y-75458404D01*
X49443093Y-71448904D02*
X49443093Y-69658404D01*
X53452593Y-75458404D02*
X49443093Y-71448904D01*
X49443093Y-68648904D02*
X46852593Y-66058404D01*
X49443093Y-69658404D02*
X49443093Y-68648904D01*
X108152593Y-119958404D02*
X105052593Y-116858404D01*
X108652593Y-120458404D02*
X108152593Y-119958404D01*
X116811561Y-122817372D02*
X115852593Y-123776340D01*
X115852593Y-123776340D02*
X115852593Y-125658404D01*
X115852593Y-125658404D02*
X120252593Y-130058404D01*
X120252593Y-130058404D02*
X120452593Y-130058404D01*
X120452593Y-130058404D02*
X125252593Y-134858404D01*
X125252593Y-134858404D02*
X128852593Y-134858404D01*
X120852593Y-89258404D02*
X119652593Y-89258404D01*
X153252593Y-55058404D02*
X153252593Y-54658404D01*
X153252593Y-54658404D02*
X153452593Y-54458404D01*
X153452593Y-54458404D02*
X154652593Y-53258404D01*
X156622535Y-53258404D02*
X158022535Y-51858404D01*
X154652593Y-53258404D02*
X156622535Y-53258404D01*
X158022535Y-51858404D02*
X159052593Y-51858404D01*
X159052593Y-51858404D02*
X160652593Y-50258404D01*
X162570529Y-50258404D02*
X163711561Y-49117372D01*
X160652593Y-50258404D02*
X162570529Y-50258404D01*
X163711561Y-49117372D02*
X165193625Y-49117372D01*
X166852593Y-47458404D02*
X166852593Y-45680076D01*
X165193625Y-49117372D02*
X166852593Y-47458404D01*
X168493255Y-44039414D02*
X169871583Y-44039414D01*
X166852593Y-45680076D02*
X168493255Y-44039414D01*
X170652593Y-43258404D02*
X170852593Y-43258404D01*
X169871583Y-44039414D02*
X170652593Y-43258404D01*
X171462092Y-42648905D02*
X172862092Y-42648905D01*
X170852593Y-43258404D02*
X171462092Y-42648905D01*
X172862092Y-42648905D02*
X174052593Y-41458404D01*
X174052593Y-41458404D02*
X176052593Y-41458404D01*
X176052593Y-41458404D02*
X177652593Y-39858404D01*
X179370529Y-39858404D02*
X180711561Y-38517372D01*
X177652593Y-39858404D02*
X179370529Y-39858404D01*
X180711561Y-38517372D02*
X181393625Y-38517372D01*
X181393625Y-38517372D02*
X182852593Y-37058404D01*
X182852593Y-37058404D02*
X182852593Y-33058404D01*
X182852593Y-33058404D02*
X184652593Y-31258404D01*
X186622535Y-31258404D02*
X188022535Y-29858404D01*
X184652593Y-31258404D02*
X186622535Y-31258404D01*
X188022535Y-29858404D02*
X188052593Y-29858404D01*
X188271583Y-29639414D02*
X190471583Y-29639414D01*
X188052593Y-29858404D02*
X188271583Y-29639414D01*
X190471583Y-29639414D02*
X192252593Y-27858404D01*
X194170529Y-27858404D02*
X195911561Y-26117372D01*
X192252593Y-27858404D02*
X194170529Y-27858404D01*
X195911561Y-26117372D02*
X197993625Y-26117372D01*
X197993625Y-26117372D02*
X198452593Y-25658404D01*
X198452593Y-25658404D02*
X199052593Y-25658404D01*
X201433603Y-28039414D02*
X203871583Y-28039414D01*
X199052593Y-25658404D02*
X201433603Y-28039414D01*
X203871583Y-28039414D02*
X205252593Y-26658404D01*
X205252593Y-26658404D02*
X206452593Y-26658404D01*
X206452593Y-26658404D02*
X207052593Y-26058404D01*
X207822535Y-26058404D02*
X208422535Y-25458404D01*
X207052593Y-26058404D02*
X207822535Y-26058404D01*
X208422535Y-25458404D02*
X209252593Y-25458404D01*
X209252593Y-25458404D02*
X210052593Y-24658404D01*
X210052593Y-24658404D02*
X211652593Y-24658404D01*
X211652593Y-24658404D02*
X213052593Y-23258404D01*
X214652593Y-23258404D02*
X215052593Y-22858404D01*
X213052593Y-23258404D02*
X214652593Y-23258404D01*
X190052593Y-57058404D02*
X193252593Y-53858404D01*
X193252593Y-53858404D02*
X193252593Y-51058404D01*
X193252593Y-51058404D02*
X195052593Y-49258404D01*
X195052593Y-49258404D02*
X195652593Y-49258404D01*
X195652593Y-49258404D02*
X196652593Y-48258404D01*
X196652593Y-48258404D02*
X197652593Y-48258404D01*
X197652593Y-48258404D02*
X198852593Y-47058404D01*
X198852593Y-47058404D02*
X199852593Y-47058404D01*
X199852593Y-47058404D02*
X200652593Y-46258404D01*
X200652593Y-46258404D02*
X202052593Y-46258404D01*
X202052593Y-46258404D02*
X203052593Y-45258404D01*
X206252593Y-45258404D02*
X207652593Y-46658404D01*
X207652593Y-46658404D02*
X211852593Y-46658404D01*
X211852593Y-46658404D02*
X213252593Y-45258404D01*
X213252593Y-45258404D02*
X215052593Y-45258404D01*
X215052593Y-45258404D02*
X216252593Y-44058404D01*
X216252593Y-44058404D02*
X218452593Y-44058404D01*
X218452593Y-44058404D02*
X220052593Y-42458404D01*
X220052593Y-42458404D02*
X222052593Y-42458404D01*
X225452593Y-39058404D02*
X225452593Y-38458404D01*
X225452593Y-38458404D02*
X227252593Y-36658404D01*
X227252593Y-36658404D02*
X227252593Y-33658404D01*
X227252593Y-33658404D02*
X230252593Y-30658404D01*
X230252593Y-30658404D02*
X231852593Y-30658404D01*
X231852593Y-30658404D02*
X233652593Y-28858404D01*
X236252593Y-28858404D02*
X237652593Y-27458404D01*
X233652593Y-28858404D02*
X236252593Y-28858404D01*
X222952593Y-41558404D02*
X225452593Y-39058404D01*
X222052593Y-42458404D02*
X222952593Y-41558404D01*
X204652593Y-45258404D02*
X206252593Y-45258404D01*
X203052593Y-45258404D02*
X204652593Y-45258404D01*
X190052593Y-57058404D02*
X189252593Y-57858404D01*
X189252593Y-57858404D02*
X188452593Y-58658404D01*
X177852593Y-64458404D02*
X175052593Y-67258404D01*
X188452593Y-58658404D02*
X185652593Y-58658404D01*
X184252593Y-60058404D02*
X182852593Y-60058404D01*
X185652593Y-58658404D02*
X184252593Y-60058404D01*
X181452593Y-61458404D02*
X180252593Y-61458404D01*
X177852593Y-63858404D02*
X177852593Y-64458404D01*
X182852593Y-60058404D02*
X181452593Y-61458404D01*
X180252593Y-61458404D02*
X177852593Y-63858404D01*
X174370529Y-67258404D02*
X173111561Y-68517372D01*
X175052593Y-67258404D02*
X174370529Y-67258404D01*
X166252593Y-71258404D02*
X164852593Y-71258404D01*
X167652593Y-69858404D02*
X166252593Y-71258404D01*
X159852593Y-72458404D02*
X153052593Y-72458404D01*
X170452593Y-68858404D02*
X169452593Y-69858404D01*
X163652593Y-72458404D02*
X159852593Y-72458404D01*
X172852593Y-68858404D02*
X170452593Y-68858404D01*
X173111561Y-68599436D02*
X172852593Y-68858404D01*
X164852593Y-71258404D02*
X163652593Y-72458404D01*
X169452593Y-69858404D02*
X167652593Y-69858404D01*
X173111561Y-68517372D02*
X173111561Y-68599436D01*
X122852593Y-99058404D02*
X168052593Y-99058404D01*
X168052593Y-91058404D02*
X169252593Y-89858404D01*
X169252593Y-89858404D02*
X170652593Y-89858404D01*
X170652593Y-89858404D02*
X172052593Y-88458404D01*
X172052593Y-88458404D02*
X173652593Y-88458404D01*
X173652593Y-88458404D02*
X174652593Y-87458404D01*
X174652593Y-87458404D02*
X176452593Y-87458404D01*
X176452593Y-87458404D02*
X178052593Y-85858404D01*
X178052593Y-85858404D02*
X179452593Y-85858404D01*
X180652593Y-84658404D02*
X181852593Y-84658404D01*
X181852593Y-84658404D02*
X183652593Y-82858404D01*
X183652593Y-82858404D02*
X184852593Y-81658404D01*
X184852593Y-81658404D02*
X184852593Y-80658404D01*
X184852593Y-80658404D02*
X186452593Y-79058404D01*
X186452593Y-79058404D02*
X187652593Y-79058404D01*
X187652593Y-79058404D02*
X189452593Y-77258404D01*
X189452593Y-77258404D02*
X191852593Y-77258404D01*
X191852593Y-77258404D02*
X193252593Y-75858404D01*
X193252593Y-75858404D02*
X195052593Y-75858404D01*
X196652593Y-74258404D02*
X198652593Y-74258404D01*
X198652593Y-74258404D02*
X200452593Y-72458404D01*
X200452593Y-72458404D02*
X200452593Y-68458404D01*
X200452593Y-68458404D02*
X203052593Y-65858404D01*
X203052593Y-65858404D02*
X204652593Y-65858404D01*
X204652593Y-65858404D02*
X205852593Y-64658404D01*
X205852593Y-64658404D02*
X207652593Y-64658404D01*
X207652593Y-64658404D02*
X209052593Y-63258404D01*
X209052593Y-63258404D02*
X210452593Y-63258404D01*
X212252593Y-61458404D02*
X215052593Y-61458404D01*
X215052593Y-61458404D02*
X217452593Y-63858404D01*
X217452593Y-63858404D02*
X220252593Y-63858404D01*
X220252593Y-63858404D02*
X220452593Y-63858404D01*
X220452593Y-63858404D02*
X221652593Y-62658404D01*
X221652593Y-62658404D02*
X223452593Y-62658404D01*
X223452593Y-62658404D02*
X225052593Y-61058404D01*
X225052593Y-61058404D02*
X226452593Y-61058404D01*
X226452593Y-61058404D02*
X227852593Y-59658404D01*
X227852593Y-59658404D02*
X230052593Y-59658404D01*
X231452593Y-58258404D02*
X233652593Y-56058404D01*
X233652593Y-56058404D02*
X234052593Y-55658404D01*
X234052593Y-55658404D02*
X234052593Y-51458404D01*
X234052593Y-51458404D02*
X236852593Y-48658404D01*
X236852593Y-48658404D02*
X238252593Y-48658404D01*
X238252593Y-48658404D02*
X239852593Y-47058404D01*
X239852593Y-47058404D02*
X241652593Y-47058404D01*
X241652593Y-47058404D02*
X242852593Y-45858404D01*
X242852593Y-45858404D02*
X244252593Y-45858404D01*
X245252593Y-44858404D02*
X246052593Y-44858404D01*
X244252593Y-45858404D02*
X245252593Y-44858404D01*
X180252593Y-85058404D02*
X180652593Y-84658404D01*
X179452593Y-85858404D02*
X180252593Y-85058404D01*
X196252593Y-74658404D02*
X196652593Y-74258404D01*
X195052593Y-75858404D02*
X196252593Y-74658404D01*
X211452593Y-62258404D02*
X212252593Y-61458404D01*
X210452593Y-63258404D02*
X211452593Y-62258404D01*
X230852593Y-58858404D02*
X231452593Y-58258404D01*
X230052593Y-59658404D02*
X230852593Y-58858404D01*
X177452593Y-124058404D02*
X179452593Y-122058404D01*
X179452593Y-122058404D02*
X180452593Y-122058404D01*
X180452593Y-122058404D02*
X182852593Y-119658404D01*
X182852593Y-119658404D02*
X184052593Y-119658404D01*
X184052593Y-119658404D02*
X186852593Y-116858404D01*
X186852593Y-116858404D02*
X188252593Y-116858404D01*
X188252593Y-116858404D02*
X190052593Y-115058404D01*
X190052593Y-115058404D02*
X190652593Y-115058404D01*
X190652593Y-115058404D02*
X191252593Y-114458404D01*
X191252593Y-114458404D02*
X192052593Y-113658404D01*
X192052593Y-113658404D02*
X193252593Y-113658404D01*
X193252593Y-113658404D02*
X195052593Y-111858404D01*
X195052593Y-111858404D02*
X196652593Y-111858404D01*
X196652593Y-111858404D02*
X198652593Y-109858404D01*
X198652593Y-109858404D02*
X200452593Y-109858404D01*
X200452593Y-109858404D02*
X201852593Y-108458404D01*
X201852593Y-108458404D02*
X203052593Y-108458404D01*
X203052593Y-108458404D02*
X204452593Y-107058404D01*
X204452593Y-107058404D02*
X205652593Y-107058404D01*
X205652593Y-107058404D02*
X206852593Y-105858404D01*
X206852593Y-105858404D02*
X208852593Y-105858404D01*
X209852593Y-104858404D02*
X211052593Y-104858404D01*
X208852593Y-105858404D02*
X209852593Y-104858404D01*
X177452593Y-124058404D02*
X172852593Y-128658404D01*
X212252593Y-104858404D02*
X213652593Y-103458404D01*
X211052593Y-104858404D02*
X212252593Y-104858404D01*
X207852593Y-85458404D02*
X209252593Y-84058404D01*
X209252593Y-84058404D02*
X211252593Y-84058404D01*
X211252593Y-84058404D02*
X212852593Y-82458404D01*
X212852593Y-82458404D02*
X214452593Y-82458404D01*
X214452593Y-82458404D02*
X215852593Y-81058404D01*
X215852593Y-81058404D02*
X217652593Y-81058404D01*
X219252593Y-79458404D02*
X220252593Y-79458404D01*
X217652593Y-81058404D02*
X219252593Y-79458404D01*
X220252593Y-79458404D02*
X222652593Y-79458404D01*
X222652593Y-79458404D02*
X223852593Y-79458404D01*
X223852593Y-79458404D02*
X225252593Y-80858404D01*
X225252593Y-80858404D02*
X228852593Y-80858404D01*
X228852593Y-80858404D02*
X230252593Y-79458404D01*
X230252593Y-79458404D02*
X232052593Y-79458404D01*
X232052593Y-79458404D02*
X233452593Y-78058404D01*
X233452593Y-78058404D02*
X235452593Y-78058404D01*
X235452593Y-78058404D02*
X236652593Y-76858404D01*
X238052593Y-76858404D02*
X239252593Y-75658404D01*
X236652593Y-76858404D02*
X238052593Y-76858404D01*
X239252593Y-75658404D02*
X239852593Y-75658404D01*
X239852593Y-75658404D02*
X241852593Y-73658404D01*
X241852593Y-73658404D02*
X241852593Y-72458404D01*
X241852593Y-72458404D02*
X242452593Y-71858404D01*
X242452593Y-71858404D02*
X242452593Y-68058404D01*
X242452593Y-68058404D02*
X244852593Y-65658404D01*
X244852593Y-65658404D02*
X246452593Y-65658404D01*
X246452593Y-65658404D02*
X248052593Y-64058404D01*
X248052593Y-64058404D02*
X250252593Y-64058404D01*
X250252593Y-64058404D02*
X252052593Y-62258404D01*
X253852593Y-62258404D02*
X254052593Y-62058404D01*
X252052593Y-62258404D02*
X253852593Y-62258404D01*
X136052593Y-151658404D02*
X128852593Y-151658404D01*
X137052593Y-150658404D02*
X136052593Y-151658404D01*
X147252593Y-150658404D02*
X137052593Y-150658404D01*
X147332593Y-150738404D02*
X147252593Y-150658404D01*
X147332593Y-152258404D02*
X147332593Y-150738404D01*
X135452593Y-96458404D02*
X148452593Y-96458404D01*
X132652593Y-93658404D02*
X135452593Y-96458404D01*
X132652593Y-92058404D02*
X132652593Y-93658404D01*
X140652593Y-77258404D02*
X146852593Y-77258404D01*
X136652593Y-77258404D02*
X140652593Y-77258404D01*
X148452593Y-96458404D02*
X152452593Y-96458404D01*
X160852593Y-132458404D02*
X152052593Y-132458404D01*
X152052593Y-132458404D02*
X152252593Y-132458404D01*
X147252593Y-132458404D02*
X152052593Y-132458404D01*
X54452593Y-75658404D02*
X55652593Y-76858404D01*
X55852593Y-77058404D02*
X57852593Y-77058404D01*
X55652593Y-76858404D02*
X55852593Y-77058404D01*
X80452593Y-83658404D02*
X81452593Y-83658404D01*
X78652593Y-81858404D02*
X80452593Y-83658404D01*
X76622535Y-81858404D02*
X78652593Y-81858404D01*
X73222535Y-78458404D02*
X76622535Y-81858404D01*
X60452593Y-78458404D02*
X73222535Y-78458404D01*
X59052593Y-77058404D02*
X60452593Y-78458404D01*
X57852593Y-77058404D02*
X59052593Y-77058404D01*
X117852593Y-87858404D02*
X119252593Y-89258404D01*
X114052593Y-85658404D02*
X116252593Y-87858404D01*
X109852593Y-83658404D02*
X111852593Y-85658404D01*
X119252593Y-89258404D02*
X119652593Y-89258404D01*
X109252593Y-83658404D02*
X109852593Y-83658404D01*
X105452593Y-79858404D02*
X109252593Y-83658404D01*
X116252593Y-87858404D02*
X117852593Y-87858404D01*
X104252593Y-79858404D02*
X105452593Y-79858404D01*
X103956350Y-79562161D02*
X104252593Y-79858404D01*
X111852593Y-85658404D02*
X114052593Y-85658404D01*
X103860085Y-79562161D02*
X103956350Y-79562161D01*
X59752593Y-36758404D02*
X62952593Y-36758404D01*
X59452593Y-36458404D02*
X59752593Y-36758404D01*
X68052593Y-41858404D02*
X62952593Y-36758404D01*
X65452593Y-61258404D02*
X66652593Y-61258404D01*
X63852593Y-59658404D02*
X65452593Y-61258404D01*
X61652593Y-59658404D02*
X63852593Y-59658404D01*
X59452593Y-57458404D02*
X61652593Y-59658404D01*
X68652593Y-63258404D02*
X68662093Y-63248904D01*
X58652593Y-57458404D02*
X59452593Y-57458404D01*
X68662093Y-63248904D02*
X69852593Y-63248904D01*
X55452593Y-54258404D02*
X58652593Y-57458404D01*
X66652593Y-61258404D02*
X68652593Y-63258404D01*
X52052593Y-54258404D02*
X55452593Y-54258404D01*
X51452593Y-53658404D02*
X52052593Y-54258404D01*
X73452593Y-63258404D02*
X73443093Y-63248904D01*
X75252593Y-61458404D02*
X73452593Y-63258404D01*
X78052593Y-61458404D02*
X75252593Y-61458404D01*
X79652593Y-63058404D02*
X78052593Y-61458404D01*
X82252593Y-63058404D02*
X79652593Y-63058404D01*
X83652593Y-64458404D02*
X82252593Y-63058404D01*
X85452593Y-64458404D02*
X83652593Y-64458404D01*
X102356328Y-78058404D02*
X101052593Y-78058404D01*
X101052593Y-78058404D02*
X99252593Y-76258404D01*
X86852593Y-65858404D02*
X85452593Y-64458404D01*
X99252593Y-76258404D02*
X97452593Y-76258404D01*
X97452593Y-76258404D02*
X95452593Y-74258404D01*
X95452593Y-74258404D02*
X93852593Y-74258404D01*
X73443093Y-63248904D02*
X69852593Y-63248904D01*
X93852593Y-74258404D02*
X90952593Y-71358404D01*
X90952593Y-71358404D02*
X90952593Y-68158404D01*
X103860085Y-79562161D02*
X102356328Y-78058404D01*
X90952593Y-68158404D02*
X90252593Y-67458404D01*
X90252593Y-67458404D02*
X89252593Y-67458404D01*
X87652593Y-65858404D02*
X86852593Y-65858404D01*
X88352593Y-66558404D02*
X87652593Y-65858404D01*
X89252593Y-67458404D02*
X88352593Y-66558404D01*
X78852593Y-103058404D02*
X77452593Y-101658404D01*
X78852593Y-103458404D02*
X78852593Y-103058404D01*
X132652593Y-90258404D02*
X126852593Y-90258404D01*
D21*
%TO.N,row0*%
X65852593Y-36858404D02*
X69452593Y-40458404D01*
X69452593Y-40458404D02*
X69652593Y-40658404D01*
X69652593Y-40658404D02*
X72652593Y-40658404D01*
X72652593Y-40658404D02*
X75252593Y-43258404D01*
X75252593Y-43258404D02*
X78252593Y-43258404D01*
X79252593Y-43258404D02*
X80652593Y-41858404D01*
X78252593Y-43258404D02*
X79252593Y-43258404D01*
X83252593Y-40058404D02*
X83252593Y-41382442D01*
X83252593Y-41382442D02*
X85528555Y-43658404D01*
X85528555Y-43658404D02*
X87652593Y-43658404D01*
X87652593Y-43658404D02*
X88052593Y-44058404D01*
X90652593Y-44058404D02*
X92935083Y-46340894D01*
X88052593Y-44058404D02*
X90652593Y-44058404D01*
X92935083Y-46340894D02*
X94735083Y-46340894D01*
X94735083Y-46340894D02*
X95652593Y-47258404D01*
X95652593Y-47258404D02*
X98652593Y-50258404D01*
X98652593Y-50258404D02*
X98652593Y-50858404D01*
X98652593Y-50858404D02*
X99852593Y-52058404D01*
X99852593Y-52058404D02*
X103252593Y-55458404D01*
X103252593Y-55458404D02*
X103452593Y-55458404D01*
X103452593Y-55458404D02*
X103852593Y-55458404D01*
X103852593Y-55458404D02*
X105852593Y-57458404D01*
X105852593Y-57458404D02*
X108052593Y-57458404D01*
X108052593Y-57458404D02*
X110252593Y-59658404D01*
X110252593Y-59658404D02*
X111452593Y-59658404D01*
X112852593Y-61058404D02*
X112852593Y-61126536D01*
X111452593Y-59658404D02*
X112852593Y-61058404D01*
X114384461Y-62658404D02*
X114852593Y-62658404D01*
X112852593Y-61126536D02*
X114384461Y-62658404D01*
X114852593Y-62658404D02*
X117852593Y-65658404D01*
X117852593Y-65658404D02*
X118052593Y-65858404D01*
X118052593Y-65858404D02*
X120052593Y-65858404D01*
X120052593Y-65858404D02*
X120252593Y-65858404D01*
X120252593Y-65858404D02*
X122135083Y-67740894D01*
X123866952Y-67740894D02*
X125866952Y-69740894D01*
X122135083Y-67740894D02*
X123866952Y-67740894D01*
X128466952Y-69740894D02*
X128549442Y-69658404D01*
X125866952Y-69740894D02*
X128466952Y-69740894D01*
X132252593Y-69658404D02*
X132452593Y-69458404D01*
X128549442Y-69658404D02*
X132252593Y-69658404D01*
X132452593Y-69458404D02*
X132452593Y-70258404D01*
X132452593Y-70258404D02*
X132852593Y-70658404D01*
X163052593Y-70658404D02*
X163852593Y-69858404D01*
X163852593Y-69858404D02*
X166052593Y-69858404D01*
X166052593Y-69858404D02*
X167252593Y-68658404D01*
X167252593Y-68658404D02*
X169052593Y-68658404D01*
X169052593Y-68658404D02*
X170052593Y-67658404D01*
X170052593Y-67658404D02*
X171652593Y-67658404D01*
X171652593Y-67658404D02*
X173370103Y-65940894D01*
X174170103Y-65940894D02*
X174852593Y-65258404D01*
X173370103Y-65940894D02*
X174170103Y-65940894D01*
X174852593Y-65258404D02*
X176252593Y-63858404D01*
X176754073Y-63356924D02*
X176754073Y-63156924D01*
X176252593Y-63858404D02*
X176754073Y-63356924D01*
X183720725Y-58858404D02*
X183886659Y-58692470D01*
X181776631Y-58858404D02*
X183720725Y-58858404D01*
X180494141Y-60140894D02*
X181776631Y-58858404D01*
X179770103Y-60140894D02*
X180494141Y-60140894D01*
X176754073Y-63156924D02*
X179770103Y-60140894D01*
X183886659Y-58692470D02*
X185320725Y-57258404D01*
X185320725Y-57258404D02*
X187652593Y-57258404D01*
X187652593Y-57258404D02*
X189252593Y-55658404D01*
X189252593Y-55658404D02*
X190252593Y-54658404D01*
X190252593Y-54658404D02*
X191852593Y-53058404D01*
X192154076Y-50603381D02*
X194699053Y-48058404D01*
X192154074Y-52756923D02*
X192154076Y-50603381D01*
X191852593Y-53058404D02*
X192154074Y-52756923D01*
X194699053Y-48058404D02*
X195252593Y-48058404D01*
X195252593Y-48058404D02*
X196652593Y-46658404D01*
X197520725Y-46658404D02*
X198520725Y-45658404D01*
X196652593Y-46658404D02*
X197520725Y-46658404D01*
X198520725Y-45658404D02*
X199452593Y-45658404D01*
X199452593Y-45658404D02*
X200052593Y-45058404D01*
X202699053Y-44058404D02*
X202720724Y-44058404D01*
X201699053Y-45058404D02*
X202699053Y-44058404D01*
X200052593Y-45058404D02*
X201699053Y-45058404D01*
X203111224Y-43667904D02*
X205852593Y-43667904D01*
X202720724Y-44058404D02*
X203111224Y-43667904D01*
X205852593Y-43667904D02*
X206262093Y-43667904D01*
X206262093Y-43667904D02*
X208052593Y-45458404D01*
X208052593Y-45458404D02*
X211452593Y-45458404D01*
X211452593Y-45458404D02*
X213052593Y-43858404D01*
X213052593Y-43858404D02*
X214052593Y-43858404D01*
X214052593Y-43858404D02*
X214980939Y-42930058D01*
X218027399Y-42930058D02*
X219699053Y-41258404D01*
X214980939Y-42930058D02*
X218027399Y-42930058D01*
X220652593Y-41258404D02*
X222052593Y-39858404D01*
X219699053Y-41258404D02*
X220652593Y-41258404D01*
X222052593Y-39858404D02*
X222652593Y-39858404D01*
X224052593Y-38458404D02*
X224052593Y-36258404D01*
X222652593Y-39858404D02*
X224052593Y-38458404D01*
X231852593Y-54058404D02*
X232052593Y-53858404D01*
X232452593Y-53858404D02*
X232852593Y-53458404D01*
X232052593Y-53858404D02*
X232452593Y-53858404D01*
X232852593Y-51104864D02*
X236397571Y-47559886D01*
X232852593Y-53458404D02*
X232852593Y-51104864D01*
X236397571Y-47559886D02*
X237351111Y-47559886D01*
X238144664Y-46572435D02*
X238966624Y-46572435D01*
X237766624Y-46950475D02*
X238144664Y-46572435D01*
X237766624Y-47144373D02*
X237766624Y-46950475D01*
X237351111Y-47559886D02*
X237766624Y-47144373D01*
X238966624Y-46572435D02*
X239080655Y-46458404D01*
X239080655Y-46458404D02*
X241452593Y-46458404D01*
X241452593Y-46458404D02*
X242652593Y-45258404D01*
X242652593Y-45258404D02*
X244052593Y-45258404D01*
X244052593Y-45258404D02*
X245452593Y-43858404D01*
X245452593Y-43858404D02*
X246652593Y-43858404D01*
X247852593Y-42658404D02*
X247852593Y-41458404D01*
X246652593Y-43858404D02*
X247852593Y-42658404D01*
X150452593Y-70658404D02*
X163052593Y-70658404D01*
X132852593Y-70658404D02*
X150452593Y-70658404D01*
%TO.N,row1*%
X56852593Y-53658404D02*
X59252593Y-56058404D01*
X59252593Y-56058404D02*
X60052593Y-56058404D01*
X60052593Y-56058404D02*
X61852593Y-57858404D01*
X61852593Y-57858404D02*
X62052593Y-58058404D01*
X62052593Y-58058404D02*
X62452593Y-58058404D01*
X62452593Y-58058404D02*
X62744583Y-58350394D01*
X64098124Y-58350394D02*
X65452593Y-59704864D01*
X62744583Y-58350394D02*
X64098124Y-58350394D01*
X67266952Y-60140894D02*
X68852593Y-61726536D01*
X65888623Y-60140894D02*
X67266952Y-60140894D01*
X65452593Y-59704864D02*
X65888623Y-60140894D01*
X68852593Y-61726536D02*
X68984461Y-61858404D01*
X68984461Y-61858404D02*
X72852593Y-61858404D01*
X74452593Y-60258404D02*
X78852593Y-60258404D01*
X78852593Y-60258404D02*
X79052593Y-60458404D01*
X79052593Y-60458404D02*
X80052593Y-61458404D01*
X80052593Y-61458404D02*
X82252593Y-61458404D01*
X84135083Y-63340894D02*
X86135083Y-63340894D01*
X82252593Y-61458404D02*
X84135083Y-63340894D01*
X87554073Y-64759884D02*
X88554073Y-64759884D01*
X86135083Y-63340894D02*
X87554073Y-64759884D01*
X88554073Y-64759884D02*
X89852593Y-66058404D01*
X89852593Y-66058404D02*
X90406133Y-66058404D01*
X101584461Y-76858404D02*
X103052593Y-76858404D01*
X99384461Y-74658404D02*
X101584461Y-76858404D01*
X97852593Y-74658404D02*
X99384461Y-74658404D01*
X96052593Y-72858404D02*
X97852593Y-74658404D01*
X94052593Y-72858404D02*
X96052593Y-72858404D01*
X92051111Y-70856922D02*
X94052593Y-72858404D01*
X104662093Y-78467904D02*
X105052593Y-78467904D01*
X92051111Y-67703382D02*
X92051111Y-70856922D01*
X103052593Y-76858404D02*
X104662093Y-78467904D01*
X90406133Y-66058404D02*
X92051111Y-67703382D01*
X105052593Y-78467904D02*
X106062093Y-78467904D01*
X106062093Y-78467904D02*
X110052593Y-82458404D01*
X110052593Y-82458404D02*
X110652593Y-82458404D01*
X112735092Y-84140903D02*
X112944583Y-84350394D01*
X112335092Y-84140903D02*
X112735092Y-84140903D01*
X110652593Y-82458404D02*
X112335092Y-84140903D01*
X114676452Y-84350394D02*
X116052593Y-85726536D01*
X112944583Y-84350394D02*
X114676452Y-84350394D01*
X116866951Y-86540894D02*
X118935083Y-86540894D01*
X116052593Y-85726536D02*
X116866951Y-86540894D01*
X118935083Y-86540894D02*
X120252593Y-87858404D01*
X120252593Y-87858404D02*
X121652593Y-87858404D01*
X122452593Y-88658404D02*
X124452593Y-88658404D01*
X121652593Y-87858404D02*
X122452593Y-88658404D01*
X124452593Y-88658404D02*
X127452593Y-88658404D01*
X123852593Y-98258404D02*
X145370103Y-98258404D01*
X145370103Y-98258404D02*
X165798592Y-98258404D01*
X165798592Y-89458404D02*
X167252593Y-89458404D01*
X167920725Y-89058404D02*
X168438234Y-88540894D01*
X167652593Y-89058404D02*
X167920725Y-89058404D01*
X167252593Y-89458404D02*
X167652593Y-89058404D01*
X170038235Y-88540894D02*
X171520725Y-87058404D01*
X168438234Y-88540894D02*
X170038235Y-88540894D01*
X177520725Y-84658404D02*
X178720725Y-84658404D01*
X175849071Y-86330058D02*
X177520725Y-84658404D01*
X173504977Y-86330058D02*
X175849071Y-86330058D01*
X178720725Y-84658404D02*
X179920725Y-83458404D01*
X180934657Y-83458404D02*
X182593625Y-81799436D01*
X179920725Y-83458404D02*
X180934657Y-83458404D01*
X182593625Y-81799436D02*
X183652593Y-80740468D01*
X183652593Y-80304863D02*
X186016562Y-77940894D01*
X183652593Y-80740468D02*
X183652593Y-80304863D01*
X186016562Y-77940894D02*
X186770103Y-77940894D01*
X188058695Y-76458404D02*
X188402789Y-76458404D01*
X187666624Y-76850475D02*
X188058695Y-76458404D01*
X187666624Y-77044373D02*
X187666624Y-76850475D01*
X186770103Y-77940894D02*
X187666624Y-77044373D01*
X188402789Y-76458404D02*
X188720298Y-76140894D01*
X191416563Y-76140894D02*
X192797572Y-74759884D01*
X188720298Y-76140894D02*
X191416563Y-76140894D01*
X194219245Y-74759884D02*
X195849070Y-73130058D01*
X192797572Y-74759884D02*
X194219245Y-74759884D01*
X197180939Y-73130058D02*
X198652593Y-71658404D01*
X195849070Y-73130058D02*
X197180939Y-73130058D01*
X198652593Y-71658404D02*
X198652593Y-68658404D01*
X200299053Y-67058404D02*
X202699053Y-64658404D01*
X200252593Y-67058404D02*
X200299053Y-67058404D01*
X198652593Y-68658404D02*
X200252593Y-67058404D01*
X202699053Y-64658404D02*
X203652593Y-64658404D01*
X203652593Y-64658404D02*
X204852593Y-63458404D01*
X206920725Y-63458404D02*
X208320725Y-62058404D01*
X204852593Y-63458404D02*
X206920725Y-63458404D01*
X208320725Y-62058404D02*
X209652593Y-62058404D01*
X211320724Y-60458404D02*
X211520724Y-60258404D01*
X211252593Y-60458404D02*
X211320724Y-60458404D01*
X209652593Y-62058404D02*
X211252593Y-60458404D01*
X211520724Y-58126535D02*
X211052593Y-57658404D01*
X211520724Y-60258404D02*
X211520724Y-58126535D01*
X211520724Y-60258404D02*
X215652593Y-60258404D01*
X215652593Y-60258404D02*
X218052593Y-62658404D01*
X218052593Y-62658404D02*
X219852593Y-62658404D01*
X219852593Y-62658404D02*
X221052593Y-61458404D01*
X221052593Y-61458404D02*
X222452593Y-61458404D01*
X222452593Y-61458404D02*
X224052593Y-59858404D01*
X226099053Y-59858404D02*
X227616562Y-58340894D01*
X224052593Y-59858404D02*
X226099053Y-59858404D01*
X229052166Y-58340894D02*
X232603247Y-54789813D01*
X227616562Y-58340894D02*
X229052166Y-58340894D01*
X239052593Y-68658404D02*
X239052593Y-67458404D01*
X239052593Y-67458404D02*
X241052593Y-65458404D01*
X241052593Y-65458404D02*
X241452593Y-65458404D01*
X241452593Y-65458404D02*
X243452593Y-63458404D01*
X243452593Y-63458404D02*
X246652593Y-63458404D01*
X246652593Y-63458404D02*
X248252593Y-61858404D01*
X248252593Y-61858404D02*
X249652593Y-61858404D01*
X249652593Y-61858404D02*
X250852593Y-60658404D01*
X250852593Y-60658404D02*
X252652593Y-60658404D01*
X254852593Y-58458404D02*
X254852593Y-57258404D01*
X252652593Y-60658404D02*
X254852593Y-58458404D01*
X151179593Y-73258404D02*
X159925593Y-73258404D01*
X163175026Y-79008971D02*
X164102026Y-79008971D01*
X165252593Y-77858404D02*
X167852593Y-77858404D01*
X164102026Y-79008971D02*
X165252593Y-77858404D01*
X172062093Y-87058404D02*
X172252593Y-86867904D01*
X171520725Y-87058404D02*
X172062093Y-87058404D01*
X172252593Y-86867904D02*
X172652593Y-86467904D01*
X173367131Y-86467904D02*
X173504977Y-86330058D01*
X172652593Y-86467904D02*
X173367131Y-86467904D01*
X73852593Y-60458404D02*
X73852593Y-60858404D01*
X73852593Y-60858404D02*
X74452593Y-60258404D01*
X73452593Y-60058404D02*
X73852593Y-60458404D01*
X72852593Y-61858404D02*
X73852593Y-60858404D01*
%TO.N,row2*%
X50452593Y-71340468D02*
X50452593Y-71658404D01*
X50397494Y-71285369D02*
X50452593Y-71340468D01*
X50452593Y-71658404D02*
X53652593Y-74858404D01*
X53652593Y-74858404D02*
X54452593Y-74858404D01*
X54452593Y-74858404D02*
X55852593Y-76258404D01*
X55852593Y-76258404D02*
X59036037Y-76258404D01*
X60236037Y-77458404D02*
X64652593Y-77458404D01*
X59036037Y-76258404D02*
X60236037Y-77458404D01*
X64652593Y-77458404D02*
X73252593Y-77458404D01*
X73252593Y-77458404D02*
X76852593Y-81058404D01*
X76852593Y-81058404D02*
X78852593Y-81058404D01*
X78852593Y-81058404D02*
X80652593Y-82858404D01*
X80652593Y-82858404D02*
X81728555Y-82858404D01*
X90728555Y-91858404D02*
X92652593Y-91858404D01*
X92652593Y-91858404D02*
X94852593Y-94058404D01*
X94852593Y-94058404D02*
X97452593Y-94058404D01*
X97452593Y-94058404D02*
X99652593Y-96258404D01*
X99652593Y-96258404D02*
X102852593Y-99458404D01*
X102852593Y-99458404D02*
X104452593Y-101058404D01*
X104452593Y-101058404D02*
X107052593Y-101058404D01*
X107052593Y-101058404D02*
X109452593Y-103458404D01*
X109452593Y-103458404D02*
X111452593Y-103458404D01*
X111452593Y-103458404D02*
X113652593Y-105658404D01*
X116052593Y-105658404D02*
X117052593Y-104658404D01*
X113652593Y-105658404D02*
X116052593Y-105658404D01*
X82490574Y-83620423D02*
X90728555Y-91858404D01*
X81728555Y-82858404D02*
X82490574Y-83620423D01*
X117052593Y-104658404D02*
X122043093Y-104658404D01*
X120978372Y-123384183D02*
X122052593Y-124458404D01*
X117635411Y-123384183D02*
X120978372Y-123384183D01*
X178052593Y-104658404D02*
X178852593Y-104658404D01*
X178852593Y-104658404D02*
X183852593Y-104658404D01*
X183852593Y-104658404D02*
X184010527Y-104658404D01*
X184010527Y-104658404D02*
X186264536Y-102404394D01*
X188078469Y-102404394D02*
X188638526Y-101844337D01*
X186264536Y-102404394D02*
X188078469Y-102404394D01*
X190751460Y-99731403D02*
X190779594Y-99731403D01*
X188638526Y-101844337D02*
X190751460Y-99731403D01*
X190779594Y-99731403D02*
X197652593Y-92858404D01*
X197652593Y-92858404D02*
X199852593Y-92858404D01*
X199852593Y-92858404D02*
X202452593Y-90258404D01*
X202452593Y-90258404D02*
X203852593Y-90258404D01*
X203852593Y-90258404D02*
X204852593Y-89258404D01*
X205808083Y-82458404D02*
X206852593Y-82458404D01*
X206852593Y-82458404D02*
X207652593Y-82458404D01*
X207652593Y-82458404D02*
X209052593Y-81058404D01*
X209052593Y-81058404D02*
X211452593Y-81058404D01*
X211452593Y-81058404D02*
X212852593Y-79658404D01*
X212852593Y-79658404D02*
X214852593Y-79658404D01*
X214852593Y-79658404D02*
X215852593Y-78658404D01*
X215852593Y-78658404D02*
X216652593Y-78658404D01*
X216652593Y-78658404D02*
X217852593Y-77458404D01*
X229652593Y-77458404D02*
X230452593Y-76658404D01*
X230452593Y-76658404D02*
X232052593Y-76658404D01*
X232052593Y-76658404D02*
X232652593Y-76058404D01*
X232652593Y-76058404D02*
X233852593Y-76058404D01*
X233852593Y-76058404D02*
X235052593Y-74858404D01*
X235052593Y-74858404D02*
X237052593Y-74858404D01*
X237052593Y-74858404D02*
X239252593Y-72658404D01*
X239252593Y-72658404D02*
X239252593Y-71858404D01*
X251652593Y-80858404D02*
X254252593Y-80858404D01*
X254252593Y-80858404D02*
X256252593Y-78858404D01*
X256252593Y-78858404D02*
X258852593Y-78858404D01*
X258852593Y-78858404D02*
X260852593Y-76858404D01*
X260852593Y-76858404D02*
X261252593Y-76858404D01*
X262452593Y-75658404D02*
X262452593Y-74658404D01*
X261252593Y-76858404D02*
X262452593Y-75658404D01*
X251652593Y-80858404D02*
X247652593Y-84858404D01*
X142252593Y-104658404D02*
X178052593Y-104658404D01*
X122043093Y-104658404D02*
X142252593Y-104658404D01*
X222452593Y-77458404D02*
X229652593Y-77458404D01*
X217852593Y-77458404D02*
X222452593Y-77458404D01*
X204852593Y-89258404D02*
X204852593Y-88258404D01*
%TO.N,row3*%
X60179594Y-94131403D02*
X62325592Y-94131403D01*
X57652593Y-96658404D02*
X60179594Y-94131403D01*
X62325592Y-94131403D02*
X64725592Y-94131403D01*
X64725592Y-94131403D02*
X67452593Y-96858404D01*
X67452593Y-96858404D02*
X69452593Y-96858404D01*
X69452593Y-96858404D02*
X72252593Y-99658404D01*
X72252593Y-99658404D02*
X77252593Y-99658404D01*
X70052593Y-119458404D02*
X71052593Y-119458404D01*
X71052593Y-119458404D02*
X72852593Y-121258404D01*
X72852593Y-121258404D02*
X75052593Y-121258404D01*
X75052593Y-121258404D02*
X77252593Y-123458404D01*
X77252593Y-123458404D02*
X79452593Y-123458404D01*
X79452593Y-123458404D02*
X81452593Y-125458404D01*
X81452593Y-125458404D02*
X86052593Y-125458404D01*
X86052593Y-125458404D02*
X87652593Y-127058404D01*
X87652593Y-127058404D02*
X87652593Y-127458404D01*
X87652593Y-127458404D02*
X90252593Y-130058404D01*
X90252593Y-130058404D02*
X91452593Y-130058404D01*
X91452593Y-130058404D02*
X94652593Y-133258404D01*
X94652593Y-133258404D02*
X96052593Y-133258404D01*
X96052593Y-133258404D02*
X98652593Y-135858404D01*
X98652593Y-135858404D02*
X100652593Y-135858404D01*
X101652593Y-136858404D02*
X102652593Y-136858404D01*
X100652593Y-135858404D02*
X101652593Y-136858404D01*
X102652593Y-136858404D02*
X104652593Y-138858404D01*
X104652593Y-138858404D02*
X107252593Y-141458404D01*
X107252593Y-141458404D02*
X107252593Y-142458404D01*
X107252593Y-142458404D02*
X110252593Y-145458404D01*
X110252593Y-145458404D02*
X110252593Y-146258404D01*
X110252593Y-146258404D02*
X112852593Y-148858404D01*
X112852593Y-148858404D02*
X113852593Y-148858404D01*
X115652593Y-150658404D02*
X116252593Y-150658404D01*
X113852593Y-148858404D02*
X115652593Y-150658404D01*
X121852593Y-145658404D02*
X166652593Y-145658404D01*
X174452593Y-152458404D02*
X187252593Y-139658404D01*
X187252593Y-139658404D02*
X187252593Y-138658404D01*
X187252593Y-138658404D02*
X189052593Y-136858404D01*
X189052593Y-136858404D02*
X190852593Y-136858404D01*
X190852593Y-136858404D02*
X191452593Y-136858404D01*
X191452593Y-136858404D02*
X194652593Y-133658404D01*
X194652593Y-133658404D02*
X196252593Y-133658404D01*
X196252593Y-133658404D02*
X198852593Y-131058404D01*
X198852593Y-131058404D02*
X199452593Y-131058404D01*
X199452593Y-131058404D02*
X201852593Y-128658404D01*
X202052593Y-128658404D02*
X203252593Y-127458404D01*
X201852593Y-128658404D02*
X202052593Y-128658404D01*
X203252593Y-127458404D02*
X205252593Y-127458404D01*
X205252593Y-127458404D02*
X206852593Y-125858404D01*
X206852593Y-125858404D02*
X208852593Y-125858404D01*
X208852593Y-125858404D02*
X211252593Y-123458404D01*
X211252593Y-123458404D02*
X214452593Y-123458404D01*
X214452593Y-123458404D02*
X216652593Y-121258404D01*
X216652593Y-121258404D02*
X218452593Y-121258404D01*
X220852593Y-118858404D02*
X220852593Y-118658404D01*
X218452593Y-121258404D02*
X220852593Y-118858404D01*
X214452593Y-100058404D02*
X216652593Y-100058404D01*
X216652593Y-100058404D02*
X218052593Y-98658404D01*
X218052593Y-98658404D02*
X220052593Y-98658404D01*
X220052593Y-98658404D02*
X222052593Y-96658404D01*
X222052593Y-96658404D02*
X224652593Y-96658404D01*
X224652593Y-96658404D02*
X226652593Y-94658404D01*
X228252593Y-94658404D02*
X229852593Y-93058404D01*
X226652593Y-94658404D02*
X228252593Y-94658404D01*
X234052593Y-96658404D02*
X235052593Y-96658404D01*
X235052593Y-96658404D02*
X237052593Y-94658404D01*
X237052593Y-94658404D02*
X239852593Y-94658404D01*
X239852593Y-94658404D02*
X240052593Y-94658404D01*
X240052593Y-94658404D02*
X242052593Y-92658404D01*
X242052593Y-92658404D02*
X244052593Y-92658404D01*
X244052593Y-92658404D02*
X245652593Y-91058404D01*
X245652593Y-91058404D02*
X247052593Y-91058404D01*
X248652593Y-89458404D02*
X248652593Y-89058404D01*
X247052593Y-91058404D02*
X248652593Y-89458404D01*
X164605459Y-130077404D02*
X162652593Y-130077404D01*
X167638526Y-127044337D02*
X164605459Y-130077404D01*
X165939286Y-100848904D02*
X165999456Y-100909074D01*
X141452593Y-100848904D02*
X165939286Y-100848904D01*
%TO.N,led*%
X129452608Y-83858389D02*
X129452593Y-83858404D01*
X131852593Y-83858389D02*
X129452608Y-83858389D01*
X136252593Y-67458404D02*
X136452593Y-67258404D01*
X133452593Y-67458404D02*
X136252593Y-67458404D01*
X138822397Y-53288600D02*
X138274691Y-52740894D01*
X137236894Y-52740894D02*
X136954404Y-52458404D01*
X138274691Y-52740894D02*
X137236894Y-52740894D01*
X136954404Y-52458404D02*
X136384461Y-52458404D01*
X136384461Y-52458404D02*
X134666952Y-50740894D01*
X133066951Y-50740894D02*
X131666952Y-49340894D01*
X134666952Y-50740894D02*
X133066951Y-50740894D01*
X130193118Y-49340894D02*
X129393118Y-48540894D01*
X131666952Y-49340894D02*
X130193118Y-49340894D01*
X129393118Y-48540894D02*
X127266951Y-48540894D01*
X126170103Y-46044045D02*
X123666952Y-43540894D01*
X126170103Y-47444046D02*
X126170103Y-46044045D01*
X127266951Y-48540894D02*
X126170103Y-47444046D01*
X122866951Y-43540894D02*
X122176452Y-42850395D01*
X123666952Y-43540894D02*
X122866951Y-43540894D01*
X121798124Y-42850395D02*
X120107614Y-41159884D01*
X122176452Y-42850395D02*
X121798124Y-42850395D01*
X118085942Y-41159884D02*
X116866952Y-39940894D01*
X120107614Y-41159884D02*
X118085942Y-41159884D01*
X115666951Y-39940894D02*
X114466952Y-38740894D01*
X116866952Y-39940894D02*
X115666951Y-39940894D01*
X113011045Y-38740894D02*
X112728555Y-38458404D01*
X114466952Y-38740894D02*
X113011045Y-38740894D01*
X110584461Y-37058404D02*
X110384461Y-37058404D01*
X111984461Y-38458404D02*
X110584461Y-37058404D01*
X112728555Y-38458404D02*
X111984461Y-38458404D01*
X110384461Y-37058404D02*
X108970103Y-35644046D01*
X108970103Y-35644046D02*
X108970103Y-32822374D01*
X107560604Y-31064604D02*
X106846393Y-30350393D01*
X107560604Y-31412875D02*
X107560604Y-31064604D01*
X108970103Y-32822374D02*
X107560604Y-31412875D01*
X106498122Y-30350393D02*
X104907614Y-28759884D01*
X106846393Y-30350393D02*
X106498122Y-30350393D01*
X104907614Y-28759884D02*
X102707613Y-28759884D01*
X102707613Y-28759884D02*
X101107614Y-27159884D01*
X99230035Y-27159884D02*
X97528555Y-25458404D01*
X101107614Y-27159884D02*
X99230035Y-27159884D01*
X92120725Y-25458404D02*
X90586659Y-26992470D01*
X97528555Y-25458404D02*
X92120725Y-25458404D01*
X90586659Y-26992470D02*
X90438235Y-27140894D01*
X90438235Y-27140894D02*
X88252593Y-27140894D01*
X87836893Y-27140894D02*
X87436894Y-26740894D01*
X88252593Y-27140894D02*
X87836893Y-27140894D01*
X84666951Y-26740894D02*
X82184461Y-24258404D01*
X87436894Y-26740894D02*
X84666951Y-26740894D01*
X82057460Y-24131403D02*
X75925592Y-24131403D01*
X82184461Y-24258404D02*
X82057460Y-24131403D01*
X75052593Y-23258404D02*
X71252593Y-23258404D01*
X75925592Y-24131403D02*
X75052593Y-23258404D01*
X66052593Y-31058404D02*
X62452593Y-31058404D01*
X61784462Y-30658404D02*
X61666952Y-30540894D01*
X62052593Y-30658404D02*
X61784462Y-30658404D01*
X62452593Y-31058404D02*
X62052593Y-30658404D01*
X60266951Y-30540894D02*
X58784461Y-29058404D01*
X61666952Y-30540894D02*
X60266951Y-30540894D01*
X58784461Y-29058404D02*
X57452593Y-29058404D01*
X56452593Y-28058404D02*
X53652593Y-28058404D01*
X57452593Y-29058404D02*
X56452593Y-28058404D01*
%TO.N,Net-(D41-Pad2)*%
X61052593Y-29813894D02*
X59843094Y-28604395D01*
X59843094Y-28604395D02*
X58972518Y-28604394D01*
X57640649Y-28604394D02*
X56640650Y-27604394D01*
X58972518Y-28604394D02*
X57640649Y-28604394D01*
X56640650Y-27604394D02*
X54598583Y-27604394D01*
X54598583Y-27604394D02*
X54452593Y-27458404D01*
X53652593Y-26658404D02*
X52052593Y-26658404D01*
X54452593Y-27458404D02*
X53652593Y-26658404D01*
D20*
%TO.N,VCC*%
X149052593Y-62658404D02*
X142652593Y-62658404D01*
D21*
%TO.N,Net-(D42-Pad2)*%
X54911561Y-48599436D02*
X53370529Y-47058404D01*
X53370529Y-47058404D02*
X51584461Y-47058404D01*
X49384461Y-44858404D02*
X45252593Y-44858404D01*
X51584461Y-47058404D02*
X49384461Y-44858404D01*
%TO.N,Net-(D43-Pad2)*%
X45728555Y-63858404D02*
X47852593Y-65982442D01*
X43852593Y-63858404D02*
X45728555Y-63858404D01*
X47852593Y-65982442D02*
X47852593Y-66258404D01*
X47852593Y-66258404D02*
X50452593Y-68858404D01*
X50452593Y-68858404D02*
X50452593Y-70058404D01*
X51124495Y-70730306D02*
X51124495Y-71688240D01*
X50452593Y-70058404D02*
X51124495Y-70730306D01*
X53380592Y-73944337D02*
X53766660Y-73944337D01*
X51124495Y-71688240D02*
X53380592Y-73944337D01*
%TO.N,Net-(D47-Pad2)*%
X86360603Y-28966414D02*
X87744583Y-28966414D01*
X85774634Y-28380445D02*
X86360603Y-28966414D01*
X87744583Y-28966414D02*
X87852593Y-28858404D01*
X90954074Y-28756923D02*
X91554074Y-28756923D01*
X90852593Y-28858404D02*
X90954074Y-28756923D01*
X87852593Y-28858404D02*
X90852593Y-28858404D01*
X92652593Y-27658404D02*
X96252593Y-27658404D01*
X91554074Y-28756923D02*
X92652593Y-27658404D01*
%TO.N,Net-(D48-Pad2)*%
X104852593Y-31458404D02*
X103852593Y-30458404D01*
X103852593Y-30458404D02*
X102052593Y-30458404D01*
X102052593Y-30458404D02*
X100452593Y-28858404D01*
X100452593Y-28858404D02*
X97852593Y-28858404D01*
X97852593Y-28858404D02*
X97452593Y-28458404D01*
X97452593Y-28458404D02*
X95452593Y-28458404D01*
X95452593Y-28458404D02*
X94852593Y-28458404D01*
%TO.N,Net-(D49-Pad2)*%
X93693625Y-48448904D02*
X93420635Y-48175914D01*
X92038234Y-48175914D02*
X90452593Y-46590272D01*
X93420635Y-48175914D02*
X92038234Y-48175914D01*
X90038235Y-46175914D02*
X87170103Y-46175914D01*
X90452593Y-46590272D02*
X90038235Y-46175914D01*
X87043093Y-46048904D02*
X86252593Y-46048904D01*
X87170103Y-46175914D02*
X87043093Y-46048904D01*
%TO.N,Net-(D50-Pad2)*%
X87252593Y-66658404D02*
X86920725Y-66658404D01*
X86920725Y-66658404D02*
X85320725Y-65058404D01*
X85320725Y-65058404D02*
X83520725Y-65058404D01*
X82038235Y-63575914D02*
X79052167Y-63575914D01*
X79052167Y-63575914D02*
X78393625Y-62917372D01*
X83520725Y-65058404D02*
X82038235Y-63575914D01*
%TO.N,Net-(D51-Pad2)*%
X85652593Y-76258404D02*
X86452593Y-77058404D01*
X86452593Y-77058404D02*
X88852593Y-77058404D01*
X91252593Y-79458404D02*
X93652593Y-79458404D01*
X88852593Y-77058404D02*
X91252593Y-79458404D01*
%TO.N,Net-(D52-Pad2)*%
X99311225Y-77048904D02*
X98793625Y-77048904D01*
X101127826Y-78865505D02*
X99311225Y-77048904D01*
X102045492Y-78865505D02*
X101127826Y-78865505D01*
%TO.N,Net-(D53-Pad2)*%
X110593625Y-61917372D02*
X109528117Y-61917372D01*
X107259649Y-59648904D02*
X106793625Y-59648904D01*
X109528117Y-61917372D02*
X107259649Y-59648904D01*
%TO.N,Net-(D54-Pad2)*%
X120393625Y-44117372D02*
X121734657Y-45458404D01*
X123052593Y-45458404D02*
X124335083Y-46740894D01*
X121734657Y-45458404D02*
X123052593Y-45458404D01*
X126711224Y-50648904D02*
X127052593Y-50648904D01*
X124335083Y-48272763D02*
X126711224Y-50648904D01*
X124335083Y-46740894D02*
X124335083Y-48272763D01*
%TO.N,Net-(D55-Pad2)*%
X134993625Y-53917372D02*
X133734657Y-52658404D01*
X133734657Y-52658404D02*
X132052593Y-52658404D01*
X132052593Y-52658404D02*
X130852593Y-51458404D01*
X126252593Y-51458404D02*
X125452593Y-50658404D01*
X130852593Y-51458404D02*
X126252593Y-51458404D01*
%TO.N,Net-(D56-Pad2)*%
X126852593Y-71848904D02*
X125259649Y-71848904D01*
X122986659Y-69575914D02*
X120970103Y-69575914D01*
X125259649Y-71848904D02*
X122986659Y-69575914D01*
X119443093Y-68048904D02*
X118252593Y-68048904D01*
X120970103Y-69575914D02*
X119443093Y-68048904D01*
%TO.N,Net-(D57-Pad2)*%
X117443093Y-88648904D02*
X117170103Y-88375914D01*
X117452593Y-88648904D02*
X117443093Y-88648904D01*
X116038234Y-88375914D02*
X115452593Y-87790272D01*
X117170103Y-88375914D02*
X116038234Y-88375914D01*
X109570103Y-84175914D02*
X109038234Y-84175914D01*
X111570103Y-86175914D02*
X109570103Y-84175914D01*
X113838235Y-86175914D02*
X111570103Y-86175914D01*
X115452593Y-87790272D02*
X113838235Y-86175914D01*
X107465625Y-82603305D02*
X107079558Y-82603305D01*
X109038234Y-84175914D02*
X107465625Y-82603305D01*
X100452593Y-99058404D02*
X96452593Y-95058404D01*
X94476479Y-94966424D02*
X94210526Y-94700470D01*
X96360613Y-94966424D02*
X94476479Y-94966424D01*
X96452593Y-95058404D02*
X96360613Y-94966424D01*
X94210526Y-94700470D02*
X92276480Y-92766424D01*
X89966374Y-92766424D02*
X89700421Y-92500470D01*
X92276480Y-92766424D02*
X89966374Y-92766424D01*
X85658355Y-88458404D02*
X85252593Y-88458404D01*
X89700421Y-92500470D02*
X85658355Y-88458404D01*
%TO.N,Net-(D58-Pad2)*%
X88193625Y-109317372D02*
X90134657Y-111258404D01*
X90134657Y-111258404D02*
X92652593Y-111258404D01*
X95920724Y-114258404D02*
X96120724Y-114458404D01*
X95652593Y-114258404D02*
X95920724Y-114258404D01*
X92652593Y-111258404D02*
X95652593Y-114258404D01*
X98534657Y-114458404D02*
X100393625Y-116317372D01*
X96120724Y-114458404D02*
X98534657Y-114458404D01*
%TO.N,Net-(D59-Pad2)*%
X106920725Y-120858404D02*
X107838234Y-121775914D01*
X106852593Y-120858404D02*
X106920725Y-120858404D01*
X106693625Y-121017372D02*
X106852593Y-120858404D01*
X107838234Y-121775914D02*
X109370103Y-121775914D01*
X109370103Y-121775914D02*
X113852593Y-126258404D01*
X114334657Y-126258404D02*
X117993625Y-129917372D01*
X113852593Y-126258404D02*
X114334657Y-126258404D01*
%TO.N,Net-(D60-Pad2)*%
X128052593Y-130858404D02*
X133052593Y-130858404D01*
X133052593Y-130858404D02*
X133452593Y-131258404D01*
X133452593Y-131258404D02*
X157052593Y-131258404D01*
X157452593Y-131658404D02*
X163252593Y-131658404D01*
X157052593Y-131258404D02*
X157452593Y-131658404D01*
%TO.N,Net-(D61-Pad2)*%
X172711560Y-131317373D02*
X172711560Y-131117371D01*
X172311561Y-131717372D02*
X172711560Y-131317373D01*
X172869588Y-131117371D02*
X180128555Y-123858404D01*
X172711560Y-131117371D02*
X172869588Y-131117371D01*
X180888465Y-123858404D02*
X182870529Y-121876340D01*
X180128555Y-123858404D02*
X180888465Y-123858404D01*
%TO.N,Net-(D62-Pad2)*%
X190416311Y-116812622D02*
X190830243Y-116812622D01*
X190830243Y-116812622D02*
X192584461Y-115058404D01*
X192584461Y-115058404D02*
X193652593Y-115058404D01*
X195735083Y-112975914D02*
X197335083Y-112975914D01*
X193652593Y-115058404D02*
X195735083Y-112975914D01*
X197335083Y-112975914D02*
X197852593Y-112458404D01*
X198252593Y-112058404D02*
X198252593Y-111990272D01*
X197852593Y-112458404D02*
X198252593Y-112058404D01*
X198252593Y-111990272D02*
X199184461Y-111058404D01*
X201370529Y-111058404D02*
X202311561Y-110117372D01*
X199184461Y-111058404D02*
X201370529Y-111058404D01*
%TO.N,Net-(D63-Pad2)*%
X172335083Y-89375914D02*
X172052593Y-89658404D01*
X173866952Y-88975914D02*
X172735083Y-88975914D01*
X174866951Y-87975914D02*
X173866952Y-88975914D01*
X176666952Y-87975914D02*
X174866951Y-87975914D01*
X172735083Y-88975914D02*
X172335083Y-89375914D01*
X179584461Y-86458404D02*
X178184461Y-86458404D01*
X180184461Y-85858404D02*
X179584461Y-86458404D01*
X181211047Y-85175912D02*
X180528555Y-85858404D01*
X182066953Y-85175912D02*
X181211047Y-85175912D01*
X185370103Y-81872763D02*
X182066953Y-85175912D01*
X178184461Y-86458404D02*
X176666952Y-87975914D01*
X185370103Y-80872762D02*
X185370103Y-81872763D01*
X186666951Y-79575914D02*
X185370103Y-80872762D01*
X187866952Y-79575914D02*
X186666951Y-79575914D01*
X199211561Y-74817372D02*
X199052593Y-74658404D01*
X198866952Y-74775914D02*
X197335083Y-74775914D01*
X199052593Y-74658404D02*
X198984462Y-74658404D01*
X196979594Y-75007365D02*
X196528555Y-75458404D01*
X198984462Y-74658404D02*
X198866952Y-74775914D01*
X197335083Y-74775914D02*
X197103632Y-75007365D01*
X192066952Y-77775914D02*
X189666951Y-77775914D01*
X197103632Y-75007365D02*
X196979594Y-75007365D01*
X196528555Y-75458404D02*
X196184461Y-75458404D01*
X196184461Y-75458404D02*
X195266952Y-76375914D01*
X195266952Y-76375914D02*
X193466951Y-76375914D01*
X180528555Y-85858404D02*
X180184461Y-85858404D01*
X193466951Y-76375914D02*
X192066952Y-77775914D01*
X189666951Y-77775914D02*
X187866952Y-79575914D01*
%TO.N,Net-(D66-Pad2)*%
X161252593Y-51585404D02*
X162767659Y-51585404D01*
X162767659Y-51585404D02*
X164054680Y-50298383D01*
X165454681Y-50298383D02*
X165720634Y-50032429D01*
X164054680Y-50298383D02*
X165454681Y-50298383D01*
X165720634Y-50032429D02*
X167906603Y-47846461D01*
X173040650Y-47846461D02*
X173052593Y-47858404D01*
X167906603Y-47846461D02*
X173040650Y-47846461D01*
%TO.N,Net-(D67-Pad2)*%
X178011561Y-40648904D02*
X176684551Y-41975914D01*
X174266951Y-41975914D02*
X172984461Y-43258404D01*
X176684551Y-41975914D02*
X174266951Y-41975914D01*
X171770529Y-43258404D02*
X170911561Y-44117372D01*
X172984461Y-43258404D02*
X171770529Y-43258404D01*
%TO.N,Net-(D68-Pad2)*%
X186062093Y-59258404D02*
X185784461Y-59258404D01*
X186252593Y-59448904D02*
X186062093Y-59258404D01*
X185784461Y-59258404D02*
X184466952Y-60575914D01*
X183066951Y-60575914D02*
X181666952Y-61975914D01*
X184466952Y-60575914D02*
X183066951Y-60575914D01*
X180853019Y-61975914D02*
X179311561Y-63517372D01*
X181666952Y-61975914D02*
X180853019Y-61975914D01*
%TO.N,Net-(D69-Pad2)*%
X193852593Y-77102914D02*
X193408083Y-77102914D01*
X193026528Y-77458404D02*
X192255009Y-78229924D01*
X193052593Y-77458404D02*
X193026528Y-77458404D01*
X193408083Y-77102914D02*
X193052593Y-77458404D01*
X189855008Y-78229924D02*
X187782018Y-80302914D01*
X187782018Y-80302914D02*
X187052593Y-80302914D01*
X192255009Y-78229924D02*
X189855008Y-78229924D01*
X197078469Y-92404394D02*
X199506603Y-92404394D01*
X195438526Y-94044337D02*
X197078469Y-92404394D01*
X200810527Y-91258404D02*
X202264536Y-89804394D01*
X200652593Y-91258404D02*
X200810527Y-91258404D01*
X199506603Y-92404394D02*
X200652593Y-91258404D01*
X202264536Y-89804394D02*
X202306603Y-89804394D01*
X204576631Y-87458404D02*
X212652593Y-87458404D01*
X202306603Y-89728432D02*
X204576631Y-87458404D01*
X202306603Y-89804394D02*
X202306603Y-89728432D01*
%TO.N,Net-(D73-Pad2)*%
X192516311Y-28712622D02*
X194209246Y-28712622D01*
X196077495Y-26844373D02*
X198066624Y-26844373D01*
X194209246Y-28712622D02*
X196077495Y-26844373D01*
X198452593Y-26458404D02*
X198852593Y-26458404D01*
X198066624Y-26844373D02*
X198452593Y-26458404D01*
X198452593Y-26458404D02*
X198652593Y-26258404D01*
X198852593Y-26458404D02*
X199052593Y-26458404D01*
X200720725Y-28058404D02*
X201320725Y-28658404D01*
X200652593Y-28058404D02*
X200720725Y-28058404D01*
X199052593Y-26458404D02*
X200652593Y-28058404D01*
X204370529Y-28658404D02*
X205516311Y-27512622D01*
X201320725Y-28658404D02*
X204370529Y-28658404D01*
%TO.N,Net-(D74-Pad2)*%
X212025495Y-25017371D02*
X211784462Y-25258404D01*
X212411562Y-25017371D02*
X212025495Y-25017371D01*
X212811561Y-24617372D02*
X212411562Y-25017371D01*
X210184461Y-25258404D02*
X209466952Y-25975914D01*
X211784462Y-25258404D02*
X210184461Y-25258404D01*
X208636893Y-25975914D02*
X207754403Y-26858404D01*
X209466952Y-25975914D02*
X208636893Y-25975914D01*
X207252593Y-26858404D02*
X205252593Y-28858404D01*
X207754403Y-26858404D02*
X207252593Y-26858404D01*
%TO.N,Net-(D75-Pad2)*%
X220411561Y-43248904D02*
X219993961Y-43248904D01*
X219993961Y-43248904D02*
X218666952Y-44575914D01*
X216466951Y-44575914D02*
X215266952Y-45775914D01*
X218666952Y-44575914D02*
X216466951Y-44575914D01*
X213853019Y-45775914D02*
X212806811Y-46822122D01*
X215266952Y-45775914D02*
X213853019Y-45775914D01*
%TO.N,Net-(D76-Pad2)*%
X228211561Y-60448904D02*
X227793961Y-60448904D01*
X227793961Y-60448904D02*
X226666952Y-61575914D01*
X226666952Y-61575914D02*
X225266951Y-61575914D01*
X225266951Y-61575914D02*
X223666952Y-63175914D01*
X222253019Y-63175914D02*
X221816311Y-63612622D01*
X223666952Y-63175914D02*
X222253019Y-63175914D01*
%TO.N,Net-(D77-Pad2)*%
X236916311Y-77712622D02*
X238274337Y-77712622D01*
X240066952Y-76175914D02*
X242052593Y-74190272D01*
X239811045Y-76175914D02*
X240066952Y-76175914D01*
X238274337Y-77712622D02*
X239811045Y-76175914D01*
X242052593Y-74190272D02*
X242370103Y-73872763D01*
X242370103Y-73872763D02*
X242370103Y-72672762D01*
X245384461Y-69658404D02*
X246252593Y-69658404D01*
X242370103Y-72672762D02*
X245384461Y-69658404D01*
%TO.N,RESET*%
X164906593Y-130804404D02*
X167817972Y-127893025D01*
X157852593Y-130804404D02*
X164906593Y-130804404D01*
X167817972Y-127893025D02*
X170052593Y-125658404D01*
X157852593Y-81258404D02*
X153252593Y-81258404D01*
X166252593Y-87258404D02*
X166525592Y-87531403D01*
X162252593Y-87258404D02*
X166252593Y-87258404D01*
%TO.N,col0*%
X27052593Y-77658404D02*
X29052593Y-77658404D01*
X29052593Y-77658404D02*
X31652593Y-80258404D01*
X31652593Y-80258404D02*
X34052593Y-80258404D01*
X34052593Y-80258404D02*
X36652593Y-82858404D01*
X36652593Y-82858404D02*
X38652593Y-82858404D01*
X38652593Y-82858404D02*
X40252593Y-84458404D01*
X40252593Y-84458404D02*
X41452593Y-84458404D01*
X43652593Y-86658404D02*
X43652593Y-87858404D01*
X41452593Y-84458404D02*
X43652593Y-86658404D01*
X127252605Y-84858392D02*
X127252593Y-84858404D01*
X131852593Y-84858392D02*
X127252605Y-84858392D01*
X117338526Y-106344337D02*
X115484516Y-106344337D01*
X113464536Y-106112414D02*
X111264536Y-103912414D01*
X115252593Y-106112414D02*
X113464536Y-106112414D01*
X115484516Y-106344337D02*
X115252593Y-106112414D01*
X109264536Y-103912414D02*
X108998583Y-103646460D01*
X111264536Y-103912414D02*
X109264536Y-103912414D01*
X106864537Y-101512414D02*
X104106603Y-101512414D01*
X108998583Y-103646460D02*
X106864537Y-101512414D01*
X99303632Y-96985405D02*
X97052593Y-94734366D01*
X99579594Y-96985405D02*
X99303632Y-96985405D01*
X104106603Y-101512414D02*
X99579594Y-96985405D01*
X96906603Y-94512414D02*
X94664536Y-94512414D01*
X97052593Y-94658404D02*
X96906603Y-94512414D01*
X97052593Y-94734366D02*
X97052593Y-94658404D01*
X94664536Y-94512414D02*
X92464536Y-92312414D01*
X90154431Y-92312414D02*
X85176507Y-87334490D01*
X92464536Y-92312414D02*
X90154431Y-92312414D01*
X78107177Y-105230924D02*
X77652593Y-104776340D01*
X77652593Y-104390272D02*
X76535085Y-103272764D01*
X77652593Y-104776340D02*
X77652593Y-104390272D01*
X76535085Y-103272764D02*
X76535085Y-103072764D01*
X71838234Y-100775914D02*
X71452593Y-100390272D01*
X74238235Y-100775914D02*
X71838234Y-100775914D01*
X76535085Y-103072764D02*
X74238235Y-100775914D01*
X69038235Y-97975914D02*
X67038234Y-97975914D01*
X71452593Y-100390272D02*
X69038235Y-97975914D01*
X67038234Y-97975914D02*
X64520724Y-95458404D01*
X61928555Y-95458404D02*
X61728555Y-95658404D01*
X64520724Y-95458404D02*
X61928555Y-95458404D01*
X61728555Y-95658404D02*
X59728555Y-95658404D01*
X58001554Y-97385405D02*
X56979594Y-97385405D01*
X59728555Y-95658404D02*
X58001554Y-97385405D01*
X56979594Y-97385405D02*
X55252593Y-95658404D01*
X55252593Y-95658404D02*
X53452593Y-95658404D01*
X53452593Y-95658404D02*
X51452593Y-93658404D01*
X51452593Y-93658404D02*
X49252593Y-93658404D01*
X49252593Y-93658404D02*
X46852593Y-91258404D01*
X46852593Y-91058404D02*
X43652593Y-87858404D01*
X46852593Y-91258404D02*
X46852593Y-91058404D01*
%TO.N,col1*%
X46252593Y-80458404D02*
X48852593Y-80458404D01*
X48852593Y-80458404D02*
X50852593Y-82458404D01*
X50852593Y-82458404D02*
X53852593Y-82458404D01*
X53852593Y-82458404D02*
X55052593Y-83658404D01*
X55052593Y-83658404D02*
X55452593Y-83658404D01*
X55452593Y-83658404D02*
X57252593Y-85458404D01*
X57252593Y-85458404D02*
X59452593Y-85458404D01*
X59452593Y-85458404D02*
X60252593Y-86258404D01*
X64452593Y-86258404D02*
X64852593Y-86658404D01*
X60252593Y-86258404D02*
X64452593Y-86258404D01*
X131852593Y-85858395D02*
X129452602Y-85858395D01*
X129425410Y-85885587D02*
X129425410Y-85913721D01*
X129452602Y-85858395D02*
X129425410Y-85885587D01*
X119052593Y-122657183D02*
X117851372Y-122657183D01*
X117851372Y-122657183D02*
X117052593Y-121858404D01*
X117052593Y-121858404D02*
X112452593Y-121858404D01*
X112452593Y-121858404D02*
X110452593Y-119858404D01*
X110452593Y-119858404D02*
X109252593Y-119858404D01*
X109252593Y-119858404D02*
X105652593Y-116258404D01*
X103584461Y-116258404D02*
X99866952Y-112540894D01*
X105652593Y-116258404D02*
X103584461Y-116258404D01*
X99866952Y-112540894D02*
X97135083Y-112540894D01*
X93852593Y-109258404D02*
X91452593Y-109258404D01*
X97135083Y-112540894D02*
X93852593Y-109258404D01*
X91452593Y-109258404D02*
X89052593Y-106858404D01*
X89052593Y-106858404D02*
X86452593Y-106858404D01*
X86452593Y-106858404D02*
X84652593Y-105058404D01*
X84652593Y-105058404D02*
X82852593Y-105058404D01*
X82852593Y-105058404D02*
X81252593Y-103458404D01*
X81252593Y-103458404D02*
X78452593Y-100658404D01*
X78452593Y-99782442D02*
X77601554Y-98931403D01*
X78452593Y-100658404D02*
X78452593Y-99782442D01*
X77601554Y-98931403D02*
X72325592Y-98931403D01*
X70052593Y-96658404D02*
X69894660Y-96658404D01*
X69894660Y-96658404D02*
X69640650Y-96404394D01*
X72325592Y-98931403D02*
X70052593Y-96658404D01*
X67640649Y-96404394D02*
X64694659Y-93458404D01*
X69640650Y-96404394D02*
X67640649Y-96404394D01*
X62306594Y-93458404D02*
X62252593Y-93404403D01*
X64694659Y-93458404D02*
X62306594Y-93458404D01*
%TO.N,col2*%
X82252593Y-89458404D02*
X77852593Y-89458404D01*
X77852593Y-89458404D02*
X75452593Y-87058404D01*
X75452593Y-87058404D02*
X74452593Y-87058404D01*
X74452593Y-87058404D02*
X73652593Y-86258404D01*
X73652593Y-86258404D02*
X71852593Y-86258404D01*
X68811561Y-83217372D02*
X64611561Y-83217372D01*
X71852593Y-86258404D02*
X68811561Y-83217372D01*
X128643099Y-86858398D02*
X128643093Y-86858404D01*
X131852593Y-86858398D02*
X128643099Y-86858398D01*
X94894659Y-45858404D02*
X93094659Y-45858404D01*
X98494659Y-49458404D02*
X94894659Y-45858404D01*
X98928555Y-49458404D02*
X98494659Y-49458404D01*
X99379594Y-49909443D02*
X98928555Y-49458404D01*
X90694659Y-43458404D02*
X88252593Y-43458404D01*
X99379594Y-50943339D02*
X99379594Y-49909443D01*
X85956689Y-43058404D02*
X85742622Y-42844337D01*
X104040650Y-55004394D02*
X103440649Y-55004394D01*
X106040649Y-57004394D02*
X104040650Y-55004394D01*
X108240650Y-57004394D02*
X106040649Y-57004394D01*
X133052593Y-68458404D02*
X132252593Y-68458404D01*
X118798583Y-65404394D02*
X115252593Y-61858404D01*
X131652593Y-69058404D02*
X126052593Y-69058404D01*
X132252593Y-68458404D02*
X131652593Y-69058404D01*
X111640650Y-59204394D02*
X110440649Y-59204394D01*
X126052593Y-69058404D02*
X124252593Y-67258404D01*
X103440649Y-55004394D02*
X99379594Y-50943339D01*
X124252593Y-67258404D02*
X122294659Y-67258404D01*
X93094659Y-45858404D02*
X90694659Y-43458404D01*
X122294659Y-67258404D02*
X120440650Y-65404394D01*
X88252593Y-43458404D02*
X87852593Y-43058404D01*
X110440649Y-59204394D02*
X108240650Y-57004394D01*
X120440650Y-65404394D02*
X118798583Y-65404394D01*
X115252593Y-61858404D02*
X114294659Y-61858404D01*
X87852593Y-43058404D02*
X85956689Y-43058404D01*
X114294659Y-61858404D02*
X111640650Y-59204394D01*
%TO.N,col3*%
X74266660Y-110072471D02*
X76066660Y-110072471D01*
X76066660Y-110072471D02*
X77052593Y-111058404D01*
X77052593Y-111058404D02*
X77852593Y-111058404D01*
X77852593Y-111058404D02*
X79252593Y-112458404D01*
X79252593Y-112458404D02*
X82452593Y-112458404D01*
X82452593Y-112458404D02*
X84852593Y-114858404D01*
X84852593Y-114858404D02*
X87652593Y-114858404D01*
X92852593Y-120058404D02*
X93652593Y-120058404D01*
X87652593Y-114858404D02*
X92852593Y-120058404D01*
X131852593Y-87858401D02*
X122294656Y-87858401D01*
X122294656Y-87858401D02*
X121840650Y-87404394D01*
X120440649Y-87404394D02*
X119123140Y-86086885D01*
X121840650Y-87404394D02*
X120440649Y-87404394D01*
X119123140Y-86086885D02*
X117281074Y-86086885D01*
X115626527Y-84658404D02*
X114864509Y-83896384D01*
X115852593Y-84658404D02*
X115626527Y-84658404D01*
X117281074Y-86086885D02*
X115852593Y-84658404D01*
X114864509Y-83896384D02*
X113132640Y-83896384D01*
X112894660Y-83658404D02*
X112494659Y-83658404D01*
X113132640Y-83896384D02*
X112894660Y-83658404D01*
X112494659Y-83658404D02*
X110840650Y-82004394D01*
X110240649Y-82004394D02*
X106250150Y-78013895D01*
X110840650Y-82004394D02*
X110240649Y-82004394D01*
X105401554Y-77740903D02*
X104770094Y-77740903D01*
X105674546Y-78013895D02*
X105401554Y-77740903D01*
X106250150Y-78013895D02*
X105674546Y-78013895D01*
X104687595Y-77658404D02*
X104494659Y-77658404D01*
X104770094Y-77740903D02*
X104687595Y-77658404D01*
X104494659Y-77658404D02*
X103240650Y-76404394D01*
X101772517Y-76404394D02*
X99452593Y-74084470D01*
X103240650Y-76404394D02*
X101772517Y-76404394D01*
X99200461Y-74058404D02*
X97894659Y-74058404D01*
X99226527Y-74084470D02*
X99200461Y-74058404D01*
X99452593Y-74084470D02*
X99226527Y-74084470D01*
X97894659Y-74058404D02*
X96094659Y-72258404D01*
X94480727Y-72258404D02*
X93066660Y-70844337D01*
X96094659Y-72258404D02*
X94480727Y-72258404D01*
%TO.N,col4*%
X119252593Y-100058404D02*
X116652593Y-100058404D01*
X116652593Y-100058404D02*
X114452593Y-97858404D01*
X114452593Y-97858404D02*
X111252593Y-97858404D01*
X111252593Y-97858404D02*
X107252593Y-93858404D01*
X107252593Y-93858404D02*
X106985612Y-93858404D01*
X106252593Y-93858404D02*
X104452593Y-92058404D01*
X106985612Y-93858404D02*
X106252593Y-93858404D01*
X128572183Y-88858404D02*
X128542286Y-88828507D01*
X131852593Y-88858404D02*
X128572183Y-88858404D01*
X120052593Y-100858404D02*
X119252593Y-100058404D01*
X123643093Y-100858404D02*
X120052593Y-100858404D01*
%TO.N,col5*%
X183452593Y-134858404D02*
X183452593Y-135858404D01*
X183452593Y-135858404D02*
X176652593Y-142658404D01*
X176652593Y-142658404D02*
X174452593Y-142658404D01*
X172052593Y-145058404D02*
X170252593Y-145058404D01*
X174452593Y-142658404D02*
X172052593Y-145058404D01*
X160481242Y-75229755D02*
X160652593Y-75058404D01*
X152151443Y-75229755D02*
X160481242Y-75229755D01*
%TO.N,col6*%
X191452593Y-100458404D02*
X190852593Y-101058404D01*
X190852593Y-101058404D02*
X190452593Y-101058404D01*
X190452593Y-101058404D02*
X188652593Y-102858404D01*
X188652593Y-102858404D02*
X186452593Y-102858404D01*
X186452593Y-102858404D02*
X183452593Y-105858404D01*
X183452593Y-105858404D02*
X179452593Y-105858404D01*
X179452593Y-105858404D02*
X178166660Y-107144337D01*
X153794273Y-74043724D02*
X153852593Y-73985404D01*
X151906593Y-74043724D02*
X153794273Y-74043724D01*
X154222737Y-54815868D02*
X155180201Y-53858404D01*
X155180201Y-53858404D02*
X156852593Y-53858404D01*
X156852593Y-53858404D02*
X158252593Y-52458404D01*
X158252593Y-52458404D02*
X159184461Y-52458404D01*
X159184461Y-52458404D02*
X160784461Y-50858404D01*
X160784461Y-50858404D02*
X162852593Y-50858404D01*
X162852593Y-50858404D02*
X163852593Y-49858404D01*
X163866624Y-49844373D02*
X165266624Y-49844373D01*
X163852593Y-49858404D02*
X163866624Y-49844373D01*
X165266624Y-49844373D02*
X167452593Y-47658404D01*
X167452593Y-46258404D02*
X168652593Y-45058404D01*
X167452593Y-47658404D02*
X167452593Y-46258404D01*
%TO.N,col7*%
X202852593Y-119858404D02*
X204852593Y-119858404D01*
X204852593Y-119858404D02*
X206452593Y-118258404D01*
X206452593Y-118258404D02*
X211852593Y-118258404D01*
X211852593Y-118258404D02*
X214652593Y-115458404D01*
X216652593Y-115458404D02*
X218252593Y-113858404D01*
X214652593Y-115458404D02*
X216652593Y-115458404D01*
X198198583Y-68084280D02*
X199238526Y-67044337D01*
X198198583Y-71036452D02*
X198198583Y-68084280D01*
X196558987Y-72676048D02*
X198198583Y-71036452D01*
X177306603Y-84204394D02*
X178506603Y-84204394D01*
X175652593Y-85858404D02*
X177306603Y-84204394D01*
X186473626Y-77437371D02*
X186473626Y-77401406D01*
X178506603Y-84204394D02*
X179706603Y-83004394D01*
X166325592Y-88731403D02*
X166452593Y-88858404D01*
X192452593Y-74458404D02*
X192456985Y-74458404D01*
X167210526Y-88858404D02*
X168010526Y-88058404D01*
X186473626Y-77401406D02*
X188188148Y-75686884D01*
X166452593Y-88858404D02*
X167210526Y-88858404D01*
X164579594Y-88731403D02*
X166325592Y-88731403D01*
X179706603Y-83004394D02*
X180506603Y-83004394D01*
X171852593Y-85858404D02*
X175652593Y-85858404D01*
X180506603Y-83004394D02*
X181866624Y-81644373D01*
X168010526Y-88058404D02*
X169652593Y-88058404D01*
X160852593Y-92458404D02*
X164579594Y-88731403D01*
X169652593Y-88058404D02*
X171852593Y-85858404D01*
X181866624Y-81644373D02*
X181866624Y-81450475D01*
X153325593Y-92458404D02*
X160852593Y-92458404D01*
X181866624Y-81450475D02*
X182244664Y-81072435D01*
X192609515Y-74305874D02*
X194031188Y-74305874D01*
X182244664Y-81072435D02*
X182244664Y-81066333D01*
X182244664Y-81066333D02*
X185873626Y-77437371D01*
X185873626Y-77437371D02*
X186473626Y-77437371D01*
X188188148Y-75686884D02*
X191224113Y-75686884D01*
X191224113Y-75686884D02*
X192452593Y-74458404D01*
X192456985Y-74458404D02*
X192609515Y-74305874D01*
X194031188Y-74305874D02*
X195661013Y-72676048D01*
X195661013Y-72676048D02*
X196558987Y-72676048D01*
%TO.N,col8*%
X227652593Y-88458404D02*
X225452593Y-88458404D01*
X225452593Y-88458404D02*
X222852593Y-91058404D01*
X222852593Y-91058404D02*
X220452593Y-91058404D01*
X220452593Y-91058404D02*
X219452593Y-92058404D01*
X219452593Y-92058404D02*
X216052593Y-92058404D01*
X216052593Y-92058404D02*
X215652593Y-92458404D01*
X215652593Y-92458404D02*
X214852593Y-92458404D01*
X214452593Y-92858404D02*
X211452593Y-92858404D01*
X214852593Y-92458404D02*
X214452593Y-92858404D01*
X183579593Y-103931404D02*
X183652593Y-103858404D01*
X157252593Y-103931404D02*
X183579593Y-103931404D01*
X183682490Y-106548097D02*
X186918173Y-103312414D01*
X188840650Y-103312414D02*
X190640650Y-101512414D01*
X186918173Y-103312414D02*
X188840650Y-103312414D01*
X191474545Y-101512414D02*
X192452593Y-100534366D01*
X190640650Y-101512414D02*
X191474545Y-101512414D01*
X192452593Y-100534366D02*
X192452593Y-99058404D01*
X198198583Y-93312414D02*
X200040650Y-93312414D01*
X192452593Y-99058404D02*
X198198583Y-93312414D01*
X200494660Y-92858404D02*
X211452593Y-92858404D01*
X200040650Y-93312414D02*
X200494660Y-92858404D01*
%TO.N,col9*%
X231052593Y-90258404D02*
X233052593Y-90258404D01*
X233052593Y-90258404D02*
X234652593Y-88658404D01*
X234652593Y-88658404D02*
X240052593Y-88658404D01*
X240052593Y-88658404D02*
X243252593Y-85458404D01*
X244452593Y-85458404D02*
X248052593Y-81858404D01*
X243252593Y-85458404D02*
X244452593Y-85458404D01*
X156525593Y-103058404D02*
X157652593Y-103058404D01*
X157652593Y-103058404D02*
X158052593Y-103458404D01*
X182504164Y-103458404D02*
X182758164Y-103204404D01*
X158052593Y-103458404D02*
X182504164Y-103458404D01*
X182852593Y-118867904D02*
X183843093Y-118867904D01*
X183843093Y-118867904D02*
X183852593Y-118858404D01*
X184120725Y-118858404D02*
X186720725Y-116258404D01*
X183852593Y-118858404D02*
X184120725Y-118858404D01*
X186720725Y-116258404D02*
X187652593Y-116258404D01*
X187652593Y-116258404D02*
X189452593Y-114458404D01*
X190176631Y-114458404D02*
X191576631Y-113058404D01*
X189452593Y-114458404D02*
X190176631Y-114458404D01*
X193120725Y-113058404D02*
X194920725Y-111258404D01*
X191576631Y-113058404D02*
X193120725Y-113058404D01*
X194920725Y-111258404D02*
X196252593Y-111258404D01*
X196252593Y-111258404D02*
X198452593Y-109058404D01*
X198452593Y-109058404D02*
X200452593Y-109058404D01*
X200452593Y-109058404D02*
X201652593Y-107858404D01*
X201652593Y-107858404D02*
X202852593Y-107858404D01*
X202852593Y-107858404D02*
X204252593Y-106458404D01*
X204252593Y-106458404D02*
X205452593Y-106458404D01*
X205452593Y-106458404D02*
X206652593Y-105258404D01*
X206652593Y-105258404D02*
X208652593Y-105258404D01*
X208652593Y-105258404D02*
X209852593Y-104058404D01*
X209852593Y-104058404D02*
X211976631Y-104058404D01*
X211976631Y-104058404D02*
X213376631Y-102658404D01*
X213376631Y-102658404D02*
X215179593Y-102658404D01*
X215252593Y-100785404D02*
X216779603Y-100785404D01*
X216779603Y-100785404D02*
X218452593Y-99112414D01*
X220240650Y-99112414D02*
X222240650Y-97112414D01*
X218452593Y-99112414D02*
X220240650Y-99112414D01*
X222240650Y-97112414D02*
X224840650Y-97112414D01*
X224840650Y-97112414D02*
X224840650Y-97112413D01*
X228440650Y-95112414D02*
X228706603Y-94846460D01*
X226840649Y-95112414D02*
X228440650Y-95112414D01*
X224840650Y-97112413D02*
X226840649Y-95112414D01*
X229094659Y-94458404D02*
X233452593Y-94458404D01*
X228706603Y-94846460D02*
X229094659Y-94458404D01*
%TO.N,sda*%
X136452593Y-152258404D02*
X135852593Y-152858404D01*
X142252593Y-152258404D02*
X136452593Y-152258404D01*
X133852593Y-154258404D02*
X130252593Y-154258404D01*
X130252593Y-154258404D02*
X130052593Y-154258404D01*
X137652593Y-131985404D02*
X144252593Y-131985404D01*
X158038526Y-106472471D02*
X158052593Y-106458404D01*
X146466660Y-106472471D02*
X158038526Y-106472471D01*
%TO.N,scl*%
X144852593Y-138458404D02*
X132028593Y-138458404D01*
X138252593Y-132858404D02*
X145252593Y-132858404D01*
X146452593Y-107658404D02*
X158852593Y-107658404D01*
%TO.N,Net-(D82-Pad2)*%
X161752593Y-115558404D02*
X161652593Y-115658404D01*
X164852593Y-115558404D02*
X161752593Y-115558404D01*
X161452593Y-121458404D02*
X152452593Y-121458404D01*
X167552593Y-115558404D02*
X167652593Y-115658404D01*
X164852593Y-115558404D02*
X167552593Y-115558404D01*
%TO.N,ENC1B*%
X141252593Y-115658404D02*
X141352593Y-115558404D01*
X133052593Y-115658404D02*
X141252593Y-115658404D01*
%TO.N,ENC1A*%
X141252593Y-120658404D02*
X141352593Y-120558404D01*
X130652593Y-120658404D02*
X141252593Y-120658404D01*
%TO.N,col10*%
X151402593Y-126058404D02*
X150902593Y-125558404D01*
X165652593Y-126058404D02*
X151402593Y-126058404D01*
X126052593Y-105458404D02*
X140652593Y-105458404D01*
X166652593Y-105458404D02*
X140652593Y-105458404D01*
%TO.N,ENC2B*%
X150452593Y-120458404D02*
X150352593Y-120558404D01*
X156352593Y-120558404D02*
X156452593Y-120658404D01*
X150352593Y-120558404D02*
X156352593Y-120558404D01*
%TO.N,ENC2A*%
X150452593Y-115658404D02*
X150352593Y-115558404D01*
X153752593Y-115558404D02*
X153852593Y-115658404D01*
X150352593Y-115558404D02*
X153752593Y-115558404D01*
X146262093Y-97248904D02*
X146252593Y-97258404D01*
X150252593Y-97248904D02*
X146262093Y-97248904D01*
%TD*%
M02*
