M48
; DRILL file {KiCad (5.1.10)-1} date 07/25/21 08:52:13
; FORMAT={-:-/ absolute / inch / decimal}
; #@! TF.CreationDate,2021-07-25T08:52:13-07:00
; #@! TF.GenerationSoftware,Kicad,Pcbnew,(5.1.10)-1
; #@! TF.FileFunction,NonPlated,1,2,NPTH
FMAT,2
INCH
T1C0.0256
T2C0.0390
T3C0.0630
T4C0.0670
T5C0.1181
T6C0.1350
%
G90
G05
T1
X5.6284Y-2.2897
X5.856Y-2.2897
T2
X1.7981Y-2.7593
X2.1143Y-2.0813
X2.3679Y-3.3073
X2.4304Y-1.4034
X2.6841Y-2.6294
X3.0002Y-1.9514
X3.1291Y-3.445
X3.3163Y-1.2735
X3.4452Y-2.7671
X3.4742Y-4.4748
X3.7613Y-2.0891
X4.0399Y-3.2616
X4.0775Y-1.4112
X4.1973Y-4.9336
X4.3561Y-2.5837
X4.6722Y-1.9057
X4.6763Y-3.667
X4.8297Y-5.511
X4.9924Y-2.989
X5.3086Y-2.3111
X6.5482Y-2.1374
X6.8643Y-2.8153
X6.9452Y-5.2204
X7.1805Y-3.4933
X7.1846Y-1.732
X7.5007Y-2.41
X7.6236Y-4.6979
X7.7793Y-1.2375
X7.8168Y-3.0879
X8.0954Y-1.9154
X8.3825Y-4.3011
X8.4116Y-2.5934
X8.5404Y-1.0998
X8.7277Y-3.2713
X8.8566Y-1.7777
X9.1727Y-2.4557
X9.4264Y-1.2297
X9.4888Y-3.1336
X9.7425Y-1.9076
X10.0586Y-2.5855
T3
X5.53Y-4.8783
X6.4592Y-4.8783
T4
X1.3457Y-2.7307
X1.6619Y-2.0528
X1.7382Y-2.9138
X1.9155Y-3.2788
X1.978Y-1.3749
X2.0544Y-2.2358
X2.2317Y-2.6009
X2.308Y-3.4618
X2.3705Y-1.5579
X2.5478Y-1.9229
X2.6242Y-2.7839
X2.6767Y-3.4165
X2.8639Y-1.245
X2.9403Y-2.1059
X2.9928Y-2.7386
X3.0219Y-4.4463
X3.0692Y-3.5996
X3.2564Y-1.428
X3.3089Y-2.0606
X3.3853Y-2.9216
X3.4143Y-4.6293
X3.5876Y-3.2331
X3.6251Y-1.3827
X3.7014Y-2.2437
X3.7567Y-4.827
X3.9037Y-2.5552
X3.9801Y-3.4161
X4.0176Y-1.5657
X4.1115Y-5.0754
X4.2198Y-1.8772
X4.2239Y-3.6385
X4.2962Y-2.7382
X4.4143Y-5.3295
X4.54Y-2.9605
X4.6123Y-2.0603
X4.6164Y-3.8215
X4.7206Y-5.6357
X4.8562Y-2.2826
X4.9325Y-3.1435
X5.2487Y-2.4656
X6.2356Y-2.4656
X6.5517Y-3.1435
X6.6281Y-2.2826
X6.7637Y-5.6357
X6.8678Y-3.8215
X6.8719Y-2.0603
X6.9442Y-2.9605
X7.0699Y-5.3295
X7.1881Y-2.7382
X7.2603Y-3.6385
X7.2644Y-1.8772
X7.3728Y-5.0754
X7.4667Y-1.5657
X7.5042Y-3.4161
X7.5806Y-2.5552
X7.7275Y-4.827
X7.7828Y-2.2437
X7.8592Y-1.3827
X7.8967Y-3.2331
X8.0699Y-4.6293
X8.0989Y-2.9216
X8.1753Y-2.0606
X8.2278Y-1.428
X8.4151Y-3.5996
X8.4624Y-4.4463
X8.4914Y-2.7386
X8.544Y-2.1059
X8.6203Y-1.245
X8.8076Y-3.4165
X8.8601Y-2.7839
X8.9365Y-1.9229
X9.1138Y-1.5579
X9.1762Y-3.4618
X9.2526Y-2.6009
X9.4299Y-2.2358
X9.5062Y-1.3749
X9.5687Y-3.2788
X9.746Y-2.9138
X9.8224Y-2.0528
X10.1385Y-2.7307
T5
X1.3012Y-2.8729
X1.443Y-3.0346
X1.6173Y-2.1949
X1.7591Y-2.3566
X1.871Y-3.4209
X1.9335Y-1.517
X2.0128Y-3.5826
X2.0753Y-1.6787
X2.1871Y-2.743
X2.3289Y-2.9047
X2.5032Y-2.065
X2.6321Y-3.5587
X2.6451Y-2.2267
X2.7739Y-3.7203
X2.8194Y-1.3871
X2.9483Y-2.8807
X2.9612Y-1.5488
X2.9773Y-4.5884
X3.0901Y-3.0424
X3.1191Y-4.7501
X3.2644Y-2.2028
X3.4062Y-2.3645
X3.543Y-3.3753
X3.5805Y-1.5248
X3.6848Y-3.5369
X3.6882Y-4.9592
X3.7223Y-1.6865
X3.7997Y-5.1431
X3.8591Y-2.6973
X4.0009Y-2.859
X4.1753Y-2.0194
X4.1794Y-3.7806
X4.3171Y-2.181
X4.3212Y-3.9423
X4.3239Y-5.4478
X4.4018Y-5.6483
X4.4955Y-3.1026
X4.6373Y-3.2643
X4.8116Y-2.4247
X4.9534Y-2.5864
X6.3158Y-2.5911
X6.5308Y-2.5864
X6.6319Y-3.269
X6.847Y-3.2643
X6.882Y-5.7262
X6.9481Y-3.947
X6.9522Y-2.1857
X7.0824Y-5.6483
X7.1631Y-3.9423
X7.1672Y-2.181
X7.2683Y-2.8637
X7.4736Y-5.185
X7.4833Y-2.859
X7.5469Y-1.6912
X7.5844Y-3.5416
X7.6845Y-5.1431
X7.7619Y-1.6865
X7.7994Y-3.5369
X7.8631Y-2.3691
X8.0781Y-2.3645
X8.1501Y-4.7548
X8.1792Y-3.0471
X8.3081Y-1.5535
X8.3651Y-4.7501
X8.3942Y-3.0424
X8.4953Y-3.725
X8.5231Y-1.5488
X8.6242Y-2.2314
X8.7103Y-3.7203
X8.8392Y-2.2267
X8.9403Y-2.9094
X9.1553Y-2.9047
X9.194Y-1.6834
X9.2565Y-3.5873
X9.409Y-1.6787
X9.4715Y-3.5826
X9.5101Y-2.3613
X9.7251Y-2.3566
X9.8262Y-3.0393
X10.0413Y-3.0346
T6
X1.542Y-2.8223
X1.8581Y-2.1443
X2.1118Y-3.3703
X2.1743Y-1.4664
X2.4279Y-2.6924
X2.744Y-2.0144
X2.8729Y-3.508
X3.0602Y-1.3365
X3.1891Y-2.8301
X3.2181Y-4.5378
X3.5052Y-2.1522
X3.7838Y-3.3246
X3.8213Y-1.4742
X3.9341Y-4.9512
X4.0999Y-2.6467
X4.4161Y-1.9687
X4.4202Y-3.73
X4.5675Y-5.4826
X4.7363Y-3.052
X5.0524Y-2.3741
X6.4318Y-2.3741
X6.748Y-3.052
X6.9168Y-5.4826
X7.0641Y-3.73
X7.0682Y-1.9687
X7.3843Y-2.6467
X7.5501Y-4.9512
X7.6629Y-1.4742
X7.7004Y-3.3246
X7.9791Y-2.1522
X8.2662Y-4.5378
X8.2952Y-2.8301
X8.4241Y-1.3365
X8.6113Y-3.508
X8.7402Y-2.0144
X9.0563Y-2.6924
X9.31Y-1.4664
X9.3725Y-3.3703
X9.6261Y-2.1443
X9.9423Y-2.8223
T0
M30
