M48
; DRILL file {KiCad (5.1.9)-1} date 07/16/21 02:30:10
; FORMAT={-:-/ absolute / inch / decimal}
; #@! TF.CreationDate,2021-07-16T02:30:10-07:00
; #@! TF.GenerationSoftware,Kicad,Pcbnew,(5.1.9)-1
; #@! TF.FileFunction,NonPlated,1,2,NPTH
FMAT,2
INCH
T1C0.0256
T2C0.0670
T3C0.1181
T4C0.1570
%
G90
G05
T1
X5.6284Y-2.2897
X5.856Y-2.2897
T2
X1.3607Y-2.7377
X1.6769Y-2.0598
X1.7233Y-2.9068
X1.9305Y-3.2858
X1.993Y-1.3818
X2.0394Y-2.2288
X2.2467Y-2.6079
X2.293Y-3.4548
X2.3555Y-1.5509
X2.5628Y-1.9299
X2.6092Y-2.7769
X2.6917Y-3.4235
X2.8789Y-1.252
X2.9253Y-2.099
X3.0078Y-2.7456
X3.0368Y-4.4533
X3.0542Y-3.5926
X3.2414Y-1.421
X3.3239Y-2.0676
X3.3703Y-2.9146
X3.3994Y-4.6223
X3.6025Y-3.2401
X3.6401Y-1.3897
X3.6865Y-2.2367
X3.7703Y-4.8365
X3.9187Y-2.5622
X3.9651Y-3.4092
X4.0026Y-1.5587
X4.0979Y-5.0659
X4.2348Y-1.8842
X4.2389Y-3.6454
X4.2812Y-2.7312
X4.426Y-5.3412
X4.555Y-2.9675
X4.5973Y-2.0533
X4.6014Y-3.8145
X4.7089Y-5.6241
X4.8712Y-2.2896
X4.9176Y-3.1365
X5.2337Y-2.4586
X6.2506Y-2.4586
X6.5667Y-3.1365
X6.6131Y-2.2896
X6.7754Y-5.6241
X6.8828Y-3.8145
X6.8869Y-2.0533
X6.9292Y-2.9675
X7.0582Y-5.3412
X7.203Y-2.7312
X7.2454Y-3.6454
X7.2494Y-1.8842
X7.3863Y-5.0659
X7.4817Y-1.5587
X7.5192Y-3.4092
X7.5656Y-2.5622
X7.714Y-4.8365
X7.7978Y-2.2367
X7.8442Y-1.3897
X7.8817Y-3.2401
X8.0849Y-4.6223
X8.1139Y-2.9146
X8.1603Y-2.0676
X8.2428Y-1.421
X8.4301Y-3.5926
X8.4474Y-4.4533
X8.4765Y-2.7456
X8.5589Y-2.099
X8.6053Y-1.252
X8.7926Y-3.4235
X8.8751Y-2.7769
X8.9215Y-1.9299
X9.1287Y-1.5509
X9.1912Y-3.4548
X9.2376Y-2.6079
X9.4449Y-2.2288
X9.4913Y-1.3818
X9.5537Y-3.2858
X9.761Y-2.9068
X9.8074Y-2.0598
X10.1235Y-2.7377
T3
X1.4483Y-2.6682
X1.7171Y-2.6833
X1.7644Y-1.9903
X2.0181Y-3.2163
X2.0333Y-2.0053
X2.0806Y-1.3123
X2.2869Y-3.2313
X2.3342Y-2.5384
X2.3494Y-1.3274
X2.6031Y-2.5534
X2.6504Y-1.8604
X2.7792Y-3.354
X2.9192Y-1.8754
X2.9665Y-1.1825
X3.0481Y-3.369
X3.0954Y-2.6761
X3.1244Y-4.3838
X3.2353Y-1.1975
X3.3642Y-2.6911
X3.3933Y-4.3988
X3.4115Y-1.9981
X3.6803Y-2.0132
X3.6901Y-3.1706
X3.7276Y-1.3202
X3.8686Y-4.7832
X3.959Y-3.1856
X3.9965Y-1.3352
X4.0063Y-2.4927
X4.1307Y-4.8447
X4.2751Y-2.5077
X4.3224Y-1.8147
X4.3265Y-3.5759
X4.5321Y-5.3059
X4.5912Y-1.8297
X4.5953Y-3.591
X4.6426Y-2.898
X4.7796Y-5.4119
X4.9114Y-2.913
X4.9587Y-2.2201
X5.2276Y-2.2351
X6.2536Y-2.3468
X6.4379Y-2.1506
X6.5698Y-3.0248
X6.74Y-5.518
X6.7541Y-2.8285
X6.8461Y-5.2705
X6.8859Y-3.7027
X6.89Y-1.9415
X7.0702Y-3.5064
X7.0743Y-1.7452
X7.2061Y-2.6195
X7.3699Y-4.9553
X7.3904Y-2.4232
X7.4847Y-1.447
X7.5173Y-4.73
X7.5222Y-3.2974
X7.669Y-1.2507
X7.7065Y-3.1011
X7.8009Y-2.1249
X7.9852Y-1.9286
X8.0879Y-4.5106
X8.117Y-2.8029
X8.2459Y-1.3092
X8.2723Y-4.3143
X8.3013Y-2.6066
X8.4302Y-1.113
X8.4331Y-3.4808
X8.562Y-1.9872
X8.6174Y-3.2845
X8.7463Y-1.7909
X8.8781Y-2.6651
X9.0624Y-2.4689
X9.1318Y-1.4391
X9.1943Y-3.3431
X9.3161Y-1.2428
X9.3786Y-3.1468
X9.4479Y-2.1171
X9.6322Y-1.9208
X9.7641Y-2.795
X9.9484Y-2.5987
T4
X1.542Y-2.8223
X1.8581Y-2.1443
X2.1118Y-3.3703
X2.1743Y-1.4664
X2.4279Y-2.6924
X2.744Y-2.0144
X2.8729Y-3.508
X3.0602Y-1.3365
X3.1891Y-2.8301
X3.2181Y-4.5378
X3.5052Y-2.1522
X3.7838Y-3.3246
X3.8213Y-1.4742
X3.9341Y-4.9512
X4.0999Y-2.6467
X4.4161Y-1.9687
X4.4202Y-3.73
X4.5675Y-5.4826
X4.7363Y-3.052
X5.0524Y-2.3741
X6.4318Y-2.3741
X6.748Y-3.052
X6.9168Y-5.4826
X7.0641Y-3.73
X7.0682Y-1.9687
X7.3843Y-2.6467
X7.5501Y-4.9512
X7.6629Y-1.4742
X7.7004Y-3.3246
X7.9791Y-2.1522
X8.2662Y-4.5378
X8.2952Y-2.8301
X8.4241Y-1.3365
X8.6113Y-3.508
X8.7402Y-2.0144
X9.0563Y-2.6924
X9.31Y-1.4664
X9.3725Y-3.3703
X9.6261Y-2.1443
X9.9423Y-2.8223
T0
M30
