%TF.GenerationSoftware,KiCad,Pcbnew,(5.1.9)-1*%
%TF.CreationDate,2021-07-18T01:14:03-07:00*%
%TF.ProjectId,barobord,6261726f-626f-4726-942e-6b696361645f,rev?*%
%TF.SameCoordinates,Original*%
%TF.FileFunction,Legend,Bot*%
%TF.FilePolarity,Positive*%
%FSLAX46Y46*%
G04 Gerber Fmt 4.6, Leading zero omitted, Abs format (unit mm)*
G04 Created by KiCad (PCBNEW (5.1.9)-1) date 2021-07-18 01:14:03*
%MOMM*%
%LPD*%
G01*
G04 APERTURE LIST*
%ADD10C,0.320000*%
%ADD11C,0.120000*%
%ADD12C,0.100000*%
%ADD13C,0.150000*%
G04 APERTURE END LIST*
D10*
X140457333Y-138750424D02*
X140248412Y-138736964D01*
X140540013Y-138754604D02*
X140488793Y-138754604D01*
X140693833Y-138777745D02*
X140540013Y-138754604D01*
X140488793Y-138754604D02*
X140457333Y-138750424D01*
X140248412Y-138736964D02*
X139989113Y-138731164D01*
X140934153Y-138848304D02*
X140891173Y-138832625D01*
X139738572Y-136199144D02*
X139858453Y-136199144D01*
X141999393Y-133251004D02*
X141678573Y-132753004D01*
X141964393Y-139704064D02*
X141795693Y-139472564D01*
X141017393Y-138879764D02*
X140934153Y-138848304D01*
X141256372Y-139003444D02*
X141017393Y-138879764D01*
X144263233Y-132260404D02*
X144317773Y-132381404D01*
X141543532Y-139211584D02*
X141256372Y-139003444D01*
X141795693Y-139472564D02*
X141543532Y-139211584D01*
X142012593Y-139786184D02*
X141964393Y-139704064D01*
X142434573Y-141029724D02*
X142329033Y-140471644D01*
X140582213Y-132354404D02*
X140395093Y-132354404D01*
X142434573Y-141216064D02*
X142434573Y-141029724D01*
X142106573Y-134082484D02*
X142106573Y-133948564D01*
X144177233Y-138758204D02*
X144286653Y-138918564D01*
X140395093Y-132354404D02*
X136761213Y-132354404D01*
X141143612Y-132454004D02*
X140582213Y-132354404D01*
X141605273Y-135399044D02*
X141883613Y-134968304D01*
X142387733Y-137371364D02*
X142594673Y-137468864D01*
X140582492Y-136128864D02*
X140633233Y-136113204D01*
X144317773Y-132381404D02*
X144509333Y-133016404D01*
X141321352Y-135693404D02*
X141605273Y-135399044D01*
X140218913Y-136181504D02*
X140531493Y-136140444D01*
X141160693Y-135820184D02*
X141215513Y-135777224D01*
X143349053Y-131018004D02*
X143446633Y-131104004D01*
X144591453Y-133831164D02*
X144591453Y-134099624D01*
X144796493Y-139961724D02*
X144966533Y-140867104D01*
X142709893Y-130537404D02*
X143251193Y-130928204D01*
X141832873Y-130123204D02*
X141965733Y-130174204D01*
X141215513Y-135777224D02*
X141321352Y-135693404D01*
X144286653Y-138918564D02*
X144399913Y-139078724D01*
X144453673Y-134905164D02*
X144040493Y-135853284D01*
X140893073Y-135993824D02*
X141160693Y-135820184D01*
X140633233Y-136113204D02*
X140893073Y-135993824D01*
X142106573Y-133948564D02*
X142106573Y-133774084D01*
X144208353Y-132139204D02*
X144263233Y-132260404D01*
X142644053Y-137223884D02*
X142387733Y-137371364D01*
X142594673Y-137468864D02*
X143483813Y-138050945D01*
X143251193Y-130928204D02*
X143349053Y-131018004D01*
X144591453Y-133627464D02*
X144591453Y-133831164D01*
X142098593Y-130224804D02*
X142709893Y-130537404D01*
X139858453Y-136199144D02*
X140218913Y-136181504D01*
X136761213Y-132354404D02*
X136761213Y-136199144D01*
X144966533Y-140867104D02*
X144966533Y-141169224D01*
X144399913Y-139078724D02*
X144796493Y-139961724D01*
X144591453Y-134099624D02*
X144453673Y-134905164D01*
X143483813Y-138050945D02*
X144177233Y-138758204D01*
X141133393Y-129945404D02*
X141832873Y-130123204D01*
X142050613Y-134484644D02*
X142106573Y-134082484D01*
X140456553Y-129869204D02*
X141133393Y-129945404D01*
X140531493Y-136140444D02*
X140582492Y-136128864D01*
X144040493Y-135853284D02*
X143351793Y-136675104D01*
X142329033Y-140471644D02*
X142082853Y-139895344D01*
X142082853Y-139895344D02*
X142012593Y-139786184D01*
X143446633Y-131104004D02*
X143870453Y-131586204D01*
X143870453Y-131586204D02*
X144208353Y-132139204D01*
X136761213Y-136199144D02*
X139738572Y-136199144D01*
X141678573Y-132753004D02*
X141143612Y-132454004D01*
X143351793Y-136675104D02*
X142644053Y-137223884D01*
X141965733Y-130174204D02*
X142098593Y-130224804D01*
X144509333Y-133016404D02*
X144591453Y-133627464D01*
X142106573Y-133774084D02*
X141999393Y-133251004D01*
X140891173Y-138832625D02*
X140693833Y-138777745D01*
X141883613Y-134968304D02*
X142050613Y-134484644D01*
X141379853Y-145482984D02*
X141278093Y-145498444D01*
X141959953Y-145353724D02*
X141485113Y-145463444D01*
X126120793Y-123732004D02*
X126160756Y-123431404D01*
X142364313Y-145228924D02*
X141959953Y-145353724D01*
X144747733Y-142540604D02*
X144298233Y-143517664D01*
X165808393Y-123732004D02*
X165808393Y-123832404D01*
X161839593Y-149629244D02*
X130089553Y-149629244D01*
X126993919Y-122185804D02*
X127331265Y-122003404D01*
X126700671Y-122427804D02*
X126993919Y-122185804D01*
X164224593Y-153557766D02*
X163923993Y-153598004D01*
X165652593Y-152387256D02*
X165470193Y-152724604D01*
X143876233Y-144117384D02*
X143520713Y-144498244D01*
X144298233Y-143517664D02*
X144239813Y-143607484D01*
X165767993Y-123431404D02*
X165808393Y-123732004D01*
X144966533Y-141169224D02*
X144966533Y-141485584D01*
X127704159Y-153557766D02*
X127331265Y-153442286D01*
X126160756Y-152014364D02*
X126120793Y-151713676D01*
X126993919Y-153259834D02*
X126700671Y-153017850D01*
X164934793Y-153259834D02*
X164597593Y-153442286D01*
X144966533Y-141485584D02*
X144810333Y-142329784D01*
X165808393Y-151613628D02*
X165808393Y-151713676D01*
X130089553Y-149629244D02*
X130089553Y-125816804D01*
X130089553Y-125816804D02*
X161839593Y-125816804D01*
X128004845Y-121848004D02*
X128105169Y-121848004D01*
X165470193Y-152724604D02*
X165228193Y-153017850D01*
X165808393Y-151713676D02*
X165767993Y-152014364D01*
X126120793Y-151713676D02*
X126120793Y-151613628D01*
X163823993Y-153598004D02*
X128105169Y-153598004D01*
X142434573Y-145201604D02*
X142364313Y-145228924D01*
X143442753Y-144568524D02*
X143368313Y-144634984D01*
X144779133Y-142435344D02*
X144747733Y-142540604D01*
X164597593Y-153442286D02*
X164224593Y-153557766D01*
X126120793Y-151613628D02*
X126120793Y-123832404D01*
X127331265Y-122003404D02*
X127704159Y-121888004D01*
X126276236Y-123058404D02*
X126458687Y-122721205D01*
X165767993Y-152014364D02*
X165652593Y-152387256D01*
X126458687Y-122721205D02*
X126700671Y-122427804D01*
X134276033Y-129869204D02*
X140231053Y-129869204D01*
X141278093Y-145498444D02*
X140492613Y-145576684D01*
X144184913Y-143697364D02*
X143876233Y-144117384D01*
X142528273Y-145162444D02*
X142434573Y-145201604D01*
X144810333Y-142329784D02*
X144779133Y-142435344D01*
X128004845Y-153598004D02*
X127704159Y-153557766D01*
X141485113Y-145463444D02*
X141379853Y-145482984D01*
X126120793Y-123832404D02*
X126120793Y-123732004D01*
X144239813Y-143607484D02*
X144184913Y-143697364D01*
X126458687Y-152724604D02*
X126276236Y-152387256D01*
X165228193Y-153017850D02*
X164934793Y-153259834D01*
X140231053Y-129869204D02*
X140456553Y-129869204D01*
X140231053Y-145576684D02*
X134276033Y-145576684D01*
X127704159Y-121888004D02*
X128004845Y-121848004D01*
X142967833Y-144926024D02*
X142528273Y-145162444D01*
X126160756Y-123431404D02*
X126276236Y-123058404D01*
X127331265Y-153442286D02*
X126993919Y-153259834D01*
X161839593Y-125816804D02*
X161839593Y-149629244D01*
X126700671Y-153017850D02*
X126458687Y-152724604D01*
X165808393Y-123832404D02*
X165808393Y-151613628D01*
X163923993Y-153598004D02*
X163823993Y-153598004D01*
X134276033Y-145576684D02*
X134276033Y-129869204D01*
X143368313Y-144634984D02*
X142967833Y-144926024D01*
X140492613Y-145576684D02*
X140231053Y-145576684D01*
X126276236Y-152387256D02*
X126160756Y-152014364D01*
X143520713Y-144498244D02*
X143442753Y-144568524D01*
X128105169Y-153598004D02*
X128004845Y-153598004D01*
X150602793Y-139703784D02*
X150554793Y-139785904D01*
X141353093Y-142930364D02*
X141953892Y-142587464D01*
X150252793Y-142016164D02*
X150613193Y-142587464D01*
X147600793Y-141169224D02*
X147600793Y-140867104D01*
X150238193Y-140471644D02*
X150132793Y-141029724D01*
X150460993Y-133774084D02*
X150460993Y-133948564D01*
X152027392Y-138754604D02*
X151873593Y-138777745D01*
X155806193Y-138731164D02*
X152664793Y-138731164D01*
X151023593Y-139211584D02*
X150771393Y-139472284D01*
X150771393Y-139472284D02*
X150602793Y-139703784D01*
X152348193Y-136181504D02*
X152708593Y-136199144D01*
X151984993Y-132354204D02*
X151423593Y-132453604D01*
X150460993Y-133948564D02*
X150460993Y-134082484D01*
X150554793Y-139785904D02*
X150484193Y-139895344D01*
X152109793Y-138750424D02*
X152078592Y-138754604D01*
X155806193Y-132354204D02*
X152172393Y-132354204D01*
X155806193Y-136199144D02*
X155806193Y-132354204D01*
X152172393Y-132354204D02*
X151984993Y-132354204D01*
X151984993Y-136128864D02*
X152035593Y-136140444D01*
X151933993Y-136113204D02*
X151984993Y-136128864D01*
X150484193Y-139895344D02*
X150238193Y-140471644D01*
X151549793Y-138879764D02*
X151310793Y-139003444D01*
X152055193Y-143044724D02*
X155806193Y-143044724D01*
X150132793Y-141415884D02*
X150252793Y-142016164D01*
X136761213Y-143044724D02*
X140512213Y-143044724D01*
X151676193Y-138832625D02*
X151633193Y-138848304D01*
X152828793Y-136199144D02*
X155806193Y-136199144D01*
X151351793Y-135777224D02*
X151406393Y-135820184D01*
X155806193Y-143044724D02*
X155806193Y-138731164D01*
X141953892Y-142587464D02*
X142314413Y-142016164D01*
X148167193Y-139078724D02*
X148280793Y-138918564D01*
X150567993Y-133251004D02*
X150460993Y-133774084D01*
X151423593Y-132453604D02*
X150888793Y-132752804D01*
X151406393Y-135820184D02*
X151673993Y-135993824D01*
X152708593Y-136199144D02*
X152828793Y-136199144D01*
X151844993Y-143044724D02*
X152055193Y-143044724D01*
X150132793Y-141216064D02*
X150132793Y-141415884D01*
X147770593Y-139961724D02*
X148167193Y-139078724D01*
X147600793Y-140867104D02*
X147770593Y-139961724D01*
X150132793Y-141029724D02*
X150132793Y-141216064D01*
X150888793Y-132752804D02*
X150567993Y-133251004D01*
X151873593Y-138777745D02*
X151676193Y-138832625D01*
X151245793Y-135693404D02*
X151351793Y-135777224D01*
X150961793Y-135399044D02*
X151245793Y-135693404D01*
X150516593Y-134484644D02*
X150683593Y-134968304D01*
X142314413Y-142016164D02*
X142434573Y-141415884D01*
X140722193Y-143044724D02*
X141353093Y-142930364D01*
X151310793Y-139003444D02*
X151023593Y-139211584D01*
X151633193Y-138848304D02*
X151549793Y-138879764D01*
X150613193Y-142587464D02*
X151213993Y-142930364D01*
X152578193Y-138731164D02*
X152318993Y-138736964D01*
X152318993Y-138736964D02*
X152109793Y-138750424D01*
X139902833Y-138731164D02*
X136761213Y-138731164D01*
X142434573Y-141415884D02*
X142434573Y-141216064D01*
X139989113Y-138731164D02*
X139902833Y-138731164D01*
X152078592Y-138754604D02*
X152027392Y-138754604D01*
X151213993Y-142930364D02*
X151844993Y-143044724D01*
X136761213Y-138731164D02*
X136761213Y-143044724D01*
X150460993Y-134082484D02*
X150516593Y-134484644D01*
X152035593Y-136140444D02*
X152348193Y-136181504D01*
X151673993Y-135993824D02*
X151933993Y-136113204D01*
X152664793Y-138731164D02*
X152578193Y-138731164D01*
X140512213Y-143044724D02*
X140722193Y-143044724D01*
X150683593Y-134968304D02*
X150961793Y-135399044D01*
X164224593Y-121888004D02*
X164597593Y-122003404D01*
X163923993Y-121848004D02*
X164224593Y-121888004D01*
X165470193Y-122721205D02*
X165652593Y-123058404D01*
X163823993Y-121848004D02*
X163923993Y-121848004D01*
X164597593Y-122003404D02*
X164934793Y-122185804D01*
X165228193Y-122427804D02*
X165470193Y-122721205D01*
X164934793Y-122185804D02*
X165228193Y-122427804D01*
X128105169Y-121848004D02*
X163823993Y-121848004D01*
X149857193Y-130537404D02*
X150468793Y-130224804D01*
X148249393Y-132381404D02*
X148304193Y-132260404D01*
X149599193Y-144926024D02*
X149198793Y-144634984D01*
X148696593Y-131586204D02*
X149120593Y-131103804D01*
X147756793Y-142329784D02*
X147600793Y-141459124D01*
X149215393Y-136675104D02*
X148526593Y-135853284D01*
X149120593Y-131103804D02*
X149218393Y-131018004D01*
X148358793Y-132139204D02*
X148696593Y-131586204D01*
X151082193Y-145463444D02*
X150607393Y-145353724D01*
X149972393Y-137468864D02*
X150179593Y-137371364D01*
X151433993Y-129945404D02*
X152110792Y-129869204D01*
X147788193Y-142435344D02*
X147756793Y-142329784D01*
X147819393Y-142540604D02*
X147788193Y-142435344D01*
X150601593Y-130174204D02*
X150734393Y-130123204D01*
X158291393Y-129869204D02*
X158291393Y-145576684D01*
X152049393Y-145576684D02*
X151289393Y-145498444D01*
X148690793Y-144117384D02*
X148382193Y-143697364D01*
X150203193Y-145228924D02*
X150132793Y-145201604D01*
X147600793Y-141459124D02*
X147600793Y-141169224D01*
X147975993Y-134099844D02*
X147975993Y-133831444D01*
X148268793Y-143517384D02*
X147819393Y-142540604D01*
X148526593Y-135853284D02*
X148113393Y-134905164D01*
X149046393Y-144498244D02*
X148690793Y-144117384D01*
X148327593Y-143607484D02*
X148268793Y-143517384D01*
X149124593Y-144568524D02*
X149046393Y-144498244D01*
X152336593Y-129869204D02*
X158291393Y-129869204D01*
X150607393Y-145353724D02*
X150203193Y-145228924D01*
X149083593Y-138050945D02*
X149972393Y-137468864D01*
X150179593Y-137371364D02*
X149922993Y-137223884D01*
X152336593Y-145576684D02*
X152049393Y-145576684D01*
X147975993Y-133627464D02*
X148057793Y-133016404D01*
X158291393Y-145576684D02*
X152336593Y-145576684D01*
X148280793Y-138918564D02*
X148390193Y-138758204D01*
X152110792Y-129869204D02*
X152336593Y-129869204D01*
X150468793Y-130224804D02*
X150601593Y-130174204D01*
X149218393Y-131018004D02*
X149315993Y-130928204D01*
X147975993Y-133831444D02*
X147975993Y-133627464D01*
X148113393Y-134905164D02*
X147975993Y-134099844D01*
X149922993Y-137223884D02*
X149215393Y-136675104D01*
X149198793Y-144634984D02*
X149124593Y-144568524D01*
X148382193Y-143697364D02*
X148327593Y-143607484D01*
X151187793Y-145482984D02*
X151082193Y-145463444D01*
X150734393Y-130123204D02*
X151433993Y-129945404D01*
X150132793Y-145201604D02*
X150038793Y-145162444D01*
X150038793Y-145162444D02*
X149599193Y-144926024D01*
X148390193Y-138758204D02*
X149083593Y-138050945D01*
X149315993Y-130928204D02*
X149857193Y-130537404D01*
X148304193Y-132260404D02*
X148358793Y-132139204D01*
X148057793Y-133016404D02*
X148249393Y-132381404D01*
X151289393Y-145498444D02*
X151187793Y-145482984D01*
X165652593Y-123058404D02*
X165767993Y-123431404D01*
D11*
%TO.C,D82*%
X168652593Y-125108404D02*
X166652593Y-125108404D01*
X166652593Y-125108404D02*
X166652593Y-121208404D01*
X168652593Y-125108404D02*
X168652593Y-121208404D01*
%TO.C,D81*%
X124452593Y-125108404D02*
X122452593Y-125108404D01*
X122452593Y-125108404D02*
X122452593Y-121208404D01*
X124452593Y-125108404D02*
X124452593Y-121208404D01*
%TO.C,J1*%
X130752593Y-132358404D02*
X130752593Y-132558404D01*
X133252593Y-132358404D02*
X130752593Y-132358404D01*
X133252593Y-144458404D02*
X133252593Y-132358404D01*
X130752593Y-144458404D02*
X133252593Y-144458404D01*
X130752593Y-132558404D02*
X130752593Y-144458404D01*
X148352593Y-138458404D02*
G75*
G03*
X148352593Y-138458404I-2500000J0D01*
G01*
X138852593Y-145458404D02*
X140852593Y-145458404D01*
X138852593Y-145458404D02*
X138852593Y-143458404D01*
X152852593Y-145458404D02*
X151852593Y-145458404D01*
X151852593Y-145458404D02*
X150852593Y-145458404D01*
X150852593Y-145458404D02*
X152852593Y-145458404D01*
X152852593Y-145458404D02*
X152852593Y-143458404D01*
X138852593Y-131458404D02*
X138852593Y-133458404D01*
X138852593Y-133458404D02*
X138852593Y-131458404D01*
X138852593Y-131458404D02*
X140852593Y-131458404D01*
X152852593Y-131458404D02*
X152852593Y-133458404D01*
X152852593Y-133458404D02*
X152852593Y-131458404D01*
X152852593Y-131458404D02*
X150852593Y-131458404D01*
D12*
%TO.C,D56*%
G36*
X121538827Y-84806812D02*
G01*
X120342794Y-85242133D01*
X121158471Y-85622489D01*
X121538827Y-84806812D01*
G37*
X121538827Y-84806812D02*
X120342794Y-85242133D01*
X121158471Y-85622489D01*
X121538827Y-84806812D01*
%TO.C,D57*%
G36*
X113509081Y-102026659D02*
G01*
X112313048Y-102461980D01*
X113128725Y-102842336D01*
X113509081Y-102026659D01*
G37*
X113509081Y-102026659D02*
X112313048Y-102461980D01*
X113128725Y-102842336D01*
X113509081Y-102026659D01*
%TO.C,D45*%
G36*
X62906085Y-75671649D02*
G01*
X61710052Y-76106970D01*
X62525729Y-76487326D01*
X62906085Y-75671649D01*
G37*
X62906085Y-75671649D02*
X61710052Y-76106970D01*
X62525729Y-76487326D01*
X62906085Y-75671649D01*
%TO.C,D65*%
G36*
X177774158Y-81256819D02*
G01*
X177338838Y-82452852D01*
X178154515Y-82072496D01*
X177774158Y-81256819D01*
G37*
X177774158Y-81256819D02*
X177338838Y-82452852D01*
X178154515Y-82072496D01*
X177774158Y-81256819D01*
%TO.C,D59*%
G36*
X99879412Y-133149724D02*
G01*
X98625957Y-133370742D01*
X99363194Y-133886960D01*
X99879412Y-133149724D01*
G37*
X99879412Y-133149724D02*
X98625957Y-133370742D01*
X99363194Y-133886960D01*
X99879412Y-133149724D01*
%TO.C,D53*%
G36*
X105375526Y-74511295D02*
G01*
X104179493Y-74946616D01*
X104995170Y-75326972D01*
X105375526Y-74511295D01*
G37*
X105375526Y-74511295D02*
X104179493Y-74946616D01*
X104995170Y-75326972D01*
X105375526Y-74511295D01*
%TO.C,D52*%
G36*
X97345779Y-91731143D02*
G01*
X96149746Y-92166464D01*
X96965423Y-92546820D01*
X97345779Y-91731143D01*
G37*
X97345779Y-91731143D02*
X96149746Y-92166464D01*
X96965423Y-92546820D01*
X97345779Y-91731143D01*
%TO.C,D54*%
G36*
X113405273Y-57291448D02*
G01*
X112209240Y-57726769D01*
X113024917Y-58107125D01*
X113405273Y-57291448D01*
G37*
X113405273Y-57291448D02*
X112209240Y-57726769D01*
X113024917Y-58107125D01*
X113405273Y-57291448D01*
D13*
%TO.C,SW24*%
X90783131Y-80841361D02*
X90622113Y-81186665D01*
X102215679Y-83369866D02*
X101786299Y-84290675D01*
X101786299Y-84290675D02*
X97182255Y-82143774D01*
X94143878Y-82828891D02*
X92578832Y-82099097D01*
X90967416Y-81347682D02*
X90622113Y-81186665D01*
X92232289Y-77733632D02*
X92071271Y-78078935D01*
X95607761Y-76505061D02*
X103664837Y-80262137D01*
X103664837Y-80262137D02*
X103503820Y-80607440D01*
X94135866Y-82846074D02*
G75*
G02*
X97182255Y-82143774I1972939J-1599722D01*
G01*
X92232290Y-77733632D02*
G75*
G02*
X95607761Y-76505061I2302021J-1073450D01*
G01*
%TO.C,SW4*%
X106842625Y-46401666D02*
X106681607Y-46746970D01*
X118275173Y-48930171D02*
X117845793Y-49850980D01*
X117845793Y-49850980D02*
X113241749Y-47704079D01*
X110203372Y-48389196D02*
X108638326Y-47659402D01*
X107026910Y-46907987D02*
X106681607Y-46746970D01*
X108291783Y-43293937D02*
X108130765Y-43639240D01*
X111667255Y-42065366D02*
X119724331Y-45822442D01*
X119724331Y-45822442D02*
X119563314Y-46167745D01*
X110195360Y-48406379D02*
G75*
G02*
X113241749Y-47704079I1972939J-1599722D01*
G01*
X108291784Y-43293937D02*
G75*
G02*
X111667255Y-42065366I2302021J-1073450D01*
G01*
%TO.C,SW14*%
X98812878Y-63621513D02*
X98651860Y-63966817D01*
X110245426Y-66150018D02*
X109816046Y-67070827D01*
X109816046Y-67070827D02*
X105212002Y-64923926D01*
X102173625Y-65609043D02*
X100608579Y-64879249D01*
X98997163Y-64127834D02*
X98651860Y-63966817D01*
X100262036Y-60513784D02*
X100101018Y-60859087D01*
X103637508Y-59285213D02*
X111694584Y-63042289D01*
X111694584Y-63042289D02*
X111533567Y-63387592D01*
X102165613Y-65626226D02*
G75*
G02*
X105212002Y-64923926I1972939J-1599722D01*
G01*
X100262037Y-60513784D02*
G75*
G02*
X103637508Y-59285213I2302021J-1073450D01*
G01*
%TO.C,SW34*%
X95307456Y-121285790D02*
X95088924Y-121597887D01*
X106127248Y-125761123D02*
X105544495Y-126593381D01*
X105544495Y-126593381D02*
X101383202Y-123679613D01*
X98272016Y-123826712D02*
X96857473Y-122836239D01*
X95401020Y-121816420D02*
X95088924Y-121597887D01*
X97274250Y-118476918D02*
X97055717Y-118789015D01*
X100811780Y-117853156D02*
X108094042Y-122952250D01*
X108094042Y-122952250D02*
X107875509Y-123264347D01*
X98261141Y-123842243D02*
G75*
G02*
X101383202Y-123679613I1665177J-1918016D01*
G01*
X97274250Y-118476918D02*
G75*
G02*
X100811780Y-117853156I2080646J-1456884D01*
G01*
%TO.C,SW7*%
X173347266Y-51768918D02*
X173508284Y-52114222D01*
X182632914Y-44636370D02*
X183062294Y-45557178D01*
X183062294Y-45557178D02*
X178458251Y-47704079D01*
X177030049Y-50471995D02*
X175465002Y-51201789D01*
X173853587Y-51953204D02*
X173508284Y-52114222D01*
X171898108Y-48661189D02*
X172059126Y-49006492D01*
X173126680Y-45285717D02*
X181183756Y-41528640D01*
X181183756Y-41528640D02*
X181344774Y-41873944D01*
X177038062Y-50489178D02*
G75*
G02*
X178458251Y-47704079I2493639J483077D01*
G01*
X171898109Y-48661188D02*
G75*
G02*
X173126680Y-45285717I2302021J1073450D01*
G01*
%TO.C,SW40*%
X231876201Y-87368966D02*
X232037219Y-87714270D01*
X241161849Y-80236418D02*
X241591229Y-81157226D01*
X241591229Y-81157226D02*
X236987186Y-83304127D01*
X235558984Y-86072043D02*
X233993937Y-86801837D01*
X232382522Y-87553252D02*
X232037219Y-87714270D01*
X230427043Y-84261237D02*
X230588061Y-84606540D01*
X231655615Y-80885765D02*
X239712691Y-77128688D01*
X239712691Y-77128688D02*
X239873709Y-77473992D01*
X235566997Y-86089226D02*
G75*
G02*
X236987186Y-83304127I2493639J483077D01*
G01*
X230427044Y-84261236D02*
G75*
G02*
X231655615Y-80885765I2302021J1073450D01*
G01*
%TO.C,SW39*%
X212543263Y-90867174D02*
X212704281Y-91212478D01*
X221828911Y-83734626D02*
X222258291Y-84655434D01*
X222258291Y-84655434D02*
X217654248Y-86802335D01*
X216226046Y-89570251D02*
X214660999Y-90300045D01*
X213049584Y-91051460D02*
X212704281Y-91212478D01*
X211094105Y-87759445D02*
X211255123Y-88104748D01*
X212322677Y-84383973D02*
X220379753Y-80626896D01*
X220379753Y-80626896D02*
X220540771Y-80972200D01*
X216234059Y-89587434D02*
G75*
G02*
X217654248Y-86802335I2493639J483077D01*
G01*
X211094106Y-87759444D02*
G75*
G02*
X212322677Y-84383973I2302021J1073450D01*
G01*
%TO.C,SW38*%
X203775780Y-117023077D02*
X203936798Y-117368381D01*
X213061428Y-109890529D02*
X213490808Y-110811337D01*
X213490808Y-110811337D02*
X208886765Y-112958238D01*
X207458563Y-115726154D02*
X205893516Y-116455948D01*
X204282101Y-117207363D02*
X203936798Y-117368381D01*
X202326622Y-113915348D02*
X202487640Y-114260651D01*
X203555194Y-110539876D02*
X211612270Y-106782799D01*
X211612270Y-106782799D02*
X211773288Y-107128103D01*
X207466576Y-115743337D02*
G75*
G02*
X208886765Y-112958238I2493639J483077D01*
G01*
X202326623Y-113915347D02*
G75*
G02*
X203555194Y-110539876I2302021J1073450D01*
G01*
%TO.C,SW37*%
X185989313Y-128570211D02*
X186207845Y-128882308D01*
X193895337Y-119933586D02*
X194478090Y-120765845D01*
X194478090Y-120765845D02*
X190316798Y-123679613D01*
X189390938Y-126653483D02*
X187976395Y-127643956D01*
X186519942Y-128663775D02*
X186207845Y-128882308D01*
X184022519Y-125761339D02*
X184241052Y-126073435D01*
X184646281Y-122223808D02*
X191928543Y-117124714D01*
X191928543Y-117124714D02*
X192147076Y-117436811D01*
X189401812Y-126669013D02*
G75*
G02*
X190316798Y-123679613I2371870J908754D01*
G01*
X184022519Y-125761338D02*
G75*
G02*
X184646281Y-122223808I2080646J1456884D01*
G01*
%TO.C,SW36*%
X170478201Y-143030507D02*
X170747609Y-143299914D01*
X176764381Y-133152225D02*
X177482801Y-133870645D01*
X177482801Y-133870645D02*
X173890699Y-137462748D01*
X173495312Y-140552212D02*
X172274253Y-141773271D01*
X171017017Y-143030507D02*
X170747609Y-143299914D01*
X168053532Y-140605837D02*
X168322940Y-140875245D01*
X168053532Y-137013735D02*
X174339712Y-130727556D01*
X174339712Y-130727556D02*
X174609119Y-130996963D01*
X173508718Y-140565618D02*
G75*
G02*
X173890699Y-137462748I2178032J1306819D01*
G01*
X168053533Y-140605838D02*
G75*
G02*
X168053532Y-137013735I1796051J1796052D01*
G01*
%TO.C,SW35*%
X112241542Y-134050250D02*
X111972135Y-134319658D01*
X122119824Y-140336430D02*
X121401404Y-141054850D01*
X121401404Y-141054850D02*
X117809301Y-137462748D01*
X114719837Y-137067361D02*
X113498778Y-135846302D01*
X112241542Y-134589066D02*
X111972135Y-134319658D01*
X114666212Y-131625581D02*
X114396804Y-131894989D01*
X118258314Y-131625581D02*
X124544493Y-137911761D01*
X124544493Y-137911761D02*
X124275086Y-138181168D01*
X114706431Y-137080767D02*
G75*
G02*
X117809301Y-137462748I1306819J-2178032D01*
G01*
X114666211Y-131625582D02*
G75*
G02*
X118258314Y-131625581I1796052J-1796051D01*
G01*
%TO.C,SW33*%
X76414111Y-111655825D02*
X76253093Y-112001129D01*
X87846659Y-114184330D02*
X87417279Y-115105139D01*
X87417279Y-115105139D02*
X82813235Y-112958238D01*
X79774858Y-113643355D02*
X78209812Y-112913561D01*
X76598396Y-112162146D02*
X76253093Y-112001129D01*
X77863269Y-108548096D02*
X77702251Y-108893399D01*
X81238741Y-107319525D02*
X89295817Y-111076601D01*
X89295817Y-111076601D02*
X89134800Y-111421904D01*
X79766846Y-113660538D02*
G75*
G02*
X82813235Y-112958238I1972939J-1599722D01*
G01*
X77863270Y-108548096D02*
G75*
G02*
X81238741Y-107319525I2302021J-1073450D01*
G01*
%TO.C,SW32*%
X67646628Y-85499922D02*
X67485610Y-85845226D01*
X79079176Y-88028427D02*
X78649796Y-88949236D01*
X78649796Y-88949236D02*
X74045752Y-86802335D01*
X71007375Y-87487452D02*
X69442329Y-86757658D01*
X67830913Y-86006243D02*
X67485610Y-85845226D01*
X69095786Y-82392193D02*
X68934768Y-82737496D01*
X72471258Y-81163622D02*
X80528334Y-84920698D01*
X80528334Y-84920698D02*
X80367317Y-85266001D01*
X70999363Y-87504635D02*
G75*
G02*
X74045752Y-86802335I1972939J-1599722D01*
G01*
X69095787Y-82392193D02*
G75*
G02*
X72471258Y-81163622I2302021J-1073450D01*
G01*
%TO.C,SW31*%
X48313690Y-82001714D02*
X48152672Y-82347018D01*
X59746238Y-84530219D02*
X59316858Y-85451028D01*
X59316858Y-85451028D02*
X54712814Y-83304127D01*
X51674437Y-83989244D02*
X50109391Y-83259450D01*
X48497975Y-82508035D02*
X48152672Y-82347018D01*
X49762848Y-78893985D02*
X49601830Y-79239288D01*
X53138320Y-77665414D02*
X61195396Y-81422490D01*
X61195396Y-81422490D02*
X61034379Y-81767793D01*
X51666425Y-84006427D02*
G75*
G02*
X54712814Y-83304127I1972939J-1599722D01*
G01*
X49762849Y-78893985D02*
G75*
G02*
X53138320Y-77665414I2302021J-1073450D01*
G01*
%TO.C,SW30*%
X246349029Y-73448219D02*
X246510047Y-73793523D01*
X255634677Y-66315671D02*
X256064057Y-67236479D01*
X256064057Y-67236479D02*
X251460014Y-69383380D01*
X250031812Y-72151296D02*
X248466765Y-72881090D01*
X246855350Y-73632505D02*
X246510047Y-73793523D01*
X244899871Y-70340490D02*
X245060889Y-70685793D01*
X246128443Y-66965018D02*
X254185519Y-63207941D01*
X254185519Y-63207941D02*
X254346537Y-63553245D01*
X250039825Y-72168479D02*
G75*
G02*
X251460014Y-69383380I2493639J483077D01*
G01*
X244899872Y-70340489D02*
G75*
G02*
X246128443Y-66965018I2302021J1073450D01*
G01*
%TO.C,SW29*%
X223846454Y-70149119D02*
X224007472Y-70494423D01*
X233132102Y-63016571D02*
X233561482Y-63937379D01*
X233561482Y-63937379D02*
X228957439Y-66084280D01*
X227529237Y-68852196D02*
X225964190Y-69581990D01*
X224352775Y-70333405D02*
X224007472Y-70494423D01*
X222397296Y-67041390D02*
X222558314Y-67386693D01*
X223625868Y-63665918D02*
X231682944Y-59908841D01*
X231682944Y-59908841D02*
X231843962Y-60254145D01*
X227537250Y-68869379D02*
G75*
G02*
X228957439Y-66084280I2493639J483077D01*
G01*
X222397297Y-67041389D02*
G75*
G02*
X223625868Y-63665918I2302021J1073450D01*
G01*
%TO.C,SW28*%
X204513516Y-73647327D02*
X204674534Y-73992631D01*
X213799164Y-66514779D02*
X214228544Y-67435587D01*
X214228544Y-67435587D02*
X209624501Y-69582488D01*
X208196299Y-72350404D02*
X206631252Y-73080198D01*
X205019837Y-73831613D02*
X204674534Y-73992631D01*
X203064358Y-70539598D02*
X203225376Y-70884901D01*
X204292930Y-67164126D02*
X212350006Y-63407049D01*
X212350006Y-63407049D02*
X212511024Y-63752353D01*
X208204312Y-72367587D02*
G75*
G02*
X209624501Y-69582488I2493639J483077D01*
G01*
X203064359Y-70539597D02*
G75*
G02*
X204292930Y-67164126I2302021J1073450D01*
G01*
%TO.C,SW27*%
X189406760Y-86208613D02*
X189567778Y-86553917D01*
X198692408Y-79076065D02*
X199121788Y-79996873D01*
X199121788Y-79996873D02*
X194517745Y-82143774D01*
X193089543Y-84911690D02*
X191524496Y-85641484D01*
X189913081Y-86392899D02*
X189567778Y-86553917D01*
X187957602Y-83100884D02*
X188118620Y-83446187D01*
X189186174Y-79725412D02*
X197243250Y-75968335D01*
X197243250Y-75968335D02*
X197404268Y-76313639D01*
X193097556Y-84928873D02*
G75*
G02*
X194517745Y-82143774I2493639J483077D01*
G01*
X187957603Y-83100883D02*
G75*
G02*
X189186174Y-79725412I2302021J1073450D01*
G01*
%TO.C,SW26*%
X173243458Y-96504129D02*
X173404476Y-96849433D01*
X182529106Y-89371581D02*
X182958486Y-90292389D01*
X182958486Y-90292389D02*
X178354443Y-92439290D01*
X176926241Y-95207206D02*
X175361194Y-95937000D01*
X173749779Y-96688415D02*
X173404476Y-96849433D01*
X171794300Y-93396400D02*
X171955318Y-93741703D01*
X173022872Y-90020928D02*
X181079948Y-86263851D01*
X181079948Y-86263851D02*
X181240966Y-86609155D01*
X176934254Y-95224389D02*
G75*
G02*
X178354443Y-92439290I2493639J483077D01*
G01*
X171794301Y-93396399D02*
G75*
G02*
X173022872Y-90020928I2302021J1073450D01*
G01*
%TO.C,SW25*%
X106946433Y-91136877D02*
X106785415Y-91482181D01*
X118378981Y-93665382D02*
X117949601Y-94586191D01*
X117949601Y-94586191D02*
X113345557Y-92439290D01*
X110307180Y-93124407D02*
X108742134Y-92394613D01*
X107130718Y-91643198D02*
X106785415Y-91482181D01*
X108395591Y-88029148D02*
X108234573Y-88374451D01*
X111771063Y-86800577D02*
X119828139Y-90557653D01*
X119828139Y-90557653D02*
X119667122Y-90902956D01*
X110299168Y-93141590D02*
G75*
G02*
X113345557Y-92439290I1972939J-1599722D01*
G01*
X108395592Y-88029148D02*
G75*
G02*
X111771063Y-86800577I2302021J-1073450D01*
G01*
%TO.C,SW23*%
X75676375Y-68280075D02*
X75515357Y-68625379D01*
X87108923Y-70808580D02*
X86679543Y-71729389D01*
X86679543Y-71729389D02*
X82075499Y-69582488D01*
X79037122Y-70267605D02*
X77472076Y-69537811D01*
X75860660Y-68786396D02*
X75515357Y-68625379D01*
X77125533Y-65172346D02*
X76964515Y-65517649D01*
X80501005Y-63943775D02*
X88558081Y-67700851D01*
X88558081Y-67700851D02*
X88397064Y-68046154D01*
X79029110Y-70284788D02*
G75*
G02*
X82075499Y-69582488I1972939J-1599722D01*
G01*
X77125534Y-65172346D02*
G75*
G02*
X80501005Y-63943775I2302021J-1073450D01*
G01*
%TO.C,SW22*%
X56343437Y-64781867D02*
X56182419Y-65127171D01*
X67775985Y-67310372D02*
X67346605Y-68231181D01*
X67346605Y-68231181D02*
X62742561Y-66084280D01*
X59704184Y-66769397D02*
X58139138Y-66039603D01*
X56527722Y-65288188D02*
X56182419Y-65127171D01*
X57792595Y-61674138D02*
X57631577Y-62019441D01*
X61168067Y-60445567D02*
X69225143Y-64202643D01*
X69225143Y-64202643D02*
X69064126Y-64547946D01*
X59696172Y-66786580D02*
G75*
G02*
X62742561Y-66084280I1972939J-1599722D01*
G01*
X57792596Y-61674138D02*
G75*
G02*
X61168067Y-60445567I2302021J-1073450D01*
G01*
%TO.C,SW21*%
X33840862Y-68080967D02*
X33679844Y-68426271D01*
X45273410Y-70609472D02*
X44844030Y-71530281D01*
X44844030Y-71530281D02*
X40239986Y-69383380D01*
X37201609Y-70068497D02*
X35636563Y-69338703D01*
X34025147Y-68587288D02*
X33679844Y-68426271D01*
X35290020Y-64973238D02*
X35129002Y-65318541D01*
X38665492Y-63744667D02*
X46722568Y-67501743D01*
X46722568Y-67501743D02*
X46561551Y-67847046D01*
X37193597Y-70085680D02*
G75*
G02*
X40239986Y-69383380I1972939J-1599722D01*
G01*
X35290021Y-64973238D02*
G75*
G02*
X38665492Y-63744667I2302021J-1073450D01*
G01*
%TO.C,SW20*%
X238319282Y-56228372D02*
X238480300Y-56573676D01*
X247604930Y-49095824D02*
X248034310Y-50016632D01*
X248034310Y-50016632D02*
X243430267Y-52163533D01*
X242002065Y-54931449D02*
X240437018Y-55661243D01*
X238825603Y-56412658D02*
X238480300Y-56573676D01*
X236870124Y-53120643D02*
X237031142Y-53465946D01*
X238098696Y-49745171D02*
X246155772Y-45988094D01*
X246155772Y-45988094D02*
X246316790Y-46333398D01*
X242010078Y-54948632D02*
G75*
G02*
X243430267Y-52163533I2493639J483077D01*
G01*
X236870125Y-53120642D02*
G75*
G02*
X238098696Y-49745171I2302021J1073450D01*
G01*
%TO.C,SW19*%
X215816707Y-52929272D02*
X215977725Y-53274576D01*
X225102355Y-45796724D02*
X225531735Y-46717532D01*
X225531735Y-46717532D02*
X220927692Y-48864433D01*
X219499490Y-51632349D02*
X217934443Y-52362143D01*
X216323028Y-53113558D02*
X215977725Y-53274576D01*
X214367549Y-49821543D02*
X214528567Y-50166846D01*
X215596121Y-46446071D02*
X223653197Y-42688994D01*
X223653197Y-42688994D02*
X223814215Y-43034298D01*
X219507503Y-51649532D02*
G75*
G02*
X220927692Y-48864433I2493639J483077D01*
G01*
X214367550Y-49821542D02*
G75*
G02*
X215596121Y-46446071I2302021J1073450D01*
G01*
%TO.C,SW18*%
X196483769Y-56427480D02*
X196644787Y-56772784D01*
X205769417Y-49294932D02*
X206198797Y-50215740D01*
X206198797Y-50215740D02*
X201594754Y-52362641D01*
X200166552Y-55130557D02*
X198601505Y-55860351D01*
X196990090Y-56611766D02*
X196644787Y-56772784D01*
X195034611Y-53319751D02*
X195195629Y-53665054D01*
X196263183Y-49944279D02*
X204320259Y-46187202D01*
X204320259Y-46187202D02*
X204481277Y-46532506D01*
X200174565Y-55147740D02*
G75*
G02*
X201594754Y-52362641I2493639J483077D01*
G01*
X195034612Y-53319750D02*
G75*
G02*
X196263183Y-49944279I2302021J1073450D01*
G01*
%TO.C,SW17*%
X181377013Y-68988765D02*
X181538031Y-69334069D01*
X190662661Y-61856217D02*
X191092041Y-62777025D01*
X191092041Y-62777025D02*
X186487998Y-64923926D01*
X185059796Y-67691842D02*
X183494749Y-68421636D01*
X181883334Y-69173051D02*
X181538031Y-69334069D01*
X179927855Y-65881036D02*
X180088873Y-66226339D01*
X181156427Y-62505564D02*
X189213503Y-58748487D01*
X189213503Y-58748487D02*
X189374521Y-59093791D01*
X185067809Y-67709025D02*
G75*
G02*
X186487998Y-64923926I2493639J483077D01*
G01*
X179927856Y-65881035D02*
G75*
G02*
X181156427Y-62505564I2302021J1073450D01*
G01*
%TO.C,SW16*%
X165213712Y-79284282D02*
X165374730Y-79629586D01*
X174499360Y-72151734D02*
X174928740Y-73072542D01*
X174928740Y-73072542D02*
X170324697Y-75219443D01*
X168896495Y-77987359D02*
X167331448Y-78717153D01*
X165720033Y-79468568D02*
X165374730Y-79629586D01*
X163764554Y-76176553D02*
X163925572Y-76521856D01*
X164993126Y-72801081D02*
X173050202Y-69044004D01*
X173050202Y-69044004D02*
X173211220Y-69389308D01*
X168904508Y-78004542D02*
G75*
G02*
X170324697Y-75219443I2493639J483077D01*
G01*
X163764555Y-76176552D02*
G75*
G02*
X164993126Y-72801081I2302021J1073450D01*
G01*
%TO.C,SW15*%
X114976179Y-73917030D02*
X114815161Y-74262334D01*
X126408727Y-76445535D02*
X125979347Y-77366344D01*
X125979347Y-77366344D02*
X121375303Y-75219443D01*
X118336926Y-75904560D02*
X116771880Y-75174766D01*
X115160464Y-74423351D02*
X114815161Y-74262334D01*
X116425337Y-70809301D02*
X116264319Y-71154604D01*
X119800809Y-69580730D02*
X127857885Y-73337806D01*
X127857885Y-73337806D02*
X127696868Y-73683109D01*
X118328914Y-75921743D02*
G75*
G02*
X121375303Y-75219443I1972939J-1599722D01*
G01*
X116425338Y-70809301D02*
G75*
G02*
X119800809Y-69580730I2302021J-1073450D01*
G01*
%TO.C,SW13*%
X83706122Y-51060228D02*
X83545104Y-51405532D01*
X95138670Y-53588733D02*
X94709290Y-54509542D01*
X94709290Y-54509542D02*
X90105246Y-52362641D01*
X87066869Y-53047758D02*
X85501823Y-52317964D01*
X83890407Y-51566549D02*
X83545104Y-51405532D01*
X85155280Y-47952499D02*
X84994262Y-48297802D01*
X88530752Y-46723928D02*
X96587828Y-50481004D01*
X96587828Y-50481004D02*
X96426811Y-50826307D01*
X87058857Y-53064941D02*
G75*
G02*
X90105246Y-52362641I1972939J-1599722D01*
G01*
X85155281Y-47952499D02*
G75*
G02*
X88530752Y-46723928I2302021J-1073450D01*
G01*
%TO.C,SW12*%
X64373184Y-47562020D02*
X64212166Y-47907324D01*
X75805732Y-50090525D02*
X75376352Y-51011334D01*
X75376352Y-51011334D02*
X70772308Y-48864433D01*
X67733931Y-49549550D02*
X66168885Y-48819756D01*
X64557469Y-48068341D02*
X64212166Y-47907324D01*
X65822342Y-44454291D02*
X65661324Y-44799594D01*
X69197814Y-43225720D02*
X77254890Y-46982796D01*
X77254890Y-46982796D02*
X77093873Y-47328099D01*
X67725919Y-49566733D02*
G75*
G02*
X70772308Y-48864433I1972939J-1599722D01*
G01*
X65822343Y-44454291D02*
G75*
G02*
X69197814Y-43225720I2302021J-1073450D01*
G01*
%TO.C,SW11*%
X41870609Y-50861120D02*
X41709591Y-51206424D01*
X53303157Y-53389625D02*
X52873777Y-54310434D01*
X52873777Y-54310434D02*
X48269733Y-52163533D01*
X45231356Y-52848650D02*
X43666310Y-52118856D01*
X42054894Y-51367441D02*
X41709591Y-51206424D01*
X43319767Y-47753391D02*
X43158749Y-48098694D01*
X46695239Y-46524820D02*
X54752315Y-50281896D01*
X54752315Y-50281896D02*
X54591298Y-50627199D01*
X45223344Y-52865833D02*
G75*
G02*
X48269733Y-52163533I1972939J-1599722D01*
G01*
X43319768Y-47753391D02*
G75*
G02*
X46695239Y-46524820I2302021J-1073450D01*
G01*
%TO.C,SW10*%
X230289535Y-39008525D02*
X230450553Y-39353829D01*
X239575183Y-31875977D02*
X240004563Y-32796785D01*
X240004563Y-32796785D02*
X235400520Y-34943686D01*
X233972318Y-37711602D02*
X232407271Y-38441396D01*
X230795856Y-39192811D02*
X230450553Y-39353829D01*
X228840377Y-35900796D02*
X229001395Y-36246099D01*
X230068949Y-32525324D02*
X238126025Y-28768247D01*
X238126025Y-28768247D02*
X238287043Y-29113551D01*
X233980331Y-37728785D02*
G75*
G02*
X235400520Y-34943686I2493639J483077D01*
G01*
X228840378Y-35900795D02*
G75*
G02*
X230068949Y-32525324I2302021J1073450D01*
G01*
%TO.C,SW9*%
X207786960Y-35709425D02*
X207947978Y-36054729D01*
X217072608Y-28576877D02*
X217501988Y-29497685D01*
X217501988Y-29497685D02*
X212897945Y-31644586D01*
X211469743Y-34412502D02*
X209904696Y-35142296D01*
X208293281Y-35893711D02*
X207947978Y-36054729D01*
X206337802Y-32601696D02*
X206498820Y-32946999D01*
X207566374Y-29226224D02*
X215623450Y-25469147D01*
X215623450Y-25469147D02*
X215784468Y-25814451D01*
X211477756Y-34429685D02*
G75*
G02*
X212897945Y-31644586I2493639J483077D01*
G01*
X206337803Y-32601695D02*
G75*
G02*
X207566374Y-29226224I2302021J1073450D01*
G01*
%TO.C,SW8*%
X188454022Y-39207633D02*
X188615040Y-39552937D01*
X197739670Y-32075085D02*
X198169050Y-32995893D01*
X198169050Y-32995893D02*
X193565007Y-35142794D01*
X192136805Y-37910710D02*
X190571758Y-38640504D01*
X188960343Y-39391919D02*
X188615040Y-39552937D01*
X187004864Y-36099904D02*
X187165882Y-36445207D01*
X188233436Y-32724432D02*
X196290512Y-28967355D01*
X196290512Y-28967355D02*
X196451530Y-29312659D01*
X192144818Y-37927893D02*
G75*
G02*
X193565007Y-35142794I2493639J483077D01*
G01*
X187004865Y-36099903D02*
G75*
G02*
X188233436Y-32724432I2302021J1073450D01*
G01*
%TO.C,SW6*%
X157183965Y-62064435D02*
X157344983Y-62409739D01*
X166469613Y-54931887D02*
X166898993Y-55852695D01*
X166898993Y-55852695D02*
X162294950Y-57999596D01*
X160866748Y-60767512D02*
X159301701Y-61497306D01*
X157690286Y-62248721D02*
X157344983Y-62409739D01*
X155734807Y-58956706D02*
X155895825Y-59302009D01*
X156963379Y-55581234D02*
X165020455Y-51824157D01*
X165020455Y-51824157D02*
X165181473Y-52169461D01*
X160874761Y-60784695D02*
G75*
G02*
X162294950Y-57999596I2493639J483077D01*
G01*
X155734808Y-58956705D02*
G75*
G02*
X156963379Y-55581234I2302021J1073450D01*
G01*
%TO.C,SW5*%
X123005926Y-56697183D02*
X122844908Y-57042487D01*
X134438474Y-59225688D02*
X134009094Y-60146497D01*
X134009094Y-60146497D02*
X129405050Y-57999596D01*
X126366673Y-58684713D02*
X124801627Y-57954919D01*
X123190211Y-57203504D02*
X122844908Y-57042487D01*
X124455084Y-53589454D02*
X124294066Y-53934757D01*
X127830556Y-52360883D02*
X135887632Y-56117959D01*
X135887632Y-56117959D02*
X135726615Y-56463262D01*
X126358661Y-58701896D02*
G75*
G02*
X129405050Y-57999596I1972939J-1599722D01*
G01*
X124455085Y-53589454D02*
G75*
G02*
X127830556Y-52360883I2302021J-1073450D01*
G01*
%TO.C,SW3*%
X91735869Y-33840381D02*
X91574851Y-34185685D01*
X103168417Y-36368886D02*
X102739037Y-37289695D01*
X102739037Y-37289695D02*
X98134993Y-35142794D01*
X95096616Y-35827911D02*
X93531570Y-35098117D01*
X91920154Y-34346702D02*
X91574851Y-34185685D01*
X93185027Y-30732652D02*
X93024009Y-31077955D01*
X96560499Y-29504081D02*
X104617575Y-33261157D01*
X104617575Y-33261157D02*
X104456558Y-33606460D01*
X95088604Y-35845094D02*
G75*
G02*
X98134993Y-35142794I1972939J-1599722D01*
G01*
X93185028Y-30732652D02*
G75*
G02*
X96560499Y-29504081I2302021J-1073450D01*
G01*
%TO.C,SW2*%
X72402931Y-30342173D02*
X72241913Y-30687477D01*
X83835479Y-32870678D02*
X83406099Y-33791487D01*
X83406099Y-33791487D02*
X78802055Y-31644586D01*
X75763678Y-32329703D02*
X74198632Y-31599909D01*
X72587216Y-30848494D02*
X72241913Y-30687477D01*
X73852089Y-27234444D02*
X73691071Y-27579747D01*
X77227561Y-26005873D02*
X85284637Y-29762949D01*
X85284637Y-29762949D02*
X85123620Y-30108252D01*
X75755666Y-32346886D02*
G75*
G02*
X78802055Y-31644586I1972939J-1599722D01*
G01*
X73852090Y-27234444D02*
G75*
G02*
X77227561Y-26005873I2302021J-1073450D01*
G01*
%TO.C,SW1*%
X49900356Y-33641273D02*
X49739338Y-33986577D01*
X61332904Y-36169778D02*
X60903524Y-37090587D01*
X60903524Y-37090587D02*
X56299480Y-34943686D01*
X53261103Y-35628803D02*
X51696057Y-34899009D01*
X50084641Y-34147594D02*
X49739338Y-33986577D01*
X51349514Y-30533544D02*
X51188496Y-30878847D01*
X54724986Y-29304973D02*
X62782062Y-33062049D01*
X62782062Y-33062049D02*
X62621045Y-33407352D01*
X53253091Y-35645986D02*
G75*
G02*
X56299480Y-34943686I1972939J-1599722D01*
G01*
X51349515Y-30533544D02*
G75*
G02*
X54724986Y-29304973I2302021J-1073450D01*
G01*
D11*
%TO.C,Y1*%
X161552593Y-89008404D02*
X158252593Y-89008404D01*
X158252593Y-89008404D02*
X158252593Y-85008404D01*
D13*
%TO.C,U2*%
X146502593Y-69308404D02*
X145202593Y-69308404D01*
X146502593Y-66408404D02*
X146502593Y-69308404D01*
X145202593Y-66408404D02*
X146502593Y-66408404D01*
X145202593Y-66408404D02*
X145202593Y-69308404D01*
%TO.C,U1*%
X142677593Y-81683404D02*
X143252593Y-81683404D01*
X142677593Y-92033404D02*
X143352593Y-92033404D01*
X153027593Y-92033404D02*
X152352593Y-92033404D01*
X153027593Y-81683404D02*
X152352593Y-81683404D01*
X142677593Y-81683404D02*
X142677593Y-82358404D01*
X153027593Y-81683404D02*
X153027593Y-82358404D01*
X153027593Y-92033404D02*
X153027593Y-91358404D01*
X142677593Y-92033404D02*
X142677593Y-91358404D01*
X143252593Y-81683404D02*
X143252593Y-80408404D01*
%TO.C,SW41*%
X167852593Y-148658404D02*
G75*
G03*
X167852593Y-148658404I-1000000J0D01*
G01*
X164252593Y-146058404D02*
X164252593Y-151258404D01*
X169452593Y-146058404D02*
X164252593Y-146058404D01*
X169452593Y-151258404D02*
X169452593Y-146058404D01*
X164252593Y-151258404D02*
X169452593Y-151258404D01*
D11*
%TO.C,R6*%
X141879657Y-64123404D02*
X141425529Y-64123404D01*
X141879657Y-65593404D02*
X141425529Y-65593404D01*
%TO.C,R5*%
X149825529Y-65593404D02*
X150279657Y-65593404D01*
X149825529Y-64123404D02*
X150279657Y-64123404D01*
%TO.C,R4*%
X160425529Y-151193404D02*
X160879657Y-151193404D01*
X160425529Y-149723404D02*
X160879657Y-149723404D01*
%TO.C,R3*%
X146517593Y-73231340D02*
X146517593Y-73685468D01*
X147987593Y-73231340D02*
X147987593Y-73685468D01*
%TO.C,R2*%
X145187593Y-73685468D02*
X145187593Y-73231340D01*
X143717593Y-73685468D02*
X143717593Y-73231340D01*
%TO.C,R1*%
X142025529Y-95593404D02*
X142479657Y-95593404D01*
X142025529Y-94123404D02*
X142479657Y-94123404D01*
%TO.C,F1*%
X142362593Y-71260468D02*
X142362593Y-70056340D01*
X140542593Y-71260468D02*
X140542593Y-70056340D01*
D12*
%TO.C,D77*%
G36*
X244436647Y-89341503D02*
G01*
X244001327Y-90537536D01*
X244817004Y-90157180D01*
X244436647Y-89341503D01*
G37*
X244436647Y-89341503D02*
X244001327Y-90537536D01*
X244817004Y-90157180D01*
X244436647Y-89341503D01*
%TO.C,D70*%
G36*
X225103709Y-92839711D02*
G01*
X224668389Y-94035744D01*
X225484066Y-93655388D01*
X225103709Y-92839711D01*
G37*
X225103709Y-92839711D02*
X224668389Y-94035744D01*
X225484066Y-93655388D01*
X225103709Y-92839711D01*
%TO.C,D63*%
G36*
X216336226Y-118995614D02*
G01*
X215900906Y-120191647D01*
X216716583Y-119811291D01*
X216336226Y-118995614D01*
G37*
X216336226Y-118995614D02*
X215900906Y-120191647D01*
X216716583Y-119811291D01*
X216336226Y-118995614D01*
%TO.C,D62*%
G36*
X198701465Y-128331682D02*
G01*
X198480447Y-129585137D01*
X199217684Y-129068918D01*
X198701465Y-128331682D01*
G37*
X198701465Y-128331682D02*
X198480447Y-129585137D01*
X199217684Y-129068918D01*
X198701465Y-128331682D01*
%TO.C,D61*%
G36*
X182955807Y-140588159D02*
G01*
X182955807Y-141860951D01*
X183592203Y-141224555D01*
X182955807Y-140588159D01*
G37*
X182955807Y-140588159D02*
X182955807Y-141860951D01*
X183592203Y-141224555D01*
X182955807Y-140588159D01*
%TO.C,D60*%
G36*
X114683890Y-146527856D02*
G01*
X113411098Y-146527856D01*
X114047494Y-147164252D01*
X114683890Y-146527856D01*
G37*
X114683890Y-146527856D02*
X113411098Y-146527856D01*
X114047494Y-147164252D01*
X114683890Y-146527856D01*
%TO.C,D58*%
G36*
X82976759Y-122545607D02*
G01*
X81780726Y-122980928D01*
X82596403Y-123361284D01*
X82976759Y-122545607D01*
G37*
X82976759Y-122545607D02*
X81780726Y-122980928D01*
X82596403Y-123361284D01*
X82976759Y-122545607D01*
%TO.C,D51*%
G36*
X74209276Y-96389704D02*
G01*
X73013243Y-96825025D01*
X73828920Y-97205381D01*
X74209276Y-96389704D01*
G37*
X74209276Y-96389704D02*
X73013243Y-96825025D01*
X73828920Y-97205381D01*
X74209276Y-96389704D01*
%TO.C,D44*%
G36*
X54876338Y-92891496D02*
G01*
X53680305Y-93326817D01*
X54495982Y-93707173D01*
X54876338Y-92891496D01*
G37*
X54876338Y-92891496D02*
X53680305Y-93326817D01*
X54495982Y-93707173D01*
X54876338Y-92891496D01*
%TO.C,D78*%
G36*
X258909475Y-75420756D02*
G01*
X258474155Y-76616789D01*
X259289832Y-76236433D01*
X258909475Y-75420756D01*
G37*
X258909475Y-75420756D02*
X258474155Y-76616789D01*
X259289832Y-76236433D01*
X258909475Y-75420756D01*
%TO.C,D76*%
G36*
X236406900Y-72121656D02*
G01*
X235971580Y-73317689D01*
X236787257Y-72937333D01*
X236406900Y-72121656D01*
G37*
X236406900Y-72121656D02*
X235971580Y-73317689D01*
X236787257Y-72937333D01*
X236406900Y-72121656D01*
%TO.C,D71*%
G36*
X217073962Y-75619864D02*
G01*
X216638642Y-76815897D01*
X217454319Y-76435541D01*
X217073962Y-75619864D01*
G37*
X217073962Y-75619864D02*
X216638642Y-76815897D01*
X217454319Y-76435541D01*
X217073962Y-75619864D01*
%TO.C,D69*%
G36*
X201967206Y-88181150D02*
G01*
X201531886Y-89377183D01*
X202347563Y-88996827D01*
X201967206Y-88181150D01*
G37*
X201967206Y-88181150D02*
X201531886Y-89377183D01*
X202347563Y-88996827D01*
X201967206Y-88181150D01*
%TO.C,D64*%
G36*
X185803904Y-98476666D02*
G01*
X185368584Y-99672699D01*
X186184261Y-99292343D01*
X185803904Y-98476666D01*
G37*
X185803904Y-98476666D02*
X185368584Y-99672699D01*
X186184261Y-99292343D01*
X185803904Y-98476666D01*
%TO.C,D50*%
G36*
X82239023Y-79169857D02*
G01*
X81042990Y-79605178D01*
X81858667Y-79985534D01*
X82239023Y-79169857D01*
G37*
X82239023Y-79169857D02*
X81042990Y-79605178D01*
X81858667Y-79985534D01*
X82239023Y-79169857D01*
%TO.C,D43*%
G36*
X40403510Y-78970749D02*
G01*
X39207477Y-79406070D01*
X40023154Y-79786426D01*
X40403510Y-78970749D01*
G37*
X40403510Y-78970749D02*
X39207477Y-79406070D01*
X40023154Y-79786426D01*
X40403510Y-78970749D01*
%TO.C,D79*%
G36*
X250879728Y-58200909D02*
G01*
X250444408Y-59396942D01*
X251260085Y-59016586D01*
X250879728Y-58200909D01*
G37*
X250879728Y-58200909D02*
X250444408Y-59396942D01*
X251260085Y-59016586D01*
X250879728Y-58200909D01*
%TO.C,D75*%
G36*
X228377153Y-54901809D02*
G01*
X227941833Y-56097842D01*
X228757510Y-55717486D01*
X228377153Y-54901809D01*
G37*
X228377153Y-54901809D02*
X227941833Y-56097842D01*
X228757510Y-55717486D01*
X228377153Y-54901809D01*
%TO.C,D72*%
G36*
X209044215Y-58400017D02*
G01*
X208608895Y-59596050D01*
X209424572Y-59215694D01*
X209044215Y-58400017D01*
G37*
X209044215Y-58400017D02*
X208608895Y-59596050D01*
X209424572Y-59215694D01*
X209044215Y-58400017D01*
%TO.C,D68*%
G36*
X193937459Y-70961302D02*
G01*
X193502139Y-72157335D01*
X194317816Y-71776979D01*
X193937459Y-70961302D01*
G37*
X193937459Y-70961302D02*
X193502139Y-72157335D01*
X194317816Y-71776979D01*
X193937459Y-70961302D01*
%TO.C,D49*%
G36*
X90268770Y-61950010D02*
G01*
X89072737Y-62385331D01*
X89888414Y-62765687D01*
X90268770Y-61950010D01*
G37*
X90268770Y-61950010D02*
X89072737Y-62385331D01*
X89888414Y-62765687D01*
X90268770Y-61950010D01*
%TO.C,D46*%
G36*
X70935832Y-58451802D02*
G01*
X69739799Y-58887123D01*
X70555476Y-59267479D01*
X70935832Y-58451802D01*
G37*
X70935832Y-58451802D02*
X69739799Y-58887123D01*
X70555476Y-59267479D01*
X70935832Y-58451802D01*
%TO.C,D42*%
G36*
X48433257Y-61750902D02*
G01*
X47237224Y-62186223D01*
X48052901Y-62566579D01*
X48433257Y-61750902D01*
G37*
X48433257Y-61750902D02*
X47237224Y-62186223D01*
X48052901Y-62566579D01*
X48433257Y-61750902D01*
%TO.C,D80*%
G36*
X242849981Y-40981062D02*
G01*
X242414661Y-42177095D01*
X243230338Y-41796739D01*
X242849981Y-40981062D01*
G37*
X242849981Y-40981062D02*
X242414661Y-42177095D01*
X243230338Y-41796739D01*
X242849981Y-40981062D01*
%TO.C,D74*%
G36*
X220347406Y-37681962D02*
G01*
X219912086Y-38877995D01*
X220727763Y-38497639D01*
X220347406Y-37681962D01*
G37*
X220347406Y-37681962D02*
X219912086Y-38877995D01*
X220727763Y-38497639D01*
X220347406Y-37681962D01*
%TO.C,D73*%
G36*
X201014468Y-41180170D02*
G01*
X200579148Y-42376203D01*
X201394825Y-41995847D01*
X201014468Y-41180170D01*
G37*
X201014468Y-41180170D02*
X200579148Y-42376203D01*
X201394825Y-41995847D01*
X201014468Y-41180170D01*
%TO.C,D67*%
G36*
X185907712Y-53741455D02*
G01*
X185472392Y-54937488D01*
X186288069Y-54557132D01*
X185907712Y-53741455D01*
G37*
X185907712Y-53741455D02*
X185472392Y-54937488D01*
X186288069Y-54557132D01*
X185907712Y-53741455D01*
%TO.C,D66*%
G36*
X169744411Y-64036972D02*
G01*
X169309091Y-65233005D01*
X170124768Y-64852649D01*
X169744411Y-64036972D01*
G37*
X169744411Y-64036972D02*
X169309091Y-65233005D01*
X170124768Y-64852649D01*
X169744411Y-64036972D01*
%TO.C,D55*%
G36*
X129568574Y-67586965D02*
G01*
X128372541Y-68022286D01*
X129188218Y-68402642D01*
X129568574Y-67586965D01*
G37*
X129568574Y-67586965D02*
X128372541Y-68022286D01*
X129188218Y-68402642D01*
X129568574Y-67586965D01*
%TO.C,D48*%
G36*
X98298517Y-44730163D02*
G01*
X97102484Y-45165484D01*
X97918161Y-45545840D01*
X98298517Y-44730163D01*
G37*
X98298517Y-44730163D02*
X97102484Y-45165484D01*
X97918161Y-45545840D01*
X98298517Y-44730163D01*
%TO.C,D47*%
G36*
X78965579Y-41231955D02*
G01*
X77769546Y-41667276D01*
X78585223Y-42047632D01*
X78965579Y-41231955D01*
G37*
X78965579Y-41231955D02*
X77769546Y-41667276D01*
X78585223Y-42047632D01*
X78965579Y-41231955D01*
%TO.C,D41*%
G36*
X56463004Y-44531055D02*
G01*
X55266971Y-44966376D01*
X56082648Y-45346732D01*
X56463004Y-44531055D01*
G37*
X56463004Y-44531055D02*
X55266971Y-44966376D01*
X56082648Y-45346732D01*
X56463004Y-44531055D01*
D11*
%TO.C,D40*%
X247394874Y-83736123D02*
X245582258Y-84581360D01*
X245582258Y-84581360D02*
X243934047Y-81046759D01*
X247394874Y-83736123D02*
X245746663Y-80201523D01*
%TO.C,D39*%
X228061935Y-87234331D02*
X226249319Y-88079568D01*
X226249319Y-88079568D02*
X224601108Y-84544967D01*
X228061935Y-87234331D02*
X226413724Y-83699731D01*
%TO.C,D38*%
X219294453Y-113390234D02*
X217481837Y-114235471D01*
X217481837Y-114235471D02*
X215833626Y-110700870D01*
X219294453Y-113390234D02*
X217646242Y-109855634D01*
%TO.C,D37*%
X200641384Y-122297770D02*
X199003080Y-123444923D01*
X199003080Y-123444923D02*
X196766132Y-120250230D01*
X200641384Y-122297770D02*
X198404436Y-119103077D01*
%TO.C,D36*%
X183818477Y-134309051D02*
X182404263Y-135723265D01*
X182404263Y-135723265D02*
X179646547Y-132965549D01*
X183818477Y-134309051D02*
X181060761Y-131551335D01*
%TO.C,D35*%
X120962998Y-147390526D02*
X119548784Y-145976312D01*
X119548784Y-145976312D02*
X122306500Y-143218596D01*
X120962998Y-147390526D02*
X123720714Y-144632810D01*
%TO.C,D34*%
X106212926Y-132908933D02*
X104574622Y-131761780D01*
X104574622Y-131761780D02*
X106811570Y-128567087D01*
X106212926Y-132908933D02*
X108449874Y-129714240D01*
%TO.C,D33*%
X89172241Y-121208671D02*
X87359625Y-120363434D01*
X87359625Y-120363434D02*
X89007836Y-116828834D01*
X89172241Y-121208671D02*
X90820452Y-117674070D01*
%TO.C,D32*%
X80404758Y-95052768D02*
X78592142Y-94207531D01*
X78592142Y-94207531D02*
X80240353Y-90672931D01*
X80404758Y-95052768D02*
X82052969Y-91518167D01*
%TO.C,D31*%
X61071820Y-91554560D02*
X59259204Y-90709323D01*
X59259204Y-90709323D02*
X60907415Y-87174723D01*
X61071820Y-91554560D02*
X62720031Y-88019959D01*
%TO.C,D30*%
X261867702Y-69815376D02*
X260055086Y-70660613D01*
X260055086Y-70660613D02*
X258406875Y-67126012D01*
X261867702Y-69815376D02*
X260219491Y-66280776D01*
%TO.C,D29*%
X239365127Y-66516276D02*
X237552511Y-67361513D01*
X237552511Y-67361513D02*
X235904300Y-63826912D01*
X239365127Y-66516276D02*
X237716916Y-62981676D01*
%TO.C,D28*%
X220032189Y-70014484D02*
X218219573Y-70859721D01*
X218219573Y-70859721D02*
X216571362Y-67325120D01*
X220032189Y-70014484D02*
X218383978Y-66479884D01*
%TO.C,D27*%
X204925433Y-82575769D02*
X203112817Y-83421006D01*
X203112817Y-83421006D02*
X201464606Y-79886405D01*
X204925433Y-82575769D02*
X203277222Y-79041169D01*
%TO.C,D26*%
X188762131Y-92871286D02*
X186949515Y-93716523D01*
X186949515Y-93716523D02*
X185301304Y-90181922D01*
X188762131Y-92871286D02*
X187113920Y-89336686D01*
%TO.C,D25*%
X119704562Y-100689723D02*
X117891946Y-99844486D01*
X117891946Y-99844486D02*
X119540157Y-96309886D01*
X119704562Y-100689723D02*
X121352773Y-97155122D01*
%TO.C,D24*%
X103541261Y-90394207D02*
X101728645Y-89548970D01*
X101728645Y-89548970D02*
X103376856Y-86014370D01*
X103541261Y-90394207D02*
X105189472Y-86859606D01*
%TO.C,D23*%
X88434505Y-77832921D02*
X86621889Y-76987684D01*
X86621889Y-76987684D02*
X88270100Y-73453084D01*
X88434505Y-77832921D02*
X90082716Y-74298320D01*
%TO.C,D22*%
X69101567Y-74334713D02*
X67288951Y-73489476D01*
X67288951Y-73489476D02*
X68937162Y-69954876D01*
X69101567Y-74334713D02*
X70749778Y-70800112D01*
%TO.C,D21*%
X46598992Y-77633813D02*
X44786376Y-76788576D01*
X44786376Y-76788576D02*
X46434587Y-73253976D01*
X46598992Y-77633813D02*
X48247203Y-74099212D01*
%TO.C,D20*%
X253837955Y-52595529D02*
X252025339Y-53440766D01*
X252025339Y-53440766D02*
X250377128Y-49906165D01*
X253837955Y-52595529D02*
X252189744Y-49060929D01*
%TO.C,D19*%
X231335380Y-49296429D02*
X229522764Y-50141666D01*
X229522764Y-50141666D02*
X227874553Y-46607065D01*
X231335380Y-49296429D02*
X229687169Y-45761829D01*
%TO.C,D18*%
X212002442Y-52794637D02*
X210189826Y-53639874D01*
X210189826Y-53639874D02*
X208541615Y-50105273D01*
X212002442Y-52794637D02*
X210354231Y-49260037D01*
%TO.C,D17*%
X196895686Y-65355922D02*
X195083070Y-66201159D01*
X195083070Y-66201159D02*
X193434859Y-62666558D01*
X196895686Y-65355922D02*
X195247475Y-61821322D01*
%TO.C,D16*%
X180732384Y-75651439D02*
X178919768Y-76496676D01*
X178919768Y-76496676D02*
X177271557Y-72962075D01*
X180732384Y-75651439D02*
X179084173Y-72116839D01*
%TO.C,D15*%
X127734309Y-83469876D02*
X125921693Y-82624639D01*
X125921693Y-82624639D02*
X127569904Y-79090039D01*
X127734309Y-83469876D02*
X129382520Y-79935275D01*
%TO.C,D14*%
X111571008Y-73174360D02*
X109758392Y-72329123D01*
X109758392Y-72329123D02*
X111406603Y-68794523D01*
X111571008Y-73174360D02*
X113219219Y-69639759D01*
%TO.C,D13*%
X96464252Y-60613074D02*
X94651636Y-59767837D01*
X94651636Y-59767837D02*
X96299847Y-56233237D01*
X96464252Y-60613074D02*
X98112463Y-57078473D01*
%TO.C,D12*%
X77131314Y-57114866D02*
X75318698Y-56269629D01*
X75318698Y-56269629D02*
X76966909Y-52735029D01*
X77131314Y-57114866D02*
X78779525Y-53580265D01*
%TO.C,D11*%
X54628739Y-60413966D02*
X52816123Y-59568729D01*
X52816123Y-59568729D02*
X54464334Y-56034129D01*
X54628739Y-60413966D02*
X56276950Y-56879365D01*
%TO.C,D10*%
X245808208Y-35375681D02*
X243995592Y-36220918D01*
X243995592Y-36220918D02*
X242347381Y-32686317D01*
X245808208Y-35375681D02*
X244159997Y-31841081D01*
%TO.C,D9*%
X223305633Y-32076582D02*
X221493017Y-32921819D01*
X221493017Y-32921819D02*
X219844806Y-29387218D01*
X223305633Y-32076582D02*
X221657422Y-28541982D01*
%TO.C,D8*%
X203972695Y-35574790D02*
X202160079Y-36420027D01*
X202160079Y-36420027D02*
X200511868Y-32885426D01*
X203972695Y-35574790D02*
X202324484Y-32040190D01*
%TO.C,D7*%
X188865939Y-48136075D02*
X187053323Y-48981312D01*
X187053323Y-48981312D02*
X185405112Y-45446711D01*
X188865939Y-48136075D02*
X187217728Y-44601475D01*
%TO.C,D6*%
X172702637Y-58431591D02*
X170890021Y-59276828D01*
X170890021Y-59276828D02*
X169241810Y-55742227D01*
X172702637Y-58431591D02*
X171054426Y-54896991D01*
%TO.C,D5*%
X135764056Y-66250029D02*
X133951440Y-65404792D01*
X133951440Y-65404792D02*
X135599651Y-61870192D01*
X135764056Y-66250029D02*
X137412267Y-62715428D01*
%TO.C,D4*%
X119600755Y-55954513D02*
X117788139Y-55109276D01*
X117788139Y-55109276D02*
X119436350Y-51574676D01*
X119600755Y-55954513D02*
X121248966Y-52419912D01*
%TO.C,D3*%
X104493999Y-43393227D02*
X102681383Y-42547990D01*
X102681383Y-42547990D02*
X104329594Y-39013390D01*
X104493999Y-43393227D02*
X106142210Y-39858626D01*
%TO.C,D2*%
X85161060Y-39895019D02*
X83348444Y-39049782D01*
X83348444Y-39049782D02*
X84996655Y-35515182D01*
X85161060Y-39895019D02*
X86809271Y-36360418D01*
%TO.C,D1*%
X62658485Y-43194119D02*
X60845869Y-42348882D01*
X60845869Y-42348882D02*
X62494080Y-38814282D01*
X62658485Y-43194119D02*
X64306696Y-39659518D01*
%TO.C,C8*%
X139913845Y-78323404D02*
X139391341Y-78323404D01*
X139913845Y-79793404D02*
X139391341Y-79793404D01*
%TO.C,C7*%
X153191341Y-95593404D02*
X153713845Y-95593404D01*
X153191341Y-94123404D02*
X153713845Y-94123404D01*
%TO.C,C6*%
X139987593Y-91319656D02*
X139987593Y-90797152D01*
X138517593Y-91319656D02*
X138517593Y-90797152D01*
%TO.C,C4*%
X159191341Y-83593404D02*
X159713845Y-83593404D01*
X159191341Y-82123404D02*
X159713845Y-82123404D01*
%TO.C,C3*%
X163391341Y-86393404D02*
X163913845Y-86393404D01*
X163391341Y-84923404D02*
X163913845Y-84923404D01*
%TO.C,C2*%
X163391341Y-88993404D02*
X163913845Y-88993404D01*
X163391341Y-87523404D02*
X163913845Y-87523404D01*
%TO.C,C1*%
X148713845Y-77123404D02*
X148191341Y-77123404D01*
X148713845Y-78593404D02*
X148191341Y-78593404D01*
%TO.C,D82*%
D13*
X170104973Y-121644118D02*
X169104973Y-121644118D01*
X169104973Y-121882213D01*
X169152593Y-122025070D01*
X169247831Y-122120308D01*
X169343069Y-122167927D01*
X169533545Y-122215546D01*
X169676402Y-122215546D01*
X169866878Y-122167927D01*
X169962116Y-122120308D01*
X170057354Y-122025070D01*
X170104973Y-121882213D01*
X170104973Y-121644118D01*
X169533545Y-122786975D02*
X169485926Y-122691737D01*
X169438307Y-122644118D01*
X169343069Y-122596499D01*
X169295450Y-122596499D01*
X169200212Y-122644118D01*
X169152593Y-122691737D01*
X169104973Y-122786975D01*
X169104973Y-122977451D01*
X169152593Y-123072689D01*
X169200212Y-123120308D01*
X169295450Y-123167927D01*
X169343069Y-123167927D01*
X169438307Y-123120308D01*
X169485926Y-123072689D01*
X169533545Y-122977451D01*
X169533545Y-122786975D01*
X169581164Y-122691737D01*
X169628783Y-122644118D01*
X169724021Y-122596499D01*
X169914497Y-122596499D01*
X170009735Y-122644118D01*
X170057354Y-122691737D01*
X170104973Y-122786975D01*
X170104973Y-122977451D01*
X170057354Y-123072689D01*
X170009735Y-123120308D01*
X169914497Y-123167927D01*
X169724021Y-123167927D01*
X169628783Y-123120308D01*
X169581164Y-123072689D01*
X169533545Y-122977451D01*
X169200212Y-123548880D02*
X169152593Y-123596499D01*
X169104973Y-123691737D01*
X169104973Y-123929832D01*
X169152593Y-124025070D01*
X169200212Y-124072689D01*
X169295450Y-124120308D01*
X169390688Y-124120308D01*
X169533545Y-124072689D01*
X170104973Y-123501261D01*
X170104973Y-124120308D01*
%TO.C,D81*%
X125904973Y-121644118D02*
X124904973Y-121644118D01*
X124904973Y-121882213D01*
X124952593Y-122025070D01*
X125047831Y-122120308D01*
X125143069Y-122167927D01*
X125333545Y-122215546D01*
X125476402Y-122215546D01*
X125666878Y-122167927D01*
X125762116Y-122120308D01*
X125857354Y-122025070D01*
X125904973Y-121882213D01*
X125904973Y-121644118D01*
X125333545Y-122786975D02*
X125285926Y-122691737D01*
X125238307Y-122644118D01*
X125143069Y-122596499D01*
X125095450Y-122596499D01*
X125000212Y-122644118D01*
X124952593Y-122691737D01*
X124904973Y-122786975D01*
X124904973Y-122977451D01*
X124952593Y-123072689D01*
X125000212Y-123120308D01*
X125095450Y-123167927D01*
X125143069Y-123167927D01*
X125238307Y-123120308D01*
X125285926Y-123072689D01*
X125333545Y-122977451D01*
X125333545Y-122786975D01*
X125381164Y-122691737D01*
X125428783Y-122644118D01*
X125524021Y-122596499D01*
X125714497Y-122596499D01*
X125809735Y-122644118D01*
X125857354Y-122691737D01*
X125904973Y-122786975D01*
X125904973Y-122977451D01*
X125857354Y-123072689D01*
X125809735Y-123120308D01*
X125714497Y-123167927D01*
X125524021Y-123167927D01*
X125428783Y-123120308D01*
X125381164Y-123072689D01*
X125333545Y-122977451D01*
X125904973Y-124120308D02*
X125904973Y-123548880D01*
X125904973Y-123834594D02*
X124904973Y-123834594D01*
X125047831Y-123739356D01*
X125143069Y-123644118D01*
X125190688Y-123548880D01*
%TO.C,J1*%
X134304973Y-138125070D02*
X135019259Y-138125070D01*
X135162116Y-138077451D01*
X135257354Y-137982213D01*
X135304973Y-137839356D01*
X135304973Y-137744118D01*
X135304973Y-139125070D02*
X135304973Y-138553642D01*
X135304973Y-138839356D02*
X134304973Y-138839356D01*
X134447831Y-138744118D01*
X134543069Y-138648880D01*
X134590688Y-138553642D01*
X136438307Y-128125070D02*
X137438307Y-128125070D01*
X136485926Y-128125070D02*
X136438307Y-128220308D01*
X136438307Y-128410784D01*
X136485926Y-128506023D01*
X136533545Y-128553642D01*
X136628783Y-128601261D01*
X136914497Y-128601261D01*
X137009735Y-128553642D01*
X137057354Y-128506023D01*
X137104973Y-128410784D01*
X137104973Y-128220308D01*
X137057354Y-128125070D01*
X137104973Y-129029832D02*
X136438307Y-129029832D01*
X136104973Y-129029832D02*
X136152593Y-128982213D01*
X136200212Y-129029832D01*
X136152593Y-129077451D01*
X136104973Y-129029832D01*
X136200212Y-129029832D01*
X137104973Y-129506023D02*
X136438307Y-129506023D01*
X136533545Y-129506023D02*
X136485926Y-129553642D01*
X136438307Y-129648880D01*
X136438307Y-129791737D01*
X136485926Y-129886975D01*
X136581164Y-129934594D01*
X137104973Y-129934594D01*
X136581164Y-129934594D02*
X136485926Y-129982213D01*
X136438307Y-130077451D01*
X136438307Y-130220308D01*
X136485926Y-130315546D01*
X136581164Y-130363165D01*
X137104973Y-130363165D01*
X137104973Y-130982213D02*
X137057354Y-130886975D01*
X137009735Y-130839356D01*
X136914497Y-130791737D01*
X136628783Y-130791737D01*
X136533545Y-130839356D01*
X136485926Y-130886975D01*
X136438307Y-130982213D01*
X136438307Y-131125070D01*
X136485926Y-131220308D01*
X136533545Y-131267927D01*
X136628783Y-131315546D01*
X136914497Y-131315546D01*
X137009735Y-131267927D01*
X137057354Y-131220308D01*
X137104973Y-131125070D01*
X137104973Y-130982213D01*
X137104973Y-131744118D02*
X136438307Y-131744118D01*
X136628783Y-131744118D02*
X136533545Y-131791737D01*
X136485926Y-131839356D01*
X136438307Y-131934594D01*
X136438307Y-132029832D01*
X137104973Y-132506023D02*
X137057354Y-132410784D01*
X137009735Y-132363165D01*
X136914497Y-132315546D01*
X136628783Y-132315546D01*
X136533545Y-132363165D01*
X136485926Y-132410784D01*
X136438307Y-132506023D01*
X136438307Y-132648880D01*
X136485926Y-132744118D01*
X136533545Y-132791737D01*
X136628783Y-132839356D01*
X136914497Y-132839356D01*
X137009735Y-132791737D01*
X137057354Y-132744118D01*
X137104973Y-132648880D01*
X137104973Y-132506023D01*
X136438307Y-133267927D02*
X137104973Y-133267927D01*
X136533545Y-133267927D02*
X136485926Y-133315546D01*
X136438307Y-133410784D01*
X136438307Y-133553642D01*
X136485926Y-133648880D01*
X136581164Y-133696499D01*
X137104973Y-133696499D01*
X137104973Y-134172689D02*
X136438307Y-134172689D01*
X136104973Y-134172689D02*
X136152593Y-134125070D01*
X136200212Y-134172689D01*
X136152593Y-134220308D01*
X136104973Y-134172689D01*
X136200212Y-134172689D01*
X136438307Y-135267927D02*
X136438307Y-135648880D01*
X136104973Y-135410784D02*
X136962116Y-135410784D01*
X137057354Y-135458404D01*
X137104973Y-135553642D01*
X137104973Y-135648880D01*
X137104973Y-135982213D02*
X136438307Y-135982213D01*
X136628783Y-135982213D02*
X136533545Y-136029832D01*
X136485926Y-136077451D01*
X136438307Y-136172689D01*
X136438307Y-136267927D01*
X137104973Y-137029832D02*
X136581164Y-137029832D01*
X136485926Y-136982213D01*
X136438307Y-136886975D01*
X136438307Y-136696499D01*
X136485926Y-136601261D01*
X137057354Y-137029832D02*
X137104973Y-136934594D01*
X137104973Y-136696499D01*
X137057354Y-136601261D01*
X136962116Y-136553642D01*
X136866878Y-136553642D01*
X136771640Y-136601261D01*
X136724021Y-136696499D01*
X136724021Y-136934594D01*
X136676402Y-137029832D01*
X137057354Y-137934594D02*
X137104973Y-137839356D01*
X137104973Y-137648880D01*
X137057354Y-137553642D01*
X137009735Y-137506023D01*
X136914497Y-137458404D01*
X136628783Y-137458404D01*
X136533545Y-137506023D01*
X136485926Y-137553642D01*
X136438307Y-137648880D01*
X136438307Y-137839356D01*
X136485926Y-137934594D01*
X137104973Y-138363165D02*
X136104973Y-138363165D01*
X136724021Y-138458404D02*
X137104973Y-138744118D01*
X136438307Y-138744118D02*
X136819259Y-138363165D01*
X137104973Y-139172689D02*
X136104973Y-139172689D01*
X136485926Y-139172689D02*
X136438307Y-139267927D01*
X136438307Y-139458404D01*
X136485926Y-139553642D01*
X136533545Y-139601261D01*
X136628783Y-139648880D01*
X136914497Y-139648880D01*
X137009735Y-139601261D01*
X137057354Y-139553642D01*
X137104973Y-139458404D01*
X137104973Y-139267927D01*
X137057354Y-139172689D01*
X137104973Y-140506023D02*
X136581164Y-140506023D01*
X136485926Y-140458404D01*
X136438307Y-140363165D01*
X136438307Y-140172689D01*
X136485926Y-140077451D01*
X137057354Y-140506023D02*
X137104973Y-140410784D01*
X137104973Y-140172689D01*
X137057354Y-140077451D01*
X136962116Y-140029832D01*
X136866878Y-140029832D01*
X136771640Y-140077451D01*
X136724021Y-140172689D01*
X136724021Y-140410784D01*
X136676402Y-140506023D01*
X137104973Y-141125070D02*
X137057354Y-141029832D01*
X136962116Y-140982213D01*
X136104973Y-140982213D01*
X137104973Y-141648880D02*
X137057354Y-141553642D01*
X136962116Y-141506023D01*
X136104973Y-141506023D01*
X137104973Y-142791737D02*
X136104973Y-142791737D01*
X136485926Y-142791737D02*
X136438307Y-142886975D01*
X136438307Y-143077451D01*
X136485926Y-143172689D01*
X136533545Y-143220308D01*
X136628783Y-143267927D01*
X136914497Y-143267927D01*
X137009735Y-143220308D01*
X137057354Y-143172689D01*
X137104973Y-143077451D01*
X137104973Y-142886975D01*
X137057354Y-142791737D01*
X137104973Y-143696499D02*
X136438307Y-143696499D01*
X136628783Y-143696499D02*
X136533545Y-143744118D01*
X136485926Y-143791737D01*
X136438307Y-143886975D01*
X136438307Y-143982213D01*
X137057354Y-144696499D02*
X137104973Y-144601261D01*
X137104973Y-144410784D01*
X137057354Y-144315546D01*
X136962116Y-144267927D01*
X136581164Y-144267927D01*
X136485926Y-144315546D01*
X136438307Y-144410784D01*
X136438307Y-144601261D01*
X136485926Y-144696499D01*
X136581164Y-144744118D01*
X136676402Y-144744118D01*
X136771640Y-144267927D01*
X137104973Y-145601261D02*
X136581164Y-145601261D01*
X136485926Y-145553642D01*
X136438307Y-145458404D01*
X136438307Y-145267927D01*
X136485926Y-145172689D01*
X137057354Y-145601261D02*
X137104973Y-145506023D01*
X137104973Y-145267927D01*
X137057354Y-145172689D01*
X136962116Y-145125070D01*
X136866878Y-145125070D01*
X136771640Y-145172689D01*
X136724021Y-145267927D01*
X136724021Y-145506023D01*
X136676402Y-145601261D01*
X137104973Y-146077451D02*
X136104973Y-146077451D01*
X136724021Y-146172689D02*
X137104973Y-146458404D01*
X136438307Y-146458404D02*
X136819259Y-146077451D01*
X137104973Y-147029832D02*
X137057354Y-146934594D01*
X137009735Y-146886975D01*
X136914497Y-146839356D01*
X136628783Y-146839356D01*
X136533545Y-146886975D01*
X136485926Y-146934594D01*
X136438307Y-147029832D01*
X136438307Y-147172689D01*
X136485926Y-147267927D01*
X136533545Y-147315546D01*
X136628783Y-147363165D01*
X136914497Y-147363165D01*
X137009735Y-147315546D01*
X137057354Y-147267927D01*
X137104973Y-147172689D01*
X137104973Y-147029832D01*
X136438307Y-148220308D02*
X137104973Y-148220308D01*
X136438307Y-147791737D02*
X136962116Y-147791737D01*
X137057354Y-147839356D01*
X137104973Y-147934594D01*
X137104973Y-148077451D01*
X137057354Y-148172689D01*
X137009735Y-148220308D01*
X136438307Y-148553642D02*
X136438307Y-148934594D01*
X136104973Y-148696499D02*
X136962116Y-148696499D01*
X137057354Y-148744118D01*
X137104973Y-148839356D01*
X137104973Y-148934594D01*
%TO.C,SW24*%
X101066444Y-78095801D02*
X100916847Y-78078585D01*
X100701059Y-77977961D01*
X100634869Y-77894554D01*
X100611836Y-77831272D01*
X100608928Y-77724832D01*
X100649177Y-77638517D01*
X100732584Y-77572327D01*
X100795867Y-77549294D01*
X100902306Y-77546386D01*
X101095061Y-77583727D01*
X101201501Y-77580819D01*
X101264783Y-77557786D01*
X101348190Y-77491596D01*
X101388439Y-77405281D01*
X101385531Y-77298841D01*
X101362498Y-77235559D01*
X101296308Y-77152152D01*
X101080520Y-77051529D01*
X100930923Y-77034312D01*
X100648945Y-76850282D02*
X100010539Y-77655966D01*
X100139779Y-76928105D01*
X99665279Y-77494969D01*
X99872110Y-76488038D01*
X99529758Y-76433480D02*
X99506725Y-76370198D01*
X99440535Y-76286791D01*
X99224747Y-76186168D01*
X99118307Y-76189076D01*
X99055025Y-76212109D01*
X98971618Y-76278299D01*
X98931369Y-76364614D01*
X98914152Y-76514211D01*
X99190546Y-77273597D01*
X98629499Y-77011977D01*
X98134409Y-76045527D02*
X97852664Y-76649732D01*
X98511194Y-75800891D02*
X98425111Y-76548877D01*
X97864064Y-76287256D01*
%TO.C,SW4*%
X116694363Y-43454859D02*
X116544766Y-43437643D01*
X116328978Y-43337019D01*
X116262788Y-43253613D01*
X116239755Y-43190330D01*
X116236847Y-43083891D01*
X116277096Y-42997576D01*
X116360503Y-42931385D01*
X116423785Y-42908352D01*
X116530225Y-42905444D01*
X116722980Y-42942786D01*
X116829420Y-42939877D01*
X116892702Y-42916845D01*
X116976109Y-42850654D01*
X117016358Y-42764339D01*
X117013450Y-42657899D01*
X116990417Y-42594617D01*
X116924227Y-42511210D01*
X116708439Y-42410587D01*
X116558842Y-42393370D01*
X116276864Y-42209340D02*
X115638458Y-43015025D01*
X115767698Y-42287163D01*
X115293198Y-42854027D01*
X115500029Y-41847096D01*
X114625478Y-41807079D02*
X114343733Y-42411284D01*
X115002263Y-41562442D02*
X114916181Y-42310428D01*
X114355133Y-42048808D01*
%TO.C,SW14*%
X109096191Y-60875953D02*
X108946594Y-60858737D01*
X108730806Y-60758113D01*
X108664616Y-60674706D01*
X108641583Y-60611424D01*
X108638675Y-60504984D01*
X108678924Y-60418669D01*
X108762331Y-60352479D01*
X108825614Y-60329446D01*
X108932053Y-60326538D01*
X109124808Y-60363879D01*
X109231248Y-60360971D01*
X109294530Y-60337938D01*
X109377937Y-60271748D01*
X109418186Y-60185433D01*
X109415278Y-60078993D01*
X109392245Y-60015711D01*
X109326055Y-59932304D01*
X109110267Y-59831681D01*
X108960670Y-59814464D01*
X108678692Y-59630434D02*
X108040286Y-60436118D01*
X108169526Y-59708257D01*
X107695026Y-60275121D01*
X107901857Y-59268190D01*
X106659246Y-59792129D02*
X107177136Y-60033625D01*
X106918191Y-59912877D02*
X107340809Y-59006569D01*
X107366750Y-59176291D01*
X107412816Y-59302855D01*
X107479006Y-59386262D01*
X106164156Y-58825679D02*
X105882411Y-59429884D01*
X106540941Y-58581043D02*
X106454858Y-59329029D01*
X105893811Y-59067408D01*
%TO.C,SW34*%
X105911304Y-120367620D02*
X105766969Y-120324688D01*
X105571933Y-120188122D01*
X105521231Y-120094489D01*
X105509537Y-120028168D01*
X105525156Y-119922841D01*
X105579783Y-119844826D01*
X105673416Y-119794125D01*
X105739737Y-119782431D01*
X105845064Y-119798050D01*
X106028406Y-119868295D01*
X106133734Y-119883914D01*
X106200054Y-119872220D01*
X106293688Y-119821519D01*
X106348314Y-119743504D01*
X106363933Y-119638177D01*
X106352239Y-119571856D01*
X106301538Y-119478223D01*
X106106502Y-119341657D01*
X105962167Y-119298725D01*
X105716429Y-119068525D02*
X104947817Y-119751112D01*
X105201485Y-119056750D01*
X104635759Y-119532606D01*
X105014299Y-118576888D01*
X104780256Y-118413009D02*
X104273162Y-118057938D01*
X104327707Y-118561188D01*
X104210685Y-118479249D01*
X104105358Y-118463630D01*
X104039037Y-118475324D01*
X103945404Y-118526025D01*
X103808838Y-118721061D01*
X103793219Y-118826389D01*
X103804913Y-118892709D01*
X103855614Y-118986343D01*
X104089658Y-119150222D01*
X104194985Y-119165841D01*
X104261306Y-119154147D01*
X103379839Y-117839352D02*
X102997455Y-118385453D01*
X103793381Y-117663860D02*
X103578719Y-118385534D01*
X103071625Y-118030463D01*
%TO.C,SW7*%
X177422457Y-42327877D02*
X177313109Y-42431409D01*
X177097321Y-42532032D01*
X176990882Y-42529124D01*
X176927599Y-42506091D01*
X176844192Y-42439901D01*
X176803943Y-42353586D01*
X176806851Y-42247146D01*
X176829884Y-42183864D01*
X176896074Y-42100457D01*
X177048580Y-41976801D01*
X177114770Y-41893394D01*
X177137803Y-41830112D01*
X177140711Y-41723672D01*
X177100462Y-41637357D01*
X177017055Y-41571167D01*
X176953773Y-41548134D01*
X176847333Y-41545226D01*
X176631545Y-41645849D01*
X176522198Y-41749381D01*
X176199970Y-41847096D02*
X176406801Y-42854027D01*
X175932301Y-42287163D01*
X176061541Y-43015025D01*
X175423135Y-42209340D01*
X175164190Y-42330088D02*
X174559985Y-42611834D01*
X175371021Y-43337019D01*
%TO.C,SW40*%
X236382967Y-77726679D02*
X236273619Y-77830210D01*
X236057831Y-77930834D01*
X235951392Y-77927925D01*
X235888109Y-77904893D01*
X235804703Y-77838702D01*
X235764453Y-77752387D01*
X235767361Y-77645947D01*
X235790394Y-77582665D01*
X235856585Y-77499258D01*
X236009090Y-77375602D01*
X236075280Y-77292195D01*
X236098313Y-77228913D01*
X236101221Y-77122473D01*
X236060972Y-77036158D01*
X235977565Y-76969968D01*
X235914283Y-76946935D01*
X235807843Y-76944027D01*
X235592056Y-77044650D01*
X235482708Y-77148182D01*
X235160480Y-77245897D02*
X235367311Y-78252828D01*
X234892811Y-77685964D01*
X235022051Y-78413826D01*
X234383645Y-77608141D01*
X233790840Y-78252364D02*
X234072586Y-78856569D01*
X233845630Y-77806480D02*
X234363288Y-78353219D01*
X233802240Y-78614840D01*
X233002605Y-78252131D02*
X232916290Y-78292381D01*
X232850099Y-78375787D01*
X232827067Y-78439070D01*
X232824158Y-78545509D01*
X232861500Y-78738264D01*
X232962123Y-78954052D01*
X233085779Y-79106557D01*
X233169186Y-79172747D01*
X233232468Y-79195780D01*
X233338908Y-79198688D01*
X233425223Y-79158439D01*
X233491413Y-79075032D01*
X233514446Y-79011750D01*
X233517354Y-78905310D01*
X233480013Y-78712555D01*
X233379390Y-78496768D01*
X233255734Y-78344262D01*
X233172327Y-78278072D01*
X233109044Y-78255039D01*
X233002605Y-78252131D01*
%TO.C,SW39*%
X217050029Y-81224887D02*
X216940681Y-81328418D01*
X216724893Y-81429042D01*
X216618454Y-81426133D01*
X216555171Y-81403101D01*
X216471765Y-81336910D01*
X216431515Y-81250595D01*
X216434423Y-81144155D01*
X216457456Y-81080873D01*
X216523647Y-80997466D01*
X216676152Y-80873810D01*
X216742342Y-80790403D01*
X216765375Y-80727121D01*
X216768283Y-80620681D01*
X216728034Y-80534366D01*
X216644627Y-80468176D01*
X216581345Y-80445143D01*
X216474905Y-80442235D01*
X216259118Y-80542858D01*
X216149770Y-80646390D01*
X215827542Y-80744105D02*
X216034373Y-81751036D01*
X215559873Y-81184172D01*
X215689113Y-81912034D01*
X215050707Y-81106349D01*
X214791762Y-81227097D02*
X214230714Y-81488718D01*
X214693814Y-81693106D01*
X214564342Y-81753480D01*
X214498152Y-81836887D01*
X214475119Y-81900169D01*
X214472211Y-82006608D01*
X214572834Y-82222396D01*
X214656241Y-82288586D01*
X214719523Y-82311619D01*
X214825963Y-82314527D01*
X215084908Y-82193779D01*
X215151098Y-82110372D01*
X215174131Y-82047090D01*
X214221758Y-82596273D02*
X214049128Y-82676772D01*
X213942688Y-82673863D01*
X213879406Y-82650831D01*
X213732717Y-82561607D01*
X213609060Y-82409102D01*
X213448063Y-82063842D01*
X213450971Y-81957402D01*
X213474004Y-81894120D01*
X213540194Y-81810713D01*
X213712824Y-81730214D01*
X213819264Y-81733123D01*
X213882546Y-81756155D01*
X213965953Y-81822346D01*
X214066576Y-82038133D01*
X214063668Y-82144573D01*
X214040635Y-82207855D01*
X213974445Y-82291262D01*
X213801815Y-82371761D01*
X213695375Y-82368853D01*
X213632093Y-82345820D01*
X213548686Y-82279630D01*
%TO.C,SW38*%
X208282546Y-107380790D02*
X208173198Y-107484321D01*
X207957410Y-107584945D01*
X207850971Y-107582036D01*
X207787688Y-107559004D01*
X207704282Y-107492813D01*
X207664032Y-107406498D01*
X207666940Y-107300058D01*
X207689973Y-107236776D01*
X207756164Y-107153369D01*
X207908669Y-107029713D01*
X207974859Y-106946306D01*
X207997892Y-106883024D01*
X208000800Y-106776584D01*
X207960551Y-106690269D01*
X207877144Y-106624079D01*
X207813862Y-106601046D01*
X207707422Y-106598138D01*
X207491635Y-106698761D01*
X207382287Y-106802293D01*
X207060059Y-106900008D02*
X207266890Y-107906939D01*
X206792390Y-107340075D01*
X206921630Y-108067937D01*
X206283224Y-107262252D01*
X206024279Y-107383000D02*
X205463231Y-107644621D01*
X205926331Y-107849009D01*
X205796859Y-107909383D01*
X205730669Y-107992790D01*
X205707636Y-108056072D01*
X205704728Y-108162511D01*
X205805351Y-108378299D01*
X205888758Y-108444489D01*
X205952040Y-108467522D01*
X206058480Y-108470430D01*
X206317425Y-108349682D01*
X206383615Y-108266275D01*
X206406648Y-108202993D01*
X205126463Y-108274535D02*
X205192654Y-108191128D01*
X205215687Y-108127846D01*
X205218595Y-108021406D01*
X205198470Y-107978249D01*
X205115063Y-107912058D01*
X205051781Y-107889026D01*
X204945341Y-107886117D01*
X204772711Y-107966616D01*
X204706521Y-108050023D01*
X204683488Y-108113305D01*
X204680580Y-108219745D01*
X204700705Y-108262902D01*
X204784111Y-108329093D01*
X204847394Y-108352126D01*
X204953833Y-108355034D01*
X205126463Y-108274535D01*
X205232903Y-108277443D01*
X205296185Y-108300476D01*
X205379592Y-108366666D01*
X205460091Y-108539296D01*
X205457183Y-108645736D01*
X205434150Y-108709018D01*
X205367960Y-108792425D01*
X205195329Y-108872924D01*
X205088890Y-108870016D01*
X205025608Y-108846983D01*
X204942201Y-108780793D01*
X204861702Y-108608163D01*
X204864610Y-108501723D01*
X204887643Y-108438441D01*
X204953833Y-108355034D01*
%TO.C,SW37*%
X188753246Y-118291820D02*
X188663537Y-118412767D01*
X188468501Y-118549332D01*
X188363173Y-118564951D01*
X188296853Y-118553257D01*
X188203219Y-118502556D01*
X188148593Y-118424542D01*
X188132974Y-118319214D01*
X188144668Y-118252894D01*
X188195369Y-118159260D01*
X188324085Y-118011000D01*
X188374786Y-117917367D01*
X188386480Y-117851046D01*
X188370861Y-117745718D01*
X188316235Y-117667704D01*
X188222601Y-117617003D01*
X188156281Y-117605309D01*
X188050953Y-117620928D01*
X187855917Y-117757493D01*
X187766209Y-117878440D01*
X187465845Y-118030625D02*
X187844385Y-118986343D01*
X187278659Y-118510487D01*
X187532327Y-119204848D01*
X186763714Y-118522262D01*
X186529671Y-118686141D02*
X186022577Y-119041212D01*
X186514133Y-119162078D01*
X186397111Y-119244017D01*
X186346410Y-119337651D01*
X186334716Y-119403971D01*
X186350335Y-119509299D01*
X186486901Y-119704335D01*
X186580534Y-119755037D01*
X186646855Y-119766731D01*
X186752182Y-119751112D01*
X186986226Y-119587233D01*
X187036927Y-119493599D01*
X187048621Y-119427279D01*
X185749526Y-119232404D02*
X185203425Y-119614789D01*
X186128066Y-120188122D01*
%TO.C,SW36*%
X171415320Y-132428316D02*
X171347976Y-132563003D01*
X171179618Y-132731362D01*
X171078602Y-132765033D01*
X171011259Y-132765033D01*
X170910244Y-132731362D01*
X170842900Y-132664018D01*
X170809228Y-132563003D01*
X170809228Y-132495659D01*
X170842900Y-132394644D01*
X170943915Y-132226285D01*
X170977587Y-132125270D01*
X170977587Y-132057927D01*
X170943915Y-131956911D01*
X170876572Y-131889568D01*
X170775557Y-131855896D01*
X170708213Y-131855896D01*
X170607198Y-131889568D01*
X170438839Y-132057927D01*
X170371496Y-132192614D01*
X170102122Y-132394644D02*
X170640870Y-133270110D01*
X170001106Y-132899720D01*
X170371496Y-133539484D01*
X169496030Y-133000736D01*
X169294000Y-133202766D02*
X168856267Y-133640499D01*
X169361343Y-133674171D01*
X169260328Y-133775186D01*
X169226656Y-133876201D01*
X169226656Y-133943545D01*
X169260328Y-134044560D01*
X169428687Y-134212919D01*
X169529702Y-134246590D01*
X169597045Y-134246590D01*
X169698061Y-134212919D01*
X169900091Y-134010888D01*
X169933763Y-133909873D01*
X169933763Y-133842529D01*
X168250175Y-134246590D02*
X168384862Y-134111903D01*
X168485878Y-134078232D01*
X168553221Y-134078232D01*
X168721580Y-134111903D01*
X168889939Y-134212919D01*
X169159313Y-134482293D01*
X169192984Y-134583308D01*
X169192984Y-134650651D01*
X169159313Y-134751667D01*
X169024626Y-134886354D01*
X168923610Y-134920025D01*
X168856267Y-134920025D01*
X168755252Y-134886354D01*
X168586893Y-134717995D01*
X168553221Y-134616980D01*
X168553221Y-134549636D01*
X168586893Y-134448621D01*
X168721580Y-134313934D01*
X168822595Y-134280262D01*
X168889939Y-134280262D01*
X168990954Y-134313934D01*
%TO.C,SW35*%
X122843732Y-134987369D02*
X122709045Y-134920025D01*
X122540686Y-134751667D01*
X122507015Y-134650651D01*
X122507015Y-134583308D01*
X122540686Y-134482293D01*
X122608030Y-134414949D01*
X122709045Y-134381277D01*
X122776389Y-134381277D01*
X122877404Y-134414949D01*
X123045763Y-134515964D01*
X123146778Y-134549636D01*
X123214121Y-134549636D01*
X123315137Y-134515964D01*
X123382480Y-134448621D01*
X123416152Y-134347606D01*
X123416152Y-134280262D01*
X123382480Y-134179247D01*
X123214121Y-134010888D01*
X123079434Y-133943545D01*
X122877404Y-133674171D02*
X122001938Y-134212919D01*
X122372328Y-133573155D01*
X121732564Y-133943545D01*
X122271312Y-133068079D01*
X122069282Y-132866049D02*
X121631549Y-132428316D01*
X121597877Y-132933392D01*
X121496862Y-132832377D01*
X121395847Y-132798705D01*
X121328503Y-132798705D01*
X121227488Y-132832377D01*
X121059129Y-133000736D01*
X121025458Y-133101751D01*
X121025458Y-133169094D01*
X121059129Y-133270110D01*
X121261160Y-133472140D01*
X121362175Y-133505812D01*
X121429519Y-133505812D01*
X120991786Y-131788553D02*
X121328503Y-132125270D01*
X121025458Y-132495659D01*
X121025458Y-132428316D01*
X120991786Y-132327301D01*
X120823427Y-132158942D01*
X120722412Y-132125270D01*
X120655068Y-132125270D01*
X120554053Y-132158942D01*
X120385694Y-132327301D01*
X120352023Y-132428316D01*
X120352023Y-132495659D01*
X120385694Y-132596675D01*
X120554053Y-132765033D01*
X120655068Y-132798705D01*
X120722412Y-132798705D01*
%TO.C,SW33*%
X86697424Y-108910265D02*
X86547827Y-108893049D01*
X86332039Y-108792425D01*
X86265849Y-108709018D01*
X86242816Y-108645736D01*
X86239908Y-108539296D01*
X86280157Y-108452981D01*
X86363564Y-108386791D01*
X86426847Y-108363758D01*
X86533286Y-108360850D01*
X86726041Y-108398191D01*
X86832481Y-108395283D01*
X86895763Y-108372250D01*
X86979170Y-108306060D01*
X87019419Y-108219745D01*
X87016511Y-108113305D01*
X86993478Y-108050023D01*
X86927288Y-107966616D01*
X86711500Y-107865993D01*
X86561903Y-107848776D01*
X86279925Y-107664746D02*
X85641519Y-108470430D01*
X85770759Y-107742569D01*
X85296259Y-108309433D01*
X85503090Y-107302502D01*
X85244145Y-107181754D02*
X84683097Y-106920133D01*
X84824202Y-107406266D01*
X84694730Y-107345892D01*
X84588290Y-107348800D01*
X84525008Y-107371833D01*
X84441601Y-107438023D01*
X84340978Y-107653811D01*
X84343886Y-107760250D01*
X84366919Y-107823533D01*
X84433109Y-107906939D01*
X84692054Y-108027687D01*
X84798494Y-108024779D01*
X84861776Y-108001746D01*
X84380994Y-106779260D02*
X83819947Y-106517639D01*
X83961052Y-107003772D01*
X83831579Y-106943398D01*
X83725140Y-106946306D01*
X83661858Y-106969339D01*
X83578451Y-107035529D01*
X83477827Y-107251317D01*
X83480735Y-107357757D01*
X83503768Y-107421039D01*
X83569959Y-107504446D01*
X83828904Y-107625194D01*
X83935343Y-107622286D01*
X83998626Y-107599253D01*
%TO.C,SW32*%
X77929941Y-82754362D02*
X77780344Y-82737146D01*
X77564556Y-82636522D01*
X77498366Y-82553115D01*
X77475333Y-82489833D01*
X77472425Y-82383393D01*
X77512674Y-82297078D01*
X77596081Y-82230888D01*
X77659364Y-82207855D01*
X77765803Y-82204947D01*
X77958558Y-82242288D01*
X78064998Y-82239380D01*
X78128280Y-82216347D01*
X78211687Y-82150157D01*
X78251936Y-82063842D01*
X78249028Y-81957402D01*
X78225995Y-81894120D01*
X78159805Y-81810713D01*
X77944017Y-81710090D01*
X77794420Y-81692873D01*
X77512442Y-81508843D02*
X76874036Y-82314527D01*
X77003276Y-81586666D01*
X76528776Y-82153530D01*
X76735607Y-81146599D01*
X76476662Y-81025851D02*
X75915614Y-80764230D01*
X76056719Y-81250363D01*
X75927247Y-81189989D01*
X75820807Y-81192897D01*
X75757525Y-81215930D01*
X75674118Y-81282120D01*
X75573495Y-81497908D01*
X75576403Y-81604347D01*
X75599436Y-81667630D01*
X75665626Y-81751036D01*
X75924571Y-81871784D01*
X76031011Y-81868876D01*
X76094293Y-81845843D01*
X75530105Y-80689547D02*
X75507072Y-80626265D01*
X75440881Y-80542858D01*
X75225094Y-80442235D01*
X75118654Y-80445143D01*
X75055372Y-80468176D01*
X74971965Y-80534366D01*
X74931716Y-80620681D01*
X74914499Y-80770279D01*
X75190893Y-81529665D01*
X74629846Y-81268044D01*
%TO.C,SW31*%
X58597003Y-79256154D02*
X58447406Y-79238938D01*
X58231618Y-79138314D01*
X58165428Y-79054907D01*
X58142395Y-78991625D01*
X58139487Y-78885185D01*
X58179736Y-78798870D01*
X58263143Y-78732680D01*
X58326426Y-78709647D01*
X58432865Y-78706739D01*
X58625620Y-78744080D01*
X58732060Y-78741172D01*
X58795342Y-78718139D01*
X58878749Y-78651949D01*
X58918998Y-78565634D01*
X58916090Y-78459194D01*
X58893057Y-78395912D01*
X58826867Y-78312505D01*
X58611079Y-78211882D01*
X58461482Y-78194665D01*
X58179504Y-78010635D02*
X57541098Y-78816319D01*
X57670338Y-78088458D01*
X57195838Y-78655322D01*
X57402669Y-77648391D01*
X57143724Y-77527643D02*
X56582676Y-77266022D01*
X56723781Y-77752155D01*
X56594309Y-77691781D01*
X56487869Y-77694689D01*
X56424587Y-77717722D01*
X56341180Y-77783912D01*
X56240557Y-77999700D01*
X56243465Y-78106139D01*
X56266498Y-78169422D01*
X56332688Y-78252828D01*
X56591633Y-78373576D01*
X56698073Y-78370668D01*
X56761355Y-78347635D01*
X55296908Y-77769836D02*
X55814798Y-78011332D01*
X55555853Y-77890584D02*
X55978471Y-76984276D01*
X56004412Y-77153998D01*
X56050478Y-77280563D01*
X56116668Y-77363970D01*
%TO.C,SW30*%
X250855795Y-63805932D02*
X250746447Y-63909463D01*
X250530659Y-64010087D01*
X250424220Y-64007178D01*
X250360937Y-63984146D01*
X250277531Y-63917955D01*
X250237281Y-63831640D01*
X250240189Y-63725200D01*
X250263222Y-63661918D01*
X250329413Y-63578511D01*
X250481918Y-63454855D01*
X250548108Y-63371448D01*
X250571141Y-63308166D01*
X250574049Y-63201726D01*
X250533800Y-63115411D01*
X250450393Y-63049221D01*
X250387111Y-63026188D01*
X250280671Y-63023280D01*
X250064884Y-63123903D01*
X249955536Y-63227435D01*
X249633308Y-63325150D02*
X249840139Y-64332081D01*
X249365639Y-63765217D01*
X249494879Y-64493079D01*
X248856473Y-63687394D01*
X248597528Y-63808142D02*
X248036480Y-64069763D01*
X248499580Y-64274151D01*
X248370108Y-64334525D01*
X248303918Y-64417932D01*
X248280885Y-64481214D01*
X248277977Y-64587653D01*
X248378600Y-64803441D01*
X248462007Y-64869631D01*
X248525289Y-64892664D01*
X248631729Y-64895572D01*
X248890674Y-64774824D01*
X248956864Y-64691417D01*
X248979897Y-64628135D01*
X247475433Y-64331384D02*
X247389118Y-64371634D01*
X247322927Y-64455040D01*
X247299895Y-64518323D01*
X247296986Y-64624762D01*
X247334328Y-64817517D01*
X247434951Y-65033305D01*
X247558607Y-65185810D01*
X247642014Y-65252000D01*
X247705296Y-65275033D01*
X247811736Y-65277941D01*
X247898051Y-65237692D01*
X247964241Y-65154285D01*
X247987274Y-65091003D01*
X247990182Y-64984563D01*
X247952841Y-64791808D01*
X247852218Y-64576021D01*
X247728562Y-64423515D01*
X247645155Y-64357325D01*
X247581872Y-64334292D01*
X247475433Y-64331384D01*
%TO.C,SW29*%
X228353220Y-60506832D02*
X228243872Y-60610363D01*
X228028084Y-60710987D01*
X227921645Y-60708078D01*
X227858362Y-60685046D01*
X227774956Y-60618855D01*
X227734706Y-60532540D01*
X227737614Y-60426100D01*
X227760647Y-60362818D01*
X227826838Y-60279411D01*
X227979343Y-60155755D01*
X228045533Y-60072348D01*
X228068566Y-60009066D01*
X228071474Y-59902626D01*
X228031225Y-59816311D01*
X227947818Y-59750121D01*
X227884536Y-59727088D01*
X227778096Y-59724180D01*
X227562309Y-59824803D01*
X227452961Y-59928335D01*
X227130733Y-60026050D02*
X227337564Y-61032981D01*
X226863064Y-60466117D01*
X226992304Y-61193979D01*
X226353898Y-60388294D01*
X226092045Y-60615482D02*
X226028763Y-60592449D01*
X225922323Y-60589541D01*
X225706535Y-60690165D01*
X225640345Y-60773571D01*
X225617312Y-60836854D01*
X225614404Y-60943293D01*
X225654654Y-61029608D01*
X225758185Y-61138956D01*
X226517571Y-61415350D01*
X225956524Y-61676971D01*
X225524949Y-61878218D02*
X225352319Y-61958717D01*
X225245879Y-61955808D01*
X225182597Y-61932776D01*
X225035908Y-61843552D01*
X224912251Y-61691047D01*
X224751254Y-61345787D01*
X224754162Y-61239347D01*
X224777195Y-61176065D01*
X224843385Y-61092658D01*
X225016015Y-61012159D01*
X225122455Y-61015068D01*
X225185737Y-61038100D01*
X225269144Y-61104291D01*
X225369767Y-61320078D01*
X225366859Y-61426518D01*
X225343826Y-61489800D01*
X225277636Y-61573207D01*
X225105006Y-61653706D01*
X224998566Y-61650798D01*
X224935284Y-61627765D01*
X224851877Y-61561575D01*
%TO.C,SW28*%
X209020282Y-64005040D02*
X208910934Y-64108571D01*
X208695146Y-64209195D01*
X208588707Y-64206286D01*
X208525424Y-64183254D01*
X208442018Y-64117063D01*
X208401768Y-64030748D01*
X208404676Y-63924308D01*
X208427709Y-63861026D01*
X208493900Y-63777619D01*
X208646405Y-63653963D01*
X208712595Y-63570556D01*
X208735628Y-63507274D01*
X208738536Y-63400834D01*
X208698287Y-63314519D01*
X208614880Y-63248329D01*
X208551598Y-63225296D01*
X208445158Y-63222388D01*
X208229371Y-63323011D01*
X208120023Y-63426543D01*
X207797795Y-63524258D02*
X208004626Y-64531189D01*
X207530126Y-63964325D01*
X207659366Y-64692187D01*
X207020960Y-63886502D01*
X206759107Y-64113690D02*
X206695825Y-64090657D01*
X206589385Y-64087749D01*
X206373597Y-64188373D01*
X206307407Y-64271779D01*
X206284374Y-64335062D01*
X206281466Y-64441501D01*
X206321716Y-64527816D01*
X206425247Y-64637164D01*
X207184633Y-64913558D01*
X206623586Y-65175179D01*
X205864199Y-64898785D02*
X205930390Y-64815378D01*
X205953423Y-64752096D01*
X205956331Y-64645656D01*
X205936206Y-64602499D01*
X205852799Y-64536308D01*
X205789517Y-64513276D01*
X205683077Y-64510367D01*
X205510447Y-64590866D01*
X205444257Y-64674273D01*
X205421224Y-64737555D01*
X205418316Y-64843995D01*
X205438441Y-64887152D01*
X205521847Y-64953343D01*
X205585130Y-64976376D01*
X205691569Y-64979284D01*
X205864199Y-64898785D01*
X205970639Y-64901693D01*
X206033921Y-64924726D01*
X206117328Y-64990916D01*
X206197827Y-65163546D01*
X206194919Y-65269986D01*
X206171886Y-65333268D01*
X206105696Y-65416675D01*
X205933065Y-65497174D01*
X205826626Y-65494266D01*
X205763344Y-65471233D01*
X205679937Y-65405043D01*
X205599438Y-65232413D01*
X205602346Y-65125973D01*
X205625379Y-65062691D01*
X205691569Y-64979284D01*
%TO.C,SW27*%
X193913526Y-76566326D02*
X193804178Y-76669857D01*
X193588390Y-76770481D01*
X193481951Y-76767572D01*
X193418668Y-76744540D01*
X193335262Y-76678349D01*
X193295012Y-76592034D01*
X193297920Y-76485594D01*
X193320953Y-76422312D01*
X193387144Y-76338905D01*
X193539649Y-76215249D01*
X193605839Y-76131842D01*
X193628872Y-76068560D01*
X193631780Y-75962120D01*
X193591531Y-75875805D01*
X193508124Y-75809615D01*
X193444842Y-75786582D01*
X193338402Y-75783674D01*
X193122615Y-75884297D01*
X193013267Y-75987829D01*
X192691039Y-76085544D02*
X192897870Y-77092475D01*
X192423370Y-76525611D01*
X192552610Y-77253473D01*
X191914204Y-76447788D01*
X191652351Y-76674976D02*
X191589069Y-76651943D01*
X191482629Y-76649035D01*
X191266841Y-76749659D01*
X191200651Y-76833065D01*
X191177618Y-76896348D01*
X191174710Y-77002787D01*
X191214960Y-77089102D01*
X191318491Y-77198450D01*
X192077877Y-77474844D01*
X191516830Y-77736465D01*
X190792109Y-76971030D02*
X190187904Y-77252776D01*
X190998940Y-77977961D01*
%TO.C,SW26*%
X177750224Y-86861842D02*
X177640876Y-86965373D01*
X177425088Y-87065997D01*
X177318649Y-87063088D01*
X177255366Y-87040056D01*
X177171960Y-86973865D01*
X177131710Y-86887550D01*
X177134618Y-86781110D01*
X177157651Y-86717828D01*
X177223842Y-86634421D01*
X177376347Y-86510765D01*
X177442537Y-86427358D01*
X177465570Y-86364076D01*
X177468478Y-86257636D01*
X177428229Y-86171321D01*
X177344822Y-86105131D01*
X177281540Y-86082098D01*
X177175100Y-86079190D01*
X176959313Y-86179813D01*
X176849965Y-86283345D01*
X176527737Y-86381060D02*
X176734568Y-87387991D01*
X176260068Y-86821127D01*
X176389308Y-87548989D01*
X175750902Y-86743304D01*
X175489049Y-86970492D02*
X175425767Y-86947459D01*
X175319327Y-86944551D01*
X175103539Y-87045175D01*
X175037349Y-87128581D01*
X175014316Y-87191864D01*
X175011408Y-87298303D01*
X175051658Y-87384618D01*
X175155189Y-87493966D01*
X175914575Y-87770360D01*
X175353528Y-88031981D01*
X174154074Y-87487918D02*
X174326704Y-87407419D01*
X174433144Y-87410327D01*
X174496426Y-87433360D01*
X174643115Y-87522583D01*
X174766771Y-87675088D01*
X174927769Y-88020348D01*
X174924861Y-88126788D01*
X174901828Y-88190070D01*
X174835638Y-88273477D01*
X174663007Y-88353976D01*
X174556568Y-88351068D01*
X174493286Y-88328035D01*
X174409879Y-88261845D01*
X174309255Y-88046057D01*
X174312163Y-87939617D01*
X174335196Y-87876335D01*
X174401387Y-87792928D01*
X174574017Y-87712430D01*
X174680456Y-87715338D01*
X174743739Y-87738371D01*
X174827145Y-87804561D01*
%TO.C,SW25*%
X117229746Y-88391317D02*
X117080149Y-88374101D01*
X116864361Y-88273477D01*
X116798171Y-88190070D01*
X116775138Y-88126788D01*
X116772230Y-88020348D01*
X116812479Y-87934033D01*
X116895886Y-87867843D01*
X116959169Y-87844810D01*
X117065608Y-87841902D01*
X117258363Y-87879243D01*
X117364803Y-87876335D01*
X117428085Y-87853302D01*
X117511492Y-87787112D01*
X117551741Y-87700797D01*
X117548833Y-87594357D01*
X117525800Y-87531075D01*
X117459610Y-87447668D01*
X117243822Y-87347045D01*
X117094225Y-87329828D01*
X116812247Y-87145798D02*
X116173841Y-87951482D01*
X116303081Y-87223621D01*
X115828581Y-87790485D01*
X116035412Y-86783554D01*
X115693060Y-86728996D02*
X115670027Y-86665714D01*
X115603837Y-86582307D01*
X115388049Y-86481684D01*
X115281609Y-86484592D01*
X115218327Y-86507625D01*
X115134920Y-86573815D01*
X115094671Y-86660130D01*
X115077454Y-86809727D01*
X115353848Y-87569113D01*
X114792801Y-87307493D01*
X114395426Y-86018816D02*
X114827001Y-86220063D01*
X114668912Y-86671763D01*
X114645879Y-86608480D01*
X114579689Y-86525074D01*
X114363901Y-86424450D01*
X114257462Y-86427358D01*
X114194180Y-86450391D01*
X114110773Y-86516581D01*
X114010149Y-86732369D01*
X114013057Y-86838809D01*
X114036090Y-86902091D01*
X114102281Y-86985498D01*
X114318068Y-87086121D01*
X114424508Y-87083213D01*
X114487790Y-87060180D01*
%TO.C,SW23*%
X85959688Y-65534515D02*
X85810091Y-65517299D01*
X85594303Y-65416675D01*
X85528113Y-65333268D01*
X85505080Y-65269986D01*
X85502172Y-65163546D01*
X85542421Y-65077231D01*
X85625828Y-65011041D01*
X85689111Y-64988008D01*
X85795550Y-64985100D01*
X85988305Y-65022441D01*
X86094745Y-65019533D01*
X86158027Y-64996500D01*
X86241434Y-64930310D01*
X86281683Y-64843995D01*
X86278775Y-64737555D01*
X86255742Y-64674273D01*
X86189552Y-64590866D01*
X85973764Y-64490243D01*
X85824167Y-64473026D01*
X85542189Y-64288996D02*
X84903783Y-65094680D01*
X85033023Y-64366819D01*
X84558523Y-64933683D01*
X84765354Y-63926752D01*
X84423002Y-63872194D02*
X84399969Y-63808912D01*
X84333779Y-63725505D01*
X84117991Y-63624882D01*
X84011551Y-63627790D01*
X83948269Y-63650823D01*
X83864862Y-63717013D01*
X83824613Y-63803328D01*
X83807396Y-63952925D01*
X84083790Y-64712311D01*
X83522743Y-64450691D01*
X83643258Y-63403510D02*
X83082211Y-63141889D01*
X83223316Y-63628022D01*
X83093843Y-63567648D01*
X82987404Y-63570556D01*
X82924122Y-63593589D01*
X82840715Y-63659779D01*
X82740091Y-63875567D01*
X82742999Y-63982007D01*
X82766032Y-64045289D01*
X82832223Y-64128696D01*
X83091168Y-64249444D01*
X83197607Y-64246536D01*
X83260890Y-64223503D01*
%TO.C,SW22*%
X66626750Y-62036307D02*
X66477153Y-62019091D01*
X66261365Y-61918467D01*
X66195175Y-61835060D01*
X66172142Y-61771778D01*
X66169234Y-61665338D01*
X66209483Y-61579023D01*
X66292890Y-61512833D01*
X66356173Y-61489800D01*
X66462612Y-61486892D01*
X66655367Y-61524233D01*
X66761807Y-61521325D01*
X66825089Y-61498292D01*
X66908496Y-61432102D01*
X66948745Y-61345787D01*
X66945837Y-61239347D01*
X66922804Y-61176065D01*
X66856614Y-61092658D01*
X66640826Y-60992035D01*
X66491229Y-60974818D01*
X66209251Y-60790788D02*
X65570845Y-61596472D01*
X65700085Y-60868611D01*
X65225585Y-61435475D01*
X65432416Y-60428544D01*
X65090064Y-60373986D02*
X65067031Y-60310704D01*
X65000841Y-60227297D01*
X64785053Y-60126674D01*
X64678613Y-60129582D01*
X64615331Y-60152615D01*
X64531924Y-60218805D01*
X64491675Y-60305120D01*
X64474458Y-60454717D01*
X64750852Y-61214103D01*
X64189805Y-60952483D01*
X64226914Y-59971492D02*
X64203881Y-59908210D01*
X64137690Y-59824803D01*
X63921903Y-59724180D01*
X63815463Y-59727088D01*
X63752181Y-59750121D01*
X63668774Y-59816311D01*
X63628525Y-59902626D01*
X63611308Y-60052224D01*
X63887702Y-60811610D01*
X63326655Y-60549989D01*
%TO.C,SW21*%
X44124175Y-65335407D02*
X43974578Y-65318191D01*
X43758790Y-65217567D01*
X43692600Y-65134160D01*
X43669567Y-65070878D01*
X43666659Y-64964438D01*
X43706908Y-64878123D01*
X43790315Y-64811933D01*
X43853598Y-64788900D01*
X43960037Y-64785992D01*
X44152792Y-64823333D01*
X44259232Y-64820425D01*
X44322514Y-64797392D01*
X44405921Y-64731202D01*
X44446170Y-64644887D01*
X44443262Y-64538447D01*
X44420229Y-64475165D01*
X44354039Y-64391758D01*
X44138251Y-64291135D01*
X43988654Y-64273918D01*
X43706676Y-64089888D02*
X43068270Y-64895572D01*
X43197510Y-64167711D01*
X42723010Y-64734575D01*
X42929841Y-63727644D01*
X42587489Y-63673086D02*
X42564456Y-63609804D01*
X42498266Y-63526397D01*
X42282478Y-63425774D01*
X42176038Y-63428682D01*
X42112756Y-63451715D01*
X42029349Y-63517905D01*
X41989100Y-63604220D01*
X41971883Y-63753817D01*
X42248277Y-64513203D01*
X41687230Y-64251583D01*
X40824080Y-63849089D02*
X41341970Y-64090585D01*
X41083025Y-63969837D02*
X41505643Y-63063529D01*
X41531584Y-63233251D01*
X41577650Y-63359816D01*
X41643840Y-63443223D01*
%TO.C,SW20*%
X242826048Y-46586085D02*
X242716700Y-46689616D01*
X242500912Y-46790240D01*
X242394473Y-46787331D01*
X242331190Y-46764299D01*
X242247784Y-46698108D01*
X242207534Y-46611793D01*
X242210442Y-46505353D01*
X242233475Y-46442071D01*
X242299666Y-46358664D01*
X242452171Y-46235008D01*
X242518361Y-46151601D01*
X242541394Y-46088319D01*
X242544302Y-45981879D01*
X242504053Y-45895564D01*
X242420646Y-45829374D01*
X242357364Y-45806341D01*
X242250924Y-45803433D01*
X242035137Y-45904056D01*
X241925789Y-46007588D01*
X241603561Y-46105303D02*
X241810392Y-47112234D01*
X241335892Y-46545370D01*
X241465132Y-47273232D01*
X240826726Y-46467547D01*
X240564873Y-46694735D02*
X240501591Y-46671702D01*
X240395151Y-46668794D01*
X240179363Y-46769418D01*
X240113173Y-46852824D01*
X240090140Y-46916107D01*
X240087232Y-47022546D01*
X240127482Y-47108861D01*
X240231013Y-47218209D01*
X240990399Y-47494603D01*
X240429352Y-47756224D01*
X239445686Y-47111537D02*
X239359371Y-47151787D01*
X239293180Y-47235193D01*
X239270148Y-47298476D01*
X239267239Y-47404915D01*
X239304581Y-47597670D01*
X239405204Y-47813458D01*
X239528860Y-47965963D01*
X239612267Y-48032153D01*
X239675549Y-48055186D01*
X239781989Y-48058094D01*
X239868304Y-48017845D01*
X239934494Y-47934438D01*
X239957527Y-47871156D01*
X239960435Y-47764716D01*
X239923094Y-47571961D01*
X239822471Y-47356174D01*
X239698815Y-47203668D01*
X239615408Y-47137478D01*
X239552125Y-47114445D01*
X239445686Y-47111537D01*
%TO.C,SW19*%
X220323473Y-43286985D02*
X220214125Y-43390516D01*
X219998337Y-43491140D01*
X219891898Y-43488231D01*
X219828615Y-43465199D01*
X219745209Y-43399008D01*
X219704959Y-43312693D01*
X219707867Y-43206253D01*
X219730900Y-43142971D01*
X219797091Y-43059564D01*
X219949596Y-42935908D01*
X220015786Y-42852501D01*
X220038819Y-42789219D01*
X220041727Y-42682779D01*
X220001478Y-42596464D01*
X219918071Y-42530274D01*
X219854789Y-42507241D01*
X219748349Y-42504333D01*
X219532562Y-42604956D01*
X219423214Y-42708488D01*
X219100986Y-42806203D02*
X219307817Y-43813134D01*
X218833317Y-43246270D01*
X218962557Y-43974132D01*
X218324151Y-43168447D01*
X217926777Y-44457124D02*
X218444667Y-44215628D01*
X218185722Y-44336376D02*
X217763104Y-43430068D01*
X217909793Y-43519291D01*
X218036357Y-43565357D01*
X218142797Y-43568265D01*
X217495202Y-44658371D02*
X217322572Y-44738870D01*
X217216132Y-44735961D01*
X217152850Y-44712929D01*
X217006161Y-44623705D01*
X216882504Y-44471200D01*
X216721507Y-44125940D01*
X216724415Y-44019500D01*
X216747448Y-43956218D01*
X216813638Y-43872811D01*
X216986268Y-43792312D01*
X217092708Y-43795221D01*
X217155990Y-43818253D01*
X217239397Y-43884444D01*
X217340020Y-44100231D01*
X217337112Y-44206671D01*
X217314079Y-44269953D01*
X217247889Y-44353360D01*
X217075259Y-44433859D01*
X216968819Y-44430951D01*
X216905537Y-44407918D01*
X216822130Y-44341728D01*
%TO.C,SW18*%
X200990535Y-46785193D02*
X200881187Y-46888724D01*
X200665399Y-46989348D01*
X200558960Y-46986439D01*
X200495677Y-46963407D01*
X200412271Y-46897216D01*
X200372021Y-46810901D01*
X200374929Y-46704461D01*
X200397962Y-46641179D01*
X200464153Y-46557772D01*
X200616658Y-46434116D01*
X200682848Y-46350709D01*
X200705881Y-46287427D01*
X200708789Y-46180987D01*
X200668540Y-46094672D01*
X200585133Y-46028482D01*
X200521851Y-46005449D01*
X200415411Y-46002541D01*
X200199624Y-46103164D01*
X200090276Y-46206696D01*
X199768048Y-46304411D02*
X199974879Y-47311342D01*
X199500379Y-46744478D01*
X199629619Y-47472340D01*
X198991213Y-46666655D01*
X198593839Y-47955332D02*
X199111729Y-47713836D01*
X198852784Y-47834584D02*
X198430166Y-46928276D01*
X198576855Y-47017499D01*
X198703419Y-47063565D01*
X198809859Y-47066473D01*
X197834452Y-47678938D02*
X197900643Y-47595531D01*
X197923676Y-47532249D01*
X197926584Y-47425809D01*
X197906459Y-47382652D01*
X197823052Y-47316461D01*
X197759770Y-47293429D01*
X197653330Y-47290520D01*
X197480700Y-47371019D01*
X197414510Y-47454426D01*
X197391477Y-47517708D01*
X197388569Y-47624148D01*
X197408694Y-47667305D01*
X197492100Y-47733496D01*
X197555383Y-47756529D01*
X197661822Y-47759437D01*
X197834452Y-47678938D01*
X197940892Y-47681846D01*
X198004174Y-47704879D01*
X198087581Y-47771069D01*
X198168080Y-47943699D01*
X198165172Y-48050139D01*
X198142139Y-48113421D01*
X198075949Y-48196828D01*
X197903318Y-48277327D01*
X197796879Y-48274419D01*
X197733597Y-48251386D01*
X197650190Y-48185196D01*
X197569691Y-48012566D01*
X197572599Y-47906126D01*
X197595632Y-47842844D01*
X197661822Y-47759437D01*
%TO.C,SW17*%
X185883779Y-59346478D02*
X185774431Y-59450009D01*
X185558643Y-59550633D01*
X185452204Y-59547724D01*
X185388921Y-59524692D01*
X185305515Y-59458501D01*
X185265265Y-59372186D01*
X185268173Y-59265746D01*
X185291206Y-59202464D01*
X185357397Y-59119057D01*
X185509902Y-58995401D01*
X185576092Y-58911994D01*
X185599125Y-58848712D01*
X185602033Y-58742272D01*
X185561784Y-58655957D01*
X185478377Y-58589767D01*
X185415095Y-58566734D01*
X185308655Y-58563826D01*
X185092868Y-58664449D01*
X184983520Y-58767981D01*
X184661292Y-58865696D02*
X184868123Y-59872627D01*
X184393623Y-59305763D01*
X184522863Y-60033625D01*
X183884457Y-59227940D01*
X183487083Y-60516617D02*
X184004973Y-60275121D01*
X183746028Y-60395869D02*
X183323410Y-59489561D01*
X183470099Y-59578784D01*
X183596663Y-59624850D01*
X183703103Y-59627758D01*
X182762362Y-59751182D02*
X182158157Y-60032928D01*
X182969193Y-60758113D01*
%TO.C,SW16*%
X169720478Y-69641995D02*
X169611130Y-69745526D01*
X169395342Y-69846150D01*
X169288903Y-69843241D01*
X169225620Y-69820209D01*
X169142214Y-69754018D01*
X169101964Y-69667703D01*
X169104872Y-69561263D01*
X169127905Y-69497981D01*
X169194096Y-69414574D01*
X169346601Y-69290918D01*
X169412791Y-69207511D01*
X169435824Y-69144229D01*
X169438732Y-69037789D01*
X169398483Y-68951474D01*
X169315076Y-68885284D01*
X169251794Y-68862251D01*
X169145354Y-68859343D01*
X168929567Y-68959966D01*
X168820219Y-69063498D01*
X168497991Y-69161213D02*
X168704822Y-70168144D01*
X168230322Y-69601280D01*
X168359562Y-70329142D01*
X167721156Y-69523457D01*
X167323782Y-70812134D02*
X167841672Y-70570638D01*
X167582727Y-70691386D02*
X167160109Y-69785078D01*
X167306798Y-69874301D01*
X167433362Y-69920367D01*
X167539802Y-69923275D01*
X166124328Y-70268071D02*
X166296958Y-70187572D01*
X166403398Y-70190480D01*
X166466680Y-70213513D01*
X166613369Y-70302736D01*
X166737025Y-70455241D01*
X166898023Y-70800501D01*
X166895115Y-70906941D01*
X166872082Y-70970223D01*
X166805892Y-71053630D01*
X166633261Y-71134129D01*
X166526822Y-71131221D01*
X166463540Y-71108188D01*
X166380133Y-71041998D01*
X166279509Y-70826210D01*
X166282417Y-70719770D01*
X166305450Y-70656488D01*
X166371641Y-70573081D01*
X166544271Y-70492583D01*
X166650710Y-70495491D01*
X166713993Y-70518524D01*
X166797399Y-70584714D01*
%TO.C,SW15*%
X125259492Y-71171470D02*
X125109895Y-71154254D01*
X124894107Y-71053630D01*
X124827917Y-70970223D01*
X124804884Y-70906941D01*
X124801976Y-70800501D01*
X124842225Y-70714186D01*
X124925632Y-70647996D01*
X124988915Y-70624963D01*
X125095354Y-70622055D01*
X125288109Y-70659396D01*
X125394549Y-70656488D01*
X125457831Y-70633455D01*
X125541238Y-70567265D01*
X125581487Y-70480950D01*
X125578579Y-70374510D01*
X125555546Y-70311228D01*
X125489356Y-70227821D01*
X125273568Y-70127198D01*
X125123971Y-70109981D01*
X124841993Y-69925951D02*
X124203587Y-70731635D01*
X124332827Y-70003774D01*
X123858327Y-70570638D01*
X124065158Y-69563707D01*
X122822547Y-70087646D02*
X123340437Y-70329142D01*
X123081492Y-70208394D02*
X123504110Y-69302086D01*
X123530051Y-69471808D01*
X123576117Y-69598372D01*
X123642307Y-69681779D01*
X122425172Y-68798969D02*
X122856747Y-69000216D01*
X122698658Y-69451916D01*
X122675625Y-69388633D01*
X122609435Y-69305227D01*
X122393647Y-69204603D01*
X122287208Y-69207511D01*
X122223926Y-69230544D01*
X122140519Y-69296734D01*
X122039895Y-69512522D01*
X122042803Y-69618962D01*
X122065836Y-69682244D01*
X122132027Y-69765651D01*
X122347814Y-69866274D01*
X122454254Y-69863366D01*
X122517536Y-69840333D01*
%TO.C,SW13*%
X93989435Y-48314668D02*
X93839838Y-48297452D01*
X93624050Y-48196828D01*
X93557860Y-48113421D01*
X93534827Y-48050139D01*
X93531919Y-47943699D01*
X93572168Y-47857384D01*
X93655575Y-47791194D01*
X93718858Y-47768161D01*
X93825297Y-47765253D01*
X94018052Y-47802594D01*
X94124492Y-47799686D01*
X94187774Y-47776653D01*
X94271181Y-47710463D01*
X94311430Y-47624148D01*
X94308522Y-47517708D01*
X94285489Y-47454426D01*
X94219299Y-47371019D01*
X94003511Y-47270396D01*
X93853914Y-47253179D01*
X93571936Y-47069149D02*
X92933530Y-47874833D01*
X93062770Y-47146972D01*
X92588270Y-47713836D01*
X92795101Y-46706905D01*
X91552490Y-47230844D02*
X92070380Y-47472340D01*
X91811435Y-47351592D02*
X92234053Y-46445284D01*
X92259994Y-46615006D01*
X92306060Y-46741570D01*
X92372250Y-46824977D01*
X91673005Y-46183663D02*
X91111958Y-45922042D01*
X91253063Y-46408175D01*
X91123590Y-46347801D01*
X91017151Y-46350709D01*
X90953869Y-46373742D01*
X90870462Y-46439932D01*
X90769838Y-46655720D01*
X90772746Y-46762160D01*
X90795779Y-46825442D01*
X90861970Y-46908849D01*
X91120915Y-47029597D01*
X91227354Y-47026689D01*
X91290637Y-47003656D01*
%TO.C,SW12*%
X74656497Y-44816460D02*
X74506900Y-44799244D01*
X74291112Y-44698620D01*
X74224922Y-44615213D01*
X74201889Y-44551931D01*
X74198981Y-44445491D01*
X74239230Y-44359176D01*
X74322637Y-44292986D01*
X74385920Y-44269953D01*
X74492359Y-44267045D01*
X74685114Y-44304386D01*
X74791554Y-44301478D01*
X74854836Y-44278445D01*
X74938243Y-44212255D01*
X74978492Y-44125940D01*
X74975584Y-44019500D01*
X74952551Y-43956218D01*
X74886361Y-43872811D01*
X74670573Y-43772188D01*
X74520976Y-43754971D01*
X74238998Y-43570941D02*
X73600592Y-44376625D01*
X73729832Y-43648764D01*
X73255332Y-44215628D01*
X73462163Y-43208697D01*
X72219552Y-43732636D02*
X72737442Y-43974132D01*
X72478497Y-43853384D02*
X72901115Y-42947076D01*
X72927056Y-43116798D01*
X72973122Y-43243362D01*
X73039312Y-43326769D01*
X72256661Y-42751645D02*
X72233628Y-42688363D01*
X72167437Y-42604956D01*
X71951650Y-42504333D01*
X71845210Y-42507241D01*
X71781928Y-42530274D01*
X71698521Y-42596464D01*
X71658272Y-42682779D01*
X71641055Y-42832377D01*
X71917449Y-43591763D01*
X71356402Y-43330142D01*
%TO.C,SW11*%
X52153922Y-48115560D02*
X52004325Y-48098344D01*
X51788537Y-47997720D01*
X51722347Y-47914313D01*
X51699314Y-47851031D01*
X51696406Y-47744591D01*
X51736655Y-47658276D01*
X51820062Y-47592086D01*
X51883345Y-47569053D01*
X51989784Y-47566145D01*
X52182539Y-47603486D01*
X52288979Y-47600578D01*
X52352261Y-47577545D01*
X52435668Y-47511355D01*
X52475917Y-47425040D01*
X52473009Y-47318600D01*
X52449976Y-47255318D01*
X52383786Y-47171911D01*
X52167998Y-47071288D01*
X52018401Y-47054071D01*
X51736423Y-46870041D02*
X51098017Y-47675725D01*
X51227257Y-46947864D01*
X50752757Y-47514728D01*
X50959588Y-46507797D01*
X49716977Y-47031736D02*
X50234867Y-47273232D01*
X49975922Y-47152484D02*
X50398540Y-46246176D01*
X50424481Y-46415898D01*
X50470547Y-46542462D01*
X50536737Y-46625869D01*
X48853827Y-46629242D02*
X49371717Y-46870738D01*
X49112772Y-46749990D02*
X49535390Y-45843682D01*
X49561331Y-46013404D01*
X49607397Y-46139969D01*
X49673587Y-46223376D01*
%TO.C,SW10*%
X234796301Y-29366238D02*
X234686953Y-29469769D01*
X234471165Y-29570393D01*
X234364726Y-29567484D01*
X234301443Y-29544452D01*
X234218037Y-29478261D01*
X234177787Y-29391946D01*
X234180695Y-29285506D01*
X234203728Y-29222224D01*
X234269919Y-29138817D01*
X234422424Y-29015161D01*
X234488614Y-28931754D01*
X234511647Y-28868472D01*
X234514555Y-28762032D01*
X234474306Y-28675717D01*
X234390899Y-28609527D01*
X234327617Y-28586494D01*
X234221177Y-28583586D01*
X234005390Y-28684209D01*
X233896042Y-28787741D01*
X233573814Y-28885456D02*
X233780645Y-29892387D01*
X233306145Y-29325523D01*
X233435385Y-30053385D01*
X232796979Y-29247700D01*
X232399605Y-30536377D02*
X232917495Y-30294881D01*
X232658550Y-30415629D02*
X232235932Y-29509321D01*
X232382621Y-29598544D01*
X232509185Y-29644610D01*
X232615625Y-29647518D01*
X231415939Y-29891690D02*
X231329624Y-29931940D01*
X231263433Y-30015346D01*
X231240401Y-30078629D01*
X231237492Y-30185068D01*
X231274834Y-30377823D01*
X231375457Y-30593611D01*
X231499113Y-30746116D01*
X231582520Y-30812306D01*
X231645802Y-30835339D01*
X231752242Y-30838247D01*
X231838557Y-30797998D01*
X231904747Y-30714591D01*
X231927780Y-30651309D01*
X231930688Y-30544869D01*
X231893347Y-30352114D01*
X231792724Y-30136327D01*
X231669068Y-29983821D01*
X231585661Y-29917631D01*
X231522378Y-29894598D01*
X231415939Y-29891690D01*
%TO.C,SW9*%
X211862151Y-26268384D02*
X211752803Y-26371916D01*
X211537015Y-26472539D01*
X211430576Y-26469631D01*
X211367293Y-26446598D01*
X211283886Y-26380408D01*
X211243637Y-26294093D01*
X211246545Y-26187653D01*
X211269578Y-26124371D01*
X211335768Y-26040964D01*
X211488274Y-25917308D01*
X211554464Y-25833901D01*
X211577497Y-25770619D01*
X211580405Y-25664179D01*
X211540156Y-25577864D01*
X211456749Y-25511674D01*
X211393467Y-25488641D01*
X211287027Y-25485733D01*
X211071239Y-25586356D01*
X210961892Y-25689888D01*
X210639664Y-25787603D02*
X210846495Y-26794534D01*
X210371995Y-26227670D01*
X210501235Y-26955532D01*
X209862829Y-26149847D01*
X209897030Y-27237277D02*
X209724400Y-27317776D01*
X209617960Y-27314868D01*
X209554678Y-27291835D01*
X209407989Y-27202612D01*
X209284332Y-27050106D01*
X209123335Y-26704846D01*
X209126243Y-26598406D01*
X209149276Y-26535124D01*
X209215466Y-26451717D01*
X209388096Y-26371219D01*
X209494536Y-26374127D01*
X209557818Y-26397160D01*
X209641225Y-26463350D01*
X209741849Y-26679138D01*
X209738940Y-26785577D01*
X209715908Y-26848859D01*
X209649717Y-26932266D01*
X209477087Y-27012765D01*
X209370647Y-27009857D01*
X209307365Y-26986824D01*
X209223958Y-26920634D01*
%TO.C,SW8*%
X192529213Y-29766592D02*
X192419865Y-29870124D01*
X192204077Y-29970747D01*
X192097638Y-29967839D01*
X192034355Y-29944806D01*
X191950948Y-29878616D01*
X191910699Y-29792301D01*
X191913607Y-29685861D01*
X191936640Y-29622579D01*
X192002830Y-29539172D01*
X192155336Y-29415516D01*
X192221526Y-29332109D01*
X192244559Y-29268827D01*
X192247467Y-29162387D01*
X192207218Y-29076072D01*
X192123811Y-29009882D01*
X192060529Y-28986849D01*
X191954089Y-28983941D01*
X191738301Y-29084564D01*
X191628954Y-29188096D01*
X191306726Y-29285811D02*
X191513557Y-30292742D01*
X191039057Y-29725878D01*
X191168297Y-30453740D01*
X190529891Y-29648055D01*
X190236281Y-30257844D02*
X190302471Y-30174437D01*
X190325504Y-30111155D01*
X190328412Y-30004716D01*
X190308287Y-29961558D01*
X190224880Y-29895368D01*
X190161598Y-29872335D01*
X190055158Y-29869427D01*
X189882528Y-29949925D01*
X189816338Y-30033332D01*
X189793305Y-30096614D01*
X189790397Y-30203054D01*
X189810522Y-30246212D01*
X189893929Y-30312402D01*
X189957211Y-30335435D01*
X190063650Y-30338343D01*
X190236281Y-30257844D01*
X190342720Y-30260752D01*
X190406002Y-30283785D01*
X190489409Y-30349976D01*
X190569908Y-30522606D01*
X190567000Y-30629045D01*
X190543967Y-30692328D01*
X190477777Y-30775734D01*
X190305147Y-30856233D01*
X190198707Y-30853325D01*
X190135425Y-30830292D01*
X190052018Y-30764102D01*
X189971519Y-30591472D01*
X189974427Y-30485032D01*
X189997460Y-30421750D01*
X190063650Y-30338343D01*
%TO.C,SW6*%
X161259156Y-52623394D02*
X161149808Y-52726926D01*
X160934020Y-52827549D01*
X160827581Y-52824641D01*
X160764298Y-52801608D01*
X160680891Y-52735418D01*
X160640642Y-52649103D01*
X160643550Y-52542663D01*
X160666583Y-52479381D01*
X160732773Y-52395974D01*
X160885279Y-52272318D01*
X160951469Y-52188911D01*
X160974502Y-52125629D01*
X160977410Y-52019189D01*
X160937161Y-51932874D01*
X160853754Y-51866684D01*
X160790472Y-51843651D01*
X160684032Y-51840743D01*
X160468244Y-51941366D01*
X160358897Y-52044898D01*
X160036669Y-52142613D02*
X160243500Y-53149544D01*
X159769000Y-52582680D01*
X159898240Y-53310542D01*
X159259834Y-52504857D01*
X158526156Y-52846977D02*
X158698786Y-52766478D01*
X158805226Y-52769386D01*
X158868508Y-52792419D01*
X159015197Y-52881642D01*
X159138854Y-53034148D01*
X159299851Y-53379408D01*
X159296943Y-53485847D01*
X159273910Y-53549130D01*
X159207720Y-53632536D01*
X159035090Y-53713035D01*
X158928650Y-53710127D01*
X158865368Y-53687094D01*
X158781961Y-53620904D01*
X158681337Y-53405116D01*
X158684246Y-53298677D01*
X158707278Y-53235394D01*
X158773469Y-53151988D01*
X158946099Y-53071489D01*
X159052539Y-53074397D01*
X159115821Y-53097430D01*
X159199228Y-53163620D01*
%TO.C,SW5*%
X132857664Y-53750376D02*
X132708067Y-53733160D01*
X132492279Y-53632536D01*
X132426089Y-53549130D01*
X132403056Y-53485847D01*
X132400148Y-53379408D01*
X132440397Y-53293093D01*
X132523804Y-53226902D01*
X132587086Y-53203869D01*
X132693526Y-53200961D01*
X132886281Y-53238303D01*
X132992721Y-53235394D01*
X133056003Y-53212362D01*
X133139410Y-53146171D01*
X133179659Y-53059856D01*
X133176751Y-52953416D01*
X133153718Y-52890134D01*
X133087528Y-52806727D01*
X132871740Y-52706104D01*
X132722143Y-52688887D01*
X132440165Y-52504857D02*
X131801759Y-53310542D01*
X131930999Y-52582680D01*
X131456499Y-53149544D01*
X131663330Y-52142613D01*
X130886494Y-51780369D02*
X131318070Y-51981616D01*
X131159980Y-52433315D01*
X131136947Y-52370033D01*
X131070757Y-52286626D01*
X130854970Y-52186003D01*
X130748530Y-52188911D01*
X130685248Y-52211944D01*
X130601841Y-52278134D01*
X130501217Y-52493922D01*
X130504126Y-52600362D01*
X130527158Y-52663644D01*
X130593349Y-52747051D01*
X130809136Y-52847674D01*
X130915576Y-52844766D01*
X130978858Y-52821733D01*
%TO.C,SW3*%
X101587607Y-30893574D02*
X101438010Y-30876358D01*
X101222222Y-30775734D01*
X101156032Y-30692328D01*
X101132999Y-30629045D01*
X101130091Y-30522606D01*
X101170340Y-30436291D01*
X101253747Y-30370100D01*
X101317029Y-30347067D01*
X101423469Y-30344159D01*
X101616224Y-30381501D01*
X101722664Y-30378592D01*
X101785946Y-30355560D01*
X101869353Y-30289369D01*
X101909602Y-30203054D01*
X101906694Y-30096614D01*
X101883661Y-30033332D01*
X101817471Y-29949925D01*
X101601683Y-29849302D01*
X101452086Y-29832085D01*
X101170108Y-29648055D02*
X100531702Y-30453740D01*
X100660942Y-29725878D01*
X100186442Y-30292742D01*
X100393273Y-29285811D01*
X100134328Y-29165063D02*
X99573280Y-28903442D01*
X99714385Y-29389575D01*
X99584913Y-29329201D01*
X99478473Y-29332109D01*
X99415191Y-29355142D01*
X99331784Y-29421332D01*
X99231160Y-29637120D01*
X99234069Y-29743560D01*
X99257101Y-29806842D01*
X99323292Y-29890249D01*
X99582237Y-30010997D01*
X99688677Y-30008089D01*
X99751959Y-29985056D01*
%TO.C,SW2*%
X82254669Y-27395366D02*
X82105072Y-27378150D01*
X81889284Y-27277526D01*
X81823094Y-27194120D01*
X81800061Y-27130837D01*
X81797153Y-27024398D01*
X81837402Y-26938083D01*
X81920809Y-26871892D01*
X81984091Y-26848859D01*
X82090531Y-26845951D01*
X82283286Y-26883293D01*
X82389726Y-26880384D01*
X82453008Y-26857352D01*
X82536415Y-26791161D01*
X82576664Y-26704846D01*
X82573756Y-26598406D01*
X82550723Y-26535124D01*
X82484533Y-26451717D01*
X82268745Y-26351094D01*
X82119148Y-26333877D01*
X81837170Y-26149847D02*
X81198764Y-26955532D01*
X81328004Y-26227670D01*
X80853504Y-26794534D01*
X81060335Y-25787603D01*
X80717983Y-25733045D02*
X80694950Y-25669763D01*
X80628760Y-25586356D01*
X80412972Y-25485733D01*
X80306532Y-25488641D01*
X80243250Y-25511674D01*
X80159843Y-25577864D01*
X80119594Y-25664179D01*
X80102377Y-25813776D01*
X80378771Y-26573163D01*
X79817724Y-26311542D01*
%TO.C,SW1*%
X59752094Y-30694466D02*
X59602497Y-30677250D01*
X59386709Y-30576626D01*
X59320519Y-30493220D01*
X59297486Y-30429937D01*
X59294578Y-30323498D01*
X59334827Y-30237183D01*
X59418234Y-30170992D01*
X59481516Y-30147959D01*
X59587956Y-30145051D01*
X59780711Y-30182393D01*
X59887151Y-30179484D01*
X59950433Y-30156452D01*
X60033840Y-30090261D01*
X60074089Y-30003946D01*
X60071181Y-29897506D01*
X60048148Y-29834224D01*
X59981958Y-29750817D01*
X59766170Y-29650194D01*
X59616573Y-29632977D01*
X59334595Y-29448947D02*
X58696189Y-30254632D01*
X58825429Y-29526770D01*
X58350929Y-30093634D01*
X58557760Y-29086703D01*
X57315149Y-29610642D02*
X57833039Y-29852138D01*
X57574094Y-29731390D02*
X57996712Y-28825082D01*
X58022653Y-28994804D01*
X58068719Y-29121368D01*
X58134909Y-29204775D01*
%TO.C,Y1*%
X162328783Y-86532213D02*
X162804973Y-86532213D01*
X161804973Y-86198880D02*
X162328783Y-86532213D01*
X161804973Y-86865546D01*
X162804973Y-87722689D02*
X162804973Y-87151261D01*
X162804973Y-87436975D02*
X161804973Y-87436975D01*
X161947831Y-87341737D01*
X162043069Y-87246499D01*
X162090688Y-87151261D01*
%TO.C,USB1*%
X147590688Y-61560784D02*
X147590688Y-62370308D01*
X147543069Y-62465546D01*
X147495450Y-62513165D01*
X147400212Y-62560784D01*
X147209735Y-62560784D01*
X147114497Y-62513165D01*
X147066878Y-62465546D01*
X147019259Y-62370308D01*
X147019259Y-61560784D01*
X146590688Y-62513165D02*
X146447831Y-62560784D01*
X146209735Y-62560784D01*
X146114497Y-62513165D01*
X146066878Y-62465546D01*
X146019259Y-62370308D01*
X146019259Y-62275070D01*
X146066878Y-62179832D01*
X146114497Y-62132213D01*
X146209735Y-62084594D01*
X146400212Y-62036975D01*
X146495450Y-61989356D01*
X146543069Y-61941737D01*
X146590688Y-61846499D01*
X146590688Y-61751261D01*
X146543069Y-61656023D01*
X146495450Y-61608404D01*
X146400212Y-61560784D01*
X146162116Y-61560784D01*
X146019259Y-61608404D01*
X145257354Y-62036975D02*
X145114497Y-62084594D01*
X145066878Y-62132213D01*
X145019259Y-62227451D01*
X145019259Y-62370308D01*
X145066878Y-62465546D01*
X145114497Y-62513165D01*
X145209735Y-62560784D01*
X145590688Y-62560784D01*
X145590688Y-61560784D01*
X145257354Y-61560784D01*
X145162116Y-61608404D01*
X145114497Y-61656023D01*
X145066878Y-61751261D01*
X145066878Y-61846499D01*
X145114497Y-61941737D01*
X145162116Y-61989356D01*
X145257354Y-62036975D01*
X145590688Y-62036975D01*
X144066878Y-62560784D02*
X144638307Y-62560784D01*
X144352593Y-62560784D02*
X144352593Y-61560784D01*
X144447831Y-61703642D01*
X144543069Y-61798880D01*
X144638307Y-61846499D01*
%TO.C,U2*%
X146614497Y-69760784D02*
X146614497Y-70570308D01*
X146566878Y-70665546D01*
X146519259Y-70713165D01*
X146424021Y-70760784D01*
X146233545Y-70760784D01*
X146138307Y-70713165D01*
X146090688Y-70665546D01*
X146043069Y-70570308D01*
X146043069Y-69760784D01*
X145614497Y-69856023D02*
X145566878Y-69808404D01*
X145471640Y-69760784D01*
X145233545Y-69760784D01*
X145138307Y-69808404D01*
X145090688Y-69856023D01*
X145043069Y-69951261D01*
X145043069Y-70046499D01*
X145090688Y-70189356D01*
X145662116Y-70760784D01*
X145043069Y-70760784D01*
%TO.C,U1*%
X139854973Y-86096499D02*
X140664497Y-86096499D01*
X140759735Y-86144118D01*
X140807354Y-86191737D01*
X140854973Y-86286975D01*
X140854973Y-86477451D01*
X140807354Y-86572689D01*
X140759735Y-86620308D01*
X140664497Y-86667927D01*
X139854973Y-86667927D01*
X140854973Y-87667927D02*
X140854973Y-87096499D01*
X140854973Y-87382213D02*
X139854973Y-87382213D01*
X139997831Y-87286975D01*
X140093069Y-87191737D01*
X140140688Y-87096499D01*
%TO.C,SW41*%
X168662116Y-144999165D02*
X168519259Y-145046784D01*
X168281164Y-145046784D01*
X168185926Y-144999165D01*
X168138307Y-144951546D01*
X168090688Y-144856308D01*
X168090688Y-144761070D01*
X168138307Y-144665832D01*
X168185926Y-144618213D01*
X168281164Y-144570594D01*
X168471640Y-144522975D01*
X168566878Y-144475356D01*
X168614497Y-144427737D01*
X168662116Y-144332499D01*
X168662116Y-144237261D01*
X168614497Y-144142023D01*
X168566878Y-144094404D01*
X168471640Y-144046784D01*
X168233545Y-144046784D01*
X168090688Y-144094404D01*
X167757354Y-144046784D02*
X167519259Y-145046784D01*
X167328783Y-144332499D01*
X167138307Y-145046784D01*
X166900212Y-144046784D01*
X166090688Y-144380118D02*
X166090688Y-145046784D01*
X166328783Y-143999165D02*
X166566878Y-144713451D01*
X165947831Y-144713451D01*
X165043069Y-145046784D02*
X165614497Y-145046784D01*
X165328783Y-145046784D02*
X165328783Y-144046784D01*
X165424021Y-144189642D01*
X165519259Y-144284880D01*
X165614497Y-144332499D01*
%TO.C,R6*%
X141819259Y-63660784D02*
X142152593Y-63184594D01*
X142390688Y-63660784D02*
X142390688Y-62660784D01*
X142009735Y-62660784D01*
X141914497Y-62708404D01*
X141866878Y-62756023D01*
X141819259Y-62851261D01*
X141819259Y-62994118D01*
X141866878Y-63089356D01*
X141914497Y-63136975D01*
X142009735Y-63184594D01*
X142390688Y-63184594D01*
X140962116Y-62660784D02*
X141152593Y-62660784D01*
X141247831Y-62708404D01*
X141295450Y-62756023D01*
X141390688Y-62898880D01*
X141438307Y-63089356D01*
X141438307Y-63470308D01*
X141390688Y-63565546D01*
X141343069Y-63613165D01*
X141247831Y-63660784D01*
X141057354Y-63660784D01*
X140962116Y-63613165D01*
X140914497Y-63565546D01*
X140866878Y-63470308D01*
X140866878Y-63232213D01*
X140914497Y-63136975D01*
X140962116Y-63089356D01*
X141057354Y-63041737D01*
X141247831Y-63041737D01*
X141343069Y-63089356D01*
X141390688Y-63136975D01*
X141438307Y-63232213D01*
%TO.C,R5*%
X150219259Y-66960784D02*
X150552593Y-66484594D01*
X150790688Y-66960784D02*
X150790688Y-65960784D01*
X150409735Y-65960784D01*
X150314497Y-66008404D01*
X150266878Y-66056023D01*
X150219259Y-66151261D01*
X150219259Y-66294118D01*
X150266878Y-66389356D01*
X150314497Y-66436975D01*
X150409735Y-66484594D01*
X150790688Y-66484594D01*
X149314497Y-65960784D02*
X149790688Y-65960784D01*
X149838307Y-66436975D01*
X149790688Y-66389356D01*
X149695450Y-66341737D01*
X149457354Y-66341737D01*
X149362116Y-66389356D01*
X149314497Y-66436975D01*
X149266878Y-66532213D01*
X149266878Y-66770308D01*
X149314497Y-66865546D01*
X149362116Y-66913165D01*
X149457354Y-66960784D01*
X149695450Y-66960784D01*
X149790688Y-66913165D01*
X149838307Y-66865546D01*
%TO.C,R4*%
X160819259Y-152560784D02*
X161152593Y-152084594D01*
X161390688Y-152560784D02*
X161390688Y-151560784D01*
X161009735Y-151560784D01*
X160914497Y-151608404D01*
X160866878Y-151656023D01*
X160819259Y-151751261D01*
X160819259Y-151894118D01*
X160866878Y-151989356D01*
X160914497Y-152036975D01*
X161009735Y-152084594D01*
X161390688Y-152084594D01*
X159962116Y-151894118D02*
X159962116Y-152560784D01*
X160200212Y-151513165D02*
X160438307Y-152227451D01*
X159819259Y-152227451D01*
%TO.C,R3*%
X146054973Y-73291737D02*
X145578783Y-72958404D01*
X146054973Y-72720308D02*
X145054973Y-72720308D01*
X145054973Y-73101261D01*
X145102593Y-73196499D01*
X145150212Y-73244118D01*
X145245450Y-73291737D01*
X145388307Y-73291737D01*
X145483545Y-73244118D01*
X145531164Y-73196499D01*
X145578783Y-73101261D01*
X145578783Y-72720308D01*
X145054973Y-73625070D02*
X145054973Y-74244118D01*
X145435926Y-73910784D01*
X145435926Y-74053642D01*
X145483545Y-74148880D01*
X145531164Y-74196499D01*
X145626402Y-74244118D01*
X145864497Y-74244118D01*
X145959735Y-74196499D01*
X146007354Y-74148880D01*
X146054973Y-74053642D01*
X146054973Y-73767927D01*
X146007354Y-73672689D01*
X145959735Y-73625070D01*
%TO.C,R2*%
X146554973Y-73291737D02*
X146078783Y-72958404D01*
X146554973Y-72720308D02*
X145554973Y-72720308D01*
X145554973Y-73101261D01*
X145602593Y-73196499D01*
X145650212Y-73244118D01*
X145745450Y-73291737D01*
X145888307Y-73291737D01*
X145983545Y-73244118D01*
X146031164Y-73196499D01*
X146078783Y-73101261D01*
X146078783Y-72720308D01*
X145650212Y-73672689D02*
X145602593Y-73720308D01*
X145554973Y-73815546D01*
X145554973Y-74053642D01*
X145602593Y-74148880D01*
X145650212Y-74196499D01*
X145745450Y-74244118D01*
X145840688Y-74244118D01*
X145983545Y-74196499D01*
X146554973Y-73625070D01*
X146554973Y-74244118D01*
%TO.C,R1*%
X142419259Y-96960784D02*
X142752593Y-96484594D01*
X142990688Y-96960784D02*
X142990688Y-95960784D01*
X142609735Y-95960784D01*
X142514497Y-96008404D01*
X142466878Y-96056023D01*
X142419259Y-96151261D01*
X142419259Y-96294118D01*
X142466878Y-96389356D01*
X142514497Y-96436975D01*
X142609735Y-96484594D01*
X142990688Y-96484594D01*
X141466878Y-96960784D02*
X142038307Y-96960784D01*
X141752593Y-96960784D02*
X141752593Y-95960784D01*
X141847831Y-96103642D01*
X141943069Y-96198880D01*
X142038307Y-96246499D01*
%TO.C,F1*%
X143201164Y-70325070D02*
X143201164Y-69991737D01*
X143724973Y-69991737D02*
X142724973Y-69991737D01*
X142724973Y-70467927D01*
X143724973Y-71372689D02*
X143724973Y-70801261D01*
X143724973Y-71086975D02*
X142724973Y-71086975D01*
X142867831Y-70991737D01*
X142963069Y-70896499D01*
X143010688Y-70801261D01*
%TO.C,D40*%
X247453473Y-82566013D02*
X248359781Y-82143394D01*
X248259158Y-81927607D01*
X248155626Y-81818259D01*
X248029062Y-81772193D01*
X247922622Y-81769285D01*
X247729867Y-81806626D01*
X247600395Y-81867000D01*
X247447890Y-81990657D01*
X247381699Y-82074063D01*
X247335634Y-82200628D01*
X247352850Y-82350225D01*
X247453473Y-82566013D01*
X247453938Y-80989542D02*
X246849733Y-81271287D01*
X247899822Y-81044332D02*
X247353082Y-81561990D01*
X247091462Y-81000942D01*
X247454171Y-80201306D02*
X247413921Y-80114991D01*
X247330514Y-80048801D01*
X247267232Y-80025768D01*
X247160793Y-80022860D01*
X246968038Y-80060201D01*
X246752250Y-80160824D01*
X246599745Y-80284481D01*
X246533555Y-80367888D01*
X246510522Y-80431170D01*
X246507614Y-80537609D01*
X246547863Y-80623924D01*
X246631270Y-80690115D01*
X246694552Y-80713148D01*
X246800992Y-80716056D01*
X246993746Y-80678715D01*
X247209534Y-80578091D01*
X247362039Y-80454435D01*
X247428230Y-80371028D01*
X247451263Y-80307746D01*
X247454171Y-80201306D01*
%TO.C,D39*%
X228120534Y-86064221D02*
X229026842Y-85641602D01*
X228926219Y-85425815D01*
X228822687Y-85316467D01*
X228696123Y-85270401D01*
X228589683Y-85267493D01*
X228396928Y-85304834D01*
X228267456Y-85365208D01*
X228114951Y-85488865D01*
X228048760Y-85572271D01*
X228002695Y-85698836D01*
X228019911Y-85848433D01*
X228120534Y-86064221D01*
X228644473Y-84821610D02*
X228382852Y-84260562D01*
X228178465Y-84723662D01*
X228118091Y-84594189D01*
X228034684Y-84527999D01*
X227971402Y-84504966D01*
X227864962Y-84502058D01*
X227649175Y-84602681D01*
X227582984Y-84686088D01*
X227559952Y-84749370D01*
X227557043Y-84855810D01*
X227677791Y-85114755D01*
X227761198Y-85180946D01*
X227824481Y-85203978D01*
X227275298Y-84251605D02*
X227194799Y-84078975D01*
X227197707Y-83972535D01*
X227220740Y-83909253D01*
X227309963Y-83762564D01*
X227462469Y-83638908D01*
X227807729Y-83477910D01*
X227914169Y-83480818D01*
X227977451Y-83503851D01*
X228060858Y-83570042D01*
X228141356Y-83742672D01*
X228138448Y-83849111D01*
X228115415Y-83912394D01*
X228049225Y-83995800D01*
X227833437Y-84096424D01*
X227726998Y-84093516D01*
X227663716Y-84070483D01*
X227580309Y-84004293D01*
X227499810Y-83831662D01*
X227502718Y-83725223D01*
X227525751Y-83661941D01*
X227591941Y-83578534D01*
%TO.C,D38*%
X219353052Y-112220124D02*
X220259360Y-111797505D01*
X220158737Y-111581718D01*
X220055205Y-111472370D01*
X219928641Y-111426304D01*
X219822201Y-111423396D01*
X219629446Y-111460737D01*
X219499974Y-111521111D01*
X219347469Y-111644768D01*
X219281278Y-111728174D01*
X219235213Y-111854739D01*
X219252429Y-112004336D01*
X219353052Y-112220124D01*
X219876991Y-110977513D02*
X219615370Y-110416465D01*
X219410983Y-110879565D01*
X219350609Y-110750092D01*
X219267202Y-110683902D01*
X219203920Y-110660869D01*
X219097480Y-110657961D01*
X218881693Y-110758584D01*
X218815502Y-110841991D01*
X218792470Y-110905273D01*
X218789561Y-111011713D01*
X218910309Y-111270658D01*
X218993716Y-111336849D01*
X219056999Y-111359881D01*
X218985457Y-110079697D02*
X219068864Y-110145887D01*
X219132146Y-110168920D01*
X219238585Y-110171828D01*
X219281743Y-110151703D01*
X219347933Y-110068297D01*
X219370966Y-110005014D01*
X219373874Y-109898575D01*
X219293376Y-109725945D01*
X219209969Y-109659754D01*
X219146687Y-109636721D01*
X219040247Y-109633813D01*
X218997089Y-109653938D01*
X218930899Y-109737345D01*
X218907866Y-109800627D01*
X218904958Y-109907067D01*
X218985457Y-110079697D01*
X218982549Y-110186137D01*
X218959516Y-110249419D01*
X218893325Y-110332826D01*
X218720695Y-110413324D01*
X218614256Y-110410416D01*
X218550973Y-110387383D01*
X218467567Y-110321193D01*
X218387068Y-110148563D01*
X218389976Y-110042123D01*
X218413009Y-109978841D01*
X218479199Y-109895434D01*
X218651829Y-109814935D01*
X218758269Y-109817844D01*
X218821551Y-109840876D01*
X218904958Y-109907067D01*
%TO.C,D37*%
X200495905Y-121135260D02*
X201315057Y-120561684D01*
X201178492Y-120366648D01*
X201057545Y-120276939D01*
X200924904Y-120253551D01*
X200819576Y-120269170D01*
X200636234Y-120339415D01*
X200519213Y-120421355D01*
X200390497Y-120569615D01*
X200339795Y-120663248D01*
X200316407Y-120795889D01*
X200359340Y-120940224D01*
X200495905Y-121135260D01*
X200796107Y-119820546D02*
X200441036Y-119313452D01*
X200320170Y-119805008D01*
X200238231Y-119687986D01*
X200144597Y-119637285D01*
X200078277Y-119625591D01*
X199972949Y-119641210D01*
X199777913Y-119777776D01*
X199727212Y-119871409D01*
X199715518Y-119937730D01*
X199731137Y-120043057D01*
X199895016Y-120277101D01*
X199988649Y-120327802D01*
X200054970Y-120339496D01*
X200249844Y-119040401D02*
X199867460Y-118494300D01*
X199294126Y-119418942D01*
%TO.C,D36*%
X183473342Y-133189465D02*
X184180448Y-132482358D01*
X184012090Y-132313999D01*
X183877403Y-132246656D01*
X183742716Y-132246656D01*
X183641700Y-132280328D01*
X183473342Y-132381343D01*
X183372326Y-132482358D01*
X183271311Y-132650717D01*
X183237639Y-132751732D01*
X183237639Y-132886419D01*
X183304983Y-133021106D01*
X183473342Y-133189465D01*
X183540685Y-131842595D02*
X183102952Y-131404862D01*
X183069281Y-131909938D01*
X182968265Y-131808923D01*
X182867250Y-131775251D01*
X182799906Y-131775251D01*
X182698891Y-131808923D01*
X182530532Y-131977282D01*
X182496861Y-132078297D01*
X182496861Y-132145641D01*
X182530532Y-132246656D01*
X182732563Y-132448686D01*
X182833578Y-132482358D01*
X182900922Y-132482358D01*
X182496861Y-130798770D02*
X182631548Y-130933457D01*
X182665219Y-131034473D01*
X182665219Y-131101816D01*
X182631548Y-131270175D01*
X182530532Y-131438534D01*
X182261158Y-131707908D01*
X182160143Y-131741579D01*
X182092800Y-131741579D01*
X181991784Y-131707908D01*
X181857097Y-131573221D01*
X181823426Y-131472205D01*
X181823426Y-131404862D01*
X181857097Y-131303847D01*
X182025456Y-131135488D01*
X182126471Y-131101816D01*
X182193815Y-131101816D01*
X182294830Y-131135488D01*
X182429517Y-131270175D01*
X182463189Y-131371190D01*
X182463189Y-131438534D01*
X182429517Y-131539549D01*
%TO.C,D35*%
X124439606Y-145967894D02*
X123732499Y-145260788D01*
X123564140Y-145429146D01*
X123496797Y-145563833D01*
X123496797Y-145698520D01*
X123530469Y-145799536D01*
X123631484Y-145967894D01*
X123732499Y-146068910D01*
X123900858Y-146169925D01*
X124001873Y-146203597D01*
X124136560Y-146203597D01*
X124271247Y-146136253D01*
X124439606Y-145967894D01*
X123092736Y-145900551D02*
X122655003Y-146338284D01*
X123160079Y-146371955D01*
X123059064Y-146472971D01*
X123025392Y-146573986D01*
X123025392Y-146641330D01*
X123059064Y-146742345D01*
X123227423Y-146910704D01*
X123328438Y-146944375D01*
X123395782Y-146944375D01*
X123496797Y-146910704D01*
X123698827Y-146708673D01*
X123732499Y-146607658D01*
X123732499Y-146540314D01*
X122015240Y-146978047D02*
X122351957Y-146641330D01*
X122722346Y-146944375D01*
X122655003Y-146944375D01*
X122553988Y-146978047D01*
X122385629Y-147146406D01*
X122351957Y-147247421D01*
X122351957Y-147314765D01*
X122385629Y-147415780D01*
X122553988Y-147584139D01*
X122655003Y-147617810D01*
X122722346Y-147617810D01*
X122823362Y-147584139D01*
X122991720Y-147415780D01*
X123025392Y-147314765D01*
X123025392Y-147247421D01*
%TO.C,D34*%
X109389679Y-130904207D02*
X108570527Y-130330630D01*
X108433961Y-130525667D01*
X108391029Y-130670002D01*
X108414417Y-130802642D01*
X108465118Y-130896276D01*
X108593834Y-131044536D01*
X108710856Y-131126475D01*
X108894198Y-131196721D01*
X108999526Y-131212340D01*
X109132166Y-131188952D01*
X109253113Y-131099243D01*
X109389679Y-130904207D01*
X108051577Y-131071768D02*
X107696506Y-131578862D01*
X108199756Y-131524317D01*
X108117816Y-131641339D01*
X108102197Y-131746666D01*
X108113891Y-131812987D01*
X108164593Y-131906620D01*
X108359629Y-132043186D01*
X108464956Y-132058805D01*
X108531277Y-132047111D01*
X108624910Y-131996410D01*
X108788789Y-131762366D01*
X108804408Y-131657039D01*
X108792714Y-131590718D01*
X107477919Y-132472185D02*
X108024021Y-132854569D01*
X107302427Y-132058643D02*
X108024102Y-132273304D01*
X107669031Y-132780399D01*
%TO.C,D33*%
X91952615Y-118682764D02*
X91046307Y-118260146D01*
X90945684Y-118475934D01*
X90928467Y-118625531D01*
X90974533Y-118752095D01*
X91040724Y-118835502D01*
X91193229Y-118959158D01*
X91322701Y-119019532D01*
X91515456Y-119056874D01*
X91621896Y-119053965D01*
X91748460Y-119007900D01*
X91851992Y-118898552D01*
X91952615Y-118682764D01*
X90663939Y-119080139D02*
X90402318Y-119641187D01*
X90888451Y-119500081D01*
X90828077Y-119629554D01*
X90830985Y-119735994D01*
X90854017Y-119799276D01*
X90920208Y-119882683D01*
X91135995Y-119983306D01*
X91242435Y-119980398D01*
X91305717Y-119957365D01*
X91389124Y-119891175D01*
X91509872Y-119632230D01*
X91506964Y-119525790D01*
X91483931Y-119462508D01*
X90261445Y-119943289D02*
X89999824Y-120504337D01*
X90485957Y-120363232D01*
X90425583Y-120492704D01*
X90428491Y-120599144D01*
X90451524Y-120662426D01*
X90517714Y-120745833D01*
X90733502Y-120846456D01*
X90839942Y-120843548D01*
X90903224Y-120820515D01*
X90986631Y-120754325D01*
X91107379Y-120495380D01*
X91104471Y-120388940D01*
X91081438Y-120325658D01*
%TO.C,D32*%
X83185132Y-92526861D02*
X82278824Y-92104243D01*
X82178201Y-92320031D01*
X82160984Y-92469628D01*
X82207050Y-92596192D01*
X82273241Y-92679599D01*
X82425746Y-92803255D01*
X82555218Y-92863629D01*
X82747973Y-92900971D01*
X82854413Y-92898062D01*
X82980977Y-92851997D01*
X83084509Y-92742649D01*
X83185132Y-92526861D01*
X81896456Y-92924236D02*
X81634835Y-93485284D01*
X82120968Y-93344178D01*
X82060594Y-93473651D01*
X82063502Y-93580091D01*
X82086534Y-93643373D01*
X82152725Y-93726780D01*
X82368512Y-93827403D01*
X82474952Y-93824495D01*
X82538234Y-93801462D01*
X82621641Y-93735272D01*
X82742389Y-93476327D01*
X82739481Y-93369887D01*
X82716448Y-93306605D01*
X81560152Y-93870793D02*
X81496870Y-93893826D01*
X81413463Y-93960016D01*
X81312840Y-94175804D01*
X81315748Y-94282243D01*
X81338781Y-94345526D01*
X81404971Y-94428933D01*
X81491286Y-94469182D01*
X81640883Y-94486398D01*
X82400270Y-94210004D01*
X82138649Y-94771052D01*
%TO.C,D31*%
X63852194Y-89028653D02*
X62945886Y-88606035D01*
X62845263Y-88821823D01*
X62828046Y-88971420D01*
X62874112Y-89097984D01*
X62940303Y-89181391D01*
X63092808Y-89305047D01*
X63222280Y-89365421D01*
X63415035Y-89402763D01*
X63521475Y-89399854D01*
X63648039Y-89353789D01*
X63751571Y-89244441D01*
X63852194Y-89028653D01*
X62563518Y-89426028D02*
X62301897Y-89987076D01*
X62788030Y-89845970D01*
X62727656Y-89975443D01*
X62730564Y-90081883D01*
X62753596Y-90145165D01*
X62819787Y-90228572D01*
X63035574Y-90329195D01*
X63142014Y-90326287D01*
X63205296Y-90303254D01*
X63288703Y-90237064D01*
X63409451Y-89978119D01*
X63406543Y-89871679D01*
X63383510Y-89808397D01*
X62805711Y-91272844D02*
X63047207Y-90754954D01*
X62926459Y-91013899D02*
X62020151Y-90591281D01*
X62189873Y-90565340D01*
X62316437Y-90519274D01*
X62399844Y-90453084D01*
%TO.C,D30*%
X261926301Y-68645266D02*
X262832609Y-68222647D01*
X262731986Y-68006860D01*
X262628454Y-67897512D01*
X262501890Y-67851446D01*
X262395450Y-67848538D01*
X262202695Y-67885879D01*
X262073223Y-67946253D01*
X261920718Y-68069910D01*
X261854527Y-68153316D01*
X261808462Y-68279881D01*
X261825678Y-68429478D01*
X261926301Y-68645266D01*
X262450240Y-67402655D02*
X262188619Y-66841607D01*
X261984232Y-67304707D01*
X261923858Y-67175234D01*
X261840451Y-67109044D01*
X261777169Y-67086011D01*
X261670729Y-67083103D01*
X261454942Y-67183726D01*
X261388751Y-67267133D01*
X261365719Y-67330415D01*
X261362810Y-67436855D01*
X261483558Y-67695800D01*
X261566965Y-67761991D01*
X261630248Y-67785023D01*
X261926999Y-66280559D02*
X261886749Y-66194244D01*
X261803342Y-66128054D01*
X261740060Y-66105021D01*
X261633621Y-66102113D01*
X261440866Y-66139454D01*
X261225078Y-66240077D01*
X261072573Y-66363734D01*
X261006383Y-66447141D01*
X260983350Y-66510423D01*
X260980442Y-66616862D01*
X261020691Y-66703177D01*
X261104098Y-66769368D01*
X261167380Y-66792401D01*
X261273820Y-66795309D01*
X261466574Y-66757968D01*
X261682362Y-66657344D01*
X261834867Y-66533688D01*
X261901058Y-66450281D01*
X261924091Y-66386999D01*
X261926999Y-66280559D01*
%TO.C,D29*%
X239423726Y-65346166D02*
X240330034Y-64923547D01*
X240229411Y-64707760D01*
X240125879Y-64598412D01*
X239999315Y-64552346D01*
X239892875Y-64549438D01*
X239700120Y-64586779D01*
X239570648Y-64647153D01*
X239418143Y-64770810D01*
X239351952Y-64854216D01*
X239305887Y-64980781D01*
X239323103Y-65130378D01*
X239423726Y-65346166D01*
X239841226Y-64100646D02*
X239864258Y-64037364D01*
X239867167Y-63930924D01*
X239766543Y-63715137D01*
X239683136Y-63648947D01*
X239619854Y-63625914D01*
X239513414Y-63623006D01*
X239427099Y-63663255D01*
X239317752Y-63766786D01*
X239041358Y-64526173D01*
X238779737Y-63965125D01*
X238578490Y-63533550D02*
X238497991Y-63360920D01*
X238500899Y-63254480D01*
X238523932Y-63191198D01*
X238613155Y-63044509D01*
X238765661Y-62920853D01*
X239110921Y-62759855D01*
X239217361Y-62762763D01*
X239280643Y-62785796D01*
X239364050Y-62851987D01*
X239444548Y-63024617D01*
X239441640Y-63131056D01*
X239418607Y-63194339D01*
X239352417Y-63277745D01*
X239136629Y-63378369D01*
X239030190Y-63375461D01*
X238966908Y-63352428D01*
X238883501Y-63286238D01*
X238803002Y-63113607D01*
X238805910Y-63007168D01*
X238828943Y-62943886D01*
X238895133Y-62860479D01*
%TO.C,D28*%
X220090788Y-68844374D02*
X220997096Y-68421755D01*
X220896473Y-68205968D01*
X220792941Y-68096620D01*
X220666377Y-68050554D01*
X220559937Y-68047646D01*
X220367182Y-68084987D01*
X220237710Y-68145361D01*
X220085205Y-68269018D01*
X220019014Y-68352424D01*
X219972949Y-68478989D01*
X219990165Y-68628586D01*
X220090788Y-68844374D01*
X220508288Y-67598854D02*
X220531320Y-67535572D01*
X220534229Y-67429132D01*
X220433605Y-67213345D01*
X220350198Y-67147155D01*
X220286916Y-67124122D01*
X220180476Y-67121214D01*
X220094161Y-67161463D01*
X219984814Y-67264994D01*
X219708420Y-68024381D01*
X219446799Y-67463333D01*
X219723193Y-66703947D02*
X219806600Y-66770137D01*
X219869882Y-66793170D01*
X219976321Y-66796078D01*
X220019479Y-66775953D01*
X220085669Y-66692547D01*
X220108702Y-66629264D01*
X220111610Y-66522825D01*
X220031112Y-66350195D01*
X219947705Y-66284004D01*
X219884423Y-66260971D01*
X219777983Y-66258063D01*
X219734825Y-66278188D01*
X219668635Y-66361595D01*
X219645602Y-66424877D01*
X219642694Y-66531317D01*
X219723193Y-66703947D01*
X219720285Y-66810387D01*
X219697252Y-66873669D01*
X219631061Y-66957076D01*
X219458431Y-67037574D01*
X219351992Y-67034666D01*
X219288709Y-67011633D01*
X219205303Y-66945443D01*
X219124804Y-66772813D01*
X219127712Y-66666373D01*
X219150745Y-66603091D01*
X219216935Y-66519684D01*
X219389565Y-66439185D01*
X219496005Y-66442094D01*
X219559287Y-66465126D01*
X219642694Y-66531317D01*
%TO.C,D27*%
X204984032Y-81405659D02*
X205890340Y-80983040D01*
X205789717Y-80767253D01*
X205686185Y-80657905D01*
X205559621Y-80611839D01*
X205453181Y-80608931D01*
X205260426Y-80646272D01*
X205130954Y-80706646D01*
X204978449Y-80830303D01*
X204912258Y-80913709D01*
X204866193Y-81040274D01*
X204883409Y-81189871D01*
X204984032Y-81405659D01*
X205401532Y-80160139D02*
X205424564Y-80096857D01*
X205427473Y-79990417D01*
X205326849Y-79774630D01*
X205243442Y-79708440D01*
X205180160Y-79685407D01*
X205073720Y-79682499D01*
X204987405Y-79722748D01*
X204878058Y-79826279D01*
X204601664Y-80585666D01*
X204340043Y-80024618D01*
X205105478Y-79299897D02*
X204823732Y-78695692D01*
X204098547Y-79506728D01*
%TO.C,D26*%
X188820730Y-91701176D02*
X189727038Y-91278557D01*
X189626415Y-91062770D01*
X189522883Y-90953422D01*
X189396319Y-90907356D01*
X189289879Y-90904448D01*
X189097124Y-90941789D01*
X188967652Y-91002163D01*
X188815147Y-91125820D01*
X188748956Y-91209226D01*
X188702891Y-91335791D01*
X188720107Y-91485388D01*
X188820730Y-91701176D01*
X189238230Y-90455656D02*
X189261262Y-90392374D01*
X189264171Y-90285934D01*
X189163547Y-90070147D01*
X189080140Y-90003957D01*
X189016858Y-89980924D01*
X188910418Y-89978016D01*
X188824103Y-90018265D01*
X188714756Y-90121796D01*
X188438362Y-90881183D01*
X188176741Y-90320135D01*
X188720804Y-89120682D02*
X188801303Y-89293312D01*
X188798395Y-89399751D01*
X188775362Y-89463034D01*
X188686139Y-89609723D01*
X188533633Y-89733379D01*
X188188373Y-89894376D01*
X188081934Y-89891468D01*
X188018651Y-89868435D01*
X187935245Y-89802245D01*
X187854746Y-89629615D01*
X187857654Y-89523175D01*
X187880687Y-89459893D01*
X187946877Y-89376486D01*
X188162665Y-89275863D01*
X188269104Y-89278771D01*
X188332387Y-89301804D01*
X188415794Y-89367994D01*
X188496292Y-89540624D01*
X188493384Y-89647064D01*
X188470351Y-89710346D01*
X188404161Y-89793753D01*
%TO.C,D25*%
X122484936Y-98163816D02*
X121578628Y-97741198D01*
X121478005Y-97956986D01*
X121460788Y-98106583D01*
X121506854Y-98233147D01*
X121573045Y-98316554D01*
X121725550Y-98440210D01*
X121855022Y-98500584D01*
X122047777Y-98537926D01*
X122154217Y-98535017D01*
X122280781Y-98488952D01*
X122384313Y-98379604D01*
X122484936Y-98163816D01*
X121262450Y-98644598D02*
X121199168Y-98667631D01*
X121115761Y-98733821D01*
X121015137Y-98949608D01*
X121018046Y-99056048D01*
X121041078Y-99119330D01*
X121107269Y-99202737D01*
X121193584Y-99242987D01*
X121343181Y-99260203D01*
X122102567Y-98983809D01*
X121840946Y-99544857D01*
X120552270Y-99942231D02*
X120753517Y-99510656D01*
X121205216Y-99668745D01*
X121141934Y-99691778D01*
X121058527Y-99757969D01*
X120957904Y-99973756D01*
X120960812Y-100080196D01*
X120983845Y-100143478D01*
X121050035Y-100226885D01*
X121265823Y-100327508D01*
X121372263Y-100324600D01*
X121435545Y-100301567D01*
X121518952Y-100235377D01*
X121619575Y-100019589D01*
X121616667Y-99913150D01*
X121593634Y-99849868D01*
%TO.C,D24*%
X106321635Y-87868300D02*
X105415327Y-87445682D01*
X105314704Y-87661470D01*
X105297487Y-87811067D01*
X105343553Y-87937631D01*
X105409744Y-88021038D01*
X105562249Y-88144694D01*
X105691721Y-88205068D01*
X105884476Y-88242410D01*
X105990916Y-88239501D01*
X106117480Y-88193436D01*
X106221012Y-88084088D01*
X106321635Y-87868300D01*
X105099149Y-88349082D02*
X105035867Y-88372115D01*
X104952460Y-88438305D01*
X104851836Y-88654092D01*
X104854745Y-88760532D01*
X104877777Y-88823814D01*
X104943968Y-88907221D01*
X105030283Y-88947471D01*
X105179880Y-88964687D01*
X105939266Y-88688293D01*
X105677645Y-89249341D01*
X104711196Y-89744431D02*
X105315401Y-90026176D01*
X104466559Y-89367646D02*
X105214545Y-89453728D01*
X104952925Y-90014776D01*
%TO.C,D23*%
X91214879Y-75307014D02*
X90308571Y-74884396D01*
X90207948Y-75100184D01*
X90190731Y-75249781D01*
X90236797Y-75376345D01*
X90302988Y-75459752D01*
X90455493Y-75583408D01*
X90584965Y-75643782D01*
X90777720Y-75681124D01*
X90884160Y-75678215D01*
X91010724Y-75632150D01*
X91114256Y-75522802D01*
X91214879Y-75307014D01*
X89992393Y-75787796D02*
X89929111Y-75810829D01*
X89845704Y-75877019D01*
X89745080Y-76092806D01*
X89747989Y-76199246D01*
X89771021Y-76262528D01*
X89837212Y-76345935D01*
X89923527Y-76386185D01*
X90073124Y-76403401D01*
X90832510Y-76127007D01*
X90570889Y-76688055D01*
X89523709Y-76567539D02*
X89262088Y-77128587D01*
X89748221Y-76987482D01*
X89687847Y-77116954D01*
X89690755Y-77223394D01*
X89713788Y-77286676D01*
X89779978Y-77370083D01*
X89995766Y-77470706D01*
X90102206Y-77467798D01*
X90165488Y-77444765D01*
X90248895Y-77378575D01*
X90369643Y-77119630D01*
X90366735Y-77013190D01*
X90343702Y-76949908D01*
%TO.C,D22*%
X71881941Y-71808806D02*
X70975633Y-71386188D01*
X70875010Y-71601976D01*
X70857793Y-71751573D01*
X70903859Y-71878137D01*
X70970050Y-71961544D01*
X71122555Y-72085200D01*
X71252027Y-72145574D01*
X71444782Y-72182916D01*
X71551222Y-72180007D01*
X71677786Y-72133942D01*
X71781318Y-72024594D01*
X71881941Y-71808806D01*
X70659455Y-72289588D02*
X70596173Y-72312621D01*
X70512766Y-72378811D01*
X70412142Y-72594598D01*
X70415051Y-72701038D01*
X70438083Y-72764320D01*
X70504274Y-72847727D01*
X70590589Y-72887977D01*
X70740186Y-72905193D01*
X71499572Y-72628799D01*
X71237951Y-73189847D01*
X70256961Y-73152738D02*
X70193679Y-73175771D01*
X70110272Y-73241961D01*
X70009649Y-73457749D01*
X70012557Y-73564188D01*
X70035590Y-73627471D01*
X70101780Y-73710878D01*
X70188095Y-73751127D01*
X70337692Y-73768343D01*
X71097079Y-73491949D01*
X70835458Y-74052997D01*
%TO.C,D21*%
X49379366Y-75107906D02*
X48473058Y-74685288D01*
X48372435Y-74901076D01*
X48355218Y-75050673D01*
X48401284Y-75177237D01*
X48467475Y-75260644D01*
X48619980Y-75384300D01*
X48749452Y-75444674D01*
X48942207Y-75482016D01*
X49048647Y-75479107D01*
X49175211Y-75433042D01*
X49278743Y-75323694D01*
X49379366Y-75107906D01*
X48156880Y-75588688D02*
X48093598Y-75611721D01*
X48010191Y-75677911D01*
X47909567Y-75893698D01*
X47912476Y-76000138D01*
X47935508Y-76063420D01*
X48001699Y-76146827D01*
X48088014Y-76187077D01*
X48237611Y-76204293D01*
X48996997Y-75927899D01*
X48735376Y-76488947D01*
X48332883Y-77352097D02*
X48574379Y-76834207D01*
X48453631Y-77093152D02*
X47547323Y-76670534D01*
X47717045Y-76644593D01*
X47843609Y-76598527D01*
X47927016Y-76532337D01*
%TO.C,D20*%
X253896554Y-51425419D02*
X254802862Y-51002800D01*
X254702239Y-50787013D01*
X254598707Y-50677665D01*
X254472143Y-50631599D01*
X254365703Y-50628691D01*
X254172948Y-50666032D01*
X254043476Y-50726406D01*
X253890971Y-50850063D01*
X253824780Y-50933469D01*
X253778715Y-51060034D01*
X253795931Y-51209631D01*
X253896554Y-51425419D01*
X254314054Y-50179899D02*
X254337086Y-50116617D01*
X254339995Y-50010177D01*
X254239371Y-49794390D01*
X254155964Y-49728200D01*
X254092682Y-49705167D01*
X253986242Y-49702259D01*
X253899927Y-49742508D01*
X253790580Y-49846039D01*
X253514186Y-50605426D01*
X253252565Y-50044378D01*
X253897252Y-49060712D02*
X253857002Y-48974397D01*
X253773595Y-48908207D01*
X253710313Y-48885174D01*
X253603874Y-48882266D01*
X253411119Y-48919607D01*
X253195331Y-49020230D01*
X253042826Y-49143887D01*
X252976636Y-49227294D01*
X252953603Y-49290576D01*
X252950695Y-49397015D01*
X252990944Y-49483330D01*
X253074351Y-49549521D01*
X253137633Y-49572554D01*
X253244073Y-49575462D01*
X253436827Y-49538121D01*
X253652615Y-49437497D01*
X253805120Y-49313841D01*
X253871311Y-49230434D01*
X253894344Y-49167152D01*
X253897252Y-49060712D01*
%TO.C,D19*%
X231393979Y-48126319D02*
X232300287Y-47703700D01*
X232199664Y-47487913D01*
X232096132Y-47378565D01*
X231969568Y-47332499D01*
X231863128Y-47329591D01*
X231670373Y-47366932D01*
X231540901Y-47427306D01*
X231388396Y-47550963D01*
X231322205Y-47634369D01*
X231276140Y-47760934D01*
X231293356Y-47910531D01*
X231393979Y-48126319D01*
X230749990Y-46745278D02*
X230991486Y-47263168D01*
X230870738Y-47004223D02*
X231777046Y-46581605D01*
X231687822Y-46728294D01*
X231641757Y-46854858D01*
X231638849Y-46961298D01*
X230548743Y-46313703D02*
X230468244Y-46141073D01*
X230471152Y-46034633D01*
X230494185Y-45971351D01*
X230583408Y-45824662D01*
X230735914Y-45701006D01*
X231081174Y-45540008D01*
X231187614Y-45542916D01*
X231250896Y-45565949D01*
X231334303Y-45632140D01*
X231414801Y-45804770D01*
X231411893Y-45911209D01*
X231388860Y-45974492D01*
X231322670Y-46057898D01*
X231106882Y-46158522D01*
X231000443Y-46155614D01*
X230937161Y-46132581D01*
X230853754Y-46066391D01*
X230773255Y-45893760D01*
X230776163Y-45787321D01*
X230799196Y-45724039D01*
X230865386Y-45640632D01*
%TO.C,D18*%
X212061041Y-51624527D02*
X212967349Y-51201908D01*
X212866726Y-50986121D01*
X212763194Y-50876773D01*
X212636630Y-50830707D01*
X212530190Y-50827799D01*
X212337435Y-50865140D01*
X212207963Y-50925514D01*
X212055458Y-51049171D01*
X211989267Y-51132577D01*
X211943202Y-51259142D01*
X211960418Y-51408739D01*
X212061041Y-51624527D01*
X211417052Y-50243486D02*
X211658548Y-50761376D01*
X211537800Y-50502431D02*
X212444108Y-50079813D01*
X212354884Y-50226502D01*
X212308819Y-50353066D01*
X212305911Y-50459506D01*
X211693446Y-49484100D02*
X211776853Y-49550290D01*
X211840135Y-49573323D01*
X211946574Y-49576231D01*
X211989732Y-49556106D01*
X212055922Y-49472700D01*
X212078955Y-49409417D01*
X212081863Y-49302978D01*
X212001365Y-49130348D01*
X211917958Y-49064157D01*
X211854676Y-49041124D01*
X211748236Y-49038216D01*
X211705078Y-49058341D01*
X211638888Y-49141748D01*
X211615855Y-49205030D01*
X211612947Y-49311470D01*
X211693446Y-49484100D01*
X211690538Y-49590540D01*
X211667505Y-49653822D01*
X211601314Y-49737229D01*
X211428684Y-49817727D01*
X211322245Y-49814819D01*
X211258962Y-49791786D01*
X211175556Y-49725596D01*
X211095057Y-49552966D01*
X211097965Y-49446526D01*
X211120998Y-49383244D01*
X211187188Y-49299837D01*
X211359818Y-49219338D01*
X211466258Y-49222247D01*
X211529540Y-49245279D01*
X211612947Y-49311470D01*
%TO.C,D17*%
X196954285Y-64185812D02*
X197860593Y-63763193D01*
X197759970Y-63547406D01*
X197656438Y-63438058D01*
X197529874Y-63391992D01*
X197423434Y-63389084D01*
X197230679Y-63426425D01*
X197101207Y-63486799D01*
X196948702Y-63610456D01*
X196882511Y-63693862D01*
X196836446Y-63820427D01*
X196853662Y-63970024D01*
X196954285Y-64185812D01*
X196310296Y-62804771D02*
X196551792Y-63322661D01*
X196431044Y-63063716D02*
X197337352Y-62641098D01*
X197248128Y-62787787D01*
X197202063Y-62914351D01*
X197199155Y-63020791D01*
X197075731Y-62080050D02*
X196793985Y-61475845D01*
X196068800Y-62286881D01*
%TO.C,D16*%
X180790983Y-74481329D02*
X181697291Y-74058710D01*
X181596668Y-73842923D01*
X181493136Y-73733575D01*
X181366572Y-73687509D01*
X181260132Y-73684601D01*
X181067377Y-73721942D01*
X180937905Y-73782316D01*
X180785400Y-73905973D01*
X180719209Y-73989379D01*
X180673144Y-74115944D01*
X180690360Y-74265541D01*
X180790983Y-74481329D01*
X180146994Y-73100288D02*
X180388490Y-73618178D01*
X180267742Y-73359233D02*
X181174050Y-72936615D01*
X181084826Y-73083304D01*
X181038761Y-73209868D01*
X181035853Y-73316308D01*
X180691057Y-71900835D02*
X180771556Y-72073465D01*
X180768648Y-72179904D01*
X180745615Y-72243187D01*
X180656392Y-72389876D01*
X180503886Y-72513532D01*
X180158626Y-72674529D01*
X180052187Y-72671621D01*
X179988904Y-72648588D01*
X179905498Y-72582398D01*
X179824999Y-72409768D01*
X179827907Y-72303328D01*
X179850940Y-72240046D01*
X179917130Y-72156639D01*
X180132918Y-72056016D01*
X180239357Y-72058924D01*
X180302640Y-72081957D01*
X180386047Y-72148147D01*
X180466545Y-72320777D01*
X180463637Y-72427217D01*
X180440604Y-72490499D01*
X180374414Y-72573906D01*
%TO.C,D15*%
X130514683Y-80943969D02*
X129608375Y-80521351D01*
X129507752Y-80737139D01*
X129490535Y-80886736D01*
X129536601Y-81013300D01*
X129602792Y-81096707D01*
X129755297Y-81220363D01*
X129884769Y-81280737D01*
X130077524Y-81318079D01*
X130183964Y-81315170D01*
X130310528Y-81269105D01*
X130414060Y-81159757D01*
X130514683Y-80943969D01*
X129870693Y-82325010D02*
X130112190Y-81807120D01*
X129991442Y-82066065D02*
X129085134Y-81643446D01*
X129254856Y-81617505D01*
X129381420Y-81571440D01*
X129464827Y-81505249D01*
X128582017Y-82722384D02*
X128783264Y-82290809D01*
X129234963Y-82448898D01*
X129171681Y-82471931D01*
X129088274Y-82538122D01*
X128987651Y-82753909D01*
X128990559Y-82860349D01*
X129013592Y-82923631D01*
X129079782Y-83007038D01*
X129295570Y-83107661D01*
X129402010Y-83104753D01*
X129465292Y-83081720D01*
X129548699Y-83015530D01*
X129649322Y-82799742D01*
X129646414Y-82693303D01*
X129623381Y-82630021D01*
%TO.C,D14*%
X114351382Y-70648453D02*
X113445074Y-70225835D01*
X113344451Y-70441623D01*
X113327234Y-70591220D01*
X113373300Y-70717784D01*
X113439491Y-70801191D01*
X113591996Y-70924847D01*
X113721468Y-70985221D01*
X113914223Y-71022563D01*
X114020663Y-71019654D01*
X114147227Y-70973589D01*
X114250759Y-70864241D01*
X114351382Y-70648453D01*
X113707392Y-72029494D02*
X113948889Y-71511604D01*
X113828141Y-71770549D02*
X112921833Y-71347930D01*
X113091555Y-71321989D01*
X113218119Y-71275924D01*
X113301526Y-71209733D01*
X112740943Y-72524584D02*
X113345148Y-72806329D01*
X112496306Y-72147799D02*
X113244292Y-72233881D01*
X112982672Y-72794929D01*
%TO.C,D13*%
X99244626Y-58087167D02*
X98338318Y-57664549D01*
X98237695Y-57880337D01*
X98220478Y-58029934D01*
X98266544Y-58156498D01*
X98332735Y-58239905D01*
X98485240Y-58363561D01*
X98614712Y-58423935D01*
X98807467Y-58461277D01*
X98913907Y-58458368D01*
X99040471Y-58412303D01*
X99144003Y-58302955D01*
X99244626Y-58087167D01*
X98600636Y-59468208D02*
X98842133Y-58950318D01*
X98721385Y-59209263D02*
X97815077Y-58786644D01*
X97984799Y-58760703D01*
X98111363Y-58714638D01*
X98194770Y-58648447D01*
X97553456Y-59347692D02*
X97291835Y-59908740D01*
X97777968Y-59767635D01*
X97717594Y-59897107D01*
X97720502Y-60003547D01*
X97743535Y-60066829D01*
X97809725Y-60150236D01*
X98025513Y-60250859D01*
X98131953Y-60247951D01*
X98195235Y-60224918D01*
X98278642Y-60158728D01*
X98399390Y-59899783D01*
X98396482Y-59793343D01*
X98373449Y-59730061D01*
%TO.C,D12*%
X79911688Y-54588959D02*
X79005380Y-54166341D01*
X78904757Y-54382129D01*
X78887540Y-54531726D01*
X78933606Y-54658290D01*
X78999797Y-54741697D01*
X79152302Y-54865353D01*
X79281774Y-54925727D01*
X79474529Y-54963069D01*
X79580969Y-54960160D01*
X79707533Y-54914095D01*
X79811065Y-54804747D01*
X79911688Y-54588959D01*
X79267698Y-55970000D02*
X79509195Y-55452110D01*
X79388447Y-55711055D02*
X78482139Y-55288436D01*
X78651861Y-55262495D01*
X78778425Y-55216430D01*
X78861832Y-55150239D01*
X78286708Y-55932891D02*
X78223426Y-55955924D01*
X78140019Y-56022114D01*
X78039396Y-56237902D01*
X78042304Y-56344341D01*
X78065337Y-56407624D01*
X78131527Y-56491031D01*
X78217842Y-56531280D01*
X78367439Y-56548496D01*
X79126826Y-56272102D01*
X78865205Y-56833150D01*
%TO.C,D11*%
X57409113Y-57888059D02*
X56502805Y-57465441D01*
X56402182Y-57681229D01*
X56384965Y-57830826D01*
X56431031Y-57957390D01*
X56497222Y-58040797D01*
X56649727Y-58164453D01*
X56779199Y-58224827D01*
X56971954Y-58262169D01*
X57078394Y-58259260D01*
X57204958Y-58213195D01*
X57308490Y-58103847D01*
X57409113Y-57888059D01*
X56765123Y-59269100D02*
X57006620Y-58751210D01*
X56885872Y-59010155D02*
X55979564Y-58587536D01*
X56149286Y-58561595D01*
X56275850Y-58515530D01*
X56359257Y-58449339D01*
X56362630Y-60132250D02*
X56604126Y-59614360D01*
X56483378Y-59873305D02*
X55577070Y-59450687D01*
X55746792Y-59424746D01*
X55873356Y-59378680D01*
X55956763Y-59312490D01*
%TO.C,D10*%
X245866807Y-34205571D02*
X246773115Y-33782952D01*
X246672492Y-33567165D01*
X246568960Y-33457817D01*
X246442396Y-33411751D01*
X246335956Y-33408843D01*
X246143201Y-33446184D01*
X246013729Y-33506558D01*
X245861224Y-33630215D01*
X245795033Y-33713621D01*
X245748968Y-33840186D01*
X245766184Y-33989783D01*
X245866807Y-34205571D01*
X245222818Y-32824530D02*
X245464314Y-33342420D01*
X245343566Y-33083475D02*
X246249874Y-32660857D01*
X246160650Y-32807546D01*
X246114585Y-32934110D01*
X246111677Y-33040550D01*
X245867505Y-31840864D02*
X245827255Y-31754549D01*
X245743848Y-31688359D01*
X245680566Y-31665326D01*
X245574127Y-31662418D01*
X245381372Y-31699759D01*
X245165584Y-31800382D01*
X245013079Y-31924039D01*
X244946889Y-32007446D01*
X244923856Y-32070728D01*
X244920948Y-32177167D01*
X244961197Y-32263482D01*
X245044604Y-32329673D01*
X245107886Y-32352706D01*
X245214326Y-32355614D01*
X245407080Y-32318273D01*
X245622868Y-32217649D01*
X245775373Y-32093993D01*
X245841564Y-32010586D01*
X245864597Y-31947304D01*
X245867505Y-31840864D01*
%TO.C,D9*%
X223162986Y-30474896D02*
X224069293Y-30052278D01*
X223968670Y-29836491D01*
X223865138Y-29727143D01*
X223738574Y-29681077D01*
X223632134Y-29678169D01*
X223439380Y-29715510D01*
X223309907Y-29775884D01*
X223157402Y-29899540D01*
X223091211Y-29982947D01*
X223045146Y-30109512D01*
X223062362Y-30259109D01*
X223162986Y-30474896D01*
X222720243Y-29525431D02*
X222639744Y-29352801D01*
X222642652Y-29246361D01*
X222665685Y-29183079D01*
X222754908Y-29036390D01*
X222907414Y-28912734D01*
X223252674Y-28751736D01*
X223359113Y-28754645D01*
X223422396Y-28777677D01*
X223505802Y-28843868D01*
X223586301Y-29016498D01*
X223583393Y-29122938D01*
X223560360Y-29186220D01*
X223494170Y-29269627D01*
X223278382Y-29370250D01*
X223171943Y-29367342D01*
X223108660Y-29344309D01*
X223025253Y-29278119D01*
X222944755Y-29105489D01*
X222947663Y-28999049D01*
X222970696Y-28935767D01*
X223036886Y-28852360D01*
%TO.C,D8*%
X203830048Y-33973104D02*
X204736355Y-33550486D01*
X204635732Y-33334699D01*
X204532200Y-33225351D01*
X204405636Y-33179285D01*
X204299196Y-33176377D01*
X204106442Y-33213718D01*
X203976969Y-33274092D01*
X203824464Y-33397748D01*
X203758273Y-33481155D01*
X203712208Y-33607720D01*
X203729424Y-33757317D01*
X203830048Y-33973104D01*
X203864946Y-32695828D02*
X203948352Y-32762018D01*
X204011635Y-32785051D01*
X204118074Y-32787959D01*
X204161232Y-32767835D01*
X204227422Y-32684428D01*
X204250455Y-32621146D01*
X204253363Y-32514706D01*
X204172864Y-32342076D01*
X204089458Y-32275885D01*
X204026175Y-32252853D01*
X203919736Y-32249944D01*
X203876578Y-32270069D01*
X203810388Y-32353476D01*
X203787355Y-32416758D01*
X203784447Y-32523198D01*
X203864946Y-32695828D01*
X203862037Y-32802268D01*
X203839005Y-32865550D01*
X203772814Y-32948957D01*
X203600184Y-33029455D01*
X203493744Y-33026547D01*
X203430462Y-33003514D01*
X203347055Y-32937324D01*
X203266557Y-32764694D01*
X203269465Y-32658254D01*
X203292498Y-32594972D01*
X203358688Y-32511565D01*
X203531318Y-32431067D01*
X203637758Y-32433975D01*
X203701040Y-32457008D01*
X203784447Y-32523198D01*
%TO.C,D7*%
X188723292Y-46534389D02*
X189629599Y-46111771D01*
X189528976Y-45895984D01*
X189425444Y-45786636D01*
X189298880Y-45740570D01*
X189192440Y-45737662D01*
X188999686Y-45775003D01*
X188870213Y-45835377D01*
X188717708Y-45959033D01*
X188651517Y-46042440D01*
X188605452Y-46169005D01*
X188622668Y-46318602D01*
X188723292Y-46534389D01*
X189247231Y-45291778D02*
X188965485Y-44687573D01*
X188240299Y-45498609D01*
%TO.C,D6*%
X172559990Y-56829905D02*
X173466297Y-56407287D01*
X173365674Y-56191500D01*
X173262142Y-56082152D01*
X173135578Y-56036086D01*
X173029138Y-56033178D01*
X172836384Y-56070519D01*
X172706911Y-56130893D01*
X172554406Y-56254549D01*
X172488215Y-56337956D01*
X172442150Y-56464521D01*
X172459366Y-56614118D01*
X172559990Y-56829905D01*
X172862557Y-55112562D02*
X172943056Y-55285192D01*
X172940148Y-55391632D01*
X172917115Y-55454914D01*
X172827892Y-55601603D01*
X172675386Y-55725259D01*
X172330126Y-55886256D01*
X172223686Y-55883348D01*
X172160404Y-55860315D01*
X172076997Y-55794125D01*
X171996499Y-55621495D01*
X171999407Y-55515055D01*
X172022440Y-55451773D01*
X172088630Y-55368366D01*
X172304418Y-55267743D01*
X172410857Y-55270651D01*
X172474139Y-55293684D01*
X172557546Y-55359874D01*
X172638045Y-55532504D01*
X172635137Y-55638944D01*
X172612104Y-55702226D01*
X172545914Y-55785633D01*
%TO.C,D5*%
X138343183Y-64155697D02*
X137436876Y-63733079D01*
X137336252Y-63948867D01*
X137319036Y-64098464D01*
X137365101Y-64225028D01*
X137431292Y-64308435D01*
X137583797Y-64432092D01*
X137713270Y-64492466D01*
X137906024Y-64529807D01*
X138012464Y-64526899D01*
X138139028Y-64480833D01*
X138242560Y-64371485D01*
X138343183Y-64155697D01*
X136813011Y-65070962D02*
X137014257Y-64639387D01*
X137465957Y-64797476D01*
X137402675Y-64820509D01*
X137319268Y-64886699D01*
X137218645Y-65102487D01*
X137221553Y-65208927D01*
X137244586Y-65272209D01*
X137310776Y-65355616D01*
X137526564Y-65456239D01*
X137633003Y-65453331D01*
X137696286Y-65430298D01*
X137779692Y-65364108D01*
X137880316Y-65148320D01*
X137877408Y-65041881D01*
X137854375Y-64978598D01*
%TO.C,D4*%
X122179882Y-53860181D02*
X121273575Y-53437563D01*
X121172951Y-53653351D01*
X121155735Y-53802948D01*
X121201800Y-53929512D01*
X121267991Y-54012919D01*
X121420496Y-54136576D01*
X121549969Y-54196950D01*
X121742723Y-54234291D01*
X121849163Y-54231383D01*
X121975727Y-54185317D01*
X122079259Y-54075969D01*
X122179882Y-53860181D01*
X120971937Y-54873161D02*
X121576142Y-55154907D01*
X120727300Y-54496376D02*
X121475286Y-54582459D01*
X121213665Y-55143507D01*
%TO.C,D3*%
X107073126Y-41298895D02*
X106166819Y-40876277D01*
X106066195Y-41092065D01*
X106048979Y-41241662D01*
X106095044Y-41368226D01*
X106161235Y-41451633D01*
X106313740Y-41575290D01*
X106443213Y-41635664D01*
X106635967Y-41673005D01*
X106742407Y-41670097D01*
X106868971Y-41624031D01*
X106972503Y-41514683D01*
X107073126Y-41298895D01*
X105784450Y-41696270D02*
X105522829Y-42257318D01*
X106008962Y-42116213D01*
X105948588Y-42245685D01*
X105951496Y-42352125D01*
X105974529Y-42415407D01*
X106040719Y-42498814D01*
X106256507Y-42599437D01*
X106362946Y-42596529D01*
X106426229Y-42573496D01*
X106509635Y-42507306D01*
X106630383Y-42248361D01*
X106627475Y-42141921D01*
X106604442Y-42078639D01*
%TO.C,D2*%
X87740187Y-37800687D02*
X86833880Y-37378069D01*
X86733256Y-37593857D01*
X86716040Y-37743454D01*
X86762105Y-37870018D01*
X86828296Y-37953425D01*
X86980801Y-38077082D01*
X87110274Y-38137456D01*
X87303028Y-38174797D01*
X87409468Y-38171889D01*
X87536032Y-38125823D01*
X87639564Y-38016475D01*
X87740187Y-37800687D01*
X86517701Y-38281469D02*
X86454419Y-38304502D01*
X86371012Y-38370692D01*
X86270389Y-38586480D01*
X86273297Y-38692919D01*
X86296330Y-38756202D01*
X86362520Y-38839608D01*
X86448835Y-38879858D01*
X86598432Y-38897074D01*
X87357819Y-38620680D01*
X87096198Y-39181728D01*
%TO.C,D1*%
X65237612Y-41099787D02*
X64331305Y-40677169D01*
X64230681Y-40892957D01*
X64213465Y-41042554D01*
X64259530Y-41169118D01*
X64325721Y-41252525D01*
X64478226Y-41376182D01*
X64607699Y-41436556D01*
X64800453Y-41473897D01*
X64906893Y-41470989D01*
X65033457Y-41424923D01*
X65136989Y-41315575D01*
X65237612Y-41099787D01*
X64593623Y-42480828D02*
X64835119Y-41962938D01*
X64714371Y-42221883D02*
X63808063Y-41799265D01*
X63977785Y-41773324D01*
X64104349Y-41727258D01*
X64187756Y-41661068D01*
%TO.C,C8*%
X139819259Y-77735546D02*
X139866878Y-77783165D01*
X140009735Y-77830784D01*
X140104973Y-77830784D01*
X140247831Y-77783165D01*
X140343069Y-77687927D01*
X140390688Y-77592689D01*
X140438307Y-77402213D01*
X140438307Y-77259356D01*
X140390688Y-77068880D01*
X140343069Y-76973642D01*
X140247831Y-76878404D01*
X140104973Y-76830784D01*
X140009735Y-76830784D01*
X139866878Y-76878404D01*
X139819259Y-76926023D01*
X139247831Y-77259356D02*
X139343069Y-77211737D01*
X139390688Y-77164118D01*
X139438307Y-77068880D01*
X139438307Y-77021261D01*
X139390688Y-76926023D01*
X139343069Y-76878404D01*
X139247831Y-76830784D01*
X139057354Y-76830784D01*
X138962116Y-76878404D01*
X138914497Y-76926023D01*
X138866878Y-77021261D01*
X138866878Y-77068880D01*
X138914497Y-77164118D01*
X138962116Y-77211737D01*
X139057354Y-77259356D01*
X139247831Y-77259356D01*
X139343069Y-77306975D01*
X139390688Y-77354594D01*
X139438307Y-77449832D01*
X139438307Y-77640308D01*
X139390688Y-77735546D01*
X139343069Y-77783165D01*
X139247831Y-77830784D01*
X139057354Y-77830784D01*
X138962116Y-77783165D01*
X138914497Y-77735546D01*
X138866878Y-77640308D01*
X138866878Y-77449832D01*
X138914497Y-77354594D01*
X138962116Y-77306975D01*
X139057354Y-77259356D01*
%TO.C,C7*%
X153619259Y-96895546D02*
X153666878Y-96943165D01*
X153809735Y-96990784D01*
X153904973Y-96990784D01*
X154047831Y-96943165D01*
X154143069Y-96847927D01*
X154190688Y-96752689D01*
X154238307Y-96562213D01*
X154238307Y-96419356D01*
X154190688Y-96228880D01*
X154143069Y-96133642D01*
X154047831Y-96038404D01*
X153904973Y-95990784D01*
X153809735Y-95990784D01*
X153666878Y-96038404D01*
X153619259Y-96086023D01*
X153285926Y-95990784D02*
X152619259Y-95990784D01*
X153047831Y-96990784D01*
%TO.C,C6*%
X141289735Y-90891737D02*
X141337354Y-90844118D01*
X141384973Y-90701261D01*
X141384973Y-90606023D01*
X141337354Y-90463165D01*
X141242116Y-90367927D01*
X141146878Y-90320308D01*
X140956402Y-90272689D01*
X140813545Y-90272689D01*
X140623069Y-90320308D01*
X140527831Y-90367927D01*
X140432593Y-90463165D01*
X140384973Y-90606023D01*
X140384973Y-90701261D01*
X140432593Y-90844118D01*
X140480212Y-90891737D01*
X140384973Y-91748880D02*
X140384973Y-91558404D01*
X140432593Y-91463165D01*
X140480212Y-91415546D01*
X140623069Y-91320308D01*
X140813545Y-91272689D01*
X141194497Y-91272689D01*
X141289735Y-91320308D01*
X141337354Y-91367927D01*
X141384973Y-91463165D01*
X141384973Y-91653642D01*
X141337354Y-91748880D01*
X141289735Y-91796499D01*
X141194497Y-91844118D01*
X140956402Y-91844118D01*
X140861164Y-91796499D01*
X140813545Y-91748880D01*
X140765926Y-91653642D01*
X140765926Y-91463165D01*
X140813545Y-91367927D01*
X140861164Y-91320308D01*
X140956402Y-91272689D01*
%TO.C,C4*%
X159619259Y-84895546D02*
X159666878Y-84943165D01*
X159809735Y-84990784D01*
X159904973Y-84990784D01*
X160047831Y-84943165D01*
X160143069Y-84847927D01*
X160190688Y-84752689D01*
X160238307Y-84562213D01*
X160238307Y-84419356D01*
X160190688Y-84228880D01*
X160143069Y-84133642D01*
X160047831Y-84038404D01*
X159904973Y-83990784D01*
X159809735Y-83990784D01*
X159666878Y-84038404D01*
X159619259Y-84086023D01*
X158762116Y-84324118D02*
X158762116Y-84990784D01*
X159000212Y-83943165D02*
X159238307Y-84657451D01*
X158619259Y-84657451D01*
%TO.C,C3*%
X163819259Y-87695546D02*
X163866878Y-87743165D01*
X164009735Y-87790784D01*
X164104973Y-87790784D01*
X164247831Y-87743165D01*
X164343069Y-87647927D01*
X164390688Y-87552689D01*
X164438307Y-87362213D01*
X164438307Y-87219356D01*
X164390688Y-87028880D01*
X164343069Y-86933642D01*
X164247831Y-86838404D01*
X164104973Y-86790784D01*
X164009735Y-86790784D01*
X163866878Y-86838404D01*
X163819259Y-86886023D01*
X163485926Y-86790784D02*
X162866878Y-86790784D01*
X163200212Y-87171737D01*
X163057354Y-87171737D01*
X162962116Y-87219356D01*
X162914497Y-87266975D01*
X162866878Y-87362213D01*
X162866878Y-87600308D01*
X162914497Y-87695546D01*
X162962116Y-87743165D01*
X163057354Y-87790784D01*
X163343069Y-87790784D01*
X163438307Y-87743165D01*
X163485926Y-87695546D01*
%TO.C,C2*%
X163819259Y-90295546D02*
X163866878Y-90343165D01*
X164009735Y-90390784D01*
X164104973Y-90390784D01*
X164247831Y-90343165D01*
X164343069Y-90247927D01*
X164390688Y-90152689D01*
X164438307Y-89962213D01*
X164438307Y-89819356D01*
X164390688Y-89628880D01*
X164343069Y-89533642D01*
X164247831Y-89438404D01*
X164104973Y-89390784D01*
X164009735Y-89390784D01*
X163866878Y-89438404D01*
X163819259Y-89486023D01*
X163438307Y-89486023D02*
X163390688Y-89438404D01*
X163295450Y-89390784D01*
X163057354Y-89390784D01*
X162962116Y-89438404D01*
X162914497Y-89486023D01*
X162866878Y-89581261D01*
X162866878Y-89676499D01*
X162914497Y-89819356D01*
X163485926Y-90390784D01*
X162866878Y-90390784D01*
%TO.C,C1*%
X148619259Y-76535546D02*
X148666878Y-76583165D01*
X148809735Y-76630784D01*
X148904973Y-76630784D01*
X149047831Y-76583165D01*
X149143069Y-76487927D01*
X149190688Y-76392689D01*
X149238307Y-76202213D01*
X149238307Y-76059356D01*
X149190688Y-75868880D01*
X149143069Y-75773642D01*
X149047831Y-75678404D01*
X148904973Y-75630784D01*
X148809735Y-75630784D01*
X148666878Y-75678404D01*
X148619259Y-75726023D01*
X147666878Y-76630784D02*
X148238307Y-76630784D01*
X147952593Y-76630784D02*
X147952593Y-75630784D01*
X148047831Y-75773642D01*
X148143069Y-75868880D01*
X148238307Y-75916499D01*
%TD*%
M02*
