%TF.GenerationSoftware,KiCad,Pcbnew,(5.1.9)-1*%
%TF.CreationDate,2021-07-16T02:30:04-07:00*%
%TF.ProjectId,barobord,6261726f-626f-4726-942e-6b696361645f,rev?*%
%TF.SameCoordinates,Original*%
%TF.FileFunction,Copper,L1,Top*%
%TF.FilePolarity,Positive*%
%FSLAX46Y46*%
G04 Gerber Fmt 4.6, Leading zero omitted, Abs format (unit mm)*
G04 Created by KiCad (PCBNEW (5.1.9)-1) date 2021-07-16 02:30:04*
%MOMM*%
%LPD*%
G01*
G04 APERTURE LIST*
%TA.AperFunction,ComponentPad*%
%ADD10O,1.000000X2.100000*%
%TD*%
%TA.AperFunction,ComponentPad*%
%ADD11O,1.000000X1.600000*%
%TD*%
%TA.AperFunction,ViaPad*%
%ADD12C,0.800000*%
%TD*%
%TA.AperFunction,Conductor*%
%ADD13C,0.381000*%
%TD*%
%TA.AperFunction,Conductor*%
%ADD14C,0.254000*%
%TD*%
G04 APERTURE END LIST*
D10*
%TO.P,USB1,13*%
%TO.N,GND*%
X141532593Y-58688404D03*
X150172593Y-58688404D03*
D11*
X141532593Y-54508404D03*
X150172593Y-54508404D03*
%TD*%
D12*
%TO.N,GND*%
X138852593Y-76258404D03*
X147252593Y-76258404D03*
X169052593Y-67858404D03*
X149652593Y-73258404D03*
X186052593Y-57858404D03*
X192252596Y-53258404D03*
X192252593Y-48458404D03*
X200652593Y-45458404D03*
X219652593Y-42458404D03*
X241852593Y-43858404D03*
X177052593Y-83658404D03*
X184052593Y-80058404D03*
X175852593Y-63658404D03*
X198852593Y-71258404D03*
X198052593Y-66258404D03*
X235851580Y-58058404D03*
X241838526Y-64472471D03*
X250052593Y-60258404D03*
X193852593Y-73058404D03*
X249652593Y-90658404D03*
X71052593Y-119058404D03*
X75452593Y-100458404D03*
X54052593Y-94858404D03*
X114852593Y-152658404D03*
X96584002Y-135507750D03*
X81452593Y-125058404D03*
X184552593Y-144958404D03*
X199311561Y-132717372D03*
X218252593Y-122458404D03*
X225902062Y-96707873D03*
X245252593Y-92458404D03*
X257252593Y-79985404D03*
X249652593Y-82785404D03*
X228652593Y-58058404D03*
X208652593Y-60658404D03*
X38652593Y-82058404D03*
X236366660Y-75172471D03*
X215052593Y-79985404D03*
X194052593Y-93458404D03*
X192906593Y-98858404D03*
X184852593Y-102058404D03*
X200452593Y-91058404D03*
X126252593Y-69058404D03*
X58052593Y-42258404D03*
X78652593Y-44258404D03*
X96352593Y-47358404D03*
X112193625Y-60517372D03*
X120252593Y-86058404D03*
X128252593Y-87658404D03*
X133352593Y-73558404D03*
X103852593Y-75858404D03*
X96482651Y-73058404D03*
X96766660Y-67372471D03*
X68852593Y-60312404D03*
X49652593Y-61258404D03*
X87852593Y-62658404D03*
X111252593Y-102858404D03*
X95917413Y-100458404D03*
X83252593Y-78858404D03*
X87238526Y-80872471D03*
X93452593Y-100458404D03*
X60652593Y-78312404D03*
X243252593Y-74858404D03*
X172452593Y-152658404D03*
X159652593Y-73258404D03*
%TO.N,+5V*%
X140652593Y-77258404D03*
X158452593Y-80058404D03*
X136652593Y-92058404D03*
X152452593Y-96458404D03*
X150852593Y-77258404D03*
X191252593Y-53258404D03*
X191252593Y-47658404D03*
X233652593Y-42658404D03*
X212052593Y-43258404D03*
X193252593Y-41658404D03*
X191252593Y-43658404D03*
X195252593Y-47658404D03*
X179152593Y-59158404D03*
X161852593Y-64058404D03*
X160052593Y-65858404D03*
X162952593Y-69358404D03*
X169852593Y-81458404D03*
X168052593Y-83058404D03*
X172452593Y-87458404D03*
X184111561Y-81117372D03*
X174903908Y-63342176D03*
X188311561Y-76917372D03*
X199852593Y-71258404D03*
X199170529Y-66258404D03*
X203252593Y-64648904D03*
X199252593Y-58858404D03*
X201252593Y-57858404D03*
X243052593Y-57858404D03*
X235052593Y-58858404D03*
X251252593Y-75658404D03*
X247903908Y-89742176D03*
X236852593Y-95058404D03*
X216252593Y-98858404D03*
X215652593Y-94058404D03*
X217666660Y-92872471D03*
X219452593Y-121658404D03*
X206852593Y-126785404D03*
X192366660Y-135972471D03*
X176652593Y-151658404D03*
X108652593Y-146258404D03*
X92852593Y-131658404D03*
X74452593Y-121058404D03*
X72252593Y-118858404D03*
X76252593Y-99585404D03*
X50052593Y-87185404D03*
X31852593Y-76858404D03*
X220452593Y-61458404D03*
X65452593Y-95458404D03*
X228852593Y-79858404D03*
X242747063Y-75963934D03*
X209111561Y-83517372D03*
X207452593Y-76858404D03*
X209652593Y-75458404D03*
X193052593Y-94458404D03*
X194852593Y-94458404D03*
X177866660Y-98072471D03*
X120452593Y-66058404D03*
X90252593Y-44058404D03*
X69652593Y-40658404D03*
X51252593Y-38058404D03*
X112452593Y-83058404D03*
X129252593Y-88658404D03*
X134652593Y-72458404D03*
X99052593Y-75058404D03*
X97273151Y-70658404D03*
X99852593Y-68258404D03*
X94452593Y-72258404D03*
X94852593Y-66658404D03*
X82052593Y-61458404D03*
X61652593Y-58058404D03*
X62052593Y-54458404D03*
X66052593Y-52258404D03*
X39266660Y-59072471D03*
X106052593Y-96658404D03*
X90452593Y-86058404D03*
X87852593Y-86058404D03*
X94463413Y-99585404D03*
X56452593Y-69458404D03*
X51052593Y-69258404D03*
X50443094Y-62048905D03*
X72252593Y-78658404D03*
X57052593Y-78312404D03*
X106052593Y-57258404D03*
X138652593Y-72458404D03*
%TO.N,row0*%
X245452593Y-37658404D03*
X170652593Y-60858404D03*
X185452593Y-49258404D03*
X201252593Y-37458404D03*
X220652593Y-34058404D03*
X134452593Y-66658404D03*
X83252593Y-40458404D03*
X102452593Y-43858404D03*
X117652593Y-56258404D03*
X65852593Y-38258404D03*
X147852593Y-98858404D03*
X131052593Y-98858404D03*
%TO.N,row1*%
X253452593Y-54458404D03*
X178452593Y-77258404D03*
X193452593Y-66858404D03*
X209652593Y-54858404D03*
X228652593Y-51058404D03*
X137452593Y-81458404D03*
X135852593Y-81458404D03*
X126052593Y-84258404D03*
X109452593Y-73458404D03*
X93711582Y-60999415D03*
X75252593Y-58258404D03*
X57452593Y-56058404D03*
X147052593Y-99658404D03*
X130052593Y-99458404D03*
X131852593Y-81458404D03*
%TO.N,row2*%
X257452593Y-67658404D03*
X238852593Y-67858404D03*
X218652593Y-68058404D03*
X218852593Y-78458404D03*
X204452593Y-84258404D03*
X191852593Y-88458404D03*
X192179593Y-92458404D03*
X188252593Y-94058404D03*
X43252593Y-78058404D03*
X66652593Y-75458404D03*
X85352593Y-77958404D03*
X100552593Y-90358404D03*
X116652593Y-100258404D03*
X146252593Y-102258404D03*
%TO.N,row3*%
X245652593Y-85658404D03*
X228052593Y-89458404D03*
X79852593Y-102058404D03*
X60652593Y-92258404D03*
X79852593Y-95658404D03*
X216052593Y-101858404D03*
X195652593Y-109458404D03*
X176252593Y-121458404D03*
X118852593Y-127458404D03*
X110852593Y-119458404D03*
X92452593Y-107658404D03*
X228111561Y-95917372D03*
X145452593Y-132258404D03*
%TO.N,led*%
X125252593Y-85258404D03*
X125252593Y-89658404D03*
X93252593Y-72058404D03*
X93652593Y-66658404D03*
X37252593Y-58258404D03*
X45052593Y-41258404D03*
X57252593Y-43658404D03*
X135852593Y-84058404D03*
%TO.N,VCC*%
X149052593Y-62658404D03*
X142652593Y-62658404D03*
%TO.N,Net-(D43-Pad2)*%
X34652593Y-79058404D03*
X56252593Y-89658404D03*
%TO.N,Net-(D44-Pad2)*%
X55652593Y-77585404D03*
X63652593Y-77458404D03*
%TO.N,Net-(D45-Pad2)*%
X71325593Y-59585404D03*
X63938526Y-57372471D03*
%TO.N,Net-(D46-Pad2)*%
X79366660Y-41772471D03*
X70708628Y-40742573D03*
%TO.N,Net-(D47-Pad2)*%
X99052593Y-45258404D03*
X73052593Y-41785404D03*
%TO.N,Net-(D51-Pad2)*%
X68252593Y-96258404D03*
X98052593Y-98658404D03*
%TO.N,Net-(D52-Pad2)*%
X107052593Y-75658404D03*
X97852593Y-73258404D03*
%TO.N,Net-(D53-Pad2)*%
X114252593Y-58258404D03*
X105052593Y-55658404D03*
%TO.N,Net-(D54-Pad2)*%
X131452593Y-68458404D03*
X107252593Y-56985404D03*
%TO.N,Net-(D57-Pad2)*%
X105655860Y-104585404D03*
X87852593Y-106458404D03*
%TO.N,Net-(D58-Pad2)*%
X77252593Y-122658404D03*
X102452593Y-130858404D03*
%TO.N,Net-(D59-Pad2)*%
X94452593Y-132658404D03*
X117652593Y-144858404D03*
%TO.N,Net-(D60-Pad2)*%
X109652593Y-146058404D03*
X174052593Y-150858404D03*
%TO.N,Net-(D61-Pad2)*%
X179652593Y-145858404D03*
X199452593Y-126858404D03*
%TO.N,Net-(D62-Pad2)*%
X195052593Y-133058404D03*
X217052593Y-116858404D03*
%TO.N,Net-(D63-Pad2)*%
X208252593Y-123058404D03*
X200252593Y-120058404D03*
X192179593Y-97258404D03*
X186052593Y-97258404D03*
%TO.N,Net-(D66-Pad2)*%
X161452593Y-57058404D03*
X177052593Y-53258404D03*
X177052593Y-46858404D03*
X182252593Y-46858404D03*
%TO.N,Net-(D69-Pad2)*%
X196252593Y-95858404D03*
X222452593Y-89258404D03*
%TO.N,Net-(D73-Pad2)*%
X192052593Y-34058404D03*
X216452593Y-31658404D03*
%TO.N,Net-(D77-Pad2)*%
X238852593Y-94258404D03*
X248852593Y-90058404D03*
X248852593Y-82058404D03*
X260052593Y-77258404D03*
%TO.N,RESET*%
X157852593Y-130804404D03*
X167817972Y-127606356D03*
X161166660Y-74172471D03*
X158852593Y-74858404D03*
%TO.N,col0*%
X45452593Y-81858404D03*
X31252593Y-69258404D03*
X135852593Y-85058404D03*
X132683150Y-85098048D03*
X134979593Y-76458404D03*
X59052593Y-43048904D03*
X56852593Y-49658404D03*
X43752593Y-43758404D03*
%TO.N,col1*%
X54252593Y-66458404D03*
X65652593Y-72658404D03*
X135252593Y-85858404D03*
X132485593Y-86131475D03*
X130866660Y-107472471D03*
X101852593Y-107258404D03*
X101630160Y-103880837D03*
X64452593Y-97048904D03*
%TO.N,col2*%
X83852593Y-84458404D03*
X71266660Y-77844337D03*
X135853186Y-86858475D03*
X132052593Y-87131473D03*
X130852593Y-106458404D03*
X102852593Y-107185404D03*
X102452593Y-105731404D03*
X83866660Y-102644337D03*
X82638526Y-103472471D03*
X80852593Y-103458404D03*
%TO.N,col3*%
X135850219Y-87858473D03*
X131233603Y-88058404D03*
X131252593Y-89658404D03*
X94684721Y-74594628D03*
%TO.N,col4*%
X104852593Y-103458404D03*
X112463574Y-105869385D03*
X135862093Y-88858404D03*
X110557980Y-83240243D03*
%TO.N,col5*%
X168652593Y-95058404D03*
X158852593Y-90858404D03*
%TO.N,col6*%
X179511561Y-61117372D03*
X158938526Y-91972471D03*
X167014241Y-95806306D03*
X166852593Y-90458404D03*
X187666058Y-82044939D03*
%TO.N,col7*%
X157111526Y-104658404D03*
X204052593Y-97858404D03*
%TO.N,col8*%
X211052593Y-81058404D03*
X219852593Y-78458404D03*
X156579593Y-102985404D03*
X209652593Y-96985404D03*
%TO.N,col9*%
X230052593Y-78258404D03*
X242852593Y-73658404D03*
X155852593Y-131531404D03*
X231052593Y-94258404D03*
%TD*%
D13*
%TO.N,GND*%
X138852593Y-76258404D02*
X147252593Y-76258404D01*
X169052593Y-67858404D02*
X167452593Y-69458404D01*
X167452593Y-69458404D02*
X164052593Y-69458404D01*
X164052593Y-69458404D02*
X160252593Y-73258404D01*
X169052593Y-67858404D02*
X170652593Y-66258404D01*
X170652593Y-66258404D02*
X173052593Y-66258404D01*
X173052593Y-66258404D02*
X173252593Y-66258404D01*
X180252593Y-59258404D02*
X184652593Y-59258404D01*
X184652593Y-59258404D02*
X186052593Y-57858404D01*
X186052593Y-57858404D02*
X188252593Y-55658404D01*
X188252593Y-55658404D02*
X189652593Y-55658404D01*
X192252596Y-53428343D02*
X192252596Y-53258404D01*
X190022535Y-55658404D02*
X192252596Y-53428343D01*
X189652593Y-55658404D02*
X190022535Y-55658404D01*
X197652593Y-48458404D02*
X200652593Y-45458404D01*
X192252593Y-48458404D02*
X197652593Y-48458404D01*
X200652593Y-45458404D02*
X202052593Y-44058404D01*
X202052593Y-44058404D02*
X214252593Y-44058404D01*
X215852593Y-42458404D02*
X219652593Y-42458404D01*
X214252593Y-44058404D02*
X215852593Y-42458404D01*
X219652593Y-42458404D02*
X220452593Y-42458404D01*
X220452593Y-42458404D02*
X221652593Y-41258404D01*
X221652593Y-41258404D02*
X226452593Y-41258404D01*
X226452593Y-41258404D02*
X228652593Y-43458404D01*
X228652593Y-43458404D02*
X233252593Y-43458404D01*
X233252593Y-43458404D02*
X235652593Y-45858404D01*
X235652593Y-45858404D02*
X238652593Y-45858404D01*
X240652593Y-43858404D02*
X241852593Y-43858404D01*
X238652593Y-45858404D02*
X240652593Y-43858404D01*
X177052593Y-83658404D02*
X177452593Y-83258404D01*
X177452593Y-83258404D02*
X180852593Y-83258404D01*
X180852593Y-83258404D02*
X184052593Y-80058404D01*
X175852593Y-63658404D02*
X180252593Y-59258404D01*
X173252593Y-66258404D02*
X175852593Y-63658404D01*
X184052593Y-80058404D02*
X188052593Y-76058404D01*
X188052593Y-76058404D02*
X190252593Y-76058404D01*
X190252593Y-76058404D02*
X193252593Y-73058404D01*
X198452593Y-71258404D02*
X198852593Y-71258404D01*
X196652593Y-73058404D02*
X198452593Y-71258404D01*
X198052593Y-66258404D02*
X200452593Y-63858404D01*
X200452593Y-63858404D02*
X204852593Y-63858404D01*
X204852593Y-63858404D02*
X208052593Y-60658404D01*
X222852593Y-60658404D02*
X225252593Y-58258404D01*
X225252593Y-58258404D02*
X227852593Y-58258404D01*
X227852593Y-58258404D02*
X228052593Y-58058404D01*
X241838526Y-64472471D02*
X244638526Y-64472471D01*
X244638526Y-64472471D02*
X247052593Y-62058404D01*
X248252593Y-62058404D02*
X250052593Y-60258404D01*
X247052593Y-62058404D02*
X248252593Y-62058404D01*
X193852593Y-73058404D02*
X196652593Y-73058404D01*
X193252593Y-73058404D02*
X193852593Y-73058404D01*
X249652593Y-90658404D02*
X247852593Y-92458404D01*
X244652593Y-92458404D02*
X242452593Y-94658404D01*
X242452593Y-94658404D02*
X239852593Y-94658404D01*
X239852593Y-94658404D02*
X238652593Y-95858404D01*
X238652593Y-95858404D02*
X229652593Y-95858404D01*
X229652593Y-95858404D02*
X228803124Y-96707873D01*
X225603124Y-96707873D02*
X224852593Y-97458404D01*
X224852593Y-97458404D02*
X222252593Y-97458404D01*
X222252593Y-97458404D02*
X220652593Y-99058404D01*
X220652593Y-99058404D02*
X219052593Y-99058404D01*
X219052593Y-99058404D02*
X217052593Y-101058404D01*
X217052593Y-101058404D02*
X217052593Y-102058404D01*
X217052593Y-102058404D02*
X216452593Y-102658404D01*
X216452593Y-105277403D02*
X217633594Y-106458404D01*
X216452593Y-102658404D02*
X216452593Y-105277403D01*
X217633594Y-106458404D02*
X217633594Y-108039405D01*
X217633594Y-108039405D02*
X219252593Y-109658404D01*
X219252593Y-109658404D02*
X219252593Y-111458404D01*
X219252593Y-111458404D02*
X220252593Y-112458404D01*
X220252593Y-112458404D02*
X220252593Y-122058404D01*
X220252593Y-122058404D02*
X219852593Y-122458404D01*
X217674265Y-122458404D02*
X215074265Y-125058404D01*
X215074265Y-125058404D02*
X212074265Y-125058404D01*
X209556764Y-127575905D02*
X204335092Y-127575905D01*
X212074265Y-125058404D02*
X209556764Y-127575905D01*
X204335092Y-127575905D02*
X199052593Y-132858404D01*
X199052593Y-132858404D02*
X196652593Y-135258404D01*
X196652593Y-135258404D02*
X194252593Y-135258404D01*
X194252593Y-135258404D02*
X190252593Y-139258404D01*
X113852593Y-152658404D02*
X95452593Y-134258404D01*
X95452593Y-134258404D02*
X93852593Y-134258404D01*
X93852593Y-134258404D02*
X92052593Y-132458404D01*
X92052593Y-132458404D02*
X91252593Y-132458404D01*
X91252593Y-132458404D02*
X83852593Y-125058404D01*
X77052593Y-125058404D02*
X71052593Y-119058404D01*
X75452593Y-100458404D02*
X74252593Y-100458404D01*
X73052593Y-99258404D02*
X69252593Y-99258404D01*
X69252593Y-99258404D02*
X68052593Y-98058404D01*
X68052593Y-98058404D02*
X67052593Y-98058404D01*
X67052593Y-98058404D02*
X65252593Y-96258404D01*
X55452593Y-96258404D02*
X54052593Y-94858404D01*
X65252593Y-96258404D02*
X55452593Y-96258404D01*
X114852593Y-152658404D02*
X113852593Y-152658404D01*
X81452593Y-125058404D02*
X77052593Y-125058404D01*
X83852593Y-125058404D02*
X81452593Y-125058404D01*
X184552593Y-144958404D02*
X176852593Y-152658404D01*
X190252593Y-139258404D02*
X184552593Y-144958404D01*
X218252593Y-122458404D02*
X217674265Y-122458404D01*
X219852593Y-122458404D02*
X218252593Y-122458404D01*
X225902062Y-96707873D02*
X225603124Y-96707873D01*
X228803124Y-96707873D02*
X225902062Y-96707873D01*
X245252593Y-92458404D02*
X244652593Y-92458404D01*
X247852593Y-92458404D02*
X245252593Y-92458404D01*
X257252593Y-79985404D02*
X255125593Y-79985404D01*
X252325593Y-82785404D02*
X249652593Y-82785404D01*
X255125593Y-79985404D02*
X252325593Y-82785404D01*
X228652593Y-58058404D02*
X235851580Y-58058404D01*
X228052593Y-58058404D02*
X228652593Y-58058404D01*
X208652593Y-60658404D02*
X222852593Y-60658404D01*
X208052593Y-60658404D02*
X208652593Y-60658404D01*
X73452593Y-99658404D02*
X73052593Y-99258404D01*
X74252593Y-100458404D02*
X73452593Y-99658404D01*
X54052593Y-94858404D02*
X52852593Y-94858404D01*
X52852593Y-94858404D02*
X51852593Y-93858404D01*
X51852593Y-93858404D02*
X50452593Y-93858404D01*
X50452593Y-93858404D02*
X49252593Y-92658404D01*
X49252593Y-92658404D02*
X47052593Y-92658404D01*
X47052593Y-92658404D02*
X44252593Y-89858404D01*
X44252593Y-89858404D02*
X44252593Y-87658404D01*
X44252593Y-87658404D02*
X38652593Y-82058404D01*
X236366660Y-75172471D02*
X235480727Y-76058404D01*
X230432034Y-79048905D02*
X226043094Y-79048905D01*
X233422535Y-76058404D02*
X230432034Y-79048905D01*
X235480727Y-76058404D02*
X233422535Y-76058404D01*
X226043094Y-79048905D02*
X225843094Y-79048905D01*
X225843094Y-79048905D02*
X225252593Y-78458404D01*
X225252593Y-78458404D02*
X221052593Y-78458404D01*
X219525593Y-79985404D02*
X215052593Y-79985404D01*
X221052593Y-78458404D02*
X219525593Y-79985404D01*
X215052593Y-79985404D02*
X213325593Y-79985404D01*
X213325593Y-79985404D02*
X211452593Y-81858404D01*
X211452593Y-81858404D02*
X209652593Y-81858404D01*
X199452593Y-92058404D02*
X196652593Y-92058404D01*
X195252593Y-93458404D02*
X194052593Y-93458404D01*
X196652593Y-92058404D02*
X195252593Y-93458404D01*
X192906593Y-98858404D02*
X191106593Y-100658404D01*
X186252593Y-100658404D02*
X184852593Y-102058404D01*
X191106593Y-100658404D02*
X186252593Y-100658404D01*
X200452593Y-91058404D02*
X199452593Y-92058404D01*
X209652593Y-81858404D02*
X200452593Y-91058404D01*
X138852593Y-76258404D02*
X136052593Y-76258404D01*
X126852593Y-69658404D02*
X126252593Y-69058404D01*
X129452593Y-69658404D02*
X126852593Y-69658404D01*
X126252593Y-69058404D02*
X123652593Y-69058404D01*
X123652593Y-69058404D02*
X121452593Y-66858404D01*
X120082651Y-66858404D02*
X115682651Y-62458404D01*
X121452593Y-66858404D02*
X120082651Y-66858404D01*
X115682651Y-62458404D02*
X114252593Y-62458404D01*
X114252593Y-62458404D02*
X112252593Y-60458404D01*
X112252593Y-60458404D02*
X110252593Y-60458404D01*
X110252593Y-60458404D02*
X109252593Y-59458404D01*
X109252593Y-59458404D02*
X107052593Y-59458404D01*
X107052593Y-59458404D02*
X105052593Y-57458404D01*
X105052593Y-57458404D02*
X104252593Y-57458404D01*
X104252593Y-57458404D02*
X103452593Y-56658404D01*
X103452593Y-56658404D02*
X103452593Y-56258404D01*
X103452593Y-56258404D02*
X100652593Y-53458404D01*
X100652593Y-53458404D02*
X100652593Y-51658404D01*
X96252593Y-47258404D02*
X95052593Y-47258404D01*
X95052593Y-47258404D02*
X93652593Y-45858404D01*
X93652593Y-45858404D02*
X92052593Y-45858404D01*
X92052593Y-45858404D02*
X91252593Y-45058404D01*
X91252593Y-45058404D02*
X88852593Y-45058404D01*
X88852593Y-45058404D02*
X87052593Y-43258404D01*
X87052593Y-43258404D02*
X82252593Y-43258404D01*
X82252593Y-43258404D02*
X81252593Y-44258404D01*
X73852593Y-44258404D02*
X73052593Y-43458404D01*
X73052593Y-43458404D02*
X72052593Y-43458404D01*
X72052593Y-43458404D02*
X71452593Y-42858404D01*
X71452593Y-42858404D02*
X70252593Y-42858404D01*
X70252593Y-42858404D02*
X68252593Y-40858404D01*
X68252593Y-40858404D02*
X66252593Y-40858404D01*
X66252593Y-40858404D02*
X65652593Y-41458404D01*
X65652593Y-41458404D02*
X62052593Y-41458404D01*
X61252593Y-42258404D02*
X58052593Y-42258404D01*
X62052593Y-41458404D02*
X61252593Y-42258404D01*
X78652593Y-44258404D02*
X73852593Y-44258404D01*
X81252593Y-44258404D02*
X78652593Y-44258404D01*
X96352593Y-47358404D02*
X96252593Y-47258404D01*
X100652593Y-51658404D02*
X96352593Y-47358404D01*
X120252593Y-86058404D02*
X121852593Y-87658404D01*
X121852593Y-87658404D02*
X128252593Y-87658404D01*
X133352593Y-73558404D02*
X129452593Y-69658404D01*
X136052593Y-76258404D02*
X133352593Y-73558404D01*
X120252593Y-86058404D02*
X119652593Y-86058404D01*
X119652593Y-86058404D02*
X118052593Y-84458404D01*
X118052593Y-84458404D02*
X116452593Y-84458404D01*
X116452593Y-84458404D02*
X114852593Y-82858404D01*
X114852593Y-82858404D02*
X113452593Y-82858404D01*
X113452593Y-82858404D02*
X107052593Y-76458404D01*
X107052593Y-76458404D02*
X106652593Y-76458404D01*
X104452593Y-76458404D02*
X103852593Y-75858404D01*
X106652593Y-76458404D02*
X104452593Y-76458404D01*
X103852593Y-75858404D02*
X102052593Y-75858404D01*
X102052593Y-75858404D02*
X100452593Y-74258404D01*
X97682651Y-74258404D02*
X96482651Y-73058404D01*
X100452593Y-74258404D02*
X97682651Y-74258404D01*
X96766660Y-67372471D02*
X93852593Y-64458404D01*
X93852593Y-64458404D02*
X91052593Y-64458404D01*
X91052593Y-64458404D02*
X89252593Y-62658404D01*
X86652593Y-62658404D02*
X84652593Y-60658404D01*
X84652593Y-60658404D02*
X82052593Y-60658404D01*
X82052593Y-60658404D02*
X80252593Y-58858404D01*
X80252593Y-58858404D02*
X76652593Y-58858404D01*
X76652593Y-58858404D02*
X75852593Y-59658404D01*
X75852593Y-59658404D02*
X72852593Y-59658404D01*
X68916094Y-60375905D02*
X68852593Y-60312404D01*
X72135092Y-60375905D02*
X68916094Y-60375905D01*
X72852593Y-59658404D02*
X72135092Y-60375905D01*
X87852593Y-62658404D02*
X86652593Y-62658404D01*
X89252593Y-62658404D02*
X87852593Y-62658404D01*
X59446477Y-57258404D02*
X55446477Y-61258404D01*
X62452593Y-57258404D02*
X59446477Y-57258404D01*
X55446477Y-61258404D02*
X49652593Y-61258404D01*
X63970103Y-58775914D02*
X62452593Y-57258404D01*
X65770103Y-58775914D02*
X63970103Y-58775914D01*
X67306593Y-60312404D02*
X65770103Y-58775914D01*
X68852593Y-60312404D02*
X67306593Y-60312404D01*
X108252593Y-102858404D02*
X111252593Y-102858404D01*
X105852593Y-100458404D02*
X108252593Y-102858404D01*
X83252593Y-78858404D02*
X83652593Y-79258404D01*
X85624459Y-79258404D02*
X87238526Y-80872471D01*
X83652593Y-79258404D02*
X85624459Y-79258404D01*
X93452593Y-100458404D02*
X105852593Y-100458404D01*
X75452593Y-100458404D02*
X93452593Y-100458404D01*
X83252593Y-78858404D02*
X82052593Y-80058404D01*
X82052593Y-80058404D02*
X77652593Y-80058404D01*
X73579893Y-77053836D02*
X70179893Y-77053836D01*
X76584461Y-80058404D02*
X73579893Y-77053836D01*
X77652593Y-80058404D02*
X76584461Y-80058404D01*
X70179893Y-77053836D02*
X65657161Y-77053836D01*
X64398593Y-78312404D02*
X60652593Y-78312404D01*
X65657161Y-77053836D02*
X64398593Y-78312404D01*
X236366660Y-75172471D02*
X242938526Y-75172471D01*
X242938526Y-75172471D02*
X243252593Y-74858404D01*
X172452593Y-152658404D02*
X114852593Y-152658404D01*
X176852593Y-152658404D02*
X172452593Y-152658404D01*
X159652593Y-73258404D02*
X149652593Y-73258404D01*
X160252593Y-73258404D02*
X159652593Y-73258404D01*
%TO.N,+5V*%
X140652593Y-77258404D02*
X137252593Y-77258404D01*
X136652593Y-77858404D02*
X136652593Y-92058404D01*
X137252593Y-77258404D02*
X136652593Y-77858404D01*
X136652593Y-92058404D02*
X136652593Y-93658404D01*
X139452593Y-96458404D02*
X152452593Y-96458404D01*
X136652593Y-93658404D02*
X139452593Y-96458404D01*
X157652593Y-79258404D02*
X158452593Y-80058404D01*
X155652593Y-77258404D02*
X157652593Y-79258404D01*
X150852593Y-77258404D02*
X155652593Y-77258404D01*
X140652593Y-77258404D02*
X150852593Y-77258404D01*
X139052593Y-72458404D02*
X159852593Y-72458404D01*
X163652593Y-68658404D02*
X167052593Y-68658404D01*
X167052593Y-68658404D02*
X170252593Y-65458404D01*
X170252593Y-65458404D02*
X172852593Y-65458404D01*
X179852593Y-58458404D02*
X184252593Y-58458404D01*
X184252593Y-58458404D02*
X187852593Y-54858404D01*
X187852593Y-54858404D02*
X189252593Y-54858404D01*
X190852593Y-53258404D02*
X191252593Y-53258404D01*
X189252593Y-54858404D02*
X190852593Y-53258404D01*
X197252593Y-47658404D02*
X201652593Y-43258404D01*
X214052593Y-43258404D02*
X215652593Y-41658404D01*
X215652593Y-41658404D02*
X220252593Y-41658404D01*
X221452593Y-40458404D02*
X226252593Y-40458404D01*
X220252593Y-41658404D02*
X221452593Y-40458404D01*
X226252593Y-40458404D02*
X226652593Y-40458404D01*
X228852593Y-42658404D02*
X233652593Y-42658404D01*
X226652593Y-40458404D02*
X228852593Y-42658404D01*
X212052593Y-43258404D02*
X214052593Y-43258404D01*
X201652593Y-43258404D02*
X212052593Y-43258404D01*
X193252593Y-41658404D02*
X191252593Y-43658404D01*
X195252593Y-47658404D02*
X197252593Y-47658404D01*
X191252593Y-47658404D02*
X195252593Y-47658404D01*
X179152593Y-59158404D02*
X179852593Y-58458404D01*
X172852593Y-65458404D02*
X179152593Y-59158404D01*
X161852593Y-64058404D02*
X160052593Y-65858404D01*
X162952593Y-69358404D02*
X163652593Y-68658404D01*
X159852593Y-72458404D02*
X162952593Y-69358404D01*
X169652593Y-81458404D02*
X168052593Y-83058404D01*
X169852593Y-81458404D02*
X169652593Y-81458404D01*
X172452593Y-87458404D02*
X174052593Y-87458404D01*
X174052593Y-87458404D02*
X174452593Y-87058404D01*
X174452593Y-87058404D02*
X176652593Y-87058404D01*
X176652593Y-87058404D02*
X178052593Y-85658404D01*
X179570529Y-85658404D02*
X184111561Y-81117372D01*
X178052593Y-85658404D02*
X179570529Y-85658404D01*
X184111561Y-81117372D02*
X188311561Y-76917372D01*
X188311561Y-76917372D02*
X190393625Y-76917372D01*
X190393625Y-76917372D02*
X193452593Y-73858404D01*
X199852593Y-71428346D02*
X199852593Y-71258404D01*
X197422535Y-73858404D02*
X199852593Y-71428346D01*
X193452593Y-73858404D02*
X197422535Y-73858404D01*
X199170529Y-66258404D02*
X200970529Y-64458404D01*
X203062093Y-64458404D02*
X203252593Y-64648904D01*
X200970529Y-64458404D02*
X203062093Y-64458404D01*
X200252593Y-58858404D02*
X201252593Y-57858404D01*
X199252593Y-58858404D02*
X200252593Y-58858404D01*
X203252593Y-64648904D02*
X205062093Y-64648904D01*
X205062093Y-64648904D02*
X208252593Y-61458404D01*
X223052593Y-61458404D02*
X225652593Y-58858404D01*
X242052593Y-58858404D02*
X243052593Y-57858404D01*
X225652593Y-58858404D02*
X235052593Y-58858404D01*
X235052593Y-58858404D02*
X242052593Y-58858404D01*
X247903908Y-89742176D02*
X246587680Y-91058404D01*
X244252593Y-91058404D02*
X241970103Y-93340894D01*
X246587680Y-91058404D02*
X244252593Y-91058404D01*
X238570103Y-93340894D02*
X236852593Y-95058404D01*
X241970103Y-93340894D02*
X238570103Y-93340894D01*
X215652593Y-94058404D02*
X216252593Y-94058404D01*
X217438526Y-92872471D02*
X217666660Y-92872471D01*
X216252593Y-94058404D02*
X217438526Y-92872471D01*
X219452593Y-121658404D02*
X217652593Y-121658404D01*
X217652593Y-121658404D02*
X214852593Y-124458404D01*
X214852593Y-124458404D02*
X211852593Y-124458404D01*
X209525593Y-126785404D02*
X206852593Y-126785404D01*
X211852593Y-124458404D02*
X209525593Y-126785404D01*
X206852593Y-126785404D02*
X204125593Y-126785404D01*
X204125593Y-126785404D02*
X196452593Y-134458404D01*
X193880727Y-134458404D02*
X192366660Y-135972471D01*
X196452593Y-134458404D02*
X193880727Y-134458404D01*
X176680727Y-151658404D02*
X176652593Y-151658404D01*
X192366660Y-135972471D02*
X176680727Y-151658404D01*
X114052593Y-151658404D02*
X108652593Y-146258404D01*
X176652593Y-151658404D02*
X114052593Y-151658404D01*
X108652593Y-146258404D02*
X101052593Y-138658404D01*
X101052593Y-138658404D02*
X97452593Y-135058404D01*
X97452593Y-135058404D02*
X97252593Y-135058404D01*
X97252593Y-135058404D02*
X95652593Y-133458404D01*
X92852593Y-132228346D02*
X92852593Y-131658404D01*
X94082651Y-133458404D02*
X92852593Y-132228346D01*
X95652593Y-133458404D02*
X94082651Y-133458404D01*
X92852593Y-131658404D02*
X91652593Y-131658404D01*
X91652593Y-131658404D02*
X84252593Y-124258404D01*
X77652593Y-124258404D02*
X74452593Y-121058404D01*
X84252593Y-124258404D02*
X77652593Y-124258404D01*
X74452593Y-121058404D02*
X72252593Y-118858404D01*
X76252593Y-99585404D02*
X74579593Y-99585404D01*
X74579593Y-99585404D02*
X73652593Y-98658404D01*
X73652593Y-98658404D02*
X69852593Y-98658404D01*
X69852593Y-98658404D02*
X68452593Y-97258404D01*
X68452593Y-97258404D02*
X67452593Y-97258404D01*
X67452593Y-97258404D02*
X65652593Y-95458404D01*
X56052593Y-95458404D02*
X54652593Y-94058404D01*
X54652593Y-94058404D02*
X53252593Y-94058404D01*
X53252593Y-94058404D02*
X52252593Y-93058404D01*
X52252593Y-93058404D02*
X50652593Y-93058404D01*
X50652593Y-93058404D02*
X49452593Y-91858404D01*
X49452593Y-91858404D02*
X47452593Y-91858404D01*
X47452593Y-91858404D02*
X46052593Y-90458404D01*
X46052593Y-90458404D02*
X46052593Y-87458404D01*
X46052593Y-87458404D02*
X46452593Y-87058404D01*
X49925593Y-87058404D02*
X50052593Y-87185404D01*
X46452593Y-87058404D02*
X49925593Y-87058404D01*
X46052593Y-87458404D02*
X45252593Y-87458404D01*
X45252593Y-87458404D02*
X44052593Y-86258404D01*
X44052593Y-86258404D02*
X39052593Y-81258404D01*
X35682651Y-81258404D02*
X33452593Y-79028346D01*
X39052593Y-81258404D02*
X35682651Y-81258404D01*
X33452593Y-78458404D02*
X31852593Y-76858404D01*
X33452593Y-79028346D02*
X33452593Y-78458404D01*
X217452593Y-98858404D02*
X216252593Y-98858404D01*
X218370103Y-97940894D02*
X217452593Y-98858404D01*
X219970103Y-97940894D02*
X218370103Y-97940894D01*
X221652593Y-96258404D02*
X219970103Y-97940894D01*
X224252593Y-96258404D02*
X221652593Y-96258404D01*
X225452593Y-95058404D02*
X224252593Y-96258404D01*
X236852593Y-95058404D02*
X225452593Y-95058404D01*
X220452593Y-61458404D02*
X223052593Y-61458404D01*
X208252593Y-61458404D02*
X220452593Y-61458404D01*
X65452593Y-95458404D02*
X56052593Y-95458404D01*
X65652593Y-95458404D02*
X65452593Y-95458404D01*
X228852593Y-79858404D02*
X230444207Y-79858404D01*
X230444207Y-79858404D02*
X233644207Y-76658404D01*
X235852593Y-76658404D02*
X236548025Y-75962972D01*
X233644207Y-76658404D02*
X235852593Y-76658404D01*
X236548025Y-75962972D02*
X236548987Y-75963934D01*
X250252593Y-75658404D02*
X249947063Y-75963934D01*
X251252593Y-75658404D02*
X250252593Y-75658404D01*
X236548987Y-75963934D02*
X242747063Y-75963934D01*
X242747063Y-75963934D02*
X249947063Y-75963934D01*
X228852593Y-79858404D02*
X225830921Y-79858404D01*
X225030921Y-79058404D02*
X221274265Y-79058404D01*
X225830921Y-79858404D02*
X225030921Y-79058404D01*
X221274265Y-79058404D02*
X219474265Y-80858404D01*
X219474265Y-80858404D02*
X213652593Y-80858404D01*
X213652593Y-80858404D02*
X212252593Y-82258404D01*
X212252593Y-82258404D02*
X211852593Y-82658404D01*
X209970529Y-82658404D02*
X209111561Y-83517372D01*
X211852593Y-82658404D02*
X209970529Y-82658404D01*
X207452593Y-76858404D02*
X208852593Y-75458404D01*
X208852593Y-75458404D02*
X209652593Y-75458404D01*
X209111561Y-83517372D02*
X199770529Y-92858404D01*
X199770529Y-92858404D02*
X197052593Y-92858404D01*
X195452593Y-94458404D02*
X194852593Y-94458404D01*
X197052593Y-92858404D02*
X195452593Y-94458404D01*
X194852593Y-94458404D02*
X193052593Y-94458404D01*
X194852593Y-98082346D02*
X191676535Y-101258404D01*
X194852593Y-94458404D02*
X194852593Y-98082346D01*
X191676535Y-101258404D02*
X186852593Y-101258404D01*
X185262092Y-102848905D02*
X177243094Y-102848905D01*
X186852593Y-101258404D02*
X185262092Y-102848905D01*
X177243094Y-102848905D02*
X175452593Y-101058404D01*
X175452593Y-100486538D02*
X177866660Y-98072471D01*
X175452593Y-101058404D02*
X175452593Y-100486538D01*
X129970103Y-68975914D02*
X127438234Y-68975914D01*
X133452593Y-72458404D02*
X129970103Y-68975914D01*
X127438234Y-68975914D02*
X126638234Y-68175914D01*
X126638234Y-68175914D02*
X124170103Y-68175914D01*
X122052593Y-66058404D02*
X120452593Y-66058404D01*
X124170103Y-68175914D02*
X122052593Y-66058404D01*
X120452593Y-66058404D02*
X116052593Y-61658404D01*
X116052593Y-61658404D02*
X114452593Y-61658404D01*
X114452593Y-61658404D02*
X112452593Y-59658404D01*
X112452593Y-59658404D02*
X110452593Y-59658404D01*
X110452593Y-59658404D02*
X109452593Y-58658404D01*
X109452593Y-58658404D02*
X107452593Y-58658404D01*
X105570103Y-56775914D02*
X104570103Y-56775914D01*
X104262092Y-56467903D02*
X104262092Y-55867903D01*
X104570103Y-56775914D02*
X104262092Y-56467903D01*
X104262092Y-55867903D02*
X101652593Y-53258404D01*
X101652593Y-53258404D02*
X101652593Y-51458404D01*
X101652593Y-51458404D02*
X96652593Y-46458404D01*
X96652593Y-46458404D02*
X95652593Y-46458404D01*
X95652593Y-46458404D02*
X94252593Y-45058404D01*
X94252593Y-45058404D02*
X92452593Y-45058404D01*
X92452593Y-45058404D02*
X91452593Y-44058404D01*
X89252593Y-44058404D02*
X87652593Y-42458404D01*
X90252593Y-44058404D02*
X89252593Y-44058404D01*
X91452593Y-44058404D02*
X90252593Y-44058404D01*
X87652593Y-42458404D02*
X87452593Y-42258404D01*
X87452593Y-42258404D02*
X81852593Y-42258404D01*
X81852593Y-42258404D02*
X80652593Y-43458404D01*
X80652593Y-43458404D02*
X74452593Y-43458404D01*
X74452593Y-43458404D02*
X73652593Y-42658404D01*
X72755651Y-42658404D02*
X71955651Y-41858404D01*
X73652593Y-42658404D02*
X72755651Y-42658404D01*
X69652593Y-40856480D02*
X69652593Y-40658404D01*
X70654517Y-41858404D02*
X69652593Y-40856480D01*
X71955651Y-41858404D02*
X70654517Y-41858404D01*
X69652593Y-40658404D02*
X68852593Y-39858404D01*
X68852593Y-39858404D02*
X66052593Y-39858404D01*
X66052593Y-39858404D02*
X65252593Y-40658404D01*
X65252593Y-40658404D02*
X61252593Y-40658404D01*
X61252593Y-40658404D02*
X60652593Y-41258404D01*
X60652593Y-41258404D02*
X57452593Y-41258404D01*
X57452593Y-41258404D02*
X56252593Y-40058404D01*
X56252593Y-40058404D02*
X54252593Y-40058404D01*
X54252593Y-40058404D02*
X53252593Y-39058404D01*
X52252593Y-39058404D02*
X51252593Y-38058404D01*
X53252593Y-39058404D02*
X52252593Y-39058404D01*
X112452593Y-83058404D02*
X113052593Y-83658404D01*
X113052593Y-83658404D02*
X114452593Y-83658404D01*
X114452593Y-83658404D02*
X116052593Y-85258404D01*
X116052593Y-85258404D02*
X117652593Y-85258404D01*
X117652593Y-85258404D02*
X119452593Y-87058404D01*
X119452593Y-87058404D02*
X120252593Y-87058404D01*
X121852593Y-88658404D02*
X129252593Y-88658404D01*
X120252593Y-87058404D02*
X121852593Y-88658404D01*
X134652593Y-72458404D02*
X133452593Y-72458404D01*
X112452593Y-83058404D02*
X107052593Y-77658404D01*
X107052593Y-77658404D02*
X104252593Y-77658404D01*
X104252593Y-77658404D02*
X103252593Y-76658404D01*
X103252593Y-76658404D02*
X101652593Y-76658404D01*
X101652593Y-76658404D02*
X100052593Y-75058404D01*
X100052593Y-75058404D02*
X99052593Y-75058404D01*
X97452593Y-70658404D02*
X99852593Y-68258404D01*
X97273151Y-70658404D02*
X97452593Y-70658404D01*
X97252593Y-75058404D02*
X94452593Y-72258404D01*
X99052593Y-75058404D02*
X97252593Y-75058404D01*
X94852593Y-66658404D02*
X93452593Y-65258404D01*
X93452593Y-65258404D02*
X90452593Y-65258404D01*
X90452593Y-65258404D02*
X88652593Y-63458404D01*
X88652593Y-63458404D02*
X86052593Y-63458404D01*
X84052593Y-61458404D02*
X82052593Y-61458404D01*
X86052593Y-63458404D02*
X84052593Y-61458404D01*
X81833603Y-61239414D02*
X81433603Y-61239414D01*
X82052593Y-61458404D02*
X81833603Y-61239414D01*
X81433603Y-61239414D02*
X79852593Y-59658404D01*
X79852593Y-59658404D02*
X77452593Y-59658404D01*
X77452593Y-59658404D02*
X76652593Y-60458404D01*
X76652593Y-60458404D02*
X73252593Y-60458404D01*
X73252593Y-60458404D02*
X72608092Y-61102905D01*
X72608092Y-61102905D02*
X67097094Y-61102905D01*
X67097094Y-61102905D02*
X65452593Y-59458404D01*
X63052593Y-59458404D02*
X61652593Y-58058404D01*
X65452593Y-59458404D02*
X63052593Y-59458404D01*
X64252593Y-52258404D02*
X66052593Y-52258404D01*
X62052593Y-54458404D02*
X64252593Y-52258404D01*
X61652593Y-58058404D02*
X59852593Y-58058404D01*
X59852593Y-58058404D02*
X55862092Y-62048905D01*
X45443094Y-62048905D02*
X45052593Y-61658404D01*
X41852593Y-61658404D02*
X39266660Y-59072471D01*
X45052593Y-61658404D02*
X41852593Y-61658404D01*
X103125593Y-99585404D02*
X106052593Y-96658404D01*
X76252593Y-99585404D02*
X103125593Y-99585404D01*
X90452593Y-86058404D02*
X87852593Y-86058404D01*
X51252593Y-69458404D02*
X51052593Y-69258404D01*
X56452593Y-69458404D02*
X51252593Y-69458404D01*
X50443094Y-62048905D02*
X45443094Y-62048905D01*
X55862092Y-62048905D02*
X50443094Y-62048905D01*
X71808092Y-79102905D02*
X60297094Y-79102905D01*
X72252593Y-78658404D02*
X71808092Y-79102905D01*
X59506593Y-78312404D02*
X57052593Y-78312404D01*
X60297094Y-79102905D02*
X59506593Y-78312404D01*
X106052593Y-57258404D02*
X105570103Y-56775914D01*
X107452593Y-58658404D02*
X106052593Y-57258404D01*
X138652593Y-72458404D02*
X134652593Y-72458404D01*
X139052593Y-72458404D02*
X138652593Y-72458404D01*
D14*
%TO.N,row0*%
X245452593Y-37658404D02*
X241452593Y-37658404D01*
X241452593Y-37658404D02*
X237852593Y-34058404D01*
X218452593Y-34058404D02*
X217852593Y-34058404D01*
X217852593Y-34058404D02*
X215252593Y-36658404D01*
X215252593Y-36658404D02*
X211252593Y-36658404D01*
X211252593Y-36658404D02*
X210452593Y-37458404D01*
X198852593Y-37458404D02*
X196052593Y-40258404D01*
X196052593Y-40258404D02*
X193252593Y-40258404D01*
X193252593Y-40258404D02*
X186052593Y-47458404D01*
X186052593Y-47458404D02*
X186052593Y-48658404D01*
X183452593Y-51258404D02*
X181852593Y-51258404D01*
X181852593Y-51258404D02*
X180452593Y-52658404D01*
X180452593Y-52658404D02*
X178852593Y-52658404D01*
X178852593Y-52658404D02*
X170652593Y-60858404D01*
X185452593Y-49258404D02*
X183452593Y-51258404D01*
X186052593Y-48658404D02*
X185452593Y-49258404D01*
X201252593Y-37458404D02*
X198852593Y-37458404D01*
X210452593Y-37458404D02*
X201252593Y-37458404D01*
X220652593Y-34058404D02*
X218452593Y-34058404D01*
X237852593Y-34058404D02*
X220652593Y-34058404D01*
X134452593Y-66658404D02*
X130852593Y-63058404D01*
X130852593Y-63058404D02*
X127252593Y-63058404D01*
X127252593Y-63058404D02*
X124252593Y-60058404D01*
X124252593Y-60058404D02*
X121452593Y-60058404D01*
X111585668Y-52858404D02*
X111185668Y-52458404D01*
X114252593Y-52858404D02*
X111585668Y-52858404D01*
X111185668Y-52458404D02*
X111052593Y-52458404D01*
X111052593Y-52458404D02*
X108052593Y-49458404D01*
X107420165Y-49458404D02*
X102652593Y-44690832D01*
X108052593Y-49458404D02*
X107420165Y-49458404D01*
X102652593Y-44690832D02*
X102652593Y-44058404D01*
X98652593Y-40058404D02*
X95852593Y-40058404D01*
X95852593Y-40058404D02*
X94052593Y-38258404D01*
X94052593Y-38258404D02*
X88852593Y-38258404D01*
X88852593Y-38258404D02*
X86652593Y-40458404D01*
X83252593Y-40458404D02*
X80252593Y-40458404D01*
X86652593Y-40458404D02*
X83252593Y-40458404D01*
X102452593Y-43858404D02*
X98652593Y-40058404D01*
X102652593Y-44058404D02*
X102452593Y-43858404D01*
X117652593Y-56258404D02*
X114252593Y-52858404D01*
X121452593Y-60058404D02*
X117652593Y-56258404D01*
X170652593Y-60858404D02*
X166852593Y-60858404D01*
X166852593Y-60858404D02*
X164452593Y-63258404D01*
X164452593Y-63258404D02*
X161052593Y-63258404D01*
X157652593Y-66658404D02*
X134452593Y-66658404D01*
X161052593Y-63258404D02*
X157652593Y-66658404D01*
X80252593Y-40458404D02*
X79652593Y-40458404D01*
X79652593Y-40458404D02*
X78452593Y-41658404D01*
X78452593Y-41658404D02*
X75452593Y-41658404D01*
X75452593Y-41658404D02*
X74252593Y-40458404D01*
X74252593Y-40458404D02*
X71452593Y-40458404D01*
X71452593Y-40458404D02*
X70052593Y-39058404D01*
X66652593Y-39058404D02*
X65852593Y-38258404D01*
X70052593Y-39058404D02*
X66652593Y-39058404D01*
X147852593Y-98858404D02*
X131052593Y-98858404D01*
%TO.N,row1*%
X248452593Y-54458404D02*
X253452593Y-54458404D01*
X223252593Y-48258404D02*
X226052593Y-51058404D01*
X185652593Y-70058404D02*
X188452593Y-70058404D01*
X188452593Y-70058404D02*
X190652593Y-67858404D01*
X190652593Y-67858404D02*
X192452593Y-67858404D01*
X202852593Y-57458404D02*
X203652593Y-57458404D01*
X203652593Y-57458404D02*
X206252593Y-54858404D01*
X245052593Y-51058404D02*
X248452593Y-54458404D01*
X210386902Y-54858404D02*
X216986902Y-48258404D01*
X216986902Y-48258404D02*
X223252593Y-48258404D01*
X178452593Y-77258404D02*
X185652593Y-70058404D01*
X193452593Y-66858404D02*
X202852593Y-57458404D01*
X192452593Y-67858404D02*
X193452593Y-66858404D01*
X209652593Y-54858404D02*
X210386902Y-54858404D01*
X206252593Y-54858404D02*
X209652593Y-54858404D01*
X228652593Y-51058404D02*
X245052593Y-51058404D01*
X226052593Y-51058404D02*
X228652593Y-51058404D01*
X178452593Y-77258404D02*
X175852593Y-77258404D01*
X175852593Y-77258404D02*
X172852593Y-80258404D01*
X172852593Y-80258404D02*
X169252593Y-80258404D01*
X168052593Y-81458404D02*
X137452593Y-81458404D01*
X169252593Y-80258404D02*
X168052593Y-81458404D01*
X131652593Y-81458404D02*
X128852593Y-84258404D01*
X128852593Y-84258404D02*
X126052593Y-84258404D01*
X126052593Y-84258404D02*
X121852593Y-80058404D01*
X121852593Y-80058404D02*
X118852593Y-80058404D01*
X118638355Y-80058404D02*
X115838355Y-77258404D01*
X118852593Y-80058404D02*
X118638355Y-80058404D01*
X115838355Y-77258404D02*
X113252593Y-77258404D01*
X105652593Y-69658404D02*
X102452593Y-69658404D01*
X102452593Y-69658404D02*
X99252593Y-66458404D01*
X99252593Y-66458404D02*
X99170571Y-66458404D01*
X92452593Y-59740426D02*
X92452593Y-59258404D01*
X92452593Y-59258404D02*
X90452593Y-57258404D01*
X90452593Y-57258404D02*
X87652593Y-57258404D01*
X87652593Y-57258404D02*
X86452593Y-56058404D01*
X86452593Y-56058404D02*
X79852593Y-56058404D01*
X79852593Y-56058404D02*
X77652593Y-58258404D01*
X72852593Y-58258404D02*
X72252593Y-58858404D01*
X109452593Y-73458404D02*
X105652593Y-69658404D01*
X113252593Y-77258404D02*
X109452593Y-73458404D01*
X93711582Y-60999415D02*
X92452593Y-59740426D01*
X99170571Y-66458404D02*
X93711582Y-60999415D01*
X75252593Y-58258404D02*
X72852593Y-58258404D01*
X77652593Y-58258404D02*
X75252593Y-58258404D01*
X72252593Y-58858404D02*
X67652593Y-58858404D01*
X67652593Y-58858404D02*
X66452593Y-57658404D01*
X66452593Y-57658404D02*
X65252593Y-57658404D01*
X63652593Y-56058404D02*
X57452593Y-56058404D01*
X65252593Y-57658404D02*
X63652593Y-56058404D01*
X130252593Y-99658404D02*
X130052593Y-99458404D01*
X147052593Y-99658404D02*
X130252593Y-99658404D01*
X131852593Y-81458404D02*
X131652593Y-81458404D01*
X135852593Y-81458404D02*
X131852593Y-81458404D01*
%TO.N,row2*%
X257452593Y-67658404D02*
X257052593Y-68058404D01*
X239052593Y-68058404D02*
X238852593Y-67858404D01*
X257052593Y-68058404D02*
X239052593Y-68058404D01*
X238852593Y-67858404D02*
X233652593Y-67858404D01*
X233652593Y-67858404D02*
X231052593Y-65258404D01*
X231052593Y-65258404D02*
X223452593Y-65258404D01*
X223452593Y-65258404D02*
X221452593Y-65258404D01*
X221452593Y-65258404D02*
X218652593Y-68058404D01*
X218852593Y-78458404D02*
X218506603Y-78804394D01*
X218506603Y-78804394D02*
X212664536Y-78804394D01*
X211137527Y-80331403D02*
X210179594Y-80331403D01*
X212664536Y-78804394D02*
X211137527Y-80331403D01*
X206252593Y-84258404D02*
X204452593Y-84258404D01*
X210179594Y-80331403D02*
X206252593Y-84258404D01*
X204452593Y-84258404D02*
X199852593Y-84258404D01*
X199852593Y-84258404D02*
X196852593Y-87258404D01*
X196852593Y-87258404D02*
X193252593Y-87258404D01*
X193052593Y-87258404D02*
X191852593Y-88458404D01*
X193252593Y-87258404D02*
X193052593Y-87258404D01*
X189852593Y-92458404D02*
X188252593Y-94058404D01*
X192179593Y-92458404D02*
X189852593Y-92458404D01*
X188252593Y-94058404D02*
X184252593Y-94058404D01*
X184252593Y-94058404D02*
X181052593Y-97258404D01*
X181052593Y-97258404D02*
X177652593Y-97258404D01*
X177652593Y-97258404D02*
X172652593Y-102258404D01*
X114252593Y-97858404D02*
X111852593Y-97858404D01*
X111852593Y-97858404D02*
X110452593Y-96458404D01*
X110452593Y-96458404D02*
X109852593Y-96458404D01*
X109852593Y-96458404D02*
X107452593Y-94058404D01*
X107452593Y-94058404D02*
X104252593Y-94058404D01*
X97452593Y-87258404D02*
X95052593Y-87258404D01*
X95052593Y-87258404D02*
X91652593Y-83858404D01*
X91652593Y-83858404D02*
X91252593Y-83858404D01*
X82052593Y-74658404D02*
X79852593Y-74658404D01*
X79852593Y-74658404D02*
X78052593Y-72858404D01*
X78052593Y-72858404D02*
X72052593Y-72858404D01*
X72052593Y-72858404D02*
X69452593Y-75458404D01*
X64252593Y-75458404D02*
X62852593Y-76858404D01*
X62852593Y-76858404D02*
X53052593Y-76858404D01*
X53052593Y-76858404D02*
X52452593Y-76258404D01*
X52452593Y-76258404D02*
X48252593Y-76258404D01*
X46452593Y-78058404D02*
X43252593Y-78058404D01*
X48252593Y-76258404D02*
X46452593Y-78058404D01*
X66652593Y-75458404D02*
X64252593Y-75458404D01*
X69452593Y-75458404D02*
X66652593Y-75458404D01*
X85352593Y-77958404D02*
X82052593Y-74658404D01*
X91252593Y-83858404D02*
X85352593Y-77958404D01*
X100552593Y-90358404D02*
X97452593Y-87258404D01*
X104252593Y-94058404D02*
X100552593Y-90358404D01*
X116652593Y-100258404D02*
X114252593Y-97858404D01*
X118652593Y-102258404D02*
X116652593Y-100258404D01*
X146252593Y-102258404D02*
X118652593Y-102258404D01*
X172652593Y-102258404D02*
X146252593Y-102258404D01*
%TO.N,row3*%
X245652593Y-85658404D02*
X245052593Y-86258404D01*
X245052593Y-86258404D02*
X241452593Y-86258404D01*
X241452593Y-86258404D02*
X239452593Y-88258404D01*
X239452593Y-88258404D02*
X235252593Y-88258404D01*
X235252593Y-88258404D02*
X234052593Y-89458404D01*
X234052593Y-89458404D02*
X228052593Y-89458404D01*
X211652593Y-101858404D02*
X209052593Y-104458404D01*
X209052593Y-104458404D02*
X205452593Y-104458404D01*
X205452593Y-104458404D02*
X201452593Y-108458404D01*
X201452593Y-108458404D02*
X196652593Y-108458404D01*
X189652593Y-115458404D02*
X182252593Y-115458404D01*
X105652593Y-114258404D02*
X101652593Y-114258404D01*
X101652593Y-114258404D02*
X95052593Y-107658404D01*
X87852593Y-107658404D02*
X82652593Y-102458404D01*
X80252593Y-102458404D02*
X79852593Y-102058404D01*
X82652593Y-102458404D02*
X80252593Y-102458404D01*
X60652593Y-92258404D02*
X62852593Y-90058404D01*
X62852593Y-90058404D02*
X69852593Y-90058404D01*
X69852593Y-90058404D02*
X71652593Y-91858404D01*
X71652593Y-91858404D02*
X74252593Y-91858404D01*
X78052593Y-95658404D02*
X79852593Y-95658404D01*
X74252593Y-91858404D02*
X78052593Y-95658404D01*
X216052593Y-101858404D02*
X211652593Y-101858404D01*
X195652593Y-109458404D02*
X189652593Y-115458404D01*
X196652593Y-108458404D02*
X195652593Y-109458404D01*
X176252593Y-121458404D02*
X165452593Y-132258404D01*
X182252593Y-115458404D02*
X176252593Y-121458404D01*
X123652593Y-132258404D02*
X118852593Y-127458404D01*
X110852593Y-119458404D02*
X105652593Y-114258404D01*
X118852593Y-127458404D02*
X110852593Y-119458404D01*
X92452593Y-107658404D02*
X87852593Y-107658404D01*
X95052593Y-107658404D02*
X92452593Y-107658404D01*
X216052593Y-101858404D02*
X216052593Y-100990272D01*
X216052593Y-100990272D02*
X218584461Y-98458404D01*
X221866952Y-96775914D02*
X224466952Y-96775914D01*
X220184462Y-98458404D02*
X221866952Y-96775914D01*
X218584461Y-98458404D02*
X220184462Y-98458404D01*
X225325494Y-95917372D02*
X228111561Y-95917372D01*
X224466952Y-96775914D02*
X225325494Y-95917372D01*
X145452593Y-132258404D02*
X123652593Y-132258404D01*
X165452593Y-132258404D02*
X145452593Y-132258404D01*
%TO.N,led*%
X125252593Y-89658404D02*
X121852593Y-89658404D01*
X121852593Y-89658404D02*
X120052593Y-87858404D01*
X120052593Y-87858404D02*
X119452593Y-87858404D01*
X119452593Y-87858404D02*
X117452593Y-85858404D01*
X117452593Y-85858404D02*
X115652593Y-85858404D01*
X115652593Y-85858404D02*
X114052593Y-84258404D01*
X112576631Y-84258404D02*
X111176631Y-82858404D01*
X114052593Y-84258404D02*
X112576631Y-84258404D01*
X111176631Y-82858404D02*
X111176631Y-82582442D01*
X111176631Y-82582442D02*
X109852593Y-81258404D01*
X109852593Y-81258404D02*
X106852593Y-78258404D01*
X106852593Y-78258404D02*
X104052593Y-78258404D01*
X102970103Y-77175914D02*
X101370103Y-77175914D01*
X104052593Y-78258404D02*
X102970103Y-77175914D01*
X100052593Y-75858404D02*
X97052593Y-75858404D01*
X101370103Y-77175914D02*
X100052593Y-75858404D01*
X93252593Y-72134366D02*
X93252593Y-72058404D01*
X96976631Y-75858404D02*
X93252593Y-72134366D01*
X97052593Y-75858404D02*
X96976631Y-75858404D01*
X93652593Y-66658404D02*
X93052593Y-66058404D01*
X93052593Y-66058404D02*
X90252593Y-66058404D01*
X90252593Y-66058404D02*
X88252593Y-64058404D01*
X88252593Y-64058404D02*
X85652593Y-64058404D01*
X83779594Y-62185405D02*
X81179594Y-62185405D01*
X85652593Y-64058404D02*
X83779594Y-62185405D01*
X81179594Y-62185405D02*
X79452593Y-60458404D01*
X79452593Y-60458404D02*
X77652593Y-60458404D01*
X77652593Y-60458404D02*
X76852593Y-61258404D01*
X76852593Y-61258404D02*
X73652593Y-61258404D01*
X73652593Y-61258404D02*
X73452593Y-61258404D01*
X73452593Y-61258404D02*
X73052593Y-61658404D01*
X73052593Y-61658404D02*
X66652593Y-61658404D01*
X66652593Y-61658404D02*
X65052593Y-60058404D01*
X65052593Y-60058404D02*
X62452593Y-60058404D01*
X61243093Y-58848904D02*
X60252593Y-58848904D01*
X62452593Y-60058404D02*
X61243093Y-58848904D01*
X60252593Y-58848904D02*
X59862093Y-58848904D01*
X55935091Y-62775906D02*
X44970095Y-62775906D01*
X59862093Y-58848904D02*
X55935091Y-62775906D01*
X44370103Y-62175914D02*
X41170103Y-62175914D01*
X44970095Y-62775906D02*
X44370103Y-62175914D01*
X41170103Y-62175914D02*
X37252593Y-58258404D01*
X45052593Y-41258404D02*
X46852593Y-41258404D01*
X46852593Y-41258404D02*
X48452593Y-42858404D01*
X48452593Y-42858404D02*
X50252593Y-42858404D01*
X50252593Y-42858404D02*
X52252593Y-44858404D01*
X56052593Y-44858404D02*
X57252593Y-43658404D01*
X52252593Y-44858404D02*
X56052593Y-44858404D01*
X135852593Y-84058404D02*
X129694659Y-84058404D01*
X128494659Y-85258404D02*
X125252593Y-85258404D01*
X129694659Y-84058404D02*
X128494659Y-85258404D01*
D13*
%TO.N,VCC*%
X149052593Y-62658404D02*
X142652593Y-62658404D01*
D14*
%TO.N,Net-(D43-Pad2)*%
X34652593Y-79058404D02*
X36252593Y-80658404D01*
X36252593Y-80658404D02*
X39252593Y-80658404D01*
X39252593Y-80658404D02*
X45052593Y-86458404D01*
X45052593Y-86458404D02*
X50852593Y-86458404D01*
X50852593Y-86458404D02*
X52652593Y-88258404D01*
X54852593Y-88258404D02*
X56252593Y-89658404D01*
X52652593Y-88258404D02*
X54852593Y-88258404D01*
%TO.N,Net-(D44-Pad2)*%
X63525593Y-77585404D02*
X63652593Y-77458404D01*
X55652593Y-77585404D02*
X63525593Y-77585404D01*
%TO.N,Net-(D45-Pad2)*%
X63938526Y-57372471D02*
X64824459Y-58258404D01*
X64824459Y-58258404D02*
X66052593Y-58258404D01*
X67737526Y-59585404D02*
X71325593Y-59585404D01*
X67410526Y-59258404D02*
X67737526Y-59585404D01*
X67052593Y-59258404D02*
X67410526Y-59258404D01*
X66052593Y-58258404D02*
X67052593Y-59258404D01*
%TO.N,Net-(D46-Pad2)*%
X78966661Y-42172470D02*
X75166659Y-42172470D01*
X79366660Y-41772471D02*
X78966661Y-42172470D01*
X75166659Y-42172470D02*
X74052593Y-41058404D01*
X71024459Y-41058404D02*
X70708628Y-40742573D01*
X74052593Y-41058404D02*
X71024459Y-41058404D01*
%TO.N,Net-(D47-Pad2)*%
X81356689Y-41458404D02*
X86294659Y-41458404D01*
X86294659Y-41458404D02*
X88052593Y-41458404D01*
X88052593Y-41458404D02*
X89852593Y-43258404D01*
X89852593Y-43258404D02*
X91852593Y-43258404D01*
X91852593Y-43258404D02*
X93052593Y-44458404D01*
X93052593Y-44458404D02*
X95052593Y-44458404D01*
X95052593Y-44458404D02*
X96252593Y-45658404D01*
X98652593Y-45658404D02*
X99052593Y-45258404D01*
X96252593Y-45658404D02*
X98652593Y-45658404D01*
X73052593Y-41785404D02*
X73925593Y-41785404D01*
X73925593Y-41785404D02*
X74798593Y-42658404D01*
X80156689Y-42658404D02*
X80304641Y-42510452D01*
X74798593Y-42658404D02*
X80156689Y-42658404D01*
X80304641Y-42510452D02*
X81356689Y-41458404D01*
%TO.N,Net-(D51-Pad2)*%
X68252593Y-96258404D02*
X70052593Y-98058404D01*
X70052593Y-98058404D02*
X74052593Y-98058404D01*
X74052593Y-98058404D02*
X74852593Y-98858404D01*
X97852593Y-98858404D02*
X98052593Y-98658404D01*
X74852593Y-98858404D02*
X97852593Y-98858404D01*
%TO.N,Net-(D52-Pad2)*%
X106852593Y-75458404D02*
X107052593Y-75658404D01*
X97852593Y-73258404D02*
X98252593Y-73658404D01*
X98252593Y-73658404D02*
X100652593Y-73658404D01*
X100652593Y-73658404D02*
X102052593Y-75058404D01*
X102052593Y-75058404D02*
X104252593Y-75058404D01*
X104852593Y-75658404D02*
X107052593Y-75658404D01*
X104252593Y-75058404D02*
X104852593Y-75658404D01*
%TO.N,Net-(D53-Pad2)*%
X114052593Y-58458404D02*
X114252593Y-58258404D01*
X105052593Y-55658404D02*
X105652593Y-56258404D01*
X105652593Y-56258404D02*
X107652593Y-56258404D01*
X107652593Y-56258404D02*
X108652593Y-57258404D01*
X108652593Y-57258404D02*
X110252593Y-57258404D01*
X111252593Y-58258404D02*
X114252593Y-58258404D01*
X110252593Y-57258404D02*
X111252593Y-58258404D01*
%TO.N,Net-(D54-Pad2)*%
X131452593Y-68458404D02*
X127652593Y-68458404D01*
X127652593Y-68458404D02*
X126852593Y-67658404D01*
X126852593Y-67658404D02*
X124852593Y-67658404D01*
X124852593Y-67658404D02*
X122652593Y-65458404D01*
X122652593Y-65458404D02*
X121452593Y-65458404D01*
X121452593Y-65458404D02*
X116852593Y-60858404D01*
X116852593Y-60858404D02*
X114652593Y-60858404D01*
X114652593Y-60858404D02*
X113452593Y-59658404D01*
X113452593Y-59658404D02*
X113052593Y-59258404D01*
X113052593Y-59258404D02*
X112852593Y-59058404D01*
X112852593Y-59058404D02*
X110852593Y-59058404D01*
X110852593Y-59058404D02*
X109852593Y-58058404D01*
X108325593Y-58058404D02*
X107252593Y-56985404D01*
X109852593Y-58058404D02*
X108325593Y-58058404D01*
%TO.N,Net-(D57-Pad2)*%
X103782860Y-106458404D02*
X87852593Y-106458404D01*
X105655860Y-104585404D02*
X103782860Y-106458404D01*
%TO.N,Net-(D58-Pad2)*%
X77252593Y-122658404D02*
X78252593Y-123658404D01*
X78252593Y-123658404D02*
X93052593Y-123658404D01*
X93052593Y-123658404D02*
X93652593Y-123658404D01*
X93652593Y-123658404D02*
X98452593Y-128458404D01*
X100052593Y-128458404D02*
X102452593Y-130858404D01*
X98452593Y-128458404D02*
X100052593Y-128458404D01*
%TO.N,Net-(D59-Pad2)*%
X110852593Y-138058404D02*
X117652593Y-144858404D01*
X110852593Y-138058404D02*
X103852593Y-138058404D01*
X103852593Y-138058404D02*
X100052593Y-134258404D01*
X100052593Y-134258404D02*
X97252593Y-134258404D01*
X95652593Y-132658404D02*
X94452593Y-132658404D01*
X97252593Y-134258404D02*
X95652593Y-132658404D01*
%TO.N,Net-(D60-Pad2)*%
X109652593Y-146058404D02*
X114452593Y-150858404D01*
X114452593Y-150858404D02*
X174052593Y-150858404D01*
%TO.N,Net-(D61-Pad2)*%
X179652593Y-145858404D02*
X181452593Y-145858404D01*
X181452593Y-145858404D02*
X193452593Y-133858404D01*
X193452593Y-133858404D02*
X196052593Y-133858404D01*
X199452593Y-130458404D02*
X199452593Y-126858404D01*
X196052593Y-133858404D02*
X199452593Y-130458404D01*
%TO.N,Net-(D62-Pad2)*%
X195052593Y-133058404D02*
X195998583Y-133058404D01*
X195998583Y-133058404D02*
X198998583Y-130058404D01*
X198998583Y-127480356D02*
X198976631Y-127458404D01*
X198998583Y-130058404D02*
X198998583Y-127480356D01*
X198725592Y-126509443D02*
X199176631Y-126058404D01*
X198725592Y-127207365D02*
X198725592Y-126509443D01*
X198976631Y-127458404D02*
X198725592Y-127207365D01*
X199176631Y-126058404D02*
X208852593Y-126058404D01*
X208852593Y-126058404D02*
X211052593Y-123858404D01*
X211052593Y-123858404D02*
X214652593Y-123858404D01*
X217052593Y-121458404D02*
X217052593Y-116858404D01*
X214652593Y-123858404D02*
X217052593Y-121458404D01*
%TO.N,Net-(D63-Pad2)*%
X208252593Y-123058404D02*
X203052593Y-123058404D01*
X200252593Y-120258404D02*
X200252593Y-120058404D01*
X203052593Y-123058404D02*
X200252593Y-120258404D01*
X192179593Y-97258404D02*
X186052593Y-97258404D01*
%TO.N,Net-(D66-Pad2)*%
X163793203Y-57058404D02*
X163993203Y-56858404D01*
X161452593Y-57058404D02*
X163793203Y-57058404D01*
X173452593Y-56858404D02*
X177052593Y-53258404D01*
X163993203Y-56858404D02*
X173452593Y-56858404D01*
X177052593Y-46858404D02*
X182252593Y-46858404D01*
%TO.N,Net-(D69-Pad2)*%
X196252593Y-95858404D02*
X196652593Y-96258404D01*
X196652593Y-96258404D02*
X210452593Y-96258404D01*
X210452593Y-96258404D02*
X214052593Y-92658404D01*
X214052593Y-92658404D02*
X216852593Y-92658404D01*
X216852593Y-92658404D02*
X217852593Y-91658404D01*
X220052593Y-91658404D02*
X222452593Y-89258404D01*
X217852593Y-91658404D02*
X220052593Y-91658404D01*
%TO.N,Net-(D73-Pad2)*%
X192052593Y-34058404D02*
X204452593Y-34058404D01*
X204452593Y-34058404D02*
X207852593Y-30658404D01*
X215452593Y-30658404D02*
X216452593Y-31658404D01*
X207852593Y-30658404D02*
X215452593Y-30658404D01*
%TO.N,Net-(D77-Pad2)*%
X238852593Y-94258404D02*
X239252593Y-93858404D01*
X239252593Y-93858404D02*
X242252593Y-93858404D01*
X242252593Y-93858404D02*
X244452593Y-91658404D01*
X247252593Y-91658404D02*
X248852593Y-90058404D01*
X244452593Y-91658404D02*
X247252593Y-91658404D01*
X248852593Y-82058404D02*
X252052593Y-82058404D01*
X252052593Y-82058404D02*
X254852593Y-79258404D01*
X254852593Y-79258404D02*
X258052593Y-79258404D01*
X258052593Y-79258404D02*
X260052593Y-77258404D01*
%TO.N,RESET*%
X157852593Y-130804404D02*
X164906593Y-130804404D01*
X167817972Y-127893025D02*
X167817972Y-127606356D01*
X164906593Y-130804404D02*
X167817972Y-127893025D01*
X161166660Y-74172471D02*
X160480727Y-74858404D01*
X160480727Y-74858404D02*
X158852593Y-74858404D01*
%TO.N,col0*%
X45452593Y-81858404D02*
X42252593Y-78658404D01*
X42252593Y-78658404D02*
X42252593Y-75858404D01*
X42252593Y-75858404D02*
X40852593Y-74458404D01*
X40852593Y-74458404D02*
X38052593Y-74458404D01*
X38052593Y-74458404D02*
X34452593Y-70858404D01*
X32852593Y-70858404D02*
X31252593Y-69258404D01*
X34452593Y-70858404D02*
X32852593Y-70858404D01*
X132722794Y-85058404D02*
X132683150Y-85098048D01*
X135852593Y-85058404D02*
X132722794Y-85058404D01*
X134852593Y-76258404D02*
X129252593Y-70658404D01*
X128770103Y-70175914D02*
X126370103Y-70175914D01*
X129252593Y-70658404D02*
X128770103Y-70175914D01*
X125979594Y-69785405D02*
X125579594Y-69785405D01*
X126370103Y-70175914D02*
X125979594Y-69785405D01*
X125370103Y-69575914D02*
X123370103Y-69575914D01*
X125579594Y-69785405D02*
X125370103Y-69575914D01*
X121170103Y-67375914D02*
X119770103Y-67375914D01*
X123370103Y-69575914D02*
X121170103Y-67375914D01*
X119770103Y-67375914D02*
X115452593Y-63058404D01*
X115452593Y-63058404D02*
X113852593Y-63058404D01*
X113852593Y-63058404D02*
X112052593Y-61258404D01*
X112052593Y-61258404D02*
X111252593Y-61258404D01*
X111252593Y-61258404D02*
X111052593Y-61058404D01*
X111052593Y-61058404D02*
X110052593Y-61058404D01*
X110052593Y-61058404D02*
X109052593Y-60058404D01*
X109052593Y-60058404D02*
X106652593Y-60058404D01*
X106652593Y-60058404D02*
X104652593Y-58058404D01*
X104652593Y-58058404D02*
X103852593Y-58058404D01*
X103852593Y-58058404D02*
X102852593Y-57058404D01*
X102852593Y-57058404D02*
X102852593Y-56658404D01*
X102852593Y-56658404D02*
X100052593Y-53858404D01*
X100052593Y-53858404D02*
X100052593Y-52058404D01*
X100052593Y-52058404D02*
X96252593Y-48258404D01*
X96252593Y-48258404D02*
X95852593Y-48258404D01*
X95852593Y-48258404D02*
X95452593Y-47858404D01*
X95452593Y-47858404D02*
X94852593Y-47858404D01*
X94852593Y-47858404D02*
X93452593Y-46458404D01*
X91652593Y-46458404D02*
X91052593Y-45858404D01*
X93452593Y-46458404D02*
X91652593Y-46458404D01*
X91052593Y-45858404D02*
X90770103Y-45575914D01*
X90770103Y-45575914D02*
X88370103Y-45575914D01*
X88370103Y-45575914D02*
X86652593Y-43858404D01*
X86652593Y-43858404D02*
X82652593Y-43858404D01*
X78303632Y-44985405D02*
X78176631Y-44858404D01*
X81525592Y-44985405D02*
X78303632Y-44985405D01*
X82652593Y-43858404D02*
X81525592Y-44985405D01*
X78176631Y-44858404D02*
X73452593Y-44858404D01*
X72570103Y-43975914D02*
X71770103Y-43975914D01*
X73452593Y-44858404D02*
X72570103Y-43975914D01*
X71170103Y-43375914D02*
X69770103Y-43375914D01*
X71770103Y-43975914D02*
X71170103Y-43375914D01*
X69770103Y-43375914D02*
X67852593Y-41458404D01*
X67852593Y-41458404D02*
X66652593Y-41458404D01*
X65984462Y-41858404D02*
X65784462Y-42058404D01*
X66252593Y-41858404D02*
X65984462Y-41858404D01*
X66652593Y-41458404D02*
X66252593Y-41858404D01*
X65784462Y-42058404D02*
X64984462Y-42858404D01*
X59243093Y-42858404D02*
X59052593Y-43048904D01*
X64984462Y-42858404D02*
X59243093Y-42858404D01*
X56852593Y-49658404D02*
X55852593Y-48658404D01*
X55852593Y-48658404D02*
X53252593Y-48658404D01*
X53252593Y-48658404D02*
X51252593Y-46658404D01*
X51252593Y-46658404D02*
X48452593Y-46658404D01*
X45552593Y-43758404D02*
X43752593Y-43758404D01*
X48452593Y-46658404D02*
X45552593Y-43758404D01*
%TO.N,col1*%
X54252593Y-66458404D02*
X55652593Y-67858404D01*
X55652593Y-67858404D02*
X56652593Y-67858404D01*
X56652593Y-67858404D02*
X59252593Y-70458404D01*
X59252593Y-70458404D02*
X59852593Y-70458404D01*
X59852593Y-70458404D02*
X60852593Y-71458404D01*
X64452593Y-71458404D02*
X65652593Y-72658404D01*
X60852593Y-71458404D02*
X64452593Y-71458404D01*
X132758664Y-85858404D02*
X132485593Y-86131475D01*
X135252593Y-85858404D02*
X132758664Y-85858404D01*
X102506594Y-107912405D02*
X101852593Y-107258404D01*
X130426726Y-107912405D02*
X102506594Y-107912405D01*
X130866660Y-107472471D02*
X130426726Y-107912405D01*
X99080726Y-101331403D02*
X74325592Y-101331403D01*
X101630160Y-103880837D02*
X99080726Y-101331403D01*
X69038234Y-99775914D02*
X68052593Y-98790272D01*
X72770103Y-99775914D02*
X69038234Y-99775914D01*
X74325592Y-101331403D02*
X72770103Y-99775914D01*
X67838235Y-98575914D02*
X66770103Y-98575914D01*
X68052593Y-98790272D02*
X67838235Y-98575914D01*
X65243093Y-97048904D02*
X64452593Y-97048904D01*
X66770103Y-98575914D02*
X65243093Y-97048904D01*
%TO.N,col2*%
X83852593Y-84458404D02*
X80252593Y-84458404D01*
X73638526Y-77844337D02*
X71266660Y-77844337D01*
X80252593Y-84458404D02*
X73638526Y-77844337D01*
X132325591Y-86858475D02*
X132052593Y-87131473D01*
X135853186Y-86858475D02*
X132325591Y-86858475D01*
X130125593Y-107185404D02*
X102852593Y-107185404D01*
X130852593Y-106458404D02*
X130125593Y-107185404D01*
X99365526Y-102644337D02*
X83866660Y-102644337D01*
X102452593Y-105731404D02*
X99365526Y-102644337D01*
X80866660Y-103472471D02*
X80852593Y-103458404D01*
X82638526Y-103472471D02*
X80866660Y-103472471D01*
%TO.N,col3*%
X131433534Y-87858473D02*
X131233603Y-88058404D01*
X135850219Y-87858473D02*
X131433534Y-87858473D01*
X94788817Y-74594628D02*
X94684721Y-74594628D01*
X101052593Y-77658404D02*
X99852593Y-76458404D01*
X106463375Y-78712414D02*
X103706603Y-78712414D01*
X109830979Y-82080018D02*
X106463375Y-78712414D01*
X103706603Y-78712414D02*
X102652593Y-77658404D01*
X118906603Y-88912414D02*
X116906603Y-86912414D01*
X127252593Y-90058404D02*
X126452593Y-90858404D01*
X131252593Y-89658404D02*
X130852593Y-90058404D01*
X126452593Y-90858404D02*
X121452593Y-90858404D01*
X121452593Y-90858404D02*
X119506603Y-88912414D01*
X130852593Y-90058404D02*
X127252593Y-90058404D01*
X119506603Y-88912414D02*
X118906603Y-88912414D01*
X99852593Y-76458404D02*
X96652593Y-76458404D01*
X116906603Y-86912414D02*
X115264536Y-86912414D01*
X115264536Y-86912414D02*
X113810526Y-85458404D01*
X102652593Y-77658404D02*
X101052593Y-77658404D01*
X113810526Y-85458404D02*
X111700179Y-85458404D01*
X96652593Y-76458404D02*
X94788817Y-74594628D01*
X111700179Y-85458404D02*
X109830979Y-83589204D01*
X109830979Y-83589204D02*
X109830979Y-82080018D01*
%TO.N,col4*%
X105252593Y-103858404D02*
X104852593Y-103458404D01*
X106004821Y-103858403D02*
X108004822Y-105858404D01*
X105252593Y-103858404D02*
X106004821Y-103858403D01*
X112452593Y-105858404D02*
X112463574Y-105869385D01*
X108004822Y-105858404D02*
X112452593Y-105858404D01*
X112176141Y-84858404D02*
X110557980Y-83240243D01*
X114010527Y-84858404D02*
X112176141Y-84858404D01*
X114652593Y-85500470D02*
X114010527Y-84858404D01*
X114652593Y-85658404D02*
X114652593Y-85500470D01*
X116106603Y-86312414D02*
X115306603Y-86312414D01*
X130452593Y-88858404D02*
X129852593Y-89458404D01*
X116252593Y-86458404D02*
X116106603Y-86312414D01*
X129852593Y-89458404D02*
X126852593Y-89458404D01*
X126852593Y-89458404D02*
X125925592Y-90385405D01*
X125925592Y-90385405D02*
X121779594Y-90385405D01*
X121779594Y-90385405D02*
X119852593Y-88458404D01*
X119852593Y-88458404D02*
X119252593Y-88458404D01*
X119252593Y-88458404D02*
X117252593Y-86458404D01*
X117252593Y-86458404D02*
X116252593Y-86458404D01*
X135862093Y-88858404D02*
X130452593Y-88858404D01*
X115306603Y-86312414D02*
X114652593Y-85658404D01*
%TO.N,col5*%
X168652593Y-95058404D02*
X163252593Y-95058404D01*
X163052593Y-95058404D02*
X158852593Y-90858404D01*
X163252593Y-95058404D02*
X163052593Y-95058404D01*
%TO.N,col6*%
X162772361Y-95806306D02*
X167014241Y-95806306D01*
X158938526Y-91972471D02*
X162772361Y-95806306D01*
X179935083Y-86175914D02*
X184066058Y-82044939D01*
X184066058Y-82044939D02*
X187666058Y-82044939D01*
X178266951Y-86175914D02*
X179935083Y-86175914D01*
X174052593Y-88258404D02*
X174735083Y-87575914D01*
X176866952Y-87575914D02*
X178266951Y-86175914D01*
X166852593Y-90458404D02*
X169052593Y-88258404D01*
X174735083Y-87575914D02*
X176866952Y-87575914D01*
X169052593Y-88258404D02*
X174052593Y-88258404D01*
%TO.N,col7*%
X157111526Y-104658404D02*
X186052593Y-104658404D01*
X186052593Y-104658404D02*
X188052593Y-102658404D01*
X188052593Y-102658404D02*
X192452593Y-102658404D01*
X197252593Y-97858404D02*
X204052593Y-97858404D01*
X192452593Y-102658404D02*
X197252593Y-97858404D01*
%TO.N,col8*%
X211052593Y-81058404D02*
X212852593Y-79258404D01*
X219852593Y-78534366D02*
X219852593Y-78458404D01*
X219128555Y-79258404D02*
X219852593Y-78534366D01*
X212852593Y-79258404D02*
X219128555Y-79258404D01*
X156579593Y-102985404D02*
X157452593Y-103858404D01*
X157452593Y-103858404D02*
X185652593Y-103858404D01*
X185652593Y-103858404D02*
X187452593Y-102058404D01*
X187452593Y-102058404D02*
X192052593Y-102058404D01*
X197125593Y-96985404D02*
X209652593Y-96985404D01*
X192052593Y-102058404D02*
X197125593Y-96985404D01*
%TO.N,col9*%
X230052593Y-78258404D02*
X232852593Y-75458404D01*
X242852593Y-73658404D02*
X242452593Y-74058404D01*
X242452593Y-74058404D02*
X236452593Y-74058404D01*
X235052593Y-75458404D02*
X232852593Y-75458404D01*
X236452593Y-74058404D02*
X235052593Y-75458404D01*
X165103631Y-131531404D02*
X181776631Y-114858404D01*
X155852593Y-131531404D02*
X165103631Y-131531404D01*
X181776631Y-114858404D02*
X189252593Y-114858404D01*
X194925592Y-109109443D02*
X196176631Y-107858404D01*
X194925592Y-109185405D02*
X194925592Y-109109443D01*
X189252593Y-114858404D02*
X194925592Y-109185405D01*
X201410527Y-107858404D02*
X205410527Y-103858404D01*
X196176631Y-107858404D02*
X201410527Y-107858404D01*
X209010527Y-103858404D02*
X214810527Y-98058404D01*
X205410527Y-103858404D02*
X209010527Y-103858404D01*
X217520725Y-98058404D02*
X218320725Y-97258404D01*
X214810527Y-98058404D02*
X217520725Y-98058404D01*
X218320725Y-97258404D02*
X219652593Y-97258404D01*
X219920725Y-97258404D02*
X221438234Y-95740894D01*
X219652593Y-97258404D02*
X219920725Y-97258404D01*
X224038235Y-95740894D02*
X225320725Y-94458404D01*
X221438234Y-95740894D02*
X224038235Y-95740894D01*
X230852593Y-94458404D02*
X231052593Y-94258404D01*
X225320725Y-94458404D02*
X230852593Y-94458404D01*
%TD*%
M02*
