<?xml version="1.0" encoding="UTF-8" standalone="no"?>
<!-- Created with Inkscape (http://www.inkscape.org/) -->

<svg
   width="11in"
   height="8.5in"
   viewBox="0 0 279.4 215.9"
   version="1.1"
   id="svg5"
   sodipodi:docname="baroboard-pcb-outline.svg"
   inkscape:version="1.1 (c68e22c387, 2021-05-23)"
   xmlns:inkscape="http://www.inkscape.org/namespaces/inkscape"
   xmlns:sodipodi="http://sodipodi.sourceforge.net/DTD/sodipodi-0.dtd"
   xmlns="http://www.w3.org/2000/svg"
   xmlns:svg="http://www.w3.org/2000/svg">
  <sodipodi:namedview
     id="namedview7"
     pagecolor="#ffffff"
     bordercolor="#666666"
     borderopacity="1.0"
     inkscape:pageshadow="2"
     inkscape:pageopacity="0.0"
     inkscape:pagecheckerboard="0"
     inkscape:document-units="mm"
     showgrid="false"
     units="in"
     inkscape:zoom="1.754102"
     inkscape:cx="507.09707"
     inkscape:cy="194.11642"
     inkscape:window-width="3440"
     inkscape:window-height="1387"
     inkscape:window-x="-8"
     inkscape:window-y="-8"
     inkscape:window-maximized="1"
     inkscape:current-layer="g290294" />
  <defs
     id="defs2">
    <inkscape:perspective
       sodipodi:type="inkscape:persp3d"
       inkscape:vp_x="0 : 107.95 : 1"
       inkscape:vp_y="0 : 1000 : 0"
       inkscape:vp_z="279.4 : 107.95 : 1"
       inkscape:persp3d-origin="139.7 : 71.966667 : 1"
       id="perspective299276" />
  </defs>
  <g
     inkscape:label="Layer 1"
     inkscape:groupmode="layer"
     id="layer1"
     transform="translate(17.014842,-68.586484)">
    <g
       id="g290294"
       transform="matrix(0.00254,0,0,0.00254,-3.2783072,105.82979)">
      <g
         style="fill:#000000;fill-opacity:1;stroke:#000000;stroke-linecap:round;stroke-linejoin:round;stroke-opacity:1"
         id="g286094" />
      <g
         style="fill:#000000;fill-opacity:0;stroke:#000000;stroke-width:-0.000393701;stroke-linecap:round;stroke-linejoin:round;stroke-opacity:1"
         id="g286096" />
      <g
         style="fill:#000000;fill-opacity:0;stroke:#000000;stroke-width:59.0551;stroke-linecap:round;stroke-linejoin:round;stroke-opacity:1"
         id="g287324" />
      <g
         style="fill:#000000;fill-opacity:0;stroke:#000000;stroke-width:59.0551;stroke-linecap:round;stroke-linejoin:round;stroke-opacity:1"
         id="g286140" />
      <g
         style="fill:#000000;fill-opacity:0;stroke:#000000;stroke-width:59.0551;stroke-linecap:round;stroke-linejoin:round;stroke-opacity:1"
         id="g286162" />
      <g
         style="fill:#000000;fill-opacity:0;stroke:#000000;stroke-width:59.0551;stroke-linecap:round;stroke-linejoin:round;stroke-opacity:1"
         id="g286434" />
      <g
         style="fill:#000000;fill-opacity:0;stroke:#000000;stroke-width:59.0551;stroke-linecap:round;stroke-linejoin:round;stroke-opacity:1"
         id="g286456" />
      <g
         style="fill:#000000;fill-opacity:0;stroke:#000000;stroke-width:59.0551;stroke-linecap:round;stroke-linejoin:round;stroke-opacity:1"
         id="g286478" />
      <g
         style="fill:#000000;fill-opacity:0;stroke:#000000;stroke-width:59.0551;stroke-linecap:round;stroke-linejoin:round;stroke-opacity:1"
         id="g286500" />
      <g
         style="fill:#000000;fill-opacity:0;stroke:#000000;stroke-width:59.0551;stroke-linecap:round;stroke-linejoin:round;stroke-opacity:1"
         id="g286522" />
      <g
         style="fill:#000000;fill-opacity:0;stroke:#000000;stroke-width:59.0551;stroke-linecap:round;stroke-linejoin:round;stroke-opacity:1"
         id="g286544" />
      <g
         style="fill:#000000;fill-opacity:0;stroke:#000000;stroke-width:59.0551;stroke-linecap:round;stroke-linejoin:round;stroke-opacity:1"
         id="g286566" />
      <g
         style="fill:#000000;fill-opacity:0;stroke:#000000;stroke-width:59.0551;stroke-linecap:round;stroke-linejoin:round;stroke-opacity:1"
         id="g286632" />
      <g
         style="fill:#000000;fill-opacity:0;stroke:#000000;stroke-width:59.0551;stroke-linecap:round;stroke-linejoin:round;stroke-opacity:1"
         id="g286654" />
      <g
         style="fill:#000000;fill-opacity:0;stroke:#000000;stroke-width:59.0551;stroke-linecap:round;stroke-linejoin:round;stroke-opacity:1"
         id="g286676" />
      <g
         style="fill:#000000;fill-opacity:0;stroke:#000000;stroke-width:59.0551;stroke-linecap:round;stroke-linejoin:round;stroke-opacity:1"
         id="g286698" />
      <g
         style="fill:#000000;fill-opacity:0;stroke:#000000;stroke-width:59.0551;stroke-linecap:round;stroke-linejoin:round;stroke-opacity:1"
         id="g286720" />
      <g
         style="fill:#000000;fill-opacity:0;stroke:#000000;stroke-width:59.0551;stroke-linecap:round;stroke-linejoin:round;stroke-opacity:1"
         id="g286742" />
      <g
         style="fill:#000000;fill-opacity:0;stroke:#000000;stroke-width:59.0551;stroke-linecap:round;stroke-linejoin:round;stroke-opacity:1"
         id="g286764" />
      <path
         style="fill:none;stroke:#000000;stroke-width:59.3846;stroke-opacity:1"
         d="m 20290.531,2282.067 c -654.568,337.885 -771.005,1141.38 -1111.576,1732.649 -355.38,763.013 -710.851,1526.0134 -1066.17,2289.0354 -1970.063,-913.119 -3934.173,-1840.3994 -5917.467,-2724.1534 -624.755,-223.431 -1260.309,217.566 -1443.156,818.628 -3104.4074,6627.277 -6203.3104,13257.43 -9265.6774,19904.166 -265.701,638.874 185.992,1310.665 780.772,1550.387 1817.846,911.163 3671.745,1749.926 5524.436,2587.631 -248.02,673.197 -772.632,1335.405 -633.569,2087.431 177.688,793.244 1099.324,912.966 1701.229,1259.007 1887.1764,854.909 3739.1774,1797.377 5663.2154,2565.694 625.726,168.199 1192.803,-318.567 1376.104,-891.13 105.769,-426.18 323.573,-534.9 683.22,-249.356 1502.477,706.592 3007.352,1408.07 4513.463,2106.877 -980.967,2107.596 -1998.695,4201.181 -2918.893,6335.248 -151.768,593.351 254.509,1165.273 811.202,1352.509 2155.656,1055.956 4359.358,2016.881 6514.339,3070.232 2045.307,1424.501 4106.863,2856.291 6140.14,4309.721 1745.097,1735.65 3470.881,3494.69 5227.971,5215.81 579.605,461.44 1372.135,205.47 2053.498,272.14 7403.291,-7.55 14809.481,15.08 22210.964,-11.31 736.261,-83.84 1115.177,-825.75 1643.836,-1260.86 1474.592,-1457.17 2913.243,-2957.16 4410.193,-4387.7 2035.431,-1407.28 4043.1,-2862.66 6095.652,-4240.226 2210.189,-1037.094 4434.041,-2046.236 6630.862,-3111.166 529.118,-308.497 665.821,-1017.294 363.892,-1532.873 -889.761,-2016.655 -1818.589,-4016.049 -2761.664,-6008.277 1643.053,-781.48 3310.846,-1543.025 4958.615,-2336.181 275.835,569.73 510.274,1395.257 1273.396,1419.109 655.582,-5.239 1211.66,-457.387 1814.378,-677.445 1811.95,-842.541 3630.746,-1671.428 5430.437,-2539.673 561.274,-318.135 667.299,-1066.246 349.931,-1594.801 -166.847,-385.269 -348.825,-763.703 -525.649,-1144.43 1970.251,-920.697 3967.623,-1796.158 5913.069,-2762.573 584.523,-340.948 599.226,-1127.623 260.128,-1650.679 C 93918.13,17385.29 90831.638,10740.757 87702.854,4116.379 c -291.93,-582.381 -1065.491,-737.523 -1601.087,-399.224 -1877.26,847.375 -3744.248,1717.4214 -5609.156,2591.5834 -604.191,-1225.499 -1100.73,-2513.6734 -1819.117,-3677.9024 -384.046,-492.135 -1095.468,-463.7 -1588.426,-160.988 -1824.99,836.537 -3640.081,1694.58 -5451.899,2559.2224 -289.048,-595.5154 -612.315,-1415.3184 -1400.693,-1415.5314 -657.418,48.999 -1208.816,492.993 -1816.148,722.077 -1761.727,831.2044 -3537.927,1633.0784 -5286.525,2491.3454 -551.35,325.066 -648.16,1067.997 -332.417,1592.25 23.35,230.297 463.954,613.721 74.23,684.547 -1914.266,891.688 -3846.954,1748.5386 -5736.529,2690.5176 -391.303,277.197 -575.345,804.762 -403.166,1258.675 -1921.026,882.926 -3835.101,1780.847 -5751.956,2672.772 -1135.566,-17.121 -2286.228,33.783 -3412.519,-25.123 -1884.651,-877.672 -3765.039,-1764.578 -5655.466,-2629.787 194.604,-622.822 -263.147,-1213.896 -821.714,-1442.071 -1823.344,-912.469 -3681.353,-1755.0696 -5538.471,-2596.3146 259.789,-578.336 706.119,-1280.396 272.638,-1889.806 -432.612,-534.773 -1164.207,-663.721 -1741.522,-995.498 -1790.622,-827.949 -3573.955,-1673.1224 -5377.744,-2471.7214 -608.353,-215.565 -1237.565,191.454 -1437.062,774.087 -158.159,202.745 -190.107,749.9204 -521.934,450.8374 C 24834.342,4023.23 22939.332,3096.849 21010.738,2263.778 c -245.098,-79.755 -476.231,-48.944 -720.207,18.289 z"
         id="path305404" />
    </g>
  </g>
</svg>
