<?xml version="1.0" encoding="utf-8"?>
<svg viewBox="0 0 500 500" xmlns="http://www.w3.org/2000/svg">
  <g transform="matrix(1, 0, 0, 1, -29.145075, -502.362181)" id="layer1">
    <rect width="750" height="600" rx="37.5" ry="37.5" x="0" y="452.36218" id="rect2985" style="fill:#000000;fill-opacity:1;stroke:none"/>
    <rect width="600" height="450" x="75" y="527.36218" id="rect3755" style="fill:#ffffff;fill-opacity:1;fill-rule:nonzero;stroke:none"/>
    <g id="text3757" style="font-size:443.03796387px;font-style:normal;font-variant:normal;font-weight:normal;font-stretch:normal;text-align:center;line-height:100%;letter-spacing:0px;word-spacing:0px;writing-mode:lr-tb;text-anchor:middle;fill:none;stroke:#000000;stroke-width:3.16455698px;stroke-linecap:butt;stroke-linejoin:miter;stroke-opacity:1;font-family:Roadgeek 2005 Series C;-inkscape-font-specification:Roadgeek 2005 Series C">
      <path d="m 356.14218,817.48877 c -2.4e-4,7.97476 -1.18168,15.94943 -3.54431,23.92405 -2.3631,7.97473 -5.75972,15.35869 -10.18987,22.1519 -4.13524,6.79328 -9.15633,12.84812 -15.06329,18.16455 -5.61202,5.02112 -11.96222,9.00845 -19.05063,11.96203 -5.31664,2.06752 -11.96221,3.83967 -19.93671,5.31646 -7.67949,1.18143 -14.91577,1.77215 -21.70886,1.77215 l -112.53165,0 0,-296.83544 112.53165,0 c 11.81418,3e-4 22.74244,1.92013 32.78481,5.75949 10.042,3.83995 18.75507,9.1564 26.13924,15.94937 7.38375,6.49816 13.14324,14.32516 17.27848,23.48101 4.13479,9.15636 6.2023,19.05087 6.20253,29.68355 -2.3e-4,28.64998 -13.88207,50.94953 -41.64557,66.89873 15.6538,7.38411 27.61582,17.13094 35.88607,29.24051 8.56517,12.10981 12.84787,26.28701 12.84811,42.53164 M 302.09154,681.03308 c -1.8e-4,-20.08415 -10.78076,-30.12633 -32.34177,-30.12658 l -68.67088,0 0,72.65822 56.26582,0 c 6.7931,1.8e-4 12.10955,-0.44286 15.94937,-1.32911 3.8395,-1.18126 7.82684,-3.39644 11.96202,-6.64557 11.22345,-8.86057 16.83526,-20.37954 16.83544,-34.55696 m 6.20254,137.34177 c -1.9e-4,-9.74675 -2.65842,-18.75518 -7.97469,-27.02532 -5.02127,-8.56528 -11.81451,-14.47245 -20.37974,-17.72152 -3.24911,-1.1813 -6.05501,-1.77202 -8.41773,-1.77215 -2.36302,-0.29523 -6.05499,-0.44291 -11.07594,-0.44304 l -59.36709,0 0,81.51899 70.88607,0 c 24.21923,4e-5 36.32893,-11.51893 36.32912,-34.55696" id="path3944" style="line-height:100%;fill:#000000;fill-opacity:1;stroke:none;font-family:Roadgeek 2005 Series D;-inkscape-font-specification:Roadgeek 2005 Series D"/>
      <path d="M 560.099 686.35 C 560.099 663.311 547.989 651.793 523.77 651.793 L 452.884 651.793 L 452.884 733.312 L 512.251 733.312 C 517.272 733.311 520.964 733.164 523.327 732.869 C 525.689 732.868 528.495 732.278 531.744 731.096 C 540.31 727.847 547.103 721.94 552.124 713.375 C 557.44 705.105 560.099 696.096 560.099 686.35 M 553.896 823.691 C 553.896 809.514 548.284 797.995 537.061 789.134 C 532.926 785.885 528.938 783.67 525.099 782.489 C 521.259 781.603 515.943 781.159 509.149 781.16 L 452.884 781.16 L 452.884 853.818 L 521.555 853.818 C 543.116 853.818 553.896 843.775 553.896 823.691 M 607.947 687.236 C 607.947 703.48 603.664 717.657 595.099 729.767 C 586.829 741.877 574.867 751.624 559.213 759.008 C 586.976 774.957 600.858 797.256 600.858 825.906 C 600.858 836.539 598.791 846.434 594.656 855.59 C 590.521 864.746 584.761 872.573 577.377 879.071 C 569.993 885.864 561.28 891.18 551.238 895.02 C 541.196 898.86 530.267 900.78 518.453 900.78 L 405.922 900.78 L 405.922 603.944 L 518.453 603.944 C 525.246 603.944 532.483 604.535 540.162 605.717 C 548.137 607.193 554.782 608.966 560.099 611.033 C 567.187 613.987 573.537 617.974 579.149 622.995 C 585.056 628.312 590.078 634.366 594.213 641.16 C 598.643 647.953 602.04 655.337 604.403 663.312 C 606.765 671.286 607.947 679.261 607.947 687.236" id="path3946" style="line-height:100%;fill:#000000;fill-opacity:1;stroke:none;font-family:Roadgeek 2005 Series D;-inkscape-font-specification:Roadgeek 2005 Series D" transform="matrix(-1, 0, 0, -1, 1013.869019, 1504.723999)"/>
    </g>
  </g>
</svg>